<?xml version="1.0" encoding="UTF-8" standalone="no"?>
<!DOCTYPE svg PUBLIC "-//W3C//DTD SVG 1.1//EN"
 "http://www.w3.org/Graphics/SVG/1.1/DTD/svg11.dtd">
<!-- Generated by graphviz version 2.43.0 (0)
 -->
<!-- Title: ipc::transport::sync_io::Blob_stream_mq_receiver&lt; Persistent_mq_handle &gt; Pages: 1 -->
<svg width="411pt" height="170pt"
 viewBox="0.00 0.00 411.00 170.00" xmlns="http://www.w3.org/2000/svg" xmlns:xlink="http://www.w3.org/1999/xlink">
<g id="graph0" class="graph" transform="scale(1 1) rotate(0) translate(4 166)">
<title>ipc::transport::sync_io::Blob_stream_mq_receiver&lt; Persistent_mq_handle &gt;</title>
<polygon fill="white" stroke="transparent" points="-4,4 -4,-166 407,-166 407,4 -4,4"/>
<!-- Node1 -->
<g id="node1" class="node">
<title>Node1</title>
<g id="a_node1"><a xlink:title="Implements sync_io::Blob_receiver concept by using an adopted Persistent_mq_handle MQ handle to an MQ...">
<polygon fill="#bfbfbf" stroke="black" points="266,-59.5 266,-94.5 403,-94.5 403,-59.5 266,-59.5"/>
<text text-anchor="start" x="274" y="-84.1" font-family="Helvetica,sans-Serif" font-size="8.00">ipc::transport::sync</text>
<text text-anchor="start" x="274" y="-75.1" font-family="Helvetica,sans-Serif" font-size="8.00">_io::Blob_stream_mq_receiver</text>
<text text-anchor="middle" x="334.5" y="-66.1" font-family="Helvetica,sans-Serif" font-size="8.00">&lt; Persistent_mq_handle &gt;</text>
</a>
</g>
</g>
<!-- Node2 -->
<g id="node2" class="node">
<title>Node2</title>
<g id="a_node2"><a xlink:href="classipc_1_1transport_1_1Blob__stream__mq__base.html" target="_top" xlink:title="Base of Blob_stream_mq_sender and Blob_stream_mq_receiver containing certain static facilities,...">
<polygon fill="white" stroke="black" points="0,-126.5 0,-161.5 139,-161.5 139,-126.5 0,-126.5"/>
<text text-anchor="start" x="8" y="-151.1" font-family="Helvetica,sans-Serif" font-size="8.00">ipc::transport::Blob</text>
<text text-anchor="start" x="8" y="-142.1" font-family="Helvetica,sans-Serif" font-size="8.00">_stream_mq_base&lt; Persistent</text>
<text text-anchor="middle" x="69.5" y="-133.1" font-family="Helvetica,sans-Serif" font-size="8.00">_mq_handle &gt;</text>
</a>
</g>
</g>
<!-- Node2&#45;&gt;Node1 -->
<g id="edge1" class="edge">
<title>Node2&#45;&gt;Node1</title>
<path fill="none" stroke="midnightblue" d="M149.03,-123.99C186.12,-114.55 229.96,-103.38 265.6,-94.3"/>
<polygon fill="midnightblue" stroke="midnightblue" points="148.08,-120.62 139.26,-126.48 149.81,-127.41 148.08,-120.62"/>
</g>
<!-- Node3 -->
<g id="node3" class="node">
<title>Node3</title>
<g id="a_node3"><a xlink:href="classipc_1_1util_1_1Shared__name.html" target="_top" xlink:title="String&#45;wrapping abstraction representing a name uniquely distinguishing a kernel&#45;persistent entity fr...">
<polygon fill="white" stroke="black" points="14.5,-0.5 14.5,-17.5 124.5,-17.5 124.5,-0.5 14.5,-0.5"/>
<text text-anchor="middle" x="69.5" y="-7.1" font-family="Helvetica,sans-Serif" font-size="8.00">ipc::util::Shared_name</text>
</a>
</g>
</g>
<!-- Node3&#45;&gt;Node1 -->
<g id="edge2" class="edge">
<title>Node3&#45;&gt;Node1</title>
<path fill="none" stroke="#9a32cd" stroke-dasharray="5,2" d="M113.3,-20.07C154.63,-30.75 217.87,-47.1 265.99,-59.55"/>
<polygon fill="#9a32cd" stroke="#9a32cd" points="114.1,-16.66 103.54,-17.54 112.35,-23.44 114.1,-16.66"/>
<text text-anchor="middle" x="202.5" y="-55.6" font-family="Helvetica,sans-Serif" font-size="8.00"> S_RESOURCE_TYPE_ID</text>
</g>
<!-- Node3&#45;&gt;Node3 -->
<g id="edge3" class="edge">
<title>Node3&#45;&gt;Node3</title>
<path fill="none" stroke="#9a32cd" stroke-dasharray="5,2" d="M44.75,-26.1C44.97,-31.62 53.22,-36 69.5,-36 93.73,-36 100.17,-26.29 88.81,-17.57"/>
<polygon fill="#9a32cd" stroke="#9a32cd" points="47.77,-27.88 50.19,-17.57 41.86,-24.12 47.77,-27.88"/>
<text text-anchor="middle" x="69.5" y="-101.6" font-family="Helvetica,sans-Serif" font-size="8.00"> S_1ST_OR_ONLY</text>
<text text-anchor="middle" x="69.5" y="-92.6" font-family="Helvetica,sans-Serif" font-size="8.00">S_EMPTY</text>
<text text-anchor="start" x="31" y="-83.6" font-family="Helvetica,sans-Serif" font-size="8.00">S_RESOURCE_TYPE</text>
<text text-anchor="middle" x="69.5" y="-74.6" font-family="Helvetica,sans-Serif" font-size="8.00">_ID_MUTEX</text>
<text text-anchor="start" x="31" y="-65.6" font-family="Helvetica,sans-Serif" font-size="8.00">S_RESOURCE_TYPE</text>
<text text-anchor="middle" x="69.5" y="-56.6" font-family="Helvetica,sans-Serif" font-size="8.00">_ID_SHM</text>
<text text-anchor="middle" x="69.5" y="-47.6" font-family="Helvetica,sans-Serif" font-size="8.00">S_ROOT_MAGIC</text>
<text text-anchor="middle" x="69.5" y="-38.6" font-family="Helvetica,sans-Serif" font-size="8.00">S_SENTINEL</text>
</g>
</g>
</svg>
