<?xml version="1.0" encoding="UTF-8" standalone="no"?>
<!DOCTYPE svg PUBLIC "-//W3C//DTD SVG 1.1//EN"
 "http://www.w3.org/Graphics/SVG/1.1/DTD/svg11.dtd">
<!-- Generated by graphviz version 2.43.0 (0)
 -->
<!-- Title: ipc::session::shm::classic::Session_mv&lt; Session_t &gt; Pages: 1 -->
<svg width="280pt" height="62pt"
 viewBox="0.00 0.00 280.00 62.00" xmlns="http://www.w3.org/2000/svg" xmlns:xlink="http://www.w3.org/1999/xlink">
<g id="graph0" class="graph" transform="scale(1 1) rotate(0) translate(4 58)">
<title>ipc::session::shm::classic::Session_mv&lt; Session_t &gt;</title>
<polygon fill="white" stroke="transparent" points="-4,4 -4,-58 276,-58 276,4 -4,4"/>
<!-- Node1 -->
<g id="node1" class="node">
<title>Node1</title>
<g id="a_node1"><a xlink:title="Implements the SHM&#45;related API common to shm::classic::Server_session and shm::classic::Client_sessio...">
<polygon fill="#bfbfbf" stroke="black" points="0,-9.5 0,-44.5 98,-44.5 98,-9.5 0,-9.5"/>
<text text-anchor="start" x="8" y="-34.1" font-family="Helvetica,sans-Serif" font-size="8.00">ipc::session::shm::</text>
<text text-anchor="start" x="8" y="-25.1" font-family="Helvetica,sans-Serif" font-size="8.00">classic::Session_mv</text>
<text text-anchor="middle" x="49" y="-16.1" font-family="Helvetica,sans-Serif" font-size="8.00">&lt; Session_t &gt;</text>
</a>
</g>
</g>
<!-- Node2 -->
<g id="node2" class="node">
<title>Node2</title>
<g id="a_node2"><a xlink:href="classipc_1_1session_1_1shm_1_1classic_1_1Server__session.html" target="_top" xlink:title="Identical to session::Server_session in every way, except that it makes available two SHM arenas,...">
<polygon fill="white" stroke="black" points="134,-0.5 134,-53.5 272,-53.5 272,-0.5 134,-0.5"/>
<text text-anchor="start" x="142" y="-43.1" font-family="Helvetica,sans-Serif" font-size="8.00">ipc::session::shm::</text>
<text text-anchor="start" x="142" y="-34.1" font-family="Helvetica,sans-Serif" font-size="8.00">classic::Server_session</text>
<text text-anchor="start" x="142" y="-25.1" font-family="Helvetica,sans-Serif" font-size="8.00">&lt; S_MQ_TYPE_OR_NONE, S</text>
<text text-anchor="start" x="142" y="-16.1" font-family="Helvetica,sans-Serif" font-size="8.00">_TRANSMIT_NATIVE_HANDLES,</text>
<text text-anchor="middle" x="203" y="-7.1" font-family="Helvetica,sans-Serif" font-size="8.00"> Mdt_payload &gt;</text>
</a>
</g>
</g>
<!-- Node1&#45;&gt;Node2 -->
<g id="edge1" class="edge">
<title>Node1&#45;&gt;Node2</title>
<path fill="none" stroke="midnightblue" d="M108.19,-27C116.61,-27 125.35,-27 133.95,-27"/>
<polygon fill="midnightblue" stroke="midnightblue" points="108.09,-23.5 98.09,-27 108.09,-30.5 108.09,-23.5"/>
</g>
</g>
</svg>
