<?xml version="1.0" encoding="UTF-8" standalone="no"?>
<!DOCTYPE svg PUBLIC "-//W3C//DTD SVG 1.1//EN"
 "http://www.w3.org/Graphics/SVG/1.1/DTD/svg11.dtd">
<!-- Generated by graphviz version 2.43.0 (0)
 -->
<!-- Title: ipc::session::Session_server&lt; S_MQ_TYPE_OR_NONE, S_TRANSMIT_NATIVE_HANDLES, Mdt_payload &gt; Pages: 1 -->
<svg width="140pt" height="125pt"
 viewBox="0.00 0.00 140.00 125.00" xmlns="http://www.w3.org/2000/svg" xmlns:xlink="http://www.w3.org/1999/xlink">
<g id="graph0" class="graph" transform="scale(1 1) rotate(0) translate(4 121)">
<title>ipc::session::Session_server&lt; S_MQ_TYPE_OR_NONE, S_TRANSMIT_NATIVE_HANDLES, Mdt_payload &gt;</title>
<polygon fill="white" stroke="transparent" points="-4,4 -4,-121 136,-121 136,4 -4,4"/>
<!-- Node1 -->
<g id="node1" class="node">
<title>Node1</title>
<g id="a_node1"><a xlink:title="To be instantiated typically once in a given process, an object of this type asynchronously listens f...">
<polygon fill="#bfbfbf" stroke="black" points="0.5,-72.5 0.5,-116.5 131.5,-116.5 131.5,-72.5 0.5,-72.5"/>
<text text-anchor="start" x="8.5" y="-106.1" font-family="Helvetica,sans-Serif" font-size="8.00">ipc::session::Session</text>
<text text-anchor="start" x="8.5" y="-97.1" font-family="Helvetica,sans-Serif" font-size="8.00">_server&lt; S_MQ_TYPE_OR</text>
<text text-anchor="start" x="8.5" y="-88.1" font-family="Helvetica,sans-Serif" font-size="8.00">_NONE, S_TRANSMIT_NATIVE</text>
<text text-anchor="middle" x="66" y="-79.1" font-family="Helvetica,sans-Serif" font-size="8.00">_HANDLES, Mdt_payload &gt;</text>
</a>
</g>
</g>
<!-- Node2 -->
<g id="node2" class="node">
<title>Node2</title>
<g id="a_node2"><a xlink:href="classipc_1_1session_1_1sync__io_1_1Session__server__adapter.html" target="_top" xlink:title="sync_io&#45;pattern counterpart to async&#45;I/O&#45;pattern session::Session_server types and all their SHM&#45;awar...">
<polygon fill="white" stroke="black" points="0,-0.5 0,-35.5 132,-35.5 132,-0.5 0,-0.5"/>
<text text-anchor="start" x="8" y="-25.1" font-family="Helvetica,sans-Serif" font-size="8.00">ipc::session::sync</text>
<text text-anchor="start" x="8" y="-16.1" font-family="Helvetica,sans-Serif" font-size="8.00">_io::Session_server</text>
<text text-anchor="middle" x="66" y="-7.1" font-family="Helvetica,sans-Serif" font-size="8.00">_adapter&lt; Session_server &gt;</text>
</a>
</g>
</g>
<!-- Node1&#45;&gt;Node2 -->
<g id="edge1" class="edge">
<title>Node1&#45;&gt;Node2</title>
<path fill="none" stroke="#8b1a1a" d="M66,-62.15C66,-53.16 66,-43.71 66,-35.95"/>
<polygon fill="#8b1a1a" stroke="#8b1a1a" points="62.5,-62.35 66,-72.35 69.5,-62.35 62.5,-62.35"/>
</g>
</g>
</svg>
