<?xml version="1.0" encoding="UTF-8" standalone="no"?>
<!DOCTYPE svg PUBLIC "-//W3C//DTD SVG 1.1//EN"
 "http://www.w3.org/Graphics/SVG/1.1/DTD/svg11.dtd">
<!-- Generated by graphviz version 2.43.0 (0)
 -->
<!-- Title: ipc::transport::struc::shm::Builder_base Pages: 1 -->
<svg width="146pt" height="98pt"
 viewBox="0.00 0.00 146.00 98.00" xmlns="http://www.w3.org/2000/svg" xmlns:xlink="http://www.w3.org/1999/xlink">
<g id="graph0" class="graph" transform="scale(1 1) rotate(0) translate(4 94)">
<title>ipc::transport::struc::shm::Builder_base</title>
<polygon fill="white" stroke="transparent" points="-4,4 -4,-94 142,-94 142,4 -4,4"/>
<!-- Node1 -->
<g id="node1" class="node">
<title>Node1</title>
<g id="a_node1"><a xlink:title="shm::Builder base that contains non&#45;parameterized public items such as tag types and constants.">
<polygon fill="#bfbfbf" stroke="black" points="20,-63.5 20,-89.5 118,-89.5 118,-63.5 20,-63.5"/>
<text text-anchor="start" x="28" y="-79.1" font-family="Helvetica,sans-Serif" font-size="8.00">ipc::transport::struc</text>
<text text-anchor="middle" x="69" y="-70.1" font-family="Helvetica,sans-Serif" font-size="8.00">::shm::Builder_base</text>
</a>
</g>
</g>
<!-- Node2 -->
<g id="node2" class="node">
<title>Node2</title>
<g id="a_node2"><a xlink:href="classipc_1_1transport_1_1struc_1_1shm_1_1Builder.html" target="_top" xlink:title="Implements Struct_builder concept with maximal zero&#45;copy perf by (1) storing the actual user&#45;schema&#45;c...">
<polygon fill="white" stroke="black" points="0,-0.5 0,-26.5 138,-26.5 138,-0.5 0,-0.5"/>
<text text-anchor="start" x="8" y="-16.1" font-family="Helvetica,sans-Serif" font-size="8.00">ipc::transport::struc</text>
<text text-anchor="middle" x="69" y="-7.1" font-family="Helvetica,sans-Serif" font-size="8.00">::shm::Builder&lt; Shm_arena &gt;</text>
</a>
</g>
</g>
<!-- Node1&#45;&gt;Node2 -->
<g id="edge1" class="edge">
<title>Node1&#45;&gt;Node2</title>
<path fill="none" stroke="midnightblue" d="M69,-53.19C69,-44.18 69,-34.12 69,-26.53"/>
<polygon fill="midnightblue" stroke="midnightblue" points="65.5,-53.45 69,-63.45 72.5,-53.45 65.5,-53.45"/>
</g>
</g>
</svg>
