<?xml version="1.0" encoding="UTF-8" standalone="no"?>
<!DOCTYPE svg PUBLIC "-//W3C//DTD SVG 1.1//EN"
 "http://www.w3.org/Graphics/SVG/1.1/DTD/svg11.dtd">
<!-- Generated by graphviz version 2.43.0 (0)
 -->
<!-- Title: ipc::util::Process_credentials Pages: 1 -->
<svg width="153pt" height="107pt"
 viewBox="0.00 0.00 153.00 107.00" xmlns="http://www.w3.org/2000/svg" xmlns:xlink="http://www.w3.org/1999/xlink">
<g id="graph0" class="graph" transform="scale(1 1) rotate(0) translate(4 103)">
<title>ipc::util::Process_credentials</title>
<polygon fill="white" stroke="transparent" points="-4,4 -4,-103 149,-103 149,4 -4,4"/>
<!-- Node1 -->
<g id="node1" class="node">
<title>Node1</title>
<g id="a_node1"><a xlink:title="A process&#39;s credentials (PID, UID, GID as of this writing).">
<polygon fill="#bfbfbf" stroke="black" points="30,-72.5 30,-98.5 115,-98.5 115,-72.5 30,-72.5"/>
<text text-anchor="start" x="38" y="-88.1" font-family="Helvetica,sans-Serif" font-size="8.00">ipc::util::Process</text>
<text text-anchor="middle" x="72.5" y="-79.1" font-family="Helvetica,sans-Serif" font-size="8.00">_credentials</text>
</a>
</g>
</g>
<!-- Node2 -->
<g id="node2" class="node">
<title>Node2</title>
<g id="a_node2"><a xlink:href="classipc_1_1transport_1_1asio__local__stream__socket_1_1Opt__peer__process__credentials.html" target="_top" xlink:title="Gettable (read&#45;only) socket option for use with asio_local_stream_socket::Peer_socket ....">
<polygon fill="white" stroke="black" points="0,-0.5 0,-35.5 145,-35.5 145,-0.5 0,-0.5"/>
<text text-anchor="start" x="8" y="-25.1" font-family="Helvetica,sans-Serif" font-size="8.00">ipc::transport::asio</text>
<text text-anchor="start" x="8" y="-16.1" font-family="Helvetica,sans-Serif" font-size="8.00">_local_stream_socket</text>
<text text-anchor="middle" x="72.5" y="-7.1" font-family="Helvetica,sans-Serif" font-size="8.00">::Opt_peer_process_credentials</text>
</a>
</g>
</g>
<!-- Node1&#45;&gt;Node2 -->
<g id="edge1" class="edge">
<title>Node1&#45;&gt;Node2</title>
<path fill="none" stroke="midnightblue" d="M72.5,-62.25C72.5,-53.53 72.5,-43.71 72.5,-35.62"/>
<polygon fill="midnightblue" stroke="midnightblue" points="69,-62.49 72.5,-72.49 76,-62.49 69,-62.49"/>
</g>
</g>
</svg>
