<?xml version="1.0" encoding="UTF-8" standalone="no"?>
<!DOCTYPE svg PUBLIC "-//W3C//DTD SVG 1.1//EN"
 "http://www.w3.org/Graphics/SVG/1.1/DTD/svg11.dtd">
<!-- Generated by graphviz version 2.43.0 (0)
 -->
<!-- Title: ipc::transport::sync_io::Native_handle_receiver Pages: 1 -->
<svg width="223pt" height="152pt"
 viewBox="0.00 0.00 222.50 152.00" xmlns="http://www.w3.org/2000/svg" xmlns:xlink="http://www.w3.org/1999/xlink">
<g id="graph0" class="graph" transform="scale(1 1) rotate(0) translate(4 148)">
<title>ipc::transport::sync_io::Native_handle_receiver</title>
<polygon fill="white" stroke="transparent" points="-4,4 -4,-148 218.5,-148 218.5,4 -4,4"/>
<!-- Node1 -->
<g id="node1" class="node">
<title>Node1</title>
<g id="a_node1"><a xlink:title="A documentation&#45;only concept defining the behavior of an object that is the sync_io&#45;pattern counterpa...">
<polygon fill="#bfbfbf" stroke="black" points="0,-0.5 0,-26.5 129,-26.5 129,-0.5 0,-0.5"/>
<text text-anchor="start" x="8" y="-16.1" font-family="Helvetica,sans-Serif" font-size="8.00">ipc::transport::sync</text>
<text text-anchor="middle" x="64.5" y="-7.1" font-family="Helvetica,sans-Serif" font-size="8.00">_io::Native_handle_receiver</text>
</a>
</g>
</g>
<!-- Node2 -->
<g id="node2" class="node">
<title>Node2</title>
<g id="a_node2"><a xlink:href="classipc_1_1util_1_1Shared__name.html" target="_top" xlink:title="String&#45;wrapping abstraction representing a name uniquely distinguishing a kernel&#45;persistent entity fr...">
<polygon fill="white" stroke="black" points="9.5,-99.5 9.5,-116.5 119.5,-116.5 119.5,-99.5 9.5,-99.5"/>
<text text-anchor="middle" x="64.5" y="-106.1" font-family="Helvetica,sans-Serif" font-size="8.00">ipc::util::Shared_name</text>
</a>
</g>
</g>
<!-- Node2&#45;&gt;Node1 -->
<g id="edge1" class="edge">
<title>Node2&#45;&gt;Node1</title>
<path fill="none" stroke="#9a32cd" stroke-dasharray="5,2" d="M64.5,-89.25C64.5,-70.92 64.5,-42.81 64.5,-26.79"/>
<polygon fill="#9a32cd" stroke="#9a32cd" points="61,-89.43 64.5,-99.43 68,-89.43 61,-89.43"/>
<text text-anchor="middle" x="110" y="-47.6" font-family="Helvetica,sans-Serif" font-size="8.00"> S_RESOURCE_TYPE_ID</text>
</g>
<!-- Node2&#45;&gt;Node2 -->
<g id="edge2" class="edge">
<title>Node2&#45;&gt;Node2</title>
<path fill="none" stroke="#9a32cd" stroke-dasharray="5,2" d="M98.02,-118.17C118.32,-120.49 137.5,-117.1 137.5,-108 137.5,-97.41 111.53,-94.55 88.05,-99.44"/>
<polygon fill="#9a32cd" stroke="#9a32cd" points="98.48,-114.69 88.05,-116.56 97.37,-121.6 98.48,-114.69"/>
<text text-anchor="middle" x="176" y="-137.6" font-family="Helvetica,sans-Serif" font-size="8.00"> S_1ST_OR_ONLY</text>
<text text-anchor="middle" x="176" y="-128.6" font-family="Helvetica,sans-Serif" font-size="8.00">S_EMPTY</text>
<text text-anchor="start" x="137.5" y="-119.6" font-family="Helvetica,sans-Serif" font-size="8.00">S_RESOURCE_TYPE</text>
<text text-anchor="middle" x="176" y="-110.6" font-family="Helvetica,sans-Serif" font-size="8.00">_ID_MUTEX</text>
<text text-anchor="start" x="137.5" y="-101.6" font-family="Helvetica,sans-Serif" font-size="8.00">S_RESOURCE_TYPE</text>
<text text-anchor="middle" x="176" y="-92.6" font-family="Helvetica,sans-Serif" font-size="8.00">_ID_SHM</text>
<text text-anchor="middle" x="176" y="-83.6" font-family="Helvetica,sans-Serif" font-size="8.00">S_ROOT_MAGIC</text>
<text text-anchor="middle" x="176" y="-74.6" font-family="Helvetica,sans-Serif" font-size="8.00">S_SENTINEL</text>
</g>
</g>
</svg>
