<?xml version="1.0" encoding="UTF-8" standalone="no"?>
<!DOCTYPE svg PUBLIC "-//W3C//DTD SVG 1.1//EN"
 "http://www.w3.org/Graphics/SVG/1.1/DTD/svg11.dtd">
<!-- Generated by graphviz version 2.43.0 (0)
 -->
<!-- Title: ipc::session::shm::arena_lend::jemalloc::Server_session&lt; S_MQ_TYPE_OR_NONE, S_TRANSMIT_NATIVE_HANDLES, Mdt_payload &gt; Pages: 1 -->
<svg width="761pt" height="80pt"
 viewBox="0.00 0.00 761.00 80.00" xmlns="http://www.w3.org/2000/svg" xmlns:xlink="http://www.w3.org/1999/xlink">
<g id="graph0" class="graph" transform="scale(1 1) rotate(0) translate(4 76)">
<title>ipc::session::shm::arena_lend::jemalloc::Server_session&lt; S_MQ_TYPE_OR_NONE, S_TRANSMIT_NATIVE_HANDLES, Mdt_payload &gt;</title>
<polygon fill="white" stroke="transparent" points="-4,4 -4,-76 757,-76 757,4 -4,4"/>
<!-- Node1 -->
<g id="node1" class="node">
<title>Node1</title>
<g id="a_node1"><a xlink:title="Identical to session::Server_session in every way, except that it makes available two SHM arenas,...">
<polygon fill="#bfbfbf" stroke="black" points="597,-9.5 597,-62.5 753,-62.5 753,-9.5 597,-9.5"/>
<text text-anchor="start" x="605" y="-52.1" font-family="Helvetica,sans-Serif" font-size="8.00">ipc::session::shm::</text>
<text text-anchor="start" x="605" y="-43.1" font-family="Helvetica,sans-Serif" font-size="8.00">arena_lend::jemalloc</text>
<text text-anchor="start" x="605" y="-34.1" font-family="Helvetica,sans-Serif" font-size="8.00">::Server_session&lt; S_MQ</text>
<text text-anchor="start" x="605" y="-25.1" font-family="Helvetica,sans-Serif" font-size="8.00">_TYPE_OR_NONE, S_TRANSMIT</text>
<text text-anchor="middle" x="675" y="-16.1" font-family="Helvetica,sans-Serif" font-size="8.00">_NATIVE_HANDLES, Mdt_payload &gt;</text>
</a>
</g>
</g>
<!-- Node2 -->
<g id="node2" class="node">
<title>Node2</title>
<g id="a_node2"><a xlink:href="classipc_1_1session_1_1shm_1_1arena__lend_1_1jemalloc_1_1Session__mv.html" target="_top" xlink:title=" ">
<polygon fill="white" stroke="black" points="386,-0.5 386,-71.5 561,-71.5 561,-0.5 386,-0.5"/>
<text text-anchor="start" x="394" y="-61.1" font-family="Helvetica,sans-Serif" font-size="8.00">ipc::session::shm::</text>
<text text-anchor="start" x="394" y="-52.1" font-family="Helvetica,sans-Serif" font-size="8.00">arena_lend::jemalloc</text>
<text text-anchor="start" x="394" y="-43.1" font-family="Helvetica,sans-Serif" font-size="8.00">::Session_mv&lt; session</text>
<text text-anchor="start" x="394" y="-34.1" font-family="Helvetica,sans-Serif" font-size="8.00">::Server_session_mv&lt; Server</text>
<text text-anchor="start" x="394" y="-25.1" font-family="Helvetica,sans-Serif" font-size="8.00">_session_impl&lt; S_MQ_TYPE_OR</text>
<text text-anchor="start" x="394" y="-16.1" font-family="Helvetica,sans-Serif" font-size="8.00">_NONE, S_TRANSMIT_NATIVE_HANDLES,</text>
<text text-anchor="middle" x="473.5" y="-7.1" font-family="Helvetica,sans-Serif" font-size="8.00"> Mdt_payload &gt; &gt; &gt;</text>
</a>
</g>
</g>
<!-- Node2&#45;&gt;Node1 -->
<g id="edge1" class="edge">
<title>Node2&#45;&gt;Node1</title>
<path fill="none" stroke="midnightblue" d="M571.2,-36C579.81,-36 588.44,-36 596.85,-36"/>
<polygon fill="midnightblue" stroke="midnightblue" points="571.13,-32.5 561.13,-36 571.13,-39.5 571.13,-32.5"/>
</g>
<!-- Node3 -->
<g id="node3" class="node">
<title>Node3</title>
<g id="a_node3"><a xlink:href="classipc_1_1session_1_1Server__session__mv.html" target="_top" xlink:title=" ">
<polygon fill="white" stroke="black" points="204,-9.5 204,-62.5 350,-62.5 350,-9.5 204,-9.5"/>
<text text-anchor="start" x="212" y="-52.1" font-family="Helvetica,sans-Serif" font-size="8.00">ipc::session::Server</text>
<text text-anchor="start" x="212" y="-43.1" font-family="Helvetica,sans-Serif" font-size="8.00">_session_mv&lt; Server_session</text>
<text text-anchor="start" x="212" y="-34.1" font-family="Helvetica,sans-Serif" font-size="8.00">_impl&lt; S_MQ_TYPE_OR_NONE,</text>
<text text-anchor="start" x="212" y="-25.1" font-family="Helvetica,sans-Serif" font-size="8.00"> S_TRANSMIT_NATIVE_HANDLES,</text>
<text text-anchor="middle" x="277" y="-16.1" font-family="Helvetica,sans-Serif" font-size="8.00"> Mdt_payload &gt; &gt;</text>
</a>
</g>
</g>
<!-- Node3&#45;&gt;Node2 -->
<g id="edge2" class="edge">
<title>Node3&#45;&gt;Node2</title>
<path fill="none" stroke="midnightblue" d="M360.39,-36C368.86,-36 377.48,-36 385.99,-36"/>
<polygon fill="midnightblue" stroke="midnightblue" points="360.15,-32.5 350.15,-36 360.15,-39.5 360.15,-32.5"/>
</g>
<!-- Node4 -->
<g id="node4" class="node">
<title>Node4</title>
<g id="a_node4"><a xlink:href="classipc_1_1session_1_1Session__mv.html" target="_top" xlink:title=" ">
<polygon fill="white" stroke="black" points="0,-14 0,-58 168,-58 168,-14 0,-14"/>
<text text-anchor="start" x="8" y="-47.6" font-family="Helvetica,sans-Serif" font-size="8.00">ipc::session::Session</text>
<text text-anchor="start" x="8" y="-38.6" font-family="Helvetica,sans-Serif" font-size="8.00">_mv&lt; Server_session_impl</text>
<text text-anchor="start" x="8" y="-29.6" font-family="Helvetica,sans-Serif" font-size="8.00">&lt; S_MQ_TYPE_OR_NONE, S_TRANSMIT</text>
<text text-anchor="middle" x="84" y="-20.6" font-family="Helvetica,sans-Serif" font-size="8.00">_NATIVE_HANDLES, Mdt_payload &gt; &gt;</text>
</a>
</g>
</g>
<!-- Node4&#45;&gt;Node3 -->
<g id="edge3" class="edge">
<title>Node4&#45;&gt;Node3</title>
<path fill="none" stroke="midnightblue" d="M178.27,-36C186.86,-36 195.47,-36 203.83,-36"/>
<polygon fill="midnightblue" stroke="midnightblue" points="178.22,-32.5 168.22,-36 178.22,-39.5 178.22,-32.5"/>
</g>
</g>
</svg>
