<?xml version="1.0" encoding="UTF-8" standalone="no"?>
<!DOCTYPE svg PUBLIC "-//W3C//DTD SVG 1.1//EN"
 "http://www.w3.org/Graphics/SVG/1.1/DTD/svg11.dtd">
<!-- Generated by graphviz version 2.43.0 (0)
 -->
<!-- Title: ipc::transport::sync_io::Native_handle_sender Pages: 1 -->
<svg width="221pt" height="152pt"
 viewBox="0.00 0.00 220.50 152.00" xmlns="http://www.w3.org/2000/svg" xmlns:xlink="http://www.w3.org/1999/xlink">
<g id="graph0" class="graph" transform="scale(1 1) rotate(0) translate(4 148)">
<title>ipc::transport::sync_io::Native_handle_sender</title>
<polygon fill="white" stroke="transparent" points="-4,4 -4,-148 216.5,-148 216.5,4 -4,4"/>
<!-- Node1 -->
<g id="node1" class="node">
<title>Node1</title>
<g id="a_node1"><a xlink:title="A documentation&#45;only concept defining the behavior of an object that is the sync_io&#45;pattern counterpa...">
<polygon fill="#bfbfbf" stroke="black" points="0,-0.5 0,-26.5 125,-26.5 125,-0.5 0,-0.5"/>
<text text-anchor="start" x="8" y="-16.1" font-family="Helvetica,sans-Serif" font-size="8.00">ipc::transport::sync</text>
<text text-anchor="middle" x="62.5" y="-7.1" font-family="Helvetica,sans-Serif" font-size="8.00">_io::Native_handle_sender</text>
</a>
</g>
</g>
<!-- Node2 -->
<g id="node2" class="node">
<title>Node2</title>
<g id="a_node2"><a xlink:href="classipc_1_1util_1_1Shared__name.html" target="_top" xlink:title="String&#45;wrapping abstraction representing a name uniquely distinguishing a kernel&#45;persistent entity fr...">
<polygon fill="white" stroke="black" points="7.5,-99.5 7.5,-116.5 117.5,-116.5 117.5,-99.5 7.5,-99.5"/>
<text text-anchor="middle" x="62.5" y="-106.1" font-family="Helvetica,sans-Serif" font-size="8.00">ipc::util::Shared_name</text>
</a>
</g>
</g>
<!-- Node2&#45;&gt;Node1 -->
<g id="edge1" class="edge">
<title>Node2&#45;&gt;Node1</title>
<path fill="none" stroke="#9a32cd" stroke-dasharray="5,2" d="M62.5,-89.25C62.5,-70.92 62.5,-42.81 62.5,-26.79"/>
<polygon fill="#9a32cd" stroke="#9a32cd" points="59,-89.43 62.5,-99.43 66,-89.43 59,-89.43"/>
<text text-anchor="middle" x="108" y="-47.6" font-family="Helvetica,sans-Serif" font-size="8.00"> S_RESOURCE_TYPE_ID</text>
</g>
<!-- Node2&#45;&gt;Node2 -->
<g id="edge2" class="edge">
<title>Node2&#45;&gt;Node2</title>
<path fill="none" stroke="#9a32cd" stroke-dasharray="5,2" d="M96.02,-118.17C116.32,-120.49 135.5,-117.1 135.5,-108 135.5,-97.41 109.53,-94.55 86.05,-99.44"/>
<polygon fill="#9a32cd" stroke="#9a32cd" points="96.48,-114.69 86.05,-116.56 95.37,-121.6 96.48,-114.69"/>
<text text-anchor="middle" x="174" y="-137.6" font-family="Helvetica,sans-Serif" font-size="8.00"> S_1ST_OR_ONLY</text>
<text text-anchor="middle" x="174" y="-128.6" font-family="Helvetica,sans-Serif" font-size="8.00">S_EMPTY</text>
<text text-anchor="start" x="135.5" y="-119.6" font-family="Helvetica,sans-Serif" font-size="8.00">S_RESOURCE_TYPE</text>
<text text-anchor="middle" x="174" y="-110.6" font-family="Helvetica,sans-Serif" font-size="8.00">_ID_MUTEX</text>
<text text-anchor="start" x="135.5" y="-101.6" font-family="Helvetica,sans-Serif" font-size="8.00">S_RESOURCE_TYPE</text>
<text text-anchor="middle" x="174" y="-92.6" font-family="Helvetica,sans-Serif" font-size="8.00">_ID_SHM</text>
<text text-anchor="middle" x="174" y="-83.6" font-family="Helvetica,sans-Serif" font-size="8.00">S_ROOT_MAGIC</text>
<text text-anchor="middle" x="174" y="-74.6" font-family="Helvetica,sans-Serif" font-size="8.00">S_SENTINEL</text>
</g>
</g>
</svg>
