<?xml version="1.0" encoding="UTF-8" standalone="no"?>
<!DOCTYPE svg PUBLIC "-//W3C//DTD SVG 1.1//EN"
 "http://www.w3.org/Graphics/SVG/1.1/DTD/svg11.dtd">
<!-- Generated by graphviz version 2.43.0 (0)
 -->
<!-- Title: ipc::transport::struc::sync_io::Channel&lt; Channel_obj, Message_body, Struct_builder_config, Struct_reader_config &gt; Pages: 1 -->
<svg width="145pt" height="125pt"
 viewBox="0.00 0.00 145.00 125.00" xmlns="http://www.w3.org/2000/svg" xmlns:xlink="http://www.w3.org/1999/xlink">
<g id="graph0" class="graph" transform="scale(1 1) rotate(0) translate(4 121)">
<title>ipc::transport::struc::sync_io::Channel&lt; Channel_obj, Message_body, Struct_builder_config, Struct_reader_config &gt;</title>
<polygon fill="white" stroke="transparent" points="-4,4 -4,-121 141,-121 141,4 -4,4"/>
<!-- Node1 -->
<g id="node1" class="node">
<title>Node1</title>
<g id="a_node1"><a xlink:title="sync_io&#45;pattern counterpart to async&#45;I/O&#45;pattern transport::struc::Channel.">
<polygon fill="#bfbfbf" stroke="black" points="0,-0.5 0,-53.5 137,-53.5 137,-0.5 0,-0.5"/>
<text text-anchor="start" x="8" y="-43.1" font-family="Helvetica,sans-Serif" font-size="8.00">ipc::transport::struc</text>
<text text-anchor="start" x="8" y="-34.1" font-family="Helvetica,sans-Serif" font-size="8.00">::sync_io::Channel&lt; Channel</text>
<text text-anchor="start" x="8" y="-25.1" font-family="Helvetica,sans-Serif" font-size="8.00">_obj, Message_body, Struct</text>
<text text-anchor="start" x="8" y="-16.1" font-family="Helvetica,sans-Serif" font-size="8.00">_builder_config, Struct_reader</text>
<text text-anchor="middle" x="68.5" y="-7.1" font-family="Helvetica,sans-Serif" font-size="8.00">_config &gt;</text>
</a>
</g>
</g>
<!-- Node2 -->
<g id="node2" class="node">
<title>Node2</title>
<g id="a_node2"><a xlink:href="classipc_1_1transport_1_1struc_1_1Channel__base.html" target="_top" xlink:title="Channel base that contains non&#45;parameterized public items such as tag types and constants.">
<polygon fill="white" stroke="black" points="19.5,-90.5 19.5,-116.5 117.5,-116.5 117.5,-90.5 19.5,-90.5"/>
<text text-anchor="start" x="27.5" y="-106.1" font-family="Helvetica,sans-Serif" font-size="8.00">ipc::transport::struc</text>
<text text-anchor="middle" x="68.5" y="-97.1" font-family="Helvetica,sans-Serif" font-size="8.00">::Channel_base</text>
</a>
</g>
</g>
<!-- Node2&#45;&gt;Node1 -->
<g id="edge1" class="edge">
<title>Node2&#45;&gt;Node1</title>
<path fill="none" stroke="midnightblue" d="M68.5,-80.09C68.5,-71.75 68.5,-62.22 68.5,-53.61"/>
<polygon fill="midnightblue" stroke="midnightblue" points="65,-80.2 68.5,-90.2 72,-80.2 65,-80.2"/>
</g>
</g>
</svg>
