<?xml version="1.0" encoding="UTF-8" standalone="no"?>
<!DOCTYPE svg PUBLIC "-//W3C//DTD SVG 1.1//EN"
 "http://www.w3.org/Graphics/SVG/1.1/DTD/svg11.dtd">
<!-- Generated by graphviz version 2.43.0 (0)
 -->
<!-- Title: ipc::util::Shared_name Pages: 1 -->
<svg width="213pt" height="80pt"
 viewBox="0.00 0.00 213.00 80.00" xmlns="http://www.w3.org/2000/svg" xmlns:xlink="http://www.w3.org/1999/xlink">
<g id="graph0" class="graph" transform="scale(1 1) rotate(0) translate(4 76)">
<title>ipc::util::Shared_name</title>
<polygon fill="white" stroke="transparent" points="-4,4 -4,-76 209,-76 209,4 -4,4"/>
<!-- Node1 -->
<g id="node1" class="node">
<title>Node1</title>
<g id="a_node1"><a xlink:title="String&#45;wrapping abstraction representing a name uniquely distinguishing a kernel&#45;persistent entity fr...">
<polygon fill="#bfbfbf" stroke="black" points="0,-27.5 0,-44.5 110,-44.5 110,-27.5 0,-27.5"/>
<text text-anchor="middle" x="55" y="-34.1" font-family="Helvetica,sans-Serif" font-size="8.00">ipc::util::Shared_name</text>
</a>
</g>
</g>
<!-- Node1&#45;&gt;Node1 -->
<g id="edge1" class="edge">
<title>Node1&#45;&gt;Node1</title>
<path fill="none" stroke="#9a32cd" stroke-dasharray="5,2" d="M120.36,-38.49C125.1,-37.93 128,-37.1 128,-36 128,-34.24 120.57,-33.17 110.07,-32.79"/>
<polygon fill="#9a32cd" stroke="#9a32cd" points="119.8,-35.02 110.07,-39.21 120.29,-42 119.8,-35.02"/>
<text text-anchor="middle" x="166.5" y="-65.6" font-family="Helvetica,sans-Serif" font-size="8.00"> S_1ST_OR_ONLY</text>
<text text-anchor="middle" x="166.5" y="-56.6" font-family="Helvetica,sans-Serif" font-size="8.00">S_EMPTY</text>
<text text-anchor="start" x="128" y="-47.6" font-family="Helvetica,sans-Serif" font-size="8.00">S_RESOURCE_TYPE</text>
<text text-anchor="middle" x="166.5" y="-38.6" font-family="Helvetica,sans-Serif" font-size="8.00">_ID_MUTEX</text>
<text text-anchor="start" x="128" y="-29.6" font-family="Helvetica,sans-Serif" font-size="8.00">S_RESOURCE_TYPE</text>
<text text-anchor="middle" x="166.5" y="-20.6" font-family="Helvetica,sans-Serif" font-size="8.00">_ID_SHM</text>
<text text-anchor="middle" x="166.5" y="-11.6" font-family="Helvetica,sans-Serif" font-size="8.00">S_ROOT_MAGIC</text>
<text text-anchor="middle" x="166.5" y="-2.6" font-family="Helvetica,sans-Serif" font-size="8.00">S_SENTINEL</text>
</g>
</g>
</svg>
