<?xml version="1.0" encoding="UTF-8" standalone="no"?>
<!DOCTYPE svg PUBLIC "-//W3C//DTD SVG 1.1//EN"
 "http://www.w3.org/Graphics/SVG/1.1/DTD/svg11.dtd">
<!-- Generated by graphviz version 2.43.0 (0)
 -->
<!-- Title: ipc::transport::struc::Channel_base Pages: 1 -->
<svg width="279pt" height="62pt"
 viewBox="0.00 0.00 279.00 62.00" xmlns="http://www.w3.org/2000/svg" xmlns:xlink="http://www.w3.org/1999/xlink">
<g id="graph0" class="graph" transform="scale(1 1) rotate(0) translate(4 58)">
<title>ipc::transport::struc::Channel_base</title>
<polygon fill="white" stroke="transparent" points="-4,4 -4,-58 275,-58 275,4 -4,4"/>
<!-- Node1 -->
<g id="node1" class="node">
<title>Node1</title>
<g id="a_node1"><a xlink:title="Channel base that contains non&#45;parameterized public items such as tag types and constants.">
<polygon fill="#bfbfbf" stroke="black" points="0,-14 0,-40 98,-40 98,-14 0,-14"/>
<text text-anchor="start" x="8" y="-29.6" font-family="Helvetica,sans-Serif" font-size="8.00">ipc::transport::struc</text>
<text text-anchor="middle" x="49" y="-20.6" font-family="Helvetica,sans-Serif" font-size="8.00">::Channel_base</text>
</a>
</g>
</g>
<!-- Node2 -->
<g id="node2" class="node">
<title>Node2</title>
<g id="a_node2"><a xlink:href="classipc_1_1transport_1_1struc_1_1sync__io_1_1Channel.html" target="_top" xlink:title="sync_io&#45;pattern counterpart to async&#45;I/O&#45;pattern transport::struc::Channel.">
<polygon fill="white" stroke="black" points="134,-0.5 134,-53.5 271,-53.5 271,-0.5 134,-0.5"/>
<text text-anchor="start" x="142" y="-43.1" font-family="Helvetica,sans-Serif" font-size="8.00">ipc::transport::struc</text>
<text text-anchor="start" x="142" y="-34.1" font-family="Helvetica,sans-Serif" font-size="8.00">::sync_io::Channel&lt; Channel</text>
<text text-anchor="start" x="142" y="-25.1" font-family="Helvetica,sans-Serif" font-size="8.00">_obj, Message_body, Struct</text>
<text text-anchor="start" x="142" y="-16.1" font-family="Helvetica,sans-Serif" font-size="8.00">_builder_config, Struct_reader</text>
<text text-anchor="middle" x="202.5" y="-7.1" font-family="Helvetica,sans-Serif" font-size="8.00">_config &gt;</text>
</a>
</g>
</g>
<!-- Node1&#45;&gt;Node2 -->
<g id="edge1" class="edge">
<title>Node1&#45;&gt;Node2</title>
<path fill="none" stroke="midnightblue" d="M108.4,-27C116.78,-27 125.46,-27 134,-27"/>
<polygon fill="midnightblue" stroke="midnightblue" points="108.35,-23.5 98.35,-27 108.35,-30.5 108.35,-23.5"/>
</g>
</g>
</svg>
