<?xml version="1.0" encoding="UTF-8" standalone="no"?>
<!DOCTYPE svg PUBLIC "-//W3C//DTD SVG 1.1//EN"
 "http://www.w3.org/Graphics/SVG/1.1/DTD/svg11.dtd">
<!-- Generated by graphviz version 2.43.0 (0)
 -->
<!-- Title: transport Pages: 1 -->
<svg width="186pt" height="132pt"
 viewBox="0.00 0.00 186.00 132.00" xmlns="http://www.w3.org/2000/svg" xmlns:xlink="http://www.w3.org/1999/xlink">
<g id="graph0" class="graph" transform="scale(1 1) rotate(0) translate(4 128)">
<title>transport</title>
<polygon fill="white" stroke="transparent" points="-4,4 -4,-128 182,-128 182,4 -4,4"/>
<g id="clust1" class="cluster">
<title>clusterdir_58e412aa7ace8e71fc01678dc8765e7c</title>
<g id="a_clust1"><a xlink:href="dir_58e412aa7ace8e71fc01678dc8765e7c.html" target="_top">
<polygon fill="#edf0f7" stroke="#404040" stroke-width="2" points="28,-64 28,-116 170,-116 170,-64 28,-64"/>
</a>
</g>
</g>
<!-- dir_58e412aa7ace8e71fc01678dc8765e7c -->
<g id="node1" class="node">
<title>dir_58e412aa7ace8e71fc01678dc8765e7c</title>
<text text-anchor="middle" x="135" y="-88.1" font-family="Helvetica,sans-Serif" font-size="8.00">transport</text>
</g>
<!-- dir_a98fddea045b8b2df4350ebb1d483bf8 -->
<g id="node2" class="node">
<title>dir_a98fddea045b8b2df4350ebb1d483bf8</title>
<g id="a_node2"><a xlink:href="dir_a98fddea045b8b2df4350ebb1d483bf8.html" target="_top" xlink:title="struc">
<polygon fill="#a2b4d6" stroke="#404040" points="90,-108 36,-108 36,-72 90,-72 90,-108"/>
<text text-anchor="middle" x="63" y="-88.1" font-family="Helvetica,sans-Serif" font-size="8.00">struc</text>
</a>
</g>
</g>
<!-- dir_0c017496b493ff066fbbe686970307ba -->
<g id="node3" class="node">
<title>dir_0c017496b493ff066fbbe686970307ba</title>
<g id="a_node3"><a xlink:href="dir_0c017496b493ff066fbbe686970307ba.html" target="_top" xlink:title="transport">
<polygon fill="none" stroke="red" points="54,-36 0,-36 0,0 54,0 54,-36"/>
<text text-anchor="middle" x="27" y="-16.1" font-family="Helvetica,sans-Serif" font-size="8.00">transport</text>
</a>
</g>
</g>
<!-- dir_a98fddea045b8b2df4350ebb1d483bf8&#45;&gt;dir_0c017496b493ff066fbbe686970307ba -->
<g id="edge1" class="edge">
<title>dir_a98fddea045b8b2df4350ebb1d483bf8&#45;&gt;dir_0c017496b493ff066fbbe686970307ba</title>
<path fill="none" stroke="black" d="M54.1,-71.7C50,-63.73 45.05,-54.1 40.51,-45.26"/>
<polygon fill="black" stroke="black" points="43.48,-43.4 35.8,-36.1 37.26,-46.6 43.48,-43.4"/>
<g id="a_edge1&#45;headlabel"><a xlink:href="dir_000018_000023.html" target="_top" xlink:title="5">
<text text-anchor="middle" x="47.65" y="-43.39" font-family="Helvetica,sans-Serif" font-size="8.00">5</text>
</a>
</g>
</g>
<!-- dir_a762a7cb84c76c9561dbc78c61068184 -->
<g id="node4" class="node">
<title>dir_a762a7cb84c76c9561dbc78c61068184</title>
<g id="a_node4"><a xlink:href="dir_a762a7cb84c76c9561dbc78c61068184.html" target="_top" xlink:title="util">
<polygon fill="none" stroke="red" points="126,-36 72,-36 72,0 126,0 126,-36"/>
<text text-anchor="middle" x="99" y="-16.1" font-family="Helvetica,sans-Serif" font-size="8.00">util</text>
</a>
</g>
</g>
<!-- dir_a98fddea045b8b2df4350ebb1d483bf8&#45;&gt;dir_a762a7cb84c76c9561dbc78c61068184 -->
<g id="edge2" class="edge">
<title>dir_a98fddea045b8b2df4350ebb1d483bf8&#45;&gt;dir_a762a7cb84c76c9561dbc78c61068184</title>
<path fill="none" stroke="black" d="M71.9,-71.7C76,-63.73 80.95,-54.1 85.49,-45.26"/>
<polygon fill="black" stroke="black" points="88.74,-46.6 90.2,-36.1 82.52,-43.4 88.74,-46.6"/>
<g id="a_edge2&#45;headlabel"><a xlink:href="dir_000018_000027.html" target="_top" xlink:title="3">
<text text-anchor="middle" x="89.62" y="-49.19" font-family="Helvetica,sans-Serif" font-size="8.00">3</text>
</a>
</g>
</g>
</g>
</svg>
