<?xml version="1.0" encoding="UTF-8" standalone="no"?>
<!DOCTYPE svg PUBLIC "-//W3C//DTD SVG 1.1//EN"
 "http://www.w3.org/Graphics/SVG/1.1/DTD/svg11.dtd">
<!-- Generated by graphviz version 2.43.0 (0)
 -->
<!-- Title: session/shm Pages: 1 -->
<svg width="278pt" height="157pt"
 viewBox="0.00 0.00 278.00 157.00" xmlns="http://www.w3.org/2000/svg" xmlns:xlink="http://www.w3.org/1999/xlink">
<g id="graph0" class="graph" transform="scale(1 1) rotate(0) translate(4 153)">
<title>session/shm</title>
<polygon fill="white" stroke="transparent" points="-4,4 -4,-153 274,-153 274,4 -4,4"/>
<g id="clust1" class="cluster">
<title>clusterdir_b574b0807182fd54d29cf48452072c45</title>
<g id="a_clust1"><a xlink:href="dir_b574b0807182fd54d29cf48452072c45.html" target="_top" xlink:title="session">
<polygon fill="#edf0f7" stroke="#404040" stroke-dasharray="5,2" points="88,-56 88,-141 254,-141 254,-56 88,-56"/>
<text text-anchor="middle" x="171" y="-130.6" font-family="Helvetica,sans-Serif" font-size="8.00">session</text>
</a>
</g>
</g>
<g id="clust2" class="cluster">
<title>clusterdir_df5b0ac3fc1820ebfc25c1160f1f4b3a</title>
<g id="a_clust2"><a xlink:href="dir_df5b0ac3fc1820ebfc25c1160f1f4b3a.html" target="_top">
<polygon fill="#edf0f7" stroke="#404040" stroke-width="2" points="96,-64 96,-116 246,-116 246,-64 96,-64"/>
</a>
</g>
</g>
<!-- dir_df5b0ac3fc1820ebfc25c1160f1f4b3a -->
<g id="node1" class="node">
<title>dir_df5b0ac3fc1820ebfc25c1160f1f4b3a</title>
<text text-anchor="middle" x="211" y="-88.1" font-family="Helvetica,sans-Serif" font-size="8.00">shm</text>
</g>
<!-- dir_d1a5353b5ceb9e8de9acee201f2ed2e4 -->
<g id="node2" class="node">
<title>dir_d1a5353b5ceb9e8de9acee201f2ed2e4</title>
<g id="a_node2"><a xlink:href="dir_d1a5353b5ceb9e8de9acee201f2ed2e4.html" target="_top" xlink:title="arena_lend">
<polygon fill="#a2b4d6" stroke="#404040" points="166,-108 104,-108 104,-72 166,-72 166,-108"/>
<text text-anchor="middle" x="135" y="-88.1" font-family="Helvetica,sans-Serif" font-size="8.00">arena_lend</text>
</a>
</g>
</g>
<!-- dir_23fbec4e7c966aae2efbb90aeb47f596 -->
<g id="node3" class="node">
<title>dir_23fbec4e7c966aae2efbb90aeb47f596</title>
<g id="a_node3"><a xlink:href="dir_23fbec4e7c966aae2efbb90aeb47f596.html" target="_top" xlink:title="session">
<polygon fill="none" stroke="red" points="54,-36 0,-36 0,0 54,0 54,-36"/>
<text text-anchor="middle" x="27" y="-16.1" font-family="Helvetica,sans-Serif" font-size="8.00">session</text>
</a>
</g>
</g>
<!-- dir_d1a5353b5ceb9e8de9acee201f2ed2e4&#45;&gt;dir_23fbec4e7c966aae2efbb90aeb47f596 -->
<g id="edge3" class="edge">
<title>dir_d1a5353b5ceb9e8de9acee201f2ed2e4&#45;&gt;dir_23fbec4e7c966aae2efbb90aeb47f596</title>
<path fill="none" stroke="black" d="M108.58,-71.88C94.59,-62.81 77.22,-51.55 62.11,-41.76"/>
<polygon fill="black" stroke="black" points="63.82,-38.69 53.52,-36.19 60.01,-44.57 63.82,-38.69"/>
<g id="a_edge3&#45;headlabel"><a xlink:href="dir_000000_000008.html" target="_top" xlink:title="1">
<text text-anchor="middle" x="68.38" y="-36.36" font-family="Helvetica,sans-Serif" font-size="8.00">1</text>
</a>
</g>
</g>
<!-- dir_938858dd290fe54e59e3500689c41d32 -->
<g id="node4" class="node">
<title>dir_938858dd290fe54e59e3500689c41d32</title>
<g id="a_node4"><a xlink:href="dir_938858dd290fe54e59e3500689c41d32.html" target="_top" xlink:title="session">
<polygon fill="none" stroke="red" points="126,-36 72,-36 72,0 126,0 126,-36"/>
<text text-anchor="middle" x="99" y="-16.1" font-family="Helvetica,sans-Serif" font-size="8.00">session</text>
</a>
</g>
</g>
<!-- dir_d1a5353b5ceb9e8de9acee201f2ed2e4&#45;&gt;dir_938858dd290fe54e59e3500689c41d32 -->
<g id="edge1" class="edge">
<title>dir_d1a5353b5ceb9e8de9acee201f2ed2e4&#45;&gt;dir_938858dd290fe54e59e3500689c41d32</title>
<path fill="none" stroke="black" d="M126.1,-71.7C122,-63.73 117.05,-54.1 112.51,-45.26"/>
<polygon fill="black" stroke="black" points="115.48,-43.4 107.8,-36.1 109.26,-46.6 115.48,-43.4"/>
<g id="a_edge1&#45;headlabel"><a xlink:href="dir_000000_000007.html" target="_top" xlink:title="2">
<text text-anchor="middle" x="119.65" y="-43.39" font-family="Helvetica,sans-Serif" font-size="8.00">2</text>
</a>
</g>
</g>
<!-- dir_a762a7cb84c76c9561dbc78c61068184 -->
<g id="node5" class="node">
<title>dir_a762a7cb84c76c9561dbc78c61068184</title>
<g id="a_node5"><a xlink:href="dir_a762a7cb84c76c9561dbc78c61068184.html" target="_top" xlink:title="util">
<polygon fill="none" stroke="red" points="198,-36 144,-36 144,0 198,0 198,-36"/>
<text text-anchor="middle" x="171" y="-16.1" font-family="Helvetica,sans-Serif" font-size="8.00">util</text>
</a>
</g>
</g>
<!-- dir_d1a5353b5ceb9e8de9acee201f2ed2e4&#45;&gt;dir_a762a7cb84c76c9561dbc78c61068184 -->
<g id="edge2" class="edge">
<title>dir_d1a5353b5ceb9e8de9acee201f2ed2e4&#45;&gt;dir_a762a7cb84c76c9561dbc78c61068184</title>
<path fill="none" stroke="black" d="M143.9,-71.7C148,-63.73 152.95,-54.1 157.49,-45.26"/>
<polygon fill="black" stroke="black" points="160.74,-46.6 162.2,-36.1 154.52,-43.4 160.74,-46.6"/>
<g id="a_edge2&#45;headlabel"><a xlink:href="dir_000000_000027.html" target="_top" xlink:title="1">
<text text-anchor="middle" x="161.62" y="-49.19" font-family="Helvetica,sans-Serif" font-size="8.00">1</text>
</a>
</g>
</g>
<!-- dir_ddb0f12d0722949f40b2818843b69123 -->
<g id="node6" class="node">
<title>dir_ddb0f12d0722949f40b2818843b69123</title>
<g id="a_node6"><a xlink:href="dir_ddb0f12d0722949f40b2818843b69123.html" target="_top" xlink:title="shm">
<polygon fill="none" stroke="red" points="270,-36 216,-36 216,0 270,0 270,-36"/>
<text text-anchor="middle" x="243" y="-16.1" font-family="Helvetica,sans-Serif" font-size="8.00">shm</text>
</a>
</g>
</g>
<!-- dir_d1a5353b5ceb9e8de9acee201f2ed2e4&#45;&gt;dir_ddb0f12d0722949f40b2818843b69123 -->
<g id="edge4" class="edge">
<title>dir_d1a5353b5ceb9e8de9acee201f2ed2e4&#45;&gt;dir_ddb0f12d0722949f40b2818843b69123</title>
<path fill="none" stroke="black" d="M154.36,-71.77C160.73,-66.44 167.99,-60.74 175,-56 184.99,-49.25 196.33,-42.69 206.85,-37.01"/>
<polygon fill="black" stroke="black" points="208.62,-40.03 215.82,-32.26 205.35,-33.84 208.62,-40.03"/>
<g id="a_edge4&#45;headlabel"><a xlink:href="dir_000000_000011.html" target="_top" xlink:title="2">
<text text-anchor="middle" x="206.77" y="-42.32" font-family="Helvetica,sans-Serif" font-size="8.00">2</text>
</a>
</g>
</g>
</g>
</svg>
