<?xml version="1.0" encoding="UTF-8" standalone="no"?>
<!DOCTYPE svg PUBLIC "-//W3C//DTD SVG 1.1//EN"
 "http://www.w3.org/Graphics/SVG/1.1/DTD/svg11.dtd">
<!-- Generated by graphviz version 2.43.0 (0)
 -->
<!-- Title: transport/struc/shm Pages: 1 -->
<svg width="302pt" height="157pt"
 viewBox="0.00 0.00 302.00 157.00" xmlns="http://www.w3.org/2000/svg" xmlns:xlink="http://www.w3.org/1999/xlink">
<g id="graph0" class="graph" transform="scale(1 1) rotate(0) translate(4 153)">
<title>transport/struc/shm</title>
<polygon fill="white" stroke="transparent" points="-4,4 -4,-153 298,-153 298,4 -4,4"/>
<g id="clust1" class="cluster">
<title>clusterdir_6bf669985e0a4bfed5b74de88b3e7893</title>
<g id="a_clust1"><a xlink:href="dir_6bf669985e0a4bfed5b74de88b3e7893.html" target="_top" xlink:title="struc">
<polygon fill="#edf0f7" stroke="#7f7f7f" stroke-dasharray="5,2" points="128,-56 128,-141 286,-141 286,-56 128,-56"/>
<text text-anchor="middle" x="207" y="-130.6" font-family="Helvetica,sans-Serif" font-size="8.00">struc</text>
</a>
</g>
</g>
<g id="clust2" class="cluster">
<title>clusterdir_ad52dd8cdf71953d2954f95ecd6c0394</title>
<g id="a_clust2"><a xlink:href="dir_ad52dd8cdf71953d2954f95ecd6c0394.html" target="_top">
<polygon fill="#edf0f7" stroke="#404040" stroke-width="2" points="136,-64 136,-116 278,-116 278,-64 136,-64"/>
</a>
</g>
</g>
<!-- dir_ad52dd8cdf71953d2954f95ecd6c0394 -->
<g id="node1" class="node">
<title>dir_ad52dd8cdf71953d2954f95ecd6c0394</title>
<text text-anchor="middle" x="171" y="-88.1" font-family="Helvetica,sans-Serif" font-size="8.00">shm</text>
</g>
<!-- dir_23fbec4e7c966aae2efbb90aeb47f596 -->
<g id="node3" class="node">
<title>dir_23fbec4e7c966aae2efbb90aeb47f596</title>
<g id="a_node3"><a xlink:href="dir_23fbec4e7c966aae2efbb90aeb47f596.html" target="_top" xlink:title="session">
<polygon fill="none" stroke="red" points="54,-36 0,-36 0,0 54,0 54,-36"/>
<text text-anchor="middle" x="27" y="-16.1" font-family="Helvetica,sans-Serif" font-size="8.00">session</text>
</a>
</g>
</g>
<!-- dir_ad52dd8cdf71953d2954f95ecd6c0394&#45;&gt;dir_23fbec4e7c966aae2efbb90aeb47f596 -->
<g id="edge1" class="edge">
<title>dir_ad52dd8cdf71953d2954f95ecd6c0394&#45;&gt;dir_23fbec4e7c966aae2efbb90aeb47f596</title>
<path fill="none" stroke="black" d="M143.91,-75.83C121.23,-64.81 88.64,-48.97 63.63,-36.81"/>
<polygon fill="black" stroke="black" points="64.98,-33.57 54.45,-32.35 61.92,-39.87 64.98,-33.57"/>
<g id="a_edge1&#45;headlabel"><a xlink:href="dir_000012_000008.html" target="_top" xlink:title="1">
<text text-anchor="middle" x="69.45" y="-30.69" font-family="Helvetica,sans-Serif" font-size="8.00">1</text>
</a>
</g>
</g>
<!-- dir_58e412aa7ace8e71fc01678dc8765e7c -->
<g id="node4" class="node">
<title>dir_58e412aa7ace8e71fc01678dc8765e7c</title>
<g id="a_node4"><a xlink:href="dir_58e412aa7ace8e71fc01678dc8765e7c.html" target="_top" xlink:title="transport">
<polygon fill="none" stroke="red" points="126,-36 72,-36 72,0 126,0 126,-36"/>
<text text-anchor="middle" x="99" y="-16.1" font-family="Helvetica,sans-Serif" font-size="8.00">transport</text>
</a>
</g>
</g>
<!-- dir_ad52dd8cdf71953d2954f95ecd6c0394&#45;&gt;dir_58e412aa7ace8e71fc01678dc8765e7c -->
<g id="edge2" class="edge">
<title>dir_ad52dd8cdf71953d2954f95ecd6c0394&#45;&gt;dir_58e412aa7ace8e71fc01678dc8765e7c</title>
<path fill="none" stroke="black" d="M153.2,-71.7C144.4,-63.14 133.62,-52.66 124,-43.3"/>
<polygon fill="black" stroke="black" points="126.2,-40.57 116.59,-36.1 121.32,-45.58 126.2,-40.57"/>
<g id="a_edge2&#45;headlabel"><a xlink:href="dir_000012_000026.html" target="_top" xlink:title="2">
<text text-anchor="middle" x="130.76" y="-39.14" font-family="Helvetica,sans-Serif" font-size="8.00">2</text>
</a>
</g>
</g>
<!-- dir_a762a7cb84c76c9561dbc78c61068184 -->
<g id="node5" class="node">
<title>dir_a762a7cb84c76c9561dbc78c61068184</title>
<g id="a_node5"><a xlink:href="dir_a762a7cb84c76c9561dbc78c61068184.html" target="_top" xlink:title="util">
<polygon fill="none" stroke="red" points="198,-36 144,-36 144,0 198,0 198,-36"/>
<text text-anchor="middle" x="171" y="-16.1" font-family="Helvetica,sans-Serif" font-size="8.00">util</text>
</a>
</g>
</g>
<!-- dir_ad52dd8cdf71953d2954f95ecd6c0394&#45;&gt;dir_a762a7cb84c76c9561dbc78c61068184 -->
<g id="edge3" class="edge">
<title>dir_ad52dd8cdf71953d2954f95ecd6c0394&#45;&gt;dir_a762a7cb84c76c9561dbc78c61068184</title>
<path fill="none" stroke="black" d="M171,-71.7C171,-63.98 171,-54.71 171,-46.11"/>
<polygon fill="black" stroke="black" points="174.5,-46.1 171,-36.1 167.5,-46.1 174.5,-46.1"/>
<g id="a_edge3&#45;headlabel"><a xlink:href="dir_000012_000027.html" target="_top" xlink:title="2">
<text text-anchor="middle" x="177.34" y="-47.8" font-family="Helvetica,sans-Serif" font-size="8.00">2</text>
</a>
</g>
</g>
<!-- dir_ddb0f12d0722949f40b2818843b69123 -->
<g id="node6" class="node">
<title>dir_ddb0f12d0722949f40b2818843b69123</title>
<g id="a_node6"><a xlink:href="dir_ddb0f12d0722949f40b2818843b69123.html" target="_top" xlink:title="shm">
<polygon fill="none" stroke="red" points="270,-36 216,-36 216,0 270,0 270,-36"/>
<text text-anchor="middle" x="243" y="-16.1" font-family="Helvetica,sans-Serif" font-size="8.00">shm</text>
</a>
</g>
</g>
<!-- dir_ad52dd8cdf71953d2954f95ecd6c0394&#45;&gt;dir_ddb0f12d0722949f40b2818843b69123 -->
<g id="edge4" class="edge">
<title>dir_ad52dd8cdf71953d2954f95ecd6c0394&#45;&gt;dir_ddb0f12d0722949f40b2818843b69123</title>
<path fill="none" stroke="black" d="M188.8,-71.7C197.6,-63.14 208.38,-52.66 218,-43.3"/>
<polygon fill="black" stroke="black" points="220.68,-45.58 225.41,-36.1 215.8,-40.57 220.68,-45.58"/>
<g id="a_edge4&#45;headlabel"><a xlink:href="dir_000012_000011.html" target="_top" xlink:title="4">
<text text-anchor="middle" x="220.08" y="-48.23" font-family="Helvetica,sans-Serif" font-size="8.00">4</text>
</a>
</g>
</g>
<!-- dir_61dc77215bb335d1119be1f67ca641a9 -->
<g id="node2" class="node">
<title>dir_61dc77215bb335d1119be1f67ca641a9</title>
<g id="a_node2"><a xlink:href="dir_61dc77215bb335d1119be1f67ca641a9.html" target="_top" xlink:title="classic">
<polygon fill="#a2b4d6" stroke="#404040" points="270,-108 216,-108 216,-72 270,-72 270,-108"/>
<text text-anchor="middle" x="243" y="-88.1" font-family="Helvetica,sans-Serif" font-size="8.00">classic</text>
</a>
</g>
</g>
<!-- dir_61dc77215bb335d1119be1f67ca641a9&#45;&gt;dir_ddb0f12d0722949f40b2818843b69123 -->
<g id="edge5" class="edge">
<title>dir_61dc77215bb335d1119be1f67ca641a9&#45;&gt;dir_ddb0f12d0722949f40b2818843b69123</title>
<path fill="none" stroke="black" d="M243,-71.7C243,-63.98 243,-54.71 243,-46.11"/>
<polygon fill="black" stroke="black" points="246.5,-46.1 243,-36.1 239.5,-46.1 246.5,-46.1"/>
<g id="a_edge5&#45;headlabel"><a xlink:href="dir_000004_000011.html" target="_top" xlink:title="1">
<text text-anchor="middle" x="249.34" y="-47.8" font-family="Helvetica,sans-Serif" font-size="8.00">1</text>
</a>
</g>
</g>
</g>
</svg>
