<?xml version="1.0" encoding="UTF-8" standalone="no"?>
<!DOCTYPE svg PUBLIC "-//W3C//DTD SVG 1.1//EN"
 "http://www.w3.org/Graphics/SVG/1.1/DTD/svg11.dtd">
<!-- Generated by graphviz version 2.43.0 (0)
 -->
<!-- Title: transport Pages: 1 -->
<svg width="166pt" height="132pt"
 viewBox="0.00 0.00 166.00 132.00" xmlns="http://www.w3.org/2000/svg" xmlns:xlink="http://www.w3.org/1999/xlink">
<g id="graph0" class="graph" transform="scale(1 1) rotate(0) translate(4 128)">
<title>transport</title>
<polygon fill="white" stroke="transparent" points="-4,4 -4,-128 162,-128 162,4 -4,4"/>
<g id="clust1" class="cluster">
<title>clusterdir_18de54d40c020a62dfebd12c68fa56ae</title>
<g id="a_clust1"><a xlink:href="dir_18de54d40c020a62dfebd12c68fa56ae.html" target="_top">
<polygon fill="#edf0f7" stroke="#404040" stroke-width="2" points="8,-64 8,-116 150,-116 150,-64 8,-64"/>
</a>
</g>
</g>
<!-- dir_18de54d40c020a62dfebd12c68fa56ae -->
<g id="node1" class="node">
<title>dir_18de54d40c020a62dfebd12c68fa56ae</title>
<text text-anchor="middle" x="115" y="-88.1" font-family="Helvetica,sans-Serif" font-size="8.00">transport</text>
</g>
<!-- dir_b8aa7e2e9741fa9cbe830a8616b13cfd -->
<g id="node2" class="node">
<title>dir_b8aa7e2e9741fa9cbe830a8616b13cfd</title>
<g id="a_node2"><a xlink:href="dir_b8aa7e2e9741fa9cbe830a8616b13cfd.html" target="_top" xlink:title="struc">
<polygon fill="#a2b4d6" stroke="#404040" points="70,-108 16,-108 16,-72 70,-72 70,-108"/>
<text text-anchor="middle" x="43" y="-88.1" font-family="Helvetica,sans-Serif" font-size="8.00">struc</text>
</a>
</g>
</g>
<!-- dir_330ec51ed7bfaf381355aaef7c1667ec -->
<g id="node3" class="node">
<title>dir_330ec51ed7bfaf381355aaef7c1667ec</title>
<g id="a_node3"><a xlink:href="dir_330ec51ed7bfaf381355aaef7c1667ec.html" target="_top" xlink:title="transport">
<polygon fill="none" stroke="red" points="70,-36 16,-36 16,0 70,0 70,-36"/>
<text text-anchor="middle" x="43" y="-16.1" font-family="Helvetica,sans-Serif" font-size="8.00">transport</text>
</a>
</g>
</g>
<!-- dir_b8aa7e2e9741fa9cbe830a8616b13cfd&#45;&gt;dir_330ec51ed7bfaf381355aaef7c1667ec -->
<g id="edge1" class="edge">
<title>dir_b8aa7e2e9741fa9cbe830a8616b13cfd&#45;&gt;dir_330ec51ed7bfaf381355aaef7c1667ec</title>
<path fill="none" stroke="black" d="M43,-71.7C43,-63.98 43,-54.71 43,-46.11"/>
<polygon fill="black" stroke="black" points="46.5,-46.1 43,-36.1 39.5,-46.1 46.5,-46.1"/>
<g id="a_edge1&#45;headlabel"><a xlink:href="dir_000017_000024.html" target="_top" xlink:title="2">
<text text-anchor="middle" x="49.34" y="-47.8" font-family="Helvetica,sans-Serif" font-size="8.00">2</text>
</a>
</g>
</g>
</g>
</svg>
