<?xml version="1.0" encoding="UTF-8" standalone="no"?>
<!DOCTYPE svg PUBLIC "-//W3C//DTD SVG 1.1//EN"
 "http://www.w3.org/Graphics/SVG/1.1/DTD/svg11.dtd">
<!-- Generated by graphviz version 2.43.0 (0)
 -->
<!-- Title: transport/struc/shm/arena_lend/jemalloc Pages: 1 -->
<svg width="94pt" height="149pt"
 viewBox="0.00 0.00 94.00 149.00" xmlns="http://www.w3.org/2000/svg" xmlns:xlink="http://www.w3.org/1999/xlink">
<g id="graph0" class="graph" transform="scale(1 1) rotate(0) translate(4 145)">
<title>transport/struc/shm/arena_lend/jemalloc</title>
<polygon fill="white" stroke="transparent" points="-4,4 -4,-145 90,-145 90,4 -4,4"/>
<g id="clust1" class="cluster">
<title>clusterdir_6a9154929a3cacbead8390e6681e37b8</title>
<g id="a_clust1"><a xlink:href="dir_6a9154929a3cacbead8390e6681e37b8.html" target="_top" xlink:title="arena_lend">
<polygon fill="#edf0f7" stroke="#7f7f7f" stroke-dasharray="5,2" points="8,-64 8,-133 78,-133 78,-64 8,-64"/>
<text text-anchor="middle" x="43" y="-122.6" font-family="Helvetica,sans-Serif" font-size="8.00">arena_lend</text>
</a>
</g>
</g>
<!-- dir_420eb5c69419e70df9303f96761e9dfb -->
<g id="node1" class="node">
<title>dir_420eb5c69419e70df9303f96761e9dfb</title>
<g id="a_node1"><a xlink:href="dir_420eb5c69419e70df9303f96761e9dfb.html" target="_top" xlink:title="jemalloc">
<polygon fill="#edf0f7" stroke="#404040" stroke-width="2" points="70,-108 16,-108 16,-72 70,-72 70,-108"/>
<text text-anchor="middle" x="43" y="-88.1" font-family="Helvetica,sans-Serif" font-size="8.00">jemalloc</text>
</a>
</g>
</g>
<!-- dir_330ec51ed7bfaf381355aaef7c1667ec -->
<g id="node2" class="node">
<title>dir_330ec51ed7bfaf381355aaef7c1667ec</title>
<g id="a_node2"><a xlink:href="dir_330ec51ed7bfaf381355aaef7c1667ec.html" target="_top" xlink:title="transport">
<polygon fill="none" stroke="red" points="70,-36 16,-36 16,0 70,0 70,-36"/>
<text text-anchor="middle" x="43" y="-16.1" font-family="Helvetica,sans-Serif" font-size="8.00">transport</text>
</a>
</g>
</g>
<!-- dir_420eb5c69419e70df9303f96761e9dfb&#45;&gt;dir_330ec51ed7bfaf381355aaef7c1667ec -->
<g id="edge1" class="edge">
<title>dir_420eb5c69419e70df9303f96761e9dfb&#45;&gt;dir_330ec51ed7bfaf381355aaef7c1667ec</title>
<path fill="none" stroke="black" d="M43,-71.7C43,-63.98 43,-54.71 43,-46.11"/>
<polygon fill="black" stroke="black" points="46.5,-46.1 43,-36.1 39.5,-46.1 46.5,-46.1"/>
<g id="a_edge1&#45;headlabel"><a xlink:href="dir_000006_000024.html" target="_top" xlink:title="2">
<text text-anchor="middle" x="49.34" y="-47.8" font-family="Helvetica,sans-Serif" font-size="8.00">2</text>
</a>
</g>
</g>
</g>
</svg>
