<?xml version="1.0" encoding="UTF-8" standalone="no"?>
<!DOCTYPE svg PUBLIC "-//W3C//DTD SVG 1.1//EN"
 "http://www.w3.org/Graphics/SVG/1.1/DTD/svg11.dtd">
<!-- Generated by graphviz version 2.43.0 (0)
 -->
<!-- Title: transport/struc Pages: 1 -->
<svg width="196pt" height="229pt"
 viewBox="0.00 0.00 196.00 229.00" xmlns="http://www.w3.org/2000/svg" xmlns:xlink="http://www.w3.org/1999/xlink">
<g id="graph0" class="graph" transform="scale(1 1) rotate(0) translate(4 225)">
<title>transport/struc</title>
<polygon fill="white" stroke="transparent" points="-4,4 -4,-225 192,-225 192,4 -4,4"/>
<g id="clust1" class="cluster">
<title>clusterdir_58e412aa7ace8e71fc01678dc8765e7c</title>
<g id="a_clust1"><a xlink:href="dir_58e412aa7ace8e71fc01678dc8765e7c.html" target="_top" xlink:title="transport">
<polygon fill="#edf0f7" stroke="#404040" stroke-dasharray="5,2" points="8,-56 8,-213 94,-213 94,-56 8,-56"/>
<text text-anchor="middle" x="51" y="-202.6" font-family="Helvetica,sans-Serif" font-size="8.00">transport</text>
</a>
</g>
</g>
<g id="clust2" class="cluster">
<title>clusterdir_a98fddea045b8b2df4350ebb1d483bf8</title>
<g id="a_clust2"><a xlink:href="dir_a98fddea045b8b2df4350ebb1d483bf8.html" target="_top">
<polygon fill="#edf0f7" stroke="#404040" stroke-width="2" points="16,-64 16,-188 86,-188 86,-64 16,-64"/>
</a>
</g>
</g>
<!-- dir_a98fddea045b8b2df4350ebb1d483bf8 -->
<g id="node1" class="node">
<title>dir_a98fddea045b8b2df4350ebb1d483bf8</title>
<text text-anchor="middle" x="51" y="-160.1" font-family="Helvetica,sans-Serif" font-size="8.00">struc</text>
</g>
<!-- dir_29eca46078f73b220c63d096b03a57e8 -->
<g id="node2" class="node">
<title>dir_29eca46078f73b220c63d096b03a57e8</title>
<g id="a_node2"><a xlink:href="dir_29eca46078f73b220c63d096b03a57e8.html" target="_top" xlink:title="sync_io">
<polygon fill="#a2b4d6" stroke="#404040" points="78,-108 24,-108 24,-72 78,-72 78,-108"/>
<text text-anchor="middle" x="51" y="-88.1" font-family="Helvetica,sans-Serif" font-size="8.00">sync_io</text>
</a>
</g>
</g>
<!-- dir_a98fddea045b8b2df4350ebb1d483bf8&#45;&gt;dir_29eca46078f73b220c63d096b03a57e8 -->
<g id="edge2" class="edge">
<title>dir_a98fddea045b8b2df4350ebb1d483bf8&#45;&gt;dir_29eca46078f73b220c63d096b03a57e8</title>
<path fill="none" stroke="black" d="M51,-143.7C51,-135.98 51,-126.71 51,-118.11"/>
<polygon fill="black" stroke="black" points="54.5,-118.1 51,-108.1 47.5,-118.1 54.5,-118.1"/>
<g id="a_edge2&#45;headlabel"><a xlink:href="dir_000018_000022.html" target="_top" xlink:title="1">
<text text-anchor="middle" x="57.34" y="-119.8" font-family="Helvetica,sans-Serif" font-size="8.00">1</text>
</a>
</g>
</g>
<!-- dir_0c017496b493ff066fbbe686970307ba -->
<g id="node3" class="node">
<title>dir_0c017496b493ff066fbbe686970307ba</title>
<g id="a_node3"><a xlink:href="dir_0c017496b493ff066fbbe686970307ba.html" target="_top" xlink:title="transport">
<polygon fill="none" stroke="red" points="105,-36 51,-36 51,0 105,0 105,-36"/>
<text text-anchor="middle" x="78" y="-16.1" font-family="Helvetica,sans-Serif" font-size="8.00">transport</text>
</a>
</g>
</g>
<!-- dir_a98fddea045b8b2df4350ebb1d483bf8&#45;&gt;dir_0c017496b493ff066fbbe686970307ba -->
<g id="edge1" class="edge">
<title>dir_a98fddea045b8b2df4350ebb1d483bf8&#45;&gt;dir_0c017496b493ff066fbbe686970307ba</title>
<path fill="none" stroke="black" d="M66.61,-143.77C74.37,-134.03 82.95,-121.18 87,-108 93.22,-87.77 90.27,-63.87 86.15,-45.92"/>
<polygon fill="black" stroke="black" points="89.51,-44.95 83.65,-36.12 82.73,-46.68 89.51,-44.95"/>
<g id="a_edge1&#45;headlabel"><a xlink:href="dir_000018_000023.html" target="_top" xlink:title="5">
<text text-anchor="middle" x="93.15" y="-45.83" font-family="Helvetica,sans-Serif" font-size="8.00">5</text>
</a>
</g>
</g>
<!-- dir_a762a7cb84c76c9561dbc78c61068184 -->
<g id="node4" class="node">
<title>dir_a762a7cb84c76c9561dbc78c61068184</title>
<g id="a_node4"><a xlink:href="dir_a762a7cb84c76c9561dbc78c61068184.html" target="_top" xlink:title="util">
<polygon fill="none" stroke="red" points="188,-108 134,-108 134,-72 188,-72 188,-108"/>
<text text-anchor="middle" x="161" y="-88.1" font-family="Helvetica,sans-Serif" font-size="8.00">util</text>
</a>
</g>
</g>
<!-- dir_a98fddea045b8b2df4350ebb1d483bf8&#45;&gt;dir_a762a7cb84c76c9561dbc78c61068184 -->
<g id="edge3" class="edge">
<title>dir_a98fddea045b8b2df4350ebb1d483bf8&#45;&gt;dir_a762a7cb84c76c9561dbc78c61068184</title>
<path fill="none" stroke="black" d="M77.91,-143.88C92.16,-134.81 109.85,-123.55 125.24,-113.76"/>
<polygon fill="black" stroke="black" points="127.43,-116.51 133.99,-108.19 123.67,-110.61 127.43,-116.51"/>
<g id="a_edge3&#45;headlabel"><a xlink:href="dir_000018_000027.html" target="_top" xlink:title="3">
<text text-anchor="middle" x="125.92" y="-118.94" font-family="Helvetica,sans-Serif" font-size="8.00">3</text>
</a>
</g>
</g>
<!-- dir_29eca46078f73b220c63d096b03a57e8&#45;&gt;dir_0c017496b493ff066fbbe686970307ba -->
<g id="edge4" class="edge">
<title>dir_29eca46078f73b220c63d096b03a57e8&#45;&gt;dir_0c017496b493ff066fbbe686970307ba</title>
<path fill="none" stroke="black" d="M57.67,-71.7C60.71,-63.81 64.38,-54.3 67.76,-45.55"/>
<polygon fill="black" stroke="black" points="71.07,-46.69 71.4,-36.1 64.54,-44.17 71.07,-46.69"/>
<g id="a_edge4&#45;headlabel"><a xlink:href="dir_000022_000023.html" target="_top" xlink:title="2">
<text text-anchor="middle" x="72.42" y="-49.17" font-family="Helvetica,sans-Serif" font-size="8.00">2</text>
</a>
</g>
</g>
</g>
</svg>
