<?xml version="1.0" encoding="UTF-8" standalone="no"?>
<!DOCTYPE svg PUBLIC "-//W3C//DTD SVG 1.1//EN"
 "http://www.w3.org/Graphics/SVG/1.1/DTD/svg11.dtd">
<!-- Generated by graphviz version 2.43.0 (0)
 -->
<!-- Title: session Pages: 1 -->
<svg width="222pt" height="132pt"
 viewBox="0.00 0.00 222.00 132.00" xmlns="http://www.w3.org/2000/svg" xmlns:xlink="http://www.w3.org/1999/xlink">
<g id="graph0" class="graph" transform="scale(1 1) rotate(0) translate(4 128)">
<title>session</title>
<polygon fill="white" stroke="transparent" points="-4,4 -4,-128 218,-128 218,4 -4,4"/>
<g id="clust1" class="cluster">
<title>clusterdir_938858dd290fe54e59e3500689c41d32</title>
<g id="a_clust1"><a xlink:href="dir_938858dd290fe54e59e3500689c41d32.html" target="_top">
<polygon fill="#edf0f7" stroke="#404040" stroke-width="2" points="8,-64 8,-116 150,-116 150,-64 8,-64"/>
</a>
</g>
</g>
<!-- dir_938858dd290fe54e59e3500689c41d32 -->
<g id="node1" class="node">
<title>dir_938858dd290fe54e59e3500689c41d32</title>
<text text-anchor="middle" x="115" y="-88.1" font-family="Helvetica,sans-Serif" font-size="8.00">session</text>
</g>
<!-- dir_0c017496b493ff066fbbe686970307ba -->
<g id="node3" class="node">
<title>dir_0c017496b493ff066fbbe686970307ba</title>
<g id="a_node3"><a xlink:href="dir_0c017496b493ff066fbbe686970307ba.html" target="_top" xlink:title="transport">
<polygon fill="none" stroke="red" points="70,-36 16,-36 16,0 70,0 70,-36"/>
<text text-anchor="middle" x="43" y="-16.1" font-family="Helvetica,sans-Serif" font-size="8.00">transport</text>
</a>
</g>
</g>
<!-- dir_938858dd290fe54e59e3500689c41d32&#45;&gt;dir_0c017496b493ff066fbbe686970307ba -->
<g id="edge1" class="edge">
<title>dir_938858dd290fe54e59e3500689c41d32&#45;&gt;dir_0c017496b493ff066fbbe686970307ba</title>
<path fill="none" stroke="black" d="M97.2,-71.7C88.4,-63.14 77.62,-52.66 68,-43.3"/>
<polygon fill="black" stroke="black" points="70.2,-40.57 60.59,-36.1 65.32,-45.58 70.2,-40.57"/>
<g id="a_edge1&#45;headlabel"><a xlink:href="dir_000007_000023.html" target="_top" xlink:title="1">
<text text-anchor="middle" x="74.76" y="-39.14" font-family="Helvetica,sans-Serif" font-size="8.00">1</text>
</a>
</g>
</g>
<!-- dir_58e412aa7ace8e71fc01678dc8765e7c -->
<g id="node4" class="node">
<title>dir_58e412aa7ace8e71fc01678dc8765e7c</title>
<g id="a_node4"><a xlink:href="dir_58e412aa7ace8e71fc01678dc8765e7c.html" target="_top" xlink:title="transport">
<polygon fill="none" stroke="red" points="142,-36 88,-36 88,0 142,0 142,-36"/>
<text text-anchor="middle" x="115" y="-16.1" font-family="Helvetica,sans-Serif" font-size="8.00">transport</text>
</a>
</g>
</g>
<!-- dir_938858dd290fe54e59e3500689c41d32&#45;&gt;dir_58e412aa7ace8e71fc01678dc8765e7c -->
<g id="edge2" class="edge">
<title>dir_938858dd290fe54e59e3500689c41d32&#45;&gt;dir_58e412aa7ace8e71fc01678dc8765e7c</title>
<path fill="none" stroke="black" d="M115,-71.7C115,-63.98 115,-54.71 115,-46.11"/>
<polygon fill="black" stroke="black" points="118.5,-46.1 115,-36.1 111.5,-46.1 118.5,-46.1"/>
<g id="a_edge2&#45;headlabel"><a xlink:href="dir_000007_000026.html" target="_top" xlink:title="2">
<text text-anchor="middle" x="121.34" y="-47.8" font-family="Helvetica,sans-Serif" font-size="8.00">2</text>
</a>
</g>
</g>
<!-- dir_a762a7cb84c76c9561dbc78c61068184 -->
<g id="node5" class="node">
<title>dir_a762a7cb84c76c9561dbc78c61068184</title>
<g id="a_node5"><a xlink:href="dir_a762a7cb84c76c9561dbc78c61068184.html" target="_top" xlink:title="util">
<polygon fill="none" stroke="red" points="214,-36 160,-36 160,0 214,0 214,-36"/>
<text text-anchor="middle" x="187" y="-16.1" font-family="Helvetica,sans-Serif" font-size="8.00">util</text>
</a>
</g>
</g>
<!-- dir_938858dd290fe54e59e3500689c41d32&#45;&gt;dir_a762a7cb84c76c9561dbc78c61068184 -->
<g id="edge3" class="edge">
<title>dir_938858dd290fe54e59e3500689c41d32&#45;&gt;dir_a762a7cb84c76c9561dbc78c61068184</title>
<path fill="none" stroke="black" d="M132.8,-71.7C141.6,-63.14 152.38,-52.66 162,-43.3"/>
<polygon fill="black" stroke="black" points="164.68,-45.58 169.41,-36.1 159.8,-40.57 164.68,-45.58"/>
<g id="a_edge3&#45;headlabel"><a xlink:href="dir_000007_000027.html" target="_top" xlink:title="5">
<text text-anchor="middle" x="164.08" y="-48.23" font-family="Helvetica,sans-Serif" font-size="8.00">5</text>
</a>
</g>
</g>
<!-- dir_c7ea703034e45a505e1ea635ef215d07 -->
<g id="node2" class="node">
<title>dir_c7ea703034e45a505e1ea635ef215d07</title>
<g id="a_node2"><a xlink:href="dir_c7ea703034e45a505e1ea635ef215d07.html" target="_top" xlink:title="sync_io">
<polygon fill="#a2b4d6" stroke="#404040" points="70,-108 16,-108 16,-72 70,-72 70,-108"/>
<text text-anchor="middle" x="43" y="-88.1" font-family="Helvetica,sans-Serif" font-size="8.00">sync_io</text>
</a>
</g>
</g>
</g>
</svg>
