<?xml version="1.0" encoding="UTF-8" standalone="no"?>
<!DOCTYPE svg PUBLIC "-//W3C//DTD SVG 1.1//EN"
 "http://www.w3.org/Graphics/SVG/1.1/DTD/svg11.dtd">
<!-- Generated by graphviz version 2.43.0 (0)
 -->
<!-- Title: shm/classic Pages: 1 -->
<svg width="150pt" height="165pt"
 viewBox="0.00 0.00 150.00 165.00" xmlns="http://www.w3.org/2000/svg" xmlns:xlink="http://www.w3.org/1999/xlink">
<g id="graph0" class="graph" transform="scale(1 1) rotate(0) translate(4 161)">
<title>shm/classic</title>
<polygon fill="white" stroke="transparent" points="-4,4 -4,-161 146,-161 146,4 -4,4"/>
<g id="clust1" class="cluster">
<title>clusterdir_ddb0f12d0722949f40b2818843b69123</title>
<g id="a_clust1"><a xlink:href="dir_ddb0f12d0722949f40b2818843b69123.html" target="_top" xlink:title="shm">
<polygon fill="#edf0f7" stroke="#404040" stroke-dasharray="5,2" points="8,-8 8,-149 78,-149 78,-8 8,-8"/>
<text text-anchor="middle" x="43" y="-138.6" font-family="Helvetica,sans-Serif" font-size="8.00">shm</text>
</a>
</g>
</g>
<!-- dir_6227a2031bab796131cf8c4b0b895649 -->
<g id="node1" class="node">
<title>dir_6227a2031bab796131cf8c4b0b895649</title>
<g id="a_node1"><a xlink:href="dir_6227a2031bab796131cf8c4b0b895649.html" target="_top" xlink:title="stl">
<polygon fill="#a2b4d6" stroke="#404040" points="70,-52 16,-52 16,-16 70,-16 70,-52"/>
<text text-anchor="middle" x="43" y="-32.1" font-family="Helvetica,sans-Serif" font-size="8.00">stl</text>
</a>
</g>
</g>
<!-- dir_d54aa94669c58d37a530f384e5a8d959 -->
<g id="node2" class="node">
<title>dir_d54aa94669c58d37a530f384e5a8d959</title>
<g id="a_node2"><a xlink:href="dir_d54aa94669c58d37a530f384e5a8d959.html" target="_top" xlink:title="classic">
<polygon fill="#edf0f7" stroke="#404040" stroke-width="2" points="70,-124 16,-124 16,-88 70,-88 70,-124"/>
<text text-anchor="middle" x="43" y="-104.1" font-family="Helvetica,sans-Serif" font-size="8.00">classic</text>
</a>
</g>
</g>
<!-- dir_d54aa94669c58d37a530f384e5a8d959&#45;&gt;dir_6227a2031bab796131cf8c4b0b895649 -->
<g id="edge1" class="edge">
<title>dir_d54aa94669c58d37a530f384e5a8d959&#45;&gt;dir_6227a2031bab796131cf8c4b0b895649</title>
<path fill="none" stroke="black" d="M43,-87.7C43,-79.98 43,-70.71 43,-62.11"/>
<polygon fill="black" stroke="black" points="46.5,-62.1 43,-52.1 39.5,-62.1 46.5,-62.1"/>
<g id="a_edge1&#45;headlabel"><a xlink:href="dir_000003_000015.html" target="_top" xlink:title="2">
<text text-anchor="middle" x="49.34" y="-63.8" font-family="Helvetica,sans-Serif" font-size="8.00">2</text>
</a>
</g>
</g>
<!-- dir_a762a7cb84c76c9561dbc78c61068184 -->
<g id="node3" class="node">
<title>dir_a762a7cb84c76c9561dbc78c61068184</title>
<g id="a_node3"><a xlink:href="dir_a762a7cb84c76c9561dbc78c61068184.html" target="_top" xlink:title="util">
<polygon fill="none" stroke="red" points="142,-52 88,-52 88,-16 142,-16 142,-52"/>
<text text-anchor="middle" x="115" y="-32.1" font-family="Helvetica,sans-Serif" font-size="8.00">util</text>
</a>
</g>
</g>
<!-- dir_d54aa94669c58d37a530f384e5a8d959&#45;&gt;dir_a762a7cb84c76c9561dbc78c61068184 -->
<g id="edge2" class="edge">
<title>dir_d54aa94669c58d37a530f384e5a8d959&#45;&gt;dir_a762a7cb84c76c9561dbc78c61068184</title>
<path fill="none" stroke="black" d="M60.8,-87.7C69.6,-79.14 80.38,-68.66 90,-59.3"/>
<polygon fill="black" stroke="black" points="92.68,-61.58 97.41,-52.1 87.8,-56.57 92.68,-61.58"/>
<g id="a_edge2&#45;headlabel"><a xlink:href="dir_000003_000027.html" target="_top" xlink:title="3">
<text text-anchor="middle" x="92.08" y="-64.23" font-family="Helvetica,sans-Serif" font-size="8.00">3</text>
</a>
</g>
</g>
</g>
</svg>
