<?xml version="1.0" encoding="UTF-8" standalone="no"?>
<!DOCTYPE svg PUBLIC "-//W3C//DTD SVG 1.1//EN"
 "http://www.w3.org/Graphics/SVG/1.1/DTD/svg11.dtd">
<!-- Generated by graphviz version 2.43.0 (0)
 -->
<!-- Title: Graphical Class Hierarchy Pages: 1 -->
<svg width="274pt" height="44pt"
 viewBox="0.00 0.00 274.00 44.00" xmlns="http://www.w3.org/2000/svg" xmlns:xlink="http://www.w3.org/1999/xlink">
<g id="graph0" class="graph" transform="scale(1 1) rotate(0) translate(4 40)">
<title>Graphical Class Hierarchy</title>
<polygon fill="white" stroke="transparent" points="-4,4 -4,-40 270,-40 270,4 -4,4"/>
<!-- Node0 -->
<g id="node1" class="node">
<title>Node0</title>
<g id="a_node1"><a xlink:href="classipc_1_1util_1_1Process__credentials.html" target="_top" xlink:title="A process&#39;s credentials (PID, UID, GID as of this writing).">
<polygon fill="white" stroke="black" points="0,-5 0,-31 85,-31 85,-5 0,-5"/>
<text text-anchor="start" x="8" y="-20.6" font-family="Helvetica,sans-Serif" font-size="8.00">ipc::util::Process</text>
<text text-anchor="middle" x="42.5" y="-11.6" font-family="Helvetica,sans-Serif" font-size="8.00">_credentials</text>
</a>
</g>
</g>
<!-- Node1 -->
<g id="node2" class="node">
<title>Node1</title>
<g id="a_node2"><a xlink:href="classipc_1_1transport_1_1asio__local__stream__socket_1_1Opt__peer__process__credentials.html" target="_top" xlink:title="Gettable (read&#45;only) socket option for use with asio_local_stream_socket::Peer_socket ....">
<polygon fill="white" stroke="black" points="121,-0.5 121,-35.5 266,-35.5 266,-0.5 121,-0.5"/>
<text text-anchor="start" x="129" y="-25.1" font-family="Helvetica,sans-Serif" font-size="8.00">ipc::transport::asio</text>
<text text-anchor="start" x="129" y="-16.1" font-family="Helvetica,sans-Serif" font-size="8.00">_local_stream_socket</text>
<text text-anchor="middle" x="193.5" y="-7.1" font-family="Helvetica,sans-Serif" font-size="8.00">::Opt_peer_process_credentials</text>
</a>
</g>
</g>
<!-- Node0&#45;&gt;Node1 -->
<g id="edge1" class="edge">
<title>Node0&#45;&gt;Node1</title>
<path fill="none" stroke="midnightblue" d="M95.27,-18C103.58,-18 112.3,-18 120.97,-18"/>
<polygon fill="midnightblue" stroke="midnightblue" points="95,-14.5 85,-18 95,-21.5 95,-14.5"/>
</g>
</g>
</svg>
