<?xml version="1.0" encoding="UTF-8" standalone="no"?>
<!DOCTYPE svg PUBLIC "-//W3C//DTD SVG 1.1//EN"
 "http://www.w3.org/Graphics/SVG/1.1/DTD/svg11.dtd">
<!-- Generated by graphviz version 2.43.0 (0)
 -->
<!-- Title: Graphical Class Hierarchy Pages: 1 -->
<svg width="307pt" height="53pt"
 viewBox="0.00 0.00 307.00 53.00" xmlns="http://www.w3.org/2000/svg" xmlns:xlink="http://www.w3.org/1999/xlink">
<g id="graph0" class="graph" transform="scale(1 1) rotate(0) translate(4 49)">
<title>Graphical Class Hierarchy</title>
<polygon fill="white" stroke="transparent" points="-4,4 -4,-49 303,-49 303,4 -4,4"/>
<!-- Node0 -->
<g id="node1" class="node">
<title>Node0</title>
<g id="a_node1"><a xlink:href="classipc_1_1session_1_1Session__server.html" target="_top" xlink:title="To be instantiated typically once in a given process, an object of this type asynchronously listens f...">
<polygon fill="white" stroke="black" points="0,-0.5 0,-44.5 131,-44.5 131,-0.5 0,-0.5"/>
<text text-anchor="start" x="8" y="-34.1" font-family="Helvetica,sans-Serif" font-size="8.00">ipc::session::Session</text>
<text text-anchor="start" x="8" y="-25.1" font-family="Helvetica,sans-Serif" font-size="8.00">_server&lt; S_MQ_TYPE_OR</text>
<text text-anchor="start" x="8" y="-16.1" font-family="Helvetica,sans-Serif" font-size="8.00">_NONE, S_TRANSMIT_NATIVE</text>
<text text-anchor="middle" x="65.5" y="-7.1" font-family="Helvetica,sans-Serif" font-size="8.00">_HANDLES, Mdt_payload &gt;</text>
</a>
</g>
</g>
<!-- Node1 -->
<g id="node2" class="node">
<title>Node1</title>
<g id="a_node2"><a xlink:href="classipc_1_1session_1_1sync__io_1_1Session__server__adapter.html" target="_top" xlink:title="sync_io&#45;pattern counterpart to async&#45;I/O&#45;pattern session::Session_server types and all their SHM&#45;awar...">
<polygon fill="white" stroke="black" points="167,-5 167,-40 299,-40 299,-5 167,-5"/>
<text text-anchor="start" x="175" y="-29.6" font-family="Helvetica,sans-Serif" font-size="8.00">ipc::session::sync</text>
<text text-anchor="start" x="175" y="-20.6" font-family="Helvetica,sans-Serif" font-size="8.00">_io::Session_server</text>
<text text-anchor="middle" x="233" y="-11.6" font-family="Helvetica,sans-Serif" font-size="8.00">_adapter&lt; Session_server &gt;</text>
</a>
</g>
</g>
<!-- Node0&#45;&gt;Node1 -->
<g id="edge1" class="edge">
<title>Node0&#45;&gt;Node1</title>
<path fill="none" stroke="#8b1a1a" d="M141.67,-22.5C150.12,-22.5 158.67,-22.5 166.98,-22.5"/>
<polygon fill="#8b1a1a" stroke="#8b1a1a" points="141.44,-19 131.43,-22.5 141.43,-26 141.44,-19"/>
</g>
</g>
</svg>
