<?xml version="1.0" encoding="UTF-8" standalone="no"?>
<!DOCTYPE svg PUBLIC "-//W3C//DTD SVG 1.1//EN"
 "http://www.w3.org/Graphics/SVG/1.1/DTD/svg11.dtd">
<!-- Generated by graphviz version 2.43.0 (0)
 -->
<!-- Title: Graphical Class Hierarchy Pages: 1 -->
<svg width="280pt" height="35pt"
 viewBox="0.00 0.00 280.00 35.00" xmlns="http://www.w3.org/2000/svg" xmlns:xlink="http://www.w3.org/1999/xlink">
<g id="graph0" class="graph" transform="scale(1 1) rotate(0) translate(4 31)">
<title>Graphical Class Hierarchy</title>
<polygon fill="white" stroke="transparent" points="-4,4 -4,-31 276,-31 276,4 -4,4"/>
<!-- Node0 -->
<g id="node1" class="node">
<title>Node0</title>
<g id="a_node1"><a xlink:href="classipc_1_1transport_1_1struc_1_1shm_1_1Builder__base.html" target="_top" xlink:title="shm::Builder base that contains non&#45;parameterized public items such as tag types and constants.">
<polygon fill="white" stroke="black" points="0,-0.5 0,-26.5 98,-26.5 98,-0.5 0,-0.5"/>
<text text-anchor="start" x="8" y="-16.1" font-family="Helvetica,sans-Serif" font-size="8.00">ipc::transport::struc</text>
<text text-anchor="middle" x="49" y="-7.1" font-family="Helvetica,sans-Serif" font-size="8.00">::shm::Builder_base</text>
</a>
</g>
</g>
<!-- Node1 -->
<g id="node2" class="node">
<title>Node1</title>
<g id="a_node2"><a xlink:href="classipc_1_1transport_1_1struc_1_1shm_1_1Builder.html" target="_top" xlink:title="Implements Struct_builder concept with maximal zero&#45;copy perf by (1) storing the actual user&#45;schema&#45;c...">
<polygon fill="white" stroke="black" points="134,-0.5 134,-26.5 272,-26.5 272,-0.5 134,-0.5"/>
<text text-anchor="start" x="142" y="-16.1" font-family="Helvetica,sans-Serif" font-size="8.00">ipc::transport::struc</text>
<text text-anchor="middle" x="203" y="-7.1" font-family="Helvetica,sans-Serif" font-size="8.00">::shm::Builder&lt; Shm_arena &gt;</text>
</a>
</g>
</g>
<!-- Node0&#45;&gt;Node1 -->
<g id="edge1" class="edge">
<title>Node0&#45;&gt;Node1</title>
<path fill="none" stroke="midnightblue" d="M108.19,-13.5C116.61,-13.5 125.35,-13.5 133.95,-13.5"/>
<polygon fill="midnightblue" stroke="midnightblue" points="108.09,-10 98.09,-13.5 108.09,-17 108.09,-10"/>
</g>
</g>
</svg>
