<?xml version="1.0" encoding="UTF-8" standalone="no"?>
<!DOCTYPE svg PUBLIC "-//W3C//DTD SVG 1.1//EN"
 "http://www.w3.org/Graphics/SVG/1.1/DTD/svg11.dtd">
<!-- Generated by graphviz version 2.43.0 (0)
 -->
<!-- Title: Graphical Class Hierarchy Pages: 1 -->
<svg width="307pt" height="89pt"
 viewBox="0.00 0.00 307.00 89.00" xmlns="http://www.w3.org/2000/svg" xmlns:xlink="http://www.w3.org/1999/xlink">
<g id="graph0" class="graph" transform="scale(1 1) rotate(0) translate(4 85)">
<title>Graphical Class Hierarchy</title>
<polygon fill="white" stroke="transparent" points="-4,4 -4,-85 303,-85 303,4 -4,4"/>
<!-- Node0 -->
<g id="node1" class="node">
<title>Node0</title>
<g id="a_node1"><a xlink:href="classipc_1_1transport_1_1Channel.html" target="_top" xlink:title=" ">
<polygon fill="white" stroke="black" points="0,-0.5 0,-80.5 146,-80.5 146,-0.5 0,-0.5"/>
<text text-anchor="start" x="8" y="-70.1" font-family="Helvetica,sans-Serif" font-size="8.00">ipc::transport::Channel</text>
<text text-anchor="start" x="8" y="-61.1" font-family="Helvetica,sans-Serif" font-size="8.00">&lt; Null_peer, Null_peer,</text>
<text text-anchor="start" x="8" y="-52.1" font-family="Helvetica,sans-Serif" font-size="8.00"> std::conditional_t&lt; SIO,</text>
<text text-anchor="start" x="8" y="-43.1" font-family="Helvetica,sans-Serif" font-size="8.00"> sync_io::Native_socket_stream,</text>
<text text-anchor="start" x="8" y="-34.1" font-family="Helvetica,sans-Serif" font-size="8.00"> Native_socket_stream &gt;, std</text>
<text text-anchor="start" x="8" y="-25.1" font-family="Helvetica,sans-Serif" font-size="8.00">::conditional_t&lt; SIO, sync_io</text>
<text text-anchor="start" x="8" y="-16.1" font-family="Helvetica,sans-Serif" font-size="8.00">::Native_socket_stream, Native</text>
<text text-anchor="middle" x="73" y="-7.1" font-family="Helvetica,sans-Serif" font-size="8.00">_socket_stream &gt; &gt;</text>
</a>
</g>
</g>
<!-- Node1 -->
<g id="node2" class="node">
<title>Node1</title>
<g id="a_node2"><a xlink:href="classipc_1_1transport_1_1Socket__stream__channel.html" target="_top" xlink:title="A Channel with a handles pipe only (no blobs pipe) that uses a Unix domain socket connection as the u...">
<polygon fill="white" stroke="black" points="182,-27.5 182,-53.5 299,-53.5 299,-27.5 182,-27.5"/>
<text text-anchor="start" x="190" y="-43.1" font-family="Helvetica,sans-Serif" font-size="8.00">ipc::transport::Socket</text>
<text text-anchor="middle" x="240.5" y="-34.1" font-family="Helvetica,sans-Serif" font-size="8.00">_stream_channel&lt; SIO &gt;</text>
</a>
</g>
</g>
<!-- Node0&#45;&gt;Node1 -->
<g id="edge1" class="edge">
<title>Node0&#45;&gt;Node1</title>
<path fill="none" stroke="midnightblue" d="M156.23,-40.5C164.87,-40.5 173.52,-40.5 181.8,-40.5"/>
<polygon fill="midnightblue" stroke="midnightblue" points="156.11,-37 146.11,-40.5 156.11,-44 156.11,-37"/>
</g>
</g>
</svg>
