<?xml version="1.0" encoding="UTF-8" standalone="no"?>
<!DOCTYPE svg PUBLIC "-//W3C//DTD SVG 1.1//EN"
 "http://www.w3.org/Graphics/SVG/1.1/DTD/svg11.dtd">
<!-- Generated by graphviz version 2.43.0 (0)
 -->
<!-- Title: ipc::session::App Pages: 1 -->
<svg width="260pt" height="80pt"
 viewBox="0.00 0.00 259.50 80.00" xmlns="http://www.w3.org/2000/svg" xmlns:xlink="http://www.w3.org/1999/xlink">
<g id="graph0" class="graph" transform="scale(1 1) rotate(0) translate(4 76)">
<title>ipc::session::App</title>
<polygon fill="white" stroke="transparent" points="-4,4 -4,-76 255.5,-76 255.5,4 -4,4"/>
<!-- Node1 -->
<g id="node1" class="node">
<title>Node1</title>
<g id="a_node1"><a xlink:title="A description of an application in this ipc::session inter&#45;process communication universe.">
<polygon fill="#bfbfbf" stroke="black" points="80.5,-54.5 80.5,-71.5 168.5,-71.5 168.5,-54.5 80.5,-54.5"/>
<text text-anchor="middle" x="124.5" y="-61.1" font-family="Helvetica,sans-Serif" font-size="8.00">ipc::session::App</text>
</a>
</g>
</g>
<!-- Node2 -->
<g id="node2" class="node">
<title>Node2</title>
<g id="a_node2"><a xlink:href="structipc_1_1session_1_1Client__app.html" target="_top" xlink:title="An App that is used as a client in at least one client&#45;server IPC split.">
<polygon fill="white" stroke="black" points="0,-0.5 0,-17.5 115,-17.5 115,-0.5 0,-0.5"/>
<text text-anchor="middle" x="57.5" y="-7.1" font-family="Helvetica,sans-Serif" font-size="8.00">ipc::session::Client_app</text>
</a>
</g>
</g>
<!-- Node1&#45;&gt;Node2 -->
<g id="edge1" class="edge">
<title>Node1&#45;&gt;Node2</title>
<path fill="none" stroke="midnightblue" d="M106.64,-48.14C94.08,-38.39 77.73,-25.7 67.43,-17.7"/>
<polygon fill="midnightblue" stroke="midnightblue" points="104.57,-50.96 114.61,-54.33 108.86,-45.43 104.57,-50.96"/>
</g>
<!-- Node3 -->
<g id="node3" class="node">
<title>Node3</title>
<g id="a_node3"><a xlink:href="structipc_1_1session_1_1Server__app.html" target="_top" xlink:title="An App that is used as a server in at least one client&#45;server IPC split.">
<polygon fill="white" stroke="black" points="133.5,-0.5 133.5,-17.5 251.5,-17.5 251.5,-0.5 133.5,-0.5"/>
<text text-anchor="middle" x="192.5" y="-7.1" font-family="Helvetica,sans-Serif" font-size="8.00">ipc::session::Server_app</text>
</a>
</g>
</g>
<!-- Node1&#45;&gt;Node3 -->
<g id="edge2" class="edge">
<title>Node1&#45;&gt;Node3</title>
<path fill="none" stroke="midnightblue" d="M142.62,-48.14C155.37,-38.39 171.96,-25.7 182.43,-17.7"/>
<polygon fill="midnightblue" stroke="midnightblue" points="140.35,-45.47 134.53,-54.33 144.6,-51.03 140.35,-45.47"/>
</g>
</g>
</svg>
