<?xml version="1.0" encoding="UTF-8" standalone="no"?>
<!DOCTYPE svg PUBLIC "-//W3C//DTD SVG 1.1//EN"
 "http://www.w3.org/Graphics/SVG/1.1/DTD/svg11.dtd">
<!-- Generated by graphviz version 2.43.0 (0)
 -->
<!-- Title: ipc::transport::Bipc_mq_handle::absolute_name Pages: 1 -->
<svg width="325pt" height="143pt"
 viewBox="0.00 0.00 325.00 143.00" xmlns="http://www.w3.org/2000/svg" xmlns:xlink="http://www.w3.org/1999/xlink">
<g id="graph0" class="graph" transform="scale(1 1) rotate(0) translate(4 139)">
<title>ipc::transport::Bipc_mq_handle::absolute_name</title>
<polygon fill="white" stroke="transparent" points="-4,4 -4,-139 321,-139 321,4 -4,4"/>
<!-- Node1 -->
<g id="node1" class="node">
<title>Node1</title>
<g id="a_node1"><a xlink:title="Implements Persistent_mq_handle API: Returns name equal to absolute_name passed to ctor.">
<polygon fill="#bfbfbf" stroke="black" points="183,-63.5 183,-89.5 317,-89.5 317,-63.5 183,-63.5"/>
<text text-anchor="start" x="191" y="-79.1" font-family="Helvetica,sans-Serif" font-size="8.00">ipc::transport::Bipc</text>
<text text-anchor="middle" x="250" y="-70.1" font-family="Helvetica,sans-Serif" font-size="8.00">_mq_handle::absolute_name</text>
</a>
</g>
</g>
<!-- Node2 -->
<g id="node2" class="node">
<title>Node2</title>
<g id="a_node2"><a xlink:href="classipc_1_1transport_1_1Bipc__mq__handle.html#a09f47c6b083179259b7a21b1a6f3c6d0" target="_top" xlink:title="Helper ctor delegated by the 2 public ctors that take Open_or_create or Create_only mode.">
<polygon fill="white" stroke="black" points="5,-108.5 5,-134.5 142,-134.5 142,-108.5 5,-108.5"/>
<text text-anchor="start" x="13" y="-124.1" font-family="Helvetica,sans-Serif" font-size="8.00">ipc::transport::Bipc</text>
<text text-anchor="middle" x="73.5" y="-115.1" font-family="Helvetica,sans-Serif" font-size="8.00">_mq_handle::Bipc_mq_handle</text>
</a>
</g>
</g>
<!-- Node1&#45;&gt;Node2 -->
<g id="edge1" class="edge">
<title>Node1&#45;&gt;Node2</title>
<path fill="none" stroke="midnightblue" d="M188.58,-92.08C167.9,-97.41 144.99,-103.32 125.16,-108.44"/>
<polygon fill="midnightblue" stroke="midnightblue" points="189.72,-95.4 198.53,-89.52 187.97,-88.62 189.72,-95.4"/>
</g>
<!-- Node3 -->
<g id="node3" class="node">
<title>Node3</title>
<g id="a_node3"><a xlink:href="classipc_1_1transport_1_1Bipc__mq__handle.html#a61c80019823537694f925275dccb4f3f" target="_top" xlink:title="Prints string representation of the given Bipc_mq_handle to the given ostream.">
<polygon fill="white" stroke="black" points="13.5,-63.5 13.5,-89.5 133.5,-89.5 133.5,-63.5 13.5,-63.5"/>
<text text-anchor="start" x="21.5" y="-79.1" font-family="Helvetica,sans-Serif" font-size="8.00">ipc::transport::Bipc</text>
<text text-anchor="middle" x="73.5" y="-70.1" font-family="Helvetica,sans-Serif" font-size="8.00">_mq_handle::operator&lt;&lt;</text>
</a>
</g>
</g>
<!-- Node1&#45;&gt;Node3 -->
<g id="edge2" class="edge">
<title>Node1&#45;&gt;Node3</title>
<path fill="none" stroke="midnightblue" d="M172.24,-76.5C159.3,-76.5 146.05,-76.5 133.64,-76.5"/>
<polygon fill="midnightblue" stroke="midnightblue" points="172.53,-80 182.53,-76.5 172.53,-73 172.53,-80"/>
</g>
<!-- Node4 -->
<g id="node4" class="node">
<title>Node4</title>
<g id="a_node4"><a xlink:href="classipc_1_1transport_1_1Bipc__mq__handle.html#a982a83871b89211f073dfafa49bb4c27" target="_top" xlink:title="Implements Persistent_mq_handle API: Removes the named persistent MQ.">
<polygon fill="white" stroke="black" points="0,-0.5 0,-26.5 147,-26.5 147,-0.5 0,-0.5"/>
<text text-anchor="start" x="8" y="-16.1" font-family="Helvetica,sans-Serif" font-size="8.00">ipc::transport::Bipc</text>
<text text-anchor="middle" x="73.5" y="-7.1" font-family="Helvetica,sans-Serif" font-size="8.00">_mq_handle::remove_persistent</text>
</a>
</g>
</g>
<!-- Node1&#45;&gt;Node4 -->
<g id="edge3" class="edge">
<title>Node1&#45;&gt;Node4</title>
<path fill="none" stroke="midnightblue" d="M203.36,-60.02C174.42,-49.57 137.51,-36.25 110.61,-26.54"/>
<polygon fill="midnightblue" stroke="midnightblue" points="202.25,-63.34 212.84,-63.45 204.63,-56.76 202.25,-63.34"/>
</g>
<!-- Node4&#45;&gt;Node4 -->
<g id="edge4" class="edge">
<title>Node4&#45;&gt;Node4</title>
<path fill="none" stroke="midnightblue" d="M105.43,-36.58C102.19,-41.47 91.55,-45 73.5,-45 44.62,-45 34.7,-35.96 43.72,-26.77"/>
<polygon fill="midnightblue" stroke="midnightblue" points="108.84,-35.79 103.28,-26.77 102.01,-37.29 108.84,-35.79"/>
</g>
</g>
</svg>
