<?xml version="1.0" encoding="UTF-8" standalone="no"?>
<!DOCTYPE svg PUBLIC "-//W3C//DTD SVG 1.1//EN"
 "http://www.w3.org/Graphics/SVG/1.1/DTD/svg11.dtd">
<!-- Generated by graphviz version 2.43.0 (0)
 -->
<!-- Title: ipc::transport::sync_io::Native_socket_stream_acceptor::absolute_name Pages: 1 -->
<svg width="288pt" height="44pt"
 viewBox="0.00 0.00 288.00 44.00" xmlns="http://www.w3.org/2000/svg" xmlns:xlink="http://www.w3.org/1999/xlink">
<g id="graph0" class="graph" transform="scale(1 1) rotate(0) translate(4 40)">
<title>ipc::transport::sync_io::Native_socket_stream_acceptor::absolute_name</title>
<polygon fill="white" stroke="transparent" points="-4,4 -4,-40 284,-40 284,4 -4,4"/>
<!-- Node1 -->
<g id="node1" class="node">
<title>Node1</title>
<g id="a_node1"><a xlink:title="All notes from Async_io_obj API counterpart API apply.">
<polygon fill="#bfbfbf" stroke="black" points="0,-0.5 0,-35.5 125,-35.5 125,-0.5 0,-0.5"/>
<text text-anchor="start" x="8" y="-25.1" font-family="Helvetica,sans-Serif" font-size="8.00">ipc::transport::sync</text>
<text text-anchor="start" x="8" y="-16.1" font-family="Helvetica,sans-Serif" font-size="8.00">_io::Native_socket_stream</text>
<text text-anchor="middle" x="62.5" y="-7.1" font-family="Helvetica,sans-Serif" font-size="8.00">_acceptor::absolute_name</text>
</a>
</g>
</g>
<!-- Node2 -->
<g id="node2" class="node">
<title>Node2</title>
<g id="a_node2"><a xlink:href="classipc_1_1transport_1_1Native__socket__stream__acceptor.html#ac5b70ff8230fa49c99ccb6954db71c75" target="_top" xlink:title="Returns the full name/address to which the constructor bound, or attempted to bind,...">
<polygon fill="white" stroke="black" points="161,-0.5 161,-35.5 280,-35.5 280,-0.5 161,-0.5"/>
<text text-anchor="start" x="169" y="-25.1" font-family="Helvetica,sans-Serif" font-size="8.00">ipc::transport::Native</text>
<text text-anchor="start" x="169" y="-16.1" font-family="Helvetica,sans-Serif" font-size="8.00">_socket_stream_acceptor</text>
<text text-anchor="middle" x="220.5" y="-7.1" font-family="Helvetica,sans-Serif" font-size="8.00">::absolute_name</text>
</a>
</g>
</g>
<!-- Node1&#45;&gt;Node2 -->
<g id="edge1" class="edge">
<title>Node1&#45;&gt;Node2</title>
<path fill="none" stroke="midnightblue" d="M125.16,-18C133.51,-18 142.13,-18 150.6,-18"/>
<polygon fill="midnightblue" stroke="midnightblue" points="150.84,-21.5 160.84,-18 150.84,-14.5 150.84,-21.5"/>
</g>
</g>
</svg>
