<?xml version="1.0" encoding="UTF-8" standalone="no"?>
<!DOCTYPE svg PUBLIC "-//W3C//DTD SVG 1.1//EN"
 "http://www.w3.org/Graphics/SVG/1.1/DTD/svg11.dtd">
<!-- Generated by graphviz version 2.43.0 (0)
 -->
<!-- Title: ipc::transport::Protocol_negotiator Pages: 1 -->
<svg width="606pt" height="189pt"
 viewBox="0.00 0.00 605.50 189.00" xmlns="http://www.w3.org/2000/svg" xmlns:xlink="http://www.w3.org/1999/xlink">
<g id="graph0" class="graph" transform="scale(1 1) rotate(0) translate(4 185)">
<title>ipc::transport::Protocol_negotiator</title>
<polygon fill="white" stroke="transparent" points="-4,4 -4,-185 601.5,-185 601.5,4 -4,4"/>
<!-- Node1 -->
<g id="node1" class="node">
<title>Node1</title>
<g id="a_node1"><a xlink:title="A simple state machine that, assuming the opposide side of a comm pathway uses an equivalent state ma...">
<polygon fill="#bfbfbf" stroke="black" points="234,-0.5 234,-26.5 345,-26.5 345,-0.5 234,-0.5"/>
<text text-anchor="start" x="242" y="-16.1" font-family="Helvetica,sans-Serif" font-size="8.00">ipc::transport::Protocol</text>
<text text-anchor="middle" x="289.5" y="-7.1" font-family="Helvetica,sans-Serif" font-size="8.00">_negotiator</text>
</a>
</g>
</g>
<!-- Node2 -->
<g id="node2" class="node">
<title>Node2</title>
<g id="a_node2"><a xlink:title=" ">
<polygon fill="white" stroke="#bfbfbf" points="0,-95 0,-112 107,-112 107,-95 0,-95"/>
<text text-anchor="middle" x="53.5" y="-101.6" font-family="Helvetica,sans-Serif" font-size="8.00">flow::log::Log_context</text>
</a>
</g>
</g>
<!-- Node2&#45;&gt;Node1 -->
<g id="edge1" class="edge">
<title>Node2&#45;&gt;Node1</title>
<path fill="none" stroke="midnightblue" d="M76.78,-90.4C101.53,-77.87 142.05,-58.29 178.5,-45 197.93,-37.91 219.8,-31.57 238.95,-26.53"/>
<polygon fill="midnightblue" stroke="midnightblue" points="75.11,-87.32 67.8,-94.99 78.3,-93.55 75.11,-87.32"/>
</g>
<!-- Node3 -->
<g id="node3" class="node">
<title>Node3</title>
<g id="a_node3"><a xlink:title=" ">
<polygon fill="white" stroke="#bfbfbf" points="125,-90.5 125,-116.5 230,-116.5 230,-90.5 125,-90.5"/>
<text text-anchor="start" x="133" y="-106.1" font-family="Helvetica,sans-Serif" font-size="8.00">static constexpr proto</text>
<text text-anchor="middle" x="177.5" y="-97.1" font-family="Helvetica,sans-Serif" font-size="8.00">_ver_t</text>
</a>
</g>
</g>
<!-- Node3&#45;&gt;Node1 -->
<g id="edge2" class="edge">
<title>Node3&#45;&gt;Node1</title>
<path fill="none" stroke="#9a32cd" stroke-dasharray="5,2" d="M179.99,-80.19C182.41,-68.33 187.16,-54.32 196.5,-45 206.6,-34.92 220.09,-28.17 233.65,-23.65"/>
<polygon fill="#9a32cd" stroke="#9a32cd" points="176.5,-79.85 178.37,-90.28 183.41,-80.96 176.5,-79.85"/>
<text text-anchor="middle" x="241" y="-61.1" font-family="Helvetica,sans-Serif" font-size="8.00"> S_VER_UNKNOWN</text>
<text text-anchor="middle" x="241" y="-52.1" font-family="Helvetica,sans-Serif" font-size="8.00">S_VER_UNSUPPORTED</text>
</g>
<!-- Node4 -->
<g id="node4" class="node">
<title>Node4</title>
<g id="a_node4"><a xlink:title=" ">
<polygon fill="white" stroke="black" points="260,-95 260,-112 319,-112 319,-95 260,-95"/>
<text text-anchor="middle" x="289.5" y="-101.6" font-family="Helvetica,sans-Serif" font-size="8.00">std::string</text>
</a>
</g>
</g>
<!-- Node4&#45;&gt;Node1 -->
<g id="edge3" class="edge">
<title>Node4&#45;&gt;Node1</title>
<path fill="none" stroke="#9a32cd" stroke-dasharray="5,2" d="M289.5,-84.63C289.5,-67.38 289.5,-41.72 289.5,-26.69"/>
<polygon fill="#9a32cd" stroke="#9a32cd" points="286,-85 289.5,-95 293,-85 286,-85"/>
<text text-anchor="middle" x="316.5" y="-56.6" font-family="Helvetica,sans-Serif" font-size="8.00"> m_nickname</text>
</g>
<!-- Node5 -->
<g id="node5" class="node">
<title>Node5</title>
<g id="a_node5"><a xlink:title=" ">
<polygon fill="white" stroke="black" points="244,-154.5 244,-180.5 335,-180.5 335,-154.5 244,-154.5"/>
<text text-anchor="start" x="252" y="-170.1" font-family="Helvetica,sans-Serif" font-size="8.00">std::basic_string&lt;</text>
<text text-anchor="middle" x="289.5" y="-161.1" font-family="Helvetica,sans-Serif" font-size="8.00"> Char &gt;</text>
</a>
</g>
</g>
<!-- Node5&#45;&gt;Node4 -->
<g id="edge4" class="edge">
<title>Node5&#45;&gt;Node4</title>
<path fill="none" stroke="midnightblue" d="M289.5,-144.18C289.5,-132.92 289.5,-120 289.5,-112.04"/>
<polygon fill="midnightblue" stroke="midnightblue" points="286,-144.25 289.5,-154.25 293,-144.25 286,-144.25"/>
</g>
<!-- Node6 -->
<g id="node6" class="node">
<title>Node6</title>
<g id="a_node6"><a xlink:title=" ">
<polygon fill="white" stroke="#bfbfbf" points="344.5,-95 344.5,-112 388.5,-112 388.5,-95 344.5,-95"/>
<text text-anchor="middle" x="366.5" y="-101.6" font-family="Helvetica,sans-Serif" font-size="8.00">int16_t</text>
</a>
</g>
</g>
<!-- Node6&#45;&gt;Node1 -->
<g id="edge5" class="edge">
<title>Node6&#45;&gt;Node1</title>
<path fill="none" stroke="#9a32cd" stroke-dasharray="5,2" d="M363.14,-84.97C360.04,-72.64 354.37,-56.37 344.5,-45 337.84,-37.33 328.76,-31.21 319.9,-26.52"/>
<polygon fill="#9a32cd" stroke="#9a32cd" points="359.77,-85.91 365.32,-94.94 366.61,-84.42 359.77,-85.91"/>
<text text-anchor="middle" x="408" y="-65.6" font-family="Helvetica,sans-Serif" font-size="8.00"> m_local_max_proto_ver</text>
<text text-anchor="middle" x="408" y="-56.6" font-family="Helvetica,sans-Serif" font-size="8.00">m_local_min_proto_ver</text>
<text text-anchor="middle" x="408" y="-47.6" font-family="Helvetica,sans-Serif" font-size="8.00">m_negotiated_proto_ver</text>
</g>
<!-- Node7 -->
<g id="node7" class="node">
<title>Node7</title>
<g id="a_node7"><a xlink:title=" ">
<polygon fill="white" stroke="#bfbfbf" points="471,-95 471,-112 506,-112 506,-95 471,-95"/>
<text text-anchor="middle" x="488.5" y="-101.6" font-family="Helvetica,sans-Serif" font-size="8.00">bool</text>
</a>
</g>
</g>
<!-- Node7&#45;&gt;Node1 -->
<g id="edge6" class="edge">
<title>Node7&#45;&gt;Node1</title>
<path fill="none" stroke="#9a32cd" stroke-dasharray="5,2" d="M484.86,-85.01C481.2,-71.95 474.22,-54.74 461.5,-45 443.56,-31.26 388.24,-23.18 345.13,-18.83"/>
<polygon fill="#9a32cd" stroke="#9a32cd" points="481.46,-85.85 487.2,-94.75 488.26,-84.21 481.46,-85.85"/>
<text text-anchor="middle" x="538.5" y="-56.6" font-family="Helvetica,sans-Serif" font-size="8.00"> m_local_max_proto_ver_sent</text>
</g>
</g>
</svg>
