<?xml version="1.0" encoding="UTF-8" standalone="no"?>
<!DOCTYPE svg PUBLIC "-//W3C//DTD SVG 1.1//EN"
 "http://www.w3.org/Graphics/SVG/1.1/DTD/svg11.dtd">
<!-- Generated by graphviz version 2.43.0 (0)
 -->
<!-- Title: ipc::transport::sync_io::Native_socket_stream::sync_connect Pages: 1 -->
<svg width="290pt" height="98pt"
 viewBox="0.00 0.00 290.00 98.00" xmlns="http://www.w3.org/2000/svg" xmlns:xlink="http://www.w3.org/1999/xlink">
<g id="graph0" class="graph" transform="scale(1 1) rotate(0) translate(4 94)">
<title>ipc::transport::sync_io::Native_socket_stream::sync_connect</title>
<polygon fill="white" stroke="transparent" points="-4,4 -4,-94 286,-94 286,4 -4,4"/>
<!-- Node1 -->
<g id="node1" class="node">
<title>Node1</title>
<g id="a_node1"><a xlink:title="Identical to Async_io_obj counterpart.">
<polygon fill="#bfbfbf" stroke="black" points="159,-27.5 159,-62.5 282,-62.5 282,-27.5 159,-27.5"/>
<text text-anchor="start" x="167" y="-52.1" font-family="Helvetica,sans-Serif" font-size="8.00">ipc::transport::sync</text>
<text text-anchor="start" x="167" y="-43.1" font-family="Helvetica,sans-Serif" font-size="8.00">_io::Native_socket_stream</text>
<text text-anchor="middle" x="220.5" y="-34.1" font-family="Helvetica,sans-Serif" font-size="8.00">::sync_connect</text>
</a>
</g>
</g>
<!-- Node2 -->
<g id="node2" class="node">
<title>Node2</title>
<g id="a_node2"><a xlink:href="classipc_1_1session_1_1Client__session__impl.html#a56c0d2b0ff082d1f7b0738e2528b4a92" target="_top" xlink:title="Core implementation of sync_connect().">
<polygon fill="white" stroke="black" points="10,-54.5 10,-89.5 113,-89.5 113,-54.5 10,-54.5"/>
<text text-anchor="start" x="18" y="-79.1" font-family="Helvetica,sans-Serif" font-size="8.00">ipc::session::Client</text>
<text text-anchor="start" x="18" y="-70.1" font-family="Helvetica,sans-Serif" font-size="8.00">_session_impl::async</text>
<text text-anchor="middle" x="61.5" y="-61.1" font-family="Helvetica,sans-Serif" font-size="8.00">_connect</text>
</a>
</g>
</g>
<!-- Node1&#45;&gt;Node2 -->
<g id="edge1" class="edge">
<title>Node1&#45;&gt;Node2</title>
<path fill="none" stroke="midnightblue" d="M148.78,-57.16C136.76,-59.23 124.49,-61.34 113.11,-63.3"/>
<polygon fill="midnightblue" stroke="midnightblue" points="149.54,-60.58 158.8,-55.44 148.35,-53.68 149.54,-60.58"/>
</g>
<!-- Node3 -->
<g id="node3" class="node">
<title>Node3</title>
<g id="a_node3"><a xlink:href="classipc_1_1transport_1_1sync__io_1_1Native__socket__stream_1_1Impl.html#a3c5187e34876a0419ff70734ec0fbf14" target="_top" xlink:title="See Native_socket_stream counterpart.">
<polygon fill="white" stroke="black" points="0,-0.5 0,-35.5 123,-35.5 123,-0.5 0,-0.5"/>
<text text-anchor="start" x="8" y="-25.1" font-family="Helvetica,sans-Serif" font-size="8.00">ipc::transport::sync</text>
<text text-anchor="start" x="8" y="-16.1" font-family="Helvetica,sans-Serif" font-size="8.00">_io::Native_socket_stream</text>
<text text-anchor="middle" x="61.5" y="-7.1" font-family="Helvetica,sans-Serif" font-size="8.00">::Impl::sync_connect</text>
</a>
</g>
</g>
<!-- Node1&#45;&gt;Node3 -->
<g id="edge2" class="edge">
<title>Node1&#45;&gt;Node3</title>
<path fill="none" stroke="midnightblue" d="M148.79,-32.84C140.19,-31.36 131.47,-29.86 123.04,-28.41"/>
<polygon fill="midnightblue" stroke="midnightblue" points="148.35,-36.32 158.8,-34.56 149.54,-29.42 148.35,-36.32"/>
</g>
</g>
</svg>
