<?xml version="1.0" encoding="UTF-8" standalone="no"?>
<!DOCTYPE svg PUBLIC "-//W3C//DTD SVG 1.1//EN"
 "http://www.w3.org/Graphics/SVG/1.1/DTD/svg11.dtd">
<!-- Generated by graphviz version 2.43.0 (0)
 -->
<!-- Title: ipc::session::shm::arena_lend::jemalloc::Client_session_impl::cleanup Pages: 1 -->
<svg width="442pt" height="119pt"
 viewBox="0.00 0.00 442.00 119.00" xmlns="http://www.w3.org/2000/svg" xmlns:xlink="http://www.w3.org/1999/xlink">
<g id="graph0" class="graph" transform="scale(1 1) rotate(0) translate(4 115)">
<title>ipc::session::shm::arena_lend::jemalloc::Client_session_impl::cleanup</title>
<polygon fill="white" stroke="transparent" points="-4,4 -4,-115 438,-115 438,4 -4,4"/>
<!-- Node1 -->
<g id="node1" class="node">
<title>Node1</title>
<g id="a_node1"><a xlink:title="Invoked on m_async_cleanup_worker, performs a round of the SHM&#45;pool cleanup algorithm and schedules s...">
<polygon fill="#bfbfbf" stroke="black" points="0,-33.5 0,-77.5 103,-77.5 103,-33.5 0,-33.5"/>
<text text-anchor="start" x="8" y="-67.1" font-family="Helvetica,sans-Serif" font-size="8.00">ipc::session::shm::</text>
<text text-anchor="start" x="8" y="-58.1" font-family="Helvetica,sans-Serif" font-size="8.00">arena_lend::jemalloc</text>
<text text-anchor="start" x="8" y="-49.1" font-family="Helvetica,sans-Serif" font-size="8.00">::Client_session_impl</text>
<text text-anchor="middle" x="51.5" y="-40.1" font-family="Helvetica,sans-Serif" font-size="8.00">::cleanup</text>
</a>
</g>
</g>
<!-- Node2 -->
<g id="node2" class="node">
<title>Node2</title>
<g id="a_node2"><a xlink:href="namespaceipc_1_1session.html#ac970e7d7b97c1a9737bd836a6a7f77ec" target="_top" xlink:title="Decomposes a Shared_name built as&#45;if by build_conventional_shared_name() overload 1 (non&#45;global&#45;scope...">
<polygon fill="white" stroke="black" points="139,-84.5 139,-110.5 272,-110.5 272,-84.5 139,-84.5"/>
<text text-anchor="start" x="147" y="-100.1" font-family="Helvetica,sans-Serif" font-size="8.00">ipc::session::decompose</text>
<text text-anchor="middle" x="205.5" y="-91.1" font-family="Helvetica,sans-Serif" font-size="8.00">_conventional_shared_name</text>
</a>
</g>
</g>
<!-- Node1&#45;&gt;Node2 -->
<g id="edge1" class="edge">
<title>Node1&#45;&gt;Node2</title>
<path fill="none" stroke="midnightblue" d="M103.11,-69.49C117.36,-73.42 132.95,-77.73 147.53,-81.76"/>
<polygon fill="midnightblue" stroke="midnightblue" points="146.87,-85.21 157.45,-84.5 148.74,-78.46 146.87,-85.21"/>
</g>
<!-- Node4 -->
<g id="node4" class="node">
<title>Node4</title>
<g id="a_node4"><a xlink:href="classipc_1_1util_1_1Shared__name.html#ae89e1e061f87ffe0288514e254837595" target="_top" xlink:title="Returns (sans copying) ref to immutable entire wrapped name string, suitable to pass into sys calls w...">
<polygon fill="white" stroke="black" points="308,-50 308,-67 434,-67 434,-50 308,-50"/>
<text text-anchor="middle" x="371" y="-56.6" font-family="Helvetica,sans-Serif" font-size="8.00">ipc::util::Shared_name::str</text>
</a>
</g>
</g>
<!-- Node1&#45;&gt;Node4 -->
<g id="edge5" class="edge">
<title>Node1&#45;&gt;Node4</title>
<path fill="none" stroke="midnightblue" d="M103.16,-55.98C155.71,-56.48 238.34,-57.26 297.73,-57.82"/>
<polygon fill="midnightblue" stroke="midnightblue" points="297.77,-61.32 307.8,-57.91 297.83,-54.32 297.77,-61.32"/>
</g>
<!-- Node5 -->
<g id="node5" class="node">
<title>Node5</title>
<g id="a_node5"><a xlink:href="namespaceipc_1_1util.html#a924cd56daf7eeaa0b07edb352367f9ec" target="_top" xlink:title="Returns true if and only if the given process (by PID) is reported as running by the OS.">
<polygon fill="white" stroke="black" points="162.5,-0.5 162.5,-26.5 248.5,-26.5 248.5,-0.5 162.5,-0.5"/>
<text text-anchor="start" x="170.5" y="-16.1" font-family="Helvetica,sans-Serif" font-size="8.00">ipc::util::process</text>
<text text-anchor="middle" x="205.5" y="-7.1" font-family="Helvetica,sans-Serif" font-size="8.00">_running</text>
</a>
</g>
</g>
<!-- Node1&#45;&gt;Node5 -->
<g id="edge4" class="edge">
<title>Node1&#45;&gt;Node5</title>
<path fill="none" stroke="midnightblue" d="M103.11,-41.51C118.99,-37.13 136.54,-32.28 152.51,-27.87"/>
<polygon fill="midnightblue" stroke="midnightblue" points="153.51,-31.22 162.22,-25.18 151.65,-24.47 153.51,-31.22"/>
</g>
<!-- Node3 -->
<g id="node3" class="node">
<title>Node3</title>
<g id="a_node3"><a xlink:href="classipc_1_1util_1_1Shared__name.html#a48f20b7b54490aa10dc64081d34c55b2" target="_top" xlink:title="Copy&#45;constructs from a char&#45;sequence container (including string, util::String_view,...">
<polygon fill="white" stroke="black" points="309.5,-89 309.5,-106 432.5,-106 432.5,-89 309.5,-89"/>
<text text-anchor="middle" x="371" y="-95.6" font-family="Helvetica,sans-Serif" font-size="8.00">ipc::util::Shared_name::ct</text>
</a>
</g>
</g>
<!-- Node2&#45;&gt;Node3 -->
<g id="edge2" class="edge">
<title>Node2&#45;&gt;Node3</title>
<path fill="none" stroke="midnightblue" d="M272.06,-97.5C281.03,-97.5 290.28,-97.5 299.33,-97.5"/>
<polygon fill="midnightblue" stroke="midnightblue" points="299.46,-101 309.46,-97.5 299.46,-94 299.46,-101"/>
</g>
<!-- Node2&#45;&gt;Node4 -->
<g id="edge3" class="edge">
<title>Node2&#45;&gt;Node4</title>
<path fill="none" stroke="midnightblue" d="M261.4,-84.41C281.78,-79.54 304.67,-74.08 324.16,-69.44"/>
<polygon fill="midnightblue" stroke="midnightblue" points="325.09,-72.81 334.01,-67.09 323.47,-66 325.09,-72.81"/>
</g>
</g>
</svg>
