<?xml version="1.0" encoding="UTF-8" standalone="no"?>
<!DOCTYPE svg PUBLIC "-//W3C//DTD SVG 1.1//EN"
 "http://www.w3.org/Graphics/SVG/1.1/DTD/svg11.dtd">
<!-- Generated by graphviz version 2.43.0 (0)
 -->
<!-- Title: ipc::session::Server_session_impl::dtor_async_worker_stop Pages: 1 -->
<svg width="283pt" height="44pt"
 viewBox="0.00 0.00 283.00 44.00" xmlns="http://www.w3.org/2000/svg" xmlns:xlink="http://www.w3.org/1999/xlink">
<g id="graph0" class="graph" transform="scale(1 1) rotate(0) translate(4 40)">
<title>ipc::session::Server_session_impl::dtor_async_worker_stop</title>
<polygon fill="white" stroke="transparent" points="-4,4 -4,-40 279,-40 279,4 -4,4"/>
<!-- Node1 -->
<g id="node1" class="node">
<title>Node1</title>
<g id="a_node1"><a xlink:title="Analogous to Client_session_impl::dtor_async_worker_stop(). See that doc header.">
<polygon fill="#bfbfbf" stroke="black" points="0,-0.5 0,-35.5 123,-35.5 123,-0.5 0,-0.5"/>
<text text-anchor="start" x="8" y="-25.1" font-family="Helvetica,sans-Serif" font-size="8.00">ipc::session::Server</text>
<text text-anchor="start" x="8" y="-16.1" font-family="Helvetica,sans-Serif" font-size="8.00">_session_impl::dtor_async</text>
<text text-anchor="middle" x="61.5" y="-7.1" font-family="Helvetica,sans-Serif" font-size="8.00">_worker_stop</text>
</a>
</g>
</g>
<!-- Node2 -->
<g id="node2" class="node">
<title>Node2</title>
<g id="a_node2"><a xlink:href="classipc_1_1session_1_1Session__base_1_1Graceful__finisher.html#af441f45ce1ed7b890c3ab77d959f8830" target="_top" xlink:title="The reason Graceful_finisher exists, this method must be called at the start of *_session_impl dtor; ...">
<polygon fill="white" stroke="black" points="159,-0.5 159,-35.5 275,-35.5 275,-0.5 159,-0.5"/>
<text text-anchor="start" x="167" y="-25.1" font-family="Helvetica,sans-Serif" font-size="8.00">ipc::session::Session</text>
<text text-anchor="start" x="167" y="-16.1" font-family="Helvetica,sans-Serif" font-size="8.00">_base::Graceful_finisher</text>
<text text-anchor="middle" x="217" y="-7.1" font-family="Helvetica,sans-Serif" font-size="8.00">::on_dtor_start</text>
</a>
</g>
</g>
<!-- Node1&#45;&gt;Node2 -->
<g id="edge1" class="edge">
<title>Node1&#45;&gt;Node2</title>
<path fill="none" stroke="midnightblue" d="M123.17,-18C131.51,-18 140.11,-18 148.57,-18"/>
<polygon fill="midnightblue" stroke="midnightblue" points="148.77,-21.5 158.77,-18 148.77,-14.5 148.77,-21.5"/>
</g>
</g>
</svg>
