<?xml version="1.0" encoding="UTF-8" standalone="no"?>
<!DOCTYPE svg PUBLIC "-//W3C//DTD SVG 1.1//EN"
 "http://www.w3.org/Graphics/SVG/1.1/DTD/svg11.dtd">
<!-- Generated by graphviz version 2.43.0 (0)
 -->
<!-- Title: ipc::util::Process_credentials::process_id Pages: 1 -->
<svg width="281pt" height="153pt"
 viewBox="0.00 0.00 281.00 152.50" xmlns="http://www.w3.org/2000/svg" xmlns:xlink="http://www.w3.org/1999/xlink">
<g id="graph0" class="graph" transform="scale(1 1) rotate(0) translate(4 148.5)">
<title>ipc::util::Process_credentials::process_id</title>
<polygon fill="white" stroke="transparent" points="-4,4 -4,-148.5 277,-148.5 277,4 -4,4"/>
<!-- Node1 -->
<g id="node1" class="node">
<title>Node1</title>
<g id="a_node1"><a xlink:title="The process ID (PID).">
<polygon fill="#bfbfbf" stroke="black" points="157,-73 157,-99 273,-99 273,-73 157,-73"/>
<text text-anchor="start" x="165" y="-88.6" font-family="Helvetica,sans-Serif" font-size="8.00">ipc::util::Process</text>
<text text-anchor="middle" x="215" y="-79.6" font-family="Helvetica,sans-Serif" font-size="8.00">_credentials::process_id</text>
</a>
</g>
</g>
<!-- Node2 -->
<g id="node2" class="node">
<title>Node2</title>
<g id="a_node2"><a xlink:href="classipc_1_1util_1_1Process__credentials.html#a9da92514406dc1fc61f5a561c9b5aee9" target="_top" xlink:title="Prints string representation of the given util::Process_credentials to the given ostream.">
<polygon fill="white" stroke="black" points="0,-118 0,-144 121,-144 121,-118 0,-118"/>
<text text-anchor="start" x="8" y="-133.6" font-family="Helvetica,sans-Serif" font-size="8.00">ipc::util::Process</text>
<text text-anchor="middle" x="60.5" y="-124.6" font-family="Helvetica,sans-Serif" font-size="8.00">_credentials::operator&lt;&lt;</text>
</a>
</g>
</g>
<!-- Node1&#45;&gt;Node2 -->
<g id="edge1" class="edge">
<title>Node1&#45;&gt;Node2</title>
<path fill="none" stroke="midnightblue" d="M160.21,-101.87C142.4,-107.13 122.79,-112.92 105.77,-117.94"/>
<polygon fill="midnightblue" stroke="midnightblue" points="161.29,-105.2 169.89,-99.02 159.31,-98.49 161.29,-105.2"/>
</g>
<!-- Node3 -->
<g id="node3" class="node">
<title>Node3</title>
<g id="a_node3"><a xlink:href="classipc_1_1util_1_1Process__credentials.html#a4ccdab04a79159f82d7ade8136a2eeb2" target="_top" xlink:title="Checks for by&#45;value equality between two Process_credentials objects.">
<polygon fill="white" stroke="black" points="0,-73 0,-99 121,-99 121,-73 0,-73"/>
<text text-anchor="start" x="8" y="-88.6" font-family="Helvetica,sans-Serif" font-size="8.00">ipc::util::Process</text>
<text text-anchor="middle" x="60.5" y="-79.6" font-family="Helvetica,sans-Serif" font-size="8.00">_credentials::operator==</text>
</a>
</g>
</g>
<!-- Node1&#45;&gt;Node3 -->
<g id="edge2" class="edge">
<title>Node1&#45;&gt;Node3</title>
<path fill="none" stroke="midnightblue" d="M146.54,-86C138.05,-86 129.43,-86 121.08,-86"/>
<polygon fill="midnightblue" stroke="midnightblue" points="146.78,-89.5 156.78,-86 146.78,-82.5 146.78,-89.5"/>
</g>
<!-- Node4 -->
<g id="node4" class="node">
<title>Node4</title>
<g id="a_node4"><a xlink:href="classipc_1_1util_1_1Process__credentials.html#ae4f156cfdfe0c8c5702890e5c1a37cdf" target="_top" xlink:title="Obtains, from the OS, information as to the binary name via which process process_id() was started,...">
<polygon fill="white" stroke="black" points="8.5,-0.5 8.5,-35.5 112.5,-35.5 112.5,-0.5 8.5,-0.5"/>
<text text-anchor="start" x="16.5" y="-25.1" font-family="Helvetica,sans-Serif" font-size="8.00">ipc::util::Process</text>
<text text-anchor="start" x="16.5" y="-16.1" font-family="Helvetica,sans-Serif" font-size="8.00">_credentials::process</text>
<text text-anchor="middle" x="60.5" y="-7.1" font-family="Helvetica,sans-Serif" font-size="8.00">_invoked_as</text>
</a>
</g>
</g>
<!-- Node1&#45;&gt;Node4 -->
<g id="edge3" class="edge">
<title>Node1&#45;&gt;Node4</title>
<path fill="none" stroke="midnightblue" d="M175.24,-68.72C152.48,-58.57 123.78,-45.77 100.91,-35.57"/>
<polygon fill="midnightblue" stroke="midnightblue" points="174.04,-72.01 184.6,-72.89 176.89,-65.62 174.04,-72.01"/>
</g>
<!-- Node4&#45;&gt;Node4 -->
<g id="edge4" class="edge">
<title>Node4&#45;&gt;Node4</title>
<path fill="none" stroke="midnightblue" d="M87.32,-46.1C83.55,-50.77 74.61,-54 60.5,-54 37.34,-54 28.11,-45.31 32.82,-35.78"/>
<polygon fill="midnightblue" stroke="midnightblue" points="90.84,-46.04 88.18,-35.78 83.86,-45.45 90.84,-46.04"/>
</g>
</g>
</svg>
