<?xml version="1.0" encoding="UTF-8" standalone="no"?>
<!DOCTYPE svg PUBLIC "-//W3C//DTD SVG 1.1//EN"
 "http://www.w3.org/Graphics/SVG/1.1/DTD/svg11.dtd">
<!-- Generated by graphviz version 2.43.0 (0)
 -->
<!-- Title: ipc::transport::Native_socket_stream_acceptor::async_accept Pages: 1 -->
<svg width="451pt" height="108pt"
 viewBox="0.00 0.00 451.00 107.50" xmlns="http://www.w3.org/2000/svg" xmlns:xlink="http://www.w3.org/1999/xlink">
<g id="graph0" class="graph" transform="scale(1 1) rotate(0) translate(4 103.5)">
<title>ipc::transport::Native_socket_stream_acceptor::async_accept</title>
<polygon fill="white" stroke="transparent" points="-4,4 -4,-103.5 447,-103.5 447,4 -4,4"/>
<!-- Node1 -->
<g id="node1" class="node">
<title>Node1</title>
<g id="a_node1"><a xlink:title="Asynchronously awaits for a peer connection to be established and calls on_done_func(),...">
<polygon fill="#bfbfbf" stroke="black" points="0,-34 0,-69 119,-69 119,-34 0,-34"/>
<text text-anchor="start" x="8" y="-58.6" font-family="Helvetica,sans-Serif" font-size="8.00">ipc::transport::Native</text>
<text text-anchor="start" x="8" y="-49.6" font-family="Helvetica,sans-Serif" font-size="8.00">_socket_stream_acceptor</text>
<text text-anchor="middle" x="59.5" y="-40.6" font-family="Helvetica,sans-Serif" font-size="8.00">::async_accept</text>
</a>
</g>
</g>
<!-- Node2 -->
<g id="node2" class="node">
<title>Node2</title>
<g id="a_node2"><a xlink:href="classipc_1_1transport_1_1Native__socket__stream__acceptor.html#a2063fff89b58cc5b07ee7651f9e42366" target="_top" xlink:title="Non&#45;template impl of async_accept().">
<polygon fill="white" stroke="black" points="155,-34 155,-69 274,-69 274,-34 155,-34"/>
<text text-anchor="start" x="163" y="-58.6" font-family="Helvetica,sans-Serif" font-size="8.00">ipc::transport::Native</text>
<text text-anchor="start" x="163" y="-49.6" font-family="Helvetica,sans-Serif" font-size="8.00">_socket_stream_acceptor</text>
<text text-anchor="middle" x="214.5" y="-40.6" font-family="Helvetica,sans-Serif" font-size="8.00">::async_accept_impl</text>
</a>
</g>
</g>
<!-- Node1&#45;&gt;Node2 -->
<g id="edge1" class="edge">
<title>Node1&#45;&gt;Node2</title>
<path fill="none" stroke="midnightblue" d="M119.22,-51.5C127.54,-51.5 136.17,-51.5 144.67,-51.5"/>
<polygon fill="midnightblue" stroke="midnightblue" points="144.94,-55 154.94,-51.5 144.94,-48 144.94,-55"/>
</g>
<!-- Node3 -->
<g id="node3" class="node">
<title>Node3</title>
<g id="a_node3"><a xlink:href="classipc_1_1transport_1_1Native__socket__stream__acceptor.html#a8ff2e85b30532cb9778aa43c01931955" target="_top" xlink:title="In thread W, gets back to steady state by feeding the given Error_code (which must be the sole elemen...">
<polygon fill="white" stroke="black" points="310,-64 310,-99 443,-99 443,-64 310,-64"/>
<text text-anchor="start" x="318" y="-88.6" font-family="Helvetica,sans-Serif" font-size="8.00">ipc::transport::Native</text>
<text text-anchor="start" x="318" y="-79.6" font-family="Helvetica,sans-Serif" font-size="8.00">_socket_stream_acceptor</text>
<text text-anchor="middle" x="376.5" y="-70.6" font-family="Helvetica,sans-Serif" font-size="8.00">::feed_error_result_to_deficit</text>
</a>
</g>
</g>
<!-- Node2&#45;&gt;Node3 -->
<g id="edge2" class="edge">
<title>Node2&#45;&gt;Node3</title>
<path fill="none" stroke="midnightblue" d="M274.17,-62.5C282.5,-64.06 291.17,-65.69 299.77,-67.3"/>
<polygon fill="midnightblue" stroke="midnightblue" points="299.34,-70.78 309.81,-69.18 300.63,-63.9 299.34,-70.78"/>
</g>
<!-- Node4 -->
<g id="node4" class="node">
<title>Node4</title>
<g id="a_node4"><a xlink:href="classipc_1_1transport_1_1Native__socket__stream__acceptor.html#af1ca26531b9dd649046086e4e17f0ba3" target="_top" xlink:title="In thread W, gets back to steady state by feeding the given just&#45;connected peer socket (which must ha...">
<polygon fill="white" stroke="black" points="317,-0.5 317,-44.5 436,-44.5 436,-0.5 317,-0.5"/>
<text text-anchor="start" x="325" y="-34.1" font-family="Helvetica,sans-Serif" font-size="8.00">ipc::transport::Native</text>
<text text-anchor="start" x="325" y="-25.1" font-family="Helvetica,sans-Serif" font-size="8.00">_socket_stream_acceptor</text>
<text text-anchor="start" x="325" y="-16.1" font-family="Helvetica,sans-Serif" font-size="8.00">::feed_success_result_to</text>
<text text-anchor="middle" x="376.5" y="-7.1" font-family="Helvetica,sans-Serif" font-size="8.00">_deficit</text>
</a>
</g>
</g>
<!-- Node2&#45;&gt;Node4 -->
<g id="edge3" class="edge">
<title>Node2&#45;&gt;Node4</title>
<path fill="none" stroke="midnightblue" d="M274.17,-40.87C284.82,-38.94 296.02,-36.91 306.93,-34.93"/>
<polygon fill="midnightblue" stroke="midnightblue" points="307.62,-38.36 316.84,-33.13 306.37,-31.47 307.62,-38.36"/>
</g>
</g>
</svg>
