<?xml version="1.0" encoding="UTF-8" standalone="no"?>
<!DOCTYPE svg PUBLIC "-//W3C//DTD SVG 1.1//EN"
 "http://www.w3.org/Graphics/SVG/1.1/DTD/svg11.dtd">
<!-- Generated by graphviz version 2.43.0 (0)
 -->
<!-- Title: ipc::util::sync_io::Asio_waitable_native_handle::Asio_waitable_native_handle Pages: 1 -->
<svg width="267pt" height="53pt"
 viewBox="0.00 0.00 267.00 53.00" xmlns="http://www.w3.org/2000/svg" xmlns:xlink="http://www.w3.org/1999/xlink">
<g id="graph0" class="graph" transform="scale(1 1) rotate(0) translate(4 49)">
<title>ipc::util::sync_io::Asio_waitable_native_handle::Asio_waitable_native_handle</title>
<polygon fill="white" stroke="transparent" points="-4,4 -4,-49 263,-49 263,4 -4,4"/>
<!-- Node1 -->
<g id="node1" class="node">
<title>Node1</title>
<g id="a_node1"><a xlink:title="Construct boost.asio descriptor object such that one can async_wait() events on the given non&#45;....">
<polygon fill="#bfbfbf" stroke="black" points="0,-0.5 0,-44.5 111,-44.5 111,-0.5 0,-0.5"/>
<text text-anchor="start" x="8" y="-34.1" font-family="Helvetica,sans-Serif" font-size="8.00">ipc::util::sync_io</text>
<text text-anchor="start" x="8" y="-25.1" font-family="Helvetica,sans-Serif" font-size="8.00">::Asio_waitable_native</text>
<text text-anchor="start" x="8" y="-16.1" font-family="Helvetica,sans-Serif" font-size="8.00">_handle::Asio_waitable</text>
<text text-anchor="middle" x="55.5" y="-7.1" font-family="Helvetica,sans-Serif" font-size="8.00">_native_handle</text>
</a>
</g>
</g>
<!-- Node2 -->
<g id="node2" class="node">
<title>Node2</title>
<g id="a_node2"><a xlink:href="structipc_1_1util_1_1Native__handle.html#a11bd62ce0a7bef4bdfe666201c26d4dc" target="_top" xlink:title="Returns true if and only if m_native_handle equals S_NULL_HANDLE.">
<polygon fill="white" stroke="black" points="147,-9.5 147,-35.5 259,-35.5 259,-9.5 147,-9.5"/>
<text text-anchor="start" x="155" y="-25.1" font-family="Helvetica,sans-Serif" font-size="8.00">ipc::util::Native_handle</text>
<text text-anchor="middle" x="203" y="-16.1" font-family="Helvetica,sans-Serif" font-size="8.00">::null</text>
</a>
</g>
</g>
<!-- Node1&#45;&gt;Node2 -->
<g id="edge1" class="edge">
<title>Node1&#45;&gt;Node2</title>
<path fill="none" stroke="midnightblue" d="M111.09,-22.5C119.35,-22.5 127.94,-22.5 136.39,-22.5"/>
<polygon fill="midnightblue" stroke="midnightblue" points="136.62,-26 146.62,-22.5 136.62,-19 136.62,-26"/>
</g>
</g>
</svg>
