<?xml version="1.0" encoding="UTF-8" standalone="no"?>
<!DOCTYPE svg PUBLIC "-//W3C//DTD SVG 1.1//EN"
 "http://www.w3.org/Graphics/SVG/1.1/DTD/svg11.dtd">
<!-- Generated by graphviz version 2.43.0 (0)
 -->
<!-- Title: ipc::transport::Channel::async_io_obj Pages: 1 -->
<svg width="275pt" height="125pt"
 viewBox="0.00 0.00 275.00 125.00" xmlns="http://www.w3.org/2000/svg" xmlns:xlink="http://www.w3.org/1999/xlink">
<g id="graph0" class="graph" transform="scale(1 1) rotate(0) translate(4 121)">
<title>ipc::transport::Channel::async_io_obj</title>
<polygon fill="white" stroke="transparent" points="-4,4 -4,-121 271,-121 271,4 -4,4"/>
<!-- Node1 -->
<g id="node1" class="node">
<title>Node1</title>
<g id="a_node1"><a xlink:title="Converts a sync_io&#45;peer&#45;bearing *this to a returned async&#45;I/O&#45;peer&#45;bearing new Channel,...">
<polygon fill="#bfbfbf" stroke="black" points="0,-45.5 0,-71.5 112,-71.5 112,-45.5 0,-45.5"/>
<text text-anchor="start" x="8" y="-61.1" font-family="Helvetica,sans-Serif" font-size="8.00">ipc::transport::Channel</text>
<text text-anchor="middle" x="56" y="-52.1" font-family="Helvetica,sans-Serif" font-size="8.00">::async_io_obj</text>
</a>
</g>
</g>
<!-- Node2 -->
<g id="node2" class="node">
<title>Node2</title>
<g id="a_node2"><a xlink:href="classipc_1_1transport_1_1Channel.html#aa8209a5adde4e5c2b3b1d8779fab0433" target="_top" xlink:title="Completes initialization of the blobs pipe by taking ownership (via move semantics) of an object that...">
<polygon fill="white" stroke="black" points="151.5,-90.5 151.5,-116.5 263.5,-116.5 263.5,-90.5 151.5,-90.5"/>
<text text-anchor="start" x="159.5" y="-106.1" font-family="Helvetica,sans-Serif" font-size="8.00">ipc::transport::Channel</text>
<text text-anchor="middle" x="207.5" y="-97.1" font-family="Helvetica,sans-Serif" font-size="8.00">::init_blob_pipe</text>
</a>
</g>
</g>
<!-- Node1&#45;&gt;Node2 -->
<g id="edge1" class="edge">
<title>Node1&#45;&gt;Node2</title>
<path fill="none" stroke="midnightblue" d="M100.24,-71.52C116.75,-76.48 135.77,-82.21 153.11,-87.43"/>
<polygon fill="midnightblue" stroke="midnightblue" points="152.51,-90.9 163.1,-90.44 154.53,-84.2 152.51,-90.9"/>
</g>
<!-- Node3 -->
<g id="node3" class="node">
<title>Node3</title>
<g id="a_node3"><a xlink:href="classipc_1_1transport_1_1Channel.html#a0e0e396759dab8c0930594eac3bb03ba" target="_top" xlink:title="Analogous to 1&#45;arg init_blob_pipe() but as applied to the handles pipe.">
<polygon fill="white" stroke="black" points="148,-45.5 148,-71.5 267,-71.5 267,-45.5 148,-45.5"/>
<text text-anchor="start" x="156" y="-61.1" font-family="Helvetica,sans-Serif" font-size="8.00">ipc::transport::Channel</text>
<text text-anchor="middle" x="207.5" y="-52.1" font-family="Helvetica,sans-Serif" font-size="8.00">::init_native_handle_pipe</text>
</a>
</g>
</g>
<!-- Node1&#45;&gt;Node3 -->
<g id="edge2" class="edge">
<title>Node1&#45;&gt;Node3</title>
<path fill="none" stroke="midnightblue" d="M112.24,-58.5C120.61,-58.5 129.33,-58.5 137.94,-58.5"/>
<polygon fill="midnightblue" stroke="midnightblue" points="137.97,-62 147.97,-58.5 137.97,-55 137.97,-62"/>
</g>
<!-- Node4 -->
<g id="node4" class="node">
<title>Node4</title>
<g id="a_node4"><a xlink:href="classipc_1_1transport_1_1Channel.html#a43c79955b3ad0eab347550b4263523ec" target="_top" xlink:title="Returns true if and only if the required init_blob_pipe() and init_native_handle_pipe() calls have be...">
<polygon fill="white" stroke="black" points="151.5,-0.5 151.5,-26.5 263.5,-26.5 263.5,-0.5 151.5,-0.5"/>
<text text-anchor="start" x="159.5" y="-16.1" font-family="Helvetica,sans-Serif" font-size="8.00">ipc::transport::Channel</text>
<text text-anchor="middle" x="207.5" y="-7.1" font-family="Helvetica,sans-Serif" font-size="8.00">::initialized</text>
</a>
</g>
</g>
<!-- Node1&#45;&gt;Node4 -->
<g id="edge3" class="edge">
<title>Node1&#45;&gt;Node4</title>
<path fill="none" stroke="midnightblue" d="M100.24,-45.48C116.75,-40.52 135.77,-34.79 153.11,-29.57"/>
<polygon fill="midnightblue" stroke="midnightblue" points="154.53,-32.8 163.1,-26.56 152.51,-26.1 154.53,-32.8"/>
</g>
</g>
</svg>
