<?xml version="1.0" encoding="UTF-8" standalone="no"?>
<!DOCTYPE svg PUBLIC "-//W3C//DTD SVG 1.1//EN"
 "http://www.w3.org/Graphics/SVG/1.1/DTD/svg11.dtd">
<!-- Generated by graphviz version 2.43.0 (0)
 -->
<!-- Title: ipc::session::Client_session_impl&lt; S_MQ_TYPE_OR_NONE, S_TRANSMIT_NATIVE_HANDLES, Mdt_payload, S_SHM_TYPE_OR_NONE &gt; Pages: 1 -->
<svg width="1416pt" height="649pt"
 viewBox="0.00 0.00 1416.00 648.59" xmlns="http://www.w3.org/2000/svg" xmlns:xlink="http://www.w3.org/1999/xlink">
<g id="graph0" class="graph" transform="scale(1 1) rotate(0) translate(4 644.59)">
<title>ipc::session::Client_session_impl&lt; S_MQ_TYPE_OR_NONE, S_TRANSMIT_NATIVE_HANDLES, Mdt_payload, S_SHM_TYPE_OR_NONE &gt;</title>
<polygon fill="white" stroke="transparent" points="-4,4 -4,-644.59 1412,-644.59 1412,4 -4,4"/>
<!-- Node1 -->
<g id="node1" class="node">
<title>Node1</title>
<g id="a_node1"><a xlink:title="Internal, non&#45;movable pImpl&#45;lite implementation of Client_session_mv class template.">
<polygon fill="#bfbfbf" stroke="black" points="1262,-143.5 1262,-196.5 1408,-196.5 1408,-143.5 1262,-143.5"/>
<text text-anchor="start" x="1270" y="-186.1" font-family="Helvetica,sans-Serif" font-size="8.00">ipc::session::Client</text>
<text text-anchor="start" x="1270" y="-177.1" font-family="Helvetica,sans-Serif" font-size="8.00">_session_impl&lt; S_MQ_TYPE</text>
<text text-anchor="start" x="1270" y="-168.1" font-family="Helvetica,sans-Serif" font-size="8.00">_OR_NONE, S_TRANSMIT_NATIVE</text>
<text text-anchor="start" x="1270" y="-159.1" font-family="Helvetica,sans-Serif" font-size="8.00">_HANDLES, Mdt_payload, S_SHM</text>
<text text-anchor="middle" x="1335" y="-150.1" font-family="Helvetica,sans-Serif" font-size="8.00">_TYPE_OR_NONE &gt;</text>
</a>
</g>
</g>
<!-- Node2 -->
<g id="node2" class="node">
<title>Node2</title>
<g id="a_node2"><a xlink:href="classipc_1_1session_1_1Session__base.html" target="_top" xlink:title="Internal type containing data and types common to internal types Server_session_impl and Client_sessi...">
<polygon fill="white" stroke="black" points="976,-389 976,-433 1122,-433 1122,-389 976,-389"/>
<text text-anchor="start" x="984" y="-422.6" font-family="Helvetica,sans-Serif" font-size="8.00">ipc::session::Session</text>
<text text-anchor="start" x="984" y="-413.6" font-family="Helvetica,sans-Serif" font-size="8.00">_base&lt; S_MQ_TYPE_OR_NONE,</text>
<text text-anchor="start" x="984" y="-404.6" font-family="Helvetica,sans-Serif" font-size="8.00"> S_TRANSMIT_NATIVE_HANDLES,</text>
<text text-anchor="middle" x="1049" y="-395.6" font-family="Helvetica,sans-Serif" font-size="8.00"> Mdt_payload &gt;</text>
</a>
</g>
</g>
<!-- Node2&#45;&gt;Node1 -->
<g id="edge1" class="edge">
<title>Node2&#45;&gt;Node1</title>
<path fill="none" stroke="midnightblue" d="M1088.58,-382.83C1128.5,-353.22 1192.15,-304.68 1244,-259 1266.75,-238.95 1291.13,-214.66 1308.77,-196.52"/>
<polygon fill="midnightblue" stroke="midnightblue" points="1086.4,-380.1 1080.44,-388.86 1090.56,-385.73 1086.4,-380.1"/>
</g>
<!-- Node3 -->
<g id="node3" class="node">
<title>Node3</title>
<g id="a_node3"><a xlink:title=" ">
<polygon fill="white" stroke="#bfbfbf" points="689.5,-521.5 689.5,-538.5 788.5,-538.5 788.5,-521.5 689.5,-521.5"/>
<text text-anchor="middle" x="739" y="-528.1" font-family="Helvetica,sans-Serif" font-size="8.00">boost::noncopyable</text>
</a>
</g>
</g>
<!-- Node3&#45;&gt;Node2 -->
<g id="edge2" class="edge">
<title>Node3&#45;&gt;Node2</title>
<path fill="none" stroke="#8b1a1a" d="M798.74,-537.38C844.53,-540.47 908.44,-538.74 958,-514 993.48,-496.29 1020.97,-457.85 1035.8,-433.27"/>
<polygon fill="#8b1a1a" stroke="#8b1a1a" points="798.91,-533.89 788.67,-536.61 798.38,-540.87 798.91,-533.89"/>
</g>
<!-- Node4 -->
<g id="node4" class="node">
<title>Node4</title>
<g id="a_node4"><a xlink:title=" ">
<polygon fill="white" stroke="#bfbfbf" points="688.5,-618.5 688.5,-635.5 789.5,-635.5 789.5,-618.5 688.5,-618.5"/>
<text text-anchor="middle" x="739" y="-625.1" font-family="Helvetica,sans-Serif" font-size="8.00">static constexpr bool</text>
</a>
</g>
</g>
<!-- Node4&#45;&gt;Node1 -->
<g id="edge28" class="edge">
<title>Node4&#45;&gt;Node1</title>
<path fill="none" stroke="#9a32cd" stroke-dasharray="5,2" d="M795.26,-636.85C840.97,-642.4 906.49,-644.21 958,-621 1155.73,-531.9 1284.5,-279.41 1322.36,-196.64"/>
<polygon fill="#9a32cd" stroke="#9a32cd" points="795.62,-633.37 785.25,-635.54 794.71,-640.31 795.62,-633.37"/>
<text text-anchor="middle" x="1049" y="-629.6" font-family="Helvetica,sans-Serif" font-size="8.00"> S_MQS_ENABLED</text>
<text text-anchor="middle" x="1049" y="-620.6" font-family="Helvetica,sans-Serif" font-size="8.00">S_SHM_ENABLED</text>
<text text-anchor="middle" x="1049" y="-611.6" font-family="Helvetica,sans-Serif" font-size="8.00">S_SOCKET_STREAM_ENABLED</text>
</g>
<!-- Node4&#45;&gt;Node2 -->
<g id="edge3" class="edge">
<title>Node4&#45;&gt;Node2</title>
<path fill="none" stroke="#9a32cd" stroke-dasharray="5,2" d="M782.78,-615.88C799.63,-611.64 819.18,-606.9 837,-603 890.48,-591.31 913.92,-612.46 958,-580 1008.06,-543.14 1033.01,-469.96 1042.82,-433.18"/>
<polygon fill="#9a32cd" stroke="#9a32cd" points="781.5,-612.59 772.67,-618.44 783.23,-619.38 781.5,-612.59"/>
<text text-anchor="middle" x="897.5" y="-614.6" font-family="Helvetica,sans-Serif" font-size="8.00"> S_MQS_ENABLED</text>
<text text-anchor="middle" x="897.5" y="-605.6" font-family="Helvetica,sans-Serif" font-size="8.00">S_SOCKET_STREAM_ENABLED</text>
</g>
<!-- Node5 -->
<g id="node5" class="node">
<title>Node5</title>
<g id="a_node5"><a xlink:href="structipc_1_1session_1_1Server__app.html" target="_top" xlink:title="An App that is used as a server in at least one client&#45;server IPC split.">
<polygon fill="white" stroke="black" points="429,-353.5 429,-370.5 547,-370.5 547,-353.5 429,-353.5"/>
<text text-anchor="middle" x="488" y="-360.1" font-family="Helvetica,sans-Serif" font-size="8.00">ipc::session::Server_app</text>
</a>
</g>
</g>
<!-- Node5&#45;&gt;Node2 -->
<g id="edge4" class="edge">
<title>Node5&#45;&gt;Node2</title>
<path fill="none" stroke="#9a32cd" stroke-dasharray="5,2" d="M557.66,-362.38C624.52,-363.29 728.95,-366.18 819,-375 871.77,-380.17 930.88,-389.55 975.82,-397.44"/>
<polygon fill="#9a32cd" stroke="#9a32cd" points="557.3,-358.87 547.26,-362.25 557.22,-365.87 557.3,-358.87"/>
<text text-anchor="middle" x="739" y="-377.6" font-family="Helvetica,sans-Serif" font-size="8.00"> m_srv_app_ref</text>
</g>
<!-- Node6 -->
<g id="node6" class="node">
<title>Node6</title>
<g id="a_node6"><a xlink:href="structipc_1_1session_1_1App.html" target="_top" xlink:title="A description of an application in this ipc::session inter&#45;process communication universe.">
<polygon fill="white" stroke="black" points="197,-397.5 197,-414.5 285,-414.5 285,-397.5 197,-397.5"/>
<text text-anchor="middle" x="241" y="-404.1" font-family="Helvetica,sans-Serif" font-size="8.00">ipc::session::App</text>
</a>
</g>
</g>
<!-- Node6&#45;&gt;Node5 -->
<g id="edge5" class="edge">
<title>Node6&#45;&gt;Node5</title>
<path fill="none" stroke="midnightblue" d="M295.24,-396.44C338.25,-388.72 398.22,-377.94 439.59,-370.51"/>
<polygon fill="midnightblue" stroke="midnightblue" points="294.46,-393.02 285.24,-398.23 295.7,-399.91 294.46,-393.02"/>
</g>
<!-- Node17 -->
<g id="node16" class="node">
<title>Node17</title>
<g id="a_node16"><a xlink:href="structipc_1_1session_1_1Client__app.html" target="_top" xlink:title="An App that is used as a client in at least one client&#45;server IPC split.">
<polygon fill="white" stroke="black" points="430.5,-402.5 430.5,-419.5 545.5,-419.5 545.5,-402.5 430.5,-402.5"/>
<text text-anchor="middle" x="488" y="-409.1" font-family="Helvetica,sans-Serif" font-size="8.00">ipc::session::Client_app</text>
</a>
</g>
</g>
<!-- Node6&#45;&gt;Node17 -->
<g id="edge17" class="edge">
<title>Node6&#45;&gt;Node17</title>
<path fill="none" stroke="midnightblue" d="M295.31,-407.09C335.21,-407.9 389.7,-409.01 430.38,-409.84"/>
<polygon fill="midnightblue" stroke="midnightblue" points="295.31,-403.59 285.24,-406.88 295.16,-410.59 295.31,-403.59"/>
</g>
<!-- Node7 -->
<g id="node7" class="node">
<title>Node7</title>
<g id="a_node7"><a xlink:title=" ">
<polygon fill="white" stroke="red" points="12.5,-448.5 12.5,-465.5 71.5,-465.5 71.5,-448.5 12.5,-448.5"/>
<text text-anchor="middle" x="42" y="-455.1" font-family="Helvetica,sans-Serif" font-size="8.00">std::string</text>
</a>
</g>
</g>
<!-- Node7&#45;&gt;Node6 -->
<g id="edge6" class="edge">
<title>Node7&#45;&gt;Node6</title>
<path fill="none" stroke="#9a32cd" stroke-dasharray="5,2" d="M81.45,-447.05C118.01,-437.58 172.42,-423.5 207.04,-414.53"/>
<polygon fill="#9a32cd" stroke="#9a32cd" points="80.45,-443.69 71.65,-449.58 82.2,-450.47 80.45,-443.69"/>
<text text-anchor="middle" x="135" y="-442.6" font-family="Helvetica,sans-Serif" font-size="8.00"> m_name</text>
</g>
<!-- Node18 -->
<g id="node17" class="node">
<title>Node18</title>
<g id="a_node17"><a xlink:href="classipc_1_1util_1_1Shared__name.html" target="_top" xlink:title="String&#45;wrapping abstraction representing a name uniquely distinguishing a kernel&#45;persistent entity fr...">
<polygon fill="white" stroke="black" points="186,-480.5 186,-497.5 296,-497.5 296,-480.5 186,-480.5"/>
<text text-anchor="middle" x="241" y="-487.1" font-family="Helvetica,sans-Serif" font-size="8.00">ipc::util::Shared_name</text>
</a>
</g>
</g>
<!-- Node7&#45;&gt;Node18 -->
<g id="edge22" class="edge">
<title>Node7&#45;&gt;Node18</title>
<path fill="none" stroke="#9a32cd" stroke-dasharray="5,2" d="M81.81,-463.3C112.05,-468.22 154.36,-475.09 187.61,-480.49"/>
<polygon fill="#9a32cd" stroke="#9a32cd" points="82.08,-459.8 71.65,-461.65 80.95,-466.71 82.08,-459.8"/>
<text text-anchor="middle" x="135" y="-478.6" font-family="Helvetica,sans-Serif" font-size="8.00"> m_raw_name</text>
</g>
<!-- Node9 -->
<g id="node8" class="node">
<title>Node9</title>
<g id="a_node8"><a xlink:title=" ">
<polygon fill="white" stroke="#bfbfbf" points="24.5,-318.5 24.5,-335.5 59.5,-335.5 59.5,-318.5 24.5,-318.5"/>
<text text-anchor="middle" x="42" y="-325.1" font-family="Helvetica,sans-Serif" font-size="8.00">path</text>
</a>
</g>
</g>
<!-- Node9&#45;&gt;Node5 -->
<g id="edge11" class="edge">
<title>Node9&#45;&gt;Node5</title>
<path fill="none" stroke="#9a32cd" stroke-dasharray="5,2" d="M69.79,-325.78C98.52,-324.54 145.48,-322.71 186,-322 234.88,-321.15 247.37,-316.96 296,-322 353.29,-327.93 418.72,-343.63 456.21,-353.5"/>
<polygon fill="#9a32cd" stroke="#9a32cd" points="69.56,-322.29 59.73,-326.23 69.87,-329.28 69.56,-322.29"/>
<text text-anchor="start" x="198.5" y="-333.6" font-family="Helvetica,sans-Serif" font-size="8.00"> m_kernel_persistent</text>
<text text-anchor="middle" x="241" y="-324.6" font-family="Helvetica,sans-Serif" font-size="8.00">_run_dir_override</text>
</g>
<!-- Node9&#45;&gt;Node6 -->
<g id="edge7" class="edge">
<title>Node9&#45;&gt;Node6</title>
<path fill="none" stroke="#9a32cd" stroke-dasharray="5,2" d="M69.51,-333.12C95.65,-339.83 136.19,-352.08 168,-370 177.07,-375.11 177.03,-379.71 186,-385 194.4,-389.96 204.19,-394.17 213.11,-397.5"/>
<polygon fill="#9a32cd" stroke="#9a32cd" points="70.13,-329.67 59.58,-330.66 68.45,-336.46 70.13,-329.67"/>
<text text-anchor="middle" x="135" y="-372.6" font-family="Helvetica,sans-Serif" font-size="8.00"> m_exec_path</text>
</g>
<!-- Node10 -->
<g id="node9" class="node">
<title>Node10</title>
<g id="a_node9"><a xlink:title=" ">
<polygon fill="white" stroke="#bfbfbf" points="24,-366.5 24,-383.5 60,-383.5 60,-366.5 24,-366.5"/>
<text text-anchor="middle" x="42" y="-373.1" font-family="Helvetica,sans-Serif" font-size="8.00">uid_t</text>
</a>
</g>
</g>
<!-- Node10&#45;&gt;Node6 -->
<g id="edge8" class="edge">
<title>Node10&#45;&gt;Node6</title>
<path fill="none" stroke="#9a32cd" stroke-dasharray="5,2" d="M70.39,-379.05C95.73,-382.82 134.43,-388.65 168,-394 177.39,-395.5 187.45,-397.14 196.99,-398.73"/>
<polygon fill="#9a32cd" stroke="#9a32cd" points="70.81,-375.57 60.4,-377.56 69.78,-382.5 70.81,-375.57"/>
<text text-anchor="middle" x="135" y="-396.6" font-family="Helvetica,sans-Serif" font-size="8.00"> m_user_id</text>
</g>
<!-- Node11 -->
<g id="node10" class="node">
<title>Node11</title>
<g id="a_node10"><a xlink:title=" ">
<polygon fill="white" stroke="#bfbfbf" points="24,-402.5 24,-419.5 60,-419.5 60,-402.5 24,-402.5"/>
<text text-anchor="middle" x="42" y="-409.1" font-family="Helvetica,sans-Serif" font-size="8.00">gid_t</text>
</a>
</g>
</g>
<!-- Node11&#45;&gt;Node6 -->
<g id="edge9" class="edge">
<title>Node11&#45;&gt;Node6</title>
<path fill="none" stroke="#9a32cd" stroke-dasharray="5,2" d="M70.33,-410.31C103.09,-409.47 158.4,-408.07 196.93,-407.09"/>
<polygon fill="#9a32cd" stroke="#9a32cd" points="70.05,-406.81 60.14,-410.57 70.22,-413.81 70.05,-406.81"/>
<text text-anchor="middle" x="135" y="-411.6" font-family="Helvetica,sans-Serif" font-size="8.00"> m_group_id</text>
</g>
<!-- Node12 -->
<g id="node11" class="node">
<title>Node12</title>
<g id="a_node11"><a xlink:title=" ">
<polygon fill="white" stroke="#bfbfbf" points="192,-349 192,-375 290,-375 290,-349 192,-349"/>
<text text-anchor="start" x="200" y="-364.6" font-family="Helvetica,sans-Serif" font-size="8.00">unordered_set&lt; std</text>
<text text-anchor="middle" x="241" y="-355.6" font-family="Helvetica,sans-Serif" font-size="8.00">::string &gt;</text>
</a>
</g>
</g>
<!-- Node12&#45;&gt;Node5 -->
<g id="edge10" class="edge">
<title>Node12&#45;&gt;Node5</title>
<path fill="none" stroke="#9a32cd" stroke-dasharray="5,2" d="M300.21,-362C339,-362 389.8,-362 428.63,-362"/>
<polygon fill="#9a32cd" stroke="#9a32cd" points="300.11,-358.5 290.11,-362 300.11,-365.5 300.11,-358.5"/>
<text text-anchor="middle" x="362.5" y="-364.6" font-family="Helvetica,sans-Serif" font-size="8.00"> m_allowed_client_apps</text>
</g>
<!-- Node13 -->
<g id="node12" class="node">
<title>Node13</title>
<g id="a_node12"><a xlink:title=" ">
<polygon fill="white" stroke="#bfbfbf" points="196.5,-258.5 196.5,-275.5 285.5,-275.5 285.5,-258.5 196.5,-258.5"/>
<text text-anchor="middle" x="241" y="-265.1" font-family="Helvetica,sans-Serif" font-size="8.00">Permissions_level</text>
</a>
</g>
</g>
<!-- Node13&#45;&gt;Node5 -->
<g id="edge12" class="edge">
<title>Node13&#45;&gt;Node5</title>
<path fill="none" stroke="#9a32cd" stroke-dasharray="5,2" d="M295.93,-261.37C330.47,-260.06 375.34,-262.77 411,-280 445.26,-296.55 471.61,-335.82 482.08,-353.33"/>
<polygon fill="#9a32cd" stroke="#9a32cd" points="295.37,-257.9 285.56,-261.9 295.72,-264.89 295.37,-257.9"/>
<text text-anchor="start" x="319" y="-291.6" font-family="Helvetica,sans-Serif" font-size="8.00"> m_permissions_level</text>
<text text-anchor="middle" x="362.5" y="-282.6" font-family="Helvetica,sans-Serif" font-size="8.00">_for_client_apps</text>
</g>
<!-- Node14 -->
<g id="node13" class="node">
<title>Node14</title>
<g id="a_node13"><a xlink:title=" ">
<polygon fill="white" stroke="#bfbfbf" points="703.5,-312.5 703.5,-329.5 774.5,-329.5 774.5,-312.5 703.5,-312.5"/>
<text text-anchor="middle" x="739" y="-319.1" font-family="Helvetica,sans-Serif" font-size="8.00">Fine_duration</text>
</a>
</g>
</g>
<!-- Node14&#45;&gt;Node2 -->
<g id="edge13" class="edge">
<title>Node14&#45;&gt;Node2</title>
<path fill="none" stroke="#9a32cd" stroke-dasharray="5,2" d="M784.8,-322.68C839.21,-325.2 927.48,-331.03 958,-343 984.07,-353.23 1009.1,-373.25 1026.11,-388.93"/>
<polygon fill="#9a32cd" stroke="#9a32cd" points="784.88,-319.18 774.73,-322.23 784.57,-326.17 784.88,-319.18"/>
<text text-anchor="middle" x="897.5" y="-345.6" font-family="Helvetica,sans-Serif" font-size="8.00"> S_OPEN_CHANNEL_TIMEOUT</text>
</g>
<!-- Node15 -->
<g id="node14" class="node">
<title>Node15</title>
<g id="a_node14"><a xlink:title=" ">
<polygon fill="white" stroke="#bfbfbf" points="685.5,-276.5 685.5,-293.5 792.5,-293.5 792.5,-276.5 685.5,-276.5"/>
<text text-anchor="middle" x="739" y="-283.1" font-family="Helvetica,sans-Serif" font-size="8.00">static constexpr size_t</text>
</a>
</g>
</g>
<!-- Node15&#45;&gt;Node2 -->
<g id="edge14" class="edge">
<title>Node15&#45;&gt;Node2</title>
<path fill="none" stroke="#9a32cd" stroke-dasharray="5,2" d="M803.01,-287.96C857.59,-291.39 931.8,-298.42 958,-312 991.82,-329.53 1019.25,-365.23 1034.59,-388.62"/>
<polygon fill="#9a32cd" stroke="#9a32cd" points="802.91,-284.44 792.72,-287.34 802.49,-291.43 802.91,-284.44"/>
<text text-anchor="middle" x="897.5" y="-314.6" font-family="Helvetica,sans-Serif" font-size="8.00"> S_MQS_MAX_MSG_SZ</text>
</g>
<!-- Node16 -->
<g id="node15" class="node">
<title>Node16</title>
<g id="a_node15"><a xlink:title=" ">
<polygon fill="white" stroke="black" points="690,-393.5 690,-428.5 788,-428.5 788,-393.5 690,-393.5"/>
<text text-anchor="start" x="698" y="-418.1" font-family="Helvetica,sans-Serif" font-size="8.00">std::atomic&lt; const</text>
<text text-anchor="start" x="698" y="-409.1" font-family="Helvetica,sans-Serif" font-size="8.00"> ipc::session::Client</text>
<text text-anchor="middle" x="739" y="-400.1" font-family="Helvetica,sans-Serif" font-size="8.00">_app * &gt;</text>
</a>
</g>
</g>
<!-- Node16&#45;&gt;Node2 -->
<g id="edge15" class="edge">
<title>Node16&#45;&gt;Node2</title>
<path fill="none" stroke="#9a32cd" stroke-dasharray="5,2" d="M798.21,-411C848.63,-411 921.77,-411 975.88,-411"/>
<polygon fill="#9a32cd" stroke="#9a32cd" points="798.13,-407.5 788.12,-411 798.12,-414.5 798.13,-407.5"/>
<text text-anchor="middle" x="897.5" y="-413.6" font-family="Helvetica,sans-Serif" font-size="8.00"> m_cli_app_ptr</text>
</g>
<!-- Node17&#45;&gt;Node16 -->
<g id="edge16" class="edge">
<title>Node17&#45;&gt;Node16</title>
<path fill="none" stroke="#9a32cd" stroke-dasharray="5,2" d="M555.7,-411C597.93,-411 651.56,-411 689.69,-411"/>
<polygon fill="#9a32cd" stroke="#9a32cd" points="555.5,-407.5 545.5,-411 555.5,-414.5 555.5,-407.5"/>
<text text-anchor="middle" x="603" y="-413.6" font-family="Helvetica,sans-Serif" font-size="8.00"> ptr</text>
</g>
<!-- Node18&#45;&gt;Node2 -->
<g id="edge18" class="edge">
<title>Node18&#45;&gt;Node2</title>
<path fill="none" stroke="#9a32cd" stroke-dasharray="5,2" d="M306.38,-483.57C413.01,-474.51 632.97,-455.59 819,-438 880.81,-432.16 896.37,-431.55 958,-424 963.8,-423.29 969.8,-422.51 975.83,-421.7"/>
<polygon fill="#9a32cd" stroke="#9a32cd" points="305.78,-480.11 296.11,-484.44 306.37,-487.08 305.78,-480.11"/>
<text text-anchor="middle" x="603" y="-471.6" font-family="Helvetica,sans-Serif" font-size="8.00"> m_cli_namespace</text>
<text text-anchor="middle" x="603" y="-462.6" font-family="Helvetica,sans-Serif" font-size="8.00">m_srv_namespace</text>
</g>
<!-- Node18&#45;&gt;Node18 -->
<g id="edge19" class="edge">
<title>Node18&#45;&gt;Node18</title>
<path fill="none" stroke="#9a32cd" stroke-dasharray="5,2" d="M221.19,-506.86C221.93,-512.02 228.53,-516 241,-516 260.46,-516 265.63,-506.29 256.51,-497.57"/>
<polygon fill="#9a32cd" stroke="#9a32cd" points="224.47,-508.12 225.49,-497.57 218.12,-505.18 224.47,-508.12"/>
<text text-anchor="middle" x="241" y="-581.6" font-family="Helvetica,sans-Serif" font-size="8.00"> S_1ST_OR_ONLY</text>
<text text-anchor="middle" x="241" y="-572.6" font-family="Helvetica,sans-Serif" font-size="8.00">S_EMPTY</text>
<text text-anchor="start" x="202.5" y="-563.6" font-family="Helvetica,sans-Serif" font-size="8.00">S_RESOURCE_TYPE</text>
<text text-anchor="middle" x="241" y="-554.6" font-family="Helvetica,sans-Serif" font-size="8.00">_ID_MUTEX</text>
<text text-anchor="start" x="202.5" y="-545.6" font-family="Helvetica,sans-Serif" font-size="8.00">S_RESOURCE_TYPE</text>
<text text-anchor="middle" x="241" y="-536.6" font-family="Helvetica,sans-Serif" font-size="8.00">_ID_SHM</text>
<text text-anchor="middle" x="241" y="-527.6" font-family="Helvetica,sans-Serif" font-size="8.00">S_ROOT_MAGIC</text>
<text text-anchor="middle" x="241" y="-518.6" font-family="Helvetica,sans-Serif" font-size="8.00">S_SENTINEL</text>
</g>
<!-- Node19 -->
<g id="node18" class="node">
<title>Node19</title>
<g id="a_node18"><a xlink:title=" ">
<polygon fill="white" stroke="#bfbfbf" points="22,-532.5 22,-549.5 62,-549.5 62,-532.5 22,-532.5"/>
<text text-anchor="middle" x="42" y="-539.1" font-family="Helvetica,sans-Serif" font-size="8.00">size_t</text>
</a>
</g>
</g>
<!-- Node19&#45;&gt;Node18 -->
<g id="edge20" class="edge">
<title>Node19&#45;&gt;Node18</title>
<path fill="none" stroke="#9a32cd" stroke-dasharray="5,2" d="M72.28,-534.91C97.72,-529.45 135.49,-520.95 168,-512 183.69,-507.68 201.07,-502.15 214.83,-497.59"/>
<polygon fill="#9a32cd" stroke="#9a32cd" points="71.24,-531.56 62.18,-537.06 72.69,-538.4 71.24,-531.56"/>
<text text-anchor="middle" x="135" y="-530.6" font-family="Helvetica,sans-Serif" font-size="8.00"> S_MAX_LENGTH</text>
</g>
<!-- Node20 -->
<g id="node19" class="node">
<title>Node20</title>
<g id="a_node19"><a xlink:title=" ">
<polygon fill="white" stroke="#bfbfbf" points="0,-496.5 0,-513.5 84,-513.5 84,-496.5 0,-496.5"/>
<text text-anchor="middle" x="42" y="-503.1" font-family="Helvetica,sans-Serif" font-size="8.00">static const char</text>
</a>
</g>
</g>
<!-- Node20&#45;&gt;Node18 -->
<g id="edge21" class="edge">
<title>Node20&#45;&gt;Node18</title>
<path fill="none" stroke="#9a32cd" stroke-dasharray="5,2" d="M94.31,-500.83C122.38,-498.55 157.13,-495.73 185.66,-493.41"/>
<polygon fill="#9a32cd" stroke="#9a32cd" points="93.98,-497.35 84.3,-501.65 94.55,-504.32 93.98,-497.35"/>
<text text-anchor="middle" x="135" y="-501.6" font-family="Helvetica,sans-Serif" font-size="8.00"> S_SEPARATOR</text>
</g>
<!-- Node21 -->
<g id="node20" class="node">
<title>Node21</title>
<g id="a_node20"><a xlink:title=" ">
<polygon fill="white" stroke="#bfbfbf" points="703.5,-238.5 703.5,-255.5 774.5,-255.5 774.5,-238.5 703.5,-238.5"/>
<text text-anchor="middle" x="739" y="-245.1" font-family="Helvetica,sans-Serif" font-size="8.00">Task_asio_err</text>
</a>
</g>
</g>
<!-- Node21&#45;&gt;Node1 -->
<g id="edge30" class="edge">
<title>Node21&#45;&gt;Node1</title>
<path fill="none" stroke="#9a32cd" stroke-dasharray="5,2" d="M785.04,-247.03C874.01,-246.16 1078.07,-239.57 1244,-200 1249.77,-198.62 1255.69,-197.04 1261.62,-195.34"/>
<polygon fill="#9a32cd" stroke="#9a32cd" points="784.74,-243.53 774.77,-247.11 784.79,-250.53 784.74,-243.53"/>
<text text-anchor="start" x="1001.5" y="-249.6" font-family="Helvetica,sans-Serif" font-size="8.00"> m_conn_on_done_func</text>
<text text-anchor="middle" x="1049" y="-240.6" font-family="Helvetica,sans-Serif" font-size="8.00">_or_empty</text>
</g>
<!-- Node21&#45;&gt;Node2 -->
<g id="edge23" class="edge">
<title>Node21&#45;&gt;Node2</title>
<path fill="none" stroke="#9a32cd" stroke-dasharray="5,2" d="M785.01,-251.66C844.54,-258.11 943.62,-270 958,-279 999.85,-305.19 1027.02,-358.77 1039.68,-389"/>
<polygon fill="#9a32cd" stroke="#9a32cd" points="785.06,-248.14 774.75,-250.56 784.32,-255.1 785.06,-248.14"/>
<text text-anchor="middle" x="897.5" y="-281.6" font-family="Helvetica,sans-Serif" font-size="8.00"> m_on_err_func</text>
</g>
<!-- Node22 -->
<g id="node21" class="node">
<title>Node22</title>
<g id="a_node21"><a xlink:title=" ">
<polygon fill="white" stroke="#bfbfbf" points="659,-557.5 659,-592.5 819,-592.5 819,-557.5 659,-557.5"/>
<text text-anchor="start" x="667" y="-582.1" font-family="Helvetica,sans-Serif" font-size="8.00">Function&lt; void(Channel</text>
<text text-anchor="start" x="667" y="-573.1" font-family="Helvetica,sans-Serif" font-size="8.00">_obj &amp;&amp;new_channel, Mdt</text>
<text text-anchor="middle" x="739" y="-564.1" font-family="Helvetica,sans-Serif" font-size="8.00">_reader_ptr &amp;&amp;new_channel_mdt)&gt;</text>
</a>
</g>
</g>
<!-- Node22&#45;&gt;Node2 -->
<g id="edge24" class="edge">
<title>Node22&#45;&gt;Node2</title>
<path fill="none" stroke="#9a32cd" stroke-dasharray="5,2" d="M829.17,-561.88C886.86,-553.13 952.28,-542.59 958,-539 998.49,-513.57 1025.84,-462.61 1038.99,-433.24"/>
<polygon fill="#9a32cd" stroke="#9a32cd" points="828.61,-558.43 819.25,-563.38 829.66,-565.35 828.61,-558.43"/>
<text text-anchor="start" x="837" y="-571.6" font-family="Helvetica,sans-Serif" font-size="8.00"> m_on_passive_open_channel</text>
<text text-anchor="middle" x="897.5" y="-562.6" font-family="Helvetica,sans-Serif" font-size="8.00">_func_or_empty</text>
</g>
<!-- Node23 -->
<g id="node22" class="node">
<title>Node23</title>
<g id="a_node22"><a xlink:title=" ">
<polygon fill="white" stroke="#bfbfbf" points="709,-485.5 709,-502.5 769,-502.5 769,-485.5 709,-485.5"/>
<text text-anchor="middle" x="739" y="-492.1" font-family="Helvetica,sans-Serif" font-size="8.00">Error_code</text>
</a>
</g>
</g>
<!-- Node23&#45;&gt;Node2 -->
<g id="edge25" class="edge">
<title>Node23&#45;&gt;Node2</title>
<path fill="none" stroke="#9a32cd" stroke-dasharray="5,2" d="M779.34,-495.42C823.99,-495.78 898.35,-492.54 958,-471 981.67,-462.45 1005.22,-446.41 1022.29,-433.07"/>
<polygon fill="#9a32cd" stroke="#9a32cd" points="779.25,-491.92 769.2,-495.27 779.14,-498.92 779.25,-491.92"/>
<text text-anchor="start" x="849" y="-504.6" font-family="Helvetica,sans-Serif" font-size="8.00"> m_peer_state_err_code</text>
<text text-anchor="middle" x="897.5" y="-495.6" font-family="Helvetica,sans-Serif" font-size="8.00">_or_ok</text>
</g>
<!-- Node24 -->
<g id="node23" class="node">
<title>Node24</title>
<g id="a_node23"><a xlink:title=" ">
<polygon fill="white" stroke="#bfbfbf" points="995.5,-191.5 995.5,-208.5 1102.5,-208.5 1102.5,-191.5 995.5,-191.5"/>
<text text-anchor="middle" x="1049" y="-198.1" font-family="Helvetica,sans-Serif" font-size="8.00">flow::log::Log_context</text>
</a>
</g>
</g>
<!-- Node24&#45;&gt;Node1 -->
<g id="edge26" class="edge">
<title>Node24&#45;&gt;Node1</title>
<path fill="none" stroke="midnightblue" d="M1113.12,-194.2C1151.08,-190.62 1200.34,-185.81 1244,-181 1249.79,-180.36 1255.79,-179.68 1261.81,-178.98"/>
<polygon fill="midnightblue" stroke="midnightblue" points="1112.36,-190.76 1102.73,-195.18 1113.02,-197.73 1112.36,-190.76"/>
</g>
<!-- Node25 -->
<g id="node24" class="node">
<title>Node25</title>
<g id="a_node24"><a xlink:title=" ">
<polygon fill="white" stroke="#bfbfbf" points="1022.5,-155.5 1022.5,-172.5 1075.5,-172.5 1075.5,-155.5 1022.5,-155.5"/>
<text text-anchor="middle" x="1049" y="-162.1" font-family="Helvetica,sans-Serif" font-size="8.00">ShmType</text>
</a>
</g>
</g>
<!-- Node25&#45;&gt;Node1 -->
<g id="edge27" class="edge">
<title>Node25&#45;&gt;Node1</title>
<path fill="none" stroke="#9a32cd" stroke-dasharray="5,2" d="M1085.92,-164.76C1129.97,-165.69 1205.67,-167.29 1261.9,-168.48"/>
<polygon fill="#9a32cd" stroke="#9a32cd" points="1085.78,-161.26 1075.7,-164.54 1085.63,-168.25 1085.78,-161.26"/>
<text text-anchor="middle" x="1192" y="-170.6" font-family="Helvetica,sans-Serif" font-size="8.00"> S_SHM_TYPE</text>
</g>
<!-- Node26 -->
<g id="node25" class="node">
<title>Node26</title>
<g id="a_node25"><a xlink:title=" ">
<polygon fill="white" stroke="#bfbfbf" points="1030,-119.5 1030,-136.5 1068,-136.5 1068,-119.5 1030,-119.5"/>
<text text-anchor="middle" x="1049" y="-126.1" font-family="Helvetica,sans-Serif" font-size="8.00">State</text>
</a>
</g>
</g>
<!-- Node26&#45;&gt;Node1 -->
<g id="edge29" class="edge">
<title>Node26&#45;&gt;Node1</title>
<path fill="none" stroke="#9a32cd" stroke-dasharray="5,2" d="M1078.53,-130.86C1116.44,-134.81 1185.45,-142.54 1244,-152 1249.82,-152.94 1255.84,-153.99 1261.87,-155.08"/>
<polygon fill="#9a32cd" stroke="#9a32cd" points="1078.56,-127.34 1068.25,-129.8 1077.84,-134.31 1078.56,-127.34"/>
<text text-anchor="middle" x="1192" y="-154.6" font-family="Helvetica,sans-Serif" font-size="8.00"> m_state</text>
</g>
<!-- Node27 -->
<g id="node26" class="node">
<title>Node27</title>
<g id="a_node26"><a xlink:title=" ">
<polygon fill="white" stroke="#bfbfbf" points="1015,-72.5 1015,-89.5 1083,-89.5 1083,-72.5 1015,-72.5"/>
<text text-anchor="middle" x="1049" y="-79.1" font-family="Helvetica,sans-Serif" font-size="8.00">unsigned int</text>
</a>
</g>
</g>
<!-- Node27&#45;&gt;Node1 -->
<g id="edge31" class="edge">
<title>Node27&#45;&gt;Node1</title>
<path fill="none" stroke="#9a32cd" stroke-dasharray="5,2" d="M1093.32,-77.77C1133.77,-76.36 1195.06,-78.39 1244,-98 1268.89,-107.97 1292.38,-127.23 1309.12,-143.32"/>
<polygon fill="#9a32cd" stroke="#9a32cd" points="1093.1,-74.28 1083.26,-78.21 1093.4,-81.27 1093.1,-74.28"/>
<text text-anchor="start" x="1140" y="-127.6" font-family="Helvetica,sans-Serif" font-size="8.00"> m_last_actively_opened</text>
<text text-anchor="middle" x="1192" y="-118.6" font-family="Helvetica,sans-Serif" font-size="8.00">_channel_id</text>
<text text-anchor="start" x="1140" y="-109.6" font-family="Helvetica,sans-Serif" font-size="8.00">m_last_passively_opened</text>
<text text-anchor="middle" x="1192" y="-100.6" font-family="Helvetica,sans-Serif" font-size="8.00">_channel_id</text>
</g>
<!-- Node28 -->
<g id="node27" class="node">
<title>Node28</title>
<g id="a_node27"><a xlink:title=" ">
<polygon fill="white" stroke="#bfbfbf" points="991,-36.5 991,-53.5 1107,-53.5 1107,-36.5 991,-36.5"/>
<text text-anchor="middle" x="1049" y="-43.1" font-family="Helvetica,sans-Serif" font-size="8.00">Single_thread_task_loop</text>
</a>
</g>
</g>
<!-- Node28&#45;&gt;Node1 -->
<g id="edge32" class="edge">
<title>Node28&#45;&gt;Node1</title>
<path fill="none" stroke="#9a32cd" stroke-dasharray="5,2" d="M1117.32,-39.92C1156.37,-39.82 1205.31,-44.74 1244,-65 1277.6,-82.6 1304.01,-118.47 1319.3,-143.36"/>
<polygon fill="#9a32cd" stroke="#9a32cd" points="1117.05,-36.42 1107.1,-40.06 1117.15,-43.42 1117.05,-36.42"/>
<text text-anchor="middle" x="1192" y="-67.6" font-family="Helvetica,sans-Serif" font-size="8.00"> m_async_worker</text>
</g>
<!-- Node29 -->
<g id="node28" class="node">
<title>Node29</title>
<g id="a_node28"><a xlink:title=" ">
<polygon fill="white" stroke="#bfbfbf" points="978,-0.5 978,-17.5 1120,-17.5 1120,-0.5 978,-0.5"/>
<text text-anchor="middle" x="1049" y="-7.1" font-family="Helvetica,sans-Serif" font-size="8.00">Master_structured_channel_ptr</text>
</a>
</g>
</g>
<!-- Node29&#45;&gt;Node1 -->
<g id="edge33" class="edge">
<title>Node29&#45;&gt;Node1</title>
<path fill="none" stroke="#9a32cd" stroke-dasharray="5,2" d="M1130.52,-0.84C1167.53,-0.84 1210.54,-6.45 1244,-27 1287.37,-53.64 1313.29,-109.85 1325.5,-143.32"/>
<polygon fill="#9a32cd" stroke="#9a32cd" points="1130.2,2.66 1120.25,-0.98 1130.3,-4.34 1130.2,2.66"/>
<text text-anchor="middle" x="1192" y="-29.6" font-family="Helvetica,sans-Serif" font-size="8.00"> m_master_channel</text>
</g>
</g>
</svg>
