<?xml version="1.0" encoding="UTF-8" standalone="no"?>
<!DOCTYPE svg PUBLIC "-//W3C//DTD SVG 1.1//EN"
 "http://www.w3.org/Graphics/SVG/1.1/DTD/svg11.dtd">
<!-- Generated by graphviz version 2.43.0 (0)
 -->
<!-- Title: ipc::transport::Posix_mq_handle::Posix_mq_handle Pages: 1 -->
<svg width="412pt" height="72pt"
 viewBox="0.00 0.00 412.00 71.50" xmlns="http://www.w3.org/2000/svg" xmlns:xlink="http://www.w3.org/1999/xlink">
<g id="graph0" class="graph" transform="scale(1 1) rotate(0) translate(4 67.5)">
<title>ipc::transport::Posix_mq_handle::Posix_mq_handle</title>
<polygon fill="white" stroke="transparent" points="-4,4 -4,-67.5 408,-67.5 408,4 -4,4"/>
<!-- Node1 -->
<g id="node1" class="node">
<title>Node1</title>
<g id="a_node1"><a xlink:title="Implements Persistent_mq_handle API: Constructs handle from the source handle while making the latter...">
<polygon fill="#bfbfbf" stroke="black" points="0,-11.5 0,-46.5 109,-46.5 109,-11.5 0,-11.5"/>
<text text-anchor="start" x="8" y="-36.1" font-family="Helvetica,sans-Serif" font-size="8.00">ipc::transport::Posix</text>
<text text-anchor="start" x="8" y="-27.1" font-family="Helvetica,sans-Serif" font-size="8.00">_mq_handle::Posix_mq</text>
<text text-anchor="middle" x="54.5" y="-18.1" font-family="Helvetica,sans-Serif" font-size="8.00">_handle</text>
</a>
</g>
</g>
<!-- Node2 -->
<g id="node2" class="node">
<title>Node2</title>
<g id="a_node2"><a xlink:href="classipc_1_1transport_1_1Posix__mq__handle.html#aeec1f1528e8d51e85f0cbb784ea23e4b" target="_top" xlink:title="Implements Persistent_mq_handle API: Replaces handle with the source handle while making the latter i...">
<polygon fill="white" stroke="black" points="145,-16 145,-42 258,-42 258,-16 145,-16"/>
<text text-anchor="start" x="153" y="-31.6" font-family="Helvetica,sans-Serif" font-size="8.00">ipc::transport::Posix</text>
<text text-anchor="middle" x="201.5" y="-22.6" font-family="Helvetica,sans-Serif" font-size="8.00">_mq_handle::operator=</text>
</a>
</g>
</g>
<!-- Node1&#45;&gt;Node2 -->
<g id="edge1" class="edge">
<title>Node1&#45;&gt;Node2</title>
<path fill="none" stroke="midnightblue" d="M109.08,-29C117.34,-29 125.95,-29 134.44,-29"/>
<polygon fill="midnightblue" stroke="midnightblue" points="134.71,-32.5 144.71,-29 134.71,-25.5 134.71,-32.5"/>
</g>
<!-- Node3 -->
<g id="node3" class="node">
<title>Node3</title>
<g id="a_node3"><a xlink:href="classipc_1_1util_1_1Shared__name.html#a8328c9a6bc2739145087515ee8e677d8" target="_top" xlink:title="Makes it so empty() == true.">
<polygon fill="white" stroke="black" points="294,-37 294,-63 404,-63 404,-37 294,-37"/>
<text text-anchor="start" x="302" y="-52.6" font-family="Helvetica,sans-Serif" font-size="8.00">ipc::util::Shared_name</text>
<text text-anchor="middle" x="349" y="-43.6" font-family="Helvetica,sans-Serif" font-size="8.00">::clear</text>
</a>
</g>
</g>
<!-- Node2&#45;&gt;Node3 -->
<g id="edge2" class="edge">
<title>Node2&#45;&gt;Node3</title>
<path fill="none" stroke="midnightblue" d="M258.34,-37.06C266.75,-38.27 275.48,-39.53 284.04,-40.77"/>
<polygon fill="midnightblue" stroke="midnightblue" points="283.59,-44.24 293.99,-42.2 284.59,-37.31 283.59,-44.24"/>
</g>
<!-- Node4 -->
<g id="node4" class="node">
<title>Node4</title>
<g id="a_node4"><a xlink:href="namespaceipc_1_1transport.html#a65015c97813a6609da035fe86d1a36c0" target="_top" xlink:title="Implements Persistent_mq_handle related concept: Swaps two objects.">
<polygon fill="white" stroke="black" points="299,-0.5 299,-17.5 399,-17.5 399,-0.5 299,-0.5"/>
<text text-anchor="middle" x="349" y="-7.1" font-family="Helvetica,sans-Serif" font-size="8.00">ipc::transport::swap</text>
</a>
</g>
</g>
<!-- Node2&#45;&gt;Node4 -->
<g id="edge3" class="edge">
<title>Node2&#45;&gt;Node4</title>
<path fill="none" stroke="midnightblue" d="M258.34,-21.32C268.32,-19.95 278.74,-18.52 288.81,-17.14"/>
<polygon fill="midnightblue" stroke="midnightblue" points="289.3,-20.6 298.73,-15.77 288.34,-13.67 289.3,-20.6"/>
</g>
</g>
</svg>
