<?xml version="1.0" encoding="UTF-8" standalone="no"?>
<!DOCTYPE svg PUBLIC "-//W3C//DTD SVG 1.1//EN"
 "http://www.w3.org/Graphics/SVG/1.1/DTD/svg11.dtd">
<!-- Generated by graphviz version 2.43.0 (0)
 -->
<!-- Title: ipc::transport::Mqs_channel::Mqs_channel Pages: 1 -->
<svg width="269pt" height="80pt"
 viewBox="0.00 0.00 269.00 80.00" xmlns="http://www.w3.org/2000/svg" xmlns:xlink="http://www.w3.org/1999/xlink">
<g id="graph0" class="graph" transform="scale(1 1) rotate(0) translate(4 76)">
<title>ipc::transport::Mqs_channel::Mqs_channel</title>
<polygon fill="white" stroke="transparent" points="-4,4 -4,-76 265,-76 265,4 -4,4"/>
<!-- Node1 -->
<g id="node1" class="node">
<title>Node1</title>
<g id="a_node1"><a xlink:title="Constructs the Channel in PEER state.">
<polygon fill="#bfbfbf" stroke="black" points="0,-22.5 0,-48.5 113,-48.5 113,-22.5 0,-22.5"/>
<text text-anchor="start" x="8" y="-38.1" font-family="Helvetica,sans-Serif" font-size="8.00">ipc::transport::Mqs</text>
<text text-anchor="middle" x="56.5" y="-29.1" font-family="Helvetica,sans-Serif" font-size="8.00">_channel::Mqs_channel</text>
</a>
</g>
</g>
<!-- Node2 -->
<g id="node2" class="node">
<title>Node2</title>
<g id="a_node2"><a xlink:href="classipc_1_1transport_1_1Channel.html#aa8209a5adde4e5c2b3b1d8779fab0433" target="_top" xlink:title="Completes initialization of the blobs pipe by taking ownership (via move semantics) of an object that...">
<polygon fill="white" stroke="black" points="149,-45.5 149,-71.5 261,-71.5 261,-45.5 149,-45.5"/>
<text text-anchor="start" x="157" y="-61.1" font-family="Helvetica,sans-Serif" font-size="8.00">ipc::transport::Channel</text>
<text text-anchor="middle" x="205" y="-52.1" font-family="Helvetica,sans-Serif" font-size="8.00">::init_blob_pipe</text>
</a>
</g>
</g>
<!-- Node1&#45;&gt;Node2 -->
<g id="edge1" class="edge">
<title>Node1&#45;&gt;Node2</title>
<path fill="none" stroke="midnightblue" d="M113.3,-44.26C121.67,-45.57 130.36,-46.94 138.91,-48.28"/>
<polygon fill="midnightblue" stroke="midnightblue" points="138.41,-51.75 148.84,-49.84 139.5,-44.83 138.41,-51.75"/>
</g>
<!-- Node3 -->
<g id="node3" class="node">
<title>Node3</title>
<g id="a_node3"><a xlink:href="classipc_1_1transport_1_1Channel.html#a43c79955b3ad0eab347550b4263523ec" target="_top" xlink:title="Returns true if and only if the required init_blob_pipe() and init_native_handle_pipe() calls have be...">
<polygon fill="white" stroke="black" points="149,-0.5 149,-26.5 261,-26.5 261,-0.5 149,-0.5"/>
<text text-anchor="start" x="157" y="-16.1" font-family="Helvetica,sans-Serif" font-size="8.00">ipc::transport::Channel</text>
<text text-anchor="middle" x="205" y="-7.1" font-family="Helvetica,sans-Serif" font-size="8.00">::initialized</text>
</a>
</g>
</g>
<!-- Node1&#45;&gt;Node3 -->
<g id="edge2" class="edge">
<title>Node1&#45;&gt;Node3</title>
<path fill="none" stroke="midnightblue" d="M113.3,-27.12C121.67,-25.86 130.36,-24.56 138.91,-23.28"/>
<polygon fill="midnightblue" stroke="midnightblue" points="139.47,-26.73 148.84,-21.78 138.43,-19.81 139.47,-26.73"/>
</g>
</g>
</svg>
