<?xml version="1.0" encoding="UTF-8" standalone="no"?>
<!DOCTYPE svg PUBLIC "-//W3C//DTD SVG 1.1//EN"
 "http://www.w3.org/Graphics/SVG/1.1/DTD/svg11.dtd">
<!-- Generated by graphviz version 2.43.0 (0)
 -->
<!-- Title: ipc::session::shm::arena_lend::jemalloc::Server_session_impl&lt; S_MQ_TYPE_OR_NONE, S_TRANSMIT_NATIVE_HANDLES, Mdt_payload &gt; Pages: 1 -->
<svg width="1451pt" height="860pt"
 viewBox="0.00 0.00 1451.00 859.50" xmlns="http://www.w3.org/2000/svg" xmlns:xlink="http://www.w3.org/1999/xlink">
<g id="graph0" class="graph" transform="scale(1 1) rotate(0) translate(4 855.5)">
<title>ipc::session::shm::arena_lend::jemalloc::Server_session_impl&lt; S_MQ_TYPE_OR_NONE, S_TRANSMIT_NATIVE_HANDLES, Mdt_payload &gt;</title>
<polygon fill="white" stroke="transparent" points="-4,4 -4,-855.5 1447,-855.5 1447,4 -4,4"/>
<!-- Node1 -->
<g id="node1" class="node">
<title>Node1</title>
<g id="a_node1"><a xlink:title="Core internally&#45;used implementation of shm::arena_lend::jemalloc::Server_session: it is to the latter...">
<polygon fill="#bfbfbf" stroke="black" points="1305,-67.5 1305,-129.5 1443,-129.5 1443,-67.5 1305,-67.5"/>
<text text-anchor="start" x="1313" y="-119.1" font-family="Helvetica,sans-Serif" font-size="8.00">ipc::session::shm::</text>
<text text-anchor="start" x="1313" y="-110.1" font-family="Helvetica,sans-Serif" font-size="8.00">arena_lend::jemalloc</text>
<text text-anchor="start" x="1313" y="-101.1" font-family="Helvetica,sans-Serif" font-size="8.00">::Server_session_impl</text>
<text text-anchor="start" x="1313" y="-92.1" font-family="Helvetica,sans-Serif" font-size="8.00">&lt; S_MQ_TYPE_OR_NONE, S</text>
<text text-anchor="start" x="1313" y="-83.1" font-family="Helvetica,sans-Serif" font-size="8.00">_TRANSMIT_NATIVE_HANDLES,</text>
<text text-anchor="middle" x="1374" y="-74.1" font-family="Helvetica,sans-Serif" font-size="8.00"> Mdt_payload &gt;</text>
</a>
</g>
</g>
<!-- Node2 -->
<g id="node2" class="node">
<title>Node2</title>
<g id="a_node2"><a xlink:href="classipc_1_1session_1_1shm_1_1arena__lend_1_1jemalloc_1_1Session__impl.html" target="_top" xlink:title=" ">
<polygon fill="white" stroke="black" points="1080,-14 1080,-103 1268,-103 1268,-14 1080,-14"/>
<text text-anchor="start" x="1088" y="-92.6" font-family="Helvetica,sans-Serif" font-size="8.00">ipc::session::shm::</text>
<text text-anchor="start" x="1088" y="-83.6" font-family="Helvetica,sans-Serif" font-size="8.00">arena_lend::jemalloc</text>
<text text-anchor="start" x="1088" y="-74.6" font-family="Helvetica,sans-Serif" font-size="8.00">::Session_impl&lt; session</text>
<text text-anchor="start" x="1088" y="-65.6" font-family="Helvetica,sans-Serif" font-size="8.00">::Server_session_impl&lt;</text>
<text text-anchor="start" x="1088" y="-56.6" font-family="Helvetica,sans-Serif" font-size="8.00"> S_MQ_TYPE_OR_NONE, S_TRANSMIT</text>
<text text-anchor="start" x="1088" y="-47.6" font-family="Helvetica,sans-Serif" font-size="8.00">_NATIVE_HANDLES, Mdt_payload,</text>
<text text-anchor="start" x="1088" y="-38.6" font-family="Helvetica,sans-Serif" font-size="8.00"> session::schema::ShmType::JEMALLOC,</text>
<text text-anchor="start" x="1088" y="-29.6" font-family="Helvetica,sans-Serif" font-size="8.00"> transport::struc::shm::Builder_base</text>
<text text-anchor="middle" x="1174" y="-20.6" font-family="Helvetica,sans-Serif" font-size="8.00">::S_MAX_SERIALIZATION_SEGMENT_SZ &gt; &gt;</text>
</a>
</g>
</g>
<!-- Node2&#45;&gt;Node1 -->
<g id="edge1" class="edge">
<title>Node2&#45;&gt;Node1</title>
<path fill="none" stroke="midnightblue" d="M1278.04,-79.32C1287.11,-81.15 1296.13,-82.97 1304.81,-84.72"/>
<polygon fill="midnightblue" stroke="midnightblue" points="1278.7,-75.88 1268.2,-77.33 1277.31,-82.74 1278.7,-75.88"/>
</g>
<!-- Node3 -->
<g id="node3" class="node">
<title>Node3</title>
<g id="a_node3"><a xlink:href="classipc_1_1session_1_1Server__session__impl.html" target="_top" xlink:title=" ">
<polygon fill="white" stroke="black" points="756,-583 756,-654 976,-654 976,-583 756,-583"/>
<text text-anchor="start" x="764" y="-643.6" font-family="Helvetica,sans-Serif" font-size="8.00">ipc::session::Server</text>
<text text-anchor="start" x="764" y="-634.6" font-family="Helvetica,sans-Serif" font-size="8.00">_session_impl&lt; S_MQ_TYPE</text>
<text text-anchor="start" x="764" y="-625.6" font-family="Helvetica,sans-Serif" font-size="8.00">_OR_NONE, S_TRANSMIT_NATIVE</text>
<text text-anchor="start" x="764" y="-616.6" font-family="Helvetica,sans-Serif" font-size="8.00">_HANDLES, Mdt_payload, session</text>
<text text-anchor="start" x="764" y="-607.6" font-family="Helvetica,sans-Serif" font-size="8.00">::schema::ShmType::JEMALLOC, transport</text>
<text text-anchor="start" x="764" y="-598.6" font-family="Helvetica,sans-Serif" font-size="8.00">::struc::shm::Builder_base::S_MAX_SERIALIZATION</text>
<text text-anchor="middle" x="866" y="-589.6" font-family="Helvetica,sans-Serif" font-size="8.00">_SEGMENT_SZ &gt;</text>
</a>
</g>
</g>
<!-- Node3&#45;&gt;Node2 -->
<g id="edge2" class="edge">
<title>Node3&#45;&gt;Node2</title>
<path fill="none" stroke="midnightblue" d="M876.67,-572.96C898.59,-478.69 959.77,-259.16 1080,-117.5 1084.33,-112.4 1089.21,-107.59 1094.42,-103.09"/>
<polygon fill="midnightblue" stroke="midnightblue" points="873.24,-572.23 874.42,-582.76 880.07,-573.79 873.24,-572.23"/>
</g>
<!-- Node4 -->
<g id="node4" class="node">
<title>Node4</title>
<g id="a_node4"><a xlink:href="classipc_1_1session_1_1Session__base.html" target="_top" xlink:title="Internal type containing data and types common to internal types Server_session_impl and Client_sessi...">
<polygon fill="white" stroke="black" points="470,-418.5 470,-462.5 616,-462.5 616,-418.5 470,-418.5"/>
<text text-anchor="start" x="478" y="-452.1" font-family="Helvetica,sans-Serif" font-size="8.00">ipc::session::Session</text>
<text text-anchor="start" x="478" y="-443.1" font-family="Helvetica,sans-Serif" font-size="8.00">_base&lt; S_MQ_TYPE_OR_NONE,</text>
<text text-anchor="start" x="478" y="-434.1" font-family="Helvetica,sans-Serif" font-size="8.00"> S_TRANSMIT_NATIVE_HANDLES,</text>
<text text-anchor="middle" x="543" y="-425.1" font-family="Helvetica,sans-Serif" font-size="8.00"> Mdt_payload &gt;</text>
</a>
</g>
</g>
<!-- Node4&#45;&gt;Node3 -->
<g id="edge3" class="edge">
<title>Node4&#45;&gt;Node3</title>
<path fill="none" stroke="midnightblue" d="M615.01,-466.17C652.61,-480.92 698.95,-500.97 738,-523.5 767.81,-540.7 798.79,-563.75 822.69,-582.84"/>
<polygon fill="midnightblue" stroke="midnightblue" points="616.24,-462.9 605.65,-462.54 613.71,-469.42 616.24,-462.9"/>
</g>
<!-- Node5 -->
<g id="node5" class="node">
<title>Node5</title>
<g id="a_node5"><a xlink:title=" ">
<polygon fill="white" stroke="#bfbfbf" points="172.5,-346 172.5,-363 271.5,-363 271.5,-346 172.5,-346"/>
<text text-anchor="middle" x="222" y="-352.6" font-family="Helvetica,sans-Serif" font-size="8.00">boost::noncopyable</text>
</a>
</g>
</g>
<!-- Node5&#45;&gt;Node4 -->
<g id="edge4" class="edge">
<title>Node5&#45;&gt;Node4</title>
<path fill="none" stroke="#8b1a1a" d="M281.71,-361.24C328.6,-367.64 395.58,-379.07 452,-397.5 468.79,-402.98 486.49,-410.92 501.71,-418.49"/>
<polygon fill="#8b1a1a" stroke="#8b1a1a" points="282.09,-357.76 271.72,-359.91 281.17,-364.7 282.09,-357.76"/>
</g>
<!-- Node6 -->
<g id="node6" class="node">
<title>Node6</title>
<g id="a_node6"><a xlink:title=" ">
<polygon fill="white" stroke="#bfbfbf" points="171.5,-526 171.5,-543 272.5,-543 272.5,-526 171.5,-526"/>
<text text-anchor="middle" x="222" y="-532.6" font-family="Helvetica,sans-Serif" font-size="8.00">static constexpr bool</text>
</a>
</g>
</g>
<!-- Node6&#45;&gt;Node3 -->
<g id="edge18" class="edge">
<title>Node6&#45;&gt;Node3</title>
<path fill="none" stroke="#9a32cd" stroke-dasharray="5,2" d="M282.81,-537.97C329.07,-540.88 394.68,-545.53 452,-551.5 555.68,-562.29 672.89,-582.04 755.89,-597.31"/>
<polygon fill="#9a32cd" stroke="#9a32cd" points="282.86,-534.46 272.66,-537.34 282.42,-541.45 282.86,-534.46"/>
<text text-anchor="middle" x="543" y="-593.1" font-family="Helvetica,sans-Serif" font-size="8.00"> S_MQS_ENABLED</text>
<text text-anchor="middle" x="543" y="-584.1" font-family="Helvetica,sans-Serif" font-size="8.00">S_SHM_ENABLED</text>
<text text-anchor="middle" x="543" y="-575.1" font-family="Helvetica,sans-Serif" font-size="8.00">S_SOCKET_STREAM_ENABLED</text>
</g>
<!-- Node6&#45;&gt;Node4 -->
<g id="edge5" class="edge">
<title>Node6&#45;&gt;Node4</title>
<path fill="none" stroke="#9a32cd" stroke-dasharray="5,2" d="M281.88,-523.33C288.77,-521.36 295.61,-519.1 302,-516.5 310.68,-512.97 311.23,-508.81 320,-505.5 375.72,-484.49 395.19,-500.36 452,-482.5 468.45,-477.33 485.78,-469.79 500.79,-462.52"/>
<polygon fill="#9a32cd" stroke="#9a32cd" points="280.58,-520.05 271.81,-525.99 282.37,-526.82 280.58,-520.05"/>
<text text-anchor="middle" x="386" y="-517.1" font-family="Helvetica,sans-Serif" font-size="8.00"> S_MQS_ENABLED</text>
<text text-anchor="middle" x="386" y="-508.1" font-family="Helvetica,sans-Serif" font-size="8.00">S_SOCKET_STREAM_ENABLED</text>
</g>
<!-- Node7 -->
<g id="node7" class="node">
<title>Node7</title>
<g id="a_node7"><a xlink:href="structipc_1_1session_1_1Server__app.html" target="_top" xlink:title="An App that is used as a server in at least one client&#45;server IPC split.">
<polygon fill="white" stroke="red" points="163,-562 163,-579 281,-579 281,-562 163,-562"/>
<text text-anchor="middle" x="222" y="-568.6" font-family="Helvetica,sans-Serif" font-size="8.00">ipc::session::Server_app</text>
</a>
</g>
</g>
<!-- Node7&#45;&gt;Node4 -->
<g id="edge6" class="edge">
<title>Node7&#45;&gt;Node4</title>
<path fill="none" stroke="#9a32cd" stroke-dasharray="5,2" d="M291.19,-567.97C338.57,-563.82 401.95,-553.37 452,-527.5 467.93,-519.27 500.71,-485.51 522.01,-462.54"/>
<polygon fill="#9a32cd" stroke="#9a32cd" points="290.72,-564.49 281.03,-568.78 291.28,-571.47 290.72,-564.49"/>
<text text-anchor="middle" x="386" y="-566.1" font-family="Helvetica,sans-Serif" font-size="8.00"> m_srv_app_ref</text>
</g>
<!-- Node16 -->
<g id="node8" class="node">
<title>Node16</title>
<g id="a_node8"><a xlink:title=" ">
<polygon fill="white" stroke="#bfbfbf" points="186.5,-490 186.5,-507 257.5,-507 257.5,-490 186.5,-490"/>
<text text-anchor="middle" x="222" y="-496.6" font-family="Helvetica,sans-Serif" font-size="8.00">Fine_duration</text>
</a>
</g>
</g>
<!-- Node16&#45;&gt;Node4 -->
<g id="edge7" class="edge">
<title>Node16&#45;&gt;Node4</title>
<path fill="none" stroke="#9a32cd" stroke-dasharray="5,2" d="M267.28,-489.61C278.68,-487 290.87,-483.91 302,-480.5 310.21,-477.98 311.7,-475.7 320,-473.5 347.54,-466.2 416.07,-456.47 469.76,-449.47"/>
<polygon fill="#9a32cd" stroke="#9a32cd" points="266.51,-486.2 257.51,-491.79 268.03,-493.03 266.51,-486.2"/>
<text text-anchor="middle" x="386" y="-476.1" font-family="Helvetica,sans-Serif" font-size="8.00"> S_OPEN_CHANNEL_TIMEOUT</text>
</g>
<!-- Node17 -->
<g id="node9" class="node">
<title>Node17</title>
<g id="a_node9"><a xlink:title=" ">
<polygon fill="white" stroke="#bfbfbf" points="168.5,-310 168.5,-327 275.5,-327 275.5,-310 168.5,-310"/>
<text text-anchor="middle" x="222" y="-316.6" font-family="Helvetica,sans-Serif" font-size="8.00">static constexpr size_t</text>
</a>
</g>
</g>
<!-- Node17&#45;&gt;Node4 -->
<g id="edge8" class="edge">
<title>Node17&#45;&gt;Node4</title>
<path fill="none" stroke="#9a32cd" stroke-dasharray="5,2" d="M285.94,-317.95C333.77,-319.88 399.96,-327.71 452,-353.5 482.57,-368.65 509.5,-397.94 525.75,-418.33"/>
<polygon fill="#9a32cd" stroke="#9a32cd" points="285.83,-314.45 275.73,-317.62 285.61,-321.44 285.83,-314.45"/>
<text text-anchor="middle" x="386" y="-356.1" font-family="Helvetica,sans-Serif" font-size="8.00"> S_MQS_MAX_MSG_SZ</text>
</g>
<!-- Node18 -->
<g id="node10" class="node">
<title>Node18</title>
<g id="a_node10"><a xlink:title=" ">
<polygon fill="white" stroke="orangered" points="173,-436 173,-471 271,-471 271,-436 173,-436"/>
<text text-anchor="start" x="181" y="-460.6" font-family="Helvetica,sans-Serif" font-size="8.00">std::atomic&lt; const</text>
<text text-anchor="start" x="181" y="-451.6" font-family="Helvetica,sans-Serif" font-size="8.00"> ipc::session::Client</text>
<text text-anchor="middle" x="222" y="-442.6" font-family="Helvetica,sans-Serif" font-size="8.00">_app * &gt;</text>
</a>
</g>
</g>
<!-- Node18&#45;&gt;Node4 -->
<g id="edge9" class="edge">
<title>Node18&#45;&gt;Node4</title>
<path fill="none" stroke="#9a32cd" stroke-dasharray="5,2" d="M281.28,-445.15C294.01,-443.65 307.44,-442.3 320,-441.5 370,-438.31 426.47,-438.1 469.94,-438.67"/>
<polygon fill="#9a32cd" stroke="#9a32cd" points="280.74,-441.69 271.25,-446.39 281.6,-448.64 280.74,-441.69"/>
<text text-anchor="middle" x="386" y="-444.1" font-family="Helvetica,sans-Serif" font-size="8.00"> m_cli_app_ptr</text>
</g>
<!-- Node20 -->
<g id="node11" class="node">
<title>Node20</title>
<g id="a_node11"><a xlink:href="classipc_1_1util_1_1Shared__name.html" target="_top" xlink:title="String&#45;wrapping abstraction representing a name uniquely distinguishing a kernel&#45;persistent entity fr...">
<polygon fill="white" stroke="red" points="167,-184 167,-201 277,-201 277,-184 167,-184"/>
<text text-anchor="middle" x="222" y="-190.6" font-family="Helvetica,sans-Serif" font-size="8.00">ipc::util::Shared_name</text>
</a>
</g>
</g>
<!-- Node20&#45;&gt;Node4 -->
<g id="edge10" class="edge">
<title>Node20&#45;&gt;Node4</title>
<path fill="none" stroke="#9a32cd" stroke-dasharray="5,2" d="M242.18,-207.12C261.14,-221.04 291.37,-241.83 320,-255.5 375.68,-282.09 403.27,-260.65 452,-298.5 493.26,-330.55 520.82,-387.2 533.67,-418.39"/>
<polygon fill="#9a32cd" stroke="#9a32cd" points="244.18,-204.25 234.07,-201.08 240,-209.87 244.18,-204.25"/>
<text text-anchor="middle" x="386" y="-310.1" font-family="Helvetica,sans-Serif" font-size="8.00"> m_cli_namespace</text>
<text text-anchor="middle" x="386" y="-301.1" font-family="Helvetica,sans-Serif" font-size="8.00">m_srv_namespace</text>
</g>
<!-- Node20&#45;&gt;Node20 -->
<g id="edge11" class="edge">
<title>Node20&#45;&gt;Node20</title>
<path fill="none" stroke="#9a32cd" stroke-dasharray="5,2" d="M197.63,-209.6C197.84,-215.12 205.96,-219.5 222,-219.5 245.87,-219.5 252.21,-209.79 241.02,-201.07"/>
<polygon fill="#9a32cd" stroke="#9a32cd" points="200.63,-211.4 202.98,-201.07 194.7,-207.68 200.63,-211.4"/>
<text text-anchor="middle" x="222" y="-285.1" font-family="Helvetica,sans-Serif" font-size="8.00"> S_1ST_OR_ONLY</text>
<text text-anchor="middle" x="222" y="-276.1" font-family="Helvetica,sans-Serif" font-size="8.00">S_EMPTY</text>
<text text-anchor="start" x="183.5" y="-267.1" font-family="Helvetica,sans-Serif" font-size="8.00">S_RESOURCE_TYPE</text>
<text text-anchor="middle" x="222" y="-258.1" font-family="Helvetica,sans-Serif" font-size="8.00">_ID_MUTEX</text>
<text text-anchor="start" x="183.5" y="-249.1" font-family="Helvetica,sans-Serif" font-size="8.00">S_RESOURCE_TYPE</text>
<text text-anchor="middle" x="222" y="-240.1" font-family="Helvetica,sans-Serif" font-size="8.00">_ID_SHM</text>
<text text-anchor="middle" x="222" y="-231.1" font-family="Helvetica,sans-Serif" font-size="8.00">S_ROOT_MAGIC</text>
<text text-anchor="middle" x="222" y="-222.1" font-family="Helvetica,sans-Serif" font-size="8.00">S_SENTINEL</text>
</g>
<!-- Node28 -->
<g id="node18" class="node">
<title>Node28</title>
<g id="a_node18"><a xlink:href="classipc_1_1transport_1_1sync__io_1_1Native__socket__stream.html" target="_top" xlink:title="Implements both sync_io::Native_handle_sender and sync_io::Native_handle_receiver concepts by using a...">
<polygon fill="white" stroke="black" points="481.5,-124.5 481.5,-150.5 604.5,-150.5 604.5,-124.5 481.5,-124.5"/>
<text text-anchor="start" x="489.5" y="-140.1" font-family="Helvetica,sans-Serif" font-size="8.00">ipc::transport::sync</text>
<text text-anchor="middle" x="543" y="-131.1" font-family="Helvetica,sans-Serif" font-size="8.00">_io::Native_socket_stream</text>
</a>
</g>
</g>
<!-- Node20&#45;&gt;Node28 -->
<g id="edge21" class="edge">
<title>Node20&#45;&gt;Node28</title>
<path fill="none" stroke="#9a32cd" stroke-dasharray="5,2" d="M287.44,-183.83C333.43,-177.35 396.69,-167.86 452,-157.5 463.01,-155.44 474.73,-153.01 485.95,-150.56"/>
<polygon fill="#9a32cd" stroke="#9a32cd" points="286.73,-180.39 277.31,-185.24 287.7,-187.33 286.73,-180.39"/>
<text text-anchor="middle" x="386" y="-181.1" font-family="Helvetica,sans-Serif" font-size="8.00"> S_RESOURCE_TYPE_ID</text>
</g>
<!-- Node21 -->
<g id="node12" class="node">
<title>Node21</title>
<g id="a_node12"><a xlink:title=" ">
<polygon fill="white" stroke="#bfbfbf" points="0,-38 0,-55 40,-55 40,-38 0,-38"/>
<text text-anchor="middle" x="20" y="-44.6" font-family="Helvetica,sans-Serif" font-size="8.00">size_t</text>
</a>
</g>
</g>
<!-- Node21&#45;&gt;Node20 -->
<g id="edge12" class="edge">
<title>Node21&#45;&gt;Node20</title>
<path fill="none" stroke="#9a32cd" stroke-dasharray="5,2" d="M32.12,-63.66C51.12,-91.52 92.61,-146.3 142,-174.5 149.57,-178.82 158.11,-182.11 166.71,-184.61"/>
<polygon fill="#9a32cd" stroke="#9a32cd" points="35.02,-61.7 26.56,-55.32 29.2,-65.59 35.02,-61.7"/>
<text text-anchor="middle" x="91" y="-163.1" font-family="Helvetica,sans-Serif" font-size="8.00"> S_MAX_LENGTH</text>
</g>
<!-- Node21&#45;&gt;Node28 -->
<g id="edge23" class="edge">
<title>Node21&#45;&gt;Node28</title>
<path fill="none" stroke="#9a32cd" stroke-dasharray="5,2" d="M50.34,-44.33C74.83,-42.63 110.67,-40.41 142,-39.5 280.7,-35.49 344.56,11.3 452,-76.5 466.47,-88.33 455.94,-102.19 470,-114.5 474.54,-118.47 479.78,-121.76 485.31,-124.49"/>
<polygon fill="#9a32cd" stroke="#9a32cd" points="49.99,-40.84 40.27,-45.04 50.49,-47.83 49.99,-40.84"/>
<text text-anchor="middle" x="222" y="-42.1" font-family="Helvetica,sans-Serif" font-size="8.00"> S_MAX_META_BLOB_LENGTH</text>
</g>
<!-- Node23 -->
<g id="node13" class="node">
<title>Node23</title>
<g id="a_node13"><a xlink:title=" ">
<polygon fill="white" stroke="#bfbfbf" points="186.5,-608 186.5,-625 257.5,-625 257.5,-608 186.5,-608"/>
<text text-anchor="middle" x="222" y="-614.6" font-family="Helvetica,sans-Serif" font-size="8.00">Task_asio_err</text>
</a>
</g>
</g>
<!-- Node23&#45;&gt;Node3 -->
<g id="edge19" class="edge">
<title>Node23&#45;&gt;Node3</title>
<path fill="none" stroke="#9a32cd" stroke-dasharray="5,2" d="M267.9,-617.67C314.14,-618.41 388.26,-618.34 452,-612.5 460.08,-611.76 461.92,-610.17 470,-609.5 566.39,-601.52 676.43,-605.06 755.84,-609.85"/>
<polygon fill="#9a32cd" stroke="#9a32cd" points="267.68,-614.16 257.61,-617.48 267.55,-621.16 267.68,-614.16"/>
<text text-anchor="middle" x="543" y="-612.1" font-family="Helvetica,sans-Serif" font-size="8.00"> m_log_in_on_done_func</text>
</g>
<!-- Node23&#45;&gt;Node4 -->
<g id="edge13" class="edge">
<title>Node23&#45;&gt;Node4</title>
<path fill="none" stroke="#9a32cd" stroke-dasharray="5,2" d="M267.86,-609.9C332.57,-600.21 445.16,-582.6 452,-576.5 473.09,-557.68 455.81,-539.95 470,-515.5 481.69,-495.36 499.88,-476.48 515.05,-462.69"/>
<polygon fill="#9a32cd" stroke="#9a32cd" points="267.29,-606.45 257.91,-611.39 268.32,-613.37 267.29,-606.45"/>
<text text-anchor="middle" x="386" y="-604.1" font-family="Helvetica,sans-Serif" font-size="8.00"> m_on_err_func</text>
</g>
<!-- Node24 -->
<g id="node14" class="node">
<title>Node24</title>
<g id="a_node14"><a xlink:title=" ">
<polygon fill="white" stroke="#bfbfbf" points="142,-382 142,-417 302,-417 302,-382 142,-382"/>
<text text-anchor="start" x="150" y="-406.6" font-family="Helvetica,sans-Serif" font-size="8.00">Function&lt; void(Channel</text>
<text text-anchor="start" x="150" y="-397.6" font-family="Helvetica,sans-Serif" font-size="8.00">_obj &amp;&amp;new_channel, Mdt</text>
<text text-anchor="middle" x="222" y="-388.6" font-family="Helvetica,sans-Serif" font-size="8.00">_reader_ptr &amp;&amp;new_channel_mdt)&gt;</text>
</a>
</g>
</g>
<!-- Node24&#45;&gt;Node4 -->
<g id="edge14" class="edge">
<title>Node24&#45;&gt;Node4</title>
<path fill="none" stroke="#9a32cd" stroke-dasharray="5,2" d="M312.22,-401.57C354.78,-403.61 406.27,-407.63 452,-415.5 457.75,-416.49 463.67,-417.7 469.59,-419.04"/>
<polygon fill="#9a32cd" stroke="#9a32cd" points="312.31,-398.07 302.16,-401.11 311.99,-405.06 312.31,-398.07"/>
<text text-anchor="start" x="325.5" y="-427.1" font-family="Helvetica,sans-Serif" font-size="8.00"> m_on_passive_open_channel</text>
<text text-anchor="middle" x="386" y="-418.1" font-family="Helvetica,sans-Serif" font-size="8.00">_func_or_empty</text>
</g>
<!-- Node25 -->
<g id="node15" class="node">
<title>Node25</title>
<g id="a_node15"><a xlink:title=" ">
<polygon fill="white" stroke="#bfbfbf" points="192,-148 192,-165 252,-165 252,-148 192,-148"/>
<text text-anchor="middle" x="222" y="-154.6" font-family="Helvetica,sans-Serif" font-size="8.00">Error_code</text>
</a>
</g>
</g>
<!-- Node25&#45;&gt;Node3 -->
<g id="edge25" class="edge">
<title>Node25&#45;&gt;Node3</title>
<path fill="none" stroke="#9a32cd" stroke-dasharray="5,2" d="M262.39,-161.7C275.45,-164.4 289.76,-168.45 302,-174.5 311.33,-179.12 310.63,-184.95 320,-189.5 373.95,-215.69 398.41,-190.57 452,-217.5 631.04,-307.47 782.97,-502.49 840.43,-582.82"/>
<polygon fill="#9a32cd" stroke="#9a32cd" points="262.73,-158.2 252.26,-159.82 261.45,-165.08 262.73,-158.2"/>
<text text-anchor="middle" x="543" y="-328.1" font-family="Helvetica,sans-Serif" font-size="8.00"> m_pre_init_err_code</text>
</g>
<!-- Node25&#45;&gt;Node4 -->
<g id="edge15" class="edge">
<title>Node25&#45;&gt;Node4</title>
<path fill="none" stroke="#9a32cd" stroke-dasharray="5,2" d="M262.32,-158.34C276.1,-160.71 290.9,-165.41 302,-174.5 317.09,-186.85 304.43,-202.77 320,-214.5 367.35,-250.16 404.88,-197.54 452,-233.5 512.59,-279.74 533.07,-375.2 539.4,-418.41"/>
<polygon fill="#9a32cd" stroke="#9a32cd" points="262.43,-154.82 252.05,-156.95 261.49,-161.76 262.43,-154.82"/>
<text text-anchor="start" x="337.5" y="-245.1" font-family="Helvetica,sans-Serif" font-size="8.00"> m_peer_state_err_code</text>
<text text-anchor="middle" x="386" y="-236.1" font-family="Helvetica,sans-Serif" font-size="8.00">_or_ok</text>
</g>
<!-- Node26 -->
<g id="node16" class="node">
<title>Node26</title>
<g id="a_node16"><a xlink:title=" ">
<polygon fill="white" stroke="#bfbfbf" points="489.5,-834 489.5,-851 596.5,-851 596.5,-834 489.5,-834"/>
<text text-anchor="middle" x="543" y="-840.6" font-family="Helvetica,sans-Serif" font-size="8.00">flow::log::Log_context</text>
</a>
</g>
</g>
<!-- Node26&#45;&gt;Node3 -->
<g id="edge16" class="edge">
<title>Node26&#45;&gt;Node3</title>
<path fill="none" stroke="midnightblue" d="M606.61,-849.53C647.01,-850.99 699.08,-846.81 738,-822.5 800.45,-783.49 837.16,-701.3 853.93,-654.02"/>
<polygon fill="midnightblue" stroke="midnightblue" points="606.76,-846.04 596.6,-849.05 606.42,-853.03 606.76,-846.04"/>
</g>
<!-- Node27 -->
<g id="node17" class="node">
<title>Node27</title>
<g id="a_node17"><a xlink:title=" ">
<polygon fill="white" stroke="#bfbfbf" points="516.5,-798 516.5,-815 569.5,-815 569.5,-798 516.5,-798"/>
<text text-anchor="middle" x="543" y="-804.6" font-family="Helvetica,sans-Serif" font-size="8.00">ShmType</text>
</a>
</g>
</g>
<!-- Node27&#45;&gt;Node3 -->
<g id="edge17" class="edge">
<title>Node27&#45;&gt;Node3</title>
<path fill="none" stroke="#9a32cd" stroke-dasharray="5,2" d="M579.87,-810.21C620.85,-812.74 688.62,-811.54 738,-783.5 790.34,-753.78 828.32,-692.92 848.48,-654"/>
<polygon fill="#9a32cd" stroke="#9a32cd" points="580.03,-806.72 569.8,-809.49 579.52,-813.7 580.03,-806.72"/>
<text text-anchor="middle" x="686" y="-812.1" font-family="Helvetica,sans-Serif" font-size="8.00"> S_SHM_TYPE</text>
</g>
<!-- Node28&#45;&gt;Node3 -->
<g id="edge20" class="edge">
<title>Node28&#45;&gt;Node3</title>
<path fill="none" stroke="#9a32cd" stroke-dasharray="5,2" d="M614.97,-136.2C655.78,-139.21 705.29,-149.82 738,-180.5 797.77,-236.56 843.92,-488.33 859.39,-582.66"/>
<polygon fill="#9a32cd" stroke="#9a32cd" points="614.99,-132.7 604.79,-135.59 614.57,-139.68 614.99,-132.7"/>
<text text-anchor="middle" x="686" y="-183.1" font-family="Helvetica,sans-Serif" font-size="8.00"> m_master_sock_stm</text>
</g>
<!-- Node29 -->
<g id="node19" class="node">
<title>Node29</title>
<g id="a_node19"><a xlink:title=" ">
<polygon fill="white" stroke="#bfbfbf" points="204.5,-112 204.5,-129 239.5,-129 239.5,-112 204.5,-112"/>
<text text-anchor="middle" x="222" y="-118.6" font-family="Helvetica,sans-Serif" font-size="8.00">bool</text>
</a>
</g>
</g>
<!-- Node29&#45;&gt;Node28 -->
<g id="edge22" class="edge">
<title>Node29&#45;&gt;Node28</title>
<path fill="none" stroke="#9a32cd" stroke-dasharray="5,2" d="M249.88,-119.13C292.73,-117.28 379.15,-114.91 452,-121.5 461.48,-122.36 471.47,-123.69 481.19,-125.23"/>
<polygon fill="#9a32cd" stroke="#9a32cd" points="249.54,-115.64 239.71,-119.59 249.86,-122.63 249.54,-115.64"/>
<text text-anchor="middle" x="386" y="-151.1" font-family="Helvetica,sans-Serif" font-size="8.00"> S_BLOB_UNDERFLOW_ALLOWED</text>
<text text-anchor="start" x="320" y="-142.1" font-family="Helvetica,sans-Serif" font-size="8.00">S_META_BLOB_UNDERFLOW</text>
<text text-anchor="middle" x="386" y="-133.1" font-family="Helvetica,sans-Serif" font-size="8.00">_ALLOWED</text>
<text text-anchor="middle" x="386" y="-124.1" font-family="Helvetica,sans-Serif" font-size="8.00">S_TRANSMIT_NATIVE_HANDLES</text>
</g>
<!-- Node30 -->
<g id="node20" class="node">
<title>Node30</title>
<g id="a_node20"><a xlink:title=" ">
<polygon fill="white" stroke="#bfbfbf" points="163,-58 163,-93 281,-93 281,-58 163,-58"/>
<text text-anchor="start" x="171" y="-82.6" font-family="Helvetica,sans-Serif" font-size="8.00">propagate_const&lt; boost</text>
<text text-anchor="start" x="171" y="-73.6" font-family="Helvetica,sans-Serif" font-size="8.00">::movelib::unique_ptr</text>
<text text-anchor="middle" x="222" y="-64.6" font-family="Helvetica,sans-Serif" font-size="8.00">&lt; Impl &gt; &gt;</text>
</a>
</g>
</g>
<!-- Node30&#45;&gt;Node28 -->
<g id="edge24" class="edge">
<title>Node30&#45;&gt;Node28</title>
<path fill="none" stroke="#9a32cd" stroke-dasharray="5,2" d="M291.49,-77.39C337.79,-80.29 399.78,-87.39 452,-104.5 460.7,-107.35 461.6,-110.87 470,-114.5 478.43,-118.15 487.63,-121.52 496.56,-124.49"/>
<polygon fill="#9a32cd" stroke="#9a32cd" points="291.45,-73.88 281.27,-76.8 291.05,-80.87 291.45,-73.88"/>
<text text-anchor="middle" x="386" y="-107.1" font-family="Helvetica,sans-Serif" font-size="8.00"> m_impl</text>
</g>
<!-- Node31 -->
<g id="node21" class="node">
<title>Node31</title>
<g id="a_node21"><a xlink:title=" ">
<polygon fill="white" stroke="#bfbfbf" points="509,-736 509,-753 577,-753 577,-736 509,-736"/>
<text text-anchor="middle" x="543" y="-742.6" font-family="Helvetica,sans-Serif" font-size="8.00">unsigned int</text>
</a>
</g>
</g>
<!-- Node31&#45;&gt;Node3 -->
<g id="edge26" class="edge">
<title>Node31&#45;&gt;Node3</title>
<path fill="none" stroke="#9a32cd" stroke-dasharray="5,2" d="M587.18,-741.5C627.53,-737.5 688.75,-728.31 738,-707.5 769.12,-694.35 800.25,-672.7 823.9,-654.05"/>
<polygon fill="#9a32cd" stroke="#9a32cd" points="586.78,-738.02 577.14,-742.43 587.42,-744.99 586.78,-738.02"/>
<text text-anchor="start" x="634" y="-773.1" font-family="Helvetica,sans-Serif" font-size="8.00"> m_last_actively_opened</text>
<text text-anchor="middle" x="686" y="-764.1" font-family="Helvetica,sans-Serif" font-size="8.00">_channel_id</text>
<text text-anchor="middle" x="686" y="-755.1" font-family="Helvetica,sans-Serif" font-size="8.00">m_last_channel_mq_id</text>
<text text-anchor="start" x="634" y="-746.1" font-family="Helvetica,sans-Serif" font-size="8.00">m_last_passively_opened</text>
<text text-anchor="middle" x="686" y="-737.1" font-family="Helvetica,sans-Serif" font-size="8.00">_channel_id</text>
</g>
<!-- Node32 -->
<g id="node22" class="node">
<title>Node32</title>
<g id="a_node22"><a xlink:title=" ">
<polygon fill="white" stroke="#bfbfbf" points="485,-700 485,-717 601,-717 601,-700 485,-700"/>
<text text-anchor="middle" x="543" y="-706.6" font-family="Helvetica,sans-Serif" font-size="8.00">Single_thread_task_loop</text>
</a>
</g>
</g>
<!-- Node32&#45;&gt;Node3 -->
<g id="edge27" class="edge">
<title>Node32&#45;&gt;Node3</title>
<path fill="none" stroke="#9a32cd" stroke-dasharray="5,2" d="M611.55,-699.14C649.22,-693.04 696.73,-683.9 738,-671.5 754.13,-666.65 771.01,-660.46 787,-654.02"/>
<polygon fill="#9a32cd" stroke="#9a32cd" points="610.53,-695.76 601.2,-700.78 611.62,-702.67 610.53,-695.76"/>
<text text-anchor="middle" x="686" y="-697.1" font-family="Helvetica,sans-Serif" font-size="8.00"> m_async_worker</text>
</g>
<!-- Node33 -->
<g id="node23" class="node">
<title>Node33</title>
<g id="a_node23"><a xlink:title=" ">
<polygon fill="white" stroke="#bfbfbf" points="472,-664 472,-681 614,-681 614,-664 472,-664"/>
<text text-anchor="middle" x="543" y="-670.6" font-family="Helvetica,sans-Serif" font-size="8.00">Master_structured_channel_ptr</text>
</a>
</g>
</g>
<!-- Node33&#45;&gt;Node3 -->
<g id="edge28" class="edge">
<title>Node33&#45;&gt;Node3</title>
<path fill="none" stroke="#9a32cd" stroke-dasharray="5,2" d="M616.22,-662.51C652.78,-657.25 697.82,-650.45 738,-643.5 743.87,-642.48 749.88,-641.41 755.95,-640.3"/>
<polygon fill="#9a32cd" stroke="#9a32cd" points="615.55,-659.07 606.15,-663.95 616.54,-666 615.55,-659.07"/>
<text text-anchor="middle" x="686" y="-661.1" font-family="Helvetica,sans-Serif" font-size="8.00"> m_master_channel</text>
</g>
<!-- Node34 -->
<g id="node24" class="node">
<title>Node34</title>
<g id="a_node24"><a xlink:href="classFunction_3_01void_07_08_4.html" target="_top" xlink:title=" ">
<polygon fill="white" stroke="#bfbfbf" points="497.5,-628 497.5,-645 588.5,-645 588.5,-628 497.5,-628"/>
<text text-anchor="middle" x="543" y="-634.6" font-family="Helvetica,sans-Serif" font-size="8.00">Function&lt; void()&gt;</text>
</a>
</g>
</g>
<!-- Node34&#45;&gt;Node3 -->
<g id="edge29" class="edge">
<title>Node34&#45;&gt;Node3</title>
<path fill="none" stroke="#9a32cd" stroke-dasharray="5,2" d="M598.88,-633.42C641.84,-631.01 702.96,-627.59 755.79,-624.62"/>
<polygon fill="#9a32cd" stroke="#9a32cd" points="598.42,-629.94 588.63,-634 598.81,-636.93 598.42,-629.94"/>
<text text-anchor="middle" x="686" y="-633.1" font-family="Helvetica,sans-Serif" font-size="8.00"> m_deinit_func_or_empty</text>
</g>
<!-- Node35 -->
<g id="node25" class="node">
<title>Node35</title>
<g id="a_node25"><a xlink:title=" ">
<polygon fill="white" stroke="black" points="805.5,-91 805.5,-108 926.5,-108 926.5,-91 805.5,-91"/>
<text text-anchor="middle" x="866" y="-97.6" font-family="Helvetica,sans-Serif" font-size="8.00">std::shared_ptr&lt; Arena &gt;</text>
</a>
</g>
</g>
<!-- Node35&#45;&gt;Node1 -->
<g id="edge35" class="edge">
<title>Node35&#45;&gt;Node1</title>
<path fill="none" stroke="#9a32cd" stroke-dasharray="5,2" d="M936.96,-105.94C1017.03,-112.35 1152.1,-120.19 1268,-112.5 1279.93,-111.71 1292.57,-110.42 1304.79,-108.93"/>
<polygon fill="#9a32cd" stroke="#9a32cd" points="936.76,-102.41 926.51,-105.09 936.19,-109.39 936.76,-102.41"/>
<text text-anchor="middle" x="1174" y="-119.1" font-family="Helvetica,sans-Serif" font-size="8.00"> m_app_shm</text>
</g>
<!-- Node35&#45;&gt;Node2 -->
<g id="edge30" class="edge">
<title>Node35&#45;&gt;Node2</title>
<path fill="none" stroke="#9a32cd" stroke-dasharray="5,2" d="M936.69,-90.16C979.13,-84.48 1033.88,-77.14 1079.99,-70.96"/>
<polygon fill="#9a32cd" stroke="#9a32cd" points="936.17,-86.7 926.73,-91.5 937.1,-93.64 936.17,-86.7"/>
<text text-anchor="middle" x="1028" y="-84.1" font-family="Helvetica,sans-Serif" font-size="8.00"> m_session_shm</text>
</g>
<!-- Node36 -->
<g id="node26" class="node">
<title>Node36</title>
<g id="a_node26"><a xlink:title=" ">
<polygon fill="white" stroke="#bfbfbf" points="522.5,-88 522.5,-105 563.5,-105 563.5,-88 522.5,-88"/>
<text text-anchor="middle" x="543" y="-94.6" font-family="Helvetica,sans-Serif" font-size="8.00">Arena</text>
</a>
</g>
</g>
<!-- Node36&#45;&gt;Node35 -->
<g id="edge31" class="edge">
<title>Node36&#45;&gt;Node35</title>
<path fill="none" stroke="#9a32cd" stroke-dasharray="5,2" d="M573.92,-96.78C626.57,-97.27 736.67,-98.3 805.35,-98.94"/>
<polygon fill="#9a32cd" stroke="#9a32cd" points="573.63,-93.28 563.6,-96.68 573.56,-100.28 573.63,-93.28"/>
<text text-anchor="middle" x="686" y="-101.1" font-family="Helvetica,sans-Serif" font-size="8.00"> ptr</text>
</g>
<!-- Node37 -->
<g id="node27" class="node">
<title>Node37</title>
<g id="a_node27"><a xlink:title=" ">
<polygon fill="white" stroke="#bfbfbf" points="795,-0.5 795,-26.5 937,-26.5 937,-0.5 795,-0.5"/>
<text text-anchor="start" x="803" y="-16.1" font-family="Helvetica,sans-Serif" font-size="8.00">optional&lt; typename</text>
<text text-anchor="middle" x="866" y="-7.1" font-family="Helvetica,sans-Serif" font-size="8.00"> Shm_session::Shm_channel &gt;</text>
</a>
</g>
</g>
<!-- Node37&#45;&gt;Node2 -->
<g id="edge32" class="edge">
<title>Node37&#45;&gt;Node2</title>
<path fill="none" stroke="#9a32cd" stroke-dasharray="5,2" d="M947.34,-25.31C988.01,-31.3 1037.59,-38.59 1079.92,-44.81"/>
<polygon fill="#9a32cd" stroke="#9a32cd" points="947.61,-21.82 937.2,-23.82 946.59,-28.74 947.61,-21.82"/>
<text text-anchor="middle" x="1028" y="-44.1" font-family="Helvetica,sans-Serif" font-size="8.00"> m_shm_channel</text>
</g>
<!-- Node38 -->
<g id="node28" class="node">
<title>Node38</title>
<g id="a_node28"><a xlink:title=" ">
<polygon fill="white" stroke="black" points="813,-45.5 813,-71.5 919,-71.5 919,-45.5 813,-45.5"/>
<text text-anchor="start" x="821" y="-61.1" font-family="Helvetica,sans-Serif" font-size="8.00">std::shared_ptr&lt; Shm</text>
<text text-anchor="middle" x="866" y="-52.1" font-family="Helvetica,sans-Serif" font-size="8.00">_session &gt;</text>
</a>
</g>
</g>
<!-- Node38&#45;&gt;Node2 -->
<g id="edge33" class="edge">
<title>Node38&#45;&gt;Node2</title>
<path fill="none" stroke="#9a32cd" stroke-dasharray="5,2" d="M929.36,-58.5C972.64,-58.5 1031.04,-58.5 1079.82,-58.5"/>
<polygon fill="#9a32cd" stroke="#9a32cd" points="929.26,-55 919.26,-58.5 929.26,-62 929.26,-55"/>
<text text-anchor="middle" x="1028" y="-61.1" font-family="Helvetica,sans-Serif" font-size="8.00"> m_shm_session</text>
</g>
<!-- Node39 -->
<g id="node29" class="node">
<title>Node39</title>
<g id="a_node29"><a xlink:title=" ">
<polygon fill="white" stroke="#bfbfbf" points="508,-50 508,-67 578,-67 578,-50 508,-50"/>
<text text-anchor="middle" x="543" y="-56.6" font-family="Helvetica,sans-Serif" font-size="8.00">Shm_session</text>
</a>
</g>
</g>
<!-- Node39&#45;&gt;Node38 -->
<g id="edge34" class="edge">
<title>Node39&#45;&gt;Node38</title>
<path fill="none" stroke="#9a32cd" stroke-dasharray="5,2" d="M588.11,-58.5C646.78,-58.5 750.34,-58.5 812.82,-58.5"/>
<polygon fill="#9a32cd" stroke="#9a32cd" points="588.05,-55 578.05,-58.5 588.05,-62 588.05,-55"/>
<text text-anchor="middle" x="686" y="-61.1" font-family="Helvetica,sans-Serif" font-size="8.00"> ptr</text>
</g>
</g>
</svg>
