<?xml version="1.0" encoding="UTF-8" standalone="no"?>
<!DOCTYPE svg PUBLIC "-//W3C//DTD SVG 1.1//EN"
 "http://www.w3.org/Graphics/SVG/1.1/DTD/svg11.dtd">
<!-- Generated by graphviz version 2.43.0 (0)
 -->
<!-- Title: ipc::transport::sync_io::Native_socket_stream_acceptor::async_accept Pages: 1 -->
<svg width="610pt" height="146pt"
 viewBox="0.00 0.00 610.00 146.00" xmlns="http://www.w3.org/2000/svg" xmlns:xlink="http://www.w3.org/1999/xlink">
<g id="graph0" class="graph" transform="scale(1 1) rotate(0) translate(4 142)">
<title>ipc::transport::sync_io::Native_socket_stream_acceptor::async_accept</title>
<polygon fill="white" stroke="transparent" points="-4,4 -4,-142 606,-142 606,4 -4,4"/>
<!-- Node1 -->
<g id="node1" class="node">
<title>Node1</title>
<g id="a_node1"><a xlink:title="Starts background attempt at a peer connection being established, contingent on the user reporting (v...">
<polygon fill="#bfbfbf" stroke="black" points="0,-27.5 0,-62.5 123,-62.5 123,-27.5 0,-27.5"/>
<text text-anchor="start" x="8" y="-52.1" font-family="Helvetica,sans-Serif" font-size="8.00">ipc::transport::sync</text>
<text text-anchor="start" x="8" y="-43.1" font-family="Helvetica,sans-Serif" font-size="8.00">_io::Native_socket_stream</text>
<text text-anchor="middle" x="61.5" y="-34.1" font-family="Helvetica,sans-Serif" font-size="8.00">_acceptor::async_accept</text>
</a>
</g>
</g>
<!-- Node2 -->
<g id="node2" class="node">
<title>Node2</title>
<g id="a_node2"><a xlink:href="classipc_1_1transport_1_1Native__socket__stream__acceptor.html#a81426af495ba5a9c832d1ba35fe23ba5" target="_top" xlink:title="Asynchronously awaits for a peer connection to be established and calls on_done_func(),...">
<polygon fill="white" stroke="black" points="159,-72.5 159,-107.5 278,-107.5 278,-72.5 159,-72.5"/>
<text text-anchor="start" x="167" y="-97.1" font-family="Helvetica,sans-Serif" font-size="8.00">ipc::transport::Native</text>
<text text-anchor="start" x="167" y="-88.1" font-family="Helvetica,sans-Serif" font-size="8.00">_socket_stream_acceptor</text>
<text text-anchor="middle" x="218.5" y="-79.1" font-family="Helvetica,sans-Serif" font-size="8.00">::async_accept</text>
</a>
</g>
</g>
<!-- Node1&#45;&gt;Node2 -->
<g id="edge1" class="edge">
<title>Node1&#45;&gt;Node2</title>
<path fill="none" stroke="midnightblue" d="M122.87,-62.53C131.46,-65.02 140.34,-67.6 149.06,-70.13"/>
<polygon fill="midnightblue" stroke="midnightblue" points="148.24,-73.54 158.82,-72.96 150.19,-66.81 148.24,-73.54"/>
</g>
<!-- Node6 -->
<g id="node6" class="node">
<title>Node6</title>
<g id="a_node6"><a xlink:href="namespaceipc_1_1util.html#a814272e555c0592b0caf92b7bc3d64b3" target="_top" xlink:title="Reads a byte via the given pipe reader.">
<polygon fill="white" stroke="black" points="162,-36.5 162,-53.5 275,-53.5 275,-36.5 162,-36.5"/>
<text text-anchor="middle" x="218.5" y="-43.1" font-family="Helvetica,sans-Serif" font-size="8.00">ipc::util::pipe_consume</text>
</a>
</g>
</g>
<!-- Node1&#45;&gt;Node6 -->
<g id="edge5" class="edge">
<title>Node1&#45;&gt;Node6</title>
<path fill="none" stroke="midnightblue" d="M123.32,-45C132.66,-45 142.34,-45 151.78,-45"/>
<polygon fill="midnightblue" stroke="midnightblue" points="151.91,-48.5 161.91,-45 151.91,-41.5 151.91,-48.5"/>
</g>
<!-- Node7 -->
<g id="node7" class="node">
<title>Node7</title>
<g id="a_node7"><a xlink:href="namespaceipc_1_1util.html#a5429c6225cc9a271ad8c0041d99c236b" target="_top" xlink:title="Writes a byte to the given pipe writer.">
<polygon fill="white" stroke="black" points="164,-0.5 164,-17.5 273,-17.5 273,-0.5 164,-0.5"/>
<text text-anchor="middle" x="218.5" y="-7.1" font-family="Helvetica,sans-Serif" font-size="8.00">ipc::util::pipe_produce</text>
</a>
</g>
</g>
<!-- Node1&#45;&gt;Node7 -->
<g id="edge6" class="edge">
<title>Node1&#45;&gt;Node7</title>
<path fill="none" stroke="midnightblue" d="M123.32,-30.88C139.03,-27.23 155.7,-23.35 170.58,-19.9"/>
<polygon fill="midnightblue" stroke="midnightblue" points="171.61,-23.25 180.56,-17.58 170.03,-16.43 171.61,-23.25"/>
</g>
<!-- Node3 -->
<g id="node3" class="node">
<title>Node3</title>
<g id="a_node3"><a xlink:href="classipc_1_1transport_1_1Native__socket__stream__acceptor.html#a2063fff89b58cc5b07ee7651f9e42366" target="_top" xlink:title="Non&#45;template impl of async_accept().">
<polygon fill="white" stroke="black" points="314,-72.5 314,-107.5 433,-107.5 433,-72.5 314,-72.5"/>
<text text-anchor="start" x="322" y="-97.1" font-family="Helvetica,sans-Serif" font-size="8.00">ipc::transport::Native</text>
<text text-anchor="start" x="322" y="-88.1" font-family="Helvetica,sans-Serif" font-size="8.00">_socket_stream_acceptor</text>
<text text-anchor="middle" x="373.5" y="-79.1" font-family="Helvetica,sans-Serif" font-size="8.00">::async_accept_impl</text>
</a>
</g>
</g>
<!-- Node2&#45;&gt;Node3 -->
<g id="edge2" class="edge">
<title>Node2&#45;&gt;Node3</title>
<path fill="none" stroke="midnightblue" d="M278.22,-90C286.54,-90 295.17,-90 303.67,-90"/>
<polygon fill="midnightblue" stroke="midnightblue" points="303.94,-93.5 313.94,-90 303.94,-86.5 303.94,-93.5"/>
</g>
<!-- Node4 -->
<g id="node4" class="node">
<title>Node4</title>
<g id="a_node4"><a xlink:href="classipc_1_1transport_1_1Native__socket__stream__acceptor.html#a8ff2e85b30532cb9778aa43c01931955" target="_top" xlink:title="In thread W, gets back to steady state by feeding the given Error_code (which must be the sole elemen...">
<polygon fill="white" stroke="black" points="469,-102.5 469,-137.5 602,-137.5 602,-102.5 469,-102.5"/>
<text text-anchor="start" x="477" y="-127.1" font-family="Helvetica,sans-Serif" font-size="8.00">ipc::transport::Native</text>
<text text-anchor="start" x="477" y="-118.1" font-family="Helvetica,sans-Serif" font-size="8.00">_socket_stream_acceptor</text>
<text text-anchor="middle" x="535.5" y="-109.1" font-family="Helvetica,sans-Serif" font-size="8.00">::feed_error_result_to_deficit</text>
</a>
</g>
</g>
<!-- Node3&#45;&gt;Node4 -->
<g id="edge3" class="edge">
<title>Node3&#45;&gt;Node4</title>
<path fill="none" stroke="midnightblue" d="M433.17,-101C441.5,-102.56 450.17,-104.19 458.77,-105.8"/>
<polygon fill="midnightblue" stroke="midnightblue" points="458.34,-109.28 468.81,-107.68 459.63,-102.4 458.34,-109.28"/>
</g>
<!-- Node5 -->
<g id="node5" class="node">
<title>Node5</title>
<g id="a_node5"><a xlink:href="classipc_1_1transport_1_1Native__socket__stream__acceptor.html#af1ca26531b9dd649046086e4e17f0ba3" target="_top" xlink:title="In thread W, gets back to steady state by feeding the given just&#45;connected peer socket (which must ha...">
<polygon fill="white" stroke="black" points="476,-39 476,-83 595,-83 595,-39 476,-39"/>
<text text-anchor="start" x="484" y="-72.6" font-family="Helvetica,sans-Serif" font-size="8.00">ipc::transport::Native</text>
<text text-anchor="start" x="484" y="-63.6" font-family="Helvetica,sans-Serif" font-size="8.00">_socket_stream_acceptor</text>
<text text-anchor="start" x="484" y="-54.6" font-family="Helvetica,sans-Serif" font-size="8.00">::feed_success_result_to</text>
<text text-anchor="middle" x="535.5" y="-45.6" font-family="Helvetica,sans-Serif" font-size="8.00">_deficit</text>
</a>
</g>
</g>
<!-- Node3&#45;&gt;Node5 -->
<g id="edge4" class="edge">
<title>Node3&#45;&gt;Node5</title>
<path fill="none" stroke="midnightblue" d="M433.17,-79.37C443.82,-77.44 455.02,-75.41 465.93,-73.43"/>
<polygon fill="midnightblue" stroke="midnightblue" points="466.62,-76.86 475.84,-71.63 465.37,-69.97 466.62,-76.86"/>
</g>
</g>
</svg>
