<?xml version="1.0" encoding="UTF-8" standalone="no"?>
<!DOCTYPE svg PUBLIC "-//W3C//DTD SVG 1.1//EN"
 "http://www.w3.org/Graphics/SVG/1.1/DTD/svg11.dtd">
<!-- Generated by graphviz version 2.43.0 (0)
 -->
<!-- Title: ipc::transport::sync_io::Blob_stream_mq_sender_impl::nickname Pages: 1 -->
<svg width="341pt" height="98pt"
 viewBox="0.00 0.00 341.00 98.00" xmlns="http://www.w3.org/2000/svg" xmlns:xlink="http://www.w3.org/1999/xlink">
<g id="graph0" class="graph" transform="scale(1 1) rotate(0) translate(4 94)">
<title>ipc::transport::sync_io::Blob_stream_mq_sender_impl::nickname</title>
<polygon fill="white" stroke="transparent" points="-4,4 -4,-94 337,-94 337,4 -4,4"/>
<!-- Node1 -->
<g id="node1" class="node">
<title>Node1</title>
<g id="a_node1"><a xlink:title="See Blob_stream_mq_sender counterpart, but assuming PEER state.">
<polygon fill="#bfbfbf" stroke="black" points="200,-27.5 200,-62.5 333,-62.5 333,-27.5 200,-27.5"/>
<text text-anchor="start" x="208" y="-52.1" font-family="Helvetica,sans-Serif" font-size="8.00">ipc::transport::sync</text>
<text text-anchor="start" x="208" y="-43.1" font-family="Helvetica,sans-Serif" font-size="8.00">_io::Blob_stream_mq_sender</text>
<text text-anchor="middle" x="266.5" y="-34.1" font-family="Helvetica,sans-Serif" font-size="8.00">_impl::nickname</text>
</a>
</g>
</g>
<!-- Node2 -->
<g id="node2" class="node">
<title>Node2</title>
<g id="a_node2"><a xlink:href="classipc_1_1transport_1_1sync__io_1_1Blob__stream__mq__sender__impl.html#a71caa7f5002886b2c0717645945d7144" target="_top" xlink:title="See Blob_stream_mq_sender counterpart.">
<polygon fill="white" stroke="black" points="0,-54.5 0,-89.5 164,-89.5 164,-54.5 0,-54.5"/>
<text text-anchor="start" x="8" y="-79.1" font-family="Helvetica,sans-Serif" font-size="8.00">ipc::transport::sync</text>
<text text-anchor="start" x="8" y="-70.1" font-family="Helvetica,sans-Serif" font-size="8.00">_io::Blob_stream_mq_sender</text>
<text text-anchor="middle" x="82" y="-61.1" font-family="Helvetica,sans-Serif" font-size="8.00">_impl::Blob_stream_mq_sender_impl</text>
</a>
</g>
</g>
<!-- Node1&#45;&gt;Node2 -->
<g id="edge1" class="edge">
<title>Node1&#45;&gt;Node2</title>
<path fill="none" stroke="midnightblue" d="M189.73,-56.21C181.32,-57.45 172.74,-58.72 164.27,-59.98"/>
<polygon fill="midnightblue" stroke="midnightblue" points="190.49,-59.64 199.87,-54.71 189.47,-52.71 190.49,-59.64"/>
</g>
<!-- Node3 -->
<g id="node3" class="node">
<title>Node3</title>
<g id="a_node3"><a xlink:href="classipc_1_1transport_1_1sync__io_1_1Blob__stream__mq__sender__impl.html#a8bc3464c81b40649e99da6ce2ee5f87c" target="_top" xlink:title="Prints string representation of the given Blob_stream_mq_sender to the given ostream.">
<polygon fill="white" stroke="black" points="15.5,-0.5 15.5,-35.5 148.5,-35.5 148.5,-0.5 15.5,-0.5"/>
<text text-anchor="start" x="23.5" y="-25.1" font-family="Helvetica,sans-Serif" font-size="8.00">ipc::transport::sync</text>
<text text-anchor="start" x="23.5" y="-16.1" font-family="Helvetica,sans-Serif" font-size="8.00">_io::Blob_stream_mq_sender</text>
<text text-anchor="middle" x="82" y="-7.1" font-family="Helvetica,sans-Serif" font-size="8.00">_impl::operator&lt;&lt;</text>
</a>
</g>
</g>
<!-- Node1&#45;&gt;Node3 -->
<g id="edge2" class="edge">
<title>Node1&#45;&gt;Node3</title>
<path fill="none" stroke="midnightblue" d="M189.59,-33.77C175.99,-31.76 161.93,-29.68 148.66,-27.71"/>
<polygon fill="midnightblue" stroke="midnightblue" points="189.47,-37.29 199.87,-35.29 190.49,-30.36 189.47,-37.29"/>
</g>
</g>
</svg>
