<?xml version="1.0" encoding="UTF-8" standalone="no"?>
<!DOCTYPE svg PUBLIC "-//W3C//DTD SVG 1.1//EN"
 "http://www.w3.org/Graphics/SVG/1.1/DTD/svg11.dtd">
<!-- Generated by graphviz version 2.43.0 (0)
 -->
<!-- Title: ipc::transport::struc::shm::Capnp_message_builder&lt; Shm_arena &gt; Pages: 1 -->
<svg width="403pt" height="180pt"
 viewBox="0.00 0.00 403.00 179.50" xmlns="http://www.w3.org/2000/svg" xmlns:xlink="http://www.w3.org/1999/xlink">
<g id="graph0" class="graph" transform="scale(1 1) rotate(0) translate(4 175.5)">
<title>ipc::transport::struc::shm::Capnp_message_builder&lt; Shm_arena &gt;</title>
<polygon fill="white" stroke="transparent" points="-4,4 -4,-175.5 399,-175.5 399,4 -4,4"/>
<!-- Node1 -->
<g id="node1" class="node">
<title>Node1</title>
<g id="a_node1"><a xlink:title="A capnp::MessageBuilder used by shm::Builder: similar to a MallocMessageBuilder with the GROW_HEURIST...">
<polygon fill="#bfbfbf" stroke="black" points="282,-73 282,-108 395,-108 395,-73 282,-73"/>
<text text-anchor="start" x="290" y="-97.6" font-family="Helvetica,sans-Serif" font-size="8.00">ipc::transport::struc</text>
<text text-anchor="start" x="290" y="-88.6" font-family="Helvetica,sans-Serif" font-size="8.00">::shm::Capnp_message</text>
<text text-anchor="middle" x="338.5" y="-79.6" font-family="Helvetica,sans-Serif" font-size="8.00">_builder&lt; Shm_arena &gt;</text>
</a>
</g>
</g>
<!-- Node2 -->
<g id="node2" class="node">
<title>Node2</title>
<g id="a_node2"><a xlink:href="classCapnp__msg__builder__interface.html" target="_top" xlink:title=" ">
<polygon fill="white" stroke="#bfbfbf" points="0,-154 0,-171 137,-171 137,-154 0,-154"/>
<text text-anchor="middle" x="68.5" y="-160.6" font-family="Helvetica,sans-Serif" font-size="8.00">Capnp_msg_builder_interface</text>
</a>
</g>
</g>
<!-- Node2&#45;&gt;Node1 -->
<g id="edge1" class="edge">
<title>Node2&#45;&gt;Node1</title>
<path fill="none" stroke="midnightblue" d="M140.25,-152.24C177.57,-145.85 223.83,-136.37 264,-123.5 276.92,-119.36 290.6,-113.62 302.61,-108.09"/>
<polygon fill="midnightblue" stroke="midnightblue" points="139.26,-148.86 129.97,-153.96 140.41,-155.76 139.26,-148.86"/>
</g>
<!-- Node3 -->
<g id="node3" class="node">
<title>Node3</title>
<g id="a_node3"><a xlink:title=" ">
<polygon fill="white" stroke="#bfbfbf" points="15,-118 15,-135 122,-135 122,-118 15,-118"/>
<text text-anchor="middle" x="68.5" y="-124.6" font-family="Helvetica,sans-Serif" font-size="8.00">flow::log::Log_context</text>
</a>
</g>
</g>
<!-- Node3&#45;&gt;Node1 -->
<g id="edge2" class="edge">
<title>Node3&#45;&gt;Node1</title>
<path fill="none" stroke="midnightblue" d="M131.98,-120.03C170.18,-115.85 220,-109.99 264,-103.5 269.77,-102.65 275.78,-101.7 281.77,-100.7"/>
<polygon fill="midnightblue" stroke="midnightblue" points="131.59,-116.55 122.03,-121.11 132.35,-123.51 131.59,-116.55"/>
</g>
<!-- Node4 -->
<g id="node4" class="node">
<title>Node4</title>
<g id="a_node4"><a xlink:title=" ">
<polygon fill="white" stroke="#bfbfbf" points="45,-82 45,-99 92,-99 92,-82 45,-82"/>
<text text-anchor="middle" x="68.5" y="-88.6" font-family="Helvetica,sans-Serif" font-size="8.00">Arena *</text>
</a>
</g>
</g>
<!-- Node4&#45;&gt;Node1 -->
<g id="edge3" class="edge">
<title>Node4&#45;&gt;Node1</title>
<path fill="none" stroke="#9a32cd" stroke-dasharray="5,2" d="M102.38,-90.5C147.09,-90.5 227.69,-90.5 281.89,-90.5"/>
<polygon fill="#9a32cd" stroke="#9a32cd" points="102.35,-87 92.35,-90.5 102.35,-94 102.35,-87"/>
<text text-anchor="middle" x="209.5" y="-93.1" font-family="Helvetica,sans-Serif" font-size="8.00"> m_arena</text>
</g>
<!-- Node5 -->
<g id="node5" class="node">
<title>Node5</title>
<g id="a_node5"><a xlink:title=" ">
<polygon fill="white" stroke="#bfbfbf" points="48.5,-46 48.5,-63 88.5,-63 88.5,-46 48.5,-46"/>
<text text-anchor="middle" x="68.5" y="-52.6" font-family="Helvetica,sans-Serif" font-size="8.00">size_t</text>
</a>
</g>
</g>
<!-- Node5&#45;&gt;Node1 -->
<g id="edge4" class="edge">
<title>Node5&#45;&gt;Node1</title>
<path fill="none" stroke="#9a32cd" stroke-dasharray="5,2" d="M98.97,-57.45C137.14,-61.4 205.68,-68.9 264,-77.5 269.77,-78.35 275.78,-79.3 281.77,-80.3"/>
<polygon fill="#9a32cd" stroke="#9a32cd" points="98.9,-53.93 88.6,-56.39 98.19,-60.89 98.9,-53.93"/>
<text text-anchor="middle" x="209.5" y="-80.1" font-family="Helvetica,sans-Serif" font-size="8.00"> m_segment_sz</text>
</g>
<!-- Node6 -->
<g id="node6" class="node">
<title>Node6</title>
<g id="a_node6"><a xlink:title=" ">
<polygon fill="white" stroke="#bfbfbf" points="1,-0.5 1,-26.5 136,-26.5 136,-0.5 1,-0.5"/>
<text text-anchor="start" x="9" y="-16.1" font-family="Helvetica,sans-Serif" font-size="8.00">template Handle&lt; Segments</text>
<text text-anchor="middle" x="68.5" y="-7.1" font-family="Helvetica,sans-Serif" font-size="8.00">_in_shm &gt;</text>
</a>
</g>
</g>
<!-- Node6&#45;&gt;Node1 -->
<g id="edge5" class="edge">
<title>Node6&#45;&gt;Node1</title>
<path fill="none" stroke="#9a32cd" stroke-dasharray="5,2" d="M146.19,-22.48C182.59,-28.15 226.28,-37.02 264,-50.5 280.01,-56.22 296.73,-65.07 310.18,-72.99"/>
<polygon fill="#9a32cd" stroke="#9a32cd" points="146.53,-18.99 136.13,-20.96 145.49,-25.91 146.53,-18.99"/>
<text text-anchor="middle" x="209.5" y="-53.1" font-family="Helvetica,sans-Serif" font-size="8.00"> m_serialization_segments</text>
</g>
</g>
</svg>
