<?xml version="1.0" encoding="UTF-8" standalone="no"?>
<!DOCTYPE svg PUBLIC "-//W3C//DTD SVG 1.1//EN"
 "http://www.w3.org/Graphics/SVG/1.1/DTD/svg11.dtd">
<!-- Generated by graphviz version 2.43.0 (0)
 -->
<!-- Title: ipc::transport::Channel::init_blob_pipe Pages: 1 -->
<svg width="269pt" height="80pt"
 viewBox="0.00 0.00 269.00 80.00" xmlns="http://www.w3.org/2000/svg" xmlns:xlink="http://www.w3.org/1999/xlink">
<g id="graph0" class="graph" transform="scale(1 1) rotate(0) translate(4 76)">
<title>ipc::transport::Channel::init_blob_pipe</title>
<polygon fill="white" stroke="transparent" points="-4,4 -4,-76 265,-76 265,4 -4,4"/>
<!-- Node1 -->
<g id="node1" class="node">
<title>Node1</title>
<g id="a_node1"><a xlink:title="Completes initialization of the blobs pipe by taking ownership (via move semantics) of an object that...">
<polygon fill="#bfbfbf" stroke="black" points="149,-22.5 149,-48.5 261,-48.5 261,-22.5 149,-22.5"/>
<text text-anchor="start" x="157" y="-38.1" font-family="Helvetica,sans-Serif" font-size="8.00">ipc::transport::Channel</text>
<text text-anchor="middle" x="205" y="-29.1" font-family="Helvetica,sans-Serif" font-size="8.00">::init_blob_pipe</text>
</a>
</g>
</g>
<!-- Node2 -->
<g id="node2" class="node">
<title>Node2</title>
<g id="a_node2"><a xlink:href="classipc_1_1transport_1_1Channel.html#add016cbac936d3da6c861755ac88b7a2" target="_top" xlink:title="Converts a sync_io&#45;peer&#45;bearing *this to a returned async&#45;I/O&#45;peer&#45;bearing new Channel,...">
<polygon fill="white" stroke="black" points="0.5,-45.5 0.5,-71.5 112.5,-71.5 112.5,-45.5 0.5,-45.5"/>
<text text-anchor="start" x="8.5" y="-61.1" font-family="Helvetica,sans-Serif" font-size="8.00">ipc::transport::Channel</text>
<text text-anchor="middle" x="56.5" y="-52.1" font-family="Helvetica,sans-Serif" font-size="8.00">::async_io_obj</text>
</a>
</g>
</g>
<!-- Node1&#45;&gt;Node2 -->
<g id="edge1" class="edge">
<title>Node1&#45;&gt;Node2</title>
<path fill="none" stroke="midnightblue" d="M138.65,-45.76C130.07,-47.11 121.35,-48.48 112.96,-49.79"/>
<polygon fill="midnightblue" stroke="midnightblue" points="139.28,-49.2 148.61,-44.2 138.19,-42.29 139.28,-49.2"/>
</g>
<!-- Node3 -->
<g id="node3" class="node">
<title>Node3</title>
<g id="a_node3"><a xlink:href="classipc_1_1transport_1_1Mqs__channel.html#a3d51b0a0be20d9c3ce93b239290ea188" target="_top" xlink:title="Constructs the Channel in PEER state.">
<polygon fill="white" stroke="black" points="0,-0.5 0,-26.5 113,-26.5 113,-0.5 0,-0.5"/>
<text text-anchor="start" x="8" y="-16.1" font-family="Helvetica,sans-Serif" font-size="8.00">ipc::transport::Mqs</text>
<text text-anchor="middle" x="56.5" y="-7.1" font-family="Helvetica,sans-Serif" font-size="8.00">_channel::Mqs_channel</text>
</a>
</g>
</g>
<!-- Node1&#45;&gt;Node3 -->
<g id="edge2" class="edge">
<title>Node1&#45;&gt;Node3</title>
<path fill="none" stroke="midnightblue" d="M138.51,-25.67C130.15,-24.41 121.64,-23.13 113.45,-21.9"/>
<polygon fill="midnightblue" stroke="midnightblue" points="138.21,-29.16 148.61,-27.18 139.25,-22.24 138.21,-29.16"/>
</g>
</g>
</svg>
