<?xml version="1.0" encoding="UTF-8" standalone="no"?>
<!DOCTYPE svg PUBLIC "-//W3C//DTD SVG 1.1//EN"
 "http://www.w3.org/Graphics/SVG/1.1/DTD/svg11.dtd">
<!-- Generated by graphviz version 2.43.0 (0)
 -->
<!-- Title: ipc::session::Session_base&lt; S_MQ_TYPE_OR_NONE, S_TRANSMIT_NATIVE_HANDLES, Mdt_payload &gt;::Graceful_finisher Pages: 1 -->
<svg width="232pt" height="107pt"
 viewBox="0.00 0.00 232.00 107.00" xmlns="http://www.w3.org/2000/svg" xmlns:xlink="http://www.w3.org/1999/xlink">
<g id="graph0" class="graph" transform="scale(1 1) rotate(0) translate(4 103)">
<title>ipc::session::Session_base&lt; S_MQ_TYPE_OR_NONE, S_TRANSMIT_NATIVE_HANDLES, Mdt_payload &gt;::Graceful_finisher</title>
<polygon fill="white" stroke="transparent" points="-4,4 -4,-103 228,-103 228,4 -4,4"/>
<!-- Node1 -->
<g id="node1" class="node">
<title>Node1</title>
<g id="a_node1"><a xlink:title="Optional to use by subclasses, this operates a simple state machine that carries out a graceful&#45;sessi...">
<polygon fill="#bfbfbf" stroke="black" points="36,-0.5 36,-44.5 191,-44.5 191,-0.5 36,-0.5"/>
<text text-anchor="start" x="44" y="-34.1" font-family="Helvetica,sans-Serif" font-size="8.00">ipc::session::Session</text>
<text text-anchor="start" x="44" y="-25.1" font-family="Helvetica,sans-Serif" font-size="8.00">_base&lt; S_MQ_TYPE_OR_NONE,</text>
<text text-anchor="start" x="44" y="-16.1" font-family="Helvetica,sans-Serif" font-size="8.00"> S_TRANSMIT_NATIVE_HANDLES,</text>
<text text-anchor="middle" x="113.5" y="-7.1" font-family="Helvetica,sans-Serif" font-size="8.00"> Mdt_payload &gt;::Graceful_finisher</text>
</a>
</g>
</g>
<!-- Node2 -->
<g id="node2" class="node">
<title>Node2</title>
<g id="a_node2"><a xlink:title=" ">
<polygon fill="white" stroke="#bfbfbf" points="0,-81.5 0,-98.5 107,-98.5 107,-81.5 0,-81.5"/>
<text text-anchor="middle" x="53.5" y="-88.1" font-family="Helvetica,sans-Serif" font-size="8.00">flow::log::Log_context</text>
</a>
</g>
</g>
<!-- Node2&#45;&gt;Node1 -->
<g id="edge1" class="edge">
<title>Node2&#45;&gt;Node1</title>
<path fill="none" stroke="midnightblue" d="M67.24,-74C75.22,-65.29 85.39,-54.18 94.17,-44.6"/>
<polygon fill="midnightblue" stroke="midnightblue" points="64.56,-71.75 60.38,-81.49 69.72,-76.48 64.56,-71.75"/>
</g>
<!-- Node3 -->
<g id="node3" class="node">
<title>Node3</title>
<g id="a_node3"><a xlink:title=" ">
<polygon fill="white" stroke="#bfbfbf" points="125,-81.5 125,-98.5 224,-98.5 224,-81.5 125,-81.5"/>
<text text-anchor="middle" x="174.5" y="-88.1" font-family="Helvetica,sans-Serif" font-size="8.00">boost::noncopyable</text>
</a>
</g>
</g>
<!-- Node3&#45;&gt;Node1 -->
<g id="edge2" class="edge">
<title>Node3&#45;&gt;Node1</title>
<path fill="none" stroke="#8b1a1a" d="M160.53,-74C152.42,-65.29 142.08,-54.18 133.15,-44.6"/>
<polygon fill="#8b1a1a" stroke="#8b1a1a" points="158.13,-76.55 167.5,-81.49 163.25,-71.78 158.13,-76.55"/>
</g>
</g>
</svg>
