<?xml version="1.0" encoding="UTF-8" standalone="no"?>
<!DOCTYPE svg PUBLIC "-//W3C//DTD SVG 1.1//EN"
 "http://www.w3.org/Graphics/SVG/1.1/DTD/svg11.dtd">
<!-- Generated by graphviz version 2.43.0 (0)
 -->
<!-- Title: ipc::transport::Native_socket_stream::receive_blob_max_size Pages: 1 -->
<svg width="294pt" height="44pt"
 viewBox="0.00 0.00 294.00 44.00" xmlns="http://www.w3.org/2000/svg" xmlns:xlink="http://www.w3.org/1999/xlink">
<g id="graph0" class="graph" transform="scale(1 1) rotate(0) translate(4 40)">
<title>ipc::transport::Native_socket_stream::receive_blob_max_size</title>
<polygon fill="white" stroke="transparent" points="-4,4 -4,-40 290,-40 290,4 -4,4"/>
<!-- Node1 -->
<g id="node1" class="node">
<title>Node1</title>
<g id="a_node1"><a xlink:title="Implements Blob_receiver API per contract.">
<polygon fill="#bfbfbf" stroke="black" points="170,-0.5 170,-35.5 286,-35.5 286,-0.5 170,-0.5"/>
<text text-anchor="start" x="178" y="-25.1" font-family="Helvetica,sans-Serif" font-size="8.00">ipc::transport::Native</text>
<text text-anchor="start" x="178" y="-16.1" font-family="Helvetica,sans-Serif" font-size="8.00">_socket_stream::receive</text>
<text text-anchor="middle" x="228" y="-7.1" font-family="Helvetica,sans-Serif" font-size="8.00">_blob_max_size</text>
</a>
</g>
</g>
<!-- Node2 -->
<g id="node2" class="node">
<title>Node2</title>
<g id="a_node2"><a xlink:href="classipc_1_1transport_1_1Native__socket__stream_1_1Impl.html#ae599fae31c48348f10341c6c70e343e7" target="_top" xlink:title="See Native_socket_stream counterpart.">
<polygon fill="white" stroke="black" points="0,-0.5 0,-35.5 134,-35.5 134,-0.5 0,-0.5"/>
<text text-anchor="start" x="8" y="-25.1" font-family="Helvetica,sans-Serif" font-size="8.00">ipc::transport::Native</text>
<text text-anchor="start" x="8" y="-16.1" font-family="Helvetica,sans-Serif" font-size="8.00">_socket_stream::Impl::</text>
<text text-anchor="middle" x="67" y="-7.1" font-family="Helvetica,sans-Serif" font-size="8.00">receive_meta_blob_max_size</text>
</a>
</g>
</g>
<!-- Node1&#45;&gt;Node2 -->
<g id="edge1" class="edge">
<title>Node1&#45;&gt;Node2</title>
<path fill="none" stroke="midnightblue" d="M159.5,-18C151.14,-18 142.59,-18 134.24,-18"/>
<polygon fill="midnightblue" stroke="midnightblue" points="159.6,-21.5 169.6,-18 159.6,-14.5 159.6,-21.5"/>
</g>
</g>
</svg>
