<?xml version="1.0" encoding="UTF-8" standalone="no"?>
<!DOCTYPE svg PUBLIC "-//W3C//DTD SVG 1.1//EN"
 "http://www.w3.org/Graphics/SVG/1.1/DTD/svg11.dtd">
<!-- Generated by graphviz version 2.43.0 (0)
 -->
<!-- Title: ipc::transport::sync_io::Native_socket_stream::Impl Pages: 1 -->
<svg width="925pt" height="1015pt"
 viewBox="0.00 0.00 925.00 1015.28" xmlns="http://www.w3.org/2000/svg" xmlns:xlink="http://www.w3.org/1999/xlink">
<g id="graph0" class="graph" transform="scale(1 1) rotate(0) translate(4 1011.28)">
<title>ipc::transport::sync_io::Native_socket_stream::Impl</title>
<polygon fill="white" stroke="transparent" points="-4,4 -4,-1011.28 921,-1011.28 921,4 -4,4"/>
<!-- Node1 -->
<g id="node1" class="node">
<title>Node1</title>
<g id="a_node1"><a xlink:title="Internal, non&#45;movable pImpl implementation of sync_io::Native_socket_stream class.">
<polygon fill="#bfbfbf" stroke="black" points="771,-444.28 771,-470.28 917,-470.28 917,-444.28 771,-444.28"/>
<text text-anchor="start" x="779" y="-459.88" font-family="Helvetica,sans-Serif" font-size="8.00">ipc::transport::sync</text>
<text text-anchor="middle" x="844" y="-450.88" font-family="Helvetica,sans-Serif" font-size="8.00">_io::Native_socket_stream::Impl</text>
</a>
</g>
</g>
<!-- Node2 -->
<g id="node2" class="node">
<title>Node2</title>
<g id="a_node2"><a xlink:title=" ">
<polygon fill="white" stroke="#bfbfbf" points="206,-751.78 206,-768.78 313,-768.78 313,-751.78 206,-751.78"/>
<text text-anchor="middle" x="259.5" y="-758.38" font-family="Helvetica,sans-Serif" font-size="8.00">flow::log::Log_context</text>
</a>
</g>
</g>
<!-- Node2&#45;&gt;Node1 -->
<g id="edge1" class="edge">
<title>Node2&#45;&gt;Node1</title>
<path fill="none" stroke="midnightblue" d="M323.49,-762.5C448.68,-766.35 719.6,-771.6 753,-746.28 799.17,-711.28 832.57,-522.16 840.95,-470.39"/>
<polygon fill="midnightblue" stroke="midnightblue" points="323.4,-759 313.29,-762.18 323.18,-765.99 323.4,-759"/>
</g>
<!-- Node14 -->
<g id="node14" class="node">
<title>Node14</title>
<g id="a_node14"><a xlink:href="classipc_1_1util_1_1sync__io_1_1Timer__event__emitter.html" target="_top" xlink:title="An object of this type, used internally to implement sync_io&#45;pattern objects that require timer event...">
<polygon fill="white" stroke="black" points="486.5,-837.28 486.5,-863.28 591.5,-863.28 591.5,-837.28 486.5,-837.28"/>
<text text-anchor="start" x="494.5" y="-852.88" font-family="Helvetica,sans-Serif" font-size="8.00">ipc::util::sync_io</text>
<text text-anchor="middle" x="539" y="-843.88" font-family="Helvetica,sans-Serif" font-size="8.00">::Timer_event_emitter</text>
</a>
</g>
</g>
<!-- Node2&#45;&gt;Node14 -->
<g id="edge14" class="edge">
<title>Node2&#45;&gt;Node14</title>
<path fill="none" stroke="midnightblue" d="M309.61,-771.1C346.48,-779.74 397.97,-792.93 442,-808.28 465.88,-816.6 492.13,-828.27 511.13,-837.19"/>
<polygon fill="midnightblue" stroke="midnightblue" points="310.15,-767.63 299.61,-768.78 308.56,-774.45 310.15,-767.63"/>
</g>
<!-- Node3 -->
<g id="node3" class="node">
<title>Node3</title>
<g id="a_node3"><a xlink:title=" ">
<polygon fill="white" stroke="#bfbfbf" points="210,-941.78 210,-958.78 309,-958.78 309,-941.78 210,-941.78"/>
<text text-anchor="middle" x="259.5" y="-948.38" font-family="Helvetica,sans-Serif" font-size="8.00">boost::noncopyable</text>
</a>
</g>
</g>
<!-- Node3&#45;&gt;Node1 -->
<g id="edge2" class="edge">
<title>Node3&#45;&gt;Node1</title>
<path fill="none" stroke="#8b1a1a" d="M319.26,-946C436.25,-936.27 692.3,-908.5 753,-848.28 808.63,-793.08 836,-532.87 841.81,-470.66"/>
<polygon fill="#8b1a1a" stroke="#8b1a1a" points="318.74,-942.53 309.05,-946.83 319.3,-949.51 318.74,-942.53"/>
</g>
<!-- Node3&#45;&gt;Node14 -->
<g id="edge15" class="edge">
<title>Node3&#45;&gt;Node14</title>
<path fill="none" stroke="#8b1a1a" d="M311.02,-938.76C316.84,-936.86 322.62,-934.71 328,-932.28 336.76,-928.32 337.28,-924.34 346,-920.28 386.29,-901.51 400.22,-907.44 442,-892.28 465.6,-883.71 491.65,-872.18 510.66,-863.36"/>
<polygon fill="#8b1a1a" stroke="#8b1a1a" points="309.79,-935.48 301.23,-941.72 311.81,-942.18 309.79,-935.48"/>
</g>
<!-- Node4 -->
<g id="node4" class="node">
<title>Node4</title>
<g id="a_node4"><a xlink:title=" ">
<polygon fill="white" stroke="#bfbfbf" points="519,-714.78 519,-731.78 559,-731.78 559,-714.78 519,-714.78"/>
<text text-anchor="middle" x="539" y="-721.38" font-family="Helvetica,sans-Serif" font-size="8.00">size_t</text>
</a>
</g>
</g>
<!-- Node4&#45;&gt;Node1 -->
<g id="edge3" class="edge">
<title>Node4&#45;&gt;Node1</title>
<path fill="none" stroke="#9a32cd" stroke-dasharray="5,2" d="M569.09,-729.13C613.66,-736.32 699.31,-742.96 753,-701.28 829.14,-642.16 840.88,-511.94 842.68,-470.33"/>
<polygon fill="#9a32cd" stroke="#9a32cd" points="569.65,-725.67 559.2,-727.41 568.45,-732.57 569.65,-725.67"/>
<text text-anchor="middle" x="694.5" y="-736.88" font-family="Helvetica,sans-Serif" font-size="8.00"> S_MAX_META_BLOB_LENGTH</text>
</g>
<!-- Node5 -->
<g id="node5" class="node">
<title>Node5</title>
<g id="a_node5"><a xlink:title=" ">
<polygon fill="white" stroke="#bfbfbf" points="483,-669.28 483,-695.28 595,-695.28 595,-669.28 483,-669.28"/>
<text text-anchor="start" x="491" y="-684.88" font-family="Helvetica,sans-Serif" font-size="8.00">static const low_lvl</text>
<text text-anchor="middle" x="539" y="-675.88" font-family="Helvetica,sans-Serif" font-size="8.00">_payload_blob_length_t</text>
</a>
</g>
</g>
<!-- Node5&#45;&gt;Node1 -->
<g id="edge4" class="edge">
<title>Node5&#45;&gt;Node1</title>
<path fill="none" stroke="#9a32cd" stroke-dasharray="5,2" d="M605.4,-681.2C659.19,-679.08 730.16,-673.06 753,-656.28 816.71,-609.46 836.34,-506.9 841.43,-470.45"/>
<polygon fill="#9a32cd" stroke="#9a32cd" points="605.1,-677.71 595.23,-681.56 605.35,-684.7 605.1,-677.71"/>
<text text-anchor="start" x="647" y="-690.88" font-family="Helvetica,sans-Serif" font-size="8.00"> S_META_BLOB_LENGTH</text>
<text text-anchor="middle" x="694.5" y="-681.88" font-family="Helvetica,sans-Serif" font-size="8.00">_PING_SENTINEL</text>
</g>
<!-- Node6 -->
<g id="node6" class="node">
<title>Node6</title>
<g id="a_node6"><a xlink:title=" ">
<polygon fill="white" stroke="black" points="230,-978.78 230,-995.78 289,-995.78 289,-978.78 230,-978.78"/>
<text text-anchor="middle" x="259.5" y="-985.38" font-family="Helvetica,sans-Serif" font-size="8.00">std::string</text>
</a>
</g>
</g>
<!-- Node6&#45;&gt;Node1 -->
<g id="edge5" class="edge">
<title>Node6&#45;&gt;Node1</title>
<path fill="none" stroke="#9a32cd" stroke-dasharray="5,2" d="M299.03,-993.04C392.89,-1004.67 634.39,-1019.54 753,-887.28 810.67,-822.97 836.74,-535.85 841.99,-470.53"/>
<polygon fill="#9a32cd" stroke="#9a32cd" points="299.47,-989.57 289.11,-991.76 298.57,-996.51 299.47,-989.57"/>
<text text-anchor="middle" x="539" y="-1000.88" font-family="Helvetica,sans-Serif" font-size="8.00"> m_nickname</text>
</g>
<!-- Node6&#45;&gt;Node14 -->
<g id="edge16" class="edge">
<title>Node6&#45;&gt;Node14</title>
<path fill="none" stroke="#9a32cd" stroke-dasharray="5,2" d="M298.99,-977.33C308.54,-974.62 318.7,-971.53 328,-968.28 379.89,-950.13 394.14,-947.32 442,-920.28 472.17,-903.23 504.09,-878.41 522.46,-863.36"/>
<polygon fill="#9a32cd" stroke="#9a32cd" points="298.02,-973.97 289.32,-980.01 299.89,-980.71 298.02,-973.97"/>
<text text-anchor="middle" x="394" y="-963.88" font-family="Helvetica,sans-Serif" font-size="8.00"> m_nickname</text>
</g>
<!-- Node7 -->
<g id="node7" class="node">
<title>Node7</title>
<g id="a_node7"><a xlink:title=" ">
<polygon fill="white" stroke="black" points="11.5,-974.28 11.5,-1000.28 102.5,-1000.28 102.5,-974.28 11.5,-974.28"/>
<text text-anchor="start" x="19.5" y="-989.88" font-family="Helvetica,sans-Serif" font-size="8.00">std::basic_string&lt;</text>
<text text-anchor="middle" x="57" y="-980.88" font-family="Helvetica,sans-Serif" font-size="8.00"> Char &gt;</text>
</a>
</g>
</g>
<!-- Node7&#45;&gt;Node6 -->
<g id="edge6" class="edge">
<title>Node7&#45;&gt;Node6</title>
<path fill="none" stroke="midnightblue" d="M113.11,-987.28C150.96,-987.28 199.66,-987.28 229.98,-987.28"/>
<polygon fill="midnightblue" stroke="midnightblue" points="112.75,-983.78 102.75,-987.28 112.75,-990.78 112.75,-983.78"/>
</g>
<!-- Node8 -->
<g id="node8" class="node">
<title>Node8</title>
<g id="a_node8"><a xlink:title=" ">
<polygon fill="white" stroke="#bfbfbf" points="520,-632.78 520,-649.78 558,-649.78 558,-632.78 520,-632.78"/>
<text text-anchor="middle" x="539" y="-639.38" font-family="Helvetica,sans-Serif" font-size="8.00">State</text>
</a>
</g>
</g>
<!-- Node8&#45;&gt;Node1 -->
<g id="edge7" class="edge">
<title>Node8&#45;&gt;Node1</title>
<path fill="none" stroke="#9a32cd" stroke-dasharray="5,2" d="M568.49,-642.6C619.37,-644.42 723.31,-645.55 753,-626.28 810.15,-589.17 833.48,-503.12 840.51,-470.31"/>
<polygon fill="#9a32cd" stroke="#9a32cd" points="568.33,-639.09 558.2,-642.19 568.05,-646.08 568.33,-639.09"/>
<text text-anchor="middle" x="694.5" y="-645.88" font-family="Helvetica,sans-Serif" font-size="8.00"> m_state</text>
</g>
<!-- Node9 -->
<g id="node9" class="node">
<title>Node9</title>
<g id="a_node9"><a xlink:title=" ">
<polygon fill="white" stroke="#bfbfbf" points="505.5,-596.78 505.5,-613.78 572.5,-613.78 572.5,-596.78 505.5,-596.78"/>
<text text-anchor="middle" x="539" y="-603.38" font-family="Helvetica,sans-Serif" font-size="8.00">Task_engine</text>
</a>
</g>
</g>
<!-- Node9&#45;&gt;Node1 -->
<g id="edge8" class="edge">
<title>Node9&#45;&gt;Node1</title>
<path fill="none" stroke="#9a32cd" stroke-dasharray="5,2" d="M583.01,-602.82C636.72,-599.11 724.96,-590.7 753,-574.28 795.68,-549.28 825.16,-495.47 837.09,-470.5"/>
<polygon fill="#9a32cd" stroke="#9a32cd" points="582.51,-599.35 572.76,-603.5 582.97,-606.33 582.51,-599.35"/>
<text text-anchor="start" x="645" y="-617.88" font-family="Helvetica,sans-Serif" font-size="8.00"> m_ev_hndl_task_engine</text>
<text text-anchor="middle" x="694.5" y="-608.88" font-family="Helvetica,sans-Serif" font-size="8.00">_unused</text>
<text text-anchor="middle" x="694.5" y="-599.88" font-family="Helvetica,sans-Serif" font-size="8.00">m_nb_task_engine</text>
</g>
<!-- Node10 -->
<g id="node10" class="node">
<title>Node10</title>
<g id="a_node10"><a xlink:title=" ">
<polygon fill="white" stroke="#bfbfbf" points="467.5,-551.28 467.5,-577.28 610.5,-577.28 610.5,-551.28 467.5,-551.28"/>
<text text-anchor="start" x="475.5" y="-566.88" font-family="Helvetica,sans-Serif" font-size="8.00">unique_ptr&lt; asio_local</text>
<text text-anchor="middle" x="539" y="-557.88" font-family="Helvetica,sans-Serif" font-size="8.00">_stream_socket::Peer_socket &gt;</text>
</a>
</g>
</g>
<!-- Node10&#45;&gt;Node1 -->
<g id="edge9" class="edge">
<title>Node10&#45;&gt;Node1</title>
<path fill="none" stroke="#9a32cd" stroke-dasharray="5,2" d="M620.75,-562.2C670.86,-559.86 729.95,-554.87 753,-544.28 789.13,-527.66 819.6,-490.34 834.03,-470.41"/>
<polygon fill="#9a32cd" stroke="#9a32cd" points="620.38,-558.71 610.54,-562.65 620.68,-565.71 620.38,-558.71"/>
<text text-anchor="middle" x="694.5" y="-563.88" font-family="Helvetica,sans-Serif" font-size="8.00"> m_peer_socket</text>
</g>
<!-- Node11 -->
<g id="node11" class="node">
<title>Node11</title>
<g id="a_node11"><a xlink:href="classipc_1_1util_1_1sync__io_1_1Asio__waitable__native__handle.html" target="_top" xlink:title="Useful if using the sync_io pattern within a user event loop built on boost.asio (optionally with flo...">
<polygon fill="white" stroke="black" points="485,-496.78 485,-531.78 593,-531.78 593,-496.78 485,-496.78"/>
<text text-anchor="start" x="493" y="-521.38" font-family="Helvetica,sans-Serif" font-size="8.00">ipc::util::sync_io</text>
<text text-anchor="start" x="493" y="-512.38" font-family="Helvetica,sans-Serif" font-size="8.00">::Asio_waitable_native</text>
<text text-anchor="middle" x="539" y="-503.38" font-family="Helvetica,sans-Serif" font-size="8.00">_handle</text>
</a>
</g>
</g>
<!-- Node11&#45;&gt;Node1 -->
<g id="edge10" class="edge">
<title>Node11&#45;&gt;Node1</title>
<path fill="none" stroke="#9a32cd" stroke-dasharray="5,2" d="M603.06,-497.68C614,-495.04 625.3,-492.46 636,-490.28 680.57,-481.17 730.97,-473.09 770.87,-467.2"/>
<polygon fill="#9a32cd" stroke="#9a32cd" points="602.01,-494.34 593.13,-500.12 603.68,-501.14 602.01,-494.34"/>
<text text-anchor="start" x="637" y="-537.88" font-family="Helvetica,sans-Serif" font-size="8.00"> m_ev_wait_hndl_peer</text>
<text text-anchor="middle" x="694.5" y="-528.88" font-family="Helvetica,sans-Serif" font-size="8.00">_socket</text>
<text text-anchor="start" x="637" y="-519.88" font-family="Helvetica,sans-Serif" font-size="8.00">m_rcv_ev_wait_hndl</text>
<text text-anchor="middle" x="694.5" y="-510.88" font-family="Helvetica,sans-Serif" font-size="8.00">_idle_timer_fired_peer</text>
<text text-anchor="start" x="637" y="-501.88" font-family="Helvetica,sans-Serif" font-size="8.00">m_snd_ev_wait_hndl</text>
<text text-anchor="middle" x="694.5" y="-492.88" font-family="Helvetica,sans-Serif" font-size="8.00">_auto_ping_timer_fired_peer</text>
</g>
<!-- Node12 -->
<g id="node12" class="node">
<title>Node12</title>
<g id="a_node12"><a xlink:title=" ">
<polygon fill="white" stroke="#bfbfbf" points="214,-501.28 214,-527.28 305,-527.28 305,-501.28 214,-501.28"/>
<text text-anchor="start" x="222" y="-516.88" font-family="Helvetica,sans-Serif" font-size="8.00">boost::asio::posix</text>
<text text-anchor="middle" x="259.5" y="-507.88" font-family="Helvetica,sans-Serif" font-size="8.00">::descriptor</text>
</a>
</g>
</g>
<!-- Node12&#45;&gt;Node11 -->
<g id="edge11" class="edge">
<title>Node12&#45;&gt;Node11</title>
<path fill="none" stroke="darkgreen" d="M315.23,-514.28C364.45,-514.28 436.3,-514.28 484.99,-514.28"/>
<polygon fill="darkgreen" stroke="darkgreen" points="315.09,-510.78 305.09,-514.28 315.09,-517.78 315.09,-510.78"/>
</g>
<!-- Node13 -->
<g id="node13" class="node">
<title>Node13</title>
<g id="a_node13"><a xlink:title=" ">
<polygon fill="white" stroke="#bfbfbf" points="488.5,-460.78 488.5,-477.78 589.5,-477.78 589.5,-460.78 488.5,-460.78"/>
<text text-anchor="middle" x="539" y="-467.38" font-family="Helvetica,sans-Serif" font-size="8.00">Mutex_non_recursive</text>
</a>
</g>
</g>
<!-- Node13&#45;&gt;Node1 -->
<g id="edge12" class="edge">
<title>Node13&#45;&gt;Node1</title>
<path fill="none" stroke="#9a32cd" stroke-dasharray="5,2" d="M600.03,-461.38C611.93,-460.1 624.34,-458.97 636,-458.28 680.66,-455.62 730.84,-455.31 770.61,-455.69"/>
<polygon fill="#9a32cd" stroke="#9a32cd" points="599.28,-457.94 589.74,-462.53 600.06,-464.9 599.28,-457.94"/>
<text text-anchor="middle" x="694.5" y="-460.88" font-family="Helvetica,sans-Serif" font-size="8.00"> m_peer_socket_mutex</text>
</g>
<!-- Node14&#45;&gt;Node1 -->
<g id="edge13" class="edge">
<title>Node14&#45;&gt;Node1</title>
<path fill="none" stroke="#9a32cd" stroke-dasharray="5,2" d="M601.47,-843.6C649.15,-835.23 713.55,-816.43 753,-774.28 838.03,-683.43 843.54,-518.13 843.28,-470.46"/>
<polygon fill="#9a32cd" stroke="#9a32cd" points="600.86,-840.15 591.57,-845.23 602,-847.06 600.86,-840.15"/>
<text text-anchor="middle" x="694.5" y="-837.88" font-family="Helvetica,sans-Serif" font-size="8.00"> m_timer_worker</text>
</g>
<!-- Node15 -->
<g id="node15" class="node">
<title>Node15</title>
<g id="a_node15"><a xlink:title=" ">
<polygon fill="white" stroke="#bfbfbf" points="201.5,-787.78 201.5,-804.78 317.5,-804.78 317.5,-787.78 201.5,-787.78"/>
<text text-anchor="middle" x="259.5" y="-794.38" font-family="Helvetica,sans-Serif" font-size="8.00">Single_thread_task_loop</text>
</a>
</g>
</g>
<!-- Node15&#45;&gt;Node14 -->
<g id="edge17" class="edge">
<title>Node15&#45;&gt;Node14</title>
<path fill="none" stroke="#9a32cd" stroke-dasharray="5,2" d="M317.8,-806.7C353.55,-813.29 400.5,-822.07 442,-830.28 456.36,-833.12 471.91,-836.31 486.22,-839.29"/>
<polygon fill="#9a32cd" stroke="#9a32cd" points="318.03,-803.19 307.56,-804.82 316.76,-810.07 318.03,-803.19"/>
<text text-anchor="middle" x="394" y="-832.88" font-family="Helvetica,sans-Serif" font-size="8.00"> m_worker</text>
</g>
<!-- Node16 -->
<g id="node16" class="node">
<title>Node16</title>
<g id="a_node16"><a xlink:title=" ">
<polygon fill="white" stroke="black" points="194,-823.78 194,-858.78 325,-858.78 325,-823.78 194,-823.78"/>
<text text-anchor="start" x="202" y="-848.38" font-family="Helvetica,sans-Serif" font-size="8.00">std::vector&lt; boost</text>
<text text-anchor="start" x="202" y="-839.38" font-family="Helvetica,sans-Serif" font-size="8.00">::movelib::unique_ptr</text>
<text text-anchor="middle" x="259.5" y="-830.38" font-family="Helvetica,sans-Serif" font-size="8.00">&lt; Timer_fired_read_end &gt; &gt;</text>
</a>
</g>
</g>
<!-- Node16&#45;&gt;Node14 -->
<g id="edge18" class="edge">
<title>Node16&#45;&gt;Node14</title>
<path fill="none" stroke="#9a32cd" stroke-dasharray="5,2" d="M335.49,-843.71C383.2,-845.26 443.77,-847.22 486.18,-848.6"/>
<polygon fill="#9a32cd" stroke="#9a32cd" points="335.32,-840.2 325.21,-843.37 335.09,-847.2 335.32,-840.2"/>
<text text-anchor="middle" x="394" y="-848.88" font-family="Helvetica,sans-Serif" font-size="8.00"> m_signal_pipe_readers</text>
</g>
<!-- Node17 -->
<g id="node17" class="node">
<title>Node17</title>
<g id="a_node17"><a xlink:title=" ">
<polygon fill="white" stroke="#bfbfbf" points="0,-828.28 0,-854.28 114,-854.28 114,-828.28 0,-828.28"/>
<text text-anchor="start" x="8" y="-843.88" font-family="Helvetica,sans-Serif" font-size="8.00">unique_ptr&lt; Timer_fired</text>
<text text-anchor="middle" x="57" y="-834.88" font-family="Helvetica,sans-Serif" font-size="8.00">_read_end &gt;</text>
</a>
</g>
</g>
<!-- Node17&#45;&gt;Node16 -->
<g id="edge19" class="edge">
<title>Node17&#45;&gt;Node16</title>
<path fill="none" stroke="#9a32cd" stroke-dasharray="5,2" d="M124.21,-841.28C146.63,-841.28 171.61,-841.28 193.9,-841.28"/>
<polygon fill="#9a32cd" stroke="#9a32cd" points="124.12,-837.78 114.12,-841.28 124.12,-844.78 124.12,-837.78"/>
<text text-anchor="middle" x="152.5" y="-843.88" font-family="Helvetica,sans-Serif" font-size="8.00"> elements</text>
</g>
<!-- Node18 -->
<g id="node18" class="node">
<title>Node18</title>
<g id="a_node18"><a xlink:title=" ">
<polygon fill="white" stroke="#bfbfbf" points="191,-878.28 191,-922.28 328,-922.28 328,-878.28 191,-878.28"/>
<text text-anchor="start" x="199" y="-911.88" font-family="Helvetica,sans-Serif" font-size="8.00">unordered_map&lt; Timer</text>
<text text-anchor="start" x="199" y="-902.88" font-family="Helvetica,sans-Serif" font-size="8.00">_fired_read_end *, boost</text>
<text text-anchor="start" x="199" y="-893.88" font-family="Helvetica,sans-Serif" font-size="8.00">::movelib::unique_ptr&lt; boost</text>
<text text-anchor="middle" x="259.5" y="-884.88" font-family="Helvetica,sans-Serif" font-size="8.00">::asio::writable_pipe &gt; &gt;</text>
</a>
</g>
</g>
<!-- Node18&#45;&gt;Node14 -->
<g id="edge20" class="edge">
<title>Node18&#45;&gt;Node14</title>
<path fill="none" stroke="#9a32cd" stroke-dasharray="5,2" d="M338,-884.78C340.7,-884.26 343.37,-883.76 346,-883.28 393.39,-874.49 447.51,-865.26 486.19,-858.81"/>
<polygon fill="#9a32cd" stroke="#9a32cd" points="337.31,-881.34 328.14,-886.66 338.62,-888.22 337.31,-881.34"/>
<text text-anchor="middle" x="394" y="-885.88" font-family="Helvetica,sans-Serif" font-size="8.00"> m_signal_pipe_writers</text>
</g>
<!-- Node19 -->
<g id="node19" class="node">
<title>Node19</title>
<g id="a_node19"><a xlink:title=" ">
<polygon fill="white" stroke="#bfbfbf" points="477.5,-379.28 477.5,-441.28 600.5,-441.28 600.5,-379.28 477.5,-379.28"/>
<text text-anchor="start" x="485.5" y="-430.88" font-family="Helvetica,sans-Serif" font-size="8.00">Function&lt; void(Asio</text>
<text text-anchor="start" x="485.5" y="-421.88" font-family="Helvetica,sans-Serif" font-size="8.00">_waitable_native_handle</text>
<text text-anchor="start" x="485.5" y="-412.88" font-family="Helvetica,sans-Serif" font-size="8.00"> *hndl_of_interest, bool</text>
<text text-anchor="start" x="485.5" y="-403.88" font-family="Helvetica,sans-Serif" font-size="8.00"> ev_of_interest_snd_else</text>
<text text-anchor="start" x="485.5" y="-394.88" font-family="Helvetica,sans-Serif" font-size="8.00">_rcv, Task_ptr &amp;&amp;on_active</text>
<text text-anchor="middle" x="539" y="-385.88" font-family="Helvetica,sans-Serif" font-size="8.00">_ev_func)&gt;</text>
</a>
</g>
</g>
<!-- Node19&#45;&gt;Node1 -->
<g id="edge21" class="edge">
<title>Node19&#45;&gt;Node1</title>
<path fill="none" stroke="#9a32cd" stroke-dasharray="5,2" d="M610.84,-409.89C652.61,-410.91 706.28,-414.39 753,-424.28 774,-428.72 796.69,-437.07 814.03,-444.25"/>
<polygon fill="#9a32cd" stroke="#9a32cd" points="610.83,-406.39 600.76,-409.69 610.69,-413.39 610.83,-406.39"/>
<text text-anchor="middle" x="694.5" y="-444.88" font-family="Helvetica,sans-Serif" font-size="8.00"> m_conn_ev_wait_func</text>
<text text-anchor="middle" x="694.5" y="-435.88" font-family="Helvetica,sans-Serif" font-size="8.00">m_rcv_ev_wait_func</text>
<text text-anchor="middle" x="694.5" y="-426.88" font-family="Helvetica,sans-Serif" font-size="8.00">m_snd_ev_wait_func</text>
</g>
<!-- Node20 -->
<g id="node20" class="node">
<title>Node20</title>
<g id="a_node20"><a xlink:title=" ">
<polygon fill="white" stroke="black" points="487,-334.28 487,-360.28 591,-360.28 591,-334.28 487,-334.28"/>
<text text-anchor="start" x="495" y="-349.88" font-family="Helvetica,sans-Serif" font-size="8.00">std::queue&lt; Snd_low</text>
<text text-anchor="middle" x="539" y="-340.88" font-family="Helvetica,sans-Serif" font-size="8.00">_lvl_payload::Ptr &gt;</text>
</a>
</g>
</g>
<!-- Node20&#45;&gt;Node1 -->
<g id="edge22" class="edge">
<title>Node20&#45;&gt;Node1</title>
<path fill="none" stroke="#9a32cd" stroke-dasharray="5,2" d="M601,-355.65C644.62,-363.04 704.02,-376.03 753,-397.28 781.08,-409.46 809.89,-430.45 827.12,-444.1"/>
<polygon fill="#9a32cd" stroke="#9a32cd" points="601.55,-352.19 591.11,-354.02 600.41,-359.1 601.55,-352.19"/>
<text text-anchor="middle" x="694.5" y="-399.88" font-family="Helvetica,sans-Serif" font-size="8.00"> m_snd_pending_payloads_q</text>
</g>
<!-- Node21 -->
<g id="node21" class="node">
<title>Node21</title>
<g id="a_node21"><a xlink:title=" ">
<polygon fill="white" stroke="#bfbfbf" points="245,-338.78 245,-355.78 274,-355.78 274,-338.78 245,-338.78"/>
<text text-anchor="middle" x="259.5" y="-345.38" font-family="Helvetica,sans-Serif" font-size="8.00">Ptr</text>
</a>
</g>
</g>
<!-- Node21&#45;&gt;Node20 -->
<g id="edge23" class="edge">
<title>Node21&#45;&gt;Node20</title>
<path fill="none" stroke="#9a32cd" stroke-dasharray="5,2" d="M284.48,-347.28C329.33,-347.28 426.83,-347.28 486.99,-347.28"/>
<polygon fill="#9a32cd" stroke="#9a32cd" points="284.26,-343.78 274.26,-347.28 284.26,-350.78 284.26,-343.78"/>
<text text-anchor="middle" x="394" y="-349.88" font-family="Helvetica,sans-Serif" font-size="8.00"> elements</text>
</g>
<!-- Node22 -->
<g id="node22" class="node">
<title>Node22</title>
<g id="a_node22"><a xlink:title=" ">
<polygon fill="white" stroke="#bfbfbf" points="509,-297.78 509,-314.78 569,-314.78 569,-297.78 509,-297.78"/>
<text text-anchor="middle" x="539" y="-304.38" font-family="Helvetica,sans-Serif" font-size="8.00">Error_code</text>
</a>
</g>
</g>
<!-- Node22&#45;&gt;Node1 -->
<g id="edge24" class="edge">
<title>Node22&#45;&gt;Node1</title>
<path fill="none" stroke="#9a32cd" stroke-dasharray="5,2" d="M579.39,-304.16C624.48,-303.54 699.07,-308.19 753,-340.28 795.51,-365.56 825.07,-419.22 837.05,-444.1"/>
<polygon fill="#9a32cd" stroke="#9a32cd" points="579.05,-300.67 569.13,-304.4 579.21,-307.66 579.05,-300.67"/>
<text text-anchor="middle" x="694.5" y="-351.88" font-family="Helvetica,sans-Serif" font-size="8.00"> m_rcv_pending_err_code</text>
<text text-anchor="middle" x="694.5" y="-342.88" font-family="Helvetica,sans-Serif" font-size="8.00">m_snd_pending_err_code</text>
</g>
<!-- Node23 -->
<g id="node23" class="node">
<title>Node23</title>
<g id="a_node23"><a xlink:title=" ">
<polygon fill="white" stroke="#bfbfbf" points="521.5,-261.78 521.5,-278.78 556.5,-278.78 556.5,-261.78 521.5,-261.78"/>
<text text-anchor="middle" x="539" y="-268.38" font-family="Helvetica,sans-Serif" font-size="8.00">bool</text>
</a>
</g>
</g>
<!-- Node23&#45;&gt;Node1 -->
<g id="edge25" class="edge">
<title>Node23&#45;&gt;Node1</title>
<path fill="none" stroke="#9a32cd" stroke-dasharray="5,2" d="M566.65,-265.82C609.74,-260.1 695.66,-255.03 753,-293.28 808.12,-330.04 832.54,-412.35 840.19,-444.28"/>
<polygon fill="#9a32cd" stroke="#9a32cd" points="566.06,-262.37 556.66,-267.26 567.06,-269.3 566.06,-262.37"/>
<text text-anchor="middle" x="694.5" y="-295.88" font-family="Helvetica,sans-Serif" font-size="8.00"> m_snd_finished</text>
</g>
<!-- Node24 -->
<g id="node24" class="node">
<title>Node24</title>
<g id="a_node24"><a xlink:title=" ">
<polygon fill="white" stroke="#bfbfbf" points="503.5,-225.78 503.5,-242.78 574.5,-242.78 574.5,-225.78 503.5,-225.78"/>
<text text-anchor="middle" x="539" y="-232.38" font-family="Helvetica,sans-Serif" font-size="8.00">Task_asio_err</text>
</a>
</g>
</g>
<!-- Node24&#45;&gt;Node1 -->
<g id="edge26" class="edge">
<title>Node24&#45;&gt;Node1</title>
<path fill="none" stroke="#9a32cd" stroke-dasharray="5,2" d="M584.91,-229.76C639.24,-225.23 726.71,-221.24 753,-239.28 824.41,-288.27 839.26,-405.11 842.26,-444.25"/>
<polygon fill="#9a32cd" stroke="#9a32cd" points="584.5,-226.28 574.84,-230.63 585.11,-233.25 584.5,-226.28"/>
<text text-anchor="start" x="638.5" y="-250.88" font-family="Helvetica,sans-Serif" font-size="8.00"> m_snd_pending_on_last</text>
<text text-anchor="middle" x="694.5" y="-241.88" font-family="Helvetica,sans-Serif" font-size="8.00">_send_done_func_or_empty</text>
</g>
<!-- Node25 -->
<g id="node25" class="node">
<title>Node25</title>
<g id="a_node25"><a xlink:title=" ">
<polygon fill="white" stroke="#bfbfbf" points="503.5,-189.78 503.5,-206.78 574.5,-206.78 574.5,-189.78 503.5,-189.78"/>
<text text-anchor="middle" x="539" y="-196.38" font-family="Helvetica,sans-Serif" font-size="8.00">Fine_duration</text>
</a>
</g>
</g>
<!-- Node25&#45;&gt;Node1 -->
<g id="edge27" class="edge">
<title>Node25&#45;&gt;Node1</title>
<path fill="none" stroke="#9a32cd" stroke-dasharray="5,2" d="M584.61,-193.58C639.07,-188.82 727.11,-184.52 753,-203.28 834.27,-262.14 842.54,-400.69 843.08,-444.06"/>
<polygon fill="#9a32cd" stroke="#9a32cd" points="584.17,-190.11 574.53,-194.5 584.81,-197.08 584.17,-190.11"/>
<text text-anchor="middle" x="694.5" y="-214.88" font-family="Helvetica,sans-Serif" font-size="8.00"> m_rcv_idle_timeout</text>
<text text-anchor="middle" x="694.5" y="-205.88" font-family="Helvetica,sans-Serif" font-size="8.00">m_snd_auto_ping_period</text>
</g>
<!-- Node26 -->
<g id="node26" class="node">
<title>Node26</title>
<g id="a_node26"><a xlink:title=" ">
<polygon fill="white" stroke="#bfbfbf" points="519.5,-151.78 519.5,-168.78 558.5,-168.78 558.5,-151.78 519.5,-151.78"/>
<text text-anchor="middle" x="539" y="-158.38" font-family="Helvetica,sans-Serif" font-size="8.00">Timer</text>
</a>
</g>
</g>
<!-- Node26&#45;&gt;Node1 -->
<g id="edge28" class="edge">
<title>Node26&#45;&gt;Node1</title>
<path fill="none" stroke="#9a32cd" stroke-dasharray="5,2" d="M568.39,-151.79C612.73,-140.41 698.93,-126.05 753,-167.28 799.22,-202.51 832.59,-392.2 840.95,-444.13"/>
<polygon fill="#9a32cd" stroke="#9a32cd" points="567.31,-148.45 558.57,-154.44 569.14,-155.21 567.31,-148.45"/>
<text text-anchor="middle" x="694.5" y="-178.88" font-family="Helvetica,sans-Serif" font-size="8.00"> m_rcv_idle_timer</text>
<text text-anchor="middle" x="694.5" y="-169.88" font-family="Helvetica,sans-Serif" font-size="8.00">m_snd_auto_ping_timer</text>
</g>
<!-- Node27 -->
<g id="node27" class="node">
<title>Node27</title>
<g id="a_node27"><a xlink:title=" ">
<polygon fill="white" stroke="#bfbfbf" points="484,-99.78 484,-116.78 594,-116.78 594,-99.78 484,-99.78"/>
<text text-anchor="middle" x="539" y="-106.38" font-family="Helvetica,sans-Serif" font-size="8.00">Timer_fired_read_end *</text>
</a>
</g>
</g>
<!-- Node27&#45;&gt;Node1 -->
<g id="edge29" class="edge">
<title>Node27&#45;&gt;Node1</title>
<path fill="none" stroke="#9a32cd" stroke-dasharray="5,2" d="M595.1,-98.13C649.96,-89.38 729.3,-80.8 753,-99.28 809.6,-143.41 836.06,-384.4 841.79,-443.96"/>
<polygon fill="#9a32cd" stroke="#9a32cd" points="594.47,-94.69 585.16,-99.76 595.6,-101.6 594.47,-94.69"/>
<text text-anchor="start" x="646.5" y="-128.88" font-family="Helvetica,sans-Serif" font-size="8.00"> m_rcv_idle_timer_fired</text>
<text text-anchor="middle" x="694.5" y="-119.88" font-family="Helvetica,sans-Serif" font-size="8.00">_peer</text>
<text text-anchor="start" x="646.5" y="-110.88" font-family="Helvetica,sans-Serif" font-size="8.00">m_snd_auto_ping_timer</text>
<text text-anchor="middle" x="694.5" y="-101.88" font-family="Helvetica,sans-Serif" font-size="8.00">_fired_peer</text>
</g>
<!-- Node28 -->
<g id="node28" class="node">
<title>Node28</title>
<g id="a_node28"><a xlink:title=" ">
<polygon fill="white" stroke="#bfbfbf" points="460,-45.78 460,-80.78 618,-80.78 618,-45.78 460,-45.78"/>
<text text-anchor="start" x="468" y="-70.38" font-family="Helvetica,sans-Serif" font-size="8.00">optional&lt; ipc::transport</text>
<text text-anchor="start" x="468" y="-61.38" font-family="Helvetica,sans-Serif" font-size="8.00">::sync_io::Native_socket</text>
<text text-anchor="middle" x="539" y="-52.38" font-family="Helvetica,sans-Serif" font-size="8.00">_stream::Impl::Rcv_user_request &gt;</text>
</a>
</g>
</g>
<!-- Node28&#45;&gt;Node1 -->
<g id="edge30" class="edge">
<title>Node28&#45;&gt;Node1</title>
<path fill="none" stroke="#9a32cd" stroke-dasharray="5,2" d="M628.25,-45.61C670.48,-42.34 719.11,-46.85 753,-75.28 811.73,-124.53 836.75,-382.29 841.94,-443.99"/>
<polygon fill="#9a32cd" stroke="#9a32cd" points="627.86,-42.13 618.22,-46.54 628.5,-49.1 627.86,-42.13"/>
<text text-anchor="middle" x="694.5" y="-77.88" font-family="Helvetica,sans-Serif" font-size="8.00"> m_rcv_user_request</text>
</g>
<!-- Node29 -->
<g id="node29" class="node">
<title>Node29</title>
<g id="a_node29"><a xlink:title=" ">
<polygon fill="white" stroke="#bfbfbf" points="514,-9.78 514,-26.78 564,-26.78 564,-9.78 514,-9.78"/>
<text text-anchor="middle" x="539" y="-16.38" font-family="Helvetica,sans-Serif" font-size="8.00">uint16_t</text>
</a>
</g>
</g>
<!-- Node29&#45;&gt;Node1 -->
<g id="edge31" class="edge">
<title>Node29&#45;&gt;Node1</title>
<path fill="none" stroke="#9a32cd" stroke-dasharray="5,2" d="M574.09,-9.2C620.48,0.91 703.39,10.7 753,-32.28 817.56,-88.2 838.33,-377.86 842.26,-443.87"/>
<polygon fill="#9a32cd" stroke="#9a32cd" points="573.17,-5.82 564.22,-11.48 574.75,-12.64 573.17,-5.82"/>
<text text-anchor="middle" x="694.5" y="-34.88" font-family="Helvetica,sans-Serif" font-size="8.00"> m_rcv_target_meta_length</text>
</g>
</g>
</svg>
