<?xml version="1.0" encoding="UTF-8" standalone="no"?>
<!DOCTYPE svg PUBLIC "-//W3C//DTD SVG 1.1//EN"
 "http://www.w3.org/Graphics/SVG/1.1/DTD/svg11.dtd">
<!-- Generated by graphviz version 2.43.0 (0)
 -->
<!-- Title: ipc::transport::Protocol_negotiator::operator= Pages: 1 -->
<svg width="266pt" height="35pt"
 viewBox="0.00 0.00 266.00 35.00" xmlns="http://www.w3.org/2000/svg" xmlns:xlink="http://www.w3.org/1999/xlink">
<g id="graph0" class="graph" transform="scale(1 1) rotate(0) translate(4 31)">
<title>ipc::transport::Protocol_negotiator::operator=</title>
<polygon fill="white" stroke="transparent" points="-4,4 -4,-31 262,-31 262,4 -4,4"/>
<!-- Node1 -->
<g id="node1" class="node">
<title>Node1</title>
<g id="a_node1"><a xlink:title="Move&#45;assigns *this to be equal to src, while src becomes as&#45;if just constructed; or no&#45;op if &amp;src == ...">
<polygon fill="#bfbfbf" stroke="black" points="0,-0.5 0,-26.5 111,-26.5 111,-0.5 0,-0.5"/>
<text text-anchor="start" x="8" y="-16.1" font-family="Helvetica,sans-Serif" font-size="8.00">ipc::transport::Protocol</text>
<text text-anchor="middle" x="55.5" y="-7.1" font-family="Helvetica,sans-Serif" font-size="8.00">_negotiator::operator=</text>
</a>
</g>
</g>
<!-- Node2 -->
<g id="node2" class="node">
<title>Node2</title>
<g id="a_node2"><a xlink:href="classipc_1_1transport_1_1Protocol__negotiator.html#ae24b3bd8550a2f9ab0d728cb1832d4f5" target="_top" xlink:title="Copy&#45;assigns *this to be equal to src.">
<polygon fill="white" stroke="black" points="147,-0.5 147,-26.5 258,-26.5 258,-0.5 147,-0.5"/>
<text text-anchor="start" x="155" y="-16.1" font-family="Helvetica,sans-Serif" font-size="8.00">ipc::transport::Protocol</text>
<text text-anchor="middle" x="202.5" y="-7.1" font-family="Helvetica,sans-Serif" font-size="8.00">_negotiator::operator=</text>
</a>
</g>
</g>
<!-- Node1&#45;&gt;Node2 -->
<g id="edge1" class="edge">
<title>Node1&#45;&gt;Node2</title>
<path fill="none" stroke="midnightblue" d="M111.32,-13.5C119.53,-13.5 128.06,-13.5 136.46,-13.5"/>
<polygon fill="midnightblue" stroke="midnightblue" points="136.6,-17 146.6,-13.5 136.6,-10 136.6,-17"/>
</g>
</g>
</svg>
