<?xml version="1.0" encoding="UTF-8" standalone="no"?>
<!DOCTYPE svg PUBLIC "-//W3C//DTD SVG 1.1//EN"
 "http://www.w3.org/Graphics/SVG/1.1/DTD/svg11.dtd">
<!-- Generated by graphviz version 2.43.0 (0)
 -->
<!-- Title: ipc::transport::Blob_stream_mq_receiver_impl::nickname Pages: 1 -->
<svg width="314pt" height="98pt"
 viewBox="0.00 0.00 314.00 98.00" xmlns="http://www.w3.org/2000/svg" xmlns:xlink="http://www.w3.org/1999/xlink">
<g id="graph0" class="graph" transform="scale(1 1) rotate(0) translate(4 94)">
<title>ipc::transport::Blob_stream_mq_receiver_impl::nickname</title>
<polygon fill="white" stroke="transparent" points="-4,4 -4,-94 310,-94 310,4 -4,4"/>
<!-- Node1 -->
<g id="node1" class="node">
<title>Node1</title>
<g id="a_node1"><a xlink:title="See Blob_stream_mq_receiver counterpart, but assuming PEER state.">
<polygon fill="#bfbfbf" stroke="black" points="183,-27.5 183,-62.5 306,-62.5 306,-27.5 183,-27.5"/>
<text text-anchor="start" x="191" y="-52.1" font-family="Helvetica,sans-Serif" font-size="8.00">ipc::transport::Blob</text>
<text text-anchor="start" x="191" y="-43.1" font-family="Helvetica,sans-Serif" font-size="8.00">_stream_mq_receiver_impl</text>
<text text-anchor="middle" x="244.5" y="-34.1" font-family="Helvetica,sans-Serif" font-size="8.00">::nickname</text>
</a>
</g>
</g>
<!-- Node2 -->
<g id="node2" class="node">
<title>Node2</title>
<g id="a_node2"><a xlink:href="classipc_1_1transport_1_1Blob__stream__mq__receiver__impl.html#a88b22bb797a87fb7b2f854a5d706ee94" target="_top" xlink:title="See Blob_stream_mq_receiver counterpart.">
<polygon fill="white" stroke="black" points="0,-54.5 0,-89.5 147,-89.5 147,-54.5 0,-54.5"/>
<text text-anchor="start" x="8" y="-79.1" font-family="Helvetica,sans-Serif" font-size="8.00">ipc::transport::Blob</text>
<text text-anchor="start" x="8" y="-70.1" font-family="Helvetica,sans-Serif" font-size="8.00">_stream_mq_receiver_impl</text>
<text text-anchor="middle" x="73.5" y="-61.1" font-family="Helvetica,sans-Serif" font-size="8.00">::Blob_stream_mq_receiver_impl</text>
</a>
</g>
</g>
<!-- Node1&#45;&gt;Node2 -->
<g id="edge1" class="edge">
<title>Node1&#45;&gt;Node2</title>
<path fill="none" stroke="midnightblue" d="M173,-56.26C164.42,-57.63 155.63,-59.04 147.02,-60.41"/>
<polygon fill="midnightblue" stroke="midnightblue" points="173.64,-59.71 182.96,-54.67 172.54,-52.79 173.64,-59.71"/>
</g>
<!-- Node3 -->
<g id="node3" class="node">
<title>Node3</title>
<g id="a_node3"><a xlink:href="classipc_1_1transport_1_1Blob__stream__mq__receiver__impl.html#a4efecbe0fe86aa7d61b86f9c5edf20b4" target="_top" xlink:title="Prints string representation of the given Blob_stream_mq_receiver_impl to the given ostream.">
<polygon fill="white" stroke="black" points="12,-0.5 12,-35.5 135,-35.5 135,-0.5 12,-0.5"/>
<text text-anchor="start" x="20" y="-25.1" font-family="Helvetica,sans-Serif" font-size="8.00">ipc::transport::Blob</text>
<text text-anchor="start" x="20" y="-16.1" font-family="Helvetica,sans-Serif" font-size="8.00">_stream_mq_receiver_impl</text>
<text text-anchor="middle" x="73.5" y="-7.1" font-family="Helvetica,sans-Serif" font-size="8.00">::operator&lt;&lt;</text>
</a>
</g>
</g>
<!-- Node1&#45;&gt;Node3 -->
<g id="edge2" class="edge">
<title>Node1&#45;&gt;Node3</title>
<path fill="none" stroke="midnightblue" d="M173,-33.74C160.43,-31.73 147.44,-29.65 135.18,-27.69"/>
<polygon fill="midnightblue" stroke="midnightblue" points="172.54,-37.21 182.96,-35.33 173.64,-30.29 172.54,-37.21"/>
</g>
</g>
</svg>
