<?xml version="1.0" encoding="UTF-8" standalone="no"?>
<!DOCTYPE svg PUBLIC "-//W3C//DTD SVG 1.1//EN"
 "http://www.w3.org/Graphics/SVG/1.1/DTD/svg11.dtd">
<!-- Generated by graphviz version 2.43.0 (0)
 -->
<!-- Title: ipc::session::sync_io::Server_session_adapter&lt; Session &gt; Pages: 1 -->
<svg width="740pt" height="534pt"
 viewBox="0.00 0.00 740.00 534.00" xmlns="http://www.w3.org/2000/svg" xmlns:xlink="http://www.w3.org/1999/xlink">
<g id="graph0" class="graph" transform="scale(1 1) rotate(0) translate(4 530)">
<title>ipc::session::sync_io::Server_session_adapter&lt; Session &gt;</title>
<polygon fill="white" stroke="transparent" points="-4,4 -4,-530 736,-530 736,4 -4,4"/>
<!-- Node1 -->
<g id="node1" class="node">
<title>Node1</title>
<g id="a_node1"><a xlink:title="sync_io&#45;pattern counterpart to async&#45;I/O&#45;pattern session::Server_session types and all their SHM&#45;awar...">
<polygon fill="#bfbfbf" stroke="black" points="629,-189.5 629,-224.5 732,-224.5 732,-189.5 629,-189.5"/>
<text text-anchor="start" x="637" y="-214.1" font-family="Helvetica,sans-Serif" font-size="8.00">ipc::session::sync</text>
<text text-anchor="start" x="637" y="-205.1" font-family="Helvetica,sans-Serif" font-size="8.00">_io::Server_session</text>
<text text-anchor="middle" x="680.5" y="-196.1" font-family="Helvetica,sans-Serif" font-size="8.00">_adapter&lt; Session &gt;</text>
</a>
</g>
</g>
<!-- Node2 -->
<g id="node2" class="node">
<title>Node2</title>
<g id="a_node2"><a xlink:href="classipc_1_1session_1_1sync__io_1_1Session__adapter.html" target="_top" xlink:title="Internal&#45;use workhorse containing common elements of Client_session_adapter and Server_session_adapte...">
<polygon fill="white" stroke="black" points="490,-222.5 490,-257.5 592,-257.5 592,-222.5 490,-222.5"/>
<text text-anchor="start" x="498" y="-247.1" font-family="Helvetica,sans-Serif" font-size="8.00">ipc::session::sync</text>
<text text-anchor="start" x="498" y="-238.1" font-family="Helvetica,sans-Serif" font-size="8.00">_io::Session_adapter</text>
<text text-anchor="middle" x="541" y="-229.1" font-family="Helvetica,sans-Serif" font-size="8.00">&lt; Session &gt;</text>
</a>
</g>
</g>
<!-- Node2&#45;&gt;Node1 -->
<g id="edge1" class="edge">
<title>Node2&#45;&gt;Node1</title>
<path fill="none" stroke="#8b1a1a" d="M602.01,-225.6C610.95,-223.45 620.09,-221.26 628.82,-219.16"/>
<polygon fill="#8b1a1a" stroke="#8b1a1a" points="600.94,-222.26 592.03,-227.99 602.57,-229.06 600.94,-222.26"/>
</g>
<!-- Node3 -->
<g id="node3" class="node">
<title>Node3</title>
<g id="a_node3"><a xlink:title=" ">
<polygon fill="white" stroke="#bfbfbf" points="243,-480.5 243,-497.5 310,-497.5 310,-480.5 243,-480.5"/>
<text text-anchor="middle" x="276.5" y="-487.1" font-family="Helvetica,sans-Serif" font-size="8.00">Task_engine</text>
</a>
</g>
</g>
<!-- Node3&#45;&gt;Node2 -->
<g id="edge2" class="edge">
<title>Node3&#45;&gt;Node2</title>
<path fill="none" stroke="#9a32cd" stroke-dasharray="5,2" d="M320.19,-496.6C363.46,-501.74 429.88,-502.21 472,-467 536.4,-413.18 541.34,-300.99 540.69,-257.63"/>
<polygon fill="#9a32cd" stroke="#9a32cd" points="320.62,-493.13 310.25,-495.29 319.71,-500.07 320.62,-493.13"/>
<text text-anchor="start" x="368" y="-519.6" font-family="Helvetica,sans-Serif" font-size="8.00"> m_ev_hndl_task_engine</text>
<text text-anchor="middle" x="417.5" y="-510.6" font-family="Helvetica,sans-Serif" font-size="8.00">_unused</text>
<text text-anchor="middle" x="417.5" y="-501.6" font-family="Helvetica,sans-Serif" font-size="8.00">m_nb_task_engine</text>
</g>
<!-- Node4 -->
<g id="node4" class="node">
<title>Node4</title>
<g id="a_node4"><a xlink:title=" ">
<polygon fill="white" stroke="#bfbfbf" points="239,-439.5 239,-456.5 314,-456.5 314,-439.5 239,-439.5"/>
<text text-anchor="middle" x="276.5" y="-446.1" font-family="Helvetica,sans-Serif" font-size="8.00">readable_pipe</text>
</a>
</g>
</g>
<!-- Node4&#45;&gt;Node2 -->
<g id="edge3" class="edge">
<title>Node4&#45;&gt;Node2</title>
<path fill="none" stroke="#9a32cd" stroke-dasharray="5,2" d="M324.34,-447.96C374.48,-446.97 449.82,-442.5 472,-425 525.19,-383.03 536.78,-295.31 539.3,-257.72"/>
<polygon fill="#9a32cd" stroke="#9a32cd" points="323.99,-444.46 314.05,-448.12 324.1,-451.46 323.99,-444.46"/>
<text text-anchor="middle" x="417.5" y="-457.6" font-family="Helvetica,sans-Serif" font-size="8.00"> m_ready_reader_chan</text>
<text text-anchor="middle" x="417.5" y="-448.6" font-family="Helvetica,sans-Serif" font-size="8.00">m_ready_reader_err</text>
</g>
<!-- Node5 -->
<g id="node5" class="node">
<title>Node5</title>
<g id="a_node5"><a xlink:title=" ">
<polygon fill="white" stroke="#bfbfbf" points="241,-403.5 241,-420.5 312,-420.5 312,-403.5 241,-403.5"/>
<text text-anchor="middle" x="276.5" y="-410.1" font-family="Helvetica,sans-Serif" font-size="8.00">writable_pipe</text>
</a>
</g>
</g>
<!-- Node5&#45;&gt;Node2 -->
<g id="edge4" class="edge">
<title>Node5&#45;&gt;Node2</title>
<path fill="none" stroke="#9a32cd" stroke-dasharray="5,2" d="M322.39,-410.09C364.88,-406.17 428.48,-394.61 472,-361 506.71,-334.19 526.44,-284.35 534.94,-257.77"/>
<polygon fill="#9a32cd" stroke="#9a32cd" points="322.01,-406.61 312.33,-410.91 322.58,-413.58 322.01,-406.61"/>
<text text-anchor="middle" x="417.5" y="-414.6" font-family="Helvetica,sans-Serif" font-size="8.00"> m_ready_writer_chan</text>
<text text-anchor="middle" x="417.5" y="-405.6" font-family="Helvetica,sans-Serif" font-size="8.00">m_ready_writer_err</text>
</g>
<!-- Node6 -->
<g id="node6" class="node">
<title>Node6</title>
<g id="a_node6"><a xlink:href="classipc_1_1util_1_1sync__io_1_1Asio__waitable__native__handle.html" target="_top" xlink:title="Useful if using the sync_io pattern within a user event loop built on boost.asio (optionally with flo...">
<polygon fill="white" stroke="black" points="222.5,-349.5 222.5,-384.5 330.5,-384.5 330.5,-349.5 222.5,-349.5"/>
<text text-anchor="start" x="230.5" y="-374.1" font-family="Helvetica,sans-Serif" font-size="8.00">ipc::util::sync_io</text>
<text text-anchor="start" x="230.5" y="-365.1" font-family="Helvetica,sans-Serif" font-size="8.00">::Asio_waitable_native</text>
<text text-anchor="middle" x="276.5" y="-356.1" font-family="Helvetica,sans-Serif" font-size="8.00">_handle</text>
</a>
</g>
</g>
<!-- Node6&#45;&gt;Node2 -->
<g id="edge5" class="edge">
<title>Node6&#45;&gt;Node2</title>
<path fill="none" stroke="#9a32cd" stroke-dasharray="5,2" d="M340.51,-347.25C379.56,-333.84 430.1,-314.33 472,-291 489.02,-281.52 506.57,-268.26 519.57,-257.64"/>
<polygon fill="#9a32cd" stroke="#9a32cd" points="339.19,-344.01 330.84,-350.53 341.43,-350.64 339.19,-344.01"/>
<text text-anchor="middle" x="417.5" y="-350.6" font-family="Helvetica,sans-Serif" font-size="8.00"> m_ev_wait_hndl_chan</text>
<text text-anchor="middle" x="417.5" y="-341.6" font-family="Helvetica,sans-Serif" font-size="8.00">m_ev_wait_hndl_err</text>
</g>
<!-- Node7 -->
<g id="node7" class="node">
<title>Node7</title>
<g id="a_node7"><a xlink:title=" ">
<polygon fill="white" stroke="#bfbfbf" points="5,-354 5,-380 96,-380 96,-354 5,-354"/>
<text text-anchor="start" x="13" y="-369.6" font-family="Helvetica,sans-Serif" font-size="8.00">boost::asio::posix</text>
<text text-anchor="middle" x="50.5" y="-360.6" font-family="Helvetica,sans-Serif" font-size="8.00">::descriptor</text>
</a>
</g>
</g>
<!-- Node7&#45;&gt;Node6 -->
<g id="edge6" class="edge">
<title>Node7&#45;&gt;Node6</title>
<path fill="none" stroke="darkgreen" d="M106.17,-367C141.53,-367 187.34,-367 222.39,-367"/>
<polygon fill="darkgreen" stroke="darkgreen" points="106.02,-363.5 96.02,-367 106.02,-370.5 106.02,-363.5"/>
</g>
<!-- Node8 -->
<g id="node8" class="node">
<title>Node8</title>
<g id="a_node8"><a xlink:title=" ">
<polygon fill="white" stroke="#bfbfbf" points="215,-268 215,-330 338,-330 338,-268 215,-268"/>
<text text-anchor="start" x="223" y="-319.6" font-family="Helvetica,sans-Serif" font-size="8.00">Function&lt; void(Asio</text>
<text text-anchor="start" x="223" y="-310.6" font-family="Helvetica,sans-Serif" font-size="8.00">_waitable_native_handle</text>
<text text-anchor="start" x="223" y="-301.6" font-family="Helvetica,sans-Serif" font-size="8.00"> *hndl_of_interest, bool</text>
<text text-anchor="start" x="223" y="-292.6" font-family="Helvetica,sans-Serif" font-size="8.00"> ev_of_interest_snd_else</text>
<text text-anchor="start" x="223" y="-283.6" font-family="Helvetica,sans-Serif" font-size="8.00">_rcv, Task_ptr &amp;&amp;on_active</text>
<text text-anchor="middle" x="276.5" y="-274.6" font-family="Helvetica,sans-Serif" font-size="8.00">_ev_func)&gt;</text>
</a>
</g>
</g>
<!-- Node8&#45;&gt;Node2 -->
<g id="edge7" class="edge">
<title>Node8&#45;&gt;Node2</title>
<path fill="none" stroke="#9a32cd" stroke-dasharray="5,2" d="M347.99,-283.16C392.78,-273.09 449.69,-260.3 489.88,-251.26"/>
<polygon fill="#9a32cd" stroke="#9a32cd" points="347.04,-279.78 338.05,-285.39 348.58,-286.61 347.04,-279.78"/>
<text text-anchor="middle" x="417.5" y="-280.6" font-family="Helvetica,sans-Serif" font-size="8.00"> m_ev_wait_func</text>
</g>
<!-- Node9 -->
<g id="node9" class="node">
<title>Node9</title>
<g id="a_node9"><a xlink:title=" ">
<polygon fill="white" stroke="#bfbfbf" points="241,-231.5 241,-248.5 312,-248.5 312,-231.5 241,-231.5"/>
<text text-anchor="middle" x="276.5" y="-238.1" font-family="Helvetica,sans-Serif" font-size="8.00">Task_asio_err</text>
</a>
</g>
</g>
<!-- Node9&#45;&gt;Node2 -->
<g id="edge8" class="edge">
<title>Node9&#45;&gt;Node2</title>
<path fill="none" stroke="#9a32cd" stroke-dasharray="5,2" d="M322.15,-240C368.58,-240 441.13,-240 489.59,-240"/>
<polygon fill="#9a32cd" stroke="#9a32cd" points="322.09,-236.5 312.09,-240 322.09,-243.5 322.09,-236.5"/>
<text text-anchor="middle" x="417.5" y="-242.6" font-family="Helvetica,sans-Serif" font-size="8.00"> m_on_err_func</text>
</g>
<!-- Node10 -->
<g id="node10" class="node">
<title>Node10</title>
<g id="a_node10"><a xlink:title=" ">
<polygon fill="white" stroke="#bfbfbf" points="208,-186 208,-212 345,-212 345,-186 208,-186"/>
<text text-anchor="start" x="216" y="-201.6" font-family="Helvetica,sans-Serif" font-size="8.00">Function&lt; void(Channel</text>
<text text-anchor="middle" x="276.5" y="-192.6" font-family="Helvetica,sans-Serif" font-size="8.00">_obj &amp;&amp;, Mdt_reader_ptr &amp;&amp;)&gt;</text>
</a>
</g>
</g>
<!-- Node10&#45;&gt;Node2 -->
<g id="edge9" class="edge">
<title>Node10&#45;&gt;Node2</title>
<path fill="none" stroke="#9a32cd" stroke-dasharray="5,2" d="M355.48,-202.76C391.25,-205.47 434.06,-210.11 472,-218 477.83,-219.21 483.87,-220.74 489.82,-222.43"/>
<polygon fill="#9a32cd" stroke="#9a32cd" points="355.33,-199.24 345.1,-202.02 354.82,-206.23 355.33,-199.24"/>
<text text-anchor="start" x="370" y="-229.6" font-family="Helvetica,sans-Serif" font-size="8.00"> m_on_channel_func_or</text>
<text text-anchor="middle" x="417.5" y="-220.6" font-family="Helvetica,sans-Serif" font-size="8.00">_empty</text>
</g>
<!-- Node11 -->
<g id="node11" class="node">
<title>Node11</title>
<g id="a_node11"><a xlink:title=" ">
<polygon fill="white" stroke="#bfbfbf" points="246.5,-149.5 246.5,-166.5 306.5,-166.5 306.5,-149.5 246.5,-149.5"/>
<text text-anchor="middle" x="276.5" y="-156.1" font-family="Helvetica,sans-Serif" font-size="8.00">Error_code</text>
</a>
</g>
</g>
<!-- Node11&#45;&gt;Node2 -->
<g id="edge10" class="edge">
<title>Node11&#45;&gt;Node2</title>
<path fill="none" stroke="#9a32cd" stroke-dasharray="5,2" d="M316.88,-156.79C358.22,-157.25 423.79,-162.97 472,-191 482.92,-197.35 480.26,-204.96 490,-213 494.11,-216.39 498.71,-219.55 503.41,-222.43"/>
<polygon fill="#9a32cd" stroke="#9a32cd" points="316.67,-153.29 306.66,-156.78 316.66,-160.29 316.67,-153.29"/>
<text text-anchor="middle" x="417.5" y="-193.6" font-family="Helvetica,sans-Serif" font-size="8.00"> m_target_err_code_err</text>
</g>
<!-- Node12 -->
<g id="node12" class="node">
<title>Node12</title>
<g id="a_node12"><a xlink:title=" ">
<polygon fill="white" stroke="black" points="220.5,-95.5 220.5,-130.5 332.5,-130.5 332.5,-95.5 220.5,-95.5"/>
<text text-anchor="start" x="228.5" y="-120.1" font-family="Helvetica,sans-Serif" font-size="8.00">std::queue&lt; typename</text>
<text text-anchor="start" x="228.5" y="-111.1" font-family="Helvetica,sans-Serif" font-size="8.00"> Channel_open_result</text>
<text text-anchor="middle" x="276.5" y="-102.1" font-family="Helvetica,sans-Serif" font-size="8.00">::Ptr &gt;</text>
</a>
</g>
</g>
<!-- Node12&#45;&gt;Node2 -->
<g id="edge11" class="edge">
<title>Node12&#45;&gt;Node2</title>
<path fill="none" stroke="#9a32cd" stroke-dasharray="5,2" d="M342.68,-107.71C384.59,-107.94 437.47,-115.54 472,-147 494.48,-167.47 471.1,-189.19 490,-213 492.82,-216.55 496.24,-219.7 499.96,-222.48"/>
<polygon fill="#9a32cd" stroke="#9a32cd" points="342.53,-104.21 332.56,-107.8 342.58,-111.21 342.53,-104.21"/>
<text text-anchor="middle" x="417.5" y="-149.6" font-family="Helvetica,sans-Serif" font-size="8.00"> m_target_channel_open_q</text>
</g>
<!-- Node13 -->
<g id="node13" class="node">
<title>Node13</title>
<g id="a_node13"><a xlink:title=" ">
<polygon fill="white" stroke="#bfbfbf" points="36,-104.5 36,-121.5 65,-121.5 65,-104.5 36,-104.5"/>
<text text-anchor="middle" x="50.5" y="-111.1" font-family="Helvetica,sans-Serif" font-size="8.00">Ptr</text>
</a>
</g>
</g>
<!-- Node13&#45;&gt;Node12 -->
<g id="edge12" class="edge">
<title>Node13&#45;&gt;Node12</title>
<path fill="none" stroke="#9a32cd" stroke-dasharray="5,2" d="M75.18,-113C109.42,-113 173.77,-113 220.32,-113"/>
<polygon fill="#9a32cd" stroke="#9a32cd" points="75.18,-109.5 65.18,-113 75.17,-116.5 75.18,-109.5"/>
<text text-anchor="middle" x="154.5" y="-115.6" font-family="Helvetica,sans-Serif" font-size="8.00"> elements</text>
</g>
<!-- Node14 -->
<g id="node14" class="node">
<title>Node14</title>
<g id="a_node14"><a xlink:title=" ">
<polygon fill="white" stroke="#bfbfbf" points="226,-59.5 226,-76.5 327,-76.5 327,-59.5 226,-59.5"/>
<text text-anchor="middle" x="276.5" y="-66.1" font-family="Helvetica,sans-Serif" font-size="8.00">Mutex_non_recursive</text>
</a>
</g>
</g>
<!-- Node14&#45;&gt;Node2 -->
<g id="edge13" class="edge">
<title>Node14&#45;&gt;Node2</title>
<path fill="none" stroke="#9a32cd" stroke-dasharray="5,2" d="M324.39,-57.9C368.49,-51.39 433.33,-50.01 472,-87 512.88,-126.1 457.65,-166.59 490,-213 492.48,-216.56 495.59,-219.7 499.03,-222.44"/>
<polygon fill="#9a32cd" stroke="#9a32cd" points="323.81,-54.45 314.49,-59.49 324.92,-61.36 323.81,-54.45"/>
<text text-anchor="start" x="367.5" y="-98.6" font-family="Helvetica,sans-Serif" font-size="8.00"> m_target_channel_open</text>
<text text-anchor="middle" x="417.5" y="-89.6" font-family="Helvetica,sans-Serif" font-size="8.00">_q_mutex</text>
</g>
<!-- Node15 -->
<g id="node15" class="node">
<title>Node15</title>
<g id="a_node15"><a xlink:href="classipc_1_1session_1_1Session.html" target="_top" xlink:title="A documentation&#45;only concept defining the local side of an IPC conversation (session) with another en...">
<polygon fill="white" stroke="black" points="224.5,-14 224.5,-40 328.5,-40 328.5,-14 224.5,-14"/>
<text text-anchor="start" x="232.5" y="-29.6" font-family="Helvetica,sans-Serif" font-size="8.00">ipc::session::Session</text>
<text text-anchor="middle" x="276.5" y="-20.6" font-family="Helvetica,sans-Serif" font-size="8.00">&lt; Mdt_payload &gt;</text>
</a>
</g>
</g>
<!-- Node15&#45;&gt;Node2 -->
<g id="edge14" class="edge">
<title>Node15&#45;&gt;Node2</title>
<path fill="none" stroke="#9a32cd" stroke-dasharray="5,2" d="M338.67,-13.28C381.73,-7.53 437.61,-8.56 472,-42 499.39,-68.64 468.73,-181.26 490,-213 492.31,-216.44 495.2,-219.48 498.43,-222.16"/>
<polygon fill="#9a32cd" stroke="#9a32cd" points="337.96,-9.85 328.58,-14.79 338.99,-16.78 337.96,-9.85"/>
<text text-anchor="middle" x="417.5" y="-44.6" font-family="Helvetica,sans-Serif" font-size="8.00"> m_async_io</text>
</g>
<!-- Node16 -->
<g id="node16" class="node">
<title>Node16</title>
<g id="a_node16"><a xlink:title=" ">
<polygon fill="white" stroke="#bfbfbf" points="24,-36.5 24,-53.5 77,-53.5 77,-36.5 24,-36.5"/>
<text text-anchor="middle" x="50.5" y="-43.1" font-family="Helvetica,sans-Serif" font-size="8.00">ShmType</text>
</a>
</g>
</g>
<!-- Node16&#45;&gt;Node15 -->
<g id="edge15" class="edge">
<title>Node16&#45;&gt;Node15</title>
<path fill="none" stroke="#9a32cd" stroke-dasharray="5,2" d="M87.51,-42.11C124.54,-39.13 182.55,-34.47 224.33,-31.11"/>
<polygon fill="#9a32cd" stroke="#9a32cd" points="86.88,-38.65 77.2,-42.94 87.44,-45.62 86.88,-38.65"/>
<text text-anchor="middle" x="154.5" y="-42.6" font-family="Helvetica,sans-Serif" font-size="8.00"> S_SHM_TYPE</text>
</g>
<!-- Node17 -->
<g id="node17" class="node">
<title>Node17</title>
<g id="a_node17"><a xlink:title=" ">
<polygon fill="white" stroke="#bfbfbf" points="0,-0.5 0,-17.5 101,-17.5 101,-0.5 0,-0.5"/>
<text text-anchor="middle" x="50.5" y="-7.1" font-family="Helvetica,sans-Serif" font-size="8.00">static constexpr bool</text>
</a>
</g>
</g>
<!-- Node17&#45;&gt;Node15 -->
<g id="edge16" class="edge">
<title>Node17&#45;&gt;Node15</title>
<path fill="none" stroke="#9a32cd" stroke-dasharray="5,2" d="M111.38,-13.81C146.63,-16.64 190.76,-20.19 224.37,-22.89"/>
<polygon fill="#9a32cd" stroke="#9a32cd" points="111.46,-10.31 101.21,-12.99 110.9,-17.28 111.46,-10.31"/>
<text text-anchor="middle" x="154.5" y="-22.6" font-family="Helvetica,sans-Serif" font-size="8.00"> S_SHM_ENABLED</text>
</g>
<!-- Node18 -->
<g id="node18" class="node">
<title>Node18</title>
<g id="a_node18"><a xlink:title=" ">
<polygon fill="white" stroke="#bfbfbf" points="491.5,-186.5 491.5,-203.5 590.5,-203.5 590.5,-186.5 491.5,-186.5"/>
<text text-anchor="middle" x="541" y="-193.1" font-family="Helvetica,sans-Serif" font-size="8.00">boost::noncopyable</text>
</a>
</g>
</g>
<!-- Node18&#45;&gt;Node1 -->
<g id="edge17" class="edge">
<title>Node18&#45;&gt;Node1</title>
<path fill="none" stroke="#8b1a1a" d="M600.87,-200.14C610.21,-200.95 619.8,-201.79 628.93,-202.59"/>
<polygon fill="#8b1a1a" stroke="#8b1a1a" points="601.13,-196.65 590.86,-199.26 600.52,-203.62 601.13,-196.65"/>
</g>
</g>
</svg>
