<?xml version="1.0" encoding="UTF-8" standalone="no"?>
<!DOCTYPE svg PUBLIC "-//W3C//DTD SVG 1.1//EN"
 "http://www.w3.org/Graphics/SVG/1.1/DTD/svg11.dtd">
<!-- Generated by graphviz version 2.43.0 (0)
 -->
<!-- Title: ipc::transport::sync_io::Native_socket_stream::Impl Pages: 1 -->
<svg width="947pt" height="1269pt"
 viewBox="0.00 0.00 947.00 1268.56" xmlns="http://www.w3.org/2000/svg" xmlns:xlink="http://www.w3.org/1999/xlink">
<g id="graph0" class="graph" transform="scale(1 1) rotate(0) translate(4 1264.56)">
<title>ipc::transport::sync_io::Native_socket_stream::Impl</title>
<polygon fill="white" stroke="transparent" points="-4,4 -4,-1264.56 943,-1264.56 943,4 -4,4"/>
<!-- Node1 -->
<g id="node1" class="node">
<title>Node1</title>
<g id="a_node1"><a xlink:title="Internal, non&#45;movable pImpl implementation of sync_io::Native_socket_stream class.">
<polygon fill="#bfbfbf" stroke="black" points="793,-554.06 793,-580.06 939,-580.06 939,-554.06 793,-554.06"/>
<text text-anchor="start" x="801" y="-569.66" font-family="Helvetica,sans-Serif" font-size="8.00">ipc::transport::sync</text>
<text text-anchor="middle" x="866" y="-560.66" font-family="Helvetica,sans-Serif" font-size="8.00">_io::Native_socket_stream::Impl</text>
</a>
</g>
</g>
<!-- Node2 -->
<g id="node2" class="node">
<title>Node2</title>
<g id="a_node2"><a xlink:title=" ">
<polygon fill="white" stroke="#bfbfbf" points="206,-1045.56 206,-1062.56 313,-1062.56 313,-1045.56 206,-1045.56"/>
<text text-anchor="middle" x="259.5" y="-1052.16" font-family="Helvetica,sans-Serif" font-size="8.00">flow::log::Log_context</text>
</a>
</g>
</g>
<!-- Node2&#45;&gt;Node1 -->
<g id="edge1" class="edge">
<title>Node2&#45;&gt;Node1</title>
<path fill="none" stroke="midnightblue" d="M310.23,-1064.45C413.42,-1082.81 651.47,-1107.89 775,-980.06 832.63,-920.43 858.65,-644.21 863.96,-580.29"/>
<polygon fill="midnightblue" stroke="midnightblue" points="310.55,-1060.95 300.08,-1062.59 309.29,-1067.84 310.55,-1060.95"/>
</g>
<!-- Node9 -->
<g id="node9" class="node">
<title>Node9</title>
<g id="a_node9"><a xlink:href="classipc_1_1transport_1_1Protocol__negotiator.html" target="_top" xlink:title="A simple state machine that, assuming the opposide side of a comm pathway uses an equivalent state ma...">
<polygon fill="white" stroke="black" points="505.5,-913.06 505.5,-939.06 616.5,-939.06 616.5,-913.06 505.5,-913.06"/>
<text text-anchor="start" x="513.5" y="-928.66" font-family="Helvetica,sans-Serif" font-size="8.00">ipc::transport::Protocol</text>
<text text-anchor="middle" x="561" y="-919.66" font-family="Helvetica,sans-Serif" font-size="8.00">_negotiator</text>
</a>
</g>
</g>
<!-- Node2&#45;&gt;Node9 -->
<g id="edge9" class="edge">
<title>Node2&#45;&gt;Node9</title>
<path fill="none" stroke="midnightblue" d="M301.31,-1042.63C343.28,-1030.15 409.95,-1008.26 464,-981.06 472.59,-976.73 473.78,-974.05 482,-969.06 499.44,-958.46 519.64,-947.36 535.11,-939.09"/>
<polygon fill="midnightblue" stroke="midnightblue" points="300.06,-1039.35 291.45,-1045.52 302.03,-1046.06 300.06,-1039.35"/>
</g>
<!-- Node20 -->
<g id="node20" class="node">
<title>Node20</title>
<g id="a_node20"><a xlink:href="classipc_1_1util_1_1sync__io_1_1Timer__event__emitter.html" target="_top" xlink:title="An object of this type, used internally to implement sync_io&#45;pattern objects that require timer event...">
<polygon fill="white" stroke="black" points="508.5,-1118.06 508.5,-1144.06 613.5,-1144.06 613.5,-1118.06 508.5,-1118.06"/>
<text text-anchor="start" x="516.5" y="-1133.66" font-family="Helvetica,sans-Serif" font-size="8.00">ipc::util::sync_io</text>
<text text-anchor="middle" x="561" y="-1124.66" font-family="Helvetica,sans-Serif" font-size="8.00">::Timer_event_emitter</text>
</a>
</g>
</g>
<!-- Node2&#45;&gt;Node20 -->
<g id="edge22" class="edge">
<title>Node2&#45;&gt;Node20</title>
<path fill="none" stroke="midnightblue" d="M307.88,-1065.61C314.74,-1067.79 321.63,-1070.28 328,-1073.06 336.59,-1076.81 337.3,-1080.56 346,-1084.06 360.95,-1090.07 449.92,-1108.73 508.34,-1120.65"/>
<polygon fill="midnightblue" stroke="midnightblue" points="308.51,-1062.14 297.92,-1062.62 306.5,-1068.85 308.51,-1062.14"/>
</g>
<!-- Node3 -->
<g id="node3" class="node">
<title>Node3</title>
<g id="a_node3"><a xlink:title=" ">
<polygon fill="white" stroke="#bfbfbf" points="210,-1235.56 210,-1252.56 309,-1252.56 309,-1235.56 210,-1235.56"/>
<text text-anchor="middle" x="259.5" y="-1242.16" font-family="Helvetica,sans-Serif" font-size="8.00">boost::noncopyable</text>
</a>
</g>
</g>
<!-- Node3&#45;&gt;Node1 -->
<g id="edge2" class="edge">
<title>Node3&#45;&gt;Node1</title>
<path fill="none" stroke="#8b1a1a" d="M319.36,-1253.16C427.79,-1266.21 658.61,-1275.95 775,-1146.06 853.32,-1058.64 863.57,-658.4 864.83,-580.29"/>
<polygon fill="#8b1a1a" stroke="#8b1a1a" points="319.62,-1249.67 309.26,-1251.89 318.75,-1256.61 319.62,-1249.67"/>
</g>
<!-- Node3&#45;&gt;Node20 -->
<g id="edge23" class="edge">
<title>Node3&#45;&gt;Node20</title>
<path fill="none" stroke="#8b1a1a" d="M319.29,-1235.89C369.91,-1228.29 438.68,-1216.45 464,-1205.06 497.39,-1190.03 529.74,-1161.24 547.04,-1144.34"/>
<polygon fill="#8b1a1a" stroke="#8b1a1a" points="318.48,-1232.47 309.1,-1237.39 319.51,-1239.39 318.48,-1232.47"/>
</g>
<!-- Node4 -->
<g id="node4" class="node">
<title>Node4</title>
<g id="a_node4"><a xlink:title=" ">
<polygon fill="white" stroke="#bfbfbf" points="541,-831.56 541,-848.56 581,-848.56 581,-831.56 541,-831.56"/>
<text text-anchor="middle" x="561" y="-838.16" font-family="Helvetica,sans-Serif" font-size="8.00">size_t</text>
</a>
</g>
</g>
<!-- Node4&#45;&gt;Node1 -->
<g id="edge3" class="edge">
<title>Node4&#45;&gt;Node1</title>
<path fill="none" stroke="#9a32cd" stroke-dasharray="5,2" d="M591.14,-845.97C635.77,-853.24 721.5,-859.99 775,-818.06 852.97,-756.95 863.48,-622.61 864.82,-580.17"/>
<polygon fill="#9a32cd" stroke="#9a32cd" points="591.69,-842.51 581.23,-844.23 590.48,-849.4 591.69,-842.51"/>
<text text-anchor="middle" x="716.5" y="-853.66" font-family="Helvetica,sans-Serif" font-size="8.00"> S_MAX_META_BLOB_LENGTH</text>
</g>
<!-- Node5 -->
<g id="node5" class="node">
<title>Node5</title>
<g id="a_node5"><a xlink:title=" ">
<polygon fill="white" stroke="#bfbfbf" points="505,-786.06 505,-812.06 617,-812.06 617,-786.06 505,-786.06"/>
<text text-anchor="start" x="513" y="-801.66" font-family="Helvetica,sans-Serif" font-size="8.00">static const low_lvl</text>
<text text-anchor="middle" x="561" y="-792.66" font-family="Helvetica,sans-Serif" font-size="8.00">_payload_blob_length_t</text>
</a>
</g>
</g>
<!-- Node5&#45;&gt;Node1 -->
<g id="edge4" class="edge">
<title>Node5&#45;&gt;Node1</title>
<path fill="none" stroke="#9a32cd" stroke-dasharray="5,2" d="M627.2,-798.4C681.05,-796.61 752.22,-790.97 775,-774.06 840.91,-725.11 859.22,-617.65 863.69,-580.22"/>
<polygon fill="#9a32cd" stroke="#9a32cd" points="626.91,-794.91 617.02,-798.7 627.12,-801.9 626.91,-794.91"/>
<text text-anchor="start" x="669" y="-807.66" font-family="Helvetica,sans-Serif" font-size="8.00"> S_META_BLOB_LENGTH</text>
<text text-anchor="middle" x="716.5" y="-798.66" font-family="Helvetica,sans-Serif" font-size="8.00">_PING_SENTINEL</text>
</g>
<!-- Node6 -->
<g id="node6" class="node">
<title>Node6</title>
<g id="a_node6"><a xlink:title=" ">
<polygon fill="white" stroke="black" points="230,-982.56 230,-999.56 289,-999.56 289,-982.56 230,-982.56"/>
<text text-anchor="middle" x="259.5" y="-989.16" font-family="Helvetica,sans-Serif" font-size="8.00">std::string</text>
</a>
</g>
</g>
<!-- Node6&#45;&gt;Node1 -->
<g id="edge5" class="edge">
<title>Node6&#45;&gt;Node1</title>
<path fill="none" stroke="#9a32cd" stroke-dasharray="5,2" d="M299.32,-993.47C406.7,-999.31 704.4,-1009.47 775,-948.06 832.69,-897.87 858.49,-641.59 863.9,-580.26"/>
<polygon fill="#9a32cd" stroke="#9a32cd" points="299.43,-989.97 289.25,-992.91 299.03,-996.96 299.43,-989.97"/>
<text text-anchor="middle" x="561" y="-999.66" font-family="Helvetica,sans-Serif" font-size="8.00"> m_nickname</text>
</g>
<!-- Node6&#45;&gt;Node9 -->
<g id="edge11" class="edge">
<title>Node6&#45;&gt;Node9</title>
<path fill="none" stroke="#9a32cd" stroke-dasharray="5,2" d="M299.01,-980.08C313.66,-976.07 330.55,-971.64 346,-968.06 398.05,-956 411.57,-955.35 464,-945.06 477.42,-942.42 491.89,-939.56 505.43,-936.89"/>
<polygon fill="#9a32cd" stroke="#9a32cd" points="297.97,-976.74 289.26,-982.78 299.83,-983.48 297.97,-976.74"/>
<text text-anchor="middle" x="405" y="-970.66" font-family="Helvetica,sans-Serif" font-size="8.00"> m_nickname</text>
</g>
<!-- Node6&#45;&gt;Node20 -->
<g id="edge24" class="edge">
<title>Node6&#45;&gt;Node20</title>
<path fill="none" stroke="#9a32cd" stroke-dasharray="5,2" d="M296.16,-1002.83C337.47,-1016.98 407.15,-1042.42 464,-1071.06 492.09,-1085.2 522.56,-1105.1 541.47,-1118.04"/>
<polygon fill="#9a32cd" stroke="#9a32cd" points="297.13,-999.46 286.54,-999.56 294.88,-1006.09 297.13,-999.46"/>
<text text-anchor="middle" x="405" y="-1073.66" font-family="Helvetica,sans-Serif" font-size="8.00"> m_nickname</text>
</g>
<!-- Node7 -->
<g id="node7" class="node">
<title>Node7</title>
<g id="a_node7"><a xlink:title=" ">
<polygon fill="white" stroke="black" points="11.5,-978.06 11.5,-1004.06 102.5,-1004.06 102.5,-978.06 11.5,-978.06"/>
<text text-anchor="start" x="19.5" y="-993.66" font-family="Helvetica,sans-Serif" font-size="8.00">std::basic_string&lt;</text>
<text text-anchor="middle" x="57" y="-984.66" font-family="Helvetica,sans-Serif" font-size="8.00"> Char &gt;</text>
</a>
</g>
</g>
<!-- Node7&#45;&gt;Node6 -->
<g id="edge6" class="edge">
<title>Node7&#45;&gt;Node6</title>
<path fill="none" stroke="midnightblue" d="M113.11,-991.06C150.96,-991.06 199.66,-991.06 229.98,-991.06"/>
<polygon fill="midnightblue" stroke="midnightblue" points="112.75,-987.56 102.75,-991.06 112.75,-994.56 112.75,-987.56"/>
</g>
<!-- Node8 -->
<g id="node8" class="node">
<title>Node8</title>
<g id="a_node8"><a xlink:title=" ">
<polygon fill="white" stroke="#bfbfbf" points="542,-749.56 542,-766.56 580,-766.56 580,-749.56 542,-749.56"/>
<text text-anchor="middle" x="561" y="-756.16" font-family="Helvetica,sans-Serif" font-size="8.00">State</text>
</a>
</g>
</g>
<!-- Node8&#45;&gt;Node1 -->
<g id="edge7" class="edge">
<title>Node8&#45;&gt;Node1</title>
<path fill="none" stroke="#9a32cd" stroke-dasharray="5,2" d="M590.52,-759.73C641.44,-762.17 745.44,-764.5 775,-745.06 834.6,-705.86 856.56,-614.49 862.86,-580.29"/>
<polygon fill="#9a32cd" stroke="#9a32cd" points="590.38,-756.22 580.22,-759.2 590.02,-763.21 590.38,-756.22"/>
<text text-anchor="middle" x="716.5" y="-763.66" font-family="Helvetica,sans-Serif" font-size="8.00"> m_state</text>
</g>
<!-- Node9&#45;&gt;Node1 -->
<g id="edge8" class="edge">
<title>Node9&#45;&gt;Node1</title>
<path fill="none" stroke="#9a32cd" stroke-dasharray="5,2" d="M626.81,-935.4C673.44,-938.34 734.92,-933.93 775,-899.06 825.12,-855.44 856.1,-636.85 863.35,-580.38"/>
<polygon fill="#9a32cd" stroke="#9a32cd" points="627.04,-931.91 616.8,-934.64 626.51,-938.89 627.04,-931.91"/>
<text text-anchor="middle" x="716.5" y="-937.66" font-family="Helvetica,sans-Serif" font-size="8.00"> m_protocol_negotiator</text>
</g>
<!-- Node10 -->
<g id="node10" class="node">
<title>Node10</title>
<g id="a_node10"><a xlink:title=" ">
<polygon fill="white" stroke="#bfbfbf" points="207,-913.06 207,-939.06 312,-939.06 312,-913.06 207,-913.06"/>
<text text-anchor="start" x="215" y="-928.66" font-family="Helvetica,sans-Serif" font-size="8.00">static constexpr proto</text>
<text text-anchor="middle" x="259.5" y="-919.66" font-family="Helvetica,sans-Serif" font-size="8.00">_ver_t</text>
</a>
</g>
</g>
<!-- Node10&#45;&gt;Node9 -->
<g id="edge10" class="edge">
<title>Node10&#45;&gt;Node9</title>
<path fill="none" stroke="#9a32cd" stroke-dasharray="5,2" d="M322.44,-926.06C376.31,-926.06 453.63,-926.06 505.26,-926.06"/>
<polygon fill="#9a32cd" stroke="#9a32cd" points="322.33,-922.56 312.33,-926.06 322.33,-929.56 322.33,-922.56"/>
<text text-anchor="middle" x="405" y="-937.66" font-family="Helvetica,sans-Serif" font-size="8.00"> S_VER_UNKNOWN</text>
<text text-anchor="middle" x="405" y="-928.66" font-family="Helvetica,sans-Serif" font-size="8.00">S_VER_UNSUPPORTED</text>
</g>
<!-- Node11 -->
<g id="node11" class="node">
<title>Node11</title>
<g id="a_node11"><a xlink:title=" ">
<polygon fill="white" stroke="#bfbfbf" points="237.5,-867.56 237.5,-884.56 281.5,-884.56 281.5,-867.56 237.5,-867.56"/>
<text text-anchor="middle" x="259.5" y="-874.16" font-family="Helvetica,sans-Serif" font-size="8.00">int16_t</text>
</a>
</g>
</g>
<!-- Node11&#45;&gt;Node9 -->
<g id="edge12" class="edge">
<title>Node11&#45;&gt;Node9</title>
<path fill="none" stroke="#9a32cd" stroke-dasharray="5,2" d="M291.75,-876.85C331.97,-878.36 403.83,-882.69 464,-895.06 484.93,-899.36 507.71,-906.6 525.83,-913"/>
<polygon fill="#9a32cd" stroke="#9a32cd" points="291.64,-873.35 281.52,-876.51 291.4,-880.34 291.64,-873.35"/>
<text text-anchor="middle" x="405" y="-915.66" font-family="Helvetica,sans-Serif" font-size="8.00"> m_local_max_proto_ver</text>
<text text-anchor="middle" x="405" y="-906.66" font-family="Helvetica,sans-Serif" font-size="8.00">m_local_min_proto_ver</text>
<text text-anchor="middle" x="405" y="-897.66" font-family="Helvetica,sans-Serif" font-size="8.00">m_negotiated_proto_ver</text>
</g>
<!-- Node12 -->
<g id="node12" class="node">
<title>Node12</title>
<g id="a_node12"><a xlink:title=" ">
<polygon fill="white" stroke="#bfbfbf" points="242,-817.56 242,-834.56 277,-834.56 277,-817.56 242,-817.56"/>
<text text-anchor="middle" x="259.5" y="-824.16" font-family="Helvetica,sans-Serif" font-size="8.00">bool</text>
</a>
</g>
</g>
<!-- Node12&#45;&gt;Node1 -->
<g id="edge35" class="edge">
<title>Node12&#45;&gt;Node1</title>
<path fill="none" stroke="#9a32cd" stroke-dasharray="5,2" d="M286.79,-817.9C327.84,-806.83 408.24,-791.96 464,-825.06 478.37,-833.58 467.78,-849.29 482,-858.06 537.43,-892.25 722.7,-902.86 775,-864.06 822.81,-828.58 855.15,-633.02 863.09,-580.2"/>
<polygon fill="#9a32cd" stroke="#9a32cd" points="285.67,-814.58 277.01,-820.67 287.58,-821.32 285.67,-814.58"/>
<text text-anchor="middle" x="561" y="-890.66" font-family="Helvetica,sans-Serif" font-size="8.00"> m_snd_finished</text>
</g>
<!-- Node12&#45;&gt;Node9 -->
<g id="edge13" class="edge">
<title>Node12&#45;&gt;Node9</title>
<path fill="none" stroke="#9a32cd" stroke-dasharray="5,2" d="M287.22,-824.79C328.91,-824.17 410.22,-828.52 464,-867.06 476.95,-876.34 469.76,-887.86 482,-898.06 489.41,-904.23 498.28,-909.09 507.34,-912.9"/>
<polygon fill="#9a32cd" stroke="#9a32cd" points="286.95,-821.3 277.04,-825.06 287.13,-828.3 286.95,-821.3"/>
<text text-anchor="middle" x="405" y="-869.66" font-family="Helvetica,sans-Serif" font-size="8.00"> m_local_max_proto_ver_sent</text>
</g>
<!-- Node13 -->
<g id="node13" class="node">
<title>Node13</title>
<g id="a_node13"><a xlink:title=" ">
<polygon fill="white" stroke="#bfbfbf" points="527.5,-713.56 527.5,-730.56 594.5,-730.56 594.5,-713.56 527.5,-713.56"/>
<text text-anchor="middle" x="561" y="-720.16" font-family="Helvetica,sans-Serif" font-size="8.00">Task_engine</text>
</a>
</g>
</g>
<!-- Node13&#45;&gt;Node1 -->
<g id="edge14" class="edge">
<title>Node13&#45;&gt;Node1</title>
<path fill="none" stroke="#9a32cd" stroke-dasharray="5,2" d="M605.1,-720.67C658.9,-718.24 747.23,-711.78 775,-695.06 820.61,-667.59 849.14,-607.15 860,-580.33"/>
<polygon fill="#9a32cd" stroke="#9a32cd" points="604.67,-717.18 594.83,-721.1 604.96,-724.17 604.67,-717.18"/>
<text text-anchor="start" x="667" y="-737.66" font-family="Helvetica,sans-Serif" font-size="8.00"> m_ev_hndl_task_engine</text>
<text text-anchor="middle" x="716.5" y="-728.66" font-family="Helvetica,sans-Serif" font-size="8.00">_unused</text>
<text text-anchor="middle" x="716.5" y="-719.66" font-family="Helvetica,sans-Serif" font-size="8.00">m_nb_task_engine</text>
</g>
<!-- Node14 -->
<g id="node14" class="node">
<title>Node14</title>
<g id="a_node14"><a xlink:title=" ">
<polygon fill="white" stroke="#bfbfbf" points="489.5,-668.06 489.5,-694.06 632.5,-694.06 632.5,-668.06 489.5,-668.06"/>
<text text-anchor="start" x="497.5" y="-683.66" font-family="Helvetica,sans-Serif" font-size="8.00">unique_ptr&lt; asio_local</text>
<text text-anchor="middle" x="561" y="-674.66" font-family="Helvetica,sans-Serif" font-size="8.00">_stream_socket::Peer_socket &gt;</text>
</a>
</g>
</g>
<!-- Node14&#45;&gt;Node1 -->
<g id="edge15" class="edge">
<title>Node14&#45;&gt;Node1</title>
<path fill="none" stroke="#9a32cd" stroke-dasharray="5,2" d="M642.79,-675.19C692.91,-670.57 752.01,-663.05 775,-652.06 810.09,-635.27 840.55,-599.73 855.39,-580.35"/>
<polygon fill="#9a32cd" stroke="#9a32cd" points="642.22,-671.73 632.57,-676.11 642.84,-678.7 642.22,-671.73"/>
<text text-anchor="middle" x="716.5" y="-684.66" font-family="Helvetica,sans-Serif" font-size="8.00"> m_peer_socket</text>
<text text-anchor="middle" x="716.5" y="-675.66" font-family="Helvetica,sans-Serif" font-size="8.00">m_peer_socket_hosed</text>
</g>
<!-- Node15 -->
<g id="node15" class="node">
<title>Node15</title>
<g id="a_node15"><a xlink:href="classipc_1_1util_1_1Process__credentials.html" target="_top" xlink:title="A process&#39;s credentials (PID, UID, GID as of this writing).">
<polygon fill="white" stroke="black" points="518.5,-623.06 518.5,-649.06 603.5,-649.06 603.5,-623.06 518.5,-623.06"/>
<text text-anchor="start" x="526.5" y="-638.66" font-family="Helvetica,sans-Serif" font-size="8.00">ipc::util::Process</text>
<text text-anchor="middle" x="561" y="-629.66" font-family="Helvetica,sans-Serif" font-size="8.00">_credentials</text>
</a>
</g>
</g>
<!-- Node15&#45;&gt;Node1 -->
<g id="edge16" class="edge">
<title>Node15&#45;&gt;Node1</title>
<path fill="none" stroke="#9a32cd" stroke-dasharray="5,2" d="M613.67,-639.48C657.62,-640.79 721.86,-638.91 775,-622.06 803.28,-613.09 831.81,-593.45 848.95,-580.23"/>
<polygon fill="#9a32cd" stroke="#9a32cd" points="613.63,-635.97 603.51,-639.1 613.38,-642.97 613.63,-635.97"/>
<text text-anchor="middle" x="716.5" y="-641.66" font-family="Helvetica,sans-Serif" font-size="8.00"> m_peer_process_creds</text>
</g>
<!-- Node16 -->
<g id="node16" class="node">
<title>Node16</title>
<g id="a_node16"><a xlink:title=" ">
<polygon fill="white" stroke="#bfbfbf" points="239.5,-627.56 239.5,-644.56 279.5,-644.56 279.5,-627.56 239.5,-627.56"/>
<text text-anchor="middle" x="259.5" y="-634.16" font-family="Helvetica,sans-Serif" font-size="8.00">ucred</text>
</a>
</g>
</g>
<!-- Node16&#45;&gt;Node15 -->
<g id="edge17" class="edge">
<title>Node16&#45;&gt;Node15</title>
<path fill="none" stroke="#9a32cd" stroke-dasharray="5,2" d="M289.85,-636.06C343.34,-636.06 456.81,-636.06 518.3,-636.06"/>
<polygon fill="#9a32cd" stroke="#9a32cd" points="289.69,-632.56 279.69,-636.06 289.69,-639.56 289.69,-632.56"/>
<text text-anchor="middle" x="405" y="-638.66" font-family="Helvetica,sans-Serif" font-size="8.00"> m_val</text>
</g>
<!-- Node17 -->
<g id="node17" class="node">
<title>Node17</title>
<g id="a_node17"><a xlink:href="classipc_1_1util_1_1sync__io_1_1Asio__waitable__native__handle.html" target="_top" xlink:title="Useful if using the sync_io pattern within a user event loop built on boost.asio (optionally with flo...">
<polygon fill="white" stroke="black" points="507,-568.56 507,-603.56 615,-603.56 615,-568.56 507,-568.56"/>
<text text-anchor="start" x="515" y="-593.16" font-family="Helvetica,sans-Serif" font-size="8.00">ipc::util::sync_io</text>
<text text-anchor="start" x="515" y="-584.16" font-family="Helvetica,sans-Serif" font-size="8.00">::Asio_waitable_native</text>
<text text-anchor="middle" x="561" y="-575.16" font-family="Helvetica,sans-Serif" font-size="8.00">_handle</text>
</a>
</g>
</g>
<!-- Node17&#45;&gt;Node1 -->
<g id="edge18" class="edge">
<title>Node17&#45;&gt;Node1</title>
<path fill="none" stroke="#9a32cd" stroke-dasharray="5,2" d="M625,-572.57C635.96,-570.7 647.27,-569.08 658,-568.06 702.72,-563.79 753.12,-563.45 792.99,-564.22"/>
<polygon fill="#9a32cd" stroke="#9a32cd" points="624.31,-569.14 615.07,-574.34 625.53,-576.03 624.31,-569.14"/>
<text text-anchor="start" x="659" y="-615.66" font-family="Helvetica,sans-Serif" font-size="8.00"> m_ev_wait_hndl_peer</text>
<text text-anchor="middle" x="716.5" y="-606.66" font-family="Helvetica,sans-Serif" font-size="8.00">_socket</text>
<text text-anchor="start" x="659" y="-597.66" font-family="Helvetica,sans-Serif" font-size="8.00">m_rcv_ev_wait_hndl</text>
<text text-anchor="middle" x="716.5" y="-588.66" font-family="Helvetica,sans-Serif" font-size="8.00">_idle_timer_fired_peer</text>
<text text-anchor="start" x="659" y="-579.66" font-family="Helvetica,sans-Serif" font-size="8.00">m_snd_ev_wait_hndl</text>
<text text-anchor="middle" x="716.5" y="-570.66" font-family="Helvetica,sans-Serif" font-size="8.00">_auto_ping_timer_fired_peer</text>
</g>
<!-- Node18 -->
<g id="node18" class="node">
<title>Node18</title>
<g id="a_node18"><a xlink:title=" ">
<polygon fill="white" stroke="#bfbfbf" points="214,-573.06 214,-599.06 305,-599.06 305,-573.06 214,-573.06"/>
<text text-anchor="start" x="222" y="-588.66" font-family="Helvetica,sans-Serif" font-size="8.00">boost::asio::posix</text>
<text text-anchor="middle" x="259.5" y="-579.66" font-family="Helvetica,sans-Serif" font-size="8.00">::descriptor</text>
</a>
</g>
</g>
<!-- Node18&#45;&gt;Node17 -->
<g id="edge19" class="edge">
<title>Node18&#45;&gt;Node17</title>
<path fill="none" stroke="darkgreen" d="M315.19,-586.06C369.72,-586.06 452.92,-586.06 506.89,-586.06"/>
<polygon fill="darkgreen" stroke="darkgreen" points="315.01,-582.56 305.01,-586.06 315.01,-589.56 315.01,-582.56"/>
</g>
<!-- Node19 -->
<g id="node19" class="node">
<title>Node19</title>
<g id="a_node19"><a xlink:title=" ">
<polygon fill="white" stroke="#bfbfbf" points="510.5,-532.56 510.5,-549.56 611.5,-549.56 611.5,-532.56 510.5,-532.56"/>
<text text-anchor="middle" x="561" y="-539.16" font-family="Helvetica,sans-Serif" font-size="8.00">Mutex_non_recursive</text>
</a>
</g>
</g>
<!-- Node19&#45;&gt;Node1 -->
<g id="edge20" class="edge">
<title>Node19&#45;&gt;Node1</title>
<path fill="none" stroke="#9a32cd" stroke-dasharray="5,2" d="M621.9,-541.28C664.68,-542 723.54,-544.14 775,-550.06 783.85,-551.07 793.13,-552.46 802.23,-554"/>
<polygon fill="#9a32cd" stroke="#9a32cd" points="621.7,-537.78 611.65,-541.13 621.6,-544.78 621.7,-537.78"/>
<text text-anchor="middle" x="716.5" y="-552.66" font-family="Helvetica,sans-Serif" font-size="8.00"> m_peer_socket_mutex</text>
</g>
<!-- Node20&#45;&gt;Node1 -->
<g id="edge21" class="edge">
<title>Node20&#45;&gt;Node1</title>
<path fill="none" stroke="#9a32cd" stroke-dasharray="5,2" d="M624.22,-1135.61C672.12,-1135.49 736.46,-1126.86 775,-1087.06 848.13,-1011.52 862.47,-653.5 864.66,-580.19"/>
<polygon fill="#9a32cd" stroke="#9a32cd" points="624,-1132.11 613.96,-1135.5 623.93,-1139.1 624,-1132.11"/>
<text text-anchor="middle" x="716.5" y="-1135.66" font-family="Helvetica,sans-Serif" font-size="8.00"> m_timer_worker</text>
</g>
<!-- Node21 -->
<g id="node21" class="node">
<title>Node21</title>
<g id="a_node21"><a xlink:title=" ">
<polygon fill="white" stroke="#bfbfbf" points="201.5,-1199.56 201.5,-1216.56 317.5,-1216.56 317.5,-1199.56 201.5,-1199.56"/>
<text text-anchor="middle" x="259.5" y="-1206.16" font-family="Helvetica,sans-Serif" font-size="8.00">Single_thread_task_loop</text>
</a>
</g>
</g>
<!-- Node21&#45;&gt;Node20 -->
<g id="edge25" class="edge">
<title>Node21&#45;&gt;Node20</title>
<path fill="none" stroke="#9a32cd" stroke-dasharray="5,2" d="M322.46,-1197.7C363.08,-1190.32 417.13,-1179.36 464,-1166.06 485.67,-1159.9 509.47,-1151.24 527.95,-1144.08"/>
<polygon fill="#9a32cd" stroke="#9a32cd" points="321.66,-1194.29 312.44,-1199.5 322.9,-1201.18 321.66,-1194.29"/>
<text text-anchor="middle" x="405" y="-1194.66" font-family="Helvetica,sans-Serif" font-size="8.00"> m_worker</text>
</g>
<!-- Node22 -->
<g id="node22" class="node">
<title>Node22</title>
<g id="a_node22"><a xlink:title=" ">
<polygon fill="white" stroke="black" points="194,-1145.56 194,-1180.56 325,-1180.56 325,-1145.56 194,-1145.56"/>
<text text-anchor="start" x="202" y="-1170.16" font-family="Helvetica,sans-Serif" font-size="8.00">std::vector&lt; boost</text>
<text text-anchor="start" x="202" y="-1161.16" font-family="Helvetica,sans-Serif" font-size="8.00">::movelib::unique_ptr</text>
<text text-anchor="middle" x="259.5" y="-1152.16" font-family="Helvetica,sans-Serif" font-size="8.00">&lt; Timer_fired_read_end &gt; &gt;</text>
</a>
</g>
</g>
<!-- Node22&#45;&gt;Node20 -->
<g id="edge26" class="edge">
<title>Node22&#45;&gt;Node20</title>
<path fill="none" stroke="#9a32cd" stroke-dasharray="5,2" d="M335.32,-1155.06C389.28,-1149.3 460.73,-1141.66 508.42,-1136.57"/>
<polygon fill="#9a32cd" stroke="#9a32cd" points="334.69,-1151.61 325.12,-1156.15 335.43,-1158.57 334.69,-1151.61"/>
<text text-anchor="middle" x="405" y="-1155.66" font-family="Helvetica,sans-Serif" font-size="8.00"> m_signal_pipe_readers</text>
</g>
<!-- Node23 -->
<g id="node23" class="node">
<title>Node23</title>
<g id="a_node23"><a xlink:title=" ">
<polygon fill="white" stroke="#bfbfbf" points="0,-1150.06 0,-1176.06 114,-1176.06 114,-1150.06 0,-1150.06"/>
<text text-anchor="start" x="8" y="-1165.66" font-family="Helvetica,sans-Serif" font-size="8.00">unique_ptr&lt; Timer_fired</text>
<text text-anchor="middle" x="57" y="-1156.66" font-family="Helvetica,sans-Serif" font-size="8.00">_read_end &gt;</text>
</a>
</g>
</g>
<!-- Node23&#45;&gt;Node22 -->
<g id="edge27" class="edge">
<title>Node23&#45;&gt;Node22</title>
<path fill="none" stroke="#9a32cd" stroke-dasharray="5,2" d="M124.21,-1163.06C146.63,-1163.06 171.61,-1163.06 193.9,-1163.06"/>
<polygon fill="#9a32cd" stroke="#9a32cd" points="124.12,-1159.56 114.12,-1163.06 124.12,-1166.56 124.12,-1159.56"/>
<text text-anchor="middle" x="152.5" y="-1165.66" font-family="Helvetica,sans-Serif" font-size="8.00"> elements</text>
</g>
<!-- Node24 -->
<g id="node24" class="node">
<title>Node24</title>
<g id="a_node24"><a xlink:title=" ">
<polygon fill="white" stroke="#bfbfbf" points="191,-1082.06 191,-1126.06 328,-1126.06 328,-1082.06 191,-1082.06"/>
<text text-anchor="start" x="199" y="-1115.66" font-family="Helvetica,sans-Serif" font-size="8.00">unordered_map&lt; Timer</text>
<text text-anchor="start" x="199" y="-1106.66" font-family="Helvetica,sans-Serif" font-size="8.00">_fired_read_end *, boost</text>
<text text-anchor="start" x="199" y="-1097.66" font-family="Helvetica,sans-Serif" font-size="8.00">::movelib::unique_ptr&lt; boost</text>
<text text-anchor="middle" x="259.5" y="-1088.66" font-family="Helvetica,sans-Serif" font-size="8.00">::asio::writable_pipe &gt; &gt;</text>
</a>
</g>
</g>
<!-- Node24&#45;&gt;Node20 -->
<g id="edge28" class="edge">
<title>Node24&#45;&gt;Node20</title>
<path fill="none" stroke="#9a32cd" stroke-dasharray="5,2" d="M338.21,-1111.06C391.66,-1115.88 461.19,-1122.15 508.03,-1126.37"/>
<polygon fill="#9a32cd" stroke="#9a32cd" points="338.36,-1107.56 328.09,-1110.15 337.73,-1114.53 338.36,-1107.56"/>
<text text-anchor="middle" x="405" y="-1124.66" font-family="Helvetica,sans-Serif" font-size="8.00"> m_signal_pipe_writers</text>
</g>
<!-- Node25 -->
<g id="node25" class="node">
<title>Node25</title>
<g id="a_node25"><a xlink:title=" ">
<polygon fill="white" stroke="#bfbfbf" points="508,-478.56 508,-513.56 614,-513.56 614,-478.56 508,-478.56"/>
<text text-anchor="start" x="516" y="-503.16" font-family="Helvetica,sans-Serif" font-size="8.00">optional&lt; flow::async</text>
<text text-anchor="start" x="516" y="-494.16" font-family="Helvetica,sans-Serif" font-size="8.00">::Single_thread_task</text>
<text text-anchor="middle" x="561" y="-485.16" font-family="Helvetica,sans-Serif" font-size="8.00">_loop &gt;</text>
</a>
</g>
</g>
<!-- Node25&#45;&gt;Node1 -->
<g id="edge29" class="edge">
<title>Node25&#45;&gt;Node1</title>
<path fill="none" stroke="#9a32cd" stroke-dasharray="5,2" d="M624.44,-501.64C667.36,-506.47 725.34,-514.96 775,-529.06 797.19,-535.36 821.2,-545.69 838.84,-553.99"/>
<polygon fill="#9a32cd" stroke="#9a32cd" points="624.74,-498.16 614.42,-500.55 623.98,-505.12 624.74,-498.16"/>
<text text-anchor="middle" x="716.5" y="-531.66" font-family="Helvetica,sans-Serif" font-size="8.00"> m_conn_async_worker</text>
</g>
<!-- Node26 -->
<g id="node26" class="node">
<title>Node26</title>
<g id="a_node26"><a xlink:title=" ">
<polygon fill="white" stroke="#bfbfbf" points="503.5,-424.56 503.5,-459.56 618.5,-459.56 618.5,-424.56 503.5,-424.56"/>
<text text-anchor="start" x="511.5" y="-449.16" font-family="Helvetica,sans-Serif" font-size="8.00">optional&lt; ipc::util</text>
<text text-anchor="start" x="511.5" y="-440.16" font-family="Helvetica,sans-Serif" font-size="8.00">::sync_io::Asio_waitable</text>
<text text-anchor="middle" x="561" y="-431.16" font-family="Helvetica,sans-Serif" font-size="8.00">_native_handle &gt;</text>
</a>
</g>
</g>
<!-- Node26&#45;&gt;Node1 -->
<g id="edge30" class="edge">
<title>Node26&#45;&gt;Node1</title>
<path fill="none" stroke="#9a32cd" stroke-dasharray="5,2" d="M628.76,-445.83C672.35,-450.5 729.42,-460.91 775,-484.06 809.11,-501.38 839.75,-535.38 854.93,-554.03"/>
<polygon fill="#9a32cd" stroke="#9a32cd" points="628.85,-442.32 618.55,-444.81 628.15,-449.29 628.85,-442.32"/>
<text text-anchor="start" x="671" y="-495.66" font-family="Helvetica,sans-Serif" font-size="8.00"> m_conn_ev_wait_hndl</text>
<text text-anchor="middle" x="716.5" y="-486.66" font-family="Helvetica,sans-Serif" font-size="8.00">_peer_socket</text>
</g>
<!-- Node27 -->
<g id="node27" class="node">
<title>Node27</title>
<g id="a_node27"><a xlink:title=" ">
<polygon fill="white" stroke="#bfbfbf" points="499.5,-343.06 499.5,-405.06 622.5,-405.06 622.5,-343.06 499.5,-343.06"/>
<text text-anchor="start" x="507.5" y="-394.66" font-family="Helvetica,sans-Serif" font-size="8.00">Function&lt; void(Asio</text>
<text text-anchor="start" x="507.5" y="-385.66" font-family="Helvetica,sans-Serif" font-size="8.00">_waitable_native_handle</text>
<text text-anchor="start" x="507.5" y="-376.66" font-family="Helvetica,sans-Serif" font-size="8.00"> *hndl_of_interest, bool</text>
<text text-anchor="start" x="507.5" y="-367.66" font-family="Helvetica,sans-Serif" font-size="8.00"> ev_of_interest_snd_else</text>
<text text-anchor="start" x="507.5" y="-358.66" font-family="Helvetica,sans-Serif" font-size="8.00">_rcv, Task_ptr &amp;&amp;on_active</text>
<text text-anchor="middle" x="561" y="-349.66" font-family="Helvetica,sans-Serif" font-size="8.00">_ev_func)&gt;</text>
</a>
</g>
</g>
<!-- Node27&#45;&gt;Node1 -->
<g id="edge31" class="edge">
<title>Node27&#45;&gt;Node1</title>
<path fill="none" stroke="#9a32cd" stroke-dasharray="5,2" d="M632.8,-375.02C677.2,-378.82 733.65,-389.77 775,-419.06 824.08,-453.82 851.4,-524.6 861.01,-553.9"/>
<polygon fill="#9a32cd" stroke="#9a32cd" points="632.89,-371.52 622.66,-374.26 632.37,-378.5 632.89,-371.52"/>
<text text-anchor="middle" x="716.5" y="-439.66" font-family="Helvetica,sans-Serif" font-size="8.00"> m_conn_ev_wait_func</text>
<text text-anchor="middle" x="716.5" y="-430.66" font-family="Helvetica,sans-Serif" font-size="8.00">m_rcv_ev_wait_func</text>
<text text-anchor="middle" x="716.5" y="-421.66" font-family="Helvetica,sans-Serif" font-size="8.00">m_snd_ev_wait_func</text>
</g>
<!-- Node28 -->
<g id="node28" class="node">
<title>Node28</title>
<g id="a_node28"><a xlink:title=" ">
<polygon fill="white" stroke="black" points="509,-298.06 509,-324.06 613,-324.06 613,-298.06 509,-298.06"/>
<text text-anchor="start" x="517" y="-313.66" font-family="Helvetica,sans-Serif" font-size="8.00">std::queue&lt; Snd_low</text>
<text text-anchor="middle" x="561" y="-304.66" font-family="Helvetica,sans-Serif" font-size="8.00">_lvl_payload::Ptr &gt;</text>
</a>
</g>
</g>
<!-- Node28&#45;&gt;Node1 -->
<g id="edge32" class="edge">
<title>Node28&#45;&gt;Node1</title>
<path fill="none" stroke="#9a32cd" stroke-dasharray="5,2" d="M623.52,-312.61C669.95,-316.83 732.68,-329.41 775,-365.06 836.08,-416.5 857.32,-517.7 863.14,-553.84"/>
<polygon fill="#9a32cd" stroke="#9a32cd" points="623.52,-309.1 613.28,-311.79 622.96,-316.08 623.52,-309.1"/>
<text text-anchor="middle" x="716.5" y="-367.66" font-family="Helvetica,sans-Serif" font-size="8.00"> m_snd_pending_payloads_q</text>
</g>
<!-- Node29 -->
<g id="node29" class="node">
<title>Node29</title>
<g id="a_node29"><a xlink:title=" ">
<polygon fill="white" stroke="#bfbfbf" points="245,-302.56 245,-319.56 274,-319.56 274,-302.56 245,-302.56"/>
<text text-anchor="middle" x="259.5" y="-309.16" font-family="Helvetica,sans-Serif" font-size="8.00">Ptr</text>
</a>
</g>
</g>
<!-- Node29&#45;&gt;Node28 -->
<g id="edge33" class="edge">
<title>Node29&#45;&gt;Node28</title>
<path fill="none" stroke="#9a32cd" stroke-dasharray="5,2" d="M284.25,-311.06C332.58,-311.06 443.3,-311.06 508.8,-311.06"/>
<polygon fill="#9a32cd" stroke="#9a32cd" points="284.15,-307.56 274.15,-311.06 284.15,-314.56 284.15,-307.56"/>
<text text-anchor="middle" x="405" y="-313.66" font-family="Helvetica,sans-Serif" font-size="8.00"> elements</text>
</g>
<!-- Node30 -->
<g id="node30" class="node">
<title>Node30</title>
<g id="a_node30"><a xlink:title=" ">
<polygon fill="white" stroke="#bfbfbf" points="531,-261.56 531,-278.56 591,-278.56 591,-261.56 531,-261.56"/>
<text text-anchor="middle" x="561" y="-268.16" font-family="Helvetica,sans-Serif" font-size="8.00">Error_code</text>
</a>
</g>
</g>
<!-- Node30&#45;&gt;Node1 -->
<g id="edge34" class="edge">
<title>Node30&#45;&gt;Node1</title>
<path fill="none" stroke="#9a32cd" stroke-dasharray="5,2" d="M601.58,-269.77C655.75,-270.18 749.23,-274.05 775,-295.06 858.07,-362.79 865.06,-509.23 865.19,-553.87"/>
<polygon fill="#9a32cd" stroke="#9a32cd" points="601.31,-266.27 591.3,-269.73 601.28,-273.27 601.31,-266.27"/>
<text text-anchor="middle" x="716.5" y="-306.66" font-family="Helvetica,sans-Serif" font-size="8.00"> m_rcv_pending_err_code</text>
<text text-anchor="middle" x="716.5" y="-297.66" font-family="Helvetica,sans-Serif" font-size="8.00">m_snd_pending_err_code</text>
</g>
<!-- Node31 -->
<g id="node31" class="node">
<title>Node31</title>
<g id="a_node31"><a xlink:title=" ">
<polygon fill="white" stroke="#bfbfbf" points="525.5,-225.56 525.5,-242.56 596.5,-242.56 596.5,-225.56 525.5,-225.56"/>
<text text-anchor="middle" x="561" y="-232.16" font-family="Helvetica,sans-Serif" font-size="8.00">Task_asio_err</text>
</a>
</g>
</g>
<!-- Node31&#45;&gt;Node1 -->
<g id="edge36" class="edge">
<title>Node31&#45;&gt;Node1</title>
<path fill="none" stroke="#9a32cd" stroke-dasharray="5,2" d="M606.94,-231.38C661.74,-229.09 750.14,-228.84 775,-249.06 824.42,-289.23 855.81,-498.87 863.27,-553.85"/>
<polygon fill="#9a32cd" stroke="#9a32cd" points="606.62,-227.89 596.79,-231.84 606.94,-234.88 606.62,-227.89"/>
<text text-anchor="start" x="660.5" y="-260.66" font-family="Helvetica,sans-Serif" font-size="8.00"> m_snd_pending_on_last</text>
<text text-anchor="middle" x="716.5" y="-251.66" font-family="Helvetica,sans-Serif" font-size="8.00">_send_done_func_or_empty</text>
</g>
<!-- Node32 -->
<g id="node32" class="node">
<title>Node32</title>
<g id="a_node32"><a xlink:title=" ">
<polygon fill="white" stroke="#bfbfbf" points="525.5,-189.56 525.5,-206.56 596.5,-206.56 596.5,-189.56 525.5,-189.56"/>
<text text-anchor="middle" x="561" y="-196.16" font-family="Helvetica,sans-Serif" font-size="8.00">Fine_duration</text>
</a>
</g>
</g>
<!-- Node32&#45;&gt;Node1 -->
<g id="edge37" class="edge">
<title>Node32&#45;&gt;Node1</title>
<path fill="none" stroke="#9a32cd" stroke-dasharray="5,2" d="M606.97,-194.12C661.8,-190.33 750.24,-187.79 775,-208.06 830.68,-253.65 857.83,-494.31 863.74,-553.77"/>
<polygon fill="#9a32cd" stroke="#9a32cd" points="606.53,-190.65 596.81,-194.87 607.04,-197.63 606.53,-190.65"/>
<text text-anchor="middle" x="716.5" y="-219.66" font-family="Helvetica,sans-Serif" font-size="8.00"> m_rcv_idle_timeout</text>
<text text-anchor="middle" x="716.5" y="-210.66" font-family="Helvetica,sans-Serif" font-size="8.00">m_snd_auto_ping_period</text>
</g>
<!-- Node33 -->
<g id="node33" class="node">
<title>Node33</title>
<g id="a_node33"><a xlink:title=" ">
<polygon fill="white" stroke="#bfbfbf" points="541.5,-153.56 541.5,-170.56 580.5,-170.56 580.5,-153.56 541.5,-153.56"/>
<text text-anchor="middle" x="561" y="-160.16" font-family="Helvetica,sans-Serif" font-size="8.00">Timer</text>
</a>
</g>
</g>
<!-- Node33&#45;&gt;Node1 -->
<g id="edge38" class="edge">
<title>Node33&#45;&gt;Node1</title>
<path fill="none" stroke="#9a32cd" stroke-dasharray="5,2" d="M590.16,-153.24C634.86,-141.15 722.35,-125.54 775,-169.06 836.71,-220.05 859.6,-491.19 864.12,-554.04"/>
<polygon fill="#9a32cd" stroke="#9a32cd" points="589.2,-149.87 580.54,-155.97 591.11,-156.61 589.2,-149.87"/>
<text text-anchor="middle" x="716.5" y="-180.66" font-family="Helvetica,sans-Serif" font-size="8.00"> m_rcv_idle_timer</text>
<text text-anchor="middle" x="716.5" y="-171.66" font-family="Helvetica,sans-Serif" font-size="8.00">m_snd_auto_ping_timer</text>
</g>
<!-- Node34 -->
<g id="node34" class="node">
<title>Node34</title>
<g id="a_node34"><a xlink:title=" ">
<polygon fill="white" stroke="#bfbfbf" points="506,-101.56 506,-118.56 616,-118.56 616,-101.56 506,-101.56"/>
<text text-anchor="middle" x="561" y="-108.16" font-family="Helvetica,sans-Serif" font-size="8.00">Timer_fired_read_end *</text>
</a>
</g>
</g>
<!-- Node34&#45;&gt;Node1 -->
<g id="edge39" class="edge">
<title>Node34&#45;&gt;Node1</title>
<path fill="none" stroke="#9a32cd" stroke-dasharray="5,2" d="M614.94,-99.75C670.02,-90.36 751.49,-80.64 775,-100.06 847.58,-159.99 862.27,-483.6 864.61,-553.67"/>
<polygon fill="#9a32cd" stroke="#9a32cd" points="614.22,-96.32 604.98,-101.49 615.43,-103.22 614.22,-96.32"/>
<text text-anchor="start" x="668.5" y="-129.66" font-family="Helvetica,sans-Serif" font-size="8.00"> m_rcv_idle_timer_fired</text>
<text text-anchor="middle" x="716.5" y="-120.66" font-family="Helvetica,sans-Serif" font-size="8.00">_peer</text>
<text text-anchor="start" x="668.5" y="-111.66" font-family="Helvetica,sans-Serif" font-size="8.00">m_snd_auto_ping_timer</text>
<text text-anchor="middle" x="716.5" y="-102.66" font-family="Helvetica,sans-Serif" font-size="8.00">_fired_peer</text>
</g>
<!-- Node35 -->
<g id="node35" class="node">
<title>Node35</title>
<g id="a_node35"><a xlink:title=" ">
<polygon fill="white" stroke="#bfbfbf" points="482,-47.56 482,-82.56 640,-82.56 640,-47.56 482,-47.56"/>
<text text-anchor="start" x="490" y="-72.16" font-family="Helvetica,sans-Serif" font-size="8.00">optional&lt; ipc::transport</text>
<text text-anchor="start" x="490" y="-63.16" font-family="Helvetica,sans-Serif" font-size="8.00">::sync_io::Native_socket</text>
<text text-anchor="middle" x="561" y="-54.16" font-family="Helvetica,sans-Serif" font-size="8.00">_stream::Impl::Rcv_user_request &gt;</text>
</a>
</g>
</g>
<!-- Node35&#45;&gt;Node1 -->
<g id="edge40" class="edge">
<title>Node35&#45;&gt;Node1</title>
<path fill="none" stroke="#9a32cd" stroke-dasharray="5,2" d="M645.11,-46.28C688.74,-41.51 740.22,-44.65 775,-75.06 849.85,-140.5 862.81,-482.55 864.71,-553.98"/>
<polygon fill="#9a32cd" stroke="#9a32cd" points="644.55,-42.82 635.06,-47.53 645.42,-49.77 644.55,-42.82"/>
<text text-anchor="middle" x="716.5" y="-77.66" font-family="Helvetica,sans-Serif" font-size="8.00"> m_rcv_user_request</text>
</g>
<!-- Node36 -->
<g id="node36" class="node">
<title>Node36</title>
<g id="a_node36"><a xlink:title=" ">
<polygon fill="white" stroke="#bfbfbf" points="536,-11.56 536,-28.56 586,-28.56 586,-11.56 536,-11.56"/>
<text text-anchor="middle" x="561" y="-18.16" font-family="Helvetica,sans-Serif" font-size="8.00">uint16_t</text>
</a>
</g>
</g>
<!-- Node36&#45;&gt;Node1 -->
<g id="edge41" class="edge">
<title>Node36&#45;&gt;Node1</title>
<path fill="none" stroke="#9a32cd" stroke-dasharray="5,2" d="M595.93,-10.39C642.5,0.6 726,11.81 775,-32.06 855.7,-104.31 864.04,-478.58 864.9,-553.86"/>
<polygon fill="#9a32cd" stroke="#9a32cd" points="594.89,-7.05 586.03,-12.86 596.58,-13.84 594.89,-7.05"/>
<text text-anchor="middle" x="716.5" y="-34.66" font-family="Helvetica,sans-Serif" font-size="8.00"> m_rcv_target_meta_length</text>
</g>
</g>
</svg>
