<?xml version="1.0" encoding="UTF-8" standalone="no"?>
<!DOCTYPE svg PUBLIC "-//W3C//DTD SVG 1.1//EN"
 "http://www.w3.org/Graphics/SVG/1.1/DTD/svg11.dtd">
<!-- Generated by graphviz version 2.43.0 (0)
 -->
<!-- Title: ipc::session::shm::arena_lend::jemalloc::Session_server::Session_server Pages: 1 -->
<svg width="729pt" height="145pt"
 viewBox="0.00 0.00 729.00 144.50" xmlns="http://www.w3.org/2000/svg" xmlns:xlink="http://www.w3.org/1999/xlink">
<g id="graph0" class="graph" transform="scale(1 1) rotate(0) translate(4 140.5)">
<title>ipc::session::shm::arena_lend::jemalloc::Session_server::Session_server</title>
<polygon fill="white" stroke="transparent" points="-4,4 -4,-140.5 725,-140.5 725,4 -4,4"/>
<!-- Node1 -->
<g id="node1" class="node">
<title>Node1</title>
<g id="a_node1"><a xlink:title="Constructor: identical to session::Session_server ctor.">
<polygon fill="#bfbfbf" stroke="black" points="0,-32.5 0,-76.5 122,-76.5 122,-32.5 0,-32.5"/>
<text text-anchor="start" x="8" y="-66.1" font-family="Helvetica,sans-Serif" font-size="8.00">ipc::session::shm::</text>
<text text-anchor="start" x="8" y="-57.1" font-family="Helvetica,sans-Serif" font-size="8.00">arena_lend::jemalloc</text>
<text text-anchor="start" x="8" y="-48.1" font-family="Helvetica,sans-Serif" font-size="8.00">::Session_server::Session</text>
<text text-anchor="middle" x="61" y="-39.1" font-family="Helvetica,sans-Serif" font-size="8.00">_server</text>
</a>
</g>
</g>
<!-- Node2 -->
<g id="node2" class="node">
<title>Node2</title>
<g id="a_node2"><a xlink:href="classipc_1_1session_1_1shm_1_1arena__lend_1_1jemalloc_1_1Session__server.html#ae5b53f9881efc8eccb5f93dc7d820c70" target="_top" xlink:title="Analogous to classic::Session_server::init_app_shm_as_needed().">
<polygon fill="white" stroke="black" points="158,-32.5 158,-76.5 264,-76.5 264,-32.5 158,-32.5"/>
<text text-anchor="start" x="166" y="-66.1" font-family="Helvetica,sans-Serif" font-size="8.00">ipc::session::shm::</text>
<text text-anchor="start" x="166" y="-57.1" font-family="Helvetica,sans-Serif" font-size="8.00">arena_lend::jemalloc</text>
<text text-anchor="start" x="166" y="-48.1" font-family="Helvetica,sans-Serif" font-size="8.00">::Session_server::init</text>
<text text-anchor="middle" x="211" y="-39.1" font-family="Helvetica,sans-Serif" font-size="8.00">_app_shm_as_needed</text>
</a>
</g>
</g>
<!-- Node1&#45;&gt;Node2 -->
<g id="edge1" class="edge">
<title>Node1&#45;&gt;Node2</title>
<path fill="none" stroke="midnightblue" d="M122.2,-54.5C130.62,-54.5 139.29,-54.5 147.74,-54.5"/>
<polygon fill="midnightblue" stroke="midnightblue" points="147.92,-58 157.92,-54.5 147.92,-51 147.92,-58"/>
</g>
<!-- Node3 -->
<g id="node3" class="node">
<title>Node3</title>
<g id="a_node3"><a xlink:href="namespaceipc_1_1session.html#a365d2d63f77b738e67e206af6b702634" target="_top" xlink:title="Builds an absolute name according to the path convention explained in Shared_name class doc header; t...">
<polygon fill="white" stroke="black" points="300,-82.5 300,-108.5 433,-108.5 433,-82.5 300,-82.5"/>
<text text-anchor="start" x="308" y="-98.1" font-family="Helvetica,sans-Serif" font-size="8.00">ipc::session::build</text>
<text text-anchor="middle" x="366.5" y="-89.1" font-family="Helvetica,sans-Serif" font-size="8.00">_conventional_shared_name</text>
</a>
</g>
</g>
<!-- Node2&#45;&gt;Node3 -->
<g id="edge2" class="edge">
<title>Node2&#45;&gt;Node3</title>
<path fill="none" stroke="midnightblue" d="M264.4,-68.5C278.02,-72.14 292.8,-76.08 306.73,-79.8"/>
<polygon fill="midnightblue" stroke="midnightblue" points="306.13,-83.27 316.7,-82.47 307.94,-76.5 306.13,-83.27"/>
</g>
<!-- Node6 -->
<g id="node6" class="node">
<title>Node6</title>
<g id="a_node6"><a xlink:href="classipc_1_1util_1_1Shared__name.html#a48f20b7b54490aa10dc64081d34c55b2" target="_top" xlink:title="Copy&#45;constructs from a char&#45;sequence container (including string, util::String_view,...">
<polygon fill="white" stroke="black" points="305,-46 305,-63 428,-63 428,-46 305,-46"/>
<text text-anchor="middle" x="366.5" y="-52.6" font-family="Helvetica,sans-Serif" font-size="8.00">ipc::util::Shared_name::ct</text>
</a>
</g>
</g>
<!-- Node2&#45;&gt;Node6 -->
<g id="edge6" class="edge">
<title>Node2&#45;&gt;Node6</title>
<path fill="none" stroke="midnightblue" d="M264.4,-54.5C274.17,-54.5 284.53,-54.5 294.74,-54.5"/>
<polygon fill="midnightblue" stroke="midnightblue" points="294.88,-58 304.88,-54.5 294.88,-51 294.88,-58"/>
</g>
<!-- Node7 -->
<g id="node7" class="node">
<title>Node7</title>
<g id="a_node7"><a xlink:href="namespaceipc_1_1util.html#abda2ce5bcdbc26ca63d667b87818439c" target="_top" xlink:title="Maps general Permissions_level specifier to low&#45;level Permissions value, when the underlying resource...">
<polygon fill="white" stroke="black" points="305.5,-0.5 305.5,-26.5 427.5,-26.5 427.5,-0.5 305.5,-0.5"/>
<text text-anchor="start" x="313.5" y="-16.1" font-family="Helvetica,sans-Serif" font-size="8.00">ipc::util::shared_resource</text>
<text text-anchor="middle" x="366.5" y="-7.1" font-family="Helvetica,sans-Serif" font-size="8.00">_permissions</text>
</a>
</g>
</g>
<!-- Node2&#45;&gt;Node7 -->
<g id="edge7" class="edge">
<title>Node2&#45;&gt;Node7</title>
<path fill="none" stroke="midnightblue" d="M264.4,-40.5C278.02,-36.86 292.8,-32.92 306.73,-29.2"/>
<polygon fill="midnightblue" stroke="midnightblue" points="307.94,-32.5 316.7,-26.53 306.13,-25.73 307.94,-32.5"/>
</g>
<!-- Node4 -->
<g id="node4" class="node">
<title>Node4</title>
<g id="a_node4"><a xlink:href="namespaceipc_1_1session.html#a5216d618bb573e68276d2933ce3f4010" target="_top" xlink:title="Return the prefix common to all calls to either build_conventional_shared_name() overload with the ar...">
<polygon fill="white" stroke="black" points="469,-101 469,-136 575,-136 575,-101 469,-101"/>
<text text-anchor="start" x="477" y="-125.6" font-family="Helvetica,sans-Serif" font-size="8.00">ipc::session::build</text>
<text text-anchor="start" x="477" y="-116.6" font-family="Helvetica,sans-Serif" font-size="8.00">_conventional_shared</text>
<text text-anchor="middle" x="522" y="-107.6" font-family="Helvetica,sans-Serif" font-size="8.00">_name_prefix</text>
</a>
</g>
</g>
<!-- Node3&#45;&gt;Node4 -->
<g id="edge3" class="edge">
<title>Node3&#45;&gt;Node4</title>
<path fill="none" stroke="midnightblue" d="M433.04,-105.32C441.5,-106.59 450.14,-107.88 458.55,-109.14"/>
<polygon fill="midnightblue" stroke="midnightblue" points="458.25,-112.64 468.66,-110.66 459.29,-105.71 458.25,-112.64"/>
</g>
<!-- Node5 -->
<g id="node5" class="node">
<title>Node5</title>
<g id="a_node5"><a xlink:href="classipc_1_1util_1_1Shared__name.html#a861ea6c9ad6672e83bab5c7747b66f7b" target="_top" xlink:title="Returns true if and only if str().empty() == true.">
<polygon fill="white" stroke="black" points="611,-82.5 611,-108.5 721,-108.5 721,-82.5 611,-82.5"/>
<text text-anchor="start" x="619" y="-98.1" font-family="Helvetica,sans-Serif" font-size="8.00">ipc::util::Shared_name</text>
<text text-anchor="middle" x="666" y="-89.1" font-family="Helvetica,sans-Serif" font-size="8.00">::empty</text>
</a>
</g>
</g>
<!-- Node3&#45;&gt;Node5 -->
<g id="edge5" class="edge">
<title>Node3&#45;&gt;Node5</title>
<path fill="none" stroke="midnightblue" d="M433.01,-92.54C444.98,-92.11 457.36,-91.73 469,-91.5 516.1,-90.57 527.9,-90.45 575,-91.5 583.32,-91.68 592.06,-91.97 600.7,-92.29"/>
<polygon fill="midnightblue" stroke="midnightblue" points="600.63,-95.79 610.76,-92.7 600.91,-88.8 600.63,-95.79"/>
</g>
<!-- Node4&#45;&gt;Node5 -->
<g id="edge4" class="edge">
<title>Node4&#45;&gt;Node5</title>
<path fill="none" stroke="midnightblue" d="M575.07,-110.07C583.38,-108.72 592.05,-107.32 600.6,-105.93"/>
<polygon fill="midnightblue" stroke="midnightblue" points="601.24,-109.37 610.55,-104.32 600.12,-102.46 601.24,-109.37"/>
</g>
</g>
</svg>
