<?xml version="1.0" encoding="UTF-8" standalone="no"?>
<!DOCTYPE svg PUBLIC "-//W3C//DTD SVG 1.1//EN"
 "http://www.w3.org/Graphics/SVG/1.1/DTD/svg11.dtd">
<!-- Generated by graphviz version 2.43.0 (0)
 -->
<!-- Title: ipc::transport::Blob_stream_mq_base_impl&lt; Persistent_mq_handle &gt; Pages: 1 -->
<svg width="313pt" height="206pt"
 viewBox="0.00 0.00 313.00 206.00" xmlns="http://www.w3.org/2000/svg" xmlns:xlink="http://www.w3.org/1999/xlink">
<g id="graph0" class="graph" transform="scale(1 1) rotate(0) translate(4 202)">
<title>ipc::transport::Blob_stream_mq_base_impl&lt; Persistent_mq_handle &gt;</title>
<polygon fill="white" stroke="transparent" points="-4,4 -4,-202 309,-202 309,4 -4,4"/>
<!-- Node1 -->
<g id="node1" class="node">
<title>Node1</title>
<g id="a_node1"><a xlink:title="Internal implementation of Blob_stream_mq_base class template; and common utilities used by Blob_stre...">
<polygon fill="#bfbfbf" stroke="black" points="0,-81.5 0,-116.5 124,-116.5 124,-81.5 0,-81.5"/>
<text text-anchor="start" x="8" y="-106.1" font-family="Helvetica,sans-Serif" font-size="8.00">ipc::transport::Blob</text>
<text text-anchor="start" x="8" y="-97.1" font-family="Helvetica,sans-Serif" font-size="8.00">_stream_mq_base_impl</text>
<text text-anchor="middle" x="62" y="-88.1" font-family="Helvetica,sans-Serif" font-size="8.00">&lt; Persistent_mq_handle &gt;</text>
</a>
</g>
</g>
<!-- Node2 -->
<g id="node2" class="node">
<title>Node2</title>
<g id="a_node2"><a xlink:href="classipc_1_1transport_1_1Blob__stream__mq__receiver__impl.html" target="_top" xlink:title="Internal, non&#45;movable pImpl&#45;lite implementation of Blob_stream_mq_receiver class template.">
<polygon fill="white" stroke="black" points="170.5,-162.5 170.5,-197.5 294.5,-197.5 294.5,-162.5 170.5,-162.5"/>
<text text-anchor="start" x="178.5" y="-187.1" font-family="Helvetica,sans-Serif" font-size="8.00">ipc::transport::Blob</text>
<text text-anchor="start" x="178.5" y="-178.1" font-family="Helvetica,sans-Serif" font-size="8.00">_stream_mq_receiver_impl</text>
<text text-anchor="middle" x="232.5" y="-169.1" font-family="Helvetica,sans-Serif" font-size="8.00">&lt; Persistent_mq_handle &gt;</text>
</a>
</g>
</g>
<!-- Node1&#45;&gt;Node2 -->
<g id="edge1" class="edge">
<title>Node1&#45;&gt;Node2</title>
<path fill="none" stroke="midnightblue" d="M100.98,-121.84C118.61,-132.01 140.05,-143.74 160,-153 167.1,-156.3 174.73,-159.51 182.26,-162.5"/>
<polygon fill="midnightblue" stroke="midnightblue" points="102.53,-118.7 92.13,-116.7 99.01,-124.75 102.53,-118.7"/>
</g>
<!-- Node3 -->
<g id="node3" class="node">
<title>Node3</title>
<g id="a_node3"><a xlink:href="classipc_1_1transport_1_1Blob__stream__mq__sender__impl.html" target="_top" xlink:title="Internal, non&#45;movable pImpl&#45;lite implementation of Blob_stream_mq_sender class template.">
<polygon fill="white" stroke="black" points="170.5,-108.5 170.5,-143.5 294.5,-143.5 294.5,-108.5 170.5,-108.5"/>
<text text-anchor="start" x="178.5" y="-133.1" font-family="Helvetica,sans-Serif" font-size="8.00">ipc::transport::Blob</text>
<text text-anchor="start" x="178.5" y="-124.1" font-family="Helvetica,sans-Serif" font-size="8.00">_stream_mq_sender_impl</text>
<text text-anchor="middle" x="232.5" y="-115.1" font-family="Helvetica,sans-Serif" font-size="8.00">&lt; Persistent_mq_handle &gt;</text>
</a>
</g>
</g>
<!-- Node1&#45;&gt;Node3 -->
<g id="edge2" class="edge">
<title>Node1&#45;&gt;Node3</title>
<path fill="none" stroke="midnightblue" d="M134.26,-110.42C146.22,-112.34 158.55,-114.31 170.24,-116.18"/>
<polygon fill="midnightblue" stroke="midnightblue" points="134.74,-106.95 124.31,-108.82 133.63,-113.86 134.74,-106.95"/>
</g>
<!-- Node4 -->
<g id="node4" class="node">
<title>Node4</title>
<g id="a_node4"><a xlink:href="classipc_1_1transport_1_1sync__io_1_1Blob__stream__mq__receiver__impl.html" target="_top" xlink:title="Internal, non&#45;movable pImpl&#45;lite implementation of sync_io::Blob_stream_mq_receiver class template.">
<polygon fill="white" stroke="black" points="160,-54.5 160,-89.5 305,-89.5 305,-54.5 160,-54.5"/>
<text text-anchor="start" x="168" y="-79.1" font-family="Helvetica,sans-Serif" font-size="8.00">ipc::transport::sync</text>
<text text-anchor="start" x="168" y="-70.1" font-family="Helvetica,sans-Serif" font-size="8.00">_io::Blob_stream_mq_receiver</text>
<text text-anchor="middle" x="232.5" y="-61.1" font-family="Helvetica,sans-Serif" font-size="8.00">_impl&lt; Persistent_mq_handle &gt;</text>
</a>
</g>
</g>
<!-- Node1&#45;&gt;Node4 -->
<g id="edge3" class="edge">
<title>Node1&#45;&gt;Node4</title>
<path fill="none" stroke="midnightblue" d="M134.2,-87.59C142.72,-86.23 151.42,-84.83 159.94,-83.47"/>
<polygon fill="midnightblue" stroke="midnightblue" points="133.63,-84.14 124.31,-89.18 134.74,-91.05 133.63,-84.14"/>
</g>
<!-- Node5 -->
<g id="node5" class="node">
<title>Node5</title>
<g id="a_node5"><a xlink:href="classipc_1_1transport_1_1sync__io_1_1Blob__stream__mq__sender__impl.html" target="_top" xlink:title="Internal, non&#45;movable pImpl&#45;lite implementation of sync_io::Blob_stream_mq_sender class template.">
<polygon fill="white" stroke="black" points="160,-0.5 160,-35.5 305,-35.5 305,-0.5 160,-0.5"/>
<text text-anchor="start" x="168" y="-25.1" font-family="Helvetica,sans-Serif" font-size="8.00">ipc::transport::sync</text>
<text text-anchor="start" x="168" y="-16.1" font-family="Helvetica,sans-Serif" font-size="8.00">_io::Blob_stream_mq_sender</text>
<text text-anchor="middle" x="232.5" y="-7.1" font-family="Helvetica,sans-Serif" font-size="8.00">_impl&lt; Persistent_mq_handle &gt;</text>
</a>
</g>
</g>
<!-- Node1&#45;&gt;Node5 -->
<g id="edge4" class="edge">
<title>Node1&#45;&gt;Node5</title>
<path fill="none" stroke="midnightblue" d="M100.98,-76.16C118.61,-65.99 140.05,-54.26 160,-45 167.1,-41.7 174.73,-38.49 182.26,-35.5"/>
<polygon fill="midnightblue" stroke="midnightblue" points="99.01,-73.25 92.13,-81.3 102.53,-79.3 99.01,-73.25"/>
</g>
</g>
</svg>
