<?xml version="1.0" encoding="UTF-8" standalone="no"?>
<!DOCTYPE svg PUBLIC "-//W3C//DTD SVG 1.1//EN"
 "http://www.w3.org/Graphics/SVG/1.1/DTD/svg11.dtd">
<!-- Generated by graphviz version 2.43.0 (0)
 -->
<!-- Title: ipc::transport::struc::shm::Builder&lt; Shm_arena &gt; Pages: 1 -->
<svg width="232pt" height="98pt"
 viewBox="0.00 0.00 231.50 98.00" xmlns="http://www.w3.org/2000/svg" xmlns:xlink="http://www.w3.org/1999/xlink">
<g id="graph0" class="graph" transform="scale(1 1) rotate(0) translate(4 94)">
<title>ipc::transport::struc::shm::Builder&lt; Shm_arena &gt;</title>
<polygon fill="white" stroke="transparent" points="-4,4 -4,-94 227.5,-94 227.5,4 -4,4"/>
<!-- Node1 -->
<g id="node1" class="node">
<title>Node1</title>
<g id="a_node1"><a xlink:title="Implements Struct_builder concept with maximal zero&#45;copy perf by (1) storing the actual user&#45;schema&#45;c...">
<polygon fill="#bfbfbf" stroke="black" points="44.5,-0.5 44.5,-26.5 182.5,-26.5 182.5,-0.5 44.5,-0.5"/>
<text text-anchor="start" x="52.5" y="-16.1" font-family="Helvetica,sans-Serif" font-size="8.00">ipc::transport::struc</text>
<text text-anchor="middle" x="113.5" y="-7.1" font-family="Helvetica,sans-Serif" font-size="8.00">::shm::Builder&lt; Shm_arena &gt;</text>
</a>
</g>
</g>
<!-- Node2 -->
<g id="node2" class="node">
<title>Node2</title>
<g id="a_node2"><a xlink:title=" ">
<polygon fill="white" stroke="#bfbfbf" points="0,-68 0,-85 107,-85 107,-68 0,-68"/>
<text text-anchor="middle" x="53.5" y="-74.6" font-family="Helvetica,sans-Serif" font-size="8.00">flow::log::Log_context</text>
</a>
</g>
</g>
<!-- Node2&#45;&gt;Node1 -->
<g id="edge1" class="edge">
<title>Node2&#45;&gt;Node1</title>
<path fill="none" stroke="midnightblue" d="M68.2,-60.55C78.48,-50.1 92.03,-36.33 101.63,-26.57"/>
<polygon fill="midnightblue" stroke="midnightblue" points="65.62,-58.19 61.1,-67.77 70.61,-63.1 65.62,-58.19"/>
</g>
<!-- Node3 -->
<g id="node3" class="node">
<title>Node3</title>
<g id="a_node3"><a xlink:href="classipc_1_1transport_1_1struc_1_1shm_1_1Builder__base.html" target="_top" xlink:title="shm::Builder base that contains non&#45;parameterized public items such as tag types and constants.">
<polygon fill="white" stroke="black" points="125.5,-63.5 125.5,-89.5 223.5,-89.5 223.5,-63.5 125.5,-63.5"/>
<text text-anchor="start" x="133.5" y="-79.1" font-family="Helvetica,sans-Serif" font-size="8.00">ipc::transport::struc</text>
<text text-anchor="middle" x="174.5" y="-70.1" font-family="Helvetica,sans-Serif" font-size="8.00">::shm::Builder_base</text>
</a>
</g>
</g>
<!-- Node3&#45;&gt;Node1 -->
<g id="edge2" class="edge">
<title>Node3&#45;&gt;Node1</title>
<path fill="none" stroke="midnightblue" d="M155.13,-56.13C145.41,-46.41 133.96,-34.96 125.53,-26.53"/>
<polygon fill="midnightblue" stroke="midnightblue" points="152.9,-58.85 162.45,-63.45 157.85,-53.9 152.9,-58.85"/>
</g>
</g>
</svg>
