<?xml version="1.0" encoding="UTF-8" standalone="no"?>
<!DOCTYPE svg PUBLIC "-//W3C//DTD SVG 1.1//EN"
 "http://www.w3.org/Graphics/SVG/1.1/DTD/svg11.dtd">
<!-- Generated by graphviz version 2.43.0 (0)
 -->
<!-- Title: ipc::session::shm::classic::Session_server&lt; S_MQ_TYPE_OR_NONE, S_TRANSMIT_NATIVE_HANDLES, Mdt_payload &gt; Pages: 1 -->
<svg width="471pt" height="89pt"
 viewBox="0.00 0.00 471.00 89.00" xmlns="http://www.w3.org/2000/svg" xmlns:xlink="http://www.w3.org/1999/xlink">
<g id="graph0" class="graph" transform="scale(1 1) rotate(0) translate(4 85)">
<title>ipc::session::shm::classic::Session_server&lt; S_MQ_TYPE_OR_NONE, S_TRANSMIT_NATIVE_HANDLES, Mdt_payload &gt;</title>
<polygon fill="white" stroke="transparent" points="-4,4 -4,-85 467,-85 467,4 -4,4"/>
<!-- Node1 -->
<g id="node1" class="node">
<title>Node1</title>
<g id="a_node1"><a xlink:title="This is to vanilla Session_server what shm::classic::Server_session is to vanilla Server_session: it ...">
<polygon fill="#bfbfbf" stroke="black" points="325,-14 325,-67 463,-67 463,-14 325,-14"/>
<text text-anchor="start" x="333" y="-56.6" font-family="Helvetica,sans-Serif" font-size="8.00">ipc::session::shm::</text>
<text text-anchor="start" x="333" y="-47.6" font-family="Helvetica,sans-Serif" font-size="8.00">classic::Session_server</text>
<text text-anchor="start" x="333" y="-38.6" font-family="Helvetica,sans-Serif" font-size="8.00">&lt; S_MQ_TYPE_OR_NONE, S</text>
<text text-anchor="start" x="333" y="-29.6" font-family="Helvetica,sans-Serif" font-size="8.00">_TRANSMIT_NATIVE_HANDLES,</text>
<text text-anchor="middle" x="394" y="-20.6" font-family="Helvetica,sans-Serif" font-size="8.00"> Mdt_payload &gt;</text>
</a>
</g>
</g>
<!-- Node2 -->
<g id="node2" class="node">
<title>Node2</title>
<g id="a_node2"><a xlink:href="classipc_1_1session_1_1Session__server__impl.html" target="_top" xlink:title=" ">
<polygon fill="white" stroke="black" points="143,-0.5 143,-80.5 289,-80.5 289,-0.5 143,-0.5"/>
<text text-anchor="start" x="151" y="-70.1" font-family="Helvetica,sans-Serif" font-size="8.00">ipc::session::Session</text>
<text text-anchor="start" x="151" y="-61.1" font-family="Helvetica,sans-Serif" font-size="8.00">_server_impl&lt; Session</text>
<text text-anchor="start" x="151" y="-52.1" font-family="Helvetica,sans-Serif" font-size="8.00">_server&lt; S_MQ_TYPE_OR</text>
<text text-anchor="start" x="151" y="-43.1" font-family="Helvetica,sans-Serif" font-size="8.00">_NONE, S_TRANSMIT_NATIVE</text>
<text text-anchor="start" x="151" y="-34.1" font-family="Helvetica,sans-Serif" font-size="8.00">_HANDLES, Mdt_payload &gt;,</text>
<text text-anchor="start" x="151" y="-25.1" font-family="Helvetica,sans-Serif" font-size="8.00"> Server_session&lt; S_MQ_TYPE</text>
<text text-anchor="start" x="151" y="-16.1" font-family="Helvetica,sans-Serif" font-size="8.00">_OR_NONE, S_TRANSMIT_NATIVE</text>
<text text-anchor="middle" x="216" y="-7.1" font-family="Helvetica,sans-Serif" font-size="8.00">_HANDLES, Mdt_payload &gt; &gt;</text>
</a>
</g>
</g>
<!-- Node2&#45;&gt;Node1 -->
<g id="edge1" class="edge">
<title>Node2&#45;&gt;Node1</title>
<path fill="none" stroke="#8b1a1a" d="M299.18,-40.5C307.82,-40.5 316.53,-40.5 324.99,-40.5"/>
<polygon fill="#8b1a1a" stroke="#8b1a1a" points="299.09,-37 289.09,-40.5 299.09,-44 299.09,-37"/>
</g>
<!-- Node3 -->
<g id="node3" class="node">
<title>Node3</title>
<g id="a_node3"><a xlink:title=" ">
<polygon fill="white" stroke="#bfbfbf" points="0,-50 0,-67 107,-67 107,-50 0,-50"/>
<text text-anchor="middle" x="53.5" y="-56.6" font-family="Helvetica,sans-Serif" font-size="8.00">flow::log::Log_context</text>
</a>
</g>
</g>
<!-- Node3&#45;&gt;Node2 -->
<g id="edge2" class="edge">
<title>Node3&#45;&gt;Node2</title>
<path fill="none" stroke="midnightblue" d="M117.15,-51.47C125.56,-50.53 134.24,-49.56 142.8,-48.6"/>
<polygon fill="midnightblue" stroke="midnightblue" points="116.6,-48.01 107.05,-52.61 117.38,-54.97 116.6,-48.01"/>
</g>
<!-- Node4 -->
<g id="node4" class="node">
<title>Node4</title>
<g id="a_node4"><a xlink:title=" ">
<polygon fill="white" stroke="#bfbfbf" points="4,-14 4,-31 103,-31 103,-14 4,-14"/>
<text text-anchor="middle" x="53.5" y="-20.6" font-family="Helvetica,sans-Serif" font-size="8.00">boost::noncopyable</text>
</a>
</g>
</g>
<!-- Node4&#45;&gt;Node2 -->
<g id="edge3" class="edge">
<title>Node4&#45;&gt;Node2</title>
<path fill="none" stroke="#8b1a1a" d="M113.32,-29.1C122.94,-30.18 132.99,-31.3 142.89,-32.41"/>
<polygon fill="#8b1a1a" stroke="#8b1a1a" points="113.42,-25.59 103.09,-27.95 112.64,-32.54 113.42,-25.59"/>
</g>
</g>
</svg>
