<?xml version="1.0" encoding="UTF-8" standalone="no"?>
<!DOCTYPE svg PUBLIC "-//W3C//DTD SVG 1.1//EN"
 "http://www.w3.org/Graphics/SVG/1.1/DTD/svg11.dtd">
<!-- Generated by graphviz version 2.43.0 (0)
 -->
<!-- Title: ipc::transport::Bipc_mq_handle::for_each_persistent Pages: 1 -->
<svg width="539pt" height="44pt"
 viewBox="0.00 0.00 539.00 44.00" xmlns="http://www.w3.org/2000/svg" xmlns:xlink="http://www.w3.org/1999/xlink">
<g id="graph0" class="graph" transform="scale(1 1) rotate(0) translate(4 40)">
<title>ipc::transport::Bipc_mq_handle::for_each_persistent</title>
<polygon fill="white" stroke="transparent" points="-4,4 -4,-40 535,-40 535,4 -4,4"/>
<!-- Node1 -->
<g id="node1" class="node">
<title>Node1</title>
<g id="a_node1"><a xlink:title="Implements Persistent_mq_handle API.">
<polygon fill="#bfbfbf" stroke="black" points="0,-0.5 0,-35.5 107,-35.5 107,-0.5 0,-0.5"/>
<text text-anchor="start" x="8" y="-25.1" font-family="Helvetica,sans-Serif" font-size="8.00">ipc::transport::Bipc</text>
<text text-anchor="start" x="8" y="-16.1" font-family="Helvetica,sans-Serif" font-size="8.00">_mq_handle::for_each</text>
<text text-anchor="middle" x="53.5" y="-7.1" font-family="Helvetica,sans-Serif" font-size="8.00">_persistent</text>
</a>
</g>
</g>
<!-- Node2 -->
<g id="node2" class="node">
<title>Node2</title>
<g id="a_node2"><a xlink:href="namespaceipc_1_1util.html#a74135195ff6c2f840092c21e522f964a" target="_top" xlink:title="Equivalent to shm::classic::Pool_arena::for_each_persistent().">
<polygon fill="white" stroke="black" points="143,-5 143,-31 247,-31 247,-5 143,-5"/>
<text text-anchor="start" x="151" y="-20.6" font-family="Helvetica,sans-Serif" font-size="8.00">ipc::util::for_each</text>
<text text-anchor="middle" x="195" y="-11.6" font-family="Helvetica,sans-Serif" font-size="8.00">_persistent_shm_pool</text>
</a>
</g>
</g>
<!-- Node1&#45;&gt;Node2 -->
<g id="edge1" class="edge">
<title>Node1&#45;&gt;Node2</title>
<path fill="none" stroke="midnightblue" d="M107.24,-18C115.47,-18 124.03,-18 132.43,-18"/>
<polygon fill="midnightblue" stroke="midnightblue" points="132.57,-21.5 142.57,-18 132.57,-14.5 132.57,-21.5"/>
</g>
<!-- Node3 -->
<g id="node3" class="node">
<title>Node3</title>
<g id="a_node3"><a xlink:href="namespaceipc_1_1util.html#a49b39ceb74614b5f2d26dd86fd71bcb3" target="_top" xlink:title="Implementation of Persistent_object::for_each_persistent(); for example see shm::classic::Pool_arena:...">
<polygon fill="white" stroke="black" points="283,-5 283,-31 372,-31 372,-5 283,-5"/>
<text text-anchor="start" x="291" y="-20.6" font-family="Helvetica,sans-Serif" font-size="8.00">ipc::util::for_each</text>
<text text-anchor="middle" x="327.5" y="-11.6" font-family="Helvetica,sans-Serif" font-size="8.00">_persistent_impl</text>
</a>
</g>
</g>
<!-- Node2&#45;&gt;Node3 -->
<g id="edge2" class="edge">
<title>Node2&#45;&gt;Node3</title>
<path fill="none" stroke="midnightblue" d="M247.2,-18C255.53,-18 264.17,-18 272.56,-18"/>
<polygon fill="midnightblue" stroke="midnightblue" points="272.63,-21.5 282.63,-18 272.63,-14.5 272.63,-21.5"/>
</g>
<!-- Node4 -->
<g id="node4" class="node">
<title>Node4</title>
<g id="a_node4"><a xlink:href="classipc_1_1util_1_1Shared__name.html#a48f20b7b54490aa10dc64081d34c55b2" target="_top" xlink:title="Copy&#45;constructs from a char&#45;sequence container (including string, util::String_view,...">
<polygon fill="white" stroke="black" points="408,-9.5 408,-26.5 531,-26.5 531,-9.5 408,-9.5"/>
<text text-anchor="middle" x="469.5" y="-16.1" font-family="Helvetica,sans-Serif" font-size="8.00">ipc::util::Shared_name::ct</text>
</a>
</g>
</g>
<!-- Node3&#45;&gt;Node4 -->
<g id="edge3" class="edge">
<title>Node3&#45;&gt;Node4</title>
<path fill="none" stroke="midnightblue" d="M372.03,-18C380.16,-18 388.86,-18 397.57,-18"/>
<polygon fill="midnightblue" stroke="midnightblue" points="397.78,-21.5 407.78,-18 397.78,-14.5 397.78,-21.5"/>
</g>
</g>
</svg>
