<?xml version="1.0" encoding="UTF-8" standalone="no"?>
<!DOCTYPE svg PUBLIC "-//W3C//DTD SVG 1.1//EN"
 "http://www.w3.org/Graphics/SVG/1.1/DTD/svg11.dtd">
<!-- Generated by graphviz version 2.43.0 (0)
 -->
<!-- Title: ipc::transport::Channel&lt; Blob_sender, Blob_receiver, Native_handle_sender, Native_handle_receiver &gt; Pages: 1 -->
<svg width="526pt" height="334pt"
 viewBox="0.00 0.00 526.00 333.50" xmlns="http://www.w3.org/2000/svg" xmlns:xlink="http://www.w3.org/1999/xlink">
<g id="graph0" class="graph" transform="scale(1 1) rotate(0) translate(4 329.5)">
<title>ipc::transport::Channel&lt; Blob_sender, Blob_receiver, Native_handle_sender, Native_handle_receiver &gt;</title>
<polygon fill="white" stroke="transparent" points="-4,4 -4,-329.5 522,-329.5 522,4 -4,4"/>
<!-- Node1 -->
<g id="node1" class="node">
<title>Node1</title>
<g id="a_node1"><a xlink:title="Peer to a bundle of 1&#45;2 full&#45;duplex pipe(s), one for transmitting unstructured binary blobs; the othe...">
<polygon fill="#bfbfbf" stroke="black" points="378,-126.5 378,-170.5 518,-170.5 518,-126.5 378,-126.5"/>
<text text-anchor="start" x="386" y="-160.1" font-family="Helvetica,sans-Serif" font-size="8.00">ipc::transport::Channel</text>
<text text-anchor="start" x="386" y="-151.1" font-family="Helvetica,sans-Serif" font-size="8.00">&lt; Blob_sender, Blob_receiver,</text>
<text text-anchor="start" x="386" y="-142.1" font-family="Helvetica,sans-Serif" font-size="8.00"> Native_handle_sender, Native</text>
<text text-anchor="middle" x="448" y="-133.1" font-family="Helvetica,sans-Serif" font-size="8.00">_handle_receiver &gt;</text>
</a>
</g>
</g>
<!-- Node2 -->
<g id="node2" class="node">
<title>Node2</title>
<g id="a_node2"><a xlink:title=" ">
<polygon fill="white" stroke="#bfbfbf" points="133.5,-308 133.5,-325 240.5,-325 240.5,-308 133.5,-308"/>
<text text-anchor="middle" x="187" y="-314.6" font-family="Helvetica,sans-Serif" font-size="8.00">flow::log::Log_context</text>
</a>
</g>
</g>
<!-- Node2&#45;&gt;Node1 -->
<g id="edge1" class="edge">
<title>Node2&#45;&gt;Node1</title>
<path fill="none" stroke="midnightblue" d="M250.66,-322.72C285.45,-323.12 328.01,-318.28 360,-297.5 405.97,-267.63 430.67,-204.33 441.03,-170.65"/>
<polygon fill="midnightblue" stroke="midnightblue" points="250.69,-319.22 240.61,-322.46 250.51,-326.22 250.69,-319.22"/>
</g>
<!-- Node3 -->
<g id="node3" class="node">
<title>Node3</title>
<g id="a_node3"><a xlink:title=" ">
<polygon fill="white" stroke="#bfbfbf" points="169.5,-217 169.5,-234 204.5,-234 204.5,-217 169.5,-217"/>
<text text-anchor="middle" x="187" y="-223.6" font-family="Helvetica,sans-Serif" font-size="8.00">bool</text>
</a>
</g>
</g>
<!-- Node3&#45;&gt;Node1 -->
<g id="edge2" class="edge">
<title>Node3&#45;&gt;Node1</title>
<path fill="none" stroke="#9a32cd" stroke-dasharray="5,2" d="M215.12,-221.83C249.46,-216.74 310.14,-206.21 360,-189.5 375.2,-184.41 391.23,-177.37 405.34,-170.56"/>
<polygon fill="#9a32cd" stroke="#9a32cd" points="214.35,-218.41 204.95,-223.3 215.35,-225.34 214.35,-218.41"/>
<text text-anchor="middle" x="312" y="-287.1" font-family="Helvetica,sans-Serif" font-size="8.00"> S_HAS_2_PIPES</text>
<text text-anchor="middle" x="312" y="-278.1" font-family="Helvetica,sans-Serif" font-size="8.00">S_HAS_BLOB_PIPE</text>
<text text-anchor="middle" x="312" y="-269.1" font-family="Helvetica,sans-Serif" font-size="8.00">S_HAS_BLOB_PIPE_ONLY</text>
<text text-anchor="start" x="264" y="-260.1" font-family="Helvetica,sans-Serif" font-size="8.00">S_HAS_NATIVE_HANDLE</text>
<text text-anchor="middle" x="312" y="-251.1" font-family="Helvetica,sans-Serif" font-size="8.00">_PIPE</text>
<text text-anchor="start" x="264" y="-242.1" font-family="Helvetica,sans-Serif" font-size="8.00">S_HAS_NATIVE_HANDLE</text>
<text text-anchor="middle" x="312" y="-233.1" font-family="Helvetica,sans-Serif" font-size="8.00">_PIPE_ONLY</text>
<text text-anchor="middle" x="312" y="-224.1" font-family="Helvetica,sans-Serif" font-size="8.00">S_IS_ASYNC_IO_OBJ</text>
<text text-anchor="middle" x="312" y="-215.1" font-family="Helvetica,sans-Serif" font-size="8.00">S_IS_SYNC_IO_OBJ</text>
</g>
<!-- Node4 -->
<g id="node4" class="node">
<title>Node4</title>
<g id="a_node4"><a xlink:title=" ">
<polygon fill="white" stroke="black" points="157.5,-181 157.5,-198 216.5,-198 216.5,-181 157.5,-181"/>
<text text-anchor="middle" x="187" y="-187.6" font-family="Helvetica,sans-Serif" font-size="8.00">std::string</text>
</a>
</g>
</g>
<!-- Node4&#45;&gt;Node1 -->
<g id="edge3" class="edge">
<title>Node4&#45;&gt;Node1</title>
<path fill="none" stroke="#9a32cd" stroke-dasharray="5,2" d="M226.81,-183.36C266.64,-177.05 329.46,-167.11 377.82,-159.45"/>
<polygon fill="#9a32cd" stroke="#9a32cd" points="226.04,-179.94 216.71,-184.96 227.13,-186.85 226.04,-179.94"/>
<text text-anchor="middle" x="312" y="-179.1" font-family="Helvetica,sans-Serif" font-size="8.00"> m_nickname</text>
</g>
<!-- Node5 -->
<g id="node5" class="node">
<title>Node5</title>
<g id="a_node5"><a xlink:title=" ">
<polygon fill="white" stroke="black" points="0,-176.5 0,-202.5 91,-202.5 91,-176.5 0,-176.5"/>
<text text-anchor="start" x="8" y="-192.1" font-family="Helvetica,sans-Serif" font-size="8.00">std::basic_string&lt;</text>
<text text-anchor="middle" x="45.5" y="-183.1" font-family="Helvetica,sans-Serif" font-size="8.00"> Char &gt;</text>
</a>
</g>
</g>
<!-- Node5&#45;&gt;Node4 -->
<g id="edge4" class="edge">
<title>Node5&#45;&gt;Node4</title>
<path fill="none" stroke="midnightblue" d="M101.16,-189.5C120.32,-189.5 141.07,-189.5 157.25,-189.5"/>
<polygon fill="midnightblue" stroke="midnightblue" points="101.02,-186 91.02,-189.5 101.02,-193 101.02,-186"/>
</g>
<!-- Node6 -->
<g id="node6" class="node">
<title>Node6</title>
<g id="a_node6"><a xlink:title=" ">
<polygon fill="white" stroke="#bfbfbf" points="132,-135.5 132,-161.5 242,-161.5 242,-135.5 132,-135.5"/>
<text text-anchor="start" x="140" y="-151.1" font-family="Helvetica,sans-Serif" font-size="8.00">optional&lt; Blob_sender</text>
<text text-anchor="middle" x="187" y="-142.1" font-family="Helvetica,sans-Serif" font-size="8.00">_obj &gt;</text>
</a>
</g>
</g>
<!-- Node6&#45;&gt;Node1 -->
<g id="edge5" class="edge">
<title>Node6&#45;&gt;Node1</title>
<path fill="none" stroke="#9a32cd" stroke-dasharray="5,2" d="M252.77,-148.5C290.9,-148.5 339.12,-148.5 377.97,-148.5"/>
<polygon fill="#9a32cd" stroke="#9a32cd" points="252.29,-145 242.29,-148.5 252.29,-152 252.29,-145"/>
<text text-anchor="middle" x="312" y="-151.1" font-family="Helvetica,sans-Serif" font-size="8.00"> m_blob_snd</text>
</g>
<!-- Node7 -->
<g id="node7" class="node">
<title>Node7</title>
<g id="a_node7"><a xlink:title=" ">
<polygon fill="white" stroke="#bfbfbf" points="130,-90.5 130,-116.5 244,-116.5 244,-90.5 130,-90.5"/>
<text text-anchor="start" x="138" y="-106.1" font-family="Helvetica,sans-Serif" font-size="8.00">optional&lt; Blob_receiver</text>
<text text-anchor="middle" x="187" y="-97.1" font-family="Helvetica,sans-Serif" font-size="8.00">_obj &gt;</text>
</a>
</g>
</g>
<!-- Node7&#45;&gt;Node1 -->
<g id="edge6" class="edge">
<title>Node7&#45;&gt;Node1</title>
<path fill="none" stroke="#9a32cd" stroke-dasharray="5,2" d="M254.12,-114.99C292.05,-121.58 339.6,-129.84 378,-136.51"/>
<polygon fill="#9a32cd" stroke="#9a32cd" points="254.65,-111.53 244.2,-113.26 253.45,-118.42 254.65,-111.53"/>
<text text-anchor="middle" x="312" y="-135.1" font-family="Helvetica,sans-Serif" font-size="8.00"> m_blob_rcv</text>
</g>
<!-- Node8 -->
<g id="node8" class="node">
<title>Node8</title>
<g id="a_node8"><a xlink:title=" ">
<polygon fill="white" stroke="#bfbfbf" points="128,-45.5 128,-71.5 246,-71.5 246,-45.5 128,-45.5"/>
<text text-anchor="start" x="136" y="-61.1" font-family="Helvetica,sans-Serif" font-size="8.00">optional&lt; Native_handle</text>
<text text-anchor="middle" x="187" y="-52.1" font-family="Helvetica,sans-Serif" font-size="8.00">_sender_obj &gt;</text>
</a>
</g>
</g>
<!-- Node8&#45;&gt;Node1 -->
<g id="edge7" class="edge">
<title>Node8&#45;&gt;Node1</title>
<path fill="none" stroke="#9a32cd" stroke-dasharray="5,2" d="M256.48,-72.74C288.46,-80.31 326.72,-90.72 360,-103.5 376.51,-109.84 393.96,-118.45 408.87,-126.45"/>
<polygon fill="#9a32cd" stroke="#9a32cd" points="256.87,-69.23 246.34,-70.38 255.28,-76.05 256.87,-69.23"/>
<text text-anchor="middle" x="312" y="-106.1" font-family="Helvetica,sans-Serif" font-size="8.00"> m_hndl_snd</text>
</g>
<!-- Node9 -->
<g id="node9" class="node">
<title>Node9</title>
<g id="a_node9"><a xlink:title=" ">
<polygon fill="white" stroke="#bfbfbf" points="128,-0.5 128,-26.5 246,-26.5 246,-0.5 128,-0.5"/>
<text text-anchor="start" x="136" y="-16.1" font-family="Helvetica,sans-Serif" font-size="8.00">optional&lt; Native_handle</text>
<text text-anchor="middle" x="187" y="-7.1" font-family="Helvetica,sans-Serif" font-size="8.00">_receiver_obj &gt;</text>
</a>
</g>
</g>
<!-- Node9&#45;&gt;Node1 -->
<g id="edge8" class="edge">
<title>Node9&#45;&gt;Node1</title>
<path fill="none" stroke="#9a32cd" stroke-dasharray="5,2" d="M256.3,-24.17C289.23,-31.35 328.34,-43 360,-61.5 388.59,-78.2 414.45,-106.57 430.41,-126.36"/>
<polygon fill="#9a32cd" stroke="#9a32cd" points="256.8,-20.7 246.29,-22.08 255.37,-27.55 256.8,-20.7"/>
<text text-anchor="middle" x="312" y="-64.1" font-family="Helvetica,sans-Serif" font-size="8.00"> m_hndl_rcv</text>
</g>
</g>
</svg>
