<?xml version="1.0" encoding="UTF-8" standalone="no"?>
<!DOCTYPE svg PUBLIC "-//W3C//DTD SVG 1.1//EN"
 "http://www.w3.org/Graphics/SVG/1.1/DTD/svg11.dtd">
<!-- Generated by graphviz version 2.43.0 (0)
 -->
<!-- Title: ipc::session::sync_io::Client_session_adapter&lt; Session &gt; Pages: 1 -->
<svg width="229pt" height="179pt"
 viewBox="0.00 0.00 228.50 179.00" xmlns="http://www.w3.org/2000/svg" xmlns:xlink="http://www.w3.org/1999/xlink">
<g id="graph0" class="graph" transform="scale(1 1) rotate(0) translate(4 175)">
<title>ipc::session::sync_io::Client_session_adapter&lt; Session &gt;</title>
<polygon fill="white" stroke="transparent" points="-4,4 -4,-175 224.5,-175 224.5,4 -4,4"/>
<!-- Node1 -->
<g id="node1" class="node">
<title>Node1</title>
<g id="a_node1"><a xlink:title="sync_io&#45;pattern counterpart to async&#45;I/O&#45;pattern session::Client_session types and all their SHM&#45;awar...">
<polygon fill="#bfbfbf" stroke="black" points="59.5,-0.5 59.5,-35.5 162.5,-35.5 162.5,-0.5 59.5,-0.5"/>
<text text-anchor="start" x="67.5" y="-25.1" font-family="Helvetica,sans-Serif" font-size="8.00">ipc::session::sync</text>
<text text-anchor="start" x="67.5" y="-16.1" font-family="Helvetica,sans-Serif" font-size="8.00">_io::Client_session</text>
<text text-anchor="middle" x="111" y="-7.1" font-family="Helvetica,sans-Serif" font-size="8.00">_adapter&lt; Session &gt;</text>
</a>
</g>
</g>
<!-- Node2 -->
<g id="node2" class="node">
<title>Node2</title>
<g id="a_node2"><a xlink:href="classipc_1_1session_1_1sync__io_1_1Session__adapter.html" target="_top" xlink:title="Internal&#45;use workhorse containing common elements of Client_session_adapter and Server_session_adapte...">
<polygon fill="white" stroke="black" points="1,-72.5 1,-107.5 103,-107.5 103,-72.5 1,-72.5"/>
<text text-anchor="start" x="9" y="-97.1" font-family="Helvetica,sans-Serif" font-size="8.00">ipc::session::sync</text>
<text text-anchor="start" x="9" y="-88.1" font-family="Helvetica,sans-Serif" font-size="8.00">_io::Session_adapter</text>
<text text-anchor="middle" x="52" y="-79.1" font-family="Helvetica,sans-Serif" font-size="8.00">&lt; Session &gt;</text>
</a>
</g>
</g>
<!-- Node2&#45;&gt;Node1 -->
<g id="edge1" class="edge">
<title>Node2&#45;&gt;Node1</title>
<path fill="none" stroke="#8b1a1a" d="M72.66,-64.49C80.6,-55.07 89.49,-44.52 96.71,-35.96"/>
<polygon fill="#8b1a1a" stroke="#8b1a1a" points="69.75,-62.51 65.98,-72.41 75.1,-67.02 69.75,-62.51"/>
</g>
<!-- Node3 -->
<g id="node3" class="node">
<title>Node3</title>
<g id="a_node3"><a xlink:href="classipc_1_1session_1_1Session.html" target="_top" xlink:title="A documentation&#45;only concept defining the local side of an IPC conversation (session) with another en...">
<polygon fill="white" stroke="black" points="0,-144.5 0,-170.5 104,-170.5 104,-144.5 0,-144.5"/>
<text text-anchor="start" x="8" y="-160.1" font-family="Helvetica,sans-Serif" font-size="8.00">ipc::session::Session</text>
<text text-anchor="middle" x="52" y="-151.1" font-family="Helvetica,sans-Serif" font-size="8.00">&lt; Mdt_payload &gt;</text>
</a>
</g>
</g>
<!-- Node3&#45;&gt;Node2 -->
<g id="edge2" class="edge">
<title>Node3&#45;&gt;Node2</title>
<path fill="none" stroke="midnightblue" d="M52,-134.25C52,-125.53 52,-115.71 52,-107.62"/>
<polygon fill="midnightblue" stroke="midnightblue" points="48.5,-134.49 52,-144.49 55.5,-134.49 48.5,-134.49"/>
</g>
<!-- Node4 -->
<g id="node4" class="node">
<title>Node4</title>
<g id="a_node4"><a xlink:title=" ">
<polygon fill="white" stroke="#bfbfbf" points="121.5,-81.5 121.5,-98.5 220.5,-98.5 220.5,-81.5 121.5,-81.5"/>
<text text-anchor="middle" x="171" y="-88.1" font-family="Helvetica,sans-Serif" font-size="8.00">boost::noncopyable</text>
</a>
</g>
</g>
<!-- Node4&#45;&gt;Node1 -->
<g id="edge3" class="edge">
<title>Node4&#45;&gt;Node1</title>
<path fill="none" stroke="#8b1a1a" d="M157.74,-73.53C148.09,-62.27 135.04,-47.05 125.18,-35.55"/>
<polygon fill="#8b1a1a" stroke="#8b1a1a" points="155.18,-75.93 164.35,-81.24 160.5,-71.37 155.18,-75.93"/>
</g>
</g>
</svg>
