<?xml version="1.0" encoding="UTF-8" standalone="no"?>
<!DOCTYPE svg PUBLIC "-//W3C//DTD SVG 1.1//EN"
 "http://www.w3.org/Graphics/SVG/1.1/DTD/svg11.dtd">
<!-- Generated by graphviz version 2.43.0 (0)
 -->
<!-- Title: ipc::session::Session&lt; Mdt_payload &gt; Pages: 1 -->
<svg width="184pt" height="98pt"
 viewBox="0.00 0.00 183.50 98.00" xmlns="http://www.w3.org/2000/svg" xmlns:xlink="http://www.w3.org/1999/xlink">
<g id="graph0" class="graph" transform="scale(1 1) rotate(0) translate(4 94)">
<title>ipc::session::Session&lt; Mdt_payload &gt;</title>
<polygon fill="white" stroke="transparent" points="-4,4 -4,-94 179.5,-94 179.5,4 -4,4"/>
<!-- Node1 -->
<g id="node1" class="node">
<title>Node1</title>
<g id="a_node1"><a xlink:title="A documentation&#45;only concept defining the local side of an IPC conversation (session) with another en...">
<polygon fill="#bfbfbf" stroke="black" points="21.5,-0.5 21.5,-26.5 125.5,-26.5 125.5,-0.5 21.5,-0.5"/>
<text text-anchor="start" x="29.5" y="-16.1" font-family="Helvetica,sans-Serif" font-size="8.00">ipc::session::Session</text>
<text text-anchor="middle" x="73.5" y="-7.1" font-family="Helvetica,sans-Serif" font-size="8.00">&lt; Mdt_payload &gt;</text>
</a>
</g>
</g>
<!-- Node2 -->
<g id="node2" class="node">
<title>Node2</title>
<g id="a_node2"><a xlink:title=" ">
<polygon fill="white" stroke="#bfbfbf" points="0,-72.5 0,-89.5 53,-89.5 53,-72.5 0,-72.5"/>
<text text-anchor="middle" x="26.5" y="-79.1" font-family="Helvetica,sans-Serif" font-size="8.00">ShmType</text>
</a>
</g>
</g>
<!-- Node2&#45;&gt;Node1 -->
<g id="edge1" class="edge">
<title>Node2&#45;&gt;Node1</title>
<path fill="none" stroke="#9a32cd" stroke-dasharray="5,2" d="M34.48,-63.33C37.61,-57.36 41.43,-50.7 45.5,-45 50.09,-38.56 55.91,-32.03 61.05,-26.67"/>
<polygon fill="#9a32cd" stroke="#9a32cd" points="31.26,-61.94 29.93,-72.45 37.53,-65.06 31.26,-61.94"/>
<text text-anchor="middle" x="72.5" y="-47.6" font-family="Helvetica,sans-Serif" font-size="8.00"> S_SHM_TYPE</text>
</g>
<!-- Node3 -->
<g id="node3" class="node">
<title>Node3</title>
<g id="a_node3"><a xlink:title=" ">
<polygon fill="white" stroke="#bfbfbf" points="71,-72.5 71,-89.5 172,-89.5 172,-72.5 71,-72.5"/>
<text text-anchor="middle" x="121.5" y="-79.1" font-family="Helvetica,sans-Serif" font-size="8.00">static constexpr bool</text>
</a>
</g>
</g>
<!-- Node3&#45;&gt;Node1 -->
<g id="edge2" class="edge">
<title>Node3&#45;&gt;Node1</title>
<path fill="none" stroke="#9a32cd" stroke-dasharray="5,2" d="M111.67,-63.28C108.03,-57.38 103.75,-50.78 99.5,-45 94.89,-38.72 89.33,-32.1 84.55,-26.63"/>
<polygon fill="#9a32cd" stroke="#9a32cd" points="108.93,-65.51 117.09,-72.28 114.93,-61.91 108.93,-65.51"/>
<text text-anchor="middle" x="140" y="-47.6" font-family="Helvetica,sans-Serif" font-size="8.00"> S_SHM_ENABLED</text>
</g>
</g>
</svg>
