<?xml version="1.0" encoding="UTF-8" standalone="no"?>
<!DOCTYPE svg PUBLIC "-//W3C//DTD SVG 1.1//EN"
 "http://www.w3.org/Graphics/SVG/1.1/DTD/svg11.dtd">
<!-- Generated by graphviz version 2.43.0 (0)
 -->
<!-- Title: ipc::transport::Native_socket_stream_acceptor::finalize_q_surplus_on_success Pages: 1 -->
<svg width="494pt" height="67pt"
 viewBox="0.00 0.00 494.00 66.50" xmlns="http://www.w3.org/2000/svg" xmlns:xlink="http://www.w3.org/1999/xlink">
<g id="graph0" class="graph" transform="scale(1 1) rotate(0) translate(4 62.5)">
<title>ipc::transport::Native_socket_stream_acceptor::finalize_q_surplus_on_success</title>
<polygon fill="white" stroke="transparent" points="-4,4 -4,-62.5 490,-62.5 490,4 -4,4"/>
<!-- Node1 -->
<g id="node1" class="node">
<title>Node1</title>
<g id="a_node1"><a xlink:title="In thread W, in steady state, introduces the just&#45;established peer socket handle into the state machi...">
<polygon fill="#bfbfbf" stroke="black" points="367,-0.5 367,-44.5 486,-44.5 486,-0.5 367,-0.5"/>
<text text-anchor="start" x="375" y="-34.1" font-family="Helvetica,sans-Serif" font-size="8.00">ipc::transport::Native</text>
<text text-anchor="start" x="375" y="-25.1" font-family="Helvetica,sans-Serif" font-size="8.00">_socket_stream_acceptor</text>
<text text-anchor="start" x="375" y="-16.1" font-family="Helvetica,sans-Serif" font-size="8.00">::finalize_q_surplus_on</text>
<text text-anchor="middle" x="426.5" y="-7.1" font-family="Helvetica,sans-Serif" font-size="8.00">_success</text>
</a>
</g>
</g>
<!-- Node2 -->
<g id="node2" class="node">
<title>Node2</title>
<g id="a_node2"><a xlink:href="classipc_1_1transport_1_1Native__socket__stream__acceptor.html#af52346c8df9efc457efaec35bc6c0807" target="_top" xlink:title="Handler for incoming connection on m_acceptor.">
<polygon fill="white" stroke="black" points="188,-5 188,-40 331,-40 331,-5 188,-5"/>
<text text-anchor="start" x="196" y="-29.6" font-family="Helvetica,sans-Serif" font-size="8.00">ipc::transport::Native</text>
<text text-anchor="start" x="196" y="-20.6" font-family="Helvetica,sans-Serif" font-size="8.00">_socket_stream_acceptor</text>
<text text-anchor="middle" x="259.5" y="-11.6" font-family="Helvetica,sans-Serif" font-size="8.00">::on_next_peer_socket_or_error</text>
</a>
</g>
</g>
<!-- Node1&#45;&gt;Node2 -->
<g id="edge1" class="edge">
<title>Node1&#45;&gt;Node2</title>
<path fill="none" stroke="midnightblue" d="M356.67,-22.5C348.22,-22.5 339.57,-22.5 331.09,-22.5"/>
<polygon fill="midnightblue" stroke="midnightblue" points="356.86,-26 366.86,-22.5 356.86,-19 356.86,-26"/>
</g>
<!-- Node2&#45;&gt;Node2 -->
<g id="edge3" class="edge">
<title>Node2&#45;&gt;Node2</title>
<path fill="none" stroke="midnightblue" d="M288.41,-50.6C284.35,-55.27 274.71,-58.5 259.5,-58.5 234.54,-58.5 224.59,-49.81 229.66,-40.28"/>
<polygon fill="midnightblue" stroke="midnightblue" points="291.93,-50.56 289.34,-40.28 284.96,-49.93 291.93,-50.56"/>
</g>
<!-- Node3 -->
<g id="node3" class="node">
<title>Node3</title>
<g id="a_node3"><a xlink:href="classipc_1_1transport_1_1Native__socket__stream__acceptor.html#a77795acb028a95a4804f9b3ef18d99b0" target="_top" xlink:title="Creates the Native_socket_stream_acceptor and immediately begins listening in the background,...">
<polygon fill="white" stroke="black" points="0,-5 0,-40 152,-40 152,-5 0,-5"/>
<text text-anchor="start" x="8" y="-29.6" font-family="Helvetica,sans-Serif" font-size="8.00">ipc::transport::Native</text>
<text text-anchor="start" x="8" y="-20.6" font-family="Helvetica,sans-Serif" font-size="8.00">_socket_stream_acceptor</text>
<text text-anchor="middle" x="76" y="-11.6" font-family="Helvetica,sans-Serif" font-size="8.00">::Native_socket_stream_acceptor</text>
</a>
</g>
</g>
<!-- Node2&#45;&gt;Node3 -->
<g id="edge2" class="edge">
<title>Node2&#45;&gt;Node3</title>
<path fill="none" stroke="midnightblue" d="M177.61,-22.5C169.19,-22.5 160.66,-22.5 152.3,-22.5"/>
<polygon fill="midnightblue" stroke="midnightblue" points="177.81,-26 187.81,-22.5 177.81,-19 177.81,-26"/>
</g>
</g>
</svg>
