<?xml version="1.0" encoding="UTF-8" standalone="no"?>
<!DOCTYPE svg PUBLIC "-//W3C//DTD SVG 1.1//EN"
 "http://www.w3.org/Graphics/SVG/1.1/DTD/svg11.dtd">
<!-- Generated by graphviz version 2.43.0 (0)
 -->
<!-- Title: ipc::transport::Mqs_channel&lt; SIO, Persistent_mq_handle, Native_handle_sender, Native_handle_receiver &gt; Pages: 1 -->
<svg width="518pt" height="116pt"
 viewBox="0.00 0.00 518.00 116.00" xmlns="http://www.w3.org/2000/svg" xmlns:xlink="http://www.w3.org/1999/xlink">
<g id="graph0" class="graph" transform="scale(1 1) rotate(0) translate(4 112)">
<title>ipc::transport::Mqs_channel&lt; SIO, Persistent_mq_handle, Native_handle_sender, Native_handle_receiver &gt;</title>
<polygon fill="white" stroke="transparent" points="-4,4 -4,-112 514,-112 514,4 -4,4"/>
<!-- Node1 -->
<g id="node1" class="node">
<title>Node1</title>
<g id="a_node1"><a xlink:title="A Channel with at least a blobs pipe consisting of two MQs of type Persistent_mq_handle (template arg...">
<polygon fill="#bfbfbf" stroke="black" points="352,-32 352,-76 510,-76 510,-32 352,-32"/>
<text text-anchor="start" x="360" y="-65.6" font-family="Helvetica,sans-Serif" font-size="8.00">ipc::transport::Mqs</text>
<text text-anchor="start" x="360" y="-56.6" font-family="Helvetica,sans-Serif" font-size="8.00">_channel&lt; SIO, Persistent</text>
<text text-anchor="start" x="360" y="-47.6" font-family="Helvetica,sans-Serif" font-size="8.00">_mq_handle, Native_handle</text>
<text text-anchor="middle" x="431" y="-38.6" font-family="Helvetica,sans-Serif" font-size="8.00">_sender, Native_handle_receiver &gt;</text>
</a>
</g>
</g>
<!-- Node2 -->
<g id="node2" class="node">
<title>Node2</title>
<g id="a_node2"><a xlink:href="classipc_1_1transport_1_1Channel.html" target="_top" xlink:title=" ">
<polygon fill="white" stroke="black" points="143,-0.5 143,-107.5 316,-107.5 316,-0.5 143,-0.5"/>
<text text-anchor="start" x="151" y="-97.1" font-family="Helvetica,sans-Serif" font-size="8.00">ipc::transport::Channel</text>
<text text-anchor="start" x="151" y="-88.1" font-family="Helvetica,sans-Serif" font-size="8.00">&lt; std::conditional_t&lt;</text>
<text text-anchor="start" x="151" y="-79.1" font-family="Helvetica,sans-Serif" font-size="8.00"> SIO, sync_io::Blob_stream</text>
<text text-anchor="start" x="151" y="-70.1" font-family="Helvetica,sans-Serif" font-size="8.00">_mq_sender&lt; Persistent_mq</text>
<text text-anchor="start" x="151" y="-61.1" font-family="Helvetica,sans-Serif" font-size="8.00">_handle &gt;, Blob_stream_mq_sender</text>
<text text-anchor="start" x="151" y="-52.1" font-family="Helvetica,sans-Serif" font-size="8.00">&lt; Persistent_mq_handle &gt; &gt;, std</text>
<text text-anchor="start" x="151" y="-43.1" font-family="Helvetica,sans-Serif" font-size="8.00">::conditional_t&lt; SIO, sync_io::Blob</text>
<text text-anchor="start" x="151" y="-34.1" font-family="Helvetica,sans-Serif" font-size="8.00">_stream_mq_receiver&lt; Persistent_mq</text>
<text text-anchor="start" x="151" y="-25.1" font-family="Helvetica,sans-Serif" font-size="8.00">_handle &gt;, Blob_stream_mq_receiver&lt;</text>
<text text-anchor="start" x="151" y="-16.1" font-family="Helvetica,sans-Serif" font-size="8.00"> Persistent_mq_handle &gt; &gt;, Null_peer,</text>
<text text-anchor="middle" x="229.5" y="-7.1" font-family="Helvetica,sans-Serif" font-size="8.00"> Null_peer &gt;</text>
</a>
</g>
</g>
<!-- Node2&#45;&gt;Node1 -->
<g id="edge1" class="edge">
<title>Node2&#45;&gt;Node1</title>
<path fill="none" stroke="midnightblue" d="M326.29,-54C334.86,-54 343.47,-54 351.87,-54"/>
<polygon fill="midnightblue" stroke="midnightblue" points="326.26,-50.5 316.26,-54 326.26,-57.5 326.26,-50.5"/>
</g>
<!-- Node3 -->
<g id="node3" class="node">
<title>Node3</title>
<g id="a_node3"><a xlink:title=" ">
<polygon fill="white" stroke="#bfbfbf" points="0,-45.5 0,-62.5 107,-62.5 107,-45.5 0,-45.5"/>
<text text-anchor="middle" x="53.5" y="-52.1" font-family="Helvetica,sans-Serif" font-size="8.00">flow::log::Log_context</text>
</a>
</g>
</g>
<!-- Node3&#45;&gt;Node2 -->
<g id="edge2" class="edge">
<title>Node3&#45;&gt;Node2</title>
<path fill="none" stroke="midnightblue" d="M117.19,-54C125.54,-54 134.23,-54 142.89,-54"/>
<polygon fill="midnightblue" stroke="midnightblue" points="117.18,-50.5 107.18,-54 117.18,-57.5 117.18,-50.5"/>
</g>
</g>
</svg>
