<?xml version="1.0" encoding="UTF-8" standalone="no"?>
<!DOCTYPE svg PUBLIC "-//W3C//DTD SVG 1.1//EN"
 "http://www.w3.org/Graphics/SVG/1.1/DTD/svg11.dtd">
<!-- Generated by graphviz version 2.43.0 (0)
 -->
<!-- Title: ipc::transport::Bipc_mq_handle::try_send Pages: 1 -->
<svg width="291pt" height="98pt"
 viewBox="0.00 0.00 291.00 98.00" xmlns="http://www.w3.org/2000/svg" xmlns:xlink="http://www.w3.org/1999/xlink">
<g id="graph0" class="graph" transform="scale(1 1) rotate(0) translate(4 94)">
<title>ipc::transport::Bipc_mq_handle::try_send</title>
<polygon fill="white" stroke="transparent" points="-4,4 -4,-94 287,-94 287,4 -4,4"/>
<!-- Node1 -->
<g id="node1" class="node">
<title>Node1</title>
<g id="a_node1"><a xlink:title="Implements Persistent_mq_handle API: Non&#45;blocking send: pushes copy of message to queue and returns t...">
<polygon fill="#bfbfbf" stroke="black" points="0,-36 0,-62 106,-62 106,-36 0,-36"/>
<text text-anchor="start" x="8" y="-51.6" font-family="Helvetica,sans-Serif" font-size="8.00">ipc::transport::Bipc</text>
<text text-anchor="middle" x="53" y="-42.6" font-family="Helvetica,sans-Serif" font-size="8.00">_mq_handle::try_send</text>
</a>
</g>
</g>
<!-- Node1&#45;&gt;Node1 -->
<g id="edge4" class="edge">
<title>Node1&#45;&gt;Node1</title>
<path fill="none" stroke="midnightblue" d="M26.27,-62.27C18.17,-71.46 27.08,-80.5 53,-80.5 68.8,-80.5 78.28,-77.14 81.44,-72.44"/>
<polygon fill="midnightblue" stroke="midnightblue" points="84.84,-71.55 79.73,-62.27 77.93,-72.71 84.84,-71.55"/>
</g>
<!-- Node2 -->
<g id="node2" class="node">
<title>Node2</title>
<g id="a_node2"><a xlink:href="namespaceipc_1_1util.html#a2bb38cee29dacbe56de5182221b45941" target="_top" xlink:title="Syntactic&#45;sugary helper that returns pointer to first byte in an immutable buffer,...">
<polygon fill="white" stroke="black" points="165.5,-72.5 165.5,-89.5 259.5,-89.5 259.5,-72.5 165.5,-72.5"/>
<text text-anchor="middle" x="212.5" y="-79.1" font-family="Helvetica,sans-Serif" font-size="8.00">ipc::util::blob_data</text>
</a>
</g>
</g>
<!-- Node1&#45;&gt;Node2 -->
<g id="edge1" class="edge">
<title>Node1&#45;&gt;Node2</title>
<path fill="none" stroke="midnightblue" d="M106.01,-59.57C123.24,-63.07 142.4,-66.96 159.62,-70.46"/>
<polygon fill="midnightblue" stroke="midnightblue" points="159,-73.91 169.5,-72.47 160.4,-67.05 159,-73.91"/>
</g>
<!-- Node3 -->
<g id="node3" class="node">
<title>Node3</title>
<g id="a_node3"><a xlink:href="classipc_1_1transport_1_1Bipc__mq__handle.html#a9948742d87298d5842d298de9c946c7c" target="_top" xlink:title="Error helper: Run func() which will perform a bipc::message_queue API that might throw; if it does em...">
<polygon fill="white" stroke="black" points="142,-0.5 142,-35.5 283,-35.5 283,-0.5 142,-0.5"/>
<text text-anchor="start" x="150" y="-25.1" font-family="Helvetica,sans-Serif" font-size="8.00">ipc::transport::Bipc</text>
<text text-anchor="start" x="150" y="-16.1" font-family="Helvetica,sans-Serif" font-size="8.00">_mq_handle::op_with_possible</text>
<text text-anchor="middle" x="212.5" y="-7.1" font-family="Helvetica,sans-Serif" font-size="8.00">_bipc_mq_exception</text>
</a>
</g>
</g>
<!-- Node1&#45;&gt;Node3 -->
<g id="edge2" class="edge">
<title>Node1&#45;&gt;Node3</title>
<path fill="none" stroke="midnightblue" d="M106.01,-38.76C114.34,-37.12 123.13,-35.39 131.93,-33.66"/>
<polygon fill="midnightblue" stroke="midnightblue" points="132.71,-37.08 141.85,-31.71 131.36,-30.21 132.71,-37.08"/>
</g>
<!-- Node3&#45;&gt;Node3 -->
<g id="edge3" class="edge">
<title>Node3&#45;&gt;Node3</title>
<path fill="none" stroke="midnightblue" d="M184.1,-35.78C179.27,-45.31 188.74,-54 212.5,-54 226.98,-54 236.15,-50.77 240.02,-46.1"/>
<polygon fill="midnightblue" stroke="midnightblue" points="243.53,-46.04 240.9,-35.78 236.56,-45.45 243.53,-46.04"/>
</g>
</g>
</svg>
