<?xml version="1.0" encoding="UTF-8" standalone="no"?>
<!DOCTYPE svg PUBLIC "-//W3C//DTD SVG 1.1//EN"
 "http://www.w3.org/Graphics/SVG/1.1/DTD/svg11.dtd">
<!-- Generated by graphviz version 2.43.0 (0)
 -->
<!-- Title: ipc::transport::struc::Channel::sync_request Pages: 1 -->
<svg width="276pt" height="35pt"
 viewBox="0.00 0.00 276.00 35.00" xmlns="http://www.w3.org/2000/svg" xmlns:xlink="http://www.w3.org/1999/xlink">
<g id="graph0" class="graph" transform="scale(1 1) rotate(0) translate(4 31)">
<title>ipc::transport::struc::Channel::sync_request</title>
<polygon fill="white" stroke="transparent" points="-4,4 -4,-31 272,-31 272,4 -4,4"/>
<!-- Node1 -->
<g id="node1" class="node">
<title>Node1</title>
<g id="a_node1"><a xlink:title="A blocking (subject to timeout) operation that first acts as&#45;if async_request() was invoked in one&#45;of...">
<polygon fill="#bfbfbf" stroke="black" points="0,-0.5 0,-26.5 116,-26.5 116,-0.5 0,-0.5"/>
<text text-anchor="start" x="8" y="-16.1" font-family="Helvetica,sans-Serif" font-size="8.00">ipc::transport::struc</text>
<text text-anchor="middle" x="58" y="-7.1" font-family="Helvetica,sans-Serif" font-size="8.00">::Channel::sync_request</text>
</a>
</g>
</g>
<!-- Node2 -->
<g id="node2" class="node">
<title>Node2</title>
<g id="a_node2"><a xlink:href="classipc_1_1transport_1_1struc_1_1Channel.html#aa41aee3c76035f43833078e625e6ef78" target="_top" xlink:title="Equivalent to the other sync_request() overload but with no timeout; meaning it shall exit only once ...">
<polygon fill="white" stroke="black" points="152,-0.5 152,-26.5 268,-26.5 268,-0.5 152,-0.5"/>
<text text-anchor="start" x="160" y="-16.1" font-family="Helvetica,sans-Serif" font-size="8.00">ipc::transport::struc</text>
<text text-anchor="middle" x="210" y="-7.1" font-family="Helvetica,sans-Serif" font-size="8.00">::Channel::sync_request</text>
</a>
</g>
</g>
<!-- Node1&#45;&gt;Node2 -->
<g id="edge1" class="edge">
<title>Node1&#45;&gt;Node2</title>
<path fill="none" stroke="midnightblue" d="M116.14,-13.5C124.38,-13.5 132.92,-13.5 141.34,-13.5"/>
<polygon fill="midnightblue" stroke="midnightblue" points="141.53,-17 151.53,-13.5 141.53,-10 141.53,-17"/>
</g>
</g>
</svg>
