<?xml version="1.0" encoding="UTF-8" standalone="no"?>
<!DOCTYPE svg PUBLIC "-//W3C//DTD SVG 1.1//EN"
 "http://www.w3.org/Graphics/SVG/1.1/DTD/svg11.dtd">
<!-- Generated by graphviz version 2.43.0 (0)
 -->
<!-- Title: ipc::session::sync_io::Session_adapter::init_pipe Pages: 1 -->
<svg width="263pt" height="108pt"
 viewBox="0.00 0.00 263.00 107.50" xmlns="http://www.w3.org/2000/svg" xmlns:xlink="http://www.w3.org/1999/xlink">
<g id="graph0" class="graph" transform="scale(1 1) rotate(0) translate(4 103.5)">
<title>ipc::session::sync_io::Session_adapter::init_pipe</title>
<polygon fill="white" stroke="transparent" points="-4,4 -4,-103.5 259,-103.5 259,4 -4,4"/>
<!-- Node1 -->
<g id="node1" class="node">
<title>Node1</title>
<g id="a_node1"><a xlink:title="Utility that sets up an IPC&#45;pipe in the given peer objects as well as loading a watcher&#45;descriptor ob...">
<polygon fill="#bfbfbf" stroke="black" points="153,-29.5 153,-64.5 255,-64.5 255,-29.5 153,-29.5"/>
<text text-anchor="start" x="161" y="-54.1" font-family="Helvetica,sans-Serif" font-size="8.00">ipc::session::sync</text>
<text text-anchor="start" x="161" y="-45.1" font-family="Helvetica,sans-Serif" font-size="8.00">_io::Session_adapter</text>
<text text-anchor="middle" x="204" y="-36.1" font-family="Helvetica,sans-Serif" font-size="8.00">::init_pipe</text>
</a>
</g>
</g>
<!-- Node2 -->
<g id="node2" class="node">
<title>Node2</title>
<g id="a_node2"><a xlink:href="classipc_1_1session_1_1sync__io_1_1Client__session__adapter.html#acf642438f6760ea1bf8daeb41f7da62b" target="_top" xlink:title="Forwards to the Session_obj ctor.">
<polygon fill="white" stroke="black" points="0,-55 0,-99 117,-99 117,-55 0,-55"/>
<text text-anchor="start" x="8" y="-88.6" font-family="Helvetica,sans-Serif" font-size="8.00">ipc::session::sync</text>
<text text-anchor="start" x="8" y="-79.6" font-family="Helvetica,sans-Serif" font-size="8.00">_io::Client_session</text>
<text text-anchor="start" x="8" y="-70.6" font-family="Helvetica,sans-Serif" font-size="8.00">_adapter::Client_session</text>
<text text-anchor="middle" x="58.5" y="-61.6" font-family="Helvetica,sans-Serif" font-size="8.00">_adapter</text>
</a>
</g>
</g>
<!-- Node1&#45;&gt;Node2 -->
<g id="edge1" class="edge">
<title>Node1&#45;&gt;Node2</title>
<path fill="none" stroke="midnightblue" d="M142.96,-59.55C134.46,-61.33 125.74,-63.15 117.28,-64.92"/>
<polygon fill="midnightblue" stroke="midnightblue" points="143.74,-62.96 152.81,-57.49 142.31,-56.11 143.74,-62.96"/>
</g>
<!-- Node3 -->
<g id="node3" class="node">
<title>Node3</title>
<g id="a_node3"><a xlink:href="classipc_1_1session_1_1sync__io_1_1Session__adapter.html#a8b4dada833c59e6a63780dfaba4f704f" target="_top" xlink:title="Forwards to the Session_obj default ctor.">
<polygon fill="white" stroke="black" points="7.5,-0.5 7.5,-35.5 109.5,-35.5 109.5,-0.5 7.5,-0.5"/>
<text text-anchor="start" x="15.5" y="-25.1" font-family="Helvetica,sans-Serif" font-size="8.00">ipc::session::sync</text>
<text text-anchor="start" x="15.5" y="-16.1" font-family="Helvetica,sans-Serif" font-size="8.00">_io::Session_adapter</text>
<text text-anchor="middle" x="58.5" y="-7.1" font-family="Helvetica,sans-Serif" font-size="8.00">::Session_adapter</text>
</a>
</g>
</g>
<!-- Node1&#45;&gt;Node3 -->
<g id="edge2" class="edge">
<title>Node1&#45;&gt;Node3</title>
<path fill="none" stroke="midnightblue" d="M142.87,-34.85C131.9,-32.63 120.56,-30.34 109.9,-28.19"/>
<polygon fill="midnightblue" stroke="midnightblue" points="142.32,-38.31 152.81,-36.86 143.7,-31.45 142.32,-38.31"/>
</g>
</g>
</svg>
