<?xml version="1.0" encoding="UTF-8" standalone="no"?>
<!DOCTYPE svg PUBLIC "-//W3C//DTD SVG 1.1//EN"
 "http://www.w3.org/Graphics/SVG/1.1/DTD/svg11.dtd">
<!-- Generated by graphviz version 2.43.0 (0)
 -->
<!-- Title: ipc::shm::classic::Pool_arena::handle_deleter_impl Pages: 1 -->
<svg width="305pt" height="35pt"
 viewBox="0.00 0.00 305.00 35.00" xmlns="http://www.w3.org/2000/svg" xmlns:xlink="http://www.w3.org/1999/xlink">
<g id="graph0" class="graph" transform="scale(1 1) rotate(0) translate(4 31)">
<title>ipc::shm::classic::Pool_arena::handle_deleter_impl</title>
<polygon fill="white" stroke="transparent" points="-4,4 -4,-31 301,-31 301,4 -4,4"/>
<!-- Node1 -->
<g id="node1" class="node">
<title>Node1</title>
<g id="a_node1"><a xlink:title="Identical deleter for Handle returned by both construct() and borrow_object(); invoked when a given p...">
<polygon fill="#bfbfbf" stroke="black" points="0,-0.5 0,-26.5 150,-26.5 150,-0.5 0,-0.5"/>
<text text-anchor="start" x="8" y="-16.1" font-family="Helvetica,sans-Serif" font-size="8.00">ipc::shm::classic::</text>
<text text-anchor="middle" x="75" y="-7.1" font-family="Helvetica,sans-Serif" font-size="8.00">Pool_arena::handle_deleter_impl</text>
</a>
</g>
</g>
<!-- Node2 -->
<g id="node2" class="node">
<title>Node2</title>
<g id="a_node2"><a xlink:href="classipc_1_1shm_1_1classic_1_1Pool__arena.html#a394973b7cfb67b67113043810804337d" target="_top" xlink:title="Undoes effects of local allocate() that returned buf_not_null; or another&#45;process&#39;s allocate() that r...">
<polygon fill="white" stroke="black" points="186,-0.5 186,-26.5 297,-26.5 297,-0.5 186,-0.5"/>
<text text-anchor="start" x="194" y="-16.1" font-family="Helvetica,sans-Serif" font-size="8.00">ipc::shm::classic::</text>
<text text-anchor="middle" x="241.5" y="-7.1" font-family="Helvetica,sans-Serif" font-size="8.00">Pool_arena::deallocate</text>
</a>
</g>
</g>
<!-- Node1&#45;&gt;Node2 -->
<g id="edge1" class="edge">
<title>Node1&#45;&gt;Node2</title>
<path fill="none" stroke="midnightblue" d="M150.07,-13.5C158.56,-13.5 167.16,-13.5 175.52,-13.5"/>
<polygon fill="midnightblue" stroke="midnightblue" points="175.56,-17 185.56,-13.5 175.56,-10 175.56,-17"/>
</g>
</g>
</svg>
