<?xml version="1.0" encoding="UTF-8" standalone="no"?>
<!DOCTYPE svg PUBLIC "-//W3C//DTD SVG 1.1//EN"
 "http://www.w3.org/Graphics/SVG/1.1/DTD/svg11.dtd">
<!-- Generated by graphviz version 2.43.0 (0)
 -->
<!-- Title: ipc::transport::Blob_stream_mq_receiver_impl&lt; Persistent_mq_handle &gt; Pages: 1 -->
<svg width="1026pt" height="277pt"
 viewBox="0.00 0.00 1026.00 276.50" xmlns="http://www.w3.org/2000/svg" xmlns:xlink="http://www.w3.org/1999/xlink">
<g id="graph0" class="graph" transform="scale(1 1) rotate(0) translate(4 272.5)">
<title>ipc::transport::Blob_stream_mq_receiver_impl&lt; Persistent_mq_handle &gt;</title>
<polygon fill="white" stroke="transparent" points="-4,4 -4,-272.5 1022,-272.5 1022,4 -4,4"/>
<!-- Node1 -->
<g id="node1" class="node">
<title>Node1</title>
<g id="a_node1"><a xlink:title="Internal, non&#45;movable pImpl&#45;lite implementation of Blob_stream_mq_receiver class template.">
<polygon fill="#bfbfbf" stroke="black" points="894,-134 894,-169 1018,-169 1018,-134 894,-134"/>
<text text-anchor="start" x="902" y="-158.6" font-family="Helvetica,sans-Serif" font-size="8.00">ipc::transport::Blob</text>
<text text-anchor="start" x="902" y="-149.6" font-family="Helvetica,sans-Serif" font-size="8.00">_stream_mq_receiver_impl</text>
<text text-anchor="middle" x="956" y="-140.6" font-family="Helvetica,sans-Serif" font-size="8.00">&lt; Persistent_mq_handle &gt;</text>
</a>
</g>
</g>
<!-- Node2 -->
<g id="node2" class="node">
<title>Node2</title>
<g id="a_node2"><a xlink:href="classipc_1_1transport_1_1Blob__stream__mq__base__impl.html" target="_top" xlink:title="Internal implementation of Blob_stream_mq_base class template; and common utilities used by Blob_stre...">
<polygon fill="white" stroke="black" points="632.5,-233 632.5,-268 756.5,-268 756.5,-233 632.5,-233"/>
<text text-anchor="start" x="640.5" y="-257.6" font-family="Helvetica,sans-Serif" font-size="8.00">ipc::transport::Blob</text>
<text text-anchor="start" x="640.5" y="-248.6" font-family="Helvetica,sans-Serif" font-size="8.00">_stream_mq_base_impl</text>
<text text-anchor="middle" x="694.5" y="-239.6" font-family="Helvetica,sans-Serif" font-size="8.00">&lt; Persistent_mq_handle &gt;</text>
</a>
</g>
</g>
<!-- Node2&#45;&gt;Node1 -->
<g id="edge1" class="edge">
<title>Node2&#45;&gt;Node1</title>
<path fill="none" stroke="midnightblue" d="M766.51,-231.99C800.24,-222.31 840.79,-209.37 876,-194.5 893.12,-187.27 911.39,-177.47 926.05,-169.05"/>
<polygon fill="midnightblue" stroke="midnightblue" points="765.4,-228.66 756.73,-234.76 767.31,-235.4 765.4,-228.66"/>
</g>
<!-- Node3 -->
<g id="node3" class="node">
<title>Node3</title>
<g id="a_node3"><a xlink:title=" ">
<polygon fill="white" stroke="#bfbfbf" points="641,-197 641,-214 748,-214 748,-197 641,-197"/>
<text text-anchor="middle" x="694.5" y="-203.6" font-family="Helvetica,sans-Serif" font-size="8.00">flow::log::Log_context</text>
</a>
</g>
</g>
<!-- Node3&#45;&gt;Node1 -->
<g id="edge2" class="edge">
<title>Node3&#45;&gt;Node1</title>
<path fill="none" stroke="midnightblue" d="M758.33,-195.89C793.16,-190.17 837.16,-182.33 876,-173.5 881.97,-172.14 888.16,-170.62 894.34,-169.03"/>
<polygon fill="midnightblue" stroke="midnightblue" points="757.6,-192.46 748.29,-197.51 758.72,-199.37 757.6,-192.46"/>
</g>
<!-- Node4 -->
<g id="node4" class="node">
<title>Node4</title>
<g id="a_node4"><a xlink:title=" ">
<polygon fill="white" stroke="#bfbfbf" points="645,-161 645,-178 744,-178 744,-161 645,-161"/>
<text text-anchor="middle" x="694.5" y="-167.6" font-family="Helvetica,sans-Serif" font-size="8.00">boost::noncopyable</text>
</a>
</g>
</g>
<!-- Node4&#45;&gt;Node1 -->
<g id="edge3" class="edge">
<title>Node4&#45;&gt;Node1</title>
<path fill="none" stroke="#8b1a1a" d="M754.01,-165.44C795.72,-162.55 851.65,-158.67 893.92,-155.74"/>
<polygon fill="#8b1a1a" stroke="#8b1a1a" points="753.74,-161.95 744.01,-166.14 754.22,-168.93 753.74,-161.95"/>
</g>
<!-- Node5 -->
<g id="node5" class="node">
<title>Node5</title>
<g id="a_node5"><a xlink:title=" ">
<polygon fill="white" stroke="#bfbfbf" points="636.5,-125 636.5,-142 752.5,-142 752.5,-125 636.5,-125"/>
<text text-anchor="middle" x="694.5" y="-131.6" font-family="Helvetica,sans-Serif" font-size="8.00">Single_thread_task_loop</text>
</a>
</g>
</g>
<!-- Node5&#45;&gt;Node1 -->
<g id="edge4" class="edge">
<title>Node5&#45;&gt;Node1</title>
<path fill="none" stroke="#9a32cd" stroke-dasharray="5,2" d="M763.12,-136.51C797.03,-138.21 838.71,-140.58 876,-143.5 881.77,-143.95 887.78,-144.47 893.78,-145.02"/>
<polygon fill="#9a32cd" stroke="#9a32cd" points="763.01,-133.01 752.85,-136.01 762.67,-140 763.01,-133.01"/>
<text text-anchor="middle" x="836" y="-146.1" font-family="Helvetica,sans-Serif" font-size="8.00"> m_worker</text>
</g>
<!-- Node6 -->
<g id="node6" class="node">
<title>Node6</title>
<g id="a_node6"><a xlink:href="classipc_1_1transport_1_1sync__io_1_1Blob__stream__mq__receiver.html" target="_top" xlink:title=" ">
<polygon fill="white" stroke="black" points="611,-79.5 611,-105.5 778,-105.5 778,-79.5 611,-79.5"/>
<text text-anchor="start" x="619" y="-95.1" font-family="Helvetica,sans-Serif" font-size="8.00">ipc::transport::sync</text>
<text text-anchor="middle" x="694.5" y="-86.1" font-family="Helvetica,sans-Serif" font-size="8.00">_io::Blob_stream_mq_receiver&lt; Mq &gt;</text>
</a>
</g>
</g>
<!-- Node6&#45;&gt;Node1 -->
<g id="edge5" class="edge">
<title>Node6&#45;&gt;Node1</title>
<path fill="none" stroke="#9a32cd" stroke-dasharray="5,2" d="M788.2,-106.12C816.57,-111.04 847.74,-117.21 876,-124.5 886.25,-127.14 897.07,-130.47 907.31,-133.88"/>
<polygon fill="#9a32cd" stroke="#9a32cd" points="788.74,-102.66 778.29,-104.43 787.56,-109.56 788.74,-102.66"/>
<text text-anchor="middle" x="836" y="-127.1" font-family="Helvetica,sans-Serif" font-size="8.00"> m_sync_io</text>
</g>
<!-- Node7 -->
<g id="node7" class="node">
<title>Node7</title>
<g id="a_node7"><a xlink:href="classipc_1_1transport_1_1Blob__stream__mq__base.html" target="_top" xlink:title=" ">
<polygon fill="white" stroke="black" points="319,-228.5 319,-254.5 438,-254.5 438,-228.5 319,-228.5"/>
<text text-anchor="start" x="327" y="-244.1" font-family="Helvetica,sans-Serif" font-size="8.00">ipc::transport::Blob</text>
<text text-anchor="middle" x="378.5" y="-235.1" font-family="Helvetica,sans-Serif" font-size="8.00">_stream_mq_base&lt; Mq &gt;</text>
</a>
</g>
</g>
<!-- Node7&#45;&gt;Node6 -->
<g id="edge6" class="edge">
<title>Node7&#45;&gt;Node6</title>
<path fill="none" stroke="midnightblue" d="M428.7,-224.81C433.59,-222.81 438.43,-220.7 443,-218.5 521.91,-180.5 530.71,-150.49 611,-115.5 619.59,-111.76 628.94,-108.46 638.17,-105.63"/>
<polygon fill="midnightblue" stroke="midnightblue" points="427.34,-221.58 419.3,-228.48 429.89,-228.1 427.34,-221.58"/>
</g>
<!-- Node8 -->
<g id="node8" class="node">
<title>Node8</title>
<g id="a_node8"><a xlink:href="classipc_1_1util_1_1Shared__name.html" target="_top" xlink:title="String&#45;wrapping abstraction representing a name uniquely distinguishing a kernel&#45;persistent entity fr...">
<polygon fill="white" stroke="black" points="323.5,-102 323.5,-119 433.5,-119 433.5,-102 323.5,-102"/>
<text text-anchor="middle" x="378.5" y="-108.6" font-family="Helvetica,sans-Serif" font-size="8.00">ipc::util::Shared_name</text>
</a>
</g>
</g>
<!-- Node8&#45;&gt;Node6 -->
<g id="edge7" class="edge">
<title>Node8&#45;&gt;Node6</title>
<path fill="none" stroke="#9a32cd" stroke-dasharray="5,2" d="M443.86,-106.81C492.17,-104.04 558.71,-100.23 610.94,-97.23"/>
<polygon fill="#9a32cd" stroke="#9a32cd" points="443.62,-103.32 433.84,-107.39 444.02,-110.31 443.62,-103.32"/>
<text text-anchor="middle" x="527" y="-108.1" font-family="Helvetica,sans-Serif" font-size="8.00"> S_RESOURCE_TYPE_ID</text>
</g>
<!-- Node8&#45;&gt;Node8 -->
<g id="edge8" class="edge">
<title>Node8&#45;&gt;Node8</title>
<path fill="none" stroke="#9a32cd" stroke-dasharray="5,2" d="M357.15,-127.98C357.65,-133.32 364.76,-137.5 378.5,-137.5 399.43,-137.5 404.99,-127.79 395.18,-119.07"/>
<polygon fill="#9a32cd" stroke="#9a32cd" points="360.28,-129.55 361.82,-119.07 354.08,-126.3 360.28,-129.55"/>
<text text-anchor="middle" x="378.5" y="-203.1" font-family="Helvetica,sans-Serif" font-size="8.00"> S_1ST_OR_ONLY</text>
<text text-anchor="middle" x="378.5" y="-194.1" font-family="Helvetica,sans-Serif" font-size="8.00">S_EMPTY</text>
<text text-anchor="start" x="340" y="-185.1" font-family="Helvetica,sans-Serif" font-size="8.00">S_RESOURCE_TYPE</text>
<text text-anchor="middle" x="378.5" y="-176.1" font-family="Helvetica,sans-Serif" font-size="8.00">_ID_MUTEX</text>
<text text-anchor="start" x="340" y="-167.1" font-family="Helvetica,sans-Serif" font-size="8.00">S_RESOURCE_TYPE</text>
<text text-anchor="middle" x="378.5" y="-158.1" font-family="Helvetica,sans-Serif" font-size="8.00">_ID_SHM</text>
<text text-anchor="middle" x="378.5" y="-149.1" font-family="Helvetica,sans-Serif" font-size="8.00">S_ROOT_MAGIC</text>
<text text-anchor="middle" x="378.5" y="-140.1" font-family="Helvetica,sans-Serif" font-size="8.00">S_SENTINEL</text>
</g>
<!-- Node9 -->
<g id="node9" class="node">
<title>Node9</title>
<g id="a_node9"><a xlink:title=" ">
<polygon fill="white" stroke="#bfbfbf" points="150,-138 150,-155 190,-155 190,-138 150,-138"/>
<text text-anchor="middle" x="170" y="-144.6" font-family="Helvetica,sans-Serif" font-size="8.00">size_t</text>
</a>
</g>
</g>
<!-- Node9&#45;&gt;Node8 -->
<g id="edge9" class="edge">
<title>Node9&#45;&gt;Node8</title>
<path fill="none" stroke="#9a32cd" stroke-dasharray="5,2" d="M200.08,-141.43C233.45,-135.61 288.73,-125.98 328.73,-119"/>
<polygon fill="#9a32cd" stroke="#9a32cd" points="199.31,-138.01 190.06,-143.18 200.51,-144.91 199.31,-138.01"/>
<text text-anchor="middle" x="263" y="-138.1" font-family="Helvetica,sans-Serif" font-size="8.00"> S_MAX_LENGTH</text>
</g>
<!-- Node10 -->
<g id="node10" class="node">
<title>Node10</title>
<g id="a_node10"><a xlink:title=" ">
<polygon fill="white" stroke="#bfbfbf" points="128,-102 128,-119 212,-119 212,-102 128,-102"/>
<text text-anchor="middle" x="170" y="-108.6" font-family="Helvetica,sans-Serif" font-size="8.00">static const char</text>
</a>
</g>
</g>
<!-- Node10&#45;&gt;Node8 -->
<g id="edge10" class="edge">
<title>Node10&#45;&gt;Node8</title>
<path fill="none" stroke="#9a32cd" stroke-dasharray="5,2" d="M222.37,-110.5C253.11,-110.5 292.13,-110.5 323.35,-110.5"/>
<polygon fill="#9a32cd" stroke="#9a32cd" points="222.29,-107 212.29,-110.5 222.29,-114 222.29,-107"/>
<text text-anchor="middle" x="263" y="-113.1" font-family="Helvetica,sans-Serif" font-size="8.00"> S_SEPARATOR</text>
</g>
<!-- Node11 -->
<g id="node11" class="node">
<title>Node11</title>
<g id="a_node11"><a xlink:title=" ">
<polygon fill="white" stroke="black" points="140.5,-66 140.5,-83 199.5,-83 199.5,-66 140.5,-66"/>
<text text-anchor="middle" x="170" y="-72.6" font-family="Helvetica,sans-Serif" font-size="8.00">std::string</text>
</a>
</g>
</g>
<!-- Node11&#45;&gt;Node8 -->
<g id="edge11" class="edge">
<title>Node11&#45;&gt;Node8</title>
<path fill="none" stroke="#9a32cd" stroke-dasharray="5,2" d="M209.61,-81.23C243.2,-87.09 292.04,-95.6 328.4,-101.94"/>
<polygon fill="#9a32cd" stroke="#9a32cd" points="210.17,-77.78 199.71,-79.51 208.96,-84.67 210.17,-77.78"/>
<text text-anchor="middle" x="263" y="-98.1" font-family="Helvetica,sans-Serif" font-size="8.00"> m_raw_name</text>
</g>
<!-- Node12 -->
<g id="node12" class="node">
<title>Node12</title>
<g id="a_node12"><a xlink:title=" ">
<polygon fill="white" stroke="black" points="0,-61.5 0,-87.5 91,-87.5 91,-61.5 0,-61.5"/>
<text text-anchor="start" x="8" y="-77.1" font-family="Helvetica,sans-Serif" font-size="8.00">std::basic_string&lt;</text>
<text text-anchor="middle" x="45.5" y="-68.1" font-family="Helvetica,sans-Serif" font-size="8.00"> Char &gt;</text>
</a>
</g>
</g>
<!-- Node12&#45;&gt;Node11 -->
<g id="edge12" class="edge">
<title>Node12&#45;&gt;Node11</title>
<path fill="none" stroke="midnightblue" d="M101.25,-74.5C114.72,-74.5 128.61,-74.5 140.29,-74.5"/>
<polygon fill="midnightblue" stroke="midnightblue" points="101.07,-71 91.07,-74.5 101.07,-78 101.07,-71"/>
</g>
<!-- Node13 -->
<g id="node13" class="node">
<title>Node13</title>
<g id="a_node13"><a xlink:title=" ">
<polygon fill="white" stroke="#bfbfbf" points="361,-64 361,-81 396,-81 396,-64 361,-64"/>
<text text-anchor="middle" x="378.5" y="-70.6" font-family="Helvetica,sans-Serif" font-size="8.00">bool</text>
</a>
</g>
</g>
<!-- Node13&#45;&gt;Node6 -->
<g id="edge13" class="edge">
<title>Node13&#45;&gt;Node6</title>
<path fill="none" stroke="#9a32cd" stroke-dasharray="5,2" d="M406.28,-71.56C446.8,-70.44 526.04,-69.4 593,-75.5 603.4,-76.45 614.34,-77.86 625.03,-79.47"/>
<polygon fill="#9a32cd" stroke="#9a32cd" points="406.05,-68.07 396.16,-71.87 406.26,-75.06 406.05,-68.07"/>
<text text-anchor="middle" x="527" y="-87.1" font-family="Helvetica,sans-Serif" font-size="8.00"> S_BLOB_UNDERFLOW_ALLOWED</text>
<text text-anchor="middle" x="527" y="-78.1" font-family="Helvetica,sans-Serif" font-size="8.00">S_TRANSMIT_NATIVE_HANDLES</text>
</g>
<!-- Node14 -->
<g id="node14" class="node">
<title>Node14</title>
<g id="a_node14"><a xlink:title=" ">
<polygon fill="white" stroke="#bfbfbf" points="314,-0.5 314,-44.5 443,-44.5 443,-0.5 314,-0.5"/>
<text text-anchor="start" x="322" y="-34.1" font-family="Helvetica,sans-Serif" font-size="8.00">propagate_const&lt; boost</text>
<text text-anchor="start" x="322" y="-25.1" font-family="Helvetica,sans-Serif" font-size="8.00">::movelib::unique_ptr</text>
<text text-anchor="start" x="322" y="-16.1" font-family="Helvetica,sans-Serif" font-size="8.00">&lt; Blob_stream_mq_receiver</text>
<text text-anchor="middle" x="378.5" y="-7.1" font-family="Helvetica,sans-Serif" font-size="8.00">_impl&lt; Mq &gt; &gt; &gt;</text>
</a>
</g>
</g>
<!-- Node14&#45;&gt;Node6 -->
<g id="edge14" class="edge">
<title>Node14&#45;&gt;Node6</title>
<path fill="none" stroke="#9a32cd" stroke-dasharray="5,2" d="M453.21,-26.84C495.32,-31.2 548.45,-39.95 593,-57.5 601.95,-61.02 602.26,-65.49 611,-69.5 619.24,-73.28 628.24,-76.57 637.17,-79.38"/>
<polygon fill="#9a32cd" stroke="#9a32cd" points="453.32,-23.33 443.03,-25.84 452.64,-30.3 453.32,-23.33"/>
<text text-anchor="middle" x="527" y="-60.1" font-family="Helvetica,sans-Serif" font-size="8.00"> m_impl</text>
</g>
<!-- Node15 -->
<g id="node15" class="node">
<title>Node15</title>
<g id="a_node15"><a xlink:title=" ">
<polygon fill="white" stroke="#bfbfbf" points="614,-25 614,-60 775,-60 775,-25 614,-25"/>
<text text-anchor="start" x="622" y="-49.6" font-family="Helvetica,sans-Serif" font-size="8.00">optional&lt; ipc::transport</text>
<text text-anchor="start" x="622" y="-40.6" font-family="Helvetica,sans-Serif" font-size="8.00">::sync_io::Async_adapter</text>
<text text-anchor="middle" x="694.5" y="-31.6" font-family="Helvetica,sans-Serif" font-size="8.00">_receiver&lt; decltype(m_sync_io)&gt; &gt;</text>
</a>
</g>
</g>
<!-- Node15&#45;&gt;Node1 -->
<g id="edge15" class="edge">
<title>Node15&#45;&gt;Node1</title>
<path fill="none" stroke="#9a32cd" stroke-dasharray="5,2" d="M785.36,-61.85C815.03,-69.94 847.68,-80.72 876,-94.5 897.6,-105.01 919.54,-121.39 934.8,-133.91"/>
<polygon fill="#9a32cd" stroke="#9a32cd" points="785.99,-58.4 775.42,-59.21 784.19,-65.16 785.99,-58.4"/>
<text text-anchor="middle" x="836" y="-97.1" font-family="Helvetica,sans-Serif" font-size="8.00"> m_sync_io_adapter</text>
</g>
</g>
</svg>
