<?xml version="1.0" encoding="UTF-8" standalone="no"?>
<!DOCTYPE svg PUBLIC "-//W3C//DTD SVG 1.1//EN"
 "http://www.w3.org/Graphics/SVG/1.1/DTD/svg11.dtd">
<!-- Generated by graphviz version 2.43.0 (0)
 -->
<!-- Title: ipc::transport::sync_io::Native_socket_stream::async_receive_native_handle Pages: 1 -->
<svg width="529pt" height="44pt"
 viewBox="0.00 0.00 529.00 44.00" xmlns="http://www.w3.org/2000/svg" xmlns:xlink="http://www.w3.org/1999/xlink">
<g id="graph0" class="graph" transform="scale(1 1) rotate(0) translate(4 40)">
<title>ipc::transport::sync_io::Native_socket_stream::async_receive_native_handle</title>
<polygon fill="white" stroke="transparent" points="-4,4 -4,-40 525,-40 525,4 -4,4"/>
<!-- Node1 -->
<g id="node1" class="node">
<title>Node1</title>
<g id="a_node1"><a xlink:title="Implements Native_handle_receiver API per contract.">
<polygon fill="#bfbfbf" stroke="black" points="0,-0.5 0,-35.5 142,-35.5 142,-0.5 0,-0.5"/>
<text text-anchor="start" x="8" y="-25.1" font-family="Helvetica,sans-Serif" font-size="8.00">ipc::transport::sync</text>
<text text-anchor="start" x="8" y="-16.1" font-family="Helvetica,sans-Serif" font-size="8.00">_io::Native_socket_stream</text>
<text text-anchor="middle" x="71" y="-7.1" font-family="Helvetica,sans-Serif" font-size="8.00">::async_receive_native_handle</text>
</a>
</g>
</g>
<!-- Node2 -->
<g id="node2" class="node">
<title>Node2</title>
<g id="a_node2"><a xlink:href="classipc_1_1transport_1_1sync__io_1_1Native__socket__stream.html#abe442ee09c5605638a65be862ee6c946" target="_top" xlink:title="Template&#45;free version of async_receive_native_handle() as required by pImpl idiom.">
<polygon fill="white" stroke="black" points="178,-0.5 178,-35.5 339,-35.5 339,-0.5 178,-0.5"/>
<text text-anchor="start" x="186" y="-25.1" font-family="Helvetica,sans-Serif" font-size="8.00">ipc::transport::sync</text>
<text text-anchor="start" x="186" y="-16.1" font-family="Helvetica,sans-Serif" font-size="8.00">_io::Native_socket_stream</text>
<text text-anchor="middle" x="258.5" y="-7.1" font-family="Helvetica,sans-Serif" font-size="8.00">::async_receive_native_handle_fwd</text>
</a>
</g>
</g>
<!-- Node1&#45;&gt;Node2 -->
<g id="edge1" class="edge">
<title>Node1&#45;&gt;Node2</title>
<path fill="none" stroke="midnightblue" d="M142.13,-18C150.54,-18 159.21,-18 167.84,-18"/>
<polygon fill="midnightblue" stroke="midnightblue" points="167.94,-21.5 177.94,-18 167.94,-14.5 167.94,-21.5"/>
</g>
<!-- Node3 -->
<g id="node3" class="node">
<title>Node3</title>
<g id="a_node3"><a xlink:href="classipc_1_1transport_1_1sync__io_1_1Native__socket__stream.html#a8e3703d5c8bac62f828a372691249c85" target="_top" xlink:title="Helper that simply returns m_impl while guaranteeing that m_impl is non&#45;null upon return.">
<polygon fill="white" stroke="black" points="375,-5 375,-31 521,-31 521,-5 375,-5"/>
<text text-anchor="start" x="383" y="-20.6" font-family="Helvetica,sans-Serif" font-size="8.00">ipc::transport::sync</text>
<text text-anchor="middle" x="448" y="-11.6" font-family="Helvetica,sans-Serif" font-size="8.00">_io::Native_socket_stream::impl</text>
</a>
</g>
</g>
<!-- Node2&#45;&gt;Node3 -->
<g id="edge2" class="edge">
<title>Node2&#45;&gt;Node3</title>
<path fill="none" stroke="midnightblue" d="M339.02,-18C347.46,-18 356.06,-18 364.54,-18"/>
<polygon fill="midnightblue" stroke="midnightblue" points="364.8,-21.5 374.8,-18 364.8,-14.5 364.8,-21.5"/>
</g>
</g>
</svg>
