<?xml version="1.0" encoding="UTF-8" standalone="no"?>
<!DOCTYPE svg PUBLIC "-//W3C//DTD SVG 1.1//EN"
 "http://www.w3.org/Graphics/SVG/1.1/DTD/svg11.dtd">
<!-- Generated by graphviz version 2.43.0 (0)
 -->
<!-- Title: ipc::transport::sync_io::Blob_stream_mq_sender_impl::async_write_q_head_payload Pages: 1 -->
<svg width="290pt" height="62pt"
 viewBox="0.00 0.00 290.00 62.00" xmlns="http://www.w3.org/2000/svg" xmlns:xlink="http://www.w3.org/1999/xlink">
<g id="graph0" class="graph" transform="scale(1 1) rotate(0) translate(4 58)">
<title>ipc::transport::sync_io::Blob_stream_mq_sender_impl::async_write_q_head_payload</title>
<polygon fill="white" stroke="transparent" points="-4,4 -4,-58 286,-58 286,4 -4,4"/>
<!-- Node1 -->
<g id="node1" class="node">
<title>Node1</title>
<g id="a_node1"><a xlink:title="Initiates async&#45;write over m_mq of the low&#45;level payload at the head of out&#45;queue m_pending_payloads_...">
<polygon fill="#bfbfbf" stroke="black" points="0,-5 0,-49 133,-49 133,-5 0,-5"/>
<text text-anchor="start" x="8" y="-38.6" font-family="Helvetica,sans-Serif" font-size="8.00">ipc::transport::sync</text>
<text text-anchor="start" x="8" y="-29.6" font-family="Helvetica,sans-Serif" font-size="8.00">_io::Blob_stream_mq_sender</text>
<text text-anchor="start" x="8" y="-20.6" font-family="Helvetica,sans-Serif" font-size="8.00">_impl::async_write_q_head</text>
<text text-anchor="middle" x="66.5" y="-11.6" font-family="Helvetica,sans-Serif" font-size="8.00">_payload</text>
</a>
</g>
</g>
<!-- Node2 -->
<g id="node2" class="node">
<title>Node2</title>
<g id="a_node2"><a xlink:href="namespaceipc_1_1util.html#a814272e555c0592b0caf92b7bc3d64b3" target="_top" xlink:title="Reads a byte via the given pipe reader.">
<polygon fill="white" stroke="black" points="169,-36.5 169,-53.5 282,-53.5 282,-36.5 169,-36.5"/>
<text text-anchor="middle" x="225.5" y="-43.1" font-family="Helvetica,sans-Serif" font-size="8.00">ipc::util::pipe_consume</text>
</a>
</g>
</g>
<!-- Node1&#45;&gt;Node2 -->
<g id="edge1" class="edge">
<title>Node1&#45;&gt;Node2</title>
<path fill="none" stroke="midnightblue" d="M133.17,-34.53C141.54,-35.49 150.1,-36.47 158.47,-37.43"/>
<polygon fill="midnightblue" stroke="midnightblue" points="158.22,-40.92 168.55,-38.59 159.02,-33.97 158.22,-40.92"/>
</g>
<!-- Node3 -->
<g id="node3" class="node">
<title>Node3</title>
<g id="a_node3"><a xlink:href="namespaceipc_1_1util.html#a5429c6225cc9a271ad8c0041d99c236b" target="_top" xlink:title="Writes a byte to the given pipe writer.">
<polygon fill="white" stroke="black" points="171,-0.5 171,-17.5 280,-17.5 280,-0.5 171,-0.5"/>
<text text-anchor="middle" x="225.5" y="-7.1" font-family="Helvetica,sans-Serif" font-size="8.00">ipc::util::pipe_produce</text>
</a>
</g>
</g>
<!-- Node1&#45;&gt;Node3 -->
<g id="edge2" class="edge">
<title>Node1&#45;&gt;Node3</title>
<path fill="none" stroke="midnightblue" d="M133.17,-19.47C142.33,-18.42 151.73,-17.34 160.85,-16.3"/>
<polygon fill="midnightblue" stroke="midnightblue" points="161.46,-19.75 171,-15.13 160.66,-12.8 161.46,-19.75"/>
</g>
</g>
</svg>
