<?xml version="1.0" encoding="UTF-8" standalone="no"?>
<!DOCTYPE svg PUBLIC "-//W3C//DTD SVG 1.1//EN"
 "http://www.w3.org/Graphics/SVG/1.1/DTD/svg11.dtd">
<!-- Generated by graphviz version 2.43.0 (0)
 -->
<!-- Title: ipc::transport::Blob_stream_mq_sender&lt; Persistent_mq_handle &gt; Pages: 1 -->
<svg width="735pt" height="234pt"
 viewBox="0.00 0.00 735.00 233.50" xmlns="http://www.w3.org/2000/svg" xmlns:xlink="http://www.w3.org/1999/xlink">
<g id="graph0" class="graph" transform="scale(1 1) rotate(0) translate(4 229.5)">
<title>ipc::transport::Blob_stream_mq_sender&lt; Persistent_mq_handle &gt;</title>
<polygon fill="white" stroke="transparent" points="-4,4 -4,-229.5 731,-229.5 731,4 -4,4"/>
<!-- Node1 -->
<g id="node1" class="node">
<title>Node1</title>
<g id="a_node1"><a xlink:title="Implements Blob_sender concept by using an adopted Persistent_mq_handle MQ handle to an MQ (message q...">
<polygon fill="#bfbfbf" stroke="black" points="580,-55 580,-90 727,-90 727,-55 580,-55"/>
<text text-anchor="start" x="588" y="-79.6" font-family="Helvetica,sans-Serif" font-size="8.00">ipc::transport::Blob</text>
<text text-anchor="start" x="588" y="-70.6" font-family="Helvetica,sans-Serif" font-size="8.00">_stream_mq_sender&lt; Persistent</text>
<text text-anchor="middle" x="653.5" y="-61.6" font-family="Helvetica,sans-Serif" font-size="8.00">_mq_handle &gt;</text>
</a>
</g>
</g>
<!-- Node2 -->
<g id="node2" class="node">
<title>Node2</title>
<g id="a_node2"><a xlink:href="classipc_1_1transport_1_1Blob__stream__mq__base.html" target="_top" xlink:title="Base of Blob_stream_mq_sender and Blob_stream_mq_receiver containing certain static facilities,...">
<polygon fill="white" stroke="black" points="314,-190 314,-225 453,-225 453,-190 314,-190"/>
<text text-anchor="start" x="322" y="-214.6" font-family="Helvetica,sans-Serif" font-size="8.00">ipc::transport::Blob</text>
<text text-anchor="start" x="322" y="-205.6" font-family="Helvetica,sans-Serif" font-size="8.00">_stream_mq_base&lt; Persistent</text>
<text text-anchor="middle" x="383.5" y="-196.6" font-family="Helvetica,sans-Serif" font-size="8.00">_mq_handle &gt;</text>
</a>
</g>
</g>
<!-- Node2&#45;&gt;Node1 -->
<g id="edge1" class="edge">
<title>Node2&#45;&gt;Node1</title>
<path fill="none" stroke="midnightblue" d="M440.56,-186.05C444.79,-184.23 448.98,-182.37 453,-180.5 514.77,-151.74 584.16,-112.53 622.66,-90.13"/>
<polygon fill="midnightblue" stroke="midnightblue" points="439.12,-182.86 431.25,-189.95 441.82,-189.31 439.12,-182.86"/>
</g>
<!-- Node3 -->
<g id="node3" class="node">
<title>Node3</title>
<g id="a_node3"><a xlink:href="classipc_1_1util_1_1Shared__name.html" target="_top" xlink:title="String&#45;wrapping abstraction representing a name uniquely distinguishing a kernel&#45;persistent entity fr...">
<polygon fill="white" stroke="black" points="328.5,-64 328.5,-81 438.5,-81 438.5,-64 328.5,-64"/>
<text text-anchor="middle" x="383.5" y="-70.6" font-family="Helvetica,sans-Serif" font-size="8.00">ipc::util::Shared_name</text>
</a>
</g>
</g>
<!-- Node3&#45;&gt;Node1 -->
<g id="edge2" class="edge">
<title>Node3&#45;&gt;Node1</title>
<path fill="none" stroke="#9a32cd" stroke-dasharray="5,2" d="M448.77,-72.5C488.23,-72.5 538.88,-72.5 579.8,-72.5"/>
<polygon fill="#9a32cd" stroke="#9a32cd" points="448.73,-69 438.73,-72.5 448.73,-76 448.73,-69"/>
<text text-anchor="middle" x="516.5" y="-75.1" font-family="Helvetica,sans-Serif" font-size="8.00"> S_RESOURCE_TYPE_ID</text>
</g>
<!-- Node3&#45;&gt;Node3 -->
<g id="edge3" class="edge">
<title>Node3&#45;&gt;Node3</title>
<path fill="none" stroke="#9a32cd" stroke-dasharray="5,2" d="M361.03,-89.98C361.55,-95.32 369.04,-99.5 383.5,-99.5 405.53,-99.5 411.38,-89.79 401.06,-81.07"/>
<polygon fill="#9a32cd" stroke="#9a32cd" points="364.18,-91.52 365.94,-81.07 358.05,-88.14 364.18,-91.52"/>
<text text-anchor="middle" x="383.5" y="-165.1" font-family="Helvetica,sans-Serif" font-size="8.00"> S_1ST_OR_ONLY</text>
<text text-anchor="middle" x="383.5" y="-156.1" font-family="Helvetica,sans-Serif" font-size="8.00">S_EMPTY</text>
<text text-anchor="start" x="345" y="-147.1" font-family="Helvetica,sans-Serif" font-size="8.00">S_RESOURCE_TYPE</text>
<text text-anchor="middle" x="383.5" y="-138.1" font-family="Helvetica,sans-Serif" font-size="8.00">_ID_MUTEX</text>
<text text-anchor="start" x="345" y="-129.1" font-family="Helvetica,sans-Serif" font-size="8.00">S_RESOURCE_TYPE</text>
<text text-anchor="middle" x="383.5" y="-120.1" font-family="Helvetica,sans-Serif" font-size="8.00">_ID_SHM</text>
<text text-anchor="middle" x="383.5" y="-111.1" font-family="Helvetica,sans-Serif" font-size="8.00">S_ROOT_MAGIC</text>
<text text-anchor="middle" x="383.5" y="-102.1" font-family="Helvetica,sans-Serif" font-size="8.00">S_SENTINEL</text>
</g>
<!-- Node4 -->
<g id="node4" class="node">
<title>Node4</title>
<g id="a_node4"><a xlink:title=" ">
<polygon fill="white" stroke="#bfbfbf" points="150,-100 150,-117 190,-117 190,-100 150,-100"/>
<text text-anchor="middle" x="170" y="-106.6" font-family="Helvetica,sans-Serif" font-size="8.00">size_t</text>
</a>
</g>
</g>
<!-- Node4&#45;&gt;Node3 -->
<g id="edge4" class="edge">
<title>Node4&#45;&gt;Node3</title>
<path fill="none" stroke="#9a32cd" stroke-dasharray="5,2" d="M200.36,-103.5C234.44,-97.7 291.22,-88.04 332.34,-81.04"/>
<polygon fill="#9a32cd" stroke="#9a32cd" points="199.41,-100.11 190.14,-105.24 200.59,-107.01 199.41,-100.11"/>
<text text-anchor="middle" x="263" y="-100.1" font-family="Helvetica,sans-Serif" font-size="8.00"> S_MAX_LENGTH</text>
</g>
<!-- Node5 -->
<g id="node5" class="node">
<title>Node5</title>
<g id="a_node5"><a xlink:title=" ">
<polygon fill="white" stroke="#bfbfbf" points="128,-64 128,-81 212,-81 212,-64 128,-64"/>
<text text-anchor="middle" x="170" y="-70.6" font-family="Helvetica,sans-Serif" font-size="8.00">static const char</text>
</a>
</g>
</g>
<!-- Node5&#45;&gt;Node3 -->
<g id="edge5" class="edge">
<title>Node5&#45;&gt;Node3</title>
<path fill="none" stroke="#9a32cd" stroke-dasharray="5,2" d="M222.12,-72.5C254.25,-72.5 295.67,-72.5 328.37,-72.5"/>
<polygon fill="#9a32cd" stroke="#9a32cd" points="222.03,-69 212.03,-72.5 222.03,-76 222.03,-69"/>
<text text-anchor="middle" x="263" y="-75.1" font-family="Helvetica,sans-Serif" font-size="8.00"> S_SEPARATOR</text>
</g>
<!-- Node6 -->
<g id="node6" class="node">
<title>Node6</title>
<g id="a_node6"><a xlink:title=" ">
<polygon fill="white" stroke="black" points="140.5,-28 140.5,-45 199.5,-45 199.5,-28 140.5,-28"/>
<text text-anchor="middle" x="170" y="-34.6" font-family="Helvetica,sans-Serif" font-size="8.00">std::string</text>
</a>
</g>
</g>
<!-- Node6&#45;&gt;Node3 -->
<g id="edge6" class="edge">
<title>Node6&#45;&gt;Node3</title>
<path fill="none" stroke="#9a32cd" stroke-dasharray="5,2" d="M209.65,-43.08C244.06,-48.94 294.62,-57.54 332.18,-63.93"/>
<polygon fill="#9a32cd" stroke="#9a32cd" points="209.97,-39.58 199.52,-41.36 208.79,-46.48 209.97,-39.58"/>
<text text-anchor="middle" x="263" y="-60.1" font-family="Helvetica,sans-Serif" font-size="8.00"> m_raw_name</text>
</g>
<!-- Node7 -->
<g id="node7" class="node">
<title>Node7</title>
<g id="a_node7"><a xlink:title=" ">
<polygon fill="white" stroke="black" points="0,-23.5 0,-49.5 91,-49.5 91,-23.5 0,-23.5"/>
<text text-anchor="start" x="8" y="-39.1" font-family="Helvetica,sans-Serif" font-size="8.00">std::basic_string&lt;</text>
<text text-anchor="middle" x="45.5" y="-30.1" font-family="Helvetica,sans-Serif" font-size="8.00"> Char &gt;</text>
</a>
</g>
</g>
<!-- Node7&#45;&gt;Node6 -->
<g id="edge7" class="edge">
<title>Node7&#45;&gt;Node6</title>
<path fill="none" stroke="midnightblue" d="M101.25,-36.5C114.72,-36.5 128.61,-36.5 140.29,-36.5"/>
<polygon fill="midnightblue" stroke="midnightblue" points="101.07,-33 91.07,-36.5 101.07,-40 101.07,-33"/>
</g>
<!-- Node8 -->
<g id="node8" class="node">
<title>Node8</title>
<g id="a_node8"><a xlink:title=" ">
<polygon fill="white" stroke="#bfbfbf" points="321,-0.5 321,-44.5 446,-44.5 446,-0.5 321,-0.5"/>
<text text-anchor="start" x="329" y="-34.1" font-family="Helvetica,sans-Serif" font-size="8.00">propagate_const&lt; boost</text>
<text text-anchor="start" x="329" y="-25.1" font-family="Helvetica,sans-Serif" font-size="8.00">::movelib::unique_ptr</text>
<text text-anchor="start" x="329" y="-16.1" font-family="Helvetica,sans-Serif" font-size="8.00">&lt; Blob_stream_mq_sender</text>
<text text-anchor="middle" x="383.5" y="-7.1" font-family="Helvetica,sans-Serif" font-size="8.00">_impl&lt; Mq &gt; &gt; &gt;</text>
</a>
</g>
</g>
<!-- Node8&#45;&gt;Node1 -->
<g id="edge8" class="edge">
<title>Node8&#45;&gt;Node1</title>
<path fill="none" stroke="#9a32cd" stroke-dasharray="5,2" d="M456.33,-35.9C494.48,-43.02 541.27,-51.75 579.58,-58.9"/>
<polygon fill="#9a32cd" stroke="#9a32cd" points="456.79,-32.43 446.32,-34.03 455.51,-39.31 456.79,-32.43"/>
<text text-anchor="middle" x="516.5" y="-57.1" font-family="Helvetica,sans-Serif" font-size="8.00"> m_impl</text>
</g>
</g>
</svg>
