<?xml version="1.0" encoding="UTF-8" standalone="no"?>
<!DOCTYPE svg PUBLIC "-//W3C//DTD SVG 1.1//EN"
 "http://www.w3.org/Graphics/SVG/1.1/DTD/svg11.dtd">
<!-- Generated by graphviz version 2.43.0 (0)
 -->
<!-- Title: ipc::util::Shared_name::operator+= Pages: 1 -->
<svg width="280pt" height="53pt"
 viewBox="0.00 0.00 280.00 53.00" xmlns="http://www.w3.org/2000/svg" xmlns:xlink="http://www.w3.org/1999/xlink">
<g id="graph0" class="graph" transform="scale(1 1) rotate(0) translate(4 49)">
<title>ipc::util::Shared_name::operator+=</title>
<polygon fill="white" stroke="transparent" points="-4,4 -4,-49 276,-49 276,4 -4,4"/>
<!-- Node1 -->
<g id="node1" class="node">
<title>Node1</title>
<g id="a_node1"><a xlink:title="Appends the given other Shared_name.">
<polygon fill="#bfbfbf" stroke="black" points="0,-0.5 0,-26.5 110,-26.5 110,-0.5 0,-0.5"/>
<text text-anchor="start" x="8" y="-16.1" font-family="Helvetica,sans-Serif" font-size="8.00">ipc::util::Shared_name</text>
<text text-anchor="middle" x="55" y="-7.1" font-family="Helvetica,sans-Serif" font-size="8.00">::operator+=</text>
</a>
</g>
</g>
<!-- Node1&#45;&gt;Node1 -->
<g id="edge1" class="edge">
<title>Node1&#45;&gt;Node1</title>
<path fill="none" stroke="midnightblue" d="M28.94,-26.77C21.05,-35.96 29.73,-45 55,-45 70.4,-45 79.64,-41.64 82.72,-36.94"/>
<polygon fill="midnightblue" stroke="midnightblue" points="86.12,-36.07 81.06,-26.77 79.21,-37.2 86.12,-36.07"/>
</g>
<!-- Node2 -->
<g id="node2" class="node">
<title>Node2</title>
<g id="a_node2"><a xlink:href="classipc_1_1util_1_1Shared__name.html#ae89e1e061f87ffe0288514e254837595" target="_top" xlink:title="Returns (sans copying) ref to immutable entire wrapped name string, suitable to pass into sys calls w...">
<polygon fill="white" stroke="black" points="146,-5 146,-22 272,-22 272,-5 146,-5"/>
<text text-anchor="middle" x="209" y="-11.6" font-family="Helvetica,sans-Serif" font-size="8.00">ipc::util::Shared_name::str</text>
</a>
</g>
</g>
<!-- Node1&#45;&gt;Node2 -->
<g id="edge2" class="edge">
<title>Node1&#45;&gt;Node2</title>
<path fill="none" stroke="midnightblue" d="M110.02,-13.5C118.36,-13.5 127.09,-13.5 135.75,-13.5"/>
<polygon fill="midnightblue" stroke="midnightblue" points="135.86,-17 145.86,-13.5 135.86,-10 135.86,-17"/>
</g>
</g>
</svg>
