<?xml version="1.0" encoding="UTF-8" standalone="no"?>
<!DOCTYPE svg PUBLIC "-//W3C//DTD SVG 1.1//EN"
 "http://www.w3.org/Graphics/SVG/1.1/DTD/svg11.dtd">
<!-- Generated by graphviz version 2.43.0 (0)
 -->
<!-- Title: ipc::session::shm::arena_lend::jemalloc::Session_impl&lt; Session_impl_t &gt; Pages: 1 -->
<svg width="125pt" height="107pt"
 viewBox="0.00 0.00 125.00 107.00" xmlns="http://www.w3.org/2000/svg" xmlns:xlink="http://www.w3.org/1999/xlink">
<g id="graph0" class="graph" transform="scale(1 1) rotate(0) translate(4 103)">
<title>ipc::session::shm::arena_lend::jemalloc::Session_impl&lt; Session_impl_t &gt;</title>
<polygon fill="white" stroke="transparent" points="-4,4 -4,-103 121,-103 121,4 -4,4"/>
<!-- Node1 -->
<g id="node1" class="node">
<title>Node1</title>
<g id="a_node1"><a xlink:title="Common data and logic for shm::arena_lend::jemalloc::Server_session_impl and shm::arena_lend::jemallo...">
<polygon fill="#bfbfbf" stroke="black" points="0,-0.5 0,-44.5 117,-44.5 117,-0.5 0,-0.5"/>
<text text-anchor="start" x="8" y="-34.1" font-family="Helvetica,sans-Serif" font-size="8.00">ipc::session::shm::</text>
<text text-anchor="start" x="8" y="-25.1" font-family="Helvetica,sans-Serif" font-size="8.00">arena_lend::jemalloc</text>
<text text-anchor="start" x="8" y="-16.1" font-family="Helvetica,sans-Serif" font-size="8.00">::Session_impl&lt; Session</text>
<text text-anchor="middle" x="58.5" y="-7.1" font-family="Helvetica,sans-Serif" font-size="8.00">_impl_t &gt;</text>
</a>
</g>
</g>
<!-- Node2 -->
<g id="node2" class="node">
<title>Node2</title>
<g id="a_node2"><a xlink:href="classSession__impl__t.html" target="_top" xlink:title=" ">
<polygon fill="white" stroke="#bfbfbf" points="20,-81.5 20,-98.5 97,-98.5 97,-81.5 20,-81.5"/>
<text text-anchor="middle" x="58.5" y="-88.1" font-family="Helvetica,sans-Serif" font-size="8.00">Session_impl_t</text>
</a>
</g>
</g>
<!-- Node2&#45;&gt;Node1 -->
<g id="edge1" class="edge">
<title>Node2&#45;&gt;Node1</title>
<path fill="none" stroke="midnightblue" d="M58.5,-71.23C58.5,-63.02 58.5,-53.2 58.5,-44.6"/>
<polygon fill="midnightblue" stroke="midnightblue" points="55,-71.49 58.5,-81.49 62,-71.49 55,-71.49"/>
</g>
</g>
</svg>
