<?xml version="1.0" encoding="UTF-8" standalone="no"?>
<!DOCTYPE svg PUBLIC "-//W3C//DTD SVG 1.1//EN"
 "http://www.w3.org/Graphics/SVG/1.1/DTD/svg11.dtd">
<!-- Generated by graphviz version 2.43.0 (0)
 -->
<!-- Title: ipc::transport::struc::Msg_mdt_out::Msg_mdt_out Pages: 1 -->
<svg width="282pt" height="35pt"
 viewBox="0.00 0.00 282.00 35.00" xmlns="http://www.w3.org/2000/svg" xmlns:xlink="http://www.w3.org/1999/xlink">
<g id="graph0" class="graph" transform="scale(1 1) rotate(0) translate(4 31)">
<title>ipc::transport::struc::Msg_mdt_out::Msg_mdt_out</title>
<polygon fill="white" stroke="transparent" points="-4,4 -4,-31 278,-31 278,4 -4,4"/>
<!-- Node1 -->
<g id="node1" class="node">
<title>Node1</title>
<g id="a_node1"><a xlink:title="Constructs out&#45;metadata&#45;message describing a user&#45;created message (not an internal message); or else ...">
<polygon fill="#bfbfbf" stroke="black" points="0,-0.5 0,-26.5 135,-26.5 135,-0.5 0,-0.5"/>
<text text-anchor="start" x="8" y="-16.1" font-family="Helvetica,sans-Serif" font-size="8.00">ipc::transport::struc</text>
<text text-anchor="middle" x="67.5" y="-7.1" font-family="Helvetica,sans-Serif" font-size="8.00">::Msg_mdt_out::Msg_mdt_out</text>
</a>
</g>
</g>
<!-- Node2 -->
<g id="node2" class="node">
<title>Node2</title>
<g id="a_node2"><a xlink:href="classipc_1_1transport_1_1struc_1_1Msg__out.html#a9894ad7ec2a46641c4b9b86664d0d465" target="_top" xlink:title="The Body root capnp&#45;generated mutator object.">
<polygon fill="white" stroke="black" points="171,-0.5 171,-26.5 274,-26.5 274,-0.5 171,-0.5"/>
<text text-anchor="start" x="179" y="-16.1" font-family="Helvetica,sans-Serif" font-size="8.00">ipc::transport::struc</text>
<text text-anchor="middle" x="222.5" y="-7.1" font-family="Helvetica,sans-Serif" font-size="8.00">::Msg_out::body_root</text>
</a>
</g>
</g>
<!-- Node1&#45;&gt;Node2 -->
<g id="edge1" class="edge">
<title>Node1&#45;&gt;Node2</title>
<path fill="none" stroke="midnightblue" d="M135.16,-13.5C143.64,-13.5 152.27,-13.5 160.65,-13.5"/>
<polygon fill="midnightblue" stroke="midnightblue" points="160.71,-17 170.71,-13.5 160.71,-10 160.71,-17"/>
</g>
</g>
</svg>
