<?xml version="1.0" encoding="UTF-8" standalone="no"?>
<!DOCTYPE svg PUBLIC "-//W3C//DTD SVG 1.1//EN"
 "http://www.w3.org/Graphics/SVG/1.1/DTD/svg11.dtd">
<!-- Generated by graphviz version 2.43.0 (0)
 -->
<!-- Title: ipc::transport::struc::Channel_base Pages: 1 -->
<svg width="394pt" height="152pt"
 viewBox="0.00 0.00 394.00 152.00" xmlns="http://www.w3.org/2000/svg" xmlns:xlink="http://www.w3.org/1999/xlink">
<g id="graph0" class="graph" transform="scale(1 1) rotate(0) translate(4 148)">
<title>ipc::transport::struc::Channel_base</title>
<polygon fill="white" stroke="transparent" points="-4,4 -4,-148 390,-148 390,4 -4,4"/>
<!-- Node1 -->
<g id="node1" class="node">
<title>Node1</title>
<g id="a_node1"><a xlink:title="Channel base that contains non&#45;parameterized public items such as tag types and constants.">
<polygon fill="#bfbfbf" stroke="black" points="288,-59 288,-85 386,-85 386,-59 288,-59"/>
<text text-anchor="start" x="296" y="-74.6" font-family="Helvetica,sans-Serif" font-size="8.00">ipc::transport::struc</text>
<text text-anchor="middle" x="337" y="-65.6" font-family="Helvetica,sans-Serif" font-size="8.00">::Channel_base</text>
</a>
</g>
</g>
<!-- Node2 -->
<g id="node2" class="node">
<title>Node2</title>
<g id="a_node2"><a xlink:href="structipc_1_1transport_1_1struc_1_1Channel__base_1_1Serialize__via__heap.html" target="_top" xlink:title="Tag type for ctor selection: Backing memory for serialization comes from fixed&#45;size segment allocatio...">
<polygon fill="white" stroke="black" points="0,-108.5 0,-143.5 122,-143.5 122,-108.5 0,-108.5"/>
<text text-anchor="start" x="8" y="-133.1" font-family="Helvetica,sans-Serif" font-size="8.00">ipc::transport::struc</text>
<text text-anchor="start" x="8" y="-124.1" font-family="Helvetica,sans-Serif" font-size="8.00">::Channel_base::Serialize</text>
<text text-anchor="middle" x="61" y="-115.1" font-family="Helvetica,sans-Serif" font-size="8.00">_via_heap</text>
</a>
</g>
</g>
<!-- Node2&#45;&gt;Node1 -->
<g id="edge1" class="edge">
<title>Node2&#45;&gt;Node1</title>
<path fill="none" stroke="#9a32cd" stroke-dasharray="5,2" d="M131.99,-112.21C180.81,-102.58 244.68,-90 287.86,-81.49"/>
<polygon fill="#9a32cd" stroke="#9a32cd" points="131.26,-108.78 122.13,-114.15 132.62,-115.65 131.26,-108.78"/>
<text text-anchor="middle" x="205" y="-112.6" font-family="Helvetica,sans-Serif" font-size="8.00"> S_SERIALIZE_VIA_HEAP</text>
</g>
<!-- Node3 -->
<g id="node3" class="node">
<title>Node3</title>
<g id="a_node3"><a xlink:href="structipc_1_1transport_1_1struc_1_1Channel__base_1_1Serialize__via__session__shm.html" target="_top" xlink:title="Tag type for ctor selection: Backing RAM for serialization comes from a given session::Session&#39;s SHM ...">
<polygon fill="white" stroke="black" points="0,-54.5 0,-89.5 122,-89.5 122,-54.5 0,-54.5"/>
<text text-anchor="start" x="8" y="-79.1" font-family="Helvetica,sans-Serif" font-size="8.00">ipc::transport::struc</text>
<text text-anchor="start" x="8" y="-70.1" font-family="Helvetica,sans-Serif" font-size="8.00">::Channel_base::Serialize</text>
<text text-anchor="middle" x="61" y="-61.1" font-family="Helvetica,sans-Serif" font-size="8.00">_via_session_shm</text>
</a>
</g>
</g>
<!-- Node3&#45;&gt;Node1 -->
<g id="edge2" class="edge">
<title>Node3&#45;&gt;Node1</title>
<path fill="none" stroke="#9a32cd" stroke-dasharray="5,2" d="M132.3,-72C181.08,-72 244.77,-72 287.86,-72"/>
<polygon fill="#9a32cd" stroke="#9a32cd" points="132.13,-68.5 122.13,-72 132.13,-75.5 132.13,-68.5"/>
<text text-anchor="middle" x="205" y="-74.6" font-family="Helvetica,sans-Serif" font-size="8.00"> S_SERIALIZE_VIA_SESSION_SHM</text>
</g>
<!-- Node4 -->
<g id="node4" class="node">
<title>Node4</title>
<g id="a_node4"><a xlink:href="structipc_1_1transport_1_1struc_1_1Channel__base_1_1Serialize__via__app__shm.html" target="_top" xlink:title="Similar to Serialize_via_session_shm but assumes per&#45;app&#45;scope SHM&#45;arena (as opposed to per&#45;session&#45;s...">
<polygon fill="white" stroke="black" points="0,-0.5 0,-35.5 122,-35.5 122,-0.5 0,-0.5"/>
<text text-anchor="start" x="8" y="-25.1" font-family="Helvetica,sans-Serif" font-size="8.00">ipc::transport::struc</text>
<text text-anchor="start" x="8" y="-16.1" font-family="Helvetica,sans-Serif" font-size="8.00">::Channel_base::Serialize</text>
<text text-anchor="middle" x="61" y="-7.1" font-family="Helvetica,sans-Serif" font-size="8.00">_via_app_shm</text>
</a>
</g>
</g>
<!-- Node4&#45;&gt;Node1 -->
<g id="edge3" class="edge">
<title>Node4&#45;&gt;Node1</title>
<path fill="none" stroke="#9a32cd" stroke-dasharray="5,2" d="M131.99,-31.79C180.81,-41.42 244.68,-54 287.86,-62.51"/>
<polygon fill="#9a32cd" stroke="#9a32cd" points="132.62,-28.35 122.13,-29.85 131.26,-35.22 132.62,-28.35"/>
<text text-anchor="middle" x="205" y="-60.6" font-family="Helvetica,sans-Serif" font-size="8.00"> S_SERIALIZE_VIA_APP_SHM</text>
</g>
</g>
</svg>
