<?xml version="1.0" encoding="UTF-8" standalone="no"?>
<!DOCTYPE svg PUBLIC "-//W3C//DTD SVG 1.1//EN"
 "http://www.w3.org/Graphics/SVG/1.1/DTD/svg11.dtd">
<!-- Generated by graphviz version 2.43.0 (0)
 -->
<!-- Title: ipc::session::shm::arena_lend::jemalloc::Client_session_impl&lt; S_MQ_TYPE_OR_NONE, S_TRANSMIT_NATIVE_HANDLES, Mdt_payload &gt; Pages: 1 -->
<svg width="1389pt" height="527pt"
 viewBox="0.00 0.00 1389.00 526.61" xmlns="http://www.w3.org/2000/svg" xmlns:xlink="http://www.w3.org/1999/xlink">
<g id="graph0" class="graph" transform="scale(1 1) rotate(0) translate(4 522.61)">
<title>ipc::session::shm::arena_lend::jemalloc::Client_session_impl&lt; S_MQ_TYPE_OR_NONE, S_TRANSMIT_NATIVE_HANDLES, Mdt_payload &gt;</title>
<polygon fill="white" stroke="transparent" points="-4,4 -4,-522.61 1385,-522.61 1385,4 -4,4"/>
<!-- Node1 -->
<g id="node1" class="node">
<title>Node1</title>
<g id="a_node1"><a xlink:title="Core internally&#45;used implementation of shm::arena_lend::jemalloc::Client_session: it is to the latter...">
<polygon fill="#bfbfbf" stroke="black" points="1243,-90.61 1243,-152.61 1381,-152.61 1381,-90.61 1243,-90.61"/>
<text text-anchor="start" x="1251" y="-142.21" font-family="Helvetica,sans-Serif" font-size="8.00">ipc::session::shm::</text>
<text text-anchor="start" x="1251" y="-133.21" font-family="Helvetica,sans-Serif" font-size="8.00">arena_lend::jemalloc</text>
<text text-anchor="start" x="1251" y="-124.21" font-family="Helvetica,sans-Serif" font-size="8.00">::Client_session_impl</text>
<text text-anchor="start" x="1251" y="-115.21" font-family="Helvetica,sans-Serif" font-size="8.00">&lt; S_MQ_TYPE_OR_NONE, S</text>
<text text-anchor="start" x="1251" y="-106.21" font-family="Helvetica,sans-Serif" font-size="8.00">_TRANSMIT_NATIVE_HANDLES,</text>
<text text-anchor="middle" x="1312" y="-97.21" font-family="Helvetica,sans-Serif" font-size="8.00"> Mdt_payload &gt;</text>
</a>
</g>
</g>
<!-- Node2 -->
<g id="node2" class="node">
<title>Node2</title>
<g id="a_node2"><a xlink:href="classipc_1_1session_1_1shm_1_1arena__lend_1_1jemalloc_1_1Session__impl.html" target="_top" xlink:title=" ">
<polygon fill="white" stroke="black" points="897,-86.11 897,-157.11 1092,-157.11 1092,-86.11 897,-86.11"/>
<text text-anchor="start" x="905" y="-146.71" font-family="Helvetica,sans-Serif" font-size="8.00">ipc::session::shm::</text>
<text text-anchor="start" x="905" y="-137.71" font-family="Helvetica,sans-Serif" font-size="8.00">arena_lend::jemalloc</text>
<text text-anchor="start" x="905" y="-128.71" font-family="Helvetica,sans-Serif" font-size="8.00">::Session_impl&lt; session</text>
<text text-anchor="start" x="905" y="-119.71" font-family="Helvetica,sans-Serif" font-size="8.00">::Client_session_impl&lt;</text>
<text text-anchor="start" x="905" y="-110.71" font-family="Helvetica,sans-Serif" font-size="8.00"> S_MQ_TYPE_OR_NONE, S_TRANSMIT</text>
<text text-anchor="start" x="905" y="-101.71" font-family="Helvetica,sans-Serif" font-size="8.00">_NATIVE_HANDLES, Mdt_payload,</text>
<text text-anchor="middle" x="994.5" y="-92.71" font-family="Helvetica,sans-Serif" font-size="8.00"> session::schema::ShmType::JEMALLOC &gt; &gt;</text>
</a>
</g>
</g>
<!-- Node2&#45;&gt;Node1 -->
<g id="edge1" class="edge">
<title>Node2&#45;&gt;Node1</title>
<path fill="none" stroke="midnightblue" d="M1102.42,-121.61C1148.88,-121.61 1201.93,-121.61 1242.9,-121.61"/>
<polygon fill="midnightblue" stroke="midnightblue" points="1102.3,-118.11 1092.3,-121.61 1102.3,-125.11 1102.3,-118.11"/>
</g>
<!-- Node3 -->
<g id="node3" class="node">
<title>Node3</title>
<g id="a_node3"><a xlink:href="classipc_1_1session_1_1Client__session__impl.html" target="_top" xlink:title=" ">
<polygon fill="white" stroke="black" points="603,-197.11 603,-250.11 755,-250.11 755,-197.11 603,-197.11"/>
<text text-anchor="start" x="611" y="-239.71" font-family="Helvetica,sans-Serif" font-size="8.00">ipc::session::Client</text>
<text text-anchor="start" x="611" y="-230.71" font-family="Helvetica,sans-Serif" font-size="8.00">_session_impl&lt; S_MQ_TYPE</text>
<text text-anchor="start" x="611" y="-221.71" font-family="Helvetica,sans-Serif" font-size="8.00">_OR_NONE, S_TRANSMIT_NATIVE</text>
<text text-anchor="start" x="611" y="-212.71" font-family="Helvetica,sans-Serif" font-size="8.00">_HANDLES, Mdt_payload, session</text>
<text text-anchor="middle" x="679" y="-203.71" font-family="Helvetica,sans-Serif" font-size="8.00">::schema::ShmType::JEMALLOC &gt;</text>
</a>
</g>
</g>
<!-- Node3&#45;&gt;Node2 -->
<g id="edge2" class="edge">
<title>Node3&#45;&gt;Node2</title>
<path fill="none" stroke="midnightblue" d="M764.72,-196.05C805.48,-182.79 854.53,-166.83 896.75,-153.09"/>
<polygon fill="midnightblue" stroke="midnightblue" points="763.52,-192.76 755.09,-199.18 765.68,-199.41 763.52,-192.76"/>
</g>
<!-- Node4 -->
<g id="node4" class="node">
<title>Node4</title>
<g id="a_node4"><a xlink:href="classipc_1_1session_1_1Session__base.html" target="_top" xlink:title="Internal type containing data and types common to internal types Server_session_impl and Client_sessi...">
<polygon fill="white" stroke="black" points="317,-282.61 317,-326.61 463,-326.61 463,-282.61 317,-282.61"/>
<text text-anchor="start" x="325" y="-316.21" font-family="Helvetica,sans-Serif" font-size="8.00">ipc::session::Session</text>
<text text-anchor="start" x="325" y="-307.21" font-family="Helvetica,sans-Serif" font-size="8.00">_base&lt; S_MQ_TYPE_OR_NONE,</text>
<text text-anchor="start" x="325" y="-298.21" font-family="Helvetica,sans-Serif" font-size="8.00"> S_TRANSMIT_NATIVE_HANDLES,</text>
<text text-anchor="middle" x="390" y="-289.21" font-family="Helvetica,sans-Serif" font-size="8.00"> Mdt_payload &gt;</text>
</a>
</g>
</g>
<!-- Node4&#45;&gt;Node3 -->
<g id="edge3" class="edge">
<title>Node4&#45;&gt;Node3</title>
<path fill="none" stroke="midnightblue" d="M473.17,-288.25C507.96,-280.62 548.76,-270.77 585,-259.61 594.1,-256.81 603.58,-253.55 612.86,-250.16"/>
<polygon fill="midnightblue" stroke="midnightblue" points="472.08,-284.9 463.05,-290.44 473.56,-291.74 472.08,-284.9"/>
</g>
<!-- Node5 -->
<g id="node5" class="node">
<title>Node5</title>
<g id="a_node5"><a xlink:title=" ">
<polygon fill="white" stroke="#bfbfbf" points="30.5,-388.11 30.5,-405.11 129.5,-405.11 129.5,-388.11 30.5,-388.11"/>
<text text-anchor="middle" x="80" y="-394.71" font-family="Helvetica,sans-Serif" font-size="8.00">boost::noncopyable</text>
</a>
</g>
</g>
<!-- Node5&#45;&gt;Node4 -->
<g id="edge4" class="edge">
<title>Node5&#45;&gt;Node4</title>
<path fill="none" stroke="#8b1a1a" d="M139.7,-398.05C184.76,-397.25 247.74,-391.91 299,-371.61 324.54,-361.5 349.25,-342.2 366.29,-326.9"/>
<polygon fill="#8b1a1a" stroke="#8b1a1a" points="139.47,-394.56 129.51,-398.16 139.55,-401.56 139.47,-394.56"/>
</g>
<!-- Node6 -->
<g id="node6" class="node">
<title>Node6</title>
<g id="a_node6"><a xlink:title=" ">
<polygon fill="white" stroke="#bfbfbf" points="29.5,-481.11 29.5,-498.11 130.5,-498.11 130.5,-481.11 29.5,-481.11"/>
<text text-anchor="middle" x="80" y="-487.71" font-family="Helvetica,sans-Serif" font-size="8.00">static constexpr bool</text>
</a>
</g>
</g>
<!-- Node6&#45;&gt;Node3 -->
<g id="edge17" class="edge">
<title>Node6&#45;&gt;Node3</title>
<path fill="none" stroke="#9a32cd" stroke-dasharray="5,2" d="M123.49,-500.25C171.1,-509.51 248.23,-516.24 299,-478.61 317.97,-464.55 301.55,-446.48 317,-428.61 405.32,-326.5 469.14,-354.92 585,-285.61 603.32,-274.65 623.06,-261.67 639.63,-250.42"/>
<polygon fill="#9a32cd" stroke="#9a32cd" points="124.01,-496.79 113.51,-498.19 122.6,-503.64 124.01,-496.79"/>
<text text-anchor="middle" x="390" y="-449.21" font-family="Helvetica,sans-Serif" font-size="8.00"> S_MQS_ENABLED</text>
<text text-anchor="middle" x="390" y="-440.21" font-family="Helvetica,sans-Serif" font-size="8.00">S_SHM_ENABLED</text>
<text text-anchor="middle" x="390" y="-431.21" font-family="Helvetica,sans-Serif" font-size="8.00">S_SOCKET_STREAM_ENABLED</text>
</g>
<!-- Node6&#45;&gt;Node4 -->
<g id="edge5" class="edge">
<title>Node6&#45;&gt;Node4</title>
<path fill="none" stroke="#9a32cd" stroke-dasharray="5,2" d="M127.94,-478.45C138.58,-475.55 149.76,-472.22 160,-468.61 168.26,-465.7 169.64,-463.22 178,-460.61 230.25,-444.28 256.02,-471.51 299,-437.61 314.31,-425.54 306.96,-414.32 317,-397.61 332.45,-371.88 353.9,-345.03 369.36,-326.84"/>
<polygon fill="#9a32cd" stroke="#9a32cd" points="126.72,-475.15 117.95,-481.08 128.51,-481.92 126.72,-475.15"/>
<text text-anchor="middle" x="238.5" y="-472.21" font-family="Helvetica,sans-Serif" font-size="8.00"> S_MQS_ENABLED</text>
<text text-anchor="middle" x="238.5" y="-463.21" font-family="Helvetica,sans-Serif" font-size="8.00">S_SOCKET_STREAM_ENABLED</text>
</g>
<!-- Node7 -->
<g id="node7" class="node">
<title>Node7</title>
<g id="a_node7"><a xlink:href="structipc_1_1session_1_1Server__app.html" target="_top" xlink:title="An App that is used as a server in at least one client&#45;server IPC split.">
<polygon fill="white" stroke="red" points="21,-316.11 21,-333.11 139,-333.11 139,-316.11 21,-316.11"/>
<text text-anchor="middle" x="80" y="-322.71" font-family="Helvetica,sans-Serif" font-size="8.00">ipc::session::Server_app</text>
</a>
</g>
</g>
<!-- Node7&#45;&gt;Node4 -->
<g id="edge6" class="edge">
<title>Node7&#45;&gt;Node4</title>
<path fill="none" stroke="#9a32cd" stroke-dasharray="5,2" d="M149.31,-320.18C199.04,-316.95 266.24,-312.58 316.84,-309.3"/>
<polygon fill="#9a32cd" stroke="#9a32cd" points="149.05,-316.69 139.29,-320.83 149.5,-323.67 149.05,-316.69"/>
<text text-anchor="middle" x="238.5" y="-320.21" font-family="Helvetica,sans-Serif" font-size="8.00"> m_srv_app_ref</text>
</g>
<!-- Node16 -->
<g id="node8" class="node">
<title>Node16</title>
<g id="a_node8"><a xlink:title=" ">
<polygon fill="white" stroke="#bfbfbf" points="44.5,-280.11 44.5,-297.11 115.5,-297.11 115.5,-280.11 44.5,-280.11"/>
<text text-anchor="middle" x="80" y="-286.71" font-family="Helvetica,sans-Serif" font-size="8.00">Fine_duration</text>
</a>
</g>
</g>
<!-- Node16&#45;&gt;Node4 -->
<g id="edge7" class="edge">
<title>Node16&#45;&gt;Node4</title>
<path fill="none" stroke="#9a32cd" stroke-dasharray="5,2" d="M125.93,-286.72C170.07,-285.35 239.3,-284.53 299,-289.61 304.84,-290.11 310.87,-290.78 316.92,-291.55"/>
<polygon fill="#9a32cd" stroke="#9a32cd" points="125.69,-283.22 115.81,-287.06 125.92,-290.22 125.69,-283.22"/>
<text text-anchor="middle" x="238.5" y="-292.21" font-family="Helvetica,sans-Serif" font-size="8.00"> S_OPEN_CHANNEL_TIMEOUT</text>
</g>
<!-- Node17 -->
<g id="node9" class="node">
<title>Node17</title>
<g id="a_node9"><a xlink:title=" ">
<polygon fill="white" stroke="#bfbfbf" points="26.5,-244.11 26.5,-261.11 133.5,-261.11 133.5,-244.11 26.5,-244.11"/>
<text text-anchor="middle" x="80" y="-250.71" font-family="Helvetica,sans-Serif" font-size="8.00">static constexpr size_t</text>
</a>
</g>
</g>
<!-- Node17&#45;&gt;Node4 -->
<g id="edge8" class="edge">
<title>Node17&#45;&gt;Node4</title>
<path fill="none" stroke="#9a32cd" stroke-dasharray="5,2" d="M143.78,-254.22C187.68,-256.35 247.45,-261.27 299,-272.61 310.5,-275.14 322.54,-278.73 333.94,-282.59"/>
<polygon fill="#9a32cd" stroke="#9a32cd" points="143.68,-250.71 133.54,-253.76 143.37,-257.7 143.68,-250.71"/>
<text text-anchor="middle" x="238.5" y="-275.21" font-family="Helvetica,sans-Serif" font-size="8.00"> S_MQS_MAX_MSG_SZ</text>
</g>
<!-- Node18 -->
<g id="node10" class="node">
<title>Node18</title>
<g id="a_node10"><a xlink:title=" ">
<polygon fill="white" stroke="orangered" points="31,-190.11 31,-225.11 129,-225.11 129,-190.11 31,-190.11"/>
<text text-anchor="start" x="39" y="-214.71" font-family="Helvetica,sans-Serif" font-size="8.00">std::atomic&lt; const</text>
<text text-anchor="start" x="39" y="-205.71" font-family="Helvetica,sans-Serif" font-size="8.00"> ipc::session::Client</text>
<text text-anchor="middle" x="80" y="-196.71" font-family="Helvetica,sans-Serif" font-size="8.00">_app * &gt;</text>
</a>
</g>
</g>
<!-- Node18&#45;&gt;Node4 -->
<g id="edge9" class="edge">
<title>Node18&#45;&gt;Node4</title>
<path fill="none" stroke="#9a32cd" stroke-dasharray="5,2" d="M139.49,-205.14C185.97,-205.83 250.93,-212.95 299,-242.61 310.65,-249.8 306.62,-258.68 317,-267.61 323.39,-273.11 330.74,-278.07 338.25,-282.43"/>
<polygon fill="#9a32cd" stroke="#9a32cd" points="139.3,-201.64 129.28,-205.09 139.26,-208.64 139.3,-201.64"/>
<text text-anchor="middle" x="238.5" y="-245.21" font-family="Helvetica,sans-Serif" font-size="8.00"> m_cli_app_ptr</text>
</g>
<!-- Node20 -->
<g id="node11" class="node">
<title>Node20</title>
<g id="a_node11"><a xlink:href="classipc_1_1util_1_1Shared__name.html" target="_top" xlink:title="String&#45;wrapping abstraction representing a name uniquely distinguishing a kernel&#45;persistent entity fr...">
<polygon fill="white" stroke="red" points="25,-64.11 25,-81.11 135,-81.11 135,-64.11 25,-64.11"/>
<text text-anchor="middle" x="80" y="-70.71" font-family="Helvetica,sans-Serif" font-size="8.00">ipc::util::Shared_name</text>
</a>
</g>
</g>
<!-- Node20&#45;&gt;Node4 -->
<g id="edge10" class="edge">
<title>Node20&#45;&gt;Node4</title>
<path fill="none" stroke="#9a32cd" stroke-dasharray="5,2" d="M93.76,-88.93C110.7,-109.37 142.61,-143.85 178,-161.61 226.93,-186.17 259.8,-146.41 299,-184.61 326.03,-210.96 294.01,-237.67 317,-267.61 321.37,-273.3 326.85,-278.19 332.83,-282.37"/>
<polygon fill="#9a32cd" stroke="#9a32cd" points="96.46,-86.7 87.45,-81.12 91.01,-91.1 96.46,-86.7"/>
<text text-anchor="middle" x="238.5" y="-196.21" font-family="Helvetica,sans-Serif" font-size="8.00"> m_cli_namespace</text>
<text text-anchor="middle" x="238.5" y="-187.21" font-family="Helvetica,sans-Serif" font-size="8.00">m_srv_namespace</text>
</g>
<!-- Node20&#45;&gt;Node20 -->
<g id="edge11" class="edge">
<title>Node20&#45;&gt;Node20</title>
<path fill="none" stroke="#9a32cd" stroke-dasharray="5,2" d="M50.41,-88.93C49.74,-94.81 59.6,-99.61 80,-99.61 109.01,-99.61 116.71,-89.9 103.12,-81.18"/>
<polygon fill="#9a32cd" stroke="#9a32cd" points="53.16,-91.1 56.88,-81.18 47.79,-86.61 53.16,-91.1"/>
<text text-anchor="middle" x="80" y="-165.21" font-family="Helvetica,sans-Serif" font-size="8.00"> S_1ST_OR_ONLY</text>
<text text-anchor="middle" x="80" y="-156.21" font-family="Helvetica,sans-Serif" font-size="8.00">S_EMPTY</text>
<text text-anchor="start" x="41.5" y="-147.21" font-family="Helvetica,sans-Serif" font-size="8.00">S_RESOURCE_TYPE</text>
<text text-anchor="middle" x="80" y="-138.21" font-family="Helvetica,sans-Serif" font-size="8.00">_ID_MUTEX</text>
<text text-anchor="start" x="41.5" y="-129.21" font-family="Helvetica,sans-Serif" font-size="8.00">S_RESOURCE_TYPE</text>
<text text-anchor="middle" x="80" y="-120.21" font-family="Helvetica,sans-Serif" font-size="8.00">_ID_SHM</text>
<text text-anchor="middle" x="80" y="-111.21" font-family="Helvetica,sans-Serif" font-size="8.00">S_ROOT_MAGIC</text>
<text text-anchor="middle" x="80" y="-102.21" font-family="Helvetica,sans-Serif" font-size="8.00">S_SENTINEL</text>
</g>
<!-- Node23 -->
<g id="node12" class="node">
<title>Node23</title>
<g id="a_node12"><a xlink:title=" ">
<polygon fill="white" stroke="#bfbfbf" points="44.5,-28.11 44.5,-45.11 115.5,-45.11 115.5,-28.11 44.5,-28.11"/>
<text text-anchor="middle" x="80" y="-34.71" font-family="Helvetica,sans-Serif" font-size="8.00">Task_asio_err</text>
</a>
</g>
</g>
<!-- Node23&#45;&gt;Node3 -->
<g id="edge19" class="edge">
<title>Node23&#45;&gt;Node3</title>
<path fill="none" stroke="#9a32cd" stroke-dasharray="5,2" d="M125.64,-42.92C176.48,-52.64 257.81,-76.46 299,-132.61 322.1,-164.1 287.22,-193.35 317,-218.61 358.46,-253.79 509.54,-243.58 602.61,-233.35"/>
<polygon fill="#9a32cd" stroke="#9a32cd" points="126.05,-39.43 115.59,-41.1 124.81,-46.32 126.05,-39.43"/>
<text text-anchor="start" x="342.5" y="-254.21" font-family="Helvetica,sans-Serif" font-size="8.00"> m_conn_on_done_func</text>
<text text-anchor="middle" x="390" y="-245.21" font-family="Helvetica,sans-Serif" font-size="8.00">_or_empty</text>
</g>
<!-- Node23&#45;&gt;Node4 -->
<g id="edge12" class="edge">
<title>Node23&#45;&gt;Node4</title>
<path fill="none" stroke="#9a32cd" stroke-dasharray="5,2" d="M125.59,-38.15C138.14,-40.68 150.84,-45.56 160,-54.61 184.38,-78.71 153.19,-105.96 178,-129.61 217.62,-167.39 260.93,-113.28 299,-152.61 334.98,-189.78 286.7,-225.68 317,-267.61 321.2,-273.42 326.58,-278.39 332.51,-282.61"/>
<polygon fill="#9a32cd" stroke="#9a32cd" points="126.05,-34.68 115.63,-36.58 124.96,-41.59 126.05,-34.68"/>
<text text-anchor="middle" x="238.5" y="-155.21" font-family="Helvetica,sans-Serif" font-size="8.00"> m_on_err_func</text>
</g>
<!-- Node24 -->
<g id="node13" class="node">
<title>Node24</title>
<g id="a_node13"><a xlink:title=" ">
<polygon fill="white" stroke="#bfbfbf" points="0,-424.11 0,-459.11 160,-459.11 160,-424.11 0,-424.11"/>
<text text-anchor="start" x="8" y="-448.71" font-family="Helvetica,sans-Serif" font-size="8.00">Function&lt; void(Channel</text>
<text text-anchor="start" x="8" y="-439.71" font-family="Helvetica,sans-Serif" font-size="8.00">_obj &amp;&amp;new_channel, Mdt</text>
<text text-anchor="middle" x="80" y="-430.71" font-family="Helvetica,sans-Serif" font-size="8.00">_reader_ptr &amp;&amp;new_channel_mdt)&gt;</text>
</a>
</g>
</g>
<!-- Node24&#45;&gt;Node4 -->
<g id="edge13" class="edge">
<title>Node24&#45;&gt;Node4</title>
<path fill="none" stroke="#9a32cd" stroke-dasharray="5,2" d="M167.04,-421.93C170.74,-421.14 174.41,-420.36 178,-419.61 231.59,-408.45 250.76,-422.48 299,-396.61 330.31,-379.83 357.45,-348.4 373.51,-327"/>
<polygon fill="#9a32cd" stroke="#9a32cd" points="166.23,-418.53 157.19,-424.06 167.71,-425.37 166.23,-418.53"/>
<text text-anchor="start" x="178" y="-431.21" font-family="Helvetica,sans-Serif" font-size="8.00"> m_on_passive_open_channel</text>
<text text-anchor="middle" x="238.5" y="-422.21" font-family="Helvetica,sans-Serif" font-size="8.00">_func_or_empty</text>
</g>
<!-- Node25 -->
<g id="node14" class="node">
<title>Node25</title>
<g id="a_node14"><a xlink:title=" ">
<polygon fill="white" stroke="#bfbfbf" points="50,-352.11 50,-369.11 110,-369.11 110,-352.11 50,-352.11"/>
<text text-anchor="middle" x="80" y="-358.71" font-family="Helvetica,sans-Serif" font-size="8.00">Error_code</text>
</a>
</g>
</g>
<!-- Node25&#45;&gt;Node4 -->
<g id="edge14" class="edge">
<title>Node25&#45;&gt;Node4</title>
<path fill="none" stroke="#9a32cd" stroke-dasharray="5,2" d="M120.11,-356.95C163.97,-352.45 237.07,-343.75 299,-330.61 304.73,-329.4 310.62,-328.01 316.53,-326.52"/>
<polygon fill="#9a32cd" stroke="#9a32cd" points="119.75,-353.47 110.15,-357.95 120.45,-360.43 119.75,-353.47"/>
<text text-anchor="start" x="190" y="-361.21" font-family="Helvetica,sans-Serif" font-size="8.00"> m_peer_state_err_code</text>
<text text-anchor="middle" x="238.5" y="-352.21" font-family="Helvetica,sans-Serif" font-size="8.00">_or_ok</text>
</g>
<!-- Node26 -->
<g id="node15" class="node">
<title>Node26</title>
<g id="a_node15"><a xlink:title=" ">
<polygon fill="white" stroke="#bfbfbf" points="336.5,-192.11 336.5,-209.11 443.5,-209.11 443.5,-192.11 336.5,-192.11"/>
<text text-anchor="middle" x="390" y="-198.71" font-family="Helvetica,sans-Serif" font-size="8.00">flow::log::Log_context</text>
</a>
</g>
</g>
<!-- Node26&#45;&gt;Node3 -->
<g id="edge15" class="edge">
<title>Node26&#45;&gt;Node3</title>
<path fill="none" stroke="midnightblue" d="M453.62,-205.63C497.57,-209.15 556.54,-213.88 602.99,-217.6"/>
<polygon fill="midnightblue" stroke="midnightblue" points="453.89,-202.14 443.64,-204.83 453.33,-209.12 453.89,-202.14"/>
</g>
<!-- Node27 -->
<g id="node16" class="node">
<title>Node27</title>
<g id="a_node16"><a xlink:title=" ">
<polygon fill="white" stroke="#bfbfbf" points="363.5,-156.11 363.5,-173.11 416.5,-173.11 416.5,-156.11 363.5,-156.11"/>
<text text-anchor="middle" x="390" y="-162.71" font-family="Helvetica,sans-Serif" font-size="8.00">ShmType</text>
</a>
</g>
</g>
<!-- Node27&#45;&gt;Node3 -->
<g id="edge16" class="edge">
<title>Node27&#45;&gt;Node3</title>
<path fill="none" stroke="#9a32cd" stroke-dasharray="5,2" d="M426.76,-168.52C465.91,-173.18 530.41,-181.95 585,-194.61 590.85,-195.97 596.86,-197.51 602.89,-199.15"/>
<polygon fill="#9a32cd" stroke="#9a32cd" points="426.99,-165.03 416.65,-167.35 426.18,-171.98 426.99,-165.03"/>
<text text-anchor="middle" x="533" y="-197.21" font-family="Helvetica,sans-Serif" font-size="8.00"> S_SHM_TYPE</text>
</g>
<!-- Node28 -->
<g id="node17" class="node">
<title>Node28</title>
<g id="a_node17"><a xlink:title=" ">
<polygon fill="white" stroke="#bfbfbf" points="371,-120.11 371,-137.11 409,-137.11 409,-120.11 371,-120.11"/>
<text text-anchor="middle" x="390" y="-126.71" font-family="Helvetica,sans-Serif" font-size="8.00">State</text>
</a>
</g>
</g>
<!-- Node28&#45;&gt;Node3 -->
<g id="edge18" class="edge">
<title>Node28&#45;&gt;Node3</title>
<path fill="none" stroke="#9a32cd" stroke-dasharray="5,2" d="M419.03,-129.97C457.63,-132.62 528.77,-140.35 585,-162.61 606.18,-171 627.6,-184.62 644.53,-196.86"/>
<polygon fill="#9a32cd" stroke="#9a32cd" points="419.24,-126.47 409.04,-129.35 418.81,-133.46 419.24,-126.47"/>
<text text-anchor="middle" x="533" y="-165.21" font-family="Helvetica,sans-Serif" font-size="8.00"> m_state</text>
</g>
<!-- Node29 -->
<g id="node18" class="node">
<title>Node29</title>
<g id="a_node18"><a xlink:title=" ">
<polygon fill="white" stroke="#bfbfbf" points="356,-81.11 356,-98.11 424,-98.11 424,-81.11 356,-81.11"/>
<text text-anchor="middle" x="390" y="-87.71" font-family="Helvetica,sans-Serif" font-size="8.00">unsigned int</text>
</a>
</g>
</g>
<!-- Node29&#45;&gt;Node3 -->
<g id="edge20" class="edge">
<title>Node29&#45;&gt;Node3</title>
<path fill="none" stroke="#9a32cd" stroke-dasharray="5,2" d="M432.95,-79.05C475.39,-70.95 540.87,-65.9 585,-97.61 603.16,-110.67 591.07,-125.69 603,-144.61 615.21,-163.97 632.63,-182.68 647.61,-197.02"/>
<polygon fill="#9a32cd" stroke="#9a32cd" points="432.04,-75.66 422.94,-81.09 433.44,-82.52 432.04,-75.66"/>
<text text-anchor="start" x="481" y="-127.21" font-family="Helvetica,sans-Serif" font-size="8.00"> m_last_actively_opened</text>
<text text-anchor="middle" x="533" y="-118.21" font-family="Helvetica,sans-Serif" font-size="8.00">_channel_id</text>
<text text-anchor="start" x="481" y="-109.21" font-family="Helvetica,sans-Serif" font-size="8.00">m_last_passively_opened</text>
<text text-anchor="middle" x="533" y="-100.21" font-family="Helvetica,sans-Serif" font-size="8.00">_channel_id</text>
</g>
<!-- Node30 -->
<g id="node19" class="node">
<title>Node30</title>
<g id="a_node19"><a xlink:title=" ">
<polygon fill="white" stroke="#bfbfbf" points="332,-501.11 332,-518.11 448,-518.11 448,-501.11 332,-501.11"/>
<text text-anchor="middle" x="390" y="-507.71" font-family="Helvetica,sans-Serif" font-size="8.00">Single_thread_task_loop</text>
</a>
</g>
</g>
<!-- Node30&#45;&gt;Node1 -->
<g id="edge29" class="edge">
<title>Node30&#45;&gt;Node1</title>
<path fill="none" stroke="#9a32cd" stroke-dasharray="5,2" d="M458.46,-511.35C496.3,-510.7 543.99,-507.13 585,-495.61 862.43,-417.67 1156.97,-227.74 1266.57,-152.78"/>
<polygon fill="#9a32cd" stroke="#9a32cd" points="458.02,-507.86 448.06,-511.46 458.1,-514.86 458.02,-507.86"/>
<text text-anchor="middle" x="826" y="-428.21" font-family="Helvetica,sans-Serif" font-size="8.00"> m_async_cleanup_worker</text>
</g>
<!-- Node30&#45;&gt;Node3 -->
<g id="edge21" class="edge">
<title>Node30&#45;&gt;Node3</title>
<path fill="none" stroke="#9a32cd" stroke-dasharray="5,2" d="M435.8,-498.6C444.82,-496.33 454.22,-493.93 463,-491.61 471.03,-489.49 472.94,-488.62 481,-486.61 526.93,-475.16 549.08,-494.45 585,-463.61 650.27,-407.58 669.96,-300.11 675.72,-250.24"/>
<polygon fill="#9a32cd" stroke="#9a32cd" points="434.69,-495.27 425.84,-501.1 436.39,-502.06 434.69,-495.27"/>
<text text-anchor="middle" x="533" y="-489.21" font-family="Helvetica,sans-Serif" font-size="8.00"> m_async_worker</text>
</g>
<!-- Node31 -->
<g id="node20" class="node">
<title>Node31</title>
<g id="a_node20"><a xlink:title=" ">
<polygon fill="white" stroke="#bfbfbf" points="319,-465.11 319,-482.11 461,-482.11 461,-465.11 319,-465.11"/>
<text text-anchor="middle" x="390" y="-471.71" font-family="Helvetica,sans-Serif" font-size="8.00">Master_structured_channel_ptr</text>
</a>
</g>
</g>
<!-- Node31&#45;&gt;Node3 -->
<g id="edge22" class="edge">
<title>Node31&#45;&gt;Node3</title>
<path fill="none" stroke="#9a32cd" stroke-dasharray="5,2" d="M441.69,-462.93C498.69,-450.87 583.58,-432.76 585,-431.61 642.59,-384.87 665.71,-295.02 673.96,-250.28"/>
<polygon fill="#9a32cd" stroke="#9a32cd" points="440.8,-459.54 431.74,-465.03 442.25,-466.38 440.8,-459.54"/>
<text text-anchor="middle" x="533" y="-456.21" font-family="Helvetica,sans-Serif" font-size="8.00"> m_master_channel</text>
</g>
<!-- Node32 -->
<g id="node21" class="node">
<title>Node32</title>
<g id="a_node21"><a xlink:title=" ">
<polygon fill="white" stroke="black" points="618.5,-72.11 618.5,-89.11 739.5,-89.11 739.5,-72.11 618.5,-72.11"/>
<text text-anchor="middle" x="679" y="-78.71" font-family="Helvetica,sans-Serif" font-size="8.00">std::shared_ptr&lt; Arena &gt;</text>
</a>
</g>
</g>
<!-- Node32&#45;&gt;Node2 -->
<g id="edge23" class="edge">
<title>Node32&#45;&gt;Node2</title>
<path fill="none" stroke="#9a32cd" stroke-dasharray="5,2" d="M749.85,-89.75C793.09,-95.4 849.23,-102.74 896.72,-108.96"/>
<polygon fill="#9a32cd" stroke="#9a32cd" points="750.07,-86.25 739.7,-88.42 749.17,-93.19 750.07,-86.25"/>
<text text-anchor="middle" x="826" y="-109.21" font-family="Helvetica,sans-Serif" font-size="8.00"> m_session_shm</text>
</g>
<!-- Node33 -->
<g id="node22" class="node">
<title>Node33</title>
<g id="a_node22"><a xlink:title=" ">
<polygon fill="white" stroke="#bfbfbf" points="369.5,-9.11 369.5,-26.11 410.5,-26.11 410.5,-9.11 369.5,-9.11"/>
<text text-anchor="middle" x="390" y="-15.71" font-family="Helvetica,sans-Serif" font-size="8.00">Arena</text>
</a>
</g>
</g>
<!-- Node33&#45;&gt;Node32 -->
<g id="edge24" class="edge">
<title>Node33&#45;&gt;Node32</title>
<path fill="none" stroke="#9a32cd" stroke-dasharray="5,2" d="M420.42,-9.47C461.06,-0.05 535.03,10.27 585,-22.61 600.95,-33.11 588.32,-49.41 603,-61.61 608.27,-65.99 614.42,-69.38 620.88,-72"/>
<polygon fill="#9a32cd" stroke="#9a32cd" points="419.47,-6.09 410.6,-11.88 421.14,-12.89 419.47,-6.09"/>
<text text-anchor="middle" x="533" y="-25.21" font-family="Helvetica,sans-Serif" font-size="8.00"> ptr</text>
</g>
<!-- Node34 -->
<g id="node23" class="node">
<title>Node34</title>
<g id="a_node23"><a xlink:title=" ">
<polygon fill="white" stroke="#bfbfbf" points="608,-26.61 608,-52.61 750,-52.61 750,-26.61 608,-26.61"/>
<text text-anchor="start" x="616" y="-42.21" font-family="Helvetica,sans-Serif" font-size="8.00">optional&lt; typename</text>
<text text-anchor="middle" x="679" y="-33.21" font-family="Helvetica,sans-Serif" font-size="8.00"> Shm_session::Shm_channel &gt;</text>
</a>
</g>
</g>
<!-- Node34&#45;&gt;Node2 -->
<g id="edge25" class="edge">
<title>Node34&#45;&gt;Node2</title>
<path fill="none" stroke="#9a32cd" stroke-dasharray="5,2" d="M760.16,-54.1C796.68,-61.32 840.3,-70.81 879,-81.61 884.88,-83.25 890.9,-85.04 896.95,-86.91"/>
<polygon fill="#9a32cd" stroke="#9a32cd" points="760.55,-50.61 750.06,-52.12 759.2,-57.48 760.55,-50.61"/>
<text text-anchor="middle" x="826" y="-84.21" font-family="Helvetica,sans-Serif" font-size="8.00"> m_shm_channel</text>
</g>
<!-- Node35 -->
<g id="node24" class="node">
<title>Node35</title>
<g id="a_node24"><a xlink:title=" ">
<polygon fill="white" stroke="black" points="626,-108.61 626,-134.61 732,-134.61 732,-108.61 626,-108.61"/>
<text text-anchor="start" x="634" y="-124.21" font-family="Helvetica,sans-Serif" font-size="8.00">std::shared_ptr&lt; Shm</text>
<text text-anchor="middle" x="679" y="-115.21" font-family="Helvetica,sans-Serif" font-size="8.00">_session &gt;</text>
</a>
</g>
</g>
<!-- Node35&#45;&gt;Node2 -->
<g id="edge26" class="edge">
<title>Node35&#45;&gt;Node2</title>
<path fill="none" stroke="#9a32cd" stroke-dasharray="5,2" d="M742.14,-121.61C786.3,-121.61 846.47,-121.61 896.87,-121.61"/>
<polygon fill="#9a32cd" stroke="#9a32cd" points="742.12,-118.11 732.12,-121.61 742.12,-125.11 742.12,-118.11"/>
<text text-anchor="middle" x="826" y="-124.21" font-family="Helvetica,sans-Serif" font-size="8.00"> m_shm_session</text>
</g>
<!-- Node36 -->
<g id="node25" class="node">
<title>Node36</title>
<g id="a_node25"><a xlink:title=" ">
<polygon fill="white" stroke="#bfbfbf" points="355,-45.11 355,-62.11 425,-62.11 425,-45.11 355,-45.11"/>
<text text-anchor="middle" x="390" y="-51.71" font-family="Helvetica,sans-Serif" font-size="8.00">Shm_session</text>
</a>
</g>
</g>
<!-- Node36&#45;&gt;Node35 -->
<g id="edge27" class="edge">
<title>Node36&#45;&gt;Node35</title>
<path fill="none" stroke="#9a32cd" stroke-dasharray="5,2" d="M429.69,-42.73C471.67,-33.35 538.86,-25.68 585,-56.61 601.87,-67.92 587.89,-85.04 603,-98.61 609.49,-104.44 617.42,-108.79 625.66,-112.03"/>
<polygon fill="#9a32cd" stroke="#9a32cd" points="428.77,-39.35 419.84,-45.06 430.38,-46.16 428.77,-39.35"/>
<text text-anchor="middle" x="533" y="-59.21" font-family="Helvetica,sans-Serif" font-size="8.00"> ptr</text>
</g>
<!-- Node37 -->
<g id="node26" class="node">
<title>Node37</title>
<g id="a_node26"><a xlink:title=" ">
<polygon fill="white" stroke="#bfbfbf" points="934.5,-40.61 934.5,-66.61 1054.5,-66.61 1054.5,-40.61 934.5,-40.61"/>
<text text-anchor="start" x="942.5" y="-56.21" font-family="Helvetica,sans-Serif" font-size="8.00">Owner_shm_pool_listener</text>
<text text-anchor="middle" x="994.5" y="-47.21" font-family="Helvetica,sans-Serif" font-size="8.00">_for_repository</text>
</a>
</g>
</g>
<!-- Node37&#45;&gt;Node1 -->
<g id="edge28" class="edge">
<title>Node37&#45;&gt;Node1</title>
<path fill="none" stroke="#9a32cd" stroke-dasharray="5,2" d="M1064.82,-68.55C1117.74,-79.96 1190.26,-95.59 1242.88,-106.93"/>
<polygon fill="#9a32cd" stroke="#9a32cd" points="1065.36,-65.09 1054.84,-66.4 1063.88,-71.93 1065.36,-65.09"/>
<text text-anchor="middle" x="1167.5" y="-104.21" font-family="Helvetica,sans-Serif" font-size="8.00"> m_shm_arena_pool_listener</text>
</g>
</g>
</svg>
