<?xml version="1.0" encoding="UTF-8" standalone="no"?>
<!DOCTYPE svg PUBLIC "-//W3C//DTD SVG 1.1//EN"
 "http://www.w3.org/Graphics/SVG/1.1/DTD/svg11.dtd">
<!-- Generated by graphviz version 2.43.0 (0)
 -->
<!-- Title: ipc::session::sync_io::Session_server_adapter&lt; Session_server &gt; Pages: 1 -->
<svg width="1226pt" height="539pt"
 viewBox="0.00 0.00 1226.00 539.00" xmlns="http://www.w3.org/2000/svg" xmlns:xlink="http://www.w3.org/1999/xlink">
<g id="graph0" class="graph" transform="scale(1 1) rotate(0) translate(4 535)">
<title>ipc::session::sync_io::Session_server_adapter&lt; Session_server &gt;</title>
<polygon fill="white" stroke="transparent" points="-4,4 -4,-535 1222,-535 1222,4 -4,4"/>
<!-- Node1 -->
<g id="node1" class="node">
<title>Node1</title>
<g id="a_node1"><a xlink:title="sync_io&#45;pattern counterpart to async&#45;I/O&#45;pattern session::Session_server types and all their SHM&#45;awar...">
<polygon fill="#bfbfbf" stroke="black" points="1086,-334.5 1086,-369.5 1218,-369.5 1218,-334.5 1086,-334.5"/>
<text text-anchor="start" x="1094" y="-359.1" font-family="Helvetica,sans-Serif" font-size="8.00">ipc::session::sync</text>
<text text-anchor="start" x="1094" y="-350.1" font-family="Helvetica,sans-Serif" font-size="8.00">_io::Session_server</text>
<text text-anchor="middle" x="1152" y="-341.1" font-family="Helvetica,sans-Serif" font-size="8.00">_adapter&lt; Session_server &gt;</text>
</a>
</g>
</g>
<!-- Node2 -->
<g id="node2" class="node">
<title>Node2</title>
<g id="a_node2"><a xlink:title=" ">
<polygon fill="white" stroke="#bfbfbf" points="839,-494.5 839,-511.5 906,-511.5 906,-494.5 839,-494.5"/>
<text text-anchor="middle" x="872.5" y="-501.1" font-family="Helvetica,sans-Serif" font-size="8.00">Task_engine</text>
</a>
</g>
</g>
<!-- Node2&#45;&gt;Node1 -->
<g id="edge1" class="edge">
<title>Node2&#45;&gt;Node1</title>
<path fill="none" stroke="#9a32cd" stroke-dasharray="5,2" d="M916.28,-505.5C958.08,-505.91 1021.98,-500.97 1068,-472 1107.23,-447.3 1132.79,-396.59 1144.17,-369.68"/>
<polygon fill="#9a32cd" stroke="#9a32cd" points="916.22,-501.99 906.15,-505.29 916.07,-508.99 916.22,-501.99"/>
<text text-anchor="start" x="962.5" y="-524.6" font-family="Helvetica,sans-Serif" font-size="8.00"> m_ev_hndl_task_engine</text>
<text text-anchor="middle" x="1012" y="-515.6" font-family="Helvetica,sans-Serif" font-size="8.00">_unused</text>
<text text-anchor="middle" x="1012" y="-506.6" font-family="Helvetica,sans-Serif" font-size="8.00">m_nb_task_engine</text>
</g>
<!-- Node3 -->
<g id="node3" class="node">
<title>Node3</title>
<g id="a_node3"><a xlink:title=" ">
<polygon fill="white" stroke="#bfbfbf" points="835,-458.5 835,-475.5 910,-475.5 910,-458.5 835,-458.5"/>
<text text-anchor="middle" x="872.5" y="-465.1" font-family="Helvetica,sans-Serif" font-size="8.00">readable_pipe</text>
</a>
</g>
</g>
<!-- Node3&#45;&gt;Node1 -->
<g id="edge2" class="edge">
<title>Node3&#45;&gt;Node1</title>
<path fill="none" stroke="#9a32cd" stroke-dasharray="5,2" d="M920.41,-464.67C961.31,-461.03 1021.24,-451.73 1068,-428 1096.05,-413.76 1121.65,-387.37 1136.78,-369.75"/>
<polygon fill="#9a32cd" stroke="#9a32cd" points="919.87,-461.2 910.18,-465.5 920.43,-468.18 919.87,-461.2"/>
<text text-anchor="middle" x="1012" y="-461.6" font-family="Helvetica,sans-Serif" font-size="8.00"> m_ready_reader</text>
</g>
<!-- Node4 -->
<g id="node4" class="node">
<title>Node4</title>
<g id="a_node4"><a xlink:title=" ">
<polygon fill="white" stroke="#bfbfbf" points="837,-422.5 837,-439.5 908,-439.5 908,-422.5 837,-422.5"/>
<text text-anchor="middle" x="872.5" y="-429.1" font-family="Helvetica,sans-Serif" font-size="8.00">writable_pipe</text>
</a>
</g>
</g>
<!-- Node4&#45;&gt;Node1 -->
<g id="edge3" class="edge">
<title>Node4&#45;&gt;Node1</title>
<path fill="none" stroke="#9a32cd" stroke-dasharray="5,2" d="M918.05,-423.66C957.89,-416.51 1017.61,-404.33 1068,-388 1083.54,-382.96 1100.15,-376.08 1114.4,-369.68"/>
<polygon fill="#9a32cd" stroke="#9a32cd" points="917.35,-420.23 908.11,-425.42 918.57,-427.13 917.35,-420.23"/>
<text text-anchor="middle" x="1012" y="-417.6" font-family="Helvetica,sans-Serif" font-size="8.00"> m_ready_writer</text>
</g>
<!-- Node5 -->
<g id="node5" class="node">
<title>Node5</title>
<g id="a_node5"><a xlink:href="classipc_1_1util_1_1sync__io_1_1Asio__waitable__native__handle.html" target="_top" xlink:title="Useful if using the sync_io pattern within a user event loop built on boost.asio (optionally with flo...">
<polygon fill="white" stroke="black" points="818.5,-368.5 818.5,-403.5 926.5,-403.5 926.5,-368.5 818.5,-368.5"/>
<text text-anchor="start" x="826.5" y="-393.1" font-family="Helvetica,sans-Serif" font-size="8.00">ipc::util::sync_io</text>
<text text-anchor="start" x="826.5" y="-384.1" font-family="Helvetica,sans-Serif" font-size="8.00">::Asio_waitable_native</text>
<text text-anchor="middle" x="872.5" y="-375.1" font-family="Helvetica,sans-Serif" font-size="8.00">_handle</text>
</a>
</g>
</g>
<!-- Node5&#45;&gt;Node1 -->
<g id="edge4" class="edge">
<title>Node5&#45;&gt;Node1</title>
<path fill="none" stroke="#9a32cd" stroke-dasharray="5,2" d="M936.8,-378.24C981.35,-372.79 1040.82,-365.5 1085.79,-359.99"/>
<polygon fill="#9a32cd" stroke="#9a32cd" points="936.18,-374.79 926.68,-379.48 937.03,-381.74 936.18,-374.79"/>
<text text-anchor="middle" x="1012" y="-377.6" font-family="Helvetica,sans-Serif" font-size="8.00"> m_ev_wait_hndl</text>
</g>
<!-- Node6 -->
<g id="node6" class="node">
<title>Node6</title>
<g id="a_node6"><a xlink:title=" ">
<polygon fill="white" stroke="#bfbfbf" points="651.5,-373 651.5,-399 742.5,-399 742.5,-373 651.5,-373"/>
<text text-anchor="start" x="659.5" y="-388.6" font-family="Helvetica,sans-Serif" font-size="8.00">boost::asio::posix</text>
<text text-anchor="middle" x="697" y="-379.6" font-family="Helvetica,sans-Serif" font-size="8.00">::descriptor</text>
</a>
</g>
</g>
<!-- Node6&#45;&gt;Node5 -->
<g id="edge5" class="edge">
<title>Node6&#45;&gt;Node5</title>
<path fill="none" stroke="darkgreen" d="M752.71,-386C773.66,-386 797.52,-386 818.33,-386"/>
<polygon fill="darkgreen" stroke="darkgreen" points="752.68,-382.5 742.68,-386 752.68,-389.5 752.68,-382.5"/>
</g>
<!-- Node7 -->
<g id="node7" class="node">
<title>Node7</title>
<g id="a_node7"><a xlink:title=" ">
<polygon fill="white" stroke="#bfbfbf" points="811,-287 811,-349 934,-349 934,-287 811,-287"/>
<text text-anchor="start" x="819" y="-338.6" font-family="Helvetica,sans-Serif" font-size="8.00">Function&lt; void(Asio</text>
<text text-anchor="start" x="819" y="-329.6" font-family="Helvetica,sans-Serif" font-size="8.00">_waitable_native_handle</text>
<text text-anchor="start" x="819" y="-320.6" font-family="Helvetica,sans-Serif" font-size="8.00"> *hndl_of_interest, bool</text>
<text text-anchor="start" x="819" y="-311.6" font-family="Helvetica,sans-Serif" font-size="8.00"> ev_of_interest_snd_else</text>
<text text-anchor="start" x="819" y="-302.6" font-family="Helvetica,sans-Serif" font-size="8.00">_rcv, Task_ptr &amp;&amp;on_active</text>
<text text-anchor="middle" x="872.5" y="-293.6" font-family="Helvetica,sans-Serif" font-size="8.00">_ev_func)&gt;</text>
</a>
</g>
</g>
<!-- Node7&#45;&gt;Node1 -->
<g id="edge6" class="edge">
<title>Node7&#45;&gt;Node1</title>
<path fill="none" stroke="#9a32cd" stroke-dasharray="5,2" d="M944.01,-326.64C987.6,-331.98 1043.15,-338.79 1085.73,-344"/>
<polygon fill="#9a32cd" stroke="#9a32cd" points="944.41,-323.16 934.06,-325.42 943.56,-330.11 944.41,-323.16"/>
<text text-anchor="middle" x="1012" y="-343.6" font-family="Helvetica,sans-Serif" font-size="8.00"> m_ev_wait_func</text>
</g>
<!-- Node8 -->
<g id="node8" class="node">
<title>Node8</title>
<g id="a_node8"><a xlink:title=" ">
<polygon fill="white" stroke="#bfbfbf" points="837,-250.5 837,-267.5 908,-267.5 908,-250.5 837,-250.5"/>
<text text-anchor="middle" x="872.5" y="-257.1" font-family="Helvetica,sans-Serif" font-size="8.00">Task_asio_err</text>
</a>
</g>
</g>
<!-- Node8&#45;&gt;Node1 -->
<g id="edge7" class="edge">
<title>Node8&#45;&gt;Node1</title>
<path fill="none" stroke="#9a32cd" stroke-dasharray="5,2" d="M917.96,-269.92C957.75,-280.13 1017.44,-296.55 1068,-315 1083.56,-320.68 1100.32,-327.92 1114.68,-334.49"/>
<polygon fill="#9a32cd" stroke="#9a32cd" points="918.6,-266.47 908.04,-267.4 916.87,-273.25 918.6,-266.47"/>
<text text-anchor="middle" x="1012" y="-317.6" font-family="Helvetica,sans-Serif" font-size="8.00"> m_on_done_func_or_empty</text>
</g>
<!-- Node9 -->
<g id="node9" class="node">
<title>Node9</title>
<g id="a_node9"><a xlink:title=" ">
<polygon fill="white" stroke="#bfbfbf" points="842.5,-214.5 842.5,-231.5 902.5,-231.5 902.5,-214.5 842.5,-214.5"/>
<text text-anchor="middle" x="872.5" y="-221.1" font-family="Helvetica,sans-Serif" font-size="8.00">Error_code</text>
</a>
</g>
</g>
<!-- Node9&#45;&gt;Node1 -->
<g id="edge8" class="edge">
<title>Node9&#45;&gt;Node1</title>
<path fill="none" stroke="#9a32cd" stroke-dasharray="5,2" d="M912.84,-225.34C953.87,-229.23 1018.94,-239.56 1068,-267 1098.06,-283.81 1124.22,-314.86 1138.78,-334.42"/>
<polygon fill="#9a32cd" stroke="#9a32cd" points="912.96,-221.84 902.69,-224.47 912.35,-228.81 912.96,-221.84"/>
<text text-anchor="middle" x="1012" y="-269.6" font-family="Helvetica,sans-Serif" font-size="8.00"> m_target_err_code</text>
</g>
<!-- Node10 -->
<g id="node10" class="node">
<title>Node10</title>
<g id="a_node10"><a xlink:href="classipc_1_1session_1_1Session__server.html" target="_top" xlink:title="To be instantiated typically once in a given process, an object of this type asynchronously listens f...">
<polygon fill="white" stroke="black" points="807,-151 807,-195 938,-195 938,-151 807,-151"/>
<text text-anchor="start" x="815" y="-184.6" font-family="Helvetica,sans-Serif" font-size="8.00">ipc::session::Session</text>
<text text-anchor="start" x="815" y="-175.6" font-family="Helvetica,sans-Serif" font-size="8.00">_server&lt; S_MQ_TYPE_OR</text>
<text text-anchor="start" x="815" y="-166.6" font-family="Helvetica,sans-Serif" font-size="8.00">_NONE, S_TRANSMIT_NATIVE</text>
<text text-anchor="middle" x="872.5" y="-157.6" font-family="Helvetica,sans-Serif" font-size="8.00">_HANDLES, Mdt_payload &gt;</text>
</a>
</g>
</g>
<!-- Node10&#45;&gt;Node1 -->
<g id="edge9" class="edge">
<title>Node10&#45;&gt;Node1</title>
<path fill="none" stroke="#9a32cd" stroke-dasharray="5,2" d="M948.38,-176.71C987.09,-181.81 1033.35,-193.17 1068,-218 1109.37,-247.65 1134.44,-304.95 1145.06,-334.07"/>
<polygon fill="#9a32cd" stroke="#9a32cd" points="948.54,-173.2 938.2,-175.49 947.71,-180.15 948.54,-173.2"/>
<text text-anchor="middle" x="1012" y="-220.6" font-family="Helvetica,sans-Serif" font-size="8.00"> m_async_io</text>
</g>
<!-- Node11 -->
<g id="node11" class="node">
<title>Node11</title>
<g id="a_node11"><a xlink:href="classipc_1_1session_1_1Session__server__impl.html" target="_top" xlink:title=" ">
<polygon fill="white" stroke="black" points="624,-133 624,-213 770,-213 770,-133 624,-133"/>
<text text-anchor="start" x="632" y="-202.6" font-family="Helvetica,sans-Serif" font-size="8.00">ipc::session::Session</text>
<text text-anchor="start" x="632" y="-193.6" font-family="Helvetica,sans-Serif" font-size="8.00">_server_impl&lt; Session</text>
<text text-anchor="start" x="632" y="-184.6" font-family="Helvetica,sans-Serif" font-size="8.00">_server&lt; S_MQ_TYPE_OR</text>
<text text-anchor="start" x="632" y="-175.6" font-family="Helvetica,sans-Serif" font-size="8.00">_NONE, S_TRANSMIT_NATIVE</text>
<text text-anchor="start" x="632" y="-166.6" font-family="Helvetica,sans-Serif" font-size="8.00">_HANDLES, Mdt_payload &gt;,</text>
<text text-anchor="start" x="632" y="-157.6" font-family="Helvetica,sans-Serif" font-size="8.00"> Server_session&lt; S_MQ_TYPE</text>
<text text-anchor="start" x="632" y="-148.6" font-family="Helvetica,sans-Serif" font-size="8.00">_OR_NONE, S_TRANSMIT_NATIVE</text>
<text text-anchor="middle" x="697" y="-139.6" font-family="Helvetica,sans-Serif" font-size="8.00">_HANDLES, Mdt_payload &gt; &gt;</text>
</a>
</g>
</g>
<!-- Node11&#45;&gt;Node10 -->
<g id="edge10" class="edge">
<title>Node11&#45;&gt;Node10</title>
<path fill="none" stroke="#8b1a1a" d="M780.15,-173C789.11,-173 798.14,-173 806.86,-173"/>
<polygon fill="#8b1a1a" stroke="#8b1a1a" points="780.07,-169.5 770.07,-173 780.07,-176.5 780.07,-169.5"/>
</g>
<!-- Node12 -->
<g id="node12" class="node">
<title>Node12</title>
<g id="a_node12"><a xlink:title=" ">
<polygon fill="white" stroke="#bfbfbf" points="366,-298.5 366,-315.5 473,-315.5 473,-298.5 366,-298.5"/>
<text text-anchor="middle" x="419.5" y="-305.1" font-family="Helvetica,sans-Serif" font-size="8.00">flow::log::Log_context</text>
</a>
</g>
</g>
<!-- Node12&#45;&gt;Node11 -->
<g id="edge11" class="edge">
<title>Node12&#45;&gt;Node11</title>
<path fill="none" stroke="midnightblue" d="M483.48,-299.84C520.89,-293.58 568.25,-282.05 606,-261 627.57,-248.97 647.63,-230.42 663.32,-213.44"/>
<polygon fill="midnightblue" stroke="midnightblue" points="482.53,-296.45 473.2,-301.47 483.63,-303.36 482.53,-296.45"/>
</g>
<!-- Node13 -->
<g id="node13" class="node">
<title>Node13</title>
<g id="a_node13"><a xlink:title=" ">
<polygon fill="white" stroke="#bfbfbf" points="370,-262.5 370,-279.5 469,-279.5 469,-262.5 370,-262.5"/>
<text text-anchor="middle" x="419.5" y="-269.1" font-family="Helvetica,sans-Serif" font-size="8.00">boost::noncopyable</text>
</a>
</g>
</g>
<!-- Node13&#45;&gt;Node11 -->
<g id="edge12" class="edge">
<title>Node13&#45;&gt;Node11</title>
<path fill="none" stroke="#8b1a1a" d="M479.53,-265.31C516.88,-260.25 565.57,-250.92 606,-234 619.06,-228.54 632.19,-221.04 644.23,-213.17"/>
<polygon fill="#8b1a1a" stroke="#8b1a1a" points="478.79,-261.88 469.32,-266.63 479.68,-268.82 478.79,-261.88"/>
</g>
<!-- Node14 -->
<g id="node14" class="node">
<title>Node14</title>
<g id="a_node14"><a xlink:href="structipc_1_1session_1_1Server__app.html" target="_top" xlink:title="An App that is used as a server in at least one client&#45;server IPC split.">
<polygon fill="white" stroke="black" points="360.5,-226.5 360.5,-243.5 478.5,-243.5 478.5,-226.5 360.5,-226.5"/>
<text text-anchor="middle" x="419.5" y="-233.1" font-family="Helvetica,sans-Serif" font-size="8.00">ipc::session::Server_app</text>
</a>
</g>
</g>
<!-- Node14&#45;&gt;Node11 -->
<g id="edge13" class="edge">
<title>Node14&#45;&gt;Node11</title>
<path fill="none" stroke="#9a32cd" stroke-dasharray="5,2" d="M483.87,-224.74C519.88,-218.49 565.69,-209.82 606,-200 611.86,-198.57 617.91,-196.99 623.97,-195.33"/>
<polygon fill="#9a32cd" stroke="#9a32cd" points="483.25,-221.3 473.99,-226.44 484.44,-228.19 483.25,-221.3"/>
<text text-anchor="middle" x="553" y="-223.6" font-family="Helvetica,sans-Serif" font-size="8.00"> m_srv_app_ref</text>
</g>
<!-- Node15 -->
<g id="node15" class="node">
<title>Node15</title>
<g id="a_node15"><a xlink:href="structipc_1_1session_1_1App.html" target="_top" xlink:title="A description of an application in this ipc::session inter&#45;process communication universe.">
<polygon fill="white" stroke="red" points="131,-250.5 131,-267.5 219,-267.5 219,-250.5 131,-250.5"/>
<text text-anchor="middle" x="175" y="-257.1" font-family="Helvetica,sans-Serif" font-size="8.00">ipc::session::App</text>
</a>
</g>
</g>
<!-- Node15&#45;&gt;Node14 -->
<g id="edge14" class="edge">
<title>Node15&#45;&gt;Node14</title>
<path fill="none" stroke="midnightblue" d="M229.12,-253.74C267.9,-249.9 320.44,-244.7 360.35,-240.76"/>
<polygon fill="midnightblue" stroke="midnightblue" points="228.68,-250.27 219.07,-254.74 229.37,-257.23 228.68,-250.27"/>
</g>
<!-- Node18 -->
<g id="node16" class="node">
<title>Node18</title>
<g id="a_node16"><a xlink:title=" ">
<polygon fill="white" stroke="#bfbfbf" points="0,-273.5 0,-290.5 35,-290.5 35,-273.5 0,-273.5"/>
<text text-anchor="middle" x="17.5" y="-280.1" font-family="Helvetica,sans-Serif" font-size="8.00">path</text>
</a>
</g>
</g>
<!-- Node18&#45;&gt;Node14 -->
<g id="edge17" class="edge">
<title>Node18&#45;&gt;Node14</title>
<path fill="none" stroke="#9a32cd" stroke-dasharray="5,2" d="M45.16,-287.96C47.8,-288.38 50.45,-288.74 53,-289 77.32,-291.44 83.59,-290.26 108,-289 211.28,-283.67 239.56,-289.4 339,-261 347.42,-258.6 348.78,-256.01 357,-253 366.4,-249.55 376.79,-246.3 386.32,-243.54"/>
<polygon fill="#9a32cd" stroke="#9a32cd" points="45.72,-284.5 35.24,-286.1 44.43,-291.38 45.72,-284.5"/>
<text text-anchor="start" x="132.5" y="-299.6" font-family="Helvetica,sans-Serif" font-size="8.00"> m_kernel_persistent</text>
<text text-anchor="middle" x="175" y="-290.6" font-family="Helvetica,sans-Serif" font-size="8.00">_run_dir_override</text>
</g>
<!-- Node18&#45;&gt;Node15 -->
<g id="edge15" class="edge">
<title>Node18&#45;&gt;Node15</title>
<path fill="none" stroke="#9a32cd" stroke-dasharray="5,2" d="M45.09,-278.07C68.59,-274.59 103.32,-269.45 130.81,-265.39"/>
<polygon fill="#9a32cd" stroke="#9a32cd" points="44.52,-274.61 35.14,-279.54 45.55,-281.54 44.52,-274.61"/>
<text text-anchor="middle" x="80.5" y="-278.6" font-family="Helvetica,sans-Serif" font-size="8.00"> m_exec_path</text>
</g>
<!-- Node21 -->
<g id="node17" class="node">
<title>Node21</title>
<g id="a_node17"><a xlink:title=" ">
<polygon fill="white" stroke="#bfbfbf" points="126,-205 126,-231 224,-231 224,-205 126,-205"/>
<text text-anchor="start" x="134" y="-220.6" font-family="Helvetica,sans-Serif" font-size="8.00">unordered_set&lt; std</text>
<text text-anchor="middle" x="175" y="-211.6" font-family="Helvetica,sans-Serif" font-size="8.00">::string &gt;</text>
</a>
</g>
</g>
<!-- Node21&#45;&gt;Node14 -->
<g id="edge16" class="edge">
<title>Node21&#45;&gt;Node14</title>
<path fill="none" stroke="#9a32cd" stroke-dasharray="5,2" d="M234.39,-221.21C265.47,-223.01 304.33,-225.41 339,-228 345.91,-228.52 353.15,-229.1 360.33,-229.7"/>
<polygon fill="#9a32cd" stroke="#9a32cd" points="234.35,-217.7 224.17,-220.62 233.95,-224.69 234.35,-217.7"/>
<text text-anchor="middle" x="290.5" y="-230.6" font-family="Helvetica,sans-Serif" font-size="8.00"> m_allowed_client_apps</text>
</g>
<!-- Node22 -->
<g id="node18" class="node">
<title>Node22</title>
<g id="a_node18"><a xlink:title=" ">
<polygon fill="white" stroke="#bfbfbf" points="130.5,-168.5 130.5,-185.5 219.5,-185.5 219.5,-168.5 130.5,-168.5"/>
<text text-anchor="middle" x="175" y="-175.1" font-family="Helvetica,sans-Serif" font-size="8.00">Permissions_level</text>
</a>
</g>
</g>
<!-- Node22&#45;&gt;Node14 -->
<g id="edge18" class="edge">
<title>Node22&#45;&gt;Node14</title>
<path fill="none" stroke="#9a32cd" stroke-dasharray="5,2" d="M230.1,-175.72C263.11,-176.97 305.29,-182.31 339,-199 349.14,-204.02 347.27,-211.23 357,-217 363.6,-220.91 371.11,-224.03 378.57,-226.48"/>
<polygon fill="#9a32cd" stroke="#9a32cd" points="229.82,-172.21 219.73,-175.45 229.63,-179.21 229.82,-172.21"/>
<text text-anchor="start" x="247" y="-210.6" font-family="Helvetica,sans-Serif" font-size="8.00"> m_permissions_level</text>
<text text-anchor="middle" x="290.5" y="-201.6" font-family="Helvetica,sans-Serif" font-size="8.00">_for_client_apps</text>
</g>
<!-- Node23 -->
<g id="node19" class="node">
<title>Node23</title>
<g id="a_node19"><a xlink:title=" ">
<polygon fill="white" stroke="#bfbfbf" points="372,-181 372,-207 467,-207 467,-181 372,-181"/>
<text text-anchor="start" x="380" y="-196.6" font-family="Helvetica,sans-Serif" font-size="8.00">Session_server_obj</text>
<text text-anchor="middle" x="419.5" y="-187.6" font-family="Helvetica,sans-Serif" font-size="8.00"> *const</text>
</a>
</g>
</g>
<!-- Node23&#45;&gt;Node11 -->
<g id="edge19" class="edge">
<title>Node23&#45;&gt;Node11</title>
<path fill="none" stroke="#9a32cd" stroke-dasharray="5,2" d="M477.4,-189.66C519.84,-186.43 578.15,-181.98 623.87,-178.5"/>
<polygon fill="#9a32cd" stroke="#9a32cd" points="476.94,-186.19 467.23,-190.44 477.47,-193.17 476.94,-186.19"/>
<text text-anchor="middle" x="553" y="-189.6" font-family="Helvetica,sans-Serif" font-size="8.00"> m_this_session_srv</text>
</g>
<!-- Node24 -->
<g id="node20" class="node">
<title>Node24</title>
<g id="a_node20"><a xlink:title=" ">
<polygon fill="white" stroke="#bfbfbf" points="385,-144.5 385,-161.5 454,-161.5 454,-144.5 385,-144.5"/>
<text text-anchor="middle" x="419.5" y="-151.1" font-family="Helvetica,sans-Serif" font-size="8.00">Master_set &amp;</text>
</a>
</g>
</g>
<!-- Node24&#45;&gt;Node11 -->
<g id="edge20" class="edge">
<title>Node24&#45;&gt;Node11</title>
<path fill="none" stroke="#9a32cd" stroke-dasharray="5,2" d="M464.16,-154.65C501.78,-156.25 557.52,-159 606,-163 611.8,-163.48 617.8,-164.03 623.82,-164.62"/>
<polygon fill="#9a32cd" stroke="#9a32cd" points="464.19,-151.15 454.05,-154.23 463.9,-158.15 464.19,-151.15"/>
<text text-anchor="middle" x="553" y="-165.6" font-family="Helvetica,sans-Serif" font-size="8.00"> m_cli_app_master_set_ref</text>
</g>
<!-- Node25 -->
<g id="node21" class="node">
<title>Node25</title>
<g id="a_node21"><a xlink:title=" ">
<polygon fill="white" stroke="#bfbfbf" points="357,-90.5 357,-125.5 482,-125.5 482,-90.5 357,-90.5"/>
<text text-anchor="start" x="365" y="-115.1" font-family="Helvetica,sans-Serif" font-size="8.00">const Function&lt; Error</text>
<text text-anchor="start" x="365" y="-106.1" font-family="Helvetica,sans-Serif" font-size="8.00">_code(const ipc::session</text>
<text text-anchor="middle" x="419.5" y="-97.1" font-family="Helvetica,sans-Serif" font-size="8.00">::Client_app &amp;client_app)&gt;</text>
</a>
</g>
</g>
<!-- Node25&#45;&gt;Node11 -->
<g id="edge21" class="edge">
<title>Node25&#45;&gt;Node11</title>
<path fill="none" stroke="#9a32cd" stroke-dasharray="5,2" d="M492.39,-119.23C526.98,-125.23 568.9,-133.36 606,-143 611.74,-144.49 617.64,-146.16 623.55,-147.92"/>
<polygon fill="#9a32cd" stroke="#9a32cd" points="492.82,-115.75 482.37,-117.52 491.64,-122.65 492.82,-115.75"/>
<text text-anchor="middle" x="553" y="-145.6" font-family="Helvetica,sans-Serif" font-size="8.00"> m_per_app_setup_func</text>
</g>
<!-- Node26 -->
<g id="node22" class="node">
<title>Node26</title>
<g id="a_node22"><a xlink:title=" ">
<polygon fill="white" stroke="#bfbfbf" points="365,-36.5 365,-71.5 474,-71.5 474,-36.5 365,-36.5"/>
<text text-anchor="start" x="373" y="-61.1" font-family="Helvetica,sans-Serif" font-size="8.00">optional&lt; ipc::session</text>
<text text-anchor="start" x="373" y="-52.1" font-family="Helvetica,sans-Serif" font-size="8.00">::Session_server_impl</text>
<text text-anchor="middle" x="419.5" y="-43.1" font-family="Helvetica,sans-Serif" font-size="8.00">::State &gt;</text>
</a>
</g>
</g>
<!-- Node26&#45;&gt;Node11 -->
<g id="edge22" class="edge">
<title>Node26&#45;&gt;Node11</title>
<path fill="none" stroke="#9a32cd" stroke-dasharray="5,2" d="M484.4,-66.36C521.15,-74.9 567.51,-88.14 606,-107 620.27,-113.99 634.63,-123.27 647.56,-132.66"/>
<polygon fill="#9a32cd" stroke="#9a32cd" points="484.83,-62.87 474.31,-64.08 483.29,-69.7 484.83,-62.87"/>
<text text-anchor="middle" x="553" y="-109.6" font-family="Helvetica,sans-Serif" font-size="8.00"> m_state</text>
</g>
<!-- Node27 -->
<g id="node23" class="node">
<title>Node27</title>
<g id="a_node23"><a xlink:href="classFunction_3_01void_07_08_4.html" target="_top" xlink:title=" ">
<polygon fill="white" stroke="#bfbfbf" points="374,-0.5 374,-17.5 465,-17.5 465,-0.5 374,-0.5"/>
<text text-anchor="middle" x="419.5" y="-7.1" font-family="Helvetica,sans-Serif" font-size="8.00">Function&lt; void()&gt;</text>
</a>
</g>
</g>
<!-- Node27&#45;&gt;Node11 -->
<g id="edge23" class="edge">
<title>Node27&#45;&gt;Node11</title>
<path fill="none" stroke="#9a32cd" stroke-dasharray="5,2" d="M475.53,-13.76C514.59,-19.29 566.85,-31.23 606,-57 634.96,-76.06 658.55,-107.61 674.3,-132.99"/>
<polygon fill="#9a32cd" stroke="#9a32cd" points="475.76,-10.26 465.39,-12.42 474.84,-17.2 475.76,-10.26"/>
<text text-anchor="middle" x="553" y="-59.6" font-family="Helvetica,sans-Serif" font-size="8.00"> m_deinit_func_or_empty</text>
</g>
</g>
</svg>
