<?xml version="1.0" encoding="UTF-8" standalone="no"?>
<!DOCTYPE svg PUBLIC "-//W3C//DTD SVG 1.1//EN"
 "http://www.w3.org/Graphics/SVG/1.1/DTD/svg11.dtd">
<!-- Generated by graphviz version 2.43.0 (0)
 -->
<!-- Title: ipc::transport::Posix_mq_handle::remove_persistent Pages: 1 -->
<svg width="325pt" height="53pt"
 viewBox="0.00 0.00 325.00 53.00" xmlns="http://www.w3.org/2000/svg" xmlns:xlink="http://www.w3.org/1999/xlink">
<g id="graph0" class="graph" transform="scale(1 1) rotate(0) translate(4 49)">
<title>ipc::transport::Posix_mq_handle::remove_persistent</title>
<polygon fill="white" stroke="transparent" points="-4,4 -4,-49 321,-49 321,4 -4,4"/>
<!-- Node1 -->
<g id="node1" class="node">
<title>Node1</title>
<g id="a_node1"><a xlink:title="Implements Persistent_mq_handle API: Removes the named persistent MQ.">
<polygon fill="#bfbfbf" stroke="black" points="0,-0.5 0,-26.5 147,-26.5 147,-0.5 0,-0.5"/>
<text text-anchor="start" x="8" y="-16.1" font-family="Helvetica,sans-Serif" font-size="8.00">ipc::transport::Posix</text>
<text text-anchor="middle" x="73.5" y="-7.1" font-family="Helvetica,sans-Serif" font-size="8.00">_mq_handle::remove_persistent</text>
</a>
</g>
</g>
<!-- Node1&#45;&gt;Node1 -->
<g id="edge2" class="edge">
<title>Node1&#45;&gt;Node1</title>
<path fill="none" stroke="midnightblue" d="M43.72,-26.77C34.7,-35.96 44.62,-45 73.5,-45 91.55,-45 102.19,-41.47 105.43,-36.58"/>
<polygon fill="midnightblue" stroke="midnightblue" points="108.84,-35.79 103.28,-26.77 102.01,-37.29 108.84,-35.79"/>
</g>
<!-- Node2 -->
<g id="node2" class="node">
<title>Node2</title>
<g id="a_node2"><a xlink:href="classipc_1_1transport_1_1Posix__mq__handle.html#a7d62af06a8cea2a821908384ee098125" target="_top" xlink:title="Implements Persistent_mq_handle API: Returns name equal to absolute_name passed to ctor.">
<polygon fill="white" stroke="black" points="183,-0.5 183,-26.5 317,-26.5 317,-0.5 183,-0.5"/>
<text text-anchor="start" x="191" y="-16.1" font-family="Helvetica,sans-Serif" font-size="8.00">ipc::transport::Posix</text>
<text text-anchor="middle" x="250" y="-7.1" font-family="Helvetica,sans-Serif" font-size="8.00">_mq_handle::absolute_name</text>
</a>
</g>
</g>
<!-- Node1&#45;&gt;Node2 -->
<g id="edge1" class="edge">
<title>Node1&#45;&gt;Node2</title>
<path fill="none" stroke="midnightblue" d="M147.24,-13.5C155.62,-13.5 164.18,-13.5 172.6,-13.5"/>
<polygon fill="midnightblue" stroke="midnightblue" points="172.79,-17 182.79,-13.5 172.79,-10 172.79,-17"/>
</g>
</g>
</svg>
