<?xml version="1.0" encoding="UTF-8" standalone="no"?>
<!DOCTYPE svg PUBLIC "-//W3C//DTD SVG 1.1//EN"
 "http://www.w3.org/Graphics/SVG/1.1/DTD/svg11.dtd">
<!-- Generated by graphviz version 2.43.0 (0)
 -->
<!-- Title: ipc::session::sync_io::Client_session_adapter&lt; Session &gt; Pages: 1 -->
<svg width="710pt" height="611pt"
 viewBox="0.00 0.00 710.00 611.00" xmlns="http://www.w3.org/2000/svg" xmlns:xlink="http://www.w3.org/1999/xlink">
<g id="graph0" class="graph" transform="scale(1 1) rotate(0) translate(4 607)">
<title>ipc::session::sync_io::Client_session_adapter&lt; Session &gt;</title>
<polygon fill="white" stroke="transparent" points="-4,4 -4,-607 706,-607 706,4 -4,4"/>
<!-- Node1 -->
<g id="node1" class="node">
<title>Node1</title>
<g id="a_node1"><a xlink:title="sync_io&#45;pattern counterpart to async&#45;I/O&#45;pattern session::Client_session types and all their SHM&#45;awar...">
<polygon fill="#bfbfbf" stroke="black" points="599,-212.5 599,-247.5 702,-247.5 702,-212.5 599,-212.5"/>
<text text-anchor="start" x="607" y="-237.1" font-family="Helvetica,sans-Serif" font-size="8.00">ipc::session::sync</text>
<text text-anchor="start" x="607" y="-228.1" font-family="Helvetica,sans-Serif" font-size="8.00">_io::Client_session</text>
<text text-anchor="middle" x="650.5" y="-219.1" font-family="Helvetica,sans-Serif" font-size="8.00">_adapter&lt; Session &gt;</text>
</a>
</g>
</g>
<!-- Node2 -->
<g id="node2" class="node">
<title>Node2</title>
<g id="a_node2"><a xlink:href="classipc_1_1session_1_1sync__io_1_1Session__adapter.html" target="_top" xlink:title="Internal&#45;use workhorse containing common elements of Client_session_adapter and Server_session_adapte...">
<polygon fill="white" stroke="black" points="455,-281.5 455,-316.5 557,-316.5 557,-281.5 455,-281.5"/>
<text text-anchor="start" x="463" y="-306.1" font-family="Helvetica,sans-Serif" font-size="8.00">ipc::session::sync</text>
<text text-anchor="start" x="463" y="-297.1" font-family="Helvetica,sans-Serif" font-size="8.00">_io::Session_adapter</text>
<text text-anchor="middle" x="506" y="-288.1" font-family="Helvetica,sans-Serif" font-size="8.00">&lt; Session &gt;</text>
</a>
</g>
</g>
<!-- Node2&#45;&gt;Node1 -->
<g id="edge1" class="edge">
<title>Node2&#45;&gt;Node1</title>
<path fill="none" stroke="#8b1a1a" d="M552.41,-277.01C572.06,-267.5 594.74,-256.52 613.24,-247.56"/>
<polygon fill="#8b1a1a" stroke="#8b1a1a" points="550.8,-273.9 543.33,-281.41 553.85,-280.2 550.8,-273.9"/>
</g>
<!-- Node3 -->
<g id="node3" class="node">
<title>Node3</title>
<g id="a_node3"><a xlink:title=" ">
<polygon fill="white" stroke="#bfbfbf" points="203,-549.5 203,-566.5 270,-566.5 270,-549.5 203,-549.5"/>
<text text-anchor="middle" x="236.5" y="-556.1" font-family="Helvetica,sans-Serif" font-size="8.00">Task_engine</text>
</a>
</g>
</g>
<!-- Node3&#45;&gt;Node1 -->
<g id="edge16" class="edge">
<title>Node3&#45;&gt;Node1</title>
<path fill="none" stroke="#9a32cd" stroke-dasharray="5,2" d="M280.08,-568.6C350.43,-583.28 490.28,-599.91 562,-522 636.91,-440.62 647.83,-297.5 649.31,-247.68"/>
<polygon fill="#9a32cd" stroke="#9a32cd" points="280.74,-565.17 270.22,-566.46 279.25,-572.01 280.74,-565.17"/>
<text text-anchor="start" x="456.5" y="-596.6" font-family="Helvetica,sans-Serif" font-size="8.00"> m_ev_hndl_task_engine</text>
<text text-anchor="middle" x="506" y="-587.6" font-family="Helvetica,sans-Serif" font-size="8.00">_unused</text>
<text text-anchor="middle" x="506" y="-578.6" font-family="Helvetica,sans-Serif" font-size="8.00">m_nb_task_engine</text>
</g>
<!-- Node3&#45;&gt;Node2 -->
<g id="edge2" class="edge">
<title>Node3&#45;&gt;Node2</title>
<path fill="none" stroke="#9a32cd" stroke-dasharray="5,2" d="M280.39,-551.37C330.95,-542.71 410.77,-526.14 432,-505 453.24,-483.85 440.54,-468.44 450,-440 465.01,-394.87 486.29,-343.07 497.47,-316.59"/>
<polygon fill="#9a32cd" stroke="#9a32cd" points="279.68,-547.94 270.39,-553.04 280.83,-554.84 279.68,-547.94"/>
<text text-anchor="start" x="328" y="-562.6" font-family="Helvetica,sans-Serif" font-size="8.00"> m_ev_hndl_task_engine</text>
<text text-anchor="middle" x="377.5" y="-553.6" font-family="Helvetica,sans-Serif" font-size="8.00">_unused</text>
<text text-anchor="middle" x="377.5" y="-544.6" font-family="Helvetica,sans-Serif" font-size="8.00">m_nb_task_engine</text>
</g>
<!-- Node4 -->
<g id="node4" class="node">
<title>Node4</title>
<g id="a_node4"><a xlink:title=" ">
<polygon fill="white" stroke="#bfbfbf" points="199,-453.5 199,-470.5 274,-470.5 274,-453.5 199,-453.5"/>
<text text-anchor="middle" x="236.5" y="-460.1" font-family="Helvetica,sans-Serif" font-size="8.00">readable_pipe</text>
</a>
</g>
</g>
<!-- Node4&#45;&gt;Node1 -->
<g id="edge17" class="edge">
<title>Node4&#45;&gt;Node1</title>
<path fill="none" stroke="#9a32cd" stroke-dasharray="5,2" d="M284.55,-467.18C325.3,-469.7 384.93,-468.61 432,-448 532.15,-404.14 611.09,-291.24 638.79,-247.59"/>
<polygon fill="#9a32cd" stroke="#9a32cd" points="284.59,-463.67 274.36,-466.44 284.08,-470.65 284.59,-463.67"/>
<text text-anchor="middle" x="506" y="-440.6" font-family="Helvetica,sans-Serif" font-size="8.00"> m_ready_reader_conn</text>
</g>
<!-- Node4&#45;&gt;Node2 -->
<g id="edge3" class="edge">
<title>Node4&#45;&gt;Node2</title>
<path fill="none" stroke="#9a32cd" stroke-dasharray="5,2" d="M283.97,-452.25C291.19,-449.99 298.43,-447.26 305,-444 314.08,-439.49 313.81,-434.27 323,-430 367.91,-409.16 390.92,-434.64 432,-407 465.42,-384.51 487.66,-341.08 498.11,-316.71"/>
<polygon fill="#9a32cd" stroke="#9a32cd" points="282.85,-448.93 274.2,-455.05 284.78,-455.66 282.85,-448.93"/>
<text text-anchor="middle" x="377.5" y="-441.6" font-family="Helvetica,sans-Serif" font-size="8.00"> m_ready_reader_chan</text>
<text text-anchor="middle" x="377.5" y="-432.6" font-family="Helvetica,sans-Serif" font-size="8.00">m_ready_reader_err</text>
</g>
<!-- Node5 -->
<g id="node5" class="node">
<title>Node5</title>
<g id="a_node5"><a xlink:title=" ">
<polygon fill="white" stroke="#bfbfbf" points="201,-154.5 201,-171.5 272,-171.5 272,-154.5 201,-154.5"/>
<text text-anchor="middle" x="236.5" y="-161.1" font-family="Helvetica,sans-Serif" font-size="8.00">writable_pipe</text>
</a>
</g>
</g>
<!-- Node5&#45;&gt;Node1 -->
<g id="edge18" class="edge">
<title>Node5&#45;&gt;Node1</title>
<path fill="none" stroke="#9a32cd" stroke-dasharray="5,2" d="M282.43,-169.02C321.9,-174.42 380.83,-182.73 432,-191 489.19,-200.24 554.58,-212.15 598.61,-220.36"/>
<polygon fill="#9a32cd" stroke="#9a32cd" points="282.72,-165.53 272.34,-167.65 281.77,-172.46 282.72,-165.53"/>
<text text-anchor="middle" x="506" y="-215.6" font-family="Helvetica,sans-Serif" font-size="8.00"> m_ready_writer_conn</text>
</g>
<!-- Node5&#45;&gt;Node2 -->
<g id="edge4" class="edge">
<title>Node5&#45;&gt;Node2</title>
<path fill="none" stroke="#9a32cd" stroke-dasharray="5,2" d="M279.04,-174.36C287.65,-176.81 296.64,-179.43 305,-182 313.06,-184.48 314.82,-185.94 323,-188 370.68,-200.03 389.73,-181.87 432,-207 461.97,-224.82 484.47,-259.88 496.11,-281.2"/>
<polygon fill="#9a32cd" stroke="#9a32cd" points="279.76,-170.92 269.18,-171.58 277.86,-177.66 279.76,-170.92"/>
<text text-anchor="middle" x="377.5" y="-218.6" font-family="Helvetica,sans-Serif" font-size="8.00"> m_ready_writer_chan</text>
<text text-anchor="middle" x="377.5" y="-209.6" font-family="Helvetica,sans-Serif" font-size="8.00">m_ready_writer_err</text>
</g>
<!-- Node6 -->
<g id="node6" class="node">
<title>Node6</title>
<g id="a_node6"><a xlink:href="classipc_1_1util_1_1sync__io_1_1Asio__waitable__native__handle.html" target="_top" xlink:title="Useful if using the sync_io pattern within a user event loop built on boost.asio (optionally with flo...">
<polygon fill="white" stroke="black" points="182.5,-97.5 182.5,-132.5 290.5,-132.5 290.5,-97.5 182.5,-97.5"/>
<text text-anchor="start" x="190.5" y="-122.1" font-family="Helvetica,sans-Serif" font-size="8.00">ipc::util::sync_io</text>
<text text-anchor="start" x="190.5" y="-113.1" font-family="Helvetica,sans-Serif" font-size="8.00">::Asio_waitable_native</text>
<text text-anchor="middle" x="236.5" y="-104.1" font-family="Helvetica,sans-Serif" font-size="8.00">_handle</text>
</a>
</g>
</g>
<!-- Node6&#45;&gt;Node1 -->
<g id="edge19" class="edge">
<title>Node6&#45;&gt;Node1</title>
<path fill="none" stroke="#9a32cd" stroke-dasharray="5,2" d="M300.62,-112.73C339.06,-112.7 388.89,-115.1 432,-125 493.14,-139.05 505.78,-152.17 562,-180 582.07,-189.94 603.95,-202.44 620.8,-212.45"/>
<polygon fill="#9a32cd" stroke="#9a32cd" points="300.58,-109.23 290.6,-112.79 300.63,-116.23 300.58,-109.23"/>
<text text-anchor="middle" x="506" y="-182.6" font-family="Helvetica,sans-Serif" font-size="8.00"> m_ev_wait_hndl_conn</text>
</g>
<!-- Node6&#45;&gt;Node2 -->
<g id="edge5" class="edge">
<title>Node6&#45;&gt;Node2</title>
<path fill="none" stroke="#9a32cd" stroke-dasharray="5,2" d="M300.99,-118.86C342.04,-124.23 394.58,-136.8 432,-166 442.12,-173.9 479.18,-246.93 496.27,-281.29"/>
<polygon fill="#9a32cd" stroke="#9a32cd" points="301.17,-115.36 290.82,-117.65 300.34,-122.31 301.17,-115.36"/>
<text text-anchor="middle" x="377.5" y="-177.6" font-family="Helvetica,sans-Serif" font-size="8.00"> m_ev_wait_hndl_chan</text>
<text text-anchor="middle" x="377.5" y="-168.6" font-family="Helvetica,sans-Serif" font-size="8.00">m_ev_wait_hndl_err</text>
</g>
<!-- Node7 -->
<g id="node7" class="node">
<title>Node7</title>
<g id="a_node7"><a xlink:title=" ">
<polygon fill="white" stroke="#bfbfbf" points="0,-102 0,-128 91,-128 91,-102 0,-102"/>
<text text-anchor="start" x="8" y="-117.6" font-family="Helvetica,sans-Serif" font-size="8.00">boost::asio::posix</text>
<text text-anchor="middle" x="45.5" y="-108.6" font-family="Helvetica,sans-Serif" font-size="8.00">::descriptor</text>
</a>
</g>
</g>
<!-- Node7&#45;&gt;Node6 -->
<g id="edge6" class="edge">
<title>Node7&#45;&gt;Node6</title>
<path fill="none" stroke="darkgreen" d="M101.52,-115C126.97,-115 157.08,-115 182.3,-115"/>
<polygon fill="darkgreen" stroke="darkgreen" points="101.29,-111.5 91.29,-115 101.29,-118.5 101.29,-111.5"/>
</g>
<!-- Node8 -->
<g id="node8" class="node">
<title>Node8</title>
<g id="a_node8"><a xlink:title=" ">
<polygon fill="white" stroke="#bfbfbf" points="175,-236 175,-298 298,-298 298,-236 175,-236"/>
<text text-anchor="start" x="183" y="-287.6" font-family="Helvetica,sans-Serif" font-size="8.00">Function&lt; void(Asio</text>
<text text-anchor="start" x="183" y="-278.6" font-family="Helvetica,sans-Serif" font-size="8.00">_waitable_native_handle</text>
<text text-anchor="start" x="183" y="-269.6" font-family="Helvetica,sans-Serif" font-size="8.00"> *hndl_of_interest, bool</text>
<text text-anchor="start" x="183" y="-260.6" font-family="Helvetica,sans-Serif" font-size="8.00"> ev_of_interest_snd_else</text>
<text text-anchor="start" x="183" y="-251.6" font-family="Helvetica,sans-Serif" font-size="8.00">_rcv, Task_ptr &amp;&amp;on_active</text>
<text text-anchor="middle" x="236.5" y="-242.6" font-family="Helvetica,sans-Serif" font-size="8.00">_ev_func)&gt;</text>
</a>
</g>
</g>
<!-- Node8&#45;&gt;Node2 -->
<g id="edge7" class="edge">
<title>Node8&#45;&gt;Node2</title>
<path fill="none" stroke="#9a32cd" stroke-dasharray="5,2" d="M308.14,-275.45C354.3,-280.97 413.48,-288.05 454.85,-293"/>
<polygon fill="#9a32cd" stroke="#9a32cd" points="308.54,-271.97 298.2,-274.26 307.71,-278.92 308.54,-271.97"/>
<text text-anchor="middle" x="377.5" y="-291.6" font-family="Helvetica,sans-Serif" font-size="8.00"> m_ev_wait_func</text>
</g>
<!-- Node9 -->
<g id="node9" class="node">
<title>Node9</title>
<g id="a_node9"><a xlink:title=" ">
<polygon fill="white" stroke="#bfbfbf" points="201,-504.5 201,-521.5 272,-521.5 272,-504.5 201,-504.5"/>
<text text-anchor="middle" x="236.5" y="-511.1" font-family="Helvetica,sans-Serif" font-size="8.00">Task_asio_err</text>
</a>
</g>
</g>
<!-- Node9&#45;&gt;Node1 -->
<g id="edge20" class="edge">
<title>Node9&#45;&gt;Node1</title>
<path fill="none" stroke="#9a32cd" stroke-dasharray="5,2" d="M282.45,-518.9C352.66,-525.35 487.98,-526.27 562,-451 620.3,-391.71 641.03,-288.84 647.22,-247.72"/>
<polygon fill="#9a32cd" stroke="#9a32cd" points="282.46,-515.38 272.17,-517.87 281.77,-522.35 282.46,-515.38"/>
<text text-anchor="middle" x="506" y="-511.6" font-family="Helvetica,sans-Serif" font-size="8.00"> m_on_conn_func_or_empty</text>
</g>
<!-- Node9&#45;&gt;Node2 -->
<g id="edge8" class="edge">
<title>Node9&#45;&gt;Node2</title>
<path fill="none" stroke="#9a32cd" stroke-dasharray="5,2" d="M282.33,-503.32C332.44,-491.76 409.5,-471.53 432,-452 474.34,-415.25 494.09,-348.47 501.42,-316.71"/>
<polygon fill="#9a32cd" stroke="#9a32cd" points="281.36,-499.95 272.39,-505.58 282.92,-506.78 281.36,-499.95"/>
<text text-anchor="middle" x="377.5" y="-494.6" font-family="Helvetica,sans-Serif" font-size="8.00"> m_on_err_func</text>
</g>
<!-- Node10 -->
<g id="node10" class="node">
<title>Node10</title>
<g id="a_node10"><a xlink:title=" ">
<polygon fill="white" stroke="#bfbfbf" points="168,-408 168,-434 305,-434 305,-408 168,-408"/>
<text text-anchor="start" x="176" y="-423.6" font-family="Helvetica,sans-Serif" font-size="8.00">Function&lt; void(Channel</text>
<text text-anchor="middle" x="236.5" y="-414.6" font-family="Helvetica,sans-Serif" font-size="8.00">_obj &amp;&amp;, Mdt_reader_ptr &amp;&amp;)&gt;</text>
</a>
</g>
</g>
<!-- Node10&#45;&gt;Node2 -->
<g id="edge9" class="edge">
<title>Node10&#45;&gt;Node2</title>
<path fill="none" stroke="#9a32cd" stroke-dasharray="5,2" d="M288.36,-404.5C294.02,-402.42 299.66,-400.23 305,-398 313.25,-394.55 314.56,-391.95 323,-389 369.75,-372.68 387.98,-388.65 432,-366 455.56,-353.88 477.19,-332.09 490.69,-316.66"/>
<polygon fill="#9a32cd" stroke="#9a32cd" points="287.12,-401.23 278.88,-407.89 289.48,-407.82 287.12,-401.23"/>
<text text-anchor="start" x="330" y="-400.6" font-family="Helvetica,sans-Serif" font-size="8.00"> m_on_channel_func_or</text>
<text text-anchor="middle" x="377.5" y="-391.6" font-family="Helvetica,sans-Serif" font-size="8.00">_empty</text>
</g>
<!-- Node11 -->
<g id="node11" class="node">
<title>Node11</title>
<g id="a_node11"><a xlink:title=" ">
<polygon fill="white" stroke="#bfbfbf" points="206.5,-52.5 206.5,-69.5 266.5,-69.5 266.5,-52.5 206.5,-52.5"/>
<text text-anchor="middle" x="236.5" y="-59.1" font-family="Helvetica,sans-Serif" font-size="8.00">Error_code</text>
</a>
</g>
</g>
<!-- Node11&#45;&gt;Node1 -->
<g id="edge21" class="edge">
<title>Node11&#45;&gt;Node1</title>
<path fill="none" stroke="#9a32cd" stroke-dasharray="5,2" d="M277.09,-57.27C342.82,-53.2 475.76,-54.2 562,-117 597.7,-143 626.06,-187.47 640.02,-212.16"/>
<polygon fill="#9a32cd" stroke="#9a32cd" points="276.49,-53.8 266.76,-57.99 276.97,-60.79 276.49,-53.8"/>
<text text-anchor="middle" x="506" y="-119.6" font-family="Helvetica,sans-Serif" font-size="8.00"> m_target_err_code_conn</text>
</g>
<!-- Node11&#45;&gt;Node2 -->
<g id="edge10" class="edge">
<title>Node11&#45;&gt;Node2</title>
<path fill="none" stroke="#9a32cd" stroke-dasharray="5,2" d="M276.76,-66C327.16,-73.21 410.67,-88.12 432,-110 457.44,-136.1 437.7,-155.69 450,-190 462.09,-223.72 482.19,-260.42 494.45,-281.47"/>
<polygon fill="#9a32cd" stroke="#9a32cd" points="276.93,-62.49 266.54,-64.57 275.96,-69.42 276.93,-62.49"/>
<text text-anchor="middle" x="377.5" y="-112.6" font-family="Helvetica,sans-Serif" font-size="8.00"> m_target_err_code_err</text>
</g>
<!-- Node12 -->
<g id="node12" class="node">
<title>Node12</title>
<g id="a_node12"><a xlink:title=" ">
<polygon fill="white" stroke="black" points="180.5,-353.5 180.5,-388.5 292.5,-388.5 292.5,-353.5 180.5,-353.5"/>
<text text-anchor="start" x="188.5" y="-378.1" font-family="Helvetica,sans-Serif" font-size="8.00">std::queue&lt; typename</text>
<text text-anchor="start" x="188.5" y="-369.1" font-family="Helvetica,sans-Serif" font-size="8.00"> Channel_open_result</text>
<text text-anchor="middle" x="236.5" y="-360.1" font-family="Helvetica,sans-Serif" font-size="8.00">::Ptr &gt;</text>
</a>
</g>
</g>
<!-- Node12&#45;&gt;Node2 -->
<g id="edge11" class="edge">
<title>Node12&#45;&gt;Node2</title>
<path fill="none" stroke="#9a32cd" stroke-dasharray="5,2" d="M302.72,-360.45C349.56,-352.53 408.42,-341.75 432,-334 445.89,-329.44 460.54,-322.8 473.04,-316.54"/>
<polygon fill="#9a32cd" stroke="#9a32cd" points="301.9,-357.04 292.62,-362.15 303.06,-363.95 301.9,-357.04"/>
<text text-anchor="middle" x="377.5" y="-358.6" font-family="Helvetica,sans-Serif" font-size="8.00"> m_target_channel_open_q</text>
</g>
<!-- Node13 -->
<g id="node13" class="node">
<title>Node13</title>
<g id="a_node13"><a xlink:title=" ">
<polygon fill="white" stroke="#bfbfbf" points="31,-362.5 31,-379.5 60,-379.5 60,-362.5 31,-362.5"/>
<text text-anchor="middle" x="45.5" y="-369.1" font-family="Helvetica,sans-Serif" font-size="8.00">Ptr</text>
</a>
</g>
</g>
<!-- Node13&#45;&gt;Node12 -->
<g id="edge12" class="edge">
<title>Node13&#45;&gt;Node12</title>
<path fill="none" stroke="#9a32cd" stroke-dasharray="5,2" d="M70.31,-371C97.76,-371 143.78,-371 180.29,-371"/>
<polygon fill="#9a32cd" stroke="#9a32cd" points="70.09,-367.5 60.09,-371 70.09,-374.5 70.09,-367.5"/>
<text text-anchor="middle" x="129.5" y="-373.6" font-family="Helvetica,sans-Serif" font-size="8.00"> elements</text>
</g>
<!-- Node14 -->
<g id="node14" class="node">
<title>Node14</title>
<g id="a_node14"><a xlink:title=" ">
<polygon fill="white" stroke="#bfbfbf" points="186,-317.5 186,-334.5 287,-334.5 287,-317.5 186,-317.5"/>
<text text-anchor="middle" x="236.5" y="-324.1" font-family="Helvetica,sans-Serif" font-size="8.00">Mutex_non_recursive</text>
</a>
</g>
</g>
<!-- Node14&#45;&gt;Node2 -->
<g id="edge13" class="edge">
<title>Node14&#45;&gt;Node2</title>
<path fill="none" stroke="#9a32cd" stroke-dasharray="5,2" d="M297.25,-318.83C305.88,-317.85 314.67,-316.88 323,-316 367.5,-311.32 418.19,-306.64 454.76,-303.38"/>
<polygon fill="#9a32cd" stroke="#9a32cd" points="296.74,-315.37 287.21,-319.99 297.55,-322.32 296.74,-315.37"/>
<text text-anchor="start" x="327.5" y="-327.6" font-family="Helvetica,sans-Serif" font-size="8.00"> m_target_channel_open</text>
<text text-anchor="middle" x="377.5" y="-318.6" font-family="Helvetica,sans-Serif" font-size="8.00">_q_mutex</text>
</g>
<!-- Node15 -->
<g id="node15" class="node">
<title>Node15</title>
<g id="a_node15"><a xlink:title=" ">
<polygon fill="white" stroke="#bfbfbf" points="182,-191 182,-217 291,-217 291,-191 182,-191"/>
<text text-anchor="start" x="190" y="-206.6" font-family="Helvetica,sans-Serif" font-size="8.00">optional&lt; ipc::session</text>
<text text-anchor="middle" x="236.5" y="-197.6" font-family="Helvetica,sans-Serif" font-size="8.00">::Session &gt;</text>
</a>
</g>
</g>
<!-- Node15&#45;&gt;Node2 -->
<g id="edge14" class="edge">
<title>Node15&#45;&gt;Node2</title>
<path fill="none" stroke="#9a32cd" stroke-dasharray="5,2" d="M292.25,-219.9C340.32,-234.05 406.45,-254 432,-264 444.96,-269.07 458.81,-275.46 470.93,-281.38"/>
<polygon fill="#9a32cd" stroke="#9a32cd" points="293.17,-216.53 282.59,-217.07 291.2,-223.24 293.17,-216.53"/>
<text text-anchor="middle" x="377.5" y="-266.6" font-family="Helvetica,sans-Serif" font-size="8.00"> m_async_io</text>
</g>
<!-- Node16 -->
<g id="node16" class="node">
<title>Node16</title>
<g id="a_node16"><a xlink:title=" ">
<polygon fill="white" stroke="#bfbfbf" points="456.5,-0.5 456.5,-17.5 555.5,-17.5 555.5,-0.5 456.5,-0.5"/>
<text text-anchor="middle" x="506" y="-7.1" font-family="Helvetica,sans-Serif" font-size="8.00">boost::noncopyable</text>
</a>
</g>
</g>
<!-- Node16&#45;&gt;Node1 -->
<g id="edge15" class="edge">
<title>Node16&#45;&gt;Node1</title>
<path fill="none" stroke="#8b1a1a" d="M552.81,-21.28C563.13,-25.8 573.29,-31.88 581,-40 628.55,-90.11 643.48,-175.61 647.84,-212.36"/>
<polygon fill="#8b1a1a" stroke="#8b1a1a" points="553.95,-17.97 543.36,-17.56 551.38,-24.48 553.95,-17.97"/>
</g>
</g>
</svg>
