<?xml version="1.0" encoding="UTF-8" standalone="no"?>
<!DOCTYPE svg PUBLIC "-//W3C//DTD SVG 1.1//EN"
 "http://www.w3.org/Graphics/SVG/1.1/DTD/svg11.dtd">
<!-- Generated by graphviz version 2.43.0 (0)
 -->
<!-- Title: ipc::transport::Posix_mq_handle::timed_wait_sendable Pages: 1 -->
<svg width="418pt" height="58pt"
 viewBox="0.00 0.00 418.00 57.50" xmlns="http://www.w3.org/2000/svg" xmlns:xlink="http://www.w3.org/1999/xlink">
<g id="graph0" class="graph" transform="scale(1 1) rotate(0) translate(4 53.5)">
<title>ipc::transport::Posix_mq_handle::timed_wait_sendable</title>
<polygon fill="white" stroke="transparent" points="-4,4 -4,-53.5 414,-53.5 414,4 -4,4"/>
<!-- Node1 -->
<g id="node1" class="node">
<title>Node1</title>
<g id="a_node1"><a xlink:title="Implements Persistent_mq_handle API: Like timed_send() but without the actual pushing of a message.">
<polygon fill="#bfbfbf" stroke="black" points="0,-0.5 0,-35.5 116,-35.5 116,-0.5 0,-0.5"/>
<text text-anchor="start" x="8" y="-25.1" font-family="Helvetica,sans-Serif" font-size="8.00">ipc::transport::Posix</text>
<text text-anchor="start" x="8" y="-16.1" font-family="Helvetica,sans-Serif" font-size="8.00">_mq_handle::timed_wait</text>
<text text-anchor="middle" x="58" y="-7.1" font-family="Helvetica,sans-Serif" font-size="8.00">_sendable</text>
</a>
</g>
</g>
<!-- Node2 -->
<g id="node2" class="node">
<title>Node2</title>
<g id="a_node2"><a xlink:href="classipc_1_1transport_1_1Posix__mq__handle.html#a64e44dd9a0e2ba1f870a231ffcf02fb9" target="_top" xlink:title="Impl body for *_sendable() and *_receivable().">
<polygon fill="white" stroke="black" points="152,-5 152,-31 262,-31 262,-5 152,-5"/>
<text text-anchor="start" x="160" y="-20.6" font-family="Helvetica,sans-Serif" font-size="8.00">ipc::transport::Posix</text>
<text text-anchor="middle" x="207" y="-11.6" font-family="Helvetica,sans-Serif" font-size="8.00">_mq_handle::wait_impl</text>
</a>
</g>
</g>
<!-- Node1&#45;&gt;Node2 -->
<g id="edge1" class="edge">
<title>Node1&#45;&gt;Node2</title>
<path fill="none" stroke="midnightblue" d="M116.25,-18C124.51,-18 133.05,-18 141.43,-18"/>
<polygon fill="midnightblue" stroke="midnightblue" points="141.55,-21.5 151.55,-18 141.55,-14.5 141.55,-21.5"/>
</g>
<!-- Node2&#45;&gt;Node2 -->
<g id="edge3" class="edge">
<title>Node2&#45;&gt;Node2</title>
<path fill="none" stroke="midnightblue" d="M182.3,-31.27C174.81,-40.46 183.05,-49.5 207,-49.5 221.6,-49.5 230.36,-46.14 233.28,-41.44"/>
<polygon fill="midnightblue" stroke="midnightblue" points="236.69,-40.62 231.7,-31.27 229.77,-41.69 236.69,-40.62"/>
</g>
<!-- Node3 -->
<g id="node3" class="node">
<title>Node3</title>
<g id="a_node3"><a xlink:href="structipc_1_1util_1_1Native__handle.html#a11bd62ce0a7bef4bdfe666201c26d4dc" target="_top" xlink:title="Returns true if and only if m_native_handle equals S_NULL_HANDLE.">
<polygon fill="white" stroke="black" points="298,-5 298,-31 410,-31 410,-5 298,-5"/>
<text text-anchor="start" x="306" y="-20.6" font-family="Helvetica,sans-Serif" font-size="8.00">ipc::util::Native_handle</text>
<text text-anchor="middle" x="354" y="-11.6" font-family="Helvetica,sans-Serif" font-size="8.00">::null</text>
</a>
</g>
</g>
<!-- Node2&#45;&gt;Node3 -->
<g id="edge2" class="edge">
<title>Node2&#45;&gt;Node3</title>
<path fill="none" stroke="midnightblue" d="M262.41,-18C270.63,-18 279.19,-18 287.62,-18"/>
<polygon fill="midnightblue" stroke="midnightblue" points="287.81,-21.5 297.81,-18 287.81,-14.5 287.81,-21.5"/>
</g>
</g>
</svg>
