<?xml version="1.0" encoding="UTF-8" standalone="no"?>
<!DOCTYPE svg PUBLIC "-//W3C//DTD SVG 1.1//EN"
 "http://www.w3.org/Graphics/SVG/1.1/DTD/svg11.dtd">
<!-- Generated by graphviz version 2.43.0 (0)
 -->
<!-- Title: ipc::transport::struc::sync_io::Channel&lt; Channel_obj, Message_body, Struct_builder_config, Struct_reader_config &gt; Pages: 1 -->
<svg width="738pt" height="944pt"
 viewBox="0.00 0.00 738.00 943.97" xmlns="http://www.w3.org/2000/svg" xmlns:xlink="http://www.w3.org/1999/xlink">
<g id="graph0" class="graph" transform="scale(1 1) rotate(0) translate(4 939.97)">
<title>ipc::transport::struc::sync_io::Channel&lt; Channel_obj, Message_body, Struct_builder_config, Struct_reader_config &gt;</title>
<polygon fill="white" stroke="transparent" points="-4,4 -4,-939.97 734,-939.97 734,4 -4,4"/>
<!-- Node1 -->
<g id="node1" class="node">
<title>Node1</title>
<g id="a_node1"><a xlink:title="sync_io&#45;pattern counterpart to async&#45;I/O&#45;pattern transport::struc::Channel.">
<polygon fill="#bfbfbf" stroke="black" points="593,-422.47 593,-475.47 730,-475.47 730,-422.47 593,-422.47"/>
<text text-anchor="start" x="601" y="-465.07" font-family="Helvetica,sans-Serif" font-size="8.00">ipc::transport::struc</text>
<text text-anchor="start" x="601" y="-456.07" font-family="Helvetica,sans-Serif" font-size="8.00">::sync_io::Channel&lt; Channel</text>
<text text-anchor="start" x="601" y="-447.07" font-family="Helvetica,sans-Serif" font-size="8.00">_obj, Message_body, Struct</text>
<text text-anchor="start" x="601" y="-438.07" font-family="Helvetica,sans-Serif" font-size="8.00">_builder_config, Struct_reader</text>
<text text-anchor="middle" x="661.5" y="-429.07" font-family="Helvetica,sans-Serif" font-size="8.00">_config &gt;</text>
</a>
</g>
</g>
<!-- Node2 -->
<g id="node2" class="node">
<title>Node2</title>
<g id="a_node2"><a xlink:href="classipc_1_1transport_1_1struc_1_1Channel__base.html" target="_top" xlink:title="Channel base that contains non&#45;parameterized public items such as tag types and constants.">
<polygon fill="white" stroke="black" points="307,-850.97 307,-876.97 405,-876.97 405,-850.97 307,-850.97"/>
<text text-anchor="start" x="315" y="-866.57" font-family="Helvetica,sans-Serif" font-size="8.00">ipc::transport::struc</text>
<text text-anchor="middle" x="356" y="-857.57" font-family="Helvetica,sans-Serif" font-size="8.00">::Channel_base</text>
</a>
</g>
</g>
<!-- Node2&#45;&gt;Node1 -->
<g id="edge1" class="edge">
<title>Node2&#45;&gt;Node1</title>
<path fill="none" stroke="midnightblue" d="M415.32,-872.37C464.18,-875.92 532.56,-872.23 575,-832.97 627.96,-783.98 651.74,-554.36 658.43,-475.58"/>
<polygon fill="midnightblue" stroke="midnightblue" points="415.46,-868.87 405.2,-871.51 414.87,-875.84 415.46,-868.87"/>
</g>
<!-- Node3 -->
<g id="node3" class="node">
<title>Node3</title>
<g id="a_node3"><a xlink:href="structipc_1_1transport_1_1struc_1_1Channel__base_1_1Serialize__via__heap.html" target="_top" xlink:title="Tag type for ctor selection: Backing memory for serialization comes from fixed&#45;size segment allocatio...">
<polygon fill="white" stroke="black" points="0,-900.47 0,-935.47 122,-935.47 122,-900.47 0,-900.47"/>
<text text-anchor="start" x="8" y="-925.07" font-family="Helvetica,sans-Serif" font-size="8.00">ipc::transport::struc</text>
<text text-anchor="start" x="8" y="-916.07" font-family="Helvetica,sans-Serif" font-size="8.00">::Channel_base::Serialize</text>
<text text-anchor="middle" x="61" y="-907.07" font-family="Helvetica,sans-Serif" font-size="8.00">_via_heap</text>
</a>
</g>
</g>
<!-- Node3&#45;&gt;Node2 -->
<g id="edge2" class="edge">
<title>Node3&#45;&gt;Node2</title>
<path fill="none" stroke="#9a32cd" stroke-dasharray="5,2" d="M132.2,-905.03C186.17,-895.09 259.31,-881.61 306.82,-872.85"/>
<polygon fill="#9a32cd" stroke="#9a32cd" points="131.55,-901.59 122.35,-906.85 132.82,-908.48 131.55,-901.59"/>
<text text-anchor="middle" x="205" y="-905.57" font-family="Helvetica,sans-Serif" font-size="8.00"> S_SERIALIZE_VIA_HEAP</text>
</g>
<!-- Node4 -->
<g id="node4" class="node">
<title>Node4</title>
<g id="a_node4"><a xlink:href="structipc_1_1transport_1_1struc_1_1Channel__base_1_1Serialize__via__session__shm.html" target="_top" xlink:title="Tag type for ctor selection: Backing RAM for serialization comes from a given session::Session&#39;s SHM ...">
<polygon fill="white" stroke="black" points="0,-846.47 0,-881.47 122,-881.47 122,-846.47 0,-846.47"/>
<text text-anchor="start" x="8" y="-871.07" font-family="Helvetica,sans-Serif" font-size="8.00">ipc::transport::struc</text>
<text text-anchor="start" x="8" y="-862.07" font-family="Helvetica,sans-Serif" font-size="8.00">::Channel_base::Serialize</text>
<text text-anchor="middle" x="61" y="-853.07" font-family="Helvetica,sans-Serif" font-size="8.00">_via_session_shm</text>
</a>
</g>
</g>
<!-- Node4&#45;&gt;Node2 -->
<g id="edge3" class="edge">
<title>Node4&#45;&gt;Node2</title>
<path fill="none" stroke="#9a32cd" stroke-dasharray="5,2" d="M132.53,-863.97C186.47,-863.97 259.41,-863.97 306.82,-863.97"/>
<polygon fill="#9a32cd" stroke="#9a32cd" points="132.35,-860.47 122.35,-863.97 132.35,-867.47 132.35,-860.47"/>
<text text-anchor="middle" x="205" y="-866.57" font-family="Helvetica,sans-Serif" font-size="8.00"> S_SERIALIZE_VIA_SESSION_SHM</text>
</g>
<!-- Node5 -->
<g id="node5" class="node">
<title>Node5</title>
<g id="a_node5"><a xlink:href="structipc_1_1transport_1_1struc_1_1Channel__base_1_1Serialize__via__app__shm.html" target="_top" xlink:title="Similar to Serialize_via_session_shm but assumes per&#45;app&#45;scope SHM&#45;arena (as opposed to per&#45;session&#45;s...">
<polygon fill="white" stroke="black" points="0,-792.47 0,-827.47 122,-827.47 122,-792.47 0,-792.47"/>
<text text-anchor="start" x="8" y="-817.07" font-family="Helvetica,sans-Serif" font-size="8.00">ipc::transport::struc</text>
<text text-anchor="start" x="8" y="-808.07" font-family="Helvetica,sans-Serif" font-size="8.00">::Channel_base::Serialize</text>
<text text-anchor="middle" x="61" y="-799.07" font-family="Helvetica,sans-Serif" font-size="8.00">_via_app_shm</text>
</a>
</g>
</g>
<!-- Node5&#45;&gt;Node2 -->
<g id="edge4" class="edge">
<title>Node5&#45;&gt;Node2</title>
<path fill="none" stroke="#9a32cd" stroke-dasharray="5,2" d="M132.2,-822.91C186.17,-832.86 259.31,-846.34 306.82,-855.09"/>
<polygon fill="#9a32cd" stroke="#9a32cd" points="132.82,-819.47 122.35,-821.09 131.55,-826.35 132.82,-819.47"/>
<text text-anchor="middle" x="205" y="-850.57" font-family="Helvetica,sans-Serif" font-size="8.00"> S_SERIALIZE_VIA_APP_SHM</text>
</g>
<!-- Node6 -->
<g id="node6" class="node">
<title>Node6</title>
<g id="a_node6"><a xlink:title=" ">
<polygon fill="white" stroke="#bfbfbf" points="306.5,-814.47 306.5,-831.47 405.5,-831.47 405.5,-814.47 306.5,-814.47"/>
<text text-anchor="middle" x="356" y="-821.07" font-family="Helvetica,sans-Serif" font-size="8.00">boost::noncopyable</text>
</a>
</g>
</g>
<!-- Node6&#45;&gt;Node1 -->
<g id="edge5" class="edge">
<title>Node6&#45;&gt;Node1</title>
<path fill="none" stroke="#8b1a1a" d="M406.06,-833.07C454.85,-840.06 528.88,-841.98 575,-801.97 624.83,-758.74 650.32,-550.34 657.97,-475.66"/>
<polygon fill="#8b1a1a" stroke="#8b1a1a" points="406.47,-829.59 396.05,-831.51 405.4,-836.51 406.47,-829.59"/>
</g>
<!-- Node7 -->
<g id="node7" class="node">
<title>Node7</title>
<g id="a_node7"><a xlink:title=" ">
<polygon fill="white" stroke="#bfbfbf" points="302.5,-778.47 302.5,-795.47 409.5,-795.47 409.5,-778.47 302.5,-778.47"/>
<text text-anchor="middle" x="356" y="-785.07" font-family="Helvetica,sans-Serif" font-size="8.00">flow::log::Log_context</text>
</a>
</g>
</g>
<!-- Node7&#45;&gt;Node1 -->
<g id="edge6" class="edge">
<title>Node7&#45;&gt;Node1</title>
<path fill="none" stroke="midnightblue" d="M399.49,-797.57C447.68,-806.86 525.92,-813.35 575,-772.97 621.55,-734.67 648.77,-546.03 657.44,-475.58"/>
<polygon fill="midnightblue" stroke="midnightblue" points="400.18,-794.14 389.68,-795.55 398.78,-800.99 400.18,-794.14"/>
</g>
<!-- Node8 -->
<g id="node8" class="node">
<title>Node8</title>
<g id="a_node8"><a xlink:title=" ">
<polygon fill="white" stroke="#bfbfbf" points="306.5,-742.47 306.5,-759.47 405.5,-759.47 405.5,-742.47 306.5,-742.47"/>
<text text-anchor="middle" x="356" y="-749.07" font-family="Helvetica,sans-Serif" font-size="8.00">const Builder_config</text>
</a>
</g>
</g>
<!-- Node8&#45;&gt;Node1 -->
<g id="edge7" class="edge">
<title>Node8&#45;&gt;Node1</title>
<path fill="none" stroke="#9a32cd" stroke-dasharray="5,2" d="M412.11,-760.72C460.45,-765.99 529.9,-765.14 575,-727.97 652.41,-664.18 661.22,-532.17 661.24,-475.62"/>
<polygon fill="#9a32cd" stroke="#9a32cd" points="412.47,-757.24 402.12,-759.52 411.63,-764.19 412.47,-757.24"/>
<text text-anchor="middle" x="508.5" y="-765.57" font-family="Helvetica,sans-Serif" font-size="8.00"> m_struct_builder_config</text>
</g>
<!-- Node9 -->
<g id="node9" class="node">
<title>Node9</title>
<g id="a_node9"><a xlink:title=" ">
<polygon fill="white" stroke="#bfbfbf" points="331.5,-706.47 331.5,-723.47 380.5,-723.47 380.5,-706.47 331.5,-706.47"/>
<text text-anchor="middle" x="356" y="-713.07" font-family="Helvetica,sans-Serif" font-size="8.00">Session</text>
</a>
</g>
</g>
<!-- Node9&#45;&gt;Node1 -->
<g id="edge8" class="edge">
<title>Node9&#45;&gt;Node1</title>
<path fill="none" stroke="#9a32cd" stroke-dasharray="5,2" d="M390.67,-715.67C444.63,-716.12 547.22,-713.93 575,-691.97 642.9,-638.31 657,-526.94 659.84,-475.76"/>
<polygon fill="#9a32cd" stroke="#9a32cd" points="390.61,-712.17 380.57,-715.56 390.53,-719.17 390.61,-712.17"/>
<text text-anchor="middle" x="508.5" y="-717.57" font-family="Helvetica,sans-Serif" font-size="8.00"> m_struct_lender_session</text>
</g>
<!-- Node10 -->
<g id="node10" class="node">
<title>Node10</title>
<g id="a_node10"><a xlink:title=" ">
<polygon fill="white" stroke="#bfbfbf" points="305.5,-670.47 305.5,-687.47 406.5,-687.47 406.5,-670.47 305.5,-670.47"/>
<text text-anchor="middle" x="356" y="-677.07" font-family="Helvetica,sans-Serif" font-size="8.00">Struct_reader_config</text>
</a>
</g>
</g>
<!-- Node10&#45;&gt;Node1 -->
<g id="edge9" class="edge">
<title>Node10&#45;&gt;Node1</title>
<path fill="none" stroke="#9a32cd" stroke-dasharray="5,2" d="M417.13,-679.67C472.9,-679.14 550.81,-675.01 575,-656.97 634,-612.98 652.47,-521 658.11,-475.55"/>
<polygon fill="#9a32cd" stroke="#9a32cd" points="416.97,-676.17 406.99,-679.73 417.01,-683.17 416.97,-676.17"/>
<text text-anchor="middle" x="508.5" y="-681.57" font-family="Helvetica,sans-Serif" font-size="8.00"> m_struct_reader_config</text>
</g>
<!-- Node11 -->
<g id="node11" class="node">
<title>Node11</title>
<g id="a_node11"><a xlink:title=" ">
<polygon fill="white" stroke="#bfbfbf" points="338.5,-634.47 338.5,-651.47 373.5,-651.47 373.5,-634.47 338.5,-634.47"/>
<text text-anchor="middle" x="356" y="-641.07" font-family="Helvetica,sans-Serif" font-size="8.00">bool</text>
</a>
</g>
</g>
<!-- Node11&#45;&gt;Node1 -->
<g id="edge10" class="edge">
<title>Node11&#45;&gt;Node1</title>
<path fill="none" stroke="#9a32cd" stroke-dasharray="5,2" d="M383.66,-641.07C438.39,-636.96 559.58,-626.76 575,-615.97 623.04,-582.36 645.79,-513.45 655.07,-475.5"/>
<polygon fill="#9a32cd" stroke="#9a32cd" points="383.37,-637.58 373.65,-641.81 383.88,-644.56 383.37,-637.58"/>
<text text-anchor="middle" x="508.5" y="-646.57" font-family="Helvetica,sans-Serif" font-size="8.00"> m_phase_log_in_started</text>
<text text-anchor="middle" x="508.5" y="-637.57" font-family="Helvetica,sans-Serif" font-size="8.00">m_started_ops</text>
</g>
<!-- Node12 -->
<g id="node12" class="node">
<title>Node12</title>
<g id="a_node12"><a xlink:title=" ">
<polygon fill="white" stroke="#bfbfbf" points="320.5,-598.47 320.5,-615.47 391.5,-615.47 391.5,-598.47 320.5,-598.47"/>
<text text-anchor="middle" x="356" y="-605.07" font-family="Helvetica,sans-Serif" font-size="8.00">Task_asio_err</text>
</a>
</g>
</g>
<!-- Node12&#45;&gt;Node1 -->
<g id="edge11" class="edge">
<title>Node12&#45;&gt;Node1</title>
<path fill="none" stroke="#9a32cd" stroke-dasharray="5,2" d="M401.98,-606.76C448.62,-604.57 521.99,-595.45 575,-561.97 608.28,-540.95 633.36,-502.07 647.49,-475.86"/>
<polygon fill="#9a32cd" stroke="#9a32cd" points="401.74,-603.26 391.88,-607.14 402.01,-610.26 401.74,-603.26"/>
<text text-anchor="middle" x="508.5" y="-605.57" font-family="Helvetica,sans-Serif" font-size="8.00"> m_on_err_func</text>
</g>
<!-- Node13 -->
<g id="node13" class="node">
<title>Node13</title>
<g id="a_node13"><a xlink:title=" ">
<polygon fill="white" stroke="#bfbfbf" points="298.5,-534.97 298.5,-578.97 413.5,-578.97 413.5,-534.97 298.5,-534.97"/>
<text text-anchor="start" x="306.5" y="-568.57" font-family="Helvetica,sans-Serif" font-size="8.00">array&lt; std::optional</text>
<text text-anchor="start" x="306.5" y="-559.57" font-family="Helvetica,sans-Serif" font-size="8.00">&lt; ipc::transport::struc</text>
<text text-anchor="start" x="306.5" y="-550.57" font-family="Helvetica,sans-Serif" font-size="8.00">::sync_io::Channel::Msg</text>
<text text-anchor="middle" x="356" y="-541.57" font-family="Helvetica,sans-Serif" font-size="8.00">_in_pipe &gt;, 2 &gt;</text>
</a>
</g>
</g>
<!-- Node13&#45;&gt;Node1 -->
<g id="edge12" class="edge">
<title>Node13&#45;&gt;Node1</title>
<path fill="none" stroke="#9a32cd" stroke-dasharray="5,2" d="M423.88,-551.71C468.29,-546.33 527.01,-535.54 575,-513.97 595.92,-504.57 616.47,-489.2 632.19,-475.76"/>
<polygon fill="#9a32cd" stroke="#9a32cd" points="423.31,-548.25 413.78,-552.87 424.11,-555.2 423.31,-548.25"/>
<text text-anchor="middle" x="508.5" y="-551.57" font-family="Helvetica,sans-Serif" font-size="8.00"> m_rcv_pipes</text>
</g>
<!-- Node14 -->
<g id="node14" class="node">
<title>Node14</title>
<g id="a_node14"><a xlink:title=" ">
<polygon fill="white" stroke="#bfbfbf" points="307,-489.97 307,-515.97 405,-515.97 405,-489.97 307,-489.97"/>
<text text-anchor="start" x="315" y="-505.57" font-family="Helvetica,sans-Serif" font-size="8.00">Function&lt; void(Msg</text>
<text text-anchor="middle" x="356" y="-496.57" font-family="Helvetica,sans-Serif" font-size="8.00">_in_ptr &amp;&amp;msg)&gt;</text>
</a>
</g>
</g>
<!-- Node14&#45;&gt;Node1 -->
<g id="edge13" class="edge">
<title>Node14&#45;&gt;Node1</title>
<path fill="none" stroke="#9a32cd" stroke-dasharray="5,2" d="M415.27,-496.12C459.35,-490.53 521.25,-481.8 575,-470.97 580.86,-469.79 586.92,-468.46 592.98,-467.05"/>
<polygon fill="#9a32cd" stroke="#9a32cd" points="414.8,-492.66 405.31,-497.37 415.67,-499.6 414.8,-492.66"/>
<text text-anchor="start" x="449.5" y="-503.57" font-family="Helvetica,sans-Serif" font-size="8.00"> m_on_unexpected_response</text>
<text text-anchor="middle" x="508.5" y="-494.57" font-family="Helvetica,sans-Serif" font-size="8.00">_func_or_empty</text>
</g>
<!-- Node15 -->
<g id="node15" class="node">
<title>Node15</title>
<g id="a_node15"><a xlink:title=" ">
<polygon fill="white" stroke="#bfbfbf" points="288,-426.97 288,-470.97 424,-470.97 424,-426.97 288,-426.97"/>
<text text-anchor="start" x="296" y="-460.57" font-family="Helvetica,sans-Serif" font-size="8.00">Function&lt; void(msg</text>
<text text-anchor="start" x="296" y="-451.57" font-family="Helvetica,sans-Serif" font-size="8.00">_id_out_t msg_id_out,</text>
<text text-anchor="start" x="296" y="-442.57" font-family="Helvetica,sans-Serif" font-size="8.00"> std::string &amp;&amp;msg_metadata</text>
<text text-anchor="middle" x="356" y="-433.57" font-family="Helvetica,sans-Serif" font-size="8.00">_text)&gt;</text>
</a>
</g>
</g>
<!-- Node15&#45;&gt;Node1 -->
<g id="edge14" class="edge">
<title>Node15&#45;&gt;Node1</title>
<path fill="none" stroke="#9a32cd" stroke-dasharray="5,2" d="M434.57,-448.97C483.45,-448.97 545.94,-448.97 592.81,-448.97"/>
<polygon fill="#9a32cd" stroke="#9a32cd" points="434.36,-445.47 424.36,-448.97 434.36,-452.47 434.36,-445.47"/>
<text text-anchor="start" x="454" y="-460.57" font-family="Helvetica,sans-Serif" font-size="8.00"> m_on_remote_unexpected</text>
<text text-anchor="middle" x="508.5" y="-451.57" font-family="Helvetica,sans-Serif" font-size="8.00">_response_func_or_empty</text>
</g>
<!-- Node16 -->
<g id="node16" class="node">
<title>Node16</title>
<g id="a_node16"><a xlink:title=" ">
<polygon fill="white" stroke="#bfbfbf" points="338.5,-390.47 338.5,-407.47 373.5,-407.47 373.5,-390.47 338.5,-390.47"/>
<text text-anchor="middle" x="356" y="-397.07" font-family="Helvetica,sans-Serif" font-size="8.00">uuid</text>
</a>
</g>
</g>
<!-- Node16&#45;&gt;Node1 -->
<g id="edge15" class="edge">
<title>Node16&#45;&gt;Node1</title>
<path fill="none" stroke="#9a32cd" stroke-dasharray="5,2" d="M383.62,-403.36C429.97,-410.99 526.84,-426.95 592.78,-437.81"/>
<polygon fill="#9a32cd" stroke="#9a32cd" points="384.19,-399.9 373.75,-401.73 383.05,-406.81 384.19,-399.9"/>
<text text-anchor="middle" x="508.5" y="-436.57" font-family="Helvetica,sans-Serif" font-size="8.00"> m_session_token</text>
</g>
<!-- Node17 -->
<g id="node17" class="node">
<title>Node17</title>
<g id="a_node17"><a xlink:title=" ">
<polygon fill="white" stroke="#bfbfbf" points="331,-354.47 331,-371.47 381,-371.47 381,-354.47 331,-354.47"/>
<text text-anchor="middle" x="356" y="-361.07" font-family="Helvetica,sans-Serif" font-size="8.00">uint64_t</text>
</a>
</g>
</g>
<!-- Node17&#45;&gt;Node1 -->
<g id="edge16" class="edge">
<title>Node17&#45;&gt;Node1</title>
<path fill="none" stroke="#9a32cd" stroke-dasharray="5,2" d="M391.25,-362.52C435.21,-363.02 513.18,-367.57 575,-390.97 594.29,-398.27 613.5,-410.72 628.82,-422.21"/>
<polygon fill="#9a32cd" stroke="#9a32cd" points="391.12,-359.02 381.1,-362.47 391.08,-366.02 391.12,-359.02"/>
<text text-anchor="middle" x="508.5" y="-402.57" font-family="Helvetica,sans-Serif" font-size="8.00"> m_rcv_msg_next_id</text>
<text text-anchor="middle" x="508.5" y="-393.57" font-family="Helvetica,sans-Serif" font-size="8.00">m_snd_msg_next_id</text>
</g>
<!-- Node18 -->
<g id="node18" class="node">
<title>Node18</title>
<g id="a_node18"><a xlink:title=" ">
<polygon fill="white" stroke="#bfbfbf" points="335.5,-318.47 335.5,-335.47 376.5,-335.47 376.5,-318.47 335.5,-318.47"/>
<text text-anchor="middle" x="356" y="-325.07" font-family="Helvetica,sans-Serif" font-size="8.00">Phase</text>
</a>
</g>
</g>
<!-- Node18&#45;&gt;Node1 -->
<g id="edge17" class="edge">
<title>Node18&#45;&gt;Node1</title>
<path fill="none" stroke="#9a32cd" stroke-dasharray="5,2" d="M386.73,-323.7C430.6,-320.27 514.05,-319.12 575,-350.97 605.82,-367.08 630.5,-399.27 645.27,-422.37"/>
<polygon fill="#9a32cd" stroke="#9a32cd" points="386.37,-320.22 376.72,-324.58 386.99,-327.19 386.37,-320.22"/>
<text text-anchor="middle" x="508.5" y="-353.57" font-family="Helvetica,sans-Serif" font-size="8.00"> m_phase</text>
</g>
<!-- Node19 -->
<g id="node19" class="node">
<title>Node19</title>
<g id="a_node19"><a xlink:title=" ">
<polygon fill="white" stroke="#bfbfbf" points="326,-282.47 326,-299.47 386,-299.47 386,-282.47 326,-282.47"/>
<text text-anchor="middle" x="356" y="-289.07" font-family="Helvetica,sans-Serif" font-size="8.00">Error_code</text>
</a>
</g>
</g>
<!-- Node19&#45;&gt;Node1 -->
<g id="edge18" class="edge">
<title>Node19&#45;&gt;Node1</title>
<path fill="none" stroke="#9a32cd" stroke-dasharray="5,2" d="M396.29,-281.9C442.61,-273.49 520.21,-266.71 575,-299.97 619.87,-327.21 643.46,-387.42 653.82,-422.39"/>
<polygon fill="#9a32cd" stroke="#9a32cd" points="395.5,-278.49 386.34,-283.83 396.82,-285.37 395.5,-278.49"/>
<text text-anchor="start" x="465.5" y="-311.57" font-family="Helvetica,sans-Serif" font-size="8.00"> m_channel_err_code</text>
<text text-anchor="middle" x="508.5" y="-302.57" font-family="Helvetica,sans-Serif" font-size="8.00">_or_ok</text>
</g>
<!-- Node20 -->
<g id="node20" class="node">
<title>Node20</title>
<g id="a_node20"><a xlink:title=" ">
<polygon fill="white" stroke="#bfbfbf" points="292.5,-228.47 292.5,-263.47 419.5,-263.47 419.5,-228.47 292.5,-228.47"/>
<text text-anchor="start" x="300.5" y="-253.07" font-family="Helvetica,sans-Serif" font-size="8.00">unordered_map&lt; msg</text>
<text text-anchor="start" x="300.5" y="-244.07" font-family="Helvetica,sans-Serif" font-size="8.00">_id_out_t, typename</text>
<text text-anchor="middle" x="356" y="-235.07" font-family="Helvetica,sans-Serif" font-size="8.00"> Expecting_response::Ptr &gt;</text>
</a>
</g>
</g>
<!-- Node20&#45;&gt;Node1 -->
<g id="edge19" class="edge">
<title>Node20&#45;&gt;Node1</title>
<path fill="none" stroke="#9a32cd" stroke-dasharray="5,2" d="M430.02,-233.62C475.59,-229.92 533.29,-232.97 575,-261.97 629.07,-299.57 649.62,-380.11 656.87,-422.16"/>
<polygon fill="#9a32cd" stroke="#9a32cd" points="429.54,-230.15 419.91,-234.56 430.19,-237.12 429.54,-230.15"/>
<text text-anchor="middle" x="508.5" y="-264.57" font-family="Helvetica,sans-Serif" font-size="8.00"> m_rcv_expecting_response_map</text>
</g>
<!-- Node21 -->
<g id="node21" class="node">
<title>Node21</title>
<g id="a_node21"><a xlink:title=" ">
<polygon fill="white" stroke="#bfbfbf" points="302.5,-174.47 302.5,-209.47 409.5,-209.47 409.5,-174.47 302.5,-174.47"/>
<text text-anchor="start" x="310.5" y="-199.07" font-family="Helvetica,sans-Serif" font-size="8.00">unordered_map&lt; Msg</text>
<text text-anchor="start" x="310.5" y="-190.07" font-family="Helvetica,sans-Serif" font-size="8.00">_which_in, typename</text>
<text text-anchor="middle" x="356" y="-181.07" font-family="Helvetica,sans-Serif" font-size="8.00"> Expecting_msg::Ptr &gt;</text>
</a>
</g>
</g>
<!-- Node21&#45;&gt;Node1 -->
<g id="edge20" class="edge">
<title>Node21&#45;&gt;Node1</title>
<path fill="none" stroke="#9a32cd" stroke-dasharray="5,2" d="M420.08,-183.45C467.56,-180.57 531.66,-184.7 575,-218.97 638.99,-269.57 655.09,-373.17 659.14,-422.16"/>
<polygon fill="#9a32cd" stroke="#9a32cd" points="419.63,-179.97 409.91,-184.18 420.13,-186.95 419.63,-179.97"/>
<text text-anchor="middle" x="508.5" y="-221.57" font-family="Helvetica,sans-Serif" font-size="8.00"> m_rcv_expecting_msg_map</text>
</g>
<!-- Node22 -->
<g id="node22" class="node">
<title>Node22</title>
<g id="a_node22"><a xlink:title=" ">
<polygon fill="white" stroke="#bfbfbf" points="292.5,-138.47 292.5,-155.47 419.5,-155.47 419.5,-138.47 292.5,-138.47"/>
<text text-anchor="middle" x="356" y="-145.07" font-family="Helvetica,sans-Serif" font-size="8.00">optional&lt; Reassembly_q &gt;</text>
</a>
</g>
</g>
<!-- Node22&#45;&gt;Node1 -->
<g id="edge21" class="edge">
<title>Node22&#45;&gt;Node1</title>
<path fill="none" stroke="#9a32cd" stroke-dasharray="5,2" d="M410.33,-137.12C458.73,-131.38 529.3,-131.45 575,-168.97 652.78,-232.84 661.39,-365.41 661.3,-422.2"/>
<polygon fill="#9a32cd" stroke="#9a32cd" points="409.82,-133.66 400.36,-138.42 410.73,-140.6 409.82,-133.66"/>
<text text-anchor="middle" x="508.5" y="-171.57" font-family="Helvetica,sans-Serif" font-size="8.00"> m_rcv_reassembly_q</text>
</g>
<!-- Node23 -->
<g id="node23" class="node">
<title>Node23</title>
<g id="a_node23"><a xlink:title=" ">
<polygon fill="white" stroke="#bfbfbf" points="302.5,-92.97 302.5,-118.97 409.5,-118.97 409.5,-92.97 302.5,-92.97"/>
<text text-anchor="start" x="310.5" y="-108.57" font-family="Helvetica,sans-Serif" font-size="8.00">unordered_map&lt; Msg</text>
<text text-anchor="middle" x="356" y="-99.57" font-family="Helvetica,sans-Serif" font-size="8.00">_which_in, Msg_in_q &gt;</text>
</a>
</g>
</g>
<!-- Node23&#45;&gt;Node1 -->
<g id="edge22" class="edge">
<title>Node23&#45;&gt;Node1</title>
<path fill="none" stroke="#9a32cd" stroke-dasharray="5,2" d="M419.9,-92.27C467.77,-85.71 532.47,-85.71 575,-120.97 622,-159.94 648.98,-351.23 657.52,-422.31"/>
<polygon fill="#9a32cd" stroke="#9a32cd" points="419.32,-88.82 409.95,-93.76 420.36,-95.74 419.32,-88.82"/>
<text text-anchor="middle" x="508.5" y="-123.57" font-family="Helvetica,sans-Serif" font-size="8.00"> m_rcv_pending_msgs</text>
</g>
<!-- Node24 -->
<g id="node24" class="node">
<title>Node24</title>
<g id="a_node24"><a xlink:title=" ">
<polygon fill="white" stroke="#bfbfbf" points="322.5,-56.47 322.5,-73.47 389.5,-73.47 389.5,-56.47 322.5,-56.47"/>
<text text-anchor="middle" x="356" y="-63.07" font-family="Helvetica,sans-Serif" font-size="8.00">Channel_obj</text>
</a>
</g>
</g>
<!-- Node24&#45;&gt;Node1 -->
<g id="edge23" class="edge">
<title>Node24&#45;&gt;Node1</title>
<path fill="none" stroke="#9a32cd" stroke-dasharray="5,2" d="M395.95,-53.98C443.88,-43.03 525.02,-33.22 575,-74.97 628.86,-119.97 651.99,-344.35 658.48,-422.26"/>
<polygon fill="#9a32cd" stroke="#9a32cd" points="394.86,-50.64 385.96,-56.39 396.5,-57.45 394.86,-50.64"/>
<text text-anchor="middle" x="508.5" y="-77.57" font-family="Helvetica,sans-Serif" font-size="8.00"> m_channel</text>
</g>
<!-- Node25 -->
<g id="node25" class="node">
<title>Node25</title>
<g id="a_node25"><a xlink:title=" ">
<polygon fill="white" stroke="black" points="304,-2.47 304,-37.47 408,-37.47 408,-2.47 304,-2.47"/>
<text text-anchor="start" x="312" y="-27.07" font-family="Helvetica,sans-Serif" font-size="8.00">std::vector&lt; boost</text>
<text text-anchor="start" x="312" y="-18.07" font-family="Helvetica,sans-Serif" font-size="8.00">::movelib::unique_ptr</text>
<text text-anchor="middle" x="356" y="-9.07" font-family="Helvetica,sans-Serif" font-size="8.00">&lt; util::Task &gt; &gt;</text>
</a>
</g>
</g>
<!-- Node25&#45;&gt;Node1 -->
<g id="edge24" class="edge">
<title>Node25&#45;&gt;Node1</title>
<path fill="none" stroke="#9a32cd" stroke-dasharray="5,2" d="M418.46,-4.93C466.74,2.97 532.66,4.55 575,-31.97 634.67,-83.44 654.26,-338.52 659.14,-422.27"/>
<polygon fill="#9a32cd" stroke="#9a32cd" points="417.68,-1.52 408.44,-6.7 418.9,-8.41 417.68,-1.52"/>
<text text-anchor="middle" x="508.5" y="-34.57" font-family="Helvetica,sans-Serif" font-size="8.00"> m_sync_io_handlers</text>
</g>
<!-- Node26 -->
<g id="node26" class="node">
<title>Node26</title>
<g id="a_node26"><a xlink:title=" ">
<polygon fill="white" stroke="#bfbfbf" points="3.5,-11.47 3.5,-28.47 118.5,-28.47 118.5,-11.47 3.5,-11.47"/>
<text text-anchor="middle" x="61" y="-18.07" font-family="Helvetica,sans-Serif" font-size="8.00">unique_ptr&lt; util::Task &gt;</text>
</a>
</g>
</g>
<!-- Node26&#45;&gt;Node25 -->
<g id="edge25" class="edge">
<title>Node26&#45;&gt;Node25</title>
<path fill="none" stroke="#9a32cd" stroke-dasharray="5,2" d="M128.85,-19.97C181.96,-19.97 255.15,-19.97 303.71,-19.97"/>
<polygon fill="#9a32cd" stroke="#9a32cd" points="128.84,-16.47 118.84,-19.97 128.84,-23.47 128.84,-16.47"/>
<text text-anchor="middle" x="205" y="-22.57" font-family="Helvetica,sans-Serif" font-size="8.00"> elements</text>
</g>
</g>
</svg>
