<?xml version="1.0" encoding="UTF-8" standalone="no"?>
<!DOCTYPE svg PUBLIC "-//W3C//DTD SVG 1.1//EN"
 "http://www.w3.org/Graphics/SVG/1.1/DTD/svg11.dtd">
<!-- Generated by graphviz version 2.43.0 (0)
 -->
<!-- Title: ipc::transport::Blob_stream_mq_sender_impl::nickname Pages: 1 -->
<svg width="306pt" height="98pt"
 viewBox="0.00 0.00 306.00 98.00" xmlns="http://www.w3.org/2000/svg" xmlns:xlink="http://www.w3.org/1999/xlink">
<g id="graph0" class="graph" transform="scale(1 1) rotate(0) translate(4 94)">
<title>ipc::transport::Blob_stream_mq_sender_impl::nickname</title>
<polygon fill="white" stroke="transparent" points="-4,4 -4,-94 302,-94 302,4 -4,4"/>
<!-- Node1 -->
<g id="node1" class="node">
<title>Node1</title>
<g id="a_node1"><a xlink:title="See Blob_stream_mq_sender counterpart, but assuming PEER state.">
<polygon fill="#bfbfbf" stroke="black" points="179,-27.5 179,-62.5 298,-62.5 298,-27.5 179,-27.5"/>
<text text-anchor="start" x="187" y="-52.1" font-family="Helvetica,sans-Serif" font-size="8.00">ipc::transport::Blob</text>
<text text-anchor="start" x="187" y="-43.1" font-family="Helvetica,sans-Serif" font-size="8.00">_stream_mq_sender_impl</text>
<text text-anchor="middle" x="238.5" y="-34.1" font-family="Helvetica,sans-Serif" font-size="8.00">::nickname</text>
</a>
</g>
</g>
<!-- Node2 -->
<g id="node2" class="node">
<title>Node2</title>
<g id="a_node2"><a xlink:href="classipc_1_1transport_1_1Blob__stream__mq__sender__impl.html#a13aedec368cb3b736b03656b056cbee2" target="_top" xlink:title="See Blob_stream_mq_sender counterpart.">
<polygon fill="white" stroke="black" points="0,-54.5 0,-89.5 143,-89.5 143,-54.5 0,-54.5"/>
<text text-anchor="start" x="8" y="-79.1" font-family="Helvetica,sans-Serif" font-size="8.00">ipc::transport::Blob</text>
<text text-anchor="start" x="8" y="-70.1" font-family="Helvetica,sans-Serif" font-size="8.00">_stream_mq_sender_impl</text>
<text text-anchor="middle" x="71.5" y="-61.1" font-family="Helvetica,sans-Serif" font-size="8.00">::Blob_stream_mq_sender_impl</text>
</a>
</g>
</g>
<!-- Node1&#45;&gt;Node2 -->
<g id="edge1" class="edge">
<title>Node1&#45;&gt;Node2</title>
<path fill="none" stroke="midnightblue" d="M168.95,-56.22C160.41,-57.61 151.67,-59.05 143.09,-60.45"/>
<polygon fill="midnightblue" stroke="midnightblue" points="169.56,-59.66 178.86,-54.6 168.43,-52.76 169.56,-59.66"/>
</g>
<!-- Node3 -->
<g id="node3" class="node">
<title>Node3</title>
<g id="a_node3"><a xlink:href="classipc_1_1transport_1_1Blob__stream__mq__sender__impl.html#a8bc3464c81b40649e99da6ce2ee5f87c" target="_top" xlink:title="Prints string representation of the given Blob_stream_mq_sender to the given ostream.">
<polygon fill="white" stroke="black" points="12,-0.5 12,-35.5 131,-35.5 131,-0.5 12,-0.5"/>
<text text-anchor="start" x="20" y="-25.1" font-family="Helvetica,sans-Serif" font-size="8.00">ipc::transport::Blob</text>
<text text-anchor="start" x="20" y="-16.1" font-family="Helvetica,sans-Serif" font-size="8.00">_stream_mq_sender_impl</text>
<text text-anchor="middle" x="71.5" y="-7.1" font-family="Helvetica,sans-Serif" font-size="8.00">::operator&lt;&lt;</text>
</a>
</g>
</g>
<!-- Node1&#45;&gt;Node3 -->
<g id="edge2" class="edge">
<title>Node1&#45;&gt;Node3</title>
<path fill="none" stroke="midnightblue" d="M168.93,-33.78C156.41,-31.73 143.44,-29.61 131.23,-27.61"/>
<polygon fill="midnightblue" stroke="midnightblue" points="168.43,-37.24 178.86,-35.4 169.56,-30.34 168.43,-37.24"/>
</g>
</g>
</svg>
