<?xml version="1.0" encoding="UTF-8" standalone="no"?>
<!DOCTYPE svg PUBLIC "-//W3C//DTD SVG 1.1//EN"
 "http://www.w3.org/Graphics/SVG/1.1/DTD/svg11.dtd">
<!-- Generated by graphviz version 2.43.0 (0)
 -->
<!-- Title: ipc::session::Session&lt; Mdt_payload &gt; Pages: 1 -->
<svg width="389pt" height="98pt"
 viewBox="0.00 0.00 389.00 98.00" xmlns="http://www.w3.org/2000/svg" xmlns:xlink="http://www.w3.org/1999/xlink">
<g id="graph0" class="graph" transform="scale(1 1) rotate(0) translate(4 94)">
<title>ipc::session::Session&lt; Mdt_payload &gt;</title>
<polygon fill="white" stroke="transparent" points="-4,4 -4,-94 385,-94 385,4 -4,4"/>
<!-- Node1 -->
<g id="node1" class="node">
<title>Node1</title>
<g id="a_node1"><a xlink:title="A documentation&#45;only concept defining the local side of an IPC conversation (session) with another en...">
<polygon fill="#bfbfbf" stroke="black" points="0,-32 0,-58 104,-58 104,-32 0,-32"/>
<text text-anchor="start" x="8" y="-47.6" font-family="Helvetica,sans-Serif" font-size="8.00">ipc::session::Session</text>
<text text-anchor="middle" x="52" y="-38.6" font-family="Helvetica,sans-Serif" font-size="8.00">&lt; Mdt_payload &gt;</text>
</a>
</g>
</g>
<!-- Node2 -->
<g id="node2" class="node">
<title>Node2</title>
<g id="a_node2"><a xlink:href="classipc_1_1session_1_1sync__io_1_1Session__adapter.html" target="_top" xlink:title="Internal&#45;use workhorse containing common elements of Client_session_adapter and Server_session_adapte...">
<polygon fill="white" stroke="black" points="140,-27.5 140,-62.5 242,-62.5 242,-27.5 140,-27.5"/>
<text text-anchor="start" x="148" y="-52.1" font-family="Helvetica,sans-Serif" font-size="8.00">ipc::session::sync</text>
<text text-anchor="start" x="148" y="-43.1" font-family="Helvetica,sans-Serif" font-size="8.00">_io::Session_adapter</text>
<text text-anchor="middle" x="191" y="-34.1" font-family="Helvetica,sans-Serif" font-size="8.00">&lt; Session &gt;</text>
</a>
</g>
</g>
<!-- Node1&#45;&gt;Node2 -->
<g id="edge1" class="edge">
<title>Node1&#45;&gt;Node2</title>
<path fill="none" stroke="midnightblue" d="M114.04,-45C122.67,-45 131.46,-45 139.86,-45"/>
<polygon fill="midnightblue" stroke="midnightblue" points="114.01,-41.5 104.01,-45 114.01,-48.5 114.01,-41.5"/>
</g>
<!-- Node3 -->
<g id="node3" class="node">
<title>Node3</title>
<g id="a_node3"><a xlink:href="classipc_1_1session_1_1sync__io_1_1Client__session__adapter.html" target="_top" xlink:title="sync_io&#45;pattern counterpart to async&#45;I/O&#45;pattern session::Client_session types and all their SHM&#45;awar...">
<polygon fill="white" stroke="black" points="278,-54.5 278,-89.5 381,-89.5 381,-54.5 278,-54.5"/>
<text text-anchor="start" x="286" y="-79.1" font-family="Helvetica,sans-Serif" font-size="8.00">ipc::session::sync</text>
<text text-anchor="start" x="286" y="-70.1" font-family="Helvetica,sans-Serif" font-size="8.00">_io::Client_session</text>
<text text-anchor="middle" x="329.5" y="-61.1" font-family="Helvetica,sans-Serif" font-size="8.00">_adapter&lt; Session &gt;</text>
</a>
</g>
</g>
<!-- Node2&#45;&gt;Node3 -->
<g id="edge2" class="edge">
<title>Node2&#45;&gt;Node3</title>
<path fill="none" stroke="#8b1a1a" d="M252.09,-56.89C260.74,-58.6 269.56,-60.34 278,-62.01"/>
<polygon fill="#8b1a1a" stroke="#8b1a1a" points="252.54,-53.41 242.05,-54.9 251.18,-60.27 252.54,-53.41"/>
</g>
<!-- Node4 -->
<g id="node4" class="node">
<title>Node4</title>
<g id="a_node4"><a xlink:href="classipc_1_1session_1_1sync__io_1_1Server__session__adapter.html" target="_top" xlink:title="sync_io&#45;pattern counterpart to async&#45;I/O&#45;pattern session::Server_session types and all their SHM&#45;awar...">
<polygon fill="white" stroke="black" points="278,-0.5 278,-35.5 381,-35.5 381,-0.5 278,-0.5"/>
<text text-anchor="start" x="286" y="-25.1" font-family="Helvetica,sans-Serif" font-size="8.00">ipc::session::sync</text>
<text text-anchor="start" x="286" y="-16.1" font-family="Helvetica,sans-Serif" font-size="8.00">_io::Server_session</text>
<text text-anchor="middle" x="329.5" y="-7.1" font-family="Helvetica,sans-Serif" font-size="8.00">_adapter&lt; Session &gt;</text>
</a>
</g>
</g>
<!-- Node2&#45;&gt;Node4 -->
<g id="edge3" class="edge">
<title>Node2&#45;&gt;Node4</title>
<path fill="none" stroke="#8b1a1a" d="M252.09,-33.11C260.74,-31.4 269.56,-29.66 278,-27.99"/>
<polygon fill="#8b1a1a" stroke="#8b1a1a" points="251.18,-29.73 242.05,-35.1 252.54,-36.59 251.18,-29.73"/>
</g>
</g>
</svg>
