<?xml version="1.0" encoding="UTF-8" standalone="no"?>
<!DOCTYPE svg PUBLIC "-//W3C//DTD SVG 1.1//EN"
 "http://www.w3.org/Graphics/SVG/1.1/DTD/svg11.dtd">
<!-- Generated by graphviz version 2.43.0 (0)
 -->
<!-- Title: ipc::shm::classic::Pool_arena::remove_persistent Pages: 1 -->
<svg width="462pt" height="53pt"
 viewBox="0.00 0.00 462.00 53.00" xmlns="http://www.w3.org/2000/svg" xmlns:xlink="http://www.w3.org/1999/xlink">
<g id="graph0" class="graph" transform="scale(1 1) rotate(0) translate(4 49)">
<title>ipc::shm::classic::Pool_arena::remove_persistent</title>
<polygon fill="white" stroke="transparent" points="-4,4 -4,-49 458,-49 458,4 -4,4"/>
<!-- Node1 -->
<g id="node1" class="node">
<title>Node1</title>
<g id="a_node1"><a xlink:title="Removes the named SHM pool object.">
<polygon fill="#bfbfbf" stroke="black" points="0,-0.5 0,-26.5 143,-26.5 143,-0.5 0,-0.5"/>
<text text-anchor="start" x="8" y="-16.1" font-family="Helvetica,sans-Serif" font-size="8.00">ipc::shm::classic::</text>
<text text-anchor="middle" x="71.5" y="-7.1" font-family="Helvetica,sans-Serif" font-size="8.00">Pool_arena::remove_persistent</text>
</a>
</g>
</g>
<!-- Node2 -->
<g id="node2" class="node">
<title>Node2</title>
<g id="a_node2"><a xlink:href="namespaceipc_1_1util.html#a1cdc0a8d761170faa844c49d37c522ff" target="_top" xlink:title="Equivalent to shm::classic::Pool_arena::remove_persistent().">
<polygon fill="white" stroke="black" points="179,-0.5 179,-26.5 308,-26.5 308,-0.5 179,-0.5"/>
<text text-anchor="start" x="187" y="-16.1" font-family="Helvetica,sans-Serif" font-size="8.00">ipc::util::remove_persistent</text>
<text text-anchor="middle" x="243.5" y="-7.1" font-family="Helvetica,sans-Serif" font-size="8.00">_shm_pool</text>
</a>
</g>
</g>
<!-- Node1&#45;&gt;Node2 -->
<g id="edge1" class="edge">
<title>Node1&#45;&gt;Node2</title>
<path fill="none" stroke="midnightblue" d="M143.12,-13.5C151.55,-13.5 160.18,-13.5 168.65,-13.5"/>
<polygon fill="midnightblue" stroke="midnightblue" points="168.89,-17 178.89,-13.5 168.89,-10 168.89,-17"/>
</g>
<!-- Node2&#45;&gt;Node2 -->
<g id="edge3" class="edge">
<title>Node2&#45;&gt;Node2</title>
<path fill="none" stroke="midnightblue" d="M217.44,-26.77C209.55,-35.96 218.23,-45 243.5,-45 258.9,-45 268.14,-41.64 271.22,-36.94"/>
<polygon fill="midnightblue" stroke="midnightblue" points="274.62,-36.07 269.56,-26.77 267.71,-37.2 274.62,-36.07"/>
</g>
<!-- Node3 -->
<g id="node3" class="node">
<title>Node3</title>
<g id="a_node3"><a xlink:href="classipc_1_1util_1_1Shared__name.html#a0bccc73c9c5b4f3b784a1e57cdc5c910" target="_top" xlink:title="Returns (sans copying) pointer to NUL&#45;terminated wrapped name string, suitable to pass into sys calls...">
<polygon fill="white" stroke="black" points="344,-0.5 344,-26.5 454,-26.5 454,-0.5 344,-0.5"/>
<text text-anchor="start" x="352" y="-16.1" font-family="Helvetica,sans-Serif" font-size="8.00">ipc::util::Shared_name</text>
<text text-anchor="middle" x="399" y="-7.1" font-family="Helvetica,sans-Serif" font-size="8.00">::native_str</text>
</a>
</g>
</g>
<!-- Node2&#45;&gt;Node3 -->
<g id="edge2" class="edge">
<title>Node2&#45;&gt;Node3</title>
<path fill="none" stroke="midnightblue" d="M308.26,-13.5C316.7,-13.5 325.35,-13.5 333.79,-13.5"/>
<polygon fill="midnightblue" stroke="midnightblue" points="333.95,-17 343.95,-13.5 333.95,-10 333.95,-17"/>
</g>
</g>
</svg>
