<?xml version="1.0" encoding="UTF-8" standalone="no"?>
<!DOCTYPE svg PUBLIC "-//W3C//DTD SVG 1.1//EN"
 "http://www.w3.org/Graphics/SVG/1.1/DTD/svg11.dtd">
<!-- Generated by graphviz version 2.43.0 (0)
 -->
<!-- Title: ipc::session::Session_base::Graceful_finisher::on_dtor_start Pages: 1 -->
<svg width="283pt" height="98pt"
 viewBox="0.00 0.00 283.00 98.00" xmlns="http://www.w3.org/2000/svg" xmlns:xlink="http://www.w3.org/1999/xlink">
<g id="graph0" class="graph" transform="scale(1 1) rotate(0) translate(4 94)">
<title>ipc::session::Session_base::Graceful_finisher::on_dtor_start</title>
<polygon fill="white" stroke="transparent" points="-4,4 -4,-94 279,-94 279,4 -4,4"/>
<!-- Node1 -->
<g id="node1" class="node">
<title>Node1</title>
<g id="a_node1"><a xlink:title="The reason Graceful_finisher exists, this method must be called at the start of *_session_impl dtor; ...">
<polygon fill="#bfbfbf" stroke="black" points="159,-27.5 159,-62.5 275,-62.5 275,-27.5 159,-27.5"/>
<text text-anchor="start" x="167" y="-52.1" font-family="Helvetica,sans-Serif" font-size="8.00">ipc::session::Session</text>
<text text-anchor="start" x="167" y="-43.1" font-family="Helvetica,sans-Serif" font-size="8.00">_base::Graceful_finisher</text>
<text text-anchor="middle" x="217" y="-34.1" font-family="Helvetica,sans-Serif" font-size="8.00">::on_dtor_start</text>
</a>
</g>
</g>
<!-- Node2 -->
<g id="node2" class="node">
<title>Node2</title>
<g id="a_node2"><a xlink:href="classipc_1_1session_1_1Client__session__impl.html#afb09c3a23b7e63938b9a494cec6e769b" target="_top" xlink:title="Synchronously stops async_worker() loop, the post&#45;condition being that thread W has been joined; no t...">
<polygon fill="white" stroke="black" points="0,-54.5 0,-89.5 123,-89.5 123,-54.5 0,-54.5"/>
<text text-anchor="start" x="8" y="-79.1" font-family="Helvetica,sans-Serif" font-size="8.00">ipc::session::Client</text>
<text text-anchor="start" x="8" y="-70.1" font-family="Helvetica,sans-Serif" font-size="8.00">_session_impl::dtor_async</text>
<text text-anchor="middle" x="61.5" y="-61.1" font-family="Helvetica,sans-Serif" font-size="8.00">_worker_stop</text>
</a>
</g>
</g>
<!-- Node1&#45;&gt;Node2 -->
<g id="edge1" class="edge">
<title>Node1&#45;&gt;Node2</title>
<path fill="none" stroke="midnightblue" d="M148.86,-56.81C140.27,-58.32 131.52,-59.86 123.05,-61.35"/>
<polygon fill="midnightblue" stroke="midnightblue" points="149.6,-60.23 158.84,-55.05 148.39,-53.34 149.6,-60.23"/>
</g>
<!-- Node3 -->
<g id="node3" class="node">
<title>Node3</title>
<g id="a_node3"><a xlink:href="classipc_1_1session_1_1Server__session__impl.html#a28503a7c6622aacc7e08d4904da10da3" target="_top" xlink:title="Analogous to Client_session_impl::dtor_async_worker_stop(). See that doc header.">
<polygon fill="white" stroke="black" points="0,-0.5 0,-35.5 123,-35.5 123,-0.5 0,-0.5"/>
<text text-anchor="start" x="8" y="-25.1" font-family="Helvetica,sans-Serif" font-size="8.00">ipc::session::Server</text>
<text text-anchor="start" x="8" y="-16.1" font-family="Helvetica,sans-Serif" font-size="8.00">_session_impl::dtor_async</text>
<text text-anchor="middle" x="61.5" y="-7.1" font-family="Helvetica,sans-Serif" font-size="8.00">_worker_stop</text>
</a>
</g>
</g>
<!-- Node1&#45;&gt;Node3 -->
<g id="edge2" class="edge">
<title>Node1&#45;&gt;Node3</title>
<path fill="none" stroke="midnightblue" d="M148.86,-33.19C140.27,-31.68 131.52,-30.14 123.05,-28.65"/>
<polygon fill="midnightblue" stroke="midnightblue" points="148.39,-36.66 158.84,-34.95 149.6,-29.77 148.39,-36.66"/>
</g>
</g>
</svg>
