<?xml version="1.0" encoding="UTF-8" standalone="no"?>
<!DOCTYPE svg PUBLIC "-//W3C//DTD SVG 1.1//EN"
 "http://www.w3.org/Graphics/SVG/1.1/DTD/svg11.dtd">
<!-- Generated by graphviz version 2.43.0 (0)
 -->
<!-- Title: ipc::transport::sync_io::Native_socket_stream::Impl::release Pages: 1 -->
<svg width="472pt" height="136pt"
 viewBox="0.00 0.00 472.00 136.00" xmlns="http://www.w3.org/2000/svg" xmlns:xlink="http://www.w3.org/1999/xlink">
<g id="graph0" class="graph" transform="scale(1 1) rotate(0) translate(4 132)">
<title>ipc::transport::sync_io::Native_socket_stream::Impl::release</title>
<polygon fill="white" stroke="transparent" points="-4,4 -4,-132 468,-132 468,4 -4,4"/>
<!-- Node1 -->
<g id="node1" class="node">
<title>Node1</title>
<g id="a_node1"><a xlink:title="See Native_socket_stream counterpart.">
<polygon fill="#bfbfbf" stroke="black" points="0,-46.5 0,-81.5 123,-81.5 123,-46.5 0,-46.5"/>
<text text-anchor="start" x="8" y="-71.1" font-family="Helvetica,sans-Serif" font-size="8.00">ipc::transport::sync</text>
<text text-anchor="start" x="8" y="-62.1" font-family="Helvetica,sans-Serif" font-size="8.00">_io::Native_socket_stream</text>
<text text-anchor="middle" x="61.5" y="-53.1" font-family="Helvetica,sans-Serif" font-size="8.00">::Impl::release</text>
</a>
</g>
</g>
<!-- Node2 -->
<g id="node2" class="node">
<title>Node2</title>
<g id="a_node2"><a xlink:href="classipc_1_1transport_1_1sync__io_1_1Native__socket__stream.html#aac68d14f4ef33505399df4fd04cd4669" target="_top" xlink:title="Returns logger (possibly null).">
<polygon fill="white" stroke="black" points="159,-92.5 159,-127.5 282,-127.5 282,-92.5 159,-92.5"/>
<text text-anchor="start" x="167" y="-117.1" font-family="Helvetica,sans-Serif" font-size="8.00">ipc::transport::sync</text>
<text text-anchor="start" x="167" y="-108.1" font-family="Helvetica,sans-Serif" font-size="8.00">_io::Native_socket_stream</text>
<text text-anchor="middle" x="220.5" y="-99.1" font-family="Helvetica,sans-Serif" font-size="8.00">::get_logger</text>
</a>
</g>
</g>
<!-- Node1&#45;&gt;Node2 -->
<g id="edge1" class="edge">
<title>Node1&#45;&gt;Node2</title>
<path fill="none" stroke="midnightblue" d="M122.3,-81.52C131.28,-84.15 140.59,-86.88 149.75,-89.56"/>
<polygon fill="midnightblue" stroke="midnightblue" points="149.02,-93 159.6,-92.45 150.99,-86.28 149.02,-93"/>
</g>
<!-- Node3 -->
<g id="node3" class="node">
<title>Node3</title>
<g id="a_node3"><a xlink:href="classipc_1_1transport_1_1sync__io_1_1Native__socket__stream.html#a8e3703d5c8bac62f828a372691249c85" target="_top" xlink:title="Helper that simply returns m_impl while guaranteeing that m_impl is non&#45;null upon return.">
<polygon fill="white" stroke="black" points="318,-74 318,-100 464,-100 464,-74 318,-74"/>
<text text-anchor="start" x="326" y="-89.6" font-family="Helvetica,sans-Serif" font-size="8.00">ipc::transport::sync</text>
<text text-anchor="middle" x="391" y="-80.6" font-family="Helvetica,sans-Serif" font-size="8.00">_io::Native_socket_stream::impl</text>
</a>
</g>
</g>
<!-- Node1&#45;&gt;Node3 -->
<g id="edge3" class="edge">
<title>Node1&#45;&gt;Node3</title>
<path fill="none" stroke="midnightblue" d="M123.33,-68.27C175.25,-71.92 250.37,-77.19 307.66,-81.22"/>
<polygon fill="midnightblue" stroke="midnightblue" points="307.56,-84.72 317.78,-81.93 308.05,-77.74 307.56,-84.72"/>
</g>
<!-- Node4 -->
<g id="node4" class="node">
<title>Node4</title>
<g id="a_node4"><a xlink:href="classipc_1_1transport_1_1sync__io_1_1Native__socket__stream.html#a3176682a76814cc3f0fe5b79f7665aec" target="_top" xlink:title="Default ctor (object is in NULL state).">
<polygon fill="white" stroke="black" points="159,-0.5 159,-35.5 282,-35.5 282,-0.5 159,-0.5"/>
<text text-anchor="start" x="167" y="-25.1" font-family="Helvetica,sans-Serif" font-size="8.00">ipc::transport::sync</text>
<text text-anchor="start" x="167" y="-16.1" font-family="Helvetica,sans-Serif" font-size="8.00">_io::Native_socket_stream</text>
<text text-anchor="middle" x="220.5" y="-7.1" font-family="Helvetica,sans-Serif" font-size="8.00">::Native_socket_stream</text>
</a>
</g>
</g>
<!-- Node1&#45;&gt;Node4 -->
<g id="edge4" class="edge">
<title>Node1&#45;&gt;Node4</title>
<path fill="none" stroke="midnightblue" d="M122.3,-46.48C131.28,-43.85 140.59,-41.12 149.75,-38.44"/>
<polygon fill="midnightblue" stroke="midnightblue" points="150.99,-41.72 159.6,-35.55 149.02,-35 150.99,-41.72"/>
</g>
<!-- Node2&#45;&gt;Node3 -->
<g id="edge2" class="edge">
<title>Node2&#45;&gt;Node3</title>
<path fill="none" stroke="midnightblue" d="M282.33,-101.7C290.6,-100.57 299.19,-99.4 307.76,-98.23"/>
<polygon fill="midnightblue" stroke="midnightblue" points="308.34,-101.68 317.78,-96.86 307.4,-94.74 308.34,-101.68"/>
</g>
</g>
</svg>
