<?xml version="1.0" encoding="UTF-8" standalone="no"?>
<!DOCTYPE svg PUBLIC "-//W3C//DTD SVG 1.1//EN"
 "http://www.w3.org/Graphics/SVG/1.1/DTD/svg11.dtd">
<!-- Generated by graphviz version 2.43.0 (0)
 -->
<!-- Title: ipc::transport::sync_io::Blob_stream_mq_receiver_impl::operator&lt;&lt; Pages: 1 -->
<svg width="318pt" height="98pt"
 viewBox="0.00 0.00 318.00 98.00" xmlns="http://www.w3.org/2000/svg" xmlns:xlink="http://www.w3.org/1999/xlink">
<g id="graph0" class="graph" transform="scale(1 1) rotate(0) translate(4 94)">
<title>ipc::transport::sync_io::Blob_stream_mq_receiver_impl::operator&lt;&lt;</title>
<polygon fill="white" stroke="transparent" points="-4,4 -4,-94 314,-94 314,4 -4,4"/>
<!-- Node1 -->
<g id="node1" class="node">
<title>Node1</title>
<g id="a_node1"><a xlink:title="Prints string representation of the given Blob_stream_mq_receiver_impl to the given ostream.">
<polygon fill="#bfbfbf" stroke="black" points="0,-27.5 0,-62.5 137,-62.5 137,-27.5 0,-27.5"/>
<text text-anchor="start" x="8" y="-52.1" font-family="Helvetica,sans-Serif" font-size="8.00">ipc::transport::sync</text>
<text text-anchor="start" x="8" y="-43.1" font-family="Helvetica,sans-Serif" font-size="8.00">_io::Blob_stream_mq_receiver</text>
<text text-anchor="middle" x="68.5" y="-34.1" font-family="Helvetica,sans-Serif" font-size="8.00">_impl::operator&lt;&lt;</text>
</a>
</g>
</g>
<!-- Node2 -->
<g id="node2" class="node">
<title>Node2</title>
<g id="a_node2"><a xlink:href="classipc_1_1transport_1_1sync__io_1_1Blob__stream__mq__receiver__impl.html#acf5dd76c0d00746137fe6adedfa4c26d" target="_top" xlink:title="See Blob_stream_mq_receiver counterpart, but assuming PEER state.">
<polygon fill="white" stroke="black" points="173,-54.5 173,-89.5 310,-89.5 310,-54.5 173,-54.5"/>
<text text-anchor="start" x="181" y="-79.1" font-family="Helvetica,sans-Serif" font-size="8.00">ipc::transport::sync</text>
<text text-anchor="start" x="181" y="-70.1" font-family="Helvetica,sans-Serif" font-size="8.00">_io::Blob_stream_mq_receiver</text>
<text text-anchor="middle" x="241.5" y="-61.1" font-family="Helvetica,sans-Serif" font-size="8.00">_impl::absolute_name</text>
</a>
</g>
</g>
<!-- Node1&#45;&gt;Node2 -->
<g id="edge1" class="edge">
<title>Node1&#45;&gt;Node2</title>
<path fill="none" stroke="midnightblue" d="M137.08,-55.67C145.54,-57.01 154.24,-58.38 162.83,-59.74"/>
<polygon fill="midnightblue" stroke="midnightblue" points="162.42,-63.22 172.85,-61.32 163.52,-56.3 162.42,-63.22"/>
</g>
<!-- Node3 -->
<g id="node3" class="node">
<title>Node3</title>
<g id="a_node3"><a xlink:href="classipc_1_1transport_1_1sync__io_1_1Blob__stream__mq__receiver__impl.html#adaf3579ec3abf0b5d85258965d264660" target="_top" xlink:title="See Blob_stream_mq_receiver counterpart, but assuming PEER state.">
<polygon fill="white" stroke="black" points="173,-0.5 173,-35.5 310,-35.5 310,-0.5 173,-0.5"/>
<text text-anchor="start" x="181" y="-25.1" font-family="Helvetica,sans-Serif" font-size="8.00">ipc::transport::sync</text>
<text text-anchor="start" x="181" y="-16.1" font-family="Helvetica,sans-Serif" font-size="8.00">_io::Blob_stream_mq_receiver</text>
<text text-anchor="middle" x="241.5" y="-7.1" font-family="Helvetica,sans-Serif" font-size="8.00">_impl::nickname</text>
</a>
</g>
</g>
<!-- Node1&#45;&gt;Node3 -->
<g id="edge2" class="edge">
<title>Node1&#45;&gt;Node3</title>
<path fill="none" stroke="midnightblue" d="M137.08,-34.33C145.54,-32.99 154.24,-31.62 162.83,-30.26"/>
<polygon fill="midnightblue" stroke="midnightblue" points="163.52,-33.7 172.85,-28.68 162.42,-26.78 163.52,-33.7"/>
</g>
</g>
</svg>
