<?xml version="1.0" encoding="UTF-8" standalone="no"?>
<!DOCTYPE svg PUBLIC "-//W3C//DTD SVG 1.1//EN"
 "http://www.w3.org/Graphics/SVG/1.1/DTD/svg11.dtd">
<!-- Generated by graphviz version 2.43.0 (0)
 -->
<!-- Title: ipc::transport::Blob_stream_mq_receiver_impl::Blob_stream_mq_receiver_impl Pages: 1 -->
<svg width="329pt" height="98pt"
 viewBox="0.00 0.00 329.00 98.00" xmlns="http://www.w3.org/2000/svg" xmlns:xlink="http://www.w3.org/1999/xlink">
<g id="graph0" class="graph" transform="scale(1 1) rotate(0) translate(4 94)">
<title>ipc::transport::Blob_stream_mq_receiver_impl::Blob_stream_mq_receiver_impl</title>
<polygon fill="white" stroke="transparent" points="-4,4 -4,-94 325,-94 325,4 -4,4"/>
<!-- Node1 -->
<g id="node1" class="node">
<title>Node1</title>
<g id="a_node1"><a xlink:title="See Blob_stream_mq_receiver counterpart.">
<polygon fill="#bfbfbf" stroke="black" points="0,-27.5 0,-62.5 147,-62.5 147,-27.5 0,-27.5"/>
<text text-anchor="start" x="8" y="-52.1" font-family="Helvetica,sans-Serif" font-size="8.00">ipc::transport::Blob</text>
<text text-anchor="start" x="8" y="-43.1" font-family="Helvetica,sans-Serif" font-size="8.00">_stream_mq_receiver_impl</text>
<text text-anchor="middle" x="73.5" y="-34.1" font-family="Helvetica,sans-Serif" font-size="8.00">::Blob_stream_mq_receiver_impl</text>
</a>
</g>
</g>
<!-- Node2 -->
<g id="node2" class="node">
<title>Node2</title>
<g id="a_node2"><a xlink:href="classipc_1_1transport_1_1Blob__stream__mq__receiver__impl.html#a18e57d5884e3da4af1374e6ec7ff31fd" target="_top" xlink:title="See Blob_stream_mq_receiver counterpart, but assuming PEER state.">
<polygon fill="white" stroke="black" points="190.5,-54.5 190.5,-89.5 313.5,-89.5 313.5,-54.5 190.5,-54.5"/>
<text text-anchor="start" x="198.5" y="-79.1" font-family="Helvetica,sans-Serif" font-size="8.00">ipc::transport::Blob</text>
<text text-anchor="start" x="198.5" y="-70.1" font-family="Helvetica,sans-Serif" font-size="8.00">_stream_mq_receiver_impl</text>
<text text-anchor="middle" x="252" y="-61.1" font-family="Helvetica,sans-Serif" font-size="8.00">::nickname</text>
</a>
</g>
</g>
<!-- Node1&#45;&gt;Node2 -->
<g id="edge1" class="edge">
<title>Node1&#45;&gt;Node2</title>
<path fill="none" stroke="midnightblue" d="M147.05,-56.1C158.05,-57.78 169.37,-59.51 180.32,-61.19"/>
<polygon fill="midnightblue" stroke="midnightblue" points="179.84,-64.66 190.26,-62.71 180.9,-57.74 179.84,-64.66"/>
</g>
<!-- Node3 -->
<g id="node3" class="node">
<title>Node3</title>
<g id="a_node3"><a xlink:href="classipc_1_1transport_1_1sync__io_1_1Blob__stream__mq__receiver.html#a4723fb00e3e94b132a8b3ba5ce4e7405" target="_top" xlink:title="Implements Blob_receiver API per contract.">
<polygon fill="white" stroke="black" points="183,-0.5 183,-35.5 321,-35.5 321,-0.5 183,-0.5"/>
<text text-anchor="start" x="191" y="-25.1" font-family="Helvetica,sans-Serif" font-size="8.00">ipc::transport::sync</text>
<text text-anchor="start" x="191" y="-16.1" font-family="Helvetica,sans-Serif" font-size="8.00">_io::Blob_stream_mq_receiver</text>
<text text-anchor="middle" x="252" y="-7.1" font-family="Helvetica,sans-Serif" font-size="8.00">::replace_event_wait_handles</text>
</a>
</g>
</g>
<!-- Node1&#45;&gt;Node3 -->
<g id="edge2" class="edge">
<title>Node1&#45;&gt;Node3</title>
<path fill="none" stroke="midnightblue" d="M147.05,-33.9C155.6,-32.59 164.34,-31.26 172.95,-29.94"/>
<polygon fill="midnightblue" stroke="midnightblue" points="173.63,-33.38 182.99,-28.4 172.57,-26.46 173.63,-33.38"/>
</g>
</g>
</svg>
