<?xml version="1.0" encoding="UTF-8" standalone="no"?>
<!DOCTYPE svg PUBLIC "-//W3C//DTD SVG 1.1//EN"
 "http://www.w3.org/Graphics/SVG/1.1/DTD/svg11.dtd">
<!-- Generated by graphviz version 2.43.0 (0)
 -->
<!-- Title: ipc::session::sync_io::Session_adapter&lt; Session &gt; Pages: 1 -->
<svg width="560pt" height="521pt"
 viewBox="0.00 0.00 560.00 520.50" xmlns="http://www.w3.org/2000/svg" xmlns:xlink="http://www.w3.org/1999/xlink">
<g id="graph0" class="graph" transform="scale(1 1) rotate(0) translate(4 516.5)">
<title>ipc::session::sync_io::Session_adapter&lt; Session &gt;</title>
<polygon fill="white" stroke="transparent" points="-4,4 -4,-516.5 556,-516.5 556,4 -4,4"/>
<!-- Node1 -->
<g id="node1" class="node">
<title>Node1</title>
<g id="a_node1"><a xlink:title="Internal&#45;use workhorse containing common elements of Client_session_adapter and Server_session_adapte...">
<polygon fill="#bfbfbf" stroke="black" points="450,-209 450,-244 552,-244 552,-209 450,-209"/>
<text text-anchor="start" x="458" y="-233.6" font-family="Helvetica,sans-Serif" font-size="8.00">ipc::session::sync</text>
<text text-anchor="start" x="458" y="-224.6" font-family="Helvetica,sans-Serif" font-size="8.00">_io::Session_adapter</text>
<text text-anchor="middle" x="501" y="-215.6" font-family="Helvetica,sans-Serif" font-size="8.00">&lt; Session &gt;</text>
</a>
</g>
</g>
<!-- Node2 -->
<g id="node2" class="node">
<title>Node2</title>
<g id="a_node2"><a xlink:title=" ">
<polygon fill="white" stroke="#bfbfbf" points="203,-467 203,-484 270,-484 270,-467 203,-467"/>
<text text-anchor="middle" x="236.5" y="-473.6" font-family="Helvetica,sans-Serif" font-size="8.00">Task_engine</text>
</a>
</g>
</g>
<!-- Node2&#45;&gt;Node1 -->
<g id="edge1" class="edge">
<title>Node2&#45;&gt;Node1</title>
<path fill="none" stroke="#9a32cd" stroke-dasharray="5,2" d="M280.19,-483.1C323.46,-488.24 389.88,-488.71 432,-453.5 496.4,-399.68 501.34,-287.49 500.69,-244.13"/>
<polygon fill="#9a32cd" stroke="#9a32cd" points="280.62,-479.63 270.25,-481.79 279.71,-486.57 280.62,-479.63"/>
<text text-anchor="start" x="328" y="-506.1" font-family="Helvetica,sans-Serif" font-size="8.00"> m_ev_hndl_task_engine</text>
<text text-anchor="middle" x="377.5" y="-497.1" font-family="Helvetica,sans-Serif" font-size="8.00">_unused</text>
<text text-anchor="middle" x="377.5" y="-488.1" font-family="Helvetica,sans-Serif" font-size="8.00">m_nb_task_engine</text>
</g>
<!-- Node3 -->
<g id="node3" class="node">
<title>Node3</title>
<g id="a_node3"><a xlink:title=" ">
<polygon fill="white" stroke="#bfbfbf" points="199,-426 199,-443 274,-443 274,-426 199,-426"/>
<text text-anchor="middle" x="236.5" y="-432.6" font-family="Helvetica,sans-Serif" font-size="8.00">readable_pipe</text>
</a>
</g>
</g>
<!-- Node3&#45;&gt;Node1 -->
<g id="edge2" class="edge">
<title>Node3&#45;&gt;Node1</title>
<path fill="none" stroke="#9a32cd" stroke-dasharray="5,2" d="M284.34,-434.46C334.48,-433.47 409.82,-429 432,-411.5 485.19,-369.53 496.78,-281.81 499.3,-244.22"/>
<polygon fill="#9a32cd" stroke="#9a32cd" points="283.99,-430.96 274.05,-434.62 284.1,-437.96 283.99,-430.96"/>
<text text-anchor="middle" x="377.5" y="-444.1" font-family="Helvetica,sans-Serif" font-size="8.00"> m_ready_reader_chan</text>
<text text-anchor="middle" x="377.5" y="-435.1" font-family="Helvetica,sans-Serif" font-size="8.00">m_ready_reader_err</text>
</g>
<!-- Node4 -->
<g id="node4" class="node">
<title>Node4</title>
<g id="a_node4"><a xlink:title=" ">
<polygon fill="white" stroke="#bfbfbf" points="201,-390 201,-407 272,-407 272,-390 201,-390"/>
<text text-anchor="middle" x="236.5" y="-396.6" font-family="Helvetica,sans-Serif" font-size="8.00">writable_pipe</text>
</a>
</g>
</g>
<!-- Node4&#45;&gt;Node1 -->
<g id="edge3" class="edge">
<title>Node4&#45;&gt;Node1</title>
<path fill="none" stroke="#9a32cd" stroke-dasharray="5,2" d="M282.39,-396.59C324.88,-392.67 388.48,-381.11 432,-347.5 466.71,-320.69 486.44,-270.85 494.94,-244.27"/>
<polygon fill="#9a32cd" stroke="#9a32cd" points="282.01,-393.11 272.33,-397.41 282.58,-400.08 282.01,-393.11"/>
<text text-anchor="middle" x="377.5" y="-401.1" font-family="Helvetica,sans-Serif" font-size="8.00"> m_ready_writer_chan</text>
<text text-anchor="middle" x="377.5" y="-392.1" font-family="Helvetica,sans-Serif" font-size="8.00">m_ready_writer_err</text>
</g>
<!-- Node5 -->
<g id="node5" class="node">
<title>Node5</title>
<g id="a_node5"><a xlink:href="classipc_1_1util_1_1sync__io_1_1Asio__waitable__native__handle.html" target="_top" xlink:title="Useful if using the sync_io pattern within a user event loop built on boost.asio (optionally with flo...">
<polygon fill="white" stroke="black" points="182.5,-336 182.5,-371 290.5,-371 290.5,-336 182.5,-336"/>
<text text-anchor="start" x="190.5" y="-360.6" font-family="Helvetica,sans-Serif" font-size="8.00">ipc::util::sync_io</text>
<text text-anchor="start" x="190.5" y="-351.6" font-family="Helvetica,sans-Serif" font-size="8.00">::Asio_waitable_native</text>
<text text-anchor="middle" x="236.5" y="-342.6" font-family="Helvetica,sans-Serif" font-size="8.00">_handle</text>
</a>
</g>
</g>
<!-- Node5&#45;&gt;Node1 -->
<g id="edge4" class="edge">
<title>Node5&#45;&gt;Node1</title>
<path fill="none" stroke="#9a32cd" stroke-dasharray="5,2" d="M300.51,-333.75C339.56,-320.34 390.1,-300.83 432,-277.5 449.02,-268.02 466.57,-254.76 479.57,-244.14"/>
<polygon fill="#9a32cd" stroke="#9a32cd" points="299.19,-330.51 290.84,-337.03 301.43,-337.14 299.19,-330.51"/>
<text text-anchor="middle" x="377.5" y="-337.1" font-family="Helvetica,sans-Serif" font-size="8.00"> m_ev_wait_hndl_chan</text>
<text text-anchor="middle" x="377.5" y="-328.1" font-family="Helvetica,sans-Serif" font-size="8.00">m_ev_wait_hndl_err</text>
</g>
<!-- Node6 -->
<g id="node6" class="node">
<title>Node6</title>
<g id="a_node6"><a xlink:title=" ">
<polygon fill="white" stroke="#bfbfbf" points="0,-340.5 0,-366.5 91,-366.5 91,-340.5 0,-340.5"/>
<text text-anchor="start" x="8" y="-356.1" font-family="Helvetica,sans-Serif" font-size="8.00">boost::asio::posix</text>
<text text-anchor="middle" x="45.5" y="-347.1" font-family="Helvetica,sans-Serif" font-size="8.00">::descriptor</text>
</a>
</g>
</g>
<!-- Node6&#45;&gt;Node5 -->
<g id="edge5" class="edge">
<title>Node6&#45;&gt;Node5</title>
<path fill="none" stroke="darkgreen" d="M101.52,-353.5C126.97,-353.5 157.08,-353.5 182.3,-353.5"/>
<polygon fill="darkgreen" stroke="darkgreen" points="101.29,-350 91.29,-353.5 101.29,-357 101.29,-350"/>
</g>
<!-- Node7 -->
<g id="node7" class="node">
<title>Node7</title>
<g id="a_node7"><a xlink:title=" ">
<polygon fill="white" stroke="#bfbfbf" points="175,-254.5 175,-316.5 298,-316.5 298,-254.5 175,-254.5"/>
<text text-anchor="start" x="183" y="-306.1" font-family="Helvetica,sans-Serif" font-size="8.00">Function&lt; void(Asio</text>
<text text-anchor="start" x="183" y="-297.1" font-family="Helvetica,sans-Serif" font-size="8.00">_waitable_native_handle</text>
<text text-anchor="start" x="183" y="-288.1" font-family="Helvetica,sans-Serif" font-size="8.00"> *hndl_of_interest, bool</text>
<text text-anchor="start" x="183" y="-279.1" font-family="Helvetica,sans-Serif" font-size="8.00"> ev_of_interest_snd_else</text>
<text text-anchor="start" x="183" y="-270.1" font-family="Helvetica,sans-Serif" font-size="8.00">_rcv, Task_ptr &amp;&amp;on_active</text>
<text text-anchor="middle" x="236.5" y="-261.1" font-family="Helvetica,sans-Serif" font-size="8.00">_ev_func)&gt;</text>
</a>
</g>
</g>
<!-- Node7&#45;&gt;Node1 -->
<g id="edge6" class="edge">
<title>Node7&#45;&gt;Node1</title>
<path fill="none" stroke="#9a32cd" stroke-dasharray="5,2" d="M307.99,-269.66C352.78,-259.59 409.69,-246.8 449.88,-237.76"/>
<polygon fill="#9a32cd" stroke="#9a32cd" points="307.04,-266.28 298.05,-271.89 308.58,-273.11 307.04,-266.28"/>
<text text-anchor="middle" x="377.5" y="-267.1" font-family="Helvetica,sans-Serif" font-size="8.00"> m_ev_wait_func</text>
</g>
<!-- Node8 -->
<g id="node8" class="node">
<title>Node8</title>
<g id="a_node8"><a xlink:title=" ">
<polygon fill="white" stroke="#bfbfbf" points="201,-218 201,-235 272,-235 272,-218 201,-218"/>
<text text-anchor="middle" x="236.5" y="-224.6" font-family="Helvetica,sans-Serif" font-size="8.00">Task_asio_err</text>
</a>
</g>
</g>
<!-- Node8&#45;&gt;Node1 -->
<g id="edge7" class="edge">
<title>Node8&#45;&gt;Node1</title>
<path fill="none" stroke="#9a32cd" stroke-dasharray="5,2" d="M282.15,-226.5C328.58,-226.5 401.13,-226.5 449.59,-226.5"/>
<polygon fill="#9a32cd" stroke="#9a32cd" points="282.09,-223 272.09,-226.5 282.09,-230 282.09,-223"/>
<text text-anchor="middle" x="377.5" y="-229.1" font-family="Helvetica,sans-Serif" font-size="8.00"> m_on_err_func</text>
</g>
<!-- Node9 -->
<g id="node9" class="node">
<title>Node9</title>
<g id="a_node9"><a xlink:title=" ">
<polygon fill="white" stroke="#bfbfbf" points="168,-172.5 168,-198.5 305,-198.5 305,-172.5 168,-172.5"/>
<text text-anchor="start" x="176" y="-188.1" font-family="Helvetica,sans-Serif" font-size="8.00">Function&lt; void(Channel</text>
<text text-anchor="middle" x="236.5" y="-179.1" font-family="Helvetica,sans-Serif" font-size="8.00">_obj &amp;&amp;, Mdt_reader_ptr &amp;&amp;)&gt;</text>
</a>
</g>
</g>
<!-- Node9&#45;&gt;Node1 -->
<g id="edge8" class="edge">
<title>Node9&#45;&gt;Node1</title>
<path fill="none" stroke="#9a32cd" stroke-dasharray="5,2" d="M315.48,-189.26C351.25,-191.97 394.06,-196.61 432,-204.5 437.83,-205.71 443.87,-207.24 449.82,-208.93"/>
<polygon fill="#9a32cd" stroke="#9a32cd" points="315.33,-185.74 305.1,-188.52 314.82,-192.73 315.33,-185.74"/>
<text text-anchor="start" x="330" y="-216.1" font-family="Helvetica,sans-Serif" font-size="8.00"> m_on_channel_func_or</text>
<text text-anchor="middle" x="377.5" y="-207.1" font-family="Helvetica,sans-Serif" font-size="8.00">_empty</text>
</g>
<!-- Node10 -->
<g id="node10" class="node">
<title>Node10</title>
<g id="a_node10"><a xlink:title=" ">
<polygon fill="white" stroke="#bfbfbf" points="206.5,-136 206.5,-153 266.5,-153 266.5,-136 206.5,-136"/>
<text text-anchor="middle" x="236.5" y="-142.6" font-family="Helvetica,sans-Serif" font-size="8.00">Error_code</text>
</a>
</g>
</g>
<!-- Node10&#45;&gt;Node1 -->
<g id="edge9" class="edge">
<title>Node10&#45;&gt;Node1</title>
<path fill="none" stroke="#9a32cd" stroke-dasharray="5,2" d="M276.92,-145.61C317.3,-147.96 381.19,-155.1 432,-176.5 450.37,-184.23 468.41,-197.86 481.29,-208.94"/>
<polygon fill="#9a32cd" stroke="#9a32cd" points="276.85,-142.1 266.68,-145.09 276.49,-149.09 276.85,-142.1"/>
<text text-anchor="middle" x="377.5" y="-179.1" font-family="Helvetica,sans-Serif" font-size="8.00"> m_target_err_code_err</text>
</g>
<!-- Node11 -->
<g id="node11" class="node">
<title>Node11</title>
<g id="a_node11"><a xlink:title=" ">
<polygon fill="white" stroke="black" points="180.5,-82 180.5,-117 292.5,-117 292.5,-82 180.5,-82"/>
<text text-anchor="start" x="188.5" y="-106.6" font-family="Helvetica,sans-Serif" font-size="8.00">std::queue&lt; typename</text>
<text text-anchor="start" x="188.5" y="-97.6" font-family="Helvetica,sans-Serif" font-size="8.00"> Channel_open_result</text>
<text text-anchor="middle" x="236.5" y="-88.6" font-family="Helvetica,sans-Serif" font-size="8.00">::Ptr &gt;</text>
</a>
</g>
</g>
<!-- Node11&#45;&gt;Node1 -->
<g id="edge10" class="edge">
<title>Node11&#45;&gt;Node1</title>
<path fill="none" stroke="#9a32cd" stroke-dasharray="5,2" d="M303.06,-100.28C342.94,-103.47 393.46,-112.56 432,-136.5 460.28,-154.07 480.99,-187.99 491.71,-208.8"/>
<polygon fill="#9a32cd" stroke="#9a32cd" points="303.12,-96.78 292.9,-99.58 302.63,-103.76 303.12,-96.78"/>
<text text-anchor="middle" x="377.5" y="-139.1" font-family="Helvetica,sans-Serif" font-size="8.00"> m_target_channel_open_q</text>
</g>
<!-- Node12 -->
<g id="node12" class="node">
<title>Node12</title>
<g id="a_node12"><a xlink:title=" ">
<polygon fill="white" stroke="#bfbfbf" points="31,-91 31,-108 60,-108 60,-91 31,-91"/>
<text text-anchor="middle" x="45.5" y="-97.6" font-family="Helvetica,sans-Serif" font-size="8.00">Ptr</text>
</a>
</g>
</g>
<!-- Node12&#45;&gt;Node11 -->
<g id="edge11" class="edge">
<title>Node12&#45;&gt;Node11</title>
<path fill="none" stroke="#9a32cd" stroke-dasharray="5,2" d="M70.31,-99.5C97.76,-99.5 143.78,-99.5 180.29,-99.5"/>
<polygon fill="#9a32cd" stroke="#9a32cd" points="70.09,-96 60.09,-99.5 70.09,-103 70.09,-96"/>
<text text-anchor="middle" x="129.5" y="-102.1" font-family="Helvetica,sans-Serif" font-size="8.00"> elements</text>
</g>
<!-- Node13 -->
<g id="node13" class="node">
<title>Node13</title>
<g id="a_node13"><a xlink:title=" ">
<polygon fill="white" stroke="#bfbfbf" points="186,-46 186,-63 287,-63 287,-46 186,-46"/>
<text text-anchor="middle" x="236.5" y="-52.6" font-family="Helvetica,sans-Serif" font-size="8.00">Mutex_non_recursive</text>
</a>
</g>
</g>
<!-- Node13&#45;&gt;Node1 -->
<g id="edge12" class="edge">
<title>Node13&#45;&gt;Node1</title>
<path fill="none" stroke="#9a32cd" stroke-dasharray="5,2" d="M297.07,-48.29C338.68,-47.09 393.46,-52.17 432,-80.5 474.81,-111.97 491.53,-177.15 497.31,-208.67"/>
<polygon fill="#9a32cd" stroke="#9a32cd" points="296.91,-44.79 287.06,-48.7 297.2,-51.78 296.91,-44.79"/>
<text text-anchor="start" x="327.5" y="-92.1" font-family="Helvetica,sans-Serif" font-size="8.00"> m_target_channel_open</text>
<text text-anchor="middle" x="377.5" y="-83.1" font-family="Helvetica,sans-Serif" font-size="8.00">_q_mutex</text>
</g>
<!-- Node14 -->
<g id="node14" class="node">
<title>Node14</title>
<g id="a_node14"><a xlink:title=" ">
<polygon fill="white" stroke="#bfbfbf" points="182,-0.5 182,-26.5 291,-26.5 291,-0.5 182,-0.5"/>
<text text-anchor="start" x="190" y="-16.1" font-family="Helvetica,sans-Serif" font-size="8.00">optional&lt; ipc::session</text>
<text text-anchor="middle" x="236.5" y="-7.1" font-family="Helvetica,sans-Serif" font-size="8.00">::Session &gt;</text>
</a>
</g>
</g>
<!-- Node14&#45;&gt;Node1 -->
<g id="edge13" class="edge">
<title>Node14&#45;&gt;Node1</title>
<path fill="none" stroke="#9a32cd" stroke-dasharray="5,2" d="M301.1,-4.17C342.57,-1.67 395.57,-5.7 432,-34.5 487.34,-78.25 497.72,-170.42 499.61,-208.96"/>
<polygon fill="#9a32cd" stroke="#9a32cd" points="300.8,-0.68 291.09,-4.91 301.32,-7.67 300.8,-0.68"/>
<text text-anchor="middle" x="377.5" y="-37.1" font-family="Helvetica,sans-Serif" font-size="8.00"> m_async_io</text>
</g>
</g>
</svg>
