<?xml version="1.0" encoding="UTF-8" standalone="no"?>
<!DOCTYPE svg PUBLIC "-//W3C//DTD SVG 1.1//EN"
 "http://www.w3.org/Graphics/SVG/1.1/DTD/svg11.dtd">
<!-- Generated by graphviz version 2.43.0 (0)
 -->
<!-- Title: ipc::transport::Posix_mq_handle::send Pages: 1 -->
<svg width="568pt" height="182pt"
 viewBox="0.00 0.00 568.00 181.50" xmlns="http://www.w3.org/2000/svg" xmlns:xlink="http://www.w3.org/1999/xlink">
<g id="graph0" class="graph" transform="scale(1 1) rotate(0) translate(4 177.5)">
<title>ipc::transport::Posix_mq_handle::send</title>
<polygon fill="white" stroke="transparent" points="-4,4 -4,-177.5 564,-177.5 564,4 -4,4"/>
<!-- Node1 -->
<g id="node1" class="node">
<title>Node1</title>
<g id="a_node1"><a xlink:title="Implements Persistent_mq_handle API: Blocking send: pushes copy of message to queue; if queue is full...">
<polygon fill="#bfbfbf" stroke="black" points="0,-83.5 0,-109.5 99,-109.5 99,-83.5 0,-83.5"/>
<text text-anchor="start" x="8" y="-99.1" font-family="Helvetica,sans-Serif" font-size="8.00">ipc::transport::Posix</text>
<text text-anchor="middle" x="49.5" y="-90.1" font-family="Helvetica,sans-Serif" font-size="8.00">_mq_handle::send</text>
</a>
</g>
</g>
<!-- Node1&#45;&gt;Node1 -->
<g id="edge4" class="edge">
<title>Node1&#45;&gt;Node1</title>
<path fill="none" stroke="midnightblue" d="M24.12,-109.77C16.43,-118.96 24.89,-128 49.5,-128 64.5,-128 73.5,-124.64 76.5,-119.94"/>
<polygon fill="midnightblue" stroke="midnightblue" points="79.91,-119.1 74.88,-109.77 72.99,-120.2 79.91,-119.1"/>
</g>
<!-- Node2 -->
<g id="node2" class="node">
<title>Node2</title>
<g id="a_node2"><a xlink:href="namespaceipc_1_1util.html#a2bb38cee29dacbe56de5182221b45941" target="_top" xlink:title="Syntactic&#45;sugary helper that returns pointer to first byte in an immutable buffer,...">
<polygon fill="white" stroke="black" points="153.5,-156 153.5,-173 247.5,-173 247.5,-156 153.5,-156"/>
<text text-anchor="middle" x="200.5" y="-162.6" font-family="Helvetica,sans-Serif" font-size="8.00">ipc::util::blob_data</text>
</a>
</g>
</g>
<!-- Node1&#45;&gt;Node2 -->
<g id="edge1" class="edge">
<title>Node1&#45;&gt;Node2</title>
<path fill="none" stroke="midnightblue" d="M69.21,-109.52C85.85,-120.61 111.17,-136.33 135,-146.5 140.55,-148.87 146.5,-151.01 152.46,-152.93"/>
<polygon fill="midnightblue" stroke="midnightblue" points="151.84,-156.4 162.43,-155.95 153.87,-149.7 151.84,-156.4"/>
</g>
<!-- Node3 -->
<g id="node3" class="node">
<title>Node3</title>
<g id="a_node3"><a xlink:href="classipc_1_1transport_1_1Posix__mq__handle.html#a244ee5da96550553edca346d77c2a825" target="_top" xlink:title="Helper that handles the result of an mq_*() call by logging WARNING(s) on error; setting *err_code on...">
<polygon fill="white" stroke="black" points="142.5,-102 142.5,-137 258.5,-137 258.5,-102 142.5,-102"/>
<text text-anchor="start" x="150.5" y="-126.6" font-family="Helvetica,sans-Serif" font-size="8.00">ipc::transport::Posix</text>
<text text-anchor="start" x="150.5" y="-117.6" font-family="Helvetica,sans-Serif" font-size="8.00">_mq_handle::handle_mq</text>
<text text-anchor="middle" x="200.5" y="-108.6" font-family="Helvetica,sans-Serif" font-size="8.00">_api_result</text>
</a>
</g>
</g>
<!-- Node1&#45;&gt;Node3 -->
<g id="edge2" class="edge">
<title>Node1&#45;&gt;Node3</title>
<path fill="none" stroke="midnightblue" d="M99.29,-104.03C109.82,-105.66 121.12,-107.4 132.21,-109.11"/>
<polygon fill="midnightblue" stroke="midnightblue" points="131.9,-112.61 142.31,-110.67 132.96,-105.69 131.9,-112.61"/>
</g>
<!-- Node4 -->
<g id="node4" class="node">
<title>Node4</title>
<g id="a_node4"><a xlink:href="structipc_1_1util_1_1Native__handle.html#a11bd62ce0a7bef4bdfe666201c26d4dc" target="_top" xlink:title="Returns true if and only if m_native_handle equals S_NULL_HANDLE.">
<polygon fill="white" stroke="black" points="448,-30.5 448,-56.5 560,-56.5 560,-30.5 448,-30.5"/>
<text text-anchor="start" x="456" y="-46.1" font-family="Helvetica,sans-Serif" font-size="8.00">ipc::util::Native_handle</text>
<text text-anchor="middle" x="504" y="-37.1" font-family="Helvetica,sans-Serif" font-size="8.00">::null</text>
</a>
</g>
</g>
<!-- Node1&#45;&gt;Node4 -->
<g id="edge3" class="edge">
<title>Node1&#45;&gt;Node4</title>
<path fill="none" stroke="midnightblue" d="M99.36,-90.78C181.19,-81.19 345.99,-61.89 437.68,-51.15"/>
<polygon fill="midnightblue" stroke="midnightblue" points="438.15,-54.62 447.67,-49.98 437.33,-47.67 438.15,-54.62"/>
</g>
<!-- Node5 -->
<g id="node5" class="node">
<title>Node5</title>
<g id="a_node5"><a xlink:href="classipc_1_1transport_1_1Posix__mq__handle.html#acf32c33a96d66436628153c74d4a8eb9" target="_top" xlink:title="Implements Persistent_mq_handle API: Like send() but without the actual pushing of a message.">
<polygon fill="white" stroke="black" points="135,-9.5 135,-35.5 266,-35.5 266,-9.5 135,-9.5"/>
<text text-anchor="start" x="143" y="-25.1" font-family="Helvetica,sans-Serif" font-size="8.00">ipc::transport::Posix</text>
<text text-anchor="middle" x="200.5" y="-16.1" font-family="Helvetica,sans-Serif" font-size="8.00">_mq_handle::wait_sendable</text>
</a>
</g>
</g>
<!-- Node1&#45;&gt;Node5 -->
<g id="edge5" class="edge">
<title>Node1&#45;&gt;Node5</title>
<path fill="none" stroke="midnightblue" d="M76.8,-83.44C101.08,-71.38 137.35,-53.37 164.16,-40.05"/>
<polygon fill="midnightblue" stroke="midnightblue" points="165.82,-43.14 173.22,-35.55 162.7,-36.87 165.82,-43.14"/>
</g>
<!-- Node6 -->
<g id="node6" class="node">
<title>Node6</title>
<g id="a_node6"><a xlink:href="classipc_1_1transport_1_1Posix__mq__handle.html#a64e44dd9a0e2ba1f870a231ffcf02fb9" target="_top" xlink:title="Impl body for *_sendable() and *_receivable().">
<polygon fill="white" stroke="black" points="302,-0.5 302,-26.5 412,-26.5 412,-0.5 302,-0.5"/>
<text text-anchor="start" x="310" y="-16.1" font-family="Helvetica,sans-Serif" font-size="8.00">ipc::transport::Posix</text>
<text text-anchor="middle" x="357" y="-7.1" font-family="Helvetica,sans-Serif" font-size="8.00">_mq_handle::wait_impl</text>
</a>
</g>
</g>
<!-- Node5&#45;&gt;Node6 -->
<g id="edge6" class="edge">
<title>Node5&#45;&gt;Node6</title>
<path fill="none" stroke="midnightblue" d="M266.13,-18.74C274.59,-18.24 283.27,-17.74 291.72,-17.24"/>
<polygon fill="midnightblue" stroke="midnightblue" points="292.13,-20.73 301.91,-16.65 291.72,-13.74 292.13,-20.73"/>
</g>
<!-- Node6&#45;&gt;Node4 -->
<g id="edge7" class="edge">
<title>Node6&#45;&gt;Node4</title>
<path fill="none" stroke="midnightblue" d="M412.41,-24.76C420.72,-26.48 429.38,-28.27 437.9,-30.03"/>
<polygon fill="midnightblue" stroke="midnightblue" points="437.31,-33.48 447.81,-32.08 438.72,-26.63 437.31,-33.48"/>
</g>
<!-- Node6&#45;&gt;Node6 -->
<g id="edge8" class="edge">
<title>Node6&#45;&gt;Node6</title>
<path fill="none" stroke="midnightblue" d="M332.3,-26.77C324.81,-35.96 333.05,-45 357,-45 371.6,-45 380.36,-41.64 383.28,-36.94"/>
<polygon fill="midnightblue" stroke="midnightblue" points="386.69,-36.12 381.7,-26.77 379.77,-37.19 386.69,-36.12"/>
</g>
</g>
</svg>
