<?xml version="1.0" encoding="UTF-8" standalone="no"?>
<!DOCTYPE svg PUBLIC "-//W3C//DTD SVG 1.1//EN"
 "http://www.w3.org/Graphics/SVG/1.1/DTD/svg11.dtd">
<!-- Generated by graphviz version 2.43.0 (0)
 -->
<!-- Title: ipc::transport::Native_socket_stream_acceptor::on_next_peer_socket_or_error Pages: 1 -->
<svg width="489pt" height="189pt"
 viewBox="0.00 0.00 489.00 189.00" xmlns="http://www.w3.org/2000/svg" xmlns:xlink="http://www.w3.org/1999/xlink">
<g id="graph0" class="graph" transform="scale(1 1) rotate(0) translate(4 185)">
<title>ipc::transport::Native_socket_stream_acceptor::on_next_peer_socket_or_error</title>
<polygon fill="white" stroke="transparent" points="-4,4 -4,-185 485,-185 485,4 -4,4"/>
<!-- Node1 -->
<g id="node1" class="node">
<title>Node1</title>
<g id="a_node1"><a xlink:title="Handler for incoming connection on m_acceptor.">
<polygon fill="#bfbfbf" stroke="black" points="0,-59.5 0,-94.5 143,-94.5 143,-59.5 0,-59.5"/>
<text text-anchor="start" x="8" y="-84.1" font-family="Helvetica,sans-Serif" font-size="8.00">ipc::transport::Native</text>
<text text-anchor="start" x="8" y="-75.1" font-family="Helvetica,sans-Serif" font-size="8.00">_socket_stream_acceptor</text>
<text text-anchor="middle" x="71.5" y="-66.1" font-family="Helvetica,sans-Serif" font-size="8.00">::on_next_peer_socket_or_error</text>
</a>
</g>
</g>
<!-- Node1&#45;&gt;Node1 -->
<g id="edge6" class="edge">
<title>Node1&#45;&gt;Node1</title>
<path fill="none" stroke="midnightblue" d="M40.22,-94.78C34.91,-104.31 45.33,-113 71.5,-113 87.45,-113 97.55,-109.77 101.8,-105.1"/>
<polygon fill="midnightblue" stroke="midnightblue" points="105.32,-105.07 102.78,-94.78 98.35,-104.41 105.32,-105.07"/>
</g>
<!-- Node2 -->
<g id="node2" class="node">
<title>Node2</title>
<g id="a_node2"><a xlink:href="classipc_1_1transport_1_1Native__socket__stream__acceptor.html#a6c7c14574c041bcfd1ccb45137b486b4" target="_top" xlink:title="In thread W, in steady state except for an Error_code just pushed to the back of m_pending_results_q ...">
<polygon fill="white" stroke="black" points="179,-145.5 179,-180.5 312,-180.5 312,-145.5 179,-145.5"/>
<text text-anchor="start" x="187" y="-170.1" font-family="Helvetica,sans-Serif" font-size="8.00">ipc::transport::Native</text>
<text text-anchor="start" x="187" y="-161.1" font-family="Helvetica,sans-Serif" font-size="8.00">_socket_stream_acceptor</text>
<text text-anchor="middle" x="245.5" y="-152.1" font-family="Helvetica,sans-Serif" font-size="8.00">::finalize_q_surplus_on_error</text>
</a>
</g>
</g>
<!-- Node1&#45;&gt;Node2 -->
<g id="edge1" class="edge">
<title>Node1&#45;&gt;Node2</title>
<path fill="none" stroke="midnightblue" d="M102.86,-94.53C123.95,-106.46 152.86,-122.33 179,-135 183.29,-137.08 187.78,-139.17 192.31,-141.22"/>
<polygon fill="midnightblue" stroke="midnightblue" points="191.04,-144.49 201.6,-145.35 193.89,-138.09 191.04,-144.49"/>
</g>
<!-- Node4 -->
<g id="node4" class="node">
<title>Node4</title>
<g id="a_node4"><a xlink:href="classipc_1_1transport_1_1Native__socket__stream__acceptor.html#ab9744191a6b5d7d05b7b2b96fcda84d6" target="_top" xlink:title="In thread W, in steady state, introduces the just&#45;established peer socket handle into the state machi...">
<polygon fill="white" stroke="black" points="186,-82 186,-126 305,-126 305,-82 186,-82"/>
<text text-anchor="start" x="194" y="-115.6" font-family="Helvetica,sans-Serif" font-size="8.00">ipc::transport::Native</text>
<text text-anchor="start" x="194" y="-106.6" font-family="Helvetica,sans-Serif" font-size="8.00">_socket_stream_acceptor</text>
<text text-anchor="start" x="194" y="-97.6" font-family="Helvetica,sans-Serif" font-size="8.00">::finalize_q_surplus_on</text>
<text text-anchor="middle" x="245.5" y="-88.6" font-family="Helvetica,sans-Serif" font-size="8.00">_success</text>
</a>
</g>
</g>
<!-- Node1&#45;&gt;Node4 -->
<g id="edge3" class="edge">
<title>Node1&#45;&gt;Node4</title>
<path fill="none" stroke="midnightblue" d="M143.45,-88.14C154.11,-89.81 165.09,-91.53 175.7,-93.2"/>
<polygon fill="midnightblue" stroke="midnightblue" points="175.32,-96.68 185.74,-94.78 176.41,-89.77 175.32,-96.68"/>
</g>
<!-- Node6 -->
<g id="node6" class="node">
<title>Node6</title>
<g id="a_node6"><a xlink:href="structipc_1_1util_1_1Native__handle.html#a11bd62ce0a7bef4bdfe666201c26d4dc" target="_top" xlink:title="Returns true if and only if m_native_handle equals S_NULL_HANDLE.">
<polygon fill="white" stroke="black" points="189.5,-37 189.5,-63 301.5,-63 301.5,-37 189.5,-37"/>
<text text-anchor="start" x="197.5" y="-52.6" font-family="Helvetica,sans-Serif" font-size="8.00">ipc::util::Native_handle</text>
<text text-anchor="middle" x="245.5" y="-43.6" font-family="Helvetica,sans-Serif" font-size="8.00">::null</text>
</a>
</g>
</g>
<!-- Node1&#45;&gt;Node6 -->
<g id="edge5" class="edge">
<title>Node1&#45;&gt;Node6</title>
<path fill="none" stroke="midnightblue" d="M143.45,-65.86C155.33,-64 167.61,-62.07 179.34,-60.23"/>
<polygon fill="midnightblue" stroke="midnightblue" points="180.14,-63.65 189.48,-58.64 179.05,-56.73 180.14,-63.65"/>
</g>
<!-- Node7 -->
<g id="node7" class="node">
<title>Node7</title>
<g id="a_node7"><a xlink:href="classipc_1_1util_1_1Shared__name.html#ae89e1e061f87ffe0288514e254837595" target="_top" xlink:title="Returns (sans copying) ref to immutable entire wrapped name string, suitable to pass into sys calls w...">
<polygon fill="white" stroke="black" points="182.5,-0.5 182.5,-17.5 308.5,-17.5 308.5,-0.5 182.5,-0.5"/>
<text text-anchor="middle" x="245.5" y="-7.1" font-family="Helvetica,sans-Serif" font-size="8.00">ipc::util::Shared_name::str</text>
</a>
</g>
</g>
<!-- Node1&#45;&gt;Node7 -->
<g id="edge7" class="edge">
<title>Node1&#45;&gt;Node7</title>
<path fill="none" stroke="midnightblue" d="M106.4,-59.27C127.01,-48.94 154.09,-36.19 179,-27 185.47,-24.61 192.4,-22.38 199.24,-20.35"/>
<polygon fill="midnightblue" stroke="midnightblue" points="200.48,-23.64 209.14,-17.53 198.56,-16.9 200.48,-23.64"/>
</g>
<!-- Node3 -->
<g id="node3" class="node">
<title>Node3</title>
<g id="a_node3"><a xlink:href="classipc_1_1transport_1_1Native__socket__stream__acceptor.html#a8ff2e85b30532cb9778aa43c01931955" target="_top" xlink:title="In thread W, gets back to steady state by feeding the given Error_code (which must be the sole elemen...">
<polygon fill="white" stroke="black" points="348,-145.5 348,-180.5 481,-180.5 481,-145.5 348,-145.5"/>
<text text-anchor="start" x="356" y="-170.1" font-family="Helvetica,sans-Serif" font-size="8.00">ipc::transport::Native</text>
<text text-anchor="start" x="356" y="-161.1" font-family="Helvetica,sans-Serif" font-size="8.00">_socket_stream_acceptor</text>
<text text-anchor="middle" x="414.5" y="-152.1" font-family="Helvetica,sans-Serif" font-size="8.00">::feed_error_result_to_deficit</text>
</a>
</g>
</g>
<!-- Node2&#45;&gt;Node3 -->
<g id="edge2" class="edge">
<title>Node2&#45;&gt;Node3</title>
<path fill="none" stroke="midnightblue" d="M312.02,-163C320.5,-163 329.23,-163 337.85,-163"/>
<polygon fill="midnightblue" stroke="midnightblue" points="337.89,-166.5 347.89,-163 337.89,-159.5 337.89,-166.5"/>
</g>
<!-- Node5 -->
<g id="node5" class="node">
<title>Node5</title>
<g id="a_node5"><a xlink:href="classipc_1_1transport_1_1Native__socket__stream__acceptor.html#af1ca26531b9dd649046086e4e17f0ba3" target="_top" xlink:title="In thread W, gets back to steady state by feeding the given just&#45;connected peer socket (which must ha...">
<polygon fill="white" stroke="black" points="355,-82 355,-126 474,-126 474,-82 355,-82"/>
<text text-anchor="start" x="363" y="-115.6" font-family="Helvetica,sans-Serif" font-size="8.00">ipc::transport::Native</text>
<text text-anchor="start" x="363" y="-106.6" font-family="Helvetica,sans-Serif" font-size="8.00">_socket_stream_acceptor</text>
<text text-anchor="start" x="363" y="-97.6" font-family="Helvetica,sans-Serif" font-size="8.00">::feed_success_result_to</text>
<text text-anchor="middle" x="414.5" y="-88.6" font-family="Helvetica,sans-Serif" font-size="8.00">_deficit</text>
</a>
</g>
</g>
<!-- Node4&#45;&gt;Node5 -->
<g id="edge4" class="edge">
<title>Node4&#45;&gt;Node5</title>
<path fill="none" stroke="midnightblue" d="M305.38,-104C318.05,-104 331.55,-104 344.56,-104"/>
<polygon fill="midnightblue" stroke="midnightblue" points="344.87,-107.5 354.87,-104 344.87,-100.5 344.87,-107.5"/>
</g>
</g>
</svg>
