<?xml version="1.0" encoding="UTF-8" standalone="no"?>
<!DOCTYPE svg PUBLIC "-//W3C//DTD SVG 1.1//EN"
 "http://www.w3.org/Graphics/SVG/1.1/DTD/svg11.dtd">
<!-- Generated by graphviz version 2.43.0 (0)
 -->
<!-- Title: ipc::transport::Blob_stream_mq_receiver_impl::operator&lt;&lt; Pages: 1 -->
<svg width="290pt" height="98pt"
 viewBox="0.00 0.00 290.00 98.00" xmlns="http://www.w3.org/2000/svg" xmlns:xlink="http://www.w3.org/1999/xlink">
<g id="graph0" class="graph" transform="scale(1 1) rotate(0) translate(4 94)">
<title>ipc::transport::Blob_stream_mq_receiver_impl::operator&lt;&lt;</title>
<polygon fill="white" stroke="transparent" points="-4,4 -4,-94 286,-94 286,4 -4,4"/>
<!-- Node1 -->
<g id="node1" class="node">
<title>Node1</title>
<g id="a_node1"><a xlink:title="Prints string representation of the given Blob_stream_mq_receiver_impl to the given ostream.">
<polygon fill="#bfbfbf" stroke="black" points="0,-27.5 0,-62.5 123,-62.5 123,-27.5 0,-27.5"/>
<text text-anchor="start" x="8" y="-52.1" font-family="Helvetica,sans-Serif" font-size="8.00">ipc::transport::Blob</text>
<text text-anchor="start" x="8" y="-43.1" font-family="Helvetica,sans-Serif" font-size="8.00">_stream_mq_receiver_impl</text>
<text text-anchor="middle" x="61.5" y="-34.1" font-family="Helvetica,sans-Serif" font-size="8.00">::operator&lt;&lt;</text>
</a>
</g>
</g>
<!-- Node2 -->
<g id="node2" class="node">
<title>Node2</title>
<g id="a_node2"><a xlink:href="classipc_1_1transport_1_1Blob__stream__mq__receiver__impl.html#a78d0877377e4bd76abef8c2d61e4a59b" target="_top" xlink:title="See Blob_stream_mq_receiver counterpart, but assuming PEER state.">
<polygon fill="white" stroke="black" points="159,-54.5 159,-89.5 282,-89.5 282,-54.5 159,-54.5"/>
<text text-anchor="start" x="167" y="-79.1" font-family="Helvetica,sans-Serif" font-size="8.00">ipc::transport::Blob</text>
<text text-anchor="start" x="167" y="-70.1" font-family="Helvetica,sans-Serif" font-size="8.00">_stream_mq_receiver_impl</text>
<text text-anchor="middle" x="220.5" y="-61.1" font-family="Helvetica,sans-Serif" font-size="8.00">::absolute_name</text>
</a>
</g>
</g>
<!-- Node1&#45;&gt;Node2 -->
<g id="edge1" class="edge">
<title>Node1&#45;&gt;Node2</title>
<path fill="none" stroke="midnightblue" d="M123.2,-55.44C131.64,-56.89 140.36,-58.39 148.95,-59.87"/>
<polygon fill="midnightblue" stroke="midnightblue" points="148.51,-63.34 158.96,-61.59 149.7,-56.44 148.51,-63.34"/>
</g>
<!-- Node3 -->
<g id="node3" class="node">
<title>Node3</title>
<g id="a_node3"><a xlink:href="classipc_1_1transport_1_1Blob__stream__mq__receiver__impl.html#a18e57d5884e3da4af1374e6ec7ff31fd" target="_top" xlink:title="See Blob_stream_mq_receiver counterpart, but assuming PEER state.">
<polygon fill="white" stroke="black" points="159,-0.5 159,-35.5 282,-35.5 282,-0.5 159,-0.5"/>
<text text-anchor="start" x="167" y="-25.1" font-family="Helvetica,sans-Serif" font-size="8.00">ipc::transport::Blob</text>
<text text-anchor="start" x="167" y="-16.1" font-family="Helvetica,sans-Serif" font-size="8.00">_stream_mq_receiver_impl</text>
<text text-anchor="middle" x="220.5" y="-7.1" font-family="Helvetica,sans-Serif" font-size="8.00">::nickname</text>
</a>
</g>
</g>
<!-- Node1&#45;&gt;Node3 -->
<g id="edge2" class="edge">
<title>Node1&#45;&gt;Node3</title>
<path fill="none" stroke="midnightblue" d="M123.2,-34.56C131.64,-33.11 140.36,-31.61 148.95,-30.13"/>
<polygon fill="midnightblue" stroke="midnightblue" points="149.7,-33.56 158.96,-28.41 148.51,-26.66 149.7,-33.56"/>
</g>
</g>
</svg>
