<?xml version="1.0" encoding="UTF-8" standalone="no"?>
<!DOCTYPE svg PUBLIC "-//W3C//DTD SVG 1.1//EN"
 "http://www.w3.org/Graphics/SVG/1.1/DTD/svg11.dtd">
<!-- Generated by graphviz version 2.43.0 (0)
 -->
<!-- Title: ipc::transport::Native_socket_stream::Impl Pages: 1 -->
<svg width="1008pt" height="346pt"
 viewBox="0.00 0.00 1008.00 346.00" xmlns="http://www.w3.org/2000/svg" xmlns:xlink="http://www.w3.org/1999/xlink">
<g id="graph0" class="graph" transform="scale(1 1) rotate(0) translate(4 342)">
<title>ipc::transport::Native_socket_stream::Impl</title>
<polygon fill="white" stroke="transparent" points="-4,4 -4,-342 1004,-342 1004,4 -4,4"/>
<!-- Node1 -->
<g id="node1" class="node">
<title>Node1</title>
<g id="a_node1"><a xlink:title="Internal, non&#45;movable pImpl implementation of Native_socket_stream class.">
<polygon fill="#bfbfbf" stroke="black" points="896,-160 896,-186 1000,-186 1000,-160 896,-160"/>
<text text-anchor="start" x="904" y="-175.6" font-family="Helvetica,sans-Serif" font-size="8.00">ipc::transport::Native</text>
<text text-anchor="middle" x="948" y="-166.6" font-family="Helvetica,sans-Serif" font-size="8.00">_socket_stream::Impl</text>
</a>
</g>
</g>
<!-- Node2 -->
<g id="node2" class="node">
<title>Node2</title>
<g id="a_node2"><a xlink:title=" ">
<polygon fill="white" stroke="#bfbfbf" points="627,-307.5 627,-324.5 734,-324.5 734,-307.5 627,-307.5"/>
<text text-anchor="middle" x="680.5" y="-314.1" font-family="Helvetica,sans-Serif" font-size="8.00">flow::log::Log_context</text>
</a>
</g>
</g>
<!-- Node2&#45;&gt;Node1 -->
<g id="edge1" class="edge">
<title>Node2&#45;&gt;Node1</title>
<path fill="none" stroke="midnightblue" d="M744.5,-309.96C785.47,-303.53 838.45,-290.27 878,-263 907.5,-242.66 929.93,-205.75 940.43,-186.11"/>
<polygon fill="midnightblue" stroke="midnightblue" points="743.73,-306.53 734.35,-311.45 744.75,-313.46 743.73,-306.53"/>
</g>
<!-- Node3 -->
<g id="node3" class="node">
<title>Node3</title>
<g id="a_node3"><a xlink:title=" ">
<polygon fill="white" stroke="#bfbfbf" points="631,-271.5 631,-288.5 730,-288.5 730,-271.5 631,-271.5"/>
<text text-anchor="middle" x="680.5" y="-278.1" font-family="Helvetica,sans-Serif" font-size="8.00">boost::noncopyable</text>
</a>
</g>
</g>
<!-- Node3&#45;&gt;Node1 -->
<g id="edge2" class="edge">
<title>Node3&#45;&gt;Node1</title>
<path fill="none" stroke="#8b1a1a" d="M740.23,-273.58C780.73,-267.37 834.82,-255.45 878,-233 901.1,-220.99 922.92,-199.75 935.62,-186.03"/>
<polygon fill="#8b1a1a" stroke="#8b1a1a" points="739.63,-270.13 730.25,-275.04 740.65,-277.05 739.63,-270.13"/>
</g>
<!-- Node4 -->
<g id="node4" class="node">
<title>Node4</title>
<g id="a_node4"><a xlink:title=" ">
<polygon fill="white" stroke="#bfbfbf" points="615,-226 615,-252 746,-252 746,-226 615,-226"/>
<text text-anchor="start" x="623" y="-241.6" font-family="Helvetica,sans-Serif" font-size="8.00">unique_ptr&lt; flow::async</text>
<text text-anchor="middle" x="680.5" y="-232.6" font-family="Helvetica,sans-Serif" font-size="8.00">::Single_thread_task_loop &gt;</text>
</a>
</g>
</g>
<!-- Node4&#45;&gt;Node1 -->
<g id="edge3" class="edge">
<title>Node4&#45;&gt;Node1</title>
<path fill="none" stroke="#9a32cd" stroke-dasharray="5,2" d="M756.41,-225.96C793.32,-218.88 838.32,-209.27 878,-198 889.89,-194.62 902.67,-190.22 913.97,-186.05"/>
<polygon fill="#9a32cd" stroke="#9a32cd" points="755.4,-222.59 746.22,-227.89 756.7,-229.47 755.4,-222.59"/>
<text text-anchor="middle" x="828.5" y="-222.6" font-family="Helvetica,sans-Serif" font-size="8.00"> m_worker</text>
</g>
<!-- Node5 -->
<g id="node5" class="node">
<title>Node5</title>
<g id="a_node5"><a xlink:href="classipc_1_1transport_1_1sync__io_1_1Native__socket__stream.html" target="_top" xlink:title="Implements both sync_io::Native_handle_sender and sync_io::Native_handle_receiver concepts by using a...">
<polygon fill="white" stroke="black" points="619,-181 619,-207 742,-207 742,-181 619,-181"/>
<text text-anchor="start" x="627" y="-196.6" font-family="Helvetica,sans-Serif" font-size="8.00">ipc::transport::sync</text>
<text text-anchor="middle" x="680.5" y="-187.6" font-family="Helvetica,sans-Serif" font-size="8.00">_io::Native_socket_stream</text>
</a>
</g>
</g>
<!-- Node5&#45;&gt;Node1 -->
<g id="edge4" class="edge">
<title>Node5&#45;&gt;Node1</title>
<path fill="none" stroke="#9a32cd" stroke-dasharray="5,2" d="M752.1,-188.42C797.25,-184.84 854.79,-180.29 895.62,-177.06"/>
<polygon fill="#9a32cd" stroke="#9a32cd" points="751.77,-184.93 742.08,-189.21 752.32,-191.91 751.77,-184.93"/>
<text text-anchor="middle" x="828.5" y="-187.6" font-family="Helvetica,sans-Serif" font-size="8.00"> m_sync_io</text>
</g>
<!-- Node6 -->
<g id="node6" class="node">
<title>Node6</title>
<g id="a_node6"><a xlink:href="classipc_1_1util_1_1Shared__name.html" target="_top" xlink:title="String&#45;wrapping abstraction representing a name uniquely distinguishing a kernel&#45;persistent entity fr...">
<polygon fill="white" stroke="black" points="318,-202.5 318,-219.5 428,-219.5 428,-202.5 318,-202.5"/>
<text text-anchor="middle" x="373" y="-209.1" font-family="Helvetica,sans-Serif" font-size="8.00">ipc::util::Shared_name</text>
</a>
</g>
</g>
<!-- Node6&#45;&gt;Node5 -->
<g id="edge5" class="edge">
<title>Node6&#45;&gt;Node5</title>
<path fill="none" stroke="#9a32cd" stroke-dasharray="5,2" d="M438.47,-208.29C479.56,-206.47 533.93,-203.88 582,-201 593.94,-200.28 606.7,-199.43 618.92,-198.57"/>
<polygon fill="#9a32cd" stroke="#9a32cd" points="438.16,-204.8 428.32,-208.74 438.47,-211.8 438.16,-204.8"/>
<text text-anchor="middle" x="516" y="-209.6" font-family="Helvetica,sans-Serif" font-size="8.00"> S_RESOURCE_TYPE_ID</text>
</g>
<!-- Node6&#45;&gt;Node6 -->
<g id="edge6" class="edge">
<title>Node6&#45;&gt;Node6</title>
<path fill="none" stroke="#9a32cd" stroke-dasharray="5,2" d="M352.45,-228.86C353.21,-234.02 360.06,-238 373,-238 393.2,-238 398.56,-228.29 389.09,-219.57"/>
<polygon fill="#9a32cd" stroke="#9a32cd" points="355.73,-230.1 356.91,-219.57 349.42,-227.07 355.73,-230.1"/>
<text text-anchor="middle" x="373" y="-303.6" font-family="Helvetica,sans-Serif" font-size="8.00"> S_1ST_OR_ONLY</text>
<text text-anchor="middle" x="373" y="-294.6" font-family="Helvetica,sans-Serif" font-size="8.00">S_EMPTY</text>
<text text-anchor="start" x="334.5" y="-285.6" font-family="Helvetica,sans-Serif" font-size="8.00">S_RESOURCE_TYPE</text>
<text text-anchor="middle" x="373" y="-276.6" font-family="Helvetica,sans-Serif" font-size="8.00">_ID_MUTEX</text>
<text text-anchor="start" x="334.5" y="-267.6" font-family="Helvetica,sans-Serif" font-size="8.00">S_RESOURCE_TYPE</text>
<text text-anchor="middle" x="373" y="-258.6" font-family="Helvetica,sans-Serif" font-size="8.00">_ID_SHM</text>
<text text-anchor="middle" x="373" y="-249.6" font-family="Helvetica,sans-Serif" font-size="8.00">S_ROOT_MAGIC</text>
<text text-anchor="middle" x="373" y="-240.6" font-family="Helvetica,sans-Serif" font-size="8.00">S_SENTINEL</text>
</g>
<!-- Node7 -->
<g id="node7" class="node">
<title>Node7</title>
<g id="a_node7"><a xlink:title=" ">
<polygon fill="white" stroke="#bfbfbf" points="150,-293.5 150,-310.5 190,-310.5 190,-293.5 150,-293.5"/>
<text text-anchor="middle" x="170" y="-300.1" font-family="Helvetica,sans-Serif" font-size="8.00">size_t</text>
</a>
</g>
</g>
<!-- Node7&#45;&gt;Node5 -->
<g id="edge12" class="edge">
<title>Node7&#45;&gt;Node5</title>
<path fill="none" stroke="#9a32cd" stroke-dasharray="5,2" d="M200,-310.07C248.88,-322.31 350.32,-341.86 432,-319 516.12,-295.46 520.02,-252.11 600,-217 608.55,-213.25 617.89,-209.92 627.05,-207.04"/>
<polygon fill="#9a32cd" stroke="#9a32cd" points="200.68,-306.63 190.12,-307.51 198.92,-313.4 200.68,-306.63"/>
<text text-anchor="middle" x="373" y="-331.6" font-family="Helvetica,sans-Serif" font-size="8.00"> S_MAX_META_BLOB_LENGTH</text>
</g>
<!-- Node7&#45;&gt;Node6 -->
<g id="edge7" class="edge">
<title>Node7&#45;&gt;Node6</title>
<path fill="none" stroke="#9a32cd" stroke-dasharray="5,2" d="M199.19,-289.24C240.78,-270.41 317.45,-235.69 352.99,-219.6"/>
<polygon fill="#9a32cd" stroke="#9a32cd" points="197.58,-286.13 189.91,-293.44 200.46,-292.5 197.58,-286.13"/>
<text text-anchor="middle" x="263" y="-277.6" font-family="Helvetica,sans-Serif" font-size="8.00"> S_MAX_LENGTH</text>
</g>
<!-- Node8 -->
<g id="node8" class="node">
<title>Node8</title>
<g id="a_node8"><a xlink:title=" ">
<polygon fill="white" stroke="#bfbfbf" points="128,-219.5 128,-236.5 212,-236.5 212,-219.5 128,-219.5"/>
<text text-anchor="middle" x="170" y="-226.1" font-family="Helvetica,sans-Serif" font-size="8.00">static const char</text>
</a>
</g>
</g>
<!-- Node8&#45;&gt;Node6 -->
<g id="edge8" class="edge">
<title>Node8&#45;&gt;Node6</title>
<path fill="none" stroke="#9a32cd" stroke-dasharray="5,2" d="M222.18,-223.67C251.46,-221.19 288.17,-218.09 317.92,-215.57"/>
<polygon fill="#9a32cd" stroke="#9a32cd" points="221.83,-220.19 212.16,-224.52 222.42,-227.16 221.83,-220.19"/>
<text text-anchor="middle" x="263" y="-224.6" font-family="Helvetica,sans-Serif" font-size="8.00"> S_SEPARATOR</text>
</g>
<!-- Node9 -->
<g id="node9" class="node">
<title>Node9</title>
<g id="a_node9"><a xlink:title=" ">
<polygon fill="white" stroke="black" points="140.5,-183.5 140.5,-200.5 199.5,-200.5 199.5,-183.5 140.5,-183.5"/>
<text text-anchor="middle" x="170" y="-190.1" font-family="Helvetica,sans-Serif" font-size="8.00">std::string</text>
</a>
</g>
</g>
<!-- Node9&#45;&gt;Node6 -->
<g id="edge9" class="edge">
<title>Node9&#45;&gt;Node6</title>
<path fill="none" stroke="#9a32cd" stroke-dasharray="5,2" d="M210.11,-195.7C240.81,-198.6 283.9,-202.67 317.91,-205.89"/>
<polygon fill="#9a32cd" stroke="#9a32cd" points="210.08,-192.18 199.8,-194.72 209.42,-199.15 210.08,-192.18"/>
<text text-anchor="middle" x="263" y="-205.6" font-family="Helvetica,sans-Serif" font-size="8.00"> m_raw_name</text>
</g>
<!-- Node10 -->
<g id="node10" class="node">
<title>Node10</title>
<g id="a_node10"><a xlink:title=" ">
<polygon fill="white" stroke="black" points="0,-179 0,-205 91,-205 91,-179 0,-179"/>
<text text-anchor="start" x="8" y="-194.6" font-family="Helvetica,sans-Serif" font-size="8.00">std::basic_string&lt;</text>
<text text-anchor="middle" x="45.5" y="-185.6" font-family="Helvetica,sans-Serif" font-size="8.00"> Char &gt;</text>
</a>
</g>
</g>
<!-- Node10&#45;&gt;Node9 -->
<g id="edge10" class="edge">
<title>Node10&#45;&gt;Node9</title>
<path fill="none" stroke="midnightblue" d="M101.25,-192C114.72,-192 128.61,-192 140.29,-192"/>
<polygon fill="midnightblue" stroke="midnightblue" points="101.07,-188.5 91.07,-192 101.07,-195.5 101.07,-188.5"/>
</g>
<!-- Node11 -->
<g id="node11" class="node">
<title>Node11</title>
<g id="a_node11"><a xlink:title=" ">
<polygon fill="white" stroke="#bfbfbf" points="355.5,-155.5 355.5,-172.5 390.5,-172.5 390.5,-155.5 355.5,-155.5"/>
<text text-anchor="middle" x="373" y="-162.1" font-family="Helvetica,sans-Serif" font-size="8.00">bool</text>
</a>
</g>
</g>
<!-- Node11&#45;&gt;Node5 -->
<g id="edge11" class="edge">
<title>Node11&#45;&gt;Node5</title>
<path fill="none" stroke="#9a32cd" stroke-dasharray="5,2" d="M400.89,-162.68C415.43,-162.03 433.69,-161.32 450,-161 508.66,-159.84 525.21,-146.28 582,-161 590.86,-163.3 591.55,-167.48 600,-171 608.89,-174.7 618.57,-178.04 628.02,-180.95"/>
<polygon fill="#9a32cd" stroke="#9a32cd" points="400.43,-159.2 390.6,-163.16 400.75,-166.19 400.43,-159.2"/>
<text text-anchor="middle" x="516" y="-190.6" font-family="Helvetica,sans-Serif" font-size="8.00"> S_BLOB_UNDERFLOW_ALLOWED</text>
<text text-anchor="start" x="450" y="-181.6" font-family="Helvetica,sans-Serif" font-size="8.00">S_META_BLOB_UNDERFLOW</text>
<text text-anchor="middle" x="516" y="-172.6" font-family="Helvetica,sans-Serif" font-size="8.00">_ALLOWED</text>
<text text-anchor="middle" x="516" y="-163.6" font-family="Helvetica,sans-Serif" font-size="8.00">S_TRANSMIT_NATIVE_HANDLES</text>
</g>
<!-- Node12 -->
<g id="node12" class="node">
<title>Node12</title>
<g id="a_node12"><a xlink:title=" ">
<polygon fill="white" stroke="#bfbfbf" points="314,-101.5 314,-136.5 432,-136.5 432,-101.5 314,-101.5"/>
<text text-anchor="start" x="322" y="-126.1" font-family="Helvetica,sans-Serif" font-size="8.00">propagate_const&lt; boost</text>
<text text-anchor="start" x="322" y="-117.1" font-family="Helvetica,sans-Serif" font-size="8.00">::movelib::unique_ptr</text>
<text text-anchor="middle" x="373" y="-108.1" font-family="Helvetica,sans-Serif" font-size="8.00">&lt; Impl &gt; &gt;</text>
</a>
</g>
</g>
<!-- Node12&#45;&gt;Node5 -->
<g id="edge13" class="edge">
<title>Node12&#45;&gt;Node5</title>
<path fill="none" stroke="#9a32cd" stroke-dasharray="5,2" d="M442.51,-111.4C485.72,-110.01 540.91,-114.78 582,-141 595.11,-149.36 587.68,-161.52 600,-171 605.69,-175.38 612.19,-178.93 618.97,-181.8"/>
<polygon fill="#9a32cd" stroke="#9a32cd" points="442.2,-107.91 432.37,-111.85 442.51,-114.91 442.2,-107.91"/>
<text text-anchor="middle" x="516" y="-143.6" font-family="Helvetica,sans-Serif" font-size="8.00"> m_impl</text>
</g>
<!-- Node13 -->
<g id="node13" class="node">
<title>Node13</title>
<g id="a_node13"><a xlink:title=" ">
<polygon fill="white" stroke="#bfbfbf" points="645,-144.5 645,-161.5 716,-161.5 716,-144.5 645,-144.5"/>
<text text-anchor="middle" x="680.5" y="-151.1" font-family="Helvetica,sans-Serif" font-size="8.00">Task_asio_err</text>
</a>
</g>
</g>
<!-- Node13&#45;&gt;Node1 -->
<g id="edge14" class="edge">
<title>Node13&#45;&gt;Node1</title>
<path fill="none" stroke="#9a32cd" stroke-dasharray="5,2" d="M726.26,-152.21C766.19,-152.02 826.18,-153 878,-159 883.83,-159.68 889.9,-160.59 895.91,-161.63"/>
<polygon fill="#9a32cd" stroke="#9a32cd" points="726.03,-148.71 716.06,-152.29 726.09,-155.71 726.03,-148.71"/>
<text text-anchor="middle" x="828.5" y="-161.6" font-family="Helvetica,sans-Serif" font-size="8.00"> m_conn_on_done_func</text>
</g>
<!-- Node14 -->
<g id="node14" class="node">
<title>Node14</title>
<g id="a_node14"><a xlink:title=" ">
<polygon fill="white" stroke="#bfbfbf" points="630,-108.5 630,-125.5 731,-125.5 731,-108.5 630,-108.5"/>
<text text-anchor="middle" x="680.5" y="-115.1" font-family="Helvetica,sans-Serif" font-size="8.00">Mutex_non_recursive</text>
</a>
</g>
</g>
<!-- Node14&#45;&gt;Node1 -->
<g id="edge15" class="edge">
<title>Node14&#45;&gt;Node1</title>
<path fill="none" stroke="#9a32cd" stroke-dasharray="5,2" d="M741.29,-118.34C780.78,-120.52 833.3,-125.92 878,-139 894.66,-143.88 912.2,-152.57 925.42,-159.94"/>
<polygon fill="#9a32cd" stroke="#9a32cd" points="741.45,-114.85 731.28,-117.84 741.1,-121.84 741.45,-114.85"/>
<text text-anchor="middle" x="828.5" y="-141.6" font-family="Helvetica,sans-Serif" font-size="8.00"> m_conn_mutex</text>
</g>
<!-- Node15 -->
<g id="node15" class="node">
<title>Node15</title>
<g id="a_node15"><a xlink:title=" ">
<polygon fill="white" stroke="#bfbfbf" points="602.5,-54.5 602.5,-89.5 758.5,-89.5 758.5,-54.5 602.5,-54.5"/>
<text text-anchor="start" x="610.5" y="-79.1" font-family="Helvetica,sans-Serif" font-size="8.00">optional&lt; ipc::transport</text>
<text text-anchor="start" x="610.5" y="-70.1" font-family="Helvetica,sans-Serif" font-size="8.00">::sync_io::Async_adapter</text>
<text text-anchor="middle" x="680.5" y="-61.1" font-family="Helvetica,sans-Serif" font-size="8.00">_sender&lt; decltype(m_sync_io)&gt; &gt;</text>
</a>
</g>
</g>
<!-- Node15&#45;&gt;Node1 -->
<g id="edge16" class="edge">
<title>Node15&#45;&gt;Node1</title>
<path fill="none" stroke="#9a32cd" stroke-dasharray="5,2" d="M769.22,-77.25C804.49,-82.07 844.62,-91.11 878,-108 902.82,-120.56 924.94,-144.86 937.11,-159.93"/>
<polygon fill="#9a32cd" stroke="#9a32cd" points="769.29,-73.73 758.93,-75.94 768.41,-80.67 769.29,-73.73"/>
<text text-anchor="middle" x="828.5" y="-110.6" font-family="Helvetica,sans-Serif" font-size="8.00"> m_snd_sync_io_adapter</text>
</g>
<!-- Node16 -->
<g id="node16" class="node">
<title>Node16</title>
<g id="a_node16"><a xlink:title=" ">
<polygon fill="white" stroke="#bfbfbf" points="600,-0.5 600,-35.5 761,-35.5 761,-0.5 600,-0.5"/>
<text text-anchor="start" x="608" y="-25.1" font-family="Helvetica,sans-Serif" font-size="8.00">optional&lt; ipc::transport</text>
<text text-anchor="start" x="608" y="-16.1" font-family="Helvetica,sans-Serif" font-size="8.00">::sync_io::Async_adapter</text>
<text text-anchor="middle" x="680.5" y="-7.1" font-family="Helvetica,sans-Serif" font-size="8.00">_receiver&lt; decltype(m_sync_io)&gt; &gt;</text>
</a>
</g>
</g>
<!-- Node16&#45;&gt;Node1 -->
<g id="edge17" class="edge">
<title>Node16&#45;&gt;Node1</title>
<path fill="none" stroke="#9a32cd" stroke-dasharray="5,2" d="M771.33,-24.88C807.11,-31.17 847.04,-42.97 878,-65 912.26,-89.38 933.54,-136.63 942.34,-159.69"/>
<polygon fill="#9a32cd" stroke="#9a32cd" points="771.79,-21.41 761.36,-23.25 770.66,-28.32 771.79,-21.41"/>
<text text-anchor="middle" x="828.5" y="-67.6" font-family="Helvetica,sans-Serif" font-size="8.00"> m_rcv_sync_io_adapter</text>
</g>
</g>
</svg>
