<?xml version="1.0" encoding="UTF-8" standalone="no"?>
<!DOCTYPE svg PUBLIC "-//W3C//DTD SVG 1.1//EN"
 "http://www.w3.org/Graphics/SVG/1.1/DTD/svg11.dtd">
<!-- Generated by graphviz version 2.43.0 (0)
 -->
<!-- Title: ipc::transport::Posix_mq_handle::Posix_mq_handle Pages: 1 -->
<svg width="465pt" height="257pt"
 viewBox="0.00 0.00 465.00 257.24" xmlns="http://www.w3.org/2000/svg" xmlns:xlink="http://www.w3.org/1999/xlink">
<g id="graph0" class="graph" transform="scale(1 1) rotate(0) translate(4 253.24)">
<title>ipc::transport::Posix_mq_handle::Posix_mq_handle</title>
<polygon fill="white" stroke="transparent" points="-4,4 -4,-253.24 461,-253.24 461,4 -4,4"/>
<!-- Node1 -->
<g id="node1" class="node">
<title>Node1</title>
<g id="a_node1"><a xlink:title="Helper ctor delegated by the 2 public ctors that take Open_or_create or Create_only mode.">
<polygon fill="#bfbfbf" stroke="black" points="0,-126 0,-161 109,-161 109,-126 0,-126"/>
<text text-anchor="start" x="8" y="-150.6" font-family="Helvetica,sans-Serif" font-size="8.00">ipc::transport::Posix</text>
<text text-anchor="start" x="8" y="-141.6" font-family="Helvetica,sans-Serif" font-size="8.00">_mq_handle::Posix_mq</text>
<text text-anchor="middle" x="54.5" y="-132.6" font-family="Helvetica,sans-Serif" font-size="8.00">_handle</text>
</a>
</g>
</g>
<!-- Node2 -->
<g id="node2" class="node">
<title>Node2</title>
<g id="a_node2"><a xlink:href="classipc_1_1transport_1_1Posix__mq__handle.html#a7d62af06a8cea2a821908384ee098125" target="_top" xlink:title="Implements Persistent_mq_handle API: Returns name equal to absolute_name passed to ctor.">
<polygon fill="white" stroke="black" points="323,-176.5 323,-202.5 457,-202.5 457,-176.5 323,-176.5"/>
<text text-anchor="start" x="331" y="-192.1" font-family="Helvetica,sans-Serif" font-size="8.00">ipc::transport::Posix</text>
<text text-anchor="middle" x="390" y="-183.1" font-family="Helvetica,sans-Serif" font-size="8.00">_mq_handle::absolute_name</text>
</a>
</g>
</g>
<!-- Node1&#45;&gt;Node2 -->
<g id="edge1" class="edge">
<title>Node1&#45;&gt;Node2</title>
<path fill="none" stroke="midnightblue" d="M66.47,-161.32C81.2,-183.33 109.64,-219.68 145,-234.5 203.21,-258.89 225.25,-247.52 287,-234.5 311.9,-229.25 338.13,-217.52 357.76,-207.36"/>
<polygon fill="midnightblue" stroke="midnightblue" points="359.64,-210.32 366.82,-202.53 356.35,-204.14 359.64,-210.32"/>
</g>
<!-- Node3 -->
<g id="node3" class="node">
<title>Node3</title>
<g id="a_node3"><a xlink:href="classipc_1_1transport_1_1Posix__mq__handle.html#a47378b13e9dce85a1e1021896c98c3cd" target="_top" xlink:title="Ctor helper that sets up m_epoll_hndl_snd and m_epoll_hndl_rcv.">
<polygon fill="white" stroke="black" points="156.5,-198.5 156.5,-224.5 275.5,-224.5 275.5,-198.5 156.5,-198.5"/>
<text text-anchor="start" x="164.5" y="-214.1" font-family="Helvetica,sans-Serif" font-size="8.00">ipc::transport::Posix</text>
<text text-anchor="middle" x="216" y="-205.1" font-family="Helvetica,sans-Serif" font-size="8.00">_mq_handle::epoll_setup</text>
</a>
</g>
</g>
<!-- Node1&#45;&gt;Node3 -->
<g id="edge2" class="edge">
<title>Node1&#45;&gt;Node3</title>
<path fill="none" stroke="midnightblue" d="M86.36,-161.01C103.34,-170.22 124.96,-181.27 145,-189.5 149.74,-191.45 154.72,-193.32 159.74,-195.11"/>
<polygon fill="midnightblue" stroke="midnightblue" points="158.82,-198.49 169.41,-198.41 161.08,-191.86 158.82,-198.49"/>
</g>
<!-- Node4 -->
<g id="node4" class="node">
<title>Node4</title>
<g id="a_node4"><a xlink:href="structipc_1_1util_1_1Native__handle.html#a11bd62ce0a7bef4bdfe666201c26d4dc" target="_top" xlink:title="Returns true if and only if m_native_handle equals S_NULL_HANDLE.">
<polygon fill="white" stroke="black" points="160,-153.5 160,-179.5 272,-179.5 272,-153.5 160,-153.5"/>
<text text-anchor="start" x="168" y="-169.1" font-family="Helvetica,sans-Serif" font-size="8.00">ipc::util::Native_handle</text>
<text text-anchor="middle" x="216" y="-160.1" font-family="Helvetica,sans-Serif" font-size="8.00">::null</text>
</a>
</g>
</g>
<!-- Node1&#45;&gt;Node4 -->
<g id="edge3" class="edge">
<title>Node1&#45;&gt;Node4</title>
<path fill="none" stroke="midnightblue" d="M109.05,-151.22C122.11,-153.1 136.21,-155.14 149.75,-157.09"/>
<polygon fill="midnightblue" stroke="midnightblue" points="149.56,-160.6 159.95,-158.56 150.55,-153.67 149.56,-160.6"/>
</g>
<!-- Node5 -->
<g id="node5" class="node">
<title>Node5</title>
<g id="a_node5"><a xlink:href="classipc_1_1transport_1_1Posix__mq__handle.html#ac2cf0213ceaa0a8c621ee2c02c6fbec6" target="_top" xlink:title="Ctor helper that sets up m_interrupt* pipe items.">
<polygon fill="white" stroke="black" points="158,-108.5 158,-134.5 274,-134.5 274,-108.5 158,-108.5"/>
<text text-anchor="start" x="166" y="-124.1" font-family="Helvetica,sans-Serif" font-size="8.00">ipc::transport::Posix</text>
<text text-anchor="middle" x="216" y="-115.1" font-family="Helvetica,sans-Serif" font-size="8.00">_mq_handle::pipe_setup</text>
</a>
</g>
</g>
<!-- Node1&#45;&gt;Node5 -->
<g id="edge4" class="edge">
<title>Node1&#45;&gt;Node5</title>
<path fill="none" stroke="midnightblue" d="M109.05,-136.11C121.41,-134.41 134.71,-132.57 147.57,-130.8"/>
<polygon fill="midnightblue" stroke="midnightblue" points="148.33,-134.23 157.76,-129.4 147.37,-127.29 148.33,-134.23"/>
</g>
<!-- Node6 -->
<g id="node6" class="node">
<title>Node6</title>
<g id="a_node6"><a xlink:href="classipc_1_1transport_1_1Posix__mq__handle.html#ab68150c87931f6eb32d0908049e4dac6" target="_top" xlink:title="Sets m_mq to blocking or non&#45;blocking and returns true on success and clears *err_code; otherwise ret...">
<polygon fill="white" stroke="black" points="145,-63.5 145,-89.5 287,-89.5 287,-63.5 145,-63.5"/>
<text text-anchor="start" x="153" y="-79.1" font-family="Helvetica,sans-Serif" font-size="8.00">ipc::transport::Posix</text>
<text text-anchor="middle" x="216" y="-70.1" font-family="Helvetica,sans-Serif" font-size="8.00">_mq_handle::set_non_blocking</text>
</a>
</g>
</g>
<!-- Node1&#45;&gt;Node6 -->
<g id="edge6" class="edge">
<title>Node1&#45;&gt;Node6</title>
<path fill="none" stroke="midnightblue" d="M87.23,-125.97C104.09,-117.07 125.34,-106.47 145,-98.5 149.82,-96.55 154.88,-94.66 159.99,-92.86"/>
<polygon fill="midnightblue" stroke="midnightblue" points="161.46,-96.05 169.81,-89.52 159.21,-89.42 161.46,-96.05"/>
</g>
<!-- Node8 -->
<g id="node8" class="node">
<title>Node8</title>
<g id="a_node8"><a xlink:href="namespaceipc_1_1util.html#abbba79fcaee378f433e7ce3093e5c435" target="_top" xlink:title="Utility that sets the permissions of the given resource (at the supplied file system path) to specifi...">
<polygon fill="white" stroke="black" points="163,-0.5 163,-26.5 269,-26.5 269,-0.5 163,-0.5"/>
<text text-anchor="start" x="171" y="-16.1" font-family="Helvetica,sans-Serif" font-size="8.00">ipc::util::set_resource</text>
<text text-anchor="middle" x="216" y="-7.1" font-family="Helvetica,sans-Serif" font-size="8.00">_permissions</text>
</a>
</g>
</g>
<!-- Node1&#45;&gt;Node8 -->
<g id="edge8" class="edge">
<title>Node1&#45;&gt;Node8</title>
<path fill="none" stroke="midnightblue" d="M70.45,-125.85C87.3,-106.61 116.14,-75.61 145,-53.5 155.61,-45.37 168.04,-37.74 179.46,-31.37"/>
<polygon fill="midnightblue" stroke="midnightblue" points="181.23,-34.39 188.35,-26.55 177.89,-28.24 181.23,-34.39"/>
</g>
<!-- Node5&#45;&gt;Node2 -->
<g id="edge5" class="edge">
<title>Node5&#45;&gt;Node2</title>
<path fill="none" stroke="midnightblue" d="M259.06,-134.58C268.33,-137.66 278.04,-141.06 287,-144.5 308.8,-152.87 332.7,-163.34 351.88,-172.08"/>
<polygon fill="midnightblue" stroke="midnightblue" points="350.62,-175.35 361.17,-176.34 353.54,-168.98 350.62,-175.35"/>
</g>
<!-- Node7 -->
<g id="node7" class="node">
<title>Node7</title>
<g id="a_node7"><a xlink:href="classipc_1_1transport_1_1Posix__mq__handle.html#a244ee5da96550553edca346d77c2a825" target="_top" xlink:title="Helper that handles the result of an mq_*() call by logging WARNING(s) on error; setting *err_code on...">
<polygon fill="white" stroke="black" points="332,-59 332,-94 448,-94 448,-59 332,-59"/>
<text text-anchor="start" x="340" y="-83.6" font-family="Helvetica,sans-Serif" font-size="8.00">ipc::transport::Posix</text>
<text text-anchor="start" x="340" y="-74.6" font-family="Helvetica,sans-Serif" font-size="8.00">_mq_handle::handle_mq</text>
<text text-anchor="middle" x="390" y="-65.6" font-family="Helvetica,sans-Serif" font-size="8.00">_api_result</text>
</a>
</g>
</g>
<!-- Node6&#45;&gt;Node7 -->
<g id="edge7" class="edge">
<title>Node6&#45;&gt;Node7</title>
<path fill="none" stroke="midnightblue" d="M287.46,-76.5C298.75,-76.5 310.41,-76.5 321.63,-76.5"/>
<polygon fill="midnightblue" stroke="midnightblue" points="321.79,-80 331.79,-76.5 321.79,-73 321.79,-80"/>
</g>
<!-- Node8&#45;&gt;Node8 -->
<g id="edge9" class="edge">
<title>Node8&#45;&gt;Node8</title>
<path fill="none" stroke="midnightblue" d="M188.93,-26.77C180.73,-35.96 189.75,-45 216,-45 232,-45 241.6,-41.64 244.8,-36.94"/>
<polygon fill="midnightblue" stroke="midnightblue" points="248.2,-36.04 243.07,-26.77 241.29,-37.22 248.2,-36.04"/>
</g>
</g>
</svg>
