<?xml version="1.0" encoding="UTF-8" standalone="no"?>
<!DOCTYPE svg PUBLIC "-//W3C//DTD SVG 1.1//EN"
 "http://www.w3.org/Graphics/SVG/1.1/DTD/svg11.dtd">
<!-- Generated by graphviz version 2.43.0 (0)
 -->
<!-- Title: ipc::transport::sync_io::Native_socket_stream::get_logger Pages: 1 -->
<svg width="449pt" height="288pt"
 viewBox="0.00 0.00 449.00 287.50" xmlns="http://www.w3.org/2000/svg" xmlns:xlink="http://www.w3.org/1999/xlink">
<g id="graph0" class="graph" transform="scale(1 1) rotate(0) translate(4 283.5)">
<title>ipc::transport::sync_io::Native_socket_stream::get_logger</title>
<polygon fill="white" stroke="transparent" points="-4,4 -4,-283.5 445,-283.5 445,4 -4,4"/>
<!-- Node1 -->
<g id="node1" class="node">
<title>Node1</title>
<g id="a_node1"><a xlink:title="Returns logger (possibly null).">
<polygon fill="#bfbfbf" stroke="black" points="318,-131 318,-166 441,-166 441,-131 318,-131"/>
<text text-anchor="start" x="326" y="-155.6" font-family="Helvetica,sans-Serif" font-size="8.00">ipc::transport::sync</text>
<text text-anchor="start" x="326" y="-146.6" font-family="Helvetica,sans-Serif" font-size="8.00">_io::Native_socket_stream</text>
<text text-anchor="middle" x="379.5" y="-137.6" font-family="Helvetica,sans-Serif" font-size="8.00">::get_logger</text>
</a>
</g>
</g>
<!-- Node2 -->
<g id="node2" class="node">
<title>Node2</title>
<g id="a_node2"><a xlink:href="classipc_1_1transport_1_1sync__io_1_1Native__socket__stream_1_1Impl.html#ad6443fb49be059dbe76c75d86a18197e" target="_top" xlink:title="The core of sync_connect(), written in the sync_io&#45;pattern style.">
<polygon fill="white" stroke="black" points="159,-244 159,-279 282,-279 282,-244 159,-244"/>
<text text-anchor="start" x="167" y="-268.6" font-family="Helvetica,sans-Serif" font-size="8.00">ipc::transport::sync</text>
<text text-anchor="start" x="167" y="-259.6" font-family="Helvetica,sans-Serif" font-size="8.00">_io::Native_socket_stream</text>
<text text-anchor="middle" x="220.5" y="-250.6" font-family="Helvetica,sans-Serif" font-size="8.00">::Impl::async_connect</text>
</a>
</g>
</g>
<!-- Node1&#45;&gt;Node2 -->
<g id="edge1" class="edge">
<title>Node1&#45;&gt;Node2</title>
<path fill="none" stroke="midnightblue" d="M354.64,-173.6C336.09,-192.11 309.04,-217.02 282,-234.5 276.78,-237.87 271.08,-241.02 265.32,-243.9"/>
<polygon fill="midnightblue" stroke="midnightblue" points="357.51,-175.67 362.04,-166.1 352.53,-170.76 357.51,-175.67"/>
</g>
<!-- Node3 -->
<g id="node3" class="node">
<title>Node3</title>
<g id="a_node3"><a xlink:href="classipc_1_1transport_1_1sync__io_1_1Native__socket__stream_1_1Impl.html#ae9194e2eefe81185d1bf067b1f934657" target="_top" xlink:title="See Native_socket_stream counterpart.">
<polygon fill="white" stroke="black" points="159,-190 159,-225 282,-225 282,-190 159,-190"/>
<text text-anchor="start" x="167" y="-214.6" font-family="Helvetica,sans-Serif" font-size="8.00">ipc::transport::sync</text>
<text text-anchor="start" x="167" y="-205.6" font-family="Helvetica,sans-Serif" font-size="8.00">_io::Native_socket_stream</text>
<text text-anchor="middle" x="220.5" y="-196.6" font-family="Helvetica,sans-Serif" font-size="8.00">::Impl::Impl</text>
</a>
</g>
</g>
<!-- Node1&#45;&gt;Node3 -->
<g id="edge2" class="edge">
<title>Node1&#45;&gt;Node3</title>
<path fill="none" stroke="midnightblue" d="M322.19,-169.66C304.52,-176.3 285.21,-183.56 268.27,-189.92"/>
<polygon fill="midnightblue" stroke="midnightblue" points="323.69,-172.84 331.82,-166.04 321.23,-166.28 323.69,-172.84"/>
</g>
<!-- Node4 -->
<g id="node4" class="node">
<title>Node4</title>
<g id="a_node4"><a xlink:href="classipc_1_1transport_1_1sync__io_1_1Native__socket__stream_1_1Impl.html#a25e051170a8eb568745f809bb186f980" target="_top" xlink:title="Utility that synchronously, non&#45;blockingly attempts to read over m_peer_socket into the target blob a...">
<polygon fill="white" stroke="black" points="159,-126.5 159,-170.5 282,-170.5 282,-126.5 159,-126.5"/>
<text text-anchor="start" x="167" y="-160.1" font-family="Helvetica,sans-Serif" font-size="8.00">ipc::transport::sync</text>
<text text-anchor="start" x="167" y="-151.1" font-family="Helvetica,sans-Serif" font-size="8.00">_io::Native_socket_stream</text>
<text text-anchor="start" x="167" y="-142.1" font-family="Helvetica,sans-Serif" font-size="8.00">::Impl::rcv_nb_read_low</text>
<text text-anchor="middle" x="220.5" y="-133.1" font-family="Helvetica,sans-Serif" font-size="8.00">_lvl_payload</text>
</a>
</g>
</g>
<!-- Node1&#45;&gt;Node4 -->
<g id="edge3" class="edge">
<title>Node1&#45;&gt;Node4</title>
<path fill="none" stroke="midnightblue" d="M307.79,-148.5C299.19,-148.5 290.47,-148.5 282.04,-148.5"/>
<polygon fill="midnightblue" stroke="midnightblue" points="307.8,-152 317.8,-148.5 307.8,-145 307.8,-152"/>
</g>
<!-- Node5 -->
<g id="node5" class="node">
<title>Node5</title>
<g id="a_node5"><a xlink:href="classipc_1_1transport_1_1sync__io_1_1Native__socket__stream_1_1Impl.html#af321a9b3ed8dc21f23988bf79c7c33f0" target="_top" xlink:title="Utility that sends non&#45;empty blob, and (unless null) hndl_or_null associated with its 1st byte,...">
<polygon fill="white" stroke="black" points="159,-63.5 159,-107.5 282,-107.5 282,-63.5 159,-63.5"/>
<text text-anchor="start" x="167" y="-97.1" font-family="Helvetica,sans-Serif" font-size="8.00">ipc::transport::sync</text>
<text text-anchor="start" x="167" y="-88.1" font-family="Helvetica,sans-Serif" font-size="8.00">_io::Native_socket_stream</text>
<text text-anchor="start" x="167" y="-79.1" font-family="Helvetica,sans-Serif" font-size="8.00">::Impl::snd_nb_write_low</text>
<text text-anchor="middle" x="220.5" y="-70.1" font-family="Helvetica,sans-Serif" font-size="8.00">_lvl_payload</text>
</a>
</g>
</g>
<!-- Node1&#45;&gt;Node5 -->
<g id="edge4" class="edge">
<title>Node1&#45;&gt;Node5</title>
<path fill="none" stroke="midnightblue" d="M325.21,-127.12C309.51,-120.82 292.3,-113.91 276.49,-107.57"/>
<polygon fill="midnightblue" stroke="midnightblue" points="324.18,-130.48 334.77,-130.95 326.79,-123.98 324.18,-130.48"/>
</g>
<!-- Node6 -->
<g id="node6" class="node">
<title>Node6</title>
<g id="a_node6"><a xlink:href="classipc_1_1transport_1_1sync__io_1_1Native__socket__stream_1_1Impl.html#a3c1c949f345f0ceef5eeca3c2edec291" target="_top" xlink:title="Either synchronously sends hndl_or_null handle (if any) and orig_blob low&#45;level blob over m_peer_sock...">
<polygon fill="white" stroke="black" points="159,-0.5 159,-44.5 282,-44.5 282,-0.5 159,-0.5"/>
<text text-anchor="start" x="167" y="-34.1" font-family="Helvetica,sans-Serif" font-size="8.00">ipc::transport::sync</text>
<text text-anchor="start" x="167" y="-25.1" font-family="Helvetica,sans-Serif" font-size="8.00">_io::Native_socket_stream</text>
<text text-anchor="start" x="167" y="-16.1" font-family="Helvetica,sans-Serif" font-size="8.00">::Impl::snd_sync_write_or</text>
<text text-anchor="middle" x="220.5" y="-7.1" font-family="Helvetica,sans-Serif" font-size="8.00">_q_payload</text>
</a>
</g>
</g>
<!-- Node1&#45;&gt;Node6 -->
<g id="edge5" class="edge">
<title>Node1&#45;&gt;Node6</title>
<path fill="none" stroke="midnightblue" d="M356.19,-123.07C337.65,-102.89 309.87,-74.8 282,-54.5 277.2,-51 271.96,-47.65 266.65,-44.52"/>
<polygon fill="midnightblue" stroke="midnightblue" points="353.76,-125.6 363.07,-130.65 358.94,-120.89 353.76,-125.6"/>
</g>
<!-- Node7 -->
<g id="node7" class="node">
<title>Node7</title>
<g id="a_node7"><a xlink:href="classipc_1_1transport_1_1sync__io_1_1Native__socket__stream_1_1Impl.html#a65eea0cec146df598fce1d9ab5ce7e15" target="_top" xlink:title="See Native_socket_stream counterpart.">
<polygon fill="white" stroke="black" points="0,-0.5 0,-44.5 123,-44.5 123,-0.5 0,-0.5"/>
<text text-anchor="start" x="8" y="-34.1" font-family="Helvetica,sans-Serif" font-size="8.00">ipc::transport::sync</text>
<text text-anchor="start" x="8" y="-25.1" font-family="Helvetica,sans-Serif" font-size="8.00">_io::Native_socket_stream</text>
<text text-anchor="start" x="8" y="-16.1" font-family="Helvetica,sans-Serif" font-size="8.00">::Impl::start_send_native</text>
<text text-anchor="middle" x="61.5" y="-7.1" font-family="Helvetica,sans-Serif" font-size="8.00">_handle_ops</text>
</a>
</g>
</g>
<!-- Node6&#45;&gt;Node7 -->
<g id="edge6" class="edge">
<title>Node6&#45;&gt;Node7</title>
<path fill="none" stroke="midnightblue" d="M148.79,-22.5C140.19,-22.5 131.47,-22.5 123.04,-22.5"/>
<polygon fill="midnightblue" stroke="midnightblue" points="148.8,-26 158.8,-22.5 148.8,-19 148.8,-26"/>
</g>
</g>
</svg>
