<?xml version="1.0" encoding="UTF-8" standalone="no"?>
<!DOCTYPE svg PUBLIC "-//W3C//DTD SVG 1.1//EN"
 "http://www.w3.org/Graphics/SVG/1.1/DTD/svg11.dtd">
<!-- Generated by graphviz version 2.43.0 (0)
 -->
<!-- Title: ipc::transport::Socket_stream_channel&lt; SIO &gt; Pages: 1 -->
<svg width="450pt" height="89pt"
 viewBox="0.00 0.00 450.00 89.00" xmlns="http://www.w3.org/2000/svg" xmlns:xlink="http://www.w3.org/1999/xlink">
<g id="graph0" class="graph" transform="scale(1 1) rotate(0) translate(4 85)">
<title>ipc::transport::Socket_stream_channel&lt; SIO &gt;</title>
<polygon fill="white" stroke="transparent" points="-4,4 -4,-85 446,-85 446,4 -4,4"/>
<!-- Node1 -->
<g id="node1" class="node">
<title>Node1</title>
<g id="a_node1"><a xlink:title="A Channel with a handles pipe only (no blobs pipe) that uses a Unix domain socket connection as the u...">
<polygon fill="#bfbfbf" stroke="black" points="325,-27.5 325,-53.5 442,-53.5 442,-27.5 325,-27.5"/>
<text text-anchor="start" x="333" y="-43.1" font-family="Helvetica,sans-Serif" font-size="8.00">ipc::transport::Socket</text>
<text text-anchor="middle" x="383.5" y="-34.1" font-family="Helvetica,sans-Serif" font-size="8.00">_stream_channel&lt; SIO &gt;</text>
</a>
</g>
</g>
<!-- Node2 -->
<g id="node2" class="node">
<title>Node2</title>
<g id="a_node2"><a xlink:href="classipc_1_1transport_1_1Channel.html" target="_top" xlink:title=" ">
<polygon fill="white" stroke="black" points="143,-0.5 143,-80.5 289,-80.5 289,-0.5 143,-0.5"/>
<text text-anchor="start" x="151" y="-70.1" font-family="Helvetica,sans-Serif" font-size="8.00">ipc::transport::Channel</text>
<text text-anchor="start" x="151" y="-61.1" font-family="Helvetica,sans-Serif" font-size="8.00">&lt; Null_peer, Null_peer,</text>
<text text-anchor="start" x="151" y="-52.1" font-family="Helvetica,sans-Serif" font-size="8.00"> std::conditional_t&lt; SIO,</text>
<text text-anchor="start" x="151" y="-43.1" font-family="Helvetica,sans-Serif" font-size="8.00"> sync_io::Native_socket_stream,</text>
<text text-anchor="start" x="151" y="-34.1" font-family="Helvetica,sans-Serif" font-size="8.00"> Native_socket_stream &gt;, std</text>
<text text-anchor="start" x="151" y="-25.1" font-family="Helvetica,sans-Serif" font-size="8.00">::conditional_t&lt; SIO, sync_io</text>
<text text-anchor="start" x="151" y="-16.1" font-family="Helvetica,sans-Serif" font-size="8.00">::Native_socket_stream, Native</text>
<text text-anchor="middle" x="216" y="-7.1" font-family="Helvetica,sans-Serif" font-size="8.00">_socket_stream &gt; &gt;</text>
</a>
</g>
</g>
<!-- Node2&#45;&gt;Node1 -->
<g id="edge1" class="edge">
<title>Node2&#45;&gt;Node1</title>
<path fill="none" stroke="midnightblue" d="M299.23,-40.5C307.87,-40.5 316.52,-40.5 324.8,-40.5"/>
<polygon fill="midnightblue" stroke="midnightblue" points="299.11,-37 289.11,-40.5 299.11,-44 299.11,-37"/>
</g>
<!-- Node3 -->
<g id="node3" class="node">
<title>Node3</title>
<g id="a_node3"><a xlink:title=" ">
<polygon fill="white" stroke="#bfbfbf" points="0,-32 0,-49 107,-49 107,-32 0,-32"/>
<text text-anchor="middle" x="53.5" y="-38.6" font-family="Helvetica,sans-Serif" font-size="8.00">flow::log::Log_context</text>
</a>
</g>
</g>
<!-- Node3&#45;&gt;Node2 -->
<g id="edge2" class="edge">
<title>Node3&#45;&gt;Node2</title>
<path fill="none" stroke="midnightblue" d="M117.15,-40.5C125.56,-40.5 134.24,-40.5 142.8,-40.5"/>
<polygon fill="midnightblue" stroke="midnightblue" points="117.05,-37 107.05,-40.5 117.05,-44 117.05,-37"/>
</g>
</g>
</svg>
