<?xml version="1.0" encoding="UTF-8" standalone="no"?>
<!DOCTYPE svg PUBLIC "-//W3C//DTD SVG 1.1//EN"
 "http://www.w3.org/Graphics/SVG/1.1/DTD/svg11.dtd">
<!-- Generated by graphviz version 2.43.0 (0)
 -->
<!-- Title: ipc::session::shm::arena_lend::jemalloc::Client_session_impl&lt; S_MQ_TYPE_OR_NONE, S_TRANSMIT_NATIVE_HANDLES, Mdt_payload &gt; Pages: 1 -->
<svg width="1547pt" height="745pt"
 viewBox="0.00 0.00 1547.00 745.40" xmlns="http://www.w3.org/2000/svg" xmlns:xlink="http://www.w3.org/1999/xlink">
<g id="graph0" class="graph" transform="scale(1 1) rotate(0) translate(4 741.4)">
<title>ipc::session::shm::arena_lend::jemalloc::Client_session_impl&lt; S_MQ_TYPE_OR_NONE, S_TRANSMIT_NATIVE_HANDLES, Mdt_payload &gt;</title>
<polygon fill="white" stroke="transparent" points="-4,4 -4,-741.4 1543,-741.4 1543,4 -4,4"/>
<!-- Node1 -->
<g id="node1" class="node">
<title>Node1</title>
<g id="a_node1"><a xlink:title="Core internally&#45;used implementation of shm::arena_lend::jemalloc::Client_session: it is to the latter...">
<polygon fill="#bfbfbf" stroke="black" points="1401,-92.47 1401,-154.47 1539,-154.47 1539,-92.47 1401,-92.47"/>
<text text-anchor="start" x="1409" y="-144.07" font-family="Helvetica,sans-Serif" font-size="8.00">ipc::session::shm::</text>
<text text-anchor="start" x="1409" y="-135.07" font-family="Helvetica,sans-Serif" font-size="8.00">arena_lend::jemalloc</text>
<text text-anchor="start" x="1409" y="-126.07" font-family="Helvetica,sans-Serif" font-size="8.00">::Client_session_impl</text>
<text text-anchor="start" x="1409" y="-117.07" font-family="Helvetica,sans-Serif" font-size="8.00">&lt; S_MQ_TYPE_OR_NONE, S</text>
<text text-anchor="start" x="1409" y="-108.07" font-family="Helvetica,sans-Serif" font-size="8.00">_TRANSMIT_NATIVE_HANDLES,</text>
<text text-anchor="middle" x="1470" y="-99.07" font-family="Helvetica,sans-Serif" font-size="8.00"> Mdt_payload &gt;</text>
</a>
</g>
</g>
<!-- Node2 -->
<g id="node2" class="node">
<title>Node2</title>
<g id="a_node2"><a xlink:href="classipc_1_1session_1_1shm_1_1arena__lend_1_1jemalloc_1_1Session__impl.html" target="_top" xlink:title=" ">
<polygon fill="white" stroke="black" points="1055,-87.97 1055,-158.97 1250,-158.97 1250,-87.97 1055,-87.97"/>
<text text-anchor="start" x="1063" y="-148.57" font-family="Helvetica,sans-Serif" font-size="8.00">ipc::session::shm::</text>
<text text-anchor="start" x="1063" y="-139.57" font-family="Helvetica,sans-Serif" font-size="8.00">arena_lend::jemalloc</text>
<text text-anchor="start" x="1063" y="-130.57" font-family="Helvetica,sans-Serif" font-size="8.00">::Session_impl&lt; session</text>
<text text-anchor="start" x="1063" y="-121.57" font-family="Helvetica,sans-Serif" font-size="8.00">::Client_session_impl&lt;</text>
<text text-anchor="start" x="1063" y="-112.57" font-family="Helvetica,sans-Serif" font-size="8.00"> S_MQ_TYPE_OR_NONE, S_TRANSMIT</text>
<text text-anchor="start" x="1063" y="-103.57" font-family="Helvetica,sans-Serif" font-size="8.00">_NATIVE_HANDLES, Mdt_payload,</text>
<text text-anchor="middle" x="1152.5" y="-94.57" font-family="Helvetica,sans-Serif" font-size="8.00"> session::schema::ShmType::JEMALLOC &gt; &gt;</text>
</a>
</g>
</g>
<!-- Node2&#45;&gt;Node1 -->
<g id="edge1" class="edge">
<title>Node2&#45;&gt;Node1</title>
<path fill="none" stroke="midnightblue" d="M1260.42,-123.47C1306.88,-123.47 1359.93,-123.47 1400.9,-123.47"/>
<polygon fill="midnightblue" stroke="midnightblue" points="1260.3,-119.97 1250.3,-123.47 1260.3,-126.97 1260.3,-119.97"/>
</g>
<!-- Node3 -->
<g id="node3" class="node">
<title>Node3</title>
<g id="a_node3"><a xlink:href="classipc_1_1session_1_1Client__session__impl.html" target="_top" xlink:title=" ">
<polygon fill="white" stroke="black" points="761,-218.97 761,-271.97 913,-271.97 913,-218.97 761,-218.97"/>
<text text-anchor="start" x="769" y="-261.57" font-family="Helvetica,sans-Serif" font-size="8.00">ipc::session::Client</text>
<text text-anchor="start" x="769" y="-252.57" font-family="Helvetica,sans-Serif" font-size="8.00">_session_impl&lt; S_MQ_TYPE</text>
<text text-anchor="start" x="769" y="-243.57" font-family="Helvetica,sans-Serif" font-size="8.00">_OR_NONE, S_TRANSMIT_NATIVE</text>
<text text-anchor="start" x="769" y="-234.57" font-family="Helvetica,sans-Serif" font-size="8.00">_HANDLES, Mdt_payload, session</text>
<text text-anchor="middle" x="837" y="-225.57" font-family="Helvetica,sans-Serif" font-size="8.00">::schema::ShmType::JEMALLOC &gt;</text>
</a>
</g>
</g>
<!-- Node3&#45;&gt;Node2 -->
<g id="edge2" class="edge">
<title>Node3&#45;&gt;Node2</title>
<path fill="none" stroke="midnightblue" d="M915.84,-215.18C959.54,-198.18 1014.3,-176.87 1060.03,-159.07"/>
<polygon fill="midnightblue" stroke="midnightblue" points="914.46,-211.96 906.41,-218.85 917,-218.48 914.46,-211.96"/>
</g>
<!-- Node4 -->
<g id="node4" class="node">
<title>Node4</title>
<g id="a_node4"><a xlink:href="classipc_1_1session_1_1Session__base.html" target="_top" xlink:title="Internal type containing data and types common to internal types Server_session_impl and Client_sessi...">
<polygon fill="white" stroke="black" points="468,-420.47 468,-464.47 614,-464.47 614,-420.47 468,-420.47"/>
<text text-anchor="start" x="476" y="-454.07" font-family="Helvetica,sans-Serif" font-size="8.00">ipc::session::Session</text>
<text text-anchor="start" x="476" y="-445.07" font-family="Helvetica,sans-Serif" font-size="8.00">_base&lt; S_MQ_TYPE_OR_NONE,</text>
<text text-anchor="start" x="476" y="-436.07" font-family="Helvetica,sans-Serif" font-size="8.00"> S_TRANSMIT_NATIVE_HANDLES,</text>
<text text-anchor="middle" x="541" y="-427.07" font-family="Helvetica,sans-Serif" font-size="8.00"> Mdt_payload &gt;</text>
</a>
</g>
</g>
<!-- Node4&#45;&gt;Node3 -->
<g id="edge3" class="edge">
<title>Node4&#45;&gt;Node3</title>
<path fill="none" stroke="midnightblue" d="M583.21,-414.86C639.74,-376.98 740.65,-309.37 796.35,-272.04"/>
<polygon fill="midnightblue" stroke="midnightblue" points="581.23,-411.97 574.87,-420.45 585.13,-417.79 581.23,-411.97"/>
</g>
<!-- Node5 -->
<g id="node5" class="node">
<title>Node5</title>
<g id="a_node5"><a xlink:title=" ">
<polygon fill="white" stroke="#bfbfbf" points="181.5,-331.97 181.5,-348.97 280.5,-348.97 280.5,-331.97 181.5,-331.97"/>
<text text-anchor="middle" x="231" y="-338.57" font-family="Helvetica,sans-Serif" font-size="8.00">boost::noncopyable</text>
</a>
</g>
</g>
<!-- Node5&#45;&gt;Node4 -->
<g id="edge4" class="edge">
<title>Node5&#45;&gt;Node4</title>
<path fill="none" stroke="#8b1a1a" d="M290.65,-348.11C335.42,-355.19 398.05,-367.81 450,-388.47 470.66,-396.69 492.06,-409.34 508.82,-420.33"/>
<polygon fill="#8b1a1a" stroke="#8b1a1a" points="290.94,-344.62 280.52,-346.56 289.88,-351.54 290.94,-344.62"/>
</g>
<!-- Node6 -->
<g id="node6" class="node">
<title>Node6</title>
<g id="a_node6"><a xlink:title=" ">
<polygon fill="white" stroke="#bfbfbf" points="180.5,-709.97 180.5,-726.97 281.5,-726.97 281.5,-709.97 180.5,-709.97"/>
<text text-anchor="middle" x="231" y="-716.57" font-family="Helvetica,sans-Serif" font-size="8.00">static constexpr bool</text>
</a>
</g>
</g>
<!-- Node6&#45;&gt;Node3 -->
<g id="edge18" class="edge">
<title>Node6&#45;&gt;Node3</title>
<path fill="none" stroke="#9a32cd" stroke-dasharray="5,2" d="M272.86,-729.11C321.22,-739.03 401.31,-746.69 450,-704.47 479.5,-678.89 448.97,-652.57 468,-618.47 488.53,-581.68 714.22,-388.23 743,-357.47 769.25,-329.42 797.11,-295.2 815.42,-272.02"/>
<polygon fill="#9a32cd" stroke="#9a32cd" points="273.56,-725.68 263.04,-726.97 272.07,-732.52 273.56,-725.68"/>
<text text-anchor="middle" x="541" y="-639.07" font-family="Helvetica,sans-Serif" font-size="8.00"> S_MQS_ENABLED</text>
<text text-anchor="middle" x="541" y="-630.07" font-family="Helvetica,sans-Serif" font-size="8.00">S_SHM_ENABLED</text>
<text text-anchor="middle" x="541" y="-621.07" font-family="Helvetica,sans-Serif" font-size="8.00">S_SOCKET_STREAM_ENABLED</text>
</g>
<!-- Node6&#45;&gt;Node4 -->
<g id="edge5" class="edge">
<title>Node6&#45;&gt;Node4</title>
<path fill="none" stroke="#9a32cd" stroke-dasharray="5,2" d="M291.47,-707.91C298.2,-705.84 304.85,-703.39 311,-700.47 320.16,-696.13 319.76,-690.65 329,-686.47 378.88,-663.93 410.44,-701.3 450,-663.47 475.09,-639.48 456.2,-620.12 468,-587.47 484.33,-542.27 510.97,-492.76 526.86,-464.86"/>
<polygon fill="#9a32cd" stroke="#9a32cd" points="290.28,-704.61 281.58,-710.66 292.16,-711.35 290.28,-704.61"/>
<text text-anchor="middle" x="389.5" y="-698.07" font-family="Helvetica,sans-Serif" font-size="8.00"> S_MQS_ENABLED</text>
<text text-anchor="middle" x="389.5" y="-689.07" font-family="Helvetica,sans-Serif" font-size="8.00">S_SOCKET_STREAM_ENABLED</text>
</g>
<!-- Node7 -->
<g id="node7" class="node">
<title>Node7</title>
<g id="a_node7"><a xlink:href="structipc_1_1session_1_1Server__app.html" target="_top" xlink:title="An App that is used as a server in at least one client&#45;server IPC split.">
<polygon fill="white" stroke="red" points="172,-673.97 172,-690.97 290,-690.97 290,-673.97 172,-673.97"/>
<text text-anchor="middle" x="231" y="-680.57" font-family="Helvetica,sans-Serif" font-size="8.00">ipc::session::Server_app</text>
</a>
</g>
</g>
<!-- Node7&#45;&gt;Node4 -->
<g id="edge6" class="edge">
<title>Node7&#45;&gt;Node4</title>
<path fill="none" stroke="#9a32cd" stroke-dasharray="5,2" d="M289.18,-671.48C296.62,-669.46 304.06,-667.13 311,-664.47 319.55,-661.2 320.4,-657.59 329,-654.47 380.47,-635.83 407.61,-666.11 450,-631.47 466.36,-618.1 459.3,-606.72 468,-587.47 487.92,-543.42 513.57,-493.11 528.26,-464.83"/>
<polygon fill="#9a32cd" stroke="#9a32cd" points="288.26,-668.1 279.44,-673.96 289.99,-674.88 288.26,-668.1"/>
<text text-anchor="middle" x="389.5" y="-657.07" font-family="Helvetica,sans-Serif" font-size="8.00"> m_srv_app_ref</text>
</g>
<!-- Node16 -->
<g id="node8" class="node">
<title>Node16</title>
<g id="a_node8"><a xlink:title=" ">
<polygon fill="white" stroke="#bfbfbf" points="195.5,-637.97 195.5,-654.97 266.5,-654.97 266.5,-637.97 195.5,-637.97"/>
<text text-anchor="middle" x="231" y="-644.57" font-family="Helvetica,sans-Serif" font-size="8.00">Fine_duration</text>
</a>
</g>
</g>
<!-- Node16&#45;&gt;Node4 -->
<g id="edge7" class="edge">
<title>Node16&#45;&gt;Node4</title>
<path fill="none" stroke="#9a32cd" stroke-dasharray="5,2" d="M276.83,-637.06C288.04,-634.48 300.01,-631.55 311,-628.47 319.12,-626.2 320.84,-624.6 329,-622.47 381.97,-608.67 405.42,-631.24 450,-599.47 497.21,-565.84 523.12,-499.14 533.91,-464.5"/>
<polygon fill="#9a32cd" stroke="#9a32cd" points="275.78,-633.71 266.79,-639.31 277.32,-640.54 275.78,-633.71"/>
<text text-anchor="middle" x="389.5" y="-625.07" font-family="Helvetica,sans-Serif" font-size="8.00"> S_OPEN_CHANNEL_TIMEOUT</text>
</g>
<!-- Node17 -->
<g id="node9" class="node">
<title>Node17</title>
<g id="a_node9"><a xlink:title=" ">
<polygon fill="white" stroke="#bfbfbf" points="177.5,-601.97 177.5,-618.97 284.5,-618.97 284.5,-601.97 177.5,-601.97"/>
<text text-anchor="middle" x="231" y="-608.57" font-family="Helvetica,sans-Serif" font-size="8.00">static constexpr size_t</text>
</a>
</g>
</g>
<!-- Node17&#45;&gt;Node4 -->
<g id="edge8" class="edge">
<title>Node17&#45;&gt;Node4</title>
<path fill="none" stroke="#9a32cd" stroke-dasharray="5,2" d="M283.49,-599.64C292.7,-597.45 302.17,-595.03 311,-592.47 373.93,-574.28 395.6,-579.97 450,-543.47 481.6,-522.27 509.24,-487.46 525.29,-464.75"/>
<polygon fill="#9a32cd" stroke="#9a32cd" points="282.59,-596.26 273.64,-601.93 284.17,-603.08 282.59,-596.26"/>
<text text-anchor="middle" x="389.5" y="-589.07" font-family="Helvetica,sans-Serif" font-size="8.00"> S_MQS_MAX_MSG_SZ</text>
</g>
<!-- Node18 -->
<g id="node10" class="node">
<title>Node18</title>
<g id="a_node10"><a xlink:title=" ">
<polygon fill="white" stroke="orangered" points="182,-547.97 182,-582.97 280,-582.97 280,-547.97 182,-547.97"/>
<text text-anchor="start" x="190" y="-572.57" font-family="Helvetica,sans-Serif" font-size="8.00">std::atomic&lt; const</text>
<text text-anchor="start" x="190" y="-563.57" font-family="Helvetica,sans-Serif" font-size="8.00"> ipc::session::Client</text>
<text text-anchor="middle" x="231" y="-554.57" font-family="Helvetica,sans-Serif" font-size="8.00">_app * &gt;</text>
</a>
</g>
</g>
<!-- Node18&#45;&gt;Node4 -->
<g id="edge9" class="edge">
<title>Node18&#45;&gt;Node4</title>
<path fill="none" stroke="#9a32cd" stroke-dasharray="5,2" d="M289.9,-546.19C297.03,-543.66 304.2,-541.06 311,-538.47 373.26,-514.81 443.78,-484.75 489.91,-464.62"/>
<polygon fill="#9a32cd" stroke="#9a32cd" points="288.51,-542.96 280.23,-549.57 290.82,-549.57 288.51,-542.96"/>
<text text-anchor="middle" x="389.5" y="-533.07" font-family="Helvetica,sans-Serif" font-size="8.00"> m_cli_app_ptr</text>
</g>
<!-- Node20 -->
<g id="node11" class="node">
<title>Node20</title>
<g id="a_node11"><a xlink:href="classipc_1_1util_1_1Shared__name.html" target="_top" xlink:title="String&#45;wrapping abstraction representing a name uniquely distinguishing a kernel&#45;persistent entity fr...">
<polygon fill="white" stroke="red" points="176,-421.97 176,-438.97 286,-438.97 286,-421.97 176,-421.97"/>
<text text-anchor="middle" x="231" y="-428.57" font-family="Helvetica,sans-Serif" font-size="8.00">ipc::util::Shared_name</text>
</a>
</g>
</g>
<!-- Node20&#45;&gt;Node4 -->
<g id="edge10" class="edge">
<title>Node20&#45;&gt;Node4</title>
<path fill="none" stroke="#9a32cd" stroke-dasharray="5,2" d="M296.06,-432.97C346.14,-434.92 415.75,-437.63 467.8,-439.66"/>
<polygon fill="#9a32cd" stroke="#9a32cd" points="296.13,-429.47 286,-432.58 295.86,-436.46 296.13,-429.47"/>
<text text-anchor="middle" x="389.5" y="-450.07" font-family="Helvetica,sans-Serif" font-size="8.00"> m_cli_namespace</text>
<text text-anchor="middle" x="389.5" y="-441.07" font-family="Helvetica,sans-Serif" font-size="8.00">m_srv_namespace</text>
</g>
<!-- Node20&#45;&gt;Node20 -->
<g id="edge11" class="edge">
<title>Node20&#45;&gt;Node20</title>
<path fill="none" stroke="#9a32cd" stroke-dasharray="5,2" d="M207.41,-447.95C207.95,-453.29 215.82,-457.47 231,-457.47 254.13,-457.47 260.28,-447.76 249.43,-439.04"/>
<polygon fill="#9a32cd" stroke="#9a32cd" points="210.58,-449.45 212.57,-439.04 204.53,-445.94 210.58,-449.45"/>
<text text-anchor="middle" x="231" y="-523.07" font-family="Helvetica,sans-Serif" font-size="8.00"> S_1ST_OR_ONLY</text>
<text text-anchor="middle" x="231" y="-514.07" font-family="Helvetica,sans-Serif" font-size="8.00">S_EMPTY</text>
<text text-anchor="start" x="192.5" y="-505.07" font-family="Helvetica,sans-Serif" font-size="8.00">S_RESOURCE_TYPE</text>
<text text-anchor="middle" x="231" y="-496.07" font-family="Helvetica,sans-Serif" font-size="8.00">_ID_MUTEX</text>
<text text-anchor="start" x="192.5" y="-487.07" font-family="Helvetica,sans-Serif" font-size="8.00">S_RESOURCE_TYPE</text>
<text text-anchor="middle" x="231" y="-478.07" font-family="Helvetica,sans-Serif" font-size="8.00">_ID_SHM</text>
<text text-anchor="middle" x="231" y="-469.07" font-family="Helvetica,sans-Serif" font-size="8.00">S_ROOT_MAGIC</text>
<text text-anchor="middle" x="231" y="-460.07" font-family="Helvetica,sans-Serif" font-size="8.00">S_SENTINEL</text>
</g>
<!-- Node9 -->
<g id="node12" class="node">
<title>Node9</title>
<g id="a_node12"><a xlink:title=" ">
<polygon fill="white" stroke="red" points="0,-78.97 0,-95.97 59,-95.97 59,-78.97 0,-78.97"/>
<text text-anchor="middle" x="29.5" y="-85.57" font-family="Helvetica,sans-Serif" font-size="8.00">std::string</text>
</a>
</g>
</g>
<!-- Node9&#45;&gt;Node20 -->
<g id="edge12" class="edge">
<title>Node9&#45;&gt;Node20</title>
<path fill="none" stroke="#9a32cd" stroke-dasharray="5,2" d="M31.51,-106.31C35.58,-162.27 55.53,-328.76 151,-412.47 158.09,-418.69 166.87,-422.88 175.99,-425.69"/>
<polygon fill="#9a32cd" stroke="#9a32cd" points="34.99,-105.88 30.86,-96.12 28.01,-106.32 34.99,-105.88"/>
<text text-anchor="middle" x="105" y="-395.07" font-family="Helvetica,sans-Serif" font-size="8.00"> m_raw_name</text>
</g>
<!-- Node29 -->
<g id="node19" class="node">
<title>Node29</title>
<g id="a_node19"><a xlink:href="classipc_1_1transport_1_1Protocol__negotiator.html" target="_top" xlink:title="A simple state machine that, assuming the opposide side of a comm pathway uses an equivalent state ma...">
<polygon fill="white" stroke="black" points="485.5,-190.47 485.5,-216.47 596.5,-216.47 596.5,-190.47 485.5,-190.47"/>
<text text-anchor="start" x="493.5" y="-206.07" font-family="Helvetica,sans-Serif" font-size="8.00">ipc::transport::Protocol</text>
<text text-anchor="middle" x="541" y="-197.07" font-family="Helvetica,sans-Serif" font-size="8.00">_negotiator</text>
</a>
</g>
</g>
<!-- Node9&#45;&gt;Node29 -->
<g id="edge23" class="edge">
<title>Node9&#45;&gt;Node29</title>
<path fill="none" stroke="#9a32cd" stroke-dasharray="5,2" d="M62.31,-75.38C139.58,-48.3 338.9,7.48 450,-90.47 480.6,-117.45 440.81,-150.06 468,-180.47 472.81,-185.85 478.88,-189.98 485.44,-193.15"/>
<polygon fill="#9a32cd" stroke="#9a32cd" points="60.9,-72.17 52.67,-78.84 63.26,-78.76 60.9,-72.17"/>
<text text-anchor="middle" x="231" y="-52.07" font-family="Helvetica,sans-Serif" font-size="8.00"> m_nickname</text>
</g>
<!-- Node23 -->
<g id="node13" class="node">
<title>Node23</title>
<g id="a_node13"><a xlink:title=" ">
<polygon fill="white" stroke="#bfbfbf" points="195.5,-259.97 195.5,-276.97 266.5,-276.97 266.5,-259.97 195.5,-259.97"/>
<text text-anchor="middle" x="231" y="-266.57" font-family="Helvetica,sans-Serif" font-size="8.00">Task_asio_err</text>
</a>
</g>
</g>
<!-- Node23&#45;&gt;Node3 -->
<g id="edge26" class="edge">
<title>Node23&#45;&gt;Node3</title>
<path fill="none" stroke="#9a32cd" stroke-dasharray="5,2" d="M276.75,-268.56C365.69,-268.47 570.94,-266.89 743,-255.47 748.83,-255.09 754.86,-254.61 760.92,-254.08"/>
<polygon fill="#9a32cd" stroke="#9a32cd" points="276.74,-265.06 266.74,-268.57 276.74,-272.06 276.74,-265.06"/>
<text text-anchor="start" x="493.5" y="-277.07" font-family="Helvetica,sans-Serif" font-size="8.00"> m_conn_on_done_func</text>
<text text-anchor="middle" x="541" y="-268.07" font-family="Helvetica,sans-Serif" font-size="8.00">_or_empty</text>
</g>
<!-- Node23&#45;&gt;Node4 -->
<g id="edge13" class="edge">
<title>Node23&#45;&gt;Node4</title>
<path fill="none" stroke="#9a32cd" stroke-dasharray="5,2" d="M277.21,-274.99C338.94,-284.03 442.81,-299.78 450,-304.47 492.99,-332.54 519.94,-389.09 532.21,-420.39"/>
<polygon fill="#9a32cd" stroke="#9a32cd" points="277.35,-271.47 266.95,-273.49 276.34,-278.4 277.35,-271.47"/>
<text text-anchor="middle" x="389.5" y="-307.07" font-family="Helvetica,sans-Serif" font-size="8.00"> m_on_err_func</text>
</g>
<!-- Node24 -->
<g id="node14" class="node">
<title>Node24</title>
<g id="a_node14"><a xlink:title=" ">
<polygon fill="white" stroke="#bfbfbf" points="151,-367.97 151,-402.97 311,-402.97 311,-367.97 151,-367.97"/>
<text text-anchor="start" x="159" y="-392.57" font-family="Helvetica,sans-Serif" font-size="8.00">Function&lt; void(Channel</text>
<text text-anchor="start" x="159" y="-383.57" font-family="Helvetica,sans-Serif" font-size="8.00">_obj &amp;&amp;new_channel, Mdt</text>
<text text-anchor="middle" x="231" y="-374.57" font-family="Helvetica,sans-Serif" font-size="8.00">_reader_ptr &amp;&amp;new_channel_mdt)&gt;</text>
</a>
</g>
</g>
<!-- Node24&#45;&gt;Node4 -->
<g id="edge14" class="edge">
<title>Node24&#45;&gt;Node4</title>
<path fill="none" stroke="#9a32cd" stroke-dasharray="5,2" d="M321.34,-391.8C361.07,-395.72 408.22,-401.9 450,-411.47 460.47,-413.87 471.43,-417.05 481.95,-420.46"/>
<polygon fill="#9a32cd" stroke="#9a32cd" points="321.43,-388.29 311.15,-390.83 320.77,-395.26 321.43,-388.29"/>
<text text-anchor="start" x="329" y="-423.07" font-family="Helvetica,sans-Serif" font-size="8.00"> m_on_passive_open_channel</text>
<text text-anchor="middle" x="389.5" y="-414.07" font-family="Helvetica,sans-Serif" font-size="8.00">_func_or_empty</text>
</g>
<!-- Node25 -->
<g id="node15" class="node">
<title>Node25</title>
<g id="a_node15"><a xlink:title=" ">
<polygon fill="white" stroke="#bfbfbf" points="201,-295.97 201,-312.97 261,-312.97 261,-295.97 201,-295.97"/>
<text text-anchor="middle" x="231" y="-302.57" font-family="Helvetica,sans-Serif" font-size="8.00">Error_code</text>
</a>
</g>
</g>
<!-- Node25&#45;&gt;Node4 -->
<g id="edge15" class="edge">
<title>Node25&#45;&gt;Node4</title>
<path fill="none" stroke="#9a32cd" stroke-dasharray="5,2" d="M271.33,-308.13C329.88,-313.82 434.72,-325 450,-333.47 486.27,-353.59 513.87,-394.65 528.45,-420.23"/>
<polygon fill="#9a32cd" stroke="#9a32cd" points="271.61,-304.64 261.32,-307.17 270.94,-311.61 271.61,-304.64"/>
<text text-anchor="start" x="341" y="-345.07" font-family="Helvetica,sans-Serif" font-size="8.00"> m_peer_state_err_code</text>
<text text-anchor="middle" x="389.5" y="-336.07" font-family="Helvetica,sans-Serif" font-size="8.00">_or_ok</text>
</g>
<!-- Node26 -->
<g id="node16" class="node">
<title>Node26</title>
<g id="a_node16"><a xlink:title=" ">
<polygon fill="white" stroke="#bfbfbf" points="177.5,-223.97 177.5,-240.97 284.5,-240.97 284.5,-223.97 177.5,-223.97"/>
<text text-anchor="middle" x="231" y="-230.57" font-family="Helvetica,sans-Serif" font-size="8.00">flow::log::Log_context</text>
</a>
</g>
</g>
<!-- Node26&#45;&gt;Node3 -->
<g id="edge16" class="edge">
<title>Node26&#45;&gt;Node3</title>
<path fill="none" stroke="midnightblue" d="M294.66,-233.82C406.6,-236.23 640.42,-241.26 760.81,-243.85"/>
<polygon fill="midnightblue" stroke="midnightblue" points="294.62,-230.32 284.54,-233.6 294.47,-237.32 294.62,-230.32"/>
</g>
<!-- Node26&#45;&gt;Node29 -->
<g id="edge21" class="edge">
<title>Node26&#45;&gt;Node29</title>
<path fill="none" stroke="midnightblue" d="M294.75,-226.56C350.73,-221.29 431.89,-213.65 485.29,-208.62"/>
<polygon fill="midnightblue" stroke="midnightblue" points="294.22,-223.1 284.6,-227.52 294.88,-230.07 294.22,-223.1"/>
</g>
<!-- Node27 -->
<g id="node17" class="node">
<title>Node27</title>
<g id="a_node17"><a xlink:title=" ">
<polygon fill="white" stroke="#bfbfbf" points="514.5,-153.97 514.5,-170.97 567.5,-170.97 567.5,-153.97 514.5,-153.97"/>
<text text-anchor="middle" x="541" y="-160.57" font-family="Helvetica,sans-Serif" font-size="8.00">ShmType</text>
</a>
</g>
</g>
<!-- Node27&#45;&gt;Node3 -->
<g id="edge17" class="edge">
<title>Node27&#45;&gt;Node3</title>
<path fill="none" stroke="#9a32cd" stroke-dasharray="5,2" d="M577.56,-162.92C618.54,-164.41 687.38,-169.94 743,-189.47 762.92,-196.47 783.21,-208.06 799.73,-218.89"/>
<polygon fill="#9a32cd" stroke="#9a32cd" points="577.62,-159.42 567.52,-162.61 577.41,-166.41 577.62,-159.42"/>
<text text-anchor="middle" x="687.5" y="-192.07" font-family="Helvetica,sans-Serif" font-size="8.00"> S_SHM_TYPE</text>
</g>
<!-- Node28 -->
<g id="node18" class="node">
<title>Node28</title>
<g id="a_node18"><a xlink:title=" ">
<polygon fill="white" stroke="#bfbfbf" points="522,-117.97 522,-134.97 560,-134.97 560,-117.97 522,-117.97"/>
<text text-anchor="middle" x="541" y="-124.57" font-family="Helvetica,sans-Serif" font-size="8.00">State</text>
</a>
</g>
</g>
<!-- Node28&#45;&gt;Node3 -->
<g id="edge19" class="edge">
<title>Node28&#45;&gt;Node3</title>
<path fill="none" stroke="#9a32cd" stroke-dasharray="5,2" d="M570.17,-128.05C618.09,-131.1 713.18,-138.82 743,-153.47 773.57,-168.5 800.25,-197.5 817.1,-218.94"/>
<polygon fill="#9a32cd" stroke="#9a32cd" points="570.35,-124.55 560.15,-127.44 569.92,-131.54 570.35,-124.55"/>
<text text-anchor="middle" x="687.5" y="-156.07" font-family="Helvetica,sans-Serif" font-size="8.00"> m_state</text>
</g>
<!-- Node29&#45;&gt;Node3 -->
<g id="edge20" class="edge">
<title>Node29&#45;&gt;Node3</title>
<path fill="none" stroke="#9a32cd" stroke-dasharray="5,2" d="M606.74,-202.1C646.41,-202.38 698.03,-204.8 743,-213.47 750.38,-214.9 757.97,-216.77 765.47,-218.91"/>
<polygon fill="#9a32cd" stroke="#9a32cd" points="606.68,-198.6 596.67,-202.07 606.66,-205.6 606.68,-198.6"/>
<text text-anchor="middle" x="687.5" y="-225.07" font-family="Helvetica,sans-Serif" font-size="8.00"> m_protocol_negotiator</text>
<text text-anchor="middle" x="687.5" y="-216.07" font-family="Helvetica,sans-Serif" font-size="8.00">m_protocol_negotiator_aux</text>
</g>
<!-- Node30 -->
<g id="node20" class="node">
<title>Node30</title>
<g id="a_node20"><a xlink:title=" ">
<polygon fill="white" stroke="#bfbfbf" points="178.5,-142.47 178.5,-168.47 283.5,-168.47 283.5,-142.47 178.5,-142.47"/>
<text text-anchor="start" x="186.5" y="-158.07" font-family="Helvetica,sans-Serif" font-size="8.00">static constexpr proto</text>
<text text-anchor="middle" x="231" y="-149.07" font-family="Helvetica,sans-Serif" font-size="8.00">_ver_t</text>
</a>
</g>
</g>
<!-- Node30&#45;&gt;Node29 -->
<g id="edge22" class="edge">
<title>Node30&#45;&gt;Node29</title>
<path fill="none" stroke="#9a32cd" stroke-dasharray="5,2" d="M294,-155.86C338.03,-157.27 398.27,-161.54 450,-173.47 458.36,-175.4 459.91,-177.61 468,-180.47 477.53,-183.84 487.83,-187.27 497.59,-190.41"/>
<polygon fill="#9a32cd" stroke="#9a32cd" points="293.83,-152.35 283.74,-155.57 293.63,-159.35 293.83,-152.35"/>
<text text-anchor="middle" x="389.5" y="-185.07" font-family="Helvetica,sans-Serif" font-size="8.00"> S_VER_UNKNOWN</text>
<text text-anchor="middle" x="389.5" y="-176.07" font-family="Helvetica,sans-Serif" font-size="8.00">S_VER_UNSUPPORTED</text>
</g>
<!-- Node31 -->
<g id="node21" class="node">
<title>Node31</title>
<g id="a_node21"><a xlink:title=" ">
<polygon fill="white" stroke="#bfbfbf" points="209,-98.97 209,-115.97 253,-115.97 253,-98.97 209,-98.97"/>
<text text-anchor="middle" x="231" y="-105.57" font-family="Helvetica,sans-Serif" font-size="8.00">int16_t</text>
</a>
</g>
</g>
<!-- Node31&#45;&gt;Node29 -->
<g id="edge24" class="edge">
<title>Node31&#45;&gt;Node29</title>
<path fill="none" stroke="#9a32cd" stroke-dasharray="5,2" d="M262.99,-100.49C309.04,-92.05 395.91,-83.79 450,-126.47 469.86,-142.14 450,-162.7 468,-180.47 472.95,-185.36 478.93,-189.21 485.32,-192.24"/>
<polygon fill="#9a32cd" stroke="#9a32cd" points="262.14,-97.09 253,-102.45 263.49,-103.96 262.14,-97.09"/>
<text text-anchor="middle" x="389.5" y="-147.07" font-family="Helvetica,sans-Serif" font-size="8.00"> m_local_max_proto_ver</text>
<text text-anchor="middle" x="389.5" y="-138.07" font-family="Helvetica,sans-Serif" font-size="8.00">m_local_min_proto_ver</text>
<text text-anchor="middle" x="389.5" y="-129.07" font-family="Helvetica,sans-Serif" font-size="8.00">m_negotiated_proto_ver</text>
</g>
<!-- Node32 -->
<g id="node22" class="node">
<title>Node32</title>
<g id="a_node22"><a xlink:title=" ">
<polygon fill="white" stroke="#bfbfbf" points="213.5,-187.97 213.5,-204.97 248.5,-204.97 248.5,-187.97 213.5,-187.97"/>
<text text-anchor="middle" x="231" y="-194.57" font-family="Helvetica,sans-Serif" font-size="8.00">bool</text>
</a>
</g>
</g>
<!-- Node32&#45;&gt;Node29 -->
<g id="edge25" class="edge">
<title>Node32&#45;&gt;Node29</title>
<path fill="none" stroke="#9a32cd" stroke-dasharray="5,2" d="M258.71,-196.06C299.82,-195.55 381.08,-195.02 450,-197.47 461.42,-197.88 473.65,-198.54 485.29,-199.28"/>
<polygon fill="#9a32cd" stroke="#9a32cd" points="258.64,-192.56 248.69,-196.2 258.74,-199.56 258.64,-192.56"/>
<text text-anchor="middle" x="389.5" y="-200.07" font-family="Helvetica,sans-Serif" font-size="8.00"> m_local_max_proto_ver_sent</text>
</g>
<!-- Node33 -->
<g id="node23" class="node">
<title>Node33</title>
<g id="a_node23"><a xlink:title=" ">
<polygon fill="white" stroke="#bfbfbf" points="507,-81.97 507,-98.97 575,-98.97 575,-81.97 507,-81.97"/>
<text text-anchor="middle" x="541" y="-88.57" font-family="Helvetica,sans-Serif" font-size="8.00">unsigned int</text>
</a>
</g>
</g>
<!-- Node33&#45;&gt;Node3 -->
<g id="edge27" class="edge">
<title>Node33&#45;&gt;Node3</title>
<path fill="none" stroke="#9a32cd" stroke-dasharray="5,2" d="M585.18,-85.5C636.65,-80.51 718.78,-75.84 743,-93.47 763.11,-108.11 749.34,-124.5 761,-146.47 775.05,-172.95 795.95,-199.86 812.13,-218.93"/>
<polygon fill="#9a32cd" stroke="#9a32cd" points="584.6,-82.04 575,-86.52 585.3,-89 584.6,-82.04"/>
<text text-anchor="start" x="635.5" y="-123.07" font-family="Helvetica,sans-Serif" font-size="8.00"> m_last_actively_opened</text>
<text text-anchor="middle" x="687.5" y="-114.07" font-family="Helvetica,sans-Serif" font-size="8.00">_channel_id</text>
<text text-anchor="start" x="635.5" y="-105.07" font-family="Helvetica,sans-Serif" font-size="8.00">m_last_passively_opened</text>
<text text-anchor="middle" x="687.5" y="-96.07" font-family="Helvetica,sans-Serif" font-size="8.00">_channel_id</text>
</g>
<!-- Node34 -->
<g id="node24" class="node">
<title>Node34</title>
<g id="a_node24"><a xlink:title=" ">
<polygon fill="white" stroke="#bfbfbf" points="483,-690.97 483,-707.97 599,-707.97 599,-690.97 483,-690.97"/>
<text text-anchor="middle" x="541" y="-697.57" font-family="Helvetica,sans-Serif" font-size="8.00">Single_thread_task_loop</text>
</a>
</g>
</g>
<!-- Node34&#45;&gt;Node1 -->
<g id="edge36" class="edge">
<title>Node34&#45;&gt;Node1</title>
<path fill="none" stroke="#9a32cd" stroke-dasharray="5,2" d="M609.53,-704.41C649.57,-705.01 700.6,-701.63 743,-685.47 1060.99,-564.27 1353.54,-254.34 1441.91,-154.78"/>
<polygon fill="#9a32cd" stroke="#9a32cd" points="609.42,-700.91 599.34,-704.17 609.26,-707.91 609.42,-700.91"/>
<text text-anchor="middle" x="984" y="-594.07" font-family="Helvetica,sans-Serif" font-size="8.00"> m_async_cleanup_worker</text>
</g>
<!-- Node34&#45;&gt;Node3 -->
<g id="edge28" class="edge">
<title>Node34&#45;&gt;Node3</title>
<path fill="none" stroke="#9a32cd" stroke-dasharray="5,2" d="M586.8,-688.46C595.82,-686.19 605.22,-683.79 614,-681.47 622.03,-679.35 623.93,-678.43 632,-676.47 680.97,-664.61 707.02,-688.74 743,-653.47 798.12,-599.43 825.81,-353.98 833.63,-272.13"/>
<polygon fill="#9a32cd" stroke="#9a32cd" points="585.69,-685.13 576.84,-690.96 587.39,-691.92 585.69,-685.13"/>
<text text-anchor="middle" x="687.5" y="-679.07" font-family="Helvetica,sans-Serif" font-size="8.00"> m_async_worker</text>
</g>
<!-- Node35 -->
<g id="node25" class="node">
<title>Node35</title>
<g id="a_node25"><a xlink:title=" ">
<polygon fill="white" stroke="#bfbfbf" points="470,-654.97 470,-671.97 612,-671.97 612,-654.97 470,-654.97"/>
<text text-anchor="middle" x="541" y="-661.57" font-family="Helvetica,sans-Serif" font-size="8.00">Master_structured_channel_ptr</text>
</a>
</g>
</g>
<!-- Node35&#45;&gt;Node3 -->
<g id="edge29" class="edge">
<title>Node35&#45;&gt;Node3</title>
<path fill="none" stroke="#9a32cd" stroke-dasharray="5,2" d="M592.42,-652.79C605.32,-650.07 619.17,-647.16 632,-644.47 681.31,-634.16 706.7,-656.41 743,-621.47 793.99,-572.39 824.01,-349.8 833.06,-272.23"/>
<polygon fill="#9a32cd" stroke="#9a32cd" points="591.38,-649.44 582.31,-654.93 592.82,-656.29 591.38,-649.44"/>
<text text-anchor="middle" x="687.5" y="-647.07" font-family="Helvetica,sans-Serif" font-size="8.00"> m_master_channel</text>
</g>
<!-- Node36 -->
<g id="node26" class="node">
<title>Node36</title>
<g id="a_node26"><a xlink:title=" ">
<polygon fill="white" stroke="black" points="776.5,-73.97 776.5,-90.97 897.5,-90.97 897.5,-73.97 776.5,-73.97"/>
<text text-anchor="middle" x="837" y="-80.57" font-family="Helvetica,sans-Serif" font-size="8.00">std::shared_ptr&lt; Arena &gt;</text>
</a>
</g>
</g>
<!-- Node36&#45;&gt;Node2 -->
<g id="edge30" class="edge">
<title>Node36&#45;&gt;Node2</title>
<path fill="none" stroke="#9a32cd" stroke-dasharray="5,2" d="M907.85,-91.61C951.09,-97.26 1007.23,-104.6 1054.72,-110.82"/>
<polygon fill="#9a32cd" stroke="#9a32cd" points="908.07,-88.11 897.7,-90.28 907.17,-95.05 908.07,-88.11"/>
<text text-anchor="middle" x="984" y="-111.07" font-family="Helvetica,sans-Serif" font-size="8.00"> m_session_shm</text>
</g>
<!-- Node37 -->
<g id="node27" class="node">
<title>Node37</title>
<g id="a_node27"><a xlink:title=" ">
<polygon fill="white" stroke="#bfbfbf" points="520.5,-9.97 520.5,-26.97 561.5,-26.97 561.5,-9.97 520.5,-9.97"/>
<text text-anchor="middle" x="541" y="-16.57" font-family="Helvetica,sans-Serif" font-size="8.00">Arena</text>
</a>
</g>
</g>
<!-- Node37&#45;&gt;Node36 -->
<g id="edge31" class="edge">
<title>Node37&#45;&gt;Node36</title>
<path fill="none" stroke="#9a32cd" stroke-dasharray="5,2" d="M571.6,-10.15C613.56,-0.21 691,11.07 743,-23.47 759.24,-34.26 746.06,-50.94 761,-63.47 766.25,-67.87 772.38,-71.28 778.84,-73.9"/>
<polygon fill="#9a32cd" stroke="#9a32cd" points="570.58,-6.79 561.73,-12.62 572.28,-13.58 570.58,-6.79"/>
<text text-anchor="middle" x="687.5" y="-26.07" font-family="Helvetica,sans-Serif" font-size="8.00"> ptr</text>
</g>
<!-- Node38 -->
<g id="node28" class="node">
<title>Node38</title>
<g id="a_node28"><a xlink:title=" ">
<polygon fill="white" stroke="#bfbfbf" points="766,-28.47 766,-54.47 908,-54.47 908,-28.47 766,-28.47"/>
<text text-anchor="start" x="774" y="-44.07" font-family="Helvetica,sans-Serif" font-size="8.00">optional&lt; typename</text>
<text text-anchor="middle" x="837" y="-35.07" font-family="Helvetica,sans-Serif" font-size="8.00"> Shm_session::Shm_channel &gt;</text>
</a>
</g>
</g>
<!-- Node38&#45;&gt;Node2 -->
<g id="edge32" class="edge">
<title>Node38&#45;&gt;Node2</title>
<path fill="none" stroke="#9a32cd" stroke-dasharray="5,2" d="M918.16,-55.96C954.68,-63.18 998.3,-72.67 1037,-83.47 1042.88,-85.11 1048.9,-86.9 1054.95,-88.77"/>
<polygon fill="#9a32cd" stroke="#9a32cd" points="918.55,-52.47 908.06,-53.98 917.2,-59.34 918.55,-52.47"/>
<text text-anchor="middle" x="984" y="-86.07" font-family="Helvetica,sans-Serif" font-size="8.00"> m_shm_channel</text>
</g>
<!-- Node39 -->
<g id="node29" class="node">
<title>Node39</title>
<g id="a_node29"><a xlink:title=" ">
<polygon fill="white" stroke="black" points="784,-110.47 784,-136.47 890,-136.47 890,-110.47 784,-110.47"/>
<text text-anchor="start" x="792" y="-126.07" font-family="Helvetica,sans-Serif" font-size="8.00">std::shared_ptr&lt; Shm</text>
<text text-anchor="middle" x="837" y="-117.07" font-family="Helvetica,sans-Serif" font-size="8.00">_session &gt;</text>
</a>
</g>
</g>
<!-- Node39&#45;&gt;Node2 -->
<g id="edge33" class="edge">
<title>Node39&#45;&gt;Node2</title>
<path fill="none" stroke="#9a32cd" stroke-dasharray="5,2" d="M900.14,-123.47C944.3,-123.47 1004.47,-123.47 1054.87,-123.47"/>
<polygon fill="#9a32cd" stroke="#9a32cd" points="900.12,-119.97 890.12,-123.47 900.12,-126.97 900.12,-119.97"/>
<text text-anchor="middle" x="984" y="-126.07" font-family="Helvetica,sans-Serif" font-size="8.00"> m_shm_session</text>
</g>
<!-- Node40 -->
<g id="node30" class="node">
<title>Node40</title>
<g id="a_node30"><a xlink:title=" ">
<polygon fill="white" stroke="#bfbfbf" points="506,-45.97 506,-62.97 576,-62.97 576,-45.97 506,-45.97"/>
<text text-anchor="middle" x="541" y="-52.57" font-family="Helvetica,sans-Serif" font-size="8.00">Shm_session</text>
</a>
</g>
</g>
<!-- Node40&#45;&gt;Node39 -->
<g id="edge34" class="edge">
<title>Node40&#45;&gt;Node39</title>
<path fill="none" stroke="#9a32cd" stroke-dasharray="5,2" d="M581.11,-43.63C624.55,-34.04 694.9,-26.06 743,-58.47 759.84,-69.82 745.89,-86.9 761,-100.47 767.49,-106.3 775.42,-110.65 783.66,-113.89"/>
<polygon fill="#9a32cd" stroke="#9a32cd" points="580.14,-40.27 571.2,-45.95 581.73,-47.08 580.14,-40.27"/>
<text text-anchor="middle" x="687.5" y="-61.07" font-family="Helvetica,sans-Serif" font-size="8.00"> ptr</text>
</g>
<!-- Node41 -->
<g id="node31" class="node">
<title>Node41</title>
<g id="a_node31"><a xlink:title=" ">
<polygon fill="white" stroke="#bfbfbf" points="1092.5,-42.47 1092.5,-68.47 1212.5,-68.47 1212.5,-42.47 1092.5,-42.47"/>
<text text-anchor="start" x="1100.5" y="-58.07" font-family="Helvetica,sans-Serif" font-size="8.00">Owner_shm_pool_listener</text>
<text text-anchor="middle" x="1152.5" y="-49.07" font-family="Helvetica,sans-Serif" font-size="8.00">_for_repository</text>
</a>
</g>
</g>
<!-- Node41&#45;&gt;Node1 -->
<g id="edge35" class="edge">
<title>Node41&#45;&gt;Node1</title>
<path fill="none" stroke="#9a32cd" stroke-dasharray="5,2" d="M1222.82,-70.41C1275.74,-81.82 1348.26,-97.45 1400.88,-108.79"/>
<polygon fill="#9a32cd" stroke="#9a32cd" points="1223.36,-66.95 1212.84,-68.26 1221.88,-73.79 1223.36,-66.95"/>
<text text-anchor="middle" x="1325.5" y="-106.07" font-family="Helvetica,sans-Serif" font-size="8.00"> m_shm_arena_pool_listener</text>
</g>
</g>
</svg>
