<?xml version="1.0" encoding="UTF-8" standalone="no"?>
<!DOCTYPE svg PUBLIC "-//W3C//DTD SVG 1.1//EN"
 "http://www.w3.org/Graphics/SVG/1.1/DTD/svg11.dtd">
<!-- Generated by graphviz version 2.43.0 (0)
 -->
<!-- Title: ipc::shm::classic::Pool_arena::construct Pages: 1 -->
<svg width="268pt" height="80pt"
 viewBox="0.00 0.00 268.00 80.00" xmlns="http://www.w3.org/2000/svg" xmlns:xlink="http://www.w3.org/1999/xlink">
<g id="graph0" class="graph" transform="scale(1 1) rotate(0) translate(4 76)">
<title>ipc::shm::classic::Pool_arena::construct</title>
<polygon fill="white" stroke="transparent" points="-4,4 -4,-76 264,-76 264,4 -4,4"/>
<!-- Node1 -->
<g id="node1" class="node">
<title>Node1</title>
<g id="a_node1"><a xlink:title="Constructs an object of given type with given ctor args, having allocated space directly in attached ...">
<polygon fill="#bfbfbf" stroke="black" points="0,-22.5 0,-48.5 106,-48.5 106,-22.5 0,-22.5"/>
<text text-anchor="start" x="8" y="-38.1" font-family="Helvetica,sans-Serif" font-size="8.00">ipc::shm::classic::</text>
<text text-anchor="middle" x="53" y="-29.1" font-family="Helvetica,sans-Serif" font-size="8.00">Pool_arena::construct</text>
</a>
</g>
</g>
<!-- Node2 -->
<g id="node2" class="node">
<title>Node2</title>
<g id="a_node2"><a xlink:href="classipc_1_1shm_1_1classic_1_1Pool__arena.html#a9da3a100a0b7199644edbadacc9083c9" target="_top" xlink:title="Allocates buffer of specified size, in bytes, in the accessed pool; returns locally&#45;derefernceable ad...">
<polygon fill="white" stroke="black" points="150.5,-45.5 150.5,-71.5 251.5,-71.5 251.5,-45.5 150.5,-45.5"/>
<text text-anchor="start" x="158.5" y="-61.1" font-family="Helvetica,sans-Serif" font-size="8.00">ipc::shm::classic::</text>
<text text-anchor="middle" x="201" y="-52.1" font-family="Helvetica,sans-Serif" font-size="8.00">Pool_arena::allocate</text>
</a>
</g>
</g>
<!-- Node1&#45;&gt;Node2 -->
<g id="edge1" class="edge">
<title>Node1&#45;&gt;Node2</title>
<path fill="none" stroke="midnightblue" d="M106.3,-43.74C117.2,-45.46 128.77,-47.28 139.92,-49.04"/>
<polygon fill="midnightblue" stroke="midnightblue" points="139.6,-52.53 150.02,-50.63 140.69,-45.61 139.6,-52.53"/>
</g>
<!-- Node3 -->
<g id="node3" class="node">
<title>Node3</title>
<g id="a_node3"><a xlink:href="classipc_1_1shm_1_1classic_1_1Pool__arena.html#a2823d6522e276e7b7b5bd518327b85d6" target="_top" xlink:title="std::construct_at() equivalent; unavailable until C++20, so here it is.">
<polygon fill="white" stroke="black" points="142,-0.5 142,-26.5 260,-26.5 260,-0.5 142,-0.5"/>
<text text-anchor="start" x="150" y="-16.1" font-family="Helvetica,sans-Serif" font-size="8.00">ipc::shm::classic::</text>
<text text-anchor="middle" x="201" y="-7.1" font-family="Helvetica,sans-Serif" font-size="8.00">Pool_arena::construct_at</text>
</a>
</g>
</g>
<!-- Node1&#45;&gt;Node3 -->
<g id="edge2" class="edge">
<title>Node1&#45;&gt;Node3</title>
<path fill="none" stroke="midnightblue" d="M106.3,-27.62C114.59,-26.37 123.27,-25.06 131.86,-23.77"/>
<polygon fill="midnightblue" stroke="midnightblue" points="132.51,-27.21 141.87,-22.26 131.47,-20.29 132.51,-27.21"/>
</g>
</g>
</svg>
