<?xml version="1.0" encoding="UTF-8" standalone="no"?>
<!DOCTYPE svg PUBLIC "-//W3C//DTD SVG 1.1//EN"
 "http://www.w3.org/Graphics/SVG/1.1/DTD/svg11.dtd">
<!-- Generated by graphviz version 2.43.0 (0)
 -->
<!-- Title: ipc::transport::sync_io::Native_socket_stream::get_logger Pages: 1 -->
<svg width="449pt" height="289pt"
 viewBox="0.00 0.00 449.00 288.50" xmlns="http://www.w3.org/2000/svg" xmlns:xlink="http://www.w3.org/1999/xlink">
<g id="graph0" class="graph" transform="scale(1 1) rotate(0) translate(4 284.5)">
<title>ipc::transport::sync_io::Native_socket_stream::get_logger</title>
<polygon fill="white" stroke="transparent" points="-4,4 -4,-284.5 445,-284.5 445,4 -4,4"/>
<!-- Node1 -->
<g id="node1" class="node">
<title>Node1</title>
<g id="a_node1"><a xlink:title="Returns logger (possibly null).">
<polygon fill="#bfbfbf" stroke="black" points="318,-127 318,-162 441,-162 441,-127 318,-127"/>
<text text-anchor="start" x="326" y="-151.6" font-family="Helvetica,sans-Serif" font-size="8.00">ipc::transport::sync</text>
<text text-anchor="start" x="326" y="-142.6" font-family="Helvetica,sans-Serif" font-size="8.00">_io::Native_socket_stream</text>
<text text-anchor="middle" x="379.5" y="-133.6" font-family="Helvetica,sans-Serif" font-size="8.00">::get_logger</text>
</a>
</g>
</g>
<!-- Node2 -->
<g id="node2" class="node">
<title>Node2</title>
<g id="a_node2"><a xlink:href="classipc_1_1transport_1_1sync__io_1_1Native__socket__stream_1_1Impl.html#af0278d57dd7654b6e611ae8d190b51fa" target="_top" xlink:title="See Native_socket_stream counterpart.">
<polygon fill="white" stroke="black" points="159,-245 159,-280 282,-280 282,-245 159,-245"/>
<text text-anchor="start" x="167" y="-269.6" font-family="Helvetica,sans-Serif" font-size="8.00">ipc::transport::sync</text>
<text text-anchor="start" x="167" y="-260.6" font-family="Helvetica,sans-Serif" font-size="8.00">_io::Native_socket_stream</text>
<text text-anchor="middle" x="220.5" y="-251.6" font-family="Helvetica,sans-Serif" font-size="8.00">::Impl::async_connect</text>
</a>
</g>
</g>
<!-- Node1&#45;&gt;Node2 -->
<g id="edge1" class="edge">
<title>Node1&#45;&gt;Node2</title>
<path fill="none" stroke="midnightblue" d="M356.39,-169.56C337.97,-189.35 310.25,-216.67 282,-235.5 276.93,-238.88 271.36,-242.02 265.73,-244.87"/>
<polygon fill="midnightblue" stroke="midnightblue" points="359.04,-171.85 363.22,-162.11 353.88,-167.12 359.04,-171.85"/>
</g>
<!-- Node3 -->
<g id="node3" class="node">
<title>Node3</title>
<g id="a_node3"><a xlink:href="classipc_1_1transport_1_1sync__io_1_1Native__socket__stream_1_1Impl.html#a25e051170a8eb568745f809bb186f980" target="_top" xlink:title="Utility that synchronously, non&#45;blockingly attempts to read over m_peer_socket into the target blob a...">
<polygon fill="white" stroke="black" points="159,-181.5 159,-225.5 282,-225.5 282,-181.5 159,-181.5"/>
<text text-anchor="start" x="167" y="-215.1" font-family="Helvetica,sans-Serif" font-size="8.00">ipc::transport::sync</text>
<text text-anchor="start" x="167" y="-206.1" font-family="Helvetica,sans-Serif" font-size="8.00">_io::Native_socket_stream</text>
<text text-anchor="start" x="167" y="-197.1" font-family="Helvetica,sans-Serif" font-size="8.00">::Impl::rcv_nb_read_low</text>
<text text-anchor="middle" x="220.5" y="-188.1" font-family="Helvetica,sans-Serif" font-size="8.00">_lvl_payload</text>
</a>
</g>
</g>
<!-- Node1&#45;&gt;Node3 -->
<g id="edge2" class="edge">
<title>Node1&#45;&gt;Node3</title>
<path fill="none" stroke="midnightblue" d="M322.12,-165.69C308.52,-170.8 293.96,-176.27 280.26,-181.42"/>
<polygon fill="midnightblue" stroke="midnightblue" points="323.69,-168.84 331.82,-162.04 321.23,-162.28 323.69,-168.84"/>
</g>
<!-- Node4 -->
<g id="node4" class="node">
<title>Node4</title>
<g id="a_node4"><a xlink:href="classipc_1_1transport_1_1sync__io_1_1Native__socket__stream_1_1Impl.html#a628983e793cbfb8f167ea1d34a876a70" target="_top" xlink:title="See Native_socket_stream counterpart.">
<polygon fill="white" stroke="black" points="159,-127 159,-162 282,-162 282,-127 159,-127"/>
<text text-anchor="start" x="167" y="-151.6" font-family="Helvetica,sans-Serif" font-size="8.00">ipc::transport::sync</text>
<text text-anchor="start" x="167" y="-142.6" font-family="Helvetica,sans-Serif" font-size="8.00">_io::Native_socket_stream</text>
<text text-anchor="middle" x="220.5" y="-133.6" font-family="Helvetica,sans-Serif" font-size="8.00">::Impl::release</text>
</a>
</g>
</g>
<!-- Node1&#45;&gt;Node4 -->
<g id="edge3" class="edge">
<title>Node1&#45;&gt;Node4</title>
<path fill="none" stroke="midnightblue" d="M307.79,-144.5C299.19,-144.5 290.47,-144.5 282.04,-144.5"/>
<polygon fill="midnightblue" stroke="midnightblue" points="307.8,-148 317.8,-144.5 307.8,-141 307.8,-148"/>
</g>
<!-- Node5 -->
<g id="node5" class="node">
<title>Node5</title>
<g id="a_node5"><a xlink:href="classipc_1_1transport_1_1sync__io_1_1Native__socket__stream_1_1Impl.html#af321a9b3ed8dc21f23988bf79c7c33f0" target="_top" xlink:title="Utility that sends non&#45;empty blob, and (unless null) hndl_or_null associated with its 1st byte,...">
<polygon fill="white" stroke="black" points="159,-63.5 159,-107.5 282,-107.5 282,-63.5 159,-63.5"/>
<text text-anchor="start" x="167" y="-97.1" font-family="Helvetica,sans-Serif" font-size="8.00">ipc::transport::sync</text>
<text text-anchor="start" x="167" y="-88.1" font-family="Helvetica,sans-Serif" font-size="8.00">_io::Native_socket_stream</text>
<text text-anchor="start" x="167" y="-79.1" font-family="Helvetica,sans-Serif" font-size="8.00">::Impl::snd_nb_write_low</text>
<text text-anchor="middle" x="220.5" y="-70.1" font-family="Helvetica,sans-Serif" font-size="8.00">_lvl_payload</text>
</a>
</g>
</g>
<!-- Node1&#45;&gt;Node5 -->
<g id="edge4" class="edge">
<title>Node1&#45;&gt;Node5</title>
<path fill="none" stroke="midnightblue" d="M322.12,-123.31C308.52,-118.2 293.96,-112.73 280.26,-107.58"/>
<polygon fill="midnightblue" stroke="midnightblue" points="321.23,-126.72 331.82,-126.96 323.69,-120.16 321.23,-126.72"/>
</g>
<!-- Node6 -->
<g id="node6" class="node">
<title>Node6</title>
<g id="a_node6"><a xlink:href="classipc_1_1transport_1_1sync__io_1_1Native__socket__stream_1_1Impl.html#a3c1c949f345f0ceef5eeca3c2edec291" target="_top" xlink:title="Either synchronously sends hndl_or_null handle (if any) and orig_blob low&#45;level blob over m_peer_sock...">
<polygon fill="white" stroke="black" points="159,-0.5 159,-44.5 282,-44.5 282,-0.5 159,-0.5"/>
<text text-anchor="start" x="167" y="-34.1" font-family="Helvetica,sans-Serif" font-size="8.00">ipc::transport::sync</text>
<text text-anchor="start" x="167" y="-25.1" font-family="Helvetica,sans-Serif" font-size="8.00">_io::Native_socket_stream</text>
<text text-anchor="start" x="167" y="-16.1" font-family="Helvetica,sans-Serif" font-size="8.00">::Impl::snd_sync_write_or</text>
<text text-anchor="middle" x="220.5" y="-7.1" font-family="Helvetica,sans-Serif" font-size="8.00">_q_payload</text>
</a>
</g>
</g>
<!-- Node1&#45;&gt;Node6 -->
<g id="edge5" class="edge">
<title>Node1&#45;&gt;Node6</title>
<path fill="none" stroke="midnightblue" d="M355.33,-119.54C336.68,-100.32 309.19,-73.85 282,-54.5 277.16,-51.06 271.9,-47.74 266.58,-44.62"/>
<polygon fill="midnightblue" stroke="midnightblue" points="352.82,-121.98 362.26,-126.78 357.87,-117.14 352.82,-121.98"/>
</g>
<!-- Node7 -->
<g id="node7" class="node">
<title>Node7</title>
<g id="a_node7"><a xlink:href="classipc_1_1transport_1_1sync__io_1_1Native__socket__stream_1_1Impl.html#a65eea0cec146df598fce1d9ab5ce7e15" target="_top" xlink:title="See Native_socket_stream counterpart.">
<polygon fill="white" stroke="black" points="0,-0.5 0,-44.5 123,-44.5 123,-0.5 0,-0.5"/>
<text text-anchor="start" x="8" y="-34.1" font-family="Helvetica,sans-Serif" font-size="8.00">ipc::transport::sync</text>
<text text-anchor="start" x="8" y="-25.1" font-family="Helvetica,sans-Serif" font-size="8.00">_io::Native_socket_stream</text>
<text text-anchor="start" x="8" y="-16.1" font-family="Helvetica,sans-Serif" font-size="8.00">::Impl::start_send_native</text>
<text text-anchor="middle" x="61.5" y="-7.1" font-family="Helvetica,sans-Serif" font-size="8.00">_handle_ops</text>
</a>
</g>
</g>
<!-- Node6&#45;&gt;Node7 -->
<g id="edge6" class="edge">
<title>Node6&#45;&gt;Node7</title>
<path fill="none" stroke="midnightblue" d="M148.79,-22.5C140.19,-22.5 131.47,-22.5 123.04,-22.5"/>
<polygon fill="midnightblue" stroke="midnightblue" points="148.8,-26 158.8,-22.5 148.8,-19 148.8,-26"/>
</g>
</g>
</svg>
