<?xml version="1.0" encoding="UTF-8" standalone="no"?>
<!DOCTYPE svg PUBLIC "-//W3C//DTD SVG 1.1//EN"
 "http://www.w3.org/Graphics/SVG/1.1/DTD/svg11.dtd">
<!-- Generated by graphviz version 2.43.0 (0)
 -->
<!-- Title: ipc::transport::Bipc_mq_handle Pages: 1 -->
<svg width="680pt" height="270pt"
 viewBox="0.00 0.00 680.00 270.00" xmlns="http://www.w3.org/2000/svg" xmlns:xlink="http://www.w3.org/1999/xlink">
<g id="graph0" class="graph" transform="scale(1 1) rotate(0) translate(4 266)">
<title>ipc::transport::Bipc_mq_handle</title>
<polygon fill="white" stroke="transparent" points="-4,4 -4,-266 676,-266 676,4 -4,4"/>
<!-- Node1 -->
<g id="node1" class="node">
<title>Node1</title>
<g id="a_node1"><a xlink:title="Implements the Persistent_mq_handle concept by thinly wrapping bipc::message_queue,...">
<polygon fill="#bfbfbf" stroke="black" points="577,-78 577,-104 672,-104 672,-78 577,-78"/>
<text text-anchor="start" x="585" y="-93.6" font-family="Helvetica,sans-Serif" font-size="8.00">ipc::transport::Bipc</text>
<text text-anchor="middle" x="624.5" y="-84.6" font-family="Helvetica,sans-Serif" font-size="8.00">_mq_handle</text>
</a>
</g>
</g>
<!-- Node2 -->
<g id="node2" class="node">
<title>Node2</title>
<g id="a_node2"><a xlink:title=" ">
<polygon fill="white" stroke="#bfbfbf" points="325.5,-244.5 325.5,-261.5 432.5,-261.5 432.5,-244.5 325.5,-244.5"/>
<text text-anchor="middle" x="379" y="-251.1" font-family="Helvetica,sans-Serif" font-size="8.00">flow::log::Log_context</text>
</a>
</g>
</g>
<!-- Node2&#45;&gt;Node1 -->
<g id="edge1" class="edge">
<title>Node2&#45;&gt;Node1</title>
<path fill="none" stroke="midnightblue" d="M429.52,-241.25C434.52,-239.42 439.43,-237.35 444,-235 514.34,-198.81 583.25,-132.46 610.87,-104.25"/>
<polygon fill="midnightblue" stroke="midnightblue" points="428.25,-237.99 419.87,-244.47 430.46,-244.63 428.25,-237.99"/>
</g>
<!-- Node3 -->
<g id="node3" class="node">
<title>Node3</title>
<g id="a_node3"><a xlink:href="classipc_1_1util_1_1Shared__name.html" target="_top" xlink:title="String&#45;wrapping abstraction representing a name uniquely distinguishing a kernel&#45;persistent entity fr...">
<polygon fill="white" stroke="black" points="324,-118.5 324,-135.5 434,-135.5 434,-118.5 324,-118.5"/>
<text text-anchor="middle" x="379" y="-125.1" font-family="Helvetica,sans-Serif" font-size="8.00">ipc::util::Shared_name</text>
</a>
</g>
</g>
<!-- Node3&#45;&gt;Node1 -->
<g id="edge2" class="edge">
<title>Node3&#45;&gt;Node1</title>
<path fill="none" stroke="#9a32cd" stroke-dasharray="5,2" d="M444.45,-119.16C478.57,-114.81 521.12,-109.06 559,-103 564.74,-102.08 570.75,-101.05 576.69,-100"/>
<polygon fill="#9a32cd" stroke="#9a32cd" points="443.63,-115.74 434.15,-120.46 444.51,-122.68 443.63,-115.74"/>
<text text-anchor="middle" x="510.5" y="-127.6" font-family="Helvetica,sans-Serif" font-size="8.00"> S_RESOURCE_TYPE_ID</text>
<text text-anchor="middle" x="510.5" y="-118.6" font-family="Helvetica,sans-Serif" font-size="8.00">m_absolute_name</text>
</g>
<!-- Node3&#45;&gt;Node3 -->
<g id="edge3" class="edge">
<title>Node3&#45;&gt;Node3</title>
<path fill="none" stroke="#9a32cd" stroke-dasharray="5,2" d="M357.28,-144.48C357.78,-149.82 365.02,-154 379,-154 400.3,-154 405.95,-144.29 395.97,-135.57"/>
<polygon fill="#9a32cd" stroke="#9a32cd" points="360.41,-146.04 362.03,-135.57 354.24,-142.75 360.41,-146.04"/>
<text text-anchor="middle" x="379" y="-219.6" font-family="Helvetica,sans-Serif" font-size="8.00"> S_1ST_OR_ONLY</text>
<text text-anchor="middle" x="379" y="-210.6" font-family="Helvetica,sans-Serif" font-size="8.00">S_EMPTY</text>
<text text-anchor="start" x="340.5" y="-201.6" font-family="Helvetica,sans-Serif" font-size="8.00">S_RESOURCE_TYPE</text>
<text text-anchor="middle" x="379" y="-192.6" font-family="Helvetica,sans-Serif" font-size="8.00">_ID_MUTEX</text>
<text text-anchor="start" x="340.5" y="-183.6" font-family="Helvetica,sans-Serif" font-size="8.00">S_RESOURCE_TYPE</text>
<text text-anchor="middle" x="379" y="-174.6" font-family="Helvetica,sans-Serif" font-size="8.00">_ID_SHM</text>
<text text-anchor="middle" x="379" y="-165.6" font-family="Helvetica,sans-Serif" font-size="8.00">S_ROOT_MAGIC</text>
<text text-anchor="middle" x="379" y="-156.6" font-family="Helvetica,sans-Serif" font-size="8.00">S_SENTINEL</text>
</g>
<!-- Node4 -->
<g id="node4" class="node">
<title>Node4</title>
<g id="a_node4"><a xlink:title=" ">
<polygon fill="white" stroke="#bfbfbf" points="150,-154.5 150,-171.5 190,-171.5 190,-154.5 150,-154.5"/>
<text text-anchor="middle" x="170" y="-161.1" font-family="Helvetica,sans-Serif" font-size="8.00">size_t</text>
</a>
</g>
</g>
<!-- Node4&#45;&gt;Node3 -->
<g id="edge4" class="edge">
<title>Node4&#45;&gt;Node3</title>
<path fill="none" stroke="#9a32cd" stroke-dasharray="5,2" d="M200.15,-157.93C233.6,-152.11 289.02,-142.48 329.11,-135.5"/>
<polygon fill="#9a32cd" stroke="#9a32cd" points="199.36,-154.52 190.1,-159.68 200.55,-161.41 199.36,-154.52"/>
<text text-anchor="middle" x="263" y="-154.6" font-family="Helvetica,sans-Serif" font-size="8.00"> S_MAX_LENGTH</text>
</g>
<!-- Node5 -->
<g id="node5" class="node">
<title>Node5</title>
<g id="a_node5"><a xlink:title=" ">
<polygon fill="white" stroke="#bfbfbf" points="128,-118.5 128,-135.5 212,-135.5 212,-118.5 128,-118.5"/>
<text text-anchor="middle" x="170" y="-125.1" font-family="Helvetica,sans-Serif" font-size="8.00">static const char</text>
</a>
</g>
</g>
<!-- Node5&#45;&gt;Node3 -->
<g id="edge5" class="edge">
<title>Node5&#45;&gt;Node3</title>
<path fill="none" stroke="#9a32cd" stroke-dasharray="5,2" d="M222.5,-127C253.31,-127 292.43,-127 323.72,-127"/>
<polygon fill="#9a32cd" stroke="#9a32cd" points="222.39,-123.5 212.39,-127 222.39,-130.5 222.39,-123.5"/>
<text text-anchor="middle" x="263" y="-129.6" font-family="Helvetica,sans-Serif" font-size="8.00"> S_SEPARATOR</text>
</g>
<!-- Node6 -->
<g id="node6" class="node">
<title>Node6</title>
<g id="a_node6"><a xlink:title=" ">
<polygon fill="white" stroke="black" points="140.5,-82.5 140.5,-99.5 199.5,-99.5 199.5,-82.5 140.5,-82.5"/>
<text text-anchor="middle" x="170" y="-89.1" font-family="Helvetica,sans-Serif" font-size="8.00">std::string</text>
</a>
</g>
</g>
<!-- Node6&#45;&gt;Node3 -->
<g id="edge6" class="edge">
<title>Node6&#45;&gt;Node3</title>
<path fill="none" stroke="#9a32cd" stroke-dasharray="5,2" d="M209.71,-97.73C243.37,-103.59 292.34,-112.1 328.78,-118.44"/>
<polygon fill="#9a32cd" stroke="#9a32cd" points="210.23,-94.27 199.78,-96.01 209.03,-101.17 210.23,-94.27"/>
<text text-anchor="middle" x="263" y="-114.6" font-family="Helvetica,sans-Serif" font-size="8.00"> m_raw_name</text>
</g>
<!-- Node7 -->
<g id="node7" class="node">
<title>Node7</title>
<g id="a_node7"><a xlink:title=" ">
<polygon fill="white" stroke="black" points="0,-78 0,-104 91,-104 91,-78 0,-78"/>
<text text-anchor="start" x="8" y="-93.6" font-family="Helvetica,sans-Serif" font-size="8.00">std::basic_string&lt;</text>
<text text-anchor="middle" x="45.5" y="-84.6" font-family="Helvetica,sans-Serif" font-size="8.00"> Char &gt;</text>
</a>
</g>
</g>
<!-- Node7&#45;&gt;Node6 -->
<g id="edge7" class="edge">
<title>Node7&#45;&gt;Node6</title>
<path fill="none" stroke="midnightblue" d="M101.25,-91C114.72,-91 128.61,-91 140.29,-91"/>
<polygon fill="midnightblue" stroke="midnightblue" points="101.07,-87.5 91.07,-91 101.07,-94.5 101.07,-87.5"/>
</g>
<!-- Node8 -->
<g id="node8" class="node">
<title>Node8</title>
<g id="a_node8"><a xlink:title=" ">
<polygon fill="white" stroke="#bfbfbf" points="328.5,-82.5 328.5,-99.5 429.5,-99.5 429.5,-82.5 328.5,-82.5"/>
<text text-anchor="middle" x="379" y="-89.1" font-family="Helvetica,sans-Serif" font-size="8.00">static constexpr bool</text>
</a>
</g>
</g>
<!-- Node8&#45;&gt;Node1 -->
<g id="edge8" class="edge">
<title>Node8&#45;&gt;Node1</title>
<path fill="none" stroke="#9a32cd" stroke-dasharray="5,2" d="M439.73,-91C482.01,-91 537.89,-91 576.89,-91"/>
<polygon fill="#9a32cd" stroke="#9a32cd" points="439.57,-87.5 429.57,-91 439.57,-94.5 439.57,-87.5"/>
<text text-anchor="middle" x="510.5" y="-93.6" font-family="Helvetica,sans-Serif" font-size="8.00"> S_HAS_NATIVE_HANDLE</text>
</g>
<!-- Node9 -->
<g id="node9" class="node">
<title>Node9</title>
<g id="a_node9"><a xlink:title=" ">
<polygon fill="white" stroke="#bfbfbf" points="314,-37 314,-63 444,-63 444,-37 314,-37"/>
<text text-anchor="start" x="322" y="-52.6" font-family="Helvetica,sans-Serif" font-size="8.00">unique_ptr&lt; bipc::message</text>
<text text-anchor="middle" x="379" y="-43.6" font-family="Helvetica,sans-Serif" font-size="8.00">_queue &gt;</text>
</a>
</g>
</g>
<!-- Node9&#45;&gt;Node1 -->
<g id="edge9" class="edge">
<title>Node9&#45;&gt;Node1</title>
<path fill="none" stroke="#9a32cd" stroke-dasharray="5,2" d="M454.55,-60.92C486.73,-65.82 524.77,-71.88 559,-78 564.73,-79.03 570.74,-80.16 576.69,-81.32"/>
<polygon fill="#9a32cd" stroke="#9a32cd" points="454.73,-57.4 444.32,-59.37 453.68,-64.33 454.73,-57.4"/>
<text text-anchor="middle" x="510.5" y="-80.6" font-family="Helvetica,sans-Serif" font-size="8.00"> m_mq</text>
</g>
<!-- Node10 -->
<g id="node10" class="node">
<title>Node10</title>
<g id="a_node10"><a xlink:title=" ">
<polygon fill="white" stroke="#bfbfbf" points="361.5,-0.5 361.5,-17.5 396.5,-17.5 396.5,-0.5 361.5,-0.5"/>
<text text-anchor="middle" x="379" y="-7.1" font-family="Helvetica,sans-Serif" font-size="8.00">bool</text>
</a>
</g>
</g>
<!-- Node10&#45;&gt;Node1 -->
<g id="edge10" class="edge">
<title>Node10&#45;&gt;Node1</title>
<path fill="none" stroke="#9a32cd" stroke-dasharray="5,2" d="M406.76,-9.82C442.8,-11.79 508.28,-18.46 559,-41 578.94,-49.86 598.23,-66.15 610.44,-77.73"/>
<polygon fill="#9a32cd" stroke="#9a32cd" points="406.72,-6.31 396.56,-9.35 406.39,-13.3 406.72,-6.31"/>
<text text-anchor="middle" x="510.5" y="-52.6" font-family="Helvetica,sans-Serif" font-size="8.00"> m_interrupting_rcv</text>
<text text-anchor="middle" x="510.5" y="-43.6" font-family="Helvetica,sans-Serif" font-size="8.00">m_interrupting_snd</text>
</g>
</g>
</svg>
