<?xml version="1.0" encoding="UTF-8" standalone="no"?>
<!DOCTYPE svg PUBLIC "-//W3C//DTD SVG 1.1//EN"
 "http://www.w3.org/Graphics/SVG/1.1/DTD/svg11.dtd">
<!-- Generated by graphviz version 2.43.0 (0)
 -->
<!-- Title: ipc::transport::Posix_mq_handle::interrupt_impl Pages: 1 -->
<svg width="284pt" height="72pt"
 viewBox="0.00 0.00 284.00 71.50" xmlns="http://www.w3.org/2000/svg" xmlns:xlink="http://www.w3.org/1999/xlink">
<g id="graph0" class="graph" transform="scale(1 1) rotate(0) translate(4 67.5)">
<title>ipc::transport::Posix_mq_handle::interrupt_impl</title>
<polygon fill="white" stroke="transparent" points="-4,4 -4,-67.5 280,-67.5 280,4 -4,4"/>
<!-- Node1 -->
<g id="node1" class="node">
<title>Node1</title>
<g id="a_node1"><a xlink:title="Impl body for interrupt_*().">
<polygon fill="#bfbfbf" stroke="black" points="0,-16 0,-42 128,-42 128,-16 0,-16"/>
<text text-anchor="start" x="8" y="-31.6" font-family="Helvetica,sans-Serif" font-size="8.00">ipc::transport::Posix</text>
<text text-anchor="middle" x="64" y="-22.6" font-family="Helvetica,sans-Serif" font-size="8.00">_mq_handle::interrupt_impl</text>
</a>
</g>
</g>
<!-- Node2 -->
<g id="node2" class="node">
<title>Node2</title>
<g id="a_node2"><a xlink:href="structipc_1_1util_1_1Native__handle.html#a11bd62ce0a7bef4bdfe666201c26d4dc" target="_top" xlink:title="Returns true if and only if m_native_handle equals S_NULL_HANDLE.">
<polygon fill="white" stroke="black" points="164,-37 164,-63 276,-63 276,-37 164,-37"/>
<text text-anchor="start" x="172" y="-52.6" font-family="Helvetica,sans-Serif" font-size="8.00">ipc::util::Native_handle</text>
<text text-anchor="middle" x="220" y="-43.6" font-family="Helvetica,sans-Serif" font-size="8.00">::null</text>
</a>
</g>
</g>
<!-- Node1&#45;&gt;Node2 -->
<g id="edge1" class="edge">
<title>Node1&#45;&gt;Node2</title>
<path fill="none" stroke="midnightblue" d="M128.08,-37.6C136.47,-38.75 145.08,-39.92 153.51,-41.07"/>
<polygon fill="midnightblue" stroke="midnightblue" points="153.28,-44.57 163.66,-42.45 154.23,-37.63 153.28,-44.57"/>
</g>
<!-- Node3 -->
<g id="node3" class="node">
<title>Node3</title>
<g id="a_node3"><a xlink:href="namespaceipc_1_1util.html#a5429c6225cc9a271ad8c0041d99c236b" target="_top" xlink:title="Writes a byte to the given pipe writer.">
<polygon fill="white" stroke="black" points="165.5,-0.5 165.5,-17.5 274.5,-17.5 274.5,-0.5 165.5,-0.5"/>
<text text-anchor="middle" x="220" y="-7.1" font-family="Helvetica,sans-Serif" font-size="8.00">ipc::util::pipe_produce</text>
</a>
</g>
</g>
<!-- Node1&#45;&gt;Node3 -->
<g id="edge2" class="edge">
<title>Node1&#45;&gt;Node3</title>
<path fill="none" stroke="midnightblue" d="M128.08,-20.81C137.01,-19.65 146.2,-18.45 155.15,-17.29"/>
<polygon fill="midnightblue" stroke="midnightblue" points="155.66,-20.76 165.12,-16 154.75,-13.81 155.66,-20.76"/>
</g>
</g>
</svg>
