<?xml version="1.0" encoding="UTF-8" standalone="no"?>
<!DOCTYPE svg PUBLIC "-//W3C//DTD SVG 1.1//EN"
 "http://www.w3.org/Graphics/SVG/1.1/DTD/svg11.dtd">
<!-- Generated by graphviz version 2.43.0 (0)
 -->
<!-- Title: ipc::transport::Mqs_socket_stream_channel&lt; SIO, Persistent_mq_handle &gt; Pages: 1 -->
<svg width="991pt" height="334pt"
 viewBox="0.00 0.00 991.00 333.50" xmlns="http://www.w3.org/2000/svg" xmlns:xlink="http://www.w3.org/1999/xlink">
<g id="graph0" class="graph" transform="scale(1 1) rotate(0) translate(4 329.5)">
<title>ipc::transport::Mqs_socket_stream_channel&lt; SIO, Persistent_mq_handle &gt;</title>
<polygon fill="white" stroke="transparent" points="-4,4 -4,-329.5 987,-329.5 987,4 -4,4"/>
<!-- Node1 -->
<g id="node1" class="node">
<title>Node1</title>
<g id="a_node1"><a xlink:title="A Channel with a blobs pipe consisting of 2 MQs of type Persistent_mq_handle (template arg); and a ha...">
<polygon fill="#bfbfbf" stroke="black" points="841,-131 841,-166 983,-166 983,-131 841,-131"/>
<text text-anchor="start" x="849" y="-155.6" font-family="Helvetica,sans-Serif" font-size="8.00">ipc::transport::Mqs</text>
<text text-anchor="start" x="849" y="-146.6" font-family="Helvetica,sans-Serif" font-size="8.00">_socket_stream_channel</text>
<text text-anchor="middle" x="912" y="-137.6" font-family="Helvetica,sans-Serif" font-size="8.00">&lt; SIO, Persistent_mq_handle &gt;</text>
</a>
</g>
</g>
<!-- Node2 -->
<g id="node2" class="node">
<title>Node2</title>
<g id="a_node2"><a xlink:href="classipc_1_1transport_1_1Mqs__channel.html" target="_top" xlink:title=" ">
<polygon fill="white" stroke="black" points="650,-108.5 650,-188.5 804,-188.5 804,-108.5 650,-108.5"/>
<text text-anchor="start" x="658" y="-178.1" font-family="Helvetica,sans-Serif" font-size="8.00">ipc::transport::Mqs</text>
<text text-anchor="start" x="658" y="-169.1" font-family="Helvetica,sans-Serif" font-size="8.00">_channel&lt; SIO, Persistent</text>
<text text-anchor="start" x="658" y="-160.1" font-family="Helvetica,sans-Serif" font-size="8.00">_mq_handle, std::conditional</text>
<text text-anchor="start" x="658" y="-151.1" font-family="Helvetica,sans-Serif" font-size="8.00">_t&lt; SIO, sync_io::Native_socket</text>
<text text-anchor="start" x="658" y="-142.1" font-family="Helvetica,sans-Serif" font-size="8.00">_stream, Native_socket_stream</text>
<text text-anchor="start" x="658" y="-133.1" font-family="Helvetica,sans-Serif" font-size="8.00"> &gt;, std::conditional_t&lt; SIO, sync</text>
<text text-anchor="start" x="658" y="-124.1" font-family="Helvetica,sans-Serif" font-size="8.00">_io::Native_socket_stream, Native</text>
<text text-anchor="middle" x="727" y="-115.1" font-family="Helvetica,sans-Serif" font-size="8.00">_socket_stream &gt; &gt;</text>
</a>
</g>
</g>
<!-- Node2&#45;&gt;Node1 -->
<g id="edge1" class="edge">
<title>Node2&#45;&gt;Node1</title>
<path fill="none" stroke="midnightblue" d="M814.07,-148.5C823.02,-148.5 832.04,-148.5 840.78,-148.5"/>
<polygon fill="midnightblue" stroke="midnightblue" points="814.02,-145 804.02,-148.5 814.02,-152 814.02,-145"/>
</g>
<!-- Node3 -->
<g id="node3" class="node">
<title>Node3</title>
<g id="a_node3"><a xlink:href="classipc_1_1transport_1_1Channel.html" target="_top" xlink:title=" ">
<polygon fill="white" stroke="black" points="378,-86 378,-211 613,-211 613,-86 378,-86"/>
<text text-anchor="start" x="386" y="-200.6" font-family="Helvetica,sans-Serif" font-size="8.00">ipc::transport::Channel</text>
<text text-anchor="start" x="386" y="-191.6" font-family="Helvetica,sans-Serif" font-size="8.00">&lt; std::conditional_t&lt;</text>
<text text-anchor="start" x="386" y="-182.6" font-family="Helvetica,sans-Serif" font-size="8.00"> SIO, sync_io::Blob_stream</text>
<text text-anchor="start" x="386" y="-173.6" font-family="Helvetica,sans-Serif" font-size="8.00">_mq_sender&lt; Persistent_mq</text>
<text text-anchor="start" x="386" y="-164.6" font-family="Helvetica,sans-Serif" font-size="8.00">_handle &gt;, Blob_stream_mq_sender</text>
<text text-anchor="start" x="386" y="-155.6" font-family="Helvetica,sans-Serif" font-size="8.00">&lt; Persistent_mq_handle &gt; &gt;, std</text>
<text text-anchor="start" x="386" y="-146.6" font-family="Helvetica,sans-Serif" font-size="8.00">::conditional_t&lt; SIO, sync_io::Blob</text>
<text text-anchor="start" x="386" y="-137.6" font-family="Helvetica,sans-Serif" font-size="8.00">_stream_mq_receiver&lt; Persistent_mq</text>
<text text-anchor="start" x="386" y="-128.6" font-family="Helvetica,sans-Serif" font-size="8.00">_handle &gt;, Blob_stream_mq_receiver&lt;</text>
<text text-anchor="start" x="386" y="-119.6" font-family="Helvetica,sans-Serif" font-size="8.00"> Persistent_mq_handle &gt; &gt;, std::conditional</text>
<text text-anchor="start" x="386" y="-110.6" font-family="Helvetica,sans-Serif" font-size="8.00">_t&lt; SIO, sync_io::Native_socket_stream, Native</text>
<text text-anchor="start" x="386" y="-101.6" font-family="Helvetica,sans-Serif" font-size="8.00">_socket_stream &gt;, std::conditional_t&lt; SIO, sync</text>
<text text-anchor="middle" x="495.5" y="-92.6" font-family="Helvetica,sans-Serif" font-size="8.00">_io::Native_socket_stream, Native_socket_stream &gt; &gt;</text>
</a>
</g>
</g>
<!-- Node3&#45;&gt;Node2 -->
<g id="edge2" class="edge">
<title>Node3&#45;&gt;Node2</title>
<path fill="none" stroke="midnightblue" d="M623.42,-148.5C632.39,-148.5 641.26,-148.5 649.8,-148.5"/>
<polygon fill="midnightblue" stroke="midnightblue" points="623.27,-145 613.27,-148.5 623.27,-152 623.27,-145"/>
</g>
<!-- Node4 -->
<g id="node4" class="node">
<title>Node4</title>
<g id="a_node4"><a xlink:title=" ">
<polygon fill="white" stroke="#bfbfbf" points="133.5,-308 133.5,-325 240.5,-325 240.5,-308 133.5,-308"/>
<text text-anchor="middle" x="187" y="-314.6" font-family="Helvetica,sans-Serif" font-size="8.00">flow::log::Log_context</text>
</a>
</g>
</g>
<!-- Node4&#45;&gt;Node3 -->
<g id="edge3" class="edge">
<title>Node4&#45;&gt;Node3</title>
<path fill="none" stroke="midnightblue" d="M251.08,-319.63C285.04,-318.81 326.68,-313.61 360,-296.5 397.99,-276.99 430.52,-242.06 454.07,-211.04"/>
<polygon fill="midnightblue" stroke="midnightblue" points="250.76,-316.13 240.81,-319.75 250.85,-323.13 250.76,-316.13"/>
</g>
<!-- Node5 -->
<g id="node5" class="node">
<title>Node5</title>
<g id="a_node5"><a xlink:title=" ">
<polygon fill="white" stroke="#bfbfbf" points="136.5,-217 136.5,-234 237.5,-234 237.5,-217 136.5,-217"/>
<text text-anchor="middle" x="187" y="-223.6" font-family="Helvetica,sans-Serif" font-size="8.00">static constexpr bool</text>
</a>
</g>
</g>
<!-- Node5&#45;&gt;Node3 -->
<g id="edge4" class="edge">
<title>Node5&#45;&gt;Node3</title>
<path fill="none" stroke="#9a32cd" stroke-dasharray="5,2" d="M247.67,-215.44C280.94,-209.4 323,-201.04 360,-191.5 365.82,-190 371.75,-188.39 377.73,-186.72"/>
<polygon fill="#9a32cd" stroke="#9a32cd" points="246.87,-212.03 237.64,-217.24 248.1,-218.92 246.87,-212.03"/>
<text text-anchor="middle" x="312" y="-286.1" font-family="Helvetica,sans-Serif" font-size="8.00"> S_HAS_2_PIPES</text>
<text text-anchor="middle" x="312" y="-277.1" font-family="Helvetica,sans-Serif" font-size="8.00">S_HAS_BLOB_PIPE</text>
<text text-anchor="middle" x="312" y="-268.1" font-family="Helvetica,sans-Serif" font-size="8.00">S_HAS_BLOB_PIPE_ONLY</text>
<text text-anchor="start" x="264" y="-259.1" font-family="Helvetica,sans-Serif" font-size="8.00">S_HAS_NATIVE_HANDLE</text>
<text text-anchor="middle" x="312" y="-250.1" font-family="Helvetica,sans-Serif" font-size="8.00">_PIPE</text>
<text text-anchor="start" x="264" y="-241.1" font-family="Helvetica,sans-Serif" font-size="8.00">S_HAS_NATIVE_HANDLE</text>
<text text-anchor="middle" x="312" y="-232.1" font-family="Helvetica,sans-Serif" font-size="8.00">_PIPE_ONLY</text>
<text text-anchor="middle" x="312" y="-223.1" font-family="Helvetica,sans-Serif" font-size="8.00">S_IS_ASYNC_IO_OBJ</text>
<text text-anchor="middle" x="312" y="-214.1" font-family="Helvetica,sans-Serif" font-size="8.00">S_IS_SYNC_IO_OBJ</text>
</g>
<!-- Node6 -->
<g id="node6" class="node">
<title>Node6</title>
<g id="a_node6"><a xlink:title=" ">
<polygon fill="white" stroke="black" points="157.5,-181 157.5,-198 216.5,-198 216.5,-181 157.5,-181"/>
<text text-anchor="middle" x="187" y="-187.6" font-family="Helvetica,sans-Serif" font-size="8.00">std::string</text>
</a>
</g>
</g>
<!-- Node6&#45;&gt;Node3 -->
<g id="edge5" class="edge">
<title>Node6&#45;&gt;Node3</title>
<path fill="none" stroke="#9a32cd" stroke-dasharray="5,2" d="M226.65,-184.33C264.55,-179.26 324.27,-171.27 377.7,-164.12"/>
<polygon fill="#9a32cd" stroke="#9a32cd" points="226.01,-180.88 216.56,-185.68 226.94,-187.82 226.01,-180.88"/>
<text text-anchor="middle" x="312" y="-181.1" font-family="Helvetica,sans-Serif" font-size="8.00"> m_nickname</text>
</g>
<!-- Node7 -->
<g id="node7" class="node">
<title>Node7</title>
<g id="a_node7"><a xlink:title=" ">
<polygon fill="white" stroke="black" points="0,-176.5 0,-202.5 91,-202.5 91,-176.5 0,-176.5"/>
<text text-anchor="start" x="8" y="-192.1" font-family="Helvetica,sans-Serif" font-size="8.00">std::basic_string&lt;</text>
<text text-anchor="middle" x="45.5" y="-183.1" font-family="Helvetica,sans-Serif" font-size="8.00"> Char &gt;</text>
</a>
</g>
</g>
<!-- Node7&#45;&gt;Node6 -->
<g id="edge6" class="edge">
<title>Node7&#45;&gt;Node6</title>
<path fill="none" stroke="midnightblue" d="M101.16,-189.5C120.32,-189.5 141.07,-189.5 157.25,-189.5"/>
<polygon fill="midnightblue" stroke="midnightblue" points="101.02,-186 91.02,-189.5 101.02,-193 101.02,-186"/>
</g>
<!-- Node8 -->
<g id="node8" class="node">
<title>Node8</title>
<g id="a_node8"><a xlink:title=" ">
<polygon fill="white" stroke="#bfbfbf" points="132,-135.5 132,-161.5 242,-161.5 242,-135.5 132,-135.5"/>
<text text-anchor="start" x="140" y="-151.1" font-family="Helvetica,sans-Serif" font-size="8.00">optional&lt; Blob_sender</text>
<text text-anchor="middle" x="187" y="-142.1" font-family="Helvetica,sans-Serif" font-size="8.00">_obj &gt;</text>
</a>
</g>
</g>
<!-- Node8&#45;&gt;Node3 -->
<g id="edge7" class="edge">
<title>Node8&#45;&gt;Node3</title>
<path fill="none" stroke="#9a32cd" stroke-dasharray="5,2" d="M252.54,-148.5C288.85,-148.5 335.3,-148.5 377.78,-148.5"/>
<polygon fill="#9a32cd" stroke="#9a32cd" points="252.09,-145 242.09,-148.5 252.09,-152 252.09,-145"/>
<text text-anchor="middle" x="312" y="-151.1" font-family="Helvetica,sans-Serif" font-size="8.00"> m_blob_snd</text>
</g>
<!-- Node9 -->
<g id="node9" class="node">
<title>Node9</title>
<g id="a_node9"><a xlink:title=" ">
<polygon fill="white" stroke="#bfbfbf" points="130,-90.5 130,-116.5 244,-116.5 244,-90.5 130,-90.5"/>
<text text-anchor="start" x="138" y="-106.1" font-family="Helvetica,sans-Serif" font-size="8.00">optional&lt; Blob_receiver</text>
<text text-anchor="middle" x="187" y="-97.1" font-family="Helvetica,sans-Serif" font-size="8.00">_obj &gt;</text>
</a>
</g>
</g>
<!-- Node9&#45;&gt;Node3 -->
<g id="edge8" class="edge">
<title>Node9&#45;&gt;Node3</title>
<path fill="none" stroke="#9a32cd" stroke-dasharray="5,2" d="M254.12,-113.21C290.17,-118.5 335.86,-125.21 377.7,-131.35"/>
<polygon fill="#9a32cd" stroke="#9a32cd" points="254.62,-109.74 244.22,-111.75 253.6,-116.67 254.62,-109.74"/>
<text text-anchor="middle" x="312" y="-131.1" font-family="Helvetica,sans-Serif" font-size="8.00"> m_blob_rcv</text>
</g>
<!-- Node10 -->
<g id="node10" class="node">
<title>Node10</title>
<g id="a_node10"><a xlink:title=" ">
<polygon fill="white" stroke="#bfbfbf" points="128,-45.5 128,-71.5 246,-71.5 246,-45.5 128,-45.5"/>
<text text-anchor="start" x="136" y="-61.1" font-family="Helvetica,sans-Serif" font-size="8.00">optional&lt; Native_handle</text>
<text text-anchor="middle" x="187" y="-52.1" font-family="Helvetica,sans-Serif" font-size="8.00">_sender_obj &gt;</text>
</a>
</g>
</g>
<!-- Node10&#45;&gt;Node3 -->
<g id="edge9" class="edge">
<title>Node10&#45;&gt;Node3</title>
<path fill="none" stroke="#9a32cd" stroke-dasharray="5,2" d="M253.46,-73.95C285.7,-81.89 325.07,-92.08 360,-102.5 365.79,-104.23 371.71,-106.05 377.67,-107.92"/>
<polygon fill="#9a32cd" stroke="#9a32cd" points="254.24,-70.54 243.69,-71.56 252.57,-77.34 254.24,-70.54"/>
<text text-anchor="middle" x="312" y="-105.1" font-family="Helvetica,sans-Serif" font-size="8.00"> m_hndl_snd</text>
</g>
<!-- Node11 -->
<g id="node11" class="node">
<title>Node11</title>
<g id="a_node11"><a xlink:title=" ">
<polygon fill="white" stroke="#bfbfbf" points="128,-0.5 128,-26.5 246,-26.5 246,-0.5 128,-0.5"/>
<text text-anchor="start" x="136" y="-16.1" font-family="Helvetica,sans-Serif" font-size="8.00">optional&lt; Native_handle</text>
<text text-anchor="middle" x="187" y="-7.1" font-family="Helvetica,sans-Serif" font-size="8.00">_receiver_obj &gt;</text>
</a>
</g>
</g>
<!-- Node11&#45;&gt;Node3 -->
<g id="edge10" class="edge">
<title>Node11&#45;&gt;Node3</title>
<path fill="none" stroke="#9a32cd" stroke-dasharray="5,2" d="M256.17,-28.61C288.41,-36.94 326.98,-48.63 360,-63.5 374.36,-69.97 388.99,-77.77 403.06,-85.99"/>
<polygon fill="#9a32cd" stroke="#9a32cd" points="256.94,-25.2 246.38,-26.14 255.22,-31.98 256.94,-25.2"/>
<text text-anchor="middle" x="312" y="-66.1" font-family="Helvetica,sans-Serif" font-size="8.00"> m_hndl_rcv</text>
</g>
</g>
</svg>
