<?xml version="1.0" encoding="UTF-8" standalone="no"?>
<!DOCTYPE svg PUBLIC "-//W3C//DTD SVG 1.1//EN"
 "http://www.w3.org/Graphics/SVG/1.1/DTD/svg11.dtd">
<!-- Generated by graphviz version 2.43.0 (0)
 -->
<!-- Title: ipc::util::sync_io::Asio_waitable_native_handle::assign Pages: 1 -->
<svg width="458pt" height="396pt"
 viewBox="0.00 0.00 458.00 395.50" xmlns="http://www.w3.org/2000/svg" xmlns:xlink="http://www.w3.org/1999/xlink">
<g id="graph0" class="graph" transform="scale(1 1) rotate(0) translate(4 391.5)">
<title>ipc::util::sync_io::Asio_waitable_native_handle::assign</title>
<polygon fill="white" stroke="transparent" points="-4,4 -4,-391.5 454,-391.5 454,4 -4,4"/>
<!-- Node1 -->
<g id="node1" class="node">
<title>Node1</title>
<g id="a_node1"><a xlink:title="Loads value to be returned by native_handle().">
<polygon fill="#bfbfbf" stroke="black" points="342,-190 342,-225 450,-225 450,-190 342,-190"/>
<text text-anchor="start" x="350" y="-214.6" font-family="Helvetica,sans-Serif" font-size="8.00">ipc::util::sync_io</text>
<text text-anchor="start" x="350" y="-205.6" font-family="Helvetica,sans-Serif" font-size="8.00">::Asio_waitable_native</text>
<text text-anchor="middle" x="396" y="-196.6" font-family="Helvetica,sans-Serif" font-size="8.00">_handle::assign</text>
</a>
</g>
</g>
<!-- Node2 -->
<g id="node2" class="node">
<title>Node2</title>
<g id="a_node2"><a xlink:href="classipc_1_1transport_1_1sync__io_1_1Blob__stream__mq__receiver__impl.html#a3e1c13dc986985621ab05de16f9e811c" target="_top" xlink:title="See Blob_stream_mq_receiver counterpart.">
<polygon fill="white" stroke="black" points="138,-352 138,-387 306,-387 306,-352 138,-352"/>
<text text-anchor="start" x="146" y="-376.6" font-family="Helvetica,sans-Serif" font-size="8.00">ipc::transport::sync</text>
<text text-anchor="start" x="146" y="-367.6" font-family="Helvetica,sans-Serif" font-size="8.00">_io::Blob_stream_mq_receiver</text>
<text text-anchor="middle" x="222" y="-358.6" font-family="Helvetica,sans-Serif" font-size="8.00">_impl::Blob_stream_mq_receiver_impl</text>
</a>
</g>
</g>
<!-- Node1&#45;&gt;Node2 -->
<g id="edge1" class="edge">
<title>Node1&#45;&gt;Node2</title>
<path fill="none" stroke="midnightblue" d="M383.94,-234.34C370.07,-264.8 343.47,-313.94 306,-342.5 301.3,-346.08 296.11,-349.2 290.68,-351.91"/>
<polygon fill="midnightblue" stroke="midnightblue" points="387.15,-235.72 387.99,-225.16 380.75,-232.9 387.15,-235.72"/>
</g>
<!-- Node3 -->
<g id="node3" class="node">
<title>Node3</title>
<g id="a_node3"><a xlink:href="classipc_1_1transport_1_1sync__io_1_1Blob__stream__mq__sender__impl.html#a71caa7f5002886b2c0717645945d7144" target="_top" xlink:title="See Blob_stream_mq_sender counterpart.">
<polygon fill="white" stroke="black" points="140,-298 140,-333 304,-333 304,-298 140,-298"/>
<text text-anchor="start" x="148" y="-322.6" font-family="Helvetica,sans-Serif" font-size="8.00">ipc::transport::sync</text>
<text text-anchor="start" x="148" y="-313.6" font-family="Helvetica,sans-Serif" font-size="8.00">_io::Blob_stream_mq_sender</text>
<text text-anchor="middle" x="222" y="-304.6" font-family="Helvetica,sans-Serif" font-size="8.00">_impl::Blob_stream_mq_sender_impl</text>
</a>
</g>
</g>
<!-- Node1&#45;&gt;Node3 -->
<g id="edge2" class="edge">
<title>Node1&#45;&gt;Node3</title>
<path fill="none" stroke="midnightblue" d="M372.8,-232.76C356,-250.51 331.53,-273.66 306,-288.5 299.97,-292 293.43,-295.12 286.76,-297.87"/>
<polygon fill="midnightblue" stroke="midnightblue" points="375.73,-234.74 379.95,-225.03 370.59,-229.99 375.73,-234.74"/>
</g>
<!-- Node4 -->
<g id="node4" class="node">
<title>Node4</title>
<g id="a_node4"><a xlink:href="classipc_1_1transport_1_1sync__io_1_1Native__socket__stream_1_1Impl.html#ae9194e2eefe81185d1bf067b1f934657" target="_top" xlink:title="See Native_socket_stream counterpart.">
<polygon fill="white" stroke="black" points="160.5,-244 160.5,-279 283.5,-279 283.5,-244 160.5,-244"/>
<text text-anchor="start" x="168.5" y="-268.6" font-family="Helvetica,sans-Serif" font-size="8.00">ipc::transport::sync</text>
<text text-anchor="start" x="168.5" y="-259.6" font-family="Helvetica,sans-Serif" font-size="8.00">_io::Native_socket_stream</text>
<text text-anchor="middle" x="222" y="-250.6" font-family="Helvetica,sans-Serif" font-size="8.00">::Impl::Impl</text>
</a>
</g>
</g>
<!-- Node1&#45;&gt;Node4 -->
<g id="edge3" class="edge">
<title>Node1&#45;&gt;Node4</title>
<path fill="none" stroke="midnightblue" d="M332.41,-227.15C314.87,-232.66 295.93,-238.6 278.81,-243.98"/>
<polygon fill="midnightblue" stroke="midnightblue" points="333.5,-230.48 341.99,-224.14 331.4,-223.8 333.5,-230.48"/>
</g>
<!-- Node5 -->
<g id="node5" class="node">
<title>Node5</title>
<g id="a_node5"><a xlink:href="classipc_1_1session_1_1sync__io_1_1Session__adapter.html#a48b4b10dcb605860a58d2a394ba9c35b" target="_top" xlink:title="Utility that sets up an IPC&#45;pipe in the given peer objects as well as loading a watcher&#45;descriptor ob...">
<polygon fill="white" stroke="black" points="171,-190 171,-225 273,-225 273,-190 171,-190"/>
<text text-anchor="start" x="179" y="-214.6" font-family="Helvetica,sans-Serif" font-size="8.00">ipc::session::sync</text>
<text text-anchor="start" x="179" y="-205.6" font-family="Helvetica,sans-Serif" font-size="8.00">_io::Session_adapter</text>
<text text-anchor="middle" x="222" y="-196.6" font-family="Helvetica,sans-Serif" font-size="8.00">::init_pipe</text>
</a>
</g>
</g>
<!-- Node1&#45;&gt;Node5 -->
<g id="edge4" class="edge">
<title>Node1&#45;&gt;Node5</title>
<path fill="none" stroke="midnightblue" d="M331.77,-207.5C312.46,-207.5 291.51,-207.5 273.19,-207.5"/>
<polygon fill="midnightblue" stroke="midnightblue" points="331.99,-211 341.99,-207.5 331.99,-204 331.99,-211"/>
</g>
<!-- Node7 -->
<g id="node7" class="node">
<title>Node7</title>
<g id="a_node7"><a xlink:href="classipc_1_1transport_1_1sync__io_1_1Native__socket__stream__acceptor.html#a05f101c91a2c6b5c393b8036c5379939" target="_top" xlink:title="All notes from Async_io_obj API counterpart API apply.">
<polygon fill="white" stroke="black" points="160.5,-126.5 160.5,-170.5 283.5,-170.5 283.5,-126.5 160.5,-126.5"/>
<text text-anchor="start" x="168.5" y="-160.1" font-family="Helvetica,sans-Serif" font-size="8.00">ipc::transport::sync</text>
<text text-anchor="start" x="168.5" y="-151.1" font-family="Helvetica,sans-Serif" font-size="8.00">_io::Native_socket_stream</text>
<text text-anchor="start" x="168.5" y="-142.1" font-family="Helvetica,sans-Serif" font-size="8.00">_acceptor::Native_socket</text>
<text text-anchor="middle" x="222" y="-133.1" font-family="Helvetica,sans-Serif" font-size="8.00">_stream_acceptor</text>
</a>
</g>
</g>
<!-- Node1&#45;&gt;Node7 -->
<g id="edge6" class="edge">
<title>Node1&#45;&gt;Node7</title>
<path fill="none" stroke="midnightblue" d="M334.35,-186.7C317.9,-181.05 300.1,-174.95 283.65,-169.3"/>
<polygon fill="midnightblue" stroke="midnightblue" points="333.27,-190.02 343.86,-189.96 335.54,-183.4 333.27,-190.02"/>
</g>
<!-- Node8 -->
<g id="node8" class="node">
<title>Node8</title>
<g id="a_node8"><a xlink:href="classipc_1_1transport_1_1sync__io_1_1Native__socket__stream__acceptor.html#ad0773dd896a3b607299ba7e5e153972c" target="_top" xlink:title="Analogous to transport::sync_io::Native_handle_sender::replace_event_wait_handles().">
<polygon fill="white" stroke="black" points="160.5,-63.5 160.5,-107.5 283.5,-107.5 283.5,-63.5 160.5,-63.5"/>
<text text-anchor="start" x="168.5" y="-97.1" font-family="Helvetica,sans-Serif" font-size="8.00">ipc::transport::sync</text>
<text text-anchor="start" x="168.5" y="-88.1" font-family="Helvetica,sans-Serif" font-size="8.00">_io::Native_socket_stream</text>
<text text-anchor="start" x="168.5" y="-79.1" font-family="Helvetica,sans-Serif" font-size="8.00">_acceptor::replace_event</text>
<text text-anchor="middle" x="222" y="-70.1" font-family="Helvetica,sans-Serif" font-size="8.00">_wait_handles</text>
</a>
</g>
</g>
<!-- Node1&#45;&gt;Node8 -->
<g id="edge7" class="edge">
<title>Node1&#45;&gt;Node8</title>
<path fill="none" stroke="midnightblue" d="M374.96,-181.98C358.29,-162.16 332.99,-135.16 306,-117.5 299.15,-113.02 291.58,-109.02 283.88,-105.5"/>
<polygon fill="midnightblue" stroke="midnightblue" points="372.28,-184.23 381.34,-189.72 377.68,-179.77 372.28,-184.23"/>
</g>
<!-- Node9 -->
<g id="node9" class="node">
<title>Node9</title>
<g id="a_node9"><a xlink:href="classipc_1_1session_1_1sync__io_1_1Session__server__adapter.html#a12a249300b19d23dce13e1a79870f50a" target="_top" xlink:title="Forwards to the Session_server_obj ctor.">
<polygon fill="white" stroke="black" points="162,-0.5 162,-44.5 282,-44.5 282,-0.5 162,-0.5"/>
<text text-anchor="start" x="170" y="-34.1" font-family="Helvetica,sans-Serif" font-size="8.00">ipc::session::sync</text>
<text text-anchor="start" x="170" y="-25.1" font-family="Helvetica,sans-Serif" font-size="8.00">_io::Session_server</text>
<text text-anchor="start" x="170" y="-16.1" font-family="Helvetica,sans-Serif" font-size="8.00">_adapter::Session_server</text>
<text text-anchor="middle" x="222" y="-7.1" font-family="Helvetica,sans-Serif" font-size="8.00">_adapter</text>
</a>
</g>
</g>
<!-- Node1&#45;&gt;Node9 -->
<g id="edge8" class="edge">
<title>Node1&#45;&gt;Node9</title>
<path fill="none" stroke="midnightblue" d="M385.58,-180.08C372.63,-146.19 346.27,-88.83 306,-54.5 298.95,-48.49 290.64,-43.54 282.06,-39.48"/>
<polygon fill="midnightblue" stroke="midnightblue" points="382.41,-181.62 389.16,-189.79 388.98,-179.2 382.41,-181.62"/>
</g>
<!-- Node6 -->
<g id="node6" class="node">
<title>Node6</title>
<g id="a_node6"><a xlink:href="classipc_1_1session_1_1sync__io_1_1Session__adapter.html#a8b4dada833c59e6a63780dfaba4f704f" target="_top" xlink:title="Forwards to the Session_obj default ctor.">
<polygon fill="white" stroke="black" points="0,-190 0,-225 102,-225 102,-190 0,-190"/>
<text text-anchor="start" x="8" y="-214.6" font-family="Helvetica,sans-Serif" font-size="8.00">ipc::session::sync</text>
<text text-anchor="start" x="8" y="-205.6" font-family="Helvetica,sans-Serif" font-size="8.00">_io::Session_adapter</text>
<text text-anchor="middle" x="51" y="-196.6" font-family="Helvetica,sans-Serif" font-size="8.00">::Session_adapter</text>
</a>
</g>
</g>
<!-- Node5&#45;&gt;Node6 -->
<g id="edge5" class="edge">
<title>Node5&#45;&gt;Node6</title>
<path fill="none" stroke="midnightblue" d="M160.61,-207.5C141.42,-207.5 120.43,-207.5 102.05,-207.5"/>
<polygon fill="midnightblue" stroke="midnightblue" points="160.75,-211 170.75,-207.5 160.75,-204 160.75,-211"/>
</g>
</g>
</svg>
