<?xml version="1.0" encoding="UTF-8" standalone="no"?>
<!DOCTYPE svg PUBLIC "-//W3C//DTD SVG 1.1//EN"
 "http://www.w3.org/Graphics/SVG/1.1/DTD/svg11.dtd">
<!-- Generated by graphviz version 2.43.0 (0)
 -->
<!-- Title: ipc::transport::Native_socket_stream::Impl::conn_sync_io_ev_wait Pages: 1 -->
<svg width="266pt" height="44pt"
 viewBox="0.00 0.00 266.00 44.00" xmlns="http://www.w3.org/2000/svg" xmlns:xlink="http://www.w3.org/1999/xlink">
<g id="graph0" class="graph" transform="scale(1 1) rotate(0) translate(4 40)">
<title>ipc::transport::Native_socket_stream::Impl::conn_sync_io_ev_wait</title>
<polygon fill="white" stroke="transparent" points="-4,4 -4,-40 262,-40 262,4 -4,4"/>
<!-- Node1 -->
<g id="node1" class="node">
<title>Node1</title>
<g id="a_node1"><a xlink:title="Executes a connect&#45;ops&#45;related async&#45;wait as requested by m_sync_io (the sync_io core).">
<polygon fill="#bfbfbf" stroke="black" points="0,-0.5 0,-35.5 109,-35.5 109,-0.5 0,-0.5"/>
<text text-anchor="start" x="8" y="-25.1" font-family="Helvetica,sans-Serif" font-size="8.00">ipc::transport::Native</text>
<text text-anchor="start" x="8" y="-16.1" font-family="Helvetica,sans-Serif" font-size="8.00">_socket_stream::Impl::</text>
<text text-anchor="middle" x="54.5" y="-7.1" font-family="Helvetica,sans-Serif" font-size="8.00">conn_sync_io_ev_wait</text>
</a>
</g>
</g>
<!-- Node2 -->
<g id="node2" class="node">
<title>Node2</title>
<g id="a_node2"><a xlink:href="classipc_1_1util_1_1sync__io_1_1Asio__waitable__native__handle.html#ad6663616504b4543a6227eb21279ce39" target="_top" xlink:title="Returns the same Native_handle as passed to original handle&#45;loading ctor or assign(),...">
<polygon fill="white" stroke="black" points="145,-0.5 145,-35.5 258,-35.5 258,-0.5 145,-0.5"/>
<text text-anchor="start" x="153" y="-25.1" font-family="Helvetica,sans-Serif" font-size="8.00">ipc::util::sync_io</text>
<text text-anchor="start" x="153" y="-16.1" font-family="Helvetica,sans-Serif" font-size="8.00">::Asio_waitable_native</text>
<text text-anchor="middle" x="201.5" y="-7.1" font-family="Helvetica,sans-Serif" font-size="8.00">_handle::native_handle</text>
</a>
</g>
</g>
<!-- Node1&#45;&gt;Node2 -->
<g id="edge1" class="edge">
<title>Node1&#45;&gt;Node2</title>
<path fill="none" stroke="midnightblue" d="M109.08,-18C117.34,-18 125.95,-18 134.44,-18"/>
<polygon fill="midnightblue" stroke="midnightblue" points="134.71,-21.5 144.71,-18 134.71,-14.5 134.71,-21.5"/>
</g>
</g>
</svg>
