<?xml version="1.0" encoding="UTF-8" standalone="no"?>
<!DOCTYPE svg PUBLIC "-//W3C//DTD SVG 1.1//EN"
 "http://www.w3.org/Graphics/SVG/1.1/DTD/svg11.dtd">
<!-- Generated by graphviz version 2.43.0 (0)
 -->
<!-- Title: ipc::transport::Posix_mq_handle::timed_receive Pages: 1 -->
<svg width="582pt" height="146pt"
 viewBox="0.00 0.00 582.00 145.50" xmlns="http://www.w3.org/2000/svg" xmlns:xlink="http://www.w3.org/1999/xlink">
<g id="graph0" class="graph" transform="scale(1 1) rotate(0) translate(4 141.5)">
<title>ipc::transport::Posix_mq_handle::timed_receive</title>
<polygon fill="white" stroke="transparent" points="-4,4 -4,-141.5 578,-141.5 578,4 -4,4"/>
<!-- Node1 -->
<g id="node1" class="node">
<title>Node1</title>
<g id="a_node1"><a xlink:title="Implements Persistent_mq_handle API: Blocking timed receive: pops copy of message from queue into buf...">
<polygon fill="#bfbfbf" stroke="black" points="0,-60.5 0,-86.5 128,-86.5 128,-60.5 0,-60.5"/>
<text text-anchor="start" x="8" y="-76.1" font-family="Helvetica,sans-Serif" font-size="8.00">ipc::transport::Posix</text>
<text text-anchor="middle" x="64" y="-67.1" font-family="Helvetica,sans-Serif" font-size="8.00">_mq_handle::timed_receive</text>
</a>
</g>
</g>
<!-- Node1&#45;&gt;Node1 -->
<g id="edge3" class="edge">
<title>Node1&#45;&gt;Node1</title>
<path fill="none" stroke="midnightblue" d="M37.27,-86.77C29.17,-95.96 38.08,-105 64,-105 79.8,-105 89.28,-101.64 92.44,-96.94"/>
<polygon fill="midnightblue" stroke="midnightblue" points="95.84,-96.05 90.73,-86.77 88.93,-97.21 95.84,-96.05"/>
</g>
<!-- Node2 -->
<g id="node2" class="node">
<title>Node2</title>
<g id="a_node2"><a xlink:href="classipc_1_1transport_1_1Posix__mq__handle.html#a244ee5da96550553edca346d77c2a825" target="_top" xlink:title="Helper that handles the result of an mq_*() call by logging WARNING(s) on error; setting *err_code on...">
<polygon fill="white" stroke="black" points="164,-102 164,-137 280,-137 280,-102 164,-102"/>
<text text-anchor="start" x="172" y="-126.6" font-family="Helvetica,sans-Serif" font-size="8.00">ipc::transport::Posix</text>
<text text-anchor="start" x="172" y="-117.6" font-family="Helvetica,sans-Serif" font-size="8.00">_mq_handle::handle_mq</text>
<text text-anchor="middle" x="222" y="-108.6" font-family="Helvetica,sans-Serif" font-size="8.00">_api_result</text>
</a>
</g>
</g>
<!-- Node1&#45;&gt;Node2 -->
<g id="edge1" class="edge">
<title>Node1&#45;&gt;Node2</title>
<path fill="none" stroke="midnightblue" d="M109.29,-86.56C123.18,-90.66 138.84,-95.27 153.94,-99.73"/>
<polygon fill="midnightblue" stroke="midnightblue" points="153.17,-103.15 163.76,-102.62 155.15,-96.43 153.17,-103.15"/>
</g>
<!-- Node3 -->
<g id="node3" class="node">
<title>Node3</title>
<g id="a_node3"><a xlink:href="structipc_1_1util_1_1Native__handle.html#a11bd62ce0a7bef4bdfe666201c26d4dc" target="_top" xlink:title="Returns true if and only if m_native_handle equals S_NULL_HANDLE.">
<polygon fill="white" stroke="black" points="462,-30.5 462,-56.5 574,-56.5 574,-30.5 462,-30.5"/>
<text text-anchor="start" x="470" y="-46.1" font-family="Helvetica,sans-Serif" font-size="8.00">ipc::util::Native_handle</text>
<text text-anchor="middle" x="518" y="-37.1" font-family="Helvetica,sans-Serif" font-size="8.00">::null</text>
</a>
</g>
</g>
<!-- Node1&#45;&gt;Node3 -->
<g id="edge2" class="edge">
<title>Node1&#45;&gt;Node3</title>
<path fill="none" stroke="midnightblue" d="M128,-71.04C200.1,-67.99 321.69,-62.11 426,-53.5 434.31,-52.81 443.04,-51.99 451.66,-51.11"/>
<polygon fill="midnightblue" stroke="midnightblue" points="452.12,-54.58 461.7,-50.06 451.4,-47.62 452.12,-54.58"/>
</g>
<!-- Node4 -->
<g id="node4" class="node">
<title>Node4</title>
<g id="a_node4"><a xlink:href="classipc_1_1transport_1_1Posix__mq__handle.html#a64079f1c9315af2e75e808b6ae5312e5" target="_top" xlink:title="Implements Persistent_mq_handle API: Like timed_receive() but without the actual popping of a message...">
<polygon fill="white" stroke="black" points="164,-3 164,-38 280,-38 280,-3 164,-3"/>
<text text-anchor="start" x="172" y="-27.6" font-family="Helvetica,sans-Serif" font-size="8.00">ipc::transport::Posix</text>
<text text-anchor="start" x="172" y="-18.6" font-family="Helvetica,sans-Serif" font-size="8.00">_mq_handle::timed_wait</text>
<text text-anchor="middle" x="222" y="-9.6" font-family="Helvetica,sans-Serif" font-size="8.00">_receivable</text>
</a>
</g>
</g>
<!-- Node1&#45;&gt;Node4 -->
<g id="edge4" class="edge">
<title>Node1&#45;&gt;Node4</title>
<path fill="none" stroke="midnightblue" d="M103.56,-60.4C120.54,-54.63 140.91,-47.71 159.87,-41.27"/>
<polygon fill="midnightblue" stroke="midnightblue" points="161,-44.58 169.35,-38.05 158.75,-37.95 161,-44.58"/>
</g>
<!-- Node5 -->
<g id="node5" class="node">
<title>Node5</title>
<g id="a_node5"><a xlink:href="classipc_1_1transport_1_1Posix__mq__handle.html#a64e44dd9a0e2ba1f870a231ffcf02fb9" target="_top" xlink:title="Impl body for *_sendable() and *_receivable().">
<polygon fill="white" stroke="black" points="316,-0.5 316,-26.5 426,-26.5 426,-0.5 316,-0.5"/>
<text text-anchor="start" x="324" y="-16.1" font-family="Helvetica,sans-Serif" font-size="8.00">ipc::transport::Posix</text>
<text text-anchor="middle" x="371" y="-7.1" font-family="Helvetica,sans-Serif" font-size="8.00">_mq_handle::wait_impl</text>
</a>
</g>
</g>
<!-- Node4&#45;&gt;Node5 -->
<g id="edge5" class="edge">
<title>Node4&#45;&gt;Node5</title>
<path fill="none" stroke="midnightblue" d="M280.25,-17.77C288.51,-17.38 297.05,-16.97 305.43,-16.57"/>
<polygon fill="midnightblue" stroke="midnightblue" points="305.73,-20.06 315.55,-16.09 305.39,-13.07 305.73,-20.06"/>
</g>
<!-- Node5&#45;&gt;Node3 -->
<g id="edge6" class="edge">
<title>Node5&#45;&gt;Node3</title>
<path fill="none" stroke="midnightblue" d="M426.41,-24.76C434.72,-26.48 443.38,-28.27 451.9,-30.03"/>
<polygon fill="midnightblue" stroke="midnightblue" points="451.31,-33.48 461.81,-32.08 452.72,-26.63 451.31,-33.48"/>
</g>
<!-- Node5&#45;&gt;Node5 -->
<g id="edge7" class="edge">
<title>Node5&#45;&gt;Node5</title>
<path fill="none" stroke="midnightblue" d="M346.3,-26.77C338.81,-35.96 347.05,-45 371,-45 385.6,-45 394.36,-41.64 397.28,-36.94"/>
<polygon fill="midnightblue" stroke="midnightblue" points="400.69,-36.12 395.7,-26.77 393.77,-37.19 400.69,-36.12"/>
</g>
</g>
</svg>
