<?xml version="1.0" encoding="UTF-8" standalone="no"?>
<!DOCTYPE svg PUBLIC "-//W3C//DTD SVG 1.1//EN"
 "http://www.w3.org/Graphics/SVG/1.1/DTD/svg11.dtd">
<!-- Generated by graphviz version 2.43.0 (0)
 -->
<!-- Title: ipc::transport::Native_socket_stream::Impl::~Impl Pages: 1 -->
<svg width="442pt" height="35pt"
 viewBox="0.00 0.00 442.00 35.00" xmlns="http://www.w3.org/2000/svg" xmlns:xlink="http://www.w3.org/1999/xlink">
<g id="graph0" class="graph" transform="scale(1 1) rotate(0) translate(4 31)">
<title>ipc::transport::Native_socket_stream::Impl::~Impl</title>
<polygon fill="white" stroke="transparent" points="-4,4 -4,-31 438,-31 438,4 -4,4"/>
<!-- Node1 -->
<g id="node1" class="node">
<title>Node1</title>
<g id="a_node1"><a xlink:title="See Native_socket_stream counterpart.">
<polygon fill="#bfbfbf" stroke="black" points="0,-0.5 0,-26.5 133,-26.5 133,-0.5 0,-0.5"/>
<text text-anchor="start" x="8" y="-16.1" font-family="Helvetica,sans-Serif" font-size="8.00">ipc::transport::Native</text>
<text text-anchor="middle" x="66.5" y="-7.1" font-family="Helvetica,sans-Serif" font-size="8.00">_socket_stream::Impl::~Impl</text>
</a>
</g>
</g>
<!-- Node2 -->
<g id="node2" class="node">
<title>Node2</title>
<g id="a_node2"><a xlink:href="classipc_1_1transport_1_1Native__socket__stream.html#a25d9c0e12a03a3b68f7f266c23466f71" target="_top" xlink:title="Returns nickname, a brief string suitable for logging.">
<polygon fill="white" stroke="black" points="169,-0.5 169,-26.5 294,-26.5 294,-0.5 169,-0.5"/>
<text text-anchor="start" x="177" y="-16.1" font-family="Helvetica,sans-Serif" font-size="8.00">ipc::transport::Native</text>
<text text-anchor="middle" x="231.5" y="-7.1" font-family="Helvetica,sans-Serif" font-size="8.00">_socket_stream::nickname</text>
</a>
</g>
</g>
<!-- Node1&#45;&gt;Node2 -->
<g id="edge1" class="edge">
<title>Node1&#45;&gt;Node2</title>
<path fill="none" stroke="midnightblue" d="M133.33,-13.5C141.68,-13.5 150.27,-13.5 158.71,-13.5"/>
<polygon fill="midnightblue" stroke="midnightblue" points="158.91,-17 168.91,-13.5 158.91,-10 158.91,-17"/>
</g>
<!-- Node3 -->
<g id="node3" class="node">
<title>Node3</title>
<g id="a_node3"><a xlink:href="classipc_1_1transport_1_1Native__socket__stream.html#a0d0416ffe729877dad845e88c3609974" target="_top" xlink:title="Helper that simply returns m_impl while guaranteeing that m_impl is non&#45;null upon return.">
<polygon fill="white" stroke="black" points="330,-0.5 330,-26.5 434,-26.5 434,-0.5 330,-0.5"/>
<text text-anchor="start" x="338" y="-16.1" font-family="Helvetica,sans-Serif" font-size="8.00">ipc::transport::Native</text>
<text text-anchor="middle" x="382" y="-7.1" font-family="Helvetica,sans-Serif" font-size="8.00">_socket_stream::impl</text>
</a>
</g>
</g>
<!-- Node2&#45;&gt;Node3 -->
<g id="edge2" class="edge">
<title>Node2&#45;&gt;Node3</title>
<path fill="none" stroke="midnightblue" d="M294.19,-13.5C302.57,-13.5 311.18,-13.5 319.56,-13.5"/>
<polygon fill="midnightblue" stroke="midnightblue" points="319.64,-17 329.64,-13.5 319.64,-10 319.64,-17"/>
</g>
</g>
</svg>
