<?xml version="1.0" encoding="UTF-8" standalone="no"?>
<!DOCTYPE svg PUBLIC "-//W3C//DTD SVG 1.1//EN"
 "http://www.w3.org/Graphics/SVG/1.1/DTD/svg11.dtd">
<!-- Generated by graphviz version 2.43.0 (0)
 -->
<!-- Title: ipc::transport::Native_socket_stream::release Pages: 1 -->
<svg width="264pt" height="35pt"
 viewBox="0.00 0.00 264.00 35.00" xmlns="http://www.w3.org/2000/svg" xmlns:xlink="http://www.w3.org/1999/xlink">
<g id="graph0" class="graph" transform="scale(1 1) rotate(0) translate(4 31)">
<title>ipc::transport::Native_socket_stream::release</title>
<polygon fill="white" stroke="transparent" points="-4,4 -4,-31 260,-31 260,4 -4,4"/>
<!-- Node1 -->
<g id="node1" class="node">
<title>Node1</title>
<g id="a_node1"><a xlink:title="In PEER state only, with no prior send or receive ops, returns a sync_io::Native_socket_stream core (...">
<polygon fill="#bfbfbf" stroke="black" points="0,-0.5 0,-26.5 116,-26.5 116,-0.5 0,-0.5"/>
<text text-anchor="start" x="8" y="-16.1" font-family="Helvetica,sans-Serif" font-size="8.00">ipc::transport::Native</text>
<text text-anchor="middle" x="58" y="-7.1" font-family="Helvetica,sans-Serif" font-size="8.00">_socket_stream::release</text>
</a>
</g>
</g>
<!-- Node2 -->
<g id="node2" class="node">
<title>Node2</title>
<g id="a_node2"><a xlink:href="classipc_1_1transport_1_1Native__socket__stream.html#a0d0416ffe729877dad845e88c3609974" target="_top" xlink:title="Helper that simply returns m_impl while guaranteeing that m_impl is non&#45;null upon return.">
<polygon fill="white" stroke="black" points="152,-0.5 152,-26.5 256,-26.5 256,-0.5 152,-0.5"/>
<text text-anchor="start" x="160" y="-16.1" font-family="Helvetica,sans-Serif" font-size="8.00">ipc::transport::Native</text>
<text text-anchor="middle" x="204" y="-7.1" font-family="Helvetica,sans-Serif" font-size="8.00">_socket_stream::impl</text>
</a>
</g>
</g>
<!-- Node1&#45;&gt;Node2 -->
<g id="edge1" class="edge">
<title>Node1&#45;&gt;Node2</title>
<path fill="none" stroke="midnightblue" d="M116.33,-13.5C124.69,-13.5 133.33,-13.5 141.77,-13.5"/>
<polygon fill="midnightblue" stroke="midnightblue" points="141.93,-17 151.93,-13.5 141.93,-10 141.93,-17"/>
</g>
</g>
</svg>
