<?xml version="1.0" encoding="UTF-8" standalone="no"?>
<!DOCTYPE svg PUBLIC "-//W3C//DTD SVG 1.1//EN"
 "http://www.w3.org/Graphics/SVG/1.1/DTD/svg11.dtd">
<!-- Generated by graphviz version 2.43.0 (0)
 -->
<!-- Title: ipc::transport::Posix_mq_handle::max_n_msgs Pages: 1 -->
<svg width="283pt" height="90pt"
 viewBox="0.00 0.00 283.00 89.50" xmlns="http://www.w3.org/2000/svg" xmlns:xlink="http://www.w3.org/1999/xlink">
<g id="graph0" class="graph" transform="scale(1 1) rotate(0) translate(4 85.5)">
<title>ipc::transport::Posix_mq_handle::max_n_msgs</title>
<polygon fill="white" stroke="transparent" points="-4,4 -4,-85.5 279,-85.5 279,4 -4,4"/>
<!-- Node1 -->
<g id="node1" class="node">
<title>Node1</title>
<g id="a_node1"><a xlink:title="Implements Persistent_mq_handle API: Returns the max message count of the underlying queue.">
<polygon fill="#bfbfbf" stroke="black" points="0,-25.5 0,-51.5 123,-51.5 123,-25.5 0,-25.5"/>
<text text-anchor="start" x="8" y="-41.1" font-family="Helvetica,sans-Serif" font-size="8.00">ipc::transport::Posix</text>
<text text-anchor="middle" x="61.5" y="-32.1" font-family="Helvetica,sans-Serif" font-size="8.00">_mq_handle::max_n_msgs</text>
</a>
</g>
</g>
<!-- Node2 -->
<g id="node2" class="node">
<title>Node2</title>
<g id="a_node2"><a xlink:href="classipc_1_1transport_1_1Posix__mq__handle.html#a244ee5da96550553edca346d77c2a825" target="_top" xlink:title="Helper that handles the result of an mq_*() call by logging WARNING(s) on error; setting *err_code on...">
<polygon fill="white" stroke="black" points="159,-46 159,-81 275,-81 275,-46 159,-46"/>
<text text-anchor="start" x="167" y="-70.6" font-family="Helvetica,sans-Serif" font-size="8.00">ipc::transport::Posix</text>
<text text-anchor="start" x="167" y="-61.6" font-family="Helvetica,sans-Serif" font-size="8.00">_mq_handle::handle_mq</text>
<text text-anchor="middle" x="217" y="-52.6" font-family="Helvetica,sans-Serif" font-size="8.00">_api_result</text>
</a>
</g>
</g>
<!-- Node1&#45;&gt;Node2 -->
<g id="edge1" class="edge">
<title>Node1&#45;&gt;Node2</title>
<path fill="none" stroke="midnightblue" d="M123.17,-48.38C131.6,-49.75 140.3,-51.17 148.85,-52.56"/>
<polygon fill="midnightblue" stroke="midnightblue" points="148.34,-56.03 158.77,-54.18 149.47,-49.12 148.34,-56.03"/>
</g>
<!-- Node3 -->
<g id="node3" class="node">
<title>Node3</title>
<g id="a_node3"><a xlink:href="structipc_1_1util_1_1Native__handle.html#a11bd62ce0a7bef4bdfe666201c26d4dc" target="_top" xlink:title="Returns true if and only if m_native_handle equals S_NULL_HANDLE.">
<polygon fill="white" stroke="black" points="161,-0.5 161,-26.5 273,-26.5 273,-0.5 161,-0.5"/>
<text text-anchor="start" x="169" y="-16.1" font-family="Helvetica,sans-Serif" font-size="8.00">ipc::util::Native_handle</text>
<text text-anchor="middle" x="217" y="-7.1" font-family="Helvetica,sans-Serif" font-size="8.00">::null</text>
</a>
</g>
</g>
<!-- Node1&#45;&gt;Node3 -->
<g id="edge2" class="edge">
<title>Node1&#45;&gt;Node3</title>
<path fill="none" stroke="midnightblue" d="M123.17,-28.62C132.18,-27.15 141.5,-25.63 150.6,-24.15"/>
<polygon fill="midnightblue" stroke="midnightblue" points="151.45,-27.56 160.76,-22.5 150.33,-20.65 151.45,-27.56"/>
</g>
</g>
</svg>
