<?xml version="1.0" encoding="UTF-8" standalone="no"?>
<!DOCTYPE svg PUBLIC "-//W3C//DTD SVG 1.1//EN"
 "http://www.w3.org/Graphics/SVG/1.1/DTD/svg11.dtd">
<!-- Generated by graphviz version 2.43.0 (0)
 -->
<!-- Title: ipc::session::sync_io::Server_session_adapter&lt; Session &gt; Pages: 1 -->
<svg width="228pt" height="116pt"
 viewBox="0.00 0.00 227.50 116.00" xmlns="http://www.w3.org/2000/svg" xmlns:xlink="http://www.w3.org/1999/xlink">
<g id="graph0" class="graph" transform="scale(1 1) rotate(0) translate(4 112)">
<title>ipc::session::sync_io::Server_session_adapter&lt; Session &gt;</title>
<polygon fill="white" stroke="transparent" points="-4,4 -4,-112 223.5,-112 223.5,4 -4,4"/>
<!-- Node1 -->
<g id="node1" class="node">
<title>Node1</title>
<g id="a_node1"><a xlink:title="sync_io&#45;pattern counterpart to async&#45;I/O&#45;pattern session::Server_session types and all their SHM&#45;awar...">
<polygon fill="#bfbfbf" stroke="black" points="58.5,-0.5 58.5,-35.5 161.5,-35.5 161.5,-0.5 58.5,-0.5"/>
<text text-anchor="start" x="66.5" y="-25.1" font-family="Helvetica,sans-Serif" font-size="8.00">ipc::session::sync</text>
<text text-anchor="start" x="66.5" y="-16.1" font-family="Helvetica,sans-Serif" font-size="8.00">_io::Server_session</text>
<text text-anchor="middle" x="110" y="-7.1" font-family="Helvetica,sans-Serif" font-size="8.00">_adapter&lt; Session &gt;</text>
</a>
</g>
</g>
<!-- Node2 -->
<g id="node2" class="node">
<title>Node2</title>
<g id="a_node2"><a xlink:href="classipc_1_1session_1_1sync__io_1_1Session__adapter.html" target="_top" xlink:title="Internal&#45;use workhorse containing common elements of Client_session_adapter and Server_session_adapte...">
<polygon fill="white" stroke="black" points="0,-72.5 0,-107.5 102,-107.5 102,-72.5 0,-72.5"/>
<text text-anchor="start" x="8" y="-97.1" font-family="Helvetica,sans-Serif" font-size="8.00">ipc::session::sync</text>
<text text-anchor="start" x="8" y="-88.1" font-family="Helvetica,sans-Serif" font-size="8.00">_io::Session_adapter</text>
<text text-anchor="middle" x="51" y="-79.1" font-family="Helvetica,sans-Serif" font-size="8.00">&lt; Session &gt;</text>
</a>
</g>
</g>
<!-- Node2&#45;&gt;Node1 -->
<g id="edge1" class="edge">
<title>Node2&#45;&gt;Node1</title>
<path fill="none" stroke="#8b1a1a" d="M71.66,-64.49C79.6,-55.07 88.49,-44.52 95.71,-35.96"/>
<polygon fill="#8b1a1a" stroke="#8b1a1a" points="68.75,-62.51 64.98,-72.41 74.1,-67.02 68.75,-62.51"/>
</g>
<!-- Node3 -->
<g id="node3" class="node">
<title>Node3</title>
<g id="a_node3"><a xlink:title=" ">
<polygon fill="white" stroke="#bfbfbf" points="120.5,-81.5 120.5,-98.5 219.5,-98.5 219.5,-81.5 120.5,-81.5"/>
<text text-anchor="middle" x="170" y="-88.1" font-family="Helvetica,sans-Serif" font-size="8.00">boost::noncopyable</text>
</a>
</g>
</g>
<!-- Node3&#45;&gt;Node1 -->
<g id="edge2" class="edge">
<title>Node3&#45;&gt;Node1</title>
<path fill="none" stroke="#8b1a1a" d="M156.74,-73.53C147.09,-62.27 134.04,-47.05 124.18,-35.55"/>
<polygon fill="#8b1a1a" stroke="#8b1a1a" points="154.18,-75.93 163.35,-81.24 159.5,-71.37 154.18,-75.93"/>
</g>
</g>
</svg>
