<?xml version="1.0" encoding="UTF-8" standalone="no"?>
<!DOCTYPE svg PUBLIC "-//W3C//DTD SVG 1.1//EN"
 "http://www.w3.org/Graphics/SVG/1.1/DTD/svg11.dtd">
<!-- Generated by graphviz version 2.43.0 (0)
 -->
<!-- Title: ipc::session::Client_session_impl::conn_on_async_connect_or_error Pages: 1 -->
<svg width="297pt" height="180pt"
 viewBox="0.00 0.00 297.00 179.50" xmlns="http://www.w3.org/2000/svg" xmlns:xlink="http://www.w3.org/1999/xlink">
<g id="graph0" class="graph" transform="scale(1 1) rotate(0) translate(4 175.5)">
<title>ipc::session::Client_session_impl::conn_on_async_connect_or_error</title>
<polygon fill="white" stroke="transparent" points="-4,4 -4,-175.5 293,-175.5 293,4 -4,4"/>
<!-- Node1 -->
<g id="node1" class="node">
<title>Node1</title>
<g id="a_node1"><a xlink:title="In thread W, handler for the transport::Native_socket_stream::async_connect(), as invoked in CONNECTI...">
<polygon fill="#bfbfbf" stroke="black" points="0,-72.5 0,-107.5 116,-107.5 116,-72.5 0,-72.5"/>
<text text-anchor="start" x="8" y="-97.1" font-family="Helvetica,sans-Serif" font-size="8.00">ipc::session::Client</text>
<text text-anchor="start" x="8" y="-88.1" font-family="Helvetica,sans-Serif" font-size="8.00">_session_impl::conn_on</text>
<text text-anchor="middle" x="58" y="-79.1" font-family="Helvetica,sans-Serif" font-size="8.00">_async_connect_or_error</text>
</a>
</g>
</g>
<!-- Node2 -->
<g id="node2" class="node">
<title>Node2</title>
<g id="a_node2"><a xlink:href="classipc_1_1util_1_1Process__credentials.html#a9c4074f11192a1193afb019d04753cd2" target="_top" xlink:title="Obtains the calling process&#39;s effective group_id().">
<polygon fill="white" stroke="black" points="156.5,-145 156.5,-171 284.5,-171 284.5,-145 156.5,-145"/>
<text text-anchor="start" x="164.5" y="-160.6" font-family="Helvetica,sans-Serif" font-size="8.00">ipc::util::Process</text>
<text text-anchor="middle" x="220.5" y="-151.6" font-family="Helvetica,sans-Serif" font-size="8.00">_credentials::own_group_id</text>
</a>
</g>
</g>
<!-- Node1&#45;&gt;Node2 -->
<g id="edge1" class="edge">
<title>Node1&#45;&gt;Node2</title>
<path fill="none" stroke="midnightblue" d="M91.61,-107.57C109.21,-116.69 131.48,-127.63 152,-136 156.73,-137.93 161.7,-139.81 166.7,-141.61"/>
<polygon fill="midnightblue" stroke="midnightblue" points="165.72,-144.97 176.31,-144.95 168.02,-138.36 165.72,-144.97"/>
</g>
<!-- Node3 -->
<g id="node3" class="node">
<title>Node3</title>
<g id="a_node3"><a xlink:href="classipc_1_1util_1_1Process__credentials.html#a18c901aeeed11c91afcc6379260f02a5" target="_top" xlink:title="Obtains the calling process&#39;s process_id().">
<polygon fill="white" stroke="black" points="152,-100 152,-126 289,-126 289,-100 152,-100"/>
<text text-anchor="start" x="160" y="-115.6" font-family="Helvetica,sans-Serif" font-size="8.00">ipc::util::Process</text>
<text text-anchor="middle" x="220.5" y="-106.6" font-family="Helvetica,sans-Serif" font-size="8.00">_credentials::own_process_id</text>
</a>
</g>
</g>
<!-- Node1&#45;&gt;Node3 -->
<g id="edge2" class="edge">
<title>Node1&#45;&gt;Node3</title>
<path fill="none" stroke="midnightblue" d="M116.04,-98.17C124.39,-99.37 133.11,-100.62 141.8,-101.86"/>
<polygon fill="midnightblue" stroke="midnightblue" points="141.55,-105.37 151.94,-103.32 142.54,-98.44 141.55,-105.37"/>
</g>
<!-- Node4 -->
<g id="node4" class="node">
<title>Node4</title>
<g id="a_node4"><a xlink:href="classipc_1_1util_1_1Process__credentials.html#a9a14d2788f0aaf91042206d5f6e5cabd" target="_top" xlink:title="Obtains the calling process&#39;s effective user_id().">
<polygon fill="white" stroke="black" points="159.5,-55 159.5,-81 281.5,-81 281.5,-55 159.5,-55"/>
<text text-anchor="start" x="167.5" y="-70.6" font-family="Helvetica,sans-Serif" font-size="8.00">ipc::util::Process</text>
<text text-anchor="middle" x="220.5" y="-61.6" font-family="Helvetica,sans-Serif" font-size="8.00">_credentials::own_user_id</text>
</a>
</g>
</g>
<!-- Node1&#45;&gt;Node4 -->
<g id="edge3" class="edge">
<title>Node1&#45;&gt;Node4</title>
<path fill="none" stroke="midnightblue" d="M116.04,-82.18C126.8,-80.71 138.17,-79.15 149.28,-77.63"/>
<polygon fill="midnightblue" stroke="midnightblue" points="149.95,-81.07 159.39,-76.24 149,-74.13 149.95,-81.07"/>
</g>
<!-- Node5 -->
<g id="node5" class="node">
<title>Node5</title>
<g id="a_node5"><a xlink:href="classipc_1_1transport_1_1Socket__stream__channel.html#acad7936d9a7db817bc46ee4fe479d838" target="_top" xlink:title="Identical to Native_socket_stream::remote_peer_process_credentials(): OS&#45;reported process credential ...">
<polygon fill="white" stroke="black" points="158,-0.5 158,-35.5 283,-35.5 283,-0.5 158,-0.5"/>
<text text-anchor="start" x="166" y="-25.1" font-family="Helvetica,sans-Serif" font-size="8.00">ipc::transport::Socket</text>
<text text-anchor="start" x="166" y="-16.1" font-family="Helvetica,sans-Serif" font-size="8.00">_stream_channel::remote</text>
<text text-anchor="middle" x="220.5" y="-7.1" font-family="Helvetica,sans-Serif" font-size="8.00">_peer_process_credentials</text>
</a>
</g>
</g>
<!-- Node1&#45;&gt;Node5 -->
<g id="edge4" class="edge">
<title>Node1&#45;&gt;Node5</title>
<path fill="none" stroke="midnightblue" d="M95.03,-72.45C112.19,-64.22 133.06,-54.4 152,-46 156.73,-43.9 161.68,-41.76 166.64,-39.64"/>
<polygon fill="midnightblue" stroke="midnightblue" points="168.31,-42.73 176.16,-35.61 165.58,-36.29 168.31,-42.73"/>
</g>
</g>
</svg>
