<?xml version="1.0" encoding="UTF-8" standalone="no"?>
<!DOCTYPE svg PUBLIC "-//W3C//DTD SVG 1.1//EN"
 "http://www.w3.org/Graphics/SVG/1.1/DTD/svg11.dtd">
<!-- Generated by graphviz version 2.43.0 (0)
 -->
<!-- Title: ipc::transport::Native_socket_stream::async_receive_native_handle Pages: 1 -->
<svg width="427pt" height="44pt"
 viewBox="0.00 0.00 427.00 44.00" xmlns="http://www.w3.org/2000/svg" xmlns:xlink="http://www.w3.org/1999/xlink">
<g id="graph0" class="graph" transform="scale(1 1) rotate(0) translate(4 40)">
<title>ipc::transport::Native_socket_stream::async_receive_native_handle</title>
<polygon fill="white" stroke="transparent" points="-4,4 -4,-40 423,-40 423,4 -4,4"/>
<!-- Node1 -->
<g id="node1" class="node">
<title>Node1</title>
<g id="a_node1"><a xlink:title="Implements Native_handle_receiver API per contract.">
<polygon fill="#bfbfbf" stroke="black" points="0,-0.5 0,-35.5 112,-35.5 112,-0.5 0,-0.5"/>
<text text-anchor="start" x="8" y="-25.1" font-family="Helvetica,sans-Serif" font-size="8.00">ipc::transport::Native</text>
<text text-anchor="start" x="8" y="-16.1" font-family="Helvetica,sans-Serif" font-size="8.00">_socket_stream::async</text>
<text text-anchor="middle" x="56" y="-7.1" font-family="Helvetica,sans-Serif" font-size="8.00">_receive_native_handle</text>
</a>
</g>
</g>
<!-- Node2 -->
<g id="node2" class="node">
<title>Node2</title>
<g id="a_node2"><a xlink:href="classipc_1_1transport_1_1Native__socket__stream.html#ab6df246711fd2ca98c10ed1235e0aa1c" target="_top" xlink:title="Template&#45;free version of async_receive_native_handle() as required by pImpl idiom.">
<polygon fill="white" stroke="black" points="148,-0.5 148,-35.5 279,-35.5 279,-0.5 148,-0.5"/>
<text text-anchor="start" x="156" y="-25.1" font-family="Helvetica,sans-Serif" font-size="8.00">ipc::transport::Native</text>
<text text-anchor="start" x="156" y="-16.1" font-family="Helvetica,sans-Serif" font-size="8.00">_socket_stream::async</text>
<text text-anchor="middle" x="213.5" y="-7.1" font-family="Helvetica,sans-Serif" font-size="8.00">_receive_native_handle_fwd</text>
</a>
</g>
</g>
<!-- Node1&#45;&gt;Node2 -->
<g id="edge1" class="edge">
<title>Node1&#45;&gt;Node2</title>
<path fill="none" stroke="midnightblue" d="M112.26,-18C120.54,-18 129.2,-18 137.8,-18"/>
<polygon fill="midnightblue" stroke="midnightblue" points="137.86,-21.5 147.86,-18 137.86,-14.5 137.86,-21.5"/>
</g>
<!-- Node3 -->
<g id="node3" class="node">
<title>Node3</title>
<g id="a_node3"><a xlink:href="classipc_1_1transport_1_1Native__socket__stream.html#a0d0416ffe729877dad845e88c3609974" target="_top" xlink:title="Helper that simply returns m_impl while guaranteeing that m_impl is non&#45;null upon return.">
<polygon fill="white" stroke="black" points="315,-5 315,-31 419,-31 419,-5 315,-5"/>
<text text-anchor="start" x="323" y="-20.6" font-family="Helvetica,sans-Serif" font-size="8.00">ipc::transport::Native</text>
<text text-anchor="middle" x="367" y="-11.6" font-family="Helvetica,sans-Serif" font-size="8.00">_socket_stream::impl</text>
</a>
</g>
</g>
<!-- Node2&#45;&gt;Node3 -->
<g id="edge2" class="edge">
<title>Node2&#45;&gt;Node3</title>
<path fill="none" stroke="midnightblue" d="M279.19,-18C287.65,-18 296.3,-18 304.71,-18"/>
<polygon fill="midnightblue" stroke="midnightblue" points="304.8,-21.5 314.8,-18 304.8,-14.5 304.8,-21.5"/>
</g>
</g>
</svg>
