<?xml version="1.0" encoding="UTF-8" standalone="no"?>
<!DOCTYPE svg PUBLIC "-//W3C//DTD SVG 1.1//EN"
 "http://www.w3.org/Graphics/SVG/1.1/DTD/svg11.dtd">
<!-- Generated by graphviz version 2.43.0 (0)
 -->
<!-- Title: ipc::session::sync_io::Session_adapter&lt; Session &gt; Pages: 1 -->
<svg width="600pt" height="506pt"
 viewBox="0.00 0.00 600.00 506.01" xmlns="http://www.w3.org/2000/svg" xmlns:xlink="http://www.w3.org/1999/xlink">
<g id="graph0" class="graph" transform="scale(1 1) rotate(0) translate(4 502.01)">
<title>ipc::session::sync_io::Session_adapter&lt; Session &gt;</title>
<polygon fill="white" stroke="transparent" points="-4,4 -4,-502.01 596,-502.01 596,4 -4,4"/>
<!-- Node1 -->
<g id="node1" class="node">
<title>Node1</title>
<g id="a_node1"><a xlink:title="Internal&#45;use workhorse containing common elements of Client_session_adapter and Server_session_adapte...">
<polygon fill="#bfbfbf" stroke="black" points="490,-224.51 490,-259.51 592,-259.51 592,-224.51 490,-224.51"/>
<text text-anchor="start" x="498" y="-249.11" font-family="Helvetica,sans-Serif" font-size="8.00">ipc::session::sync</text>
<text text-anchor="start" x="498" y="-240.11" font-family="Helvetica,sans-Serif" font-size="8.00">_io::Session_adapter</text>
<text text-anchor="middle" x="541" y="-231.11" font-family="Helvetica,sans-Serif" font-size="8.00">&lt; Session &gt;</text>
</a>
</g>
</g>
<!-- Node2 -->
<g id="node2" class="node">
<title>Node2</title>
<g id="a_node2"><a xlink:href="classipc_1_1session_1_1Session.html" target="_top" xlink:title="A documentation&#45;only concept defining the local side of an IPC conversation (session) with another en...">
<polygon fill="white" stroke="black" points="224.5,-458.01 224.5,-484.01 328.5,-484.01 328.5,-458.01 224.5,-458.01"/>
<text text-anchor="start" x="232.5" y="-473.61" font-family="Helvetica,sans-Serif" font-size="8.00">ipc::session::Session</text>
<text text-anchor="middle" x="276.5" y="-464.61" font-family="Helvetica,sans-Serif" font-size="8.00">&lt; Mdt_payload &gt;</text>
</a>
</g>
</g>
<!-- Node2&#45;&gt;Node1 -->
<g id="edge1" class="edge">
<title>Node2&#45;&gt;Node1</title>
<path fill="none" stroke="midnightblue" d="M338.65,-483.13C380.51,-487.8 434.93,-486.27 472,-457.01 534.23,-407.89 540.56,-301.95 540.49,-259.82"/>
<polygon fill="midnightblue" stroke="midnightblue" points="338.93,-479.63 328.57,-481.86 338.05,-486.58 338.93,-479.63"/>
</g>
<!-- Node3 -->
<g id="node3" class="node">
<title>Node3</title>
<g id="a_node3"><a xlink:title=" ">
<polygon fill="white" stroke="#bfbfbf" points="24,-480.51 24,-497.51 77,-497.51 77,-480.51 24,-480.51"/>
<text text-anchor="middle" x="50.5" y="-487.11" font-family="Helvetica,sans-Serif" font-size="8.00">ShmType</text>
</a>
</g>
</g>
<!-- Node3&#45;&gt;Node2 -->
<g id="edge2" class="edge">
<title>Node3&#45;&gt;Node2</title>
<path fill="none" stroke="#9a32cd" stroke-dasharray="5,2" d="M87.51,-486.11C124.54,-483.14 182.55,-478.48 224.33,-475.12"/>
<polygon fill="#9a32cd" stroke="#9a32cd" points="86.88,-482.65 77.2,-486.94 87.44,-489.63 86.88,-482.65"/>
<text text-anchor="middle" x="154.5" y="-485.61" font-family="Helvetica,sans-Serif" font-size="8.00"> S_SHM_TYPE</text>
</g>
<!-- Node4 -->
<g id="node4" class="node">
<title>Node4</title>
<g id="a_node4"><a xlink:title=" ">
<polygon fill="white" stroke="#bfbfbf" points="0,-444.51 0,-461.51 101,-461.51 101,-444.51 0,-444.51"/>
<text text-anchor="middle" x="50.5" y="-451.11" font-family="Helvetica,sans-Serif" font-size="8.00">static constexpr bool</text>
</a>
</g>
</g>
<!-- Node4&#45;&gt;Node2 -->
<g id="edge3" class="edge">
<title>Node4&#45;&gt;Node2</title>
<path fill="none" stroke="#9a32cd" stroke-dasharray="5,2" d="M111.38,-457.82C146.63,-460.65 190.76,-464.2 224.37,-466.9"/>
<polygon fill="#9a32cd" stroke="#9a32cd" points="111.46,-454.31 101.21,-457 110.9,-461.29 111.46,-454.31"/>
<text text-anchor="middle" x="154.5" y="-465.61" font-family="Helvetica,sans-Serif" font-size="8.00"> S_SHM_ENABLED</text>
</g>
<!-- Node5 -->
<g id="node5" class="node">
<title>Node5</title>
<g id="a_node5"><a xlink:title=" ">
<polygon fill="white" stroke="#bfbfbf" points="243,-420.51 243,-437.51 310,-437.51 310,-420.51 243,-420.51"/>
<text text-anchor="middle" x="276.5" y="-427.11" font-family="Helvetica,sans-Serif" font-size="8.00">Task_engine</text>
</a>
</g>
</g>
<!-- Node5&#45;&gt;Node1 -->
<g id="edge4" class="edge">
<title>Node5&#45;&gt;Node1</title>
<path fill="none" stroke="#9a32cd" stroke-dasharray="5,2" d="M320.46,-429.12C370.39,-428.41 448.89,-424.44 472,-407.01 520.11,-370.72 534.37,-294.33 538.44,-259.72"/>
<polygon fill="#9a32cd" stroke="#9a32cd" points="320.23,-425.62 310.27,-429.23 320.31,-432.62 320.23,-425.62"/>
<text text-anchor="start" x="368" y="-447.61" font-family="Helvetica,sans-Serif" font-size="8.00"> m_ev_hndl_task_engine</text>
<text text-anchor="middle" x="417.5" y="-438.61" font-family="Helvetica,sans-Serif" font-size="8.00">_unused</text>
<text text-anchor="middle" x="417.5" y="-429.61" font-family="Helvetica,sans-Serif" font-size="8.00">m_nb_task_engine</text>
</g>
<!-- Node6 -->
<g id="node6" class="node">
<title>Node6</title>
<g id="a_node6"><a xlink:title=" ">
<polygon fill="white" stroke="#bfbfbf" points="239,-382.51 239,-399.51 314,-399.51 314,-382.51 239,-382.51"/>
<text text-anchor="middle" x="276.5" y="-389.11" font-family="Helvetica,sans-Serif" font-size="8.00">readable_pipe</text>
</a>
</g>
</g>
<!-- Node6&#45;&gt;Node1 -->
<g id="edge5" class="edge">
<title>Node6&#45;&gt;Node1</title>
<path fill="none" stroke="#9a32cd" stroke-dasharray="5,2" d="M324.32,-389.8C374.06,-387.69 448.69,-381.9 472,-366.01 509.32,-340.55 528.12,-287.63 535.75,-259.88"/>
<polygon fill="#9a32cd" stroke="#9a32cd" points="323.96,-386.31 314.11,-390.2 324.24,-393.31 323.96,-386.31"/>
<text text-anchor="middle" x="417.5" y="-398.61" font-family="Helvetica,sans-Serif" font-size="8.00"> m_ready_reader_chan</text>
<text text-anchor="middle" x="417.5" y="-389.61" font-family="Helvetica,sans-Serif" font-size="8.00">m_ready_reader_err</text>
</g>
<!-- Node7 -->
<g id="node7" class="node">
<title>Node7</title>
<g id="a_node7"><a xlink:title=" ">
<polygon fill="white" stroke="#bfbfbf" points="241,-346.51 241,-363.51 312,-363.51 312,-346.51 241,-346.51"/>
<text text-anchor="middle" x="276.5" y="-353.11" font-family="Helvetica,sans-Serif" font-size="8.00">writable_pipe</text>
</a>
</g>
</g>
<!-- Node7&#45;&gt;Node1 -->
<g id="edge6" class="edge">
<title>Node7&#45;&gt;Node1</title>
<path fill="none" stroke="#9a32cd" stroke-dasharray="5,2" d="M322.15,-351C363.22,-345.8 424.74,-334.06 472,-308.01 494.04,-295.86 514.03,-274.65 526.54,-259.56"/>
<polygon fill="#9a32cd" stroke="#9a32cd" points="321.68,-347.54 312.17,-352.19 322.51,-354.49 321.68,-347.54"/>
<text text-anchor="middle" x="417.5" y="-355.61" font-family="Helvetica,sans-Serif" font-size="8.00"> m_ready_writer_chan</text>
<text text-anchor="middle" x="417.5" y="-346.61" font-family="Helvetica,sans-Serif" font-size="8.00">m_ready_writer_err</text>
</g>
<!-- Node8 -->
<g id="node8" class="node">
<title>Node8</title>
<g id="a_node8"><a xlink:href="classipc_1_1util_1_1sync__io_1_1Asio__waitable__native__handle.html" target="_top" xlink:title="Useful if using the sync_io pattern within a user event loop built on boost.asio (optionally with flo...">
<polygon fill="white" stroke="black" points="222.5,-292.51 222.5,-327.51 330.5,-327.51 330.5,-292.51 222.5,-292.51"/>
<text text-anchor="start" x="230.5" y="-317.11" font-family="Helvetica,sans-Serif" font-size="8.00">ipc::util::sync_io</text>
<text text-anchor="start" x="230.5" y="-308.11" font-family="Helvetica,sans-Serif" font-size="8.00">::Asio_waitable_native</text>
<text text-anchor="middle" x="276.5" y="-299.11" font-family="Helvetica,sans-Serif" font-size="8.00">_handle</text>
</a>
</g>
</g>
<!-- Node8&#45;&gt;Node1 -->
<g id="edge7" class="edge">
<title>Node8&#45;&gt;Node1</title>
<path fill="none" stroke="#9a32cd" stroke-dasharray="5,2" d="M340.42,-293.71C386.12,-281.87 447.14,-266.06 489.63,-255.06"/>
<polygon fill="#9a32cd" stroke="#9a32cd" points="339.42,-290.35 330.62,-296.25 341.18,-297.13 339.42,-290.35"/>
<text text-anchor="middle" x="417.5" y="-297.61" font-family="Helvetica,sans-Serif" font-size="8.00"> m_ev_wait_hndl_chan</text>
<text text-anchor="middle" x="417.5" y="-288.61" font-family="Helvetica,sans-Serif" font-size="8.00">m_ev_wait_hndl_err</text>
</g>
<!-- Node9 -->
<g id="node9" class="node">
<title>Node9</title>
<g id="a_node9"><a xlink:title=" ">
<polygon fill="white" stroke="#bfbfbf" points="5,-297.01 5,-323.01 96,-323.01 96,-297.01 5,-297.01"/>
<text text-anchor="start" x="13" y="-312.61" font-family="Helvetica,sans-Serif" font-size="8.00">boost::asio::posix</text>
<text text-anchor="middle" x="50.5" y="-303.61" font-family="Helvetica,sans-Serif" font-size="8.00">::descriptor</text>
</a>
</g>
</g>
<!-- Node9&#45;&gt;Node8 -->
<g id="edge8" class="edge">
<title>Node9&#45;&gt;Node8</title>
<path fill="none" stroke="darkgreen" d="M106.17,-310.01C141.53,-310.01 187.34,-310.01 222.39,-310.01"/>
<polygon fill="darkgreen" stroke="darkgreen" points="106.02,-306.51 96.02,-310.01 106.02,-313.51 106.02,-306.51"/>
</g>
<!-- Node10 -->
<g id="node10" class="node">
<title>Node10</title>
<g id="a_node10"><a xlink:title=" ">
<polygon fill="white" stroke="#bfbfbf" points="215,-211.01 215,-273.01 338,-273.01 338,-211.01 215,-211.01"/>
<text text-anchor="start" x="223" y="-262.61" font-family="Helvetica,sans-Serif" font-size="8.00">Function&lt; void(Asio</text>
<text text-anchor="start" x="223" y="-253.61" font-family="Helvetica,sans-Serif" font-size="8.00">_waitable_native_handle</text>
<text text-anchor="start" x="223" y="-244.61" font-family="Helvetica,sans-Serif" font-size="8.00"> *hndl_of_interest, bool</text>
<text text-anchor="start" x="223" y="-235.61" font-family="Helvetica,sans-Serif" font-size="8.00"> ev_of_interest_snd_else</text>
<text text-anchor="start" x="223" y="-226.61" font-family="Helvetica,sans-Serif" font-size="8.00">_rcv, Task_ptr &amp;&amp;on_active</text>
<text text-anchor="middle" x="276.5" y="-217.61" font-family="Helvetica,sans-Serif" font-size="8.00">_ev_func)&gt;</text>
</a>
</g>
</g>
<!-- Node10&#45;&gt;Node1 -->
<g id="edge9" class="edge">
<title>Node10&#45;&gt;Node1</title>
<path fill="none" stroke="#9a32cd" stroke-dasharray="5,2" d="M348.28,-242.01C393.02,-242.01 449.77,-242.01 489.88,-242.01"/>
<polygon fill="#9a32cd" stroke="#9a32cd" points="348.05,-238.51 338.05,-242.01 348.05,-245.51 348.05,-238.51"/>
<text text-anchor="middle" x="417.5" y="-244.61" font-family="Helvetica,sans-Serif" font-size="8.00"> m_ev_wait_func</text>
</g>
<!-- Node11 -->
<g id="node11" class="node">
<title>Node11</title>
<g id="a_node11"><a xlink:title=" ">
<polygon fill="white" stroke="#bfbfbf" points="241,-174.51 241,-191.51 312,-191.51 312,-174.51 241,-174.51"/>
<text text-anchor="middle" x="276.5" y="-181.11" font-family="Helvetica,sans-Serif" font-size="8.00">Task_asio_err</text>
</a>
</g>
</g>
<!-- Node11&#45;&gt;Node1 -->
<g id="edge10" class="edge">
<title>Node11&#45;&gt;Node1</title>
<path fill="none" stroke="#9a32cd" stroke-dasharray="5,2" d="M321.86,-192.98C368.28,-203.41 441.02,-219.76 489.59,-230.68"/>
<polygon fill="#9a32cd" stroke="#9a32cd" points="322.61,-189.56 312.09,-190.78 321.08,-196.39 322.61,-189.56"/>
<text text-anchor="middle" x="417.5" y="-228.61" font-family="Helvetica,sans-Serif" font-size="8.00"> m_on_err_func</text>
</g>
<!-- Node12 -->
<g id="node12" class="node">
<title>Node12</title>
<g id="a_node12"><a xlink:title=" ">
<polygon fill="white" stroke="#bfbfbf" points="208,-129.01 208,-155.01 345,-155.01 345,-129.01 208,-129.01"/>
<text text-anchor="start" x="216" y="-144.61" font-family="Helvetica,sans-Serif" font-size="8.00">Function&lt; void(Channel</text>
<text text-anchor="middle" x="276.5" y="-135.61" font-family="Helvetica,sans-Serif" font-size="8.00">_obj &amp;&amp;, Mdt_reader_ptr &amp;&amp;)&gt;</text>
</a>
</g>
</g>
<!-- Node12&#45;&gt;Node1 -->
<g id="edge11" class="edge">
<title>Node12&#45;&gt;Node1</title>
<path fill="none" stroke="#9a32cd" stroke-dasharray="5,2" d="M355.39,-148.05C392.25,-153.26 435.98,-162.96 472,-181.01 493.13,-191.59 512.7,-210.52 525.36,-224.49"/>
<polygon fill="#9a32cd" stroke="#9a32cd" points="355.57,-144.54 345.19,-146.7 354.64,-151.48 355.57,-144.54"/>
<text text-anchor="start" x="370" y="-192.61" font-family="Helvetica,sans-Serif" font-size="8.00"> m_on_channel_func_or</text>
<text text-anchor="middle" x="417.5" y="-183.61" font-family="Helvetica,sans-Serif" font-size="8.00">_empty</text>
</g>
<!-- Node13 -->
<g id="node13" class="node">
<title>Node13</title>
<g id="a_node13"><a xlink:title=" ">
<polygon fill="white" stroke="#bfbfbf" points="246.5,-92.51 246.5,-109.51 306.5,-109.51 306.5,-92.51 246.5,-92.51"/>
<text text-anchor="middle" x="276.5" y="-99.11" font-family="Helvetica,sans-Serif" font-size="8.00">Error_code</text>
</a>
</g>
</g>
<!-- Node13&#45;&gt;Node1 -->
<g id="edge12" class="edge">
<title>Node13&#45;&gt;Node1</title>
<path fill="none" stroke="#9a32cd" stroke-dasharray="5,2" d="M316.61,-99.2C358.48,-99.16 425.19,-104.72 472,-136.01 504.36,-157.63 524.59,-200.43 533.92,-224.51"/>
<polygon fill="#9a32cd" stroke="#9a32cd" points="316.48,-95.71 306.53,-99.32 316.57,-102.7 316.48,-95.71"/>
<text text-anchor="middle" x="417.5" y="-138.61" font-family="Helvetica,sans-Serif" font-size="8.00"> m_target_err_code_err</text>
</g>
<!-- Node14 -->
<g id="node14" class="node">
<title>Node14</title>
<g id="a_node14"><a xlink:title=" ">
<polygon fill="white" stroke="black" points="220.5,-38.51 220.5,-73.51 332.5,-73.51 332.5,-38.51 220.5,-38.51"/>
<text text-anchor="start" x="228.5" y="-63.11" font-family="Helvetica,sans-Serif" font-size="8.00">std::queue&lt; typename</text>
<text text-anchor="start" x="228.5" y="-54.11" font-family="Helvetica,sans-Serif" font-size="8.00"> Channel_open_result</text>
<text text-anchor="middle" x="276.5" y="-45.11" font-family="Helvetica,sans-Serif" font-size="8.00">::Ptr &gt;</text>
</a>
</g>
</g>
<!-- Node14&#45;&gt;Node1 -->
<g id="edge13" class="edge">
<title>Node14&#45;&gt;Node1</title>
<path fill="none" stroke="#9a32cd" stroke-dasharray="5,2" d="M343.09,-51.75C384.05,-52.46 435.71,-59.9 472,-88.01 516.36,-122.37 532.43,-191.81 537.69,-224.39"/>
<polygon fill="#9a32cd" stroke="#9a32cd" points="342.94,-48.25 332.93,-51.7 342.91,-55.25 342.94,-48.25"/>
<text text-anchor="middle" x="417.5" y="-90.61" font-family="Helvetica,sans-Serif" font-size="8.00"> m_target_channel_open_q</text>
</g>
<!-- Node15 -->
<g id="node15" class="node">
<title>Node15</title>
<g id="a_node15"><a xlink:title=" ">
<polygon fill="white" stroke="#bfbfbf" points="36,-47.51 36,-64.51 65,-64.51 65,-47.51 36,-47.51"/>
<text text-anchor="middle" x="50.5" y="-54.11" font-family="Helvetica,sans-Serif" font-size="8.00">Ptr</text>
</a>
</g>
</g>
<!-- Node15&#45;&gt;Node14 -->
<g id="edge14" class="edge">
<title>Node15&#45;&gt;Node14</title>
<path fill="none" stroke="#9a32cd" stroke-dasharray="5,2" d="M75.18,-56.01C109.42,-56.01 173.77,-56.01 220.32,-56.01"/>
<polygon fill="#9a32cd" stroke="#9a32cd" points="75.18,-52.51 65.18,-56.01 75.17,-59.51 75.18,-52.51"/>
<text text-anchor="middle" x="154.5" y="-58.61" font-family="Helvetica,sans-Serif" font-size="8.00"> elements</text>
</g>
<!-- Node16 -->
<g id="node16" class="node">
<title>Node16</title>
<g id="a_node16"><a xlink:title=" ">
<polygon fill="white" stroke="#bfbfbf" points="226,-2.51 226,-19.51 327,-19.51 327,-2.51 226,-2.51"/>
<text text-anchor="middle" x="276.5" y="-9.11" font-family="Helvetica,sans-Serif" font-size="8.00">Mutex_non_recursive</text>
</a>
</g>
</g>
<!-- Node16&#45;&gt;Node1 -->
<g id="edge15" class="edge">
<title>Node16&#45;&gt;Node1</title>
<path fill="none" stroke="#9a32cd" stroke-dasharray="5,2" d="M335.1,-1.45C377.49,2.23 434.11,-0.32 472,-31.01 532.42,-79.94 539.83,-183.02 540.26,-224.33"/>
<polygon fill="#9a32cd" stroke="#9a32cd" points="334.53,2.01 324.93,-2.47 335.23,-4.96 334.53,2.01"/>
<text text-anchor="start" x="367.5" y="-42.61" font-family="Helvetica,sans-Serif" font-size="8.00"> m_target_channel_open</text>
<text text-anchor="middle" x="417.5" y="-33.61" font-family="Helvetica,sans-Serif" font-size="8.00">_q_mutex</text>
</g>
</g>
</svg>
