<?xml version="1.0" encoding="UTF-8" standalone="no"?>
<!DOCTYPE svg PUBLIC "-//W3C//DTD SVG 1.1//EN"
 "http://www.w3.org/Graphics/SVG/1.1/DTD/svg11.dtd">
<!-- Generated by graphviz version 2.43.0 (0)
 -->
<!-- Title: ipc::transport::asio_local_stream_socket::Opt_peer_process_credentials Pages: 1 -->
<svg width="153pt" height="171pt"
 viewBox="0.00 0.00 153.00 171.00" xmlns="http://www.w3.org/2000/svg" xmlns:xlink="http://www.w3.org/1999/xlink">
<g id="graph0" class="graph" transform="scale(1 1) rotate(0) translate(4 167)">
<title>ipc::transport::asio_local_stream_socket::Opt_peer_process_credentials</title>
<polygon fill="white" stroke="transparent" points="-4,4 -4,-167 149,-167 149,4 -4,4"/>
<!-- Node1 -->
<g id="node1" class="node">
<title>Node1</title>
<g id="a_node1"><a xlink:title="Gettable (read&#45;only) socket option for use with asio_local_stream_socket::Peer_socket ....">
<polygon fill="#bfbfbf" stroke="black" points="0,-0.5 0,-35.5 145,-35.5 145,-0.5 0,-0.5"/>
<text text-anchor="start" x="8" y="-25.1" font-family="Helvetica,sans-Serif" font-size="8.00">ipc::transport::asio</text>
<text text-anchor="start" x="8" y="-16.1" font-family="Helvetica,sans-Serif" font-size="8.00">_local_stream_socket</text>
<text text-anchor="middle" x="72.5" y="-7.1" font-family="Helvetica,sans-Serif" font-size="8.00">::Opt_peer_process_credentials</text>
</a>
</g>
</g>
<!-- Node2 -->
<g id="node2" class="node">
<title>Node2</title>
<g id="a_node2"><a xlink:href="classipc_1_1util_1_1Process__credentials.html" target="_top" xlink:title="A process&#39;s credentials (PID, UID, GID as of this writing).">
<polygon fill="white" stroke="black" points="30,-73.5 30,-99.5 115,-99.5 115,-73.5 30,-73.5"/>
<text text-anchor="start" x="38" y="-89.1" font-family="Helvetica,sans-Serif" font-size="8.00">ipc::util::Process</text>
<text text-anchor="middle" x="72.5" y="-80.1" font-family="Helvetica,sans-Serif" font-size="8.00">_credentials</text>
</a>
</g>
</g>
<!-- Node2&#45;&gt;Node1 -->
<g id="edge1" class="edge">
<title>Node2&#45;&gt;Node1</title>
<path fill="none" stroke="midnightblue" d="M72.5,-63.21C72.5,-54.28 72.5,-44.17 72.5,-35.88"/>
<polygon fill="midnightblue" stroke="midnightblue" points="69,-63.3 72.5,-73.3 76,-63.3 69,-63.3"/>
</g>
<!-- Node3 -->
<g id="node3" class="node">
<title>Node3</title>
<g id="a_node3"><a xlink:title=" ">
<polygon fill="white" stroke="#bfbfbf" points="52.5,-145.5 52.5,-162.5 92.5,-162.5 92.5,-145.5 52.5,-145.5"/>
<text text-anchor="middle" x="72.5" y="-152.1" font-family="Helvetica,sans-Serif" font-size="8.00">ucred</text>
</a>
</g>
</g>
<!-- Node3&#45;&gt;Node2 -->
<g id="edge2" class="edge">
<title>Node3&#45;&gt;Node2</title>
<path fill="none" stroke="#9a32cd" stroke-dasharray="5,2" d="M72.5,-135.18C72.5,-123.97 72.5,-109.8 72.5,-99.82"/>
<polygon fill="#9a32cd" stroke="#9a32cd" points="69,-135.49 72.5,-145.49 76,-135.49 69,-135.49"/>
<text text-anchor="middle" x="85.5" y="-120.6" font-family="Helvetica,sans-Serif" font-size="8.00"> m_val</text>
</g>
</g>
</svg>
