<?xml version="1.0" encoding="UTF-8" standalone="no"?>
<!DOCTYPE svg PUBLIC "-//W3C//DTD SVG 1.1//EN"
 "http://www.w3.org/Graphics/SVG/1.1/DTD/svg11.dtd">
<!-- Generated by graphviz version 2.43.0 (0)
 -->
<!-- Title: ipc::transport::struc::Msg_mdt_out::body_root Pages: 1 -->
<svg width="306pt" height="35pt"
 viewBox="0.00 0.00 306.00 35.00" xmlns="http://www.w3.org/2000/svg" xmlns:xlink="http://www.w3.org/1999/xlink">
<g id="graph0" class="graph" transform="scale(1 1) rotate(0) translate(4 31)">
<title>ipc::transport::struc::Msg_mdt_out::body_root</title>
<polygon fill="white" stroke="transparent" points="-4,4 -4,-31 302,-31 302,4 -4,4"/>
<!-- Node1 -->
<g id="node1" class="node">
<title>Node1</title>
<g id="a_node1"><a xlink:title="Forwards to Msg_out::body_root() (const overload).">
<polygon fill="#bfbfbf" stroke="black" points="176,-0.5 176,-26.5 298,-26.5 298,-0.5 176,-0.5"/>
<text text-anchor="start" x="184" y="-16.1" font-family="Helvetica,sans-Serif" font-size="8.00">ipc::transport::struc</text>
<text text-anchor="middle" x="237" y="-7.1" font-family="Helvetica,sans-Serif" font-size="8.00">::Msg_mdt_out::body_root</text>
</a>
</g>
</g>
<!-- Node2 -->
<g id="node2" class="node">
<title>Node2</title>
<g id="a_node2"><a xlink:href="classipc_1_1transport_1_1struc_1_1sync__io_1_1Channel.html#a0550bcab7578fcd9aa90a4add39eb3c7" target="_top" xlink:title="Core of send() or internal&#45;message&#45;send: Serializes the given structured out&#45;messages (metadata out&#45;m...">
<polygon fill="white" stroke="black" points="0,-0.5 0,-26.5 140,-26.5 140,-0.5 0,-0.5"/>
<text text-anchor="start" x="8" y="-16.1" font-family="Helvetica,sans-Serif" font-size="8.00">ipc::transport::struc</text>
<text text-anchor="middle" x="70" y="-7.1" font-family="Helvetica,sans-Serif" font-size="8.00">::sync_io::Channel::send_core</text>
</a>
</g>
</g>
<!-- Node1&#45;&gt;Node2 -->
<g id="edge1" class="edge">
<title>Node1&#45;&gt;Node2</title>
<path fill="none" stroke="midnightblue" d="M165.76,-13.5C157.3,-13.5 148.67,-13.5 140.23,-13.5"/>
<polygon fill="midnightblue" stroke="midnightblue" points="165.96,-17 175.96,-13.5 165.96,-10 165.96,-17"/>
</g>
</g>
</svg>
