<?xml version="1.0" encoding="UTF-8" standalone="no"?>
<!DOCTYPE svg PUBLIC "-//W3C//DTD SVG 1.1//EN"
 "http://www.w3.org/Graphics/SVG/1.1/DTD/svg11.dtd">
<!-- Generated by graphviz version 2.43.0 (0)
 -->
<!-- Title: ipc::transport::Bipc_mq_handle::operator&lt;&lt; Pages: 1 -->
<svg width="298pt" height="35pt"
 viewBox="0.00 0.00 298.00 35.00" xmlns="http://www.w3.org/2000/svg" xmlns:xlink="http://www.w3.org/1999/xlink">
<g id="graph0" class="graph" transform="scale(1 1) rotate(0) translate(4 31)">
<title>ipc::transport::Bipc_mq_handle::operator&lt;&lt;</title>
<polygon fill="white" stroke="transparent" points="-4,4 -4,-31 294,-31 294,4 -4,4"/>
<!-- Node1 -->
<g id="node1" class="node">
<title>Node1</title>
<g id="a_node1"><a xlink:title="Prints string representation of the given Bipc_mq_handle to the given ostream.">
<polygon fill="#bfbfbf" stroke="black" points="0,-0.5 0,-26.5 120,-26.5 120,-0.5 0,-0.5"/>
<text text-anchor="start" x="8" y="-16.1" font-family="Helvetica,sans-Serif" font-size="8.00">ipc::transport::Bipc</text>
<text text-anchor="middle" x="60" y="-7.1" font-family="Helvetica,sans-Serif" font-size="8.00">_mq_handle::operator&lt;&lt;</text>
</a>
</g>
</g>
<!-- Node2 -->
<g id="node2" class="node">
<title>Node2</title>
<g id="a_node2"><a xlink:href="classipc_1_1transport_1_1Bipc__mq__handle.html#a7263ed9ec4f8ed534c0f7907b7accde9" target="_top" xlink:title="Implements Persistent_mq_handle API: Returns name equal to absolute_name passed to ctor.">
<polygon fill="white" stroke="black" points="156,-0.5 156,-26.5 290,-26.5 290,-0.5 156,-0.5"/>
<text text-anchor="start" x="164" y="-16.1" font-family="Helvetica,sans-Serif" font-size="8.00">ipc::transport::Bipc</text>
<text text-anchor="middle" x="223" y="-7.1" font-family="Helvetica,sans-Serif" font-size="8.00">_mq_handle::absolute_name</text>
</a>
</g>
</g>
<!-- Node1&#45;&gt;Node2 -->
<g id="edge1" class="edge">
<title>Node1&#45;&gt;Node2</title>
<path fill="none" stroke="midnightblue" d="M120.04,-13.5C128.42,-13.5 137.14,-13.5 145.8,-13.5"/>
<polygon fill="midnightblue" stroke="midnightblue" points="145.9,-17 155.9,-13.5 145.9,-10 145.9,-17"/>
</g>
</g>
</svg>
