<?xml version="1.0" encoding="UTF-8" standalone="no"?>
<!DOCTYPE svg PUBLIC "-//W3C//DTD SVG 1.1//EN"
 "http://www.w3.org/Graphics/SVG/1.1/DTD/svg11.dtd">
<!-- Generated by graphviz version 2.43.0 (0)
 -->
<!-- Title: ipc::session::shm::classic::Session_impl&lt; Session_impl_t &gt; Pages: 1 -->
<svg width="880pt" height="274pt"
 viewBox="0.00 0.00 880.00 273.50" xmlns="http://www.w3.org/2000/svg" xmlns:xlink="http://www.w3.org/1999/xlink">
<g id="graph0" class="graph" transform="scale(1 1) rotate(0) translate(4 269.5)">
<title>ipc::session::shm::classic::Session_impl&lt; Session_impl_t &gt;</title>
<polygon fill="white" stroke="transparent" points="-4,4 -4,-269.5 876,-269.5 876,4 -4,4"/>
<!-- Node1 -->
<g id="node1" class="node">
<title>Node1</title>
<g id="a_node1"><a xlink:title="Common data and logic for shm::classic::Server_session_impl and shm::classic::Client_session_impl.">
<polygon fill="#bfbfbf" stroke="black" points="768,-185 768,-220 872,-220 872,-185 768,-185"/>
<text text-anchor="start" x="776" y="-209.6" font-family="Helvetica,sans-Serif" font-size="8.00">ipc::session::shm::</text>
<text text-anchor="start" x="776" y="-200.6" font-family="Helvetica,sans-Serif" font-size="8.00">classic::Session_impl</text>
<text text-anchor="middle" x="820" y="-191.6" font-family="Helvetica,sans-Serif" font-size="8.00">&lt; Session_impl_t &gt;</text>
</a>
</g>
</g>
<!-- Node2 -->
<g id="node2" class="node">
<title>Node2</title>
<g id="a_node2"><a xlink:href="classSession__impl__t.html" target="_top" xlink:title=" ">
<polygon fill="white" stroke="#bfbfbf" points="543.5,-248 543.5,-265 620.5,-265 620.5,-248 543.5,-248"/>
<text text-anchor="middle" x="582" y="-254.6" font-family="Helvetica,sans-Serif" font-size="8.00">Session_impl_t</text>
</a>
</g>
</g>
<!-- Node2&#45;&gt;Node1 -->
<g id="edge1" class="edge">
<title>Node2&#45;&gt;Node1</title>
<path fill="none" stroke="midnightblue" d="M630.6,-254.57C664.47,-252.23 710.74,-247.03 750,-235.5 762.74,-231.76 776.06,-225.91 787.55,-220.16"/>
<polygon fill="midnightblue" stroke="midnightblue" points="630.27,-251.09 620.51,-255.21 630.71,-258.07 630.27,-251.09"/>
</g>
<!-- Node3 -->
<g id="node3" class="node">
<title>Node3</title>
<g id="a_node3"><a xlink:title=" ">
<polygon fill="white" stroke="#bfbfbf" points="519,-212 519,-229 645,-229 645,-212 519,-212"/>
<text text-anchor="middle" x="582" y="-218.6" font-family="Helvetica,sans-Serif" font-size="8.00">static constexpr scope_id_t</text>
</a>
</g>
</g>
<!-- Node3&#45;&gt;Node1 -->
<g id="edge2" class="edge">
<title>Node3&#45;&gt;Node1</title>
<path fill="none" stroke="#9a32cd" stroke-dasharray="5,2" d="M655.08,-215C691.48,-212.23 734.8,-208.92 767.76,-206.41"/>
<polygon fill="#9a32cd" stroke="#9a32cd" points="654.71,-211.52 645.01,-215.77 655.24,-218.5 654.71,-211.52"/>
<text text-anchor="middle" x="706.5" y="-225.1" font-family="Helvetica,sans-Serif" font-size="8.00"> S_SCOPE_ID_APP</text>
<text text-anchor="middle" x="706.5" y="-216.1" font-family="Helvetica,sans-Serif" font-size="8.00">S_SCOPE_ID_SESSION</text>
</g>
<!-- Node4 -->
<g id="node4" class="node">
<title>Node4</title>
<g id="a_node4"><a xlink:title=" ">
<polygon fill="white" stroke="#bfbfbf" points="531,-176 531,-193 633,-193 633,-176 531,-176"/>
<text text-anchor="middle" x="582" y="-182.6" font-family="Helvetica,sans-Serif" font-size="8.00">unique_ptr&lt; Arena &gt;</text>
</a>
</g>
</g>
<!-- Node4&#45;&gt;Node1 -->
<g id="edge3" class="edge">
<title>Node4&#45;&gt;Node1</title>
<path fill="none" stroke="#9a32cd" stroke-dasharray="5,2" d="M643.14,-187.29C674.95,-188.97 714.62,-191.39 750,-194.5 755.77,-195.01 761.8,-195.6 767.79,-196.24"/>
<polygon fill="#9a32cd" stroke="#9a32cd" points="643.28,-183.79 633.11,-186.77 642.92,-190.78 643.28,-183.79"/>
<text text-anchor="middle" x="706.5" y="-197.1" font-family="Helvetica,sans-Serif" font-size="8.00"> m_session_shm</text>
</g>
<!-- Node5 -->
<g id="node5" class="node">
<title>Node5</title>
<g id="a_node5"><a xlink:href="classipc_1_1shm_1_1classic_1_1Pool__arena.html" target="_top" xlink:title="A SHM&#45;classic interface around a single SHM pool with allocation&#45;algorithm services by boost....">
<polygon fill="white" stroke="black" points="536,-130.5 536,-156.5 628,-156.5 628,-130.5 536,-130.5"/>
<text text-anchor="start" x="544" y="-146.1" font-family="Helvetica,sans-Serif" font-size="8.00">ipc::shm::classic::</text>
<text text-anchor="middle" x="582" y="-137.1" font-family="Helvetica,sans-Serif" font-size="8.00">Pool_arena</text>
</a>
</g>
</g>
<!-- Node5&#45;&gt;Node1 -->
<g id="edge4" class="edge">
<title>Node5&#45;&gt;Node1</title>
<path fill="none" stroke="#9a32cd" stroke-dasharray="5,2" d="M638.54,-150.93C671.35,-156.03 713.48,-163.82 750,-174.5 759.8,-177.37 770.13,-181.13 779.72,-184.96"/>
<polygon fill="#9a32cd" stroke="#9a32cd" points="638.64,-147.41 628.23,-149.37 637.6,-154.33 638.64,-147.41"/>
<text text-anchor="middle" x="706.5" y="-177.1" font-family="Helvetica,sans-Serif" font-size="8.00"> m_app_shm</text>
</g>
<!-- Node6 -->
<g id="node6" class="node">
<title>Node6</title>
<g id="a_node6"><a xlink:title=" ">
<polygon fill="white" stroke="#bfbfbf" points="315.5,-203 315.5,-220 422.5,-220 422.5,-203 315.5,-203"/>
<text text-anchor="middle" x="369" y="-209.6" font-family="Helvetica,sans-Serif" font-size="8.00">flow::log::Log_context</text>
</a>
</g>
</g>
<!-- Node6&#45;&gt;Node5 -->
<g id="edge5" class="edge">
<title>Node6&#45;&gt;Node5</title>
<path fill="none" stroke="midnightblue" d="M412.12,-200.3C437.95,-193.18 471.6,-183.46 501,-173.5 509.13,-170.75 510.98,-169.55 519,-166.5 527.59,-163.24 536.86,-159.77 545.55,-156.54"/>
<polygon fill="midnightblue" stroke="midnightblue" points="411,-196.98 402.28,-202.99 412.85,-203.73 411,-196.98"/>
</g>
<!-- Node7 -->
<g id="node7" class="node">
<title>Node7</title>
<g id="a_node7"><a xlink:title=" ">
<polygon fill="white" stroke="#bfbfbf" points="319.5,-167 319.5,-184 418.5,-184 418.5,-167 319.5,-167"/>
<text text-anchor="middle" x="369" y="-173.6" font-family="Helvetica,sans-Serif" font-size="8.00">boost::noncopyable</text>
</a>
</g>
</g>
<!-- Node7&#45;&gt;Node5 -->
<g id="edge6" class="edge">
<title>Node7&#45;&gt;Node5</title>
<path fill="none" stroke="#8b1a1a" d="M428.9,-166.57C462.74,-161.44 504.59,-155.09 535.82,-150.35"/>
<polygon fill="#8b1a1a" stroke="#8b1a1a" points="428.03,-163.16 418.67,-168.12 429.08,-170.08 428.03,-163.16"/>
</g>
<!-- Node8 -->
<g id="node8" class="node">
<title>Node8</title>
<g id="a_node8"><a xlink:href="classipc_1_1util_1_1Shared__name.html" target="_top" xlink:title="String&#45;wrapping abstraction representing a name uniquely distinguishing a kernel&#45;persistent entity fr...">
<polygon fill="white" stroke="black" points="314,-41 314,-58 424,-58 424,-41 314,-41"/>
<text text-anchor="middle" x="369" y="-47.6" font-family="Helvetica,sans-Serif" font-size="8.00">ipc::util::Shared_name</text>
</a>
</g>
</g>
<!-- Node8&#45;&gt;Node5 -->
<g id="edge7" class="edge">
<title>Node8&#45;&gt;Node5</title>
<path fill="none" stroke="#9a32cd" stroke-dasharray="5,2" d="M398.3,-62.11C438.36,-79.95 511.23,-112.42 551.78,-130.48"/>
<polygon fill="#9a32cd" stroke="#9a32cd" points="399.66,-58.88 389.1,-58.01 396.81,-65.27 399.66,-58.88"/>
<text text-anchor="middle" x="471.5" y="-110.1" font-family="Helvetica,sans-Serif" font-size="8.00"> m_pool_name</text>
</g>
<!-- Node8&#45;&gt;Node8 -->
<g id="edge8" class="edge">
<title>Node8&#45;&gt;Node8</title>
<path fill="none" stroke="#9a32cd" stroke-dasharray="5,2" d="M349.94,-67.36C350.65,-72.52 357,-76.5 369,-76.5 387.73,-76.5 392.7,-66.79 383.92,-58.07"/>
<polygon fill="#9a32cd" stroke="#9a32cd" points="353.21,-68.63 354.08,-58.07 346.81,-65.78 353.21,-68.63"/>
<text text-anchor="middle" x="369" y="-142.1" font-family="Helvetica,sans-Serif" font-size="8.00"> S_1ST_OR_ONLY</text>
<text text-anchor="middle" x="369" y="-133.1" font-family="Helvetica,sans-Serif" font-size="8.00">S_EMPTY</text>
<text text-anchor="start" x="330.5" y="-124.1" font-family="Helvetica,sans-Serif" font-size="8.00">S_RESOURCE_TYPE</text>
<text text-anchor="middle" x="369" y="-115.1" font-family="Helvetica,sans-Serif" font-size="8.00">_ID_MUTEX</text>
<text text-anchor="start" x="330.5" y="-106.1" font-family="Helvetica,sans-Serif" font-size="8.00">S_RESOURCE_TYPE</text>
<text text-anchor="middle" x="369" y="-97.1" font-family="Helvetica,sans-Serif" font-size="8.00">_ID_SHM</text>
<text text-anchor="middle" x="369" y="-88.1" font-family="Helvetica,sans-Serif" font-size="8.00">S_ROOT_MAGIC</text>
<text text-anchor="middle" x="369" y="-79.1" font-family="Helvetica,sans-Serif" font-size="8.00">S_SENTINEL</text>
</g>
<!-- Node9 -->
<g id="node9" class="node">
<title>Node9</title>
<g id="a_node9"><a xlink:title=" ">
<polygon fill="white" stroke="#bfbfbf" points="150,-77 150,-94 190,-94 190,-77 150,-77"/>
<text text-anchor="middle" x="170" y="-83.6" font-family="Helvetica,sans-Serif" font-size="8.00">size_t</text>
</a>
</g>
</g>
<!-- Node9&#45;&gt;Node8 -->
<g id="edge9" class="edge">
<title>Node9&#45;&gt;Node8</title>
<path fill="none" stroke="#9a32cd" stroke-dasharray="5,2" d="M200.27,-80.15C232.19,-74.32 283.72,-64.9 321.25,-58.04"/>
<polygon fill="#9a32cd" stroke="#9a32cd" points="199.46,-76.74 190.25,-81.98 200.71,-83.63 199.46,-76.74"/>
<text text-anchor="middle" x="263" y="-76.1" font-family="Helvetica,sans-Serif" font-size="8.00"> S_MAX_LENGTH</text>
</g>
<!-- Node10 -->
<g id="node10" class="node">
<title>Node10</title>
<g id="a_node10"><a xlink:title=" ">
<polygon fill="white" stroke="#bfbfbf" points="128,-41 128,-58 212,-58 212,-41 128,-41"/>
<text text-anchor="middle" x="170" y="-47.6" font-family="Helvetica,sans-Serif" font-size="8.00">static const char</text>
</a>
</g>
</g>
<!-- Node10&#45;&gt;Node8 -->
<g id="edge10" class="edge">
<title>Node10&#45;&gt;Node8</title>
<path fill="none" stroke="#9a32cd" stroke-dasharray="5,2" d="M222.31,-49.5C250.38,-49.5 285.13,-49.5 313.66,-49.5"/>
<polygon fill="#9a32cd" stroke="#9a32cd" points="222.3,-46 212.3,-49.5 222.3,-53 222.3,-46"/>
<text text-anchor="middle" x="263" y="-52.1" font-family="Helvetica,sans-Serif" font-size="8.00"> S_SEPARATOR</text>
</g>
<!-- Node11 -->
<g id="node11" class="node">
<title>Node11</title>
<g id="a_node11"><a xlink:title=" ">
<polygon fill="white" stroke="black" points="140.5,-5 140.5,-22 199.5,-22 199.5,-5 140.5,-5"/>
<text text-anchor="middle" x="170" y="-11.6" font-family="Helvetica,sans-Serif" font-size="8.00">std::string</text>
</a>
</g>
</g>
<!-- Node11&#45;&gt;Node8 -->
<g id="edge11" class="edge">
<title>Node11&#45;&gt;Node8</title>
<path fill="none" stroke="#9a32cd" stroke-dasharray="5,2" d="M209.54,-20.54C241.58,-26.4 287.3,-34.75 321.4,-40.98"/>
<polygon fill="#9a32cd" stroke="#9a32cd" points="210.11,-17.09 199.65,-18.73 208.85,-23.98 210.11,-17.09"/>
<text text-anchor="middle" x="263" y="-38.1" font-family="Helvetica,sans-Serif" font-size="8.00"> m_raw_name</text>
</g>
<!-- Node12 -->
<g id="node12" class="node">
<title>Node12</title>
<g id="a_node12"><a xlink:title=" ">
<polygon fill="white" stroke="black" points="0,-0.5 0,-26.5 91,-26.5 91,-0.5 0,-0.5"/>
<text text-anchor="start" x="8" y="-16.1" font-family="Helvetica,sans-Serif" font-size="8.00">std::basic_string&lt;</text>
<text text-anchor="middle" x="45.5" y="-7.1" font-family="Helvetica,sans-Serif" font-size="8.00"> Char &gt;</text>
</a>
</g>
</g>
<!-- Node12&#45;&gt;Node11 -->
<g id="edge12" class="edge">
<title>Node12&#45;&gt;Node11</title>
<path fill="none" stroke="midnightblue" d="M101.25,-13.5C114.72,-13.5 128.61,-13.5 140.29,-13.5"/>
<polygon fill="midnightblue" stroke="midnightblue" points="101.07,-10 91.07,-13.5 101.07,-17 101.07,-10"/>
</g>
<!-- Node13 -->
<g id="node13" class="node">
<title>Node13</title>
<g id="a_node13"><a xlink:title=" ">
<polygon fill="white" stroke="#bfbfbf" points="321.5,-5 321.5,-22 416.5,-22 416.5,-5 321.5,-5"/>
<text text-anchor="middle" x="369" y="-11.6" font-family="Helvetica,sans-Serif" font-size="8.00">unique_ptr&lt; Pool &gt;</text>
</a>
</g>
</g>
<!-- Node13&#45;&gt;Node5 -->
<g id="edge13" class="edge">
<title>Node13&#45;&gt;Node5</title>
<path fill="none" stroke="#9a32cd" stroke-dasharray="5,2" d="M407.75,-25.35C413.25,-27.29 418.8,-29.36 424,-31.5 459.3,-46.01 469.56,-47.87 501,-69.5 527.5,-87.73 554.08,-114.38 568.95,-130.23"/>
<polygon fill="#9a32cd" stroke="#9a32cd" points="408.61,-21.94 398.02,-22.03 406.35,-28.57 408.61,-21.94"/>
<text text-anchor="middle" x="471.5" y="-72.1" font-family="Helvetica,sans-Serif" font-size="8.00"> m_pool</text>
</g>
</g>
</svg>
