<?xml version="1.0" encoding="UTF-8" standalone="no"?>
<!DOCTYPE svg PUBLIC "-//W3C//DTD SVG 1.1//EN"
 "http://www.w3.org/Graphics/SVG/1.1/DTD/svg11.dtd">
<!-- Generated by graphviz version 2.43.0 (0)
 -->
<!-- Title: ipc::transport::struc::shm::Builder_base Pages: 1 -->
<svg width="149pt" height="107pt"
 viewBox="0.00 0.00 149.00 107.00" xmlns="http://www.w3.org/2000/svg" xmlns:xlink="http://www.w3.org/1999/xlink">
<g id="graph0" class="graph" transform="scale(1 1) rotate(0) translate(4 103)">
<title>ipc::transport::struc::shm::Builder_base</title>
<polygon fill="white" stroke="transparent" points="-4,4 -4,-103 145,-103 145,4 -4,4"/>
<!-- Node1 -->
<g id="node1" class="node">
<title>Node1</title>
<g id="a_node1"><a xlink:title="shm::Builder base that contains non&#45;parameterized public items such as tag types and constants.">
<polygon fill="#bfbfbf" stroke="black" points="0,-0.5 0,-26.5 98,-26.5 98,-0.5 0,-0.5"/>
<text text-anchor="start" x="8" y="-16.1" font-family="Helvetica,sans-Serif" font-size="8.00">ipc::transport::struc</text>
<text text-anchor="middle" x="49" y="-7.1" font-family="Helvetica,sans-Serif" font-size="8.00">::shm::Builder_base</text>
</a>
</g>
</g>
<!-- Node2 -->
<g id="node2" class="node">
<title>Node2</title>
<g id="a_node2"><a xlink:title=" ">
<polygon fill="white" stroke="#bfbfbf" points="29,-81.5 29,-98.5 69,-98.5 69,-81.5 29,-81.5"/>
<text text-anchor="middle" x="49" y="-88.1" font-family="Helvetica,sans-Serif" font-size="8.00">size_t</text>
</a>
</g>
</g>
<!-- Node2&#45;&gt;Node1 -->
<g id="edge1" class="edge">
<title>Node2&#45;&gt;Node1</title>
<path fill="none" stroke="#9a32cd" stroke-dasharray="5,2" d="M49,-71.16C49,-57.42 49,-38.77 49,-26.69"/>
<polygon fill="#9a32cd" stroke="#9a32cd" points="45.5,-71.31 49,-81.31 52.5,-71.31 45.5,-71.31"/>
<text text-anchor="start" x="49" y="-56.6" font-family="Helvetica,sans-Serif" font-size="8.00"> S_MAX_SERIALIZATION</text>
<text text-anchor="middle" x="95" y="-47.6" font-family="Helvetica,sans-Serif" font-size="8.00">_SEGMENT_SZ</text>
</g>
</g>
</svg>
