<?xml version="1.0" encoding="UTF-8" standalone="no"?>
<!DOCTYPE svg PUBLIC "-//W3C//DTD SVG 1.1//EN"
 "http://www.w3.org/Graphics/SVG/1.1/DTD/svg11.dtd">
<!-- Generated by graphviz version 2.43.0 (0)
 -->
<!-- Title: ipc::transport::sync_io::Native_socket_stream::start_receive_native_handle_ops Pages: 1 -->
<svg width="518pt" height="53pt"
 viewBox="0.00 0.00 518.00 53.00" xmlns="http://www.w3.org/2000/svg" xmlns:xlink="http://www.w3.org/1999/xlink">
<g id="graph0" class="graph" transform="scale(1 1) rotate(0) translate(4 49)">
<title>ipc::transport::sync_io::Native_socket_stream::start_receive_native_handle_ops</title>
<polygon fill="white" stroke="transparent" points="-4,4 -4,-49 514,-49 514,4 -4,4"/>
<!-- Node1 -->
<g id="node1" class="node">
<title>Node1</title>
<g id="a_node1"><a xlink:title="Implements Native_handle_receiver API per contract.">
<polygon fill="#bfbfbf" stroke="black" points="0,-5 0,-40 155,-40 155,-5 0,-5"/>
<text text-anchor="start" x="8" y="-29.6" font-family="Helvetica,sans-Serif" font-size="8.00">ipc::transport::sync</text>
<text text-anchor="start" x="8" y="-20.6" font-family="Helvetica,sans-Serif" font-size="8.00">_io::Native_socket_stream</text>
<text text-anchor="middle" x="77.5" y="-11.6" font-family="Helvetica,sans-Serif" font-size="8.00">::start_receive_native_handle_ops</text>
</a>
</g>
</g>
<!-- Node2 -->
<g id="node2" class="node">
<title>Node2</title>
<g id="a_node2"><a xlink:href="classipc_1_1transport_1_1sync__io_1_1Native__socket__stream.html#acd887142b1f85fa6c69ee1d409dd2292" target="_top" xlink:title="Template&#45;free version of start_receive_native_handle_ops() as required by pImpl idiom.">
<polygon fill="white" stroke="black" points="191,-0.5 191,-44.5 328,-44.5 328,-0.5 191,-0.5"/>
<text text-anchor="start" x="199" y="-34.1" font-family="Helvetica,sans-Serif" font-size="8.00">ipc::transport::sync</text>
<text text-anchor="start" x="199" y="-25.1" font-family="Helvetica,sans-Serif" font-size="8.00">_io::Native_socket_stream</text>
<text text-anchor="start" x="199" y="-16.1" font-family="Helvetica,sans-Serif" font-size="8.00">::start_receive_native_handle</text>
<text text-anchor="middle" x="259.5" y="-7.1" font-family="Helvetica,sans-Serif" font-size="8.00">_ops_fwd</text>
</a>
</g>
</g>
<!-- Node1&#45;&gt;Node2 -->
<g id="edge1" class="edge">
<title>Node1&#45;&gt;Node2</title>
<path fill="none" stroke="midnightblue" d="M155.1,-22.5C163.53,-22.5 172.13,-22.5 180.58,-22.5"/>
<polygon fill="midnightblue" stroke="midnightblue" points="180.8,-26 190.8,-22.5 180.8,-19 180.8,-26"/>
</g>
<!-- Node3 -->
<g id="node3" class="node">
<title>Node3</title>
<g id="a_node3"><a xlink:href="classipc_1_1transport_1_1sync__io_1_1Native__socket__stream.html#a8e3703d5c8bac62f828a372691249c85" target="_top" xlink:title="Helper that simply returns m_impl while guaranteeing that m_impl is non&#45;null upon return.">
<polygon fill="white" stroke="black" points="364,-9.5 364,-35.5 510,-35.5 510,-9.5 364,-9.5"/>
<text text-anchor="start" x="372" y="-25.1" font-family="Helvetica,sans-Serif" font-size="8.00">ipc::transport::sync</text>
<text text-anchor="middle" x="437" y="-16.1" font-family="Helvetica,sans-Serif" font-size="8.00">_io::Native_socket_stream::impl</text>
</a>
</g>
</g>
<!-- Node2&#45;&gt;Node3 -->
<g id="edge2" class="edge">
<title>Node2&#45;&gt;Node3</title>
<path fill="none" stroke="midnightblue" d="M328.1,-22.5C336.5,-22.5 345.16,-22.5 353.75,-22.5"/>
<polygon fill="midnightblue" stroke="midnightblue" points="353.77,-26 363.77,-22.5 353.77,-19 353.77,-26"/>
</g>
</g>
</svg>
