<?xml version="1.0" encoding="UTF-8" standalone="no"?>
<!DOCTYPE svg PUBLIC "-//W3C//DTD SVG 1.1//EN"
 "http://www.w3.org/Graphics/SVG/1.1/DTD/svg11.dtd">
<!-- Generated by graphviz version 2.43.0 (0)
 -->
<!-- Title: ipc::transport::Native_socket_stream::async_receive_blob_fwd Pages: 1 -->
<svg width="264pt" height="44pt"
 viewBox="0.00 0.00 264.00 44.00" xmlns="http://www.w3.org/2000/svg" xmlns:xlink="http://www.w3.org/1999/xlink">
<g id="graph0" class="graph" transform="scale(1 1) rotate(0) translate(4 40)">
<title>ipc::transport::Native_socket_stream::async_receive_blob_fwd</title>
<polygon fill="white" stroke="transparent" points="-4,4 -4,-40 260,-40 260,4 -4,4"/>
<!-- Node1 -->
<g id="node1" class="node">
<title>Node1</title>
<g id="a_node1"><a xlink:title="Template&#45;free version of async_receive_blob() as required by pImpl idiom.">
<polygon fill="#bfbfbf" stroke="black" points="146,-0.5 146,-35.5 256,-35.5 256,-0.5 146,-0.5"/>
<text text-anchor="start" x="154" y="-25.1" font-family="Helvetica,sans-Serif" font-size="8.00">ipc::transport::Native</text>
<text text-anchor="start" x="154" y="-16.1" font-family="Helvetica,sans-Serif" font-size="8.00">_socket_stream::async</text>
<text text-anchor="middle" x="201" y="-7.1" font-family="Helvetica,sans-Serif" font-size="8.00">_receive_blob_fwd</text>
</a>
</g>
</g>
<!-- Node2 -->
<g id="node2" class="node">
<title>Node2</title>
<g id="a_node2"><a xlink:href="classipc_1_1transport_1_1Native__socket__stream.html#ac5572c8165e25f106f18d327c07d1c3f" target="_top" xlink:title="Implements Blob_receiver API per contract.">
<polygon fill="white" stroke="black" points="0,-0.5 0,-35.5 110,-35.5 110,-0.5 0,-0.5"/>
<text text-anchor="start" x="8" y="-25.1" font-family="Helvetica,sans-Serif" font-size="8.00">ipc::transport::Native</text>
<text text-anchor="start" x="8" y="-16.1" font-family="Helvetica,sans-Serif" font-size="8.00">_socket_stream::async</text>
<text text-anchor="middle" x="55" y="-7.1" font-family="Helvetica,sans-Serif" font-size="8.00">_receive_blob</text>
</a>
</g>
</g>
<!-- Node1&#45;&gt;Node2 -->
<g id="edge1" class="edge">
<title>Node1&#45;&gt;Node2</title>
<path fill="none" stroke="midnightblue" d="M135.73,-18C127.25,-18 118.62,-18 110.33,-18"/>
<polygon fill="midnightblue" stroke="midnightblue" points="135.97,-21.5 145.97,-18 135.97,-14.5 135.97,-21.5"/>
</g>
</g>
</svg>
