<?xml version="1.0" encoding="UTF-8" standalone="no"?>
<!DOCTYPE svg PUBLIC "-//W3C//DTD SVG 1.1//EN"
 "http://www.w3.org/Graphics/SVG/1.1/DTD/svg11.dtd">
<!-- Generated by graphviz version 2.43.0 (0)
 -->
<!-- Title: ipc::transport::Socket_stream_channel::remote_peer_process_credentials Pages: 1 -->
<svg width="285pt" height="98pt"
 viewBox="0.00 0.00 285.00 98.00" xmlns="http://www.w3.org/2000/svg" xmlns:xlink="http://www.w3.org/1999/xlink">
<g id="graph0" class="graph" transform="scale(1 1) rotate(0) translate(4 94)">
<title>ipc::transport::Socket_stream_channel::remote_peer_process_credentials</title>
<polygon fill="white" stroke="transparent" points="-4,4 -4,-94 281,-94 281,4 -4,4"/>
<!-- Node1 -->
<g id="node1" class="node">
<title>Node1</title>
<g id="a_node1"><a xlink:title="Identical to Native_socket_stream::remote_peer_process_credentials(): OS&#45;reported process credential ...">
<polygon fill="#bfbfbf" stroke="black" points="152,-27.5 152,-62.5 277,-62.5 277,-27.5 152,-27.5"/>
<text text-anchor="start" x="160" y="-52.1" font-family="Helvetica,sans-Serif" font-size="8.00">ipc::transport::Socket</text>
<text text-anchor="start" x="160" y="-43.1" font-family="Helvetica,sans-Serif" font-size="8.00">_stream_channel::remote</text>
<text text-anchor="middle" x="214.5" y="-34.1" font-family="Helvetica,sans-Serif" font-size="8.00">_peer_process_credentials</text>
</a>
</g>
</g>
<!-- Node2 -->
<g id="node2" class="node">
<title>Node2</title>
<g id="a_node2"><a xlink:href="classipc_1_1session_1_1Server__session__impl.html#a92861565c698467bc58e44fbe471e356" target="_top" xlink:title="For use by internal user Session_server: See Server_session_mv counterpart.">
<polygon fill="white" stroke="black" points="6.5,-54.5 6.5,-89.5 109.5,-89.5 109.5,-54.5 6.5,-54.5"/>
<text text-anchor="start" x="14.5" y="-79.1" font-family="Helvetica,sans-Serif" font-size="8.00">ipc::session::Server</text>
<text text-anchor="start" x="14.5" y="-70.1" font-family="Helvetica,sans-Serif" font-size="8.00">_session_impl::async</text>
<text text-anchor="middle" x="58" y="-61.1" font-family="Helvetica,sans-Serif" font-size="8.00">_accept_log_in</text>
</a>
</g>
</g>
<!-- Node1&#45;&gt;Node2 -->
<g id="edge1" class="edge">
<title>Node1&#45;&gt;Node2</title>
<path fill="none" stroke="midnightblue" d="M142.08,-57.48C131.21,-59.38 120.18,-61.31 109.87,-63.11"/>
<polygon fill="midnightblue" stroke="midnightblue" points="142.75,-60.92 151.99,-55.75 141.54,-54.02 142.75,-60.92"/>
</g>
<!-- Node3 -->
<g id="node3" class="node">
<title>Node3</title>
<g id="a_node3"><a xlink:href="classipc_1_1session_1_1Client__session__impl.html#acaacff906e2eb50f48d1b04a64247649" target="_top" xlink:title="In thread W, handler for the transport::Native_socket_stream::async_connect(), as invoked in CONNECTI...">
<polygon fill="white" stroke="black" points="0,-0.5 0,-35.5 116,-35.5 116,-0.5 0,-0.5"/>
<text text-anchor="start" x="8" y="-25.1" font-family="Helvetica,sans-Serif" font-size="8.00">ipc::session::Client</text>
<text text-anchor="start" x="8" y="-16.1" font-family="Helvetica,sans-Serif" font-size="8.00">_session_impl::conn_on</text>
<text text-anchor="middle" x="58" y="-7.1" font-family="Helvetica,sans-Serif" font-size="8.00">_async_connect_or_error</text>
</a>
</g>
</g>
<!-- Node1&#45;&gt;Node3 -->
<g id="edge2" class="edge">
<title>Node1&#45;&gt;Node3</title>
<path fill="none" stroke="midnightblue" d="M141.96,-32.5C133.35,-30.99 124.65,-29.47 116.28,-28.01"/>
<polygon fill="midnightblue" stroke="midnightblue" points="141.54,-35.98 151.99,-34.25 142.75,-29.08 141.54,-35.98"/>
</g>
</g>
</svg>
