<?xml version="1.0" encoding="UTF-8" standalone="no"?>
<!DOCTYPE svg PUBLIC "-//W3C//DTD SVG 1.1//EN"
 "http://www.w3.org/Graphics/SVG/1.1/DTD/svg11.dtd">
<!-- Generated by graphviz version 2.43.0 (0)
 -->
<!-- Title: ipc::transport::Bipc_mq_handle::Bipc_mq_handle Pages: 1 -->
<svg width="322pt" height="108pt"
 viewBox="0.00 0.00 322.00 107.50" xmlns="http://www.w3.org/2000/svg" xmlns:xlink="http://www.w3.org/1999/xlink">
<g id="graph0" class="graph" transform="scale(1 1) rotate(0) translate(4 103.5)">
<title>ipc::transport::Bipc_mq_handle::Bipc_mq_handle</title>
<polygon fill="white" stroke="transparent" points="-4,4 -4,-103.5 318,-103.5 318,4 -4,4"/>
<!-- Node1 -->
<g id="node1" class="node">
<title>Node1</title>
<g id="a_node1"><a xlink:title="Implements Persistent_mq_handle API: Construct handle to existing named MQ.">
<polygon fill="#bfbfbf" stroke="black" points="0,-39 0,-65 137,-65 137,-39 0,-39"/>
<text text-anchor="start" x="8" y="-54.6" font-family="Helvetica,sans-Serif" font-size="8.00">ipc::transport::Bipc</text>
<text text-anchor="middle" x="68.5" y="-45.6" font-family="Helvetica,sans-Serif" font-size="8.00">_mq_handle::Bipc_mq_handle</text>
</a>
</g>
</g>
<!-- Node2 -->
<g id="node2" class="node">
<title>Node2</title>
<g id="a_node2"><a xlink:href="classipc_1_1transport_1_1Bipc__mq__handle.html#a7263ed9ec4f8ed534c0f7907b7accde9" target="_top" xlink:title="Implements Persistent_mq_handle API: Returns name equal to absolute_name passed to ctor.">
<polygon fill="white" stroke="black" points="176.5,-73 176.5,-99 310.5,-99 310.5,-73 176.5,-73"/>
<text text-anchor="start" x="184.5" y="-88.6" font-family="Helvetica,sans-Serif" font-size="8.00">ipc::transport::Bipc</text>
<text text-anchor="middle" x="243.5" y="-79.6" font-family="Helvetica,sans-Serif" font-size="8.00">_mq_handle::absolute_name</text>
</a>
</g>
</g>
<!-- Node1&#45;&gt;Node2 -->
<g id="edge1" class="edge">
<title>Node1&#45;&gt;Node2</title>
<path fill="none" stroke="midnightblue" d="M135.89,-65.05C145.83,-67 156.13,-69.03 166.25,-71.01"/>
<polygon fill="midnightblue" stroke="midnightblue" points="165.8,-74.49 176.29,-72.99 167.15,-67.62 165.8,-74.49"/>
</g>
<!-- Node3 -->
<g id="node3" class="node">
<title>Node3</title>
<g id="a_node3"><a xlink:href="classipc_1_1transport_1_1Bipc__mq__handle.html#a9948742d87298d5842d298de9c946c7c" target="_top" xlink:title="Error helper: Run func() which will perform a bipc::message_queue API that might throw; if it does em...">
<polygon fill="white" stroke="black" points="173,-0.5 173,-35.5 314,-35.5 314,-0.5 173,-0.5"/>
<text text-anchor="start" x="181" y="-25.1" font-family="Helvetica,sans-Serif" font-size="8.00">ipc::transport::Bipc</text>
<text text-anchor="start" x="181" y="-16.1" font-family="Helvetica,sans-Serif" font-size="8.00">_mq_handle::op_with_possible</text>
<text text-anchor="middle" x="243.5" y="-7.1" font-family="Helvetica,sans-Serif" font-size="8.00">_bipc_mq_exception</text>
</a>
</g>
</g>
<!-- Node1&#45;&gt;Node3 -->
<g id="edge2" class="edge">
<title>Node1&#45;&gt;Node3</title>
<path fill="none" stroke="midnightblue" d="M135.89,-38.95C144.68,-37.22 153.77,-35.44 162.76,-33.67"/>
<polygon fill="midnightblue" stroke="midnightblue" points="163.71,-37.05 172.84,-31.69 162.36,-30.18 163.71,-37.05"/>
</g>
<!-- Node3&#45;&gt;Node3 -->
<g id="edge3" class="edge">
<title>Node3&#45;&gt;Node3</title>
<path fill="none" stroke="midnightblue" d="M212.22,-35.78C206.91,-45.31 217.33,-54 243.5,-54 259.45,-54 269.55,-50.77 273.8,-46.1"/>
<polygon fill="midnightblue" stroke="midnightblue" points="277.32,-46.07 274.78,-35.78 270.35,-45.41 277.32,-46.07"/>
</g>
</g>
</svg>
