<?xml version="1.0" encoding="UTF-8" standalone="no"?>
<!DOCTYPE svg PUBLIC "-//W3C//DTD SVG 1.1//EN"
 "http://www.w3.org/Graphics/SVG/1.1/DTD/svg11.dtd">
<!-- Generated by graphviz version 2.43.0 (0)
 -->
<!-- Title: ipc::transport::sync_io::Blob_stream_mq_sender_impl::Blob_stream_mq_sender_impl Pages: 1 -->
<svg width="657pt" height="152pt"
 viewBox="0.00 0.00 657.00 152.00" xmlns="http://www.w3.org/2000/svg" xmlns:xlink="http://www.w3.org/1999/xlink">
<g id="graph0" class="graph" transform="scale(1 1) rotate(0) translate(4 148)">
<title>ipc::transport::sync_io::Blob_stream_mq_sender_impl::Blob_stream_mq_sender_impl</title>
<polygon fill="white" stroke="transparent" points="-4,4 -4,-148 653,-148 653,4 -4,4"/>
<!-- Node1 -->
<g id="node1" class="node">
<title>Node1</title>
<g id="a_node1"><a xlink:title="See Blob_stream_mq_sender counterpart.">
<polygon fill="#bfbfbf" stroke="black" points="0,-54.5 0,-89.5 164,-89.5 164,-54.5 0,-54.5"/>
<text text-anchor="start" x="8" y="-79.1" font-family="Helvetica,sans-Serif" font-size="8.00">ipc::transport::sync</text>
<text text-anchor="start" x="8" y="-70.1" font-family="Helvetica,sans-Serif" font-size="8.00">_io::Blob_stream_mq_sender</text>
<text text-anchor="middle" x="82" y="-61.1" font-family="Helvetica,sans-Serif" font-size="8.00">_impl::Blob_stream_mq_sender_impl</text>
</a>
</g>
</g>
<!-- Node2 -->
<g id="node2" class="node">
<title>Node2</title>
<g id="a_node2"><a xlink:href="classipc_1_1util_1_1sync__io_1_1Asio__waitable__native__handle.html#a7d28277f9ef090032b0483c65f79f23c" target="_top" xlink:title="Loads value to be returned by native_handle().">
<polygon fill="white" stroke="black" points="212.5,-108.5 212.5,-143.5 320.5,-143.5 320.5,-108.5 212.5,-108.5"/>
<text text-anchor="start" x="220.5" y="-133.1" font-family="Helvetica,sans-Serif" font-size="8.00">ipc::util::sync_io</text>
<text text-anchor="start" x="220.5" y="-124.1" font-family="Helvetica,sans-Serif" font-size="8.00">::Asio_waitable_native</text>
<text text-anchor="middle" x="266.5" y="-115.1" font-family="Helvetica,sans-Serif" font-size="8.00">_handle::assign</text>
</a>
</g>
</g>
<!-- Node1&#45;&gt;Node2 -->
<g id="edge1" class="edge">
<title>Node1&#45;&gt;Node2</title>
<path fill="none" stroke="midnightblue" d="M142.25,-89.53C161.57,-95.25 183.09,-101.61 202.66,-107.41"/>
<polygon fill="midnightblue" stroke="midnightblue" points="201.81,-110.81 212.4,-110.29 203.8,-104.09 201.81,-110.81"/>
</g>
<!-- Node4 -->
<g id="node4" class="node">
<title>Node4</title>
<g id="a_node4"><a xlink:href="classipc_1_1transport_1_1Blob__stream__mq__base__impl.html#a4776b5f569ccac03eccb3fc2f360fcc9" target="_top" xlink:title="Internal helper for Blob_stream_mq_sender and Blob_stream_mq_receiver that operates both the start an...">
<polygon fill="white" stroke="black" points="211.5,-54.5 211.5,-89.5 321.5,-89.5 321.5,-54.5 211.5,-54.5"/>
<text text-anchor="start" x="219.5" y="-79.1" font-family="Helvetica,sans-Serif" font-size="8.00">ipc::transport::Blob</text>
<text text-anchor="start" x="219.5" y="-70.1" font-family="Helvetica,sans-Serif" font-size="8.00">_stream_mq_base_impl</text>
<text text-anchor="middle" x="266.5" y="-61.1" font-family="Helvetica,sans-Serif" font-size="8.00">::ensure_unique_peer</text>
</a>
</g>
</g>
<!-- Node1&#45;&gt;Node4 -->
<g id="edge3" class="edge">
<title>Node1&#45;&gt;Node4</title>
<path fill="none" stroke="midnightblue" d="M164.11,-72C176.48,-72 189.1,-72 201.05,-72"/>
<polygon fill="midnightblue" stroke="midnightblue" points="201.35,-75.5 211.35,-72 201.35,-68.5 201.35,-75.5"/>
</g>
<!-- Node8 -->
<g id="node8" class="node">
<title>Node8</title>
<g id="a_node8"><a xlink:href="classipc_1_1transport_1_1sync__io_1_1Blob__stream__mq__sender__impl.html#ad30ee34fd91e68a084d207763e753f6d" target="_top" xlink:title="See Blob_stream_mq_sender counterpart, but assuming PEER state.">
<polygon fill="white" stroke="black" points="200,-0.5 200,-35.5 333,-35.5 333,-0.5 200,-0.5"/>
<text text-anchor="start" x="208" y="-25.1" font-family="Helvetica,sans-Serif" font-size="8.00">ipc::transport::sync</text>
<text text-anchor="start" x="208" y="-16.1" font-family="Helvetica,sans-Serif" font-size="8.00">_io::Blob_stream_mq_sender</text>
<text text-anchor="middle" x="266.5" y="-7.1" font-family="Helvetica,sans-Serif" font-size="8.00">_impl::nickname</text>
</a>
</g>
</g>
<!-- Node1&#45;&gt;Node8 -->
<g id="edge8" class="edge">
<title>Node1&#45;&gt;Node8</title>
<path fill="none" stroke="midnightblue" d="M142.25,-54.47C159.55,-49.35 178.61,-43.71 196.46,-38.43"/>
<polygon fill="midnightblue" stroke="midnightblue" points="197.64,-41.73 206.23,-35.54 195.65,-35.02 197.64,-41.73"/>
</g>
<!-- Node3 -->
<g id="node3" class="node">
<title>Node3</title>
<g id="a_node3"><a xlink:href="structipc_1_1util_1_1Native__handle.html#a11bd62ce0a7bef4bdfe666201c26d4dc" target="_top" xlink:title="Returns true if and only if m_native_handle equals S_NULL_HANDLE.">
<polygon fill="white" stroke="black" points="380,-113 380,-139 492,-139 492,-113 380,-113"/>
<text text-anchor="start" x="388" y="-128.6" font-family="Helvetica,sans-Serif" font-size="8.00">ipc::util::Native_handle</text>
<text text-anchor="middle" x="436" y="-119.6" font-family="Helvetica,sans-Serif" font-size="8.00">::null</text>
</a>
</g>
</g>
<!-- Node2&#45;&gt;Node3 -->
<g id="edge2" class="edge">
<title>Node2&#45;&gt;Node3</title>
<path fill="none" stroke="midnightblue" d="M320.96,-126C336.35,-126 353.32,-126 369.36,-126"/>
<polygon fill="midnightblue" stroke="midnightblue" points="369.74,-129.5 379.74,-126 369.74,-122.5 369.74,-129.5"/>
</g>
<!-- Node5 -->
<g id="node5" class="node">
<title>Node5</title>
<g id="a_node5"><a xlink:href="classipc_1_1transport_1_1Persistent__mq__handle.html#a5ef74ca74a9d985710af974fd6518940" target="_top" xlink:title="Returns name equal to absolute_name passed to ctor.">
<polygon fill="white" stroke="black" points="369,-64 369,-90 503,-90 503,-64 369,-64"/>
<text text-anchor="start" x="377" y="-79.6" font-family="Helvetica,sans-Serif" font-size="8.00">ipc::transport::Persistent</text>
<text text-anchor="middle" x="436" y="-70.6" font-family="Helvetica,sans-Serif" font-size="8.00">_mq_handle::absolute_name</text>
</a>
</g>
</g>
<!-- Node4&#45;&gt;Node5 -->
<g id="edge4" class="edge">
<title>Node4&#45;&gt;Node5</title>
<path fill="none" stroke="midnightblue" d="M321.88,-73.62C333.6,-73.97 346.19,-74.35 358.57,-74.72"/>
<polygon fill="midnightblue" stroke="midnightblue" points="358.8,-78.23 368.9,-75.03 359.01,-71.23 358.8,-78.23"/>
</g>
<!-- Node6 -->
<g id="node6" class="node">
<title>Node6</title>
<g id="a_node6"><a xlink:href="namespaceipc_1_1util.html#a1cdc0a8d761170faa844c49d37c522ff" target="_top" xlink:title="Equivalent to shm::classic::Pool_arena::remove_persistent().">
<polygon fill="white" stroke="black" points="371.5,-1 371.5,-27 500.5,-27 500.5,-1 371.5,-1"/>
<text text-anchor="start" x="379.5" y="-16.6" font-family="Helvetica,sans-Serif" font-size="8.00">ipc::util::remove_persistent</text>
<text text-anchor="middle" x="436" y="-7.6" font-family="Helvetica,sans-Serif" font-size="8.00">_shm_pool</text>
</a>
</g>
</g>
<!-- Node4&#45;&gt;Node6 -->
<g id="edge5" class="edge">
<title>Node4&#45;&gt;Node6</title>
<path fill="none" stroke="midnightblue" d="M318.21,-54.44C340.25,-46.81 365.94,-37.92 387.59,-30.42"/>
<polygon fill="midnightblue" stroke="midnightblue" points="388.93,-33.66 397.23,-27.08 386.64,-27.04 388.93,-33.66"/>
</g>
<!-- Node6&#45;&gt;Node6 -->
<g id="edge7" class="edge">
<title>Node6&#45;&gt;Node6</title>
<path fill="none" stroke="midnightblue" d="M409.27,-27.27C401.17,-36.46 410.08,-45.5 436,-45.5 451.8,-45.5 461.28,-42.14 464.44,-37.44"/>
<polygon fill="midnightblue" stroke="midnightblue" points="467.84,-36.55 462.73,-27.27 460.93,-37.71 467.84,-36.55"/>
</g>
<!-- Node7 -->
<g id="node7" class="node">
<title>Node7</title>
<g id="a_node7"><a xlink:href="classipc_1_1util_1_1Shared__name.html#a0bccc73c9c5b4f3b784a1e57cdc5c910" target="_top" xlink:title="Returns (sans copying) pointer to NUL&#45;terminated wrapped name string, suitable to pass into sys calls...">
<polygon fill="white" stroke="black" points="539,-1 539,-27 649,-27 649,-1 539,-1"/>
<text text-anchor="start" x="547" y="-16.6" font-family="Helvetica,sans-Serif" font-size="8.00">ipc::util::Shared_name</text>
<text text-anchor="middle" x="594" y="-7.6" font-family="Helvetica,sans-Serif" font-size="8.00">::native_str</text>
</a>
</g>
</g>
<!-- Node6&#45;&gt;Node7 -->
<g id="edge6" class="edge">
<title>Node6&#45;&gt;Node7</title>
<path fill="none" stroke="midnightblue" d="M500.9,-14C510.07,-14 519.51,-14 528.69,-14"/>
<polygon fill="midnightblue" stroke="midnightblue" points="528.91,-17.5 538.91,-14 528.91,-10.5 528.91,-17.5"/>
</g>
</g>
</svg>
