<?xml version="1.0" encoding="UTF-8" standalone="no"?>
<!DOCTYPE svg PUBLIC "-//W3C//DTD SVG 1.1//EN"
 "http://www.w3.org/Graphics/SVG/1.1/DTD/svg11.dtd">
<!-- Generated by graphviz version 2.43.0 (0)
 -->
<!-- Title: ipc::session::sync_io::Session_server_adapter&lt; Session_server &gt; Pages: 1 -->
<svg width="1226pt" height="490pt"
 viewBox="0.00 0.00 1226.00 490.00" xmlns="http://www.w3.org/2000/svg" xmlns:xlink="http://www.w3.org/1999/xlink">
<g id="graph0" class="graph" transform="scale(1 1) rotate(0) translate(4 486)">
<title>ipc::session::sync_io::Session_server_adapter&lt; Session_server &gt;</title>
<polygon fill="white" stroke="transparent" points="-4,4 -4,-486 1222,-486 1222,4 -4,4"/>
<!-- Node1 -->
<g id="node1" class="node">
<title>Node1</title>
<g id="a_node1"><a xlink:title="sync_io&#45;pattern counterpart to async&#45;I/O&#45;pattern session::Session_server types and all their SHM&#45;awar...">
<polygon fill="#bfbfbf" stroke="black" points="1086,-182.5 1086,-217.5 1218,-217.5 1218,-182.5 1086,-182.5"/>
<text text-anchor="start" x="1094" y="-207.1" font-family="Helvetica,sans-Serif" font-size="8.00">ipc::session::sync</text>
<text text-anchor="start" x="1094" y="-198.1" font-family="Helvetica,sans-Serif" font-size="8.00">_io::Session_server</text>
<text text-anchor="middle" x="1152" y="-189.1" font-family="Helvetica,sans-Serif" font-size="8.00">_adapter&lt; Session_server &gt;</text>
</a>
</g>
</g>
<!-- Node2 -->
<g id="node2" class="node">
<title>Node2</title>
<g id="a_node2"><a xlink:href="classipc_1_1session_1_1Session__server.html" target="_top" xlink:title="To be instantiated typically once in a given process, an object of this type asynchronously listens f...">
<polygon fill="white" stroke="black" points="807,-317 807,-361 938,-361 938,-317 807,-317"/>
<text text-anchor="start" x="815" y="-350.6" font-family="Helvetica,sans-Serif" font-size="8.00">ipc::session::Session</text>
<text text-anchor="start" x="815" y="-341.6" font-family="Helvetica,sans-Serif" font-size="8.00">_server&lt; S_MQ_TYPE_OR</text>
<text text-anchor="start" x="815" y="-332.6" font-family="Helvetica,sans-Serif" font-size="8.00">_NONE, S_TRANSMIT_NATIVE</text>
<text text-anchor="middle" x="872.5" y="-323.6" font-family="Helvetica,sans-Serif" font-size="8.00">_HANDLES, Mdt_payload &gt;</text>
</a>
</g>
</g>
<!-- Node2&#45;&gt;Node1 -->
<g id="edge1" class="edge">
<title>Node2&#45;&gt;Node1</title>
<path fill="none" stroke="#8b1a1a" d="M948.1,-342C986.31,-340.36 1032.2,-333.24 1068,-312 1105.47,-289.77 1131.28,-243.43 1143.3,-217.88"/>
<polygon fill="#8b1a1a" stroke="#8b1a1a" points="947.93,-338.5 938.05,-342.31 948.15,-345.5 947.93,-338.5"/>
</g>
<!-- Node3 -->
<g id="node3" class="node">
<title>Node3</title>
<g id="a_node3"><a xlink:href="classipc_1_1session_1_1Session__server__impl.html" target="_top" xlink:title=" ">
<polygon fill="white" stroke="black" points="624,-299 624,-379 770,-379 770,-299 624,-299"/>
<text text-anchor="start" x="632" y="-368.6" font-family="Helvetica,sans-Serif" font-size="8.00">ipc::session::Session</text>
<text text-anchor="start" x="632" y="-359.6" font-family="Helvetica,sans-Serif" font-size="8.00">_server_impl&lt; Session</text>
<text text-anchor="start" x="632" y="-350.6" font-family="Helvetica,sans-Serif" font-size="8.00">_server&lt; S_MQ_TYPE_OR</text>
<text text-anchor="start" x="632" y="-341.6" font-family="Helvetica,sans-Serif" font-size="8.00">_NONE, S_TRANSMIT_NATIVE</text>
<text text-anchor="start" x="632" y="-332.6" font-family="Helvetica,sans-Serif" font-size="8.00">_HANDLES, Mdt_payload &gt;,</text>
<text text-anchor="start" x="632" y="-323.6" font-family="Helvetica,sans-Serif" font-size="8.00"> Server_session&lt; S_MQ_TYPE</text>
<text text-anchor="start" x="632" y="-314.6" font-family="Helvetica,sans-Serif" font-size="8.00">_OR_NONE, S_TRANSMIT_NATIVE</text>
<text text-anchor="middle" x="697" y="-305.6" font-family="Helvetica,sans-Serif" font-size="8.00">_HANDLES, Mdt_payload &gt; &gt;</text>
</a>
</g>
</g>
<!-- Node3&#45;&gt;Node2 -->
<g id="edge2" class="edge">
<title>Node3&#45;&gt;Node2</title>
<path fill="none" stroke="#8b1a1a" d="M780.15,-339C789.11,-339 798.14,-339 806.86,-339"/>
<polygon fill="#8b1a1a" stroke="#8b1a1a" points="780.07,-335.5 770.07,-339 780.07,-342.5 780.07,-335.5"/>
</g>
<!-- Node4 -->
<g id="node4" class="node">
<title>Node4</title>
<g id="a_node4"><a xlink:title=" ">
<polygon fill="white" stroke="#bfbfbf" points="366,-464.5 366,-481.5 473,-481.5 473,-464.5 366,-464.5"/>
<text text-anchor="middle" x="419.5" y="-471.1" font-family="Helvetica,sans-Serif" font-size="8.00">flow::log::Log_context</text>
</a>
</g>
</g>
<!-- Node4&#45;&gt;Node3 -->
<g id="edge3" class="edge">
<title>Node4&#45;&gt;Node3</title>
<path fill="none" stroke="midnightblue" d="M483.48,-465.84C520.89,-459.58 568.25,-448.05 606,-427 627.57,-414.97 647.63,-396.42 663.32,-379.44"/>
<polygon fill="midnightblue" stroke="midnightblue" points="482.53,-462.45 473.2,-467.47 483.63,-469.36 482.53,-462.45"/>
</g>
<!-- Node5 -->
<g id="node5" class="node">
<title>Node5</title>
<g id="a_node5"><a xlink:title=" ">
<polygon fill="white" stroke="#bfbfbf" points="370,-428.5 370,-445.5 469,-445.5 469,-428.5 370,-428.5"/>
<text text-anchor="middle" x="419.5" y="-435.1" font-family="Helvetica,sans-Serif" font-size="8.00">boost::noncopyable</text>
</a>
</g>
</g>
<!-- Node5&#45;&gt;Node3 -->
<g id="edge4" class="edge">
<title>Node5&#45;&gt;Node3</title>
<path fill="none" stroke="#8b1a1a" d="M479.53,-431.31C516.88,-426.25 565.57,-416.92 606,-400 619.06,-394.54 632.19,-387.04 644.23,-379.17"/>
<polygon fill="#8b1a1a" stroke="#8b1a1a" points="478.79,-427.88 469.32,-432.63 479.68,-434.82 478.79,-427.88"/>
</g>
<!-- Node6 -->
<g id="node6" class="node">
<title>Node6</title>
<g id="a_node6"><a xlink:href="structipc_1_1session_1_1Server__app.html" target="_top" xlink:title="An App that is used as a server in at least one client&#45;server IPC split.">
<polygon fill="white" stroke="black" points="360.5,-392.5 360.5,-409.5 478.5,-409.5 478.5,-392.5 360.5,-392.5"/>
<text text-anchor="middle" x="419.5" y="-399.1" font-family="Helvetica,sans-Serif" font-size="8.00">ipc::session::Server_app</text>
</a>
</g>
</g>
<!-- Node6&#45;&gt;Node3 -->
<g id="edge5" class="edge">
<title>Node6&#45;&gt;Node3</title>
<path fill="none" stroke="#9a32cd" stroke-dasharray="5,2" d="M483.87,-390.74C519.88,-384.49 565.69,-375.82 606,-366 611.86,-364.57 617.91,-362.99 623.97,-361.33"/>
<polygon fill="#9a32cd" stroke="#9a32cd" points="483.25,-387.3 473.99,-392.44 484.44,-394.19 483.25,-387.3"/>
<text text-anchor="middle" x="553" y="-389.6" font-family="Helvetica,sans-Serif" font-size="8.00"> m_srv_app_ref</text>
</g>
<!-- Node7 -->
<g id="node7" class="node">
<title>Node7</title>
<g id="a_node7"><a xlink:href="structipc_1_1session_1_1App.html" target="_top" xlink:title="A description of an application in this ipc::session inter&#45;process communication universe.">
<polygon fill="white" stroke="red" points="131,-416.5 131,-433.5 219,-433.5 219,-416.5 131,-416.5"/>
<text text-anchor="middle" x="175" y="-423.1" font-family="Helvetica,sans-Serif" font-size="8.00">ipc::session::App</text>
</a>
</g>
</g>
<!-- Node7&#45;&gt;Node6 -->
<g id="edge6" class="edge">
<title>Node7&#45;&gt;Node6</title>
<path fill="none" stroke="midnightblue" d="M229.12,-419.74C267.9,-415.9 320.44,-410.7 360.35,-406.76"/>
<polygon fill="midnightblue" stroke="midnightblue" points="228.68,-416.27 219.07,-420.74 229.37,-423.23 228.68,-416.27"/>
</g>
<!-- Node10 -->
<g id="node8" class="node">
<title>Node10</title>
<g id="a_node8"><a xlink:title=" ">
<polygon fill="white" stroke="#bfbfbf" points="0,-439.5 0,-456.5 35,-456.5 35,-439.5 0,-439.5"/>
<text text-anchor="middle" x="17.5" y="-446.1" font-family="Helvetica,sans-Serif" font-size="8.00">path</text>
</a>
</g>
</g>
<!-- Node10&#45;&gt;Node6 -->
<g id="edge9" class="edge">
<title>Node10&#45;&gt;Node6</title>
<path fill="none" stroke="#9a32cd" stroke-dasharray="5,2" d="M45.16,-453.96C47.8,-454.38 50.45,-454.74 53,-455 77.32,-457.44 83.59,-456.26 108,-455 211.28,-449.67 239.56,-455.4 339,-427 347.42,-424.6 348.78,-422.01 357,-419 366.4,-415.55 376.79,-412.3 386.32,-409.54"/>
<polygon fill="#9a32cd" stroke="#9a32cd" points="45.72,-450.5 35.24,-452.1 44.43,-457.38 45.72,-450.5"/>
<text text-anchor="start" x="132.5" y="-465.6" font-family="Helvetica,sans-Serif" font-size="8.00"> m_kernel_persistent</text>
<text text-anchor="middle" x="175" y="-456.6" font-family="Helvetica,sans-Serif" font-size="8.00">_run_dir_override</text>
</g>
<!-- Node10&#45;&gt;Node7 -->
<g id="edge7" class="edge">
<title>Node10&#45;&gt;Node7</title>
<path fill="none" stroke="#9a32cd" stroke-dasharray="5,2" d="M45.09,-444.07C68.59,-440.59 103.32,-435.45 130.81,-431.39"/>
<polygon fill="#9a32cd" stroke="#9a32cd" points="44.52,-440.61 35.14,-445.54 45.55,-447.54 44.52,-440.61"/>
<text text-anchor="middle" x="80.5" y="-444.6" font-family="Helvetica,sans-Serif" font-size="8.00"> m_exec_path</text>
</g>
<!-- Node13 -->
<g id="node9" class="node">
<title>Node13</title>
<g id="a_node9"><a xlink:title=" ">
<polygon fill="white" stroke="#bfbfbf" points="126,-371 126,-397 224,-397 224,-371 126,-371"/>
<text text-anchor="start" x="134" y="-386.6" font-family="Helvetica,sans-Serif" font-size="8.00">unordered_set&lt; std</text>
<text text-anchor="middle" x="175" y="-377.6" font-family="Helvetica,sans-Serif" font-size="8.00">::string &gt;</text>
</a>
</g>
</g>
<!-- Node13&#45;&gt;Node6 -->
<g id="edge8" class="edge">
<title>Node13&#45;&gt;Node6</title>
<path fill="none" stroke="#9a32cd" stroke-dasharray="5,2" d="M234.39,-387.21C265.47,-389.01 304.33,-391.41 339,-394 345.91,-394.52 353.15,-395.1 360.33,-395.7"/>
<polygon fill="#9a32cd" stroke="#9a32cd" points="234.35,-383.7 224.17,-386.62 233.95,-390.69 234.35,-383.7"/>
<text text-anchor="middle" x="290.5" y="-396.6" font-family="Helvetica,sans-Serif" font-size="8.00"> m_allowed_client_apps</text>
</g>
<!-- Node14 -->
<g id="node10" class="node">
<title>Node14</title>
<g id="a_node10"><a xlink:title=" ">
<polygon fill="white" stroke="#bfbfbf" points="130.5,-334.5 130.5,-351.5 219.5,-351.5 219.5,-334.5 130.5,-334.5"/>
<text text-anchor="middle" x="175" y="-341.1" font-family="Helvetica,sans-Serif" font-size="8.00">Permissions_level</text>
</a>
</g>
</g>
<!-- Node14&#45;&gt;Node6 -->
<g id="edge10" class="edge">
<title>Node14&#45;&gt;Node6</title>
<path fill="none" stroke="#9a32cd" stroke-dasharray="5,2" d="M230.1,-341.72C263.11,-342.97 305.29,-348.31 339,-365 349.14,-370.02 347.27,-377.23 357,-383 363.6,-386.91 371.11,-390.03 378.57,-392.48"/>
<polygon fill="#9a32cd" stroke="#9a32cd" points="229.82,-338.21 219.73,-341.45 229.63,-345.21 229.82,-338.21"/>
<text text-anchor="start" x="247" y="-376.6" font-family="Helvetica,sans-Serif" font-size="8.00"> m_permissions_level</text>
<text text-anchor="middle" x="290.5" y="-367.6" font-family="Helvetica,sans-Serif" font-size="8.00">_for_client_apps</text>
</g>
<!-- Node15 -->
<g id="node11" class="node">
<title>Node15</title>
<g id="a_node11"><a xlink:title=" ">
<polygon fill="white" stroke="#bfbfbf" points="372,-347 372,-373 467,-373 467,-347 372,-347"/>
<text text-anchor="start" x="380" y="-362.6" font-family="Helvetica,sans-Serif" font-size="8.00">Session_server_obj</text>
<text text-anchor="middle" x="419.5" y="-353.6" font-family="Helvetica,sans-Serif" font-size="8.00"> *const</text>
</a>
</g>
</g>
<!-- Node15&#45;&gt;Node3 -->
<g id="edge11" class="edge">
<title>Node15&#45;&gt;Node3</title>
<path fill="none" stroke="#9a32cd" stroke-dasharray="5,2" d="M477.4,-355.66C519.84,-352.43 578.15,-347.98 623.87,-344.5"/>
<polygon fill="#9a32cd" stroke="#9a32cd" points="476.94,-352.19 467.23,-356.44 477.47,-359.17 476.94,-352.19"/>
<text text-anchor="middle" x="553" y="-355.6" font-family="Helvetica,sans-Serif" font-size="8.00"> m_this_session_srv</text>
</g>
<!-- Node16 -->
<g id="node12" class="node">
<title>Node16</title>
<g id="a_node12"><a xlink:title=" ">
<polygon fill="white" stroke="#bfbfbf" points="385,-310.5 385,-327.5 454,-327.5 454,-310.5 385,-310.5"/>
<text text-anchor="middle" x="419.5" y="-317.1" font-family="Helvetica,sans-Serif" font-size="8.00">Master_set &amp;</text>
</a>
</g>
</g>
<!-- Node16&#45;&gt;Node3 -->
<g id="edge12" class="edge">
<title>Node16&#45;&gt;Node3</title>
<path fill="none" stroke="#9a32cd" stroke-dasharray="5,2" d="M464.16,-320.65C501.78,-322.25 557.52,-325 606,-329 611.8,-329.48 617.8,-330.03 623.82,-330.62"/>
<polygon fill="#9a32cd" stroke="#9a32cd" points="464.19,-317.15 454.05,-320.23 463.9,-324.15 464.19,-317.15"/>
<text text-anchor="middle" x="553" y="-331.6" font-family="Helvetica,sans-Serif" font-size="8.00"> m_cli_app_master_set_ref</text>
</g>
<!-- Node17 -->
<g id="node13" class="node">
<title>Node17</title>
<g id="a_node13"><a xlink:title=" ">
<polygon fill="white" stroke="#bfbfbf" points="357,-256.5 357,-291.5 482,-291.5 482,-256.5 357,-256.5"/>
<text text-anchor="start" x="365" y="-281.1" font-family="Helvetica,sans-Serif" font-size="8.00">const Function&lt; Error</text>
<text text-anchor="start" x="365" y="-272.1" font-family="Helvetica,sans-Serif" font-size="8.00">_code(const ipc::session</text>
<text text-anchor="middle" x="419.5" y="-263.1" font-family="Helvetica,sans-Serif" font-size="8.00">::Client_app &amp;client_app)&gt;</text>
</a>
</g>
</g>
<!-- Node17&#45;&gt;Node3 -->
<g id="edge13" class="edge">
<title>Node17&#45;&gt;Node3</title>
<path fill="none" stroke="#9a32cd" stroke-dasharray="5,2" d="M492.39,-285.23C526.98,-291.23 568.9,-299.36 606,-309 611.74,-310.49 617.64,-312.16 623.55,-313.92"/>
<polygon fill="#9a32cd" stroke="#9a32cd" points="492.82,-281.75 482.37,-283.52 491.64,-288.65 492.82,-281.75"/>
<text text-anchor="middle" x="553" y="-311.6" font-family="Helvetica,sans-Serif" font-size="8.00"> m_per_app_setup_func</text>
</g>
<!-- Node18 -->
<g id="node14" class="node">
<title>Node18</title>
<g id="a_node14"><a xlink:title=" ">
<polygon fill="white" stroke="#bfbfbf" points="365,-202.5 365,-237.5 474,-237.5 474,-202.5 365,-202.5"/>
<text text-anchor="start" x="373" y="-227.1" font-family="Helvetica,sans-Serif" font-size="8.00">optional&lt; ipc::session</text>
<text text-anchor="start" x="373" y="-218.1" font-family="Helvetica,sans-Serif" font-size="8.00">::Session_server_impl</text>
<text text-anchor="middle" x="419.5" y="-209.1" font-family="Helvetica,sans-Serif" font-size="8.00">::State &gt;</text>
</a>
</g>
</g>
<!-- Node18&#45;&gt;Node3 -->
<g id="edge14" class="edge">
<title>Node18&#45;&gt;Node3</title>
<path fill="none" stroke="#9a32cd" stroke-dasharray="5,2" d="M484.4,-232.36C521.15,-240.9 567.51,-254.14 606,-273 620.27,-279.99 634.63,-289.27 647.56,-298.66"/>
<polygon fill="#9a32cd" stroke="#9a32cd" points="484.83,-228.87 474.31,-230.08 483.29,-235.7 484.83,-228.87"/>
<text text-anchor="middle" x="553" y="-275.6" font-family="Helvetica,sans-Serif" font-size="8.00"> m_state</text>
</g>
<!-- Node19 -->
<g id="node15" class="node">
<title>Node19</title>
<g id="a_node15"><a xlink:href="classFunction_3_01void_07_08_4.html" target="_top" xlink:title=" ">
<polygon fill="white" stroke="#bfbfbf" points="374,-166.5 374,-183.5 465,-183.5 465,-166.5 374,-166.5"/>
<text text-anchor="middle" x="419.5" y="-173.1" font-family="Helvetica,sans-Serif" font-size="8.00">Function&lt; void()&gt;</text>
</a>
</g>
</g>
<!-- Node19&#45;&gt;Node3 -->
<g id="edge15" class="edge">
<title>Node19&#45;&gt;Node3</title>
<path fill="none" stroke="#9a32cd" stroke-dasharray="5,2" d="M475.53,-179.76C514.59,-185.29 566.85,-197.23 606,-223 634.96,-242.06 658.55,-273.61 674.3,-298.99"/>
<polygon fill="#9a32cd" stroke="#9a32cd" points="475.76,-176.26 465.39,-178.42 474.84,-183.2 475.76,-176.26"/>
<text text-anchor="middle" x="553" y="-225.6" font-family="Helvetica,sans-Serif" font-size="8.00"> m_deinit_func_or_empty</text>
</g>
<!-- Node20 -->
<g id="node16" class="node">
<title>Node20</title>
<g id="a_node16"><a xlink:title=" ">
<polygon fill="white" stroke="#bfbfbf" points="839,-280.5 839,-297.5 906,-297.5 906,-280.5 839,-280.5"/>
<text text-anchor="middle" x="872.5" y="-287.1" font-family="Helvetica,sans-Serif" font-size="8.00">Task_engine</text>
</a>
</g>
</g>
<!-- Node20&#45;&gt;Node1 -->
<g id="edge16" class="edge">
<title>Node20&#45;&gt;Node1</title>
<path fill="none" stroke="#9a32cd" stroke-dasharray="5,2" d="M916.31,-286.58C956.66,-283.13 1018.2,-274.84 1068,-255 1090.8,-245.91 1113.85,-229.99 1129.85,-217.6"/>
<polygon fill="#9a32cd" stroke="#9a32cd" points="915.97,-283.09 906.27,-287.37 916.52,-290.07 915.97,-283.09"/>
<text text-anchor="start" x="962.5" y="-301.6" font-family="Helvetica,sans-Serif" font-size="8.00"> m_ev_hndl_task_engine</text>
<text text-anchor="middle" x="1012" y="-292.6" font-family="Helvetica,sans-Serif" font-size="8.00">_unused</text>
<text text-anchor="middle" x="1012" y="-283.6" font-family="Helvetica,sans-Serif" font-size="8.00">m_nb_task_engine</text>
</g>
<!-- Node21 -->
<g id="node17" class="node">
<title>Node21</title>
<g id="a_node17"><a xlink:title=" ">
<polygon fill="white" stroke="#bfbfbf" points="835,-244.5 835,-261.5 910,-261.5 910,-244.5 835,-244.5"/>
<text text-anchor="middle" x="872.5" y="-251.1" font-family="Helvetica,sans-Serif" font-size="8.00">readable_pipe</text>
</a>
</g>
</g>
<!-- Node21&#45;&gt;Node1 -->
<g id="edge17" class="edge">
<title>Node21&#45;&gt;Node1</title>
<path fill="none" stroke="#9a32cd" stroke-dasharray="5,2" d="M920.48,-247.78C960.08,-242.95 1018.09,-234.89 1068,-224 1076.5,-222.15 1085.41,-219.9 1094.11,-217.54"/>
<polygon fill="#9a32cd" stroke="#9a32cd" points="919.84,-244.33 910.33,-248.99 920.67,-251.28 919.84,-244.33"/>
<text text-anchor="middle" x="1012" y="-244.6" font-family="Helvetica,sans-Serif" font-size="8.00"> m_ready_reader</text>
</g>
<!-- Node22 -->
<g id="node18" class="node">
<title>Node22</title>
<g id="a_node18"><a xlink:title=" ">
<polygon fill="white" stroke="#bfbfbf" points="837,-208.5 837,-225.5 908,-225.5 908,-208.5 837,-208.5"/>
<text text-anchor="middle" x="872.5" y="-215.1" font-family="Helvetica,sans-Serif" font-size="8.00">writable_pipe</text>
</a>
</g>
</g>
<!-- Node22&#45;&gt;Node1 -->
<g id="edge18" class="edge">
<title>Node22&#45;&gt;Node1</title>
<path fill="none" stroke="#9a32cd" stroke-dasharray="5,2" d="M918.21,-214.26C963.61,-211.48 1034.39,-207.14 1085.99,-203.98"/>
<polygon fill="#9a32cd" stroke="#9a32cd" points="917.85,-210.78 908.08,-214.88 918.28,-217.76 917.85,-210.78"/>
<text text-anchor="middle" x="1012" y="-213.6" font-family="Helvetica,sans-Serif" font-size="8.00"> m_ready_writer</text>
</g>
<!-- Node23 -->
<g id="node19" class="node">
<title>Node23</title>
<g id="a_node19"><a xlink:href="classipc_1_1util_1_1sync__io_1_1Asio__waitable__native__handle.html" target="_top" xlink:title="Useful if using the sync_io pattern within a user event loop built on boost.asio (optionally with flo...">
<polygon fill="white" stroke="black" points="818.5,-154.5 818.5,-189.5 926.5,-189.5 926.5,-154.5 818.5,-154.5"/>
<text text-anchor="start" x="826.5" y="-179.1" font-family="Helvetica,sans-Serif" font-size="8.00">ipc::util::sync_io</text>
<text text-anchor="start" x="826.5" y="-170.1" font-family="Helvetica,sans-Serif" font-size="8.00">::Asio_waitable_native</text>
<text text-anchor="middle" x="872.5" y="-161.1" font-family="Helvetica,sans-Serif" font-size="8.00">_handle</text>
</a>
</g>
</g>
<!-- Node23&#45;&gt;Node1 -->
<g id="edge19" class="edge">
<title>Node23&#45;&gt;Node1</title>
<path fill="none" stroke="#9a32cd" stroke-dasharray="5,2" d="M936.8,-178.39C981.35,-182.88 1040.82,-188.88 1085.79,-193.42"/>
<polygon fill="#9a32cd" stroke="#9a32cd" points="936.98,-174.89 926.68,-177.37 936.27,-181.85 936.98,-174.89"/>
<text text-anchor="middle" x="1012" y="-192.6" font-family="Helvetica,sans-Serif" font-size="8.00"> m_ev_wait_hndl</text>
</g>
<!-- Node24 -->
<g id="node20" class="node">
<title>Node24</title>
<g id="a_node20"><a xlink:title=" ">
<polygon fill="white" stroke="#bfbfbf" points="651.5,-159 651.5,-185 742.5,-185 742.5,-159 651.5,-159"/>
<text text-anchor="start" x="659.5" y="-174.6" font-family="Helvetica,sans-Serif" font-size="8.00">boost::asio::posix</text>
<text text-anchor="middle" x="697" y="-165.6" font-family="Helvetica,sans-Serif" font-size="8.00">::descriptor</text>
</a>
</g>
</g>
<!-- Node24&#45;&gt;Node23 -->
<g id="edge20" class="edge">
<title>Node24&#45;&gt;Node23</title>
<path fill="none" stroke="darkgreen" d="M752.71,-172C773.66,-172 797.52,-172 818.33,-172"/>
<polygon fill="darkgreen" stroke="darkgreen" points="752.68,-168.5 742.68,-172 752.68,-175.5 752.68,-168.5"/>
</g>
<!-- Node25 -->
<g id="node21" class="node">
<title>Node25</title>
<g id="a_node21"><a xlink:title=" ">
<polygon fill="white" stroke="#bfbfbf" points="811,-73 811,-135 934,-135 934,-73 811,-73"/>
<text text-anchor="start" x="819" y="-124.6" font-family="Helvetica,sans-Serif" font-size="8.00">Function&lt; void(Asio</text>
<text text-anchor="start" x="819" y="-115.6" font-family="Helvetica,sans-Serif" font-size="8.00">_waitable_native_handle</text>
<text text-anchor="start" x="819" y="-106.6" font-family="Helvetica,sans-Serif" font-size="8.00"> *hndl_of_interest, bool</text>
<text text-anchor="start" x="819" y="-97.6" font-family="Helvetica,sans-Serif" font-size="8.00"> ev_of_interest_snd_else</text>
<text text-anchor="start" x="819" y="-88.6" font-family="Helvetica,sans-Serif" font-size="8.00">_rcv, Task_ptr &amp;&amp;on_active</text>
<text text-anchor="middle" x="872.5" y="-79.6" font-family="Helvetica,sans-Serif" font-size="8.00">_ev_func)&gt;</text>
</a>
</g>
</g>
<!-- Node25&#45;&gt;Node1 -->
<g id="edge21" class="edge">
<title>Node25&#45;&gt;Node1</title>
<path fill="none" stroke="#9a32cd" stroke-dasharray="5,2" d="M943.93,-126.24C981,-138.18 1027.13,-153.41 1068,-168 1080.65,-172.52 1094.29,-177.66 1106.79,-182.48"/>
<polygon fill="#9a32cd" stroke="#9a32cd" points="944.81,-122.84 934.22,-123.12 942.67,-129.51 944.81,-122.84"/>
<text text-anchor="middle" x="1012" y="-170.6" font-family="Helvetica,sans-Serif" font-size="8.00"> m_ev_wait_func</text>
</g>
<!-- Node26 -->
<g id="node22" class="node">
<title>Node26</title>
<g id="a_node22"><a xlink:title=" ">
<polygon fill="white" stroke="#bfbfbf" points="837,-36.5 837,-53.5 908,-53.5 908,-36.5 837,-36.5"/>
<text text-anchor="middle" x="872.5" y="-43.1" font-family="Helvetica,sans-Serif" font-size="8.00">Task_asio_err</text>
</a>
</g>
</g>
<!-- Node26&#45;&gt;Node1 -->
<g id="edge22" class="edge">
<title>Node26&#45;&gt;Node1</title>
<path fill="none" stroke="#9a32cd" stroke-dasharray="5,2" d="M917.88,-55.05C959.2,-65.83 1021.27,-85.74 1068,-117 1095.61,-135.47 1121.71,-164.07 1137.03,-182.41"/>
<polygon fill="#9a32cd" stroke="#9a32cd" points="918.65,-51.64 908.1,-52.57 916.93,-58.42 918.65,-51.64"/>
<text text-anchor="middle" x="1012" y="-119.6" font-family="Helvetica,sans-Serif" font-size="8.00"> m_on_done_func_or_empty</text>
</g>
<!-- Node27 -->
<g id="node23" class="node">
<title>Node27</title>
<g id="a_node23"><a xlink:title=" ">
<polygon fill="white" stroke="#bfbfbf" points="842.5,-0.5 842.5,-17.5 902.5,-17.5 902.5,-0.5 842.5,-0.5"/>
<text text-anchor="middle" x="872.5" y="-7.1" font-family="Helvetica,sans-Serif" font-size="8.00">Error_code</text>
</a>
</g>
</g>
<!-- Node27&#45;&gt;Node1 -->
<g id="edge23" class="edge">
<title>Node27&#45;&gt;Node1</title>
<path fill="none" stroke="#9a32cd" stroke-dasharray="5,2" d="M912.72,-9.07C954.97,-11.05 1022.27,-19.91 1068,-54 1112.41,-87.11 1136.62,-151.5 1146.15,-182.49"/>
<polygon fill="#9a32cd" stroke="#9a32cd" points="912.67,-5.57 902.55,-8.71 912.41,-12.57 912.67,-5.57"/>
<text text-anchor="middle" x="1012" y="-56.6" font-family="Helvetica,sans-Serif" font-size="8.00"> m_target_err_code</text>
</g>
</g>
</svg>
