<?xml version="1.0" encoding="UTF-8" standalone="no"?>
<!DOCTYPE svg PUBLIC "-//W3C//DTD SVG 1.1//EN"
 "http://www.w3.org/Graphics/SVG/1.1/DTD/svg11.dtd">
<!-- Generated by graphviz version 2.43.0 (0)
 -->
<!-- Title: ipc::session::sync_io::Session_adapter::on_ev_channel_open Pages: 1 -->
<svg width="265pt" height="44pt"
 viewBox="0.00 0.00 265.00 44.00" xmlns="http://www.w3.org/2000/svg" xmlns:xlink="http://www.w3.org/1999/xlink">
<g id="graph0" class="graph" transform="scale(1 1) rotate(0) translate(4 40)">
<title>ipc::session::sync_io::Session_adapter::on_ev_channel_open</title>
<polygon fill="white" stroke="transparent" points="-4,4 -4,-40 261,-40 261,4 -4,4"/>
<!-- Node1 -->
<g id="node1" class="node">
<title>Node1</title>
<g id="a_node1"><a xlink:title="Signaled by the function returned by on_channel_func_sio(), it returns the IPC&#45;pipe to steady&#45;state (...">
<polygon fill="#bfbfbf" stroke="black" points="0,-0.5 0,-35.5 108,-35.5 108,-0.5 0,-0.5"/>
<text text-anchor="start" x="8" y="-25.1" font-family="Helvetica,sans-Serif" font-size="8.00">ipc::session::sync</text>
<text text-anchor="start" x="8" y="-16.1" font-family="Helvetica,sans-Serif" font-size="8.00">_io::Session_adapter</text>
<text text-anchor="middle" x="54" y="-7.1" font-family="Helvetica,sans-Serif" font-size="8.00">::on_ev_channel_open</text>
</a>
</g>
</g>
<!-- Node2 -->
<g id="node2" class="node">
<title>Node2</title>
<g id="a_node2"><a xlink:href="namespaceipc_1_1util.html#a814272e555c0592b0caf92b7bc3d64b3" target="_top" xlink:title="Reads a byte via the given pipe reader.">
<polygon fill="white" stroke="black" points="144,-9.5 144,-26.5 257,-26.5 257,-9.5 144,-9.5"/>
<text text-anchor="middle" x="200.5" y="-16.1" font-family="Helvetica,sans-Serif" font-size="8.00">ipc::util::pipe_consume</text>
</a>
</g>
</g>
<!-- Node1&#45;&gt;Node2 -->
<g id="edge1" class="edge">
<title>Node1&#45;&gt;Node2</title>
<path fill="none" stroke="midnightblue" d="M108.4,-18C116.63,-18 125.21,-18 133.67,-18"/>
<polygon fill="midnightblue" stroke="midnightblue" points="133.9,-21.5 143.9,-18 133.9,-14.5 133.9,-21.5"/>
</g>
</g>
</svg>
