<?xml version="1.0" encoding="UTF-8" standalone="no"?>
<!DOCTYPE svg PUBLIC "-//W3C//DTD SVG 1.1//EN"
 "http://www.w3.org/Graphics/SVG/1.1/DTD/svg11.dtd">
<!-- Generated by graphviz version 2.43.0 (0)
 -->
<!-- Title: ipc::session::Server_session_impl&lt; S_MQ_TYPE_OR_NONE, S_TRANSMIT_NATIVE_HANDLES, Mdt_payload, S_SHM_TYPE_OR_NONE, S_SHM_MAX_HNDL_SZ &gt; Pages: 1 -->
<svg width="1415pt" height="948pt"
 viewBox="0.00 0.00 1415.00 948.16" xmlns="http://www.w3.org/2000/svg" xmlns:xlink="http://www.w3.org/1999/xlink">
<g id="graph0" class="graph" transform="scale(1 1) rotate(0) translate(4 944.16)">
<title>ipc::session::Server_session_impl&lt; S_MQ_TYPE_OR_NONE, S_TRANSMIT_NATIVE_HANDLES, Mdt_payload, S_SHM_TYPE_OR_NONE, S_SHM_MAX_HNDL_SZ &gt;</title>
<polygon fill="white" stroke="transparent" points="-4,4 -4,-944.16 1411,-944.16 1411,4 -4,4"/>
<!-- Node1 -->
<g id="node1" class="node">
<title>Node1</title>
<g id="a_node1"><a xlink:title="Internal, non&#45;movable pImpl&#45;lite implementation of Server_session_mv class template.">
<polygon fill="#bfbfbf" stroke="black" points="1222,-204.66 1222,-257.66 1407,-257.66 1407,-204.66 1222,-204.66"/>
<text text-anchor="start" x="1230" y="-247.26" font-family="Helvetica,sans-Serif" font-size="8.00">ipc::session::Server</text>
<text text-anchor="start" x="1230" y="-238.26" font-family="Helvetica,sans-Serif" font-size="8.00">_session_impl&lt; S_MQ_TYPE</text>
<text text-anchor="start" x="1230" y="-229.26" font-family="Helvetica,sans-Serif" font-size="8.00">_OR_NONE, S_TRANSMIT_NATIVE</text>
<text text-anchor="start" x="1230" y="-220.26" font-family="Helvetica,sans-Serif" font-size="8.00">_HANDLES, Mdt_payload, S_SHM</text>
<text text-anchor="middle" x="1314.5" y="-211.26" font-family="Helvetica,sans-Serif" font-size="8.00">_TYPE_OR_NONE, S_SHM_MAX_HNDL_SZ &gt;</text>
</a>
</g>
</g>
<!-- Node2 -->
<g id="node2" class="node">
<title>Node2</title>
<g id="a_node2"><a xlink:href="classipc_1_1session_1_1Session__base.html" target="_top" xlink:title="Internal type containing data and types common to internal types Server_session_impl and Client_sessi...">
<polygon fill="white" stroke="black" points="929,-329.16 929,-373.16 1075,-373.16 1075,-329.16 929,-329.16"/>
<text text-anchor="start" x="937" y="-362.76" font-family="Helvetica,sans-Serif" font-size="8.00">ipc::session::Session</text>
<text text-anchor="start" x="937" y="-353.76" font-family="Helvetica,sans-Serif" font-size="8.00">_base&lt; S_MQ_TYPE_OR_NONE,</text>
<text text-anchor="start" x="937" y="-344.76" font-family="Helvetica,sans-Serif" font-size="8.00"> S_TRANSMIT_NATIVE_HANDLES,</text>
<text text-anchor="middle" x="1002" y="-335.76" font-family="Helvetica,sans-Serif" font-size="8.00"> Mdt_payload &gt;</text>
</a>
</g>
</g>
<!-- Node2&#45;&gt;Node1 -->
<g id="edge1" class="edge">
<title>Node2&#45;&gt;Node1</title>
<path fill="none" stroke="midnightblue" d="M1069.35,-325.52C1121,-305.56 1192.45,-277.95 1244.71,-257.75"/>
<polygon fill="midnightblue" stroke="midnightblue" points="1068.02,-322.28 1059.95,-329.15 1070.54,-328.81 1068.02,-322.28"/>
</g>
<!-- Node3 -->
<g id="node3" class="node">
<title>Node3</title>
<g id="a_node3"><a xlink:title=" ">
<polygon fill="white" stroke="#bfbfbf" points="631.5,-414.66 631.5,-431.66 730.5,-431.66 730.5,-414.66 631.5,-414.66"/>
<text text-anchor="middle" x="681" y="-421.26" font-family="Helvetica,sans-Serif" font-size="8.00">boost::noncopyable</text>
</a>
</g>
</g>
<!-- Node3&#45;&gt;Node2 -->
<g id="edge2" class="edge">
<title>Node3&#45;&gt;Node2</title>
<path fill="none" stroke="#8b1a1a" d="M740.47,-418.11C787.23,-413.14 854.14,-403.95 911,-388.16 925,-384.28 939.75,-378.82 953.17,-373.3"/>
<polygon fill="#8b1a1a" stroke="#8b1a1a" points="740.1,-414.63 730.51,-419.13 740.82,-421.59 740.1,-414.63"/>
</g>
<!-- Node4 -->
<g id="node4" class="node">
<title>Node4</title>
<g id="a_node4"><a xlink:title=" ">
<polygon fill="white" stroke="#bfbfbf" points="630.5,-504.66 630.5,-521.66 731.5,-521.66 731.5,-504.66 630.5,-504.66"/>
<text text-anchor="middle" x="681" y="-511.26" font-family="Helvetica,sans-Serif" font-size="8.00">static constexpr bool</text>
</a>
</g>
</g>
<!-- Node4&#45;&gt;Node1 -->
<g id="edge28" class="edge">
<title>Node4&#45;&gt;Node1</title>
<path fill="none" stroke="#9a32cd" stroke-dasharray="5,2" d="M741.64,-518.02C788.78,-519.92 855.64,-518.26 911,-500.16 1069.57,-448.32 1224.23,-315.14 1285.7,-257.93"/>
<polygon fill="#9a32cd" stroke="#9a32cd" points="741.75,-514.52 731.59,-517.55 741.42,-521.52 741.75,-514.52"/>
<text text-anchor="middle" x="1002" y="-512.76" font-family="Helvetica,sans-Serif" font-size="8.00"> S_MQS_ENABLED</text>
<text text-anchor="middle" x="1002" y="-503.76" font-family="Helvetica,sans-Serif" font-size="8.00">S_SHM_ENABLED</text>
<text text-anchor="middle" x="1002" y="-494.76" font-family="Helvetica,sans-Serif" font-size="8.00">S_SOCKET_STREAM_ENABLED</text>
</g>
<!-- Node4&#45;&gt;Node2 -->
<g id="edge3" class="edge">
<title>Node4&#45;&gt;Node2</title>
<path fill="none" stroke="#9a32cd" stroke-dasharray="5,2" d="M741.65,-502.3C748.31,-500.29 754.89,-497.93 761,-495.16 769.99,-491.1 769.91,-486 779,-482.16 833.87,-459.03 859.45,-488.97 911,-459.16 946.5,-438.64 974.16,-398.54 988.99,-373.4"/>
<polygon fill="#9a32cd" stroke="#9a32cd" points="740.59,-498.96 731.88,-505 742.45,-505.71 740.59,-498.96"/>
<text text-anchor="middle" x="845" y="-493.76" font-family="Helvetica,sans-Serif" font-size="8.00"> S_MQS_ENABLED</text>
<text text-anchor="middle" x="845" y="-484.76" font-family="Helvetica,sans-Serif" font-size="8.00">S_SOCKET_STREAM_ENABLED</text>
</g>
<!-- Node5 -->
<g id="node5" class="node">
<title>Node5</title>
<g id="a_node5"><a xlink:href="structipc_1_1session_1_1Server__app.html" target="_top" xlink:title="An App that is used as a server in at least one client&#45;server IPC split.">
<polygon fill="white" stroke="black" points="381,-288.66 381,-305.66 499,-305.66 499,-288.66 381,-288.66"/>
<text text-anchor="middle" x="440" y="-295.26" font-family="Helvetica,sans-Serif" font-size="8.00">ipc::session::Server_app</text>
</a>
</g>
</g>
<!-- Node5&#45;&gt;Node2 -->
<g id="edge4" class="edge">
<title>Node5&#45;&gt;Node2</title>
<path fill="none" stroke="#9a32cd" stroke-dasharray="5,2" d="M509.4,-295.98C574.33,-295.6 674.58,-296.9 761,-306.16 817.9,-312.26 881.53,-324.44 928.97,-334.59"/>
<polygon fill="#9a32cd" stroke="#9a32cd" points="509.26,-292.48 499.29,-296.06 509.31,-299.48 509.26,-292.48"/>
<text text-anchor="middle" x="681" y="-308.76" font-family="Helvetica,sans-Serif" font-size="8.00"> m_srv_app_ref</text>
</g>
<!-- Node6 -->
<g id="node6" class="node">
<title>Node6</title>
<g id="a_node6"><a xlink:href="structipc_1_1session_1_1App.html" target="_top" xlink:title="A description of an application in this ipc::session inter&#45;process communication universe.">
<polygon fill="white" stroke="black" points="155,-368.66 155,-385.66 243,-385.66 243,-368.66 155,-368.66"/>
<text text-anchor="middle" x="199" y="-375.26" font-family="Helvetica,sans-Serif" font-size="8.00">ipc::session::App</text>
</a>
</g>
</g>
<!-- Node6&#45;&gt;Node5 -->
<g id="edge5" class="edge">
<title>Node6&#45;&gt;Node5</title>
<path fill="none" stroke="midnightblue" d="M253.23,-367.52C285.57,-360.83 327.35,-350.68 363,-337.16 385.72,-328.54 410.32,-314.68 425.19,-305.75"/>
<polygon fill="midnightblue" stroke="midnightblue" points="252.19,-364.16 243.08,-369.57 253.57,-371.02 252.19,-364.16"/>
</g>
<!-- Node17 -->
<g id="node16" class="node">
<title>Node17</title>
<g id="a_node16"><a xlink:href="structipc_1_1session_1_1Client__app.html" target="_top" xlink:title="An App that is used as a client in at least one client&#45;server IPC split.">
<polygon fill="white" stroke="black" points="382.5,-362.66 382.5,-379.66 497.5,-379.66 497.5,-362.66 382.5,-362.66"/>
<text text-anchor="middle" x="440" y="-369.26" font-family="Helvetica,sans-Serif" font-size="8.00">ipc::session::Client_app</text>
</a>
</g>
</g>
<!-- Node6&#45;&gt;Node17 -->
<g id="edge17" class="edge">
<title>Node6&#45;&gt;Node17</title>
<path fill="none" stroke="midnightblue" d="M253.45,-375.82C291.79,-374.86 343.35,-373.56 382.39,-372.58"/>
<polygon fill="midnightblue" stroke="midnightblue" points="252.91,-372.33 243,-376.08 253.09,-379.33 252.91,-372.33"/>
</g>
<!-- Node7 -->
<g id="node7" class="node">
<title>Node7</title>
<g id="a_node7"><a xlink:title=" ">
<polygon fill="white" stroke="red" points="0,-578.66 0,-595.66 59,-595.66 59,-578.66 0,-578.66"/>
<text text-anchor="middle" x="29.5" y="-585.26" font-family="Helvetica,sans-Serif" font-size="8.00">std::string</text>
</a>
</g>
</g>
<!-- Node7&#45;&gt;Node6 -->
<g id="edge6" class="edge">
<title>Node7&#45;&gt;Node6</title>
<path fill="none" stroke="#9a32cd" stroke-dasharray="5,2" d="M43.82,-570.46C77.55,-528.17 165.5,-417.9 190.99,-385.96"/>
<polygon fill="#9a32cd" stroke="#9a32cd" points="40.98,-568.41 37.48,-578.41 46.46,-572.77 40.98,-568.41"/>
<text text-anchor="middle" x="104.5" y="-526.76" font-family="Helvetica,sans-Serif" font-size="8.00"> m_name</text>
</g>
<!-- Node18 -->
<g id="node17" class="node">
<title>Node18</title>
<g id="a_node17"><a xlink:href="classipc_1_1util_1_1Shared__name.html" target="_top" xlink:title="String&#45;wrapping abstraction representing a name uniquely distinguishing a kernel&#45;persistent entity fr...">
<polygon fill="white" stroke="black" points="626,-697.66 626,-714.66 736,-714.66 736,-697.66 626,-697.66"/>
<text text-anchor="middle" x="681" y="-704.26" font-family="Helvetica,sans-Serif" font-size="8.00">ipc::util::Shared_name</text>
</a>
</g>
</g>
<!-- Node7&#45;&gt;Node18 -->
<g id="edge22" class="edge">
<title>Node7&#45;&gt;Node18</title>
<path fill="none" stroke="#9a32cd" stroke-dasharray="5,2" d="M68.38,-598.62C71.29,-599.49 74.19,-600.34 77,-601.16 211.79,-640.51 242.6,-663.47 381,-687.16 465.72,-701.67 565.65,-705.36 625.86,-706.16"/>
<polygon fill="#9a32cd" stroke="#9a32cd" points="69.09,-595.18 58.51,-595.68 67.09,-601.89 69.09,-595.18"/>
<text text-anchor="middle" x="314.5" y="-685.76" font-family="Helvetica,sans-Serif" font-size="8.00"> m_raw_name</text>
</g>
<!-- Node26 -->
<g id="node25" class="node">
<title>Node26</title>
<g id="a_node25"><a xlink:href="classipc_1_1transport_1_1Protocol__negotiator.html" target="_top" xlink:title="A simple state machine that, assuming the opposide side of a comm pathway uses an equivalent state ma...">
<polygon fill="white" stroke="black" points="946.5,-593.16 946.5,-619.16 1057.5,-619.16 1057.5,-593.16 946.5,-593.16"/>
<text text-anchor="start" x="954.5" y="-608.76" font-family="Helvetica,sans-Serif" font-size="8.00">ipc::transport::Protocol</text>
<text text-anchor="middle" x="1002" y="-599.76" font-family="Helvetica,sans-Serif" font-size="8.00">_negotiator</text>
</a>
</g>
</g>
<!-- Node7&#45;&gt;Node26 -->
<g id="edge32" class="edge">
<title>Node7&#45;&gt;Node26</title>
<path fill="none" stroke="#9a32cd" stroke-dasharray="5,2" d="M69.66,-587.16C103.61,-587.16 154.05,-587.16 198,-587.16 198,-587.16 198,-587.16 551,-587.16 693.71,-587.16 861.64,-596.82 946.31,-602.36"/>
<polygon fill="#9a32cd" stroke="#9a32cd" points="69.25,-583.66 59.25,-587.16 69.25,-590.66 69.25,-583.66"/>
<text text-anchor="middle" x="440" y="-589.76" font-family="Helvetica,sans-Serif" font-size="8.00"> m_nickname</text>
</g>
<!-- Node9 -->
<g id="node8" class="node">
<title>Node9</title>
<g id="a_node8"><a xlink:title=" ">
<polygon fill="white" stroke="#bfbfbf" points="12,-311.66 12,-328.66 47,-328.66 47,-311.66 12,-311.66"/>
<text text-anchor="middle" x="29.5" y="-318.26" font-family="Helvetica,sans-Serif" font-size="8.00">path</text>
</a>
</g>
</g>
<!-- Node9&#45;&gt;Node5 -->
<g id="edge11" class="edge">
<title>Node9&#45;&gt;Node5</title>
<path fill="none" stroke="#9a32cd" stroke-dasharray="5,2" d="M57.17,-313.22C81.24,-307.35 117.72,-299.37 150,-296.16 229.76,-288.23 322.51,-290.59 380.99,-293.48"/>
<polygon fill="#9a32cd" stroke="#9a32cd" points="56.21,-309.86 47.36,-315.68 57.91,-316.65 56.21,-309.86"/>
<text text-anchor="start" x="156.5" y="-307.76" font-family="Helvetica,sans-Serif" font-size="8.00"> m_kernel_persistent</text>
<text text-anchor="middle" x="199" y="-298.76" font-family="Helvetica,sans-Serif" font-size="8.00">_run_dir_override</text>
</g>
<!-- Node9&#45;&gt;Node6 -->
<g id="edge7" class="edge">
<title>Node9&#45;&gt;Node6</title>
<path fill="none" stroke="#9a32cd" stroke-dasharray="5,2" d="M56.66,-329.07C88.37,-339.86 141.43,-357.91 172.73,-368.56"/>
<polygon fill="#9a32cd" stroke="#9a32cd" points="57.77,-325.74 47.17,-325.84 55.51,-332.37 57.77,-325.74"/>
<text text-anchor="middle" x="104.5" y="-355.76" font-family="Helvetica,sans-Serif" font-size="8.00"> m_exec_path</text>
</g>
<!-- Node10 -->
<g id="node9" class="node">
<title>Node10</title>
<g id="a_node9"><a xlink:title=" ">
<polygon fill="white" stroke="#bfbfbf" points="11.5,-397.66 11.5,-414.66 47.5,-414.66 47.5,-397.66 11.5,-397.66"/>
<text text-anchor="middle" x="29.5" y="-404.26" font-family="Helvetica,sans-Serif" font-size="8.00">uid_t</text>
</a>
</g>
</g>
<!-- Node10&#45;&gt;Node6 -->
<g id="edge8" class="edge">
<title>Node10&#45;&gt;Node6</title>
<path fill="none" stroke="#9a32cd" stroke-dasharray="5,2" d="M57.82,-401.43C84.13,-396.88 124.35,-389.91 154.97,-384.61"/>
<polygon fill="#9a32cd" stroke="#9a32cd" points="57.05,-398.01 47.79,-403.17 58.25,-404.91 57.05,-398.01"/>
<text text-anchor="middle" x="104.5" y="-399.76" font-family="Helvetica,sans-Serif" font-size="8.00"> m_user_id</text>
</g>
<!-- Node11 -->
<g id="node10" class="node">
<title>Node11</title>
<g id="a_node10"><a xlink:title=" ">
<polygon fill="white" stroke="#bfbfbf" points="11.5,-361.66 11.5,-378.66 47.5,-378.66 47.5,-361.66 11.5,-361.66"/>
<text text-anchor="middle" x="29.5" y="-368.26" font-family="Helvetica,sans-Serif" font-size="8.00">gid_t</text>
</a>
</g>
</g>
<!-- Node11&#45;&gt;Node6 -->
<g id="edge9" class="edge">
<title>Node11&#45;&gt;Node6</title>
<path fill="none" stroke="#9a32cd" stroke-dasharray="5,2" d="M57.82,-371.3C84.13,-372.4 124.35,-374.08 154.97,-375.36"/>
<polygon fill="#9a32cd" stroke="#9a32cd" points="57.93,-367.81 47.79,-370.89 57.64,-374.8 57.93,-367.81"/>
<text text-anchor="middle" x="104.5" y="-376.76" font-family="Helvetica,sans-Serif" font-size="8.00"> m_group_id</text>
</g>
<!-- Node12 -->
<g id="node11" class="node">
<title>Node12</title>
<g id="a_node11"><a xlink:title=" ">
<polygon fill="white" stroke="#bfbfbf" points="150,-323.16 150,-349.16 248,-349.16 248,-323.16 150,-323.16"/>
<text text-anchor="start" x="158" y="-338.76" font-family="Helvetica,sans-Serif" font-size="8.00">unordered_set&lt; std</text>
<text text-anchor="middle" x="199" y="-329.76" font-family="Helvetica,sans-Serif" font-size="8.00">::string &gt;</text>
</a>
</g>
</g>
<!-- Node12&#45;&gt;Node5 -->
<g id="edge10" class="edge">
<title>Node12&#45;&gt;Node5</title>
<path fill="none" stroke="#9a32cd" stroke-dasharray="5,2" d="M258.05,-326.69C297.36,-320.28 348.85,-311.87 386.85,-305.67"/>
<polygon fill="#9a32cd" stroke="#9a32cd" points="257.38,-323.25 248.08,-328.32 258.51,-330.16 257.38,-323.25"/>
<text text-anchor="middle" x="314.5" y="-326.76" font-family="Helvetica,sans-Serif" font-size="8.00"> m_allowed_client_apps</text>
</g>
<!-- Node13 -->
<g id="node12" class="node">
<title>Node13</title>
<g id="a_node12"><a xlink:title=" ">
<polygon fill="white" stroke="#bfbfbf" points="154.5,-232.66 154.5,-249.66 243.5,-249.66 243.5,-232.66 154.5,-232.66"/>
<text text-anchor="middle" x="199" y="-239.26" font-family="Helvetica,sans-Serif" font-size="8.00">Permissions_level</text>
</a>
</g>
</g>
<!-- Node13&#45;&gt;Node5 -->
<g id="edge12" class="edge">
<title>Node13&#45;&gt;Node5</title>
<path fill="none" stroke="#9a32cd" stroke-dasharray="5,2" d="M253.66,-239.65C285.98,-240.15 327.61,-243.32 363,-254.16 387.79,-261.75 413.37,-278.39 427.63,-288.6"/>
<polygon fill="#9a32cd" stroke="#9a32cd" points="253.53,-236.15 243.51,-239.58 253.48,-243.15 253.53,-236.15"/>
<text text-anchor="start" x="271" y="-265.76" font-family="Helvetica,sans-Serif" font-size="8.00"> m_permissions_level</text>
<text text-anchor="middle" x="314.5" y="-256.76" font-family="Helvetica,sans-Serif" font-size="8.00">_for_client_apps</text>
</g>
<!-- Node14 -->
<g id="node13" class="node">
<title>Node14</title>
<g id="a_node13"><a xlink:title=" ">
<polygon fill="white" stroke="#bfbfbf" points="645.5,-378.66 645.5,-395.66 716.5,-395.66 716.5,-378.66 645.5,-378.66"/>
<text text-anchor="middle" x="681" y="-385.26" font-family="Helvetica,sans-Serif" font-size="8.00">Fine_duration</text>
</a>
</g>
</g>
<!-- Node14&#45;&gt;Node2 -->
<g id="edge13" class="edge">
<title>Node14&#45;&gt;Node2</title>
<path fill="none" stroke="#9a32cd" stroke-dasharray="5,2" d="M726.74,-382.11C779.16,-376.2 866.71,-366.32 928.78,-359.31"/>
<polygon fill="#9a32cd" stroke="#9a32cd" points="726.29,-378.64 716.75,-383.24 727.08,-385.6 726.29,-378.64"/>
<text text-anchor="middle" x="845" y="-377.76" font-family="Helvetica,sans-Serif" font-size="8.00"> S_OPEN_CHANNEL_TIMEOUT</text>
</g>
<!-- Node15 -->
<g id="node14" class="node">
<title>Node15</title>
<g id="a_node14"><a xlink:title=" ">
<polygon fill="white" stroke="#bfbfbf" points="627.5,-207.66 627.5,-224.66 734.5,-224.66 734.5,-207.66 627.5,-207.66"/>
<text text-anchor="middle" x="681" y="-214.26" font-family="Helvetica,sans-Serif" font-size="8.00">static constexpr size_t</text>
</a>
</g>
</g>
<!-- Node15&#45;&gt;Node2 -->
<g id="edge14" class="edge">
<title>Node15&#45;&gt;Node2</title>
<path fill="none" stroke="#9a32cd" stroke-dasharray="5,2" d="M745.01,-214.58C793.15,-215.93 859.72,-223.49 911,-251.16 928.68,-260.7 963.23,-302.56 984,-329.01"/>
<polygon fill="#9a32cd" stroke="#9a32cd" points="744.79,-211.08 734.72,-214.38 744.65,-218.07 744.79,-211.08"/>
<text text-anchor="middle" x="845" y="-253.76" font-family="Helvetica,sans-Serif" font-size="8.00"> S_MQS_MAX_MSG_SZ</text>
</g>
<!-- Node16 -->
<g id="node15" class="node">
<title>Node16</title>
<g id="a_node15"><a xlink:title=" ">
<polygon fill="white" stroke="black" points="632,-324.66 632,-359.66 730,-359.66 730,-324.66 632,-324.66"/>
<text text-anchor="start" x="640" y="-349.26" font-family="Helvetica,sans-Serif" font-size="8.00">std::atomic&lt; const</text>
<text text-anchor="start" x="640" y="-340.26" font-family="Helvetica,sans-Serif" font-size="8.00"> ipc::session::Client</text>
<text text-anchor="middle" x="681" y="-331.26" font-family="Helvetica,sans-Serif" font-size="8.00">_app * &gt;</text>
</a>
</g>
</g>
<!-- Node16&#45;&gt;Node2 -->
<g id="edge15" class="edge">
<title>Node16&#45;&gt;Node2</title>
<path fill="none" stroke="#9a32cd" stroke-dasharray="5,2" d="M740.36,-343.81C793.39,-345.31 871.83,-347.52 928.8,-349.13"/>
<polygon fill="#9a32cd" stroke="#9a32cd" points="740.2,-340.3 730.1,-343.52 740,-347.3 740.2,-340.3"/>
<text text-anchor="middle" x="845" y="-350.76" font-family="Helvetica,sans-Serif" font-size="8.00"> m_cli_app_ptr</text>
</g>
<!-- Node17&#45;&gt;Node16 -->
<g id="edge16" class="edge">
<title>Node17&#45;&gt;Node16</title>
<path fill="none" stroke="#9a32cd" stroke-dasharray="5,2" d="M507.7,-363.07C547.14,-358.28 596.17,-352.33 631.83,-348.01"/>
<polygon fill="#9a32cd" stroke="#9a32cd" points="507.15,-359.61 497.64,-364.29 507.99,-366.56 507.15,-359.61"/>
<text text-anchor="middle" x="550" y="-363.76" font-family="Helvetica,sans-Serif" font-size="8.00"> ptr</text>
</g>
<!-- Node18&#45;&gt;Node2 -->
<g id="edge18" class="edge">
<title>Node18&#45;&gt;Node2</title>
<path fill="none" stroke="#9a32cd" stroke-dasharray="5,2" d="M746.31,-707.08C798.97,-704.08 871.08,-690.66 911,-643.16 932.74,-617.29 919.16,-524.49 929,-492.16 942.52,-447.72 969.57,-400.51 986.39,-373.55"/>
<polygon fill="#9a32cd" stroke="#9a32cd" points="745.88,-703.6 736.05,-707.55 746.2,-710.59 745.88,-703.6"/>
<text text-anchor="middle" x="845" y="-714.76" font-family="Helvetica,sans-Serif" font-size="8.00"> m_cli_namespace</text>
<text text-anchor="middle" x="845" y="-705.76" font-family="Helvetica,sans-Serif" font-size="8.00">m_srv_namespace</text>
</g>
<!-- Node18&#45;&gt;Node18 -->
<g id="edge19" class="edge">
<title>Node18&#45;&gt;Node18</title>
<path fill="none" stroke="#9a32cd" stroke-dasharray="5,2" d="M656.63,-723.26C656.84,-728.78 664.96,-733.16 681,-733.16 704.87,-733.16 711.21,-723.45 700.02,-714.73"/>
<polygon fill="#9a32cd" stroke="#9a32cd" points="659.63,-725.06 661.98,-714.73 653.7,-721.34 659.63,-725.06"/>
<text text-anchor="middle" x="681" y="-798.76" font-family="Helvetica,sans-Serif" font-size="8.00"> S_1ST_OR_ONLY</text>
<text text-anchor="middle" x="681" y="-789.76" font-family="Helvetica,sans-Serif" font-size="8.00">S_EMPTY</text>
<text text-anchor="start" x="642.5" y="-780.76" font-family="Helvetica,sans-Serif" font-size="8.00">S_RESOURCE_TYPE</text>
<text text-anchor="middle" x="681" y="-771.76" font-family="Helvetica,sans-Serif" font-size="8.00">_ID_MUTEX</text>
<text text-anchor="start" x="642.5" y="-762.76" font-family="Helvetica,sans-Serif" font-size="8.00">S_RESOURCE_TYPE</text>
<text text-anchor="middle" x="681" y="-753.76" font-family="Helvetica,sans-Serif" font-size="8.00">_ID_SHM</text>
<text text-anchor="middle" x="681" y="-744.76" font-family="Helvetica,sans-Serif" font-size="8.00">S_ROOT_MAGIC</text>
<text text-anchor="middle" x="681" y="-735.76" font-family="Helvetica,sans-Serif" font-size="8.00">S_SENTINEL</text>
</g>
<!-- Node30 -->
<g id="node29" class="node">
<title>Node30</title>
<g id="a_node29"><a xlink:href="classipc_1_1transport_1_1sync__io_1_1Native__socket__stream.html" target="_top" xlink:title="Implements both sync_io::Native_handle_sender and sync_io::Native_handle_receiver concepts by using a...">
<polygon fill="white" stroke="black" points="940.5,-813.16 940.5,-839.16 1063.5,-839.16 1063.5,-813.16 940.5,-813.16"/>
<text text-anchor="start" x="948.5" y="-828.76" font-family="Helvetica,sans-Serif" font-size="8.00">ipc::transport::sync</text>
<text text-anchor="middle" x="1002" y="-819.76" font-family="Helvetica,sans-Serif" font-size="8.00">_io::Native_socket_stream</text>
</a>
</g>
</g>
<!-- Node18&#45;&gt;Node30 -->
<g id="edge37" class="edge">
<title>Node18&#45;&gt;Node30</title>
<path fill="none" stroke="#9a32cd" stroke-dasharray="5,2" d="M719.25,-717.66C737.21,-723.02 759.13,-729.27 779,-734.16 837.15,-748.48 856.17,-737.09 911,-761.16 940.65,-774.18 970.14,-798.1 986.92,-813.01"/>
<polygon fill="#9a32cd" stroke="#9a32cd" points="720.02,-714.24 709.44,-714.71 718.01,-720.95 720.02,-714.24"/>
<text text-anchor="middle" x="845" y="-763.76" font-family="Helvetica,sans-Serif" font-size="8.00"> S_RESOURCE_TYPE_ID</text>
</g>
<!-- Node19 -->
<g id="node18" class="node">
<title>Node19</title>
<g id="a_node18"><a xlink:title=" ">
<polygon fill="white" stroke="#bfbfbf" points="420,-801.66 420,-818.66 460,-818.66 460,-801.66 420,-801.66"/>
<text text-anchor="middle" x="440" y="-808.26" font-family="Helvetica,sans-Serif" font-size="8.00">size_t</text>
</a>
</g>
</g>
<!-- Node19&#45;&gt;Node18 -->
<g id="edge20" class="edge">
<title>Node19&#45;&gt;Node18</title>
<path fill="none" stroke="#9a32cd" stroke-dasharray="5,2" d="M469.57,-797.73C518.78,-776.32 618.27,-733.02 660.42,-714.68"/>
<polygon fill="#9a32cd" stroke="#9a32cd" points="467.93,-794.63 460.15,-801.83 470.72,-801.05 467.93,-794.63"/>
<text text-anchor="middle" x="550" y="-778.76" font-family="Helvetica,sans-Serif" font-size="8.00"> S_MAX_LENGTH</text>
</g>
<!-- Node19&#45;&gt;Node30 -->
<g id="edge39" class="edge">
<title>Node19&#45;&gt;Node30</title>
<path fill="none" stroke="#9a32cd" stroke-dasharray="5,2" d="M470.01,-819.56C544.08,-842.24 745.97,-895.76 911,-863.16 934.2,-858.58 958.94,-847.94 976.6,-839.25"/>
<polygon fill="#9a32cd" stroke="#9a32cd" points="471.01,-816.21 460.43,-816.58 468.93,-822.89 471.01,-816.21"/>
<text text-anchor="middle" x="681" y="-874.76" font-family="Helvetica,sans-Serif" font-size="8.00"> S_MAX_META_BLOB_LENGTH</text>
</g>
<!-- Node20 -->
<g id="node19" class="node">
<title>Node20</title>
<g id="a_node19"><a xlink:title=" ">
<polygon fill="white" stroke="#bfbfbf" points="398,-660.66 398,-677.66 482,-677.66 482,-660.66 398,-660.66"/>
<text text-anchor="middle" x="440" y="-667.26" font-family="Helvetica,sans-Serif" font-size="8.00">static const char</text>
</a>
</g>
</g>
<!-- Node20&#45;&gt;Node18 -->
<g id="edge21" class="edge">
<title>Node20&#45;&gt;Node18</title>
<path fill="none" stroke="#9a32cd" stroke-dasharray="5,2" d="M492.32,-672.08C519.45,-674.15 553.2,-677.6 583,-683.16 591.16,-684.69 592.95,-686.13 601,-688.16 613.96,-691.44 628.18,-694.76 640.94,-697.64"/>
<polygon fill="#9a32cd" stroke="#9a32cd" points="492.5,-668.58 482.28,-671.34 492,-675.56 492.5,-668.58"/>
<text text-anchor="middle" x="550" y="-685.76" font-family="Helvetica,sans-Serif" font-size="8.00"> S_SEPARATOR</text>
</g>
<!-- Node21 -->
<g id="node20" class="node">
<title>Node21</title>
<g id="a_node20"><a xlink:title=" ">
<polygon fill="white" stroke="#bfbfbf" points="645.5,-163.66 645.5,-180.66 716.5,-180.66 716.5,-163.66 645.5,-163.66"/>
<text text-anchor="middle" x="681" y="-170.26" font-family="Helvetica,sans-Serif" font-size="8.00">Task_asio_err</text>
</a>
</g>
</g>
<!-- Node21&#45;&gt;Node1 -->
<g id="edge35" class="edge">
<title>Node21&#45;&gt;Node1</title>
<path fill="none" stroke="#9a32cd" stroke-dasharray="5,2" d="M726.9,-171.25C773.15,-170.75 847.27,-171.19 911,-177.16 919.07,-177.92 920.98,-178.96 929,-180.16 1028.9,-195.11 1143.73,-210.05 1221.71,-219.86"/>
<polygon fill="#9a32cd" stroke="#9a32cd" points="726.57,-167.75 716.62,-171.38 726.66,-174.75 726.57,-167.75"/>
<text text-anchor="middle" x="1002" y="-201.76" font-family="Helvetica,sans-Serif" font-size="8.00"> m_log_in_on_done_func</text>
</g>
<!-- Node21&#45;&gt;Node2 -->
<g id="edge23" class="edge">
<title>Node21&#45;&gt;Node2</title>
<path fill="none" stroke="#9a32cd" stroke-dasharray="5,2" d="M726.87,-172.59C785.59,-174.08 884.2,-180.06 911,-203.16 932.73,-221.9 915.5,-239.84 929,-265.16 941.82,-289.22 962.16,-312.68 977.95,-329.01"/>
<polygon fill="#9a32cd" stroke="#9a32cd" points="726.82,-169.09 716.75,-172.37 726.67,-176.09 726.82,-169.09"/>
<text text-anchor="middle" x="845" y="-205.76" font-family="Helvetica,sans-Serif" font-size="8.00"> m_on_err_func</text>
</g>
<!-- Node22 -->
<g id="node21" class="node">
<title>Node22</title>
<g id="a_node21"><a xlink:title=" ">
<polygon fill="white" stroke="#bfbfbf" points="601,-450.66 601,-485.66 761,-485.66 761,-450.66 601,-450.66"/>
<text text-anchor="start" x="609" y="-475.26" font-family="Helvetica,sans-Serif" font-size="8.00">Function&lt; void(Channel</text>
<text text-anchor="start" x="609" y="-466.26" font-family="Helvetica,sans-Serif" font-size="8.00">_obj &amp;&amp;new_channel, Mdt</text>
<text text-anchor="middle" x="681" y="-457.26" font-family="Helvetica,sans-Serif" font-size="8.00">_reader_ptr &amp;&amp;new_channel_mdt)&gt;</text>
</a>
</g>
</g>
<!-- Node22&#45;&gt;Node2 -->
<g id="edge24" class="edge">
<title>Node22&#45;&gt;Node2</title>
<path fill="none" stroke="#9a32cd" stroke-dasharray="5,2" d="M752.1,-448.03C761.13,-445.62 770.26,-443.27 779,-441.16 837.21,-427.13 855.99,-437.83 911,-414.16 934.65,-403.99 958.39,-387.02 975.54,-373.26"/>
<polygon fill="#9a32cd" stroke="#9a32cd" points="751.11,-444.67 742.37,-450.66 752.94,-451.43 751.11,-444.67"/>
<text text-anchor="start" x="784.5" y="-452.76" font-family="Helvetica,sans-Serif" font-size="8.00"> m_on_passive_open_channel</text>
<text text-anchor="middle" x="845" y="-443.76" font-family="Helvetica,sans-Serif" font-size="8.00">_func_or_empty</text>
</g>
<!-- Node23 -->
<g id="node22" class="node">
<title>Node23</title>
<g id="a_node22"><a xlink:title=" ">
<polygon fill="white" stroke="#bfbfbf" points="651,-243.66 651,-260.66 711,-260.66 711,-243.66 651,-243.66"/>
<text text-anchor="middle" x="681" y="-250.26" font-family="Helvetica,sans-Serif" font-size="8.00">Error_code</text>
</a>
</g>
</g>
<!-- Node23&#45;&gt;Node1 -->
<g id="edge41" class="edge">
<title>Node23&#45;&gt;Node1</title>
<path fill="none" stroke="#9a32cd" stroke-dasharray="5,2" d="M721.35,-250.85C820.34,-247.56 1081.74,-238.87 1221.8,-234.21"/>
<polygon fill="#9a32cd" stroke="#9a32cd" points="721.07,-247.36 711.19,-251.19 721.3,-254.36 721.07,-247.36"/>
<text text-anchor="middle" x="1002" y="-245.76" font-family="Helvetica,sans-Serif" font-size="8.00"> m_pre_init_err_code</text>
</g>
<!-- Node23&#45;&gt;Node2 -->
<g id="edge25" class="edge">
<title>Node23&#45;&gt;Node2</title>
<path fill="none" stroke="#9a32cd" stroke-dasharray="5,2" d="M721.29,-256.96C782.09,-264.55 893.8,-279.16 911,-286.16 935.64,-296.19 959.86,-314.29 976.97,-328.85"/>
<polygon fill="#9a32cd" stroke="#9a32cd" points="721.63,-253.48 711.28,-255.72 720.77,-260.43 721.63,-253.48"/>
<text text-anchor="start" x="796.5" y="-297.76" font-family="Helvetica,sans-Serif" font-size="8.00"> m_peer_state_err_code</text>
<text text-anchor="middle" x="845" y="-288.76" font-family="Helvetica,sans-Serif" font-size="8.00">_or_ok</text>
</g>
<!-- Node24 -->
<g id="node23" class="node">
<title>Node24</title>
<g id="a_node23"><a xlink:title=" ">
<polygon fill="white" stroke="#bfbfbf" points="627.5,-661.66 627.5,-678.66 734.5,-678.66 734.5,-661.66 627.5,-661.66"/>
<text text-anchor="middle" x="681" y="-668.26" font-family="Helvetica,sans-Serif" font-size="8.00">flow::log::Log_context</text>
</a>
</g>
</g>
<!-- Node24&#45;&gt;Node1 -->
<g id="edge26" class="edge">
<title>Node24&#45;&gt;Node1</title>
<path fill="none" stroke="midnightblue" d="M744.62,-671.74C868.37,-673.5 1138,-670.13 1204,-610.16 1257.48,-561.57 1297.19,-335.61 1309.5,-257.67"/>
<polygon fill="midnightblue" stroke="midnightblue" points="744.59,-668.24 734.53,-671.58 744.48,-675.24 744.59,-668.24"/>
</g>
<!-- Node24&#45;&gt;Node26 -->
<g id="edge30" class="edge">
<title>Node24&#45;&gt;Node26</title>
<path fill="none" stroke="midnightblue" d="M744.74,-666.38C791.2,-662.57 855.75,-655.18 911,-641.16 932.29,-635.76 955.36,-626.72 972.81,-619.18"/>
<polygon fill="midnightblue" stroke="midnightblue" points="744.21,-662.91 734.52,-667.18 744.76,-669.88 744.21,-662.91"/>
</g>
<!-- Node25 -->
<g id="node24" class="node">
<title>Node25</title>
<g id="a_node24"><a xlink:title=" ">
<polygon fill="white" stroke="#bfbfbf" points="975.5,-153.66 975.5,-170.66 1028.5,-170.66 1028.5,-153.66 975.5,-153.66"/>
<text text-anchor="middle" x="1002" y="-160.26" font-family="Helvetica,sans-Serif" font-size="8.00">ShmType</text>
</a>
</g>
</g>
<!-- Node25&#45;&gt;Node1 -->
<g id="edge27" class="edge">
<title>Node25&#45;&gt;Node1</title>
<path fill="none" stroke="#9a32cd" stroke-dasharray="5,2" d="M1038.97,-164.15C1079.58,-167 1147.37,-173.62 1204,-188.16 1220.42,-192.38 1237.7,-198.38 1253.56,-204.57"/>
<polygon fill="#9a32cd" stroke="#9a32cd" points="1038.97,-160.64 1028.76,-163.47 1038.51,-167.62 1038.97,-160.64"/>
<text text-anchor="middle" x="1148.5" y="-190.76" font-family="Helvetica,sans-Serif" font-size="8.00"> S_SHM_TYPE</text>
</g>
<!-- Node26&#45;&gt;Node1 -->
<g id="edge29" class="edge">
<title>Node26&#45;&gt;Node1</title>
<path fill="none" stroke="#9a32cd" stroke-dasharray="5,2" d="M1067.57,-595.46C1111.27,-585.12 1167.48,-565.31 1204,-528.16 1280.29,-450.57 1304.07,-315.34 1310.93,-258.04"/>
<polygon fill="#9a32cd" stroke="#9a32cd" points="1066.58,-592.1 1057.6,-597.71 1068.12,-598.92 1066.58,-592.1"/>
<text text-anchor="middle" x="1148.5" y="-599.76" font-family="Helvetica,sans-Serif" font-size="8.00"> m_protocol_negotiator</text>
<text text-anchor="middle" x="1148.5" y="-590.76" font-family="Helvetica,sans-Serif" font-size="8.00">m_protocol_negotiator_aux</text>
</g>
<!-- Node27 -->
<g id="node26" class="node">
<title>Node27</title>
<g id="a_node26"><a xlink:title=" ">
<polygon fill="white" stroke="#bfbfbf" points="628.5,-616.16 628.5,-642.16 733.5,-642.16 733.5,-616.16 628.5,-616.16"/>
<text text-anchor="start" x="636.5" y="-631.76" font-family="Helvetica,sans-Serif" font-size="8.00">static constexpr proto</text>
<text text-anchor="middle" x="681" y="-622.76" font-family="Helvetica,sans-Serif" font-size="8.00">_ver_t</text>
</a>
</g>
</g>
<!-- Node27&#45;&gt;Node26 -->
<g id="edge31" class="edge">
<title>Node27&#45;&gt;Node26</title>
<path fill="none" stroke="#9a32cd" stroke-dasharray="5,2" d="M743.86,-624.7C802.58,-620.47 890.01,-614.16 946.26,-610.11"/>
<polygon fill="#9a32cd" stroke="#9a32cd" points="743.33,-621.23 733.61,-625.44 743.83,-628.21 743.33,-621.23"/>
<text text-anchor="middle" x="845" y="-632.76" font-family="Helvetica,sans-Serif" font-size="8.00"> S_VER_UNKNOWN</text>
<text text-anchor="middle" x="845" y="-623.76" font-family="Helvetica,sans-Serif" font-size="8.00">S_VER_UNSUPPORTED</text>
</g>
<!-- Node28 -->
<g id="node27" class="node">
<title>Node28</title>
<g id="a_node27"><a xlink:title=" ">
<polygon fill="white" stroke="#bfbfbf" points="659,-540.66 659,-557.66 703,-557.66 703,-540.66 659,-540.66"/>
<text text-anchor="middle" x="681" y="-547.26" font-family="Helvetica,sans-Serif" font-size="8.00">int16_t</text>
</a>
</g>
</g>
<!-- Node28&#45;&gt;Node26 -->
<g id="edge33" class="edge">
<title>Node28&#45;&gt;Node26</title>
<path fill="none" stroke="#9a32cd" stroke-dasharray="5,2" d="M713.06,-543.51C757.84,-536.58 842.68,-528.05 911,-548.16 940.6,-556.87 969.66,-578.68 986.43,-592.93"/>
<polygon fill="#9a32cd" stroke="#9a32cd" points="712.4,-540.07 703.09,-545.13 713.52,-546.98 712.4,-540.07"/>
<text text-anchor="middle" x="845" y="-568.76" font-family="Helvetica,sans-Serif" font-size="8.00"> m_local_max_proto_ver</text>
<text text-anchor="middle" x="845" y="-559.76" font-family="Helvetica,sans-Serif" font-size="8.00">m_local_min_proto_ver</text>
<text text-anchor="middle" x="845" y="-550.76" font-family="Helvetica,sans-Serif" font-size="8.00">m_negotiated_proto_ver</text>
</g>
<!-- Node29 -->
<g id="node28" class="node">
<title>Node29</title>
<g id="a_node28"><a xlink:title=" ">
<polygon fill="white" stroke="#bfbfbf" points="663.5,-823.66 663.5,-840.66 698.5,-840.66 698.5,-823.66 663.5,-823.66"/>
<text text-anchor="middle" x="681" y="-830.26" font-family="Helvetica,sans-Serif" font-size="8.00">bool</text>
</a>
</g>
</g>
<!-- Node29&#45;&gt;Node26 -->
<g id="edge34" class="edge">
<title>Node29&#45;&gt;Node26</title>
<path fill="none" stroke="#9a32cd" stroke-dasharray="5,2" d="M708.59,-826.53C723.96,-823.17 743.63,-818.68 761,-814.16 828.23,-796.66 856.85,-813.69 911,-770.16 962.13,-729.06 988.61,-650.71 997.5,-619.49"/>
<polygon fill="#9a32cd" stroke="#9a32cd" points="707.75,-823.13 698.72,-828.66 709.23,-829.97 707.75,-823.13"/>
<text text-anchor="middle" x="845" y="-811.76" font-family="Helvetica,sans-Serif" font-size="8.00"> m_local_max_proto_ver_sent</text>
</g>
<!-- Node29&#45;&gt;Node30 -->
<g id="edge38" class="edge">
<title>Node29&#45;&gt;Node30</title>
<path fill="none" stroke="#9a32cd" stroke-dasharray="5,2" d="M709.06,-830.43C728.51,-829.26 755.36,-827.82 779,-827.16 833.52,-825.64 895.59,-825.49 940.21,-825.67"/>
<polygon fill="#9a32cd" stroke="#9a32cd" points="708.58,-826.95 698.81,-831.06 709.01,-833.94 708.58,-826.95"/>
<text text-anchor="middle" x="845" y="-856.76" font-family="Helvetica,sans-Serif" font-size="8.00"> S_BLOB_UNDERFLOW_ALLOWED</text>
<text text-anchor="start" x="779" y="-847.76" font-family="Helvetica,sans-Serif" font-size="8.00">S_META_BLOB_UNDERFLOW</text>
<text text-anchor="middle" x="845" y="-838.76" font-family="Helvetica,sans-Serif" font-size="8.00">_ALLOWED</text>
<text text-anchor="middle" x="845" y="-829.76" font-family="Helvetica,sans-Serif" font-size="8.00">S_TRANSMIT_NATIVE_HANDLES</text>
</g>
<!-- Node30&#45;&gt;Node1 -->
<g id="edge36" class="edge">
<title>Node30&#45;&gt;Node1</title>
<path fill="none" stroke="#9a32cd" stroke-dasharray="5,2" d="M1047.13,-808.94C1093.41,-788.57 1164.76,-750.19 1204,-694.16 1303.15,-552.59 1313.37,-333.12 1313.8,-257.68"/>
<polygon fill="#9a32cd" stroke="#9a32cd" points="1045.46,-805.85 1037.66,-813.02 1048.23,-812.28 1045.46,-805.85"/>
<text text-anchor="middle" x="1148.5" y="-786.76" font-family="Helvetica,sans-Serif" font-size="8.00"> m_master_sock_stm</text>
</g>
<!-- Node31 -->
<g id="node30" class="node">
<title>Node31</title>
<g id="a_node30"><a xlink:title=" ">
<polygon fill="white" stroke="#bfbfbf" points="622,-904.66 622,-939.66 740,-939.66 740,-904.66 622,-904.66"/>
<text text-anchor="start" x="630" y="-929.26" font-family="Helvetica,sans-Serif" font-size="8.00">propagate_const&lt; boost</text>
<text text-anchor="start" x="630" y="-920.26" font-family="Helvetica,sans-Serif" font-size="8.00">::movelib::unique_ptr</text>
<text text-anchor="middle" x="681" y="-911.26" font-family="Helvetica,sans-Serif" font-size="8.00">&lt; Impl &gt; &gt;</text>
</a>
</g>
</g>
<!-- Node31&#45;&gt;Node30 -->
<g id="edge40" class="edge">
<title>Node31&#45;&gt;Node30</title>
<path fill="none" stroke="#9a32cd" stroke-dasharray="5,2" d="M750.46,-921.56C797.16,-919.09 859.63,-911.68 911,-891.16 941.25,-879.08 970.78,-854.62 987.36,-839.39"/>
<polygon fill="#9a32cd" stroke="#9a32cd" points="750.27,-918.06 740.44,-922.03 750.59,-925.06 750.27,-918.06"/>
<text text-anchor="middle" x="845" y="-920.76" font-family="Helvetica,sans-Serif" font-size="8.00"> m_impl</text>
</g>
<!-- Node32 -->
<g id="node31" class="node">
<title>Node32</title>
<g id="a_node31"><a xlink:title=" ">
<polygon fill="white" stroke="#bfbfbf" points="968,-114.66 968,-131.66 1036,-131.66 1036,-114.66 968,-114.66"/>
<text text-anchor="middle" x="1002" y="-121.26" font-family="Helvetica,sans-Serif" font-size="8.00">unsigned int</text>
</a>
</g>
</g>
<!-- Node32&#45;&gt;Node1 -->
<g id="edge42" class="edge">
<title>Node32&#45;&gt;Node1</title>
<path fill="none" stroke="#9a32cd" stroke-dasharray="5,2" d="M1046.1,-112.89C1088.13,-105.05 1152.99,-98.83 1204,-120.16 1244.71,-137.19 1277.97,-177.53 1296.76,-204.6"/>
<polygon fill="#9a32cd" stroke="#9a32cd" points="1045.32,-109.48 1036.19,-114.85 1046.68,-116.34 1045.32,-109.48"/>
<text text-anchor="start" x="1096.5" y="-158.76" font-family="Helvetica,sans-Serif" font-size="8.00"> m_last_actively_opened</text>
<text text-anchor="middle" x="1148.5" y="-149.76" font-family="Helvetica,sans-Serif" font-size="8.00">_channel_id</text>
<text text-anchor="middle" x="1148.5" y="-140.76" font-family="Helvetica,sans-Serif" font-size="8.00">m_last_channel_mq_id</text>
<text text-anchor="start" x="1096.5" y="-131.76" font-family="Helvetica,sans-Serif" font-size="8.00">m_last_passively_opened</text>
<text text-anchor="middle" x="1148.5" y="-122.76" font-family="Helvetica,sans-Serif" font-size="8.00">_channel_id</text>
</g>
<!-- Node33 -->
<g id="node32" class="node">
<title>Node33</title>
<g id="a_node32"><a xlink:title=" ">
<polygon fill="white" stroke="#bfbfbf" points="944,-78.66 944,-95.66 1060,-95.66 1060,-78.66 944,-78.66"/>
<text text-anchor="middle" x="1002" y="-85.26" font-family="Helvetica,sans-Serif" font-size="8.00">Single_thread_task_loop</text>
</a>
</g>
</g>
<!-- Node33&#45;&gt;Node1 -->
<g id="edge43" class="edge">
<title>Node33&#45;&gt;Node1</title>
<path fill="none" stroke="#9a32cd" stroke-dasharray="5,2" d="M1052.88,-77.09C1095.37,-71.07 1156.85,-68.56 1204,-92.16 1251.66,-116.03 1285.01,-171.39 1301.56,-204.59"/>
<polygon fill="#9a32cd" stroke="#9a32cd" points="1052.13,-73.67 1042.77,-78.64 1053.19,-80.58 1052.13,-73.67"/>
<text text-anchor="middle" x="1148.5" y="-94.76" font-family="Helvetica,sans-Serif" font-size="8.00"> m_async_worker</text>
</g>
<!-- Node34 -->
<g id="node33" class="node">
<title>Node34</title>
<g id="a_node33"><a xlink:title=" ">
<polygon fill="white" stroke="#bfbfbf" points="931,-42.66 931,-59.66 1073,-59.66 1073,-42.66 931,-42.66"/>
<text text-anchor="middle" x="1002" y="-49.26" font-family="Helvetica,sans-Serif" font-size="8.00">Master_structured_channel_ptr</text>
</a>
</g>
</g>
<!-- Node34&#45;&gt;Node1 -->
<g id="edge44" class="edge">
<title>Node34&#45;&gt;Node1</title>
<path fill="none" stroke="#9a32cd" stroke-dasharray="5,2" d="M1051.75,-41.1C1094.75,-34.88 1157.61,-32.49 1204,-59.16 1259.85,-91.28 1291.63,-164.66 1305.34,-204.41"/>
<polygon fill="#9a32cd" stroke="#9a32cd" points="1051.15,-37.65 1041.81,-42.65 1052.23,-44.56 1051.15,-37.65"/>
<text text-anchor="middle" x="1148.5" y="-61.76" font-family="Helvetica,sans-Serif" font-size="8.00"> m_master_channel</text>
</g>
<!-- Node35 -->
<g id="node34" class="node">
<title>Node35</title>
<g id="a_node34"><a xlink:href="classFunction_3_01void_07_08_4.html" target="_top" xlink:title=" ">
<polygon fill="white" stroke="#bfbfbf" points="956.5,-6.66 956.5,-23.66 1047.5,-23.66 1047.5,-6.66 956.5,-6.66"/>
<text text-anchor="middle" x="1002" y="-13.26" font-family="Helvetica,sans-Serif" font-size="8.00">Function&lt; void()&gt;</text>
</a>
</g>
</g>
<!-- Node35&#45;&gt;Node1 -->
<g id="edge45" class="edge">
<title>Node35&#45;&gt;Node1</title>
<path fill="none" stroke="#9a32cd" stroke-dasharray="5,2" d="M1049.59,-4.92C1093.02,1.94 1157.83,5.08 1204,-24.16 1268.92,-65.27 1297.66,-158.51 1308.27,-204.49"/>
<polygon fill="#9a32cd" stroke="#9a32cd" points="1048.85,-1.5 1039.58,-6.63 1050.03,-8.4 1048.85,-1.5"/>
<text text-anchor="middle" x="1148.5" y="-26.76" font-family="Helvetica,sans-Serif" font-size="8.00"> m_deinit_func_or_empty</text>
</g>
</g>
</svg>
