<?xml version="1.0" encoding="UTF-8" standalone="no"?>
<!DOCTYPE svg PUBLIC "-//W3C//DTD SVG 1.1//EN"
 "http://www.w3.org/Graphics/SVG/1.1/DTD/svg11.dtd">
<!-- Generated by graphviz version 2.43.0 (0)
 -->
<!-- Title: ipc::transport::Blob_stream_mq_base_impl::for_each_persistent Pages: 1 -->
<svg width="261pt" height="44pt"
 viewBox="0.00 0.00 261.00 44.00" xmlns="http://www.w3.org/2000/svg" xmlns:xlink="http://www.w3.org/1999/xlink">
<g id="graph0" class="graph" transform="scale(1 1) rotate(0) translate(4 40)">
<title>ipc::transport::Blob_stream_mq_base_impl::for_each_persistent</title>
<polygon fill="white" stroke="transparent" points="-4,4 -4,-40 257,-40 257,4 -4,4"/>
<!-- Node1 -->
<g id="node1" class="node">
<title>Node1</title>
<g id="a_node1"><a xlink:title="See Blob_stream_mq_base counterpart.">
<polygon fill="#bfbfbf" stroke="black" points="143,-0.5 143,-35.5 253,-35.5 253,-0.5 143,-0.5"/>
<text text-anchor="start" x="151" y="-25.1" font-family="Helvetica,sans-Serif" font-size="8.00">ipc::transport::Blob</text>
<text text-anchor="start" x="151" y="-16.1" font-family="Helvetica,sans-Serif" font-size="8.00">_stream_mq_base_impl</text>
<text text-anchor="middle" x="198" y="-7.1" font-family="Helvetica,sans-Serif" font-size="8.00">::for_each_persistent</text>
</a>
</g>
</g>
<!-- Node2 -->
<g id="node2" class="node">
<title>Node2</title>
<g id="a_node2"><a xlink:href="classipc_1_1transport_1_1Blob__stream__mq__base.html#a8ef2c620fae98180ecd482f0093da44f" target="_top" xlink:title="Forwards to Persistent_mq_handle::for_each_persistent().">
<polygon fill="white" stroke="black" points="0,-0.5 0,-35.5 107,-35.5 107,-0.5 0,-0.5"/>
<text text-anchor="start" x="8" y="-25.1" font-family="Helvetica,sans-Serif" font-size="8.00">ipc::transport::Blob</text>
<text text-anchor="start" x="8" y="-16.1" font-family="Helvetica,sans-Serif" font-size="8.00">_stream_mq_base::for</text>
<text text-anchor="middle" x="53.5" y="-7.1" font-family="Helvetica,sans-Serif" font-size="8.00">_each_persistent</text>
</a>
</g>
</g>
<!-- Node1&#45;&gt;Node2 -->
<g id="edge1" class="edge">
<title>Node1&#45;&gt;Node2</title>
<path fill="none" stroke="midnightblue" d="M132.5,-18C124.04,-18 115.45,-18 107.22,-18"/>
<polygon fill="midnightblue" stroke="midnightblue" points="132.72,-21.5 142.72,-18 132.72,-14.5 132.72,-21.5"/>
</g>
</g>
</svg>
