<?xml version="1.0" encoding="UTF-8" standalone="no"?>
<!DOCTYPE svg PUBLIC "-//W3C//DTD SVG 1.1//EN"
 "http://www.w3.org/Graphics/SVG/1.1/DTD/svg11.dtd">
<!-- Generated by graphviz version 2.43.0 (0)
 -->
<!-- Title: ipc::session::Server_session_impl::make_channel_mqs Pages: 1 -->
<svg width="624pt" height="145pt"
 viewBox="0.00 0.00 624.00 144.50" xmlns="http://www.w3.org/2000/svg" xmlns:xlink="http://www.w3.org/1999/xlink">
<g id="graph0" class="graph" transform="scale(1 1) rotate(0) translate(4 140.5)">
<title>ipc::session::Server_session_impl::make_channel_mqs</title>
<polygon fill="white" stroke="transparent" points="-4,4 -4,-140.5 620,-140.5 620,4 -4,4"/>
<!-- Node1 -->
<g id="node1" class="node">
<title>Node1</title>
<g id="a_node1"><a xlink:title="Helper for create_channel_and_resources(), invoked and compiled if and only if S_MQS_ENABLED,...">
<polygon fill="#bfbfbf" stroke="black" points="0,-41.5 0,-67.5 159,-67.5 159,-41.5 0,-41.5"/>
<text text-anchor="start" x="8" y="-57.1" font-family="Helvetica,sans-Serif" font-size="8.00">ipc::session::Server</text>
<text text-anchor="middle" x="79.5" y="-48.1" font-family="Helvetica,sans-Serif" font-size="8.00">_session_impl::make_channel_mqs</text>
</a>
</g>
</g>
<!-- Node2 -->
<g id="node2" class="node">
<title>Node2</title>
<g id="a_node2"><a xlink:href="namespaceipc_1_1session.html#a365d2d63f77b738e67e206af6b702634" target="_top" xlink:title="Builds an absolute name according to the path convention explained in Shared_name class doc header; t...">
<polygon fill="white" stroke="black" points="195,-82.5 195,-108.5 328,-108.5 328,-82.5 195,-82.5"/>
<text text-anchor="start" x="203" y="-98.1" font-family="Helvetica,sans-Serif" font-size="8.00">ipc::session::build</text>
<text text-anchor="middle" x="261.5" y="-89.1" font-family="Helvetica,sans-Serif" font-size="8.00">_conventional_shared_name</text>
</a>
</g>
</g>
<!-- Node1&#45;&gt;Node2 -->
<g id="edge1" class="edge">
<title>Node1&#45;&gt;Node2</title>
<path fill="none" stroke="midnightblue" d="M137.95,-67.59C155.57,-71.6 175.12,-76.05 193.33,-80.2"/>
<polygon fill="midnightblue" stroke="midnightblue" points="192.76,-83.66 203.29,-82.47 194.32,-76.84 192.76,-83.66"/>
</g>
<!-- Node5 -->
<g id="node5" class="node">
<title>Node5</title>
<g id="a_node5"><a xlink:href="classipc_1_1util_1_1Shared__name.html#a48f20b7b54490aa10dc64081d34c55b2" target="_top" xlink:title="Copy&#45;constructs from a char&#45;sequence container (including string, util::String_view,...">
<polygon fill="white" stroke="black" points="200,-46 200,-63 323,-63 323,-46 200,-46"/>
<text text-anchor="middle" x="261.5" y="-52.6" font-family="Helvetica,sans-Serif" font-size="8.00">ipc::util::Shared_name::ct</text>
</a>
</g>
</g>
<!-- Node1&#45;&gt;Node5 -->
<g id="edge5" class="edge">
<title>Node1&#45;&gt;Node5</title>
<path fill="none" stroke="midnightblue" d="M159.19,-54.5C169.3,-54.5 179.6,-54.5 189.58,-54.5"/>
<polygon fill="midnightblue" stroke="midnightblue" points="189.83,-58 199.83,-54.5 189.83,-51 189.83,-58"/>
</g>
<!-- Node6 -->
<g id="node6" class="node">
<title>Node6</title>
<g id="a_node6"><a xlink:href="namespaceipc_1_1util.html#abda2ce5bcdbc26ca63d667b87818439c" target="_top" xlink:title="Maps general Permissions_level specifier to low&#45;level Permissions value, when the underlying resource...">
<polygon fill="white" stroke="black" points="200.5,-0.5 200.5,-26.5 322.5,-26.5 322.5,-0.5 200.5,-0.5"/>
<text text-anchor="start" x="208.5" y="-16.1" font-family="Helvetica,sans-Serif" font-size="8.00">ipc::util::shared_resource</text>
<text text-anchor="middle" x="261.5" y="-7.1" font-family="Helvetica,sans-Serif" font-size="8.00">_permissions</text>
</a>
</g>
</g>
<!-- Node1&#45;&gt;Node6 -->
<g id="edge6" class="edge">
<title>Node1&#45;&gt;Node6</title>
<path fill="none" stroke="midnightblue" d="M137.95,-41.41C155.57,-37.4 175.12,-32.95 193.33,-28.8"/>
<polygon fill="midnightblue" stroke="midnightblue" points="194.32,-32.16 203.29,-26.53 192.76,-25.34 194.32,-32.16"/>
</g>
<!-- Node3 -->
<g id="node3" class="node">
<title>Node3</title>
<g id="a_node3"><a xlink:href="namespaceipc_1_1session.html#a5216d618bb573e68276d2933ce3f4010" target="_top" xlink:title="Return the prefix common to all calls to either build_conventional_shared_name() overload with the ar...">
<polygon fill="white" stroke="black" points="364,-101 364,-136 470,-136 470,-101 364,-101"/>
<text text-anchor="start" x="372" y="-125.6" font-family="Helvetica,sans-Serif" font-size="8.00">ipc::session::build</text>
<text text-anchor="start" x="372" y="-116.6" font-family="Helvetica,sans-Serif" font-size="8.00">_conventional_shared</text>
<text text-anchor="middle" x="417" y="-107.6" font-family="Helvetica,sans-Serif" font-size="8.00">_name_prefix</text>
</a>
</g>
</g>
<!-- Node2&#45;&gt;Node3 -->
<g id="edge2" class="edge">
<title>Node2&#45;&gt;Node3</title>
<path fill="none" stroke="midnightblue" d="M328.04,-105.32C336.5,-106.59 345.14,-107.88 353.55,-109.14"/>
<polygon fill="midnightblue" stroke="midnightblue" points="353.25,-112.64 363.66,-110.66 354.29,-105.71 353.25,-112.64"/>
</g>
<!-- Node4 -->
<g id="node4" class="node">
<title>Node4</title>
<g id="a_node4"><a xlink:href="classipc_1_1util_1_1Shared__name.html#a861ea6c9ad6672e83bab5c7747b66f7b" target="_top" xlink:title="Returns true if and only if str().empty() == true.">
<polygon fill="white" stroke="black" points="506,-82.5 506,-108.5 616,-108.5 616,-82.5 506,-82.5"/>
<text text-anchor="start" x="514" y="-98.1" font-family="Helvetica,sans-Serif" font-size="8.00">ipc::util::Shared_name</text>
<text text-anchor="middle" x="561" y="-89.1" font-family="Helvetica,sans-Serif" font-size="8.00">::empty</text>
</a>
</g>
</g>
<!-- Node2&#45;&gt;Node4 -->
<g id="edge4" class="edge">
<title>Node2&#45;&gt;Node4</title>
<path fill="none" stroke="midnightblue" d="M328.01,-92.54C339.98,-92.11 352.36,-91.73 364,-91.5 411.1,-90.57 422.9,-90.45 470,-91.5 478.32,-91.68 487.06,-91.97 495.7,-92.29"/>
<polygon fill="midnightblue" stroke="midnightblue" points="495.63,-95.79 505.76,-92.7 495.91,-88.8 495.63,-95.79"/>
</g>
<!-- Node3&#45;&gt;Node4 -->
<g id="edge3" class="edge">
<title>Node3&#45;&gt;Node4</title>
<path fill="none" stroke="midnightblue" d="M470.07,-110.07C478.38,-108.72 487.05,-107.32 495.6,-105.93"/>
<polygon fill="midnightblue" stroke="midnightblue" points="496.24,-109.37 505.55,-104.32 495.12,-102.46 496.24,-109.37"/>
</g>
</g>
</svg>
