<?xml version="1.0" encoding="UTF-8" standalone="no"?>
<!DOCTYPE svg PUBLIC "-//W3C//DTD SVG 1.1//EN"
 "http://www.w3.org/Graphics/SVG/1.1/DTD/svg11.dtd">
<!-- Generated by graphviz version 2.43.0 (0)
 -->
<!-- Title: ipc::transport::Native_socket_stream::impl Pages: 1 -->
<svg width="606pt" height="749pt"
 viewBox="0.00 0.00 606.00 748.50" xmlns="http://www.w3.org/2000/svg" xmlns:xlink="http://www.w3.org/1999/xlink">
<g id="graph0" class="graph" transform="scale(1 1) rotate(0) translate(4 744.5)">
<title>ipc::transport::Native_socket_stream::impl</title>
<polygon fill="white" stroke="transparent" points="-4,4 -4,-744.5 602,-744.5 602,4 -4,4"/>
<!-- Node1 -->
<g id="node1" class="node">
<title>Node1</title>
<g id="a_node1"><a xlink:title="Helper that simply returns m_impl while guaranteeing that m_impl is non&#45;null upon return.">
<polygon fill="#bfbfbf" stroke="black" points="494,-366.5 494,-392.5 598,-392.5 598,-366.5 494,-366.5"/>
<text text-anchor="start" x="502" y="-382.1" font-family="Helvetica,sans-Serif" font-size="8.00">ipc::transport::Native</text>
<text text-anchor="middle" x="546" y="-373.1" font-family="Helvetica,sans-Serif" font-size="8.00">_socket_stream::impl</text>
</a>
</g>
</g>
<!-- Node2 -->
<g id="node2" class="node">
<title>Node2</title>
<g id="a_node2"><a xlink:href="classipc_1_1transport_1_1Native__socket__stream.html#a949ab3296e29230518095d1f00f57a93" target="_top" xlink:title="Template&#45;free version of async_end_sending() as required by pImpl idiom.">
<polygon fill="white" stroke="black" points="331.5,-705 331.5,-740 441.5,-740 441.5,-705 331.5,-705"/>
<text text-anchor="start" x="339.5" y="-729.6" font-family="Helvetica,sans-Serif" font-size="8.00">ipc::transport::Native</text>
<text text-anchor="start" x="339.5" y="-720.6" font-family="Helvetica,sans-Serif" font-size="8.00">_socket_stream::async</text>
<text text-anchor="middle" x="386.5" y="-711.6" font-family="Helvetica,sans-Serif" font-size="8.00">_end_sending_fwd</text>
</a>
</g>
</g>
<!-- Node1&#45;&gt;Node2 -->
<g id="edge1" class="edge">
<title>Node1&#45;&gt;Node2</title>
<path fill="none" stroke="midnightblue" d="M545.34,-402.76C544.93,-460.05 535.97,-609.57 458,-695.5 453.42,-700.55 447.79,-704.66 441.73,-708"/>
<polygon fill="midnightblue" stroke="midnightblue" points="548.84,-402.57 545.33,-392.57 541.84,-402.58 548.84,-402.57"/>
</g>
<!-- Node5 -->
<g id="node5" class="node">
<title>Node5</title>
<g id="a_node5"><a xlink:href="classipc_1_1transport_1_1Native__socket__stream.html#a5a134afa6a1f07f956e13fc0835873ee" target="_top" xlink:title="Template&#45;free version of async_receive_blob() as required by pImpl idiom.">
<polygon fill="white" stroke="black" points="331.5,-651 331.5,-686 441.5,-686 441.5,-651 331.5,-651"/>
<text text-anchor="start" x="339.5" y="-675.6" font-family="Helvetica,sans-Serif" font-size="8.00">ipc::transport::Native</text>
<text text-anchor="start" x="339.5" y="-666.6" font-family="Helvetica,sans-Serif" font-size="8.00">_socket_stream::async</text>
<text text-anchor="middle" x="386.5" y="-657.6" font-family="Helvetica,sans-Serif" font-size="8.00">_receive_blob_fwd</text>
</a>
</g>
</g>
<!-- Node1&#45;&gt;Node5 -->
<g id="edge4" class="edge">
<title>Node1&#45;&gt;Node5</title>
<path fill="none" stroke="midnightblue" d="M543.75,-402.82C539.84,-453.1 523.73,-572.73 458,-641.5 453.38,-646.33 447.8,-650.31 441.84,-653.58"/>
<polygon fill="midnightblue" stroke="midnightblue" points="547.26,-402.87 544.45,-392.65 540.27,-402.39 547.26,-402.87"/>
</g>
<!-- Node7 -->
<g id="node7" class="node">
<title>Node7</title>
<g id="a_node7"><a xlink:href="classipc_1_1transport_1_1Native__socket__stream.html#ab6df246711fd2ca98c10ed1235e0aa1c" target="_top" xlink:title="Template&#45;free version of async_receive_native_handle() as required by pImpl idiom.">
<polygon fill="white" stroke="black" points="321,-597 321,-632 452,-632 452,-597 321,-597"/>
<text text-anchor="start" x="329" y="-621.6" font-family="Helvetica,sans-Serif" font-size="8.00">ipc::transport::Native</text>
<text text-anchor="start" x="329" y="-612.6" font-family="Helvetica,sans-Serif" font-size="8.00">_socket_stream::async</text>
<text text-anchor="middle" x="386.5" y="-603.6" font-family="Helvetica,sans-Serif" font-size="8.00">_receive_native_handle_fwd</text>
</a>
</g>
</g>
<!-- Node1&#45;&gt;Node7 -->
<g id="edge6" class="edge">
<title>Node1&#45;&gt;Node7</title>
<path fill="none" stroke="midnightblue" d="M541.44,-402.62C533.76,-444.96 511.76,-535.35 458,-587.5 454.33,-591.06 450.14,-594.16 445.68,-596.86"/>
<polygon fill="midnightblue" stroke="midnightblue" points="544.9,-403.16 543.13,-392.72 538,-401.98 544.9,-403.16"/>
</g>
<!-- Node9 -->
<g id="node9" class="node">
<title>Node9</title>
<g id="a_node9"><a xlink:href="classipc_1_1transport_1_1Native__socket__stream.html#aa5e699d5eead4220bf8b5604f629a970" target="_top" xlink:title="Implements Native_handle_sender, Blob_sender API per contract.">
<polygon fill="white" stroke="black" points="323.5,-551.5 323.5,-577.5 449.5,-577.5 449.5,-551.5 323.5,-551.5"/>
<text text-anchor="start" x="331.5" y="-567.1" font-family="Helvetica,sans-Serif" font-size="8.00">ipc::transport::Native</text>
<text text-anchor="middle" x="386.5" y="-558.1" font-family="Helvetica,sans-Serif" font-size="8.00">_socket_stream::auto_ping</text>
</a>
</g>
</g>
<!-- Node1&#45;&gt;Node9 -->
<g id="edge8" class="edge">
<title>Node1&#45;&gt;Node9</title>
<path fill="none" stroke="midnightblue" d="M538.85,-402.54C528.26,-437.81 503.23,-505.05 458,-542.5 453.75,-546.02 448.94,-548.97 443.88,-551.46"/>
<polygon fill="midnightblue" stroke="midnightblue" points="542.29,-403.26 541.68,-392.68 535.56,-401.33 542.29,-403.26"/>
</g>
<!-- Node10 -->
<g id="node10" class="node">
<title>Node10</title>
<g id="a_node10"><a xlink:href="classipc_1_1transport_1_1Native__socket__stream.html#ace134e4a6e4918212f256b60c3ed77e4" target="_top" xlink:title="Implements Native_handle_sender, Blob_sender API per contract.">
<polygon fill="white" stroke="black" points="317.5,-506.5 317.5,-532.5 455.5,-532.5 455.5,-506.5 317.5,-506.5"/>
<text text-anchor="start" x="325.5" y="-522.1" font-family="Helvetica,sans-Serif" font-size="8.00">ipc::transport::Native</text>
<text text-anchor="middle" x="386.5" y="-513.1" font-family="Helvetica,sans-Serif" font-size="8.00">_socket_stream::end_sending</text>
</a>
</g>
</g>
<!-- Node1&#45;&gt;Node10 -->
<g id="edge9" class="edge">
<title>Node1&#45;&gt;Node10</title>
<path fill="none" stroke="midnightblue" d="M534.32,-401.54C520.36,-428.08 493.45,-472.25 458,-497.5 453.09,-501 447.61,-503.95 441.93,-506.44"/>
<polygon fill="midnightblue" stroke="midnightblue" points="537.44,-403.12 538.87,-392.62 531.21,-399.94 537.44,-403.12"/>
</g>
<!-- Node11 -->
<g id="node11" class="node">
<title>Node11</title>
<g id="a_node11"><a xlink:href="classipc_1_1transport_1_1Native__socket__stream.html#a1b4ce3ddee39f21e752ec9114ac17bbd" target="_top" xlink:title="Implements Native_handle_receiver, Blob_receiver API per contract.">
<polygon fill="white" stroke="black" points="315,-461.5 315,-487.5 458,-487.5 458,-461.5 315,-461.5"/>
<text text-anchor="start" x="323" y="-477.1" font-family="Helvetica,sans-Serif" font-size="8.00">ipc::transport::Native</text>
<text text-anchor="middle" x="386.5" y="-468.1" font-family="Helvetica,sans-Serif" font-size="8.00">_socket_stream::idle_timer_run</text>
</a>
</g>
</g>
<!-- Node1&#45;&gt;Node11 -->
<g id="edge10" class="edge">
<title>Node1&#45;&gt;Node11</title>
<path fill="none" stroke="midnightblue" d="M525.22,-400.1C508.62,-416.35 483.57,-438.52 458,-452.5 451.81,-455.88 445.03,-458.83 438.19,-461.37"/>
<polygon fill="midnightblue" stroke="midnightblue" points="528.06,-402.21 532.66,-392.67 523.11,-397.26 528.06,-402.21"/>
</g>
<!-- Node12 -->
<g id="node12" class="node">
<title>Node12</title>
<g id="a_node12"><a xlink:href="classipc_1_1transport_1_1Native__socket__stream.html#a25d9c0e12a03a3b68f7f266c23466f71" target="_top" xlink:title="Returns nickname, a brief string suitable for logging.">
<polygon fill="white" stroke="black" points="324,-416.5 324,-442.5 449,-442.5 449,-416.5 324,-416.5"/>
<text text-anchor="start" x="332" y="-432.1" font-family="Helvetica,sans-Serif" font-size="8.00">ipc::transport::Native</text>
<text text-anchor="middle" x="386.5" y="-423.1" font-family="Helvetica,sans-Serif" font-size="8.00">_socket_stream::nickname</text>
</a>
</g>
</g>
<!-- Node1&#45;&gt;Node12 -->
<g id="edge11" class="edge">
<title>Node1&#45;&gt;Node12</title>
<path fill="none" stroke="midnightblue" d="M494.49,-395.53C473.19,-402.3 448.7,-410.07 428.54,-416.47"/>
<polygon fill="midnightblue" stroke="midnightblue" points="495.56,-398.87 504.03,-392.51 493.44,-392.2 495.56,-398.87"/>
</g>
<!-- Node14 -->
<g id="node14" class="node">
<title>Node14</title>
<g id="a_node14"><a xlink:href="classipc_1_1transport_1_1Native__socket__stream.html#adb667160fd0ab3951d93d219d7bdc3be" target="_top" xlink:title="Implements Blob_receiver API per contract.">
<polygon fill="white" stroke="black" points="328.5,-362 328.5,-397 444.5,-397 444.5,-362 328.5,-362"/>
<text text-anchor="start" x="336.5" y="-386.6" font-family="Helvetica,sans-Serif" font-size="8.00">ipc::transport::Native</text>
<text text-anchor="start" x="336.5" y="-377.6" font-family="Helvetica,sans-Serif" font-size="8.00">_socket_stream::receive</text>
<text text-anchor="middle" x="386.5" y="-368.6" font-family="Helvetica,sans-Serif" font-size="8.00">_blob_max_size</text>
</a>
</g>
</g>
<!-- Node1&#45;&gt;Node14 -->
<g id="edge13" class="edge">
<title>Node1&#45;&gt;Node14</title>
<path fill="none" stroke="midnightblue" d="M483.72,-379.5C470.86,-379.5 457.35,-379.5 444.65,-379.5"/>
<polygon fill="midnightblue" stroke="midnightblue" points="483.86,-383 493.86,-379.5 483.86,-376 483.86,-383"/>
</g>
<!-- Node16 -->
<g id="node16" class="node">
<title>Node16</title>
<g id="a_node16"><a xlink:href="classipc_1_1transport_1_1Native__socket__stream.html#ac7659af6812efca67c410af286f0cb34" target="_top" xlink:title="Implements Native_handle_receiver API per contract.">
<polygon fill="white" stroke="black" points="328.5,-308 328.5,-343 444.5,-343 444.5,-308 328.5,-308"/>
<text text-anchor="start" x="336.5" y="-332.6" font-family="Helvetica,sans-Serif" font-size="8.00">ipc::transport::Native</text>
<text text-anchor="start" x="336.5" y="-323.6" font-family="Helvetica,sans-Serif" font-size="8.00">_socket_stream::receive</text>
<text text-anchor="middle" x="386.5" y="-314.6" font-family="Helvetica,sans-Serif" font-size="8.00">_meta_blob_max_size</text>
</a>
</g>
</g>
<!-- Node1&#45;&gt;Node16 -->
<g id="edge15" class="edge">
<title>Node1&#45;&gt;Node16</title>
<path fill="none" stroke="midnightblue" d="M497.19,-363.11C478.69,-356.76 457.48,-349.49 438.67,-343.04"/>
<polygon fill="midnightblue" stroke="midnightblue" points="496.28,-366.5 506.87,-366.43 498.55,-359.87 496.28,-366.5"/>
</g>
<!-- Node17 -->
<g id="node17" class="node">
<title>Node17</title>
<g id="a_node17"><a xlink:href="classipc_1_1transport_1_1Native__socket__stream.html#af63671c0e30d39d3460331c4dd3742b2" target="_top" xlink:title="OS&#45;reported process credential (PID, etc.) info about the other connected peer&#39;s process,...">
<polygon fill="white" stroke="black" points="324,-254 324,-289 449,-289 449,-254 324,-254"/>
<text text-anchor="start" x="332" y="-278.6" font-family="Helvetica,sans-Serif" font-size="8.00">ipc::transport::Native</text>
<text text-anchor="start" x="332" y="-269.6" font-family="Helvetica,sans-Serif" font-size="8.00">_socket_stream::remote</text>
<text text-anchor="middle" x="386.5" y="-260.6" font-family="Helvetica,sans-Serif" font-size="8.00">_peer_process_credentials</text>
</a>
</g>
</g>
<!-- Node1&#45;&gt;Node17 -->
<g id="edge16" class="edge">
<title>Node1&#45;&gt;Node17</title>
<path fill="none" stroke="midnightblue" d="M526.97,-358.7C510.51,-340.75 484.72,-315.17 458,-298.5 452.44,-295.03 446.36,-291.89 440.18,-289.07"/>
<polygon fill="midnightblue" stroke="midnightblue" points="524.56,-361.25 533.85,-366.35 529.76,-356.57 524.56,-361.25"/>
</g>
<!-- Node18 -->
<g id="node18" class="node">
<title>Node18</title>
<g id="a_node18"><a xlink:href="classipc_1_1transport_1_1Native__socket__stream.html#a415febd76ee222c81d59d2bcfa9c01bc" target="_top" xlink:title="Implements Blob_sender API per contract.">
<polygon fill="white" stroke="black" points="322.5,-208.5 322.5,-234.5 450.5,-234.5 450.5,-208.5 322.5,-208.5"/>
<text text-anchor="start" x="330.5" y="-224.1" font-family="Helvetica,sans-Serif" font-size="8.00">ipc::transport::Native</text>
<text text-anchor="middle" x="386.5" y="-215.1" font-family="Helvetica,sans-Serif" font-size="8.00">_socket_stream::send_blob</text>
</a>
</g>
</g>
<!-- Node1&#45;&gt;Node18 -->
<g id="edge17" class="edge">
<title>Node1&#45;&gt;Node18</title>
<path fill="none" stroke="midnightblue" d="M536.06,-356.62C523.21,-326.64 496.71,-274.35 458,-244.5 452.9,-240.57 447.11,-237.3 441.08,-234.57"/>
<polygon fill="midnightblue" stroke="midnightblue" points="532.98,-358.33 540.04,-366.23 539.44,-355.65 532.98,-358.33"/>
</g>
<!-- Node19 -->
<g id="node19" class="node">
<title>Node19</title>
<g id="a_node19"><a xlink:href="classipc_1_1transport_1_1Native__socket__stream.html#a127a462a4aaf6e5cf1e42bdd33f51693" target="_top" xlink:title="Implements Blob_sender API per contract.">
<polygon fill="white" stroke="black" points="322.5,-154 322.5,-189 450.5,-189 450.5,-154 322.5,-154"/>
<text text-anchor="start" x="330.5" y="-178.6" font-family="Helvetica,sans-Serif" font-size="8.00">ipc::transport::Native</text>
<text text-anchor="start" x="330.5" y="-169.6" font-family="Helvetica,sans-Serif" font-size="8.00">_socket_stream::send_blob</text>
<text text-anchor="middle" x="386.5" y="-160.6" font-family="Helvetica,sans-Serif" font-size="8.00">_max_size</text>
</a>
</g>
</g>
<!-- Node1&#45;&gt;Node19 -->
<g id="edge18" class="edge">
<title>Node1&#45;&gt;Node19</title>
<path fill="none" stroke="midnightblue" d="M539.69,-355.95C529.93,-317.81 505.62,-242.35 458,-198.5 454.14,-194.95 449.77,-191.85 445.14,-189.14"/>
<polygon fill="midnightblue" stroke="midnightblue" points="536.39,-357.21 542.17,-366.09 543.2,-355.55 536.39,-357.21"/>
</g>
<!-- Node21 -->
<g id="node21" class="node">
<title>Node21</title>
<g id="a_node21"><a xlink:href="classipc_1_1transport_1_1Native__socket__stream.html#a844b8245c9341da8006f979c6b005893" target="_top" xlink:title="Implements Native_handle_sender API per contract.">
<polygon fill="white" stroke="black" points="321,-100 321,-135 452,-135 452,-100 321,-100"/>
<text text-anchor="start" x="329" y="-124.6" font-family="Helvetica,sans-Serif" font-size="8.00">ipc::transport::Native</text>
<text text-anchor="start" x="329" y="-115.6" font-family="Helvetica,sans-Serif" font-size="8.00">_socket_stream::send_meta</text>
<text text-anchor="middle" x="386.5" y="-106.6" font-family="Helvetica,sans-Serif" font-size="8.00">_blob_max_size</text>
</a>
</g>
</g>
<!-- Node1&#45;&gt;Node21 -->
<g id="edge20" class="edge">
<title>Node1&#45;&gt;Node21</title>
<path fill="none" stroke="midnightblue" d="M542.73,-356.35C536.97,-309.96 517.75,-204.93 458,-144.5 454.5,-140.96 450.48,-137.87 446.18,-135.19"/>
<polygon fill="midnightblue" stroke="midnightblue" points="539.25,-356.78 543.86,-366.32 546.21,-355.99 539.25,-356.78"/>
</g>
<!-- Node22 -->
<g id="node22" class="node">
<title>Node22</title>
<g id="a_node22"><a xlink:href="classipc_1_1transport_1_1Native__socket__stream.html#a555df6a81654160285ea35b545cfd23d" target="_top" xlink:title="Implements Native_handle_sender API per contract.">
<polygon fill="white" stroke="black" points="319,-46 319,-81 454,-81 454,-46 319,-46"/>
<text text-anchor="start" x="327" y="-70.6" font-family="Helvetica,sans-Serif" font-size="8.00">ipc::transport::Native</text>
<text text-anchor="start" x="327" y="-61.6" font-family="Helvetica,sans-Serif" font-size="8.00">_socket_stream::send_native</text>
<text text-anchor="middle" x="386.5" y="-52.6" font-family="Helvetica,sans-Serif" font-size="8.00">_handle</text>
</a>
</g>
</g>
<!-- Node1&#45;&gt;Node22 -->
<g id="edge21" class="edge">
<title>Node1&#45;&gt;Node22</title>
<path fill="none" stroke="midnightblue" d="M544.61,-356.05C542.46,-302.06 529.76,-167.73 458,-90.5 454.7,-86.95 450.88,-83.86 446.76,-81.17"/>
<polygon fill="midnightblue" stroke="midnightblue" points="541.12,-356.41 544.93,-366.3 548.12,-356.2 541.12,-356.41"/>
</g>
<!-- Node23 -->
<g id="node23" class="node">
<title>Node23</title>
<g id="a_node23"><a xlink:href="classipc_1_1transport_1_1Native__socket__stream.html#a89d591db714e83dcb55a52738fed1ebb" target="_top" xlink:title="To be invoked in NULL state only, it synchronously and non&#45;blockingly attempts to connect to an oppos...">
<polygon fill="white" stroke="black" points="316,-0.5 316,-26.5 457,-26.5 457,-0.5 316,-0.5"/>
<text text-anchor="start" x="324" y="-16.1" font-family="Helvetica,sans-Serif" font-size="8.00">ipc::transport::Native</text>
<text text-anchor="middle" x="386.5" y="-7.1" font-family="Helvetica,sans-Serif" font-size="8.00">_socket_stream::sync_connect</text>
</a>
</g>
</g>
<!-- Node1&#45;&gt;Node23 -->
<g id="edge22" class="edge">
<title>Node1&#45;&gt;Node23</title>
<path fill="none" stroke="midnightblue" d="M542.02,-356.06C532.74,-286.62 502.32,-83.89 458,-36.5 454.31,-32.55 449.93,-29.28 445.19,-26.57"/>
<polygon fill="midnightblue" stroke="midnightblue" points="538.6,-356.9 543.37,-366.36 545.54,-355.99 538.6,-356.9"/>
</g>
<!-- Node3 -->
<g id="node3" class="node">
<title>Node3</title>
<g id="a_node3"><a xlink:href="classipc_1_1transport_1_1Native__socket__stream.html#ac3cd00ddd2e0502677630320708277a3" target="_top" xlink:title="Implements Native_handle_sender, Blob_sender API per contract.">
<polygon fill="white" stroke="black" points="157,-705 157,-740 267,-740 267,-705 157,-705"/>
<text text-anchor="start" x="165" y="-729.6" font-family="Helvetica,sans-Serif" font-size="8.00">ipc::transport::Native</text>
<text text-anchor="start" x="165" y="-720.6" font-family="Helvetica,sans-Serif" font-size="8.00">_socket_stream::async</text>
<text text-anchor="middle" x="212" y="-711.6" font-family="Helvetica,sans-Serif" font-size="8.00">_end_sending</text>
</a>
</g>
</g>
<!-- Node2&#45;&gt;Node3 -->
<g id="edge2" class="edge">
<title>Node2&#45;&gt;Node3</title>
<path fill="none" stroke="midnightblue" d="M321.12,-722.5C303.38,-722.5 284.32,-722.5 267.21,-722.5"/>
<polygon fill="midnightblue" stroke="midnightblue" points="321.39,-726 331.39,-722.5 321.39,-719 321.39,-726"/>
</g>
<!-- Node4 -->
<g id="node4" class="node">
<title>Node4</title>
<g id="a_node4"><a xlink:href="classipc_1_1transport_1_1Native__socket__stream_1_1Impl.html#a39c3a466e4f61e20dfaa8d9b66266f61" target="_top" xlink:title="See Native_socket_stream counterpart.">
<polygon fill="white" stroke="black" points="0,-705 0,-740 109,-740 109,-705 0,-705"/>
<text text-anchor="start" x="8" y="-729.6" font-family="Helvetica,sans-Serif" font-size="8.00">ipc::transport::Native</text>
<text text-anchor="start" x="8" y="-720.6" font-family="Helvetica,sans-Serif" font-size="8.00">_socket_stream::Impl::</text>
<text text-anchor="middle" x="54.5" y="-711.6" font-family="Helvetica,sans-Serif" font-size="8.00">end_sending</text>
</a>
</g>
</g>
<!-- Node3&#45;&gt;Node4 -->
<g id="edge3" class="edge">
<title>Node3&#45;&gt;Node4</title>
<path fill="none" stroke="midnightblue" d="M146.33,-722.5C133.93,-722.5 121.07,-722.5 109.07,-722.5"/>
<polygon fill="midnightblue" stroke="midnightblue" points="146.61,-726 156.61,-722.5 146.61,-719 146.61,-726"/>
</g>
<!-- Node6 -->
<g id="node6" class="node">
<title>Node6</title>
<g id="a_node6"><a xlink:href="classipc_1_1transport_1_1Native__socket__stream.html#ac5572c8165e25f106f18d327c07d1c3f" target="_top" xlink:title="Implements Blob_receiver API per contract.">
<polygon fill="white" stroke="black" points="157,-651 157,-686 267,-686 267,-651 157,-651"/>
<text text-anchor="start" x="165" y="-675.6" font-family="Helvetica,sans-Serif" font-size="8.00">ipc::transport::Native</text>
<text text-anchor="start" x="165" y="-666.6" font-family="Helvetica,sans-Serif" font-size="8.00">_socket_stream::async</text>
<text text-anchor="middle" x="212" y="-657.6" font-family="Helvetica,sans-Serif" font-size="8.00">_receive_blob</text>
</a>
</g>
</g>
<!-- Node5&#45;&gt;Node6 -->
<g id="edge5" class="edge">
<title>Node5&#45;&gt;Node6</title>
<path fill="none" stroke="midnightblue" d="M321.12,-668.5C303.38,-668.5 284.32,-668.5 267.21,-668.5"/>
<polygon fill="midnightblue" stroke="midnightblue" points="321.39,-672 331.39,-668.5 321.39,-665 321.39,-672"/>
</g>
<!-- Node8 -->
<g id="node8" class="node">
<title>Node8</title>
<g id="a_node8"><a xlink:href="classipc_1_1transport_1_1Native__socket__stream.html#a266b52821557f2a4fa8f81058290dee2" target="_top" xlink:title="Implements Native_handle_receiver API per contract.">
<polygon fill="white" stroke="black" points="156,-597 156,-632 268,-632 268,-597 156,-597"/>
<text text-anchor="start" x="164" y="-621.6" font-family="Helvetica,sans-Serif" font-size="8.00">ipc::transport::Native</text>
<text text-anchor="start" x="164" y="-612.6" font-family="Helvetica,sans-Serif" font-size="8.00">_socket_stream::async</text>
<text text-anchor="middle" x="212" y="-603.6" font-family="Helvetica,sans-Serif" font-size="8.00">_receive_native_handle</text>
</a>
</g>
</g>
<!-- Node7&#45;&gt;Node8 -->
<g id="edge7" class="edge">
<title>Node7&#45;&gt;Node8</title>
<path fill="none" stroke="midnightblue" d="M310.52,-614.5C296.3,-614.5 281.67,-614.5 268.2,-614.5"/>
<polygon fill="midnightblue" stroke="midnightblue" points="310.78,-618 320.78,-614.5 310.78,-611 310.78,-618"/>
</g>
<!-- Node13 -->
<g id="node13" class="node">
<title>Node13</title>
<g id="a_node13"><a xlink:href="classipc_1_1transport_1_1Native__socket__stream_1_1Impl.html#a0bc4f6f4dfa20d1c1902f1da85f637b3" target="_top" xlink:title="See Native_socket_stream counterpart.">
<polygon fill="white" stroke="black" points="145.5,-416.5 145.5,-442.5 278.5,-442.5 278.5,-416.5 145.5,-416.5"/>
<text text-anchor="start" x="153.5" y="-432.1" font-family="Helvetica,sans-Serif" font-size="8.00">ipc::transport::Native</text>
<text text-anchor="middle" x="212" y="-423.1" font-family="Helvetica,sans-Serif" font-size="8.00">_socket_stream::Impl::~Impl</text>
</a>
</g>
</g>
<!-- Node12&#45;&gt;Node13 -->
<g id="edge12" class="edge">
<title>Node12&#45;&gt;Node13</title>
<path fill="none" stroke="midnightblue" d="M313.65,-429.5C302.08,-429.5 290.15,-429.5 278.73,-429.5"/>
<polygon fill="midnightblue" stroke="midnightblue" points="313.71,-433 323.71,-429.5 313.71,-426 313.71,-433"/>
</g>
<!-- Node15 -->
<g id="node15" class="node">
<title>Node15</title>
<g id="a_node15"><a xlink:href="classipc_1_1transport_1_1Native__socket__stream_1_1Impl.html#ae599fae31c48348f10341c6c70e343e7" target="_top" xlink:title="See Native_socket_stream counterpart.">
<polygon fill="white" stroke="black" points="145,-362 145,-397 279,-397 279,-362 145,-362"/>
<text text-anchor="start" x="153" y="-386.6" font-family="Helvetica,sans-Serif" font-size="8.00">ipc::transport::Native</text>
<text text-anchor="start" x="153" y="-377.6" font-family="Helvetica,sans-Serif" font-size="8.00">_socket_stream::Impl::</text>
<text text-anchor="middle" x="212" y="-368.6" font-family="Helvetica,sans-Serif" font-size="8.00">receive_meta_blob_max_size</text>
</a>
</g>
</g>
<!-- Node14&#45;&gt;Node15 -->
<g id="edge14" class="edge">
<title>Node14&#45;&gt;Node15</title>
<path fill="none" stroke="midnightblue" d="M317.97,-379.5C305.2,-379.5 291.86,-379.5 279.14,-379.5"/>
<polygon fill="midnightblue" stroke="midnightblue" points="318.06,-383 328.06,-379.5 318.06,-376 318.06,-383"/>
</g>
<!-- Node20 -->
<g id="node20" class="node">
<title>Node20</title>
<g id="a_node20"><a xlink:href="classipc_1_1transport_1_1Native__socket__stream_1_1Impl.html#a356082fb50487830a83301cf12836ede" target="_top" xlink:title="See Native_socket_stream counterpart.">
<polygon fill="white" stroke="black" points="149.5,-154 149.5,-189 274.5,-189 274.5,-154 149.5,-154"/>
<text text-anchor="start" x="157.5" y="-178.6" font-family="Helvetica,sans-Serif" font-size="8.00">ipc::transport::Native</text>
<text text-anchor="start" x="157.5" y="-169.6" font-family="Helvetica,sans-Serif" font-size="8.00">_socket_stream::Impl::</text>
<text text-anchor="middle" x="212" y="-160.6" font-family="Helvetica,sans-Serif" font-size="8.00">send_meta_blob_max_size</text>
</a>
</g>
</g>
<!-- Node19&#45;&gt;Node20 -->
<g id="edge19" class="edge">
<title>Node19&#45;&gt;Node20</title>
<path fill="none" stroke="midnightblue" d="M311.89,-171.5C299.44,-171.5 286.62,-171.5 274.52,-171.5"/>
<polygon fill="midnightblue" stroke="midnightblue" points="312.25,-175 322.25,-171.5 312.25,-168 312.25,-175"/>
</g>
</g>
</svg>
