<?xml version="1.0" encoding="UTF-8" standalone="no"?>
<!DOCTYPE svg PUBLIC "-//W3C//DTD SVG 1.1//EN"
 "http://www.w3.org/Graphics/SVG/1.1/DTD/svg11.dtd">
<!-- Generated by graphviz version 2.43.0 (0)
 -->
<!-- Title: ipc::transport::sync_io::Native_socket_stream::Impl Pages: 1 -->
<svg width="947pt" height="1223pt"
 viewBox="0.00 0.00 947.00 1223.29" xmlns="http://www.w3.org/2000/svg" xmlns:xlink="http://www.w3.org/1999/xlink">
<g id="graph0" class="graph" transform="scale(1 1) rotate(0) translate(4 1219.29)">
<title>ipc::transport::sync_io::Native_socket_stream::Impl</title>
<polygon fill="white" stroke="transparent" points="-4,4 -4,-1219.29 943,-1219.29 943,4 -4,4"/>
<!-- Node1 -->
<g id="node1" class="node">
<title>Node1</title>
<g id="a_node1"><a xlink:title="Internal, non&#45;movable pImpl implementation of sync_io::Native_socket_stream class.">
<polygon fill="#bfbfbf" stroke="black" points="793,-530.95 793,-556.95 939,-556.95 939,-530.95 793,-530.95"/>
<text text-anchor="start" x="801" y="-546.55" font-family="Helvetica,sans-Serif" font-size="8.00">ipc::transport::sync</text>
<text text-anchor="middle" x="866" y="-537.55" font-family="Helvetica,sans-Serif" font-size="8.00">_io::Native_socket_stream::Impl</text>
</a>
</g>
</g>
<!-- Node2 -->
<g id="node2" class="node">
<title>Node2</title>
<g id="a_node2"><a xlink:title=" ">
<polygon fill="white" stroke="#bfbfbf" points="206,-1000.45 206,-1017.45 313,-1017.45 313,-1000.45 206,-1000.45"/>
<text text-anchor="middle" x="259.5" y="-1007.05" font-family="Helvetica,sans-Serif" font-size="8.00">flow::log::Log_context</text>
</a>
</g>
</g>
<!-- Node2&#45;&gt;Node1 -->
<g id="edge1" class="edge">
<title>Node2&#45;&gt;Node1</title>
<path fill="none" stroke="midnightblue" d="M310.52,-1019.28C413.67,-1037.35 650.71,-1061.68 775,-934.95 829.87,-879 857.81,-619.36 863.77,-557.3"/>
<polygon fill="midnightblue" stroke="midnightblue" points="311.14,-1015.83 300.67,-1017.5 309.89,-1022.72 311.14,-1015.83"/>
</g>
<!-- Node9 -->
<g id="node9" class="node">
<title>Node9</title>
<g id="a_node9"><a xlink:href="classipc_1_1transport_1_1Protocol__negotiator.html" target="_top" xlink:title="A simple state machine that, assuming the opposide side of a comm pathway uses an equivalent state ma...">
<polygon fill="white" stroke="black" points="505.5,-867.95 505.5,-893.95 616.5,-893.95 616.5,-867.95 505.5,-867.95"/>
<text text-anchor="start" x="513.5" y="-883.55" font-family="Helvetica,sans-Serif" font-size="8.00">ipc::transport::Protocol</text>
<text text-anchor="middle" x="561" y="-874.55" font-family="Helvetica,sans-Serif" font-size="8.00">_negotiator</text>
</a>
</g>
</g>
<!-- Node2&#45;&gt;Node9 -->
<g id="edge9" class="edge">
<title>Node2&#45;&gt;Node9</title>
<path fill="none" stroke="midnightblue" d="M323.39,-1010.33C375.17,-1010.13 443.31,-1006.35 464,-988.95 486.94,-969.65 463.42,-947.47 482,-923.95 492.45,-910.72 508.14,-900.96 522.71,-894.12"/>
<polygon fill="midnightblue" stroke="midnightblue" points="323.28,-1006.83 313.28,-1010.32 323.27,-1013.83 323.28,-1006.83"/>
</g>
<!-- Node18 -->
<g id="node18" class="node">
<title>Node18</title>
<g id="a_node18"><a xlink:href="classipc_1_1util_1_1sync__io_1_1Timer__event__emitter.html" target="_top" xlink:title="An object of this type, used internally to implement sync_io&#45;pattern objects that require timer event...">
<polygon fill="white" stroke="black" points="508.5,-1072.95 508.5,-1098.95 613.5,-1098.95 613.5,-1072.95 508.5,-1072.95"/>
<text text-anchor="start" x="516.5" y="-1088.55" font-family="Helvetica,sans-Serif" font-size="8.00">ipc::util::sync_io</text>
<text text-anchor="middle" x="561" y="-1079.55" font-family="Helvetica,sans-Serif" font-size="8.00">::Timer_event_emitter</text>
</a>
</g>
</g>
<!-- Node2&#45;&gt;Node18 -->
<g id="edge20" class="edge">
<title>Node2&#45;&gt;Node18</title>
<path fill="none" stroke="midnightblue" d="M307.88,-1020.5C314.74,-1022.68 321.63,-1025.17 328,-1027.95 336.59,-1031.7 337.3,-1035.45 346,-1038.95 360.95,-1044.96 449.92,-1063.62 508.34,-1075.54"/>
<polygon fill="midnightblue" stroke="midnightblue" points="308.51,-1017.03 297.92,-1017.52 306.5,-1023.74 308.51,-1017.03"/>
</g>
<!-- Node3 -->
<g id="node3" class="node">
<title>Node3</title>
<g id="a_node3"><a xlink:title=" ">
<polygon fill="white" stroke="#bfbfbf" points="210,-1190.45 210,-1207.45 309,-1207.45 309,-1190.45 210,-1190.45"/>
<text text-anchor="middle" x="259.5" y="-1197.05" font-family="Helvetica,sans-Serif" font-size="8.00">boost::noncopyable</text>
</a>
</g>
</g>
<!-- Node3&#45;&gt;Node1 -->
<g id="edge2" class="edge">
<title>Node3&#45;&gt;Node1</title>
<path fill="none" stroke="#8b1a1a" d="M319.29,-1207.99C427.6,-1220.93 658.22,-1230.5 775,-1100.95 850.42,-1017.28 862.97,-634.35 864.74,-557.43"/>
<polygon fill="#8b1a1a" stroke="#8b1a1a" points="319.56,-1204.49 309.2,-1206.73 318.69,-1211.44 319.56,-1204.49"/>
</g>
<!-- Node3&#45;&gt;Node18 -->
<g id="edge21" class="edge">
<title>Node3&#45;&gt;Node18</title>
<path fill="none" stroke="#8b1a1a" d="M319.29,-1190.78C369.91,-1183.18 438.68,-1171.35 464,-1159.95 497.39,-1144.92 529.74,-1116.13 547.04,-1099.24"/>
<polygon fill="#8b1a1a" stroke="#8b1a1a" points="318.48,-1187.36 309.1,-1192.29 319.51,-1194.28 318.48,-1187.36"/>
</g>
<!-- Node4 -->
<g id="node4" class="node">
<title>Node4</title>
<g id="a_node4"><a xlink:title=" ">
<polygon fill="white" stroke="#bfbfbf" points="541,-786.45 541,-803.45 581,-803.45 581,-786.45 541,-786.45"/>
<text text-anchor="middle" x="561" y="-793.05" font-family="Helvetica,sans-Serif" font-size="8.00">size_t</text>
</a>
</g>
</g>
<!-- Node4&#45;&gt;Node1 -->
<g id="edge3" class="edge">
<title>Node4&#45;&gt;Node1</title>
<path fill="none" stroke="#9a32cd" stroke-dasharray="5,2" d="M591.27,-800.53C635.79,-807.27 721.02,-813.08 775,-771.95 846.76,-717.26 861.39,-596.79 864.3,-556.99"/>
<polygon fill="#9a32cd" stroke="#9a32cd" points="591.57,-797.03 581.13,-798.87 590.44,-803.94 591.57,-797.03"/>
<text text-anchor="middle" x="716.5" y="-807.55" font-family="Helvetica,sans-Serif" font-size="8.00"> S_MAX_META_BLOB_LENGTH</text>
</g>
<!-- Node5 -->
<g id="node5" class="node">
<title>Node5</title>
<g id="a_node5"><a xlink:title=" ">
<polygon fill="white" stroke="#bfbfbf" points="505,-740.95 505,-766.95 617,-766.95 617,-740.95 505,-740.95"/>
<text text-anchor="start" x="513" y="-756.55" font-family="Helvetica,sans-Serif" font-size="8.00">static const low_lvl</text>
<text text-anchor="middle" x="561" y="-747.55" font-family="Helvetica,sans-Serif" font-size="8.00">_payload_blob_length_t</text>
</a>
</g>
</g>
<!-- Node5&#45;&gt;Node1 -->
<g id="edge4" class="edge">
<title>Node5&#45;&gt;Node1</title>
<path fill="none" stroke="#9a32cd" stroke-dasharray="5,2" d="M627.28,-752.36C681,-749.86 751.91,-743.43 775,-726.95 834.36,-684.58 856.47,-591.9 862.84,-557.32"/>
<polygon fill="#9a32cd" stroke="#9a32cd" points="626.96,-748.87 617.12,-752.8 627.27,-755.86 626.96,-748.87"/>
<text text-anchor="start" x="669" y="-761.55" font-family="Helvetica,sans-Serif" font-size="8.00"> S_META_BLOB_LENGTH</text>
<text text-anchor="middle" x="716.5" y="-752.55" font-family="Helvetica,sans-Serif" font-size="8.00">_PING_SENTINEL</text>
</g>
<!-- Node6 -->
<g id="node6" class="node">
<title>Node6</title>
<g id="a_node6"><a xlink:title=" ">
<polygon fill="white" stroke="black" points="230,-937.45 230,-954.45 289,-954.45 289,-937.45 230,-937.45"/>
<text text-anchor="middle" x="259.5" y="-944.05" font-family="Helvetica,sans-Serif" font-size="8.00">std::string</text>
</a>
</g>
</g>
<!-- Node6&#45;&gt;Node1 -->
<g id="edge5" class="edge">
<title>Node6&#45;&gt;Node1</title>
<path fill="none" stroke="#9a32cd" stroke-dasharray="5,2" d="M299.28,-948.32C406.55,-954.02 703.98,-963.88 775,-902.95 829.62,-856.09 857.56,-616.37 863.69,-557.18"/>
<polygon fill="#9a32cd" stroke="#9a32cd" points="299.39,-944.82 289.21,-947.76 299.01,-951.81 299.39,-944.82"/>
<text text-anchor="middle" x="561" y="-954.55" font-family="Helvetica,sans-Serif" font-size="8.00"> m_nickname</text>
</g>
<!-- Node6&#45;&gt;Node9 -->
<g id="edge11" class="edge">
<title>Node6&#45;&gt;Node9</title>
<path fill="none" stroke="#9a32cd" stroke-dasharray="5,2" d="M299.01,-934.97C313.66,-930.96 330.55,-926.53 346,-922.95 398.05,-910.89 411.57,-910.25 464,-899.95 477.42,-897.31 491.89,-894.46 505.43,-891.78"/>
<polygon fill="#9a32cd" stroke="#9a32cd" points="297.97,-931.63 289.26,-937.67 299.83,-938.38 297.97,-931.63"/>
<text text-anchor="middle" x="405" y="-925.55" font-family="Helvetica,sans-Serif" font-size="8.00"> m_nickname</text>
</g>
<!-- Node6&#45;&gt;Node18 -->
<g id="edge22" class="edge">
<title>Node6&#45;&gt;Node18</title>
<path fill="none" stroke="#9a32cd" stroke-dasharray="5,2" d="M296.16,-957.72C337.47,-971.87 407.15,-997.32 464,-1025.95 492.09,-1040.09 522.56,-1060 541.47,-1072.93"/>
<polygon fill="#9a32cd" stroke="#9a32cd" points="297.13,-954.36 286.54,-954.46 294.88,-960.98 297.13,-954.36"/>
<text text-anchor="middle" x="405" y="-1028.55" font-family="Helvetica,sans-Serif" font-size="8.00"> m_nickname</text>
</g>
<!-- Node7 -->
<g id="node7" class="node">
<title>Node7</title>
<g id="a_node7"><a xlink:title=" ">
<polygon fill="white" stroke="black" points="11.5,-932.95 11.5,-958.95 102.5,-958.95 102.5,-932.95 11.5,-932.95"/>
<text text-anchor="start" x="19.5" y="-948.55" font-family="Helvetica,sans-Serif" font-size="8.00">std::basic_string&lt;</text>
<text text-anchor="middle" x="57" y="-939.55" font-family="Helvetica,sans-Serif" font-size="8.00"> Char &gt;</text>
</a>
</g>
</g>
<!-- Node7&#45;&gt;Node6 -->
<g id="edge6" class="edge">
<title>Node7&#45;&gt;Node6</title>
<path fill="none" stroke="midnightblue" d="M113.11,-945.95C150.96,-945.95 199.66,-945.95 229.98,-945.95"/>
<polygon fill="midnightblue" stroke="midnightblue" points="112.75,-942.45 102.75,-945.95 112.75,-949.45 112.75,-942.45"/>
</g>
<!-- Node8 -->
<g id="node8" class="node">
<title>Node8</title>
<g id="a_node8"><a xlink:title=" ">
<polygon fill="white" stroke="#bfbfbf" points="542,-704.45 542,-721.45 580,-721.45 580,-704.45 542,-704.45"/>
<text text-anchor="middle" x="561" y="-711.05" font-family="Helvetica,sans-Serif" font-size="8.00">State</text>
</a>
</g>
</g>
<!-- Node8&#45;&gt;Node1 -->
<g id="edge7" class="edge">
<title>Node8&#45;&gt;Node1</title>
<path fill="none" stroke="#9a32cd" stroke-dasharray="5,2" d="M590.42,-714C641.18,-715.36 744.94,-715.67 775,-696.95 827.84,-664.04 853.33,-587.8 861.73,-557.11"/>
<polygon fill="#9a32cd" stroke="#9a32cd" points="590.25,-710.49 580.15,-713.69 590.04,-717.49 590.25,-710.49"/>
<text text-anchor="middle" x="716.5" y="-716.55" font-family="Helvetica,sans-Serif" font-size="8.00"> m_state</text>
</g>
<!-- Node9&#45;&gt;Node1 -->
<g id="edge8" class="edge">
<title>Node9&#45;&gt;Node1</title>
<path fill="none" stroke="#9a32cd" stroke-dasharray="5,2" d="M626.63,-890.08C673.16,-892.92 734.61,-888.47 775,-853.95 822.18,-813.63 855.09,-611 863.11,-557.12"/>
<polygon fill="#9a32cd" stroke="#9a32cd" points="626.87,-886.59 616.64,-889.35 626.36,-893.57 626.87,-886.59"/>
<text text-anchor="middle" x="716.5" y="-892.55" font-family="Helvetica,sans-Serif" font-size="8.00"> m_protocol_negotiator</text>
</g>
<!-- Node10 -->
<g id="node10" class="node">
<title>Node10</title>
<g id="a_node10"><a xlink:title=" ">
<polygon fill="white" stroke="#bfbfbf" points="207,-867.95 207,-893.95 312,-893.95 312,-867.95 207,-867.95"/>
<text text-anchor="start" x="215" y="-883.55" font-family="Helvetica,sans-Serif" font-size="8.00">static constexpr proto</text>
<text text-anchor="middle" x="259.5" y="-874.55" font-family="Helvetica,sans-Serif" font-size="8.00">_ver_t</text>
</a>
</g>
</g>
<!-- Node10&#45;&gt;Node9 -->
<g id="edge10" class="edge">
<title>Node10&#45;&gt;Node9</title>
<path fill="none" stroke="#9a32cd" stroke-dasharray="5,2" d="M322.44,-880.95C376.31,-880.95 453.63,-880.95 505.26,-880.95"/>
<polygon fill="#9a32cd" stroke="#9a32cd" points="322.33,-877.45 312.33,-880.95 322.33,-884.45 322.33,-877.45"/>
<text text-anchor="middle" x="405" y="-892.55" font-family="Helvetica,sans-Serif" font-size="8.00"> S_VER_UNKNOWN</text>
<text text-anchor="middle" x="405" y="-883.55" font-family="Helvetica,sans-Serif" font-size="8.00">S_VER_UNSUPPORTED</text>
</g>
<!-- Node11 -->
<g id="node11" class="node">
<title>Node11</title>
<g id="a_node11"><a xlink:title=" ">
<polygon fill="white" stroke="#bfbfbf" points="237.5,-822.45 237.5,-839.45 281.5,-839.45 281.5,-822.45 237.5,-822.45"/>
<text text-anchor="middle" x="259.5" y="-829.05" font-family="Helvetica,sans-Serif" font-size="8.00">int16_t</text>
</a>
</g>
</g>
<!-- Node11&#45;&gt;Node9 -->
<g id="edge12" class="edge">
<title>Node11&#45;&gt;Node9</title>
<path fill="none" stroke="#9a32cd" stroke-dasharray="5,2" d="M291.75,-831.74C331.97,-833.25 403.83,-837.58 464,-849.95 484.93,-854.25 507.71,-861.49 525.83,-867.9"/>
<polygon fill="#9a32cd" stroke="#9a32cd" points="291.64,-828.24 281.52,-831.4 291.4,-835.23 291.64,-828.24"/>
<text text-anchor="middle" x="405" y="-870.55" font-family="Helvetica,sans-Serif" font-size="8.00"> m_local_max_proto_ver</text>
<text text-anchor="middle" x="405" y="-861.55" font-family="Helvetica,sans-Serif" font-size="8.00">m_local_min_proto_ver</text>
<text text-anchor="middle" x="405" y="-852.55" font-family="Helvetica,sans-Serif" font-size="8.00">m_negotiated_proto_ver</text>
</g>
<!-- Node12 -->
<g id="node12" class="node">
<title>Node12</title>
<g id="a_node12"><a xlink:title=" ">
<polygon fill="white" stroke="#bfbfbf" points="242,-772.45 242,-789.45 277,-789.45 277,-772.45 242,-772.45"/>
<text text-anchor="middle" x="259.5" y="-779.05" font-family="Helvetica,sans-Serif" font-size="8.00">bool</text>
</a>
</g>
</g>
<!-- Node12&#45;&gt;Node1 -->
<g id="edge33" class="edge">
<title>Node12&#45;&gt;Node1</title>
<path fill="none" stroke="#9a32cd" stroke-dasharray="5,2" d="M286.79,-772.79C327.84,-761.72 408.24,-746.85 464,-779.95 478.37,-788.48 467.76,-804.22 482,-812.95 537.52,-846.98 722.26,-856.14 775,-817.95 862.8,-754.37 866.46,-602.36 865.5,-556.96"/>
<polygon fill="#9a32cd" stroke="#9a32cd" points="285.67,-769.47 277.01,-775.57 287.58,-776.21 285.67,-769.47"/>
<text text-anchor="middle" x="561" y="-844.55" font-family="Helvetica,sans-Serif" font-size="8.00"> m_snd_finished</text>
</g>
<!-- Node12&#45;&gt;Node9 -->
<g id="edge13" class="edge">
<title>Node12&#45;&gt;Node9</title>
<path fill="none" stroke="#9a32cd" stroke-dasharray="5,2" d="M287.22,-779.68C328.91,-779.06 410.22,-783.41 464,-821.95 476.95,-831.23 469.76,-842.75 482,-852.95 489.41,-859.12 498.28,-863.98 507.34,-867.79"/>
<polygon fill="#9a32cd" stroke="#9a32cd" points="286.95,-776.19 277.04,-779.95 287.13,-783.19 286.95,-776.19"/>
<text text-anchor="middle" x="405" y="-824.55" font-family="Helvetica,sans-Serif" font-size="8.00"> m_local_max_proto_ver_sent</text>
</g>
<!-- Node13 -->
<g id="node13" class="node">
<title>Node13</title>
<g id="a_node13"><a xlink:title=" ">
<polygon fill="white" stroke="#bfbfbf" points="527.5,-668.45 527.5,-685.45 594.5,-685.45 594.5,-668.45 527.5,-668.45"/>
<text text-anchor="middle" x="561" y="-675.05" font-family="Helvetica,sans-Serif" font-size="8.00">Task_engine</text>
</a>
</g>
</g>
<!-- Node13&#45;&gt;Node1 -->
<g id="edge14" class="edge">
<title>Node13&#45;&gt;Node1</title>
<path fill="none" stroke="#9a32cd" stroke-dasharray="5,2" d="M604.46,-672.57C662.28,-666.37 760.32,-654.9 775,-646.95 814.47,-625.58 844.71,-579.62 857.84,-557.03"/>
<polygon fill="#9a32cd" stroke="#9a32cd" points="604.08,-669.09 594.5,-673.63 604.82,-676.06 604.08,-669.09"/>
<text text-anchor="start" x="667" y="-686.55" font-family="Helvetica,sans-Serif" font-size="8.00"> m_ev_hndl_task_engine</text>
<text text-anchor="middle" x="716.5" y="-677.55" font-family="Helvetica,sans-Serif" font-size="8.00">_unused</text>
<text text-anchor="middle" x="716.5" y="-668.55" font-family="Helvetica,sans-Serif" font-size="8.00">m_nb_task_engine</text>
</g>
<!-- Node14 -->
<g id="node14" class="node">
<title>Node14</title>
<g id="a_node14"><a xlink:title=" ">
<polygon fill="white" stroke="#bfbfbf" points="489.5,-622.95 489.5,-648.95 632.5,-648.95 632.5,-622.95 489.5,-622.95"/>
<text text-anchor="start" x="497.5" y="-638.55" font-family="Helvetica,sans-Serif" font-size="8.00">unique_ptr&lt; asio_local</text>
<text text-anchor="middle" x="561" y="-629.55" font-family="Helvetica,sans-Serif" font-size="8.00">_stream_socket::Peer_socket &gt;</text>
</a>
</g>
</g>
<!-- Node14&#45;&gt;Node1 -->
<g id="edge15" class="edge">
<title>Node14&#45;&gt;Node1</title>
<path fill="none" stroke="#9a32cd" stroke-dasharray="5,2" d="M643.14,-638.59C684,-637.3 733.54,-631.66 775,-614.95 807.12,-602 837.15,-573.86 853.1,-557.15"/>
<polygon fill="#9a32cd" stroke="#9a32cd" points="642.87,-635.09 632.95,-638.82 643.03,-642.09 642.87,-635.09"/>
<text text-anchor="middle" x="716.5" y="-639.55" font-family="Helvetica,sans-Serif" font-size="8.00"> m_peer_socket</text>
</g>
<!-- Node15 -->
<g id="node15" class="node">
<title>Node15</title>
<g id="a_node15"><a xlink:href="classipc_1_1util_1_1sync__io_1_1Asio__waitable__native__handle.html" target="_top" xlink:title="Useful if using the sync_io pattern within a user event loop built on boost.asio (optionally with flo...">
<polygon fill="white" stroke="black" points="507,-568.45 507,-603.45 615,-603.45 615,-568.45 507,-568.45"/>
<text text-anchor="start" x="515" y="-593.05" font-family="Helvetica,sans-Serif" font-size="8.00">ipc::util::sync_io</text>
<text text-anchor="start" x="515" y="-584.05" font-family="Helvetica,sans-Serif" font-size="8.00">::Asio_waitable_native</text>
<text text-anchor="middle" x="561" y="-575.05" font-family="Helvetica,sans-Serif" font-size="8.00">_handle</text>
</a>
</g>
</g>
<!-- Node15&#45;&gt;Node1 -->
<g id="edge16" class="edge">
<title>Node15&#45;&gt;Node1</title>
<path fill="none" stroke="#9a32cd" stroke-dasharray="5,2" d="M625.1,-567.87C636,-565.22 647.28,-562.77 658,-560.95 702.44,-553.4 752.83,-549.17 792.77,-546.81"/>
<polygon fill="#9a32cd" stroke="#9a32cd" points="624.06,-564.52 615.21,-570.34 625.76,-571.31 624.06,-564.52"/>
<text text-anchor="start" x="659" y="-608.55" font-family="Helvetica,sans-Serif" font-size="8.00"> m_ev_wait_hndl_peer</text>
<text text-anchor="middle" x="716.5" y="-599.55" font-family="Helvetica,sans-Serif" font-size="8.00">_socket</text>
<text text-anchor="start" x="659" y="-590.55" font-family="Helvetica,sans-Serif" font-size="8.00">m_rcv_ev_wait_hndl</text>
<text text-anchor="middle" x="716.5" y="-581.55" font-family="Helvetica,sans-Serif" font-size="8.00">_idle_timer_fired_peer</text>
<text text-anchor="start" x="659" y="-572.55" font-family="Helvetica,sans-Serif" font-size="8.00">m_snd_ev_wait_hndl</text>
<text text-anchor="middle" x="716.5" y="-563.55" font-family="Helvetica,sans-Serif" font-size="8.00">_auto_ping_timer_fired_peer</text>
</g>
<!-- Node16 -->
<g id="node16" class="node">
<title>Node16</title>
<g id="a_node16"><a xlink:title=" ">
<polygon fill="white" stroke="#bfbfbf" points="214,-572.95 214,-598.95 305,-598.95 305,-572.95 214,-572.95"/>
<text text-anchor="start" x="222" y="-588.55" font-family="Helvetica,sans-Serif" font-size="8.00">boost::asio::posix</text>
<text text-anchor="middle" x="259.5" y="-579.55" font-family="Helvetica,sans-Serif" font-size="8.00">::descriptor</text>
</a>
</g>
</g>
<!-- Node16&#45;&gt;Node15 -->
<g id="edge17" class="edge">
<title>Node16&#45;&gt;Node15</title>
<path fill="none" stroke="darkgreen" d="M315.19,-585.95C369.72,-585.95 452.92,-585.95 506.89,-585.95"/>
<polygon fill="darkgreen" stroke="darkgreen" points="315.01,-582.45 305.01,-585.95 315.01,-589.45 315.01,-582.45"/>
</g>
<!-- Node17 -->
<g id="node17" class="node">
<title>Node17</title>
<g id="a_node17"><a xlink:title=" ">
<polygon fill="white" stroke="#bfbfbf" points="510.5,-532.45 510.5,-549.45 611.5,-549.45 611.5,-532.45 510.5,-532.45"/>
<text text-anchor="middle" x="561" y="-539.05" font-family="Helvetica,sans-Serif" font-size="8.00">Mutex_non_recursive</text>
</a>
</g>
</g>
<!-- Node17&#45;&gt;Node1 -->
<g id="edge18" class="edge">
<title>Node17&#45;&gt;Node1</title>
<path fill="none" stroke="#9a32cd" stroke-dasharray="5,2" d="M621.65,-532.33C633.66,-530.92 646.21,-529.68 658,-528.95 709.9,-525.72 723.18,-524.66 775,-528.95 781,-529.44 787.2,-530.12 793.41,-530.92"/>
<polygon fill="#9a32cd" stroke="#9a32cd" points="621.22,-528.85 611.72,-533.54 622.07,-535.8 621.22,-528.85"/>
<text text-anchor="middle" x="716.5" y="-531.55" font-family="Helvetica,sans-Serif" font-size="8.00"> m_peer_socket_mutex</text>
</g>
<!-- Node18&#45;&gt;Node1 -->
<g id="edge19" class="edge">
<title>Node18&#45;&gt;Node1</title>
<path fill="none" stroke="#9a32cd" stroke-dasharray="5,2" d="M624.14,-1090.42C672,-1090.26 736.31,-1081.61 775,-1041.95 845.24,-969.93 861.83,-628.27 864.55,-557"/>
<polygon fill="#9a32cd" stroke="#9a32cd" points="623.92,-1086.92 613.89,-1090.33 623.86,-1093.92 623.92,-1086.92"/>
<text text-anchor="middle" x="716.5" y="-1090.55" font-family="Helvetica,sans-Serif" font-size="8.00"> m_timer_worker</text>
</g>
<!-- Node19 -->
<g id="node19" class="node">
<title>Node19</title>
<g id="a_node19"><a xlink:title=" ">
<polygon fill="white" stroke="#bfbfbf" points="201.5,-1154.45 201.5,-1171.45 317.5,-1171.45 317.5,-1154.45 201.5,-1154.45"/>
<text text-anchor="middle" x="259.5" y="-1161.05" font-family="Helvetica,sans-Serif" font-size="8.00">Single_thread_task_loop</text>
</a>
</g>
</g>
<!-- Node19&#45;&gt;Node18 -->
<g id="edge23" class="edge">
<title>Node19&#45;&gt;Node18</title>
<path fill="none" stroke="#9a32cd" stroke-dasharray="5,2" d="M322.46,-1152.59C363.08,-1145.21 417.13,-1134.25 464,-1120.95 485.67,-1114.8 509.47,-1106.13 527.95,-1098.97"/>
<polygon fill="#9a32cd" stroke="#9a32cd" points="321.66,-1149.18 312.44,-1154.39 322.9,-1156.07 321.66,-1149.18"/>
<text text-anchor="middle" x="405" y="-1149.55" font-family="Helvetica,sans-Serif" font-size="8.00"> m_worker</text>
</g>
<!-- Node20 -->
<g id="node20" class="node">
<title>Node20</title>
<g id="a_node20"><a xlink:title=" ">
<polygon fill="white" stroke="black" points="194,-1100.45 194,-1135.45 325,-1135.45 325,-1100.45 194,-1100.45"/>
<text text-anchor="start" x="202" y="-1125.05" font-family="Helvetica,sans-Serif" font-size="8.00">std::vector&lt; boost</text>
<text text-anchor="start" x="202" y="-1116.05" font-family="Helvetica,sans-Serif" font-size="8.00">::movelib::unique_ptr</text>
<text text-anchor="middle" x="259.5" y="-1107.05" font-family="Helvetica,sans-Serif" font-size="8.00">&lt; Timer_fired_read_end &gt; &gt;</text>
</a>
</g>
</g>
<!-- Node20&#45;&gt;Node18 -->
<g id="edge24" class="edge">
<title>Node20&#45;&gt;Node18</title>
<path fill="none" stroke="#9a32cd" stroke-dasharray="5,2" d="M335.32,-1109.95C389.28,-1104.19 460.73,-1096.56 508.42,-1091.46"/>
<polygon fill="#9a32cd" stroke="#9a32cd" points="334.69,-1106.5 325.12,-1111.04 335.43,-1113.46 334.69,-1106.5"/>
<text text-anchor="middle" x="405" y="-1110.55" font-family="Helvetica,sans-Serif" font-size="8.00"> m_signal_pipe_readers</text>
</g>
<!-- Node21 -->
<g id="node21" class="node">
<title>Node21</title>
<g id="a_node21"><a xlink:title=" ">
<polygon fill="white" stroke="#bfbfbf" points="0,-1104.95 0,-1130.95 114,-1130.95 114,-1104.95 0,-1104.95"/>
<text text-anchor="start" x="8" y="-1120.55" font-family="Helvetica,sans-Serif" font-size="8.00">unique_ptr&lt; Timer_fired</text>
<text text-anchor="middle" x="57" y="-1111.55" font-family="Helvetica,sans-Serif" font-size="8.00">_read_end &gt;</text>
</a>
</g>
</g>
<!-- Node21&#45;&gt;Node20 -->
<g id="edge25" class="edge">
<title>Node21&#45;&gt;Node20</title>
<path fill="none" stroke="#9a32cd" stroke-dasharray="5,2" d="M124.21,-1117.95C146.63,-1117.95 171.61,-1117.95 193.9,-1117.95"/>
<polygon fill="#9a32cd" stroke="#9a32cd" points="124.12,-1114.45 114.12,-1117.95 124.12,-1121.45 124.12,-1114.45"/>
<text text-anchor="middle" x="152.5" y="-1120.55" font-family="Helvetica,sans-Serif" font-size="8.00"> elements</text>
</g>
<!-- Node22 -->
<g id="node22" class="node">
<title>Node22</title>
<g id="a_node22"><a xlink:title=" ">
<polygon fill="white" stroke="#bfbfbf" points="191,-1036.95 191,-1080.95 328,-1080.95 328,-1036.95 191,-1036.95"/>
<text text-anchor="start" x="199" y="-1070.55" font-family="Helvetica,sans-Serif" font-size="8.00">unordered_map&lt; Timer</text>
<text text-anchor="start" x="199" y="-1061.55" font-family="Helvetica,sans-Serif" font-size="8.00">_fired_read_end *, boost</text>
<text text-anchor="start" x="199" y="-1052.55" font-family="Helvetica,sans-Serif" font-size="8.00">::movelib::unique_ptr&lt; boost</text>
<text text-anchor="middle" x="259.5" y="-1043.55" font-family="Helvetica,sans-Serif" font-size="8.00">::asio::writable_pipe &gt; &gt;</text>
</a>
</g>
</g>
<!-- Node22&#45;&gt;Node18 -->
<g id="edge26" class="edge">
<title>Node22&#45;&gt;Node18</title>
<path fill="none" stroke="#9a32cd" stroke-dasharray="5,2" d="M338.21,-1065.95C391.66,-1070.77 461.19,-1077.04 508.03,-1081.26"/>
<polygon fill="#9a32cd" stroke="#9a32cd" points="338.36,-1062.45 328.09,-1065.04 337.73,-1069.43 338.36,-1062.45"/>
<text text-anchor="middle" x="405" y="-1079.55" font-family="Helvetica,sans-Serif" font-size="8.00"> m_signal_pipe_writers</text>
</g>
<!-- Node23 -->
<g id="node23" class="node">
<title>Node23</title>
<g id="a_node23"><a xlink:title=" ">
<polygon fill="white" stroke="#bfbfbf" points="508,-478.45 508,-513.45 614,-513.45 614,-478.45 508,-478.45"/>
<text text-anchor="start" x="516" y="-503.05" font-family="Helvetica,sans-Serif" font-size="8.00">optional&lt; flow::async</text>
<text text-anchor="start" x="516" y="-494.05" font-family="Helvetica,sans-Serif" font-size="8.00">::Single_thread_task</text>
<text text-anchor="middle" x="561" y="-485.05" font-family="Helvetica,sans-Serif" font-size="8.00">_loop &gt;</text>
</a>
</g>
</g>
<!-- Node23&#45;&gt;Node1 -->
<g id="edge27" class="edge">
<title>Node23&#45;&gt;Node1</title>
<path fill="none" stroke="#9a32cd" stroke-dasharray="5,2" d="M624.43,-496.8C667.2,-498.39 725.01,-502.52 775,-512.95 794.9,-517.1 816.45,-524.42 833.48,-530.9"/>
<polygon fill="#9a32cd" stroke="#9a32cd" points="624.28,-493.3 614.17,-496.46 624.05,-500.29 624.28,-493.3"/>
<text text-anchor="middle" x="716.5" y="-515.55" font-family="Helvetica,sans-Serif" font-size="8.00"> m_conn_async_worker</text>
</g>
<!-- Node24 -->
<g id="node24" class="node">
<title>Node24</title>
<g id="a_node24"><a xlink:title=" ">
<polygon fill="white" stroke="#bfbfbf" points="503.5,-424.45 503.5,-459.45 618.5,-459.45 618.5,-424.45 503.5,-424.45"/>
<text text-anchor="start" x="511.5" y="-449.05" font-family="Helvetica,sans-Serif" font-size="8.00">optional&lt; ipc::util</text>
<text text-anchor="start" x="511.5" y="-440.05" font-family="Helvetica,sans-Serif" font-size="8.00">::sync_io::Asio_waitable</text>
<text text-anchor="middle" x="561" y="-431.05" font-family="Helvetica,sans-Serif" font-size="8.00">_native_handle &gt;</text>
</a>
</g>
</g>
<!-- Node24&#45;&gt;Node1 -->
<g id="edge28" class="edge">
<title>Node24&#45;&gt;Node1</title>
<path fill="none" stroke="#9a32cd" stroke-dasharray="5,2" d="M628.89,-444.3C672.05,-447.8 728.59,-456.18 775,-475.95 805.81,-489.07 835.62,-515 852.01,-530.78"/>
<polygon fill="#9a32cd" stroke="#9a32cd" points="629.01,-440.8 618.78,-443.55 628.49,-447.78 629.01,-440.8"/>
<text text-anchor="start" x="671" y="-487.55" font-family="Helvetica,sans-Serif" font-size="8.00"> m_conn_ev_wait_hndl</text>
<text text-anchor="middle" x="716.5" y="-478.55" font-family="Helvetica,sans-Serif" font-size="8.00">_peer_socket</text>
</g>
<!-- Node25 -->
<g id="node25" class="node">
<title>Node25</title>
<g id="a_node25"><a xlink:title=" ">
<polygon fill="white" stroke="#bfbfbf" points="499.5,-342.95 499.5,-404.95 622.5,-404.95 622.5,-342.95 499.5,-342.95"/>
<text text-anchor="start" x="507.5" y="-394.55" font-family="Helvetica,sans-Serif" font-size="8.00">Function&lt; void(Asio</text>
<text text-anchor="start" x="507.5" y="-385.55" font-family="Helvetica,sans-Serif" font-size="8.00">_waitable_native_handle</text>
<text text-anchor="start" x="507.5" y="-376.55" font-family="Helvetica,sans-Serif" font-size="8.00"> *hndl_of_interest, bool</text>
<text text-anchor="start" x="507.5" y="-367.55" font-family="Helvetica,sans-Serif" font-size="8.00"> ev_of_interest_snd_else</text>
<text text-anchor="start" x="507.5" y="-358.55" font-family="Helvetica,sans-Serif" font-size="8.00">_rcv, Task_ptr &amp;&amp;on_active</text>
<text text-anchor="middle" x="561" y="-349.55" font-family="Helvetica,sans-Serif" font-size="8.00">_ev_func)&gt;</text>
</a>
</g>
</g>
<!-- Node25&#45;&gt;Node1 -->
<g id="edge29" class="edge">
<title>Node25&#45;&gt;Node1</title>
<path fill="none" stroke="#9a32cd" stroke-dasharray="5,2" d="M632.57,-374.75C676.62,-378.27 732.78,-388.51 775,-415.95 819.64,-444.96 848.68,-504.58 859.84,-530.93"/>
<polygon fill="#9a32cd" stroke="#9a32cd" points="632.72,-371.25 622.5,-374.05 632.23,-378.24 632.72,-371.25"/>
<text text-anchor="middle" x="716.5" y="-436.55" font-family="Helvetica,sans-Serif" font-size="8.00"> m_conn_ev_wait_func</text>
<text text-anchor="middle" x="716.5" y="-427.55" font-family="Helvetica,sans-Serif" font-size="8.00">m_rcv_ev_wait_func</text>
<text text-anchor="middle" x="716.5" y="-418.55" font-family="Helvetica,sans-Serif" font-size="8.00">m_snd_ev_wait_func</text>
</g>
<!-- Node26 -->
<g id="node26" class="node">
<title>Node26</title>
<g id="a_node26"><a xlink:title=" ">
<polygon fill="white" stroke="black" points="509,-297.95 509,-323.95 613,-323.95 613,-297.95 509,-297.95"/>
<text text-anchor="start" x="517" y="-313.55" font-family="Helvetica,sans-Serif" font-size="8.00">std::queue&lt; Snd_low</text>
<text text-anchor="middle" x="561" y="-304.55" font-family="Helvetica,sans-Serif" font-size="8.00">_lvl_payload::Ptr &gt;</text>
</a>
</g>
</g>
<!-- Node26&#45;&gt;Node1 -->
<g id="edge30" class="edge">
<title>Node26&#45;&gt;Node1</title>
<path fill="none" stroke="#9a32cd" stroke-dasharray="5,2" d="M623.5,-312.75C669.65,-317.06 732.01,-329.5 775,-363.95 830.89,-408.73 854.98,-497.22 862.36,-530.7"/>
<polygon fill="#9a32cd" stroke="#9a32cd" points="623.58,-309.25 613.33,-311.91 623,-316.22 623.58,-309.25"/>
<text text-anchor="middle" x="716.5" y="-366.55" font-family="Helvetica,sans-Serif" font-size="8.00"> m_snd_pending_payloads_q</text>
</g>
<!-- Node27 -->
<g id="node27" class="node">
<title>Node27</title>
<g id="a_node27"><a xlink:title=" ">
<polygon fill="white" stroke="#bfbfbf" points="245,-302.45 245,-319.45 274,-319.45 274,-302.45 245,-302.45"/>
<text text-anchor="middle" x="259.5" y="-309.05" font-family="Helvetica,sans-Serif" font-size="8.00">Ptr</text>
</a>
</g>
</g>
<!-- Node27&#45;&gt;Node26 -->
<g id="edge31" class="edge">
<title>Node27&#45;&gt;Node26</title>
<path fill="none" stroke="#9a32cd" stroke-dasharray="5,2" d="M284.25,-310.95C332.58,-310.95 443.3,-310.95 508.8,-310.95"/>
<polygon fill="#9a32cd" stroke="#9a32cd" points="284.15,-307.45 274.15,-310.95 284.15,-314.45 284.15,-307.45"/>
<text text-anchor="middle" x="405" y="-313.55" font-family="Helvetica,sans-Serif" font-size="8.00"> elements</text>
</g>
<!-- Node28 -->
<g id="node28" class="node">
<title>Node28</title>
<g id="a_node28"><a xlink:title=" ">
<polygon fill="white" stroke="#bfbfbf" points="531,-261.45 531,-278.45 591,-278.45 591,-261.45 531,-261.45"/>
<text text-anchor="middle" x="561" y="-268.05" font-family="Helvetica,sans-Serif" font-size="8.00">Error_code</text>
</a>
</g>
</g>
<!-- Node28&#45;&gt;Node1 -->
<g id="edge32" class="edge">
<title>Node28&#45;&gt;Node1</title>
<path fill="none" stroke="#9a32cd" stroke-dasharray="5,2" d="M601.5,-269.76C655.58,-270.29 748.95,-274.29 775,-294.95 851.9,-355.92 863.13,-488.38 864.74,-530.68"/>
<polygon fill="#9a32cd" stroke="#9a32cd" points="601.26,-266.26 591.24,-269.69 601.22,-273.26 601.26,-266.26"/>
<text text-anchor="middle" x="716.5" y="-306.55" font-family="Helvetica,sans-Serif" font-size="8.00"> m_rcv_pending_err_code</text>
<text text-anchor="middle" x="716.5" y="-297.55" font-family="Helvetica,sans-Serif" font-size="8.00">m_snd_pending_err_code</text>
</g>
<!-- Node29 -->
<g id="node29" class="node">
<title>Node29</title>
<g id="a_node29"><a xlink:title=" ">
<polygon fill="white" stroke="#bfbfbf" points="525.5,-225.45 525.5,-242.45 596.5,-242.45 596.5,-225.45 525.5,-225.45"/>
<text text-anchor="middle" x="561" y="-232.05" font-family="Helvetica,sans-Serif" font-size="8.00">Task_asio_err</text>
</a>
</g>
</g>
<!-- Node29&#45;&gt;Node1 -->
<g id="edge34" class="edge">
<title>Node29&#45;&gt;Node1</title>
<path fill="none" stroke="#9a32cd" stroke-dasharray="5,2" d="M606.87,-231.35C661.61,-229.15 749.94,-228.99 775,-248.95 821.18,-285.72 854.58,-478 862.95,-530.62"/>
<polygon fill="#9a32cd" stroke="#9a32cd" points="606.57,-227.86 596.74,-231.8 606.88,-234.85 606.57,-227.86"/>
<text text-anchor="start" x="660.5" y="-260.55" font-family="Helvetica,sans-Serif" font-size="8.00"> m_snd_pending_on_last</text>
<text text-anchor="middle" x="716.5" y="-251.55" font-family="Helvetica,sans-Serif" font-size="8.00">_send_done_func_or_empty</text>
</g>
<!-- Node30 -->
<g id="node30" class="node">
<title>Node30</title>
<g id="a_node30"><a xlink:title=" ">
<polygon fill="white" stroke="#bfbfbf" points="525.5,-189.45 525.5,-206.45 596.5,-206.45 596.5,-189.45 525.5,-189.45"/>
<text text-anchor="middle" x="561" y="-196.05" font-family="Helvetica,sans-Serif" font-size="8.00">Fine_duration</text>
</a>
</g>
</g>
<!-- Node30&#45;&gt;Node1 -->
<g id="edge35" class="edge">
<title>Node30&#45;&gt;Node1</title>
<path fill="none" stroke="#9a32cd" stroke-dasharray="5,2" d="M606.92,-194.08C661.7,-190.35 750.08,-187.88 775,-207.95 827.44,-250.18 856.81,-473.8 863.51,-530.74"/>
<polygon fill="#9a32cd" stroke="#9a32cd" points="606.5,-190.6 596.77,-194.81 607,-197.58 606.5,-190.6"/>
<text text-anchor="middle" x="716.5" y="-219.55" font-family="Helvetica,sans-Serif" font-size="8.00"> m_rcv_idle_timeout</text>
<text text-anchor="middle" x="716.5" y="-210.55" font-family="Helvetica,sans-Serif" font-size="8.00">m_snd_auto_ping_period</text>
</g>
<!-- Node31 -->
<g id="node31" class="node">
<title>Node31</title>
<g id="a_node31"><a xlink:title=" ">
<polygon fill="white" stroke="#bfbfbf" points="541.5,-153.45 541.5,-170.45 580.5,-170.45 580.5,-153.45 541.5,-153.45"/>
<text text-anchor="middle" x="561" y="-160.05" font-family="Helvetica,sans-Serif" font-size="8.00">Timer</text>
</a>
</g>
</g>
<!-- Node31&#45;&gt;Node1 -->
<g id="edge36" class="edge">
<title>Node31&#45;&gt;Node1</title>
<path fill="none" stroke="#9a32cd" stroke-dasharray="5,2" d="M590.43,-153.12C635.14,-141.16 722.19,-125.89 775,-168.95 833.38,-216.55 858.66,-470.15 863.93,-530.88"/>
<polygon fill="#9a32cd" stroke="#9a32cd" points="589.48,-149.75 580.8,-155.82 591.37,-156.49 589.48,-149.75"/>
<text text-anchor="middle" x="716.5" y="-180.55" font-family="Helvetica,sans-Serif" font-size="8.00"> m_rcv_idle_timer</text>
<text text-anchor="middle" x="716.5" y="-171.55" font-family="Helvetica,sans-Serif" font-size="8.00">m_snd_auto_ping_timer</text>
</g>
<!-- Node32 -->
<g id="node32" class="node">
<title>Node32</title>
<g id="a_node32"><a xlink:title=" ">
<polygon fill="white" stroke="#bfbfbf" points="506,-101.45 506,-118.45 616,-118.45 616,-101.45 506,-101.45"/>
<text text-anchor="middle" x="561" y="-108.05" font-family="Helvetica,sans-Serif" font-size="8.00">Timer_fired_read_end *</text>
</a>
</g>
</g>
<!-- Node32&#45;&gt;Node1 -->
<g id="edge37" class="edge">
<title>Node32&#45;&gt;Node1</title>
<path fill="none" stroke="#9a32cd" stroke-dasharray="5,2" d="M614.9,-99.68C669.96,-90.33 751.39,-80.65 775,-99.95 844.26,-156.58 861.5,-463.2 864.48,-530.77"/>
<polygon fill="#9a32cd" stroke="#9a32cd" points="614.2,-96.25 604.95,-101.42 615.4,-103.15 614.2,-96.25"/>
<text text-anchor="start" x="668.5" y="-129.55" font-family="Helvetica,sans-Serif" font-size="8.00"> m_rcv_idle_timer_fired</text>
<text text-anchor="middle" x="716.5" y="-120.55" font-family="Helvetica,sans-Serif" font-size="8.00">_peer</text>
<text text-anchor="start" x="668.5" y="-111.55" font-family="Helvetica,sans-Serif" font-size="8.00">m_snd_auto_ping_timer</text>
<text text-anchor="middle" x="716.5" y="-102.55" font-family="Helvetica,sans-Serif" font-size="8.00">_fired_peer</text>
</g>
<!-- Node33 -->
<g id="node33" class="node">
<title>Node33</title>
<g id="a_node33"><a xlink:title=" ">
<polygon fill="white" stroke="#bfbfbf" points="482,-47.45 482,-82.45 640,-82.45 640,-47.45 482,-47.45"/>
<text text-anchor="start" x="490" y="-72.05" font-family="Helvetica,sans-Serif" font-size="8.00">optional&lt; ipc::transport</text>
<text text-anchor="start" x="490" y="-63.05" font-family="Helvetica,sans-Serif" font-size="8.00">::sync_io::Native_socket</text>
<text text-anchor="middle" x="561" y="-54.05" font-family="Helvetica,sans-Serif" font-size="8.00">_stream::Impl::Rcv_user_request &gt;</text>
</a>
</g>
</g>
<!-- Node33&#45;&gt;Node1 -->
<g id="edge38" class="edge">
<title>Node33&#45;&gt;Node1</title>
<path fill="none" stroke="#9a32cd" stroke-dasharray="5,2" d="M645.73,-46.21C689.18,-41.6 740.29,-44.86 775,-74.95 846.43,-136.85 862.01,-460.51 864.57,-530.57"/>
<polygon fill="#9a32cd" stroke="#9a32cd" points="645.24,-42.75 635.73,-47.43 646.08,-49.7 645.24,-42.75"/>
<text text-anchor="middle" x="716.5" y="-77.55" font-family="Helvetica,sans-Serif" font-size="8.00"> m_rcv_user_request</text>
</g>
<!-- Node34 -->
<g id="node34" class="node">
<title>Node34</title>
<g id="a_node34"><a xlink:title=" ">
<polygon fill="white" stroke="#bfbfbf" points="536,-11.45 536,-28.45 586,-28.45 586,-11.45 536,-11.45"/>
<text text-anchor="middle" x="561" y="-18.05" font-family="Helvetica,sans-Serif" font-size="8.00">uint16_t</text>
</a>
</g>
</g>
<!-- Node34&#45;&gt;Node1 -->
<g id="edge39" class="edge">
<title>Node34&#45;&gt;Node1</title>
<path fill="none" stroke="#9a32cd" stroke-dasharray="5,2" d="M596.25,-10.25C642.83,0.65 725.97,11.63 775,-31.95 852.41,-100.74 863.36,-457.68 864.79,-530.84"/>
<polygon fill="#9a32cd" stroke="#9a32cd" points="595.21,-6.9 586.34,-12.7 596.89,-13.7 595.21,-6.9"/>
<text text-anchor="middle" x="716.5" y="-34.55" font-family="Helvetica,sans-Serif" font-size="8.00"> m_rcv_target_meta_length</text>
</g>
</g>
</svg>
