<?xml version="1.0" encoding="UTF-8" standalone="no"?>
<!DOCTYPE svg PUBLIC "-//W3C//DTD SVG 1.1//EN"
 "http://www.w3.org/Graphics/SVG/1.1/DTD/svg11.dtd">
<!-- Generated by graphviz version 2.43.0 (0)
 -->
<!-- Title: ipc::shm::classic::Pool_arena::for_each_persistent Pages: 1 -->
<svg width="535pt" height="44pt"
 viewBox="0.00 0.00 535.00 44.00" xmlns="http://www.w3.org/2000/svg" xmlns:xlink="http://www.w3.org/1999/xlink">
<g id="graph0" class="graph" transform="scale(1 1) rotate(0) translate(4 40)">
<title>ipc::shm::classic::Pool_arena::for_each_persistent</title>
<polygon fill="white" stroke="transparent" points="-4,4 -4,-40 531,-40 531,4 -4,4"/>
<!-- Node1 -->
<g id="node1" class="node">
<title>Node1</title>
<g id="a_node1"><a xlink:title="Lists all named SHM pool objects currently persisting, invoking the given handler synchronously on ea...">
<polygon fill="#bfbfbf" stroke="black" points="0,-0.5 0,-35.5 103,-35.5 103,-0.5 0,-0.5"/>
<text text-anchor="start" x="8" y="-25.1" font-family="Helvetica,sans-Serif" font-size="8.00">ipc::shm::classic::</text>
<text text-anchor="start" x="8" y="-16.1" font-family="Helvetica,sans-Serif" font-size="8.00">Pool_arena::for_each</text>
<text text-anchor="middle" x="51.5" y="-7.1" font-family="Helvetica,sans-Serif" font-size="8.00">_persistent</text>
</a>
</g>
</g>
<!-- Node2 -->
<g id="node2" class="node">
<title>Node2</title>
<g id="a_node2"><a xlink:href="namespaceipc_1_1util.html#a74135195ff6c2f840092c21e522f964a" target="_top" xlink:title="Equivalent to shm::classic::Pool_arena::for_each_persistent().">
<polygon fill="white" stroke="black" points="139,-5 139,-31 243,-31 243,-5 139,-5"/>
<text text-anchor="start" x="147" y="-20.6" font-family="Helvetica,sans-Serif" font-size="8.00">ipc::util::for_each</text>
<text text-anchor="middle" x="191" y="-11.6" font-family="Helvetica,sans-Serif" font-size="8.00">_persistent_shm_pool</text>
</a>
</g>
</g>
<!-- Node1&#45;&gt;Node2 -->
<g id="edge1" class="edge">
<title>Node1&#45;&gt;Node2</title>
<path fill="none" stroke="midnightblue" d="M103.31,-18C111.58,-18 120.22,-18 128.7,-18"/>
<polygon fill="midnightblue" stroke="midnightblue" points="128.94,-21.5 138.94,-18 128.94,-14.5 128.94,-21.5"/>
</g>
<!-- Node3 -->
<g id="node3" class="node">
<title>Node3</title>
<g id="a_node3"><a xlink:href="namespaceipc_1_1util.html#a49b39ceb74614b5f2d26dd86fd71bcb3" target="_top" xlink:title="Implementation of Persistent_object::for_each_persistent(); for example see shm::classic::Pool_arena:...">
<polygon fill="white" stroke="black" points="279,-5 279,-31 368,-31 368,-5 279,-5"/>
<text text-anchor="start" x="287" y="-20.6" font-family="Helvetica,sans-Serif" font-size="8.00">ipc::util::for_each</text>
<text text-anchor="middle" x="323.5" y="-11.6" font-family="Helvetica,sans-Serif" font-size="8.00">_persistent_impl</text>
</a>
</g>
</g>
<!-- Node2&#45;&gt;Node3 -->
<g id="edge2" class="edge">
<title>Node2&#45;&gt;Node3</title>
<path fill="none" stroke="midnightblue" d="M243.2,-18C251.53,-18 260.17,-18 268.56,-18"/>
<polygon fill="midnightblue" stroke="midnightblue" points="268.63,-21.5 278.63,-18 268.63,-14.5 268.63,-21.5"/>
</g>
<!-- Node4 -->
<g id="node4" class="node">
<title>Node4</title>
<g id="a_node4"><a xlink:href="classipc_1_1util_1_1Shared__name.html#a48f20b7b54490aa10dc64081d34c55b2" target="_top" xlink:title="Copy&#45;constructs from a char&#45;sequence container (including string, util::String_view,...">
<polygon fill="white" stroke="black" points="404,-9.5 404,-26.5 527,-26.5 527,-9.5 404,-9.5"/>
<text text-anchor="middle" x="465.5" y="-16.1" font-family="Helvetica,sans-Serif" font-size="8.00">ipc::util::Shared_name::ct</text>
</a>
</g>
</g>
<!-- Node3&#45;&gt;Node4 -->
<g id="edge3" class="edge">
<title>Node3&#45;&gt;Node4</title>
<path fill="none" stroke="midnightblue" d="M368.03,-18C376.16,-18 384.86,-18 393.57,-18"/>
<polygon fill="midnightblue" stroke="midnightblue" points="393.78,-21.5 403.78,-18 393.78,-14.5 393.78,-21.5"/>
</g>
</g>
</svg>
