<?xml version="1.0" encoding="UTF-8" standalone="no"?>
<!DOCTYPE svg PUBLIC "-//W3C//DTD SVG 1.1//EN"
 "http://www.w3.org/Graphics/SVG/1.1/DTD/svg11.dtd">
<!-- Generated by graphviz version 2.43.0 (0)
 -->
<!-- Title: ipc::transport::struc::Msg_out::body_root Pages: 1 -->
<svg width="287pt" height="80pt"
 viewBox="0.00 0.00 287.00 80.00" xmlns="http://www.w3.org/2000/svg" xmlns:xlink="http://www.w3.org/1999/xlink">
<g id="graph0" class="graph" transform="scale(1 1) rotate(0) translate(4 76)">
<title>ipc::transport::struc::Msg_out::body_root</title>
<polygon fill="white" stroke="transparent" points="-4,4 -4,-76 283,-76 283,4 -4,4"/>
<!-- Node1 -->
<g id="node1" class="node">
<title>Node1</title>
<g id="a_node1"><a xlink:title="The Body root capnp&#45;generated mutator object.">
<polygon fill="#bfbfbf" stroke="black" points="176,-22.5 176,-48.5 279,-48.5 279,-22.5 176,-22.5"/>
<text text-anchor="start" x="184" y="-38.1" font-family="Helvetica,sans-Serif" font-size="8.00">ipc::transport::struc</text>
<text text-anchor="middle" x="227.5" y="-29.1" font-family="Helvetica,sans-Serif" font-size="8.00">::Msg_out::body_root</text>
</a>
</g>
</g>
<!-- Node2 -->
<g id="node2" class="node">
<title>Node2</title>
<g id="a_node2"><a xlink:href="classipc_1_1transport_1_1struc_1_1Msg__mdt__out.html#a09b3e80aab955fbe367b8ebdf0fab792" target="_top" xlink:title="Constructs out&#45;metadata&#45;message describing a user&#45;created message (not an internal message); or else ...">
<polygon fill="white" stroke="black" points="2.5,-45.5 2.5,-71.5 137.5,-71.5 137.5,-45.5 2.5,-45.5"/>
<text text-anchor="start" x="10.5" y="-61.1" font-family="Helvetica,sans-Serif" font-size="8.00">ipc::transport::struc</text>
<text text-anchor="middle" x="70" y="-52.1" font-family="Helvetica,sans-Serif" font-size="8.00">::Msg_mdt_out::Msg_mdt_out</text>
</a>
</g>
</g>
<!-- Node1&#45;&gt;Node2 -->
<g id="edge1" class="edge">
<title>Node1&#45;&gt;Node2</title>
<path fill="none" stroke="midnightblue" d="M165.43,-44.53C156.3,-45.88 146.84,-47.28 137.6,-48.65"/>
<polygon fill="midnightblue" stroke="midnightblue" points="166.2,-47.96 175.58,-43.03 165.18,-41.03 166.2,-47.96"/>
</g>
<!-- Node3 -->
<g id="node3" class="node">
<title>Node3</title>
<g id="a_node3"><a xlink:href="classipc_1_1transport_1_1struc_1_1sync__io_1_1Channel.html#a0550bcab7578fcd9aa90a4add39eb3c7" target="_top" xlink:title="Core of send() or internal&#45;message&#45;send: Serializes the given structured out&#45;messages (metadata out&#45;m...">
<polygon fill="white" stroke="black" points="0,-0.5 0,-26.5 140,-26.5 140,-0.5 0,-0.5"/>
<text text-anchor="start" x="8" y="-16.1" font-family="Helvetica,sans-Serif" font-size="8.00">ipc::transport::struc</text>
<text text-anchor="middle" x="70" y="-7.1" font-family="Helvetica,sans-Serif" font-size="8.00">::sync_io::Channel::send_core</text>
</a>
</g>
</g>
<!-- Node1&#45;&gt;Node3 -->
<g id="edge2" class="edge">
<title>Node1&#45;&gt;Node3</title>
<path fill="none" stroke="midnightblue" d="M165.56,-26.88C157.21,-25.7 148.59,-24.48 140.11,-23.28"/>
<polygon fill="midnightblue" stroke="midnightblue" points="165.19,-30.36 175.58,-28.3 166.17,-23.43 165.19,-30.36"/>
</g>
</g>
</svg>
