<?xml version="1.0" encoding="UTF-8" standalone="no"?>
<!DOCTYPE svg PUBLIC "-//W3C//DTD SVG 1.1//EN"
 "http://www.w3.org/Graphics/SVG/1.1/DTD/svg11.dtd">
<!-- Generated by graphviz version 2.43.0 (0)
 -->
<!-- Title: ipc::transport::Blob_stream_mq_base_impl::ensure_unique_peer Pages: 1 -->
<svg width="434pt" height="98pt"
 viewBox="0.00 0.00 434.00 98.00" xmlns="http://www.w3.org/2000/svg" xmlns:xlink="http://www.w3.org/1999/xlink">
<g id="graph0" class="graph" transform="scale(1 1) rotate(0) translate(4 94)">
<title>ipc::transport::Blob_stream_mq_base_impl::ensure_unique_peer</title>
<polygon fill="white" stroke="transparent" points="-4,4 -4,-94 430,-94 430,4 -4,4"/>
<!-- Node1 -->
<g id="node1" class="node">
<title>Node1</title>
<g id="a_node1"><a xlink:title="Internal helper for Blob_stream_mq_sender and Blob_stream_mq_receiver that operates both the start an...">
<polygon fill="#bfbfbf" stroke="black" points="0,-27 0,-62 110,-62 110,-27 0,-27"/>
<text text-anchor="start" x="8" y="-51.6" font-family="Helvetica,sans-Serif" font-size="8.00">ipc::transport::Blob</text>
<text text-anchor="start" x="8" y="-42.6" font-family="Helvetica,sans-Serif" font-size="8.00">_stream_mq_base_impl</text>
<text text-anchor="middle" x="55" y="-33.6" font-family="Helvetica,sans-Serif" font-size="8.00">::ensure_unique_peer</text>
</a>
</g>
</g>
<!-- Node2 -->
<g id="node2" class="node">
<title>Node2</title>
<g id="a_node2"><a xlink:href="classipc_1_1transport_1_1Persistent__mq__handle.html#a5ef74ca74a9d985710af974fd6518940" target="_top" xlink:title="Returns name equal to absolute_name passed to ctor.">
<polygon fill="white" stroke="black" points="146,-63.5 146,-89.5 280,-89.5 280,-63.5 146,-63.5"/>
<text text-anchor="start" x="154" y="-79.1" font-family="Helvetica,sans-Serif" font-size="8.00">ipc::transport::Persistent</text>
<text text-anchor="middle" x="213" y="-70.1" font-family="Helvetica,sans-Serif" font-size="8.00">_mq_handle::absolute_name</text>
</a>
</g>
</g>
<!-- Node1&#45;&gt;Node2 -->
<g id="edge1" class="edge">
<title>Node1&#45;&gt;Node2</title>
<path fill="none" stroke="midnightblue" d="M110.12,-55.6C119.33,-57.49 129.03,-59.48 138.64,-61.45"/>
<polygon fill="midnightblue" stroke="midnightblue" points="138.09,-64.91 148.59,-63.49 139.5,-58.06 138.09,-64.91"/>
</g>
<!-- Node3 -->
<g id="node3" class="node">
<title>Node3</title>
<g id="a_node3"><a xlink:href="namespaceipc_1_1util.html#a1cdc0a8d761170faa844c49d37c522ff" target="_top" xlink:title="Equivalent to shm::classic::Pool_arena::remove_persistent().">
<polygon fill="white" stroke="black" points="148.5,-0.5 148.5,-26.5 277.5,-26.5 277.5,-0.5 148.5,-0.5"/>
<text text-anchor="start" x="156.5" y="-16.1" font-family="Helvetica,sans-Serif" font-size="8.00">ipc::util::remove_persistent</text>
<text text-anchor="middle" x="213" y="-7.1" font-family="Helvetica,sans-Serif" font-size="8.00">_shm_pool</text>
</a>
</g>
</g>
<!-- Node1&#45;&gt;Node3 -->
<g id="edge2" class="edge">
<title>Node1&#45;&gt;Node3</title>
<path fill="none" stroke="midnightblue" d="M110.12,-33.74C119.27,-31.93 128.9,-30.01 138.44,-28.12"/>
<polygon fill="midnightblue" stroke="midnightblue" points="139.19,-31.54 148.32,-26.15 137.83,-24.67 139.19,-31.54"/>
</g>
<!-- Node3&#45;&gt;Node3 -->
<g id="edge4" class="edge">
<title>Node3&#45;&gt;Node3</title>
<path fill="none" stroke="midnightblue" d="M186.27,-26.77C178.17,-35.96 187.08,-45 213,-45 228.8,-45 238.28,-41.64 241.44,-36.94"/>
<polygon fill="midnightblue" stroke="midnightblue" points="244.84,-36.05 239.73,-26.77 237.93,-37.21 244.84,-36.05"/>
</g>
<!-- Node4 -->
<g id="node4" class="node">
<title>Node4</title>
<g id="a_node4"><a xlink:href="classipc_1_1util_1_1Shared__name.html#a0bccc73c9c5b4f3b784a1e57cdc5c910" target="_top" xlink:title="Returns (sans copying) pointer to NUL&#45;terminated wrapped name string, suitable to pass into sys calls...">
<polygon fill="white" stroke="black" points="316,-0.5 316,-26.5 426,-26.5 426,-0.5 316,-0.5"/>
<text text-anchor="start" x="324" y="-16.1" font-family="Helvetica,sans-Serif" font-size="8.00">ipc::util::Shared_name</text>
<text text-anchor="middle" x="371" y="-7.1" font-family="Helvetica,sans-Serif" font-size="8.00">::native_str</text>
</a>
</g>
</g>
<!-- Node3&#45;&gt;Node4 -->
<g id="edge3" class="edge">
<title>Node3&#45;&gt;Node4</title>
<path fill="none" stroke="midnightblue" d="M277.9,-13.5C287.07,-13.5 296.51,-13.5 305.69,-13.5"/>
<polygon fill="midnightblue" stroke="midnightblue" points="305.91,-17 315.91,-13.5 305.91,-10 305.91,-17"/>
</g>
</g>
</svg>
