<?xml version="1.0" encoding="UTF-8" standalone="no"?>
<!DOCTYPE svg PUBLIC "-//W3C//DTD SVG 1.1//EN"
 "http://www.w3.org/Graphics/SVG/1.1/DTD/svg11.dtd">
<!-- Generated by graphviz version 2.43.0 (0)
 -->
<!-- Title: ipc::transport::sync_io::Native_socket_stream::Impl Pages: 1 -->
<svg width="947pt" height="1114pt"
 viewBox="0.00 0.00 947.00 1113.93" xmlns="http://www.w3.org/2000/svg" xmlns:xlink="http://www.w3.org/1999/xlink">
<g id="graph0" class="graph" transform="scale(1 1) rotate(0) translate(4 1109.93)">
<title>ipc::transport::sync_io::Native_socket_stream::Impl</title>
<polygon fill="white" stroke="transparent" points="-4,4 -4,-1109.93 943,-1109.93 943,4 -4,4"/>
<!-- Node1 -->
<g id="node1" class="node">
<title>Node1</title>
<g id="a_node1"><a xlink:title="Internal, non&#45;movable pImpl implementation of sync_io::Native_socket_stream class.">
<polygon fill="#bfbfbf" stroke="black" points="793,-479.08 793,-505.08 939,-505.08 939,-479.08 793,-479.08"/>
<text text-anchor="start" x="801" y="-494.68" font-family="Helvetica,sans-Serif" font-size="8.00">ipc::transport::sync</text>
<text text-anchor="middle" x="866" y="-485.68" font-family="Helvetica,sans-Serif" font-size="8.00">_io::Native_socket_stream::Impl</text>
</a>
</g>
</g>
<!-- Node2 -->
<g id="node2" class="node">
<title>Node2</title>
<g id="a_node2"><a xlink:title=" ">
<polygon fill="white" stroke="#bfbfbf" points="206,-891.58 206,-908.58 313,-908.58 313,-891.58 206,-891.58"/>
<text text-anchor="middle" x="259.5" y="-898.18" font-family="Helvetica,sans-Serif" font-size="8.00">flow::log::Log_context</text>
</a>
</g>
</g>
<!-- Node2&#45;&gt;Node1 -->
<g id="edge1" class="edge">
<title>Node2&#45;&gt;Node1</title>
<path fill="none" stroke="midnightblue" d="M312.46,-910.31C416.12,-927.41 649.43,-948.76 775,-825.08 822.47,-778.33 855.41,-561.3 863.22,-505.3"/>
<polygon fill="midnightblue" stroke="midnightblue" points="312.99,-906.85 302.54,-908.62 311.81,-913.75 312.99,-906.85"/>
</g>
<!-- Node9 -->
<g id="node9" class="node">
<title>Node9</title>
<g id="a_node9"><a xlink:href="classipc_1_1transport_1_1Protocol__negotiator.html" target="_top" xlink:title="A simple state machine that, assuming the opposide side of a comm pathway uses an equivalent state ma...">
<polygon fill="white" stroke="black" points="505.5,-759.08 505.5,-785.08 616.5,-785.08 616.5,-759.08 505.5,-759.08"/>
<text text-anchor="start" x="513.5" y="-774.68" font-family="Helvetica,sans-Serif" font-size="8.00">ipc::transport::Protocol</text>
<text text-anchor="middle" x="561" y="-765.68" font-family="Helvetica,sans-Serif" font-size="8.00">_negotiator</text>
</a>
</g>
</g>
<!-- Node2&#45;&gt;Node9 -->
<g id="edge9" class="edge">
<title>Node2&#45;&gt;Node9</title>
<path fill="none" stroke="midnightblue" d="M323.39,-901.46C375.17,-901.26 443.31,-897.49 464,-880.08 486.94,-860.79 463.42,-838.61 482,-815.08 492.45,-801.86 508.14,-792.1 522.71,-785.25"/>
<polygon fill="midnightblue" stroke="midnightblue" points="323.28,-897.96 313.28,-901.46 323.27,-904.96 323.28,-897.96"/>
</g>
<!-- Node18 -->
<g id="node18" class="node">
<title>Node18</title>
<g id="a_node18"><a xlink:href="classipc_1_1util_1_1sync__io_1_1Timer__event__emitter.html" target="_top" xlink:title="An object of this type, used internally to implement sync_io&#45;pattern objects that require timer event...">
<polygon fill="white" stroke="black" points="508.5,-964.08 508.5,-990.08 613.5,-990.08 613.5,-964.08 508.5,-964.08"/>
<text text-anchor="start" x="516.5" y="-979.68" font-family="Helvetica,sans-Serif" font-size="8.00">ipc::util::sync_io</text>
<text text-anchor="middle" x="561" y="-970.68" font-family="Helvetica,sans-Serif" font-size="8.00">::Timer_event_emitter</text>
</a>
</g>
</g>
<!-- Node2&#45;&gt;Node18 -->
<g id="edge20" class="edge">
<title>Node2&#45;&gt;Node18</title>
<path fill="none" stroke="midnightblue" d="M307.88,-911.63C314.74,-913.82 321.63,-916.3 328,-919.08 336.59,-922.83 337.3,-926.59 346,-930.08 360.95,-936.1 449.92,-954.75 508.34,-966.67"/>
<polygon fill="midnightblue" stroke="midnightblue" points="308.51,-908.17 297.92,-908.65 306.5,-914.87 308.51,-908.17"/>
</g>
<!-- Node3 -->
<g id="node3" class="node">
<title>Node3</title>
<g id="a_node3"><a xlink:title=" ">
<polygon fill="white" stroke="#bfbfbf" points="210,-1081.58 210,-1098.58 309,-1098.58 309,-1081.58 210,-1081.58"/>
<text text-anchor="middle" x="259.5" y="-1088.18" font-family="Helvetica,sans-Serif" font-size="8.00">boost::noncopyable</text>
</a>
</g>
</g>
<!-- Node3&#45;&gt;Node1 -->
<g id="edge2" class="edge">
<title>Node3&#45;&gt;Node1</title>
<path fill="none" stroke="#8b1a1a" d="M319.07,-1098.92C427.02,-1111.54 657.07,-1120.58 775,-992.08 843.29,-917.68 861.42,-576.3 864.49,-505.11"/>
<polygon fill="#8b1a1a" stroke="#8b1a1a" points="319.37,-1095.43 309.02,-1097.7 318.52,-1102.38 319.37,-1095.43"/>
</g>
<!-- Node3&#45;&gt;Node18 -->
<g id="edge21" class="edge">
<title>Node3&#45;&gt;Node18</title>
<path fill="none" stroke="#8b1a1a" d="M319.29,-1081.91C369.91,-1074.31 438.68,-1062.48 464,-1051.08 497.39,-1036.05 529.74,-1007.27 547.04,-990.37"/>
<polygon fill="#8b1a1a" stroke="#8b1a1a" points="318.48,-1078.49 309.1,-1083.42 319.51,-1085.42 318.48,-1078.49"/>
</g>
<!-- Node4 -->
<g id="node4" class="node">
<title>Node4</title>
<g id="a_node4"><a xlink:title=" ">
<polygon fill="white" stroke="#bfbfbf" points="541,-677.58 541,-694.58 581,-694.58 581,-677.58 541,-677.58"/>
<text text-anchor="middle" x="561" y="-684.18" font-family="Helvetica,sans-Serif" font-size="8.00">size_t</text>
</a>
</g>
</g>
<!-- Node4&#45;&gt;Node1 -->
<g id="edge3" class="edge">
<title>Node4&#45;&gt;Node1</title>
<path fill="none" stroke="#9a32cd" stroke-dasharray="5,2" d="M591.07,-691.15C634.97,-697.15 719,-702.05 775,-664.08 832.18,-625.31 855.5,-538.34 862.52,-505.23"/>
<polygon fill="#9a32cd" stroke="#9a32cd" points="591.47,-687.67 581.07,-689.67 590.44,-694.6 591.47,-687.67"/>
<text text-anchor="middle" x="716.5" y="-697.68" font-family="Helvetica,sans-Serif" font-size="8.00"> S_MAX_META_BLOB_LENGTH</text>
</g>
<!-- Node5 -->
<g id="node5" class="node">
<title>Node5</title>
<g id="a_node5"><a xlink:title=" ">
<polygon fill="white" stroke="#bfbfbf" points="505,-632.08 505,-658.08 617,-658.08 617,-632.08 505,-632.08"/>
<text text-anchor="start" x="513" y="-647.68" font-family="Helvetica,sans-Serif" font-size="8.00">static const low_lvl</text>
<text text-anchor="middle" x="561" y="-638.68" font-family="Helvetica,sans-Serif" font-size="8.00">_payload_blob_length_t</text>
</a>
</g>
</g>
<!-- Node5&#45;&gt;Node1 -->
<g id="edge4" class="edge">
<title>Node5&#45;&gt;Node1</title>
<path fill="none" stroke="#9a32cd" stroke-dasharray="5,2" d="M627.16,-644.27C680.43,-642.54 750.75,-637.48 775,-623.08 821.74,-595.33 849.84,-532.71 860.31,-505.33"/>
<polygon fill="#9a32cd" stroke="#9a32cd" points="626.99,-640.78 617.09,-644.57 627.19,-647.77 626.99,-640.78"/>
<text text-anchor="start" x="669" y="-653.68" font-family="Helvetica,sans-Serif" font-size="8.00"> S_META_BLOB_LENGTH</text>
<text text-anchor="middle" x="716.5" y="-644.68" font-family="Helvetica,sans-Serif" font-size="8.00">_PING_SENTINEL</text>
</g>
<!-- Node6 -->
<g id="node6" class="node">
<title>Node6</title>
<g id="a_node6"><a xlink:title=" ">
<polygon fill="white" stroke="black" points="230,-828.58 230,-845.58 289,-845.58 289,-828.58 230,-828.58"/>
<text text-anchor="middle" x="259.5" y="-835.18" font-family="Helvetica,sans-Serif" font-size="8.00">std::string</text>
</a>
</g>
</g>
<!-- Node6&#45;&gt;Node1 -->
<g id="edge5" class="edge">
<title>Node6&#45;&gt;Node1</title>
<path fill="none" stroke="#9a32cd" stroke-dasharray="5,2" d="M299.15,-839.21C406.08,-844.28 702.71,-852.53 775,-793.08 821.55,-754.8 854.8,-558.29 863.02,-505.28"/>
<polygon fill="#9a32cd" stroke="#9a32cd" points="299.28,-835.71 289.12,-838.72 298.93,-842.7 299.28,-835.71"/>
<text text-anchor="middle" x="561" y="-844.68" font-family="Helvetica,sans-Serif" font-size="8.00"> m_nickname</text>
</g>
<!-- Node6&#45;&gt;Node9 -->
<g id="edge11" class="edge">
<title>Node6&#45;&gt;Node9</title>
<path fill="none" stroke="#9a32cd" stroke-dasharray="5,2" d="M299.01,-826.11C313.66,-822.09 330.55,-817.66 346,-814.08 398.05,-802.02 411.57,-801.38 464,-791.08 477.42,-788.45 491.89,-785.59 505.43,-782.91"/>
<polygon fill="#9a32cd" stroke="#9a32cd" points="297.97,-822.76 289.26,-828.8 299.83,-829.51 297.97,-822.76"/>
<text text-anchor="middle" x="405" y="-816.68" font-family="Helvetica,sans-Serif" font-size="8.00"> m_nickname</text>
</g>
<!-- Node6&#45;&gt;Node18 -->
<g id="edge22" class="edge">
<title>Node6&#45;&gt;Node18</title>
<path fill="none" stroke="#9a32cd" stroke-dasharray="5,2" d="M296.16,-848.86C337.47,-863.01 407.15,-888.45 464,-917.08 492.09,-931.23 522.56,-951.13 541.47,-964.07"/>
<polygon fill="#9a32cd" stroke="#9a32cd" points="297.13,-845.49 286.54,-845.59 294.88,-852.12 297.13,-845.49"/>
<text text-anchor="middle" x="405" y="-919.68" font-family="Helvetica,sans-Serif" font-size="8.00"> m_nickname</text>
</g>
<!-- Node7 -->
<g id="node7" class="node">
<title>Node7</title>
<g id="a_node7"><a xlink:title=" ">
<polygon fill="white" stroke="black" points="11.5,-824.08 11.5,-850.08 102.5,-850.08 102.5,-824.08 11.5,-824.08"/>
<text text-anchor="start" x="19.5" y="-839.68" font-family="Helvetica,sans-Serif" font-size="8.00">std::basic_string&lt;</text>
<text text-anchor="middle" x="57" y="-830.68" font-family="Helvetica,sans-Serif" font-size="8.00"> Char &gt;</text>
</a>
</g>
</g>
<!-- Node7&#45;&gt;Node6 -->
<g id="edge6" class="edge">
<title>Node7&#45;&gt;Node6</title>
<path fill="none" stroke="midnightblue" d="M113.11,-837.08C150.96,-837.08 199.66,-837.08 229.98,-837.08"/>
<polygon fill="midnightblue" stroke="midnightblue" points="112.75,-833.58 102.75,-837.08 112.75,-840.58 112.75,-833.58"/>
</g>
<!-- Node8 -->
<g id="node8" class="node">
<title>Node8</title>
<g id="a_node8"><a xlink:title=" ">
<polygon fill="white" stroke="#bfbfbf" points="542,-595.58 542,-612.58 580,-612.58 580,-595.58 542,-595.58"/>
<text text-anchor="middle" x="561" y="-602.18" font-family="Helvetica,sans-Serif" font-size="8.00">State</text>
</a>
</g>
</g>
<!-- Node8&#45;&gt;Node1 -->
<g id="edge7" class="edge">
<title>Node8&#45;&gt;Node1</title>
<path fill="none" stroke="#9a32cd" stroke-dasharray="5,2" d="M590.39,-608.21C632.84,-613.05 714.38,-617.09 775,-588.08 813.54,-569.64 843.8,-526.92 857.31,-505.23"/>
<polygon fill="#9a32cd" stroke="#9a32cd" points="590.58,-604.71 580.23,-606.95 589.72,-611.65 590.58,-604.71"/>
<text text-anchor="middle" x="716.5" y="-613.68" font-family="Helvetica,sans-Serif" font-size="8.00"> m_state</text>
</g>
<!-- Node9&#45;&gt;Node1 -->
<g id="edge8" class="edge">
<title>Node9&#45;&gt;Node1</title>
<path fill="none" stroke="#9a32cd" stroke-dasharray="5,2" d="M626.78,-780.54C672.93,-782.93 733.83,-778.21 775,-745.08 852.73,-682.54 863.4,-547.77 864.8,-505.23"/>
<polygon fill="#9a32cd" stroke="#9a32cd" points="626.78,-777.03 616.58,-779.89 626.33,-784.02 626.78,-777.03"/>
<text text-anchor="middle" x="716.5" y="-782.68" font-family="Helvetica,sans-Serif" font-size="8.00"> m_protocol_negotiator</text>
</g>
<!-- Node10 -->
<g id="node10" class="node">
<title>Node10</title>
<g id="a_node10"><a xlink:title=" ">
<polygon fill="white" stroke="#bfbfbf" points="207,-759.08 207,-785.08 312,-785.08 312,-759.08 207,-759.08"/>
<text text-anchor="start" x="215" y="-774.68" font-family="Helvetica,sans-Serif" font-size="8.00">static constexpr proto</text>
<text text-anchor="middle" x="259.5" y="-765.68" font-family="Helvetica,sans-Serif" font-size="8.00">_ver_t</text>
</a>
</g>
</g>
<!-- Node10&#45;&gt;Node9 -->
<g id="edge10" class="edge">
<title>Node10&#45;&gt;Node9</title>
<path fill="none" stroke="#9a32cd" stroke-dasharray="5,2" d="M322.44,-772.08C376.31,-772.08 453.63,-772.08 505.26,-772.08"/>
<polygon fill="#9a32cd" stroke="#9a32cd" points="322.33,-768.58 312.33,-772.08 322.33,-775.58 322.33,-768.58"/>
<text text-anchor="middle" x="405" y="-783.68" font-family="Helvetica,sans-Serif" font-size="8.00"> S_VER_UNKNOWN</text>
<text text-anchor="middle" x="405" y="-774.68" font-family="Helvetica,sans-Serif" font-size="8.00">S_VER_UNSUPPORTED</text>
</g>
<!-- Node11 -->
<g id="node11" class="node">
<title>Node11</title>
<g id="a_node11"><a xlink:title=" ">
<polygon fill="white" stroke="#bfbfbf" points="237.5,-713.58 237.5,-730.58 281.5,-730.58 281.5,-713.58 237.5,-713.58"/>
<text text-anchor="middle" x="259.5" y="-720.18" font-family="Helvetica,sans-Serif" font-size="8.00">int16_t</text>
</a>
</g>
</g>
<!-- Node11&#45;&gt;Node9 -->
<g id="edge12" class="edge">
<title>Node11&#45;&gt;Node9</title>
<path fill="none" stroke="#9a32cd" stroke-dasharray="5,2" d="M291.75,-722.88C331.97,-724.39 403.83,-728.71 464,-741.08 484.93,-745.39 507.71,-752.63 525.83,-759.03"/>
<polygon fill="#9a32cd" stroke="#9a32cd" points="291.64,-719.37 281.52,-722.53 291.4,-726.37 291.64,-719.37"/>
<text text-anchor="middle" x="405" y="-761.68" font-family="Helvetica,sans-Serif" font-size="8.00"> m_local_max_proto_ver</text>
<text text-anchor="middle" x="405" y="-752.68" font-family="Helvetica,sans-Serif" font-size="8.00">m_local_min_proto_ver</text>
<text text-anchor="middle" x="405" y="-743.68" font-family="Helvetica,sans-Serif" font-size="8.00">m_negotiated_proto_ver</text>
</g>
<!-- Node12 -->
<g id="node12" class="node">
<title>Node12</title>
<g id="a_node12"><a xlink:title=" ">
<polygon fill="white" stroke="#bfbfbf" points="242,-663.58 242,-680.58 277,-680.58 277,-663.58 242,-663.58"/>
<text text-anchor="middle" x="259.5" y="-670.18" font-family="Helvetica,sans-Serif" font-size="8.00">bool</text>
</a>
</g>
</g>
<!-- Node12&#45;&gt;Node1 -->
<g id="edge31" class="edge">
<title>Node12&#45;&gt;Node1</title>
<path fill="none" stroke="#9a32cd" stroke-dasharray="5,2" d="M286.79,-663.93C327.84,-652.86 408.24,-637.98 464,-671.08 478.37,-679.61 467.73,-695.39 482,-704.08 537.61,-737.96 720.82,-744.2 775,-708.08 846.32,-660.54 861.21,-544.63 864.25,-505.35"/>
<polygon fill="#9a32cd" stroke="#9a32cd" points="285.67,-660.61 277.01,-666.7 287.58,-667.34 285.67,-660.61"/>
<text text-anchor="middle" x="561" y="-734.68" font-family="Helvetica,sans-Serif" font-size="8.00"> m_snd_finished</text>
</g>
<!-- Node12&#45;&gt;Node9 -->
<g id="edge13" class="edge">
<title>Node12&#45;&gt;Node9</title>
<path fill="none" stroke="#9a32cd" stroke-dasharray="5,2" d="M287.22,-670.82C328.91,-670.19 410.22,-674.54 464,-713.08 476.95,-722.36 469.76,-733.88 482,-744.08 489.41,-750.25 498.28,-755.11 507.34,-758.92"/>
<polygon fill="#9a32cd" stroke="#9a32cd" points="286.95,-667.32 277.04,-671.08 287.13,-674.32 286.95,-667.32"/>
<text text-anchor="middle" x="405" y="-715.68" font-family="Helvetica,sans-Serif" font-size="8.00"> m_local_max_proto_ver_sent</text>
</g>
<!-- Node13 -->
<g id="node13" class="node">
<title>Node13</title>
<g id="a_node13"><a xlink:title=" ">
<polygon fill="white" stroke="#bfbfbf" points="527.5,-559.58 527.5,-576.58 594.5,-576.58 594.5,-559.58 527.5,-559.58"/>
<text text-anchor="middle" x="561" y="-566.18" font-family="Helvetica,sans-Serif" font-size="8.00">Task_engine</text>
</a>
</g>
</g>
<!-- Node13&#45;&gt;Node1 -->
<g id="edge14" class="edge">
<title>Node13&#45;&gt;Node1</title>
<path fill="none" stroke="#9a32cd" stroke-dasharray="5,2" d="M604.68,-564.42C648.24,-559.91 717.41,-550.59 775,-533.08 798.16,-526.04 823.11,-514.32 840.85,-505.21"/>
<polygon fill="#9a32cd" stroke="#9a32cd" points="604.33,-560.94 594.72,-565.41 605.02,-567.9 604.33,-560.94"/>
<text text-anchor="start" x="667" y="-577.68" font-family="Helvetica,sans-Serif" font-size="8.00"> m_ev_hndl_task_engine</text>
<text text-anchor="middle" x="716.5" y="-568.68" font-family="Helvetica,sans-Serif" font-size="8.00">_unused</text>
<text text-anchor="middle" x="716.5" y="-559.68" font-family="Helvetica,sans-Serif" font-size="8.00">m_nb_task_engine</text>
</g>
<!-- Node14 -->
<g id="node14" class="node">
<title>Node14</title>
<g id="a_node14"><a xlink:title=" ">
<polygon fill="white" stroke="#bfbfbf" points="489.5,-514.08 489.5,-540.08 632.5,-540.08 632.5,-514.08 489.5,-514.08"/>
<text text-anchor="start" x="497.5" y="-529.68" font-family="Helvetica,sans-Serif" font-size="8.00">unique_ptr&lt; asio_local</text>
<text text-anchor="middle" x="561" y="-520.68" font-family="Helvetica,sans-Serif" font-size="8.00">_stream_socket::Peer_socket &gt;</text>
</a>
</g>
</g>
<!-- Node14&#45;&gt;Node1 -->
<g id="edge15" class="edge">
<title>Node14&#45;&gt;Node1</title>
<path fill="none" stroke="#9a32cd" stroke-dasharray="5,2" d="M642.92,-522.2C682.79,-519.3 731.53,-515.01 775,-509.08 783.19,-507.97 791.77,-506.6 800.24,-505.14"/>
<polygon fill="#9a32cd" stroke="#9a32cd" points="642.44,-518.73 632.71,-522.93 642.94,-525.71 642.44,-518.73"/>
<text text-anchor="middle" x="716.5" y="-522.68" font-family="Helvetica,sans-Serif" font-size="8.00"> m_peer_socket</text>
</g>
<!-- Node15 -->
<g id="node15" class="node">
<title>Node15</title>
<g id="a_node15"><a xlink:href="classipc_1_1util_1_1sync__io_1_1Asio__waitable__native__handle.html" target="_top" xlink:title="Useful if using the sync_io pattern within a user event loop built on boost.asio (optionally with flo...">
<polygon fill="white" stroke="black" points="507,-459.58 507,-494.58 615,-494.58 615,-459.58 507,-459.58"/>
<text text-anchor="start" x="515" y="-484.18" font-family="Helvetica,sans-Serif" font-size="8.00">ipc::util::sync_io</text>
<text text-anchor="start" x="515" y="-475.18" font-family="Helvetica,sans-Serif" font-size="8.00">::Asio_waitable_native</text>
<text text-anchor="middle" x="561" y="-466.18" font-family="Helvetica,sans-Serif" font-size="8.00">_handle</text>
</a>
</g>
</g>
<!-- Node15&#45;&gt;Node1 -->
<g id="edge16" class="edge">
<title>Node15&#45;&gt;Node1</title>
<path fill="none" stroke="#9a32cd" stroke-dasharray="5,2" d="M625.08,-460.51C635.99,-458.25 647.27,-456.3 658,-455.08 709.67,-449.24 723.99,-445.01 775,-455.08 798.2,-459.67 822.94,-470.3 840.6,-479"/>
<polygon fill="#9a32cd" stroke="#9a32cd" points="624.23,-457.11 615.2,-462.65 625.72,-463.95 624.23,-457.11"/>
<text text-anchor="start" x="659" y="-502.68" font-family="Helvetica,sans-Serif" font-size="8.00"> m_ev_wait_hndl_peer</text>
<text text-anchor="middle" x="716.5" y="-493.68" font-family="Helvetica,sans-Serif" font-size="8.00">_socket</text>
<text text-anchor="start" x="659" y="-484.68" font-family="Helvetica,sans-Serif" font-size="8.00">m_rcv_ev_wait_hndl</text>
<text text-anchor="middle" x="716.5" y="-475.68" font-family="Helvetica,sans-Serif" font-size="8.00">_idle_timer_fired_peer</text>
<text text-anchor="start" x="659" y="-466.68" font-family="Helvetica,sans-Serif" font-size="8.00">m_snd_ev_wait_hndl</text>
<text text-anchor="middle" x="716.5" y="-457.68" font-family="Helvetica,sans-Serif" font-size="8.00">_auto_ping_timer_fired_peer</text>
</g>
<!-- Node16 -->
<g id="node16" class="node">
<title>Node16</title>
<g id="a_node16"><a xlink:title=" ">
<polygon fill="white" stroke="#bfbfbf" points="214,-464.08 214,-490.08 305,-490.08 305,-464.08 214,-464.08"/>
<text text-anchor="start" x="222" y="-479.68" font-family="Helvetica,sans-Serif" font-size="8.00">boost::asio::posix</text>
<text text-anchor="middle" x="259.5" y="-470.68" font-family="Helvetica,sans-Serif" font-size="8.00">::descriptor</text>
</a>
</g>
</g>
<!-- Node16&#45;&gt;Node15 -->
<g id="edge17" class="edge">
<title>Node16&#45;&gt;Node15</title>
<path fill="none" stroke="darkgreen" d="M315.19,-477.08C369.72,-477.08 452.92,-477.08 506.89,-477.08"/>
<polygon fill="darkgreen" stroke="darkgreen" points="315.01,-473.58 305.01,-477.08 315.01,-480.58 315.01,-473.58"/>
</g>
<!-- Node17 -->
<g id="node17" class="node">
<title>Node17</title>
<g id="a_node17"><a xlink:title=" ">
<polygon fill="white" stroke="#bfbfbf" points="510.5,-423.58 510.5,-440.58 611.5,-440.58 611.5,-423.58 510.5,-423.58"/>
<text text-anchor="middle" x="561" y="-430.18" font-family="Helvetica,sans-Serif" font-size="8.00">Mutex_non_recursive</text>
</a>
</g>
</g>
<!-- Node17&#45;&gt;Node1 -->
<g id="edge18" class="edge">
<title>Node17&#45;&gt;Node1</title>
<path fill="none" stroke="#9a32cd" stroke-dasharray="5,2" d="M621.91,-424.36C665.33,-420.81 724.96,-420.19 775,-435.08 804.25,-443.79 833.18,-464.95 850.06,-478.9"/>
<polygon fill="#9a32cd" stroke="#9a32cd" points="621.44,-420.89 611.79,-425.27 622.06,-427.86 621.44,-420.89"/>
<text text-anchor="middle" x="716.5" y="-437.68" font-family="Helvetica,sans-Serif" font-size="8.00"> m_peer_socket_mutex</text>
</g>
<!-- Node18&#45;&gt;Node1 -->
<g id="edge19" class="edge">
<title>Node18&#45;&gt;Node1</title>
<path fill="none" stroke="#9a32cd" stroke-dasharray="5,2" d="M623.9,-981.32C671.62,-981.02 735.87,-972.31 775,-933.08 837.64,-870.3 859.96,-572.11 864.21,-505.36"/>
<polygon fill="#9a32cd" stroke="#9a32cd" points="623.7,-977.82 613.68,-981.25 623.66,-984.82 623.7,-977.82"/>
<text text-anchor="middle" x="716.5" y="-981.68" font-family="Helvetica,sans-Serif" font-size="8.00"> m_timer_worker</text>
</g>
<!-- Node19 -->
<g id="node19" class="node">
<title>Node19</title>
<g id="a_node19"><a xlink:title=" ">
<polygon fill="white" stroke="#bfbfbf" points="201.5,-1045.58 201.5,-1062.58 317.5,-1062.58 317.5,-1045.58 201.5,-1045.58"/>
<text text-anchor="middle" x="259.5" y="-1052.18" font-family="Helvetica,sans-Serif" font-size="8.00">Single_thread_task_loop</text>
</a>
</g>
</g>
<!-- Node19&#45;&gt;Node18 -->
<g id="edge23" class="edge">
<title>Node19&#45;&gt;Node18</title>
<path fill="none" stroke="#9a32cd" stroke-dasharray="5,2" d="M322.46,-1043.73C363.08,-1036.34 417.13,-1025.39 464,-1012.08 485.67,-1005.93 509.47,-997.27 527.95,-990.1"/>
<polygon fill="#9a32cd" stroke="#9a32cd" points="321.66,-1040.31 312.44,-1045.52 322.9,-1047.2 321.66,-1040.31"/>
<text text-anchor="middle" x="405" y="-1040.68" font-family="Helvetica,sans-Serif" font-size="8.00"> m_worker</text>
</g>
<!-- Node20 -->
<g id="node20" class="node">
<title>Node20</title>
<g id="a_node20"><a xlink:title=" ">
<polygon fill="white" stroke="black" points="194,-991.58 194,-1026.58 325,-1026.58 325,-991.58 194,-991.58"/>
<text text-anchor="start" x="202" y="-1016.18" font-family="Helvetica,sans-Serif" font-size="8.00">std::vector&lt; boost</text>
<text text-anchor="start" x="202" y="-1007.18" font-family="Helvetica,sans-Serif" font-size="8.00">::movelib::unique_ptr</text>
<text text-anchor="middle" x="259.5" y="-998.18" font-family="Helvetica,sans-Serif" font-size="8.00">&lt; Timer_fired_read_end &gt; &gt;</text>
</a>
</g>
</g>
<!-- Node20&#45;&gt;Node18 -->
<g id="edge24" class="edge">
<title>Node20&#45;&gt;Node18</title>
<path fill="none" stroke="#9a32cd" stroke-dasharray="5,2" d="M335.32,-1001.09C389.28,-995.32 460.73,-987.69 508.42,-982.59"/>
<polygon fill="#9a32cd" stroke="#9a32cd" points="334.69,-997.64 325.12,-1002.18 335.43,-1004.6 334.69,-997.64"/>
<text text-anchor="middle" x="405" y="-1001.68" font-family="Helvetica,sans-Serif" font-size="8.00"> m_signal_pipe_readers</text>
</g>
<!-- Node21 -->
<g id="node21" class="node">
<title>Node21</title>
<g id="a_node21"><a xlink:title=" ">
<polygon fill="white" stroke="#bfbfbf" points="0,-996.08 0,-1022.08 114,-1022.08 114,-996.08 0,-996.08"/>
<text text-anchor="start" x="8" y="-1011.68" font-family="Helvetica,sans-Serif" font-size="8.00">unique_ptr&lt; Timer_fired</text>
<text text-anchor="middle" x="57" y="-1002.68" font-family="Helvetica,sans-Serif" font-size="8.00">_read_end &gt;</text>
</a>
</g>
</g>
<!-- Node21&#45;&gt;Node20 -->
<g id="edge25" class="edge">
<title>Node21&#45;&gt;Node20</title>
<path fill="none" stroke="#9a32cd" stroke-dasharray="5,2" d="M124.21,-1009.08C146.63,-1009.08 171.61,-1009.08 193.9,-1009.08"/>
<polygon fill="#9a32cd" stroke="#9a32cd" points="124.12,-1005.58 114.12,-1009.08 124.12,-1012.58 124.12,-1005.58"/>
<text text-anchor="middle" x="152.5" y="-1011.68" font-family="Helvetica,sans-Serif" font-size="8.00"> elements</text>
</g>
<!-- Node22 -->
<g id="node22" class="node">
<title>Node22</title>
<g id="a_node22"><a xlink:title=" ">
<polygon fill="white" stroke="#bfbfbf" points="191,-928.08 191,-972.08 328,-972.08 328,-928.08 191,-928.08"/>
<text text-anchor="start" x="199" y="-961.68" font-family="Helvetica,sans-Serif" font-size="8.00">unordered_map&lt; Timer</text>
<text text-anchor="start" x="199" y="-952.68" font-family="Helvetica,sans-Serif" font-size="8.00">_fired_read_end *, boost</text>
<text text-anchor="start" x="199" y="-943.68" font-family="Helvetica,sans-Serif" font-size="8.00">::movelib::unique_ptr&lt; boost</text>
<text text-anchor="middle" x="259.5" y="-934.68" font-family="Helvetica,sans-Serif" font-size="8.00">::asio::writable_pipe &gt; &gt;</text>
</a>
</g>
</g>
<!-- Node22&#45;&gt;Node18 -->
<g id="edge26" class="edge">
<title>Node22&#45;&gt;Node18</title>
<path fill="none" stroke="#9a32cd" stroke-dasharray="5,2" d="M338.21,-957.09C391.66,-961.91 461.19,-968.18 508.03,-972.4"/>
<polygon fill="#9a32cd" stroke="#9a32cd" points="338.36,-953.59 328.09,-956.18 337.73,-960.56 338.36,-953.59"/>
<text text-anchor="middle" x="405" y="-970.68" font-family="Helvetica,sans-Serif" font-size="8.00"> m_signal_pipe_writers</text>
</g>
<!-- Node23 -->
<g id="node23" class="node">
<title>Node23</title>
<g id="a_node23"><a xlink:title=" ">
<polygon fill="white" stroke="#bfbfbf" points="499.5,-342.08 499.5,-404.08 622.5,-404.08 622.5,-342.08 499.5,-342.08"/>
<text text-anchor="start" x="507.5" y="-393.68" font-family="Helvetica,sans-Serif" font-size="8.00">Function&lt; void(Asio</text>
<text text-anchor="start" x="507.5" y="-384.68" font-family="Helvetica,sans-Serif" font-size="8.00">_waitable_native_handle</text>
<text text-anchor="start" x="507.5" y="-375.68" font-family="Helvetica,sans-Serif" font-size="8.00"> *hndl_of_interest, bool</text>
<text text-anchor="start" x="507.5" y="-366.68" font-family="Helvetica,sans-Serif" font-size="8.00"> ev_of_interest_snd_else</text>
<text text-anchor="start" x="507.5" y="-357.68" font-family="Helvetica,sans-Serif" font-size="8.00">_rcv, Task_ptr &amp;&amp;on_active</text>
<text text-anchor="middle" x="561" y="-348.68" font-family="Helvetica,sans-Serif" font-size="8.00">_ev_func)&gt;</text>
</a>
</g>
</g>
<!-- Node23&#45;&gt;Node1 -->
<g id="edge27" class="edge">
<title>Node23&#45;&gt;Node1</title>
<path fill="none" stroke="#9a32cd" stroke-dasharray="5,2" d="M632.74,-366.24C675.99,-365.08 731.21,-369.19 775,-391.08 814.7,-410.93 844.84,-456.52 857.89,-479.03"/>
<polygon fill="#9a32cd" stroke="#9a32cd" points="632.45,-362.75 622.59,-366.61 632.71,-369.74 632.45,-362.75"/>
<text text-anchor="middle" x="716.5" y="-411.68" font-family="Helvetica,sans-Serif" font-size="8.00"> m_conn_ev_wait_func</text>
<text text-anchor="middle" x="716.5" y="-402.68" font-family="Helvetica,sans-Serif" font-size="8.00">m_rcv_ev_wait_func</text>
<text text-anchor="middle" x="716.5" y="-393.68" font-family="Helvetica,sans-Serif" font-size="8.00">m_snd_ev_wait_func</text>
</g>
<!-- Node24 -->
<g id="node24" class="node">
<title>Node24</title>
<g id="a_node24"><a xlink:title=" ">
<polygon fill="white" stroke="black" points="509,-297.08 509,-323.08 613,-323.08 613,-297.08 509,-297.08"/>
<text text-anchor="start" x="517" y="-312.68" font-family="Helvetica,sans-Serif" font-size="8.00">std::queue&lt; Snd_low</text>
<text text-anchor="middle" x="561" y="-303.68" font-family="Helvetica,sans-Serif" font-size="8.00">_lvl_payload::Ptr &gt;</text>
</a>
</g>
</g>
<!-- Node24&#45;&gt;Node1 -->
<g id="edge28" class="edge">
<title>Node24&#45;&gt;Node1</title>
<path fill="none" stroke="#9a32cd" stroke-dasharray="5,2" d="M623.19,-310.04C668.62,-312.78 730.21,-322.59 775,-353.08 822.05,-385.12 850.16,-450.75 860.48,-478.84"/>
<polygon fill="#9a32cd" stroke="#9a32cd" points="623.34,-306.54 613.18,-309.53 622.99,-313.53 623.34,-306.54"/>
<text text-anchor="middle" x="716.5" y="-355.68" font-family="Helvetica,sans-Serif" font-size="8.00"> m_snd_pending_payloads_q</text>
</g>
<!-- Node25 -->
<g id="node25" class="node">
<title>Node25</title>
<g id="a_node25"><a xlink:title=" ">
<polygon fill="white" stroke="#bfbfbf" points="245,-301.58 245,-318.58 274,-318.58 274,-301.58 245,-301.58"/>
<text text-anchor="middle" x="259.5" y="-308.18" font-family="Helvetica,sans-Serif" font-size="8.00">Ptr</text>
</a>
</g>
</g>
<!-- Node25&#45;&gt;Node24 -->
<g id="edge29" class="edge">
<title>Node25&#45;&gt;Node24</title>
<path fill="none" stroke="#9a32cd" stroke-dasharray="5,2" d="M284.25,-310.08C332.58,-310.08 443.3,-310.08 508.8,-310.08"/>
<polygon fill="#9a32cd" stroke="#9a32cd" points="284.15,-306.58 274.15,-310.08 284.15,-313.58 284.15,-306.58"/>
<text text-anchor="middle" x="405" y="-312.68" font-family="Helvetica,sans-Serif" font-size="8.00"> elements</text>
</g>
<!-- Node26 -->
<g id="node26" class="node">
<title>Node26</title>
<g id="a_node26"><a xlink:title=" ">
<polygon fill="white" stroke="#bfbfbf" points="531,-260.58 531,-277.58 591,-277.58 591,-260.58 531,-260.58"/>
<text text-anchor="middle" x="561" y="-267.18" font-family="Helvetica,sans-Serif" font-size="8.00">Error_code</text>
</a>
</g>
</g>
<!-- Node26&#45;&gt;Node1 -->
<g id="edge30" class="edge">
<title>Node26&#45;&gt;Node1</title>
<path fill="none" stroke="#9a32cd" stroke-dasharray="5,2" d="M601.27,-268.56C655.07,-268.61 748.11,-271.62 775,-291.08 839.74,-337.93 858.76,-442.25 863.56,-478.98"/>
<polygon fill="#9a32cd" stroke="#9a32cd" points="601.05,-265.06 591.06,-268.59 601.07,-272.06 601.05,-265.06"/>
<text text-anchor="middle" x="716.5" y="-302.68" font-family="Helvetica,sans-Serif" font-size="8.00"> m_rcv_pending_err_code</text>
<text text-anchor="middle" x="716.5" y="-293.68" font-family="Helvetica,sans-Serif" font-size="8.00">m_snd_pending_err_code</text>
</g>
<!-- Node27 -->
<g id="node27" class="node">
<title>Node27</title>
<g id="a_node27"><a xlink:title=" ">
<polygon fill="white" stroke="#bfbfbf" points="525.5,-224.58 525.5,-241.58 596.5,-241.58 596.5,-224.58 525.5,-224.58"/>
<text text-anchor="middle" x="561" y="-231.18" font-family="Helvetica,sans-Serif" font-size="8.00">Task_asio_err</text>
</a>
</g>
</g>
<!-- Node27&#45;&gt;Node1 -->
<g id="edge32" class="edge">
<title>Node27&#45;&gt;Node1</title>
<path fill="none" stroke="#9a32cd" stroke-dasharray="5,2" d="M606.69,-230.48C661.23,-228.24 749.35,-227.9 775,-247.08 852.47,-305.03 863.32,-436.73 864.79,-478.86"/>
<polygon fill="#9a32cd" stroke="#9a32cd" points="606.42,-226.99 596.59,-230.94 606.74,-233.99 606.42,-226.99"/>
<text text-anchor="start" x="660.5" y="-258.68" font-family="Helvetica,sans-Serif" font-size="8.00"> m_snd_pending_on_last</text>
<text text-anchor="middle" x="716.5" y="-249.68" font-family="Helvetica,sans-Serif" font-size="8.00">_send_done_func_or_empty</text>
</g>
<!-- Node28 -->
<g id="node28" class="node">
<title>Node28</title>
<g id="a_node28"><a xlink:title=" ">
<polygon fill="white" stroke="#bfbfbf" points="525.5,-188.58 525.5,-205.58 596.5,-205.58 596.5,-188.58 525.5,-188.58"/>
<text text-anchor="middle" x="561" y="-195.18" font-family="Helvetica,sans-Serif" font-size="8.00">Fine_duration</text>
</a>
</g>
</g>
<!-- Node28&#45;&gt;Node1 -->
<g id="edge33" class="edge">
<title>Node28&#45;&gt;Node1</title>
<path fill="none" stroke="#9a32cd" stroke-dasharray="5,2" d="M606.78,-193.39C661.42,-189.85 749.64,-187.57 775,-207.08 864.23,-275.75 866.85,-432.78 865.58,-479.04"/>
<polygon fill="#9a32cd" stroke="#9a32cd" points="606.4,-189.91 596.66,-194.08 606.88,-196.89 606.4,-189.91"/>
<text text-anchor="middle" x="716.5" y="-218.68" font-family="Helvetica,sans-Serif" font-size="8.00"> m_rcv_idle_timeout</text>
<text text-anchor="middle" x="716.5" y="-209.68" font-family="Helvetica,sans-Serif" font-size="8.00">m_snd_auto_ping_period</text>
</g>
<!-- Node29 -->
<g id="node29" class="node">
<title>Node29</title>
<g id="a_node29"><a xlink:title=" ">
<polygon fill="white" stroke="#bfbfbf" points="541.5,-152.58 541.5,-169.58 580.5,-169.58 580.5,-152.58 541.5,-152.58"/>
<text text-anchor="middle" x="561" y="-159.18" font-family="Helvetica,sans-Serif" font-size="8.00">Timer</text>
</a>
</g>
</g>
<!-- Node29&#45;&gt;Node1 -->
<g id="edge34" class="edge">
<title>Node29&#45;&gt;Node1</title>
<path fill="none" stroke="#9a32cd" stroke-dasharray="5,2" d="M590.54,-152.4C635.08,-140.76 721.55,-126.06 775,-168.08 826.05,-208.23 856.35,-423.34 863.4,-478.95"/>
<polygon fill="#9a32cd" stroke="#9a32cd" points="589.39,-149.09 580.67,-155.11 591.24,-155.84 589.39,-149.09"/>
<text text-anchor="middle" x="716.5" y="-179.68" font-family="Helvetica,sans-Serif" font-size="8.00"> m_rcv_idle_timer</text>
<text text-anchor="middle" x="716.5" y="-170.68" font-family="Helvetica,sans-Serif" font-size="8.00">m_snd_auto_ping_timer</text>
</g>
<!-- Node30 -->
<g id="node30" class="node">
<title>Node30</title>
<g id="a_node30"><a xlink:title=" ">
<polygon fill="white" stroke="#bfbfbf" points="506,-100.58 506,-117.58 616,-117.58 616,-100.58 506,-100.58"/>
<text text-anchor="middle" x="561" y="-107.18" font-family="Helvetica,sans-Serif" font-size="8.00">Timer_fired_read_end *</text>
</a>
</g>
</g>
<!-- Node30&#45;&gt;Node1 -->
<g id="edge35" class="edge">
<title>Node30&#45;&gt;Node1</title>
<path fill="none" stroke="#9a32cd" stroke-dasharray="5,2" d="M616.7,-98.92C671.64,-90.06 751.42,-81.31 775,-100.08 836.58,-149.13 859.51,-415.93 864.09,-478.81"/>
<polygon fill="#9a32cd" stroke="#9a32cd" points="616.05,-95.48 606.75,-100.57 617.19,-102.39 616.05,-95.48"/>
<text text-anchor="start" x="668.5" y="-129.68" font-family="Helvetica,sans-Serif" font-size="8.00"> m_rcv_idle_timer_fired</text>
<text text-anchor="middle" x="716.5" y="-120.68" font-family="Helvetica,sans-Serif" font-size="8.00">_peer</text>
<text text-anchor="start" x="668.5" y="-111.68" font-family="Helvetica,sans-Serif" font-size="8.00">m_snd_auto_ping_timer</text>
<text text-anchor="middle" x="716.5" y="-102.68" font-family="Helvetica,sans-Serif" font-size="8.00">_fired_peer</text>
</g>
<!-- Node31 -->
<g id="node31" class="node">
<title>Node31</title>
<g id="a_node31"><a xlink:title=" ">
<polygon fill="white" stroke="#bfbfbf" points="482,-46.58 482,-81.58 640,-81.58 640,-46.58 482,-46.58"/>
<text text-anchor="start" x="490" y="-71.18" font-family="Helvetica,sans-Serif" font-size="8.00">optional&lt; ipc::transport</text>
<text text-anchor="start" x="490" y="-62.18" font-family="Helvetica,sans-Serif" font-size="8.00">::sync_io::Native_socket</text>
<text text-anchor="middle" x="561" y="-53.18" font-family="Helvetica,sans-Serif" font-size="8.00">_stream::Impl::Rcv_user_request &gt;</text>
</a>
</g>
</g>
<!-- Node31&#45;&gt;Node1 -->
<g id="edge36" class="edge">
<title>Node31&#45;&gt;Node1</title>
<path fill="none" stroke="#9a32cd" stroke-dasharray="5,2" d="M650.18,-45.69C692.52,-42.1 741.25,-46.37 775,-75.08 838.89,-129.43 860.18,-414.04 864.24,-478.91"/>
<polygon fill="#9a32cd" stroke="#9a32cd" points="649.73,-42.22 640.13,-46.7 650.43,-49.18 649.73,-42.22"/>
<text text-anchor="middle" x="716.5" y="-77.68" font-family="Helvetica,sans-Serif" font-size="8.00"> m_rcv_user_request</text>
</g>
<!-- Node32 -->
<g id="node32" class="node">
<title>Node32</title>
<g id="a_node32"><a xlink:title=" ">
<polygon fill="white" stroke="#bfbfbf" points="536,-10.58 536,-27.58 586,-27.58 586,-10.58 536,-10.58"/>
<text text-anchor="middle" x="561" y="-17.18" font-family="Helvetica,sans-Serif" font-size="8.00">uint16_t</text>
</a>
</g>
</g>
<!-- Node32&#45;&gt;Node1 -->
<g id="edge37" class="edge">
<title>Node32&#45;&gt;Node1</title>
<path fill="none" stroke="#9a32cd" stroke-dasharray="5,2" d="M596.16,-9.71C642.63,0.78 725.64,11.15 775,-32.08 844.79,-93.2 861.66,-410.33 864.51,-478.97"/>
<polygon fill="#9a32cd" stroke="#9a32cd" points="595.18,-6.34 586.27,-12.07 596.81,-13.15 595.18,-6.34"/>
<text text-anchor="middle" x="716.5" y="-34.68" font-family="Helvetica,sans-Serif" font-size="8.00"> m_rcv_target_meta_length</text>
</g>
</g>
</svg>
