<?xml version="1.0" encoding="UTF-8" standalone="no"?>
<!DOCTYPE svg PUBLIC "-//W3C//DTD SVG 1.1//EN"
 "http://www.w3.org/Graphics/SVG/1.1/DTD/svg11.dtd">
<!-- Generated by graphviz version 2.43.0 (0)
 -->
<!-- Title: ipc::transport::sync_io::Blob_stream_mq_sender_impl&lt; Persistent_mq_handle &gt; Pages: 1 -->
<svg width="919pt" height="1234pt"
 viewBox="0.00 0.00 919.00 1234.00" xmlns="http://www.w3.org/2000/svg" xmlns:xlink="http://www.w3.org/1999/xlink">
<g id="graph0" class="graph" transform="scale(1 1) rotate(0) translate(4 1230)">
<title>ipc::transport::sync_io::Blob_stream_mq_sender_impl&lt; Persistent_mq_handle &gt;</title>
<polygon fill="white" stroke="transparent" points="-4,4 -4,-1230 915,-1230 915,4 -4,4"/>
<!-- Node1 -->
<g id="node1" class="node">
<title>Node1</title>
<g id="a_node1"><a xlink:title="Internal, non&#45;movable pImpl&#45;lite implementation of sync_io::Blob_stream_mq_sender class template.">
<polygon fill="#bfbfbf" stroke="black" points="766,-506.5 766,-541.5 911,-541.5 911,-506.5 766,-506.5"/>
<text text-anchor="start" x="774" y="-531.1" font-family="Helvetica,sans-Serif" font-size="8.00">ipc::transport::sync</text>
<text text-anchor="start" x="774" y="-522.1" font-family="Helvetica,sans-Serif" font-size="8.00">_io::Blob_stream_mq_sender</text>
<text text-anchor="middle" x="838.5" y="-513.1" font-family="Helvetica,sans-Serif" font-size="8.00">_impl&lt; Persistent_mq_handle &gt;</text>
</a>
</g>
</g>
<!-- Node2 -->
<g id="node2" class="node">
<title>Node2</title>
<g id="a_node2"><a xlink:href="classipc_1_1transport_1_1Blob__stream__mq__base__impl.html" target="_top" xlink:title="Internal implementation of Blob_stream_mq_base class template; and common utilities used by Blob_stre...">
<polygon fill="white" stroke="black" points="482,-1190.5 482,-1225.5 606,-1225.5 606,-1190.5 482,-1190.5"/>
<text text-anchor="start" x="490" y="-1215.1" font-family="Helvetica,sans-Serif" font-size="8.00">ipc::transport::Blob</text>
<text text-anchor="start" x="490" y="-1206.1" font-family="Helvetica,sans-Serif" font-size="8.00">_stream_mq_base_impl</text>
<text text-anchor="middle" x="544" y="-1197.1" font-family="Helvetica,sans-Serif" font-size="8.00">&lt; Persistent_mq_handle &gt;</text>
</a>
</g>
</g>
<!-- Node2&#45;&gt;Node1 -->
<g id="edge1" class="edge">
<title>Node2&#45;&gt;Node1</title>
<path fill="none" stroke="midnightblue" d="M616.47,-1216.78C660.38,-1217.94 714.46,-1211.05 748,-1177 839.73,-1083.85 839.01,-636.75 837.8,-541.76"/>
<polygon fill="midnightblue" stroke="midnightblue" points="616.55,-1213.28 606.41,-1216.37 616.26,-1220.27 616.55,-1213.28"/>
</g>
<!-- Node3 -->
<g id="node3" class="node">
<title>Node3</title>
<g id="a_node3"><a xlink:title=" ">
<polygon fill="white" stroke="#bfbfbf" points="206,-725.5 206,-742.5 313,-742.5 313,-725.5 206,-725.5"/>
<text text-anchor="middle" x="259.5" y="-732.1" font-family="Helvetica,sans-Serif" font-size="8.00">flow::log::Log_context</text>
</a>
</g>
</g>
<!-- Node3&#45;&gt;Node1 -->
<g id="edge2" class="edge">
<title>Node3&#45;&gt;Node1</title>
<path fill="none" stroke="midnightblue" d="M323.16,-738.48C438.78,-745.51 680.05,-754.08 748,-709 807.17,-669.75 828.43,-579.73 834.96,-541.59"/>
<polygon fill="midnightblue" stroke="midnightblue" points="323.24,-734.98 313.05,-737.85 322.81,-741.96 323.24,-734.98"/>
</g>
<!-- Node7 -->
<g id="node7" class="node">
<title>Node7</title>
<g id="a_node7"><a xlink:href="classipc_1_1transport_1_1Protocol__negotiator.html" target="_top" xlink:title="A simple state machine that, assuming the opposide side of a comm pathway uses an equivalent state ma...">
<polygon fill="white" stroke="black" points="488.5,-679 488.5,-705 599.5,-705 599.5,-679 488.5,-679"/>
<text text-anchor="start" x="496.5" y="-694.6" font-family="Helvetica,sans-Serif" font-size="8.00">ipc::transport::Protocol</text>
<text text-anchor="middle" x="544" y="-685.6" font-family="Helvetica,sans-Serif" font-size="8.00">_negotiator</text>
</a>
</g>
</g>
<!-- Node3&#45;&gt;Node7 -->
<g id="edge7" class="edge">
<title>Node3&#45;&gt;Node7</title>
<path fill="none" stroke="midnightblue" d="M323.23,-724.67C372.62,-717.33 440.78,-707.2 488.04,-700.17"/>
<polygon fill="midnightblue" stroke="midnightblue" points="322.68,-721.22 313.3,-726.15 323.71,-728.14 322.68,-721.22"/>
</g>
<!-- Node21 -->
<g id="node21" class="node">
<title>Node21</title>
<g id="a_node21"><a xlink:href="classipc_1_1util_1_1sync__io_1_1Timer__event__emitter.html" target="_top" xlink:title="An object of this type, used internally to implement sync_io&#45;pattern objects that require timer event...">
<polygon fill="white" stroke="black" points="491.5,-811 491.5,-837 596.5,-837 596.5,-811 491.5,-811"/>
<text text-anchor="start" x="499.5" y="-826.6" font-family="Helvetica,sans-Serif" font-size="8.00">ipc::util::sync_io</text>
<text text-anchor="middle" x="544" y="-817.6" font-family="Helvetica,sans-Serif" font-size="8.00">::Timer_event_emitter</text>
</a>
</g>
</g>
<!-- Node3&#45;&gt;Node21 -->
<g id="edge26" class="edge">
<title>Node3&#45;&gt;Node21</title>
<path fill="none" stroke="midnightblue" d="M314.04,-744.64C355.6,-753.62 414.3,-767.9 464,-786 483.02,-792.93 503.6,-802.91 518.99,-810.91"/>
<polygon fill="midnightblue" stroke="midnightblue" points="314.64,-741.19 304.13,-742.53 313.18,-748.03 314.64,-741.19"/>
</g>
<!-- Node4 -->
<g id="node4" class="node">
<title>Node4</title>
<g id="a_node4"><a xlink:title=" ">
<polygon fill="white" stroke="#bfbfbf" points="210,-925.5 210,-942.5 309,-942.5 309,-925.5 210,-925.5"/>
<text text-anchor="middle" x="259.5" y="-932.1" font-family="Helvetica,sans-Serif" font-size="8.00">boost::noncopyable</text>
</a>
</g>
</g>
<!-- Node4&#45;&gt;Node1 -->
<g id="edge3" class="edge">
<title>Node4&#45;&gt;Node1</title>
<path fill="none" stroke="#8b1a1a" d="M319.54,-939.41C422.51,-945.3 634.73,-941.07 748,-822 826,-740 836.28,-592.64 837.43,-541.81"/>
<polygon fill="#8b1a1a" stroke="#8b1a1a" points="319.53,-935.91 309.33,-938.78 319.09,-942.89 319.53,-935.91"/>
</g>
<!-- Node4&#45;&gt;Node21 -->
<g id="edge27" class="edge">
<title>Node4&#45;&gt;Node21</title>
<path fill="none" stroke="#8b1a1a" d="M302.01,-922.08C310.88,-918.77 319.98,-914.74 328,-910 337.21,-904.55 336.5,-898.94 346,-894 393.81,-869.12 413.57,-885.03 464,-866 484.49,-858.27 506.38,-846.31 521.9,-837.13"/>
<polygon fill="#8b1a1a" stroke="#8b1a1a" points="300.81,-918.79 292.54,-925.41 303.13,-925.4 300.81,-918.79"/>
</g>
<!-- Node5 -->
<g id="node5" class="node">
<title>Node5</title>
<g id="a_node5"><a xlink:title=" ">
<polygon fill="white" stroke="black" points="230,-964.5 230,-981.5 289,-981.5 289,-964.5 230,-964.5"/>
<text text-anchor="middle" x="259.5" y="-971.1" font-family="Helvetica,sans-Serif" font-size="8.00">std::string</text>
</a>
</g>
</g>
<!-- Node5&#45;&gt;Node1 -->
<g id="edge4" class="edge">
<title>Node5&#45;&gt;Node1</title>
<path fill="none" stroke="#9a32cd" stroke-dasharray="5,2" d="M299.27,-979.15C393.17,-991.57 633.49,-1008.13 748,-875 835.35,-773.45 839.3,-597.9 838.17,-541.79"/>
<polygon fill="#9a32cd" stroke="#9a32cd" points="299.46,-975.64 289.08,-977.74 298.51,-982.57 299.46,-975.64"/>
<text text-anchor="middle" x="544" y="-986.6" font-family="Helvetica,sans-Serif" font-size="8.00"> m_nickname</text>
</g>
<!-- Node5&#45;&gt;Node7 -->
<g id="edge9" class="edge">
<title>Node5&#45;&gt;Node7</title>
<path fill="none" stroke="#9a32cd" stroke-dasharray="5,2" d="M298.79,-966.96C309.16,-963.85 319.78,-959.13 328,-952 342.11,-939.75 332.23,-926.64 346,-914 387.23,-876.15 426.41,-911.47 464,-870 485,-846.84 470.33,-831 482,-802 496.84,-765.13 521.41,-725.09 534.37,-705.02"/>
<polygon fill="#9a32cd" stroke="#9a32cd" points="297.81,-963.59 289,-969.48 299.56,-970.37 297.81,-963.59"/>
<text text-anchor="middle" x="405" y="-916.6" font-family="Helvetica,sans-Serif" font-size="8.00"> m_nickname</text>
</g>
<!-- Node11 -->
<g id="node11" class="node">
<title>Node11</title>
<g id="a_node11"><a xlink:href="classipc_1_1util_1_1Shared__name.html" target="_top" xlink:title="String&#45;wrapping abstraction representing a name uniquely distinguishing a kernel&#45;persistent entity fr...">
<polygon fill="white" stroke="black" points="489,-1019.5 489,-1036.5 599,-1036.5 599,-1019.5 489,-1019.5"/>
<text text-anchor="middle" x="544" y="-1026.1" font-family="Helvetica,sans-Serif" font-size="8.00">ipc::util::Shared_name</text>
</a>
</g>
</g>
<!-- Node5&#45;&gt;Node11 -->
<g id="edge16" class="edge">
<title>Node5&#45;&gt;Node11</title>
<path fill="none" stroke="#9a32cd" stroke-dasharray="5,2" d="M288.96,-985.63C305.34,-992.4 326.48,-1000.28 346,-1005 393.53,-1016.49 448.94,-1022.31 488.87,-1025.21"/>
<polygon fill="#9a32cd" stroke="#9a32cd" points="290.01,-982.28 279.44,-981.61 287.29,-988.72 290.01,-982.28"/>
<text text-anchor="middle" x="405" y="-1025.6" font-family="Helvetica,sans-Serif" font-size="8.00"> m_raw_name</text>
</g>
<!-- Node5&#45;&gt;Node21 -->
<g id="edge28" class="edge">
<title>Node5&#45;&gt;Node21</title>
<path fill="none" stroke="#9a32cd" stroke-dasharray="5,2" d="M299.25,-971.71C342.54,-968.61 413.22,-958.51 464,-926 499.28,-903.42 525.17,-859.4 536.56,-837.31"/>
<polygon fill="#9a32cd" stroke="#9a32cd" points="298.89,-968.22 289.12,-972.34 299.32,-975.21 298.89,-968.22"/>
<text text-anchor="middle" x="405" y="-968.6" font-family="Helvetica,sans-Serif" font-size="8.00"> m_nickname</text>
</g>
<!-- Node6 -->
<g id="node6" class="node">
<title>Node6</title>
<g id="a_node6"><a xlink:title=" ">
<polygon fill="white" stroke="black" points="11.5,-960 11.5,-986 102.5,-986 102.5,-960 11.5,-960"/>
<text text-anchor="start" x="19.5" y="-975.6" font-family="Helvetica,sans-Serif" font-size="8.00">std::basic_string&lt;</text>
<text text-anchor="middle" x="57" y="-966.6" font-family="Helvetica,sans-Serif" font-size="8.00"> Char &gt;</text>
</a>
</g>
</g>
<!-- Node6&#45;&gt;Node5 -->
<g id="edge5" class="edge">
<title>Node6&#45;&gt;Node5</title>
<path fill="none" stroke="midnightblue" d="M113.11,-973C150.96,-973 199.66,-973 229.98,-973"/>
<polygon fill="midnightblue" stroke="midnightblue" points="112.75,-969.5 102.75,-973 112.75,-976.5 112.75,-969.5"/>
</g>
<!-- Node7&#45;&gt;Node1 -->
<g id="edge6" class="edge">
<title>Node7&#45;&gt;Node1</title>
<path fill="none" stroke="#9a32cd" stroke-dasharray="5,2" d="M609.89,-696.93C652.3,-697.06 707.18,-691.09 748,-665 794.17,-635.49 820.95,-572.7 831.81,-541.85"/>
<polygon fill="#9a32cd" stroke="#9a32cd" points="609.72,-693.43 599.67,-696.78 609.62,-700.43 609.72,-693.43"/>
<text text-anchor="middle" x="686" y="-698.6" font-family="Helvetica,sans-Serif" font-size="8.00"> m_protocol_negotiator</text>
</g>
<!-- Node8 -->
<g id="node8" class="node">
<title>Node8</title>
<g id="a_node8"><a xlink:title=" ">
<polygon fill="white" stroke="#bfbfbf" points="207,-613 207,-639 312,-639 312,-613 207,-613"/>
<text text-anchor="start" x="215" y="-628.6" font-family="Helvetica,sans-Serif" font-size="8.00">static constexpr proto</text>
<text text-anchor="middle" x="259.5" y="-619.6" font-family="Helvetica,sans-Serif" font-size="8.00">_ver_t</text>
</a>
</g>
</g>
<!-- Node8&#45;&gt;Node7 -->
<g id="edge8" class="edge">
<title>Node8&#45;&gt;Node7</title>
<path fill="none" stroke="#9a32cd" stroke-dasharray="5,2" d="M322.57,-616.71C364.99,-613.41 421.07,-615.25 464,-639 475.98,-645.63 471.43,-655.3 482,-664 489.2,-669.92 497.85,-674.88 506.35,-678.89"/>
<polygon fill="#9a32cd" stroke="#9a32cd" points="322.02,-613.24 312.38,-617.62 322.65,-620.21 322.02,-613.24"/>
<text text-anchor="middle" x="405" y="-650.6" font-family="Helvetica,sans-Serif" font-size="8.00"> S_VER_UNKNOWN</text>
<text text-anchor="middle" x="405" y="-641.6" font-family="Helvetica,sans-Serif" font-size="8.00">S_VER_UNSUPPORTED</text>
</g>
<!-- Node9 -->
<g id="node9" class="node">
<title>Node9</title>
<g id="a_node9"><a xlink:title=" ">
<polygon fill="white" stroke="#bfbfbf" points="237.5,-658.5 237.5,-675.5 281.5,-675.5 281.5,-658.5 237.5,-658.5"/>
<text text-anchor="middle" x="259.5" y="-665.1" font-family="Helvetica,sans-Serif" font-size="8.00">int16_t</text>
</a>
</g>
</g>
<!-- Node9&#45;&gt;Node7 -->
<g id="edge10" class="edge">
<title>Node9&#45;&gt;Node7</title>
<path fill="none" stroke="#9a32cd" stroke-dasharray="5,2" d="M291.98,-664.35C332.15,-661.61 403.68,-658.89 464,-668 478.6,-670.21 494.24,-674.52 507.72,-678.89"/>
<polygon fill="#9a32cd" stroke="#9a32cd" points="291.47,-660.88 281.75,-665.1 291.98,-667.86 291.47,-660.88"/>
<text text-anchor="middle" x="405" y="-688.6" font-family="Helvetica,sans-Serif" font-size="8.00"> m_local_max_proto_ver</text>
<text text-anchor="middle" x="405" y="-679.6" font-family="Helvetica,sans-Serif" font-size="8.00">m_local_min_proto_ver</text>
<text text-anchor="middle" x="405" y="-670.6" font-family="Helvetica,sans-Serif" font-size="8.00">m_negotiated_proto_ver</text>
</g>
<!-- Node10 -->
<g id="node10" class="node">
<title>Node10</title>
<g id="a_node10"><a xlink:title=" ">
<polygon fill="white" stroke="#bfbfbf" points="242,-564.5 242,-581.5 277,-581.5 277,-564.5 242,-564.5"/>
<text text-anchor="middle" x="259.5" y="-571.1" font-family="Helvetica,sans-Serif" font-size="8.00">bool</text>
</a>
</g>
</g>
<!-- Node10&#45;&gt;Node1 -->
<g id="edge36" class="edge">
<title>Node10&#45;&gt;Node1</title>
<path fill="none" stroke="#9a32cd" stroke-dasharray="5,2" d="M286.87,-564.56C328.65,-552.95 410.77,-537.45 464,-575 482.96,-588.37 462.98,-610.72 482,-624 530.55,-657.89 694.24,-633.81 748,-609 780.88,-593.82 809.35,-561.64 824.91,-541.52"/>
<polygon fill="#9a32cd" stroke="#9a32cd" points="285.78,-561.24 277.16,-567.4 287.74,-567.96 285.78,-561.24"/>
<text text-anchor="middle" x="544" y="-642.6" font-family="Helvetica,sans-Serif" font-size="8.00"> m_finished</text>
</g>
<!-- Node10&#45;&gt;Node7 -->
<g id="edge11" class="edge">
<title>Node10&#45;&gt;Node7</title>
<path fill="none" stroke="#9a32cd" stroke-dasharray="5,2" d="M287.46,-573.32C336.62,-574.46 438.13,-579.54 464,-602 485.67,-620.81 463.26,-642.27 482,-664 487.33,-670.18 494.3,-675.07 501.62,-678.92"/>
<polygon fill="#9a32cd" stroke="#9a32cd" points="287.33,-569.82 277.26,-573.12 287.19,-576.82 287.33,-569.82"/>
<text text-anchor="middle" x="405" y="-604.6" font-family="Helvetica,sans-Serif" font-size="8.00"> m_local_max_proto_ver_sent</text>
</g>
<!-- Node11&#45;&gt;Node1 -->
<g id="edge12" class="edge">
<title>Node11&#45;&gt;Node1</title>
<path fill="none" stroke="#9a32cd" stroke-dasharray="5,2" d="M597.92,-1037.79C643.59,-1042.97 708.3,-1041.97 748,-1005 817.62,-940.17 833.93,-620.53 836.92,-541.63"/>
<polygon fill="#9a32cd" stroke="#9a32cd" points="598.26,-1034.31 587.9,-1036.52 597.38,-1041.25 598.26,-1034.31"/>
<text text-anchor="middle" x="686" y="-1042.6" font-family="Helvetica,sans-Serif" font-size="8.00"> m_absolute_name</text>
</g>
<!-- Node11&#45;&gt;Node11 -->
<g id="edge13" class="edge">
<title>Node11&#45;&gt;Node11</title>
<path fill="none" stroke="#9a32cd" stroke-dasharray="5,2" d="M518.13,-1045.1C518.35,-1050.62 526.98,-1055 544,-1055 569.34,-1055 576.07,-1045.29 564.19,-1036.57"/>
<polygon fill="#9a32cd" stroke="#9a32cd" points="521.18,-1046.83 523.81,-1036.57 515.35,-1042.95 521.18,-1046.83"/>
<text text-anchor="middle" x="544" y="-1120.6" font-family="Helvetica,sans-Serif" font-size="8.00"> S_1ST_OR_ONLY</text>
<text text-anchor="middle" x="544" y="-1111.6" font-family="Helvetica,sans-Serif" font-size="8.00">S_EMPTY</text>
<text text-anchor="start" x="505.5" y="-1102.6" font-family="Helvetica,sans-Serif" font-size="8.00">S_RESOURCE_TYPE</text>
<text text-anchor="middle" x="544" y="-1093.6" font-family="Helvetica,sans-Serif" font-size="8.00">_ID_MUTEX</text>
<text text-anchor="start" x="505.5" y="-1084.6" font-family="Helvetica,sans-Serif" font-size="8.00">S_RESOURCE_TYPE</text>
<text text-anchor="middle" x="544" y="-1075.6" font-family="Helvetica,sans-Serif" font-size="8.00">_ID_SHM</text>
<text text-anchor="middle" x="544" y="-1066.6" font-family="Helvetica,sans-Serif" font-size="8.00">S_ROOT_MAGIC</text>
<text text-anchor="middle" x="544" y="-1057.6" font-family="Helvetica,sans-Serif" font-size="8.00">S_SENTINEL</text>
</g>
<!-- Node12 -->
<g id="node12" class="node">
<title>Node12</title>
<g id="a_node12"><a xlink:title=" ">
<polygon fill="white" stroke="#bfbfbf" points="239.5,-1107.5 239.5,-1124.5 279.5,-1124.5 279.5,-1107.5 239.5,-1107.5"/>
<text text-anchor="middle" x="259.5" y="-1114.1" font-family="Helvetica,sans-Serif" font-size="8.00">size_t</text>
</a>
</g>
</g>
<!-- Node12&#45;&gt;Node1 -->
<g id="edge20" class="edge">
<title>Node12&#45;&gt;Node1</title>
<path fill="none" stroke="#9a32cd" stroke-dasharray="5,2" d="M289.48,-1124.21C378,-1147.3 645.08,-1201.92 748,-1053 807.58,-966.79 831.57,-623.48 836.5,-541.6"/>
<polygon fill="#9a32cd" stroke="#9a32cd" points="290.16,-1120.76 279.59,-1121.56 288.35,-1127.53 290.16,-1120.76"/>
<text text-anchor="middle" x="544" y="-1155.6" font-family="Helvetica,sans-Serif" font-size="8.00"> m_mq_max_msg_sz</text>
</g>
<!-- Node12&#45;&gt;Node11 -->
<g id="edge14" class="edge">
<title>Node12&#45;&gt;Node11</title>
<path fill="none" stroke="#9a32cd" stroke-dasharray="5,2" d="M289.4,-1109.74C329.22,-1100.8 402.95,-1083.11 464,-1062 485.45,-1054.58 509.28,-1043.99 525.1,-1036.6"/>
<polygon fill="#9a32cd" stroke="#9a32cd" points="288.58,-1106.34 279.58,-1111.93 290.1,-1113.17 288.58,-1106.34"/>
<text text-anchor="middle" x="405" y="-1097.6" font-family="Helvetica,sans-Serif" font-size="8.00"> S_MAX_LENGTH</text>
</g>
<!-- Node13 -->
<g id="node13" class="node">
<title>Node13</title>
<g id="a_node13"><a xlink:title=" ">
<polygon fill="white" stroke="#bfbfbf" points="217.5,-1050.5 217.5,-1067.5 301.5,-1067.5 301.5,-1050.5 217.5,-1050.5"/>
<text text-anchor="middle" x="259.5" y="-1057.1" font-family="Helvetica,sans-Serif" font-size="8.00">static const char</text>
</a>
</g>
</g>
<!-- Node13&#45;&gt;Node11 -->
<g id="edge15" class="edge">
<title>Node13&#45;&gt;Node11</title>
<path fill="none" stroke="#9a32cd" stroke-dasharray="5,2" d="M311.88,-1053.53C353.03,-1049.13 412.23,-1042.75 464,-1037 471.96,-1036.12 480.36,-1035.17 488.61,-1034.24"/>
<polygon fill="#9a32cd" stroke="#9a32cd" points="311.39,-1050.06 301.82,-1054.6 312.14,-1057.02 311.39,-1050.06"/>
<text text-anchor="middle" x="405" y="-1051.6" font-family="Helvetica,sans-Serif" font-size="8.00"> S_SEPARATOR</text>
</g>
<!-- Node14 -->
<g id="node14" class="node">
<title>Node14</title>
<g id="a_node14"><a xlink:title=" ">
<polygon fill="white" stroke="#bfbfbf" points="496.5,-588 496.5,-614 591.5,-614 591.5,-588 496.5,-588"/>
<text text-anchor="start" x="504.5" y="-603.6" font-family="Helvetica,sans-Serif" font-size="8.00">optional&lt; flow::util</text>
<text text-anchor="middle" x="544" y="-594.6" font-family="Helvetica,sans-Serif" font-size="8.00">::Task_engine &gt;</text>
</a>
</g>
</g>
<!-- Node14&#45;&gt;Node1 -->
<g id="edge17" class="edge">
<title>Node14&#45;&gt;Node1</title>
<path fill="none" stroke="#9a32cd" stroke-dasharray="5,2" d="M601.81,-598.68C643.21,-595.68 700.2,-588.79 748,-573 770.54,-565.56 794.01,-552.48 811.25,-541.71"/>
<polygon fill="#9a32cd" stroke="#9a32cd" points="601.37,-595.2 591.63,-599.36 601.84,-602.19 601.37,-595.2"/>
<text text-anchor="middle" x="686" y="-598.6" font-family="Helvetica,sans-Serif" font-size="8.00"> m_nb_task_engine</text>
</g>
<!-- Node15 -->
<g id="node15" class="node">
<title>Node15</title>
<g id="a_node15"><a xlink:title=" ">
<polygon fill="white" stroke="#bfbfbf" points="510.5,-551.5 510.5,-568.5 577.5,-568.5 577.5,-551.5 510.5,-551.5"/>
<text text-anchor="middle" x="544" y="-558.1" font-family="Helvetica,sans-Serif" font-size="8.00">Task_engine</text>
</a>
</g>
</g>
<!-- Node15&#45;&gt;Node1 -->
<g id="edge18" class="edge">
<title>Node15&#45;&gt;Node1</title>
<path fill="none" stroke="#9a32cd" stroke-dasharray="5,2" d="M587.94,-555.53C629.06,-551.16 692.83,-544.13 748,-537 753.76,-536.26 759.73,-535.45 765.72,-534.63"/>
<polygon fill="#9a32cd" stroke="#9a32cd" points="587.31,-552.08 577.74,-556.61 588.05,-559.04 587.31,-552.08"/>
<text text-anchor="start" x="636.5" y="-562.6" font-family="Helvetica,sans-Serif" font-size="8.00"> m_ev_hndl_task_engine</text>
<text text-anchor="middle" x="686" y="-553.6" font-family="Helvetica,sans-Serif" font-size="8.00">_unused</text>
</g>
<!-- Node16 -->
<g id="node16" class="node">
<title>Node16</title>
<g id="a_node16"><a xlink:title=" ">
<polygon fill="white" stroke="#bfbfbf" points="501.5,-515.5 501.5,-532.5 586.5,-532.5 586.5,-515.5 501.5,-515.5"/>
<text text-anchor="middle" x="544" y="-522.1" font-family="Helvetica,sans-Serif" font-size="8.00">Auto_closing_mq</text>
</a>
</g>
</g>
<!-- Node16&#45;&gt;Node1 -->
<g id="edge19" class="edge">
<title>Node16&#45;&gt;Node1</title>
<path fill="none" stroke="#9a32cd" stroke-dasharray="5,2" d="M596.85,-524C643.85,-524 713.55,-524 765.85,-524"/>
<polygon fill="#9a32cd" stroke="#9a32cd" points="596.6,-520.5 586.6,-524 596.6,-527.5 596.6,-520.5"/>
<text text-anchor="middle" x="686" y="-526.6" font-family="Helvetica,sans-Serif" font-size="8.00"> m_mq</text>
</g>
<!-- Node17 -->
<g id="node17" class="node">
<title>Node17</title>
<g id="a_node17"><a xlink:title=" ">
<polygon fill="white" stroke="#bfbfbf" points="496.5,-470 496.5,-496 591.5,-496 591.5,-470 496.5,-470"/>
<text text-anchor="start" x="504.5" y="-485.6" font-family="Helvetica,sans-Serif" font-size="8.00">optional&lt; util::Pipe</text>
<text text-anchor="middle" x="544" y="-476.6" font-family="Helvetica,sans-Serif" font-size="8.00">_reader &gt;</text>
</a>
</g>
</g>
<!-- Node17&#45;&gt;Node1 -->
<g id="edge21" class="edge">
<title>Node17&#45;&gt;Node1</title>
<path fill="none" stroke="#9a32cd" stroke-dasharray="5,2" d="M601.78,-490.72C642.5,-496.28 698.64,-504.01 748,-511 753.75,-511.81 759.71,-512.67 765.7,-513.52"/>
<polygon fill="#9a32cd" stroke="#9a32cd" points="602.16,-487.24 591.78,-489.36 601.21,-494.18 602.16,-487.24"/>
<text text-anchor="middle" x="686" y="-513.6" font-family="Helvetica,sans-Serif" font-size="8.00"> m_mq_ready_reader</text>
</g>
<!-- Node18 -->
<g id="node18" class="node">
<title>Node18</title>
<g id="a_node18"><a xlink:title=" ">
<polygon fill="white" stroke="#bfbfbf" points="496.5,-425 496.5,-451 591.5,-451 591.5,-425 496.5,-425"/>
<text text-anchor="start" x="504.5" y="-440.6" font-family="Helvetica,sans-Serif" font-size="8.00">optional&lt; util::Pipe</text>
<text text-anchor="middle" x="544" y="-431.6" font-family="Helvetica,sans-Serif" font-size="8.00">_writer &gt;</text>
</a>
</g>
</g>
<!-- Node18&#45;&gt;Node1 -->
<g id="edge22" class="edge">
<title>Node18&#45;&gt;Node1</title>
<path fill="none" stroke="#9a32cd" stroke-dasharray="5,2" d="M601.68,-446.27C642.94,-453.18 699.8,-464.58 748,-481 767.74,-487.73 788.82,-497.7 805.56,-506.35"/>
<polygon fill="#9a32cd" stroke="#9a32cd" points="602.24,-442.81 591.8,-444.65 601.11,-449.72 602.24,-442.81"/>
<text text-anchor="middle" x="686" y="-483.6" font-family="Helvetica,sans-Serif" font-size="8.00"> m_mq_ready_writer</text>
</g>
<!-- Node19 -->
<g id="node19" class="node">
<title>Node19</title>
<g id="a_node19"><a xlink:href="classipc_1_1util_1_1sync__io_1_1Asio__waitable__native__handle.html" target="_top" xlink:title="Useful if using the sync_io pattern within a user event loop built on boost.asio (optionally with flo...">
<polygon fill="white" stroke="black" points="490,-370.5 490,-405.5 598,-405.5 598,-370.5 490,-370.5"/>
<text text-anchor="start" x="498" y="-395.1" font-family="Helvetica,sans-Serif" font-size="8.00">ipc::util::sync_io</text>
<text text-anchor="start" x="498" y="-386.1" font-family="Helvetica,sans-Serif" font-size="8.00">::Asio_waitable_native</text>
<text text-anchor="middle" x="544" y="-377.1" font-family="Helvetica,sans-Serif" font-size="8.00">_handle</text>
</a>
</g>
</g>
<!-- Node19&#45;&gt;Node1 -->
<g id="edge23" class="edge">
<title>Node19&#45;&gt;Node1</title>
<path fill="none" stroke="#9a32cd" stroke-dasharray="5,2" d="M608.38,-386.91C650.38,-388.75 705.38,-396.26 748,-420 784.83,-440.52 813.52,-482.38 827.71,-506.26"/>
<polygon fill="#9a32cd" stroke="#9a32cd" points="608.39,-383.4 598.27,-386.56 608.15,-390.4 608.39,-383.4"/>
<text text-anchor="start" x="640" y="-440.6" font-family="Helvetica,sans-Serif" font-size="8.00"> m_ev_wait_hndl_auto</text>
<text text-anchor="middle" x="686" y="-431.6" font-family="Helvetica,sans-Serif" font-size="8.00">_ping_timer_fired_peer</text>
<text text-anchor="middle" x="686" y="-422.6" font-family="Helvetica,sans-Serif" font-size="8.00">m_ev_wait_hndl_mq</text>
</g>
<!-- Node20 -->
<g id="node20" class="node">
<title>Node20</title>
<g id="a_node20"><a xlink:title=" ">
<polygon fill="white" stroke="#bfbfbf" points="214,-375 214,-401 305,-401 305,-375 214,-375"/>
<text text-anchor="start" x="222" y="-390.6" font-family="Helvetica,sans-Serif" font-size="8.00">boost::asio::posix</text>
<text text-anchor="middle" x="259.5" y="-381.6" font-family="Helvetica,sans-Serif" font-size="8.00">::descriptor</text>
</a>
</g>
</g>
<!-- Node20&#45;&gt;Node19 -->
<g id="edge24" class="edge">
<title>Node20&#45;&gt;Node19</title>
<path fill="none" stroke="darkgreen" d="M315.32,-388C365.7,-388 439.91,-388 489.78,-388"/>
<polygon fill="darkgreen" stroke="darkgreen" points="315.26,-384.5 305.26,-388 315.26,-391.5 315.26,-384.5"/>
</g>
<!-- Node21&#45;&gt;Node1 -->
<g id="edge25" class="edge">
<title>Node21&#45;&gt;Node1</title>
<path fill="none" stroke="#9a32cd" stroke-dasharray="5,2" d="M606.53,-814.59C650.94,-804.86 709.61,-785.56 748,-748 808.47,-688.84 829.23,-583.58 835.3,-541.8"/>
<polygon fill="#9a32cd" stroke="#9a32cd" points="605.79,-811.17 596.71,-816.63 607.22,-818.02 605.79,-811.17"/>
<text text-anchor="middle" x="686" y="-811.6" font-family="Helvetica,sans-Serif" font-size="8.00"> m_timer_worker</text>
</g>
<!-- Node22 -->
<g id="node22" class="node">
<title>Node22</title>
<g id="a_node22"><a xlink:title=" ">
<polygon fill="white" stroke="#bfbfbf" points="201.5,-765.5 201.5,-782.5 317.5,-782.5 317.5,-765.5 201.5,-765.5"/>
<text text-anchor="middle" x="259.5" y="-772.1" font-family="Helvetica,sans-Serif" font-size="8.00">Single_thread_task_loop</text>
</a>
</g>
</g>
<!-- Node22&#45;&gt;Node21 -->
<g id="edge29" class="edge">
<title>Node22&#45;&gt;Node21</title>
<path fill="none" stroke="#9a32cd" stroke-dasharray="5,2" d="M318.9,-784.34C369.63,-793.31 442.41,-806.2 491.13,-814.82"/>
<polygon fill="#9a32cd" stroke="#9a32cd" points="319.2,-780.83 308.74,-782.54 317.98,-787.73 319.2,-780.83"/>
<text text-anchor="middle" x="405" y="-811.6" font-family="Helvetica,sans-Serif" font-size="8.00"> m_worker</text>
</g>
<!-- Node23 -->
<g id="node23" class="node">
<title>Node23</title>
<g id="a_node23"><a xlink:title=" ">
<polygon fill="white" stroke="black" points="194,-865.5 194,-900.5 325,-900.5 325,-865.5 194,-865.5"/>
<text text-anchor="start" x="202" y="-890.1" font-family="Helvetica,sans-Serif" font-size="8.00">std::vector&lt; boost</text>
<text text-anchor="start" x="202" y="-881.1" font-family="Helvetica,sans-Serif" font-size="8.00">::movelib::unique_ptr</text>
<text text-anchor="middle" x="259.5" y="-872.1" font-family="Helvetica,sans-Serif" font-size="8.00">&lt; Timer_fired_read_end &gt; &gt;</text>
</a>
</g>
</g>
<!-- Node23&#45;&gt;Node21 -->
<g id="edge30" class="edge">
<title>Node23&#45;&gt;Node21</title>
<path fill="none" stroke="#9a32cd" stroke-dasharray="5,2" d="M324.33,-862.61C331.61,-860.58 338.94,-858.66 346,-857 394.78,-845.55 451.26,-836.51 491.2,-830.81"/>
<polygon fill="#9a32cd" stroke="#9a32cd" points="323.14,-859.31 314.49,-865.43 325.07,-866.04 323.14,-859.31"/>
<text text-anchor="middle" x="405" y="-859.6" font-family="Helvetica,sans-Serif" font-size="8.00"> m_signal_pipe_readers</text>
</g>
<!-- Node24 -->
<g id="node24" class="node">
<title>Node24</title>
<g id="a_node24"><a xlink:title=" ">
<polygon fill="white" stroke="#bfbfbf" points="0,-870 0,-896 114,-896 114,-870 0,-870"/>
<text text-anchor="start" x="8" y="-885.6" font-family="Helvetica,sans-Serif" font-size="8.00">unique_ptr&lt; Timer_fired</text>
<text text-anchor="middle" x="57" y="-876.6" font-family="Helvetica,sans-Serif" font-size="8.00">_read_end &gt;</text>
</a>
</g>
</g>
<!-- Node24&#45;&gt;Node23 -->
<g id="edge31" class="edge">
<title>Node24&#45;&gt;Node23</title>
<path fill="none" stroke="#9a32cd" stroke-dasharray="5,2" d="M124.21,-883C146.63,-883 171.61,-883 193.9,-883"/>
<polygon fill="#9a32cd" stroke="#9a32cd" points="124.12,-879.5 114.12,-883 124.12,-886.5 124.12,-879.5"/>
<text text-anchor="middle" x="152.5" y="-885.6" font-family="Helvetica,sans-Serif" font-size="8.00"> elements</text>
</g>
<!-- Node25 -->
<g id="node25" class="node">
<title>Node25</title>
<g id="a_node25"><a xlink:title=" ">
<polygon fill="white" stroke="#bfbfbf" points="191,-802 191,-846 328,-846 328,-802 191,-802"/>
<text text-anchor="start" x="199" y="-835.6" font-family="Helvetica,sans-Serif" font-size="8.00">unordered_map&lt; Timer</text>
<text text-anchor="start" x="199" y="-826.6" font-family="Helvetica,sans-Serif" font-size="8.00">_fired_read_end *, boost</text>
<text text-anchor="start" x="199" y="-817.6" font-family="Helvetica,sans-Serif" font-size="8.00">::movelib::unique_ptr&lt; boost</text>
<text text-anchor="middle" x="259.5" y="-808.6" font-family="Helvetica,sans-Serif" font-size="8.00">::asio::writable_pipe &gt; &gt;</text>
</a>
</g>
</g>
<!-- Node25&#45;&gt;Node21 -->
<g id="edge32" class="edge">
<title>Node25&#45;&gt;Node21</title>
<path fill="none" stroke="#9a32cd" stroke-dasharray="5,2" d="M338.36,-824C387.12,-824 448.58,-824 491.36,-824"/>
<polygon fill="#9a32cd" stroke="#9a32cd" points="338.17,-820.5 328.17,-824 338.17,-827.5 338.17,-820.5"/>
<text text-anchor="middle" x="405" y="-826.6" font-family="Helvetica,sans-Serif" font-size="8.00"> m_signal_pipe_writers</text>
</g>
<!-- Node26 -->
<g id="node26" class="node">
<title>Node26</title>
<g id="a_node26"><a xlink:title=" ">
<polygon fill="white" stroke="black" points="488,-316.5 488,-351.5 600,-351.5 600,-316.5 488,-316.5"/>
<text text-anchor="start" x="496" y="-341.1" font-family="Helvetica,sans-Serif" font-size="8.00">std::queue&lt; typename</text>
<text text-anchor="start" x="496" y="-332.1" font-family="Helvetica,sans-Serif" font-size="8.00"> Snd_low_lvl_payload</text>
<text text-anchor="middle" x="544" y="-323.1" font-family="Helvetica,sans-Serif" font-size="8.00">::Ptr &gt;</text>
</a>
</g>
</g>
<!-- Node26&#45;&gt;Node1 -->
<g id="edge33" class="edge">
<title>Node26&#45;&gt;Node1</title>
<path fill="none" stroke="#9a32cd" stroke-dasharray="5,2" d="M610.14,-333.96C652.81,-336.92 707.89,-346.69 748,-375 795.09,-408.23 821.73,-474.82 832.23,-506.49"/>
<polygon fill="#9a32cd" stroke="#9a32cd" points="610.32,-330.46 600.14,-333.37 609.91,-337.45 610.32,-330.46"/>
<text text-anchor="middle" x="686" y="-377.6" font-family="Helvetica,sans-Serif" font-size="8.00"> m_pending_payloads_q</text>
</g>
<!-- Node27 -->
<g id="node27" class="node">
<title>Node27</title>
<g id="a_node27"><a xlink:title=" ">
<polygon fill="white" stroke="#bfbfbf" points="245,-325.5 245,-342.5 274,-342.5 274,-325.5 245,-325.5"/>
<text text-anchor="middle" x="259.5" y="-332.1" font-family="Helvetica,sans-Serif" font-size="8.00">Ptr</text>
</a>
</g>
</g>
<!-- Node27&#45;&gt;Node26 -->
<g id="edge34" class="edge">
<title>Node27&#45;&gt;Node26</title>
<path fill="none" stroke="#9a32cd" stroke-dasharray="5,2" d="M284.28,-334C328.9,-334 426.24,-334 487.98,-334"/>
<polygon fill="#9a32cd" stroke="#9a32cd" points="284.13,-330.5 274.13,-334 284.13,-337.5 284.13,-330.5"/>
<text text-anchor="middle" x="405" y="-336.6" font-family="Helvetica,sans-Serif" font-size="8.00"> elements</text>
</g>
<!-- Node28 -->
<g id="node28" class="node">
<title>Node28</title>
<g id="a_node28"><a xlink:title=" ">
<polygon fill="white" stroke="#bfbfbf" points="514,-280.5 514,-297.5 574,-297.5 574,-280.5 514,-280.5"/>
<text text-anchor="middle" x="544" y="-287.1" font-family="Helvetica,sans-Serif" font-size="8.00">Error_code</text>
</a>
</g>
</g>
<!-- Node28&#45;&gt;Node1 -->
<g id="edge35" class="edge">
<title>Node28&#45;&gt;Node1</title>
<path fill="none" stroke="#9a32cd" stroke-dasharray="5,2" d="M584.35,-284.98C628.71,-282.62 700.77,-285.54 748,-322 808.88,-369 829.3,-466.29 835.29,-506.26"/>
<polygon fill="#9a32cd" stroke="#9a32cd" points="584,-281.5 574.24,-285.64 584.45,-288.49 584,-281.5"/>
<text text-anchor="middle" x="686" y="-324.6" font-family="Helvetica,sans-Serif" font-size="8.00"> m_pending_err_code</text>
</g>
<!-- Node29 -->
<g id="node29" class="node">
<title>Node29</title>
<g id="a_node29"><a xlink:title=" ">
<polygon fill="white" stroke="#bfbfbf" points="508.5,-244.5 508.5,-261.5 579.5,-261.5 579.5,-244.5 508.5,-244.5"/>
<text text-anchor="middle" x="544" y="-251.1" font-family="Helvetica,sans-Serif" font-size="8.00">Task_asio_err</text>
</a>
</g>
</g>
<!-- Node29&#45;&gt;Node1 -->
<g id="edge37" class="edge">
<title>Node29&#45;&gt;Node1</title>
<path fill="none" stroke="#9a32cd" stroke-dasharray="5,2" d="M586.32,-242.32C630.83,-233.42 701.51,-227.17 748,-262 828.21,-322.09 837.13,-458.09 837.68,-506.49"/>
<polygon fill="#9a32cd" stroke="#9a32cd" points="585.47,-238.92 576.42,-244.43 586.93,-245.77 585.47,-238.92"/>
<text text-anchor="start" x="633.5" y="-273.6" font-family="Helvetica,sans-Serif" font-size="8.00"> m_pending_on_last_send</text>
<text text-anchor="middle" x="686" y="-264.6" font-family="Helvetica,sans-Serif" font-size="8.00">_done_func_or_empty</text>
</g>
<!-- Node30 -->
<g id="node30" class="node">
<title>Node30</title>
<g id="a_node30"><a xlink:title=" ">
<polygon fill="white" stroke="#bfbfbf" points="508.5,-208.5 508.5,-225.5 579.5,-225.5 579.5,-208.5 508.5,-208.5"/>
<text text-anchor="middle" x="544" y="-215.1" font-family="Helvetica,sans-Serif" font-size="8.00">Fine_duration</text>
</a>
</g>
</g>
<!-- Node30&#45;&gt;Node1 -->
<g id="edge38" class="edge">
<title>Node30&#45;&gt;Node1</title>
<path fill="none" stroke="#9a32cd" stroke-dasharray="5,2" d="M582.4,-205.93C626.71,-195.28 700.49,-185.6 748,-222 794.78,-257.83 826.22,-447.34 835,-506.41"/>
<polygon fill="#9a32cd" stroke="#9a32cd" points="581.44,-202.57 572.61,-208.42 583.17,-209.35 581.44,-202.57"/>
<text text-anchor="middle" x="686" y="-224.6" font-family="Helvetica,sans-Serif" font-size="8.00"> m_auto_ping_period</text>
</g>
<!-- Node31 -->
<g id="node31" class="node">
<title>Node31</title>
<g id="a_node31"><a xlink:title=" ">
<polygon fill="white" stroke="#bfbfbf" points="524.5,-172.5 524.5,-189.5 563.5,-189.5 563.5,-172.5 524.5,-172.5"/>
<text text-anchor="middle" x="544" y="-179.1" font-family="Helvetica,sans-Serif" font-size="8.00">Timer</text>
</a>
</g>
</g>
<!-- Node31&#45;&gt;Node1 -->
<g id="edge39" class="edge">
<title>Node31&#45;&gt;Node1</title>
<path fill="none" stroke="#9a32cd" stroke-dasharray="5,2" d="M573.58,-177.19C622.99,-171.25 721.65,-162.46 748,-183 800.62,-224.01 828.52,-442.45 835.65,-506.4"/>
<polygon fill="#9a32cd" stroke="#9a32cd" points="573.03,-173.73 563.54,-178.44 573.9,-180.67 573.03,-173.73"/>
<text text-anchor="middle" x="686" y="-185.6" font-family="Helvetica,sans-Serif" font-size="8.00"> m_auto_ping_timer</text>
</g>
<!-- Node32 -->
<g id="node32" class="node">
<title>Node32</title>
<g id="a_node32"><a xlink:title=" ">
<polygon fill="white" stroke="#bfbfbf" points="489,-136.5 489,-153.5 599,-153.5 599,-136.5 489,-136.5"/>
<text text-anchor="middle" x="544" y="-143.1" font-family="Helvetica,sans-Serif" font-size="8.00">Timer_fired_read_end *</text>
</a>
</g>
</g>
<!-- Node32&#45;&gt;Node1 -->
<g id="edge40" class="edge">
<title>Node32&#45;&gt;Node1</title>
<path fill="none" stroke="#9a32cd" stroke-dasharray="5,2" d="M586.65,-134.35C631.75,-125.49 703.23,-119.65 748,-157 803.14,-203.01 829.44,-438.88 835.89,-506.1"/>
<polygon fill="#9a32cd" stroke="#9a32cd" points="585.68,-130.97 576.61,-136.45 587.12,-137.82 585.68,-130.97"/>
<text text-anchor="middle" x="686" y="-159.6" font-family="Helvetica,sans-Serif" font-size="8.00"> m_auto_ping_timer_fired_peer</text>
</g>
<!-- Node33 -->
<g id="node33" class="node">
<title>Node33</title>
<g id="a_node33"><a xlink:title=" ">
<polygon fill="white" stroke="#bfbfbf" points="482.5,-55 482.5,-117 605.5,-117 605.5,-55 482.5,-55"/>
<text text-anchor="start" x="490.5" y="-106.6" font-family="Helvetica,sans-Serif" font-size="8.00">Function&lt; void(Asio</text>
<text text-anchor="start" x="490.5" y="-97.6" font-family="Helvetica,sans-Serif" font-size="8.00">_waitable_native_handle</text>
<text text-anchor="start" x="490.5" y="-88.6" font-family="Helvetica,sans-Serif" font-size="8.00"> *hndl_of_interest, bool</text>
<text text-anchor="start" x="490.5" y="-79.6" font-family="Helvetica,sans-Serif" font-size="8.00"> ev_of_interest_snd_else</text>
<text text-anchor="start" x="490.5" y="-70.6" font-family="Helvetica,sans-Serif" font-size="8.00">_rcv, Task_ptr &amp;&amp;on_active</text>
<text text-anchor="middle" x="544" y="-61.6" font-family="Helvetica,sans-Serif" font-size="8.00">_ev_func)&gt;</text>
</a>
</g>
</g>
<!-- Node33&#45;&gt;Node1 -->
<g id="edge41" class="edge">
<title>Node33&#45;&gt;Node1</title>
<path fill="none" stroke="#9a32cd" stroke-dasharray="5,2" d="M615.74,-76.95C659.21,-75.49 713.06,-81.68 748,-114 807.1,-168.67 830.86,-434.5 836.25,-506.17"/>
<polygon fill="#9a32cd" stroke="#9a32cd" points="615.33,-73.47 605.51,-77.44 615.66,-80.46 615.33,-73.47"/>
<text text-anchor="middle" x="686" y="-116.6" font-family="Helvetica,sans-Serif" font-size="8.00"> m_ev_wait_func</text>
</g>
<!-- Node34 -->
<g id="node34" class="node">
<title>Node34</title>
<g id="a_node34"><a xlink:title=" ">
<polygon fill="white" stroke="#bfbfbf" points="491,-0.5 491,-35.5 597,-35.5 597,-0.5 491,-0.5"/>
<text text-anchor="start" x="499" y="-25.1" font-family="Helvetica,sans-Serif" font-size="8.00">optional&lt; flow::async</text>
<text text-anchor="start" x="499" y="-16.1" font-family="Helvetica,sans-Serif" font-size="8.00">::Single_thread_task</text>
<text text-anchor="middle" x="544" y="-7.1" font-family="Helvetica,sans-Serif" font-size="8.00">_loop &gt;</text>
</a>
</g>
</g>
<!-- Node34&#45;&gt;Node1 -->
<g id="edge42" class="edge">
<title>Node34&#45;&gt;Node1</title>
<path fill="none" stroke="#9a32cd" stroke-dasharray="5,2" d="M607.08,-14.93C652.34,-16.23 711.82,-25.86 748,-63 811.5,-128.2 832.31,-430.27 836.6,-506.5"/>
<polygon fill="#9a32cd" stroke="#9a32cd" points="607.13,-11.43 597.08,-14.77 607.02,-18.43 607.13,-11.43"/>
<text text-anchor="middle" x="686" y="-65.6" font-family="Helvetica,sans-Serif" font-size="8.00"> m_blocking_worker</text>
</g>
</g>
</svg>
