<?xml version="1.0" encoding="UTF-8" standalone="no"?>
<!DOCTYPE svg PUBLIC "-//W3C//DTD SVG 1.1//EN"
 "http://www.w3.org/Graphics/SVG/1.1/DTD/svg11.dtd">
<!-- Generated by graphviz version 2.43.0 (0)
 -->
<!-- Title: ipc::transport::Native_socket_stream::Impl::Impl Pages: 1 -->
<svg width="634pt" height="98pt"
 viewBox="0.00 0.00 634.00 98.00" xmlns="http://www.w3.org/2000/svg" xmlns:xlink="http://www.w3.org/1999/xlink">
<g id="graph0" class="graph" transform="scale(1 1) rotate(0) translate(4 94)">
<title>ipc::transport::Native_socket_stream::Impl::Impl</title>
<polygon fill="white" stroke="transparent" points="-4,4 -4,-94 630,-94 630,4 -4,4"/>
<!-- Node1 -->
<g id="node1" class="node">
<title>Node1</title>
<g id="a_node1"><a xlink:title="See Native_socket_stream counterpart.">
<polygon fill="#bfbfbf" stroke="black" points="0,-32 0,-58 126,-58 126,-32 0,-32"/>
<text text-anchor="start" x="8" y="-47.6" font-family="Helvetica,sans-Serif" font-size="8.00">ipc::transport::Native</text>
<text text-anchor="middle" x="63" y="-38.6" font-family="Helvetica,sans-Serif" font-size="8.00">_socket_stream::Impl::Impl</text>
</a>
</g>
</g>
<!-- Node2 -->
<g id="node2" class="node">
<title>Node2</title>
<g id="a_node2"><a xlink:href="classipc_1_1transport_1_1Native__socket__stream_1_1Impl.html#af5da84616f99cee2b97d25cb1397ad8f" target="_top" xlink:title="Executes a connect&#45;ops&#45;related async&#45;wait as requested by m_sync_io (the sync_io core).">
<polygon fill="white" stroke="black" points="169,-54.5 169,-89.5 278,-89.5 278,-54.5 169,-54.5"/>
<text text-anchor="start" x="177" y="-79.1" font-family="Helvetica,sans-Serif" font-size="8.00">ipc::transport::Native</text>
<text text-anchor="start" x="177" y="-70.1" font-family="Helvetica,sans-Serif" font-size="8.00">_socket_stream::Impl::</text>
<text text-anchor="middle" x="223.5" y="-61.1" font-family="Helvetica,sans-Serif" font-size="8.00">conn_sync_io_ev_wait</text>
</a>
</g>
</g>
<!-- Node1&#45;&gt;Node2 -->
<g id="edge1" class="edge">
<title>Node1&#45;&gt;Node2</title>
<path fill="none" stroke="midnightblue" d="M126.19,-55.59C136.9,-57.42 148.05,-59.32 158.8,-61.15"/>
<polygon fill="midnightblue" stroke="midnightblue" points="158.52,-64.65 168.96,-62.88 159.69,-57.75 158.52,-64.65"/>
</g>
<!-- Node4 -->
<g id="node4" class="node">
<title>Node4</title>
<g id="a_node4"><a xlink:href="classipc_1_1transport_1_1sync__io_1_1Native__socket__stream.html#a97fa6328b1d77a9ee212e09721fc398e" target="_top" xlink:title="Sets up the sync_io&#45;pattern interaction between *this and the user&#39;s event loop; required before asyn...">
<polygon fill="white" stroke="black" points="162,-0.5 162,-35.5 285,-35.5 285,-0.5 162,-0.5"/>
<text text-anchor="start" x="170" y="-25.1" font-family="Helvetica,sans-Serif" font-size="8.00">ipc::transport::sync</text>
<text text-anchor="start" x="170" y="-16.1" font-family="Helvetica,sans-Serif" font-size="8.00">_io::Native_socket_stream</text>
<text text-anchor="middle" x="223.5" y="-7.1" font-family="Helvetica,sans-Serif" font-size="8.00">::start_connect_ops</text>
</a>
</g>
</g>
<!-- Node1&#45;&gt;Node4 -->
<g id="edge3" class="edge">
<title>Node1&#45;&gt;Node4</title>
<path fill="none" stroke="midnightblue" d="M126.19,-34.41C134.6,-32.97 143.29,-31.49 151.84,-30.04"/>
<polygon fill="midnightblue" stroke="midnightblue" points="152.52,-33.47 161.79,-28.34 151.34,-26.57 152.52,-33.47"/>
</g>
<!-- Node3 -->
<g id="node3" class="node">
<title>Node3</title>
<g id="a_node3"><a xlink:href="classipc_1_1util_1_1sync__io_1_1Asio__waitable__native__handle.html#ad6663616504b4543a6227eb21279ce39" target="_top" xlink:title="Returns the same Native_handle as passed to original handle&#45;loading ctor or assign(),...">
<polygon fill="white" stroke="black" points="326,-54.5 326,-89.5 439,-89.5 439,-54.5 326,-54.5"/>
<text text-anchor="start" x="334" y="-79.1" font-family="Helvetica,sans-Serif" font-size="8.00">ipc::util::sync_io</text>
<text text-anchor="start" x="334" y="-70.1" font-family="Helvetica,sans-Serif" font-size="8.00">::Asio_waitable_native</text>
<text text-anchor="middle" x="382.5" y="-61.1" font-family="Helvetica,sans-Serif" font-size="8.00">_handle::native_handle</text>
</a>
</g>
</g>
<!-- Node2&#45;&gt;Node3 -->
<g id="edge2" class="edge">
<title>Node2&#45;&gt;Node3</title>
<path fill="none" stroke="midnightblue" d="M278.09,-72C290.1,-72 302.97,-72 315.42,-72"/>
<polygon fill="midnightblue" stroke="midnightblue" points="315.74,-75.5 325.74,-72 315.74,-68.5 315.74,-75.5"/>
</g>
<!-- Node5 -->
<g id="node5" class="node">
<title>Node5</title>
<g id="a_node5"><a xlink:href="classipc_1_1transport_1_1sync__io_1_1Native__socket__stream.html#a605f0ca56554e95fead3e959b43fc864" target="_top" xlink:title="Template&#45;free version of start_connect_ops() as required by pImpl idiom.">
<polygon fill="white" stroke="black" points="321,-0.5 321,-35.5 444,-35.5 444,-0.5 321,-0.5"/>
<text text-anchor="start" x="329" y="-25.1" font-family="Helvetica,sans-Serif" font-size="8.00">ipc::transport::sync</text>
<text text-anchor="start" x="329" y="-16.1" font-family="Helvetica,sans-Serif" font-size="8.00">_io::Native_socket_stream</text>
<text text-anchor="middle" x="382.5" y="-7.1" font-family="Helvetica,sans-Serif" font-size="8.00">::start_connect_ops_fwd</text>
</a>
</g>
</g>
<!-- Node4&#45;&gt;Node5 -->
<g id="edge4" class="edge">
<title>Node4&#45;&gt;Node5</title>
<path fill="none" stroke="midnightblue" d="M285.2,-18C293.64,-18 302.36,-18 310.95,-18"/>
<polygon fill="midnightblue" stroke="midnightblue" points="310.96,-21.5 320.96,-18 310.96,-14.5 310.96,-21.5"/>
</g>
<!-- Node6 -->
<g id="node6" class="node">
<title>Node6</title>
<g id="a_node6"><a xlink:href="classipc_1_1transport_1_1sync__io_1_1Native__socket__stream.html#a8e3703d5c8bac62f828a372691249c85" target="_top" xlink:title="Helper that simply returns m_impl while guaranteeing that m_impl is non&#45;null upon return.">
<polygon fill="white" stroke="black" points="480,-5 480,-31 626,-31 626,-5 480,-5"/>
<text text-anchor="start" x="488" y="-20.6" font-family="Helvetica,sans-Serif" font-size="8.00">ipc::transport::sync</text>
<text text-anchor="middle" x="553" y="-11.6" font-family="Helvetica,sans-Serif" font-size="8.00">_io::Native_socket_stream::impl</text>
</a>
</g>
</g>
<!-- Node5&#45;&gt;Node6 -->
<g id="edge5" class="edge">
<title>Node5&#45;&gt;Node6</title>
<path fill="none" stroke="midnightblue" d="M444.33,-18C452.6,-18 461.19,-18 469.76,-18"/>
<polygon fill="midnightblue" stroke="midnightblue" points="469.78,-21.5 479.78,-18 469.78,-14.5 469.78,-21.5"/>
</g>
</g>
</svg>
