<?xml version="1.0" encoding="UTF-8" standalone="no"?>
<!DOCTYPE svg PUBLIC "-//W3C//DTD SVG 1.1//EN"
 "http://www.w3.org/Graphics/SVG/1.1/DTD/svg11.dtd">
<!-- Generated by graphviz version 2.43.0 (0)
 -->
<!-- Title: ipc::shm::stl::Stateless_allocator::deallocate Pages: 1 -->
<svg width="264pt" height="44pt"
 viewBox="0.00 0.00 264.00 44.00" xmlns="http://www.w3.org/2000/svg" xmlns:xlink="http://www.w3.org/1999/xlink">
<g id="graph0" class="graph" transform="scale(1 1) rotate(0) translate(4 40)">
<title>ipc::shm::stl::Stateless_allocator::deallocate</title>
<polygon fill="white" stroke="transparent" points="-4,4 -4,-40 260,-40 260,4 -4,4"/>
<!-- Node1 -->
<g id="node1" class="node">
<title>Node1</title>
<g id="a_node1"><a xlink:title="Deallocates buffer in SHM previously allocated via allocate() in this or other (if Arena_obj supports...">
<polygon fill="#bfbfbf" stroke="black" points="0,-5 0,-31 112,-31 112,-5 0,-5"/>
<text text-anchor="start" x="8" y="-20.6" font-family="Helvetica,sans-Serif" font-size="8.00">ipc::shm::stl::Stateless</text>
<text text-anchor="middle" x="56" y="-11.6" font-family="Helvetica,sans-Serif" font-size="8.00">_allocator::deallocate</text>
</a>
</g>
</g>
<!-- Node2 -->
<g id="node2" class="node">
<title>Node2</title>
<g id="a_node2"><a xlink:href="classipc_1_1shm_1_1stl_1_1Arena__activator.html#afdce25994086de598aa4c880a6040763" target="_top" xlink:title="Returns the active arena, as understood by Stateless_allocator&lt;Arena_obj&gt; at this point in the callin...">
<polygon fill="white" stroke="black" points="148,-0.5 148,-35.5 256,-35.5 256,-0.5 148,-0.5"/>
<text text-anchor="start" x="156" y="-25.1" font-family="Helvetica,sans-Serif" font-size="8.00">ipc::shm::stl::Arena</text>
<text text-anchor="start" x="156" y="-16.1" font-family="Helvetica,sans-Serif" font-size="8.00">_activator::this_thread</text>
<text text-anchor="middle" x="202" y="-7.1" font-family="Helvetica,sans-Serif" font-size="8.00">_active_arena</text>
</a>
</g>
</g>
<!-- Node1&#45;&gt;Node2 -->
<g id="edge1" class="edge">
<title>Node1&#45;&gt;Node2</title>
<path fill="none" stroke="midnightblue" d="M112.26,-18C120.49,-18 129.04,-18 137.42,-18"/>
<polygon fill="midnightblue" stroke="midnightblue" points="137.55,-21.5 147.55,-18 137.55,-14.5 137.55,-21.5"/>
</g>
</g>
</svg>
