<?xml version="1.0" encoding="UTF-8" standalone="no"?>
<!DOCTYPE svg PUBLIC "-//W3C//DTD SVG 1.1//EN"
 "http://www.w3.org/Graphics/SVG/1.1/DTD/svg11.dtd">
<!-- Generated by graphviz version 2.43.0 (0)
 -->
<!-- Title: ipc::session::Server_session_impl&lt; S_MQ_TYPE_OR_NONE, S_TRANSMIT_NATIVE_HANDLES, Mdt_payload, S_SHM_TYPE_OR_NONE, S_SHM_MAX_HNDL_SZ &gt; Pages: 1 -->
<svg width="1408pt" height="865pt"
 viewBox="0.00 0.00 1408.00 864.61" xmlns="http://www.w3.org/2000/svg" xmlns:xlink="http://www.w3.org/1999/xlink">
<g id="graph0" class="graph" transform="scale(1 1) rotate(0) translate(4 860.61)">
<title>ipc::session::Server_session_impl&lt; S_MQ_TYPE_OR_NONE, S_TRANSMIT_NATIVE_HANDLES, Mdt_payload, S_SHM_TYPE_OR_NONE, S_SHM_MAX_HNDL_SZ &gt;</title>
<polygon fill="white" stroke="transparent" points="-4,4 -4,-860.61 1404,-860.61 1404,4 -4,4"/>
<!-- Node1 -->
<g id="node1" class="node">
<title>Node1</title>
<g id="a_node1"><a xlink:title="Internal, non&#45;movable pImpl&#45;lite implementation of Server_session_mv class template.">
<polygon fill="#bfbfbf" stroke="black" points="1215,-182.11 1215,-235.11 1400,-235.11 1400,-182.11 1215,-182.11"/>
<text text-anchor="start" x="1223" y="-224.71" font-family="Helvetica,sans-Serif" font-size="8.00">ipc::session::Server</text>
<text text-anchor="start" x="1223" y="-215.71" font-family="Helvetica,sans-Serif" font-size="8.00">_session_impl&lt; S_MQ_TYPE</text>
<text text-anchor="start" x="1223" y="-206.71" font-family="Helvetica,sans-Serif" font-size="8.00">_OR_NONE, S_TRANSMIT_NATIVE</text>
<text text-anchor="start" x="1223" y="-197.71" font-family="Helvetica,sans-Serif" font-size="8.00">_HANDLES, Mdt_payload, S_SHM</text>
<text text-anchor="middle" x="1307.5" y="-188.71" font-family="Helvetica,sans-Serif" font-size="8.00">_TYPE_OR_NONE, S_SHM_MAX_HNDL_SZ &gt;</text>
</a>
</g>
</g>
<!-- Node2 -->
<g id="node2" class="node">
<title>Node2</title>
<g id="a_node2"><a xlink:href="classipc_1_1session_1_1Session__base.html" target="_top" xlink:title="Internal type containing data and types common to internal types Server_session_impl and Client_sessi...">
<polygon fill="white" stroke="black" points="929,-395.61 929,-439.61 1075,-439.61 1075,-395.61 929,-395.61"/>
<text text-anchor="start" x="937" y="-429.21" font-family="Helvetica,sans-Serif" font-size="8.00">ipc::session::Session</text>
<text text-anchor="start" x="937" y="-420.21" font-family="Helvetica,sans-Serif" font-size="8.00">_base&lt; S_MQ_TYPE_OR_NONE,</text>
<text text-anchor="start" x="937" y="-411.21" font-family="Helvetica,sans-Serif" font-size="8.00"> S_TRANSMIT_NATIVE_HANDLES,</text>
<text text-anchor="middle" x="1002" y="-402.21" font-family="Helvetica,sans-Serif" font-size="8.00"> Mdt_payload &gt;</text>
</a>
</g>
</g>
<!-- Node2&#45;&gt;Node1 -->
<g id="edge1" class="edge">
<title>Node2&#45;&gt;Node1</title>
<path fill="none" stroke="midnightblue" d="M1052.69,-390.49C1092.71,-367.98 1149.85,-334.32 1197,-300.61 1225.48,-280.24 1255.8,-254.4 1277.3,-235.3"/>
<polygon fill="midnightblue" stroke="midnightblue" points="1050.94,-387.46 1043.92,-395.4 1054.35,-393.57 1050.94,-387.46"/>
</g>
<!-- Node3 -->
<g id="node3" class="node">
<title>Node3</title>
<g id="a_node3"><a xlink:title=" ">
<polygon fill="white" stroke="#bfbfbf" points="631.5,-488.11 631.5,-505.11 730.5,-505.11 730.5,-488.11 631.5,-488.11"/>
<text text-anchor="middle" x="681" y="-494.71" font-family="Helvetica,sans-Serif" font-size="8.00">boost::noncopyable</text>
</a>
</g>
</g>
<!-- Node3&#45;&gt;Node2 -->
<g id="edge2" class="edge">
<title>Node3&#45;&gt;Node2</title>
<path fill="none" stroke="#8b1a1a" d="M740.67,-491.63C787.55,-486.59 854.52,-476.98 911,-459.61 927.48,-454.54 944.82,-447.02 959.83,-439.74"/>
<polygon fill="#8b1a1a" stroke="#8b1a1a" points="740.28,-488.16 730.69,-492.67 741,-495.12 740.28,-488.16"/>
</g>
<!-- Node4 -->
<g id="node4" class="node">
<title>Node4</title>
<g id="a_node4"><a xlink:title=" ">
<polygon fill="white" stroke="#bfbfbf" points="630.5,-578.11 630.5,-595.11 731.5,-595.11 731.5,-578.11 630.5,-578.11"/>
<text text-anchor="middle" x="681" y="-584.71" font-family="Helvetica,sans-Serif" font-size="8.00">static constexpr bool</text>
</a>
</g>
</g>
<!-- Node4&#45;&gt;Node1 -->
<g id="edge28" class="edge">
<title>Node4&#45;&gt;Node1</title>
<path fill="none" stroke="#9a32cd" stroke-dasharray="5,2" d="M742.03,-593.33C789.39,-596.38 856.34,-595.65 911,-575.61 1094.14,-508.43 1241.04,-307.69 1289.47,-235.14"/>
<polygon fill="#9a32cd" stroke="#9a32cd" points="742.16,-589.83 731.93,-592.6 741.65,-596.81 742.16,-589.83"/>
<text text-anchor="middle" x="1002" y="-587.21" font-family="Helvetica,sans-Serif" font-size="8.00"> S_MQS_ENABLED</text>
<text text-anchor="middle" x="1002" y="-578.21" font-family="Helvetica,sans-Serif" font-size="8.00">S_SHM_ENABLED</text>
<text text-anchor="middle" x="1002" y="-569.21" font-family="Helvetica,sans-Serif" font-size="8.00">S_SOCKET_STREAM_ENABLED</text>
</g>
<!-- Node4&#45;&gt;Node2 -->
<g id="edge3" class="edge">
<title>Node4&#45;&gt;Node2</title>
<path fill="none" stroke="#9a32cd" stroke-dasharray="5,2" d="M740.88,-575.43C747.77,-573.47 754.61,-571.21 761,-568.61 769.68,-565.07 770.23,-560.91 779,-557.61 834.72,-536.6 860.04,-565.42 911,-534.61 948.72,-511.8 976.38,-466.82 990.47,-439.76"/>
<polygon fill="#9a32cd" stroke="#9a32cd" points="739.58,-572.15 730.81,-578.09 741.37,-578.92 739.58,-572.15"/>
<text text-anchor="middle" x="845" y="-569.21" font-family="Helvetica,sans-Serif" font-size="8.00"> S_MQS_ENABLED</text>
<text text-anchor="middle" x="845" y="-560.21" font-family="Helvetica,sans-Serif" font-size="8.00">S_SOCKET_STREAM_ENABLED</text>
</g>
<!-- Node5 -->
<g id="node5" class="node">
<title>Node5</title>
<g id="a_node5"><a xlink:href="structipc_1_1session_1_1Server__app.html" target="_top" xlink:title="An App that is used as a server in at least one client&#45;server IPC split.">
<polygon fill="white" stroke="black" points="381,-362.11 381,-379.11 499,-379.11 499,-362.11 381,-362.11"/>
<text text-anchor="middle" x="440" y="-368.71" font-family="Helvetica,sans-Serif" font-size="8.00">ipc::session::Server_app</text>
</a>
</g>
</g>
<!-- Node5&#45;&gt;Node2 -->
<g id="edge4" class="edge">
<title>Node5&#45;&gt;Node2</title>
<path fill="none" stroke="#9a32cd" stroke-dasharray="5,2" d="M509.34,-369.98C574.23,-370 674.46,-371.57 761,-379.61 817.71,-384.87 881.35,-395.15 928.84,-403.69"/>
<polygon fill="#9a32cd" stroke="#9a32cd" points="509.23,-366.48 499.24,-370 509.24,-373.48 509.23,-366.48"/>
<text text-anchor="middle" x="681" y="-382.21" font-family="Helvetica,sans-Serif" font-size="8.00"> m_srv_app_ref</text>
</g>
<!-- Node6 -->
<g id="node6" class="node">
<title>Node6</title>
<g id="a_node6"><a xlink:href="structipc_1_1session_1_1App.html" target="_top" xlink:title="A description of an application in this ipc::session inter&#45;process communication universe.">
<polygon fill="white" stroke="black" points="155,-447.11 155,-464.11 243,-464.11 243,-447.11 155,-447.11"/>
<text text-anchor="middle" x="199" y="-453.71" font-family="Helvetica,sans-Serif" font-size="8.00">ipc::session::App</text>
</a>
</g>
</g>
<!-- Node6&#45;&gt;Node5 -->
<g id="edge5" class="edge">
<title>Node6&#45;&gt;Node5</title>
<path fill="none" stroke="midnightblue" d="M253.36,-445.57C285.75,-438.57 327.54,-427.91 363,-413.61 386.48,-404.13 411.67,-388.72 426.34,-379.15"/>
<polygon fill="midnightblue" stroke="midnightblue" points="252.26,-442.22 243.2,-447.71 253.7,-449.07 252.26,-442.22"/>
</g>
<!-- Node17 -->
<g id="node16" class="node">
<title>Node17</title>
<g id="a_node16"><a xlink:href="structipc_1_1session_1_1Client__app.html" target="_top" xlink:title="An App that is used as a client in at least one client&#45;server IPC split.">
<polygon fill="white" stroke="black" points="382.5,-424.11 382.5,-441.11 497.5,-441.11 497.5,-424.11 382.5,-424.11"/>
<text text-anchor="middle" x="440" y="-430.71" font-family="Helvetica,sans-Serif" font-size="8.00">ipc::session::Client_app</text>
</a>
</g>
</g>
<!-- Node6&#45;&gt;Node17 -->
<g id="edge17" class="edge">
<title>Node6&#45;&gt;Node17</title>
<path fill="none" stroke="midnightblue" d="M253.27,-451.47C285.14,-448.88 326.41,-445.34 363,-441.61 369.21,-440.97 375.71,-440.27 382.17,-439.54"/>
<polygon fill="midnightblue" stroke="midnightblue" points="252.96,-447.98 243.28,-452.27 253.53,-454.96 252.96,-447.98"/>
</g>
<!-- Node7 -->
<g id="node7" class="node">
<title>Node7</title>
<g id="a_node7"><a xlink:title=" ">
<polygon fill="white" stroke="red" points="0,-542.11 0,-559.11 59,-559.11 59,-542.11 0,-542.11"/>
<text text-anchor="middle" x="29.5" y="-548.71" font-family="Helvetica,sans-Serif" font-size="8.00">std::string</text>
</a>
</g>
</g>
<!-- Node7&#45;&gt;Node6 -->
<g id="edge6" class="edge">
<title>Node7&#45;&gt;Node6</title>
<path fill="none" stroke="#9a32cd" stroke-dasharray="5,2" d="M54.75,-536.85C89.91,-516.91 153.97,-480.58 183,-464.12"/>
<polygon fill="#9a32cd" stroke="#9a32cd" points="52.63,-534.03 45.66,-542.01 56.09,-540.12 52.63,-534.03"/>
<text text-anchor="middle" x="104.5" y="-524.21" font-family="Helvetica,sans-Serif" font-size="8.00"> m_name</text>
</g>
<!-- Node18 -->
<g id="node17" class="node">
<title>Node18</title>
<g id="a_node17"><a xlink:href="classipc_1_1util_1_1Shared__name.html" target="_top" xlink:title="String&#45;wrapping abstraction representing a name uniquely distinguishing a kernel&#45;persistent entity fr...">
<polygon fill="white" stroke="black" points="626,-614.11 626,-631.11 736,-631.11 736,-614.11 626,-614.11"/>
<text text-anchor="middle" x="681" y="-620.71" font-family="Helvetica,sans-Serif" font-size="8.00">ipc::util::Shared_name</text>
</a>
</g>
</g>
<!-- Node7&#45;&gt;Node18 -->
<g id="edge22" class="edge">
<title>Node7&#45;&gt;Node18</title>
<path fill="none" stroke="#9a32cd" stroke-dasharray="5,2" d="M69.31,-554.91C180.13,-567.19 498.24,-602.46 625.97,-616.62"/>
<polygon fill="#9a32cd" stroke="#9a32cd" points="69.57,-551.42 59.25,-553.79 68.8,-558.37 69.57,-551.42"/>
<text text-anchor="middle" x="314.5" y="-589.21" font-family="Helvetica,sans-Serif" font-size="8.00"> m_raw_name</text>
</g>
<!-- Node9 -->
<g id="node8" class="node">
<title>Node9</title>
<g id="a_node8"><a xlink:title=" ">
<polygon fill="white" stroke="#bfbfbf" points="12,-390.11 12,-407.11 47,-407.11 47,-390.11 12,-390.11"/>
<text text-anchor="middle" x="29.5" y="-396.71" font-family="Helvetica,sans-Serif" font-size="8.00">path</text>
</a>
</g>
</g>
<!-- Node9&#45;&gt;Node5 -->
<g id="edge11" class="edge">
<title>Node9&#45;&gt;Node5</title>
<path fill="none" stroke="#9a32cd" stroke-dasharray="5,2" d="M57.19,-391.78C81.26,-385.97 117.74,-378.04 150,-374.61 229.71,-366.12 322.48,-366.67 380.96,-368.28"/>
<polygon fill="#9a32cd" stroke="#9a32cd" points="56.24,-388.41 47.37,-394.19 57.91,-395.2 56.24,-388.41"/>
<text text-anchor="start" x="156.5" y="-386.21" font-family="Helvetica,sans-Serif" font-size="8.00"> m_kernel_persistent</text>
<text text-anchor="middle" x="199" y="-377.21" font-family="Helvetica,sans-Serif" font-size="8.00">_run_dir_override</text>
</g>
<!-- Node9&#45;&gt;Node6 -->
<g id="edge7" class="edge">
<title>Node9&#45;&gt;Node6</title>
<path fill="none" stroke="#9a32cd" stroke-dasharray="5,2" d="M56.66,-407.51C88.37,-418.3 141.43,-436.36 172.73,-447.01"/>
<polygon fill="#9a32cd" stroke="#9a32cd" points="57.77,-404.19 47.17,-404.28 55.51,-410.82 57.77,-404.19"/>
<text text-anchor="middle" x="104.5" y="-434.21" font-family="Helvetica,sans-Serif" font-size="8.00"> m_exec_path</text>
</g>
<!-- Node10 -->
<g id="node9" class="node">
<title>Node10</title>
<g id="a_node9"><a xlink:title=" ">
<polygon fill="white" stroke="#bfbfbf" points="11.5,-476.11 11.5,-493.11 47.5,-493.11 47.5,-476.11 11.5,-476.11"/>
<text text-anchor="middle" x="29.5" y="-482.71" font-family="Helvetica,sans-Serif" font-size="8.00">uid_t</text>
</a>
</g>
</g>
<!-- Node10&#45;&gt;Node6 -->
<g id="edge8" class="edge">
<title>Node10&#45;&gt;Node6</title>
<path fill="none" stroke="#9a32cd" stroke-dasharray="5,2" d="M57.82,-479.88C84.13,-475.32 124.35,-468.36 154.97,-463.06"/>
<polygon fill="#9a32cd" stroke="#9a32cd" points="57.05,-476.46 47.79,-481.61 58.25,-483.36 57.05,-476.46"/>
<text text-anchor="middle" x="104.5" y="-478.21" font-family="Helvetica,sans-Serif" font-size="8.00"> m_user_id</text>
</g>
<!-- Node11 -->
<g id="node10" class="node">
<title>Node11</title>
<g id="a_node10"><a xlink:title=" ">
<polygon fill="white" stroke="#bfbfbf" points="11.5,-440.11 11.5,-457.11 47.5,-457.11 47.5,-440.11 11.5,-440.11"/>
<text text-anchor="middle" x="29.5" y="-446.71" font-family="Helvetica,sans-Serif" font-size="8.00">gid_t</text>
</a>
</g>
</g>
<!-- Node11&#45;&gt;Node6 -->
<g id="edge9" class="edge">
<title>Node11&#45;&gt;Node6</title>
<path fill="none" stroke="#9a32cd" stroke-dasharray="5,2" d="M57.82,-449.75C84.13,-450.85 124.35,-452.53 154.97,-453.81"/>
<polygon fill="#9a32cd" stroke="#9a32cd" points="57.93,-446.25 47.79,-449.33 57.64,-453.24 57.93,-446.25"/>
<text text-anchor="middle" x="104.5" y="-455.21" font-family="Helvetica,sans-Serif" font-size="8.00"> m_group_id</text>
</g>
<!-- Node12 -->
<g id="node11" class="node">
<title>Node12</title>
<g id="a_node11"><a xlink:title=" ">
<polygon fill="white" stroke="#bfbfbf" points="150,-401.61 150,-427.61 248,-427.61 248,-401.61 150,-401.61"/>
<text text-anchor="start" x="158" y="-417.21" font-family="Helvetica,sans-Serif" font-size="8.00">unordered_set&lt; std</text>
<text text-anchor="middle" x="199" y="-408.21" font-family="Helvetica,sans-Serif" font-size="8.00">::string &gt;</text>
</a>
</g>
</g>
<!-- Node12&#45;&gt;Node5 -->
<g id="edge10" class="edge">
<title>Node12&#45;&gt;Node5</title>
<path fill="none" stroke="#9a32cd" stroke-dasharray="5,2" d="M258.01,-403.93C299.35,-396.32 354.19,-386.22 392.62,-379.14"/>
<polygon fill="#9a32cd" stroke="#9a32cd" points="257.28,-400.5 248.08,-405.76 258.55,-407.39 257.28,-400.5"/>
<text text-anchor="middle" x="314.5" y="-403.21" font-family="Helvetica,sans-Serif" font-size="8.00"> m_allowed_client_apps</text>
</g>
<!-- Node13 -->
<g id="node12" class="node">
<title>Node13</title>
<g id="a_node12"><a xlink:title=" ">
<polygon fill="white" stroke="#bfbfbf" points="154.5,-311.11 154.5,-328.11 243.5,-328.11 243.5,-311.11 154.5,-311.11"/>
<text text-anchor="middle" x="199" y="-317.71" font-family="Helvetica,sans-Serif" font-size="8.00">Permissions_level</text>
</a>
</g>
</g>
<!-- Node13&#45;&gt;Node5 -->
<g id="edge12" class="edge">
<title>Node13&#45;&gt;Node5</title>
<path fill="none" stroke="#9a32cd" stroke-dasharray="5,2" d="M253.8,-318.76C286.01,-319.51 327.47,-322.71 363,-332.61 386.45,-339.14 411.24,-353.04 425.91,-362.09"/>
<polygon fill="#9a32cd" stroke="#9a32cd" points="253.74,-315.26 243.69,-318.6 253.63,-322.26 253.74,-315.26"/>
<text text-anchor="start" x="271" y="-344.21" font-family="Helvetica,sans-Serif" font-size="8.00"> m_permissions_level</text>
<text text-anchor="middle" x="314.5" y="-335.21" font-family="Helvetica,sans-Serif" font-size="8.00">_for_client_apps</text>
</g>
<!-- Node14 -->
<g id="node13" class="node">
<title>Node14</title>
<g id="a_node13"><a xlink:title=" ">
<polygon fill="white" stroke="#bfbfbf" points="645.5,-452.11 645.5,-469.11 716.5,-469.11 716.5,-452.11 645.5,-452.11"/>
<text text-anchor="middle" x="681" y="-458.71" font-family="Helvetica,sans-Serif" font-size="8.00">Fine_duration</text>
</a>
</g>
</g>
<!-- Node14&#45;&gt;Node2 -->
<g id="edge13" class="edge">
<title>Node14&#45;&gt;Node2</title>
<path fill="none" stroke="#9a32cd" stroke-dasharray="5,2" d="M726.74,-454.58C779.16,-447.51 866.71,-435.71 928.78,-427.34"/>
<polygon fill="#9a32cd" stroke="#9a32cd" points="726.19,-451.12 716.75,-455.92 727.12,-458.06 726.19,-451.12"/>
<text text-anchor="middle" x="845" y="-449.21" font-family="Helvetica,sans-Serif" font-size="8.00"> S_OPEN_CHANNEL_TIMEOUT</text>
</g>
<!-- Node15 -->
<g id="node14" class="node">
<title>Node15</title>
<g id="a_node14"><a xlink:title=" ">
<polygon fill="white" stroke="#bfbfbf" points="627.5,-317.11 627.5,-334.11 734.5,-334.11 734.5,-317.11 627.5,-317.11"/>
<text text-anchor="middle" x="681" y="-323.71" font-family="Helvetica,sans-Serif" font-size="8.00">static constexpr size_t</text>
</a>
</g>
</g>
<!-- Node15&#45;&gt;Node2 -->
<g id="edge14" class="edge">
<title>Node15&#45;&gt;Node2</title>
<path fill="none" stroke="#9a32cd" stroke-dasharray="5,2" d="M744.7,-334.15C807.07,-342.87 895.64,-355.89 911,-361.61 932.9,-369.76 955.22,-383.6 972.16,-395.49"/>
<polygon fill="#9a32cd" stroke="#9a32cd" points="744.93,-330.65 734.55,-332.74 743.97,-337.59 744.93,-330.65"/>
<text text-anchor="middle" x="845" y="-364.21" font-family="Helvetica,sans-Serif" font-size="8.00"> S_MQS_MAX_MSG_SZ</text>
</g>
<!-- Node16 -->
<g id="node15" class="node">
<title>Node16</title>
<g id="a_node15"><a xlink:title=" ">
<polygon fill="white" stroke="black" points="632,-398.11 632,-433.11 730,-433.11 730,-398.11 632,-398.11"/>
<text text-anchor="start" x="640" y="-422.71" font-family="Helvetica,sans-Serif" font-size="8.00">std::atomic&lt; const</text>
<text text-anchor="start" x="640" y="-413.71" font-family="Helvetica,sans-Serif" font-size="8.00"> ipc::session::Client</text>
<text text-anchor="middle" x="681" y="-404.71" font-family="Helvetica,sans-Serif" font-size="8.00">_app * &gt;</text>
</a>
</g>
</g>
<!-- Node16&#45;&gt;Node2 -->
<g id="edge15" class="edge">
<title>Node16&#45;&gt;Node2</title>
<path fill="none" stroke="#9a32cd" stroke-dasharray="5,2" d="M740.36,-415.97C793.39,-416.31 871.83,-416.8 928.8,-417.15"/>
<polygon fill="#9a32cd" stroke="#9a32cd" points="740.12,-412.47 730.1,-415.91 740.08,-419.47 740.12,-412.47"/>
<text text-anchor="middle" x="845" y="-419.21" font-family="Helvetica,sans-Serif" font-size="8.00"> m_cli_app_ptr</text>
</g>
<!-- Node17&#45;&gt;Node16 -->
<g id="edge16" class="edge">
<title>Node17&#45;&gt;Node16</title>
<path fill="none" stroke="#9a32cd" stroke-dasharray="5,2" d="M507.7,-427.86C547.14,-425.06 596.17,-421.57 631.83,-419.03"/>
<polygon fill="#9a32cd" stroke="#9a32cd" points="507.37,-424.38 497.64,-428.58 507.86,-431.36 507.37,-424.38"/>
<text text-anchor="middle" x="550" y="-429.21" font-family="Helvetica,sans-Serif" font-size="8.00"> ptr</text>
</g>
<!-- Node18&#45;&gt;Node2 -->
<g id="edge18" class="edge">
<title>Node18&#45;&gt;Node2</title>
<path fill="none" stroke="#9a32cd" stroke-dasharray="5,2" d="M746.34,-624.73C795.68,-623.23 863.21,-614.06 911,-579.61 959.41,-544.7 984.92,-475.32 995.3,-439.76"/>
<polygon fill="#9a32cd" stroke="#9a32cd" points="746.02,-621.24 736.1,-624.94 746.17,-628.24 746.02,-621.24"/>
<text text-anchor="middle" x="845" y="-633.21" font-family="Helvetica,sans-Serif" font-size="8.00"> m_cli_namespace</text>
<text text-anchor="middle" x="845" y="-624.21" font-family="Helvetica,sans-Serif" font-size="8.00">m_srv_namespace</text>
</g>
<!-- Node18&#45;&gt;Node18 -->
<g id="edge19" class="edge">
<title>Node18&#45;&gt;Node18</title>
<path fill="none" stroke="#9a32cd" stroke-dasharray="5,2" d="M656.63,-639.7C656.84,-645.22 664.96,-649.61 681,-649.61 704.87,-649.61 711.21,-639.9 700.02,-631.18"/>
<polygon fill="#9a32cd" stroke="#9a32cd" points="659.63,-641.51 661.98,-631.18 653.7,-637.79 659.63,-641.51"/>
<text text-anchor="middle" x="681" y="-715.21" font-family="Helvetica,sans-Serif" font-size="8.00"> S_1ST_OR_ONLY</text>
<text text-anchor="middle" x="681" y="-706.21" font-family="Helvetica,sans-Serif" font-size="8.00">S_EMPTY</text>
<text text-anchor="start" x="642.5" y="-697.21" font-family="Helvetica,sans-Serif" font-size="8.00">S_RESOURCE_TYPE</text>
<text text-anchor="middle" x="681" y="-688.21" font-family="Helvetica,sans-Serif" font-size="8.00">_ID_MUTEX</text>
<text text-anchor="start" x="642.5" y="-679.21" font-family="Helvetica,sans-Serif" font-size="8.00">S_RESOURCE_TYPE</text>
<text text-anchor="middle" x="681" y="-670.21" font-family="Helvetica,sans-Serif" font-size="8.00">_ID_SHM</text>
<text text-anchor="middle" x="681" y="-661.21" font-family="Helvetica,sans-Serif" font-size="8.00">S_ROOT_MAGIC</text>
<text text-anchor="middle" x="681" y="-652.21" font-family="Helvetica,sans-Serif" font-size="8.00">S_SENTINEL</text>
</g>
<!-- Node26 -->
<g id="node25" class="node">
<title>Node26</title>
<g id="a_node25"><a xlink:href="classipc_1_1transport_1_1sync__io_1_1Native__socket__stream.html" target="_top" xlink:title="Implements both sync_io::Native_handle_sender and sync_io::Native_handle_receiver concepts by using a...">
<polygon fill="white" stroke="black" points="940.5,-729.61 940.5,-755.61 1063.5,-755.61 1063.5,-729.61 940.5,-729.61"/>
<text text-anchor="start" x="948.5" y="-745.21" font-family="Helvetica,sans-Serif" font-size="8.00">ipc::transport::sync</text>
<text text-anchor="middle" x="1002" y="-736.21" font-family="Helvetica,sans-Serif" font-size="8.00">_io::Native_socket_stream</text>
</a>
</g>
</g>
<!-- Node18&#45;&gt;Node26 -->
<g id="edge31" class="edge">
<title>Node18&#45;&gt;Node26</title>
<path fill="none" stroke="#9a32cd" stroke-dasharray="5,2" d="M714.08,-634.68C774.34,-657.34 903.98,-706.11 966.23,-729.53"/>
<polygon fill="#9a32cd" stroke="#9a32cd" points="715.28,-631.39 704.69,-631.14 712.81,-637.94 715.28,-631.39"/>
<text text-anchor="middle" x="845" y="-709.21" font-family="Helvetica,sans-Serif" font-size="8.00"> S_RESOURCE_TYPE_ID</text>
</g>
<!-- Node19 -->
<g id="node18" class="node">
<title>Node19</title>
<g id="a_node18"><a xlink:title=" ">
<polygon fill="white" stroke="#bfbfbf" points="420,-706.11 420,-723.11 460,-723.11 460,-706.11 420,-706.11"/>
<text text-anchor="middle" x="440" y="-712.71" font-family="Helvetica,sans-Serif" font-size="8.00">size_t</text>
</a>
</g>
</g>
<!-- Node19&#45;&gt;Node18 -->
<g id="edge20" class="edge">
<title>Node19&#45;&gt;Node18</title>
<path fill="none" stroke="#9a32cd" stroke-dasharray="5,2" d="M469.67,-703.57C517.86,-685.02 614.1,-647.97 657.66,-631.21"/>
<polygon fill="#9a32cd" stroke="#9a32cd" points="468.23,-700.37 460.15,-707.23 470.74,-706.91 468.23,-700.37"/>
<text text-anchor="middle" x="550" y="-687.21" font-family="Helvetica,sans-Serif" font-size="8.00"> S_MAX_LENGTH</text>
</g>
<!-- Node19&#45;&gt;Node26 -->
<g id="edge33" class="edge">
<title>Node19&#45;&gt;Node26</title>
<path fill="none" stroke="#9a32cd" stroke-dasharray="5,2" d="M469.8,-726.31C501.41,-738.59 553.93,-757.38 601,-766.61 736.32,-793.13 775.72,-806.33 911,-779.61 934.2,-775.02 958.94,-764.39 976.6,-755.69"/>
<polygon fill="#9a32cd" stroke="#9a32cd" points="470.89,-722.97 460.3,-722.57 468.32,-729.49 470.89,-722.97"/>
<text text-anchor="middle" x="681" y="-795.21" font-family="Helvetica,sans-Serif" font-size="8.00"> S_MAX_META_BLOB_LENGTH</text>
</g>
<!-- Node20 -->
<g id="node19" class="node">
<title>Node20</title>
<g id="a_node19"><a xlink:title=" ">
<polygon fill="white" stroke="#bfbfbf" points="398,-614.11 398,-631.11 482,-631.11 482,-614.11 398,-614.11"/>
<text text-anchor="middle" x="440" y="-620.71" font-family="Helvetica,sans-Serif" font-size="8.00">static const char</text>
</a>
</g>
</g>
<!-- Node20&#45;&gt;Node18 -->
<g id="edge21" class="edge">
<title>Node20&#45;&gt;Node18</title>
<path fill="none" stroke="#9a32cd" stroke-dasharray="5,2" d="M492.24,-622.61C531.5,-622.61 585.55,-622.61 625.58,-622.61"/>
<polygon fill="#9a32cd" stroke="#9a32cd" points="492.09,-619.11 482.09,-622.61 492.09,-626.11 492.09,-619.11"/>
<text text-anchor="middle" x="550" y="-625.21" font-family="Helvetica,sans-Serif" font-size="8.00"> S_SEPARATOR</text>
</g>
<!-- Node21 -->
<g id="node20" class="node">
<title>Node21</title>
<g id="a_node20"><a xlink:title=" ">
<polygon fill="white" stroke="#bfbfbf" points="645.5,-233.11 645.5,-250.11 716.5,-250.11 716.5,-233.11 645.5,-233.11"/>
<text text-anchor="middle" x="681" y="-239.71" font-family="Helvetica,sans-Serif" font-size="8.00">Task_asio_err</text>
</a>
</g>
</g>
<!-- Node21&#45;&gt;Node1 -->
<g id="edge29" class="edge">
<title>Node21&#45;&gt;Node1</title>
<path fill="none" stroke="#9a32cd" stroke-dasharray="5,2" d="M727.18,-239.22C829.21,-233.83 1079.12,-220.62 1214.97,-213.44"/>
<polygon fill="#9a32cd" stroke="#9a32cd" points="726.72,-235.74 716.91,-239.76 727.08,-242.73 726.72,-235.74"/>
<text text-anchor="middle" x="1002" y="-230.21" font-family="Helvetica,sans-Serif" font-size="8.00"> m_log_in_on_done_func</text>
</g>
<!-- Node21&#45;&gt;Node2 -->
<g id="edge23" class="edge">
<title>Node21&#45;&gt;Node2</title>
<path fill="none" stroke="#9a32cd" stroke-dasharray="5,2" d="M727.16,-240.43C776.27,-241.27 855.2,-248.96 911,-285.61 952.04,-312.56 979.35,-365.34 992.3,-395.35"/>
<polygon fill="#9a32cd" stroke="#9a32cd" points="726.88,-236.93 716.85,-240.35 726.82,-243.93 726.88,-236.93"/>
<text text-anchor="middle" x="845" y="-288.21" font-family="Helvetica,sans-Serif" font-size="8.00"> m_on_err_func</text>
</g>
<!-- Node22 -->
<g id="node21" class="node">
<title>Node22</title>
<g id="a_node21"><a xlink:title=" ">
<polygon fill="white" stroke="#bfbfbf" points="601,-524.11 601,-559.11 761,-559.11 761,-524.11 601,-524.11"/>
<text text-anchor="start" x="609" y="-548.71" font-family="Helvetica,sans-Serif" font-size="8.00">Function&lt; void(Channel</text>
<text text-anchor="start" x="609" y="-539.71" font-family="Helvetica,sans-Serif" font-size="8.00">_obj &amp;&amp;new_channel, Mdt</text>
<text text-anchor="middle" x="681" y="-530.71" font-family="Helvetica,sans-Serif" font-size="8.00">_reader_ptr &amp;&amp;new_channel_mdt)&gt;</text>
</a>
</g>
</g>
<!-- Node22&#45;&gt;Node2 -->
<g id="edge24" class="edge">
<title>Node22&#45;&gt;Node2</title>
<path fill="none" stroke="#9a32cd" stroke-dasharray="5,2" d="M758.92,-521.57C765.7,-519.86 772.47,-518.19 779,-516.61 837.47,-502.43 856.54,-512.17 911,-486.61 936.13,-474.81 960.88,-455.08 978.05,-439.73"/>
<polygon fill="#9a32cd" stroke="#9a32cd" points="757.83,-518.23 748.99,-524.07 759.54,-525.02 757.83,-518.23"/>
<text text-anchor="start" x="784.5" y="-528.21" font-family="Helvetica,sans-Serif" font-size="8.00"> m_on_passive_open_channel</text>
<text text-anchor="middle" x="845" y="-519.21" font-family="Helvetica,sans-Serif" font-size="8.00">_func_or_empty</text>
</g>
<!-- Node23 -->
<g id="node22" class="node">
<title>Node23</title>
<g id="a_node22"><a xlink:title=" ">
<polygon fill="white" stroke="#bfbfbf" points="651,-279.11 651,-296.11 711,-296.11 711,-279.11 651,-279.11"/>
<text text-anchor="middle" x="681" y="-285.71" font-family="Helvetica,sans-Serif" font-size="8.00">Error_code</text>
</a>
</g>
</g>
<!-- Node23&#45;&gt;Node1 -->
<g id="edge35" class="edge">
<title>Node23&#45;&gt;Node1</title>
<path fill="none" stroke="#9a32cd" stroke-dasharray="5,2" d="M721.42,-285.99C767.12,-283.89 844.65,-279.64 911,-272.61 1038.76,-259.06 1070.42,-252.6 1197,-230.61 1202.83,-229.59 1208.82,-228.51 1214.86,-227.39"/>
<polygon fill="#9a32cd" stroke="#9a32cd" points="721.18,-282.5 711.35,-286.44 721.49,-289.49 721.18,-282.5"/>
<text text-anchor="middle" x="1002" y="-272.21" font-family="Helvetica,sans-Serif" font-size="8.00"> m_pre_init_err_code</text>
</g>
<!-- Node23&#45;&gt;Node2 -->
<g id="edge25" class="edge">
<title>Node23&#45;&gt;Node2</title>
<path fill="none" stroke="#9a32cd" stroke-dasharray="5,2" d="M721.05,-291.83C784.23,-298.77 902.71,-312.24 911,-316.61 945.29,-334.65 972.77,-371.4 987.97,-395.23"/>
<polygon fill="#9a32cd" stroke="#9a32cd" points="721.36,-288.34 711.04,-290.74 720.6,-295.3 721.36,-288.34"/>
<text text-anchor="start" x="796.5" y="-328.21" font-family="Helvetica,sans-Serif" font-size="8.00"> m_peer_state_err_code</text>
<text text-anchor="middle" x="845" y="-319.21" font-family="Helvetica,sans-Serif" font-size="8.00">_or_ok</text>
</g>
<!-- Node24 -->
<g id="node23" class="node">
<title>Node24</title>
<g id="a_node23"><a xlink:title=" ">
<polygon fill="white" stroke="#bfbfbf" points="948.5,-182.11 948.5,-199.11 1055.5,-199.11 1055.5,-182.11 948.5,-182.11"/>
<text text-anchor="middle" x="1002" y="-188.71" font-family="Helvetica,sans-Serif" font-size="8.00">flow::log::Log_context</text>
</a>
</g>
</g>
<!-- Node24&#45;&gt;Node1 -->
<g id="edge26" class="edge">
<title>Node24&#45;&gt;Node1</title>
<path fill="none" stroke="midnightblue" d="M1065.58,-194.32C1108.64,-196.87 1166.55,-200.31 1214.8,-203.17"/>
<polygon fill="midnightblue" stroke="midnightblue" points="1065.71,-190.82 1055.52,-193.72 1065.29,-197.81 1065.71,-190.82"/>
</g>
<!-- Node25 -->
<g id="node24" class="node">
<title>Node25</title>
<g id="a_node24"><a xlink:title=" ">
<polygon fill="white" stroke="#bfbfbf" points="975.5,-146.11 975.5,-163.11 1028.5,-163.11 1028.5,-146.11 975.5,-146.11"/>
<text text-anchor="middle" x="1002" y="-152.71" font-family="Helvetica,sans-Serif" font-size="8.00">ShmType</text>
</a>
</g>
</g>
<!-- Node25&#45;&gt;Node1 -->
<g id="edge27" class="edge">
<title>Node25&#45;&gt;Node1</title>
<path fill="none" stroke="#9a32cd" stroke-dasharray="5,2" d="M1039.12,-159.84C1078.15,-165.62 1142.12,-175.47 1197,-185.61 1202.83,-186.68 1208.82,-187.83 1214.85,-189.01"/>
<polygon fill="#9a32cd" stroke="#9a32cd" points="1039.2,-156.32 1028.8,-158.32 1038.18,-163.24 1039.2,-156.32"/>
<text text-anchor="middle" x="1145" y="-188.21" font-family="Helvetica,sans-Serif" font-size="8.00"> S_SHM_TYPE</text>
</g>
<!-- Node26&#45;&gt;Node1 -->
<g id="edge30" class="edge">
<title>Node26&#45;&gt;Node1</title>
<path fill="none" stroke="#9a32cd" stroke-dasharray="5,2" d="M1041.48,-725.06C1085.61,-702.96 1157.02,-660.85 1197,-603.61 1280.54,-484.01 1300.5,-302.66 1305.14,-235.15"/>
<polygon fill="#9a32cd" stroke="#9a32cd" points="1039.93,-721.92 1032.49,-729.47 1043.01,-728.2 1039.93,-721.92"/>
<text text-anchor="middle" x="1145" y="-695.21" font-family="Helvetica,sans-Serif" font-size="8.00"> m_master_sock_stm</text>
</g>
<!-- Node27 -->
<g id="node26" class="node">
<title>Node27</title>
<g id="a_node26"><a xlink:title=" ">
<polygon fill="white" stroke="#bfbfbf" points="663.5,-740.11 663.5,-757.11 698.5,-757.11 698.5,-740.11 663.5,-740.11"/>
<text text-anchor="middle" x="681" y="-746.71" font-family="Helvetica,sans-Serif" font-size="8.00">bool</text>
</a>
</g>
</g>
<!-- Node27&#45;&gt;Node26 -->
<g id="edge32" class="edge">
<title>Node27&#45;&gt;Node26</title>
<path fill="none" stroke="#9a32cd" stroke-dasharray="5,2" d="M709.06,-746.87C728.51,-745.71 755.36,-744.27 779,-743.61 833.52,-742.08 895.59,-741.94 940.21,-742.11"/>
<polygon fill="#9a32cd" stroke="#9a32cd" points="708.58,-743.39 698.81,-747.5 709.01,-750.38 708.58,-743.39"/>
<text text-anchor="middle" x="845" y="-773.21" font-family="Helvetica,sans-Serif" font-size="8.00"> S_BLOB_UNDERFLOW_ALLOWED</text>
<text text-anchor="start" x="779" y="-764.21" font-family="Helvetica,sans-Serif" font-size="8.00">S_META_BLOB_UNDERFLOW</text>
<text text-anchor="middle" x="845" y="-755.21" font-family="Helvetica,sans-Serif" font-size="8.00">_ALLOWED</text>
<text text-anchor="middle" x="845" y="-746.21" font-family="Helvetica,sans-Serif" font-size="8.00">S_TRANSMIT_NATIVE_HANDLES</text>
</g>
<!-- Node28 -->
<g id="node27" class="node">
<title>Node28</title>
<g id="a_node27"><a xlink:title=" ">
<polygon fill="white" stroke="#bfbfbf" points="622,-821.11 622,-856.11 740,-856.11 740,-821.11 622,-821.11"/>
<text text-anchor="start" x="630" y="-845.71" font-family="Helvetica,sans-Serif" font-size="8.00">propagate_const&lt; boost</text>
<text text-anchor="start" x="630" y="-836.71" font-family="Helvetica,sans-Serif" font-size="8.00">::movelib::unique_ptr</text>
<text text-anchor="middle" x="681" y="-827.71" font-family="Helvetica,sans-Serif" font-size="8.00">&lt; Impl &gt; &gt;</text>
</a>
</g>
</g>
<!-- Node28&#45;&gt;Node26 -->
<g id="edge34" class="edge">
<title>Node28&#45;&gt;Node26</title>
<path fill="none" stroke="#9a32cd" stroke-dasharray="5,2" d="M750.46,-838C797.16,-835.53 859.63,-828.13 911,-807.61 941.25,-795.52 970.78,-771.07 987.36,-755.84"/>
<polygon fill="#9a32cd" stroke="#9a32cd" points="750.27,-834.51 740.44,-838.47 750.59,-841.5 750.27,-834.51"/>
<text text-anchor="middle" x="845" y="-837.21" font-family="Helvetica,sans-Serif" font-size="8.00"> m_impl</text>
</g>
<!-- Node29 -->
<g id="node28" class="node">
<title>Node29</title>
<g id="a_node28"><a xlink:title=" ">
<polygon fill="white" stroke="#bfbfbf" points="968,-110.11 968,-127.11 1036,-127.11 1036,-110.11 968,-110.11"/>
<text text-anchor="middle" x="1002" y="-116.71" font-family="Helvetica,sans-Serif" font-size="8.00">unsigned int</text>
</a>
</g>
</g>
<!-- Node29&#45;&gt;Node1 -->
<g id="edge36" class="edge">
<title>Node29&#45;&gt;Node1</title>
<path fill="none" stroke="#9a32cd" stroke-dasharray="5,2" d="M1046.09,-110.83C1086.37,-105.4 1147.56,-101.9 1197,-119.61 1231.6,-131.99 1263.24,-160.42 1283.52,-181.84"/>
<polygon fill="#9a32cd" stroke="#9a32cd" points="1045.47,-107.38 1036.07,-112.28 1046.47,-114.31 1045.47,-107.38"/>
<text text-anchor="start" x="1093" y="-158.21" font-family="Helvetica,sans-Serif" font-size="8.00"> m_last_actively_opened</text>
<text text-anchor="middle" x="1145" y="-149.21" font-family="Helvetica,sans-Serif" font-size="8.00">_channel_id</text>
<text text-anchor="middle" x="1145" y="-140.21" font-family="Helvetica,sans-Serif" font-size="8.00">m_last_channel_mq_id</text>
<text text-anchor="start" x="1093" y="-131.21" font-family="Helvetica,sans-Serif" font-size="8.00">m_last_passively_opened</text>
<text text-anchor="middle" x="1145" y="-122.21" font-family="Helvetica,sans-Serif" font-size="8.00">_channel_id</text>
</g>
<!-- Node30 -->
<g id="node29" class="node">
<title>Node30</title>
<g id="a_node29"><a xlink:title=" ">
<polygon fill="white" stroke="#bfbfbf" points="944,-74.11 944,-91.11 1060,-91.11 1060,-74.11 944,-74.11"/>
<text text-anchor="middle" x="1002" y="-80.71" font-family="Helvetica,sans-Serif" font-size="8.00">Single_thread_task_loop</text>
</a>
</g>
</g>
<!-- Node30&#45;&gt;Node1 -->
<g id="edge37" class="edge">
<title>Node30&#45;&gt;Node1</title>
<path fill="none" stroke="#9a32cd" stroke-dasharray="5,2" d="M1070.56,-74.03C1109.27,-72 1157.8,-74.49 1197,-92.61 1238.36,-111.72 1271.78,-154.16 1290.38,-182.07"/>
<polygon fill="#9a32cd" stroke="#9a32cd" points="1070.19,-70.55 1060.43,-74.67 1070.63,-77.53 1070.19,-70.55"/>
<text text-anchor="middle" x="1145" y="-95.21" font-family="Helvetica,sans-Serif" font-size="8.00"> m_async_worker</text>
</g>
<!-- Node31 -->
<g id="node30" class="node">
<title>Node31</title>
<g id="a_node30"><a xlink:title=" ">
<polygon fill="white" stroke="#bfbfbf" points="931,-38.11 931,-55.11 1073,-55.11 1073,-38.11 931,-38.11"/>
<text text-anchor="middle" x="1002" y="-44.71" font-family="Helvetica,sans-Serif" font-size="8.00">Master_structured_channel_ptr</text>
</a>
</g>
</g>
<!-- Node31&#45;&gt;Node1 -->
<g id="edge38" class="edge">
<title>Node31&#45;&gt;Node1</title>
<path fill="none" stroke="#9a32cd" stroke-dasharray="5,2" d="M1072.38,-37.48C1111.27,-35.61 1159.38,-38.96 1197,-59.61 1246.53,-86.79 1279.71,-147.02 1295.61,-182.01"/>
<polygon fill="#9a32cd" stroke="#9a32cd" points="1071.96,-33.99 1062.19,-38.09 1072.38,-40.98 1071.96,-33.99"/>
<text text-anchor="middle" x="1145" y="-62.21" font-family="Helvetica,sans-Serif" font-size="8.00"> m_master_channel</text>
</g>
<!-- Node32 -->
<g id="node31" class="node">
<title>Node32</title>
<g id="a_node31"><a xlink:href="classFunction_3_01void_07_08_4.html" target="_top" xlink:title=" ">
<polygon fill="white" stroke="#bfbfbf" points="956.5,-2.11 956.5,-19.11 1047.5,-19.11 1047.5,-2.11 956.5,-2.11"/>
<text text-anchor="middle" x="1002" y="-8.71" font-family="Helvetica,sans-Serif" font-size="8.00">Function&lt; void()&gt;</text>
</a>
</g>
</g>
<!-- Node32&#45;&gt;Node1 -->
<g id="edge39" class="edge">
<title>Node32&#45;&gt;Node1</title>
<path fill="none" stroke="#9a32cd" stroke-dasharray="5,2" d="M1057.91,-1.66C1099.2,2.18 1155.54,0.98 1197,-24.61 1255.36,-60.63 1286.48,-140.3 1299.3,-182"/>
<polygon fill="#9a32cd" stroke="#9a32cd" points="1057.34,1.8 1047.76,-2.73 1058.07,-5.16 1057.34,1.8"/>
<text text-anchor="middle" x="1145" y="-27.21" font-family="Helvetica,sans-Serif" font-size="8.00"> m_deinit_func_or_empty</text>
</g>
</g>
</svg>
