<?xml version="1.0" encoding="UTF-8" standalone="no"?>
<!DOCTYPE svg PUBLIC "-//W3C//DTD SVG 1.1//EN"
 "http://www.w3.org/Graphics/SVG/1.1/DTD/svg11.dtd">
<!-- Generated by graphviz version 2.43.0 (0)
 -->
<!-- Title: ipc::transport::sync_io::Native_socket_stream::replace_event_wait_handles Pages: 1 -->
<svg width="521pt" height="44pt"
 viewBox="0.00 0.00 521.00 44.00" xmlns="http://www.w3.org/2000/svg" xmlns:xlink="http://www.w3.org/1999/xlink">
<g id="graph0" class="graph" transform="scale(1 1) rotate(0) translate(4 40)">
<title>ipc::transport::sync_io::Native_socket_stream::replace_event_wait_handles</title>
<polygon fill="white" stroke="transparent" points="-4,4 -4,-40 517,-40 517,4 -4,4"/>
<!-- Node1 -->
<g id="node1" class="node">
<title>Node1</title>
<g id="a_node1"><a xlink:title="Implements Native_handle_sender and Native_handle_receiver APIs at the same time, per their concept c...">
<polygon fill="#bfbfbf" stroke="black" points="0,-0.5 0,-35.5 138,-35.5 138,-0.5 0,-0.5"/>
<text text-anchor="start" x="8" y="-25.1" font-family="Helvetica,sans-Serif" font-size="8.00">ipc::transport::sync</text>
<text text-anchor="start" x="8" y="-16.1" font-family="Helvetica,sans-Serif" font-size="8.00">_io::Native_socket_stream</text>
<text text-anchor="middle" x="69" y="-7.1" font-family="Helvetica,sans-Serif" font-size="8.00">::replace_event_wait_handles</text>
</a>
</g>
</g>
<!-- Node2 -->
<g id="node2" class="node">
<title>Node2</title>
<g id="a_node2"><a xlink:href="classipc_1_1transport_1_1sync__io_1_1Native__socket__stream.html#a7488c933bc6734ff20222aef6f841995" target="_top" xlink:title="Template&#45;free version of replace_event_wait_handles() as required by pImpl idiom.">
<polygon fill="white" stroke="black" points="174,-0.5 174,-35.5 331,-35.5 331,-0.5 174,-0.5"/>
<text text-anchor="start" x="182" y="-25.1" font-family="Helvetica,sans-Serif" font-size="8.00">ipc::transport::sync</text>
<text text-anchor="start" x="182" y="-16.1" font-family="Helvetica,sans-Serif" font-size="8.00">_io::Native_socket_stream</text>
<text text-anchor="middle" x="252.5" y="-7.1" font-family="Helvetica,sans-Serif" font-size="8.00">::replace_event_wait_handles_fwd</text>
</a>
</g>
</g>
<!-- Node1&#45;&gt;Node2 -->
<g id="edge1" class="edge">
<title>Node1&#45;&gt;Node2</title>
<path fill="none" stroke="midnightblue" d="M138.1,-18C146.49,-18 155.15,-18 163.77,-18"/>
<polygon fill="midnightblue" stroke="midnightblue" points="163.87,-21.5 173.87,-18 163.87,-14.5 163.87,-21.5"/>
</g>
<!-- Node3 -->
<g id="node3" class="node">
<title>Node3</title>
<g id="a_node3"><a xlink:href="classipc_1_1transport_1_1sync__io_1_1Native__socket__stream.html#a8e3703d5c8bac62f828a372691249c85" target="_top" xlink:title="Helper that simply returns m_impl while guaranteeing that m_impl is non&#45;null upon return.">
<polygon fill="white" stroke="black" points="367,-5 367,-31 513,-31 513,-5 367,-5"/>
<text text-anchor="start" x="375" y="-20.6" font-family="Helvetica,sans-Serif" font-size="8.00">ipc::transport::sync</text>
<text text-anchor="middle" x="440" y="-11.6" font-family="Helvetica,sans-Serif" font-size="8.00">_io::Native_socket_stream::impl</text>
</a>
</g>
</g>
<!-- Node2&#45;&gt;Node3 -->
<g id="edge2" class="edge">
<title>Node2&#45;&gt;Node3</title>
<path fill="none" stroke="midnightblue" d="M331.09,-18C339.49,-18 348.06,-18 356.52,-18"/>
<polygon fill="midnightblue" stroke="midnightblue" points="356.75,-21.5 366.75,-18 356.75,-14.5 356.75,-21.5"/>
</g>
</g>
</svg>
