<?xml version="1.0" encoding="UTF-8" standalone="no"?>
<!DOCTYPE svg PUBLIC "-//W3C//DTD SVG 1.1//EN"
 "http://www.w3.org/Graphics/SVG/1.1/DTD/svg11.dtd">
<!-- Generated by graphviz version 2.43.0 (0)
 -->
<!-- Title: ipc::transport::struc::Channel::expect_msg Pages: 1 -->
<svg width="270pt" height="44pt"
 viewBox="0.00 0.00 270.00 44.00" xmlns="http://www.w3.org/2000/svg" xmlns:xlink="http://www.w3.org/1999/xlink">
<g id="graph0" class="graph" transform="scale(1 1) rotate(0) translate(4 40)">
<title>ipc::transport::struc::Channel::expect_msg</title>
<polygon fill="white" stroke="transparent" points="-4,4 -4,-40 266,-40 266,4 -4,4"/>
<!-- Node1 -->
<g id="node1" class="node">
<title>Node1</title>
<g id="a_node1"><a xlink:title="Registers the expectation of up to 1 notification in&#45;message whose Msg_which equals which.">
<polygon fill="#bfbfbf" stroke="black" points="152,-5 152,-31 262,-31 262,-5 152,-5"/>
<text text-anchor="start" x="160" y="-20.6" font-family="Helvetica,sans-Serif" font-size="8.00">ipc::transport::struc</text>
<text text-anchor="middle" x="207" y="-11.6" font-family="Helvetica,sans-Serif" font-size="8.00">::Channel::expect_msg</text>
</a>
</g>
</g>
<!-- Node2 -->
<g id="node2" class="node">
<title>Node2</title>
<g id="a_node2"><a xlink:href="classipc_1_1session_1_1Session__base_1_1Graceful__finisher.html#a28a9c414cee99b868b2cd291cee24ea0" target="_top" xlink:title="You must invoke this ctor (instantiate us) if and only if synchronized dtor execution is indeed requi...">
<polygon fill="white" stroke="black" points="0,-0.5 0,-35.5 116,-35.5 116,-0.5 0,-0.5"/>
<text text-anchor="start" x="8" y="-25.1" font-family="Helvetica,sans-Serif" font-size="8.00">ipc::session::Session</text>
<text text-anchor="start" x="8" y="-16.1" font-family="Helvetica,sans-Serif" font-size="8.00">_base::Graceful_finisher</text>
<text text-anchor="middle" x="58" y="-7.1" font-family="Helvetica,sans-Serif" font-size="8.00">::Graceful_finisher</text>
</a>
</g>
</g>
<!-- Node1&#45;&gt;Node2 -->
<g id="edge1" class="edge">
<title>Node1&#45;&gt;Node2</title>
<path fill="none" stroke="midnightblue" d="M141.47,-18C133,-18 124.38,-18 116.05,-18"/>
<polygon fill="midnightblue" stroke="midnightblue" points="141.68,-21.5 151.68,-18 141.68,-14.5 141.68,-21.5"/>
</g>
</g>
</svg>
