<?xml version="1.0" encoding="UTF-8" standalone="no"?>
<!DOCTYPE svg PUBLIC "-//W3C//DTD SVG 1.1//EN"
 "http://www.w3.org/Graphics/SVG/1.1/DTD/svg11.dtd">
<!-- Generated by graphviz version 2.43.0 (0)
 -->
<!-- Title: ipc::session::Session_base&lt; S_MQ_TYPE_OR_NONE, S_TRANSMIT_NATIVE_HANDLES, Mdt_payload &gt;::Graceful_finisher Pages: 1 -->
<svg width="1433pt" height="818pt"
 viewBox="0.00 0.00 1433.00 818.00" xmlns="http://www.w3.org/2000/svg" xmlns:xlink="http://www.w3.org/1999/xlink">
<g id="graph0" class="graph" transform="scale(1 1) rotate(0) translate(4 814)">
<title>ipc::session::Session_base&lt; S_MQ_TYPE_OR_NONE, S_TRANSMIT_NATIVE_HANDLES, Mdt_payload &gt;::Graceful_finisher</title>
<polygon fill="white" stroke="transparent" points="-4,4 -4,-814 1429,-814 1429,4 -4,4"/>
<!-- Node1 -->
<g id="node1" class="node">
<title>Node1</title>
<g id="a_node1"><a xlink:title="Optional to use by subclasses, this operates a simple state machine that carries out a graceful&#45;sessi...">
<polygon fill="#bfbfbf" stroke="black" points="1270,-234 1270,-278 1425,-278 1425,-234 1270,-234"/>
<text text-anchor="start" x="1278" y="-267.6" font-family="Helvetica,sans-Serif" font-size="8.00">ipc::session::Session</text>
<text text-anchor="start" x="1278" y="-258.6" font-family="Helvetica,sans-Serif" font-size="8.00">_base&lt; S_MQ_TYPE_OR_NONE,</text>
<text text-anchor="start" x="1278" y="-249.6" font-family="Helvetica,sans-Serif" font-size="8.00"> S_TRANSMIT_NATIVE_HANDLES,</text>
<text text-anchor="middle" x="1347.5" y="-240.6" font-family="Helvetica,sans-Serif" font-size="8.00"> Mdt_payload &gt;::Graceful_finisher</text>
</a>
</g>
</g>
<!-- Node2 -->
<g id="node2" class="node">
<title>Node2</title>
<g id="a_node2"><a xlink:title=" ">
<polygon fill="white" stroke="#bfbfbf" points="685.5,-243.5 685.5,-260.5 792.5,-260.5 792.5,-243.5 685.5,-243.5"/>
<text text-anchor="middle" x="739" y="-250.1" font-family="Helvetica,sans-Serif" font-size="8.00">flow::log::Log_context</text>
</a>
</g>
</g>
<!-- Node2&#45;&gt;Node1 -->
<g id="edge1" class="edge">
<title>Node2&#45;&gt;Node1</title>
<path fill="none" stroke="midnightblue" d="M802.98,-252.52C881.78,-253.17 1020.87,-254.26 1140,-255 1182.84,-255.26 1230.68,-255.5 1269.52,-255.68"/>
<polygon fill="midnightblue" stroke="midnightblue" points="802.76,-249.02 792.74,-252.44 802.71,-256.02 802.76,-249.02"/>
</g>
<!-- Node26 -->
<g id="node25" class="node">
<title>Node26</title>
<g id="a_node25"><a xlink:href="classipc_1_1transport_1_1struc_1_1Channel.html" target="_top" xlink:title="Owning and wrapping a pre&#45;connected transport::Channel peer (an endpoint of an established channel ov...">
<polygon fill="white" stroke="black" points="977.5,-196 977.5,-240 1120.5,-240 1120.5,-196 977.5,-196"/>
<text text-anchor="start" x="985.5" y="-229.6" font-family="Helvetica,sans-Serif" font-size="8.00">ipc::transport::struc</text>
<text text-anchor="start" x="985.5" y="-220.6" font-family="Helvetica,sans-Serif" font-size="8.00">::Channel&lt; Channel_obj,</text>
<text text-anchor="start" x="985.5" y="-211.6" font-family="Helvetica,sans-Serif" font-size="8.00"> Message_body, Struct_builder</text>
<text text-anchor="middle" x="1049" y="-202.6" font-family="Helvetica,sans-Serif" font-size="8.00">_config, Struct_reader_config &gt;</text>
</a>
</g>
</g>
<!-- Node2&#45;&gt;Node26 -->
<g id="edge31" class="edge">
<title>Node2&#45;&gt;Node26</title>
<path fill="none" stroke="midnightblue" d="M787.99,-241.39C803.56,-238.28 820.95,-235.13 837,-233 883.6,-226.8 936.35,-223.05 977.45,-220.85"/>
<polygon fill="midnightblue" stroke="midnightblue" points="787.16,-237.99 778.06,-243.43 788.56,-244.85 787.16,-237.99"/>
</g>
<!-- Node3 -->
<g id="node3" class="node">
<title>Node3</title>
<g id="a_node3"><a xlink:title=" ">
<polygon fill="white" stroke="#bfbfbf" points="689.5,-326.5 689.5,-343.5 788.5,-343.5 788.5,-326.5 689.5,-326.5"/>
<text text-anchor="middle" x="739" y="-333.1" font-family="Helvetica,sans-Serif" font-size="8.00">boost::noncopyable</text>
</a>
</g>
</g>
<!-- Node3&#45;&gt;Node1 -->
<g id="edge2" class="edge">
<title>Node3&#45;&gt;Node1</title>
<path fill="none" stroke="#8b1a1a" d="M798.83,-332.84C842.79,-330.84 904.29,-327.2 958,-321 1066.86,-308.43 1191.67,-286.13 1269.8,-271.2"/>
<polygon fill="#8b1a1a" stroke="#8b1a1a" points="798.45,-329.36 788.61,-333.29 798.76,-336.35 798.45,-329.36"/>
</g>
<!-- Node4 -->
<g id="node4" class="node">
<title>Node4</title>
<g id="a_node4"><a xlink:href="classipc_1_1session_1_1Session__base.html" target="_top" xlink:title="Internal type containing data and types common to internal types Server_session_impl and Client_sessi...">
<polygon fill="white" stroke="black" points="976,-485 976,-529 1122,-529 1122,-485 976,-485"/>
<text text-anchor="start" x="984" y="-518.6" font-family="Helvetica,sans-Serif" font-size="8.00">ipc::session::Session</text>
<text text-anchor="start" x="984" y="-509.6" font-family="Helvetica,sans-Serif" font-size="8.00">_base&lt; S_MQ_TYPE_OR_NONE,</text>
<text text-anchor="start" x="984" y="-500.6" font-family="Helvetica,sans-Serif" font-size="8.00"> S_TRANSMIT_NATIVE_HANDLES,</text>
<text text-anchor="middle" x="1049" y="-491.6" font-family="Helvetica,sans-Serif" font-size="8.00"> Mdt_payload &gt;</text>
</a>
</g>
</g>
<!-- Node3&#45;&gt;Node4 -->
<g id="edge4" class="edge">
<title>Node3&#45;&gt;Node4</title>
<path fill="none" stroke="#8b1a1a" d="M798.84,-343.12C858.77,-351.78 944.76,-365.39 958,-374 999.49,-400.97 1026.71,-454.48 1039.51,-484.76"/>
<polygon fill="#8b1a1a" stroke="#8b1a1a" points="799.11,-339.63 788.71,-341.67 798.12,-346.55 799.11,-339.63"/>
</g>
<!-- Node3&#45;&gt;Node26 -->
<g id="edge30" class="edge">
<title>Node3&#45;&gt;Node26</title>
<path fill="none" stroke="#8b1a1a" d="M761.56,-320.85C780.75,-308.74 809.89,-291.49 837,-280 882.35,-260.78 935.57,-245.19 977.22,-234.45"/>
<polygon fill="#8b1a1a" stroke="#8b1a1a" points="759.53,-318 753,-326.34 763.31,-323.89 759.53,-318"/>
</g>
<!-- Node4&#45;&gt;Node1 -->
<g id="edge3" class="edge">
<title>Node4&#45;&gt;Node1</title>
<path fill="none" stroke="#9a32cd" stroke-dasharray="5,2" d="M1088.47,-478.96C1129.89,-448.3 1197.23,-397.1 1252,-349 1278.29,-325.91 1306.68,-297.46 1325.4,-278.14"/>
<polygon fill="#9a32cd" stroke="#9a32cd" points="1086.26,-476.24 1080.29,-485 1090.41,-481.87 1086.26,-476.24"/>
<text text-anchor="middle" x="1196" y="-439.6" font-family="Helvetica,sans-Serif" font-size="8.00"> m_this_session</text>
</g>
<!-- Node5 -->
<g id="node5" class="node">
<title>Node5</title>
<g id="a_node5"><a xlink:title=" ">
<polygon fill="white" stroke="#bfbfbf" points="688.5,-707.5 688.5,-724.5 789.5,-724.5 789.5,-707.5 688.5,-707.5"/>
<text text-anchor="middle" x="739" y="-714.1" font-family="Helvetica,sans-Serif" font-size="8.00">static constexpr bool</text>
</a>
</g>
</g>
<!-- Node5&#45;&gt;Node4 -->
<g id="edge5" class="edge">
<title>Node5&#45;&gt;Node4</title>
<path fill="none" stroke="#9a32cd" stroke-dasharray="5,2" d="M799.82,-724.52C846.97,-727.99 912.17,-725.21 958,-693 1014.06,-653.6 1036.57,-569.45 1044.38,-529.26"/>
<polygon fill="#9a32cd" stroke="#9a32cd" points="800.01,-721.03 789.75,-723.67 799.42,-728 800.01,-721.03"/>
<text text-anchor="middle" x="897.5" y="-736.6" font-family="Helvetica,sans-Serif" font-size="8.00"> S_MQS_ENABLED</text>
<text text-anchor="middle" x="897.5" y="-727.6" font-family="Helvetica,sans-Serif" font-size="8.00">S_SOCKET_STREAM_ENABLED</text>
</g>
<!-- Node6 -->
<g id="node6" class="node">
<title>Node6</title>
<g id="a_node6"><a xlink:href="structipc_1_1session_1_1Server__app.html" target="_top" xlink:title="An App that is used as a server in at least one client&#45;server IPC split.">
<polygon fill="white" stroke="black" points="429,-575.5 429,-592.5 547,-592.5 547,-575.5 429,-575.5"/>
<text text-anchor="middle" x="488" y="-582.1" font-family="Helvetica,sans-Serif" font-size="8.00">ipc::session::Server_app</text>
</a>
</g>
</g>
<!-- Node6&#45;&gt;Node4 -->
<g id="edge6" class="edge">
<title>Node6&#45;&gt;Node4</title>
<path fill="none" stroke="#9a32cd" stroke-dasharray="5,2" d="M557.2,-585.94C649.63,-586.9 819.07,-582.69 958,-546 973.48,-541.91 989.72,-535.57 1004.08,-529.18"/>
<polygon fill="#9a32cd" stroke="#9a32cd" points="557.18,-582.44 547.14,-585.82 557.09,-589.44 557.18,-582.44"/>
<text text-anchor="middle" x="739" y="-586.6" font-family="Helvetica,sans-Serif" font-size="8.00"> m_srv_app_ref</text>
</g>
<!-- Node7 -->
<g id="node7" class="node">
<title>Node7</title>
<g id="a_node7"><a xlink:href="structipc_1_1session_1_1App.html" target="_top" xlink:title="A description of an application in this ipc::session inter&#45;process communication universe.">
<polygon fill="white" stroke="black" points="197,-619.5 197,-636.5 285,-636.5 285,-619.5 197,-619.5"/>
<text text-anchor="middle" x="241" y="-626.1" font-family="Helvetica,sans-Serif" font-size="8.00">ipc::session::App</text>
</a>
</g>
</g>
<!-- Node7&#45;&gt;Node6 -->
<g id="edge7" class="edge">
<title>Node7&#45;&gt;Node6</title>
<path fill="none" stroke="midnightblue" d="M295.24,-618.44C338.25,-610.72 398.22,-599.94 439.59,-592.51"/>
<polygon fill="midnightblue" stroke="midnightblue" points="294.46,-615.02 285.24,-620.23 295.7,-621.91 294.46,-615.02"/>
</g>
<!-- Node18 -->
<g id="node17" class="node">
<title>Node18</title>
<g id="a_node17"><a xlink:href="structipc_1_1session_1_1Client__app.html" target="_top" xlink:title="An App that is used as a client in at least one client&#45;server IPC split.">
<polygon fill="white" stroke="black" points="430.5,-624.5 430.5,-641.5 545.5,-641.5 545.5,-624.5 430.5,-624.5"/>
<text text-anchor="middle" x="488" y="-631.1" font-family="Helvetica,sans-Serif" font-size="8.00">ipc::session::Client_app</text>
</a>
</g>
</g>
<!-- Node7&#45;&gt;Node18 -->
<g id="edge19" class="edge">
<title>Node7&#45;&gt;Node18</title>
<path fill="none" stroke="midnightblue" d="M295.31,-629.09C335.21,-629.9 389.7,-631.01 430.38,-631.84"/>
<polygon fill="midnightblue" stroke="midnightblue" points="295.31,-625.59 285.24,-628.88 295.16,-632.59 295.31,-625.59"/>
</g>
<!-- Node8 -->
<g id="node8" class="node">
<title>Node8</title>
<g id="a_node8"><a xlink:title=" ">
<polygon fill="white" stroke="red" points="12.5,-672.5 12.5,-689.5 71.5,-689.5 71.5,-672.5 12.5,-672.5"/>
<text text-anchor="middle" x="42" y="-679.1" font-family="Helvetica,sans-Serif" font-size="8.00">std::string</text>
</a>
</g>
</g>
<!-- Node8&#45;&gt;Node7 -->
<g id="edge8" class="edge">
<title>Node8&#45;&gt;Node7</title>
<path fill="none" stroke="#9a32cd" stroke-dasharray="5,2" d="M81.58,-670.62C118.61,-660.66 173.88,-645.79 208.38,-636.51"/>
<polygon fill="#9a32cd" stroke="#9a32cd" points="80.39,-667.32 71.65,-673.29 82.21,-674.08 80.39,-667.32"/>
<text text-anchor="middle" x="135" y="-665.6" font-family="Helvetica,sans-Serif" font-size="8.00"> m_name</text>
</g>
<!-- Node19 -->
<g id="node18" class="node">
<title>Node19</title>
<g id="a_node18"><a xlink:href="classipc_1_1util_1_1Shared__name.html" target="_top" xlink:title="String&#45;wrapping abstraction representing a name uniquely distinguishing a kernel&#45;persistent entity fr...">
<polygon fill="white" stroke="black" points="186,-702.5 186,-719.5 296,-719.5 296,-702.5 186,-702.5"/>
<text text-anchor="middle" x="241" y="-709.1" font-family="Helvetica,sans-Serif" font-size="8.00">ipc::util::Shared_name</text>
</a>
</g>
</g>
<!-- Node8&#45;&gt;Node19 -->
<g id="edge24" class="edge">
<title>Node8&#45;&gt;Node19</title>
<path fill="none" stroke="#9a32cd" stroke-dasharray="5,2" d="M81.62,-686.88C111.28,-691.4 152.63,-697.69 185.63,-702.72"/>
<polygon fill="#9a32cd" stroke="#9a32cd" points="82.06,-683.41 71.65,-685.36 81,-690.33 82.06,-683.41"/>
<text text-anchor="middle" x="135" y="-701.6" font-family="Helvetica,sans-Serif" font-size="8.00"> m_raw_name</text>
</g>
<!-- Node10 -->
<g id="node9" class="node">
<title>Node10</title>
<g id="a_node9"><a xlink:title=" ">
<polygon fill="white" stroke="#bfbfbf" points="24.5,-588.5 24.5,-605.5 59.5,-605.5 59.5,-588.5 24.5,-588.5"/>
<text text-anchor="middle" x="42" y="-595.1" font-family="Helvetica,sans-Serif" font-size="8.00">path</text>
</a>
</g>
</g>
<!-- Node10&#45;&gt;Node6 -->
<g id="edge13" class="edge">
<title>Node10&#45;&gt;Node6</title>
<path fill="none" stroke="#9a32cd" stroke-dasharray="5,2" d="M69.11,-586.53C74.15,-584.23 79.31,-581.68 84,-579 92.57,-574.1 93.08,-570.21 102,-566 136.9,-549.53 147.72,-548.93 186,-544 286.65,-531.04 406.13,-560.19 459.21,-575.45"/>
<polygon fill="#9a32cd" stroke="#9a32cd" points="67.53,-583.4 59.75,-590.59 70.32,-589.82 67.53,-583.4"/>
<text text-anchor="start" x="198.5" y="-555.6" font-family="Helvetica,sans-Serif" font-size="8.00"> m_kernel_persistent</text>
<text text-anchor="middle" x="241" y="-546.6" font-family="Helvetica,sans-Serif" font-size="8.00">_run_dir_override</text>
</g>
<!-- Node10&#45;&gt;Node7 -->
<g id="edge9" class="edge">
<title>Node10&#45;&gt;Node7</title>
<path fill="none" stroke="#9a32cd" stroke-dasharray="5,2" d="M69.54,-600.92C94.85,-604.69 134.05,-610.59 168,-616 177.39,-617.5 187.45,-619.14 196.99,-620.73"/>
<polygon fill="#9a32cd" stroke="#9a32cd" points="70,-597.45 59.59,-599.44 68.97,-604.38 70,-597.45"/>
<text text-anchor="middle" x="135" y="-618.6" font-family="Helvetica,sans-Serif" font-size="8.00"> m_exec_path</text>
</g>
<!-- Node11 -->
<g id="node10" class="node">
<title>Node11</title>
<g id="a_node10"><a xlink:title=" ">
<polygon fill="white" stroke="#bfbfbf" points="24,-552.5 24,-569.5 60,-569.5 60,-552.5 24,-552.5"/>
<text text-anchor="middle" x="42" y="-559.1" font-family="Helvetica,sans-Serif" font-size="8.00">uid_t</text>
</a>
</g>
</g>
<!-- Node11&#45;&gt;Node7 -->
<g id="edge10" class="edge">
<title>Node11&#45;&gt;Node7</title>
<path fill="none" stroke="#9a32cd" stroke-dasharray="5,2" d="M69.97,-564.12C96.15,-567.95 136.45,-576.01 168,-592 177.29,-596.71 177.03,-601.71 186,-607 194.4,-611.96 204.19,-616.17 213.11,-619.5"/>
<polygon fill="#9a32cd" stroke="#9a32cd" points="70.4,-560.64 60.02,-562.77 69.46,-567.58 70.4,-560.64"/>
<text text-anchor="middle" x="135" y="-594.6" font-family="Helvetica,sans-Serif" font-size="8.00"> m_user_id</text>
</g>
<!-- Node12 -->
<g id="node11" class="node">
<title>Node12</title>
<g id="a_node11"><a xlink:title=" ">
<polygon fill="white" stroke="#bfbfbf" points="24,-624.5 24,-641.5 60,-641.5 60,-624.5 24,-624.5"/>
<text text-anchor="middle" x="42" y="-631.1" font-family="Helvetica,sans-Serif" font-size="8.00">gid_t</text>
</a>
</g>
</g>
<!-- Node12&#45;&gt;Node7 -->
<g id="edge11" class="edge">
<title>Node12&#45;&gt;Node7</title>
<path fill="none" stroke="#9a32cd" stroke-dasharray="5,2" d="M70.33,-632.31C103.09,-631.47 158.4,-630.07 196.93,-629.09"/>
<polygon fill="#9a32cd" stroke="#9a32cd" points="70.05,-628.81 60.14,-632.57 70.22,-635.81 70.05,-628.81"/>
<text text-anchor="middle" x="135" y="-633.6" font-family="Helvetica,sans-Serif" font-size="8.00"> m_group_id</text>
</g>
<!-- Node13 -->
<g id="node12" class="node">
<title>Node13</title>
<g id="a_node12"><a xlink:title=" ">
<polygon fill="white" stroke="#bfbfbf" points="192,-571 192,-597 290,-597 290,-571 192,-571"/>
<text text-anchor="start" x="200" y="-586.6" font-family="Helvetica,sans-Serif" font-size="8.00">unordered_set&lt; std</text>
<text text-anchor="middle" x="241" y="-577.6" font-family="Helvetica,sans-Serif" font-size="8.00">::string &gt;</text>
</a>
</g>
</g>
<!-- Node13&#45;&gt;Node6 -->
<g id="edge12" class="edge">
<title>Node13&#45;&gt;Node6</title>
<path fill="none" stroke="#9a32cd" stroke-dasharray="5,2" d="M300.21,-584C339,-584 389.8,-584 428.63,-584"/>
<polygon fill="#9a32cd" stroke="#9a32cd" points="300.11,-580.5 290.11,-584 300.11,-587.5 300.11,-580.5"/>
<text text-anchor="middle" x="362.5" y="-586.6" font-family="Helvetica,sans-Serif" font-size="8.00"> m_allowed_client_apps</text>
</g>
<!-- Node14 -->
<g id="node13" class="node">
<title>Node14</title>
<g id="a_node13"><a xlink:title=" ">
<polygon fill="white" stroke="#bfbfbf" points="196.5,-480.5 196.5,-497.5 285.5,-497.5 285.5,-480.5 196.5,-480.5"/>
<text text-anchor="middle" x="241" y="-487.1" font-family="Helvetica,sans-Serif" font-size="8.00">Permissions_level</text>
</a>
</g>
</g>
<!-- Node14&#45;&gt;Node6 -->
<g id="edge14" class="edge">
<title>Node14&#45;&gt;Node6</title>
<path fill="none" stroke="#9a32cd" stroke-dasharray="5,2" d="M295.93,-483.37C330.47,-482.06 375.34,-484.77 411,-502 445.26,-518.55 471.61,-557.82 482.08,-575.33"/>
<polygon fill="#9a32cd" stroke="#9a32cd" points="295.37,-479.9 285.56,-483.9 295.72,-486.89 295.37,-479.9"/>
<text text-anchor="start" x="319" y="-513.6" font-family="Helvetica,sans-Serif" font-size="8.00"> m_permissions_level</text>
<text text-anchor="middle" x="362.5" y="-504.6" font-family="Helvetica,sans-Serif" font-size="8.00">_for_client_apps</text>
</g>
<!-- Node15 -->
<g id="node14" class="node">
<title>Node15</title>
<g id="a_node14"><a xlink:title=" ">
<polygon fill="white" stroke="#bfbfbf" points="703.5,-534.5 703.5,-551.5 774.5,-551.5 774.5,-534.5 703.5,-534.5"/>
<text text-anchor="middle" x="739" y="-541.1" font-family="Helvetica,sans-Serif" font-size="8.00">Fine_duration</text>
</a>
</g>
</g>
<!-- Node15&#45;&gt;Node4 -->
<g id="edge15" class="edge">
<title>Node15&#45;&gt;Node4</title>
<path fill="none" stroke="#9a32cd" stroke-dasharray="5,2" d="M784.89,-538.77C829.01,-534.5 898.22,-527.47 958,-520 963.8,-519.28 969.8,-518.49 975.82,-517.67"/>
<polygon fill="#9a32cd" stroke="#9a32cd" points="784.4,-535.3 774.78,-539.75 785.07,-542.27 784.4,-535.3"/>
<text text-anchor="middle" x="897.5" y="-535.6" font-family="Helvetica,sans-Serif" font-size="8.00"> S_OPEN_CHANNEL_TIMEOUT</text>
</g>
<!-- Node16 -->
<g id="node15" class="node">
<title>Node16</title>
<g id="a_node15"><a xlink:title=" ">
<polygon fill="white" stroke="#bfbfbf" points="685.5,-498.5 685.5,-515.5 792.5,-515.5 792.5,-498.5 685.5,-498.5"/>
<text text-anchor="middle" x="739" y="-505.1" font-family="Helvetica,sans-Serif" font-size="8.00">static constexpr size_t</text>
</a>
</g>
</g>
<!-- Node16&#45;&gt;Node4 -->
<g id="edge16" class="edge">
<title>Node16&#45;&gt;Node4</title>
<path fill="none" stroke="#9a32cd" stroke-dasharray="5,2" d="M802.68,-507C852.91,-507 923.45,-507 976,-507"/>
<polygon fill="#9a32cd" stroke="#9a32cd" points="802.6,-503.5 792.6,-507 802.6,-510.5 802.6,-503.5"/>
<text text-anchor="middle" x="897.5" y="-509.6" font-family="Helvetica,sans-Serif" font-size="8.00"> S_MQS_MAX_MSG_SZ</text>
</g>
<!-- Node17 -->
<g id="node16" class="node">
<title>Node17</title>
<g id="a_node16"><a xlink:title=" ">
<polygon fill="white" stroke="black" points="690,-615.5 690,-650.5 788,-650.5 788,-615.5 690,-615.5"/>
<text text-anchor="start" x="698" y="-640.1" font-family="Helvetica,sans-Serif" font-size="8.00">std::atomic&lt; const</text>
<text text-anchor="start" x="698" y="-631.1" font-family="Helvetica,sans-Serif" font-size="8.00"> ipc::session::Client</text>
<text text-anchor="middle" x="739" y="-622.1" font-family="Helvetica,sans-Serif" font-size="8.00">_app * &gt;</text>
</a>
</g>
</g>
<!-- Node17&#45;&gt;Node4 -->
<g id="edge17" class="edge">
<title>Node17&#45;&gt;Node4</title>
<path fill="none" stroke="#9a32cd" stroke-dasharray="5,2" d="M798.29,-634.94C844.11,-634.13 908.27,-627.69 958,-602 990.7,-585.11 1018.05,-551.55 1033.73,-529.19"/>
<polygon fill="#9a32cd" stroke="#9a32cd" points="798.19,-631.44 788.23,-635.04 798.26,-638.44 798.19,-631.44"/>
<text text-anchor="middle" x="897.5" y="-634.6" font-family="Helvetica,sans-Serif" font-size="8.00"> m_cli_app_ptr</text>
</g>
<!-- Node18&#45;&gt;Node17 -->
<g id="edge18" class="edge">
<title>Node18&#45;&gt;Node17</title>
<path fill="none" stroke="#9a32cd" stroke-dasharray="5,2" d="M555.7,-633C597.93,-633 651.56,-633 689.69,-633"/>
<polygon fill="#9a32cd" stroke="#9a32cd" points="555.5,-629.5 545.5,-633 555.5,-636.5 555.5,-629.5"/>
<text text-anchor="middle" x="603" y="-635.6" font-family="Helvetica,sans-Serif" font-size="8.00"> ptr</text>
</g>
<!-- Node19&#45;&gt;Node4 -->
<g id="edge20" class="edge">
<title>Node19&#45;&gt;Node4</title>
<path fill="none" stroke="#9a32cd" stroke-dasharray="5,2" d="M306.26,-708.31C471.69,-700.93 903.12,-678.66 958,-645 1001.89,-618.08 1028.55,-560.79 1040.52,-529.15"/>
<polygon fill="#9a32cd" stroke="#9a32cd" points="306.06,-704.82 296.23,-708.75 306.37,-711.81 306.06,-704.82"/>
<text text-anchor="middle" x="603" y="-705.6" font-family="Helvetica,sans-Serif" font-size="8.00"> m_cli_namespace</text>
<text text-anchor="middle" x="603" y="-696.6" font-family="Helvetica,sans-Serif" font-size="8.00">m_srv_namespace</text>
</g>
<!-- Node19&#45;&gt;Node19 -->
<g id="edge21" class="edge">
<title>Node19&#45;&gt;Node19</title>
<path fill="none" stroke="#9a32cd" stroke-dasharray="5,2" d="M221.19,-728.86C221.93,-734.02 228.53,-738 241,-738 260.46,-738 265.63,-728.29 256.51,-719.57"/>
<polygon fill="#9a32cd" stroke="#9a32cd" points="224.47,-730.12 225.49,-719.57 218.12,-727.18 224.47,-730.12"/>
<text text-anchor="middle" x="241" y="-803.6" font-family="Helvetica,sans-Serif" font-size="8.00"> S_1ST_OR_ONLY</text>
<text text-anchor="middle" x="241" y="-794.6" font-family="Helvetica,sans-Serif" font-size="8.00">S_EMPTY</text>
<text text-anchor="start" x="202.5" y="-785.6" font-family="Helvetica,sans-Serif" font-size="8.00">S_RESOURCE_TYPE</text>
<text text-anchor="middle" x="241" y="-776.6" font-family="Helvetica,sans-Serif" font-size="8.00">_ID_MUTEX</text>
<text text-anchor="start" x="202.5" y="-767.6" font-family="Helvetica,sans-Serif" font-size="8.00">S_RESOURCE_TYPE</text>
<text text-anchor="middle" x="241" y="-758.6" font-family="Helvetica,sans-Serif" font-size="8.00">_ID_SHM</text>
<text text-anchor="middle" x="241" y="-749.6" font-family="Helvetica,sans-Serif" font-size="8.00">S_ROOT_MAGIC</text>
<text text-anchor="middle" x="241" y="-740.6" font-family="Helvetica,sans-Serif" font-size="8.00">S_SENTINEL</text>
</g>
<!-- Node20 -->
<g id="node19" class="node">
<title>Node20</title>
<g id="a_node19"><a xlink:title=" ">
<polygon fill="white" stroke="#bfbfbf" points="22,-754.5 22,-771.5 62,-771.5 62,-754.5 22,-754.5"/>
<text text-anchor="middle" x="42" y="-761.1" font-family="Helvetica,sans-Serif" font-size="8.00">size_t</text>
</a>
</g>
</g>
<!-- Node20&#45;&gt;Node19 -->
<g id="edge22" class="edge">
<title>Node20&#45;&gt;Node19</title>
<path fill="none" stroke="#9a32cd" stroke-dasharray="5,2" d="M72.28,-756.91C97.72,-751.45 135.49,-742.95 168,-734 183.69,-729.68 201.07,-724.15 214.83,-719.59"/>
<polygon fill="#9a32cd" stroke="#9a32cd" points="71.24,-753.56 62.18,-759.06 72.69,-760.4 71.24,-753.56"/>
<text text-anchor="middle" x="135" y="-752.6" font-family="Helvetica,sans-Serif" font-size="8.00"> S_MAX_LENGTH</text>
</g>
<!-- Node21 -->
<g id="node20" class="node">
<title>Node21</title>
<g id="a_node20"><a xlink:title=" ">
<polygon fill="white" stroke="#bfbfbf" points="0,-718.5 0,-735.5 84,-735.5 84,-718.5 0,-718.5"/>
<text text-anchor="middle" x="42" y="-725.1" font-family="Helvetica,sans-Serif" font-size="8.00">static const char</text>
</a>
</g>
</g>
<!-- Node21&#45;&gt;Node19 -->
<g id="edge23" class="edge">
<title>Node21&#45;&gt;Node19</title>
<path fill="none" stroke="#9a32cd" stroke-dasharray="5,2" d="M94.31,-722.83C122.38,-720.55 157.13,-717.73 185.66,-715.41"/>
<polygon fill="#9a32cd" stroke="#9a32cd" points="93.98,-719.35 84.3,-723.65 94.55,-726.32 93.98,-719.35"/>
<text text-anchor="middle" x="135" y="-723.6" font-family="Helvetica,sans-Serif" font-size="8.00"> S_SEPARATOR</text>
</g>
<!-- Node22 -->
<g id="node21" class="node">
<title>Node22</title>
<g id="a_node21"><a xlink:title=" ">
<polygon fill="white" stroke="#bfbfbf" points="703.5,-367.5 703.5,-384.5 774.5,-384.5 774.5,-367.5 703.5,-367.5"/>
<text text-anchor="middle" x="739" y="-374.1" font-family="Helvetica,sans-Serif" font-size="8.00">Task_asio_err</text>
</a>
</g>
</g>
<!-- Node22&#45;&gt;Node4 -->
<g id="edge25" class="edge">
<title>Node22&#45;&gt;Node4</title>
<path fill="none" stroke="#9a32cd" stroke-dasharray="5,2" d="M784.96,-373.99C831.05,-373.83 903.5,-378.97 958,-408 991.62,-425.91 1019.1,-461.5 1034.51,-484.77"/>
<polygon fill="#9a32cd" stroke="#9a32cd" points="784.65,-370.49 774.69,-374.12 784.73,-377.49 784.65,-370.49"/>
<text text-anchor="middle" x="897.5" y="-410.6" font-family="Helvetica,sans-Serif" font-size="8.00"> m_on_err_func</text>
</g>
<!-- Node22&#45;&gt;Node26 -->
<g id="edge35" class="edge">
<title>Node22&#45;&gt;Node26</title>
<path fill="none" stroke="#9a32cd" stroke-dasharray="5,2" d="M784.61,-364.98C796.01,-361.64 808.11,-357.6 819,-353 893.81,-321.36 974,-269.42 1016.8,-240.04"/>
<polygon fill="#9a32cd" stroke="#9a32cd" points="783.5,-361.66 774.83,-367.75 785.4,-368.4 783.5,-361.66"/>
<text text-anchor="start" x="847.5" y="-355.6" font-family="Helvetica,sans-Serif" font-size="8.00"> m_snd_end_sending_on</text>
<text text-anchor="middle" x="897.5" y="-346.6" font-family="Helvetica,sans-Serif" font-size="8.00">_done_func_or_empty</text>
</g>
<!-- Node23 -->
<g id="node22" class="node">
<title>Node23</title>
<g id="a_node22"><a xlink:title=" ">
<polygon fill="white" stroke="#bfbfbf" points="659,-444.5 659,-479.5 819,-479.5 819,-444.5 659,-444.5"/>
<text text-anchor="start" x="667" y="-469.1" font-family="Helvetica,sans-Serif" font-size="8.00">Function&lt; void(Channel</text>
<text text-anchor="start" x="667" y="-460.1" font-family="Helvetica,sans-Serif" font-size="8.00">_obj &amp;&amp;new_channel, Mdt</text>
<text text-anchor="middle" x="739" y="-451.1" font-family="Helvetica,sans-Serif" font-size="8.00">_reader_ptr &amp;&amp;new_channel_mdt)&gt;</text>
</a>
</g>
</g>
<!-- Node23&#45;&gt;Node4 -->
<g id="edge26" class="edge">
<title>Node23&#45;&gt;Node4</title>
<path fill="none" stroke="#9a32cd" stroke-dasharray="5,2" d="M829.23,-468.68C868.84,-472.35 915.92,-477.67 958,-485 963.86,-486.02 969.91,-487.21 975.97,-488.49"/>
<polygon fill="#9a32cd" stroke="#9a32cd" points="829.34,-465.18 819.06,-467.76 828.7,-472.15 829.34,-465.18"/>
<text text-anchor="start" x="837" y="-496.6" font-family="Helvetica,sans-Serif" font-size="8.00"> m_on_passive_open_channel</text>
<text text-anchor="middle" x="897.5" y="-487.6" font-family="Helvetica,sans-Serif" font-size="8.00">_func_or_empty</text>
</g>
<!-- Node24 -->
<g id="node23" class="node">
<title>Node24</title>
<g id="a_node23"><a xlink:title=" ">
<polygon fill="white" stroke="#bfbfbf" points="709,-408.5 709,-425.5 769,-425.5 769,-408.5 709,-408.5"/>
<text text-anchor="middle" x="739" y="-415.1" font-family="Helvetica,sans-Serif" font-size="8.00">Error_code</text>
</a>
</g>
</g>
<!-- Node24&#45;&gt;Node4 -->
<g id="edge27" class="edge">
<title>Node24&#45;&gt;Node4</title>
<path fill="none" stroke="#9a32cd" stroke-dasharray="5,2" d="M779.38,-417.16C824.07,-418.53 898.47,-424.43 958,-447 981.35,-455.85 1004.73,-471.7 1021.81,-484.89"/>
<polygon fill="#9a32cd" stroke="#9a32cd" points="779.31,-413.66 769.23,-416.92 779.14,-420.66 779.31,-413.66"/>
<text text-anchor="start" x="849" y="-458.6" font-family="Helvetica,sans-Serif" font-size="8.00"> m_peer_state_err_code</text>
<text text-anchor="middle" x="897.5" y="-449.6" font-family="Helvetica,sans-Serif" font-size="8.00">_or_ok</text>
</g>
<!-- Node25 -->
<g id="node24" class="node">
<title>Node25</title>
<g id="a_node24"><a xlink:title=" ">
<polygon fill="white" stroke="#bfbfbf" points="1002,-151 1002,-177 1096,-177 1096,-151 1002,-151"/>
<text text-anchor="start" x="1010" y="-166.6" font-family="Helvetica,sans-Serif" font-size="8.00">Single_thread_task</text>
<text text-anchor="middle" x="1049" y="-157.6" font-family="Helvetica,sans-Serif" font-size="8.00">_loop *</text>
</a>
</g>
</g>
<!-- Node25&#45;&gt;Node1 -->
<g id="edge28" class="edge">
<title>Node25&#45;&gt;Node1</title>
<path fill="none" stroke="#9a32cd" stroke-dasharray="5,2" d="M1106.03,-176.55C1146.91,-186.23 1203.42,-200.69 1252,-217 1266.64,-221.92 1282.24,-227.99 1296.46,-233.88"/>
<polygon fill="#9a32cd" stroke="#9a32cd" points="1106.78,-173.14 1096.25,-174.26 1105.18,-179.95 1106.78,-173.14"/>
<text text-anchor="middle" x="1196" y="-219.6" font-family="Helvetica,sans-Serif" font-size="8.00"> m_async_worker</text>
</g>
<!-- Node26&#45;&gt;Node1 -->
<g id="edge29" class="edge">
<title>Node26&#45;&gt;Node1</title>
<path fill="none" stroke="#9a32cd" stroke-dasharray="5,2" d="M1130.59,-228.33C1173.96,-233.89 1227.16,-240.71 1269.9,-246.18"/>
<polygon fill="#9a32cd" stroke="#9a32cd" points="1131.01,-224.85 1120.64,-227.05 1130.12,-231.8 1131.01,-224.85"/>
<text text-anchor="middle" x="1196" y="-245.6" font-family="Helvetica,sans-Serif" font-size="8.00"> m_master_channel</text>
</g>
<!-- Node27 -->
<g id="node26" class="node">
<title>Node27</title>
<g id="a_node26"><a xlink:title=" ">
<polygon fill="white" stroke="#bfbfbf" points="688.5,-54.5 688.5,-71.5 789.5,-71.5 789.5,-54.5 688.5,-54.5"/>
<text text-anchor="middle" x="739" y="-61.1" font-family="Helvetica,sans-Serif" font-size="8.00">Mutex_non_recursive</text>
</a>
</g>
</g>
<!-- Node27&#45;&gt;Node26 -->
<g id="edge32" class="edge">
<title>Node27&#45;&gt;Node26</title>
<path fill="none" stroke="#9a32cd" stroke-dasharray="5,2" d="M799.99,-55.21C848.94,-52.42 916.56,-57.29 958,-97 987.45,-125.22 950.32,-155.3 976,-187 978.66,-190.28 981.72,-193.22 985.07,-195.85"/>
<polygon fill="#9a32cd" stroke="#9a32cd" points="799.58,-51.73 789.85,-55.91 800.06,-58.71 799.58,-51.73"/>
<text text-anchor="middle" x="897.5" y="-99.6" font-family="Helvetica,sans-Serif" font-size="8.00"> m_mutex</text>
</g>
<!-- Node28 -->
<g id="node27" class="node">
<title>Node28</title>
<g id="a_node27"><a xlink:title=" ">
<polygon fill="white" stroke="#bfbfbf" points="681.5,-0.5 681.5,-35.5 796.5,-35.5 796.5,-0.5 681.5,-0.5"/>
<text text-anchor="start" x="689.5" y="-25.1" font-family="Helvetica,sans-Serif" font-size="8.00">optional&lt; ipc::transport</text>
<text text-anchor="start" x="689.5" y="-16.1" font-family="Helvetica,sans-Serif" font-size="8.00">::struc::Channel::Sync</text>
<text text-anchor="middle" x="739" y="-7.1" font-family="Helvetica,sans-Serif" font-size="8.00">_op_state &gt;</text>
</a>
</g>
</g>
<!-- Node28&#45;&gt;Node26 -->
<g id="edge33" class="edge">
<title>Node28&#45;&gt;Node26</title>
<path fill="none" stroke="#9a32cd" stroke-dasharray="5,2" d="M806.96,-5.58C855.48,-0.75 919.15,-3.68 958,-42 1004.24,-87.6 937.02,-135.06 976,-187 978.45,-190.27 981.32,-193.19 984.46,-195.81"/>
<polygon fill="#9a32cd" stroke="#9a32cd" points="806.39,-2.12 796.85,-6.72 807.17,-9.08 806.39,-2.12"/>
<text text-anchor="middle" x="897.5" y="-44.6" font-family="Helvetica,sans-Serif" font-size="8.00"> m_sync_op_state</text>
</g>
<!-- Node29 -->
<g id="node28" class="node">
<title>Node29</title>
<g id="a_node28"><a xlink:title=" ">
<polygon fill="white" stroke="#bfbfbf" points="705,-190.5 705,-207.5 773,-207.5 773,-190.5 705,-190.5"/>
<text text-anchor="middle" x="739" y="-197.1" font-family="Helvetica,sans-Serif" font-size="8.00">unsigned int</text>
</a>
</g>
</g>
<!-- Node29&#45;&gt;Node26 -->
<g id="edge34" class="edge">
<title>Node29&#45;&gt;Node26</title>
<path fill="none" stroke="#9a32cd" stroke-dasharray="5,2" d="M783.1,-195.03C827.2,-191.76 897.64,-188.73 958,-196 964.23,-196.75 970.65,-197.78 977.06,-198.99"/>
<polygon fill="#9a32cd" stroke="#9a32cd" points="782.71,-191.55 773.01,-195.82 783.26,-198.53 782.71,-191.55"/>
<text text-anchor="middle" x="897.5" y="-198.6" font-family="Helvetica,sans-Serif" font-size="8.00"> m_sync_op_state_id</text>
</g>
<!-- Node30 -->
<g id="node29" class="node">
<title>Node30</title>
<g id="a_node29"><a xlink:title=" ">
<polygon fill="white" stroke="#bfbfbf" points="681,-154.5 681,-171.5 797,-171.5 797,-154.5 681,-154.5"/>
<text text-anchor="middle" x="739" y="-161.1" font-family="Helvetica,sans-Serif" font-size="8.00">Single_thread_task_loop</text>
</a>
</g>
</g>
<!-- Node30&#45;&gt;Node26 -->
<g id="edge36" class="edge">
<title>Node30&#45;&gt;Node26</title>
<path fill="none" stroke="#9a32cd" stroke-dasharray="5,2" d="M807.24,-160.86C850.92,-161.11 908.7,-164.56 958,-178 966.63,-180.35 967.89,-183.23 976,-187 982.29,-189.93 988.94,-192.92 995.54,-195.83"/>
<polygon fill="#9a32cd" stroke="#9a32cd" points="807.02,-157.36 797.02,-160.86 807.02,-164.36 807.02,-157.36"/>
<text text-anchor="middle" x="897.5" y="-180.6" font-family="Helvetica,sans-Serif" font-size="8.00"> m_worker</text>
</g>
<!-- Node31 -->
<g id="node30" class="node">
<title>Node31</title>
<g id="a_node30"><a xlink:title=" ">
<polygon fill="white" stroke="#bfbfbf" points="683,-91 683,-135 795,-135 795,-91 683,-91"/>
<text text-anchor="start" x="691" y="-124.6" font-family="Helvetica,sans-Serif" font-size="8.00">Channel&lt; Channel_obj,</text>
<text text-anchor="start" x="691" y="-115.6" font-family="Helvetica,sans-Serif" font-size="8.00"> Message_body, Struct</text>
<text text-anchor="start" x="691" y="-106.6" font-family="Helvetica,sans-Serif" font-size="8.00">_builder_config, Struct</text>
<text text-anchor="middle" x="739" y="-97.6" font-family="Helvetica,sans-Serif" font-size="8.00">_reader_config &gt;</text>
</a>
</g>
</g>
<!-- Node31&#45;&gt;Node26 -->
<g id="edge37" class="edge">
<title>Node31&#45;&gt;Node26</title>
<path fill="none" stroke="#9a32cd" stroke-dasharray="5,2" d="M805.31,-108.07C852.23,-107.93 914.61,-115.09 958,-148 973.21,-159.53 962.33,-173.68 976,-187 979.31,-190.23 983.02,-193.15 986.95,-195.78"/>
<polygon fill="#9a32cd" stroke="#9a32cd" points="805.2,-104.58 795.25,-108.22 805.29,-111.58 805.2,-104.58"/>
<text text-anchor="middle" x="897.5" y="-150.6" font-family="Helvetica,sans-Serif" font-size="8.00"> m_sync_io</text>
</g>
<!-- Node32 -->
<g id="node31" class="node">
<title>Node32</title>
<g id="a_node31"><a xlink:title=" ">
<polygon fill="white" stroke="#bfbfbf" points="1006.5,-114.5 1006.5,-131.5 1091.5,-131.5 1091.5,-114.5 1006.5,-114.5"/>
<text text-anchor="middle" x="1049" y="-121.1" font-family="Helvetica,sans-Serif" font-size="8.00">promise&lt; void &gt;</text>
</a>
</g>
</g>
<!-- Node32&#45;&gt;Node1 -->
<g id="edge38" class="edge">
<title>Node32&#45;&gt;Node1</title>
<path fill="none" stroke="#9a32cd" stroke-dasharray="5,2" d="M1101.63,-128.49C1143.96,-134.6 1204.45,-147.1 1252,-172 1281.75,-187.58 1309.7,-214.54 1327.37,-233.71"/>
<polygon fill="#9a32cd" stroke="#9a32cd" points="1101.93,-124.99 1091.54,-127.1 1100.97,-131.93 1101.93,-124.99"/>
<text text-anchor="middle" x="1196" y="-174.6" font-family="Helvetica,sans-Serif" font-size="8.00"> m_opposing_session_done</text>
</g>
</g>
</svg>
