<?xml version="1.0" encoding="UTF-8" standalone="no"?>
<!DOCTYPE svg PUBLIC "-//W3C//DTD SVG 1.1//EN"
 "http://www.w3.org/Graphics/SVG/1.1/DTD/svg11.dtd">
<!-- Generated by graphviz version 2.43.0 (0)
 -->
<!-- Title: ipc::transport::sync_io::Native_socket_stream::Impl::send_native_handle Pages: 1 -->
<svg width="477pt" height="90pt"
 viewBox="0.00 0.00 477.00 89.50" xmlns="http://www.w3.org/2000/svg" xmlns:xlink="http://www.w3.org/1999/xlink">
<g id="graph0" class="graph" transform="scale(1 1) rotate(0) translate(4 85.5)">
<title>ipc::transport::sync_io::Native_socket_stream::Impl::send_native_handle</title>
<polygon fill="white" stroke="transparent" points="-4,4 -4,-85.5 473,-85.5 473,4 -4,4"/>
<!-- Node1 -->
<g id="node1" class="node">
<title>Node1</title>
<g id="a_node1"><a xlink:title="See Native_socket_stream counterpart.">
<polygon fill="#bfbfbf" stroke="black" points="0,-25.5 0,-60.5 128,-60.5 128,-25.5 0,-25.5"/>
<text text-anchor="start" x="8" y="-50.1" font-family="Helvetica,sans-Serif" font-size="8.00">ipc::transport::sync</text>
<text text-anchor="start" x="8" y="-41.1" font-family="Helvetica,sans-Serif" font-size="8.00">_io::Native_socket_stream</text>
<text text-anchor="middle" x="64" y="-32.1" font-family="Helvetica,sans-Serif" font-size="8.00">::Impl::send_native_handle</text>
</a>
</g>
</g>
<!-- Node2 -->
<g id="node2" class="node">
<title>Node2</title>
<g id="a_node2"><a xlink:href="structipc_1_1util_1_1Native__handle.html#a11bd62ce0a7bef4bdfe666201c26d4dc" target="_top" xlink:title="Returns true if and only if m_native_handle equals S_NULL_HANDLE.">
<polygon fill="white" stroke="black" points="169.5,-55 169.5,-81 281.5,-81 281.5,-55 169.5,-55"/>
<text text-anchor="start" x="177.5" y="-70.6" font-family="Helvetica,sans-Serif" font-size="8.00">ipc::util::Native_handle</text>
<text text-anchor="middle" x="225.5" y="-61.6" font-family="Helvetica,sans-Serif" font-size="8.00">::null</text>
</a>
</g>
</g>
<!-- Node1&#45;&gt;Node2 -->
<g id="edge1" class="edge">
<title>Node1&#45;&gt;Node2</title>
<path fill="none" stroke="midnightblue" d="M128.04,-52.88C138.29,-54.49 148.93,-56.16 159.24,-57.77"/>
<polygon fill="midnightblue" stroke="midnightblue" points="158.98,-61.27 169.4,-59.36 160.07,-54.36 158.98,-61.27"/>
</g>
<!-- Node3 -->
<g id="node3" class="node">
<title>Node3</title>
<g id="a_node3"><a xlink:href="classipc_1_1transport_1_1sync__io_1_1Native__socket__stream.html#a9805f7625a1272af64295555f9a1a61b" target="_top" xlink:title="Implements Native_handle_sender API per contract.">
<polygon fill="white" stroke="black" points="164,-0.5 164,-35.5 287,-35.5 287,-0.5 164,-0.5"/>
<text text-anchor="start" x="172" y="-25.1" font-family="Helvetica,sans-Serif" font-size="8.00">ipc::transport::sync</text>
<text text-anchor="start" x="172" y="-16.1" font-family="Helvetica,sans-Serif" font-size="8.00">_io::Native_socket_stream</text>
<text text-anchor="middle" x="225.5" y="-7.1" font-family="Helvetica,sans-Serif" font-size="8.00">::send_native_handle</text>
</a>
</g>
</g>
<!-- Node1&#45;&gt;Node3 -->
<g id="edge2" class="edge">
<title>Node1&#45;&gt;Node3</title>
<path fill="none" stroke="midnightblue" d="M128.04,-33.12C136.49,-31.8 145.2,-30.43 153.77,-29.09"/>
<polygon fill="midnightblue" stroke="midnightblue" points="154.4,-32.53 163.74,-27.52 153.32,-25.61 154.4,-32.53"/>
</g>
<!-- Node4 -->
<g id="node4" class="node">
<title>Node4</title>
<g id="a_node4"><a xlink:href="classipc_1_1transport_1_1sync__io_1_1Native__socket__stream.html#a8e3703d5c8bac62f828a372691249c85" target="_top" xlink:title="Helper that simply returns m_impl while guaranteeing that m_impl is non&#45;null upon return.">
<polygon fill="white" stroke="black" points="323,-5 323,-31 469,-31 469,-5 323,-5"/>
<text text-anchor="start" x="331" y="-20.6" font-family="Helvetica,sans-Serif" font-size="8.00">ipc::transport::sync</text>
<text text-anchor="middle" x="396" y="-11.6" font-family="Helvetica,sans-Serif" font-size="8.00">_io::Native_socket_stream::impl</text>
</a>
</g>
</g>
<!-- Node3&#45;&gt;Node4 -->
<g id="edge3" class="edge">
<title>Node3&#45;&gt;Node4</title>
<path fill="none" stroke="midnightblue" d="M287.33,-18C295.6,-18 304.19,-18 312.76,-18"/>
<polygon fill="midnightblue" stroke="midnightblue" points="312.78,-21.5 322.78,-18 312.78,-14.5 312.78,-21.5"/>
</g>
</g>
</svg>
