<?xml version="1.0" encoding="UTF-8" standalone="no"?>
<!DOCTYPE svg PUBLIC "-//W3C//DTD SVG 1.1//EN"
 "http://www.w3.org/Graphics/SVG/1.1/DTD/svg11.dtd">
<!-- Generated by graphviz version 2.43.0 (0)
 -->
<!-- Title: ipc::session::Server_session_mv&lt; Server_session_impl_t &gt; Pages: 1 -->
<svg width="597pt" height="130pt"
 viewBox="0.00 0.00 597.00 130.00" xmlns="http://www.w3.org/2000/svg" xmlns:xlink="http://www.w3.org/1999/xlink">
<g id="graph0" class="graph" transform="scale(1 1) rotate(0) translate(4 126)">
<title>ipc::session::Server_session_mv&lt; Server_session_impl_t &gt;</title>
<polygon fill="white" stroke="transparent" points="-4,4 -4,-126 593,-126 593,4 -4,4"/>
<!-- Node1 -->
<g id="node1" class="node">
<title>Node1</title>
<g id="a_node1"><a xlink:title="Implements Session concept on the Server_app end: a Session that is emitted in almost&#45;PEER state by l...">
<polygon fill="#bfbfbf" stroke="black" points="451,-45.5 451,-80.5 589,-80.5 589,-45.5 451,-45.5"/>
<text text-anchor="start" x="459" y="-70.1" font-family="Helvetica,sans-Serif" font-size="8.00">ipc::session::Server</text>
<text text-anchor="start" x="459" y="-61.1" font-family="Helvetica,sans-Serif" font-size="8.00">_session_mv&lt; Server_session</text>
<text text-anchor="middle" x="520" y="-52.1" font-family="Helvetica,sans-Serif" font-size="8.00">_impl_t &gt;</text>
</a>
</g>
</g>
<!-- Node2 -->
<g id="node2" class="node">
<title>Node2</title>
<g id="a_node2"><a xlink:href="classipc_1_1session_1_1Session__mv.html" target="_top" xlink:title=" ">
<polygon fill="white" stroke="black" points="274,-50 274,-76 414,-76 414,-50 274,-50"/>
<text text-anchor="start" x="282" y="-65.6" font-family="Helvetica,sans-Serif" font-size="8.00">ipc::session::Session</text>
<text text-anchor="middle" x="344" y="-56.6" font-family="Helvetica,sans-Serif" font-size="8.00">_mv&lt; Server_session_impl_t &gt;</text>
</a>
</g>
</g>
<!-- Node2&#45;&gt;Node1 -->
<g id="edge1" class="edge">
<title>Node2&#45;&gt;Node1</title>
<path fill="none" stroke="midnightblue" d="M424.07,-63C433.03,-63 442.11,-63 450.92,-63"/>
<polygon fill="midnightblue" stroke="midnightblue" points="424.02,-59.5 414.02,-63 424.02,-66.5 424.02,-59.5"/>
</g>
<!-- Node3 -->
<g id="node3" class="node">
<title>Node3</title>
<g id="a_node3"><a xlink:title=" ">
<polygon fill="white" stroke="#bfbfbf" points="32.5,-104.5 32.5,-121.5 85.5,-121.5 85.5,-104.5 32.5,-104.5"/>
<text text-anchor="middle" x="59" y="-111.1" font-family="Helvetica,sans-Serif" font-size="8.00">ShmType</text>
</a>
</g>
</g>
<!-- Node3&#45;&gt;Node2 -->
<g id="edge2" class="edge">
<title>Node3&#45;&gt;Node2</title>
<path fill="none" stroke="#9a32cd" stroke-dasharray="5,2" d="M95.84,-111.13C135.4,-108.57 200.8,-102.86 256,-91 273.37,-87.27 292.2,-81.44 307.88,-76.07"/>
<polygon fill="#9a32cd" stroke="#9a32cd" points="95.4,-107.65 85.63,-111.76 95.83,-114.64 95.4,-107.65"/>
<text text-anchor="middle" x="196" y="-109.6" font-family="Helvetica,sans-Serif" font-size="8.00"> S_SHM_TYPE</text>
</g>
<!-- Node4 -->
<g id="node4" class="node">
<title>Node4</title>
<g id="a_node4"><a xlink:title=" ">
<polygon fill="white" stroke="#bfbfbf" points="8.5,-54.5 8.5,-71.5 109.5,-71.5 109.5,-54.5 8.5,-54.5"/>
<text text-anchor="middle" x="59" y="-61.1" font-family="Helvetica,sans-Serif" font-size="8.00">static constexpr bool</text>
</a>
</g>
</g>
<!-- Node4&#45;&gt;Node2 -->
<g id="edge3" class="edge">
<title>Node4&#45;&gt;Node2</title>
<path fill="none" stroke="#9a32cd" stroke-dasharray="5,2" d="M119.82,-63C164.83,-63 226.61,-63 273.76,-63"/>
<polygon fill="#9a32cd" stroke="#9a32cd" points="119.62,-59.5 109.62,-63 119.62,-66.5 119.62,-59.5"/>
<text text-anchor="middle" x="196" y="-83.6" font-family="Helvetica,sans-Serif" font-size="8.00"> S_MQS_ENABLED</text>
<text text-anchor="middle" x="196" y="-74.6" font-family="Helvetica,sans-Serif" font-size="8.00">S_SHM_ENABLED</text>
<text text-anchor="middle" x="196" y="-65.6" font-family="Helvetica,sans-Serif" font-size="8.00">S_SOCKET_STREAM_ENABLED</text>
</g>
<!-- Node5 -->
<g id="node5" class="node">
<title>Node5</title>
<g id="a_node5"><a xlink:title=" ">
<polygon fill="white" stroke="#bfbfbf" points="0,-0.5 0,-35.5 118,-35.5 118,-0.5 0,-0.5"/>
<text text-anchor="start" x="8" y="-25.1" font-family="Helvetica,sans-Serif" font-size="8.00">propagate_const&lt; boost</text>
<text text-anchor="start" x="8" y="-16.1" font-family="Helvetica,sans-Serif" font-size="8.00">::movelib::unique_ptr</text>
<text text-anchor="middle" x="59" y="-7.1" font-family="Helvetica,sans-Serif" font-size="8.00">&lt; Impl &gt; &gt;</text>
</a>
</g>
</g>
<!-- Node5&#45;&gt;Node2 -->
<g id="edge4" class="edge">
<title>Node5&#45;&gt;Node2</title>
<path fill="none" stroke="#9a32cd" stroke-dasharray="5,2" d="M128.34,-28.87C172.42,-35.88 229.55,-44.96 273.8,-52"/>
<polygon fill="#9a32cd" stroke="#9a32cd" points="128.72,-25.38 118.29,-27.27 127.62,-32.3 128.72,-25.38"/>
<text text-anchor="middle" x="196" y="-50.6" font-family="Helvetica,sans-Serif" font-size="8.00"> m_impl</text>
</g>
</g>
</svg>
