<?xml version="1.0" encoding="UTF-8" standalone="no"?>
<!DOCTYPE svg PUBLIC "-//W3C//DTD SVG 1.1//EN"
 "http://www.w3.org/Graphics/SVG/1.1/DTD/svg11.dtd">
<!-- Generated by graphviz version 2.43.0 (0)
 -->
<!-- Title: ipc::util::sync_io::Asio_waitable_native_handle::assign Pages: 1 -->
<svg width="473pt" height="396pt"
 viewBox="0.00 0.00 473.00 395.50" xmlns="http://www.w3.org/2000/svg" xmlns:xlink="http://www.w3.org/1999/xlink">
<g id="graph0" class="graph" transform="scale(1 1) rotate(0) translate(4 391.5)">
<title>ipc::util::sync_io::Asio_waitable_native_handle::assign</title>
<polygon fill="white" stroke="transparent" points="-4,4 -4,-391.5 469,-391.5 469,4 -4,4"/>
<!-- Node1 -->
<g id="node1" class="node">
<title>Node1</title>
<g id="a_node1"><a xlink:title="Loads value to be returned by native_handle().">
<polygon fill="#bfbfbf" stroke="black" points="357,-190 357,-225 465,-225 465,-190 357,-190"/>
<text text-anchor="start" x="365" y="-214.6" font-family="Helvetica,sans-Serif" font-size="8.00">ipc::util::sync_io</text>
<text text-anchor="start" x="365" y="-205.6" font-family="Helvetica,sans-Serif" font-size="8.00">::Asio_waitable_native</text>
<text text-anchor="middle" x="411" y="-196.6" font-family="Helvetica,sans-Serif" font-size="8.00">_handle::assign</text>
</a>
</g>
</g>
<!-- Node2 -->
<g id="node2" class="node">
<title>Node2</title>
<g id="a_node2"><a xlink:href="classipc_1_1transport_1_1sync__io_1_1Blob__stream__mq__receiver__impl.html#a3e1c13dc986985621ab05de16f9e811c" target="_top" xlink:title="See Blob_stream_mq_receiver counterpart.">
<polygon fill="white" stroke="black" points="153,-352 153,-387 321,-387 321,-352 153,-352"/>
<text text-anchor="start" x="161" y="-376.6" font-family="Helvetica,sans-Serif" font-size="8.00">ipc::transport::sync</text>
<text text-anchor="start" x="161" y="-367.6" font-family="Helvetica,sans-Serif" font-size="8.00">_io::Blob_stream_mq_receiver</text>
<text text-anchor="middle" x="237" y="-358.6" font-family="Helvetica,sans-Serif" font-size="8.00">_impl::Blob_stream_mq_receiver_impl</text>
</a>
</g>
</g>
<!-- Node1&#45;&gt;Node2 -->
<g id="edge1" class="edge">
<title>Node1&#45;&gt;Node2</title>
<path fill="none" stroke="midnightblue" d="M398.94,-234.34C385.07,-264.8 358.47,-313.94 321,-342.5 316.3,-346.08 311.11,-349.2 305.68,-351.91"/>
<polygon fill="midnightblue" stroke="midnightblue" points="402.15,-235.72 402.99,-225.16 395.75,-232.9 402.15,-235.72"/>
</g>
<!-- Node3 -->
<g id="node3" class="node">
<title>Node3</title>
<g id="a_node3"><a xlink:href="classipc_1_1transport_1_1sync__io_1_1Blob__stream__mq__sender__impl.html#a71caa7f5002886b2c0717645945d7144" target="_top" xlink:title="See Blob_stream_mq_sender counterpart.">
<polygon fill="white" stroke="black" points="155,-298 155,-333 319,-333 319,-298 155,-298"/>
<text text-anchor="start" x="163" y="-322.6" font-family="Helvetica,sans-Serif" font-size="8.00">ipc::transport::sync</text>
<text text-anchor="start" x="163" y="-313.6" font-family="Helvetica,sans-Serif" font-size="8.00">_io::Blob_stream_mq_sender</text>
<text text-anchor="middle" x="237" y="-304.6" font-family="Helvetica,sans-Serif" font-size="8.00">_impl::Blob_stream_mq_sender_impl</text>
</a>
</g>
</g>
<!-- Node1&#45;&gt;Node3 -->
<g id="edge2" class="edge">
<title>Node1&#45;&gt;Node3</title>
<path fill="none" stroke="midnightblue" d="M387.8,-232.76C371,-250.51 346.53,-273.66 321,-288.5 314.97,-292 308.43,-295.12 301.76,-297.87"/>
<polygon fill="midnightblue" stroke="midnightblue" points="390.73,-234.74 394.95,-225.03 385.59,-229.99 390.73,-234.74"/>
</g>
<!-- Node4 -->
<g id="node4" class="node">
<title>Node4</title>
<g id="a_node4"><a xlink:href="classipc_1_1transport_1_1sync__io_1_1Native__socket__stream_1_1Impl.html#ae9194e2eefe81185d1bf067b1f934657" target="_top" xlink:title="See Native_socket_stream counterpart.">
<polygon fill="white" stroke="black" points="175.5,-244 175.5,-279 298.5,-279 298.5,-244 175.5,-244"/>
<text text-anchor="start" x="183.5" y="-268.6" font-family="Helvetica,sans-Serif" font-size="8.00">ipc::transport::sync</text>
<text text-anchor="start" x="183.5" y="-259.6" font-family="Helvetica,sans-Serif" font-size="8.00">_io::Native_socket_stream</text>
<text text-anchor="middle" x="237" y="-250.6" font-family="Helvetica,sans-Serif" font-size="8.00">::Impl::Impl</text>
</a>
</g>
</g>
<!-- Node1&#45;&gt;Node4 -->
<g id="edge3" class="edge">
<title>Node1&#45;&gt;Node4</title>
<path fill="none" stroke="midnightblue" d="M347.41,-227.15C329.87,-232.66 310.93,-238.6 293.81,-243.98"/>
<polygon fill="midnightblue" stroke="midnightblue" points="348.5,-230.48 356.99,-224.14 346.4,-223.8 348.5,-230.48"/>
</g>
<!-- Node5 -->
<g id="node5" class="node">
<title>Node5</title>
<g id="a_node5"><a xlink:href="classipc_1_1session_1_1sync__io_1_1Session__adapter.html#a48b4b10dcb605860a58d2a394ba9c35b" target="_top" xlink:title="Utility that sets up an IPC&#45;pipe in the given peer objects as well as loading a watcher&#45;descriptor ob...">
<polygon fill="white" stroke="black" points="186,-190 186,-225 288,-225 288,-190 186,-190"/>
<text text-anchor="start" x="194" y="-214.6" font-family="Helvetica,sans-Serif" font-size="8.00">ipc::session::sync</text>
<text text-anchor="start" x="194" y="-205.6" font-family="Helvetica,sans-Serif" font-size="8.00">_io::Session_adapter</text>
<text text-anchor="middle" x="237" y="-196.6" font-family="Helvetica,sans-Serif" font-size="8.00">::init_pipe</text>
</a>
</g>
</g>
<!-- Node1&#45;&gt;Node5 -->
<g id="edge4" class="edge">
<title>Node1&#45;&gt;Node5</title>
<path fill="none" stroke="midnightblue" d="M346.77,-207.5C327.46,-207.5 306.51,-207.5 288.19,-207.5"/>
<polygon fill="midnightblue" stroke="midnightblue" points="346.99,-211 356.99,-207.5 346.99,-204 346.99,-211"/>
</g>
<!-- Node8 -->
<g id="node8" class="node">
<title>Node8</title>
<g id="a_node8"><a xlink:href="classipc_1_1transport_1_1sync__io_1_1Native__socket__stream__acceptor.html#a05f101c91a2c6b5c393b8036c5379939" target="_top" xlink:title="All notes from Async_io_obj API counterpart API apply.">
<polygon fill="white" stroke="black" points="175.5,-126.5 175.5,-170.5 298.5,-170.5 298.5,-126.5 175.5,-126.5"/>
<text text-anchor="start" x="183.5" y="-160.1" font-family="Helvetica,sans-Serif" font-size="8.00">ipc::transport::sync</text>
<text text-anchor="start" x="183.5" y="-151.1" font-family="Helvetica,sans-Serif" font-size="8.00">_io::Native_socket_stream</text>
<text text-anchor="start" x="183.5" y="-142.1" font-family="Helvetica,sans-Serif" font-size="8.00">_acceptor::Native_socket</text>
<text text-anchor="middle" x="237" y="-133.1" font-family="Helvetica,sans-Serif" font-size="8.00">_stream_acceptor</text>
</a>
</g>
</g>
<!-- Node1&#45;&gt;Node8 -->
<g id="edge7" class="edge">
<title>Node1&#45;&gt;Node8</title>
<path fill="none" stroke="midnightblue" d="M349.35,-186.7C332.9,-181.05 315.1,-174.95 298.65,-169.3"/>
<polygon fill="midnightblue" stroke="midnightblue" points="348.27,-190.02 358.86,-189.96 350.54,-183.4 348.27,-190.02"/>
</g>
<!-- Node9 -->
<g id="node9" class="node">
<title>Node9</title>
<g id="a_node9"><a xlink:href="classipc_1_1transport_1_1sync__io_1_1Native__socket__stream__acceptor.html#ad0773dd896a3b607299ba7e5e153972c" target="_top" xlink:title="Analogous to transport::sync_io::Native_handle_sender::replace_event_wait_handles().">
<polygon fill="white" stroke="black" points="175.5,-63.5 175.5,-107.5 298.5,-107.5 298.5,-63.5 175.5,-63.5"/>
<text text-anchor="start" x="183.5" y="-97.1" font-family="Helvetica,sans-Serif" font-size="8.00">ipc::transport::sync</text>
<text text-anchor="start" x="183.5" y="-88.1" font-family="Helvetica,sans-Serif" font-size="8.00">_io::Native_socket_stream</text>
<text text-anchor="start" x="183.5" y="-79.1" font-family="Helvetica,sans-Serif" font-size="8.00">_acceptor::replace_event</text>
<text text-anchor="middle" x="237" y="-70.1" font-family="Helvetica,sans-Serif" font-size="8.00">_wait_handles</text>
</a>
</g>
</g>
<!-- Node1&#45;&gt;Node9 -->
<g id="edge8" class="edge">
<title>Node1&#45;&gt;Node9</title>
<path fill="none" stroke="midnightblue" d="M390.36,-181.96C373.76,-161.84 348.35,-134.3 321,-116.5 314.17,-112.05 306.61,-108.12 298.91,-104.67"/>
<polygon fill="midnightblue" stroke="midnightblue" points="387.7,-184.24 396.71,-189.81 393.15,-179.84 387.7,-184.24"/>
</g>
<!-- Node10 -->
<g id="node10" class="node">
<title>Node10</title>
<g id="a_node10"><a xlink:href="classipc_1_1session_1_1sync__io_1_1Session__server__adapter.html#a12a249300b19d23dce13e1a79870f50a" target="_top" xlink:title="Forwards to the Session_server_obj ctor.">
<polygon fill="white" stroke="black" points="177,-0.5 177,-44.5 297,-44.5 297,-0.5 177,-0.5"/>
<text text-anchor="start" x="185" y="-34.1" font-family="Helvetica,sans-Serif" font-size="8.00">ipc::session::sync</text>
<text text-anchor="start" x="185" y="-25.1" font-family="Helvetica,sans-Serif" font-size="8.00">_io::Session_server</text>
<text text-anchor="start" x="185" y="-16.1" font-family="Helvetica,sans-Serif" font-size="8.00">_adapter::Session_server</text>
<text text-anchor="middle" x="237" y="-7.1" font-family="Helvetica,sans-Serif" font-size="8.00">_adapter</text>
</a>
</g>
</g>
<!-- Node1&#45;&gt;Node10 -->
<g id="edge9" class="edge">
<title>Node1&#45;&gt;Node10</title>
<path fill="none" stroke="midnightblue" d="M400.68,-179.83C387.84,-145.65 361.6,-87.84 321,-53.5 313.95,-47.54 305.65,-42.67 297.07,-38.71"/>
<polygon fill="midnightblue" stroke="midnightblue" points="397.53,-181.42 404.24,-189.63 404.11,-179.03 397.53,-181.42"/>
</g>
<!-- Node6 -->
<g id="node6" class="node">
<title>Node6</title>
<g id="a_node6"><a xlink:href="classipc_1_1session_1_1sync__io_1_1Client__session__adapter.html#acf642438f6760ea1bf8daeb41f7da62b" target="_top" xlink:title="Forwards to the Session_obj ctor.">
<polygon fill="white" stroke="black" points="0,-214.5 0,-258.5 117,-258.5 117,-214.5 0,-214.5"/>
<text text-anchor="start" x="8" y="-248.1" font-family="Helvetica,sans-Serif" font-size="8.00">ipc::session::sync</text>
<text text-anchor="start" x="8" y="-239.1" font-family="Helvetica,sans-Serif" font-size="8.00">_io::Client_session</text>
<text text-anchor="start" x="8" y="-230.1" font-family="Helvetica,sans-Serif" font-size="8.00">_adapter::Client_session</text>
<text text-anchor="middle" x="58.5" y="-221.1" font-family="Helvetica,sans-Serif" font-size="8.00">_adapter</text>
</a>
</g>
</g>
<!-- Node5&#45;&gt;Node6 -->
<g id="edge5" class="edge">
<title>Node5&#45;&gt;Node6</title>
<path fill="none" stroke="midnightblue" d="M175.88,-217.38C156.91,-220.5 136,-223.93 117.21,-227.02"/>
<polygon fill="midnightblue" stroke="midnightblue" points="176.59,-220.81 185.89,-215.73 175.46,-213.9 176.59,-220.81"/>
</g>
<!-- Node7 -->
<g id="node7" class="node">
<title>Node7</title>
<g id="a_node7"><a xlink:href="classipc_1_1session_1_1sync__io_1_1Session__adapter.html#a8b4dada833c59e6a63780dfaba4f704f" target="_top" xlink:title="Forwards to the Session_obj default ctor.">
<polygon fill="white" stroke="black" points="7.5,-160 7.5,-195 109.5,-195 109.5,-160 7.5,-160"/>
<text text-anchor="start" x="15.5" y="-184.6" font-family="Helvetica,sans-Serif" font-size="8.00">ipc::session::sync</text>
<text text-anchor="start" x="15.5" y="-175.6" font-family="Helvetica,sans-Serif" font-size="8.00">_io::Session_adapter</text>
<text text-anchor="middle" x="58.5" y="-166.6" font-family="Helvetica,sans-Serif" font-size="8.00">::Session_adapter</text>
</a>
</g>
</g>
<!-- Node5&#45;&gt;Node7 -->
<g id="edge6" class="edge">
<title>Node5&#45;&gt;Node7</title>
<path fill="none" stroke="midnightblue" d="M175.88,-197.28C154.35,-193.62 130.33,-189.54 109.73,-186.04"/>
<polygon fill="midnightblue" stroke="midnightblue" points="175.45,-200.76 185.89,-198.98 176.62,-193.86 175.45,-200.76"/>
</g>
</g>
</svg>
