<?xml version="1.0" encoding="UTF-8" standalone="no"?>
<!DOCTYPE svg PUBLIC "-//W3C//DTD SVG 1.1//EN"
 "http://www.w3.org/Graphics/SVG/1.1/DTD/svg11.dtd">
<!-- Generated by graphviz version 2.43.0 (0)
 -->
<!-- Title: ipc::transport::Bipc_mq_handle::remove_persistent Pages: 1 -->
<svg width="325pt" height="80pt"
 viewBox="0.00 0.00 325.00 80.00" xmlns="http://www.w3.org/2000/svg" xmlns:xlink="http://www.w3.org/1999/xlink">
<g id="graph0" class="graph" transform="scale(1 1) rotate(0) translate(4 76)">
<title>ipc::transport::Bipc_mq_handle::remove_persistent</title>
<polygon fill="white" stroke="transparent" points="-4,4 -4,-76 321,-76 321,4 -4,4"/>
<!-- Node1 -->
<g id="node1" class="node">
<title>Node1</title>
<g id="a_node1"><a xlink:title="Implements Persistent_mq_handle API: Removes the named persistent MQ.">
<polygon fill="#bfbfbf" stroke="black" points="0,-22.5 0,-48.5 147,-48.5 147,-22.5 0,-22.5"/>
<text text-anchor="start" x="8" y="-38.1" font-family="Helvetica,sans-Serif" font-size="8.00">ipc::transport::Bipc</text>
<text text-anchor="middle" x="73.5" y="-29.1" font-family="Helvetica,sans-Serif" font-size="8.00">_mq_handle::remove_persistent</text>
</a>
</g>
</g>
<!-- Node1&#45;&gt;Node1 -->
<g id="edge3" class="edge">
<title>Node1&#45;&gt;Node1</title>
<path fill="none" stroke="midnightblue" d="M43.72,-48.77C34.7,-57.96 44.62,-67 73.5,-67 91.55,-67 102.19,-63.47 105.43,-58.58"/>
<polygon fill="midnightblue" stroke="midnightblue" points="108.84,-57.79 103.28,-48.77 102.01,-59.29 108.84,-57.79"/>
</g>
<!-- Node2 -->
<g id="node2" class="node">
<title>Node2</title>
<g id="a_node2"><a xlink:href="classipc_1_1transport_1_1Bipc__mq__handle.html#a7263ed9ec4f8ed534c0f7907b7accde9" target="_top" xlink:title="Implements Persistent_mq_handle API: Returns name equal to absolute_name passed to ctor.">
<polygon fill="white" stroke="black" points="183,-45.5 183,-71.5 317,-71.5 317,-45.5 183,-45.5"/>
<text text-anchor="start" x="191" y="-61.1" font-family="Helvetica,sans-Serif" font-size="8.00">ipc::transport::Bipc</text>
<text text-anchor="middle" x="250" y="-52.1" font-family="Helvetica,sans-Serif" font-size="8.00">_mq_handle::absolute_name</text>
</a>
</g>
</g>
<!-- Node1&#45;&gt;Node2 -->
<g id="edge1" class="edge">
<title>Node1&#45;&gt;Node2</title>
<path fill="none" stroke="midnightblue" d="M147.24,-45.09C155.62,-46.19 164.18,-47.32 172.6,-48.43"/>
<polygon fill="midnightblue" stroke="midnightblue" points="172.42,-51.94 182.79,-49.77 173.33,-45 172.42,-51.94"/>
</g>
<!-- Node3 -->
<g id="node3" class="node">
<title>Node3</title>
<g id="a_node3"><a xlink:href="classipc_1_1util_1_1Shared__name.html#a0bccc73c9c5b4f3b784a1e57cdc5c910" target="_top" xlink:title="Returns (sans copying) pointer to NUL&#45;terminated wrapped name string, suitable to pass into sys calls...">
<polygon fill="white" stroke="black" points="195,-0.5 195,-26.5 305,-26.5 305,-0.5 195,-0.5"/>
<text text-anchor="start" x="203" y="-16.1" font-family="Helvetica,sans-Serif" font-size="8.00">ipc::util::Shared_name</text>
<text text-anchor="middle" x="250" y="-7.1" font-family="Helvetica,sans-Serif" font-size="8.00">::native_str</text>
</a>
</g>
</g>
<!-- Node1&#45;&gt;Node3 -->
<g id="edge2" class="edge">
<title>Node1&#45;&gt;Node3</title>
<path fill="none" stroke="midnightblue" d="M147.24,-26.33C159.73,-24.75 172.64,-23.13 184.88,-21.58"/>
<polygon fill="midnightblue" stroke="midnightblue" points="185.51,-25.03 194.99,-20.31 184.63,-18.09 185.51,-25.03"/>
</g>
</g>
</svg>
