<?xml version="1.0" encoding="UTF-8" standalone="no"?>
<!DOCTYPE svg PUBLIC "-//W3C//DTD SVG 1.1//EN"
 "http://www.w3.org/Graphics/SVG/1.1/DTD/svg11.dtd">
<!-- Generated by graphviz version 2.43.0 (0)
 -->
<!-- Title: ipc::transport::struc::sync_io::Channel&lt; Channel_obj, Message_body, Struct_builder_config, Struct_reader_config &gt; Pages: 1 -->
<svg width="349pt" height="125pt"
 viewBox="0.00 0.00 348.50 125.00" xmlns="http://www.w3.org/2000/svg" xmlns:xlink="http://www.w3.org/1999/xlink">
<g id="graph0" class="graph" transform="scale(1 1) rotate(0) translate(4 121)">
<title>ipc::transport::struc::sync_io::Channel&lt; Channel_obj, Message_body, Struct_builder_config, Struct_reader_config &gt;</title>
<polygon fill="white" stroke="transparent" points="-4,4 -4,-121 344.5,-121 344.5,4 -4,4"/>
<!-- Node1 -->
<g id="node1" class="node">
<title>Node1</title>
<g id="a_node1"><a xlink:title="sync_io&#45;pattern counterpart to async&#45;I/O&#45;pattern transport::struc::Channel.">
<polygon fill="#bfbfbf" stroke="black" points="97.5,-0.5 97.5,-53.5 234.5,-53.5 234.5,-0.5 97.5,-0.5"/>
<text text-anchor="start" x="105.5" y="-43.1" font-family="Helvetica,sans-Serif" font-size="8.00">ipc::transport::struc</text>
<text text-anchor="start" x="105.5" y="-34.1" font-family="Helvetica,sans-Serif" font-size="8.00">::sync_io::Channel&lt; Channel</text>
<text text-anchor="start" x="105.5" y="-25.1" font-family="Helvetica,sans-Serif" font-size="8.00">_obj, Message_body, Struct</text>
<text text-anchor="start" x="105.5" y="-16.1" font-family="Helvetica,sans-Serif" font-size="8.00">_builder_config, Struct_reader</text>
<text text-anchor="middle" x="166" y="-7.1" font-family="Helvetica,sans-Serif" font-size="8.00">_config &gt;</text>
</a>
</g>
</g>
<!-- Node2 -->
<g id="node2" class="node">
<title>Node2</title>
<g id="a_node2"><a xlink:href="classipc_1_1transport_1_1struc_1_1Channel__base.html" target="_top" xlink:title="Channel base that contains non&#45;parameterized public items such as tag types and constants.">
<polygon fill="white" stroke="black" points="0,-90.5 0,-116.5 98,-116.5 98,-90.5 0,-90.5"/>
<text text-anchor="start" x="8" y="-106.1" font-family="Helvetica,sans-Serif" font-size="8.00">ipc::transport::struc</text>
<text text-anchor="middle" x="49" y="-97.1" font-family="Helvetica,sans-Serif" font-size="8.00">::Channel_base</text>
</a>
</g>
</g>
<!-- Node2&#45;&gt;Node1 -->
<g id="edge1" class="edge">
<title>Node2&#45;&gt;Node1</title>
<path fill="none" stroke="midnightblue" d="M76.64,-84.9C91.24,-75.6 109.44,-64.01 125.6,-53.72"/>
<polygon fill="midnightblue" stroke="midnightblue" points="74.61,-82.04 68.06,-90.36 78.37,-87.95 74.61,-82.04"/>
</g>
<!-- Node3 -->
<g id="node3" class="node">
<title>Node3</title>
<g id="a_node3"><a xlink:title=" ">
<polygon fill="white" stroke="#bfbfbf" points="116.5,-95 116.5,-112 215.5,-112 215.5,-95 116.5,-95"/>
<text text-anchor="middle" x="166" y="-101.6" font-family="Helvetica,sans-Serif" font-size="8.00">boost::noncopyable</text>
</a>
</g>
</g>
<!-- Node3&#45;&gt;Node1 -->
<g id="edge2" class="edge">
<title>Node3&#45;&gt;Node1</title>
<path fill="none" stroke="#8b1a1a" d="M166,-84.5C166,-75.23 166,-63.77 166,-53.6"/>
<polygon fill="#8b1a1a" stroke="#8b1a1a" points="162.5,-84.81 166,-94.81 169.5,-84.81 162.5,-84.81"/>
</g>
<!-- Node4 -->
<g id="node4" class="node">
<title>Node4</title>
<g id="a_node4"><a xlink:title=" ">
<polygon fill="white" stroke="#bfbfbf" points="233.5,-95 233.5,-112 340.5,-112 340.5,-95 233.5,-95"/>
<text text-anchor="middle" x="287" y="-101.6" font-family="Helvetica,sans-Serif" font-size="8.00">flow::log::Log_context</text>
</a>
</g>
</g>
<!-- Node4&#45;&gt;Node1 -->
<g id="edge3" class="edge">
<title>Node4&#45;&gt;Node1</title>
<path fill="none" stroke="midnightblue" d="M265.88,-89.5C249.82,-79.61 227.22,-65.69 207.57,-53.6"/>
<polygon fill="midnightblue" stroke="midnightblue" points="264.16,-92.55 274.51,-94.81 267.83,-86.58 264.16,-92.55"/>
</g>
</g>
</svg>
