<?xml version="1.0" encoding="UTF-8" standalone="no"?>
<!DOCTYPE svg PUBLIC "-//W3C//DTD SVG 1.1//EN"
 "http://www.w3.org/Graphics/SVG/1.1/DTD/svg11.dtd">
<!-- Generated by graphviz version 2.43.0 (0)
 -->
<!-- Title: ipc::session::Session_base&lt; S_MQ_TYPE_OR_NONE, S_TRANSMIT_NATIVE_HANDLES, Mdt_payload &gt; Pages: 1 -->
<svg width="1258pt" height="420pt"
 viewBox="0.00 0.00 1258.00 419.63" xmlns="http://www.w3.org/2000/svg" xmlns:xlink="http://www.w3.org/1999/xlink">
<g id="graph0" class="graph" transform="scale(1 1) rotate(0) translate(4 415.63)">
<title>ipc::session::Session_base&lt; S_MQ_TYPE_OR_NONE, S_TRANSMIT_NATIVE_HANDLES, Mdt_payload &gt;</title>
<polygon fill="white" stroke="transparent" points="-4,4 -4,-415.63 1254,-415.63 1254,4 -4,4"/>
<!-- Node1 -->
<g id="node1" class="node">
<title>Node1</title>
<g id="a_node1"><a xlink:title="Internal type containing data and types common to internal types Server_session_impl and Client_sessi...">
<polygon fill="#bfbfbf" stroke="black" points="1104,-195.63 1104,-239.63 1250,-239.63 1250,-195.63 1104,-195.63"/>
<text text-anchor="start" x="1112" y="-229.23" font-family="Helvetica,sans-Serif" font-size="8.00">ipc::session::Session</text>
<text text-anchor="start" x="1112" y="-220.23" font-family="Helvetica,sans-Serif" font-size="8.00">_base&lt; S_MQ_TYPE_OR_NONE,</text>
<text text-anchor="start" x="1112" y="-211.23" font-family="Helvetica,sans-Serif" font-size="8.00"> S_TRANSMIT_NATIVE_HANDLES,</text>
<text text-anchor="middle" x="1177" y="-202.23" font-family="Helvetica,sans-Serif" font-size="8.00"> Mdt_payload &gt;</text>
</a>
</g>
</g>
<!-- Node2 -->
<g id="node2" class="node">
<title>Node2</title>
<g id="a_node2"><a xlink:title=" ">
<polygon fill="white" stroke="#bfbfbf" points="817.5,-379.13 817.5,-396.13 916.5,-396.13 916.5,-379.13 817.5,-379.13"/>
<text text-anchor="middle" x="867" y="-385.73" font-family="Helvetica,sans-Serif" font-size="8.00">boost::noncopyable</text>
</a>
</g>
</g>
<!-- Node2&#45;&gt;Node1 -->
<g id="edge1" class="edge">
<title>Node2&#45;&gt;Node1</title>
<path fill="none" stroke="#8b1a1a" d="M926.54,-397.03C973.23,-401.43 1038.46,-400.34 1086,-370.63 1134.22,-340.51 1159.68,-274.33 1170.14,-239.72"/>
<polygon fill="#8b1a1a" stroke="#8b1a1a" points="926.88,-393.55 916.57,-395.99 926.15,-400.51 926.88,-393.55"/>
</g>
<!-- Node3 -->
<g id="node3" class="node">
<title>Node3</title>
<g id="a_node3"><a xlink:title=" ">
<polygon fill="white" stroke="#bfbfbf" points="816.5,-343.13 816.5,-360.13 917.5,-360.13 917.5,-343.13 816.5,-343.13"/>
<text text-anchor="middle" x="867" y="-349.73" font-family="Helvetica,sans-Serif" font-size="8.00">static constexpr bool</text>
</a>
</g>
</g>
<!-- Node3&#45;&gt;Node1 -->
<g id="edge2" class="edge">
<title>Node3&#45;&gt;Node1</title>
<path fill="none" stroke="#9a32cd" stroke-dasharray="5,2" d="M927.95,-350.73C982.9,-348.98 1059.62,-343.95 1086,-329.63 1123.49,-309.29 1151.05,-266.15 1165.22,-239.75"/>
<polygon fill="#9a32cd" stroke="#9a32cd" points="927.51,-347.24 917.61,-351.02 927.71,-354.23 927.51,-347.24"/>
<text text-anchor="middle" x="1025.5" y="-360.23" font-family="Helvetica,sans-Serif" font-size="8.00"> S_MQS_ENABLED</text>
<text text-anchor="middle" x="1025.5" y="-351.23" font-family="Helvetica,sans-Serif" font-size="8.00">S_SOCKET_STREAM_ENABLED</text>
</g>
<!-- Node4 -->
<g id="node4" class="node">
<title>Node4</title>
<g id="a_node4"><a xlink:href="structipc_1_1session_1_1Server__app.html" target="_top" xlink:title="An App that is used as a server in at least one client&#45;server IPC split.">
<polygon fill="white" stroke="black" points="557,-307.13 557,-324.13 675,-324.13 675,-307.13 557,-307.13"/>
<text text-anchor="middle" x="616" y="-313.73" font-family="Helvetica,sans-Serif" font-size="8.00">ipc::session::Server_app</text>
</a>
</g>
</g>
<!-- Node4&#45;&gt;Node1 -->
<g id="edge3" class="edge">
<title>Node4&#45;&gt;Node1</title>
<path fill="none" stroke="#9a32cd" stroke-dasharray="5,2" d="M685.3,-319.37C778.53,-322.25 949.63,-319.58 1086,-272.63 1107.99,-265.06 1130.31,-251.47 1147.22,-239.69"/>
<polygon fill="#9a32cd" stroke="#9a32cd" points="685.26,-315.86 675.15,-319.02 685.02,-322.86 685.26,-315.86"/>
<text text-anchor="middle" x="867" y="-321.23" font-family="Helvetica,sans-Serif" font-size="8.00"> m_srv_app_ref</text>
</g>
<!-- Node5 -->
<g id="node5" class="node">
<title>Node5</title>
<g id="a_node5"><a xlink:href="structipc_1_1session_1_1App.html" target="_top" xlink:title="A description of an application in this ipc::session inter&#45;process communication universe.">
<polygon fill="white" stroke="black" points="325,-246.13 325,-263.13 413,-263.13 413,-246.13 325,-246.13"/>
<text text-anchor="middle" x="369" y="-252.73" font-family="Helvetica,sans-Serif" font-size="8.00">ipc::session::App</text>
</a>
</g>
</g>
<!-- Node5&#45;&gt;Node4 -->
<g id="edge4" class="edge">
<title>Node5&#45;&gt;Node4</title>
<path fill="none" stroke="midnightblue" d="M414.07,-265.61C461.79,-277.49 536.91,-296.19 580.51,-307.05"/>
<polygon fill="midnightblue" stroke="midnightblue" points="414.87,-262.2 404.32,-263.18 413.18,-268.99 414.87,-262.2"/>
</g>
<!-- Node16 -->
<g id="node16" class="node">
<title>Node16</title>
<g id="a_node16"><a xlink:href="structipc_1_1session_1_1Client__app.html" target="_top" xlink:title="An App that is used as a client in at least one client&#45;server IPC split.">
<polygon fill="white" stroke="black" points="558.5,-203.13 558.5,-220.13 673.5,-220.13 673.5,-203.13 558.5,-203.13"/>
<text text-anchor="middle" x="616" y="-209.73" font-family="Helvetica,sans-Serif" font-size="8.00">ipc::session::Client_app</text>
</a>
</g>
</g>
<!-- Node5&#45;&gt;Node16 -->
<g id="edge17" class="edge">
<title>Node5&#45;&gt;Node16</title>
<path fill="none" stroke="midnightblue" d="M423.14,-245.31C465.71,-237.84 524.96,-227.44 566.31,-220.18"/>
<polygon fill="midnightblue" stroke="midnightblue" points="422.48,-241.87 413.24,-247.05 423.69,-248.76 422.48,-241.87"/>
</g>
<!-- Node6 -->
<g id="node6" class="node">
<title>Node6</title>
<g id="a_node6"><a xlink:title=" ">
<polygon fill="white" stroke="black" points="140.5,-167.13 140.5,-184.13 199.5,-184.13 199.5,-167.13 140.5,-167.13"/>
<text text-anchor="middle" x="170" y="-173.73" font-family="Helvetica,sans-Serif" font-size="8.00">std::string</text>
</a>
</g>
</g>
<!-- Node6&#45;&gt;Node5 -->
<g id="edge5" class="edge">
<title>Node6&#45;&gt;Node5</title>
<path fill="none" stroke="#9a32cd" stroke-dasharray="5,2" d="M209.48,-184.03C235.27,-190.79 269.28,-201.94 296,-218.63 305.6,-224.63 304.38,-230.69 314,-236.63 320.22,-240.48 327.36,-243.6 334.36,-246.11"/>
<polygon fill="#9a32cd" stroke="#9a32cd" points="210.23,-180.61 199.67,-181.57 208.52,-187.4 210.23,-180.61"/>
<text text-anchor="middle" x="263" y="-221.23" font-family="Helvetica,sans-Serif" font-size="8.00"> m_name</text>
</g>
<!-- Node17 -->
<g id="node17" class="node">
<title>Node17</title>
<g id="a_node17"><a xlink:href="classipc_1_1util_1_1Shared__name.html" target="_top" xlink:title="String&#45;wrapping abstraction representing a name uniquely distinguishing a kernel&#45;persistent entity fr...">
<polygon fill="white" stroke="black" points="314,-120.13 314,-137.13 424,-137.13 424,-120.13 314,-120.13"/>
<text text-anchor="middle" x="369" y="-126.73" font-family="Helvetica,sans-Serif" font-size="8.00">ipc::util::Shared_name</text>
</a>
</g>
</g>
<!-- Node6&#45;&gt;Node17 -->
<g id="edge22" class="edge">
<title>Node6&#45;&gt;Node17</title>
<path fill="none" stroke="#9a32cd" stroke-dasharray="5,2" d="M209.53,-165.71C216.34,-163.99 223.38,-162.24 230,-160.63 263.82,-152.42 302.41,-143.51 330.17,-137.18"/>
<polygon fill="#9a32cd" stroke="#9a32cd" points="208.61,-162.34 199.78,-168.19 210.33,-169.12 208.61,-162.34"/>
<text text-anchor="middle" x="263" y="-163.23" font-family="Helvetica,sans-Serif" font-size="8.00"> m_raw_name</text>
</g>
<!-- Node7 -->
<g id="node7" class="node">
<title>Node7</title>
<g id="a_node7"><a xlink:title=" ">
<polygon fill="white" stroke="black" points="0,-162.63 0,-188.63 91,-188.63 91,-162.63 0,-162.63"/>
<text text-anchor="start" x="8" y="-178.23" font-family="Helvetica,sans-Serif" font-size="8.00">std::basic_string&lt;</text>
<text text-anchor="middle" x="45.5" y="-169.23" font-family="Helvetica,sans-Serif" font-size="8.00"> Char &gt;</text>
</a>
</g>
</g>
<!-- Node7&#45;&gt;Node6 -->
<g id="edge6" class="edge">
<title>Node7&#45;&gt;Node6</title>
<path fill="none" stroke="midnightblue" d="M101.25,-175.63C114.72,-175.63 128.61,-175.63 140.29,-175.63"/>
<polygon fill="midnightblue" stroke="midnightblue" points="101.07,-172.13 91.07,-175.63 101.07,-179.13 101.07,-172.13"/>
</g>
<!-- Node8 -->
<g id="node8" class="node">
<title>Node8</title>
<g id="a_node8"><a xlink:title=" ">
<polygon fill="white" stroke="#bfbfbf" points="152.5,-295.13 152.5,-312.13 187.5,-312.13 187.5,-295.13 152.5,-295.13"/>
<text text-anchor="middle" x="170" y="-301.73" font-family="Helvetica,sans-Serif" font-size="8.00">path</text>
</a>
</g>
</g>
<!-- Node8&#45;&gt;Node4 -->
<g id="edge11" class="edge">
<title>Node8&#45;&gt;Node4</title>
<path fill="none" stroke="#9a32cd" stroke-dasharray="5,2" d="M197.83,-304.36C268.24,-306.26 459.61,-311.43 556.76,-314.06"/>
<polygon fill="#9a32cd" stroke="#9a32cd" points="197.69,-300.85 187.59,-304.08 197.5,-307.85 197.69,-300.85"/>
<text text-anchor="start" x="326.5" y="-321.23" font-family="Helvetica,sans-Serif" font-size="8.00"> m_kernel_persistent</text>
<text text-anchor="middle" x="369" y="-312.23" font-family="Helvetica,sans-Serif" font-size="8.00">_run_dir_override</text>
</g>
<!-- Node8&#45;&gt;Node5 -->
<g id="edge7" class="edge">
<title>Node8&#45;&gt;Node5</title>
<path fill="none" stroke="#9a32cd" stroke-dasharray="5,2" d="M197.45,-296.86C207.62,-294.27 219.35,-291.3 230,-288.63 265.07,-279.86 305.19,-269.99 333.1,-263.16"/>
<polygon fill="#9a32cd" stroke="#9a32cd" points="196.35,-293.53 187.52,-299.4 198.08,-300.32 196.35,-293.53"/>
<text text-anchor="middle" x="263" y="-291.23" font-family="Helvetica,sans-Serif" font-size="8.00"> m_exec_path</text>
</g>
<!-- Node9 -->
<g id="node9" class="node">
<title>Node9</title>
<g id="a_node9"><a xlink:title=" ">
<polygon fill="white" stroke="#bfbfbf" points="152,-249.13 152,-266.13 188,-266.13 188,-249.13 152,-249.13"/>
<text text-anchor="middle" x="170" y="-255.73" font-family="Helvetica,sans-Serif" font-size="8.00">uid_t</text>
</a>
</g>
</g>
<!-- Node9&#45;&gt;Node5 -->
<g id="edge8" class="edge">
<title>Node9&#45;&gt;Node5</title>
<path fill="none" stroke="#9a32cd" stroke-dasharray="5,2" d="M198.22,-257.16C208.21,-256.99 219.62,-256.8 230,-256.63 261.74,-256.13 297.6,-255.62 324.8,-255.23"/>
<polygon fill="#9a32cd" stroke="#9a32cd" points="197.98,-253.66 188.04,-257.33 198.1,-260.66 197.98,-253.66"/>
<text text-anchor="middle" x="263" y="-259.23" font-family="Helvetica,sans-Serif" font-size="8.00"> m_user_id</text>
</g>
<!-- Node10 -->
<g id="node10" class="node">
<title>Node10</title>
<g id="a_node10"><a xlink:title=" ">
<polygon fill="white" stroke="#bfbfbf" points="152,-213.13 152,-230.13 188,-230.13 188,-213.13 152,-213.13"/>
<text text-anchor="middle" x="170" y="-219.73" font-family="Helvetica,sans-Serif" font-size="8.00">gid_t</text>
</a>
</g>
</g>
<!-- Node10&#45;&gt;Node5 -->
<g id="edge9" class="edge">
<title>Node10&#45;&gt;Node5</title>
<path fill="none" stroke="#9a32cd" stroke-dasharray="5,2" d="M198.33,-226.21C231.09,-231.7 286.4,-240.96 324.93,-247.42"/>
<polygon fill="#9a32cd" stroke="#9a32cd" points="198.58,-222.7 188.14,-224.5 197.42,-229.61 198.58,-222.7"/>
<text text-anchor="middle" x="263" y="-244.23" font-family="Helvetica,sans-Serif" font-size="8.00"> m_group_id</text>
</g>
<!-- Node11 -->
<g id="node11" class="node">
<title>Node11</title>
<g id="a_node11"><a xlink:title=" ">
<polygon fill="white" stroke="#bfbfbf" points="320,-348.63 320,-374.63 418,-374.63 418,-348.63 320,-348.63"/>
<text text-anchor="start" x="328" y="-364.23" font-family="Helvetica,sans-Serif" font-size="8.00">unordered_set&lt; std</text>
<text text-anchor="middle" x="369" y="-355.23" font-family="Helvetica,sans-Serif" font-size="8.00">::string &gt;</text>
</a>
</g>
</g>
<!-- Node11&#45;&gt;Node4 -->
<g id="edge10" class="edge">
<title>Node11&#45;&gt;Node4</title>
<path fill="none" stroke="#9a32cd" stroke-dasharray="5,2" d="M428.21,-350.7C471.45,-342.59 529.61,-331.67 569.48,-324.18"/>
<polygon fill="#9a32cd" stroke="#9a32cd" points="427.29,-347.32 418.11,-352.6 428.59,-354.19 427.29,-347.32"/>
<text text-anchor="middle" x="490.5" y="-350.23" font-family="Helvetica,sans-Serif" font-size="8.00"> m_allowed_client_apps</text>
</g>
<!-- Node12 -->
<g id="node12" class="node">
<title>Node12</title>
<g id="a_node12"><a xlink:title=" ">
<polygon fill="white" stroke="#bfbfbf" points="324.5,-394.13 324.5,-411.13 413.5,-411.13 413.5,-394.13 324.5,-394.13"/>
<text text-anchor="middle" x="369" y="-400.73" font-family="Helvetica,sans-Serif" font-size="8.00">Permissions_level</text>
</a>
</g>
</g>
<!-- Node12&#45;&gt;Node4 -->
<g id="edge12" class="edge">
<title>Node12&#45;&gt;Node4</title>
<path fill="none" stroke="#9a32cd" stroke-dasharray="5,2" d="M423.96,-393.39C457.79,-386.59 501.86,-375.86 539,-360.63 562.98,-350.8 588.42,-334.34 602.94,-324.29"/>
<polygon fill="#9a32cd" stroke="#9a32cd" points="422.96,-390.02 413.82,-395.38 424.3,-396.89 422.96,-390.02"/>
<text text-anchor="start" x="447" y="-400.23" font-family="Helvetica,sans-Serif" font-size="8.00"> m_permissions_level</text>
<text text-anchor="middle" x="490.5" y="-391.23" font-family="Helvetica,sans-Serif" font-size="8.00">_for_client_apps</text>
</g>
<!-- Node13 -->
<g id="node13" class="node">
<title>Node13</title>
<g id="a_node13"><a xlink:title=" ">
<polygon fill="white" stroke="#bfbfbf" points="831.5,-262.13 831.5,-279.13 902.5,-279.13 902.5,-262.13 831.5,-262.13"/>
<text text-anchor="middle" x="867" y="-268.73" font-family="Helvetica,sans-Serif" font-size="8.00">Fine_duration</text>
</a>
</g>
</g>
<!-- Node13&#45;&gt;Node1 -->
<g id="edge13" class="edge">
<title>Node13&#45;&gt;Node1</title>
<path fill="none" stroke="#9a32cd" stroke-dasharray="5,2" d="M912.72,-266.38C956.99,-261.78 1026.55,-253.46 1086,-241.63 1091.87,-240.47 1097.92,-239.13 1103.98,-237.71"/>
<polygon fill="#9a32cd" stroke="#9a32cd" points="912.18,-262.92 902.58,-267.42 912.89,-269.88 912.18,-262.92"/>
<text text-anchor="middle" x="1025.5" y="-262.23" font-family="Helvetica,sans-Serif" font-size="8.00"> S_OPEN_CHANNEL_TIMEOUT</text>
</g>
<!-- Node14 -->
<g id="node14" class="node">
<title>Node14</title>
<g id="a_node14"><a xlink:title=" ">
<polygon fill="white" stroke="#bfbfbf" points="813.5,-226.13 813.5,-243.13 920.5,-243.13 920.5,-226.13 813.5,-226.13"/>
<text text-anchor="middle" x="867" y="-232.73" font-family="Helvetica,sans-Serif" font-size="8.00">static constexpr size_t</text>
</a>
</g>
</g>
<!-- Node14&#45;&gt;Node1 -->
<g id="edge14" class="edge">
<title>Node14&#45;&gt;Node1</title>
<path fill="none" stroke="#9a32cd" stroke-dasharray="5,2" d="M930.68,-231.17C980.91,-228.4 1051.45,-224.51 1104,-221.61"/>
<polygon fill="#9a32cd" stroke="#9a32cd" points="930.39,-227.68 920.6,-231.73 930.77,-234.67 930.39,-227.68"/>
<text text-anchor="middle" x="1025.5" y="-231.23" font-family="Helvetica,sans-Serif" font-size="8.00"> S_MQS_MAX_MSG_SZ</text>
</g>
<!-- Node15 -->
<g id="node15" class="node">
<title>Node15</title>
<g id="a_node15"><a xlink:title=" ">
<polygon fill="white" stroke="black" points="818,-172.13 818,-207.13 916,-207.13 916,-172.13 818,-172.13"/>
<text text-anchor="start" x="826" y="-196.73" font-family="Helvetica,sans-Serif" font-size="8.00">std::atomic&lt; const</text>
<text text-anchor="start" x="826" y="-187.73" font-family="Helvetica,sans-Serif" font-size="8.00"> ipc::session::Client</text>
<text text-anchor="middle" x="867" y="-178.73" font-family="Helvetica,sans-Serif" font-size="8.00">_app * &gt;</text>
</a>
</g>
</g>
<!-- Node15&#45;&gt;Node1 -->
<g id="edge15" class="edge">
<title>Node15&#45;&gt;Node1</title>
<path fill="none" stroke="#9a32cd" stroke-dasharray="5,2" d="M926.21,-194.93C976.63,-199.51 1049.77,-206.16 1103.88,-211.08"/>
<polygon fill="#9a32cd" stroke="#9a32cd" points="926.4,-191.43 916.12,-194.01 925.77,-198.4 926.4,-191.43"/>
<text text-anchor="middle" x="1025.5" y="-211.23" font-family="Helvetica,sans-Serif" font-size="8.00"> m_cli_app_ptr</text>
</g>
<!-- Node16&#45;&gt;Node15 -->
<g id="edge16" class="edge">
<title>Node16&#45;&gt;Node15</title>
<path fill="none" stroke="#9a32cd" stroke-dasharray="5,2" d="M683.7,-205.74C725.93,-202.01 779.56,-197.27 817.69,-193.9"/>
<polygon fill="#9a32cd" stroke="#9a32cd" points="683.16,-202.27 673.5,-206.64 683.77,-209.25 683.16,-202.27"/>
<text text-anchor="middle" x="731" y="-206.23" font-family="Helvetica,sans-Serif" font-size="8.00"> ptr</text>
</g>
<!-- Node17&#45;&gt;Node1 -->
<g id="edge18" class="edge">
<title>Node17&#45;&gt;Node1</title>
<path fill="none" stroke="#9a32cd" stroke-dasharray="5,2" d="M434.71,-128.93C541.81,-130.19 762.43,-136.14 947,-162.63 1000.22,-170.27 1059.19,-184.58 1103.96,-196.68"/>
<polygon fill="#9a32cd" stroke="#9a32cd" points="434.44,-125.42 424.4,-128.81 434.36,-132.42 434.44,-125.42"/>
<text text-anchor="middle" x="731" y="-154.23" font-family="Helvetica,sans-Serif" font-size="8.00"> m_cli_namespace</text>
<text text-anchor="middle" x="731" y="-145.23" font-family="Helvetica,sans-Serif" font-size="8.00">m_srv_namespace</text>
</g>
<!-- Node17&#45;&gt;Node17 -->
<g id="edge19" class="edge">
<title>Node17&#45;&gt;Node17</title>
<path fill="none" stroke="#9a32cd" stroke-dasharray="5,2" d="M349.19,-146.49C349.93,-151.65 356.53,-155.63 369,-155.63 388.46,-155.63 393.63,-145.93 384.51,-137.2"/>
<polygon fill="#9a32cd" stroke="#9a32cd" points="352.47,-147.75 353.49,-137.2 346.12,-144.81 352.47,-147.75"/>
<text text-anchor="middle" x="369" y="-221.23" font-family="Helvetica,sans-Serif" font-size="8.00"> S_1ST_OR_ONLY</text>
<text text-anchor="middle" x="369" y="-212.23" font-family="Helvetica,sans-Serif" font-size="8.00">S_EMPTY</text>
<text text-anchor="start" x="330.5" y="-203.23" font-family="Helvetica,sans-Serif" font-size="8.00">S_RESOURCE_TYPE</text>
<text text-anchor="middle" x="369" y="-194.23" font-family="Helvetica,sans-Serif" font-size="8.00">_ID_MUTEX</text>
<text text-anchor="start" x="330.5" y="-185.23" font-family="Helvetica,sans-Serif" font-size="8.00">S_RESOURCE_TYPE</text>
<text text-anchor="middle" x="369" y="-176.23" font-family="Helvetica,sans-Serif" font-size="8.00">_ID_SHM</text>
<text text-anchor="middle" x="369" y="-167.23" font-family="Helvetica,sans-Serif" font-size="8.00">S_ROOT_MAGIC</text>
<text text-anchor="middle" x="369" y="-158.23" font-family="Helvetica,sans-Serif" font-size="8.00">S_SENTINEL</text>
</g>
<!-- Node18 -->
<g id="node18" class="node">
<title>Node18</title>
<g id="a_node18"><a xlink:title=" ">
<polygon fill="white" stroke="#bfbfbf" points="150,-83.13 150,-100.13 190,-100.13 190,-83.13 150,-83.13"/>
<text text-anchor="middle" x="170" y="-89.73" font-family="Helvetica,sans-Serif" font-size="8.00">size_t</text>
</a>
</g>
</g>
<!-- Node18&#45;&gt;Node17 -->
<g id="edge20" class="edge">
<title>Node18&#45;&gt;Node17</title>
<path fill="none" stroke="#9a32cd" stroke-dasharray="5,2" d="M200.12,-96.91C225.47,-101.52 263.18,-108.42 296,-114.63 305.26,-116.39 315.18,-118.29 324.61,-120.12"/>
<polygon fill="#9a32cd" stroke="#9a32cd" points="200.54,-93.42 190.07,-95.08 199.28,-100.31 200.54,-93.42"/>
<text text-anchor="middle" x="263" y="-117.23" font-family="Helvetica,sans-Serif" font-size="8.00"> S_MAX_LENGTH</text>
</g>
<!-- Node19 -->
<g id="node19" class="node">
<title>Node19</title>
<g id="a_node19"><a xlink:title=" ">
<polygon fill="white" stroke="#bfbfbf" points="128,-119.13 128,-136.13 212,-136.13 212,-119.13 128,-119.13"/>
<text text-anchor="middle" x="170" y="-125.73" font-family="Helvetica,sans-Serif" font-size="8.00">static const char</text>
</a>
</g>
</g>
<!-- Node19&#45;&gt;Node17 -->
<g id="edge21" class="edge">
<title>Node19&#45;&gt;Node17</title>
<path fill="none" stroke="#9a32cd" stroke-dasharray="5,2" d="M222.31,-127.89C250.38,-128.04 285.13,-128.21 313.66,-128.36"/>
<polygon fill="#9a32cd" stroke="#9a32cd" points="222.32,-124.39 212.3,-127.84 222.28,-131.39 222.32,-124.39"/>
<text text-anchor="middle" x="263" y="-130.23" font-family="Helvetica,sans-Serif" font-size="8.00"> S_SEPARATOR</text>
</g>
<!-- Node20 -->
<g id="node20" class="node">
<title>Node20</title>
<g id="a_node20"><a xlink:title=" ">
<polygon fill="white" stroke="#bfbfbf" points="831.5,-98.13 831.5,-115.13 902.5,-115.13 902.5,-98.13 831.5,-98.13"/>
<text text-anchor="middle" x="867" y="-104.73" font-family="Helvetica,sans-Serif" font-size="8.00">Task_asio_err</text>
</a>
</g>
</g>
<!-- Node20&#45;&gt;Node1 -->
<g id="edge23" class="edge">
<title>Node20&#45;&gt;Node1</title>
<path fill="none" stroke="#9a32cd" stroke-dasharray="5,2" d="M913.03,-100.16C958.88,-95.65 1030.86,-94.44 1086,-120.63 1120.03,-136.8 1147.4,-172.06 1162.67,-195.32"/>
<polygon fill="#9a32cd" stroke="#9a32cd" points="912.38,-96.71 902.81,-101.26 913.13,-103.67 912.38,-96.71"/>
<text text-anchor="middle" x="1025.5" y="-123.23" font-family="Helvetica,sans-Serif" font-size="8.00"> m_on_err_func</text>
</g>
<!-- Node21 -->
<g id="node21" class="node">
<title>Node21</title>
<g id="a_node21"><a xlink:title=" ">
<polygon fill="white" stroke="#bfbfbf" points="787,-44.13 787,-79.13 947,-79.13 947,-44.13 787,-44.13"/>
<text text-anchor="start" x="795" y="-68.73" font-family="Helvetica,sans-Serif" font-size="8.00">Function&lt; void(Channel</text>
<text text-anchor="start" x="795" y="-59.73" font-family="Helvetica,sans-Serif" font-size="8.00">_obj &amp;&amp;new_channel, Mdt</text>
<text text-anchor="middle" x="867" y="-50.73" font-family="Helvetica,sans-Serif" font-size="8.00">_reader_ptr &amp;&amp;new_channel_mdt)&gt;</text>
</a>
</g>
</g>
<!-- Node21&#45;&gt;Node1 -->
<g id="edge24" class="edge">
<title>Node21&#45;&gt;Node1</title>
<path fill="none" stroke="#9a32cd" stroke-dasharray="5,2" d="M957.4,-49.52C999.13,-48.15 1047.87,-53.04 1086,-75.63 1131.57,-102.64 1157.76,-162.73 1169.15,-195.42"/>
<polygon fill="#9a32cd" stroke="#9a32cd" points="957.06,-46.03 947.23,-49.98 957.38,-53.02 957.06,-46.03"/>
<text text-anchor="start" x="965" y="-87.23" font-family="Helvetica,sans-Serif" font-size="8.00"> m_on_passive_open_channel</text>
<text text-anchor="middle" x="1025.5" y="-78.23" font-family="Helvetica,sans-Serif" font-size="8.00">_func_or_empty</text>
</g>
<!-- Node22 -->
<g id="node22" class="node">
<title>Node22</title>
<g id="a_node22"><a xlink:title=" ">
<polygon fill="white" stroke="#bfbfbf" points="837,-8.13 837,-25.13 897,-25.13 897,-8.13 837,-8.13"/>
<text text-anchor="middle" x="867" y="-14.73" font-family="Helvetica,sans-Serif" font-size="8.00">Error_code</text>
</a>
</g>
</g>
<!-- Node22&#45;&gt;Node1 -->
<g id="edge25" class="edge">
<title>Node22&#45;&gt;Node1</title>
<path fill="none" stroke="#9a32cd" stroke-dasharray="5,2" d="M907.04,-7.42C953.76,1.27 1032.41,8.21 1086,-27.63 1144.41,-66.69 1165.86,-154.44 1172.92,-195.57"/>
<polygon fill="#9a32cd" stroke="#9a32cd" points="906.14,-4.03 897.01,-9.4 907.5,-10.9 906.14,-4.03"/>
<text text-anchor="start" x="977" y="-39.23" font-family="Helvetica,sans-Serif" font-size="8.00"> m_peer_state_err_code</text>
<text text-anchor="middle" x="1025.5" y="-30.23" font-family="Helvetica,sans-Serif" font-size="8.00">_or_ok</text>
</g>
</g>
</svg>
