<?xml version="1.0" encoding="UTF-8" standalone="no"?>
<!DOCTYPE svg PUBLIC "-//W3C//DTD SVG 1.1//EN"
 "http://www.w3.org/Graphics/SVG/1.1/DTD/svg11.dtd">
<!-- Generated by graphviz version 2.43.0 (0)
 -->
<!-- Title: ipc::transport::Native_socket_stream::async_end_sending Pages: 1 -->
<svg width="263pt" height="44pt"
 viewBox="0.00 0.00 263.00 44.00" xmlns="http://www.w3.org/2000/svg" xmlns:xlink="http://www.w3.org/1999/xlink">
<g id="graph0" class="graph" transform="scale(1 1) rotate(0) translate(4 40)">
<title>ipc::transport::Native_socket_stream::async_end_sending</title>
<polygon fill="white" stroke="transparent" points="-4,4 -4,-40 259,-40 259,4 -4,4"/>
<!-- Node1 -->
<g id="node1" class="node">
<title>Node1</title>
<g id="a_node1"><a xlink:title="Implements Native_handle_sender, Blob_sender API per contract.">
<polygon fill="#bfbfbf" stroke="black" points="145,-0.5 145,-35.5 255,-35.5 255,-0.5 145,-0.5"/>
<text text-anchor="start" x="153" y="-25.1" font-family="Helvetica,sans-Serif" font-size="8.00">ipc::transport::Native</text>
<text text-anchor="start" x="153" y="-16.1" font-family="Helvetica,sans-Serif" font-size="8.00">_socket_stream::async</text>
<text text-anchor="middle" x="200" y="-7.1" font-family="Helvetica,sans-Serif" font-size="8.00">_end_sending</text>
</a>
</g>
</g>
<!-- Node2 -->
<g id="node2" class="node">
<title>Node2</title>
<g id="a_node2"><a xlink:href="classipc_1_1transport_1_1Native__socket__stream_1_1Impl.html#a39c3a466e4f61e20dfaa8d9b66266f61" target="_top" xlink:title="See Native_socket_stream counterpart.">
<polygon fill="white" stroke="black" points="0,-0.5 0,-35.5 109,-35.5 109,-0.5 0,-0.5"/>
<text text-anchor="start" x="8" y="-25.1" font-family="Helvetica,sans-Serif" font-size="8.00">ipc::transport::Native</text>
<text text-anchor="start" x="8" y="-16.1" font-family="Helvetica,sans-Serif" font-size="8.00">_socket_stream::Impl::</text>
<text text-anchor="middle" x="54.5" y="-7.1" font-family="Helvetica,sans-Serif" font-size="8.00">end_sending</text>
</a>
</g>
</g>
<!-- Node1&#45;&gt;Node2 -->
<g id="edge1" class="edge">
<title>Node1&#45;&gt;Node2</title>
<path fill="none" stroke="midnightblue" d="M134.57,-18C126.14,-18 117.58,-18 109.35,-18"/>
<polygon fill="midnightblue" stroke="midnightblue" points="134.75,-21.5 144.75,-18 134.75,-14.5 134.75,-21.5"/>
</g>
</g>
</svg>
