<?xml version="1.0" encoding="UTF-8" standalone="no"?>
<!DOCTYPE svg PUBLIC "-//W3C//DTD SVG 1.1//EN"
 "http://www.w3.org/Graphics/SVG/1.1/DTD/svg11.dtd">
<!-- Generated by graphviz version 2.43.0 (0)
 -->
<!-- Title: ipc::transport::struc::error::Category Pages: 1 -->
<svg width="181pt" height="99pt"
 viewBox="0.00 0.00 180.50 99.00" xmlns="http://www.w3.org/2000/svg" xmlns:xlink="http://www.w3.org/1999/xlink">
<g id="graph0" class="graph" transform="scale(1 1) rotate(0) translate(4 95)">
<title>ipc::transport::struc::error::Category</title>
<polygon fill="white" stroke="transparent" points="-4,4 -4,-95 176.5,-95 176.5,4 -4,4"/>
<!-- Node1 -->
<g id="node1" class="node">
<title>Node1</title>
<g id="a_node1"><a xlink:title="The boost.system category for errors returned by the ipc::transport::struc module.">
<polygon fill="#bfbfbf" stroke="black" points="1.5,-0.5 1.5,-26.5 99.5,-26.5 99.5,-0.5 1.5,-0.5"/>
<text text-anchor="start" x="9.5" y="-16.1" font-family="Helvetica,sans-Serif" font-size="8.00">ipc::transport::struc</text>
<text text-anchor="middle" x="50.5" y="-7.1" font-family="Helvetica,sans-Serif" font-size="8.00">::error::Category</text>
</a>
</g>
</g>
<!-- Node1&#45;&gt;Node1 -->
<g id="edge2" class="edge">
<title>Node1&#45;&gt;Node1</title>
<path fill="none" stroke="#9a32cd" stroke-dasharray="5,2" d="M109.82,-18.08C114.56,-17.08 117.5,-15.55 117.5,-13.5 117.5,-10.22 109.99,-8.28 99.58,-7.69"/>
<polygon fill="#9a32cd" stroke="#9a32cd" points="109.09,-14.64 99.58,-19.31 109.93,-21.59 109.09,-14.64"/>
<text text-anchor="middle" x="145" y="-11.6" font-family="Helvetica,sans-Serif" font-size="8.00"> S_CATEGORY</text>
</g>
<!-- Node2 -->
<g id="node2" class="node">
<title>Node2</title>
<g id="a_node2"><a xlink:href="classboost_1_1system_1_1error__category.html" target="_top" xlink:title=" ">
<polygon fill="white" stroke="#bfbfbf" points="0,-64.5 0,-90.5 101,-90.5 101,-64.5 0,-64.5"/>
<text text-anchor="start" x="8" y="-80.1" font-family="Helvetica,sans-Serif" font-size="8.00">boost::system::error</text>
<text text-anchor="middle" x="50.5" y="-71.1" font-family="Helvetica,sans-Serif" font-size="8.00">_category</text>
</a>
</g>
</g>
<!-- Node2&#45;&gt;Node1 -->
<g id="edge1" class="edge">
<title>Node2&#45;&gt;Node1</title>
<path fill="none" stroke="midnightblue" d="M50.5,-54.13C50.5,-44.89 50.5,-34.53 50.5,-26.72"/>
<polygon fill="midnightblue" stroke="midnightblue" points="47,-54.25 50.5,-64.25 54,-54.25 47,-54.25"/>
</g>
</g>
</svg>
