<?xml version="1.0" encoding="UTF-8" standalone="no"?>
<!DOCTYPE svg PUBLIC "-//W3C//DTD SVG 1.1//EN"
 "http://www.w3.org/Graphics/SVG/1.1/DTD/svg11.dtd">
<!-- Generated by graphviz version 2.43.0 (0)
 -->
<!-- Title: ipc::session::Client_session_impl::async_connect Pages: 1 -->
<svg width="270pt" height="135pt"
 viewBox="0.00 0.00 270.00 134.50" xmlns="http://www.w3.org/2000/svg" xmlns:xlink="http://www.w3.org/1999/xlink">
<g id="graph0" class="graph" transform="scale(1 1) rotate(0) translate(4 130.5)">
<title>ipc::session::Client_session_impl::async_connect</title>
<polygon fill="white" stroke="transparent" points="-4,4 -4,-130.5 266,-130.5 266,4 -4,4"/>
<!-- Node1 -->
<g id="node1" class="node">
<title>Node1</title>
<g id="a_node1"><a xlink:title="See Client_session_mv counterpart.">
<polygon fill="#bfbfbf" stroke="black" points="0,-41 0,-76 103,-76 103,-41 0,-41"/>
<text text-anchor="start" x="8" y="-65.6" font-family="Helvetica,sans-Serif" font-size="8.00">ipc::session::Client</text>
<text text-anchor="start" x="8" y="-56.6" font-family="Helvetica,sans-Serif" font-size="8.00">_session_impl::async</text>
<text text-anchor="middle" x="51.5" y="-47.6" font-family="Helvetica,sans-Serif" font-size="8.00">_connect</text>
</a>
</g>
</g>
<!-- Node2 -->
<g id="node2" class="node">
<title>Node2</title>
<g id="a_node2"><a xlink:href="classipc_1_1util_1_1Shared__name.html#a48f20b7b54490aa10dc64081d34c55b2" target="_top" xlink:title="Copy&#45;constructs from a char&#45;sequence container (including string, util::String_view,...">
<polygon fill="white" stroke="black" points="139,-109 139,-126 262,-126 262,-109 139,-109"/>
<text text-anchor="middle" x="200.5" y="-115.6" font-family="Helvetica,sans-Serif" font-size="8.00">ipc::util::Shared_name::ct</text>
</a>
</g>
</g>
<!-- Node1&#45;&gt;Node2 -->
<g id="edge1" class="edge">
<title>Node1&#45;&gt;Node2</title>
<path fill="none" stroke="midnightblue" d="M86.49,-76.09C102.22,-83.85 121.31,-92.72 139,-99.5 144.98,-101.79 151.38,-103.97 157.69,-105.98"/>
<polygon fill="midnightblue" stroke="midnightblue" points="156.89,-109.39 167.48,-108.97 158.94,-102.7 156.89,-109.39"/>
</g>
<!-- Node3 -->
<g id="node3" class="node">
<title>Node3</title>
<g id="a_node3"><a xlink:href="namespaceipc_1_1util.html#abd43da87aa17031604c7906757c07d46" target="_top" xlink:title="Internal (to ipc) utility that invokes the given function that invokes a boost.interprocess operation...">
<polygon fill="white" stroke="black" points="141,-45.5 141,-71.5 260,-71.5 260,-45.5 141,-45.5"/>
<text text-anchor="start" x="149" y="-61.1" font-family="Helvetica,sans-Serif" font-size="8.00">ipc::util::op_with</text>
<text text-anchor="middle" x="200.5" y="-52.1" font-family="Helvetica,sans-Serif" font-size="8.00">_possible_bipc_exception</text>
</a>
</g>
</g>
<!-- Node1&#45;&gt;Node3 -->
<g id="edge2" class="edge">
<title>Node1&#45;&gt;Node3</title>
<path fill="none" stroke="midnightblue" d="M103.09,-58.5C112.05,-58.5 121.53,-58.5 130.89,-58.5"/>
<polygon fill="midnightblue" stroke="midnightblue" points="130.98,-62 140.98,-58.5 130.98,-55 130.98,-62"/>
</g>
<!-- Node4 -->
<g id="node4" class="node">
<title>Node4</title>
<g id="a_node4"><a xlink:href="namespaceipc_1_1util.html#abda2ce5bcdbc26ca63d667b87818439c" target="_top" xlink:title="Maps general Permissions_level specifier to low&#45;level Permissions value, when the underlying resource...">
<polygon fill="white" stroke="black" points="139.5,-0.5 139.5,-26.5 261.5,-26.5 261.5,-0.5 139.5,-0.5"/>
<text text-anchor="start" x="147.5" y="-16.1" font-family="Helvetica,sans-Serif" font-size="8.00">ipc::util::shared_resource</text>
<text text-anchor="middle" x="200.5" y="-7.1" font-family="Helvetica,sans-Serif" font-size="8.00">_permissions</text>
</a>
</g>
</g>
<!-- Node1&#45;&gt;Node4 -->
<g id="edge4" class="edge">
<title>Node1&#45;&gt;Node4</title>
<path fill="none" stroke="midnightblue" d="M103.09,-43.01C117.26,-38.68 132.69,-33.95 146.97,-29.58"/>
<polygon fill="midnightblue" stroke="midnightblue" points="148.11,-32.89 156.65,-26.62 146.06,-26.2 148.11,-32.89"/>
</g>
<!-- Node3&#45;&gt;Node3 -->
<g id="edge3" class="edge">
<title>Node3&#45;&gt;Node3</title>
<path fill="none" stroke="midnightblue" d="M175.46,-71.77C167.87,-80.96 176.22,-90 200.5,-90 215.3,-90 224.18,-86.64 227.14,-81.94"/>
<polygon fill="midnightblue" stroke="midnightblue" points="230.55,-81.11 225.54,-71.77 223.63,-82.19 230.55,-81.11"/>
</g>
</g>
</svg>
