<?xml version="1.0" encoding="UTF-8" standalone="no"?>
<!DOCTYPE svg PUBLIC "-//W3C//DTD SVG 1.1//EN"
 "http://www.w3.org/Graphics/SVG/1.1/DTD/svg11.dtd">
<!-- Generated by graphviz version 2.43.0 (0)
 -->
<!-- Title: ipc::transport::sync_io::Native_socket_stream::Impl::async_connect Pages: 1 -->
<svg width="480pt" height="128pt"
 viewBox="0.00 0.00 480.00 127.50" xmlns="http://www.w3.org/2000/svg" xmlns:xlink="http://www.w3.org/1999/xlink">
<g id="graph0" class="graph" transform="scale(1 1) rotate(0) translate(4 123.5)">
<title>ipc::transport::sync_io::Native_socket_stream::Impl::async_connect</title>
<polygon fill="white" stroke="transparent" points="-4,4 -4,-123.5 476,-123.5 476,4 -4,4"/>
<!-- Node1 -->
<g id="node1" class="node">
<title>Node1</title>
<g id="a_node1"><a xlink:title="The core of sync_connect(), written in the sync_io&#45;pattern style.">
<polygon fill="#bfbfbf" stroke="black" points="0,-27.5 0,-62.5 123,-62.5 123,-27.5 0,-27.5"/>
<text text-anchor="start" x="8" y="-52.1" font-family="Helvetica,sans-Serif" font-size="8.00">ipc::transport::sync</text>
<text text-anchor="start" x="8" y="-43.1" font-family="Helvetica,sans-Serif" font-size="8.00">_io::Native_socket_stream</text>
<text text-anchor="middle" x="61.5" y="-34.1" font-family="Helvetica,sans-Serif" font-size="8.00">::Impl::async_connect</text>
</a>
</g>
</g>
<!-- Node2 -->
<g id="node2" class="node">
<title>Node2</title>
<g id="a_node2"><a xlink:href="namespaceipc_1_1transport_1_1asio__local__stream__socket.html#af872520154fc00afaa59c7eec607a225" target="_top" xlink:title="Returns an Endpoint corresponding to the given absolute Shared_name, so that an Acceptor or Peer_sock...">
<polygon fill="white" stroke="black" points="159,-54.5 159,-89.5 290,-89.5 290,-54.5 159,-54.5"/>
<text text-anchor="start" x="167" y="-79.1" font-family="Helvetica,sans-Serif" font-size="8.00">ipc::transport::asio</text>
<text text-anchor="start" x="167" y="-70.1" font-family="Helvetica,sans-Serif" font-size="8.00">_local_stream_socket</text>
<text text-anchor="middle" x="224.5" y="-61.1" font-family="Helvetica,sans-Serif" font-size="8.00">::endpoint_at_shared_name</text>
</a>
</g>
</g>
<!-- Node1&#45;&gt;Node2 -->
<g id="edge1" class="edge">
<title>Node1&#45;&gt;Node2</title>
<path fill="none" stroke="midnightblue" d="M123.37,-55.21C131.69,-56.6 140.31,-58.05 148.84,-59.48"/>
<polygon fill="midnightblue" stroke="midnightblue" points="148.35,-62.95 158.79,-61.15 149.5,-56.04 148.35,-62.95"/>
</g>
<!-- Node5 -->
<g id="node5" class="node">
<title>Node5</title>
<g id="a_node5"><a xlink:href="classipc_1_1transport_1_1sync__io_1_1Native__socket__stream.html#aac68d14f4ef33505399df4fd04cd4669" target="_top" xlink:title="Returns logger (possibly null).">
<polygon fill="white" stroke="black" points="163,-0.5 163,-35.5 286,-35.5 286,-0.5 163,-0.5"/>
<text text-anchor="start" x="171" y="-25.1" font-family="Helvetica,sans-Serif" font-size="8.00">ipc::transport::sync</text>
<text text-anchor="start" x="171" y="-16.1" font-family="Helvetica,sans-Serif" font-size="8.00">_io::Native_socket_stream</text>
<text text-anchor="middle" x="224.5" y="-7.1" font-family="Helvetica,sans-Serif" font-size="8.00">::get_logger</text>
</a>
</g>
</g>
<!-- Node1&#45;&gt;Node5 -->
<g id="edge5" class="edge">
<title>Node1&#45;&gt;Node5</title>
<path fill="none" stroke="midnightblue" d="M123.37,-34.79C132.95,-33.19 142.93,-31.51 152.71,-29.87"/>
<polygon fill="midnightblue" stroke="midnightblue" points="153.53,-33.28 162.81,-28.18 152.37,-26.38 153.53,-33.28"/>
</g>
<!-- Node2&#45;&gt;Node2 -->
<g id="edge2" class="edge">
<title>Node2&#45;&gt;Node2</title>
<path fill="none" stroke="midnightblue" d="M195.38,-89.78C190.43,-99.31 200.14,-108 224.5,-108 239.35,-108 248.75,-104.77 252.71,-100.1"/>
<polygon fill="midnightblue" stroke="midnightblue" points="256.23,-100.05 253.62,-89.78 249.26,-99.44 256.23,-100.05"/>
</g>
<!-- Node3 -->
<g id="node3" class="node">
<title>Node3</title>
<g id="a_node3"><a xlink:href="classipc_1_1util_1_1Shared__name.html#af34db2934e116f8a4fdd403fd04695af" target="_top" xlink:title="Returns str().size().">
<polygon fill="white" stroke="black" points="344,-93 344,-119 454,-119 454,-93 344,-93"/>
<text text-anchor="start" x="352" y="-108.6" font-family="Helvetica,sans-Serif" font-size="8.00">ipc::util::Shared_name</text>
<text text-anchor="middle" x="399" y="-99.6" font-family="Helvetica,sans-Serif" font-size="8.00">::size</text>
</a>
</g>
</g>
<!-- Node2&#45;&gt;Node3 -->
<g id="edge3" class="edge">
<title>Node2&#45;&gt;Node3</title>
<path fill="none" stroke="midnightblue" d="M290.22,-84.76C304.46,-87.56 319.52,-90.53 333.74,-93.33"/>
<polygon fill="midnightblue" stroke="midnightblue" points="333.42,-96.84 343.91,-95.34 334.78,-89.97 333.42,-96.84"/>
</g>
<!-- Node4 -->
<g id="node4" class="node">
<title>Node4</title>
<g id="a_node4"><a xlink:href="classipc_1_1util_1_1Shared__name.html#ae89e1e061f87ffe0288514e254837595" target="_top" xlink:title="Returns (sans copying) ref to immutable entire wrapped name string, suitable to pass into sys calls w...">
<polygon fill="white" stroke="black" points="336,-56.5 336,-73.5 462,-73.5 462,-56.5 336,-56.5"/>
<text text-anchor="middle" x="399" y="-63.1" font-family="Helvetica,sans-Serif" font-size="8.00">ipc::util::Shared_name::str</text>
</a>
</g>
</g>
<!-- Node2&#45;&gt;Node4 -->
<g id="edge4" class="edge">
<title>Node2&#45;&gt;Node4</title>
<path fill="none" stroke="midnightblue" d="M290.22,-69.37C301.76,-68.91 313.84,-68.42 325.57,-67.94"/>
<polygon fill="midnightblue" stroke="midnightblue" points="325.92,-71.43 335.77,-67.53 325.64,-64.43 325.92,-71.43"/>
</g>
<!-- Node6 -->
<g id="node6" class="node">
<title>Node6</title>
<g id="a_node6"><a xlink:href="classipc_1_1transport_1_1sync__io_1_1Native__socket__stream.html#a8e3703d5c8bac62f828a372691249c85" target="_top" xlink:title="Helper that simply returns m_impl while guaranteeing that m_impl is non&#45;null upon return.">
<polygon fill="white" stroke="black" points="326,-5 326,-31 472,-31 472,-5 326,-5"/>
<text text-anchor="start" x="334" y="-20.6" font-family="Helvetica,sans-Serif" font-size="8.00">ipc::transport::sync</text>
<text text-anchor="middle" x="399" y="-11.6" font-family="Helvetica,sans-Serif" font-size="8.00">_io::Native_socket_stream::impl</text>
</a>
</g>
</g>
<!-- Node5&#45;&gt;Node6 -->
<g id="edge6" class="edge">
<title>Node5&#45;&gt;Node6</title>
<path fill="none" stroke="midnightblue" d="M286.32,-18C295.82,-18 305.78,-18 315.66,-18"/>
<polygon fill="midnightblue" stroke="midnightblue" points="315.92,-21.5 325.92,-18 315.92,-14.5 315.92,-21.5"/>
</g>
</g>
</svg>
