<?xml version="1.0" encoding="UTF-8" standalone="no"?>
<!DOCTYPE svg PUBLIC "-//W3C//DTD SVG 1.1//EN"
 "http://www.w3.org/Graphics/SVG/1.1/DTD/svg11.dtd">
<!-- Generated by graphviz version 2.43.0 (0)
 -->
<!-- Title: ipc::transport::sync_io::Blob_stream_mq_sender_impl::operator&lt;&lt; Pages: 1 -->
<svg width="310pt" height="98pt"
 viewBox="0.00 0.00 310.00 98.00" xmlns="http://www.w3.org/2000/svg" xmlns:xlink="http://www.w3.org/1999/xlink">
<g id="graph0" class="graph" transform="scale(1 1) rotate(0) translate(4 94)">
<title>ipc::transport::sync_io::Blob_stream_mq_sender_impl::operator&lt;&lt;</title>
<polygon fill="white" stroke="transparent" points="-4,4 -4,-94 306,-94 306,4 -4,4"/>
<!-- Node1 -->
<g id="node1" class="node">
<title>Node1</title>
<g id="a_node1"><a xlink:title="Prints string representation of the given Blob_stream_mq_sender to the given ostream.">
<polygon fill="#bfbfbf" stroke="black" points="0,-27.5 0,-62.5 133,-62.5 133,-27.5 0,-27.5"/>
<text text-anchor="start" x="8" y="-52.1" font-family="Helvetica,sans-Serif" font-size="8.00">ipc::transport::sync</text>
<text text-anchor="start" x="8" y="-43.1" font-family="Helvetica,sans-Serif" font-size="8.00">_io::Blob_stream_mq_sender</text>
<text text-anchor="middle" x="66.5" y="-34.1" font-family="Helvetica,sans-Serif" font-size="8.00">_impl::operator&lt;&lt;</text>
</a>
</g>
</g>
<!-- Node2 -->
<g id="node2" class="node">
<title>Node2</title>
<g id="a_node2"><a xlink:href="classipc_1_1transport_1_1sync__io_1_1Blob__stream__mq__sender__impl.html#a0763f3a2891a2a0e41f3ff15f06db7cc" target="_top" xlink:title="See Blob_stream_mq_sender counterpart, but assuming PEER state.">
<polygon fill="white" stroke="black" points="169,-54.5 169,-89.5 302,-89.5 302,-54.5 169,-54.5"/>
<text text-anchor="start" x="177" y="-79.1" font-family="Helvetica,sans-Serif" font-size="8.00">ipc::transport::sync</text>
<text text-anchor="start" x="177" y="-70.1" font-family="Helvetica,sans-Serif" font-size="8.00">_io::Blob_stream_mq_sender</text>
<text text-anchor="middle" x="235.5" y="-61.1" font-family="Helvetica,sans-Serif" font-size="8.00">_impl::absolute_name</text>
</a>
</g>
</g>
<!-- Node1&#45;&gt;Node2 -->
<g id="edge1" class="edge">
<title>Node1&#45;&gt;Node2</title>
<path fill="none" stroke="midnightblue" d="M133.02,-55.59C141.5,-56.96 150.23,-58.38 158.85,-59.77"/>
<polygon fill="midnightblue" stroke="midnightblue" points="158.46,-63.25 168.89,-61.39 159.58,-56.34 158.46,-63.25"/>
</g>
<!-- Node3 -->
<g id="node3" class="node">
<title>Node3</title>
<g id="a_node3"><a xlink:href="classipc_1_1transport_1_1sync__io_1_1Blob__stream__mq__sender__impl.html#ad30ee34fd91e68a084d207763e753f6d" target="_top" xlink:title="See Blob_stream_mq_sender counterpart, but assuming PEER state.">
<polygon fill="white" stroke="black" points="169,-0.5 169,-35.5 302,-35.5 302,-0.5 169,-0.5"/>
<text text-anchor="start" x="177" y="-25.1" font-family="Helvetica,sans-Serif" font-size="8.00">ipc::transport::sync</text>
<text text-anchor="start" x="177" y="-16.1" font-family="Helvetica,sans-Serif" font-size="8.00">_io::Blob_stream_mq_sender</text>
<text text-anchor="middle" x="235.5" y="-7.1" font-family="Helvetica,sans-Serif" font-size="8.00">_impl::nickname</text>
</a>
</g>
</g>
<!-- Node1&#45;&gt;Node3 -->
<g id="edge2" class="edge">
<title>Node1&#45;&gt;Node3</title>
<path fill="none" stroke="midnightblue" d="M133.02,-34.41C141.5,-33.04 150.23,-31.62 158.85,-30.23"/>
<polygon fill="midnightblue" stroke="midnightblue" points="159.58,-33.66 168.89,-28.61 158.46,-26.75 159.58,-33.66"/>
</g>
</g>
</svg>
