<?xml version="1.0" encoding="UTF-8" standalone="no"?>
<!DOCTYPE svg PUBLIC "-//W3C//DTD SVG 1.1//EN"
 "http://www.w3.org/Graphics/SVG/1.1/DTD/svg11.dtd">
<!-- Generated by graphviz version 2.43.0 (0)
 -->
<!-- Title: ipc::util::Shared_name::operator/= Pages: 1 -->
<svg width="426pt" height="53pt"
 viewBox="0.00 0.00 426.00 53.00" xmlns="http://www.w3.org/2000/svg" xmlns:xlink="http://www.w3.org/1999/xlink">
<g id="graph0" class="graph" transform="scale(1 1) rotate(0) translate(4 49)">
<title>ipc::util::Shared_name::operator/=</title>
<polygon fill="white" stroke="transparent" points="-4,4 -4,-49 422,-49 422,4 -4,4"/>
<!-- Node1 -->
<g id="node1" class="node">
<title>Node1</title>
<g id="a_node1"><a xlink:title="Simply appends a folder separator followed by raw_name_to_append to the current value of str().">
<polygon fill="#bfbfbf" stroke="black" points="0,-0.5 0,-26.5 110,-26.5 110,-0.5 0,-0.5"/>
<text text-anchor="start" x="8" y="-16.1" font-family="Helvetica,sans-Serif" font-size="8.00">ipc::util::Shared_name</text>
<text text-anchor="middle" x="55" y="-7.1" font-family="Helvetica,sans-Serif" font-size="8.00">::operator/=</text>
</a>
</g>
</g>
<!-- Node2 -->
<g id="node2" class="node">
<title>Node2</title>
<g id="a_node2"><a xlink:href="classipc_1_1util_1_1Shared__name.html#a1bcac1c10e01ba11dcc437b3c32bbe6c" target="_top" xlink:title="Appends the given other Shared_name.">
<polygon fill="white" stroke="black" points="146,-0.5 146,-26.5 256,-26.5 256,-0.5 146,-0.5"/>
<text text-anchor="start" x="154" y="-16.1" font-family="Helvetica,sans-Serif" font-size="8.00">ipc::util::Shared_name</text>
<text text-anchor="middle" x="201" y="-7.1" font-family="Helvetica,sans-Serif" font-size="8.00">::operator+=</text>
</a>
</g>
</g>
<!-- Node1&#45;&gt;Node2 -->
<g id="edge1" class="edge">
<title>Node1&#45;&gt;Node2</title>
<path fill="none" stroke="midnightblue" d="M110.03,-13.5C118.31,-13.5 126.94,-13.5 135.42,-13.5"/>
<polygon fill="midnightblue" stroke="midnightblue" points="135.67,-17 145.67,-13.5 135.67,-10 135.67,-17"/>
</g>
<!-- Node2&#45;&gt;Node2 -->
<g id="edge2" class="edge">
<title>Node2&#45;&gt;Node2</title>
<path fill="none" stroke="midnightblue" d="M176.3,-26.77C168.81,-35.96 177.05,-45 201,-45 215.6,-45 224.36,-41.64 227.28,-36.94"/>
<polygon fill="midnightblue" stroke="midnightblue" points="230.69,-36.12 225.7,-26.77 223.77,-37.19 230.69,-36.12"/>
</g>
<!-- Node3 -->
<g id="node3" class="node">
<title>Node3</title>
<g id="a_node3"><a xlink:href="classipc_1_1util_1_1Shared__name.html#ae89e1e061f87ffe0288514e254837595" target="_top" xlink:title="Returns (sans copying) ref to immutable entire wrapped name string, suitable to pass into sys calls w...">
<polygon fill="white" stroke="black" points="292,-5 292,-22 418,-22 418,-5 292,-5"/>
<text text-anchor="middle" x="355" y="-11.6" font-family="Helvetica,sans-Serif" font-size="8.00">ipc::util::Shared_name::str</text>
</a>
</g>
</g>
<!-- Node2&#45;&gt;Node3 -->
<g id="edge3" class="edge">
<title>Node2&#45;&gt;Node3</title>
<path fill="none" stroke="midnightblue" d="M256.02,-13.5C264.36,-13.5 273.09,-13.5 281.75,-13.5"/>
<polygon fill="midnightblue" stroke="midnightblue" points="281.86,-17 291.86,-13.5 281.86,-10 281.86,-17"/>
</g>
</g>
</svg>
