<?xml version="1.0" encoding="UTF-8" standalone="no"?>
<!DOCTYPE svg PUBLIC "-//W3C//DTD SVG 1.1//EN"
 "http://www.w3.org/Graphics/SVG/1.1/DTD/svg11.dtd">
<!-- Generated by graphviz version 2.43.0 (0)
 -->
<!-- Title: ipc::session::sync_io::Session_adapter&lt; Session &gt; Pages: 1 -->
<svg width="249pt" height="98pt"
 viewBox="0.00 0.00 249.00 98.00" xmlns="http://www.w3.org/2000/svg" xmlns:xlink="http://www.w3.org/1999/xlink">
<g id="graph0" class="graph" transform="scale(1 1) rotate(0) translate(4 94)">
<title>ipc::session::sync_io::Session_adapter&lt; Session &gt;</title>
<polygon fill="white" stroke="transparent" points="-4,4 -4,-94 245,-94 245,4 -4,4"/>
<!-- Node1 -->
<g id="node1" class="node">
<title>Node1</title>
<g id="a_node1"><a xlink:title="Internal&#45;use workhorse containing common elements of Client_session_adapter and Server_session_adapte...">
<polygon fill="#bfbfbf" stroke="black" points="0,-27.5 0,-62.5 102,-62.5 102,-27.5 0,-27.5"/>
<text text-anchor="start" x="8" y="-52.1" font-family="Helvetica,sans-Serif" font-size="8.00">ipc::session::sync</text>
<text text-anchor="start" x="8" y="-43.1" font-family="Helvetica,sans-Serif" font-size="8.00">_io::Session_adapter</text>
<text text-anchor="middle" x="51" y="-34.1" font-family="Helvetica,sans-Serif" font-size="8.00">&lt; Session &gt;</text>
</a>
</g>
</g>
<!-- Node2 -->
<g id="node2" class="node">
<title>Node2</title>
<g id="a_node2"><a xlink:href="classipc_1_1session_1_1sync__io_1_1Client__session__adapter.html" target="_top" xlink:title="sync_io&#45;pattern counterpart to async&#45;I/O&#45;pattern session::Client_session types and all their SHM&#45;awar...">
<polygon fill="white" stroke="black" points="138,-54.5 138,-89.5 241,-89.5 241,-54.5 138,-54.5"/>
<text text-anchor="start" x="146" y="-79.1" font-family="Helvetica,sans-Serif" font-size="8.00">ipc::session::sync</text>
<text text-anchor="start" x="146" y="-70.1" font-family="Helvetica,sans-Serif" font-size="8.00">_io::Client_session</text>
<text text-anchor="middle" x="189.5" y="-61.1" font-family="Helvetica,sans-Serif" font-size="8.00">_adapter&lt; Session &gt;</text>
</a>
</g>
</g>
<!-- Node1&#45;&gt;Node2 -->
<g id="edge1" class="edge">
<title>Node1&#45;&gt;Node2</title>
<path fill="none" stroke="#8b1a1a" d="M112.09,-56.89C120.74,-58.6 129.56,-60.34 138,-62.01"/>
<polygon fill="#8b1a1a" stroke="#8b1a1a" points="112.54,-53.41 102.05,-54.9 111.18,-60.27 112.54,-53.41"/>
</g>
<!-- Node3 -->
<g id="node3" class="node">
<title>Node3</title>
<g id="a_node3"><a xlink:href="classipc_1_1session_1_1sync__io_1_1Server__session__adapter.html" target="_top" xlink:title="sync_io&#45;pattern counterpart to async&#45;I/O&#45;pattern session::Server_session types and all their SHM&#45;awar...">
<polygon fill="white" stroke="black" points="138,-0.5 138,-35.5 241,-35.5 241,-0.5 138,-0.5"/>
<text text-anchor="start" x="146" y="-25.1" font-family="Helvetica,sans-Serif" font-size="8.00">ipc::session::sync</text>
<text text-anchor="start" x="146" y="-16.1" font-family="Helvetica,sans-Serif" font-size="8.00">_io::Server_session</text>
<text text-anchor="middle" x="189.5" y="-7.1" font-family="Helvetica,sans-Serif" font-size="8.00">_adapter&lt; Session &gt;</text>
</a>
</g>
</g>
<!-- Node1&#45;&gt;Node3 -->
<g id="edge2" class="edge">
<title>Node1&#45;&gt;Node3</title>
<path fill="none" stroke="#8b1a1a" d="M112.09,-33.11C120.74,-31.4 129.56,-29.66 138,-27.99"/>
<polygon fill="#8b1a1a" stroke="#8b1a1a" points="111.18,-29.73 102.05,-35.1 112.54,-36.59 111.18,-29.73"/>
</g>
</g>
</svg>
