<?xml version="1.0" encoding="UTF-8" standalone="no"?>
<!DOCTYPE svg PUBLIC "-//W3C//DTD SVG 1.1//EN"
 "http://www.w3.org/Graphics/SVG/1.1/DTD/svg11.dtd">
<!-- Generated by graphviz version 2.43.0 (0)
 -->
<!-- Title: ipc::transport::Native_socket_stream::send_blob_max_size Pages: 1 -->
<svg width="276pt" height="44pt"
 viewBox="0.00 0.00 276.00 44.00" xmlns="http://www.w3.org/2000/svg" xmlns:xlink="http://www.w3.org/1999/xlink">
<g id="graph0" class="graph" transform="scale(1 1) rotate(0) translate(4 40)">
<title>ipc::transport::Native_socket_stream::send_blob_max_size</title>
<polygon fill="white" stroke="transparent" points="-4,4 -4,-40 272,-40 272,4 -4,4"/>
<!-- Node1 -->
<g id="node1" class="node">
<title>Node1</title>
<g id="a_node1"><a xlink:title="Implements Blob_sender API per contract.">
<polygon fill="#bfbfbf" stroke="black" points="0,-0.5 0,-35.5 128,-35.5 128,-0.5 0,-0.5"/>
<text text-anchor="start" x="8" y="-25.1" font-family="Helvetica,sans-Serif" font-size="8.00">ipc::transport::Native</text>
<text text-anchor="start" x="8" y="-16.1" font-family="Helvetica,sans-Serif" font-size="8.00">_socket_stream::send_blob</text>
<text text-anchor="middle" x="64" y="-7.1" font-family="Helvetica,sans-Serif" font-size="8.00">_max_size</text>
</a>
</g>
</g>
<!-- Node2 -->
<g id="node2" class="node">
<title>Node2</title>
<g id="a_node2"><a xlink:href="classipc_1_1transport_1_1Native__socket__stream.html#a0d0416ffe729877dad845e88c3609974" target="_top" xlink:title="Helper that simply returns m_impl while guaranteeing that m_impl is non&#45;null upon return.">
<polygon fill="white" stroke="black" points="164,-5 164,-31 268,-31 268,-5 164,-5"/>
<text text-anchor="start" x="172" y="-20.6" font-family="Helvetica,sans-Serif" font-size="8.00">ipc::transport::Native</text>
<text text-anchor="middle" x="216" y="-11.6" font-family="Helvetica,sans-Serif" font-size="8.00">_socket_stream::impl</text>
</a>
</g>
</g>
<!-- Node1&#45;&gt;Node2 -->
<g id="edge1" class="edge">
<title>Node1&#45;&gt;Node2</title>
<path fill="none" stroke="midnightblue" d="M128.18,-18C136.6,-18 145.23,-18 153.62,-18"/>
<polygon fill="midnightblue" stroke="midnightblue" points="153.72,-21.5 163.72,-18 153.72,-14.5 153.72,-21.5"/>
</g>
</g>
</svg>
