<?xml version="1.0" encoding="UTF-8" standalone="no"?>
<!DOCTYPE svg PUBLIC "-//W3C//DTD SVG 1.1//EN"
 "http://www.w3.org/Graphics/SVG/1.1/DTD/svg11.dtd">
<!-- Generated by graphviz version 2.43.0 (0)
 -->
<!-- Title: ipc::transport::Native_socket_stream_acceptor::on_next_peer_socket_or_error Pages: 1 -->
<svg width="339pt" height="62pt"
 viewBox="0.00 0.00 339.00 62.00" xmlns="http://www.w3.org/2000/svg" xmlns:xlink="http://www.w3.org/1999/xlink">
<g id="graph0" class="graph" transform="scale(1 1) rotate(0) translate(4 58)">
<title>ipc::transport::Native_socket_stream_acceptor::on_next_peer_socket_or_error</title>
<polygon fill="white" stroke="transparent" points="-4,4 -4,-58 335,-58 335,4 -4,4"/>
<!-- Node1 -->
<g id="node1" class="node">
<title>Node1</title>
<g id="a_node1"><a xlink:title="Handler for incoming connection on m_acceptor.">
<polygon fill="#bfbfbf" stroke="black" points="188,-0.5 188,-35.5 331,-35.5 331,-0.5 188,-0.5"/>
<text text-anchor="start" x="196" y="-25.1" font-family="Helvetica,sans-Serif" font-size="8.00">ipc::transport::Native</text>
<text text-anchor="start" x="196" y="-16.1" font-family="Helvetica,sans-Serif" font-size="8.00">_socket_stream_acceptor</text>
<text text-anchor="middle" x="259.5" y="-7.1" font-family="Helvetica,sans-Serif" font-size="8.00">::on_next_peer_socket_or_error</text>
</a>
</g>
</g>
<!-- Node1&#45;&gt;Node1 -->
<g id="edge2" class="edge">
<title>Node1&#45;&gt;Node1</title>
<path fill="none" stroke="midnightblue" d="M291.2,-46.1C286.74,-50.77 276.18,-54 259.5,-54 232.13,-54 221.22,-45.31 226.78,-35.78"/>
<polygon fill="midnightblue" stroke="midnightblue" points="294.71,-46.08 292.22,-35.78 287.75,-45.39 294.71,-46.08"/>
</g>
<!-- Node2 -->
<g id="node2" class="node">
<title>Node2</title>
<g id="a_node2"><a xlink:href="classipc_1_1transport_1_1Native__socket__stream__acceptor.html#a77795acb028a95a4804f9b3ef18d99b0" target="_top" xlink:title="Creates the Native_socket_stream_acceptor and immediately begins listening in the background,...">
<polygon fill="white" stroke="black" points="0,-0.5 0,-35.5 152,-35.5 152,-0.5 0,-0.5"/>
<text text-anchor="start" x="8" y="-25.1" font-family="Helvetica,sans-Serif" font-size="8.00">ipc::transport::Native</text>
<text text-anchor="start" x="8" y="-16.1" font-family="Helvetica,sans-Serif" font-size="8.00">_socket_stream_acceptor</text>
<text text-anchor="middle" x="76" y="-7.1" font-family="Helvetica,sans-Serif" font-size="8.00">::Native_socket_stream_acceptor</text>
</a>
</g>
</g>
<!-- Node1&#45;&gt;Node2 -->
<g id="edge1" class="edge">
<title>Node1&#45;&gt;Node2</title>
<path fill="none" stroke="midnightblue" d="M177.61,-18C169.19,-18 160.66,-18 152.3,-18"/>
<polygon fill="midnightblue" stroke="midnightblue" points="177.81,-21.5 187.81,-18 177.81,-14.5 177.81,-21.5"/>
</g>
</g>
</svg>
