<?xml version="1.0" encoding="UTF-8" standalone="no"?>
<!DOCTYPE svg PUBLIC "-//W3C//DTD SVG 1.1//EN"
 "http://www.w3.org/Graphics/SVG/1.1/DTD/svg11.dtd">
<!-- Generated by graphviz version 2.43.0 (0)
 -->
<!-- Title: ipc::transport::Bipc_mq_handle::wait_receivable Pages: 1 -->
<svg width="280pt" height="53pt"
 viewBox="0.00 0.00 280.00 53.00" xmlns="http://www.w3.org/2000/svg" xmlns:xlink="http://www.w3.org/1999/xlink">
<g id="graph0" class="graph" transform="scale(1 1) rotate(0) translate(4 49)">
<title>ipc::transport::Bipc_mq_handle::wait_receivable</title>
<polygon fill="white" stroke="transparent" points="-4,4 -4,-49 276,-49 276,4 -4,4"/>
<!-- Node1 -->
<g id="node1" class="node">
<title>Node1</title>
<g id="a_node1"><a xlink:title="Implements Persistent_mq_handle API: Like receive() but without the actual popping of a message.">
<polygon fill="#bfbfbf" stroke="black" points="137,-0.5 137,-26.5 272,-26.5 272,-0.5 137,-0.5"/>
<text text-anchor="start" x="145" y="-16.1" font-family="Helvetica,sans-Serif" font-size="8.00">ipc::transport::Bipc</text>
<text text-anchor="middle" x="204.5" y="-7.1" font-family="Helvetica,sans-Serif" font-size="8.00">_mq_handle::wait_receivable</text>
</a>
</g>
</g>
<!-- Node2 -->
<g id="node2" class="node">
<title>Node2</title>
<g id="a_node2"><a xlink:href="classipc_1_1transport_1_1Bipc__mq__handle.html#a9d1aaf82f6396f4d975a77a70433698d" target="_top" xlink:title="Implements Persistent_mq_handle API: Blocking receive: pops copy of message from queue into buffer; i...">
<polygon fill="white" stroke="black" points="0,-0.5 0,-26.5 101,-26.5 101,-0.5 0,-0.5"/>
<text text-anchor="start" x="8" y="-16.1" font-family="Helvetica,sans-Serif" font-size="8.00">ipc::transport::Bipc</text>
<text text-anchor="middle" x="50.5" y="-7.1" font-family="Helvetica,sans-Serif" font-size="8.00">_mq_handle::receive</text>
</a>
</g>
</g>
<!-- Node1&#45;&gt;Node2 -->
<g id="edge1" class="edge">
<title>Node1&#45;&gt;Node2</title>
<path fill="none" stroke="midnightblue" d="M126.69,-13.5C118.03,-13.5 109.39,-13.5 101.21,-13.5"/>
<polygon fill="midnightblue" stroke="midnightblue" points="126.83,-17 136.83,-13.5 126.83,-10 126.83,-17"/>
</g>
<!-- Node2&#45;&gt;Node2 -->
<g id="edge2" class="edge">
<title>Node2&#45;&gt;Node2</title>
<path fill="none" stroke="midnightblue" d="M78.22,-36.94C75.14,-41.64 65.9,-45 50.5,-45 25.23,-45 16.55,-35.96 24.44,-26.77"/>
<polygon fill="midnightblue" stroke="midnightblue" points="81.62,-36.07 76.56,-26.77 74.71,-37.2 81.62,-36.07"/>
</g>
</g>
</svg>
