<?xml version="1.0" encoding="UTF-8" standalone="no"?>
<!DOCTYPE svg PUBLIC "-//W3C//DTD SVG 1.1//EN"
 "http://www.w3.org/Graphics/SVG/1.1/DTD/svg11.dtd">
<!-- Generated by graphviz version 2.43.0 (0)
 -->
<!-- Title: ipc::session::shm::classic::Server_session_impl::async_accept_log_in Pages: 1 -->
<svg width="592pt" height="145pt"
 viewBox="0.00 0.00 592.00 144.50" xmlns="http://www.w3.org/2000/svg" xmlns:xlink="http://www.w3.org/1999/xlink">
<g id="graph0" class="graph" transform="scale(1 1) rotate(0) translate(4 140.5)">
<title>ipc::session::shm::classic::Server_session_impl::async_accept_log_in</title>
<polygon fill="white" stroke="transparent" points="-4,4 -4,-140.5 588,-140.5 588,4 -4,4"/>
<!-- Node1 -->
<g id="node1" class="node">
<title>Node1</title>
<g id="a_node1"><a xlink:title="For use by internal user Session_server: See Server_session_mv counterpart.">
<polygon fill="#bfbfbf" stroke="black" points="0,-37 0,-72 127,-72 127,-37 0,-37"/>
<text text-anchor="start" x="8" y="-61.6" font-family="Helvetica,sans-Serif" font-size="8.00">ipc::session::shm::</text>
<text text-anchor="start" x="8" y="-52.6" font-family="Helvetica,sans-Serif" font-size="8.00">classic::Server_session</text>
<text text-anchor="middle" x="63.5" y="-43.6" font-family="Helvetica,sans-Serif" font-size="8.00">_impl::async_accept_log_in</text>
</a>
</g>
</g>
<!-- Node2 -->
<g id="node2" class="node">
<title>Node2</title>
<g id="a_node2"><a xlink:href="namespaceipc_1_1session.html#a365d2d63f77b738e67e206af6b702634" target="_top" xlink:title="Builds an absolute name according to the path convention explained in Shared_name class doc header; t...">
<polygon fill="white" stroke="black" points="163,-82.5 163,-108.5 296,-108.5 296,-82.5 163,-82.5"/>
<text text-anchor="start" x="171" y="-98.1" font-family="Helvetica,sans-Serif" font-size="8.00">ipc::session::build</text>
<text text-anchor="middle" x="229.5" y="-89.1" font-family="Helvetica,sans-Serif" font-size="8.00">_conventional_shared_name</text>
</a>
</g>
</g>
<!-- Node1&#45;&gt;Node2 -->
<g id="edge1" class="edge">
<title>Node1&#45;&gt;Node2</title>
<path fill="none" stroke="midnightblue" d="M127.44,-70.23C140.2,-73.42 153.61,-76.78 166.34,-79.96"/>
<polygon fill="midnightblue" stroke="midnightblue" points="165.83,-83.44 176.38,-82.47 167.52,-76.65 165.83,-83.44"/>
</g>
<!-- Node5 -->
<g id="node5" class="node">
<title>Node5</title>
<g id="a_node5"><a xlink:href="classipc_1_1util_1_1Shared__name.html#a48f20b7b54490aa10dc64081d34c55b2" target="_top" xlink:title="Copy&#45;constructs from a char&#45;sequence container (including string, util::String_view,...">
<polygon fill="white" stroke="black" points="168,-46 168,-63 291,-63 291,-46 168,-46"/>
<text text-anchor="middle" x="229.5" y="-52.6" font-family="Helvetica,sans-Serif" font-size="8.00">ipc::util::Shared_name::ct</text>
</a>
</g>
</g>
<!-- Node1&#45;&gt;Node5 -->
<g id="edge5" class="edge">
<title>Node1&#45;&gt;Node5</title>
<path fill="none" stroke="midnightblue" d="M127.44,-54.5C137.4,-54.5 147.75,-54.5 157.87,-54.5"/>
<polygon fill="midnightblue" stroke="midnightblue" points="157.89,-58 167.89,-54.5 157.89,-51 157.89,-58"/>
</g>
<!-- Node6 -->
<g id="node6" class="node">
<title>Node6</title>
<g id="a_node6"><a xlink:href="namespaceipc_1_1util.html#abda2ce5bcdbc26ca63d667b87818439c" target="_top" xlink:title="Maps general Permissions_level specifier to low&#45;level Permissions value, when the underlying resource...">
<polygon fill="white" stroke="black" points="168.5,-0.5 168.5,-26.5 290.5,-26.5 290.5,-0.5 168.5,-0.5"/>
<text text-anchor="start" x="176.5" y="-16.1" font-family="Helvetica,sans-Serif" font-size="8.00">ipc::util::shared_resource</text>
<text text-anchor="middle" x="229.5" y="-7.1" font-family="Helvetica,sans-Serif" font-size="8.00">_permissions</text>
</a>
</g>
</g>
<!-- Node1&#45;&gt;Node6 -->
<g id="edge6" class="edge">
<title>Node1&#45;&gt;Node6</title>
<path fill="none" stroke="midnightblue" d="M127.44,-38.77C140.2,-35.58 153.61,-32.22 166.34,-29.04"/>
<polygon fill="midnightblue" stroke="midnightblue" points="167.52,-32.35 176.38,-26.53 165.83,-25.56 167.52,-32.35"/>
</g>
<!-- Node3 -->
<g id="node3" class="node">
<title>Node3</title>
<g id="a_node3"><a xlink:href="namespaceipc_1_1session.html#a5216d618bb573e68276d2933ce3f4010" target="_top" xlink:title="Return the prefix common to all calls to either build_conventional_shared_name() overload with the ar...">
<polygon fill="white" stroke="black" points="332,-101 332,-136 438,-136 438,-101 332,-101"/>
<text text-anchor="start" x="340" y="-125.6" font-family="Helvetica,sans-Serif" font-size="8.00">ipc::session::build</text>
<text text-anchor="start" x="340" y="-116.6" font-family="Helvetica,sans-Serif" font-size="8.00">_conventional_shared</text>
<text text-anchor="middle" x="385" y="-107.6" font-family="Helvetica,sans-Serif" font-size="8.00">_name_prefix</text>
</a>
</g>
</g>
<!-- Node2&#45;&gt;Node3 -->
<g id="edge2" class="edge">
<title>Node2&#45;&gt;Node3</title>
<path fill="none" stroke="midnightblue" d="M296.04,-105.32C304.5,-106.59 313.14,-107.88 321.55,-109.14"/>
<polygon fill="midnightblue" stroke="midnightblue" points="321.25,-112.64 331.66,-110.66 322.29,-105.71 321.25,-112.64"/>
</g>
<!-- Node4 -->
<g id="node4" class="node">
<title>Node4</title>
<g id="a_node4"><a xlink:href="classipc_1_1util_1_1Shared__name.html#a861ea6c9ad6672e83bab5c7747b66f7b" target="_top" xlink:title="Returns true if and only if str().empty() == true.">
<polygon fill="white" stroke="black" points="474,-82.5 474,-108.5 584,-108.5 584,-82.5 474,-82.5"/>
<text text-anchor="start" x="482" y="-98.1" font-family="Helvetica,sans-Serif" font-size="8.00">ipc::util::Shared_name</text>
<text text-anchor="middle" x="529" y="-89.1" font-family="Helvetica,sans-Serif" font-size="8.00">::empty</text>
</a>
</g>
</g>
<!-- Node2&#45;&gt;Node4 -->
<g id="edge4" class="edge">
<title>Node2&#45;&gt;Node4</title>
<path fill="none" stroke="midnightblue" d="M296.01,-92.54C307.98,-92.11 320.36,-91.73 332,-91.5 379.1,-90.57 390.9,-90.45 438,-91.5 446.32,-91.68 455.06,-91.97 463.7,-92.29"/>
<polygon fill="midnightblue" stroke="midnightblue" points="463.63,-95.79 473.76,-92.7 463.91,-88.8 463.63,-95.79"/>
</g>
<!-- Node3&#45;&gt;Node4 -->
<g id="edge3" class="edge">
<title>Node3&#45;&gt;Node4</title>
<path fill="none" stroke="midnightblue" d="M438.07,-110.07C446.38,-108.72 455.05,-107.32 463.6,-105.93"/>
<polygon fill="midnightblue" stroke="midnightblue" points="464.24,-109.37 473.55,-104.32 463.12,-102.46 464.24,-109.37"/>
</g>
</g>
</svg>
