<?xml version="1.0" encoding="UTF-8" standalone="no"?>
<!DOCTYPE svg PUBLIC "-//W3C//DTD SVG 1.1//EN"
 "http://www.w3.org/Graphics/SVG/1.1/DTD/svg11.dtd">
<!-- Generated by graphviz version 2.43.0 (0)
 -->
<!-- Title: ipc::session::Session_base::session_master_socket_stream_acceptor_absolute_name Pages: 1 -->
<svg width="584pt" height="99pt"
 viewBox="0.00 0.00 584.00 99.00" xmlns="http://www.w3.org/2000/svg" xmlns:xlink="http://www.w3.org/1999/xlink">
<g id="graph0" class="graph" transform="scale(1 1) rotate(0) translate(4 95)">
<title>ipc::session::Session_base::session_master_socket_stream_acceptor_absolute_name</title>
<polygon fill="white" stroke="transparent" points="-4,4 -4,-95 580,-95 580,4 -4,4"/>
<!-- Node1 -->
<g id="node1" class="node">
<title>Node1</title>
<g id="a_node1"><a xlink:title="Computes the absolute name at which the server shall set up a transport::Native_socket_stream_accepto...">
<polygon fill="#bfbfbf" stroke="black" points="0,-7 0,-51 119,-51 119,-7 0,-7"/>
<text text-anchor="start" x="8" y="-40.6" font-family="Helvetica,sans-Serif" font-size="8.00">ipc::session::Session</text>
<text text-anchor="start" x="8" y="-31.6" font-family="Helvetica,sans-Serif" font-size="8.00">_base::session_master</text>
<text text-anchor="start" x="8" y="-22.6" font-family="Helvetica,sans-Serif" font-size="8.00">_socket_stream_acceptor</text>
<text text-anchor="middle" x="59.5" y="-13.6" font-family="Helvetica,sans-Serif" font-size="8.00">_absolute_name</text>
</a>
</g>
</g>
<!-- Node2 -->
<g id="node2" class="node">
<title>Node2</title>
<g id="a_node2"><a xlink:href="namespaceipc_1_1session.html#a365d2d63f77b738e67e206af6b702634" target="_top" xlink:title="Builds an absolute name according to the path convention explained in Shared_name class doc header; t...">
<polygon fill="white" stroke="black" points="155,-37 155,-63 288,-63 288,-37 155,-37"/>
<text text-anchor="start" x="163" y="-52.6" font-family="Helvetica,sans-Serif" font-size="8.00">ipc::session::build</text>
<text text-anchor="middle" x="221.5" y="-43.6" font-family="Helvetica,sans-Serif" font-size="8.00">_conventional_shared_name</text>
</a>
</g>
</g>
<!-- Node1&#45;&gt;Node2 -->
<g id="edge1" class="edge">
<title>Node1&#45;&gt;Node2</title>
<path fill="none" stroke="midnightblue" d="M119.17,-36.7C127.5,-37.79 136.17,-38.93 144.77,-40.06"/>
<polygon fill="midnightblue" stroke="midnightblue" points="144.44,-43.55 154.81,-41.38 145.35,-36.61 144.44,-43.55"/>
</g>
<!-- Node5 -->
<g id="node5" class="node">
<title>Node5</title>
<g id="a_node5"><a xlink:href="classipc_1_1util_1_1Shared__name.html#a48f20b7b54490aa10dc64081d34c55b2" target="_top" xlink:title="Copy&#45;constructs from a char&#45;sequence container (including string, util::String_view,...">
<polygon fill="white" stroke="black" points="160,-0.5 160,-17.5 283,-17.5 283,-0.5 160,-0.5"/>
<text text-anchor="middle" x="221.5" y="-7.1" font-family="Helvetica,sans-Serif" font-size="8.00">ipc::util::Shared_name::ct</text>
</a>
</g>
</g>
<!-- Node1&#45;&gt;Node5 -->
<g id="edge5" class="edge">
<title>Node1&#45;&gt;Node5</title>
<path fill="none" stroke="midnightblue" d="M119.17,-21.67C129.14,-20.42 139.58,-19.12 149.82,-17.84"/>
<polygon fill="midnightblue" stroke="midnightblue" points="150.47,-21.28 159.96,-16.57 149.6,-14.34 150.47,-21.28"/>
</g>
<!-- Node3 -->
<g id="node3" class="node">
<title>Node3</title>
<g id="a_node3"><a xlink:href="namespaceipc_1_1session.html#a5216d618bb573e68276d2933ce3f4010" target="_top" xlink:title="Return the prefix common to all calls to either build_conventional_shared_name() overload with the ar...">
<polygon fill="white" stroke="black" points="324,-55.5 324,-90.5 430,-90.5 430,-55.5 324,-55.5"/>
<text text-anchor="start" x="332" y="-80.1" font-family="Helvetica,sans-Serif" font-size="8.00">ipc::session::build</text>
<text text-anchor="start" x="332" y="-71.1" font-family="Helvetica,sans-Serif" font-size="8.00">_conventional_shared</text>
<text text-anchor="middle" x="377" y="-62.1" font-family="Helvetica,sans-Serif" font-size="8.00">_name_prefix</text>
</a>
</g>
</g>
<!-- Node2&#45;&gt;Node3 -->
<g id="edge2" class="edge">
<title>Node2&#45;&gt;Node3</title>
<path fill="none" stroke="midnightblue" d="M288.04,-59.82C296.5,-61.09 305.14,-62.38 313.55,-63.64"/>
<polygon fill="midnightblue" stroke="midnightblue" points="313.25,-67.14 323.66,-65.16 314.29,-60.21 313.25,-67.14"/>
</g>
<!-- Node4 -->
<g id="node4" class="node">
<title>Node4</title>
<g id="a_node4"><a xlink:href="classipc_1_1util_1_1Shared__name.html#a861ea6c9ad6672e83bab5c7747b66f7b" target="_top" xlink:title="Returns true if and only if str().empty() == true.">
<polygon fill="white" stroke="black" points="466,-37 466,-63 576,-63 576,-37 466,-37"/>
<text text-anchor="start" x="474" y="-52.6" font-family="Helvetica,sans-Serif" font-size="8.00">ipc::util::Shared_name</text>
<text text-anchor="middle" x="521" y="-43.6" font-family="Helvetica,sans-Serif" font-size="8.00">::empty</text>
</a>
</g>
</g>
<!-- Node2&#45;&gt;Node4 -->
<g id="edge4" class="edge">
<title>Node2&#45;&gt;Node4</title>
<path fill="none" stroke="midnightblue" d="M288.01,-47.04C299.98,-46.61 312.36,-46.23 324,-46 371.1,-45.07 382.9,-44.95 430,-46 438.32,-46.18 447.06,-46.47 455.7,-46.79"/>
<polygon fill="midnightblue" stroke="midnightblue" points="455.63,-50.29 465.76,-47.2 455.91,-43.3 455.63,-50.29"/>
</g>
<!-- Node3&#45;&gt;Node4 -->
<g id="edge3" class="edge">
<title>Node3&#45;&gt;Node4</title>
<path fill="none" stroke="midnightblue" d="M430.07,-64.57C438.38,-63.22 447.05,-61.82 455.6,-60.43"/>
<polygon fill="midnightblue" stroke="midnightblue" points="456.24,-63.87 465.55,-58.82 455.12,-56.96 456.24,-63.87"/>
</g>
</g>
</svg>
