<?xml version="1.0" encoding="UTF-8" standalone="no"?>
<!DOCTYPE svg PUBLIC "-//W3C//DTD SVG 1.1//EN"
 "http://www.w3.org/Graphics/SVG/1.1/DTD/svg11.dtd">
<!-- Generated by graphviz version 2.43.0 (0)
 -->
<!-- Title: ipc::session::Session_base::Graceful_finisher::Graceful_finisher Pages: 1 -->
<svg width="270pt" height="125pt"
 viewBox="0.00 0.00 270.00 125.00" xmlns="http://www.w3.org/2000/svg" xmlns:xlink="http://www.w3.org/1999/xlink">
<g id="graph0" class="graph" transform="scale(1 1) rotate(0) translate(4 121)">
<title>ipc::session::Session_base::Graceful_finisher::Graceful_finisher</title>
<polygon fill="white" stroke="transparent" points="-4,4 -4,-121 266,-121 266,4 -4,4"/>
<!-- Node1 -->
<g id="node1" class="node">
<title>Node1</title>
<g id="a_node1"><a xlink:title="You must invoke this ctor (instantiate us) if and only if synchronized dtor execution is indeed requi...">
<polygon fill="#bfbfbf" stroke="black" points="0,-41 0,-76 116,-76 116,-41 0,-41"/>
<text text-anchor="start" x="8" y="-65.6" font-family="Helvetica,sans-Serif" font-size="8.00">ipc::session::Session</text>
<text text-anchor="start" x="8" y="-56.6" font-family="Helvetica,sans-Serif" font-size="8.00">_base::Graceful_finisher</text>
<text text-anchor="middle" x="58" y="-47.6" font-family="Helvetica,sans-Serif" font-size="8.00">::Graceful_finisher</text>
</a>
</g>
</g>
<!-- Node2 -->
<g id="node2" class="node">
<title>Node2</title>
<g id="a_node2"><a xlink:href="classipc_1_1transport_1_1struc_1_1Channel.html#a160a8d49624f15a2596ee7b0244584b0" target="_top" xlink:title="Registers the expectation of up to 1 notification in&#45;message whose Msg_which equals which.">
<polygon fill="white" stroke="black" points="152,-90.5 152,-116.5 262,-116.5 262,-90.5 152,-90.5"/>
<text text-anchor="start" x="160" y="-106.1" font-family="Helvetica,sans-Serif" font-size="8.00">ipc::transport::struc</text>
<text text-anchor="middle" x="207" y="-97.1" font-family="Helvetica,sans-Serif" font-size="8.00">::Channel::expect_msg</text>
</a>
</g>
</g>
<!-- Node1&#45;&gt;Node2 -->
<g id="edge1" class="edge">
<title>Node1&#45;&gt;Node2</title>
<path fill="none" stroke="midnightblue" d="M116.25,-76.03C128.47,-79.77 141.32,-83.7 153.36,-87.38"/>
<polygon fill="midnightblue" stroke="midnightblue" points="152.66,-90.83 163.24,-90.41 154.71,-84.14 152.66,-90.83"/>
</g>
<!-- Node3 -->
<g id="node3" class="node">
<title>Node3</title>
<g id="a_node3"><a xlink:href="classipc_1_1session_1_1Session__base.html#a7f9e67dccbab4f3191734c2834bafb63" target="_top" xlink:title="Marks this session as hosed for (truthy) reason err_code; and synchronously invokes on&#45;error handler;...">
<polygon fill="white" stroke="black" points="155,-45.5 155,-71.5 259,-71.5 259,-45.5 155,-45.5"/>
<text text-anchor="start" x="163" y="-61.1" font-family="Helvetica,sans-Serif" font-size="8.00">ipc::session::Session</text>
<text text-anchor="middle" x="207" y="-52.1" font-family="Helvetica,sans-Serif" font-size="8.00">_base::hose</text>
</a>
</g>
</g>
<!-- Node1&#45;&gt;Node3 -->
<g id="edge2" class="edge">
<title>Node1&#45;&gt;Node3</title>
<path fill="none" stroke="midnightblue" d="M116.25,-58.5C125.61,-58.5 135.33,-58.5 144.78,-58.5"/>
<polygon fill="midnightblue" stroke="midnightblue" points="144.89,-62 154.89,-58.5 144.89,-55 144.89,-62"/>
</g>
<!-- Node4 -->
<g id="node4" class="node">
<title>Node4</title>
<g id="a_node4"><a xlink:href="classipc_1_1session_1_1Session__base.html#a398f3e6a30b3fae8e110af9fd1ff75e3" target="_top" xlink:title="Returns true if and only if hose() has been called.">
<polygon fill="white" stroke="black" points="155,-0.5 155,-26.5 259,-26.5 259,-0.5 155,-0.5"/>
<text text-anchor="start" x="163" y="-16.1" font-family="Helvetica,sans-Serif" font-size="8.00">ipc::session::Session</text>
<text text-anchor="middle" x="207" y="-7.1" font-family="Helvetica,sans-Serif" font-size="8.00">_base::hosed</text>
</a>
</g>
</g>
<!-- Node1&#45;&gt;Node4 -->
<g id="edge3" class="edge">
<title>Node1&#45;&gt;Node4</title>
<path fill="none" stroke="midnightblue" d="M116.25,-40.97C128.47,-37.23 141.32,-33.3 153.36,-29.62"/>
<polygon fill="midnightblue" stroke="midnightblue" points="154.71,-32.86 163.24,-26.59 152.66,-26.17 154.71,-32.86"/>
</g>
</g>
</svg>
