<?xml version="1.0" encoding="UTF-8" standalone="no"?>
<!DOCTYPE svg PUBLIC "-//W3C//DTD SVG 1.1//EN"
 "http://www.w3.org/Graphics/SVG/1.1/DTD/svg11.dtd">
<!-- Generated by graphviz version 2.43.0 (0)
 -->
<!-- Title: ipc::shm::stl::Arena_activator::this_thread_active_arena Pages: 1 -->
<svg width="278pt" height="125pt"
 viewBox="0.00 0.00 278.00 125.00" xmlns="http://www.w3.org/2000/svg" xmlns:xlink="http://www.w3.org/1999/xlink">
<g id="graph0" class="graph" transform="scale(1 1) rotate(0) translate(4 121)">
<title>ipc::shm::stl::Arena_activator::this_thread_active_arena</title>
<polygon fill="white" stroke="transparent" points="-4,4 -4,-121 274,-121 274,4 -4,4"/>
<!-- Node1 -->
<g id="node1" class="node">
<title>Node1</title>
<g id="a_node1"><a xlink:title="Returns the active arena, as understood by Stateless_allocator&lt;Arena_obj&gt; at this point in the callin...">
<polygon fill="#bfbfbf" stroke="black" points="162,-41 162,-76 270,-76 270,-41 162,-41"/>
<text text-anchor="start" x="170" y="-65.6" font-family="Helvetica,sans-Serif" font-size="8.00">ipc::shm::stl::Arena</text>
<text text-anchor="start" x="170" y="-56.6" font-family="Helvetica,sans-Serif" font-size="8.00">_activator::this_thread</text>
<text text-anchor="middle" x="216" y="-47.6" font-family="Helvetica,sans-Serif" font-size="8.00">_active_arena</text>
</a>
</g>
</g>
<!-- Node2 -->
<g id="node2" class="node">
<title>Node2</title>
<g id="a_node2"><a xlink:href="classipc_1_1shm_1_1stl_1_1Stateless__allocator.html#ab8609f6d096e59799d249403905a0953" target="_top" xlink:title="Allocates an uninitialized buffer of given size, or throws exception if Arena_obj::allocate() does; s...">
<polygon fill="white" stroke="black" points="7,-90.5 7,-116.5 119,-116.5 119,-90.5 7,-90.5"/>
<text text-anchor="start" x="15" y="-106.1" font-family="Helvetica,sans-Serif" font-size="8.00">ipc::shm::stl::Stateless</text>
<text text-anchor="middle" x="63" y="-97.1" font-family="Helvetica,sans-Serif" font-size="8.00">_allocator::allocate</text>
</a>
</g>
</g>
<!-- Node1&#45;&gt;Node2 -->
<g id="edge1" class="edge">
<title>Node1&#45;&gt;Node2</title>
<path fill="none" stroke="midnightblue" d="M152.09,-77.25C137.2,-81.69 121.62,-86.33 107.79,-90.45"/>
<polygon fill="midnightblue" stroke="midnightblue" points="153.18,-80.58 161.76,-74.37 151.18,-73.87 153.18,-80.58"/>
</g>
<!-- Node3 -->
<g id="node3" class="node">
<title>Node3</title>
<g id="a_node3"><a xlink:href="classipc_1_1shm_1_1stl_1_1Arena__activator.html#a2ed251f580639100783a63e1d8a0689d" target="_top" xlink:title="Activates the given Arena_obj.">
<polygon fill="white" stroke="black" points="0,-45.5 0,-71.5 126,-71.5 126,-45.5 0,-45.5"/>
<text text-anchor="start" x="8" y="-61.1" font-family="Helvetica,sans-Serif" font-size="8.00">ipc::shm::stl::Arena</text>
<text text-anchor="middle" x="63" y="-52.1" font-family="Helvetica,sans-Serif" font-size="8.00">_activator::Arena_activator</text>
</a>
</g>
</g>
<!-- Node1&#45;&gt;Node3 -->
<g id="edge2" class="edge">
<title>Node1&#45;&gt;Node3</title>
<path fill="none" stroke="midnightblue" d="M151.59,-58.5C143.14,-58.5 134.48,-58.5 126.05,-58.5"/>
<polygon fill="midnightblue" stroke="midnightblue" points="151.76,-62 161.76,-58.5 151.76,-55 151.76,-62"/>
</g>
<!-- Node4 -->
<g id="node4" class="node">
<title>Node4</title>
<g id="a_node4"><a xlink:href="classipc_1_1shm_1_1stl_1_1Stateless__allocator.html#ac6531b5bdb3b299e0780fc5b892bd70c" target="_top" xlink:title="Deallocates buffer in SHM previously allocated via allocate() in this or other (if Arena_obj supports...">
<polygon fill="white" stroke="black" points="7,-0.5 7,-26.5 119,-26.5 119,-0.5 7,-0.5"/>
<text text-anchor="start" x="15" y="-16.1" font-family="Helvetica,sans-Serif" font-size="8.00">ipc::shm::stl::Stateless</text>
<text text-anchor="middle" x="63" y="-7.1" font-family="Helvetica,sans-Serif" font-size="8.00">_allocator::deallocate</text>
</a>
</g>
</g>
<!-- Node1&#45;&gt;Node4 -->
<g id="edge3" class="edge">
<title>Node1&#45;&gt;Node4</title>
<path fill="none" stroke="midnightblue" d="M152.09,-39.75C137.2,-35.31 121.62,-30.67 107.79,-26.55"/>
<polygon fill="midnightblue" stroke="midnightblue" points="151.18,-43.13 161.76,-42.63 153.18,-36.42 151.18,-43.13"/>
</g>
</g>
</svg>
