<?xml version="1.0" encoding="UTF-8" standalone="no"?>
<!DOCTYPE svg PUBLIC "-//W3C//DTD SVG 1.1//EN"
 "http://www.w3.org/Graphics/SVG/1.1/DTD/svg11.dtd">
<!-- Generated by graphviz version 2.43.0 (0)
 -->
<!-- Title: ipc::transport::sync_io::Blob_stream_mq_receiver_impl&lt; Persistent_mq_handle &gt; Pages: 1 -->
<svg width="872pt" height="1077pt"
 viewBox="0.00 0.00 872.00 1077.00" xmlns="http://www.w3.org/2000/svg" xmlns:xlink="http://www.w3.org/1999/xlink">
<g id="graph0" class="graph" transform="scale(1 1) rotate(0) translate(4 1073)">
<title>ipc::transport::sync_io::Blob_stream_mq_receiver_impl&lt; Persistent_mq_handle &gt;</title>
<polygon fill="white" stroke="transparent" points="-4,4 -4,-1073 868,-1073 868,4 -4,4"/>
<!-- Node1 -->
<g id="node1" class="node">
<title>Node1</title>
<g id="a_node1"><a xlink:title="Internal, non&#45;movable pImpl&#45;lite implementation of sync_io::Blob_stream_mq_receiver class template.">
<polygon fill="#bfbfbf" stroke="black" points="719,-488.5 719,-523.5 864,-523.5 864,-488.5 719,-488.5"/>
<text text-anchor="start" x="727" y="-513.1" font-family="Helvetica,sans-Serif" font-size="8.00">ipc::transport::sync</text>
<text text-anchor="start" x="727" y="-504.1" font-family="Helvetica,sans-Serif" font-size="8.00">_io::Blob_stream_mq_receiver</text>
<text text-anchor="middle" x="791.5" y="-495.1" font-family="Helvetica,sans-Serif" font-size="8.00">_impl&lt; Persistent_mq_handle &gt;</text>
</a>
</g>
</g>
<!-- Node2 -->
<g id="node2" class="node">
<title>Node2</title>
<g id="a_node2"><a xlink:href="classipc_1_1transport_1_1Blob__stream__mq__base__impl.html" target="_top" xlink:title="Internal implementation of Blob_stream_mq_base class template; and common utilities used by Blob_stre...">
<polygon fill="white" stroke="black" points="460,-1033.5 460,-1068.5 584,-1068.5 584,-1033.5 460,-1033.5"/>
<text text-anchor="start" x="468" y="-1058.1" font-family="Helvetica,sans-Serif" font-size="8.00">ipc::transport::Blob</text>
<text text-anchor="start" x="468" y="-1049.1" font-family="Helvetica,sans-Serif" font-size="8.00">_stream_mq_base_impl</text>
<text text-anchor="middle" x="522" y="-1040.1" font-family="Helvetica,sans-Serif" font-size="8.00">&lt; Persistent_mq_handle &gt;</text>
</a>
</g>
</g>
<!-- Node2&#45;&gt;Node1 -->
<g id="edge1" class="edge">
<title>Node2&#45;&gt;Node1</title>
<path fill="none" stroke="midnightblue" d="M594.36,-1056.71C630.97,-1055.62 673.53,-1047.47 701,-1020 773.05,-947.94 787.59,-605.5 790.05,-523.62"/>
<polygon fill="midnightblue" stroke="midnightblue" points="594.16,-1053.21 584.21,-1056.84 594.25,-1060.21 594.16,-1053.21"/>
</g>
<!-- Node3 -->
<g id="node3" class="node">
<title>Node3</title>
<g id="a_node3"><a xlink:title=" ">
<polygon fill="white" stroke="#bfbfbf" points="206,-771.5 206,-788.5 313,-788.5 313,-771.5 206,-771.5"/>
<text text-anchor="middle" x="259.5" y="-778.1" font-family="Helvetica,sans-Serif" font-size="8.00">flow::log::Log_context</text>
</a>
</g>
</g>
<!-- Node3&#45;&gt;Node1 -->
<g id="edge2" class="edge">
<title>Node3&#45;&gt;Node1</title>
<path fill="none" stroke="midnightblue" d="M323.07,-783.34C430.25,-787.79 643.04,-790.6 701,-747 774.47,-691.72 787.65,-569.36 790,-523.66"/>
<polygon fill="midnightblue" stroke="midnightblue" points="323.18,-779.85 313.04,-782.91 322.88,-786.84 323.18,-779.85"/>
</g>
<!-- Node17 -->
<g id="node17" class="node">
<title>Node17</title>
<g id="a_node17"><a xlink:href="classipc_1_1util_1_1sync__io_1_1Timer__event__emitter.html" target="_top" xlink:title="An object of this type, used internally to implement sync_io&#45;pattern objects that require timer event...">
<polygon fill="white" stroke="black" points="469.5,-718 469.5,-744 574.5,-744 574.5,-718 469.5,-718"/>
<text text-anchor="start" x="477.5" y="-733.6" font-family="Helvetica,sans-Serif" font-size="8.00">ipc::util::sync_io</text>
<text text-anchor="middle" x="522" y="-724.6" font-family="Helvetica,sans-Serif" font-size="8.00">::Timer_event_emitter</text>
</a>
</g>
</g>
<!-- Node3&#45;&gt;Node17 -->
<g id="edge20" class="edge">
<title>Node3&#45;&gt;Node17</title>
<path fill="none" stroke="midnightblue" d="M315.85,-769.59C361.27,-761.05 425.09,-749.04 469.45,-740.7"/>
<polygon fill="midnightblue" stroke="midnightblue" points="315.06,-766.18 305.88,-771.46 316.35,-773.06 315.06,-766.18"/>
</g>
<!-- Node4 -->
<g id="node4" class="node">
<title>Node4</title>
<g id="a_node4"><a xlink:title=" ">
<polygon fill="white" stroke="#bfbfbf" points="210,-581.5 210,-598.5 309,-598.5 309,-581.5 210,-581.5"/>
<text text-anchor="middle" x="259.5" y="-588.1" font-family="Helvetica,sans-Serif" font-size="8.00">boost::noncopyable</text>
</a>
</g>
</g>
<!-- Node4&#45;&gt;Node1 -->
<g id="edge3" class="edge">
<title>Node4&#45;&gt;Node1</title>
<path fill="none" stroke="#8b1a1a" d="M319.21,-586.59C358.12,-587.43 408.06,-594.85 442,-623 459.22,-637.28 441.57,-657.32 460,-670 504.18,-700.39 655.87,-686.96 701,-658 750.62,-626.17 776.22,-556.26 785.87,-523.54"/>
<polygon fill="#8b1a1a" stroke="#8b1a1a" points="319.09,-583.09 309.07,-586.51 319.04,-590.09 319.09,-583.09"/>
</g>
<!-- Node4&#45;&gt;Node17 -->
<g id="edge21" class="edge">
<title>Node4&#45;&gt;Node17</title>
<path fill="none" stroke="#8b1a1a" d="M307.88,-601.55C314.74,-603.73 321.63,-606.22 328,-609 336.59,-612.75 337.57,-615.89 346,-620 386.96,-639.97 409.67,-623.89 442,-656 457.87,-671.76 444.7,-686.68 460,-703 465.74,-709.12 473.07,-714.01 480.65,-717.89"/>
<polygon fill="#8b1a1a" stroke="#8b1a1a" points="308.51,-598.08 297.92,-598.57 306.5,-604.79 308.51,-598.08"/>
</g>
<!-- Node5 -->
<g id="node5" class="node">
<title>Node5</title>
<g id="a_node5"><a xlink:title=" ">
<polygon fill="white" stroke="black" points="230,-828.5 230,-845.5 289,-845.5 289,-828.5 230,-828.5"/>
<text text-anchor="middle" x="259.5" y="-835.1" font-family="Helvetica,sans-Serif" font-size="8.00">std::string</text>
</a>
</g>
</g>
<!-- Node5&#45;&gt;Node1 -->
<g id="edge4" class="edge">
<title>Node5&#45;&gt;Node1</title>
<path fill="none" stroke="#9a32cd" stroke-dasharray="5,2" d="M299.45,-836.76C395.69,-835.37 641.28,-826.71 701,-775 778.4,-707.99 789.11,-572.29 790.4,-523.76"/>
<polygon fill="#9a32cd" stroke="#9a32cd" points="299.22,-833.26 289.27,-836.89 299.31,-840.26 299.22,-833.26"/>
<text text-anchor="middle" x="522" y="-831.6" font-family="Helvetica,sans-Serif" font-size="8.00"> m_nickname</text>
</g>
<!-- Node7 -->
<g id="node7" class="node">
<title>Node7</title>
<g id="a_node7"><a xlink:href="classipc_1_1util_1_1Shared__name.html" target="_top" xlink:title="String&#45;wrapping abstraction representing a name uniquely distinguishing a kernel&#45;persistent entity fr...">
<polygon fill="white" stroke="black" points="467,-862.5 467,-879.5 577,-879.5 577,-862.5 467,-862.5"/>
<text text-anchor="middle" x="522" y="-869.1" font-family="Helvetica,sans-Serif" font-size="8.00">ipc::util::Shared_name</text>
</a>
</g>
</g>
<!-- Node5&#45;&gt;Node7 -->
<g id="edge10" class="edge">
<title>Node5&#45;&gt;Node7</title>
<path fill="none" stroke="#9a32cd" stroke-dasharray="5,2" d="M299.49,-842.09C343.94,-847.89 416.9,-857.41 466.85,-863.93"/>
<polygon fill="#9a32cd" stroke="#9a32cd" points="299.74,-838.59 289.37,-840.77 298.84,-845.53 299.74,-838.59"/>
<text text-anchor="middle" x="394" y="-862.6" font-family="Helvetica,sans-Serif" font-size="8.00"> m_raw_name</text>
</g>
<!-- Node5&#45;&gt;Node17 -->
<g id="edge22" class="edge">
<title>Node5&#45;&gt;Node17</title>
<path fill="none" stroke="#9a32cd" stroke-dasharray="5,2" d="M294.51,-824.93C331.2,-811.71 391.21,-789.51 442,-768 459.71,-760.5 479.29,-751.33 494.53,-744"/>
<polygon fill="#9a32cd" stroke="#9a32cd" points="293.03,-821.74 284.8,-828.42 295.4,-828.33 293.03,-821.74"/>
<text text-anchor="middle" x="394" y="-807.6" font-family="Helvetica,sans-Serif" font-size="8.00"> m_nickname</text>
</g>
<!-- Node6 -->
<g id="node6" class="node">
<title>Node6</title>
<g id="a_node6"><a xlink:title=" ">
<polygon fill="white" stroke="black" points="11.5,-824 11.5,-850 102.5,-850 102.5,-824 11.5,-824"/>
<text text-anchor="start" x="19.5" y="-839.6" font-family="Helvetica,sans-Serif" font-size="8.00">std::basic_string&lt;</text>
<text text-anchor="middle" x="57" y="-830.6" font-family="Helvetica,sans-Serif" font-size="8.00"> Char &gt;</text>
</a>
</g>
</g>
<!-- Node6&#45;&gt;Node5 -->
<g id="edge5" class="edge">
<title>Node6&#45;&gt;Node5</title>
<path fill="none" stroke="midnightblue" d="M113.11,-837C150.96,-837 199.66,-837 229.98,-837"/>
<polygon fill="midnightblue" stroke="midnightblue" points="112.75,-833.5 102.75,-837 112.75,-840.5 112.75,-833.5"/>
</g>
<!-- Node7&#45;&gt;Node1 -->
<g id="edge6" class="edge">
<title>Node7&#45;&gt;Node1</title>
<path fill="none" stroke="#9a32cd" stroke-dasharray="5,2" d="M587.6,-879.21C624.99,-880.3 670.53,-874.81 701,-848 751.11,-803.91 780.68,-587.87 788.44,-523.89"/>
<polygon fill="#9a32cd" stroke="#9a32cd" points="587.43,-875.7 577.29,-878.74 587.12,-882.69 587.43,-875.7"/>
<text text-anchor="middle" x="651.5" y="-881.6" font-family="Helvetica,sans-Serif" font-size="8.00"> m_absolute_name</text>
</g>
<!-- Node7&#45;&gt;Node7 -->
<g id="edge7" class="edge">
<title>Node7&#45;&gt;Node7</title>
<path fill="none" stroke="#9a32cd" stroke-dasharray="5,2" d="M498,-888.1C498.21,-893.62 506.21,-898 522,-898 545.5,-898 551.74,-888.29 540.73,-879.57"/>
<polygon fill="#9a32cd" stroke="#9a32cd" points="500.99,-889.92 503.27,-879.57 495.04,-886.24 500.99,-889.92"/>
<text text-anchor="middle" x="522" y="-963.6" font-family="Helvetica,sans-Serif" font-size="8.00"> S_1ST_OR_ONLY</text>
<text text-anchor="middle" x="522" y="-954.6" font-family="Helvetica,sans-Serif" font-size="8.00">S_EMPTY</text>
<text text-anchor="start" x="483.5" y="-945.6" font-family="Helvetica,sans-Serif" font-size="8.00">S_RESOURCE_TYPE</text>
<text text-anchor="middle" x="522" y="-936.6" font-family="Helvetica,sans-Serif" font-size="8.00">_ID_MUTEX</text>
<text text-anchor="start" x="483.5" y="-927.6" font-family="Helvetica,sans-Serif" font-size="8.00">S_RESOURCE_TYPE</text>
<text text-anchor="middle" x="522" y="-918.6" font-family="Helvetica,sans-Serif" font-size="8.00">_ID_SHM</text>
<text text-anchor="middle" x="522" y="-909.6" font-family="Helvetica,sans-Serif" font-size="8.00">S_ROOT_MAGIC</text>
<text text-anchor="middle" x="522" y="-900.6" font-family="Helvetica,sans-Serif" font-size="8.00">S_SENTINEL</text>
</g>
<!-- Node8 -->
<g id="node8" class="node">
<title>Node8</title>
<g id="a_node8"><a xlink:title=" ">
<polygon fill="white" stroke="#bfbfbf" points="239.5,-974.5 239.5,-991.5 279.5,-991.5 279.5,-974.5 239.5,-974.5"/>
<text text-anchor="middle" x="259.5" y="-981.1" font-family="Helvetica,sans-Serif" font-size="8.00">size_t</text>
</a>
</g>
</g>
<!-- Node8&#45;&gt;Node1 -->
<g id="edge14" class="edge">
<title>Node8&#45;&gt;Node1</title>
<path fill="none" stroke="#9a32cd" stroke-dasharray="5,2" d="M289.71,-988.49C347.67,-998.13 480.56,-1013.96 584,-979 645.39,-958.25 665.51,-946.22 701,-892 781.63,-768.83 790,-581.85 790.57,-523.81"/>
<polygon fill="#9a32cd" stroke="#9a32cd" points="290.23,-985.03 279.78,-986.77 289.04,-991.92 290.23,-985.03"/>
<text text-anchor="middle" x="522" y="-1001.6" font-family="Helvetica,sans-Serif" font-size="8.00"> m_mq_max_msg_sz</text>
</g>
<!-- Node8&#45;&gt;Node7 -->
<g id="edge8" class="edge">
<title>Node8&#45;&gt;Node7</title>
<path fill="none" stroke="#9a32cd" stroke-dasharray="5,2" d="M288.84,-970.81C341.96,-947.98 455.24,-899.27 501.11,-879.55"/>
<polygon fill="#9a32cd" stroke="#9a32cd" points="287.46,-967.6 279.66,-974.76 290.22,-974.03 287.46,-967.6"/>
<text text-anchor="middle" x="394" y="-945.6" font-family="Helvetica,sans-Serif" font-size="8.00"> S_MAX_LENGTH</text>
</g>
<!-- Node9 -->
<g id="node9" class="node">
<title>Node9</title>
<g id="a_node9"><a xlink:title=" ">
<polygon fill="white" stroke="#bfbfbf" points="217.5,-893.5 217.5,-910.5 301.5,-910.5 301.5,-893.5 217.5,-893.5"/>
<text text-anchor="middle" x="259.5" y="-900.1" font-family="Helvetica,sans-Serif" font-size="8.00">static const char</text>
</a>
</g>
</g>
<!-- Node9&#45;&gt;Node7 -->
<g id="edge9" class="edge">
<title>Node9&#45;&gt;Node7</title>
<path fill="none" stroke="#9a32cd" stroke-dasharray="5,2" d="M311.85,-895.89C356.58,-890.57 421.24,-882.87 466.8,-877.45"/>
<polygon fill="#9a32cd" stroke="#9a32cd" points="311.29,-892.43 301.78,-897.09 312.12,-899.38 311.29,-892.43"/>
<text text-anchor="middle" x="394" y="-893.6" font-family="Helvetica,sans-Serif" font-size="8.00"> S_SEPARATOR</text>
</g>
<!-- Node10 -->
<g id="node10" class="node">
<title>Node10</title>
<g id="a_node10"><a xlink:title=" ">
<polygon fill="white" stroke="#bfbfbf" points="474.5,-634 474.5,-660 569.5,-660 569.5,-634 474.5,-634"/>
<text text-anchor="start" x="482.5" y="-649.6" font-family="Helvetica,sans-Serif" font-size="8.00">optional&lt; flow::util</text>
<text text-anchor="middle" x="522" y="-640.6" font-family="Helvetica,sans-Serif" font-size="8.00">::Task_engine &gt;</text>
</a>
</g>
</g>
<!-- Node10&#45;&gt;Node1 -->
<g id="edge11" class="edge">
<title>Node10&#45;&gt;Node1</title>
<path fill="none" stroke="#9a32cd" stroke-dasharray="5,2" d="M579.63,-647.59C616.47,-645.62 664.29,-638.49 701,-617 739.45,-594.49 768.08,-548.76 781.69,-523.59"/>
<polygon fill="#9a32cd" stroke="#9a32cd" points="579.4,-644.09 569.56,-648.01 579.69,-651.09 579.4,-644.09"/>
<text text-anchor="middle" x="651.5" y="-647.6" font-family="Helvetica,sans-Serif" font-size="8.00"> m_nb_task_engine</text>
</g>
<!-- Node11 -->
<g id="node11" class="node">
<title>Node11</title>
<g id="a_node11"><a xlink:title=" ">
<polygon fill="white" stroke="#bfbfbf" points="488.5,-597.5 488.5,-614.5 555.5,-614.5 555.5,-597.5 488.5,-597.5"/>
<text text-anchor="middle" x="522" y="-604.1" font-family="Helvetica,sans-Serif" font-size="8.00">Task_engine</text>
</a>
</g>
</g>
<!-- Node11&#45;&gt;Node1 -->
<g id="edge12" class="edge">
<title>Node11&#45;&gt;Node1</title>
<path fill="none" stroke="#9a32cd" stroke-dasharray="5,2" d="M565.66,-602.07C602.68,-597.52 657.06,-588.05 701,-569 727.15,-557.66 753.38,-537.98 770.62,-523.63"/>
<polygon fill="#9a32cd" stroke="#9a32cd" points="565.24,-598.59 555.71,-603.23 566.04,-605.55 565.24,-598.59"/>
<text text-anchor="start" x="602" y="-606.6" font-family="Helvetica,sans-Serif" font-size="8.00"> m_ev_hndl_task_engine</text>
<text text-anchor="middle" x="651.5" y="-597.6" font-family="Helvetica,sans-Serif" font-size="8.00">_unused</text>
</g>
<!-- Node12 -->
<g id="node12" class="node">
<title>Node12</title>
<g id="a_node12"><a xlink:title=" ">
<polygon fill="white" stroke="#bfbfbf" points="479.5,-561.5 479.5,-578.5 564.5,-578.5 564.5,-561.5 479.5,-561.5"/>
<text text-anchor="middle" x="522" y="-568.1" font-family="Helvetica,sans-Serif" font-size="8.00">Auto_closing_mq</text>
</a>
</g>
</g>
<!-- Node12&#45;&gt;Node1 -->
<g id="edge13" class="edge">
<title>Node12&#45;&gt;Node1</title>
<path fill="none" stroke="#9a32cd" stroke-dasharray="5,2" d="M574.86,-561.49C610.57,-555.21 658.96,-545.9 701,-535 713.65,-531.72 727.13,-527.66 739.69,-523.62"/>
<polygon fill="#9a32cd" stroke="#9a32cd" points="573.93,-558.09 564.68,-563.25 575.13,-564.99 573.93,-558.09"/>
<text text-anchor="middle" x="651.5" y="-558.6" font-family="Helvetica,sans-Serif" font-size="8.00"> m_mq</text>
</g>
<!-- Node13 -->
<g id="node13" class="node">
<title>Node13</title>
<g id="a_node13"><a xlink:title=" ">
<polygon fill="white" stroke="#bfbfbf" points="474.5,-516 474.5,-542 569.5,-542 569.5,-516 474.5,-516"/>
<text text-anchor="start" x="482.5" y="-531.6" font-family="Helvetica,sans-Serif" font-size="8.00">optional&lt; util::Pipe</text>
<text text-anchor="middle" x="522" y="-522.6" font-family="Helvetica,sans-Serif" font-size="8.00">_reader &gt;</text>
</a>
</g>
</g>
<!-- Node13&#45;&gt;Node1 -->
<g id="edge15" class="edge">
<title>Node13&#45;&gt;Node1</title>
<path fill="none" stroke="#9a32cd" stroke-dasharray="5,2" d="M579.58,-524.13C620.16,-520.65 675.13,-515.92 718.78,-512.17"/>
<polygon fill="#9a32cd" stroke="#9a32cd" points="579.26,-520.65 569.59,-524.99 579.86,-527.62 579.26,-520.65"/>
<text text-anchor="middle" x="651.5" y="-524.6" font-family="Helvetica,sans-Serif" font-size="8.00"> m_mq_ready_reader</text>
</g>
<!-- Node14 -->
<g id="node14" class="node">
<title>Node14</title>
<g id="a_node14"><a xlink:title=" ">
<polygon fill="white" stroke="#bfbfbf" points="474.5,-471 474.5,-497 569.5,-497 569.5,-471 474.5,-471"/>
<text text-anchor="start" x="482.5" y="-486.6" font-family="Helvetica,sans-Serif" font-size="8.00">optional&lt; util::Pipe</text>
<text text-anchor="middle" x="522" y="-477.6" font-family="Helvetica,sans-Serif" font-size="8.00">_writer &gt;</text>
</a>
</g>
</g>
<!-- Node14&#45;&gt;Node1 -->
<g id="edge16" class="edge">
<title>Node14&#45;&gt;Node1</title>
<path fill="none" stroke="#9a32cd" stroke-dasharray="5,2" d="M579.88,-488.32C614.83,-491.01 660.52,-494.6 701,-498 706.75,-498.48 712.71,-498.99 718.7,-499.51"/>
<polygon fill="#9a32cd" stroke="#9a32cd" points="580.1,-484.82 569.86,-487.55 579.56,-491.8 580.1,-484.82"/>
<text text-anchor="middle" x="651.5" y="-500.6" font-family="Helvetica,sans-Serif" font-size="8.00"> m_mq_ready_writer</text>
</g>
<!-- Node15 -->
<g id="node15" class="node">
<title>Node15</title>
<g id="a_node15"><a xlink:href="classipc_1_1util_1_1sync__io_1_1Asio__waitable__native__handle.html" target="_top" xlink:title="Useful if using the sync_io pattern within a user event loop built on boost.asio (optionally with flo...">
<polygon fill="white" stroke="black" points="468,-416.5 468,-451.5 576,-451.5 576,-416.5 468,-416.5"/>
<text text-anchor="start" x="476" y="-441.1" font-family="Helvetica,sans-Serif" font-size="8.00">ipc::util::sync_io</text>
<text text-anchor="start" x="476" y="-432.1" font-family="Helvetica,sans-Serif" font-size="8.00">::Asio_waitable_native</text>
<text text-anchor="middle" x="522" y="-423.1" font-family="Helvetica,sans-Serif" font-size="8.00">_handle</text>
</a>
</g>
</g>
<!-- Node15&#45;&gt;Node1 -->
<g id="edge17" class="edge">
<title>Node15&#45;&gt;Node1</title>
<path fill="none" stroke="#9a32cd" stroke-dasharray="5,2" d="M586.22,-437.57C620.78,-440.83 663.96,-447.07 701,-459 722.88,-466.05 745.81,-478.19 762.98,-488.37"/>
<polygon fill="#9a32cd" stroke="#9a32cd" points="586.52,-434.08 576.25,-436.69 585.9,-441.06 586.52,-434.08"/>
<text text-anchor="start" x="609" y="-479.6" font-family="Helvetica,sans-Serif" font-size="8.00"> m_ev_wait_hndl_idle</text>
<text text-anchor="middle" x="651.5" y="-470.6" font-family="Helvetica,sans-Serif" font-size="8.00">_timer_fired_peer</text>
<text text-anchor="middle" x="651.5" y="-461.6" font-family="Helvetica,sans-Serif" font-size="8.00">m_ev_wait_hndl_mq</text>
</g>
<!-- Node16 -->
<g id="node16" class="node">
<title>Node16</title>
<g id="a_node16"><a xlink:title=" ">
<polygon fill="white" stroke="#bfbfbf" points="214,-421 214,-447 305,-447 305,-421 214,-421"/>
<text text-anchor="start" x="222" y="-436.6" font-family="Helvetica,sans-Serif" font-size="8.00">boost::asio::posix</text>
<text text-anchor="middle" x="259.5" y="-427.6" font-family="Helvetica,sans-Serif" font-size="8.00">::descriptor</text>
</a>
</g>
</g>
<!-- Node16&#45;&gt;Node15 -->
<g id="edge18" class="edge">
<title>Node16&#45;&gt;Node15</title>
<path fill="none" stroke="darkgreen" d="M315.42,-434C360.32,-434 423.41,-434 467.82,-434"/>
<polygon fill="darkgreen" stroke="darkgreen" points="315.28,-430.5 305.28,-434 315.28,-437.5 315.28,-430.5"/>
</g>
<!-- Node17&#45;&gt;Node1 -->
<g id="edge19" class="edge">
<title>Node17&#45;&gt;Node1</title>
<path fill="none" stroke="#9a32cd" stroke-dasharray="5,2" d="M585.01,-735.24C622.1,-734.62 668.23,-727.93 701,-703 760.8,-657.52 781.79,-562.86 788.11,-523.63"/>
<polygon fill="#9a32cd" stroke="#9a32cd" points="584.8,-731.75 574.81,-735.27 584.82,-738.75 584.8,-731.75"/>
<text text-anchor="middle" x="651.5" y="-736.6" font-family="Helvetica,sans-Serif" font-size="8.00"> m_timer_worker</text>
</g>
<!-- Node18 -->
<g id="node18" class="node">
<title>Node18</title>
<g id="a_node18"><a xlink:title=" ">
<polygon fill="white" stroke="#bfbfbf" points="201.5,-735.5 201.5,-752.5 317.5,-752.5 317.5,-735.5 201.5,-735.5"/>
<text text-anchor="middle" x="259.5" y="-742.1" font-family="Helvetica,sans-Serif" font-size="8.00">Single_thread_task_loop</text>
</a>
</g>
</g>
<!-- Node18&#45;&gt;Node17 -->
<g id="edge23" class="edge">
<title>Node18&#45;&gt;Node17</title>
<path fill="none" stroke="#9a32cd" stroke-dasharray="5,2" d="M323.26,-734.22C330.91,-733.31 338.62,-732.54 346,-732 387.36,-728.99 434.37,-728.91 469.24,-729.48"/>
<polygon fill="#9a32cd" stroke="#9a32cd" points="322.78,-730.75 313.29,-735.47 323.65,-737.69 322.78,-730.75"/>
<text text-anchor="middle" x="394" y="-734.6" font-family="Helvetica,sans-Serif" font-size="8.00"> m_worker</text>
</g>
<!-- Node19 -->
<g id="node19" class="node">
<title>Node19</title>
<g id="a_node19"><a xlink:title=" ">
<polygon fill="white" stroke="black" points="194,-681.5 194,-716.5 325,-716.5 325,-681.5 194,-681.5"/>
<text text-anchor="start" x="202" y="-706.1" font-family="Helvetica,sans-Serif" font-size="8.00">std::vector&lt; boost</text>
<text text-anchor="start" x="202" y="-697.1" font-family="Helvetica,sans-Serif" font-size="8.00">::movelib::unique_ptr</text>
<text text-anchor="middle" x="259.5" y="-688.1" font-family="Helvetica,sans-Serif" font-size="8.00">&lt; Timer_fired_read_end &gt; &gt;</text>
</a>
</g>
</g>
<!-- Node19&#45;&gt;Node17 -->
<g id="edge24" class="edge">
<title>Node19&#45;&gt;Node17</title>
<path fill="none" stroke="#9a32cd" stroke-dasharray="5,2" d="M335.33,-704.41C368.15,-707.2 407.07,-711.06 442,-716 450.85,-717.25 460.21,-718.81 469.27,-720.46"/>
<polygon fill="#9a32cd" stroke="#9a32cd" points="335.61,-700.92 325.35,-703.58 335.03,-707.9 335.61,-700.92"/>
<text text-anchor="middle" x="394" y="-718.6" font-family="Helvetica,sans-Serif" font-size="8.00"> m_signal_pipe_readers</text>
</g>
<!-- Node20 -->
<g id="node20" class="node">
<title>Node20</title>
<g id="a_node20"><a xlink:title=" ">
<polygon fill="white" stroke="#bfbfbf" points="0,-686 0,-712 114,-712 114,-686 0,-686"/>
<text text-anchor="start" x="8" y="-701.6" font-family="Helvetica,sans-Serif" font-size="8.00">unique_ptr&lt; Timer_fired</text>
<text text-anchor="middle" x="57" y="-692.6" font-family="Helvetica,sans-Serif" font-size="8.00">_read_end &gt;</text>
</a>
</g>
</g>
<!-- Node20&#45;&gt;Node19 -->
<g id="edge25" class="edge">
<title>Node20&#45;&gt;Node19</title>
<path fill="none" stroke="#9a32cd" stroke-dasharray="5,2" d="M124.21,-699C146.63,-699 171.61,-699 193.9,-699"/>
<polygon fill="#9a32cd" stroke="#9a32cd" points="124.12,-695.5 114.12,-699 124.12,-702.5 124.12,-695.5"/>
<text text-anchor="middle" x="152.5" y="-701.6" font-family="Helvetica,sans-Serif" font-size="8.00"> elements</text>
</g>
<!-- Node21 -->
<g id="node21" class="node">
<title>Node21</title>
<g id="a_node21"><a xlink:title=" ">
<polygon fill="white" stroke="#bfbfbf" points="191,-618 191,-662 328,-662 328,-618 191,-618"/>
<text text-anchor="start" x="199" y="-651.6" font-family="Helvetica,sans-Serif" font-size="8.00">unordered_map&lt; Timer</text>
<text text-anchor="start" x="199" y="-642.6" font-family="Helvetica,sans-Serif" font-size="8.00">_fired_read_end *, boost</text>
<text text-anchor="start" x="199" y="-633.6" font-family="Helvetica,sans-Serif" font-size="8.00">::movelib::unique_ptr&lt; boost</text>
<text text-anchor="middle" x="259.5" y="-624.6" font-family="Helvetica,sans-Serif" font-size="8.00">::asio::writable_pipe &gt; &gt;</text>
</a>
</g>
</g>
<!-- Node21&#45;&gt;Node17 -->
<g id="edge26" class="edge">
<title>Node21&#45;&gt;Node17</title>
<path fill="none" stroke="#9a32cd" stroke-dasharray="5,2" d="M338.36,-657.38C371.07,-665.94 409.09,-677.55 442,-692 450.58,-695.77 451.73,-698.59 460,-703 469.77,-708.2 480.69,-713.4 490.56,-717.88"/>
<polygon fill="#9a32cd" stroke="#9a32cd" points="338.95,-653.92 328.39,-654.83 337.21,-660.7 338.95,-653.92"/>
<text text-anchor="middle" x="394" y="-694.6" font-family="Helvetica,sans-Serif" font-size="8.00"> m_signal_pipe_writers</text>
</g>
<!-- Node22 -->
<g id="node22" class="node">
<title>Node22</title>
<g id="a_node22"><a xlink:title=" ">
<polygon fill="white" stroke="#bfbfbf" points="464,-353 464,-397 580,-397 580,-353 464,-353"/>
<text text-anchor="start" x="472" y="-386.6" font-family="Helvetica,sans-Serif" font-size="8.00">optional&lt; ipc::transport</text>
<text text-anchor="start" x="472" y="-377.6" font-family="Helvetica,sans-Serif" font-size="8.00">::sync_io::Blob_stream</text>
<text text-anchor="start" x="472" y="-368.6" font-family="Helvetica,sans-Serif" font-size="8.00">_mq_receiver_impl::User</text>
<text text-anchor="middle" x="522" y="-359.6" font-family="Helvetica,sans-Serif" font-size="8.00">_request &gt;</text>
</a>
</g>
</g>
<!-- Node22&#45;&gt;Node1 -->
<g id="edge27" class="edge">
<title>Node22&#45;&gt;Node1</title>
<path fill="none" stroke="#9a32cd" stroke-dasharray="5,2" d="M590.06,-386.73C624.65,-394.59 666.67,-407.06 701,-426 730.74,-442.41 758.89,-470.36 775.42,-488.5"/>
<polygon fill="#9a32cd" stroke="#9a32cd" points="590.57,-383.25 580.05,-384.53 589.07,-390.09 590.57,-383.25"/>
<text text-anchor="middle" x="651.5" y="-428.6" font-family="Helvetica,sans-Serif" font-size="8.00"> m_user_request</text>
</g>
<!-- Node23 -->
<g id="node23" class="node">
<title>Node23</title>
<g id="a_node23"><a xlink:title=" ">
<polygon fill="white" stroke="#bfbfbf" points="504.5,-316.5 504.5,-333.5 539.5,-333.5 539.5,-316.5 504.5,-316.5"/>
<text text-anchor="middle" x="522" y="-323.1" font-family="Helvetica,sans-Serif" font-size="8.00">bool</text>
</a>
</g>
</g>
<!-- Node23&#45;&gt;Node1 -->
<g id="edge28" class="edge">
<title>Node23&#45;&gt;Node1</title>
<path fill="none" stroke="#9a32cd" stroke-dasharray="5,2" d="M549.61,-327.02C586.68,-330.99 654.56,-342.6 701,-376 742.16,-405.6 770.57,-460.31 783.16,-488.38"/>
<polygon fill="#9a32cd" stroke="#9a32cd" points="549.87,-323.53 539.58,-326.05 549.19,-330.5 549.87,-323.53"/>
<text text-anchor="middle" x="651.5" y="-378.6" font-family="Helvetica,sans-Serif" font-size="8.00"> m_control_state</text>
</g>
<!-- Node24 -->
<g id="node24" class="node">
<title>Node24</title>
<g id="a_node24"><a xlink:title=" ">
<polygon fill="white" stroke="#bfbfbf" points="504.5,-280.5 504.5,-297.5 539.5,-297.5 539.5,-280.5 504.5,-280.5"/>
<text text-anchor="middle" x="522" y="-287.1" font-family="Helvetica,sans-Serif" font-size="8.00">Blob</text>
</a>
</g>
</g>
<!-- Node24&#45;&gt;Node1 -->
<g id="edge29" class="edge">
<title>Node24&#45;&gt;Node1</title>
<path fill="none" stroke="#9a32cd" stroke-dasharray="5,2" d="M549.86,-287.09C587.52,-285.83 656.4,-288.93 701,-323 756.51,-365.4 779.64,-451.3 787.31,-488.34"/>
<polygon fill="#9a32cd" stroke="#9a32cd" points="549.5,-283.6 539.67,-287.56 549.83,-290.59 549.5,-283.6"/>
<text text-anchor="middle" x="651.5" y="-325.6" font-family="Helvetica,sans-Serif" font-size="8.00"> m_target_control_blob</text>
</g>
<!-- Node25 -->
<g id="node25" class="node">
<title>Node25</title>
<g id="a_node25"><a xlink:title=" ">
<polygon fill="white" stroke="#bfbfbf" points="492,-244.5 492,-261.5 552,-261.5 552,-244.5 492,-244.5"/>
<text text-anchor="middle" x="522" y="-251.1" font-family="Helvetica,sans-Serif" font-size="8.00">Error_code</text>
</a>
</g>
</g>
<!-- Node25&#45;&gt;Node1 -->
<g id="edge30" class="edge">
<title>Node25&#45;&gt;Node1</title>
<path fill="none" stroke="#9a32cd" stroke-dasharray="5,2" d="M562.28,-247.35C601.54,-243.96 661.58,-245.15 701,-276 770,-330.01 785.87,-444.5 789.47,-488.38"/>
<polygon fill="#9a32cd" stroke="#9a32cd" points="561.89,-243.88 552.29,-248.36 562.59,-250.84 561.89,-243.88"/>
<text text-anchor="middle" x="651.5" y="-278.6" font-family="Helvetica,sans-Serif" font-size="8.00"> m_pending_err_code</text>
</g>
<!-- Node26 -->
<g id="node26" class="node">
<title>Node26</title>
<g id="a_node26"><a xlink:title=" ">
<polygon fill="white" stroke="#bfbfbf" points="486.5,-208.5 486.5,-225.5 557.5,-225.5 557.5,-208.5 486.5,-208.5"/>
<text text-anchor="middle" x="522" y="-215.1" font-family="Helvetica,sans-Serif" font-size="8.00">Fine_duration</text>
</a>
</g>
</g>
<!-- Node26&#45;&gt;Node1 -->
<g id="edge31" class="edge">
<title>Node26&#45;&gt;Node1</title>
<path fill="none" stroke="#9a32cd" stroke-dasharray="5,2" d="M567.63,-208.41C606.96,-203.51 663.66,-203.31 701,-233 782.59,-297.88 790.61,-438.78 790.81,-488.33"/>
<polygon fill="#9a32cd" stroke="#9a32cd" points="566.95,-204.97 557.53,-209.82 567.91,-211.9 566.95,-204.97"/>
<text text-anchor="middle" x="651.5" y="-235.6" font-family="Helvetica,sans-Serif" font-size="8.00"> m_idle_timeout</text>
</g>
<!-- Node27 -->
<g id="node27" class="node">
<title>Node27</title>
<g id="a_node27"><a xlink:title=" ">
<polygon fill="white" stroke="#bfbfbf" points="502.5,-172.5 502.5,-189.5 541.5,-189.5 541.5,-172.5 502.5,-172.5"/>
<text text-anchor="middle" x="522" y="-179.1" font-family="Helvetica,sans-Serif" font-size="8.00">Timer</text>
</a>
</g>
</g>
<!-- Node27&#45;&gt;Node1 -->
<g id="edge32" class="edge">
<title>Node27&#45;&gt;Node1</title>
<path fill="none" stroke="#9a32cd" stroke-dasharray="5,2" d="M551.57,-173.6C590.01,-165.49 658.44,-157.76 701,-192 748.7,-230.37 779.62,-427.53 788.12,-488.21"/>
<polygon fill="#9a32cd" stroke="#9a32cd" points="550.56,-170.24 541.57,-175.87 552.1,-177.07 550.56,-170.24"/>
<text text-anchor="middle" x="651.5" y="-194.6" font-family="Helvetica,sans-Serif" font-size="8.00"> m_idle_timer</text>
</g>
<!-- Node28 -->
<g id="node28" class="node">
<title>Node28</title>
<g id="a_node28"><a xlink:title=" ">
<polygon fill="white" stroke="#bfbfbf" points="467,-136.5 467,-153.5 577,-153.5 577,-136.5 467,-136.5"/>
<text text-anchor="middle" x="522" y="-143.1" font-family="Helvetica,sans-Serif" font-size="8.00">Timer_fired_read_end *</text>
</a>
</g>
</g>
<!-- Node28&#45;&gt;Node1 -->
<g id="edge33" class="edge">
<title>Node28&#45;&gt;Node1</title>
<path fill="none" stroke="#9a32cd" stroke-dasharray="5,2" d="M563.08,-134.35C602.64,-126.43 662.61,-121.72 701,-153 754.55,-196.63 781.89,-422.94 788.75,-488.3"/>
<polygon fill="#9a32cd" stroke="#9a32cd" points="562.28,-130.94 553.25,-136.47 563.76,-137.79 562.28,-130.94"/>
<text text-anchor="middle" x="651.5" y="-155.6" font-family="Helvetica,sans-Serif" font-size="8.00"> m_idle_timer_fired_peer</text>
</g>
<!-- Node29 -->
<g id="node29" class="node">
<title>Node29</title>
<g id="a_node29"><a xlink:title=" ">
<polygon fill="white" stroke="#bfbfbf" points="460.5,-55 460.5,-117 583.5,-117 583.5,-55 460.5,-55"/>
<text text-anchor="start" x="468.5" y="-106.6" font-family="Helvetica,sans-Serif" font-size="8.00">Function&lt; void(Asio</text>
<text text-anchor="start" x="468.5" y="-97.6" font-family="Helvetica,sans-Serif" font-size="8.00">_waitable_native_handle</text>
<text text-anchor="start" x="468.5" y="-88.6" font-family="Helvetica,sans-Serif" font-size="8.00"> *hndl_of_interest, bool</text>
<text text-anchor="start" x="468.5" y="-79.6" font-family="Helvetica,sans-Serif" font-size="8.00"> ev_of_interest_snd_else</text>
<text text-anchor="start" x="468.5" y="-70.6" font-family="Helvetica,sans-Serif" font-size="8.00">_rcv, Task_ptr &amp;&amp;on_active</text>
<text text-anchor="middle" x="522" y="-61.6" font-family="Helvetica,sans-Serif" font-size="8.00">_ev_func)&gt;</text>
</a>
</g>
</g>
<!-- Node29&#45;&gt;Node1 -->
<g id="edge34" class="edge">
<title>Node29&#45;&gt;Node1</title>
<path fill="none" stroke="#9a32cd" stroke-dasharray="5,2" d="M593.72,-79.99C630.14,-80.82 672.72,-88.46 701,-115 756.86,-167.42 782.81,-418.51 789,-488.09"/>
<polygon fill="#9a32cd" stroke="#9a32cd" points="593.64,-76.49 583.62,-79.93 593.6,-83.49 593.64,-76.49"/>
<text text-anchor="middle" x="651.5" y="-117.6" font-family="Helvetica,sans-Serif" font-size="8.00"> m_ev_wait_func</text>
</g>
<!-- Node30 -->
<g id="node30" class="node">
<title>Node30</title>
<g id="a_node30"><a xlink:title=" ">
<polygon fill="white" stroke="#bfbfbf" points="469,-0.5 469,-35.5 575,-35.5 575,-0.5 469,-0.5"/>
<text text-anchor="start" x="477" y="-25.1" font-family="Helvetica,sans-Serif" font-size="8.00">optional&lt; flow::async</text>
<text text-anchor="start" x="477" y="-16.1" font-family="Helvetica,sans-Serif" font-size="8.00">::Single_thread_task</text>
<text text-anchor="middle" x="522" y="-7.1" font-family="Helvetica,sans-Serif" font-size="8.00">_loop &gt;</text>
</a>
</g>
</g>
<!-- Node30&#45;&gt;Node1 -->
<g id="edge35" class="edge">
<title>Node30&#45;&gt;Node1</title>
<path fill="none" stroke="#9a32cd" stroke-dasharray="5,2" d="M585.35,-19.35C623.94,-23.58 671.57,-35.51 701,-67 759.96,-130.08 783.97,-413.89 789.3,-488.16"/>
<polygon fill="#9a32cd" stroke="#9a32cd" points="585.53,-15.86 575.24,-18.4 584.87,-22.82 585.53,-15.86"/>
<text text-anchor="middle" x="651.5" y="-69.6" font-family="Helvetica,sans-Serif" font-size="8.00"> m_blocking_worker</text>
</g>
</g>
</svg>
