<?xml version="1.0" encoding="UTF-8" standalone="no"?>
<!DOCTYPE svg PUBLIC "-//W3C//DTD SVG 1.1//EN"
 "http://www.w3.org/Graphics/SVG/1.1/DTD/svg11.dtd">
<!-- Generated by graphviz version 2.43.0 (0)
 -->
<!-- Title: ipc::session::shm::classic::Server_session&lt; S_MQ_TYPE_OR_NONE, S_TRANSMIT_NATIVE_HANDLES, Mdt_payload &gt; Pages: 1 -->
<svg width="146pt" height="188pt"
 viewBox="0.00 0.00 146.00 188.00" xmlns="http://www.w3.org/2000/svg" xmlns:xlink="http://www.w3.org/1999/xlink">
<g id="graph0" class="graph" transform="scale(1 1) rotate(0) translate(4 184)">
<title>ipc::session::shm::classic::Server_session&lt; S_MQ_TYPE_OR_NONE, S_TRANSMIT_NATIVE_HANDLES, Mdt_payload &gt;</title>
<polygon fill="white" stroke="transparent" points="-4,4 -4,-184 142,-184 142,4 -4,4"/>
<!-- Node1 -->
<g id="node1" class="node">
<title>Node1</title>
<g id="a_node1"><a xlink:title="Identical to session::Server_session in every way, except that it makes available two SHM arenas,...">
<polygon fill="#bfbfbf" stroke="black" points="0,-0.5 0,-53.5 138,-53.5 138,-0.5 0,-0.5"/>
<text text-anchor="start" x="8" y="-43.1" font-family="Helvetica,sans-Serif" font-size="8.00">ipc::session::shm::</text>
<text text-anchor="start" x="8" y="-34.1" font-family="Helvetica,sans-Serif" font-size="8.00">classic::Server_session</text>
<text text-anchor="start" x="8" y="-25.1" font-family="Helvetica,sans-Serif" font-size="8.00">&lt; S_MQ_TYPE_OR_NONE, S</text>
<text text-anchor="start" x="8" y="-16.1" font-family="Helvetica,sans-Serif" font-size="8.00">_TRANSMIT_NATIVE_HANDLES,</text>
<text text-anchor="middle" x="69" y="-7.1" font-family="Helvetica,sans-Serif" font-size="8.00"> Mdt_payload &gt;</text>
</a>
</g>
</g>
<!-- Node2 -->
<g id="node2" class="node">
<title>Node2</title>
<g id="a_node2"><a xlink:href="classipc_1_1session_1_1shm_1_1classic_1_1Session__mv.html" target="_top" xlink:title="Implements the SHM&#45;related API common to shm::classic::Server_session and shm::classic::Client_sessio...">
<polygon fill="white" stroke="black" points="20,-90.5 20,-125.5 118,-125.5 118,-90.5 20,-90.5"/>
<text text-anchor="start" x="28" y="-115.1" font-family="Helvetica,sans-Serif" font-size="8.00">ipc::session::shm::</text>
<text text-anchor="start" x="28" y="-106.1" font-family="Helvetica,sans-Serif" font-size="8.00">classic::Session_mv</text>
<text text-anchor="middle" x="69" y="-97.1" font-family="Helvetica,sans-Serif" font-size="8.00">&lt; Session_t &gt;</text>
</a>
</g>
</g>
<!-- Node2&#45;&gt;Node1 -->
<g id="edge1" class="edge">
<title>Node2&#45;&gt;Node1</title>
<path fill="none" stroke="midnightblue" d="M69,-80.07C69,-71.56 69,-62.18 69,-53.75"/>
<polygon fill="midnightblue" stroke="midnightblue" points="65.5,-80.25 69,-90.25 72.5,-80.25 65.5,-80.25"/>
</g>
<!-- Node3 -->
<g id="node3" class="node">
<title>Node3</title>
<g id="a_node3"><a xlink:href="classSession__t.html" target="_top" xlink:title=" ">
<polygon fill="white" stroke="#bfbfbf" points="41,-162.5 41,-179.5 97,-179.5 97,-162.5 41,-162.5"/>
<text text-anchor="middle" x="69" y="-169.1" font-family="Helvetica,sans-Serif" font-size="8.00">Session_t</text>
</a>
</g>
</g>
<!-- Node3&#45;&gt;Node2 -->
<g id="edge2" class="edge">
<title>Node3&#45;&gt;Node2</title>
<path fill="none" stroke="midnightblue" d="M69,-152.11C69,-143.74 69,-133.83 69,-125.62"/>
<polygon fill="midnightblue" stroke="midnightblue" points="65.5,-152.27 69,-162.27 72.5,-152.27 65.5,-152.27"/>
</g>
</g>
</svg>
