<?xml version="1.0" encoding="UTF-8" standalone="no"?>
<!DOCTYPE svg PUBLIC "-//W3C//DTD SVG 1.1//EN"
 "http://www.w3.org/Graphics/SVG/1.1/DTD/svg11.dtd">
<!-- Generated by graphviz version 2.43.0 (0)
 -->
<!-- Title: ipc::transport::Blob_stream_mq_sender_impl&lt; Persistent_mq_handle &gt; Pages: 1 -->
<svg width="1013pt" height="274pt"
 viewBox="0.00 0.00 1013.00 273.50" xmlns="http://www.w3.org/2000/svg" xmlns:xlink="http://www.w3.org/1999/xlink">
<g id="graph0" class="graph" transform="scale(1 1) rotate(0) translate(4 269.5)">
<title>ipc::transport::Blob_stream_mq_sender_impl&lt; Persistent_mq_handle &gt;</title>
<polygon fill="white" stroke="transparent" points="-4,4 -4,-269.5 1009,-269.5 1009,4 -4,4"/>
<!-- Node1 -->
<g id="node1" class="node">
<title>Node1</title>
<g id="a_node1"><a xlink:title="Internal, non&#45;movable pImpl&#45;lite implementation of Blob_stream_mq_sender class template.">
<polygon fill="#bfbfbf" stroke="black" points="881,-131 881,-166 1005,-166 1005,-131 881,-131"/>
<text text-anchor="start" x="889" y="-155.6" font-family="Helvetica,sans-Serif" font-size="8.00">ipc::transport::Blob</text>
<text text-anchor="start" x="889" y="-146.6" font-family="Helvetica,sans-Serif" font-size="8.00">_stream_mq_sender_impl</text>
<text text-anchor="middle" x="943" y="-137.6" font-family="Helvetica,sans-Serif" font-size="8.00">&lt; Persistent_mq_handle &gt;</text>
</a>
</g>
</g>
<!-- Node2 -->
<g id="node2" class="node">
<title>Node2</title>
<g id="a_node2"><a xlink:href="classipc_1_1transport_1_1Blob__stream__mq__base__impl.html" target="_top" xlink:title="Internal implementation of Blob_stream_mq_base class template; and common utilities used by Blob_stre...">
<polygon fill="white" stroke="black" points="621.5,-230 621.5,-265 745.5,-265 745.5,-230 621.5,-230"/>
<text text-anchor="start" x="629.5" y="-254.6" font-family="Helvetica,sans-Serif" font-size="8.00">ipc::transport::Blob</text>
<text text-anchor="start" x="629.5" y="-245.6" font-family="Helvetica,sans-Serif" font-size="8.00">_stream_mq_base_impl</text>
<text text-anchor="middle" x="683.5" y="-236.6" font-family="Helvetica,sans-Serif" font-size="8.00">&lt; Persistent_mq_handle &gt;</text>
</a>
</g>
</g>
<!-- Node2&#45;&gt;Node1 -->
<g id="edge1" class="edge">
<title>Node2&#45;&gt;Node1</title>
<path fill="none" stroke="midnightblue" d="M755.5,-228.67C788.7,-219 828.44,-206.16 863,-191.5 880.11,-184.24 898.38,-174.44 913.04,-166.03"/>
<polygon fill="midnightblue" stroke="midnightblue" points="754.51,-225.31 745.87,-231.44 756.45,-232.04 754.51,-225.31"/>
</g>
<!-- Node3 -->
<g id="node3" class="node">
<title>Node3</title>
<g id="a_node3"><a xlink:title=" ">
<polygon fill="white" stroke="#bfbfbf" points="630,-194 630,-211 737,-211 737,-194 630,-194"/>
<text text-anchor="middle" x="683.5" y="-200.6" font-family="Helvetica,sans-Serif" font-size="8.00">flow::log::Log_context</text>
</a>
</g>
</g>
<!-- Node3&#45;&gt;Node1 -->
<g id="edge2" class="edge">
<title>Node3&#45;&gt;Node1</title>
<path fill="none" stroke="midnightblue" d="M747,-192.78C781.39,-187.06 824.73,-179.24 863,-170.5 868.97,-169.14 875.16,-167.61 881.33,-166.02"/>
<polygon fill="midnightblue" stroke="midnightblue" points="746.39,-189.33 737.09,-194.41 747.53,-196.24 746.39,-189.33"/>
</g>
<!-- Node4 -->
<g id="node4" class="node">
<title>Node4</title>
<g id="a_node4"><a xlink:title=" ">
<polygon fill="white" stroke="#bfbfbf" points="634,-158 634,-175 733,-175 733,-158 634,-158"/>
<text text-anchor="middle" x="683.5" y="-164.6" font-family="Helvetica,sans-Serif" font-size="8.00">boost::noncopyable</text>
</a>
</g>
</g>
<!-- Node4&#45;&gt;Node1 -->
<g id="edge3" class="edge">
<title>Node4&#45;&gt;Node1</title>
<path fill="none" stroke="#8b1a1a" d="M743.37,-162.38C784.45,-159.51 839.14,-155.69 880.73,-152.78"/>
<polygon fill="#8b1a1a" stroke="#8b1a1a" points="742.97,-158.9 733.24,-163.09 743.46,-165.89 742.97,-158.9"/>
</g>
<!-- Node5 -->
<g id="node5" class="node">
<title>Node5</title>
<g id="a_node5"><a xlink:title=" ">
<polygon fill="white" stroke="#bfbfbf" points="625.5,-122 625.5,-139 741.5,-139 741.5,-122 625.5,-122"/>
<text text-anchor="middle" x="683.5" y="-128.6" font-family="Helvetica,sans-Serif" font-size="8.00">Single_thread_task_loop</text>
</a>
</g>
</g>
<!-- Node5&#45;&gt;Node1 -->
<g id="edge4" class="edge">
<title>Node5&#45;&gt;Node1</title>
<path fill="none" stroke="#9a32cd" stroke-dasharray="5,2" d="M751.75,-133.55C785.21,-135.25 826.27,-137.61 863,-140.5 868.77,-140.95 874.78,-141.47 880.78,-142.03"/>
<polygon fill="#9a32cd" stroke="#9a32cd" points="751.78,-130.05 741.62,-133.05 751.43,-137.04 751.78,-130.05"/>
<text text-anchor="middle" x="823" y="-143.1" font-family="Helvetica,sans-Serif" font-size="8.00"> m_worker</text>
</g>
<!-- Node6 -->
<g id="node6" class="node">
<title>Node6</title>
<g id="a_node6"><a xlink:href="classipc_1_1transport_1_1sync__io_1_1Blob__stream__mq__sender.html" target="_top" xlink:title=" ">
<polygon fill="white" stroke="black" points="602,-76.5 602,-102.5 765,-102.5 765,-76.5 602,-76.5"/>
<text text-anchor="start" x="610" y="-92.1" font-family="Helvetica,sans-Serif" font-size="8.00">ipc::transport::sync</text>
<text text-anchor="middle" x="683.5" y="-83.1" font-family="Helvetica,sans-Serif" font-size="8.00">_io::Blob_stream_mq_sender&lt; Mq &gt;</text>
</a>
</g>
</g>
<!-- Node6&#45;&gt;Node1 -->
<g id="edge5" class="edge">
<title>Node6&#45;&gt;Node1</title>
<path fill="none" stroke="#9a32cd" stroke-dasharray="5,2" d="M774.94,-102.97C803.33,-107.93 834.65,-114.16 863,-121.5 873.24,-124.15 884.07,-127.49 894.31,-130.9"/>
<polygon fill="#9a32cd" stroke="#9a32cd" points="775.48,-99.51 765.03,-101.27 774.3,-106.41 775.48,-99.51"/>
<text text-anchor="middle" x="823" y="-124.1" font-family="Helvetica,sans-Serif" font-size="8.00"> m_sync_io</text>
</g>
<!-- Node7 -->
<g id="node7" class="node">
<title>Node7</title>
<g id="a_node7"><a xlink:href="classipc_1_1transport_1_1Blob__stream__mq__base.html" target="_top" xlink:title=" ">
<polygon fill="white" stroke="black" points="317,-226.5 317,-252.5 436,-252.5 436,-226.5 317,-226.5"/>
<text text-anchor="start" x="325" y="-242.1" font-family="Helvetica,sans-Serif" font-size="8.00">ipc::transport::Blob</text>
<text text-anchor="middle" x="376.5" y="-233.1" font-family="Helvetica,sans-Serif" font-size="8.00">_stream_mq_base&lt; Mq &gt;</text>
</a>
</g>
</g>
<!-- Node7&#45;&gt;Node6 -->
<g id="edge6" class="edge">
<title>Node7&#45;&gt;Node6</title>
<path fill="none" stroke="midnightblue" d="M425.55,-222.66C430.15,-220.71 434.7,-218.65 439,-216.5 515.89,-178.13 523.64,-147.78 602,-112.5 610.35,-108.74 619.46,-105.44 628.46,-102.6"/>
<polygon fill="midnightblue" stroke="midnightblue" points="424.04,-219.49 416.09,-226.49 426.67,-225.98 424.04,-219.49"/>
</g>
<!-- Node8 -->
<g id="node8" class="node">
<title>Node8</title>
<g id="a_node8"><a xlink:href="classipc_1_1util_1_1Shared__name.html" target="_top" xlink:title="String&#45;wrapping abstraction representing a name uniquely distinguishing a kernel&#45;persistent entity fr...">
<polygon fill="white" stroke="black" points="321.5,-100 321.5,-117 431.5,-117 431.5,-100 321.5,-100"/>
<text text-anchor="middle" x="376.5" y="-106.6" font-family="Helvetica,sans-Serif" font-size="8.00">ipc::util::Shared_name</text>
</a>
</g>
</g>
<!-- Node8&#45;&gt;Node6 -->
<g id="edge7" class="edge">
<title>Node8&#45;&gt;Node6</title>
<path fill="none" stroke="#9a32cd" stroke-dasharray="5,2" d="M441.66,-104.5C488.31,-101.6 551.79,-97.64 601.87,-94.52"/>
<polygon fill="#9a32cd" stroke="#9a32cd" points="441.44,-101.01 431.68,-105.13 441.87,-108 441.44,-101.01"/>
<text text-anchor="middle" x="520.5" y="-105.1" font-family="Helvetica,sans-Serif" font-size="8.00"> S_RESOURCE_TYPE_ID</text>
</g>
<!-- Node8&#45;&gt;Node8 -->
<g id="edge8" class="edge">
<title>Node8&#45;&gt;Node8</title>
<path fill="none" stroke="#9a32cd" stroke-dasharray="5,2" d="M355.53,-125.98C356.01,-131.32 363.01,-135.5 376.5,-135.5 397.06,-135.5 402.52,-125.79 392.89,-117.07"/>
<polygon fill="#9a32cd" stroke="#9a32cd" points="358.65,-127.56 360.11,-117.07 352.43,-124.36 358.65,-127.56"/>
<text text-anchor="middle" x="376.5" y="-201.1" font-family="Helvetica,sans-Serif" font-size="8.00"> S_1ST_OR_ONLY</text>
<text text-anchor="middle" x="376.5" y="-192.1" font-family="Helvetica,sans-Serif" font-size="8.00">S_EMPTY</text>
<text text-anchor="start" x="338" y="-183.1" font-family="Helvetica,sans-Serif" font-size="8.00">S_RESOURCE_TYPE</text>
<text text-anchor="middle" x="376.5" y="-174.1" font-family="Helvetica,sans-Serif" font-size="8.00">_ID_MUTEX</text>
<text text-anchor="start" x="338" y="-165.1" font-family="Helvetica,sans-Serif" font-size="8.00">S_RESOURCE_TYPE</text>
<text text-anchor="middle" x="376.5" y="-156.1" font-family="Helvetica,sans-Serif" font-size="8.00">_ID_SHM</text>
<text text-anchor="middle" x="376.5" y="-147.1" font-family="Helvetica,sans-Serif" font-size="8.00">S_ROOT_MAGIC</text>
<text text-anchor="middle" x="376.5" y="-138.1" font-family="Helvetica,sans-Serif" font-size="8.00">S_SENTINEL</text>
</g>
<!-- Node9 -->
<g id="node9" class="node">
<title>Node9</title>
<g id="a_node9"><a xlink:title=" ">
<polygon fill="white" stroke="#bfbfbf" points="150,-136 150,-153 190,-153 190,-136 150,-136"/>
<text text-anchor="middle" x="170" y="-142.6" font-family="Helvetica,sans-Serif" font-size="8.00">size_t</text>
</a>
</g>
</g>
<!-- Node9&#45;&gt;Node8 -->
<g id="edge9" class="edge">
<title>Node9&#45;&gt;Node8</title>
<path fill="none" stroke="#9a32cd" stroke-dasharray="5,2" d="M200.17,-139.37C233.2,-133.55 287.54,-123.98 326.98,-117.04"/>
<polygon fill="#9a32cd" stroke="#9a32cd" points="199.48,-135.93 190.24,-141.11 200.69,-142.83 199.48,-135.93"/>
<text text-anchor="middle" x="263" y="-136.1" font-family="Helvetica,sans-Serif" font-size="8.00"> S_MAX_LENGTH</text>
</g>
<!-- Node10 -->
<g id="node10" class="node">
<title>Node10</title>
<g id="a_node10"><a xlink:title=" ">
<polygon fill="white" stroke="#bfbfbf" points="128,-100 128,-117 212,-117 212,-100 128,-100"/>
<text text-anchor="middle" x="170" y="-106.6" font-family="Helvetica,sans-Serif" font-size="8.00">static const char</text>
</a>
</g>
</g>
<!-- Node10&#45;&gt;Node8 -->
<g id="edge10" class="edge">
<title>Node10&#45;&gt;Node8</title>
<path fill="none" stroke="#9a32cd" stroke-dasharray="5,2" d="M222.69,-108.5C252.84,-108.5 290.81,-108.5 321.36,-108.5"/>
<polygon fill="#9a32cd" stroke="#9a32cd" points="222.38,-105 212.38,-108.5 222.38,-112 222.38,-105"/>
<text text-anchor="middle" x="263" y="-111.1" font-family="Helvetica,sans-Serif" font-size="8.00"> S_SEPARATOR</text>
</g>
<!-- Node11 -->
<g id="node11" class="node">
<title>Node11</title>
<g id="a_node11"><a xlink:title=" ">
<polygon fill="white" stroke="black" points="140.5,-64 140.5,-81 199.5,-81 199.5,-64 140.5,-64"/>
<text text-anchor="middle" x="170" y="-70.6" font-family="Helvetica,sans-Serif" font-size="8.00">std::string</text>
</a>
</g>
</g>
<!-- Node11&#45;&gt;Node8 -->
<g id="edge11" class="edge">
<title>Node11&#45;&gt;Node8</title>
<path fill="none" stroke="#9a32cd" stroke-dasharray="5,2" d="M210.13,-79.39C243.42,-85.25 291.38,-93.69 327.09,-99.98"/>
<polygon fill="#9a32cd" stroke="#9a32cd" points="210.32,-75.87 199.87,-77.58 209.11,-82.76 210.32,-75.87"/>
<text text-anchor="middle" x="263" y="-96.1" font-family="Helvetica,sans-Serif" font-size="8.00"> m_raw_name</text>
</g>
<!-- Node12 -->
<g id="node12" class="node">
<title>Node12</title>
<g id="a_node12"><a xlink:title=" ">
<polygon fill="white" stroke="black" points="0,-59.5 0,-85.5 91,-85.5 91,-59.5 0,-59.5"/>
<text text-anchor="start" x="8" y="-75.1" font-family="Helvetica,sans-Serif" font-size="8.00">std::basic_string&lt;</text>
<text text-anchor="middle" x="45.5" y="-66.1" font-family="Helvetica,sans-Serif" font-size="8.00"> Char &gt;</text>
</a>
</g>
</g>
<!-- Node12&#45;&gt;Node11 -->
<g id="edge12" class="edge">
<title>Node12&#45;&gt;Node11</title>
<path fill="none" stroke="midnightblue" d="M101.25,-72.5C114.72,-72.5 128.61,-72.5 140.29,-72.5"/>
<polygon fill="midnightblue" stroke="midnightblue" points="101.07,-69 91.07,-72.5 101.07,-76 101.07,-69"/>
</g>
<!-- Node13 -->
<g id="node13" class="node">
<title>Node13</title>
<g id="a_node13"><a xlink:title=" ">
<polygon fill="white" stroke="#bfbfbf" points="359,-64 359,-81 394,-81 394,-64 359,-64"/>
<text text-anchor="middle" x="376.5" y="-70.6" font-family="Helvetica,sans-Serif" font-size="8.00">bool</text>
</a>
</g>
</g>
<!-- Node13&#45;&gt;Node6 -->
<g id="edge13" class="edge">
<title>Node13&#45;&gt;Node6</title>
<path fill="none" stroke="#9a32cd" stroke-dasharray="5,2" d="M404.23,-71.81C443.65,-71.04 519.63,-70.48 584,-75.5 589.85,-75.96 595.89,-76.54 601.96,-77.21"/>
<polygon fill="#9a32cd" stroke="#9a32cd" points="404.05,-68.31 394.13,-72.03 404.2,-75.31 404.05,-68.31"/>
<text text-anchor="middle" x="520.5" y="-78.1" font-family="Helvetica,sans-Serif" font-size="8.00"> S_TRANSMIT_NATIVE_HANDLES</text>
</g>
<!-- Node14 -->
<g id="node14" class="node">
<title>Node14</title>
<g id="a_node14"><a xlink:title=" ">
<polygon fill="white" stroke="#bfbfbf" points="314,-0.5 314,-44.5 439,-44.5 439,-0.5 314,-0.5"/>
<text text-anchor="start" x="322" y="-34.1" font-family="Helvetica,sans-Serif" font-size="8.00">propagate_const&lt; boost</text>
<text text-anchor="start" x="322" y="-25.1" font-family="Helvetica,sans-Serif" font-size="8.00">::movelib::unique_ptr</text>
<text text-anchor="start" x="322" y="-16.1" font-family="Helvetica,sans-Serif" font-size="8.00">&lt; Blob_stream_mq_sender</text>
<text text-anchor="middle" x="376.5" y="-7.1" font-family="Helvetica,sans-Serif" font-size="8.00">_impl&lt; Mq &gt; &gt; &gt;</text>
</a>
</g>
</g>
<!-- Node14&#45;&gt;Node6 -->
<g id="edge14" class="edge">
<title>Node14&#45;&gt;Node6</title>
<path fill="none" stroke="#9a32cd" stroke-dasharray="5,2" d="M449.19,-29.37C489.51,-34.53 540.35,-43.24 584,-57.5 592.5,-60.28 593.66,-63.26 602,-66.5 611.35,-70.14 621.5,-73.48 631.35,-76.43"/>
<polygon fill="#9a32cd" stroke="#9a32cd" points="449.54,-25.88 439.18,-28.13 448.68,-32.83 449.54,-25.88"/>
<text text-anchor="middle" x="520.5" y="-60.1" font-family="Helvetica,sans-Serif" font-size="8.00"> m_impl</text>
</g>
<!-- Node15 -->
<g id="node15" class="node">
<title>Node15</title>
<g id="a_node15"><a xlink:title=" ">
<polygon fill="white" stroke="#bfbfbf" points="605.5,-22 605.5,-57 761.5,-57 761.5,-22 605.5,-22"/>
<text text-anchor="start" x="613.5" y="-46.6" font-family="Helvetica,sans-Serif" font-size="8.00">optional&lt; ipc::transport</text>
<text text-anchor="start" x="613.5" y="-37.6" font-family="Helvetica,sans-Serif" font-size="8.00">::sync_io::Async_adapter</text>
<text text-anchor="middle" x="683.5" y="-28.6" font-family="Helvetica,sans-Serif" font-size="8.00">_sender&lt; decltype(m_sync_io)&gt; &gt;</text>
</a>
</g>
</g>
<!-- Node15&#45;&gt;Node1 -->
<g id="edge15" class="edge">
<title>Node15&#45;&gt;Node1</title>
<path fill="none" stroke="#9a32cd" stroke-dasharray="5,2" d="M771.73,-58.52C801.5,-66.66 834.47,-77.57 863,-91.5 884.58,-102.04 906.53,-118.42 921.79,-130.93"/>
<polygon fill="#9a32cd" stroke="#9a32cd" points="772.33,-55.06 761.76,-55.86 770.52,-61.82 772.33,-55.06"/>
<text text-anchor="middle" x="823" y="-94.1" font-family="Helvetica,sans-Serif" font-size="8.00"> m_sync_io_adapter</text>
</g>
</g>
</svg>
