<?xml version="1.0" encoding="UTF-8" standalone="no"?>
<!DOCTYPE svg PUBLIC "-//W3C//DTD SVG 1.1//EN"
 "http://www.w3.org/Graphics/SVG/1.1/DTD/svg11.dtd">
<!-- Generated by graphviz version 2.43.0 (0)
 -->
<!-- Title: ipc::transport::sync_io::Native_socket_stream::impl Pages: 1 -->
<svg width="717pt" height="1144pt"
 viewBox="0.00 0.00 717.00 1144.00" xmlns="http://www.w3.org/2000/svg" xmlns:xlink="http://www.w3.org/1999/xlink">
<g id="graph0" class="graph" transform="scale(1 1) rotate(0) translate(4 1140)">
<title>ipc::transport::sync_io::Native_socket_stream::impl</title>
<polygon fill="white" stroke="transparent" points="-4,4 -4,-1140 713,-1140 713,4 -4,4"/>
<!-- Node1 -->
<g id="node1" class="node">
<title>Node1</title>
<g id="a_node1"><a xlink:title="Helper that simply returns m_impl while guaranteeing that m_impl is non&#45;null upon return.">
<polygon fill="#bfbfbf" stroke="black" points="563,-565 563,-591 709,-591 709,-565 563,-565"/>
<text text-anchor="start" x="571" y="-580.6" font-family="Helvetica,sans-Serif" font-size="8.00">ipc::transport::sync</text>
<text text-anchor="middle" x="636" y="-571.6" font-family="Helvetica,sans-Serif" font-size="8.00">_io::Native_socket_stream::impl</text>
</a>
</g>
</g>
<!-- Node2 -->
<g id="node2" class="node">
<title>Node2</title>
<g id="a_node2"><a xlink:href="classipc_1_1transport_1_1sync__io_1_1Native__socket__stream.html#a179f900489fd22ba2a04c655eb4cbfd1" target="_top" xlink:title="Template&#45;free version of async_end_sending() as required by pImpl idiom.">
<polygon fill="white" stroke="black" points="385,-1100.5 385,-1135.5 508,-1135.5 508,-1100.5 385,-1100.5"/>
<text text-anchor="start" x="393" y="-1125.1" font-family="Helvetica,sans-Serif" font-size="8.00">ipc::transport::sync</text>
<text text-anchor="start" x="393" y="-1116.1" font-family="Helvetica,sans-Serif" font-size="8.00">_io::Native_socket_stream</text>
<text text-anchor="middle" x="446.5" y="-1107.1" font-family="Helvetica,sans-Serif" font-size="8.00">::async_end_sending_fwd</text>
</a>
</g>
</g>
<!-- Node1&#45;&gt;Node2 -->
<g id="edge1" class="edge">
<title>Node1&#45;&gt;Node2</title>
<path fill="none" stroke="midnightblue" d="M633.12,-601.34C625.39,-691.57 593.37,-1016.15 527,-1091 521.78,-1096.89 515.22,-1101.5 508.13,-1105.1"/>
<polygon fill="midnightblue" stroke="midnightblue" points="636.61,-601.57 633.96,-591.31 629.63,-600.99 636.61,-601.57"/>
</g>
<!-- Node4 -->
<g id="node4" class="node">
<title>Node4</title>
<g id="a_node4"><a xlink:href="classipc_1_1transport_1_1sync__io_1_1Native__socket__stream.html#a883bc5bd0fe18aec79d4dead5d8737fa" target="_top" xlink:title="Template&#45;free version of async_receive_blob() as required by pImpl idiom.">
<polygon fill="white" stroke="black" points="385,-1046.5 385,-1081.5 508,-1081.5 508,-1046.5 385,-1046.5"/>
<text text-anchor="start" x="393" y="-1071.1" font-family="Helvetica,sans-Serif" font-size="8.00">ipc::transport::sync</text>
<text text-anchor="start" x="393" y="-1062.1" font-family="Helvetica,sans-Serif" font-size="8.00">_io::Native_socket_stream</text>
<text text-anchor="middle" x="446.5" y="-1053.1" font-family="Helvetica,sans-Serif" font-size="8.00">::async_receive_blob_fwd</text>
</a>
</g>
</g>
<!-- Node1&#45;&gt;Node4 -->
<g id="edge3" class="edge">
<title>Node1&#45;&gt;Node4</title>
<path fill="none" stroke="midnightblue" d="M632.5,-601.29C623.03,-685.26 586.91,-971.02 527,-1037 521.81,-1042.72 515.36,-1047.23 508.39,-1050.78"/>
<polygon fill="midnightblue" stroke="midnightblue" points="635.99,-601.56 633.61,-591.24 629.03,-600.79 635.99,-601.56"/>
</g>
<!-- Node6 -->
<g id="node6" class="node">
<title>Node6</title>
<g id="a_node6"><a xlink:href="classipc_1_1transport_1_1sync__io_1_1Native__socket__stream.html#abe442ee09c5605638a65be862ee6c946" target="_top" xlink:title="Template&#45;free version of async_receive_native_handle() as required by pImpl idiom.">
<polygon fill="white" stroke="black" points="366,-992.5 366,-1027.5 527,-1027.5 527,-992.5 366,-992.5"/>
<text text-anchor="start" x="374" y="-1017.1" font-family="Helvetica,sans-Serif" font-size="8.00">ipc::transport::sync</text>
<text text-anchor="start" x="374" y="-1008.1" font-family="Helvetica,sans-Serif" font-size="8.00">_io::Native_socket_stream</text>
<text text-anchor="middle" x="446.5" y="-999.1" font-family="Helvetica,sans-Serif" font-size="8.00">::async_receive_native_handle_fwd</text>
</a>
</g>
</g>
<!-- Node1&#45;&gt;Node6 -->
<g id="edge5" class="edge">
<title>Node1&#45;&gt;Node6</title>
<path fill="none" stroke="midnightblue" d="M631.68,-601.52C620.27,-679.2 580.42,-925.89 527,-983 523.61,-986.62 519.73,-989.75 515.53,-992.47"/>
<polygon fill="midnightblue" stroke="midnightblue" points="635.18,-601.72 633.15,-591.32 628.26,-600.72 635.18,-601.72"/>
</g>
<!-- Node8 -->
<g id="node8" class="node">
<title>Node8</title>
<g id="a_node8"><a xlink:href="classipc_1_1transport_1_1sync__io_1_1Native__socket__stream.html#aaef9afdeb3800df615a01b22070acad8" target="_top" xlink:title="Implements Native_handle_sender, Blob_sender API per contract.">
<polygon fill="white" stroke="black" points="385,-938.5 385,-973.5 508,-973.5 508,-938.5 385,-938.5"/>
<text text-anchor="start" x="393" y="-963.1" font-family="Helvetica,sans-Serif" font-size="8.00">ipc::transport::sync</text>
<text text-anchor="start" x="393" y="-954.1" font-family="Helvetica,sans-Serif" font-size="8.00">_io::Native_socket_stream</text>
<text text-anchor="middle" x="446.5" y="-945.1" font-family="Helvetica,sans-Serif" font-size="8.00">::auto_ping</text>
</a>
</g>
</g>
<!-- Node1&#45;&gt;Node8 -->
<g id="edge7" class="edge">
<title>Node1&#45;&gt;Node8</title>
<path fill="none" stroke="midnightblue" d="M634.74,-601.58C632.77,-663.87 618.8,-834.5 527,-929 521.62,-934.54 515.06,-938.95 508.03,-942.45"/>
<polygon fill="midnightblue" stroke="midnightblue" points="638.25,-601.33 634.99,-591.25 631.25,-601.16 638.25,-601.33"/>
</g>
<!-- Node9 -->
<g id="node9" class="node">
<title>Node9</title>
<g id="a_node9"><a xlink:href="classipc_1_1transport_1_1sync__io_1_1Native__socket__stream.html#a69ed821cc3a41b68dd56880d45033a45" target="_top" xlink:title="Implements Native_handle_sender, Blob_sender API per contract.">
<polygon fill="white" stroke="black" points="385,-884.5 385,-919.5 508,-919.5 508,-884.5 385,-884.5"/>
<text text-anchor="start" x="393" y="-909.1" font-family="Helvetica,sans-Serif" font-size="8.00">ipc::transport::sync</text>
<text text-anchor="start" x="393" y="-900.1" font-family="Helvetica,sans-Serif" font-size="8.00">_io::Native_socket_stream</text>
<text text-anchor="middle" x="446.5" y="-891.1" font-family="Helvetica,sans-Serif" font-size="8.00">::end_sending</text>
</a>
</g>
</g>
<!-- Node1&#45;&gt;Node9 -->
<g id="edge8" class="edge">
<title>Node1&#45;&gt;Node9</title>
<path fill="none" stroke="midnightblue" d="M633.23,-601.27C627.77,-656.62 606.41,-797.26 527,-875 521.58,-880.3 515.09,-884.56 508.17,-887.99"/>
<polygon fill="midnightblue" stroke="midnightblue" points="636.73,-601.37 634.14,-591.1 629.76,-600.74 636.73,-601.37"/>
</g>
<!-- Node10 -->
<g id="node10" class="node">
<title>Node10</title>
<g id="a_node10"><a xlink:href="classipc_1_1transport_1_1sync__io_1_1Native__socket__stream.html#aac68d14f4ef33505399df4fd04cd4669" target="_top" xlink:title="Returns logger (possibly null).">
<polygon fill="white" stroke="black" points="385,-830.5 385,-865.5 508,-865.5 508,-830.5 385,-830.5"/>
<text text-anchor="start" x="393" y="-855.1" font-family="Helvetica,sans-Serif" font-size="8.00">ipc::transport::sync</text>
<text text-anchor="start" x="393" y="-846.1" font-family="Helvetica,sans-Serif" font-size="8.00">_io::Native_socket_stream</text>
<text text-anchor="middle" x="446.5" y="-837.1" font-family="Helvetica,sans-Serif" font-size="8.00">::get_logger</text>
</a>
</g>
</g>
<!-- Node1&#45;&gt;Node10 -->
<g id="edge9" class="edge">
<title>Node1&#45;&gt;Node10</title>
<path fill="none" stroke="midnightblue" d="M631.09,-601.23C621.82,-649.19 594.05,-759.78 527,-821 521.51,-826.01 515.05,-830.1 508.23,-833.43"/>
<polygon fill="midnightblue" stroke="midnightblue" points="634.57,-601.69 632.93,-591.22 627.68,-600.42 634.57,-601.69"/>
</g>
<!-- Node17 -->
<g id="node17" class="node">
<title>Node17</title>
<g id="a_node17"><a xlink:href="classipc_1_1transport_1_1sync__io_1_1Native__socket__stream.html#ac645b3e69ee3bfda64c0e9fda62f656a" target="_top" xlink:title="Implements Native_handle_receiver, Blob_receiver API per contract.">
<polygon fill="white" stroke="black" points="385,-776.5 385,-811.5 508,-811.5 508,-776.5 385,-776.5"/>
<text text-anchor="start" x="393" y="-801.1" font-family="Helvetica,sans-Serif" font-size="8.00">ipc::transport::sync</text>
<text text-anchor="start" x="393" y="-792.1" font-family="Helvetica,sans-Serif" font-size="8.00">_io::Native_socket_stream</text>
<text text-anchor="middle" x="446.5" y="-783.1" font-family="Helvetica,sans-Serif" font-size="8.00">::idle_timer_run</text>
</a>
</g>
</g>
<!-- Node1&#45;&gt;Node17 -->
<g id="edge16" class="edge">
<title>Node1&#45;&gt;Node17</title>
<path fill="none" stroke="midnightblue" d="M628.03,-600.66C614.75,-640.11 582.14,-721.54 527,-767 521.38,-771.64 514.92,-775.49 508.16,-778.69"/>
<polygon fill="midnightblue" stroke="midnightblue" points="631.36,-601.74 631.12,-591.15 624.7,-599.57 631.36,-601.74"/>
</g>
<!-- Node18 -->
<g id="node18" class="node">
<title>Node18</title>
<g id="a_node18"><a xlink:href="classipc_1_1transport_1_1sync__io_1_1Native__socket__stream.html#a80cb628f57f12c19f7ce46d0894c773a" target="_top" xlink:title="Returns nickname, a brief string suitable for logging.">
<polygon fill="white" stroke="black" points="385,-722.5 385,-757.5 508,-757.5 508,-722.5 385,-722.5"/>
<text text-anchor="start" x="393" y="-747.1" font-family="Helvetica,sans-Serif" font-size="8.00">ipc::transport::sync</text>
<text text-anchor="start" x="393" y="-738.1" font-family="Helvetica,sans-Serif" font-size="8.00">_io::Native_socket_stream</text>
<text text-anchor="middle" x="446.5" y="-729.1" font-family="Helvetica,sans-Serif" font-size="8.00">::nickname</text>
</a>
</g>
</g>
<!-- Node1&#45;&gt;Node18 -->
<g id="edge17" class="edge">
<title>Node1&#45;&gt;Node18</title>
<path fill="none" stroke="midnightblue" d="M622.88,-599.99C605.42,-629.72 570.46,-682.51 527,-713 521.27,-717.02 514.9,-720.48 508.32,-723.45"/>
<polygon fill="midnightblue" stroke="midnightblue" points="625.98,-601.62 627.92,-591.2 619.91,-598.13 625.98,-601.62"/>
</g>
<!-- Node19 -->
<g id="node19" class="node">
<title>Node19</title>
<g id="a_node19"><a xlink:href="classipc_1_1transport_1_1sync__io_1_1Native__socket__stream.html#aa9ca8bbb8148c00f810a516b4fd66608" target="_top" xlink:title="Implements Blob_receiver API per contract.">
<polygon fill="white" stroke="black" points="385,-668.5 385,-703.5 508,-703.5 508,-668.5 385,-668.5"/>
<text text-anchor="start" x="393" y="-693.1" font-family="Helvetica,sans-Serif" font-size="8.00">ipc::transport::sync</text>
<text text-anchor="start" x="393" y="-684.1" font-family="Helvetica,sans-Serif" font-size="8.00">_io::Native_socket_stream</text>
<text text-anchor="middle" x="446.5" y="-675.1" font-family="Helvetica,sans-Serif" font-size="8.00">::receive_blob_max_size</text>
</a>
</g>
</g>
<!-- Node1&#45;&gt;Node19 -->
<g id="edge18" class="edge">
<title>Node1&#45;&gt;Node19</title>
<path fill="none" stroke="midnightblue" d="M612.99,-597.83C592.1,-615.8 559.21,-642.01 527,-659 520.42,-662.47 513.31,-665.63 506.14,-668.46"/>
<polygon fill="midnightblue" stroke="midnightblue" points="615.41,-600.36 620.64,-591.15 610.81,-595.09 615.41,-600.36"/>
</g>
<!-- Node20 -->
<g id="node20" class="node">
<title>Node20</title>
<g id="a_node20"><a xlink:href="classipc_1_1transport_1_1sync__io_1_1Native__socket__stream.html#acc5f3cae4c5ff2facb5795c5013374e6" target="_top" xlink:title="Implements Native_handle_receiver API per contract.">
<polygon fill="white" stroke="black" points="376.5,-614.5 376.5,-649.5 516.5,-649.5 516.5,-614.5 376.5,-614.5"/>
<text text-anchor="start" x="384.5" y="-639.1" font-family="Helvetica,sans-Serif" font-size="8.00">ipc::transport::sync</text>
<text text-anchor="start" x="384.5" y="-630.1" font-family="Helvetica,sans-Serif" font-size="8.00">_io::Native_socket_stream</text>
<text text-anchor="middle" x="446.5" y="-621.1" font-family="Helvetica,sans-Serif" font-size="8.00">::receive_meta_blob_max_size</text>
</a>
</g>
</g>
<!-- Node1&#45;&gt;Node20 -->
<g id="edge19" class="edge">
<title>Node1&#45;&gt;Node20</title>
<path fill="none" stroke="midnightblue" d="M579.9,-593.87C557.46,-600.33 531.42,-607.83 508.41,-614.46"/>
<polygon fill="midnightblue" stroke="midnightblue" points="580.97,-597.2 589.61,-591.07 579.03,-590.48 580.97,-597.2"/>
</g>
<!-- Node22 -->
<g id="node22" class="node">
<title>Node22</title>
<g id="a_node22"><a xlink:href="classipc_1_1transport_1_1sync__io_1_1Native__socket__stream.html#a16b605c316922325415d60aeb0af3c40" target="_top" xlink:title="OS&#45;reported process credential (PID, etc.) info about the other connected peer&#39;s process,...">
<polygon fill="white" stroke="black" points="366.5,-560.5 366.5,-595.5 526.5,-595.5 526.5,-560.5 366.5,-560.5"/>
<text text-anchor="start" x="374.5" y="-585.1" font-family="Helvetica,sans-Serif" font-size="8.00">ipc::transport::sync</text>
<text text-anchor="start" x="374.5" y="-576.1" font-family="Helvetica,sans-Serif" font-size="8.00">_io::Native_socket_stream</text>
<text text-anchor="middle" x="446.5" y="-567.1" font-family="Helvetica,sans-Serif" font-size="8.00">::remote_peer_process_credentials</text>
</a>
</g>
</g>
<!-- Node1&#45;&gt;Node22 -->
<g id="edge21" class="edge">
<title>Node1&#45;&gt;Node22</title>
<path fill="none" stroke="midnightblue" d="M552.67,-578C543.99,-578 535.18,-578 526.54,-578"/>
<polygon fill="midnightblue" stroke="midnightblue" points="552.78,-581.5 562.78,-578 552.78,-574.5 552.78,-581.5"/>
</g>
<!-- Node23 -->
<g id="node23" class="node">
<title>Node23</title>
<g id="a_node23"><a xlink:href="classipc_1_1transport_1_1sync__io_1_1Native__socket__stream.html#a7488c933bc6734ff20222aef6f841995" target="_top" xlink:title="Template&#45;free version of replace_event_wait_handles() as required by pImpl idiom.">
<polygon fill="white" stroke="black" points="368,-506.5 368,-541.5 525,-541.5 525,-506.5 368,-506.5"/>
<text text-anchor="start" x="376" y="-531.1" font-family="Helvetica,sans-Serif" font-size="8.00">ipc::transport::sync</text>
<text text-anchor="start" x="376" y="-522.1" font-family="Helvetica,sans-Serif" font-size="8.00">_io::Native_socket_stream</text>
<text text-anchor="middle" x="446.5" y="-513.1" font-family="Helvetica,sans-Serif" font-size="8.00">::replace_event_wait_handles_fwd</text>
</a>
</g>
</g>
<!-- Node1&#45;&gt;Node23 -->
<g id="edge22" class="edge">
<title>Node1&#45;&gt;Node23</title>
<path fill="none" stroke="midnightblue" d="M579.9,-562.13C557.46,-555.67 531.42,-548.17 508.41,-541.54"/>
<polygon fill="midnightblue" stroke="midnightblue" points="579.03,-565.52 589.61,-564.93 580.97,-558.8 579.03,-565.52"/>
</g>
<!-- Node26 -->
<g id="node26" class="node">
<title>Node26</title>
<g id="a_node26"><a xlink:href="classipc_1_1transport_1_1sync__io_1_1Native__socket__stream.html#a2e1474a87ee8f5ec18bf6cc8d6cfe7b2" target="_top" xlink:title="Implements Blob_sender API per contract.">
<polygon fill="white" stroke="black" points="385,-452.5 385,-487.5 508,-487.5 508,-452.5 385,-452.5"/>
<text text-anchor="start" x="393" y="-477.1" font-family="Helvetica,sans-Serif" font-size="8.00">ipc::transport::sync</text>
<text text-anchor="start" x="393" y="-468.1" font-family="Helvetica,sans-Serif" font-size="8.00">_io::Native_socket_stream</text>
<text text-anchor="middle" x="446.5" y="-459.1" font-family="Helvetica,sans-Serif" font-size="8.00">::send_blob</text>
</a>
</g>
</g>
<!-- Node1&#45;&gt;Node26 -->
<g id="edge25" class="edge">
<title>Node1&#45;&gt;Node26</title>
<path fill="none" stroke="midnightblue" d="M612.99,-558.17C592.1,-540.2 559.21,-513.99 527,-497 520.42,-493.53 513.31,-490.37 506.14,-487.54"/>
<polygon fill="midnightblue" stroke="midnightblue" points="610.81,-560.91 620.64,-564.85 615.41,-555.64 610.81,-560.91"/>
</g>
<!-- Node27 -->
<g id="node27" class="node">
<title>Node27</title>
<g id="a_node27"><a xlink:href="classipc_1_1transport_1_1sync__io_1_1Native__socket__stream.html#aabfd97c75d56d3f7a492d95040f4b8ab" target="_top" xlink:title="Implements Blob_sender API per contract.">
<polygon fill="white" stroke="black" points="385,-398.5 385,-433.5 508,-433.5 508,-398.5 385,-398.5"/>
<text text-anchor="start" x="393" y="-423.1" font-family="Helvetica,sans-Serif" font-size="8.00">ipc::transport::sync</text>
<text text-anchor="start" x="393" y="-414.1" font-family="Helvetica,sans-Serif" font-size="8.00">_io::Native_socket_stream</text>
<text text-anchor="middle" x="446.5" y="-405.1" font-family="Helvetica,sans-Serif" font-size="8.00">::send_blob_max_size</text>
</a>
</g>
</g>
<!-- Node1&#45;&gt;Node27 -->
<g id="edge26" class="edge">
<title>Node1&#45;&gt;Node27</title>
<path fill="none" stroke="midnightblue" d="M622.88,-556.01C605.42,-526.28 570.46,-473.49 527,-443 521.27,-438.98 514.9,-435.52 508.32,-432.55"/>
<polygon fill="midnightblue" stroke="midnightblue" points="619.91,-557.87 627.92,-564.8 625.98,-554.38 619.91,-557.87"/>
</g>
<!-- Node28 -->
<g id="node28" class="node">
<title>Node28</title>
<g id="a_node28"><a xlink:href="classipc_1_1transport_1_1sync__io_1_1Native__socket__stream.html#a945fb744696feed25067241ce2b6ca4b" target="_top" xlink:title="Implements Native_handle_sender API per contract.">
<polygon fill="white" stroke="black" points="381,-344.5 381,-379.5 512,-379.5 512,-344.5 381,-344.5"/>
<text text-anchor="start" x="389" y="-369.1" font-family="Helvetica,sans-Serif" font-size="8.00">ipc::transport::sync</text>
<text text-anchor="start" x="389" y="-360.1" font-family="Helvetica,sans-Serif" font-size="8.00">_io::Native_socket_stream</text>
<text text-anchor="middle" x="446.5" y="-351.1" font-family="Helvetica,sans-Serif" font-size="8.00">::send_meta_blob_max_size</text>
</a>
</g>
</g>
<!-- Node1&#45;&gt;Node28 -->
<g id="edge27" class="edge">
<title>Node1&#45;&gt;Node28</title>
<path fill="none" stroke="midnightblue" d="M628.03,-555.34C614.75,-515.89 582.14,-434.46 527,-389 522.5,-385.29 517.47,-382.08 512.18,-379.31"/>
<polygon fill="midnightblue" stroke="midnightblue" points="624.7,-556.43 631.12,-564.85 631.36,-554.26 624.7,-556.43"/>
</g>
<!-- Node30 -->
<g id="node30" class="node">
<title>Node30</title>
<g id="a_node30"><a xlink:href="classipc_1_1transport_1_1sync__io_1_1Native__socket__stream.html#a9805f7625a1272af64295555f9a1a61b" target="_top" xlink:title="Implements Native_handle_sender API per contract.">
<polygon fill="white" stroke="black" points="385,-290.5 385,-325.5 508,-325.5 508,-290.5 385,-290.5"/>
<text text-anchor="start" x="393" y="-315.1" font-family="Helvetica,sans-Serif" font-size="8.00">ipc::transport::sync</text>
<text text-anchor="start" x="393" y="-306.1" font-family="Helvetica,sans-Serif" font-size="8.00">_io::Native_socket_stream</text>
<text text-anchor="middle" x="446.5" y="-297.1" font-family="Helvetica,sans-Serif" font-size="8.00">::send_native_handle</text>
</a>
</g>
</g>
<!-- Node1&#45;&gt;Node30 -->
<g id="edge29" class="edge">
<title>Node1&#45;&gt;Node30</title>
<path fill="none" stroke="midnightblue" d="M631.09,-554.77C621.82,-506.81 594.05,-396.22 527,-335 521.51,-329.99 515.05,-325.9 508.23,-322.57"/>
<polygon fill="midnightblue" stroke="midnightblue" points="627.68,-555.58 632.93,-564.78 634.57,-554.31 627.68,-555.58"/>
</g>
<!-- Node32 -->
<g id="node32" class="node">
<title>Node32</title>
<g id="a_node32"><a xlink:href="classipc_1_1transport_1_1sync__io_1_1Native__socket__stream.html#ae980fbf72c11b6511cd3bec06ffef93b" target="_top" xlink:title="Template&#45;free version of start_receive_blob_ops() as required by pImpl idiom.">
<polygon fill="white" stroke="black" points="379.5,-236.5 379.5,-271.5 513.5,-271.5 513.5,-236.5 379.5,-236.5"/>
<text text-anchor="start" x="387.5" y="-261.1" font-family="Helvetica,sans-Serif" font-size="8.00">ipc::transport::sync</text>
<text text-anchor="start" x="387.5" y="-252.1" font-family="Helvetica,sans-Serif" font-size="8.00">_io::Native_socket_stream</text>
<text text-anchor="middle" x="446.5" y="-243.1" font-family="Helvetica,sans-Serif" font-size="8.00">::start_receive_blob_ops_fwd</text>
</a>
</g>
</g>
<!-- Node1&#45;&gt;Node32 -->
<g id="edge31" class="edge">
<title>Node1&#45;&gt;Node32</title>
<path fill="none" stroke="midnightblue" d="M633.23,-554.73C627.77,-499.38 606.41,-358.74 527,-281 523.04,-277.13 518.51,-273.81 513.65,-270.96"/>
<polygon fill="midnightblue" stroke="midnightblue" points="629.76,-555.26 634.14,-564.9 636.73,-554.63 629.76,-555.26"/>
</g>
<!-- Node34 -->
<g id="node34" class="node">
<title>Node34</title>
<g id="a_node34"><a xlink:href="classipc_1_1transport_1_1sync__io_1_1Native__socket__stream.html#acd887142b1f85fa6c69ee1d409dd2292" target="_top" xlink:title="Template&#45;free version of start_receive_native_handle_ops() as required by pImpl idiom.">
<polygon fill="white" stroke="black" points="378,-173 378,-217 515,-217 515,-173 378,-173"/>
<text text-anchor="start" x="386" y="-206.6" font-family="Helvetica,sans-Serif" font-size="8.00">ipc::transport::sync</text>
<text text-anchor="start" x="386" y="-197.6" font-family="Helvetica,sans-Serif" font-size="8.00">_io::Native_socket_stream</text>
<text text-anchor="start" x="386" y="-188.6" font-family="Helvetica,sans-Serif" font-size="8.00">::start_receive_native_handle</text>
<text text-anchor="middle" x="446.5" y="-179.6" font-family="Helvetica,sans-Serif" font-size="8.00">_ops_fwd</text>
</a>
</g>
</g>
<!-- Node1&#45;&gt;Node34 -->
<g id="edge33" class="edge">
<title>Node1&#45;&gt;Node34</title>
<path fill="none" stroke="midnightblue" d="M634.45,-554.7C631.75,-493.1 616.16,-324 527,-227 523.48,-223.17 519.43,-219.78 515.07,-216.8"/>
<polygon fill="midnightblue" stroke="midnightblue" points="630.96,-555.05 634.82,-564.91 637.95,-554.79 630.96,-555.05"/>
</g>
<!-- Node37 -->
<g id="node37" class="node">
<title>Node37</title>
<g id="a_node37"><a xlink:href="classipc_1_1transport_1_1sync__io_1_1Native__socket__stream.html#a9689164ddc7cdba699f73c6cdde47d9c" target="_top" xlink:title="Template&#45;free version of start_send_blob_ops() as required by pImpl idiom.">
<polygon fill="white" stroke="black" points="384,-118.5 384,-153.5 509,-153.5 509,-118.5 384,-118.5"/>
<text text-anchor="start" x="392" y="-143.1" font-family="Helvetica,sans-Serif" font-size="8.00">ipc::transport::sync</text>
<text text-anchor="start" x="392" y="-134.1" font-family="Helvetica,sans-Serif" font-size="8.00">_io::Native_socket_stream</text>
<text text-anchor="middle" x="446.5" y="-125.1" font-family="Helvetica,sans-Serif" font-size="8.00">::start_send_blob_ops_fwd</text>
</a>
</g>
</g>
<!-- Node1&#45;&gt;Node37 -->
<g id="edge36" class="edge">
<title>Node1&#45;&gt;Node37</title>
<path fill="none" stroke="midnightblue" d="M631.8,-554.51C620.64,-475.79 581.16,-222.88 527,-164 521.95,-158.51 515.75,-154.09 509.07,-150.54"/>
<polygon fill="midnightblue" stroke="midnightblue" points="628.39,-555.4 633.24,-564.82 635.32,-554.43 628.39,-555.4"/>
</g>
<!-- Node39 -->
<g id="node39" class="node">
<title>Node39</title>
<g id="a_node39"><a xlink:href="classipc_1_1transport_1_1sync__io_1_1Native__socket__stream.html#aa4cc1d2afc33e2c713ce585689c8f745" target="_top" xlink:title="Template&#45;free version of start_send_native_handle_ops() as required by pImpl idiom.">
<polygon fill="white" stroke="black" points="383,-55 383,-99 510,-99 510,-55 383,-55"/>
<text text-anchor="start" x="391" y="-88.6" font-family="Helvetica,sans-Serif" font-size="8.00">ipc::transport::sync</text>
<text text-anchor="start" x="391" y="-79.6" font-family="Helvetica,sans-Serif" font-size="8.00">_io::Native_socket_stream</text>
<text text-anchor="start" x="391" y="-70.6" font-family="Helvetica,sans-Serif" font-size="8.00">::start_send_native_handle</text>
<text text-anchor="middle" x="446.5" y="-61.6" font-family="Helvetica,sans-Serif" font-size="8.00">_ops_fwd</text>
</a>
</g>
</g>
<!-- Node1&#45;&gt;Node39 -->
<g id="edge38" class="edge">
<title>Node1&#45;&gt;Node39</title>
<path fill="none" stroke="midnightblue" d="M632.51,-554.88C622.95,-470.2 586.23,-178.3 527,-109 522.26,-103.46 516.43,-98.87 510.09,-95.06"/>
<polygon fill="midnightblue" stroke="midnightblue" points="629.05,-555.44 633.63,-564.99 636,-554.67 629.05,-555.44"/>
</g>
<!-- Node42 -->
<g id="node42" class="node">
<title>Node42</title>
<g id="a_node42"><a xlink:href="classipc_1_1transport_1_1sync__io_1_1Native__socket__stream.html#a2e22d55369f5bd67a4e0d277b73f2823" target="_top" xlink:title="Identical to Async_io_obj counterpart.">
<polygon fill="white" stroke="black" points="385,-0.5 385,-35.5 508,-35.5 508,-0.5 385,-0.5"/>
<text text-anchor="start" x="393" y="-25.1" font-family="Helvetica,sans-Serif" font-size="8.00">ipc::transport::sync</text>
<text text-anchor="start" x="393" y="-16.1" font-family="Helvetica,sans-Serif" font-size="8.00">_io::Native_socket_stream</text>
<text text-anchor="middle" x="446.5" y="-7.1" font-family="Helvetica,sans-Serif" font-size="8.00">::sync_connect</text>
</a>
</g>
</g>
<!-- Node1&#45;&gt;Node42 -->
<g id="edge41" class="edge">
<title>Node1&#45;&gt;Node42</title>
<path fill="none" stroke="midnightblue" d="M633.28,-554.71C626.05,-462.53 595.23,-124.39 527,-46 521.81,-40.04 515.28,-35.35 508.19,-31.66"/>
<polygon fill="midnightblue" stroke="midnightblue" points="629.8,-555 634.05,-564.7 636.78,-554.46 629.8,-555"/>
</g>
<!-- Node3 -->
<g id="node3" class="node">
<title>Node3</title>
<g id="a_node3"><a xlink:href="classipc_1_1transport_1_1sync__io_1_1Native__socket__stream.html#afb680eb576497ac7e05e8294b49da0eb" target="_top" xlink:title="Implements Native_handle_sender, Blob_sender API per contract.">
<polygon fill="white" stroke="black" points="191,-1100.5 191,-1135.5 314,-1135.5 314,-1100.5 191,-1100.5"/>
<text text-anchor="start" x="199" y="-1125.1" font-family="Helvetica,sans-Serif" font-size="8.00">ipc::transport::sync</text>
<text text-anchor="start" x="199" y="-1116.1" font-family="Helvetica,sans-Serif" font-size="8.00">_io::Native_socket_stream</text>
<text text-anchor="middle" x="252.5" y="-1107.1" font-family="Helvetica,sans-Serif" font-size="8.00">::async_end_sending</text>
</a>
</g>
</g>
<!-- Node2&#45;&gt;Node3 -->
<g id="edge2" class="edge">
<title>Node2&#45;&gt;Node3</title>
<path fill="none" stroke="midnightblue" d="M374.54,-1118C354.72,-1118 333.36,-1118 314.18,-1118"/>
<polygon fill="midnightblue" stroke="midnightblue" points="374.75,-1121.5 384.75,-1118 374.75,-1114.5 374.75,-1121.5"/>
</g>
<!-- Node5 -->
<g id="node5" class="node">
<title>Node5</title>
<g id="a_node5"><a xlink:href="classipc_1_1transport_1_1sync__io_1_1Native__socket__stream.html#a8b5fc40ddcdda4b7c78672e9b9dc53c2" target="_top" xlink:title="Implements Blob_receiver API per contract.">
<polygon fill="white" stroke="black" points="191,-1046.5 191,-1081.5 314,-1081.5 314,-1046.5 191,-1046.5"/>
<text text-anchor="start" x="199" y="-1071.1" font-family="Helvetica,sans-Serif" font-size="8.00">ipc::transport::sync</text>
<text text-anchor="start" x="199" y="-1062.1" font-family="Helvetica,sans-Serif" font-size="8.00">_io::Native_socket_stream</text>
<text text-anchor="middle" x="252.5" y="-1053.1" font-family="Helvetica,sans-Serif" font-size="8.00">::async_receive_blob</text>
</a>
</g>
</g>
<!-- Node4&#45;&gt;Node5 -->
<g id="edge4" class="edge">
<title>Node4&#45;&gt;Node5</title>
<path fill="none" stroke="midnightblue" d="M374.54,-1064C354.72,-1064 333.36,-1064 314.18,-1064"/>
<polygon fill="midnightblue" stroke="midnightblue" points="374.75,-1067.5 384.75,-1064 374.75,-1060.5 374.75,-1067.5"/>
</g>
<!-- Node7 -->
<g id="node7" class="node">
<title>Node7</title>
<g id="a_node7"><a xlink:href="classipc_1_1transport_1_1sync__io_1_1Native__socket__stream.html#a04effad6ce75fc5c8e6cbee5a26b73e8" target="_top" xlink:title="Implements Native_handle_receiver API per contract.">
<polygon fill="white" stroke="black" points="181.5,-992.5 181.5,-1027.5 323.5,-1027.5 323.5,-992.5 181.5,-992.5"/>
<text text-anchor="start" x="189.5" y="-1017.1" font-family="Helvetica,sans-Serif" font-size="8.00">ipc::transport::sync</text>
<text text-anchor="start" x="189.5" y="-1008.1" font-family="Helvetica,sans-Serif" font-size="8.00">_io::Native_socket_stream</text>
<text text-anchor="middle" x="252.5" y="-999.1" font-family="Helvetica,sans-Serif" font-size="8.00">::async_receive_native_handle</text>
</a>
</g>
</g>
<!-- Node6&#45;&gt;Node7 -->
<g id="edge6" class="edge">
<title>Node6&#45;&gt;Node7</title>
<path fill="none" stroke="midnightblue" d="M355.5,-1010C344.76,-1010 333.92,-1010 323.52,-1010"/>
<polygon fill="midnightblue" stroke="midnightblue" points="355.74,-1013.5 365.74,-1010 355.74,-1006.5 355.74,-1013.5"/>
</g>
<!-- Node11 -->
<g id="node11" class="node">
<title>Node11</title>
<g id="a_node11"><a xlink:href="classipc_1_1transport_1_1sync__io_1_1Native__socket__stream_1_1Impl.html#ad6443fb49be059dbe76c75d86a18197e" target="_top" xlink:title="The core of sync_connect(), written in the sync_io&#45;pattern style.">
<polygon fill="white" stroke="black" points="191,-938.5 191,-973.5 314,-973.5 314,-938.5 191,-938.5"/>
<text text-anchor="start" x="199" y="-963.1" font-family="Helvetica,sans-Serif" font-size="8.00">ipc::transport::sync</text>
<text text-anchor="start" x="199" y="-954.1" font-family="Helvetica,sans-Serif" font-size="8.00">_io::Native_socket_stream</text>
<text text-anchor="middle" x="252.5" y="-945.1" font-family="Helvetica,sans-Serif" font-size="8.00">::Impl::async_connect</text>
</a>
</g>
</g>
<!-- Node10&#45;&gt;Node11 -->
<g id="edge10" class="edge">
<title>Node10&#45;&gt;Node11</title>
<path fill="none" stroke="midnightblue" d="M375.58,-868.62C372.23,-870.57 369.01,-872.69 366,-875 343.13,-892.57 352.77,-911.29 330,-929 325.22,-932.72 319.89,-935.95 314.32,-938.75"/>
<polygon fill="midnightblue" stroke="midnightblue" points="377.47,-871.59 384.73,-863.88 374.24,-865.37 377.47,-871.59"/>
</g>
<!-- Node12 -->
<g id="node12" class="node">
<title>Node12</title>
<g id="a_node12"><a xlink:href="classipc_1_1transport_1_1sync__io_1_1Native__socket__stream_1_1Impl.html#ae9194e2eefe81185d1bf067b1f934657" target="_top" xlink:title="See Native_socket_stream counterpart.">
<polygon fill="white" stroke="black" points="191,-884.5 191,-919.5 314,-919.5 314,-884.5 191,-884.5"/>
<text text-anchor="start" x="199" y="-909.1" font-family="Helvetica,sans-Serif" font-size="8.00">ipc::transport::sync</text>
<text text-anchor="start" x="199" y="-900.1" font-family="Helvetica,sans-Serif" font-size="8.00">_io::Native_socket_stream</text>
<text text-anchor="middle" x="252.5" y="-891.1" font-family="Helvetica,sans-Serif" font-size="8.00">::Impl::Impl</text>
</a>
</g>
</g>
<!-- Node10&#45;&gt;Node12 -->
<g id="edge11" class="edge">
<title>Node10&#45;&gt;Node12</title>
<path fill="none" stroke="midnightblue" d="M375.09,-867.8C355.11,-873.42 333.53,-879.49 314.18,-884.93"/>
<polygon fill="midnightblue" stroke="midnightblue" points="376.07,-871.16 384.75,-865.09 374.18,-864.42 376.07,-871.16"/>
</g>
<!-- Node13 -->
<g id="node13" class="node">
<title>Node13</title>
<g id="a_node13"><a xlink:href="classipc_1_1transport_1_1sync__io_1_1Native__socket__stream_1_1Impl.html#a25e051170a8eb568745f809bb186f980" target="_top" xlink:title="Utility that synchronously, non&#45;blockingly attempts to read over m_peer_socket into the target blob a...">
<polygon fill="white" stroke="black" points="191,-821 191,-865 314,-865 314,-821 191,-821"/>
<text text-anchor="start" x="199" y="-854.6" font-family="Helvetica,sans-Serif" font-size="8.00">ipc::transport::sync</text>
<text text-anchor="start" x="199" y="-845.6" font-family="Helvetica,sans-Serif" font-size="8.00">_io::Native_socket_stream</text>
<text text-anchor="start" x="199" y="-836.6" font-family="Helvetica,sans-Serif" font-size="8.00">::Impl::rcv_nb_read_low</text>
<text text-anchor="middle" x="252.5" y="-827.6" font-family="Helvetica,sans-Serif" font-size="8.00">_lvl_payload</text>
</a>
</g>
</g>
<!-- Node10&#45;&gt;Node13 -->
<g id="edge12" class="edge">
<title>Node10&#45;&gt;Node13</title>
<path fill="none" stroke="midnightblue" d="M374.54,-846.15C354.72,-845.64 333.36,-845.08 314.18,-844.58"/>
<polygon fill="midnightblue" stroke="midnightblue" points="374.66,-849.66 384.75,-846.42 374.84,-842.66 374.66,-849.66"/>
</g>
<!-- Node14 -->
<g id="node14" class="node">
<title>Node14</title>
<g id="a_node14"><a xlink:href="classipc_1_1transport_1_1sync__io_1_1Native__socket__stream_1_1Impl.html#af321a9b3ed8dc21f23988bf79c7c33f0" target="_top" xlink:title="Utility that sends non&#45;empty blob, and (unless null) hndl_or_null associated with its 1st byte,...">
<polygon fill="white" stroke="black" points="191,-758 191,-802 314,-802 314,-758 191,-758"/>
<text text-anchor="start" x="199" y="-791.6" font-family="Helvetica,sans-Serif" font-size="8.00">ipc::transport::sync</text>
<text text-anchor="start" x="199" y="-782.6" font-family="Helvetica,sans-Serif" font-size="8.00">_io::Native_socket_stream</text>
<text text-anchor="start" x="199" y="-773.6" font-family="Helvetica,sans-Serif" font-size="8.00">::Impl::snd_nb_write_low</text>
<text text-anchor="middle" x="252.5" y="-764.6" font-family="Helvetica,sans-Serif" font-size="8.00">_lvl_payload</text>
</a>
</g>
</g>
<!-- Node10&#45;&gt;Node14 -->
<g id="edge13" class="edge">
<title>Node10&#45;&gt;Node14</title>
<path fill="none" stroke="midnightblue" d="M383.39,-827.05C377.51,-825.03 371.64,-822.98 366,-821 348.84,-814.96 330.27,-808.26 313.26,-802.06"/>
<polygon fill="midnightblue" stroke="midnightblue" points="382.68,-830.51 393.27,-830.45 384.95,-823.89 382.68,-830.51"/>
</g>
<!-- Node15 -->
<g id="node15" class="node">
<title>Node15</title>
<g id="a_node15"><a xlink:href="classipc_1_1transport_1_1sync__io_1_1Native__socket__stream_1_1Impl.html#a3c1c949f345f0ceef5eeca3c2edec291" target="_top" xlink:title="Either synchronously sends hndl_or_null handle (if any) and orig_blob low&#45;level blob over m_peer_sock...">
<polygon fill="white" stroke="black" points="191,-695 191,-739 314,-739 314,-695 191,-695"/>
<text text-anchor="start" x="199" y="-728.6" font-family="Helvetica,sans-Serif" font-size="8.00">ipc::transport::sync</text>
<text text-anchor="start" x="199" y="-719.6" font-family="Helvetica,sans-Serif" font-size="8.00">_io::Native_socket_stream</text>
<text text-anchor="start" x="199" y="-710.6" font-family="Helvetica,sans-Serif" font-size="8.00">::Impl::snd_sync_write_or</text>
<text text-anchor="middle" x="252.5" y="-701.6" font-family="Helvetica,sans-Serif" font-size="8.00">_q_payload</text>
</a>
</g>
</g>
<!-- Node10&#45;&gt;Node15 -->
<g id="edge14" class="edge">
<title>Node10&#45;&gt;Node15</title>
<path fill="none" stroke="midnightblue" d="M375.92,-828.26C372.4,-826.08 369.06,-823.67 366,-821 339.04,-797.48 356.14,-773.43 330,-749 325.27,-744.58 319.83,-740.72 314.09,-737.37"/>
<polygon fill="midnightblue" stroke="midnightblue" points="374.53,-831.48 384.99,-833.19 377.87,-825.33 374.53,-831.48"/>
</g>
<!-- Node16 -->
<g id="node16" class="node">
<title>Node16</title>
<g id="a_node16"><a xlink:href="classipc_1_1transport_1_1sync__io_1_1Native__socket__stream_1_1Impl.html#a65eea0cec146df598fce1d9ab5ce7e15" target="_top" xlink:title="See Native_socket_stream counterpart.">
<polygon fill="white" stroke="black" points="8,-695 8,-739 131,-739 131,-695 8,-695"/>
<text text-anchor="start" x="16" y="-728.6" font-family="Helvetica,sans-Serif" font-size="8.00">ipc::transport::sync</text>
<text text-anchor="start" x="16" y="-719.6" font-family="Helvetica,sans-Serif" font-size="8.00">_io::Native_socket_stream</text>
<text text-anchor="start" x="16" y="-710.6" font-family="Helvetica,sans-Serif" font-size="8.00">::Impl::start_send_native</text>
<text text-anchor="middle" x="69.5" y="-701.6" font-family="Helvetica,sans-Serif" font-size="8.00">_handle_ops</text>
</a>
</g>
</g>
<!-- Node15&#45;&gt;Node16 -->
<g id="edge15" class="edge">
<title>Node15&#45;&gt;Node16</title>
<path fill="none" stroke="midnightblue" d="M180.91,-717C164.51,-717 147.2,-717 131.27,-717"/>
<polygon fill="midnightblue" stroke="midnightblue" points="180.98,-720.5 190.98,-717 180.98,-713.5 180.98,-720.5"/>
</g>
<!-- Node21 -->
<g id="node21" class="node">
<title>Node21</title>
<g id="a_node21"><a xlink:href="classipc_1_1transport_1_1sync__io_1_1Native__socket__stream_1_1Impl.html#ace12ebbb258f933e517255294f372795" target="_top" xlink:title="See Native_socket_stream counterpart.">
<polygon fill="white" stroke="black" points="183,-614.5 183,-649.5 322,-649.5 322,-614.5 183,-614.5"/>
<text text-anchor="start" x="191" y="-639.1" font-family="Helvetica,sans-Serif" font-size="8.00">ipc::transport::sync</text>
<text text-anchor="start" x="191" y="-630.1" font-family="Helvetica,sans-Serif" font-size="8.00">_io::Native_socket_stream</text>
<text text-anchor="middle" x="252.5" y="-621.1" font-family="Helvetica,sans-Serif" font-size="8.00">::Impl::receive_blob_max_size</text>
</a>
</g>
</g>
<!-- Node20&#45;&gt;Node21 -->
<g id="edge20" class="edge">
<title>Node20&#45;&gt;Node21</title>
<path fill="none" stroke="midnightblue" d="M366.42,-632C351.76,-632 336.57,-632 322.26,-632"/>
<polygon fill="midnightblue" stroke="midnightblue" points="366.45,-635.5 376.45,-632 366.45,-628.5 366.45,-635.5"/>
</g>
<!-- Node24 -->
<g id="node24" class="node">
<title>Node24</title>
<g id="a_node24"><a xlink:href="classipc_1_1transport_1_1sync__io_1_1Native__socket__stream.html#af5e6e5ccf19782cb698017e9dcf85b34" target="_top" xlink:title="Implements Native_handle_sender and Native_handle_receiver APIs at the same time, per their concept c...">
<polygon fill="white" stroke="black" points="183.5,-506.5 183.5,-541.5 321.5,-541.5 321.5,-506.5 183.5,-506.5"/>
<text text-anchor="start" x="191.5" y="-531.1" font-family="Helvetica,sans-Serif" font-size="8.00">ipc::transport::sync</text>
<text text-anchor="start" x="191.5" y="-522.1" font-family="Helvetica,sans-Serif" font-size="8.00">_io::Native_socket_stream</text>
<text text-anchor="middle" x="252.5" y="-513.1" font-family="Helvetica,sans-Serif" font-size="8.00">::replace_event_wait_handles</text>
</a>
</g>
</g>
<!-- Node23&#45;&gt;Node24 -->
<g id="edge23" class="edge">
<title>Node23&#45;&gt;Node24</title>
<path fill="none" stroke="midnightblue" d="M357.84,-524C345.73,-524 333.44,-524 321.75,-524"/>
<polygon fill="midnightblue" stroke="midnightblue" points="357.96,-527.5 367.96,-524 357.96,-520.5 357.96,-527.5"/>
</g>
<!-- Node25 -->
<g id="node25" class="node">
<title>Node25</title>
<g id="a_node25"><a xlink:href="classipc_1_1transport_1_1Native__socket__stream_1_1Impl.html#ae6713aa742cee52ae9ca16156d1f8599" target="_top" xlink:title="Core delegated&#45;to ctor: does everything except m_sync_io.start_*_ops().">
<polygon fill="white" stroke="black" points="6.5,-511 6.5,-537 132.5,-537 132.5,-511 6.5,-511"/>
<text text-anchor="start" x="14.5" y="-526.6" font-family="Helvetica,sans-Serif" font-size="8.00">ipc::transport::Native</text>
<text text-anchor="middle" x="69.5" y="-517.6" font-family="Helvetica,sans-Serif" font-size="8.00">_socket_stream::Impl::Impl</text>
</a>
</g>
</g>
<!-- Node24&#45;&gt;Node25 -->
<g id="edge24" class="edge">
<title>Node24&#45;&gt;Node25</title>
<path fill="none" stroke="midnightblue" d="M173.08,-524C159.56,-524 145.67,-524 132.65,-524"/>
<polygon fill="midnightblue" stroke="midnightblue" points="173.33,-527.5 183.33,-524 173.33,-520.5 173.33,-527.5"/>
</g>
<!-- Node29 -->
<g id="node29" class="node">
<title>Node29</title>
<g id="a_node29"><a xlink:href="classipc_1_1transport_1_1sync__io_1_1Native__socket__stream_1_1Impl.html#afa6b6e1be0f00add0b53b3263c412c76" target="_top" xlink:title="See Native_socket_stream counterpart.">
<polygon fill="white" stroke="black" points="188,-344.5 188,-379.5 317,-379.5 317,-344.5 188,-344.5"/>
<text text-anchor="start" x="196" y="-369.1" font-family="Helvetica,sans-Serif" font-size="8.00">ipc::transport::sync</text>
<text text-anchor="start" x="196" y="-360.1" font-family="Helvetica,sans-Serif" font-size="8.00">_io::Native_socket_stream</text>
<text text-anchor="middle" x="252.5" y="-351.1" font-family="Helvetica,sans-Serif" font-size="8.00">::Impl::send_blob_max_size</text>
</a>
</g>
</g>
<!-- Node28&#45;&gt;Node29 -->
<g id="edge28" class="edge">
<title>Node28&#45;&gt;Node29</title>
<path fill="none" stroke="midnightblue" d="M370.54,-362C352.94,-362 334.36,-362 317.3,-362"/>
<polygon fill="midnightblue" stroke="midnightblue" points="370.77,-365.5 380.77,-362 370.77,-358.5 370.77,-365.5"/>
</g>
<!-- Node31 -->
<g id="node31" class="node">
<title>Node31</title>
<g id="a_node31"><a xlink:href="classipc_1_1transport_1_1sync__io_1_1Native__socket__stream_1_1Impl.html#aaef639c110a0e3d6804da84f9458ae78" target="_top" xlink:title="See Native_socket_stream counterpart.">
<polygon fill="white" stroke="black" points="191,-290.5 191,-325.5 314,-325.5 314,-290.5 191,-290.5"/>
<text text-anchor="start" x="199" y="-315.1" font-family="Helvetica,sans-Serif" font-size="8.00">ipc::transport::sync</text>
<text text-anchor="start" x="199" y="-306.1" font-family="Helvetica,sans-Serif" font-size="8.00">_io::Native_socket_stream</text>
<text text-anchor="middle" x="252.5" y="-297.1" font-family="Helvetica,sans-Serif" font-size="8.00">::Impl::send_blob</text>
</a>
</g>
</g>
<!-- Node30&#45;&gt;Node31 -->
<g id="edge30" class="edge">
<title>Node30&#45;&gt;Node31</title>
<path fill="none" stroke="midnightblue" d="M374.54,-308C354.72,-308 333.36,-308 314.18,-308"/>
<polygon fill="midnightblue" stroke="midnightblue" points="374.75,-311.5 384.75,-308 374.75,-304.5 374.75,-311.5"/>
</g>
<!-- Node33 -->
<g id="node33" class="node">
<title>Node33</title>
<g id="a_node33"><a xlink:href="classipc_1_1transport_1_1sync__io_1_1Native__socket__stream.html#a931e45a395d0bef15084db3b6b1e9754" target="_top" xlink:title="Implements Blob_receiver API per contract.">
<polygon fill="white" stroke="black" points="191,-236.5 191,-271.5 314,-271.5 314,-236.5 191,-236.5"/>
<text text-anchor="start" x="199" y="-261.1" font-family="Helvetica,sans-Serif" font-size="8.00">ipc::transport::sync</text>
<text text-anchor="start" x="199" y="-252.1" font-family="Helvetica,sans-Serif" font-size="8.00">_io::Native_socket_stream</text>
<text text-anchor="middle" x="252.5" y="-243.1" font-family="Helvetica,sans-Serif" font-size="8.00">::start_receive_blob_ops</text>
</a>
</g>
</g>
<!-- Node32&#45;&gt;Node33 -->
<g id="edge32" class="edge">
<title>Node32&#45;&gt;Node33</title>
<path fill="none" stroke="midnightblue" d="M369.37,-254C351.05,-254 331.72,-254 314.21,-254"/>
<polygon fill="midnightblue" stroke="midnightblue" points="369.42,-257.5 379.42,-254 369.42,-250.5 369.42,-257.5"/>
</g>
<!-- Node35 -->
<g id="node35" class="node">
<title>Node35</title>
<g id="a_node35"><a xlink:href="classipc_1_1transport_1_1sync__io_1_1Native__socket__stream.html#ac6d65bc2852ad8800cb57a23311fbe7e" target="_top" xlink:title="Implements Native_handle_receiver API per contract.">
<polygon fill="white" stroke="black" points="175,-177.5 175,-212.5 330,-212.5 330,-177.5 175,-177.5"/>
<text text-anchor="start" x="183" y="-202.1" font-family="Helvetica,sans-Serif" font-size="8.00">ipc::transport::sync</text>
<text text-anchor="start" x="183" y="-193.1" font-family="Helvetica,sans-Serif" font-size="8.00">_io::Native_socket_stream</text>
<text text-anchor="middle" x="252.5" y="-184.1" font-family="Helvetica,sans-Serif" font-size="8.00">::start_receive_native_handle_ops</text>
</a>
</g>
</g>
<!-- Node34&#45;&gt;Node35 -->
<g id="edge34" class="edge">
<title>Node34&#45;&gt;Node35</title>
<path fill="none" stroke="midnightblue" d="M367.54,-195C355.18,-195 342.41,-195 330.08,-195"/>
<polygon fill="midnightblue" stroke="midnightblue" points="367.81,-198.5 377.81,-195 367.81,-191.5 367.81,-198.5"/>
</g>
<!-- Node36 -->
<g id="node36" class="node">
<title>Node36</title>
<g id="a_node36"><a xlink:href="classipc_1_1transport_1_1sync__io_1_1Native__socket__stream_1_1Impl.html#a12e99a2479fbf08b2fa32a2f17ed1ca7" target="_top" xlink:title="See Native_socket_stream counterpart.">
<polygon fill="white" stroke="black" points="0,-177.5 0,-212.5 139,-212.5 139,-177.5 0,-177.5"/>
<text text-anchor="start" x="8" y="-202.1" font-family="Helvetica,sans-Serif" font-size="8.00">ipc::transport::sync</text>
<text text-anchor="start" x="8" y="-193.1" font-family="Helvetica,sans-Serif" font-size="8.00">_io::Native_socket_stream</text>
<text text-anchor="middle" x="69.5" y="-184.1" font-family="Helvetica,sans-Serif" font-size="8.00">::Impl::start_receive_blob_ops</text>
</a>
</g>
</g>
<!-- Node35&#45;&gt;Node36 -->
<g id="edge35" class="edge">
<title>Node35&#45;&gt;Node36</title>
<path fill="none" stroke="midnightblue" d="M164.68,-195C156.08,-195 147.44,-195 139.06,-195"/>
<polygon fill="midnightblue" stroke="midnightblue" points="164.74,-198.5 174.74,-195 164.74,-191.5 164.74,-198.5"/>
</g>
<!-- Node38 -->
<g id="node38" class="node">
<title>Node38</title>
<g id="a_node38"><a xlink:href="classipc_1_1transport_1_1sync__io_1_1Native__socket__stream.html#a2b1fa31c4d8ac11683472b83efe7956a" target="_top" xlink:title="Implements Blob_sender API per contract.">
<polygon fill="white" stroke="black" points="191,-118.5 191,-153.5 314,-153.5 314,-118.5 191,-118.5"/>
<text text-anchor="start" x="199" y="-143.1" font-family="Helvetica,sans-Serif" font-size="8.00">ipc::transport::sync</text>
<text text-anchor="start" x="199" y="-134.1" font-family="Helvetica,sans-Serif" font-size="8.00">_io::Native_socket_stream</text>
<text text-anchor="middle" x="252.5" y="-125.1" font-family="Helvetica,sans-Serif" font-size="8.00">::start_send_blob_ops</text>
</a>
</g>
</g>
<!-- Node37&#45;&gt;Node38 -->
<g id="edge37" class="edge">
<title>Node37&#45;&gt;Node38</title>
<path fill="none" stroke="midnightblue" d="M373.82,-136C354.15,-136 333.02,-136 314.04,-136"/>
<polygon fill="midnightblue" stroke="midnightblue" points="373.96,-139.5 383.96,-136 373.96,-132.5 373.96,-139.5"/>
</g>
<!-- Node40 -->
<g id="node40" class="node">
<title>Node40</title>
<g id="a_node40"><a xlink:href="classipc_1_1transport_1_1sync__io_1_1Native__socket__stream.html#a2bd0b6a8badd0b770917bb9df9ad6093" target="_top" xlink:title="Implements Native_handle_sender API per contract.">
<polygon fill="white" stroke="black" points="179.5,-59.5 179.5,-94.5 325.5,-94.5 325.5,-59.5 179.5,-59.5"/>
<text text-anchor="start" x="187.5" y="-84.1" font-family="Helvetica,sans-Serif" font-size="8.00">ipc::transport::sync</text>
<text text-anchor="start" x="187.5" y="-75.1" font-family="Helvetica,sans-Serif" font-size="8.00">_io::Native_socket_stream</text>
<text text-anchor="middle" x="252.5" y="-66.1" font-family="Helvetica,sans-Serif" font-size="8.00">::start_send_native_handle_ops</text>
</a>
</g>
</g>
<!-- Node39&#45;&gt;Node40 -->
<g id="edge39" class="edge">
<title>Node39&#45;&gt;Node40</title>
<path fill="none" stroke="midnightblue" d="M372.89,-77C357.43,-77 341.12,-77 325.69,-77"/>
<polygon fill="midnightblue" stroke="midnightblue" points="372.9,-80.5 382.9,-77 372.9,-73.5 372.9,-80.5"/>
</g>
<!-- Node41 -->
<g id="node41" class="node">
<title>Node41</title>
<g id="a_node41"><a xlink:href="classipc_1_1transport_1_1sync__io_1_1Native__socket__stream_1_1Impl.html#a6a01d2df2772ee72e4386e84684394e3" target="_top" xlink:title="See Native_socket_stream counterpart.">
<polygon fill="white" stroke="black" points="5,-59.5 5,-94.5 134,-94.5 134,-59.5 5,-59.5"/>
<text text-anchor="start" x="13" y="-84.1" font-family="Helvetica,sans-Serif" font-size="8.00">ipc::transport::sync</text>
<text text-anchor="start" x="13" y="-75.1" font-family="Helvetica,sans-Serif" font-size="8.00">_io::Native_socket_stream</text>
<text text-anchor="middle" x="69.5" y="-66.1" font-family="Helvetica,sans-Serif" font-size="8.00">::Impl::start_send_blob_ops</text>
</a>
</g>
</g>
<!-- Node40&#45;&gt;Node41 -->
<g id="edge40" class="edge">
<title>Node40&#45;&gt;Node41</title>
<path fill="none" stroke="midnightblue" d="M169.17,-77C157.4,-77 145.45,-77 134.11,-77"/>
<polygon fill="midnightblue" stroke="midnightblue" points="169.44,-80.5 179.44,-77 169.44,-73.5 169.44,-80.5"/>
</g>
<!-- Node43 -->
<g id="node43" class="node">
<title>Node43</title>
<g id="a_node43"><a xlink:href="classipc_1_1session_1_1Client__session__impl.html#a56c0d2b0ff082d1f7b0738e2528b4a92" target="_top" xlink:title="Core implementation of sync_connect().">
<polygon fill="white" stroke="black" points="201,-0.5 201,-35.5 304,-35.5 304,-0.5 201,-0.5"/>
<text text-anchor="start" x="209" y="-25.1" font-family="Helvetica,sans-Serif" font-size="8.00">ipc::session::Client</text>
<text text-anchor="start" x="209" y="-16.1" font-family="Helvetica,sans-Serif" font-size="8.00">_session_impl::async</text>
<text text-anchor="middle" x="252.5" y="-7.1" font-family="Helvetica,sans-Serif" font-size="8.00">_connect</text>
</a>
</g>
</g>
<!-- Node42&#45;&gt;Node43 -->
<g id="edge42" class="edge">
<title>Node42&#45;&gt;Node43</title>
<path fill="none" stroke="midnightblue" d="M374.54,-18C351.2,-18 325.73,-18 304.2,-18"/>
<polygon fill="midnightblue" stroke="midnightblue" points="374.75,-21.5 384.75,-18 374.75,-14.5 374.75,-21.5"/>
</g>
</g>
</svg>
