<?xml version="1.0" encoding="UTF-8" standalone="no"?>
<!DOCTYPE svg PUBLIC "-//W3C//DTD SVG 1.1//EN"
 "http://www.w3.org/Graphics/SVG/1.1/DTD/svg11.dtd">
<!-- Generated by graphviz version 2.43.0 (0)
 -->
<!-- Title: ipc::transport::Blob_stream_mq_base_impl::remove_persistent Pages: 1 -->
<svg width="280pt" height="44pt"
 viewBox="0.00 0.00 280.00 44.00" xmlns="http://www.w3.org/2000/svg" xmlns:xlink="http://www.w3.org/1999/xlink">
<g id="graph0" class="graph" transform="scale(1 1) rotate(0) translate(4 40)">
<title>ipc::transport::Blob_stream_mq_base_impl::remove_persistent</title>
<polygon fill="white" stroke="transparent" points="-4,4 -4,-40 276,-40 276,4 -4,4"/>
<!-- Node1 -->
<g id="node1" class="node">
<title>Node1</title>
<g id="a_node1"><a xlink:title="See Blob_stream_mq_base counterpart.">
<polygon fill="#bfbfbf" stroke="black" points="162,-0.5 162,-35.5 272,-35.5 272,-0.5 162,-0.5"/>
<text text-anchor="start" x="170" y="-25.1" font-family="Helvetica,sans-Serif" font-size="8.00">ipc::transport::Blob</text>
<text text-anchor="start" x="170" y="-16.1" font-family="Helvetica,sans-Serif" font-size="8.00">_stream_mq_base_impl</text>
<text text-anchor="middle" x="217" y="-7.1" font-family="Helvetica,sans-Serif" font-size="8.00">::remove_persistent</text>
</a>
</g>
</g>
<!-- Node2 -->
<g id="node2" class="node">
<title>Node2</title>
<g id="a_node2"><a xlink:href="classipc_1_1transport_1_1Blob__stream__mq__base.html#ac1230ff7e73783da730b8639c30511e2" target="_top" xlink:title="Removes the Blob_stream_mq_sender and/or Blob_stream_mq_receiver persistent resources associated with...">
<polygon fill="white" stroke="black" points="0,-0.5 0,-35.5 126,-35.5 126,-0.5 0,-0.5"/>
<text text-anchor="start" x="8" y="-25.1" font-family="Helvetica,sans-Serif" font-size="8.00">ipc::transport::Blob</text>
<text text-anchor="start" x="8" y="-16.1" font-family="Helvetica,sans-Serif" font-size="8.00">_stream_mq_base::remove</text>
<text text-anchor="middle" x="63" y="-7.1" font-family="Helvetica,sans-Serif" font-size="8.00">_persistent</text>
</a>
</g>
</g>
<!-- Node1&#45;&gt;Node2 -->
<g id="edge1" class="edge">
<title>Node1&#45;&gt;Node2</title>
<path fill="none" stroke="midnightblue" d="M151.76,-18C143.28,-18 134.59,-18 126.14,-18"/>
<polygon fill="midnightblue" stroke="midnightblue" points="151.98,-21.5 161.98,-18 151.98,-14.5 151.98,-21.5"/>
</g>
</g>
</svg>
