<?xml version="1.0" encoding="UTF-8" standalone="no"?>
<!DOCTYPE svg PUBLIC "-//W3C//DTD SVG 1.1//EN"
 "http://www.w3.org/Graphics/SVG/1.1/DTD/svg11.dtd">
<!-- Generated by graphviz version 2.43.0 (0)
 -->
<!-- Title: ipc::transport::sync_io::Native_socket_stream::Impl::snd_sync_write_or_q_payload Pages: 1 -->
<svg width="472pt" height="90pt"
 viewBox="0.00 0.00 472.00 89.50" xmlns="http://www.w3.org/2000/svg" xmlns:xlink="http://www.w3.org/1999/xlink">
<g id="graph0" class="graph" transform="scale(1 1) rotate(0) translate(4 85.5)">
<title>ipc::transport::sync_io::Native_socket_stream::Impl::snd_sync_write_or_q_payload</title>
<polygon fill="white" stroke="transparent" points="-4,4 -4,-85.5 468,-85.5 468,4 -4,4"/>
<!-- Node1 -->
<g id="node1" class="node">
<title>Node1</title>
<g id="a_node1"><a xlink:title="Either synchronously sends hndl_or_null handle (if any) and orig_blob low&#45;level blob over m_peer_sock...">
<polygon fill="#bfbfbf" stroke="black" points="0,-16.5 0,-60.5 123,-60.5 123,-16.5 0,-16.5"/>
<text text-anchor="start" x="8" y="-50.1" font-family="Helvetica,sans-Serif" font-size="8.00">ipc::transport::sync</text>
<text text-anchor="start" x="8" y="-41.1" font-family="Helvetica,sans-Serif" font-size="8.00">_io::Native_socket_stream</text>
<text text-anchor="start" x="8" y="-32.1" font-family="Helvetica,sans-Serif" font-size="8.00">::Impl::snd_sync_write_or</text>
<text text-anchor="middle" x="61.5" y="-23.1" font-family="Helvetica,sans-Serif" font-size="8.00">_q_payload</text>
</a>
</g>
</g>
<!-- Node2 -->
<g id="node2" class="node">
<title>Node2</title>
<g id="a_node2"><a xlink:href="classipc_1_1transport_1_1sync__io_1_1Native__socket__stream.html#aac68d14f4ef33505399df4fd04cd4669" target="_top" xlink:title="Returns logger (possibly null).">
<polygon fill="white" stroke="black" points="159,-46 159,-81 282,-81 282,-46 159,-46"/>
<text text-anchor="start" x="167" y="-70.6" font-family="Helvetica,sans-Serif" font-size="8.00">ipc::transport::sync</text>
<text text-anchor="start" x="167" y="-61.6" font-family="Helvetica,sans-Serif" font-size="8.00">_io::Native_socket_stream</text>
<text text-anchor="middle" x="220.5" y="-52.6" font-family="Helvetica,sans-Serif" font-size="8.00">::get_logger</text>
</a>
</g>
</g>
<!-- Node1&#45;&gt;Node2 -->
<g id="edge1" class="edge">
<title>Node1&#45;&gt;Node2</title>
<path fill="none" stroke="midnightblue" d="M123.2,-48.17C131.64,-49.51 140.36,-50.9 148.95,-52.27"/>
<polygon fill="midnightblue" stroke="midnightblue" points="148.54,-55.74 158.96,-53.86 149.64,-48.83 148.54,-55.74"/>
</g>
<!-- Node4 -->
<g id="node4" class="node">
<title>Node4</title>
<g id="a_node4"><a xlink:href="structipc_1_1util_1_1Native__handle.html#a11bd62ce0a7bef4bdfe666201c26d4dc" target="_top" xlink:title="Returns true if and only if m_native_handle equals S_NULL_HANDLE.">
<polygon fill="white" stroke="black" points="164.5,-0.5 164.5,-26.5 276.5,-26.5 276.5,-0.5 164.5,-0.5"/>
<text text-anchor="start" x="172.5" y="-16.1" font-family="Helvetica,sans-Serif" font-size="8.00">ipc::util::Native_handle</text>
<text text-anchor="middle" x="220.5" y="-7.1" font-family="Helvetica,sans-Serif" font-size="8.00">::null</text>
</a>
</g>
</g>
<!-- Node1&#45;&gt;Node4 -->
<g id="edge3" class="edge">
<title>Node1&#45;&gt;Node4</title>
<path fill="none" stroke="midnightblue" d="M123.2,-28.83C133.36,-27.22 143.94,-25.53 154.21,-23.9"/>
<polygon fill="midnightblue" stroke="midnightblue" points="155.03,-27.31 164.35,-22.28 153.92,-20.4 155.03,-27.31"/>
</g>
<!-- Node3 -->
<g id="node3" class="node">
<title>Node3</title>
<g id="a_node3"><a xlink:href="classipc_1_1transport_1_1sync__io_1_1Native__socket__stream.html#a8e3703d5c8bac62f828a372691249c85" target="_top" xlink:title="Helper that simply returns m_impl while guaranteeing that m_impl is non&#45;null upon return.">
<polygon fill="white" stroke="black" points="318,-50.5 318,-76.5 464,-76.5 464,-50.5 318,-50.5"/>
<text text-anchor="start" x="326" y="-66.1" font-family="Helvetica,sans-Serif" font-size="8.00">ipc::transport::sync</text>
<text text-anchor="middle" x="391" y="-57.1" font-family="Helvetica,sans-Serif" font-size="8.00">_io::Native_socket_stream::impl</text>
</a>
</g>
</g>
<!-- Node2&#45;&gt;Node3 -->
<g id="edge2" class="edge">
<title>Node2&#45;&gt;Node3</title>
<path fill="none" stroke="midnightblue" d="M282.33,-63.5C290.6,-63.5 299.19,-63.5 307.76,-63.5"/>
<polygon fill="midnightblue" stroke="midnightblue" points="307.78,-67 317.78,-63.5 307.78,-60 307.78,-67"/>
</g>
</g>
</svg>
