<?xml version="1.0" encoding="UTF-8" standalone="no"?>
<!DOCTYPE svg PUBLIC "-//W3C//DTD SVG 1.1//EN"
 "http://www.w3.org/Graphics/SVG/1.1/DTD/svg11.dtd">
<!-- Generated by graphviz version 2.43.0 (0)
 -->
<!-- Title: ipc::transport::Native_socket_stream_acceptor::absolute_name Pages: 1 -->
<svg width="447pt" height="98pt"
 viewBox="0.00 0.00 447.00 98.00" xmlns="http://www.w3.org/2000/svg" xmlns:xlink="http://www.w3.org/1999/xlink">
<g id="graph0" class="graph" transform="scale(1 1) rotate(0) translate(4 94)">
<title>ipc::transport::Native_socket_stream_acceptor::absolute_name</title>
<polygon fill="white" stroke="transparent" points="-4,4 -4,-94 443,-94 443,4 -4,4"/>
<!-- Node1 -->
<g id="node1" class="node">
<title>Node1</title>
<g id="a_node1"><a xlink:title="Returns the full name/address to which the constructor bound, or attempted to bind,...">
<polygon fill="#bfbfbf" stroke="black" points="320,-27.5 320,-62.5 439,-62.5 439,-27.5 320,-27.5"/>
<text text-anchor="start" x="328" y="-52.1" font-family="Helvetica,sans-Serif" font-size="8.00">ipc::transport::Native</text>
<text text-anchor="start" x="328" y="-43.1" font-family="Helvetica,sans-Serif" font-size="8.00">_socket_stream_acceptor</text>
<text text-anchor="middle" x="379.5" y="-34.1" font-family="Helvetica,sans-Serif" font-size="8.00">::absolute_name</text>
</a>
</g>
</g>
<!-- Node2 -->
<g id="node2" class="node">
<title>Node2</title>
<g id="a_node2"><a xlink:href="classipc_1_1transport_1_1sync__io_1_1Native__socket__stream__acceptor.html#a3f3c6aaad86a505961beb8e242fc1dff" target="_top" xlink:title="All notes from Async_io_obj API counterpart API apply.">
<polygon fill="white" stroke="black" points="159,-54.5 159,-89.5 284,-89.5 284,-54.5 159,-54.5"/>
<text text-anchor="start" x="167" y="-79.1" font-family="Helvetica,sans-Serif" font-size="8.00">ipc::transport::sync</text>
<text text-anchor="start" x="167" y="-70.1" font-family="Helvetica,sans-Serif" font-size="8.00">_io::Native_socket_stream</text>
<text text-anchor="middle" x="221.5" y="-61.1" font-family="Helvetica,sans-Serif" font-size="8.00">_acceptor::absolute_name</text>
</a>
</g>
</g>
<!-- Node1&#45;&gt;Node2 -->
<g id="edge1" class="edge">
<title>Node1&#45;&gt;Node2</title>
<path fill="none" stroke="midnightblue" d="M310,-56.86C301.42,-58.34 292.69,-59.85 284.23,-61.32"/>
<polygon fill="midnightblue" stroke="midnightblue" points="310.71,-60.28 319.97,-55.13 309.52,-53.39 310.71,-60.28"/>
</g>
<!-- Node4 -->
<g id="node4" class="node">
<title>Node4</title>
<g id="a_node4"><a xlink:href="classipc_1_1transport_1_1Native__socket__stream__acceptor.html#a03f0ad84b5d21920a58be5e95f12e69f" target="_top" xlink:title="Prints string representation of the given Native_socket_stream_acceptor to the given ostream.">
<polygon fill="white" stroke="black" points="162,-0.5 162,-35.5 281,-35.5 281,-0.5 162,-0.5"/>
<text text-anchor="start" x="170" y="-25.1" font-family="Helvetica,sans-Serif" font-size="8.00">ipc::transport::Native</text>
<text text-anchor="start" x="170" y="-16.1" font-family="Helvetica,sans-Serif" font-size="8.00">_socket_stream_acceptor</text>
<text text-anchor="middle" x="221.5" y="-7.1" font-family="Helvetica,sans-Serif" font-size="8.00">::operator&lt;&lt;</text>
</a>
</g>
</g>
<!-- Node1&#45;&gt;Node4 -->
<g id="edge3" class="edge">
<title>Node1&#45;&gt;Node4</title>
<path fill="none" stroke="midnightblue" d="M310.02,-33.15C300.37,-31.48 290.54,-29.78 281.1,-28.14"/>
<polygon fill="midnightblue" stroke="midnightblue" points="309.52,-36.61 319.97,-34.87 310.71,-29.72 309.52,-36.61"/>
</g>
<!-- Node3 -->
<g id="node3" class="node">
<title>Node3</title>
<g id="a_node3"><a xlink:href="classipc_1_1transport_1_1sync__io_1_1Native__socket__stream__acceptor.html#a03f0ad84b5d21920a58be5e95f12e69f" target="_top" xlink:title="Prints string representation of the given Native_socket_stream_acceptor to the given ostream.">
<polygon fill="white" stroke="black" points="0,-54.5 0,-89.5 123,-89.5 123,-54.5 0,-54.5"/>
<text text-anchor="start" x="8" y="-79.1" font-family="Helvetica,sans-Serif" font-size="8.00">ipc::transport::sync</text>
<text text-anchor="start" x="8" y="-70.1" font-family="Helvetica,sans-Serif" font-size="8.00">_io::Native_socket_stream</text>
<text text-anchor="middle" x="61.5" y="-61.1" font-family="Helvetica,sans-Serif" font-size="8.00">_acceptor::operator&lt;&lt;</text>
</a>
</g>
</g>
<!-- Node2&#45;&gt;Node3 -->
<g id="edge2" class="edge">
<title>Node2&#45;&gt;Node3</title>
<path fill="none" stroke="midnightblue" d="M148.91,-72C140.29,-72 131.54,-72 123.09,-72"/>
<polygon fill="midnightblue" stroke="midnightblue" points="148.96,-75.5 158.96,-72 148.96,-68.5 148.96,-75.5"/>
</g>
</g>
</svg>
