<?xml version="1.0" encoding="UTF-8" standalone="no"?>
<!DOCTYPE svg PUBLIC "-//W3C//DTD SVG 1.1//EN"
 "http://www.w3.org/Graphics/SVG/1.1/DTD/svg11.dtd">
<!-- Generated by graphviz version 2.43.0 (0)
 -->
<!-- Title: ipc::transport::Blob_stream_mq_sender_impl::Blob_stream_mq_sender_impl Pages: 1 -->
<svg width="325pt" height="98pt"
 viewBox="0.00 0.00 325.00 98.00" xmlns="http://www.w3.org/2000/svg" xmlns:xlink="http://www.w3.org/1999/xlink">
<g id="graph0" class="graph" transform="scale(1 1) rotate(0) translate(4 94)">
<title>ipc::transport::Blob_stream_mq_sender_impl::Blob_stream_mq_sender_impl</title>
<polygon fill="white" stroke="transparent" points="-4,4 -4,-94 321,-94 321,4 -4,4"/>
<!-- Node1 -->
<g id="node1" class="node">
<title>Node1</title>
<g id="a_node1"><a xlink:title="See Blob_stream_mq_sender counterpart.">
<polygon fill="#bfbfbf" stroke="black" points="0,-27.5 0,-62.5 143,-62.5 143,-27.5 0,-27.5"/>
<text text-anchor="start" x="8" y="-52.1" font-family="Helvetica,sans-Serif" font-size="8.00">ipc::transport::Blob</text>
<text text-anchor="start" x="8" y="-43.1" font-family="Helvetica,sans-Serif" font-size="8.00">_stream_mq_sender_impl</text>
<text text-anchor="middle" x="71.5" y="-34.1" font-family="Helvetica,sans-Serif" font-size="8.00">::Blob_stream_mq_sender_impl</text>
</a>
</g>
</g>
<!-- Node2 -->
<g id="node2" class="node">
<title>Node2</title>
<g id="a_node2"><a xlink:href="classipc_1_1transport_1_1Blob__stream__mq__sender__impl.html#a63ec0904508b7691bf37cbc15911b853" target="_top" xlink:title="See Blob_stream_mq_sender counterpart, but assuming PEER state.">
<polygon fill="white" stroke="black" points="188.5,-54.5 188.5,-89.5 307.5,-89.5 307.5,-54.5 188.5,-54.5"/>
<text text-anchor="start" x="196.5" y="-79.1" font-family="Helvetica,sans-Serif" font-size="8.00">ipc::transport::Blob</text>
<text text-anchor="start" x="196.5" y="-70.1" font-family="Helvetica,sans-Serif" font-size="8.00">_stream_mq_sender_impl</text>
<text text-anchor="middle" x="248" y="-61.1" font-family="Helvetica,sans-Serif" font-size="8.00">::nickname</text>
</a>
</g>
</g>
<!-- Node1&#45;&gt;Node2 -->
<g id="edge1" class="edge">
<title>Node1&#45;&gt;Node2</title>
<path fill="none" stroke="midnightblue" d="M143.22,-55.94C154.84,-57.74 166.87,-59.6 178.43,-61.39"/>
<polygon fill="midnightblue" stroke="midnightblue" points="178.04,-64.87 188.45,-62.94 179.11,-57.95 178.04,-64.87"/>
</g>
<!-- Node3 -->
<g id="node3" class="node">
<title>Node3</title>
<g id="a_node3"><a xlink:href="classipc_1_1transport_1_1sync__io_1_1Blob__stream__mq__sender.html#a6751fab2219c521f4250ec70a73666a6" target="_top" xlink:title="Implements Blob_sender API per contract.">
<polygon fill="white" stroke="black" points="179,-0.5 179,-35.5 317,-35.5 317,-0.5 179,-0.5"/>
<text text-anchor="start" x="187" y="-25.1" font-family="Helvetica,sans-Serif" font-size="8.00">ipc::transport::sync</text>
<text text-anchor="start" x="187" y="-16.1" font-family="Helvetica,sans-Serif" font-size="8.00">_io::Blob_stream_mq_sender</text>
<text text-anchor="middle" x="248" y="-7.1" font-family="Helvetica,sans-Serif" font-size="8.00">::replace_event_wait_handles</text>
</a>
</g>
</g>
<!-- Node1&#45;&gt;Node3 -->
<g id="edge2" class="edge">
<title>Node1&#45;&gt;Node3</title>
<path fill="none" stroke="midnightblue" d="M143.22,-34.06C151.64,-32.75 160.28,-31.42 168.79,-30.1"/>
<polygon fill="midnightblue" stroke="midnightblue" points="169.37,-33.55 178.72,-28.56 168.3,-26.64 169.37,-33.55"/>
</g>
</g>
</svg>
