<?xml version="1.0" encoding="UTF-8" standalone="no"?>
<!DOCTYPE svg PUBLIC "-//W3C//DTD SVG 1.1//EN"
 "http://www.w3.org/Graphics/SVG/1.1/DTD/svg11.dtd">
<!-- Generated by graphviz version 2.43.0 (0)
 -->
<!-- Title: ipc::session::shm::classic::Client_session_impl&lt; S_MQ_TYPE_OR_NONE, S_TRANSMIT_NATIVE_HANDLES, Mdt_payload &gt; Pages: 1 -->
<svg width="1427pt" height="852pt"
 viewBox="0.00 0.00 1427.00 851.81" xmlns="http://www.w3.org/2000/svg" xmlns:xlink="http://www.w3.org/1999/xlink">
<g id="graph0" class="graph" transform="scale(1 1) rotate(0) translate(4 847.81)">
<title>ipc::session::shm::classic::Client_session_impl&lt; S_MQ_TYPE_OR_NONE, S_TRANSMIT_NATIVE_HANDLES, Mdt_payload &gt;</title>
<polygon fill="white" stroke="transparent" points="-4,4 -4,-847.81 1423,-847.81 1423,4 -4,4"/>
<!-- Node1 -->
<g id="node1" class="node">
<title>Node1</title>
<g id="a_node1"><a xlink:title="Core internally&#45;used implementation of shm::classic::Client_session: it is to the latter what its pub...">
<polygon fill="#bfbfbf" stroke="black" points="1273,-367.31 1273,-420.31 1419,-420.31 1419,-367.31 1273,-367.31"/>
<text text-anchor="start" x="1281" y="-409.91" font-family="Helvetica,sans-Serif" font-size="8.00">ipc::session::shm::</text>
<text text-anchor="start" x="1281" y="-400.91" font-family="Helvetica,sans-Serif" font-size="8.00">classic::Client_session</text>
<text text-anchor="start" x="1281" y="-391.91" font-family="Helvetica,sans-Serif" font-size="8.00">_impl&lt; S_MQ_TYPE_OR_NONE,</text>
<text text-anchor="start" x="1281" y="-382.91" font-family="Helvetica,sans-Serif" font-size="8.00"> S_TRANSMIT_NATIVE_HANDLES,</text>
<text text-anchor="middle" x="1346" y="-373.91" font-family="Helvetica,sans-Serif" font-size="8.00"> Mdt_payload &gt;</text>
</a>
</g>
</g>
<!-- Node2 -->
<g id="node2" class="node">
<title>Node2</title>
<g id="a_node2"><a xlink:href="classipc_1_1session_1_1shm_1_1classic_1_1Session__impl.html" target="_top" xlink:title=" ">
<polygon fill="white" stroke="black" points="1036,-409.31 1036,-480.31 1186,-480.31 1186,-409.31 1036,-409.31"/>
<text text-anchor="start" x="1044" y="-469.91" font-family="Helvetica,sans-Serif" font-size="8.00">ipc::session::shm::</text>
<text text-anchor="start" x="1044" y="-460.91" font-family="Helvetica,sans-Serif" font-size="8.00">classic::Session_impl</text>
<text text-anchor="start" x="1044" y="-451.91" font-family="Helvetica,sans-Serif" font-size="8.00">&lt; session::Client_session</text>
<text text-anchor="start" x="1044" y="-442.91" font-family="Helvetica,sans-Serif" font-size="8.00">_impl&lt; S_MQ_TYPE_OR_NONE,</text>
<text text-anchor="start" x="1044" y="-433.91" font-family="Helvetica,sans-Serif" font-size="8.00"> S_TRANSMIT_NATIVE_HANDLES,</text>
<text text-anchor="start" x="1044" y="-424.91" font-family="Helvetica,sans-Serif" font-size="8.00"> Mdt_payload, schema::ShmType</text>
<text text-anchor="middle" x="1111" y="-415.91" font-family="Helvetica,sans-Serif" font-size="8.00">::CLASSIC &gt; &gt;</text>
</a>
</g>
</g>
<!-- Node2&#45;&gt;Node1 -->
<g id="edge1" class="edge">
<title>Node2&#45;&gt;Node1</title>
<path fill="none" stroke="midnightblue" d="M1195.93,-426.44C1221.07,-420.94 1248.42,-414.95 1272.74,-409.63"/>
<polygon fill="midnightblue" stroke="midnightblue" points="1195.06,-423.05 1186.04,-428.6 1196.56,-429.88 1195.06,-423.05"/>
</g>
<!-- Node3 -->
<g id="node3" class="node">
<title>Node3</title>
<g id="a_node3"><a xlink:href="classipc_1_1session_1_1Client__session__impl.html" target="_top" xlink:title=" ">
<polygon fill="white" stroke="black" points="761,-450.31 761,-503.31 913,-503.31 913,-450.31 761,-450.31"/>
<text text-anchor="start" x="769" y="-492.91" font-family="Helvetica,sans-Serif" font-size="8.00">ipc::session::Client</text>
<text text-anchor="start" x="769" y="-483.91" font-family="Helvetica,sans-Serif" font-size="8.00">_session_impl&lt; S_MQ_TYPE</text>
<text text-anchor="start" x="769" y="-474.91" font-family="Helvetica,sans-Serif" font-size="8.00">_OR_NONE, S_TRANSMIT_NATIVE</text>
<text text-anchor="start" x="769" y="-465.91" font-family="Helvetica,sans-Serif" font-size="8.00">_HANDLES, Mdt_payload, schema</text>
<text text-anchor="middle" x="837" y="-456.91" font-family="Helvetica,sans-Serif" font-size="8.00">::ShmType::CLASSIC &gt;</text>
</a>
</g>
</g>
<!-- Node3&#45;&gt;Node2 -->
<g id="edge2" class="edge">
<title>Node3&#45;&gt;Node2</title>
<path fill="none" stroke="midnightblue" d="M923.07,-466.8C959.15,-462.56 1000.84,-457.65 1035.67,-453.55"/>
<polygon fill="midnightblue" stroke="midnightblue" points="922.57,-463.34 913.05,-467.98 923.39,-470.29 922.57,-463.34"/>
</g>
<!-- Node4 -->
<g id="node4" class="node">
<title>Node4</title>
<g id="a_node4"><a xlink:href="classipc_1_1session_1_1Session__base.html" target="_top" xlink:title="Internal type containing data and types common to internal types Server_session_impl and Client_sessi...">
<polygon fill="white" stroke="black" points="468,-284.81 468,-328.81 614,-328.81 614,-284.81 468,-284.81"/>
<text text-anchor="start" x="476" y="-318.41" font-family="Helvetica,sans-Serif" font-size="8.00">ipc::session::Session</text>
<text text-anchor="start" x="476" y="-309.41" font-family="Helvetica,sans-Serif" font-size="8.00">_base&lt; S_MQ_TYPE_OR_NONE,</text>
<text text-anchor="start" x="476" y="-300.41" font-family="Helvetica,sans-Serif" font-size="8.00"> S_TRANSMIT_NATIVE_HANDLES,</text>
<text text-anchor="middle" x="541" y="-291.41" font-family="Helvetica,sans-Serif" font-size="8.00"> Mdt_payload &gt;</text>
</a>
</g>
</g>
<!-- Node4&#45;&gt;Node3 -->
<g id="edge3" class="edge">
<title>Node4&#45;&gt;Node3</title>
<path fill="none" stroke="midnightblue" d="M623.75,-329.47C663.88,-344.07 710.48,-366.64 743,-399.81 756.93,-414.02 747.17,-426.5 761,-440.81 764.31,-444.24 768.02,-447.38 771.96,-450.25"/>
<polygon fill="midnightblue" stroke="midnightblue" points="624.82,-326.14 614.23,-326.12 622.49,-332.74 624.82,-326.14"/>
</g>
<!-- Node5 -->
<g id="node5" class="node">
<title>Node5</title>
<g id="a_node5"><a xlink:title=" ">
<polygon fill="white" stroke="#bfbfbf" points="181.5,-641.31 181.5,-658.31 280.5,-658.31 280.5,-641.31 181.5,-641.31"/>
<text text-anchor="middle" x="231" y="-647.91" font-family="Helvetica,sans-Serif" font-size="8.00">boost::noncopyable</text>
</a>
</g>
</g>
<!-- Node5&#45;&gt;Node4 -->
<g id="edge4" class="edge">
<title>Node5&#45;&gt;Node4</title>
<path fill="none" stroke="#8b1a1a" d="M290.58,-647.47C347.75,-643.85 429.08,-634.73 450,-611.81 483.07,-575.58 449.25,-437.14 468,-391.81 478.13,-367.33 498.04,-344.7 514.36,-328.96"/>
<polygon fill="#8b1a1a" stroke="#8b1a1a" points="290.34,-643.98 280.57,-648.06 290.75,-650.96 290.34,-643.98"/>
</g>
<!-- Node38 -->
<g id="node28" class="node">
<title>Node38</title>
<g id="a_node28"><a xlink:href="classipc_1_1shm_1_1classic_1_1Pool__arena.html" target="_top" xlink:title="A SHM&#45;classic interface around a single SHM pool with allocation&#45;algorithm services by boost....">
<polygon fill="white" stroke="black" points="495,-637.81 495,-663.81 587,-663.81 587,-637.81 495,-637.81"/>
<text text-anchor="start" x="503" y="-653.41" font-family="Helvetica,sans-Serif" font-size="8.00">ipc::shm::classic::</text>
<text text-anchor="middle" x="541" y="-644.41" font-family="Helvetica,sans-Serif" font-size="8.00">Pool_arena</text>
</a>
</g>
</g>
<!-- Node5&#45;&gt;Node38 -->
<g id="edge34" class="edge">
<title>Node5&#45;&gt;Node38</title>
<path fill="none" stroke="#8b1a1a" d="M291.17,-650C350.65,-650.19 441.03,-650.49 494.93,-650.66"/>
<polygon fill="#8b1a1a" stroke="#8b1a1a" points="290.81,-646.5 280.8,-649.97 290.79,-653.5 290.81,-646.5"/>
</g>
<!-- Node6 -->
<g id="node6" class="node">
<title>Node6</title>
<g id="a_node6"><a xlink:title=" ">
<polygon fill="white" stroke="#bfbfbf" points="180.5,-397.31 180.5,-414.31 281.5,-414.31 281.5,-397.31 180.5,-397.31"/>
<text text-anchor="middle" x="231" y="-403.91" font-family="Helvetica,sans-Serif" font-size="8.00">static constexpr bool</text>
</a>
</g>
</g>
<!-- Node6&#45;&gt;Node3 -->
<g id="edge18" class="edge">
<title>Node6&#45;&gt;Node3</title>
<path fill="none" stroke="#9a32cd" stroke-dasharray="5,2" d="M291.95,-406.31C367.42,-407.61 500.87,-412.17 614,-427.81 663.36,-434.63 718.03,-446.64 760.76,-457.07"/>
<polygon fill="#9a32cd" stroke="#9a32cd" points="291.75,-402.81 281.69,-406.15 291.64,-409.8 291.75,-402.81"/>
<text text-anchor="middle" x="541" y="-448.41" font-family="Helvetica,sans-Serif" font-size="8.00"> S_MQS_ENABLED</text>
<text text-anchor="middle" x="541" y="-439.41" font-family="Helvetica,sans-Serif" font-size="8.00">S_SHM_ENABLED</text>
<text text-anchor="middle" x="541" y="-430.41" font-family="Helvetica,sans-Serif" font-size="8.00">S_SOCKET_STREAM_ENABLED</text>
</g>
<!-- Node6&#45;&gt;Node4 -->
<g id="edge5" class="edge">
<title>Node6&#45;&gt;Node4</title>
<path fill="none" stroke="#9a32cd" stroke-dasharray="5,2" d="M283.14,-394.93C292.45,-392.73 302.05,-390.32 311,-387.81 319.12,-385.54 320.84,-383.94 329,-381.81 381.97,-368.01 398.69,-377.88 450,-358.81 470.3,-351.26 491.34,-339.37 507.97,-328.86"/>
<polygon fill="#9a32cd" stroke="#9a32cd" points="282.15,-391.56 273.19,-397.22 283.73,-398.38 282.15,-391.56"/>
<text text-anchor="middle" x="389.5" y="-393.41" font-family="Helvetica,sans-Serif" font-size="8.00"> S_MQS_ENABLED</text>
<text text-anchor="middle" x="389.5" y="-384.41" font-family="Helvetica,sans-Serif" font-size="8.00">S_SOCKET_STREAM_ENABLED</text>
</g>
<!-- Node7 -->
<g id="node7" class="node">
<title>Node7</title>
<g id="a_node7"><a xlink:href="structipc_1_1session_1_1Server__app.html" target="_top" xlink:title="An App that is used as a server in at least one client&#45;server IPC split.">
<polygon fill="white" stroke="red" points="172,-217.31 172,-234.31 290,-234.31 290,-217.31 172,-217.31"/>
<text text-anchor="middle" x="231" y="-223.91" font-family="Helvetica,sans-Serif" font-size="8.00">ipc::session::Server_app</text>
</a>
</g>
</g>
<!-- Node7&#45;&gt;Node4 -->
<g id="edge6" class="edge">
<title>Node7&#45;&gt;Node4</title>
<path fill="none" stroke="#9a32cd" stroke-dasharray="5,2" d="M300.48,-229.12C344.18,-232.79 401.52,-240.52 450,-256.81 469.99,-263.53 490.68,-274.68 507.17,-284.74"/>
<polygon fill="#9a32cd" stroke="#9a32cd" points="300.49,-225.61 290.24,-228.32 299.94,-232.59 300.49,-225.61"/>
<text text-anchor="middle" x="389.5" y="-259.41" font-family="Helvetica,sans-Serif" font-size="8.00"> m_srv_app_ref</text>
</g>
<!-- Node16 -->
<g id="node8" class="node">
<title>Node16</title>
<g id="a_node8"><a xlink:title=" ">
<polygon fill="white" stroke="#bfbfbf" points="195.5,-181.31 195.5,-198.31 266.5,-198.31 266.5,-181.31 195.5,-181.31"/>
<text text-anchor="middle" x="231" y="-187.91" font-family="Helvetica,sans-Serif" font-size="8.00">Fine_duration</text>
</a>
</g>
</g>
<!-- Node16&#45;&gt;Node4 -->
<g id="edge7" class="edge">
<title>Node16&#45;&gt;Node4</title>
<path fill="none" stroke="#9a32cd" stroke-dasharray="5,2" d="M276.96,-188.02C322.76,-187.98 394.7,-192.92 450,-219.81 480.68,-234.73 507.58,-264.07 523.8,-284.53"/>
<polygon fill="#9a32cd" stroke="#9a32cd" points="276.72,-184.53 266.76,-188.12 276.79,-191.53 276.72,-184.53"/>
<text text-anchor="middle" x="389.5" y="-222.41" font-family="Helvetica,sans-Serif" font-size="8.00"> S_OPEN_CHANNEL_TIMEOUT</text>
</g>
<!-- Node17 -->
<g id="node9" class="node">
<title>Node17</title>
<g id="a_node9"><a xlink:title=" ">
<polygon fill="white" stroke="#bfbfbf" points="177.5,-145.31 177.5,-162.31 284.5,-162.31 284.5,-145.31 177.5,-145.31"/>
<text text-anchor="middle" x="231" y="-151.91" font-family="Helvetica,sans-Serif" font-size="8.00">static constexpr size_t</text>
</a>
</g>
</g>
<!-- Node17&#45;&gt;Node4 -->
<g id="edge8" class="edge">
<title>Node17&#45;&gt;Node4</title>
<path fill="none" stroke="#9a32cd" stroke-dasharray="5,2" d="M294.84,-147.46C340.9,-145.8 403.27,-150.08 450,-177.81 491.57,-202.48 518.68,-254.7 531.45,-284.59"/>
<polygon fill="#9a32cd" stroke="#9a32cd" points="294.51,-143.97 284.69,-147.92 294.84,-150.96 294.51,-143.97"/>
<text text-anchor="middle" x="389.5" y="-180.41" font-family="Helvetica,sans-Serif" font-size="8.00"> S_MQS_MAX_MSG_SZ</text>
</g>
<!-- Node18 -->
<g id="node10" class="node">
<title>Node18</title>
<g id="a_node10"><a xlink:title=" ">
<polygon fill="white" stroke="orangered" points="182,-343.31 182,-378.31 280,-378.31 280,-343.31 182,-343.31"/>
<text text-anchor="start" x="190" y="-367.91" font-family="Helvetica,sans-Serif" font-size="8.00">std::atomic&lt; const</text>
<text text-anchor="start" x="190" y="-358.91" font-family="Helvetica,sans-Serif" font-size="8.00"> ipc::session::Client</text>
<text text-anchor="middle" x="231" y="-349.91" font-family="Helvetica,sans-Serif" font-size="8.00">_app * &gt;</text>
</a>
</g>
</g>
<!-- Node18&#45;&gt;Node4 -->
<g id="edge9" class="edge">
<title>Node18&#45;&gt;Node4</title>
<path fill="none" stroke="#9a32cd" stroke-dasharray="5,2" d="M290.16,-352.77C334.17,-346.44 396.05,-337 450,-326.81 455.82,-325.71 461.84,-324.51 467.87,-323.26"/>
<polygon fill="#9a32cd" stroke="#9a32cd" points="289.61,-349.31 280.21,-354.19 290.6,-356.24 289.61,-349.31"/>
<text text-anchor="middle" x="389.5" y="-349.41" font-family="Helvetica,sans-Serif" font-size="8.00"> m_cli_app_ptr</text>
</g>
<!-- Node20 -->
<g id="node11" class="node">
<title>Node20</title>
<g id="a_node11"><a xlink:href="classipc_1_1util_1_1Shared__name.html" target="_top" xlink:title="String&#45;wrapping abstraction representing a name uniquely distinguishing a kernel&#45;persistent entity fr...">
<polygon fill="white" stroke="red" points="176,-479.31 176,-496.31 286,-496.31 286,-479.31 176,-479.31"/>
<text text-anchor="middle" x="231" y="-485.91" font-family="Helvetica,sans-Serif" font-size="8.00">ipc::util::Shared_name</text>
</a>
</g>
</g>
<!-- Node20&#45;&gt;Node4 -->
<g id="edge10" class="edge">
<title>Node20&#45;&gt;Node4</title>
<path fill="none" stroke="#9a32cd" stroke-dasharray="5,2" d="M296.28,-489.28C352.22,-489.17 427.72,-485.21 450,-465.81 475.53,-443.58 452.65,-421.98 468,-391.81 480.19,-367.85 500.37,-344.85 516.27,-328.83"/>
<polygon fill="#9a32cd" stroke="#9a32cd" points="296.09,-485.78 286.08,-489.26 296.08,-492.78 296.09,-485.78"/>
<text text-anchor="middle" x="389.5" y="-499.41" font-family="Helvetica,sans-Serif" font-size="8.00"> m_cli_namespace</text>
<text text-anchor="middle" x="389.5" y="-490.41" font-family="Helvetica,sans-Serif" font-size="8.00">m_srv_namespace</text>
</g>
<!-- Node20&#45;&gt;Node20 -->
<g id="edge11" class="edge">
<title>Node20&#45;&gt;Node20</title>
<path fill="none" stroke="#9a32cd" stroke-dasharray="5,2" d="M207.41,-505.29C207.95,-510.63 215.82,-514.81 231,-514.81 254.13,-514.81 260.28,-505.1 249.43,-496.38"/>
<polygon fill="#9a32cd" stroke="#9a32cd" points="210.58,-506.79 212.57,-496.38 204.53,-503.28 210.58,-506.79"/>
<text text-anchor="middle" x="231" y="-580.41" font-family="Helvetica,sans-Serif" font-size="8.00"> S_1ST_OR_ONLY</text>
<text text-anchor="middle" x="231" y="-571.41" font-family="Helvetica,sans-Serif" font-size="8.00">S_EMPTY</text>
<text text-anchor="start" x="192.5" y="-562.41" font-family="Helvetica,sans-Serif" font-size="8.00">S_RESOURCE_TYPE</text>
<text text-anchor="middle" x="231" y="-553.41" font-family="Helvetica,sans-Serif" font-size="8.00">_ID_MUTEX</text>
<text text-anchor="start" x="192.5" y="-544.41" font-family="Helvetica,sans-Serif" font-size="8.00">S_RESOURCE_TYPE</text>
<text text-anchor="middle" x="231" y="-535.41" font-family="Helvetica,sans-Serif" font-size="8.00">_ID_SHM</text>
<text text-anchor="middle" x="231" y="-526.41" font-family="Helvetica,sans-Serif" font-size="8.00">S_ROOT_MAGIC</text>
<text text-anchor="middle" x="231" y="-517.41" font-family="Helvetica,sans-Serif" font-size="8.00">S_SENTINEL</text>
</g>
<!-- Node20&#45;&gt;Node38 -->
<g id="edge35" class="edge">
<title>Node20&#45;&gt;Node38</title>
<path fill="none" stroke="#9a32cd" stroke-dasharray="5,2" d="M278.62,-498.8C338.87,-513.38 437.57,-538.68 450,-550.81 469.01,-569.36 451.52,-586.97 468,-607.81 478.21,-620.71 493.43,-630.6 507.25,-637.63"/>
<polygon fill="#9a32cd" stroke="#9a32cd" points="279.11,-495.32 268.57,-496.38 277.47,-502.12 279.11,-495.32"/>
<text text-anchor="middle" x="389.5" y="-553.41" font-family="Helvetica,sans-Serif" font-size="8.00"> m_pool_name</text>
</g>
<!-- Node9 -->
<g id="node12" class="node">
<title>Node9</title>
<g id="a_node12"><a xlink:title=" ">
<polygon fill="white" stroke="red" points="0,-601.31 0,-618.31 59,-618.31 59,-601.31 0,-601.31"/>
<text text-anchor="middle" x="29.5" y="-607.91" font-family="Helvetica,sans-Serif" font-size="8.00">std::string</text>
</a>
</g>
</g>
<!-- Node9&#45;&gt;Node20 -->
<g id="edge12" class="edge">
<title>Node9&#45;&gt;Node20</title>
<path fill="none" stroke="#9a32cd" stroke-dasharray="5,2" d="M53.13,-595.97C94.67,-570.57 181.95,-517.19 215.99,-496.38"/>
<polygon fill="#9a32cd" stroke="#9a32cd" points="51.23,-593.03 44.53,-601.23 54.89,-599 51.23,-593.03"/>
<text text-anchor="middle" x="105" y="-582.41" font-family="Helvetica,sans-Serif" font-size="8.00"> m_raw_name</text>
</g>
<!-- Node29 -->
<g id="node19" class="node">
<title>Node29</title>
<g id="a_node19"><a xlink:href="classipc_1_1transport_1_1Protocol__negotiator.html" target="_top" xlink:title="A simple state machine that, assuming the opposide side of a comm pathway uses an equivalent state ma...">
<polygon fill="white" stroke="black" points="485.5,-463.81 485.5,-489.81 596.5,-489.81 596.5,-463.81 485.5,-463.81"/>
<text text-anchor="start" x="493.5" y="-479.41" font-family="Helvetica,sans-Serif" font-size="8.00">ipc::transport::Protocol</text>
<text text-anchor="middle" x="541" y="-470.41" font-family="Helvetica,sans-Serif" font-size="8.00">_negotiator</text>
</a>
</g>
</g>
<!-- Node9&#45;&gt;Node29 -->
<g id="edge23" class="edge">
<title>Node9&#45;&gt;Node29</title>
<path fill="none" stroke="#9a32cd" stroke-dasharray="5,2" d="M44.75,-626.24C65.48,-648.75 106.37,-688.18 151,-703.81 213.71,-725.77 401.01,-750.7 450,-705.81 483.88,-674.76 439.31,-535.7 468,-499.81 472.59,-494.07 478.61,-489.74 485.23,-486.48"/>
<polygon fill="#9a32cd" stroke="#9a32cd" points="47.11,-623.63 37.83,-618.52 41.9,-628.3 47.11,-623.63"/>
<text text-anchor="middle" x="231" y="-732.41" font-family="Helvetica,sans-Serif" font-size="8.00"> m_nickname</text>
</g>
<!-- Node23 -->
<g id="node13" class="node">
<title>Node23</title>
<g id="a_node13"><a xlink:title=" ">
<polygon fill="white" stroke="#bfbfbf" points="195.5,-103.31 195.5,-120.31 266.5,-120.31 266.5,-103.31 195.5,-103.31"/>
<text text-anchor="middle" x="231" y="-109.91" font-family="Helvetica,sans-Serif" font-size="8.00">Task_asio_err</text>
</a>
</g>
</g>
<!-- Node23&#45;&gt;Node3 -->
<g id="edge26" class="edge">
<title>Node23&#45;&gt;Node3</title>
<path fill="none" stroke="#9a32cd" stroke-dasharray="5,2" d="M276.75,-105.19C321.79,-100.27 392.62,-97.36 450,-116.81 602.72,-168.59 658.56,-193.43 743,-330.81 768.94,-373.01 731.31,-401.16 761,-440.81 763.6,-444.28 766.62,-447.43 769.92,-450.29"/>
<polygon fill="#9a32cd" stroke="#9a32cd" points="276.23,-101.73 266.71,-106.37 277.05,-108.68 276.23,-101.73"/>
<text text-anchor="start" x="493.5" y="-198.41" font-family="Helvetica,sans-Serif" font-size="8.00"> m_conn_on_done_func</text>
<text text-anchor="middle" x="541" y="-189.41" font-family="Helvetica,sans-Serif" font-size="8.00">_or_empty</text>
</g>
<!-- Node23&#45;&gt;Node4 -->
<g id="edge13" class="edge">
<title>Node23&#45;&gt;Node4</title>
<path fill="none" stroke="#9a32cd" stroke-dasharray="5,2" d="M276.99,-112.12C332.45,-113.33 422.73,-118.19 450,-136.81 501.85,-172.21 526.08,-247.3 535.3,-284.69"/>
<polygon fill="#9a32cd" stroke="#9a32cd" points="276.79,-108.62 266.73,-111.93 276.66,-115.62 276.79,-108.62"/>
<text text-anchor="middle" x="389.5" y="-139.41" font-family="Helvetica,sans-Serif" font-size="8.00"> m_on_err_func</text>
</g>
<!-- Node24 -->
<g id="node14" class="node">
<title>Node24</title>
<g id="a_node14"><a xlink:title=" ">
<polygon fill="white" stroke="#bfbfbf" points="151,-289.31 151,-324.31 311,-324.31 311,-289.31 151,-289.31"/>
<text text-anchor="start" x="159" y="-313.91" font-family="Helvetica,sans-Serif" font-size="8.00">Function&lt; void(Channel</text>
<text text-anchor="start" x="159" y="-304.91" font-family="Helvetica,sans-Serif" font-size="8.00">_obj &amp;&amp;new_channel, Mdt</text>
<text text-anchor="middle" x="231" y="-295.91" font-family="Helvetica,sans-Serif" font-size="8.00">_reader_ptr &amp;&amp;new_channel_mdt)&gt;</text>
</a>
</g>
</g>
<!-- Node24&#45;&gt;Node4 -->
<g id="edge14" class="edge">
<title>Node24&#45;&gt;Node4</title>
<path fill="none" stroke="#9a32cd" stroke-dasharray="5,2" d="M321.4,-306.81C367.93,-306.81 424.07,-306.81 467.8,-306.81"/>
<polygon fill="#9a32cd" stroke="#9a32cd" points="321.32,-303.31 311.32,-306.81 321.32,-310.31 321.32,-303.31"/>
<text text-anchor="start" x="329" y="-318.41" font-family="Helvetica,sans-Serif" font-size="8.00"> m_on_passive_open_channel</text>
<text text-anchor="middle" x="389.5" y="-309.41" font-family="Helvetica,sans-Serif" font-size="8.00">_func_or_empty</text>
</g>
<!-- Node25 -->
<g id="node15" class="node">
<title>Node25</title>
<g id="a_node15"><a xlink:title=" ">
<polygon fill="white" stroke="#bfbfbf" points="201,-253.31 201,-270.31 261,-270.31 261,-253.31 201,-253.31"/>
<text text-anchor="middle" x="231" y="-259.91" font-family="Helvetica,sans-Serif" font-size="8.00">Error_code</text>
</a>
</g>
</g>
<!-- Node25&#45;&gt;Node4 -->
<g id="edge15" class="edge">
<title>Node25&#45;&gt;Node4</title>
<path fill="none" stroke="#9a32cd" stroke-dasharray="5,2" d="M271.31,-264.36C315.14,-267.57 388,-274.01 450,-284.81 455.86,-285.83 461.91,-287.02 467.97,-288.3"/>
<polygon fill="#9a32cd" stroke="#9a32cd" points="271.31,-260.85 261.09,-263.63 270.81,-267.83 271.31,-260.85"/>
<text text-anchor="start" x="341" y="-296.41" font-family="Helvetica,sans-Serif" font-size="8.00"> m_peer_state_err_code</text>
<text text-anchor="middle" x="389.5" y="-287.41" font-family="Helvetica,sans-Serif" font-size="8.00">_or_ok</text>
</g>
<!-- Node26 -->
<g id="node16" class="node">
<title>Node26</title>
<g id="a_node16"><a xlink:title=" ">
<polygon fill="white" stroke="#bfbfbf" points="177.5,-768.31 177.5,-785.31 284.5,-785.31 284.5,-768.31 177.5,-768.31"/>
<text text-anchor="middle" x="231" y="-774.91" font-family="Helvetica,sans-Serif" font-size="8.00">flow::log::Log_context</text>
</a>
</g>
</g>
<!-- Node26&#45;&gt;Node3 -->
<g id="edge16" class="edge">
<title>Node26&#45;&gt;Node3</title>
<path fill="none" stroke="midnightblue" d="M278.94,-787.21C323.65,-795.25 392.49,-802.73 450,-787.81 594.24,-750.39 652.34,-743.07 743,-624.81 763.07,-598.63 744.84,-581.57 761,-552.81 771.53,-534.06 787.92,-516.7 802.69,-503.32"/>
<polygon fill="midnightblue" stroke="midnightblue" points="279.42,-783.74 268.94,-785.33 278.12,-790.62 279.42,-783.74"/>
</g>
<!-- Node26&#45;&gt;Node29 -->
<g id="edge21" class="edge">
<title>Node26&#45;&gt;Node29</title>
<path fill="none" stroke="midnightblue" d="M295.03,-769.49C355.65,-761.82 439.6,-749.32 450,-737.81 485.55,-698.45 435.12,-541.43 468,-499.81 472.55,-494.04 478.56,-489.7 485.17,-486.43"/>
<polygon fill="midnightblue" stroke="midnightblue" points="294.25,-766.06 284.76,-770.77 295.12,-773 294.25,-766.06"/>
</g>
<!-- Node26&#45;&gt;Node38 -->
<g id="edge33" class="edge">
<title>Node26&#45;&gt;Node38</title>
<path fill="none" stroke="midnightblue" d="M294.97,-785.74C340.55,-789.22 402.28,-787.59 450,-762.81 492.5,-740.74 521.88,-688.77 533.91,-664.17"/>
<polygon fill="midnightblue" stroke="midnightblue" points="295.18,-782.24 284.92,-784.87 294.58,-789.22 295.18,-782.24"/>
</g>
<!-- Node27 -->
<g id="node17" class="node">
<title>Node27</title>
<g id="a_node17"><a xlink:title=" ">
<polygon fill="white" stroke="#bfbfbf" points="514.5,-49.31 514.5,-66.31 567.5,-66.31 567.5,-49.31 514.5,-49.31"/>
<text text-anchor="middle" x="541" y="-55.91" font-family="Helvetica,sans-Serif" font-size="8.00">ShmType</text>
</a>
</g>
</g>
<!-- Node27&#45;&gt;Node3 -->
<g id="edge17" class="edge">
<title>Node27&#45;&gt;Node3</title>
<path fill="none" stroke="#9a32cd" stroke-dasharray="5,2" d="M577.8,-49.45C623.35,-41.17 701.12,-35.37 743,-79.81 770.55,-109.04 738.77,-407.36 761,-440.81 763.24,-444.18 765.88,-447.24 768.82,-450.02"/>
<polygon fill="#9a32cd" stroke="#9a32cd" points="576.92,-46.05 567.78,-51.4 578.26,-52.92 576.92,-46.05"/>
<text text-anchor="middle" x="687.5" y="-82.41" font-family="Helvetica,sans-Serif" font-size="8.00"> S_SHM_TYPE</text>
</g>
<!-- Node28 -->
<g id="node18" class="node">
<title>Node28</title>
<g id="a_node18"><a xlink:title=" ">
<polygon fill="white" stroke="#bfbfbf" points="522,-13.31 522,-30.31 560,-30.31 560,-13.31 522,-13.31"/>
<text text-anchor="middle" x="541" y="-19.91" font-family="Helvetica,sans-Serif" font-size="8.00">State</text>
</a>
</g>
</g>
<!-- Node28&#45;&gt;Node3 -->
<g id="edge19" class="edge">
<title>Node28&#45;&gt;Node3</title>
<path fill="none" stroke="#9a32cd" stroke-dasharray="5,2" d="M569.81,-12.8C613.4,-0.62 697.52,14.71 743,-30.81 775.23,-63.07 735.87,-402.76 761,-440.81 763.23,-444.18 765.87,-447.25 768.8,-450.04"/>
<polygon fill="#9a32cd" stroke="#9a32cd" points="568.76,-9.46 560.15,-15.64 570.73,-16.18 568.76,-9.46"/>
<text text-anchor="middle" x="687.5" y="-33.41" font-family="Helvetica,sans-Serif" font-size="8.00"> m_state</text>
</g>
<!-- Node29&#45;&gt;Node3 -->
<g id="edge20" class="edge">
<title>Node29&#45;&gt;Node3</title>
<path fill="none" stroke="#9a32cd" stroke-dasharray="5,2" d="M606.66,-476.81C652.17,-476.81 713.23,-476.81 760.9,-476.81"/>
<polygon fill="#9a32cd" stroke="#9a32cd" points="606.61,-473.31 596.61,-476.81 606.61,-480.31 606.61,-473.31"/>
<text text-anchor="middle" x="687.5" y="-488.41" font-family="Helvetica,sans-Serif" font-size="8.00"> m_protocol_negotiator</text>
<text text-anchor="middle" x="687.5" y="-479.41" font-family="Helvetica,sans-Serif" font-size="8.00">m_protocol_negotiator_aux</text>
</g>
<!-- Node30 -->
<g id="node20" class="node">
<title>Node30</title>
<g id="a_node20"><a xlink:title=" ">
<polygon fill="white" stroke="#bfbfbf" points="178.5,-433.81 178.5,-459.81 283.5,-459.81 283.5,-433.81 178.5,-433.81"/>
<text text-anchor="start" x="186.5" y="-449.41" font-family="Helvetica,sans-Serif" font-size="8.00">static constexpr proto</text>
<text text-anchor="middle" x="231" y="-440.41" font-family="Helvetica,sans-Serif" font-size="8.00">_ver_t</text>
</a>
</g>
</g>
<!-- Node30&#45;&gt;Node29 -->
<g id="edge22" class="edge">
<title>Node30&#45;&gt;Node29</title>
<path fill="none" stroke="#9a32cd" stroke-dasharray="5,2" d="M294.12,-442.07C337.96,-439.94 397.92,-439.5 450,-447.81 469.62,-450.94 490.79,-457.59 507.68,-463.73"/>
<polygon fill="#9a32cd" stroke="#9a32cd" points="293.7,-438.59 283.9,-442.61 294.07,-445.58 293.7,-438.59"/>
<text text-anchor="middle" x="389.5" y="-459.41" font-family="Helvetica,sans-Serif" font-size="8.00"> S_VER_UNKNOWN</text>
<text text-anchor="middle" x="389.5" y="-450.41" font-family="Helvetica,sans-Serif" font-size="8.00">S_VER_UNSUPPORTED</text>
</g>
<!-- Node31 -->
<g id="node21" class="node">
<title>Node31</title>
<g id="a_node21"><a xlink:title=" ">
<polygon fill="white" stroke="#bfbfbf" points="209,-677.31 209,-694.31 253,-694.31 253,-677.31 209,-677.31"/>
<text text-anchor="middle" x="231" y="-683.91" font-family="Helvetica,sans-Serif" font-size="8.00">int16_t</text>
</a>
</g>
</g>
<!-- Node31&#45;&gt;Node29 -->
<g id="edge24" class="edge">
<title>Node31&#45;&gt;Node29</title>
<path fill="none" stroke="#9a32cd" stroke-dasharray="5,2" d="M263.16,-683.59C317.24,-679.05 425.1,-666.79 450,-639.81 492.55,-593.71 427.84,-548 468,-499.81 472.7,-494.16 478.8,-489.89 485.44,-486.65"/>
<polygon fill="#9a32cd" stroke="#9a32cd" points="262.79,-680.11 253.1,-684.39 263.35,-687.08 262.79,-680.11"/>
<text text-anchor="middle" x="389.5" y="-695.41" font-family="Helvetica,sans-Serif" font-size="8.00"> m_local_max_proto_ver</text>
<text text-anchor="middle" x="389.5" y="-686.41" font-family="Helvetica,sans-Serif" font-size="8.00">m_local_min_proto_ver</text>
<text text-anchor="middle" x="389.5" y="-677.41" font-family="Helvetica,sans-Serif" font-size="8.00">m_negotiated_proto_ver</text>
</g>
<!-- Node32 -->
<g id="node22" class="node">
<title>Node32</title>
<g id="a_node22"><a xlink:title=" ">
<polygon fill="white" stroke="#bfbfbf" points="213.5,-605.31 213.5,-622.31 248.5,-622.31 248.5,-605.31 213.5,-605.31"/>
<text text-anchor="middle" x="231" y="-611.91" font-family="Helvetica,sans-Serif" font-size="8.00">bool</text>
</a>
</g>
</g>
<!-- Node32&#45;&gt;Node29 -->
<g id="edge25" class="edge">
<title>Node32&#45;&gt;Node29</title>
<path fill="none" stroke="#9a32cd" stroke-dasharray="5,2" d="M258.79,-615.61C304.37,-617.14 397.17,-613.3 450,-562.81 471.05,-542.69 447.73,-520.72 468,-499.81 472.93,-494.72 478.99,-490.76 485.47,-487.67"/>
<polygon fill="#9a32cd" stroke="#9a32cd" points="258.68,-612.1 248.53,-615.15 258.36,-619.1 258.68,-612.1"/>
<text text-anchor="middle" x="389.5" y="-614.41" font-family="Helvetica,sans-Serif" font-size="8.00"> m_local_max_proto_ver_sent</text>
</g>
<!-- Node33 -->
<g id="node23" class="node">
<title>Node33</title>
<g id="a_node23"><a xlink:title=" ">
<polygon fill="white" stroke="#bfbfbf" points="507,-581.31 507,-598.31 575,-598.31 575,-581.31 507,-581.31"/>
<text text-anchor="middle" x="541" y="-587.91" font-family="Helvetica,sans-Serif" font-size="8.00">unsigned int</text>
</a>
</g>
</g>
<!-- Node33&#45;&gt;Node3 -->
<g id="edge27" class="edge">
<title>Node33&#45;&gt;Node3</title>
<path fill="none" stroke="#9a32cd" stroke-dasharray="5,2" d="M585.47,-589.39C627.59,-587.48 692.33,-580.45 743,-556.81 770.02,-544.2 795.3,-521.46 812.66,-503.44"/>
<polygon fill="#9a32cd" stroke="#9a32cd" points="585.14,-585.9 575.28,-589.78 585.4,-592.9 585.14,-585.9"/>
<text text-anchor="start" x="635.5" y="-614.41" font-family="Helvetica,sans-Serif" font-size="8.00"> m_last_actively_opened</text>
<text text-anchor="middle" x="687.5" y="-605.41" font-family="Helvetica,sans-Serif" font-size="8.00">_channel_id</text>
<text text-anchor="start" x="635.5" y="-596.41" font-family="Helvetica,sans-Serif" font-size="8.00">m_last_passively_opened</text>
<text text-anchor="middle" x="687.5" y="-587.41" font-family="Helvetica,sans-Serif" font-size="8.00">_channel_id</text>
</g>
<!-- Node34 -->
<g id="node24" class="node">
<title>Node34</title>
<g id="a_node24"><a xlink:title=" ">
<polygon fill="white" stroke="#bfbfbf" points="483,-509.31 483,-526.31 599,-526.31 599,-509.31 483,-509.31"/>
<text text-anchor="middle" x="541" y="-515.91" font-family="Helvetica,sans-Serif" font-size="8.00">Single_thread_task_loop</text>
</a>
</g>
</g>
<!-- Node34&#45;&gt;Node3 -->
<g id="edge28" class="edge">
<title>Node34&#45;&gt;Node3</title>
<path fill="none" stroke="#9a32cd" stroke-dasharray="5,2" d="M609.57,-511.99C648.67,-508.22 698.75,-502.74 743,-495.81 748.86,-494.89 754.91,-493.86 760.99,-492.76"/>
<polygon fill="#9a32cd" stroke="#9a32cd" points="608.99,-508.53 599.37,-512.95 609.65,-515.49 608.99,-508.53"/>
<text text-anchor="middle" x="687.5" y="-511.41" font-family="Helvetica,sans-Serif" font-size="8.00"> m_async_worker</text>
</g>
<!-- Node35 -->
<g id="node25" class="node">
<title>Node35</title>
<g id="a_node25"><a xlink:title=" ">
<polygon fill="white" stroke="#bfbfbf" points="470,-545.31 470,-562.31 612,-562.31 612,-545.31 470,-545.31"/>
<text text-anchor="middle" x="541" y="-551.91" font-family="Helvetica,sans-Serif" font-size="8.00">Master_structured_channel_ptr</text>
</a>
</g>
</g>
<!-- Node35&#45;&gt;Node3 -->
<g id="edge29" class="edge">
<title>Node35&#45;&gt;Node3</title>
<path fill="none" stroke="#9a32cd" stroke-dasharray="5,2" d="M622.75,-546.42C659.95,-541.64 704.33,-533.95 743,-521.81 758.06,-517.08 773.75,-510.29 787.87,-503.4"/>
<polygon fill="#9a32cd" stroke="#9a32cd" points="621.96,-543 612.46,-547.7 622.81,-549.94 621.96,-543"/>
<text text-anchor="middle" x="687.5" y="-546.41" font-family="Helvetica,sans-Serif" font-size="8.00"> m_master_channel</text>
</g>
<!-- Node36 -->
<g id="node26" class="node">
<title>Node36</title>
<g id="a_node26"><a xlink:title=" ">
<polygon fill="white" stroke="#bfbfbf" points="774,-414.31 774,-431.31 900,-431.31 900,-414.31 774,-414.31"/>
<text text-anchor="middle" x="837" y="-420.91" font-family="Helvetica,sans-Serif" font-size="8.00">static constexpr scope_id_t</text>
</a>
</g>
</g>
<!-- Node36&#45;&gt;Node2 -->
<g id="edge30" class="edge">
<title>Node36&#45;&gt;Node2</title>
<path fill="none" stroke="#9a32cd" stroke-dasharray="5,2" d="M910.11,-426.93C943.03,-428.98 982.52,-431.7 1018,-434.81 1023.76,-435.31 1029.72,-435.88 1035.71,-436.47"/>
<polygon fill="#9a32cd" stroke="#9a32cd" points="910.31,-423.43 900.11,-426.31 909.88,-430.42 910.31,-423.43"/>
<text text-anchor="middle" x="974.5" y="-446.41" font-family="Helvetica,sans-Serif" font-size="8.00"> S_SCOPE_ID_APP</text>
<text text-anchor="middle" x="974.5" y="-437.41" font-family="Helvetica,sans-Serif" font-size="8.00">S_SCOPE_ID_SESSION</text>
</g>
<!-- Node37 -->
<g id="node27" class="node">
<title>Node37</title>
<g id="a_node27"><a xlink:title=" ">
<polygon fill="white" stroke="#bfbfbf" points="786,-378.31 786,-395.31 888,-395.31 888,-378.31 786,-378.31"/>
<text text-anchor="middle" x="837" y="-384.91" font-family="Helvetica,sans-Serif" font-size="8.00">unique_ptr&lt; Arena &gt;</text>
</a>
</g>
</g>
<!-- Node37&#45;&gt;Node2 -->
<g id="edge31" class="edge">
<title>Node37&#45;&gt;Node2</title>
<path fill="none" stroke="#9a32cd" stroke-dasharray="5,2" d="M898.2,-393.71C933.4,-398.36 978.53,-405.37 1018,-414.81 1023.88,-416.22 1029.93,-417.82 1035.98,-419.54"/>
<polygon fill="#9a32cd" stroke="#9a32cd" points="898.45,-390.21 888.08,-392.4 897.55,-397.16 898.45,-390.21"/>
<text text-anchor="middle" x="974.5" y="-417.41" font-family="Helvetica,sans-Serif" font-size="8.00"> m_session_shm</text>
</g>
<!-- Node38&#45;&gt;Node2 -->
<g id="edge32" class="edge">
<title>Node38&#45;&gt;Node2</title>
<path fill="none" stroke="#9a32cd" stroke-dasharray="5,2" d="M597.24,-648.53C638.2,-645.67 695.01,-639.25 743,-624.81 858.52,-590.04 982.46,-522.08 1052.69,-480.33"/>
<polygon fill="#9a32cd" stroke="#9a32cd" points="596.94,-645.04 587.19,-649.18 597.39,-652.02 596.94,-645.04"/>
<text text-anchor="middle" x="837" y="-619.41" font-family="Helvetica,sans-Serif" font-size="8.00"> m_app_shm</text>
</g>
<!-- Node39 -->
<g id="node29" class="node">
<title>Node39</title>
<g id="a_node29"><a xlink:title=" ">
<polygon fill="white" stroke="#bfbfbf" points="183.5,-826.31 183.5,-843.31 278.5,-843.31 278.5,-826.31 183.5,-826.31"/>
<text text-anchor="middle" x="231" y="-832.91" font-family="Helvetica,sans-Serif" font-size="8.00">unique_ptr&lt; Pool &gt;</text>
</a>
</g>
</g>
<!-- Node39&#45;&gt;Node38 -->
<g id="edge36" class="edge">
<title>Node39&#45;&gt;Node38</title>
<path fill="none" stroke="#9a32cd" stroke-dasharray="5,2" d="M288.56,-834.54C335.52,-831.75 402.13,-821.59 450,-788.81 496.73,-756.81 525.01,-691.76 535.43,-663.92"/>
<polygon fill="#9a32cd" stroke="#9a32cd" points="288.37,-831.05 278.55,-835.04 288.72,-838.04 288.37,-831.05"/>
<text text-anchor="middle" x="389.5" y="-832.41" font-family="Helvetica,sans-Serif" font-size="8.00"> m_pool</text>
</g>
<!-- Node40 -->
<g id="node30" class="node">
<title>Node40</title>
<g id="a_node30"><a xlink:title=" ">
<polygon fill="white" stroke="#bfbfbf" points="1083,-373.31 1083,-390.31 1139,-390.31 1139,-373.31 1083,-373.31"/>
<text text-anchor="middle" x="1111" y="-379.91" font-family="Helvetica,sans-Serif" font-size="8.00">Arena_ptr</text>
</a>
</g>
</g>
<!-- Node40&#45;&gt;Node1 -->
<g id="edge37" class="edge">
<title>Node40&#45;&gt;Node1</title>
<path fill="none" stroke="#9a32cd" stroke-dasharray="5,2" d="M1149.35,-383.73C1182.51,-385.44 1231.89,-387.98 1272.75,-390.09"/>
<polygon fill="#9a32cd" stroke="#9a32cd" points="1149.35,-380.23 1139.18,-383.21 1148.99,-387.22 1149.35,-380.23"/>
<text text-anchor="middle" x="1229.5" y="-391.41" font-family="Helvetica,sans-Serif" font-size="8.00"> m_app_shm</text>
</g>
</g>
</svg>
