<?xml version="1.0" encoding="UTF-8" standalone="no"?>
<!DOCTYPE svg PUBLIC "-//W3C//DTD SVG 1.1//EN"
 "http://www.w3.org/Graphics/SVG/1.1/DTD/svg11.dtd">
<!-- Generated by graphviz version 2.43.0 (0)
 -->
<!-- Title: ipc::transport::Posix_mq_handle::native_handle Pages: 1 -->
<svg width="293pt" height="35pt"
 viewBox="0.00 0.00 293.00 35.00" xmlns="http://www.w3.org/2000/svg" xmlns:xlink="http://www.w3.org/1999/xlink">
<g id="graph0" class="graph" transform="scale(1 1) rotate(0) translate(4 31)">
<title>ipc::transport::Posix_mq_handle::native_handle</title>
<polygon fill="white" stroke="transparent" points="-4,4 -4,-31 289,-31 289,4 -4,4"/>
<!-- Node1 -->
<g id="node1" class="node">
<title>Node1</title>
<g id="a_node1"><a xlink:title="Implements Persistent_mq_handle API: Returns the stored native MQ handle; null if not open.">
<polygon fill="#bfbfbf" stroke="black" points="156,-0.5 156,-26.5 285,-26.5 285,-0.5 156,-0.5"/>
<text text-anchor="start" x="164" y="-16.1" font-family="Helvetica,sans-Serif" font-size="8.00">ipc::transport::Posix</text>
<text text-anchor="middle" x="220.5" y="-7.1" font-family="Helvetica,sans-Serif" font-size="8.00">_mq_handle::native_handle</text>
</a>
</g>
</g>
<!-- Node2 -->
<g id="node2" class="node">
<title>Node2</title>
<g id="a_node2"><a xlink:href="classipc_1_1transport_1_1Posix__mq__handle.html#a8fb9256b66ad3dfdf742de66223466d7" target="_top" xlink:title="Prints string representation of the given Posix_mq_handle to the given ostream.">
<polygon fill="white" stroke="black" points="0,-0.5 0,-26.5 120,-26.5 120,-0.5 0,-0.5"/>
<text text-anchor="start" x="8" y="-16.1" font-family="Helvetica,sans-Serif" font-size="8.00">ipc::transport::Posix</text>
<text text-anchor="middle" x="60" y="-7.1" font-family="Helvetica,sans-Serif" font-size="8.00">_mq_handle::operator&lt;&lt;</text>
</a>
</g>
</g>
<!-- Node1&#45;&gt;Node2 -->
<g id="edge1" class="edge">
<title>Node1&#45;&gt;Node2</title>
<path fill="none" stroke="midnightblue" d="M145.9,-13.5C137.29,-13.5 128.58,-13.5 120.2,-13.5"/>
<polygon fill="midnightblue" stroke="midnightblue" points="145.95,-17 155.95,-13.5 145.95,-10 145.95,-17"/>
</g>
</g>
</svg>
