<?xml version="1.0" encoding="UTF-8" standalone="no"?>
<!DOCTYPE svg PUBLIC "-//W3C//DTD SVG 1.1//EN"
 "http://www.w3.org/Graphics/SVG/1.1/DTD/svg11.dtd">
<!-- Generated by graphviz version 2.43.0 (0)
 -->
<!-- Title: ipc::transport::sync_io::Async_adapter_sender&lt; Core_t &gt; Pages: 1 -->
<svg width="511pt" height="252pt"
 viewBox="0.00 0.00 511.00 252.00" xmlns="http://www.w3.org/2000/svg" xmlns:xlink="http://www.w3.org/1999/xlink">
<g id="graph0" class="graph" transform="scale(1 1) rotate(0) translate(4 248)">
<title>ipc::transport::sync_io::Async_adapter_sender&lt; Core_t &gt;</title>
<polygon fill="white" stroke="transparent" points="-4,4 -4,-248 507,-248 507,4 -4,4"/>
<!-- Node1 -->
<g id="node1" class="node">
<title>Node1</title>
<g id="a_node1"><a xlink:title="Internal&#45;use type that adapts a given PEER&#45;state sync_io::Native_handle_sender or sync_io::Blob_sende...">
<polygon fill="#bfbfbf" stroke="black" points="377,-107.5 377,-142.5 503,-142.5 503,-107.5 377,-107.5"/>
<text text-anchor="start" x="385" y="-132.1" font-family="Helvetica,sans-Serif" font-size="8.00">ipc::transport::sync</text>
<text text-anchor="start" x="385" y="-123.1" font-family="Helvetica,sans-Serif" font-size="8.00">_io::Async_adapter_sender</text>
<text text-anchor="middle" x="440" y="-114.1" font-family="Helvetica,sans-Serif" font-size="8.00">&lt; Core_t &gt;</text>
</a>
</g>
</g>
<!-- Node2 -->
<g id="node2" class="node">
<title>Node2</title>
<g id="a_node2"><a xlink:title=" ">
<polygon fill="white" stroke="#bfbfbf" points="128,-226.5 128,-243.5 235,-243.5 235,-226.5 128,-226.5"/>
<text text-anchor="middle" x="181.5" y="-233.1" font-family="Helvetica,sans-Serif" font-size="8.00">flow::log::Log_context</text>
</a>
</g>
</g>
<!-- Node2&#45;&gt;Node1 -->
<g id="edge1" class="edge">
<title>Node2&#45;&gt;Node1</title>
<path fill="none" stroke="midnightblue" d="M245.1,-228.49C280.06,-223.01 323.58,-213.03 359,-195 384.66,-181.94 408.75,-158.8 423.66,-142.72"/>
<polygon fill="midnightblue" stroke="midnightblue" points="244.39,-225.06 235.01,-229.99 245.42,-231.98 244.39,-225.06"/>
</g>
<!-- Node3 -->
<g id="node3" class="node">
<title>Node3</title>
<g id="a_node3"><a xlink:title=" ">
<polygon fill="white" stroke="#bfbfbf" points="132,-190.5 132,-207.5 231,-207.5 231,-190.5 132,-190.5"/>
<text text-anchor="middle" x="181.5" y="-197.1" font-family="Helvetica,sans-Serif" font-size="8.00">boost::noncopyable</text>
</a>
</g>
</g>
<!-- Node3&#45;&gt;Node1 -->
<g id="edge2" class="edge">
<title>Node3&#45;&gt;Node1</title>
<path fill="none" stroke="#8b1a1a" d="M241.24,-194.53C276.2,-190.61 321,-183.34 359,-170 378.1,-163.3 397.93,-152.17 413.08,-142.66"/>
<polygon fill="#8b1a1a" stroke="#8b1a1a" points="240.77,-191.06 231.2,-195.6 241.51,-198.02 240.77,-191.06"/>
</g>
<!-- Node4 -->
<g id="node4" class="node">
<title>Node4</title>
<g id="a_node4"><a xlink:title=" ">
<polygon fill="white" stroke="black" points="152,-154.5 152,-171.5 211,-171.5 211,-154.5 152,-154.5"/>
<text text-anchor="middle" x="181.5" y="-161.1" font-family="Helvetica,sans-Serif" font-size="8.00">std::string</text>
</a>
</g>
</g>
<!-- Node4&#45;&gt;Node1 -->
<g id="edge3" class="edge">
<title>Node4&#45;&gt;Node1</title>
<path fill="none" stroke="#9a32cd" stroke-dasharray="5,2" d="M221.13,-160.25C257.02,-157.36 311.87,-152.1 359,-144 364.77,-143.01 370.74,-141.85 376.7,-140.6"/>
<polygon fill="#9a32cd" stroke="#9a32cd" points="220.78,-156.77 211.08,-161.04 221.33,-163.75 220.78,-156.77"/>
<text text-anchor="middle" x="306" y="-159.6" font-family="Helvetica,sans-Serif" font-size="8.00"> m_log_pfx</text>
</g>
<!-- Node5 -->
<g id="node5" class="node">
<title>Node5</title>
<g id="a_node5"><a xlink:title=" ">
<polygon fill="white" stroke="black" points="0,-150 0,-176 91,-176 91,-150 0,-150"/>
<text text-anchor="start" x="8" y="-165.6" font-family="Helvetica,sans-Serif" font-size="8.00">std::basic_string&lt;</text>
<text text-anchor="middle" x="45.5" y="-156.6" font-family="Helvetica,sans-Serif" font-size="8.00"> Char &gt;</text>
</a>
</g>
</g>
<!-- Node5&#45;&gt;Node4 -->
<g id="edge4" class="edge">
<title>Node5&#45;&gt;Node4</title>
<path fill="none" stroke="midnightblue" d="M101.14,-163C118.45,-163 136.9,-163 151.65,-163"/>
<polygon fill="midnightblue" stroke="midnightblue" points="101.12,-159.5 91.12,-163 101.12,-166.5 101.12,-159.5"/>
</g>
<!-- Node6 -->
<g id="node6" class="node">
<title>Node6</title>
<g id="a_node6"><a xlink:title=" ">
<polygon fill="white" stroke="#bfbfbf" points="146,-118.5 146,-135.5 217,-135.5 217,-118.5 146,-118.5"/>
<text text-anchor="middle" x="181.5" y="-125.1" font-family="Helvetica,sans-Serif" font-size="8.00">Task_asio_err</text>
</a>
</g>
</g>
<!-- Node6&#45;&gt;Node1 -->
<g id="edge5" class="edge">
<title>Node6&#45;&gt;Node1</title>
<path fill="none" stroke="#9a32cd" stroke-dasharray="5,2" d="M227.43,-126.3C235.92,-126.19 244.73,-126.08 253,-126 294.33,-125.6 340.83,-125.35 377,-125.2"/>
<polygon fill="#9a32cd" stroke="#9a32cd" points="227.23,-122.81 217.28,-126.45 227.33,-129.81 227.23,-122.81"/>
<text text-anchor="start" x="253" y="-137.6" font-family="Helvetica,sans-Serif" font-size="8.00"> m_end_sending_on_done</text>
<text text-anchor="middle" x="306" y="-128.6" font-family="Helvetica,sans-Serif" font-size="8.00">_func_or_empty</text>
</g>
<!-- Node7 -->
<g id="node7" class="node">
<title>Node7</title>
<g id="a_node7"><a xlink:title=" ">
<polygon fill="white" stroke="#bfbfbf" points="131,-82.5 131,-99.5 232,-99.5 232,-82.5 131,-82.5"/>
<text text-anchor="middle" x="181.5" y="-89.1" font-family="Helvetica,sans-Serif" font-size="8.00">Mutex_non_recursive</text>
</a>
</g>
</g>
<!-- Node7&#45;&gt;Node1 -->
<g id="edge6" class="edge">
<title>Node7&#45;&gt;Node1</title>
<path fill="none" stroke="#9a32cd" stroke-dasharray="5,2" d="M242.32,-97.48C276.54,-101.34 320.23,-106.55 359,-112 364.71,-112.8 370.65,-113.68 376.59,-114.59"/>
<polygon fill="#9a32cd" stroke="#9a32cd" points="242.35,-93.96 232.02,-96.32 241.57,-100.91 242.35,-93.96"/>
<text text-anchor="middle" x="306" y="-114.6" font-family="Helvetica,sans-Serif" font-size="8.00"> m_mutex</text>
</g>
<!-- Node8 -->
<g id="node8" class="node">
<title>Node8</title>
<g id="a_node8"><a xlink:title=" ">
<polygon fill="white" stroke="#bfbfbf" points="134.5,-37 134.5,-63 228.5,-63 228.5,-37 134.5,-37"/>
<text text-anchor="start" x="142.5" y="-52.6" font-family="Helvetica,sans-Serif" font-size="8.00">Single_thread_task</text>
<text text-anchor="middle" x="181.5" y="-43.6" font-family="Helvetica,sans-Serif" font-size="8.00">_loop &amp;</text>
</a>
</g>
</g>
<!-- Node8&#45;&gt;Node1 -->
<g id="edge7" class="edge">
<title>Node8&#45;&gt;Node1</title>
<path fill="none" stroke="#9a32cd" stroke-dasharray="5,2" d="M238.81,-57.23C273.98,-62.7 319.86,-71.61 359,-85 376.04,-90.83 394.07,-99.59 408.68,-107.43"/>
<polygon fill="#9a32cd" stroke="#9a32cd" points="239.14,-53.74 228.73,-55.71 238.09,-60.66 239.14,-53.74"/>
<text text-anchor="middle" x="306" y="-87.6" font-family="Helvetica,sans-Serif" font-size="8.00"> m_worker</text>
</g>
<!-- Node9 -->
<g id="node9" class="node">
<title>Node9</title>
<g id="a_node9"><a xlink:title=" ">
<polygon fill="white" stroke="#bfbfbf" points="159.5,-0.5 159.5,-17.5 203.5,-17.5 203.5,-0.5 159.5,-0.5"/>
<text text-anchor="middle" x="181.5" y="-7.1" font-family="Helvetica,sans-Serif" font-size="8.00">Core &amp;</text>
</a>
</g>
</g>
<!-- Node9&#45;&gt;Node1 -->
<g id="edge8" class="edge">
<title>Node9&#45;&gt;Node1</title>
<path fill="none" stroke="#9a32cd" stroke-dasharray="5,2" d="M213.76,-10.25C250.52,-12.87 312.43,-20.99 359,-46 387.03,-61.05 411.8,-88.97 426.09,-107.26"/>
<polygon fill="#9a32cd" stroke="#9a32cd" points="213.84,-6.75 203.64,-9.62 213.41,-13.73 213.84,-6.75"/>
<text text-anchor="middle" x="306" y="-48.6" font-family="Helvetica,sans-Serif" font-size="8.00"> m_sync_io</text>
</g>
</g>
</svg>
