<?xml version="1.0" encoding="UTF-8" standalone="no"?>
<!DOCTYPE svg PUBLIC "-//W3C//DTD SVG 1.1//EN"
 "http://www.w3.org/Graphics/SVG/1.1/DTD/svg11.dtd">
<!-- Generated by graphviz version 2.43.0 (0)
 -->
<!-- Title: ipc::session::shm::arena_lend::jemalloc::Client_session_impl::Client_session_impl Pages: 1 -->
<svg width="581pt" height="119pt"
 viewBox="0.00 0.00 581.00 119.00" xmlns="http://www.w3.org/2000/svg" xmlns:xlink="http://www.w3.org/1999/xlink">
<g id="graph0" class="graph" transform="scale(1 1) rotate(0) translate(4 115)">
<title>ipc::session::shm::arena_lend::jemalloc::Client_session_impl::Client_session_impl</title>
<polygon fill="white" stroke="transparent" points="-4,4 -4,-115 577,-115 577,4 -4,4"/>
<!-- Node1 -->
<g id="node1" class="node">
<title>Node1</title>
<g id="a_node1"><a xlink:title="See session::Client_session_impl::Client_session_impl() counterpart.">
<polygon fill="#bfbfbf" stroke="black" points="0,-33.5 0,-77.5 103,-77.5 103,-33.5 0,-33.5"/>
<text text-anchor="start" x="8" y="-67.1" font-family="Helvetica,sans-Serif" font-size="8.00">ipc::session::shm::</text>
<text text-anchor="start" x="8" y="-58.1" font-family="Helvetica,sans-Serif" font-size="8.00">arena_lend::jemalloc</text>
<text text-anchor="start" x="8" y="-49.1" font-family="Helvetica,sans-Serif" font-size="8.00">::Client_session_impl</text>
<text text-anchor="middle" x="51.5" y="-40.1" font-family="Helvetica,sans-Serif" font-size="8.00">::Client_session_impl</text>
</a>
</g>
</g>
<!-- Node2 -->
<g id="node2" class="node">
<title>Node2</title>
<g id="a_node2"><a xlink:href="classipc_1_1session_1_1shm_1_1arena__lend_1_1jemalloc_1_1Client__session__impl.html#a697e64450297808bb9ca5c6a870c1fe9" target="_top" xlink:title="Invoked on m_async_cleanup_worker, performs a round of the SHM&#45;pool cleanup algorithm and schedules s...">
<polygon fill="white" stroke="black" points="139,-33.5 139,-77.5 242,-77.5 242,-33.5 139,-33.5"/>
<text text-anchor="start" x="147" y="-67.1" font-family="Helvetica,sans-Serif" font-size="8.00">ipc::session::shm::</text>
<text text-anchor="start" x="147" y="-58.1" font-family="Helvetica,sans-Serif" font-size="8.00">arena_lend::jemalloc</text>
<text text-anchor="start" x="147" y="-49.1" font-family="Helvetica,sans-Serif" font-size="8.00">::Client_session_impl</text>
<text text-anchor="middle" x="190.5" y="-40.1" font-family="Helvetica,sans-Serif" font-size="8.00">::cleanup</text>
</a>
</g>
</g>
<!-- Node1&#45;&gt;Node2 -->
<g id="edge1" class="edge">
<title>Node1&#45;&gt;Node2</title>
<path fill="none" stroke="midnightblue" d="M103.12,-55.5C111.36,-55.5 119.97,-55.5 128.42,-55.5"/>
<polygon fill="midnightblue" stroke="midnightblue" points="128.63,-59 138.63,-55.5 128.63,-52 128.63,-59"/>
</g>
<!-- Node3 -->
<g id="node3" class="node">
<title>Node3</title>
<g id="a_node3"><a xlink:href="namespaceipc_1_1session.html#ac970e7d7b97c1a9737bd836a6a7f77ec" target="_top" xlink:title="Decomposes a Shared_name built as&#45;if by build_conventional_shared_name() overload 1 (non&#45;global&#45;scope...">
<polygon fill="white" stroke="black" points="278,-84.5 278,-110.5 411,-110.5 411,-84.5 278,-84.5"/>
<text text-anchor="start" x="286" y="-100.1" font-family="Helvetica,sans-Serif" font-size="8.00">ipc::session::decompose</text>
<text text-anchor="middle" x="344.5" y="-91.1" font-family="Helvetica,sans-Serif" font-size="8.00">_conventional_shared_name</text>
</a>
</g>
</g>
<!-- Node2&#45;&gt;Node3 -->
<g id="edge2" class="edge">
<title>Node2&#45;&gt;Node3</title>
<path fill="none" stroke="midnightblue" d="M242.11,-69.49C256.36,-73.42 271.95,-77.73 286.53,-81.76"/>
<polygon fill="midnightblue" stroke="midnightblue" points="285.87,-85.21 296.45,-84.5 287.74,-78.46 285.87,-85.21"/>
</g>
<!-- Node5 -->
<g id="node5" class="node">
<title>Node5</title>
<g id="a_node5"><a xlink:href="classipc_1_1util_1_1Shared__name.html#ae89e1e061f87ffe0288514e254837595" target="_top" xlink:title="Returns (sans copying) ref to immutable entire wrapped name string, suitable to pass into sys calls w...">
<polygon fill="white" stroke="black" points="447,-50 447,-67 573,-67 573,-50 447,-50"/>
<text text-anchor="middle" x="510" y="-56.6" font-family="Helvetica,sans-Serif" font-size="8.00">ipc::util::Shared_name::str</text>
</a>
</g>
</g>
<!-- Node2&#45;&gt;Node5 -->
<g id="edge6" class="edge">
<title>Node2&#45;&gt;Node5</title>
<path fill="none" stroke="midnightblue" d="M242.16,-55.98C294.71,-56.48 377.34,-57.26 436.73,-57.82"/>
<polygon fill="midnightblue" stroke="midnightblue" points="436.77,-61.32 446.8,-57.91 436.83,-54.32 436.77,-61.32"/>
</g>
<!-- Node6 -->
<g id="node6" class="node">
<title>Node6</title>
<g id="a_node6"><a xlink:href="namespaceipc_1_1util.html#a924cd56daf7eeaa0b07edb352367f9ec" target="_top" xlink:title="Returns true if and only if the given process (by PID) is reported as running by the OS.">
<polygon fill="white" stroke="black" points="301.5,-0.5 301.5,-26.5 387.5,-26.5 387.5,-0.5 301.5,-0.5"/>
<text text-anchor="start" x="309.5" y="-16.1" font-family="Helvetica,sans-Serif" font-size="8.00">ipc::util::process</text>
<text text-anchor="middle" x="344.5" y="-7.1" font-family="Helvetica,sans-Serif" font-size="8.00">_running</text>
</a>
</g>
</g>
<!-- Node2&#45;&gt;Node6 -->
<g id="edge5" class="edge">
<title>Node2&#45;&gt;Node6</title>
<path fill="none" stroke="midnightblue" d="M242.11,-41.51C257.99,-37.13 275.54,-32.28 291.51,-27.87"/>
<polygon fill="midnightblue" stroke="midnightblue" points="292.51,-31.22 301.22,-25.18 290.65,-24.47 292.51,-31.22"/>
</g>
<!-- Node4 -->
<g id="node4" class="node">
<title>Node4</title>
<g id="a_node4"><a xlink:href="classipc_1_1util_1_1Shared__name.html#a48f20b7b54490aa10dc64081d34c55b2" target="_top" xlink:title="Copy&#45;constructs from a char&#45;sequence container (including string, util::String_view,...">
<polygon fill="white" stroke="black" points="448.5,-89 448.5,-106 571.5,-106 571.5,-89 448.5,-89"/>
<text text-anchor="middle" x="510" y="-95.6" font-family="Helvetica,sans-Serif" font-size="8.00">ipc::util::Shared_name::ct</text>
</a>
</g>
</g>
<!-- Node3&#45;&gt;Node4 -->
<g id="edge3" class="edge">
<title>Node3&#45;&gt;Node4</title>
<path fill="none" stroke="midnightblue" d="M411.06,-97.5C420.03,-97.5 429.28,-97.5 438.33,-97.5"/>
<polygon fill="midnightblue" stroke="midnightblue" points="438.46,-101 448.46,-97.5 438.46,-94 438.46,-101"/>
</g>
<!-- Node3&#45;&gt;Node5 -->
<g id="edge4" class="edge">
<title>Node3&#45;&gt;Node5</title>
<path fill="none" stroke="midnightblue" d="M400.4,-84.41C420.78,-79.54 443.67,-74.08 463.16,-69.44"/>
<polygon fill="midnightblue" stroke="midnightblue" points="464.09,-72.81 473.01,-67.09 462.47,-66 464.09,-72.81"/>
</g>
</g>
</svg>
