<?xml version="1.0" encoding="UTF-8" standalone="no"?>
<!DOCTYPE svg PUBLIC "-//W3C//DTD SVG 1.1//EN"
 "http://www.w3.org/Graphics/SVG/1.1/DTD/svg11.dtd">
<!-- Generated by graphviz version 2.43.0 (0)
 -->
<!-- Title: ipc::session::sync_io::Server_session_adapter::core Pages: 1 -->
<svg width="253pt" height="98pt"
 viewBox="0.00 0.00 253.00 98.00" xmlns="http://www.w3.org/2000/svg" xmlns:xlink="http://www.w3.org/1999/xlink">
<g id="graph0" class="graph" transform="scale(1 1) rotate(0) translate(4 94)">
<title>ipc::session::sync_io::Server_session_adapter::core</title>
<polygon fill="white" stroke="transparent" points="-4,4 -4,-94 249,-94 249,4 -4,4"/>
<!-- Node1 -->
<g id="node1" class="node">
<title>Node1</title>
<g id="a_node1"><a xlink:title="The adapted mutable Session_obj.">
<polygon fill="#bfbfbf" stroke="black" points="150,-27.5 150,-62.5 245,-62.5 245,-27.5 150,-27.5"/>
<text text-anchor="start" x="158" y="-52.1" font-family="Helvetica,sans-Serif" font-size="8.00">ipc::session::sync</text>
<text text-anchor="start" x="158" y="-43.1" font-family="Helvetica,sans-Serif" font-size="8.00">_io::Server_session</text>
<text text-anchor="middle" x="197.5" y="-34.1" font-family="Helvetica,sans-Serif" font-size="8.00">_adapter::core</text>
</a>
</g>
</g>
<!-- Node2 -->
<g id="node2" class="node">
<title>Node2</title>
<g id="a_node2"><a xlink:href="classipc_1_1session_1_1sync__io_1_1Session__server__adapter.html#a2abb42ee66fa0006c675975bf4bed380" target="_top" xlink:title="Acts identically to 1&#45;arg overload of Session_server::async_accept(), except that the completion hand...">
<polygon fill="white" stroke="black" points="0,-54.5 0,-89.5 114,-89.5 114,-54.5 0,-54.5"/>
<text text-anchor="start" x="8" y="-79.1" font-family="Helvetica,sans-Serif" font-size="8.00">ipc::session::sync</text>
<text text-anchor="start" x="8" y="-70.1" font-family="Helvetica,sans-Serif" font-size="8.00">_io::Session_server</text>
<text text-anchor="middle" x="57" y="-61.1" font-family="Helvetica,sans-Serif" font-size="8.00">_adapter::async_accept</text>
</a>
</g>
</g>
<!-- Node1&#45;&gt;Node2 -->
<g id="edge1" class="edge">
<title>Node1&#45;&gt;Node2</title>
<path fill="none" stroke="midnightblue" d="M140.13,-55.99C131.58,-57.66 122.77,-59.37 114.23,-61.04"/>
<polygon fill="midnightblue" stroke="midnightblue" points="140.85,-59.41 150,-54.07 139.51,-52.54 140.85,-59.41"/>
</g>
<!-- Node3 -->
<g id="node3" class="node">
<title>Node3</title>
<g id="a_node3"><a xlink:href="classipc_1_1session_1_1sync__io_1_1Server__session__adapter.html#aaa9d0f33c4d58bf172e639d8f4d8a162" target="_top" xlink:title="Prints string representation of the given Server_session_adapter to the given ostream.">
<polygon fill="white" stroke="black" points="3.5,-0.5 3.5,-35.5 110.5,-35.5 110.5,-0.5 3.5,-0.5"/>
<text text-anchor="start" x="11.5" y="-25.1" font-family="Helvetica,sans-Serif" font-size="8.00">ipc::session::sync</text>
<text text-anchor="start" x="11.5" y="-16.1" font-family="Helvetica,sans-Serif" font-size="8.00">_io::Server_session</text>
<text text-anchor="middle" x="57" y="-7.1" font-family="Helvetica,sans-Serif" font-size="8.00">_adapter::operator&lt;&lt;</text>
</a>
</g>
</g>
<!-- Node1&#45;&gt;Node3 -->
<g id="edge2" class="edge">
<title>Node1&#45;&gt;Node3</title>
<path fill="none" stroke="midnightblue" d="M140.08,-34C130.41,-32.12 120.4,-30.16 110.83,-28.3"/>
<polygon fill="midnightblue" stroke="midnightblue" points="139.51,-37.46 150,-35.93 140.85,-30.59 139.51,-37.46"/>
</g>
</g>
</svg>
