<?xml version="1.0" encoding="UTF-8" standalone="no"?>
<!DOCTYPE svg PUBLIC "-//W3C//DTD SVG 1.1//EN"
 "http://www.w3.org/Graphics/SVG/1.1/DTD/svg11.dtd">
<!-- Generated by graphviz version 2.43.0 (0)
 -->
<!-- Title: ipc::transport::struc::error::Category::code_symbol Pages: 1 -->
<svg width="253pt" height="44pt"
 viewBox="0.00 0.00 253.00 44.00" xmlns="http://www.w3.org/2000/svg" xmlns:xlink="http://www.w3.org/1999/xlink">
<g id="graph0" class="graph" transform="scale(1 1) rotate(0) translate(4 40)">
<title>ipc::transport::struc::error::Category::code_symbol</title>
<polygon fill="white" stroke="transparent" points="-4,4 -4,-40 249,-40 249,4 -4,4"/>
<!-- Node1 -->
<g id="node1" class="node">
<title>Node1</title>
<g id="a_node1"><a xlink:title="Analogous to transport::error::Category::name().">
<polygon fill="#bfbfbf" stroke="black" points="134,-0.5 134,-35.5 245,-35.5 245,-0.5 134,-0.5"/>
<text text-anchor="start" x="142" y="-25.1" font-family="Helvetica,sans-Serif" font-size="8.00">ipc::transport::struc</text>
<text text-anchor="start" x="142" y="-16.1" font-family="Helvetica,sans-Serif" font-size="8.00">::error::Category::code</text>
<text text-anchor="middle" x="189.5" y="-7.1" font-family="Helvetica,sans-Serif" font-size="8.00">_symbol</text>
</a>
</g>
</g>
<!-- Node2 -->
<g id="node2" class="node">
<title>Node2</title>
<g id="a_node2"><a xlink:href="namespaceipc_1_1transport_1_1struc_1_1error.html#a48c47152561dfe3c8d7d94f5f1ba1136" target="_top" xlink:title="Analogous to transport::error::operator&lt;&lt;().">
<polygon fill="white" stroke="black" points="0,-5 0,-31 98,-31 98,-5 0,-5"/>
<text text-anchor="start" x="8" y="-20.6" font-family="Helvetica,sans-Serif" font-size="8.00">ipc::transport::struc</text>
<text text-anchor="middle" x="49" y="-11.6" font-family="Helvetica,sans-Serif" font-size="8.00">::error::operator&lt;&lt;</text>
</a>
</g>
</g>
<!-- Node1&#45;&gt;Node2 -->
<g id="edge1" class="edge">
<title>Node1&#45;&gt;Node2</title>
<path fill="none" stroke="midnightblue" d="M123.7,-18C115.07,-18 106.34,-18 98.06,-18"/>
<polygon fill="midnightblue" stroke="midnightblue" points="123.76,-21.5 133.76,-18 123.76,-14.5 123.76,-21.5"/>
</g>
</g>
</svg>
