<?xml version="1.0" encoding="UTF-8" standalone="no"?>
<!DOCTYPE svg PUBLIC "-//W3C//DTD SVG 1.1//EN"
 "http://www.w3.org/Graphics/SVG/1.1/DTD/svg11.dtd">
<!-- Generated by graphviz version 2.43.0 (0)
 -->
<!-- Title: ipc::transport::Native_socket_stream_acceptor::feed_error_result_to_deficit Pages: 1 -->
<svg width="677pt" height="116pt"
 viewBox="0.00 0.00 677.00 116.00" xmlns="http://www.w3.org/2000/svg" xmlns:xlink="http://www.w3.org/1999/xlink">
<g id="graph0" class="graph" transform="scale(1 1) rotate(0) translate(4 112)">
<title>ipc::transport::Native_socket_stream_acceptor::feed_error_result_to_deficit</title>
<polygon fill="white" stroke="transparent" points="-4,4 -4,-112 673,-112 673,4 -4,4"/>
<!-- Node1 -->
<g id="node1" class="node">
<title>Node1</title>
<g id="a_node1"><a xlink:title="In thread W, gets back to steady state by feeding the given Error_code (which must be the sole elemen...">
<polygon fill="#bfbfbf" stroke="black" points="536,-36.5 536,-71.5 669,-71.5 669,-36.5 536,-36.5"/>
<text text-anchor="start" x="544" y="-61.1" font-family="Helvetica,sans-Serif" font-size="8.00">ipc::transport::Native</text>
<text text-anchor="start" x="544" y="-52.1" font-family="Helvetica,sans-Serif" font-size="8.00">_socket_stream_acceptor</text>
<text text-anchor="middle" x="602.5" y="-43.1" font-family="Helvetica,sans-Serif" font-size="8.00">::feed_error_result_to_deficit</text>
</a>
</g>
</g>
<!-- Node2 -->
<g id="node2" class="node">
<title>Node2</title>
<g id="a_node2"><a xlink:href="classipc_1_1transport_1_1Native__socket__stream__acceptor.html#a2063fff89b58cc5b07ee7651f9e42366" target="_top" xlink:title="Non&#45;template impl of async_accept().">
<polygon fill="white" stroke="black" points="374,-67.5 374,-102.5 493,-102.5 493,-67.5 374,-67.5"/>
<text text-anchor="start" x="382" y="-92.1" font-family="Helvetica,sans-Serif" font-size="8.00">ipc::transport::Native</text>
<text text-anchor="start" x="382" y="-83.1" font-family="Helvetica,sans-Serif" font-size="8.00">_socket_stream_acceptor</text>
<text text-anchor="middle" x="433.5" y="-74.1" font-family="Helvetica,sans-Serif" font-size="8.00">::async_accept_impl</text>
</a>
</g>
</g>
<!-- Node1&#45;&gt;Node2 -->
<g id="edge1" class="edge">
<title>Node1&#45;&gt;Node2</title>
<path fill="none" stroke="midnightblue" d="M525.92,-68.03C514.89,-70.08 503.67,-72.16 493.05,-74.13"/>
<polygon fill="midnightblue" stroke="midnightblue" points="526.78,-71.43 535.98,-66.16 525.51,-64.55 526.78,-71.43"/>
</g>
<!-- Node5 -->
<g id="node5" class="node">
<title>Node5</title>
<g id="a_node5"><a xlink:href="classipc_1_1transport_1_1Native__socket__stream__acceptor.html#a6c7c14574c041bcfd1ccb45137b486b4" target="_top" xlink:title="In thread W, in steady state except for an Error_code just pushed to the back of m_pending_results_q ...">
<polygon fill="white" stroke="black" points="367,-9.5 367,-44.5 500,-44.5 500,-9.5 367,-9.5"/>
<text text-anchor="start" x="375" y="-34.1" font-family="Helvetica,sans-Serif" font-size="8.00">ipc::transport::Native</text>
<text text-anchor="start" x="375" y="-25.1" font-family="Helvetica,sans-Serif" font-size="8.00">_socket_stream_acceptor</text>
<text text-anchor="middle" x="433.5" y="-16.1" font-family="Helvetica,sans-Serif" font-size="8.00">::finalize_q_surplus_on_error</text>
</a>
</g>
</g>
<!-- Node1&#45;&gt;Node5 -->
<g id="edge4" class="edge">
<title>Node1&#45;&gt;Node5</title>
<path fill="none" stroke="midnightblue" d="M525.93,-41.78C517.32,-40.39 508.58,-38.98 500.11,-37.61"/>
<polygon fill="midnightblue" stroke="midnightblue" points="525.55,-45.27 535.98,-43.41 526.66,-38.36 525.55,-45.27"/>
</g>
<!-- Node3 -->
<g id="node3" class="node">
<title>Node3</title>
<g id="a_node3"><a xlink:href="classipc_1_1transport_1_1Native__socket__stream__acceptor.html#a81426af495ba5a9c832d1ba35fe23ba5" target="_top" xlink:title="Asynchronously awaits for a peer connection to be established and calls on_done_func(),...">
<polygon fill="white" stroke="black" points="200,-72.5 200,-107.5 319,-107.5 319,-72.5 200,-72.5"/>
<text text-anchor="start" x="208" y="-97.1" font-family="Helvetica,sans-Serif" font-size="8.00">ipc::transport::Native</text>
<text text-anchor="start" x="208" y="-88.1" font-family="Helvetica,sans-Serif" font-size="8.00">_socket_stream_acceptor</text>
<text text-anchor="middle" x="259.5" y="-79.1" font-family="Helvetica,sans-Serif" font-size="8.00">::async_accept</text>
</a>
</g>
</g>
<!-- Node2&#45;&gt;Node3 -->
<g id="edge2" class="edge">
<title>Node2&#45;&gt;Node3</title>
<path fill="none" stroke="midnightblue" d="M363.72,-87C348.99,-87.43 333.55,-87.88 319.24,-88.29"/>
<polygon fill="midnightblue" stroke="midnightblue" points="363.89,-90.5 373.79,-86.71 363.69,-83.5 363.89,-90.5"/>
</g>
<!-- Node4 -->
<g id="node4" class="node">
<title>Node4</title>
<g id="a_node4"><a xlink:href="classipc_1_1transport_1_1sync__io_1_1Native__socket__stream__acceptor.html#ade5271c427a9ed514555482cc2509ed9" target="_top" xlink:title="Starts background attempt at a peer connection being established, contingent on the user reporting (v...">
<polygon fill="white" stroke="black" points="14.5,-72.5 14.5,-107.5 137.5,-107.5 137.5,-72.5 14.5,-72.5"/>
<text text-anchor="start" x="22.5" y="-97.1" font-family="Helvetica,sans-Serif" font-size="8.00">ipc::transport::sync</text>
<text text-anchor="start" x="22.5" y="-88.1" font-family="Helvetica,sans-Serif" font-size="8.00">_io::Native_socket_stream</text>
<text text-anchor="middle" x="76" y="-79.1" font-family="Helvetica,sans-Serif" font-size="8.00">_acceptor::async_accept</text>
</a>
</g>
</g>
<!-- Node3&#45;&gt;Node4 -->
<g id="edge3" class="edge">
<title>Node3&#45;&gt;Node4</title>
<path fill="none" stroke="midnightblue" d="M189.38,-90C172.36,-90 154.25,-90 137.66,-90"/>
<polygon fill="midnightblue" stroke="midnightblue" points="189.82,-93.5 199.82,-90 189.82,-86.5 189.82,-93.5"/>
</g>
<!-- Node6 -->
<g id="node6" class="node">
<title>Node6</title>
<g id="a_node6"><a xlink:href="classipc_1_1transport_1_1Native__socket__stream__acceptor.html#af52346c8df9efc457efaec35bc6c0807" target="_top" xlink:title="Handler for incoming connection on m_acceptor.">
<polygon fill="white" stroke="black" points="188,-0.5 188,-35.5 331,-35.5 331,-0.5 188,-0.5"/>
<text text-anchor="start" x="196" y="-25.1" font-family="Helvetica,sans-Serif" font-size="8.00">ipc::transport::Native</text>
<text text-anchor="start" x="196" y="-16.1" font-family="Helvetica,sans-Serif" font-size="8.00">_socket_stream_acceptor</text>
<text text-anchor="middle" x="259.5" y="-7.1" font-family="Helvetica,sans-Serif" font-size="8.00">::on_next_peer_socket_or_error</text>
</a>
</g>
</g>
<!-- Node5&#45;&gt;Node6 -->
<g id="edge5" class="edge">
<title>Node5&#45;&gt;Node6</title>
<path fill="none" stroke="midnightblue" d="M356.75,-23.04C348.28,-22.59 339.68,-22.14 331.28,-21.7"/>
<polygon fill="midnightblue" stroke="midnightblue" points="356.81,-26.54 366.98,-23.57 357.18,-19.55 356.81,-26.54"/>
</g>
<!-- Node6&#45;&gt;Node6 -->
<g id="edge7" class="edge">
<title>Node6&#45;&gt;Node6</title>
<path fill="none" stroke="midnightblue" d="M289.8,-46.1C285.55,-50.77 275.45,-54 259.5,-54 233.33,-54 222.91,-45.31 228.22,-35.78"/>
<polygon fill="midnightblue" stroke="midnightblue" points="293.32,-46.07 290.78,-35.78 286.35,-45.41 293.32,-46.07"/>
</g>
<!-- Node7 -->
<g id="node7" class="node">
<title>Node7</title>
<g id="a_node7"><a xlink:href="classipc_1_1transport_1_1Native__socket__stream__acceptor.html#a77795acb028a95a4804f9b3ef18d99b0" target="_top" xlink:title="Creates the Native_socket_stream_acceptor and immediately begins listening in the background,...">
<polygon fill="white" stroke="black" points="0,-0.5 0,-35.5 152,-35.5 152,-0.5 0,-0.5"/>
<text text-anchor="start" x="8" y="-25.1" font-family="Helvetica,sans-Serif" font-size="8.00">ipc::transport::Native</text>
<text text-anchor="start" x="8" y="-16.1" font-family="Helvetica,sans-Serif" font-size="8.00">_socket_stream_acceptor</text>
<text text-anchor="middle" x="76" y="-7.1" font-family="Helvetica,sans-Serif" font-size="8.00">::Native_socket_stream_acceptor</text>
</a>
</g>
</g>
<!-- Node6&#45;&gt;Node7 -->
<g id="edge6" class="edge">
<title>Node6&#45;&gt;Node7</title>
<path fill="none" stroke="midnightblue" d="M177.61,-18C169.19,-18 160.66,-18 152.3,-18"/>
<polygon fill="midnightblue" stroke="midnightblue" points="177.81,-21.5 187.81,-18 177.81,-14.5 177.81,-21.5"/>
</g>
</g>
</svg>
