<?xml version="1.0" encoding="UTF-8" standalone="no"?>
<!DOCTYPE svg PUBLIC "-//W3C//DTD SVG 1.1//EN"
 "http://www.w3.org/Graphics/SVG/1.1/DTD/svg11.dtd">
<!-- Generated by graphviz version 2.43.0 (0)
 -->
<!-- Title: ipc::transport::Bipc_mq_handle::timed_wait_receivable Pages: 1 -->
<svg width="288pt" height="58pt"
 viewBox="0.00 0.00 288.00 57.50" xmlns="http://www.w3.org/2000/svg" xmlns:xlink="http://www.w3.org/1999/xlink">
<g id="graph0" class="graph" transform="scale(1 1) rotate(0) translate(4 53.5)">
<title>ipc::transport::Bipc_mq_handle::timed_wait_receivable</title>
<polygon fill="white" stroke="transparent" points="-4,4 -4,-53.5 284,-53.5 284,4 -4,4"/>
<!-- Node1 -->
<g id="node1" class="node">
<title>Node1</title>
<g id="a_node1"><a xlink:title="Implements Persistent_mq_handle API: Like timed_receive() but without the actual popping of a message...">
<polygon fill="#bfbfbf" stroke="black" points="164,-0.5 164,-35.5 280,-35.5 280,-0.5 164,-0.5"/>
<text text-anchor="start" x="172" y="-25.1" font-family="Helvetica,sans-Serif" font-size="8.00">ipc::transport::Bipc</text>
<text text-anchor="start" x="172" y="-16.1" font-family="Helvetica,sans-Serif" font-size="8.00">_mq_handle::timed_wait</text>
<text text-anchor="middle" x="222" y="-7.1" font-family="Helvetica,sans-Serif" font-size="8.00">_receivable</text>
</a>
</g>
</g>
<!-- Node2 -->
<g id="node2" class="node">
<title>Node2</title>
<g id="a_node2"><a xlink:href="classipc_1_1transport_1_1Bipc__mq__handle.html#a67be05bc1749981e0863d18681d006ac" target="_top" xlink:title="Implements Persistent_mq_handle API: Blocking timed receive: pops copy of message from queue into buf...">
<polygon fill="white" stroke="black" points="0,-5 0,-31 128,-31 128,-5 0,-5"/>
<text text-anchor="start" x="8" y="-20.6" font-family="Helvetica,sans-Serif" font-size="8.00">ipc::transport::Bipc</text>
<text text-anchor="middle" x="64" y="-11.6" font-family="Helvetica,sans-Serif" font-size="8.00">_mq_handle::timed_receive</text>
</a>
</g>
</g>
<!-- Node1&#45;&gt;Node2 -->
<g id="edge1" class="edge">
<title>Node1&#45;&gt;Node2</title>
<path fill="none" stroke="midnightblue" d="M153.63,-18C145.2,-18 136.61,-18 128.25,-18"/>
<polygon fill="midnightblue" stroke="midnightblue" points="153.8,-21.5 163.8,-18 153.8,-14.5 153.8,-21.5"/>
</g>
<!-- Node2&#45;&gt;Node2 -->
<g id="edge2" class="edge">
<title>Node2&#45;&gt;Node2</title>
<path fill="none" stroke="midnightblue" d="M92.44,-41.44C89.28,-46.14 79.8,-49.5 64,-49.5 38.08,-49.5 29.17,-40.46 37.27,-31.27"/>
<polygon fill="midnightblue" stroke="midnightblue" points="95.84,-40.55 90.73,-31.27 88.93,-41.71 95.84,-40.55"/>
</g>
</g>
</svg>
