<?xml version="1.0" encoding="UTF-8" standalone="no"?>
<!DOCTYPE svg PUBLIC "-//W3C//DTD SVG 1.1//EN"
 "http://www.w3.org/Graphics/SVG/1.1/DTD/svg11.dtd">
<!-- Generated by graphviz version 2.43.0 (0)
 -->
<!-- Title: ipc::transport::Native_socket_stream::Impl Pages: 1 -->
<svg width="232pt" height="89pt"
 viewBox="0.00 0.00 232.00 89.00" xmlns="http://www.w3.org/2000/svg" xmlns:xlink="http://www.w3.org/1999/xlink">
<g id="graph0" class="graph" transform="scale(1 1) rotate(0) translate(4 85)">
<title>ipc::transport::Native_socket_stream::Impl</title>
<polygon fill="white" stroke="transparent" points="-4,4 -4,-85 228,-85 228,4 -4,4"/>
<!-- Node1 -->
<g id="node1" class="node">
<title>Node1</title>
<g id="a_node1"><a xlink:title="Internal, non&#45;movable pImpl implementation of Native_socket_stream class.">
<polygon fill="#bfbfbf" stroke="black" points="61.5,-0.5 61.5,-26.5 165.5,-26.5 165.5,-0.5 61.5,-0.5"/>
<text text-anchor="start" x="69.5" y="-16.1" font-family="Helvetica,sans-Serif" font-size="8.00">ipc::transport::Native</text>
<text text-anchor="middle" x="113.5" y="-7.1" font-family="Helvetica,sans-Serif" font-size="8.00">_socket_stream::Impl</text>
</a>
</g>
</g>
<!-- Node2 -->
<g id="node2" class="node">
<title>Node2</title>
<g id="a_node2"><a xlink:title=" ">
<polygon fill="white" stroke="#bfbfbf" points="0,-63.5 0,-80.5 107,-80.5 107,-63.5 0,-63.5"/>
<text text-anchor="middle" x="53.5" y="-70.1" font-family="Helvetica,sans-Serif" font-size="8.00">flow::log::Log_context</text>
</a>
</g>
</g>
<!-- Node2&#45;&gt;Node1 -->
<g id="edge1" class="edge">
<title>Node2&#45;&gt;Node1</title>
<path fill="none" stroke="midnightblue" d="M69.3,-56.12C79.07,-46.92 91.44,-35.27 100.61,-26.64"/>
<polygon fill="midnightblue" stroke="midnightblue" points="66.72,-53.74 61.84,-63.14 71.52,-58.84 66.72,-53.74"/>
</g>
<!-- Node3 -->
<g id="node3" class="node">
<title>Node3</title>
<g id="a_node3"><a xlink:title=" ">
<polygon fill="white" stroke="#bfbfbf" points="125,-63.5 125,-80.5 224,-80.5 224,-63.5 125,-63.5"/>
<text text-anchor="middle" x="174.5" y="-70.1" font-family="Helvetica,sans-Serif" font-size="8.00">boost::noncopyable</text>
</a>
</g>
</g>
<!-- Node3&#45;&gt;Node1 -->
<g id="edge2" class="edge">
<title>Node3&#45;&gt;Node1</title>
<path fill="none" stroke="#8b1a1a" d="M158.71,-56.37C148.78,-47.18 136.12,-35.45 126.72,-26.75"/>
<polygon fill="#8b1a1a" stroke="#8b1a1a" points="156.56,-59.15 166.27,-63.38 161.32,-54.02 156.56,-59.15"/>
</g>
</g>
</svg>
