<?xml version="1.0" encoding="UTF-8" standalone="no"?>
<!DOCTYPE svg PUBLIC "-//W3C//DTD SVG 1.1//EN"
 "http://www.w3.org/Graphics/SVG/1.1/DTD/svg11.dtd">
<!-- Generated by graphviz version 2.43.0 (0)
 -->
<!-- Title: ipc::transport::sync_io::Blob_stream_mq_receiver&lt; Persistent_mq_handle &gt; Pages: 1 -->
<svg width="766pt" height="272pt"
 viewBox="0.00 0.00 766.00 271.50" xmlns="http://www.w3.org/2000/svg" xmlns:xlink="http://www.w3.org/1999/xlink">
<g id="graph0" class="graph" transform="scale(1 1) rotate(0) translate(4 267.5)">
<title>ipc::transport::sync_io::Blob_stream_mq_receiver&lt; Persistent_mq_handle &gt;</title>
<polygon fill="white" stroke="transparent" points="-4,4 -4,-267.5 762,-267.5 762,4 -4,4"/>
<!-- Node1 -->
<g id="node1" class="node">
<title>Node1</title>
<g id="a_node1"><a xlink:title="Implements sync_io::Blob_receiver concept by using an adopted Persistent_mq_handle MQ handle to an MQ...">
<polygon fill="#bfbfbf" stroke="black" points="621,-75 621,-110 758,-110 758,-75 621,-75"/>
<text text-anchor="start" x="629" y="-99.6" font-family="Helvetica,sans-Serif" font-size="8.00">ipc::transport::sync</text>
<text text-anchor="start" x="629" y="-90.6" font-family="Helvetica,sans-Serif" font-size="8.00">_io::Blob_stream_mq_receiver</text>
<text text-anchor="middle" x="689.5" y="-81.6" font-family="Helvetica,sans-Serif" font-size="8.00">&lt; Persistent_mq_handle &gt;</text>
</a>
</g>
</g>
<!-- Node2 -->
<g id="node2" class="node">
<title>Node2</title>
<g id="a_node2"><a xlink:href="classipc_1_1transport_1_1Blob__stream__mq__base.html" target="_top" xlink:title="Base of Blob_stream_mq_sender and Blob_stream_mq_receiver containing certain static facilities,...">
<polygon fill="white" stroke="black" points="314,-228 314,-263 453,-263 453,-228 314,-228"/>
<text text-anchor="start" x="322" y="-252.6" font-family="Helvetica,sans-Serif" font-size="8.00">ipc::transport::Blob</text>
<text text-anchor="start" x="322" y="-243.6" font-family="Helvetica,sans-Serif" font-size="8.00">_stream_mq_base&lt; Persistent</text>
<text text-anchor="middle" x="383.5" y="-234.6" font-family="Helvetica,sans-Serif" font-size="8.00">_mq_handle &gt;</text>
</a>
</g>
</g>
<!-- Node2&#45;&gt;Node1 -->
<g id="edge1" class="edge">
<title>Node2&#45;&gt;Node1</title>
<path fill="none" stroke="midnightblue" d="M440.55,-224.03C444.78,-222.22 448.98,-220.36 453,-218.5 528.54,-183.55 613.93,-135.66 658.22,-110.17"/>
<polygon fill="midnightblue" stroke="midnightblue" points="439.11,-220.83 431.23,-227.92 441.81,-227.29 439.11,-220.83"/>
</g>
<!-- Node3 -->
<g id="node3" class="node">
<title>Node3</title>
<g id="a_node3"><a xlink:href="classipc_1_1util_1_1Shared__name.html" target="_top" xlink:title="String&#45;wrapping abstraction representing a name uniquely distinguishing a kernel&#45;persistent entity fr...">
<polygon fill="white" stroke="black" points="328.5,-102 328.5,-119 438.5,-119 438.5,-102 328.5,-102"/>
<text text-anchor="middle" x="383.5" y="-108.6" font-family="Helvetica,sans-Serif" font-size="8.00">ipc::util::Shared_name</text>
</a>
</g>
</g>
<!-- Node3&#45;&gt;Node1 -->
<g id="edge2" class="edge">
<title>Node3&#45;&gt;Node1</title>
<path fill="none" stroke="#9a32cd" stroke-dasharray="5,2" d="M448.99,-106.68C499.48,-103.69 569.5,-99.55 620.79,-96.51"/>
<polygon fill="#9a32cd" stroke="#9a32cd" points="448.62,-103.2 438.85,-107.28 449.04,-110.18 448.62,-103.2"/>
<text text-anchor="middle" x="537" y="-107.1" font-family="Helvetica,sans-Serif" font-size="8.00"> S_RESOURCE_TYPE_ID</text>
</g>
<!-- Node3&#45;&gt;Node3 -->
<g id="edge3" class="edge">
<title>Node3&#45;&gt;Node3</title>
<path fill="none" stroke="#9a32cd" stroke-dasharray="5,2" d="M361.03,-127.98C361.55,-133.32 369.04,-137.5 383.5,-137.5 405.53,-137.5 411.38,-127.79 401.06,-119.07"/>
<polygon fill="#9a32cd" stroke="#9a32cd" points="364.18,-129.52 365.94,-119.07 358.05,-126.14 364.18,-129.52"/>
<text text-anchor="middle" x="383.5" y="-203.1" font-family="Helvetica,sans-Serif" font-size="8.00"> S_1ST_OR_ONLY</text>
<text text-anchor="middle" x="383.5" y="-194.1" font-family="Helvetica,sans-Serif" font-size="8.00">S_EMPTY</text>
<text text-anchor="start" x="345" y="-185.1" font-family="Helvetica,sans-Serif" font-size="8.00">S_RESOURCE_TYPE</text>
<text text-anchor="middle" x="383.5" y="-176.1" font-family="Helvetica,sans-Serif" font-size="8.00">_ID_MUTEX</text>
<text text-anchor="start" x="345" y="-167.1" font-family="Helvetica,sans-Serif" font-size="8.00">S_RESOURCE_TYPE</text>
<text text-anchor="middle" x="383.5" y="-158.1" font-family="Helvetica,sans-Serif" font-size="8.00">_ID_SHM</text>
<text text-anchor="middle" x="383.5" y="-149.1" font-family="Helvetica,sans-Serif" font-size="8.00">S_ROOT_MAGIC</text>
<text text-anchor="middle" x="383.5" y="-140.1" font-family="Helvetica,sans-Serif" font-size="8.00">S_SENTINEL</text>
</g>
<!-- Node4 -->
<g id="node4" class="node">
<title>Node4</title>
<g id="a_node4"><a xlink:title=" ">
<polygon fill="white" stroke="#bfbfbf" points="150,-138 150,-155 190,-155 190,-138 150,-138"/>
<text text-anchor="middle" x="170" y="-144.6" font-family="Helvetica,sans-Serif" font-size="8.00">size_t</text>
</a>
</g>
</g>
<!-- Node4&#45;&gt;Node3 -->
<g id="edge4" class="edge">
<title>Node4&#45;&gt;Node3</title>
<path fill="none" stroke="#9a32cd" stroke-dasharray="5,2" d="M200.36,-141.5C234.44,-135.7 291.22,-126.04 332.34,-119.04"/>
<polygon fill="#9a32cd" stroke="#9a32cd" points="199.41,-138.11 190.14,-143.24 200.59,-145.01 199.41,-138.11"/>
<text text-anchor="middle" x="263" y="-138.1" font-family="Helvetica,sans-Serif" font-size="8.00"> S_MAX_LENGTH</text>
</g>
<!-- Node5 -->
<g id="node5" class="node">
<title>Node5</title>
<g id="a_node5"><a xlink:title=" ">
<polygon fill="white" stroke="#bfbfbf" points="128,-102 128,-119 212,-119 212,-102 128,-102"/>
<text text-anchor="middle" x="170" y="-108.6" font-family="Helvetica,sans-Serif" font-size="8.00">static const char</text>
</a>
</g>
</g>
<!-- Node5&#45;&gt;Node3 -->
<g id="edge5" class="edge">
<title>Node5&#45;&gt;Node3</title>
<path fill="none" stroke="#9a32cd" stroke-dasharray="5,2" d="M222.12,-110.5C254.25,-110.5 295.67,-110.5 328.37,-110.5"/>
<polygon fill="#9a32cd" stroke="#9a32cd" points="222.03,-107 212.03,-110.5 222.03,-114 222.03,-107"/>
<text text-anchor="middle" x="263" y="-113.1" font-family="Helvetica,sans-Serif" font-size="8.00"> S_SEPARATOR</text>
</g>
<!-- Node6 -->
<g id="node6" class="node">
<title>Node6</title>
<g id="a_node6"><a xlink:title=" ">
<polygon fill="white" stroke="black" points="140.5,-66 140.5,-83 199.5,-83 199.5,-66 140.5,-66"/>
<text text-anchor="middle" x="170" y="-72.6" font-family="Helvetica,sans-Serif" font-size="8.00">std::string</text>
</a>
</g>
</g>
<!-- Node6&#45;&gt;Node3 -->
<g id="edge6" class="edge">
<title>Node6&#45;&gt;Node3</title>
<path fill="none" stroke="#9a32cd" stroke-dasharray="5,2" d="M209.65,-81.08C244.06,-86.94 294.62,-95.54 332.18,-101.93"/>
<polygon fill="#9a32cd" stroke="#9a32cd" points="209.97,-77.58 199.52,-79.36 208.79,-84.48 209.97,-77.58"/>
<text text-anchor="middle" x="263" y="-98.1" font-family="Helvetica,sans-Serif" font-size="8.00"> m_raw_name</text>
</g>
<!-- Node7 -->
<g id="node7" class="node">
<title>Node7</title>
<g id="a_node7"><a xlink:title=" ">
<polygon fill="white" stroke="black" points="0,-61.5 0,-87.5 91,-87.5 91,-61.5 0,-61.5"/>
<text text-anchor="start" x="8" y="-77.1" font-family="Helvetica,sans-Serif" font-size="8.00">std::basic_string&lt;</text>
<text text-anchor="middle" x="45.5" y="-68.1" font-family="Helvetica,sans-Serif" font-size="8.00"> Char &gt;</text>
</a>
</g>
</g>
<!-- Node7&#45;&gt;Node6 -->
<g id="edge7" class="edge">
<title>Node7&#45;&gt;Node6</title>
<path fill="none" stroke="midnightblue" d="M101.25,-74.5C114.72,-74.5 128.61,-74.5 140.29,-74.5"/>
<polygon fill="midnightblue" stroke="midnightblue" points="101.07,-71 91.07,-74.5 101.07,-78 101.07,-71"/>
</g>
<!-- Node8 -->
<g id="node8" class="node">
<title>Node8</title>
<g id="a_node8"><a xlink:title=" ">
<polygon fill="white" stroke="#bfbfbf" points="366,-64 366,-81 401,-81 401,-64 366,-64"/>
<text text-anchor="middle" x="383.5" y="-70.6" font-family="Helvetica,sans-Serif" font-size="8.00">bool</text>
</a>
</g>
</g>
<!-- Node8&#45;&gt;Node1 -->
<g id="edge8" class="edge">
<title>Node8&#45;&gt;Node1</title>
<path fill="none" stroke="#9a32cd" stroke-dasharray="5,2" d="M411.05,-71.31C452.26,-69.81 534.08,-68.24 603,-75.5 608.72,-76.1 614.62,-76.9 620.53,-77.82"/>
<polygon fill="#9a32cd" stroke="#9a32cd" points="410.86,-67.81 401.01,-71.7 411.14,-74.81 410.86,-67.81"/>
<text text-anchor="middle" x="537" y="-87.1" font-family="Helvetica,sans-Serif" font-size="8.00"> S_BLOB_UNDERFLOW_ALLOWED</text>
<text text-anchor="middle" x="537" y="-78.1" font-family="Helvetica,sans-Serif" font-size="8.00">S_TRANSMIT_NATIVE_HANDLES</text>
</g>
<!-- Node9 -->
<g id="node9" class="node">
<title>Node9</title>
<g id="a_node9"><a xlink:title=" ">
<polygon fill="white" stroke="#bfbfbf" points="319,-0.5 319,-44.5 448,-44.5 448,-0.5 319,-0.5"/>
<text text-anchor="start" x="327" y="-34.1" font-family="Helvetica,sans-Serif" font-size="8.00">propagate_const&lt; boost</text>
<text text-anchor="start" x="327" y="-25.1" font-family="Helvetica,sans-Serif" font-size="8.00">::movelib::unique_ptr</text>
<text text-anchor="start" x="327" y="-16.1" font-family="Helvetica,sans-Serif" font-size="8.00">&lt; Blob_stream_mq_receiver</text>
<text text-anchor="middle" x="383.5" y="-7.1" font-family="Helvetica,sans-Serif" font-size="8.00">_impl&lt; Mq &gt; &gt; &gt;</text>
</a>
</g>
</g>
<!-- Node9&#45;&gt;Node1 -->
<g id="edge9" class="edge">
<title>Node9&#45;&gt;Node1</title>
<path fill="none" stroke="#9a32cd" stroke-dasharray="5,2" d="M458.07,-29.41C500.91,-34.56 555.64,-43.06 603,-56.5 619.58,-61.2 637.24,-68.26 652.17,-74.89"/>
<polygon fill="#9a32cd" stroke="#9a32cd" points="458.35,-25.92 448.01,-28.24 457.54,-32.88 458.35,-25.92"/>
<text text-anchor="middle" x="537" y="-59.1" font-family="Helvetica,sans-Serif" font-size="8.00"> m_impl</text>
</g>
</g>
</svg>
