<?xml version="1.0" encoding="UTF-8" standalone="no"?>
<!DOCTYPE svg PUBLIC "-//W3C//DTD SVG 1.1//EN"
 "http://www.w3.org/Graphics/SVG/1.1/DTD/svg11.dtd">
<!-- Generated by graphviz version 2.43.0 (0)
 -->
<!-- Title: ipc::util::Process_credentials::operator== Pages: 1 -->
<svg width="281pt" height="125pt"
 viewBox="0.00 0.00 281.00 125.00" xmlns="http://www.w3.org/2000/svg" xmlns:xlink="http://www.w3.org/1999/xlink">
<g id="graph0" class="graph" transform="scale(1 1) rotate(0) translate(4 121)">
<title>ipc::util::Process_credentials::operator==</title>
<polygon fill="white" stroke="transparent" points="-4,4 -4,-121 277,-121 277,4 -4,4"/>
<!-- Node1 -->
<g id="node1" class="node">
<title>Node1</title>
<g id="a_node1"><a xlink:title="Checks for by&#45;value equality between two Process_credentials objects.">
<polygon fill="#bfbfbf" stroke="black" points="0,-45.5 0,-71.5 121,-71.5 121,-45.5 0,-45.5"/>
<text text-anchor="start" x="8" y="-61.1" font-family="Helvetica,sans-Serif" font-size="8.00">ipc::util::Process</text>
<text text-anchor="middle" x="60.5" y="-52.1" font-family="Helvetica,sans-Serif" font-size="8.00">_credentials::operator==</text>
</a>
</g>
</g>
<!-- Node2 -->
<g id="node2" class="node">
<title>Node2</title>
<g id="a_node2"><a xlink:href="classipc_1_1util_1_1Process__credentials.html#ae54faa2974b966d31678fd51b7200514" target="_top" xlink:title="The group user ID (GID).">
<polygon fill="white" stroke="black" points="161.5,-90.5 161.5,-116.5 268.5,-116.5 268.5,-90.5 161.5,-90.5"/>
<text text-anchor="start" x="169.5" y="-106.1" font-family="Helvetica,sans-Serif" font-size="8.00">ipc::util::Process</text>
<text text-anchor="middle" x="215" y="-97.1" font-family="Helvetica,sans-Serif" font-size="8.00">_credentials::group_id</text>
</a>
</g>
</g>
<!-- Node1&#45;&gt;Node2 -->
<g id="edge1" class="edge">
<title>Node1&#45;&gt;Node2</title>
<path fill="none" stroke="midnightblue" d="M105.61,-71.52C122.61,-76.53 142.21,-82.32 160.03,-87.58"/>
<polygon fill="midnightblue" stroke="midnightblue" points="159.14,-90.96 169.73,-90.44 161.13,-84.25 159.14,-90.96"/>
</g>
<!-- Node3 -->
<g id="node3" class="node">
<title>Node3</title>
<g id="a_node3"><a xlink:href="classipc_1_1util_1_1Process__credentials.html#a181288d97adcadedf187d08c71045854" target="_top" xlink:title="The process ID (PID).">
<polygon fill="white" stroke="black" points="157,-45.5 157,-71.5 273,-71.5 273,-45.5 157,-45.5"/>
<text text-anchor="start" x="165" y="-61.1" font-family="Helvetica,sans-Serif" font-size="8.00">ipc::util::Process</text>
<text text-anchor="middle" x="215" y="-52.1" font-family="Helvetica,sans-Serif" font-size="8.00">_credentials::process_id</text>
</a>
</g>
</g>
<!-- Node1&#45;&gt;Node3 -->
<g id="edge2" class="edge">
<title>Node1&#45;&gt;Node3</title>
<path fill="none" stroke="midnightblue" d="M121.33,-58.5C129.64,-58.5 138.22,-58.5 146.65,-58.5"/>
<polygon fill="midnightblue" stroke="midnightblue" points="146.83,-62 156.83,-58.5 146.83,-55 146.83,-62"/>
</g>
<!-- Node4 -->
<g id="node4" class="node">
<title>Node4</title>
<g id="a_node4"><a xlink:href="classipc_1_1util_1_1Process__credentials.html#ac1fb8e7a5663735405ca0c0bc29163c5" target="_top" xlink:title="The user ID (UID).">
<polygon fill="white" stroke="black" points="164.5,-0.5 164.5,-26.5 265.5,-26.5 265.5,-0.5 164.5,-0.5"/>
<text text-anchor="start" x="172.5" y="-16.1" font-family="Helvetica,sans-Serif" font-size="8.00">ipc::util::Process</text>
<text text-anchor="middle" x="215" y="-7.1" font-family="Helvetica,sans-Serif" font-size="8.00">_credentials::user_id</text>
</a>
</g>
</g>
<!-- Node1&#45;&gt;Node4 -->
<g id="edge3" class="edge">
<title>Node1&#45;&gt;Node4</title>
<path fill="none" stroke="midnightblue" d="M105.61,-45.48C122.61,-40.47 142.21,-34.68 160.03,-29.42"/>
<polygon fill="midnightblue" stroke="midnightblue" points="161.13,-32.75 169.73,-26.56 159.14,-26.04 161.13,-32.75"/>
</g>
</g>
</svg>
