<?xml version="1.0" encoding="UTF-8" standalone="no"?>
<!DOCTYPE svg PUBLIC "-//W3C//DTD SVG 1.1//EN"
 "http://www.w3.org/Graphics/SVG/1.1/DTD/svg11.dtd">
<!-- Generated by graphviz version 2.43.0 (0)
 -->
<!-- Title: ipc::transport::struc::Msg_in&lt; Message_body, Struct_reader_config &gt; Pages: 1 -->
<svg width="582pt" height="311pt"
 viewBox="0.00 0.00 582.00 311.00" xmlns="http://www.w3.org/2000/svg" xmlns:xlink="http://www.w3.org/1999/xlink">
<g id="graph0" class="graph" transform="scale(1 1) rotate(0) translate(4 307)">
<title>ipc::transport::struc::Msg_in&lt; Message_body, Struct_reader_config &gt;</title>
<polygon fill="white" stroke="transparent" points="-4,4 -4,-307 578,-307 578,4 -4,4"/>
<!-- Node1 -->
<g id="node1" class="node">
<title>Node1</title>
<g id="a_node1"><a xlink:title="A structured in&#45;message instance suitable as received and emittable (to user) by struc::Channel.">
<polygon fill="#bfbfbf" stroke="black" points="452,-133.5 452,-168.5 574,-168.5 574,-133.5 452,-133.5"/>
<text text-anchor="start" x="460" y="-158.1" font-family="Helvetica,sans-Serif" font-size="8.00">ipc::transport::struc</text>
<text text-anchor="start" x="460" y="-149.1" font-family="Helvetica,sans-Serif" font-size="8.00">::Msg_in&lt; Message_body,</text>
<text text-anchor="middle" x="513" y="-140.1" font-family="Helvetica,sans-Serif" font-size="8.00"> Struct_reader_config &gt;</text>
</a>
</g>
</g>
<!-- Node2 -->
<g id="node2" class="node">
<title>Node2</title>
<g id="a_node2"><a xlink:title=" ">
<polygon fill="white" stroke="#bfbfbf" points="215.5,-285.5 215.5,-302.5 314.5,-302.5 314.5,-285.5 215.5,-285.5"/>
<text text-anchor="middle" x="265" y="-292.1" font-family="Helvetica,sans-Serif" font-size="8.00">boost::noncopyable</text>
</a>
</g>
</g>
<!-- Node2&#45;&gt;Node1 -->
<g id="edge1" class="edge">
<title>Node2&#45;&gt;Node1</title>
<path fill="none" stroke="#8b1a1a" d="M324.87,-297.66C359.13,-297.07 401.78,-291.43 434,-271 472.4,-246.64 495.76,-195.79 505.96,-168.77"/>
<polygon fill="#8b1a1a" stroke="#8b1a1a" points="324.51,-294.16 314.52,-297.69 324.53,-301.16 324.51,-294.16"/>
</g>
<!-- Node3 -->
<g id="node3" class="node">
<title>Node3</title>
<g id="a_node3"><a xlink:title=" ">
<polygon fill="white" stroke="#bfbfbf" points="214.5,-249.5 214.5,-266.5 315.5,-266.5 315.5,-249.5 214.5,-249.5"/>
<text text-anchor="middle" x="265" y="-256.1" font-family="Helvetica,sans-Serif" font-size="8.00">Struct_reader_config</text>
</a>
</g>
</g>
<!-- Node3&#45;&gt;Node1 -->
<g id="edge2" class="edge">
<title>Node3&#45;&gt;Node1</title>
<path fill="none" stroke="#9a32cd" stroke-dasharray="5,2" d="M325.81,-259.49C359.3,-258.02 400.86,-252.22 434,-235 463.49,-219.68 487.7,-188.6 500.97,-168.84"/>
<polygon fill="#9a32cd" stroke="#9a32cd" points="325.58,-256 315.7,-259.82 325.8,-263 325.58,-256"/>
<text text-anchor="middle" x="386.5" y="-260.6" font-family="Helvetica,sans-Serif" font-size="8.00"> m_reader_config</text>
</g>
<!-- Node4 -->
<g id="node4" class="node">
<title>Node4</title>
<g id="a_node4"><a xlink:title=" ">
<polygon fill="white" stroke="#bfbfbf" points="216,-208.5 216,-225.5 314,-225.5 314,-208.5 216,-208.5"/>
<text text-anchor="middle" x="265" y="-215.1" font-family="Helvetica,sans-Serif" font-size="8.00">optional&lt; Reader &gt;</text>
</a>
</g>
</g>
<!-- Node4&#45;&gt;Node1 -->
<g id="edge3" class="edge">
<title>Node4&#45;&gt;Node1</title>
<path fill="none" stroke="#9a32cd" stroke-dasharray="5,2" d="M324.51,-214.83C357.38,-212.27 398.75,-206.76 434,-195 452.58,-188.8 471.77,-178.05 486.46,-168.72"/>
<polygon fill="#9a32cd" stroke="#9a32cd" points="323.89,-211.37 314.16,-215.57 324.38,-218.35 323.89,-211.37"/>
<text text-anchor="middle" x="386.5" y="-224.6" font-family="Helvetica,sans-Serif" font-size="8.00"> m_body_reader</text>
<text text-anchor="middle" x="386.5" y="-215.6" font-family="Helvetica,sans-Serif" font-size="8.00">m_mdt_reader</text>
</g>
<!-- Node5 -->
<g id="node5" class="node">
<title>Node5</title>
<g id="a_node5"><a xlink:title=" ">
<polygon fill="white" stroke="#bfbfbf" points="247.5,-162.5 247.5,-179.5 282.5,-179.5 282.5,-162.5 247.5,-162.5"/>
<text text-anchor="middle" x="265" y="-169.1" font-family="Helvetica,sans-Serif" font-size="8.00">bool</text>
</a>
</g>
</g>
<!-- Node5&#45;&gt;Node1 -->
<g id="edge4" class="edge">
<title>Node5&#45;&gt;Node1</title>
<path fill="none" stroke="#9a32cd" stroke-dasharray="5,2" d="M292.75,-168.83C330.65,-165.74 401.01,-160.02 451.83,-155.89"/>
<polygon fill="#9a32cd" stroke="#9a32cd" points="292.21,-165.36 282.52,-169.66 292.77,-172.33 292.21,-165.36"/>
<text text-anchor="start" x="339" y="-184.6" font-family="Helvetica,sans-Serif" font-size="8.00"> m_body_deserialized</text>
<text text-anchor="middle" x="386.5" y="-175.6" font-family="Helvetica,sans-Serif" font-size="8.00">_ok</text>
<text text-anchor="middle" x="386.5" y="-166.6" font-family="Helvetica,sans-Serif" font-size="8.00">m_mdt_deserialized_ok</text>
</g>
<!-- Node6 -->
<g id="node6" class="node">
<title>Node6</title>
<g id="a_node6"><a xlink:title=" ">
<polygon fill="white" stroke="#bfbfbf" points="242,-126.5 242,-143.5 288,-143.5 288,-126.5 242,-126.5"/>
<text text-anchor="middle" x="265" y="-133.1" font-family="Helvetica,sans-Serif" font-size="8.00">Reader</text>
</a>
</g>
</g>
<!-- Node6&#45;&gt;Node1 -->
<g id="edge5" class="edge">
<title>Node6&#45;&gt;Node1</title>
<path fill="none" stroke="#9a32cd" stroke-dasharray="5,2" d="M298.32,-133.44C332.21,-132.21 386.98,-131.38 434,-136 439.76,-136.57 445.74,-137.35 451.69,-138.27"/>
<polygon fill="#9a32cd" stroke="#9a32cd" points="297.93,-129.95 288.08,-133.84 298.21,-136.94 297.93,-129.95"/>
<text text-anchor="middle" x="386.5" y="-138.6" font-family="Helvetica,sans-Serif" font-size="8.00"> m_mdt_root</text>
</g>
<!-- Node7 -->
<g id="node7" class="node">
<title>Node7</title>
<g id="a_node7"><a xlink:title=" ">
<polygon fill="white" stroke="#bfbfbf" points="242,-90.5 242,-107.5 288,-107.5 288,-90.5 242,-90.5"/>
<text text-anchor="middle" x="265" y="-97.1" font-family="Helvetica,sans-Serif" font-size="8.00">Reader</text>
</a>
</g>
</g>
<!-- Node7&#45;&gt;Node1 -->
<g id="edge6" class="edge">
<title>Node7&#45;&gt;Node1</title>
<path fill="none" stroke="#9a32cd" stroke-dasharray="5,2" d="M298.42,-100.26C332.61,-102.19 387.82,-107.02 434,-119 447.74,-122.57 462.27,-128.02 475.01,-133.43"/>
<polygon fill="#9a32cd" stroke="#9a32cd" points="298.26,-96.75 288.1,-99.73 297.9,-103.74 298.26,-96.75"/>
<text text-anchor="middle" x="386.5" y="-121.6" font-family="Helvetica,sans-Serif" font-size="8.00"> m_body_root</text>
</g>
<!-- Node8 -->
<g id="node8" class="node">
<title>Node8</title>
<g id="a_node8"><a xlink:title=" ">
<polygon fill="white" stroke="#bfbfbf" points="247.5,-54.5 247.5,-71.5 282.5,-71.5 282.5,-54.5 247.5,-54.5"/>
<text text-anchor="middle" x="265" y="-61.1" font-family="Helvetica,sans-Serif" font-size="8.00">uuid</text>
</a>
</g>
</g>
<!-- Node8&#45;&gt;Node1 -->
<g id="edge7" class="edge">
<title>Node8&#45;&gt;Node1</title>
<path fill="none" stroke="#9a32cd" stroke-dasharray="5,2" d="M292.61,-63.22C326.73,-64.4 387.09,-69.53 434,-90 457.48,-100.25 480.05,-119.23 494.82,-133.31"/>
<polygon fill="#9a32cd" stroke="#9a32cd" points="292.59,-59.72 282.5,-62.96 292.41,-66.72 292.59,-59.72"/>
<text text-anchor="middle" x="386.5" y="-92.6" font-family="Helvetica,sans-Serif" font-size="8.00"> m_session_token</text>
</g>
<!-- Node9 -->
<g id="node9" class="node">
<title>Node9</title>
<g id="a_node9"><a xlink:href="structipc_1_1util_1_1Native__handle.html" target="_top" xlink:title="A monolayer&#45;thin wrapper around a native handle, a/k/a descriptor a/k/a FD.">
<polygon fill="white" stroke="black" points="209,-18.5 209,-35.5 321,-35.5 321,-18.5 209,-18.5"/>
<text text-anchor="middle" x="265" y="-25.1" font-family="Helvetica,sans-Serif" font-size="8.00">ipc::util::Native_handle</text>
</a>
</g>
</g>
<!-- Node9&#45;&gt;Node1 -->
<g id="edge8" class="edge">
<title>Node9&#45;&gt;Node1</title>
<path fill="none" stroke="#9a32cd" stroke-dasharray="5,2" d="M331.56,-26.13C364.24,-28.34 403.25,-35.15 434,-53 466.72,-72 491,-110.44 503.19,-133.12"/>
<polygon fill="#9a32cd" stroke="#9a32cd" points="331.36,-22.62 321.18,-25.57 330.98,-29.61 331.36,-22.62"/>
<text text-anchor="middle" x="386.5" y="-55.6" font-family="Helvetica,sans-Serif" font-size="8.00"> m_hndl_or_null</text>
</g>
<!-- Node10 -->
<g id="node10" class="node">
<title>Node10</title>
<g id="a_node10"><a xlink:title=" ">
<polygon fill="white" stroke="#bfbfbf" points="0,-36.5 0,-53.5 101,-53.5 101,-36.5 0,-36.5"/>
<text text-anchor="middle" x="50.5" y="-43.1" font-family="Helvetica,sans-Serif" font-size="8.00">static const handle_t</text>
</a>
</g>
</g>
<!-- Node10&#45;&gt;Node9 -->
<g id="edge9" class="edge">
<title>Node10&#45;&gt;Node9</title>
<path fill="none" stroke="#9a32cd" stroke-dasharray="5,2" d="M111.17,-39.95C141.77,-37.35 178.81,-34.22 208.75,-31.68"/>
<polygon fill="#9a32cd" stroke="#9a32cd" points="110.72,-36.47 101.05,-40.8 111.31,-43.45 110.72,-36.47"/>
<text text-anchor="middle" x="155" y="-41.6" font-family="Helvetica,sans-Serif" font-size="8.00"> S_NULL_HANDLE</text>
</g>
<!-- Node11 -->
<g id="node11" class="node">
<title>Node11</title>
<g id="a_node11"><a xlink:title=" ">
<polygon fill="white" stroke="#bfbfbf" points="36,-0.5 36,-17.5 65,-17.5 65,-0.5 36,-0.5"/>
<text text-anchor="middle" x="50.5" y="-7.1" font-family="Helvetica,sans-Serif" font-size="8.00">int</text>
</a>
</g>
</g>
<!-- Node11&#45;&gt;Node9 -->
<g id="edge10" class="edge">
<title>Node11&#45;&gt;Node9</title>
<path fill="none" stroke="#9a32cd" stroke-dasharray="5,2" d="M75.71,-10.78C103.54,-12.86 150.58,-16.47 191,-20 196.71,-20.5 202.66,-21.04 208.61,-21.59"/>
<polygon fill="#9a32cd" stroke="#9a32cd" points="75.6,-7.27 65.37,-10.02 75.08,-14.25 75.6,-7.27"/>
<text text-anchor="middle" x="155" y="-22.6" font-family="Helvetica,sans-Serif" font-size="8.00"> m_native_handle</text>
</g>
</g>
</svg>
