<?xml version="1.0" encoding="UTF-8" standalone="no"?>
<!DOCTYPE svg PUBLIC "-//W3C//DTD SVG 1.1//EN"
 "http://www.w3.org/Graphics/SVG/1.1/DTD/svg11.dtd">
<!-- Generated by graphviz version 2.43.0 (0)
 -->
<!-- Title: ipc::transport::struc::sync_io::Channel&lt; Channel_obj, Message_body, Struct_builder_config, Struct_reader_config &gt; Pages: 1 -->
<svg width="866pt" height="1114pt"
 viewBox="0.00 0.00 866.00 1113.88" xmlns="http://www.w3.org/2000/svg" xmlns:xlink="http://www.w3.org/1999/xlink">
<g id="graph0" class="graph" transform="scale(1 1) rotate(0) translate(4 1109.88)">
<title>ipc::transport::struc::sync_io::Channel&lt; Channel_obj, Message_body, Struct_builder_config, Struct_reader_config &gt;</title>
<polygon fill="white" stroke="transparent" points="-4,4 -4,-1109.88 862,-1109.88 862,4 -4,4"/>
<!-- Node1 -->
<g id="node1" class="node">
<title>Node1</title>
<g id="a_node1"><a xlink:title="sync_io&#45;pattern counterpart to async&#45;I/O&#45;pattern transport::struc::Channel.">
<polygon fill="#bfbfbf" stroke="black" points="721,-468.38 721,-521.38 858,-521.38 858,-468.38 721,-468.38"/>
<text text-anchor="start" x="729" y="-510.98" font-family="Helvetica,sans-Serif" font-size="8.00">ipc::transport::struc</text>
<text text-anchor="start" x="729" y="-501.98" font-family="Helvetica,sans-Serif" font-size="8.00">::sync_io::Channel&lt; Channel</text>
<text text-anchor="start" x="729" y="-492.98" font-family="Helvetica,sans-Serif" font-size="8.00">_obj, Message_body, Struct</text>
<text text-anchor="start" x="729" y="-483.98" font-family="Helvetica,sans-Serif" font-size="8.00">_builder_config, Struct_reader</text>
<text text-anchor="middle" x="789.5" y="-474.98" font-family="Helvetica,sans-Serif" font-size="8.00">_config &gt;</text>
</a>
</g>
</g>
<!-- Node2 -->
<g id="node2" class="node">
<title>Node2</title>
<g id="a_node2"><a xlink:href="classipc_1_1transport_1_1struc_1_1Channel__base.html" target="_top" xlink:title="Channel base that contains non&#45;parameterized public items such as tag types and constants.">
<polygon fill="white" stroke="black" points="435,-1016.88 435,-1042.88 533,-1042.88 533,-1016.88 435,-1016.88"/>
<text text-anchor="start" x="443" y="-1032.48" font-family="Helvetica,sans-Serif" font-size="8.00">ipc::transport::struc</text>
<text text-anchor="middle" x="484" y="-1023.48" font-family="Helvetica,sans-Serif" font-size="8.00">::Channel_base</text>
</a>
</g>
</g>
<!-- Node2&#45;&gt;Node1 -->
<g id="edge1" class="edge">
<title>Node2&#45;&gt;Node1</title>
<path fill="none" stroke="midnightblue" d="M543.48,-1037.55C592.77,-1040.5 661.67,-1035.79 703,-994.88 770.91,-927.66 785.12,-615.14 787.88,-521.47"/>
<polygon fill="midnightblue" stroke="midnightblue" points="543.51,-1034.05 533.28,-1036.82 543.01,-1041.03 543.51,-1034.05"/>
</g>
<!-- Node3 -->
<g id="node3" class="node">
<title>Node3</title>
<g id="a_node3"><a xlink:href="structipc_1_1transport_1_1struc_1_1Channel__base_1_1Serialize__via__heap.html" target="_top" xlink:title="Tag type for ctor selection: Backing memory for serialization comes from fixed&#45;size segment allocatio...">
<polygon fill="white" stroke="black" points="128,-1070.38 128,-1105.38 250,-1105.38 250,-1070.38 128,-1070.38"/>
<text text-anchor="start" x="136" y="-1094.98" font-family="Helvetica,sans-Serif" font-size="8.00">ipc::transport::struc</text>
<text text-anchor="start" x="136" y="-1085.98" font-family="Helvetica,sans-Serif" font-size="8.00">::Channel_base::Serialize</text>
<text text-anchor="middle" x="189" y="-1076.98" font-family="Helvetica,sans-Serif" font-size="8.00">_via_heap</text>
</a>
</g>
</g>
<!-- Node3&#45;&gt;Node2 -->
<g id="edge2" class="edge">
<title>Node3&#45;&gt;Node2</title>
<path fill="none" stroke="#9a32cd" stroke-dasharray="5,2" d="M260.2,-1073.98C314.17,-1063.3 387.31,-1048.82 434.82,-1039.41"/>
<polygon fill="#9a32cd" stroke="#9a32cd" points="259.48,-1070.55 250.35,-1075.93 260.84,-1077.42 259.48,-1070.55"/>
<text text-anchor="middle" x="333" y="-1074.48" font-family="Helvetica,sans-Serif" font-size="8.00"> S_SERIALIZE_VIA_HEAP</text>
</g>
<!-- Node4 -->
<g id="node4" class="node">
<title>Node4</title>
<g id="a_node4"><a xlink:href="structipc_1_1transport_1_1struc_1_1Channel__base_1_1Serialize__via__session__shm.html" target="_top" xlink:title="Tag type for ctor selection: Backing RAM for serialization comes from a given session::Session&#39;s SHM ...">
<polygon fill="white" stroke="black" points="128,-1016.38 128,-1051.38 250,-1051.38 250,-1016.38 128,-1016.38"/>
<text text-anchor="start" x="136" y="-1040.98" font-family="Helvetica,sans-Serif" font-size="8.00">ipc::transport::struc</text>
<text text-anchor="start" x="136" y="-1031.98" font-family="Helvetica,sans-Serif" font-size="8.00">::Channel_base::Serialize</text>
<text text-anchor="middle" x="189" y="-1022.98" font-family="Helvetica,sans-Serif" font-size="8.00">_via_session_shm</text>
</a>
</g>
</g>
<!-- Node4&#45;&gt;Node2 -->
<g id="edge3" class="edge">
<title>Node4&#45;&gt;Node2</title>
<path fill="none" stroke="#9a32cd" stroke-dasharray="5,2" d="M260.53,-1032.91C314.47,-1032.18 387.41,-1031.18 434.82,-1030.54"/>
<polygon fill="#9a32cd" stroke="#9a32cd" points="260.31,-1029.42 250.35,-1033.05 260.4,-1036.42 260.31,-1029.42"/>
<text text-anchor="middle" x="333" y="-1034.48" font-family="Helvetica,sans-Serif" font-size="8.00"> S_SERIALIZE_VIA_SESSION_SHM</text>
</g>
<!-- Node5 -->
<g id="node5" class="node">
<title>Node5</title>
<g id="a_node5"><a xlink:href="structipc_1_1transport_1_1struc_1_1Channel__base_1_1Serialize__via__app__shm.html" target="_top" xlink:title="Similar to Serialize_via_session_shm but assumes per&#45;app&#45;scope SHM&#45;arena (as opposed to per&#45;session&#45;s...">
<polygon fill="white" stroke="black" points="128,-962.38 128,-997.38 250,-997.38 250,-962.38 128,-962.38"/>
<text text-anchor="start" x="136" y="-986.98" font-family="Helvetica,sans-Serif" font-size="8.00">ipc::transport::struc</text>
<text text-anchor="start" x="136" y="-977.98" font-family="Helvetica,sans-Serif" font-size="8.00">::Channel_base::Serialize</text>
<text text-anchor="middle" x="189" y="-968.98" font-family="Helvetica,sans-Serif" font-size="8.00">_via_app_shm</text>
</a>
</g>
</g>
<!-- Node5&#45;&gt;Node2 -->
<g id="edge4" class="edge">
<title>Node5&#45;&gt;Node2</title>
<path fill="none" stroke="#9a32cd" stroke-dasharray="5,2" d="M260.53,-991.91C314.47,-1001.12 387.41,-1013.56 434.82,-1021.66"/>
<polygon fill="#9a32cd" stroke="#9a32cd" points="260.8,-988.41 250.35,-990.18 259.62,-995.31 260.8,-988.41"/>
<text text-anchor="middle" x="333" y="-1017.48" font-family="Helvetica,sans-Serif" font-size="8.00"> S_SERIALIZE_VIA_APP_SHM</text>
</g>
<!-- Node6 -->
<g id="node6" class="node">
<title>Node6</title>
<g id="a_node6"><a xlink:title=" ">
<polygon fill="white" stroke="#bfbfbf" points="434.5,-977.38 434.5,-994.38 533.5,-994.38 533.5,-977.38 434.5,-977.38"/>
<text text-anchor="middle" x="484" y="-983.98" font-family="Helvetica,sans-Serif" font-size="8.00">boost::noncopyable</text>
</a>
</g>
</g>
<!-- Node6&#45;&gt;Node1 -->
<g id="edge5" class="edge">
<title>Node6&#45;&gt;Node1</title>
<path fill="none" stroke="#8b1a1a" d="M534.18,-995.93C583.39,-1002.89 658.06,-1004.55 703,-962.88 768.34,-902.3 784.27,-611.42 787.67,-521.45"/>
<polygon fill="#8b1a1a" stroke="#8b1a1a" points="534.5,-992.44 524.08,-994.38 533.44,-999.36 534.5,-992.44"/>
</g>
<!-- Node7 -->
<g id="node7" class="node">
<title>Node7</title>
<g id="a_node7"><a xlink:title=" ">
<polygon fill="white" stroke="#bfbfbf" points="135.5,-925.38 135.5,-942.38 242.5,-942.38 242.5,-925.38 135.5,-925.38"/>
<text text-anchor="middle" x="189" y="-931.98" font-family="Helvetica,sans-Serif" font-size="8.00">flow::log::Log_context</text>
</a>
</g>
</g>
<!-- Node7&#45;&gt;Node1 -->
<g id="edge6" class="edge">
<title>Node7&#45;&gt;Node1</title>
<path fill="none" stroke="midnightblue" d="M243.17,-944.04C347.45,-960.59 579.43,-980.13 703,-855.88 750.58,-808.04 777.54,-596.73 785.77,-521.55"/>
<polygon fill="midnightblue" stroke="midnightblue" points="243.62,-940.57 233.18,-942.4 242.48,-947.47 243.62,-940.57"/>
</g>
<!-- Node11 -->
<g id="node11" class="node">
<title>Node11</title>
<g id="a_node11"><a xlink:href="classipc_1_1transport_1_1Protocol__negotiator.html" target="_top" xlink:title="A simple state machine that, assuming the opposide side of a comm pathway uses an equivalent state ma...">
<polygon fill="white" stroke="black" points="428.5,-829.88 428.5,-855.88 539.5,-855.88 539.5,-829.88 428.5,-829.88"/>
<text text-anchor="start" x="436.5" y="-845.48" font-family="Helvetica,sans-Serif" font-size="8.00">ipc::transport::Protocol</text>
<text text-anchor="middle" x="484" y="-836.48" font-family="Helvetica,sans-Serif" font-size="8.00">_negotiator</text>
</a>
</g>
</g>
<!-- Node7&#45;&gt;Node11 -->
<g id="edge11" class="edge">
<title>Node7&#45;&gt;Node11</title>
<path fill="none" stroke="midnightblue" d="M252.74,-931.6C295.06,-928.31 351.45,-920.46 398,-901.88 425.36,-890.96 452.55,-869.82 468.56,-856.03"/>
<polygon fill="midnightblue" stroke="midnightblue" points="252.3,-928.12 242.57,-932.33 252.8,-935.11 252.3,-928.12"/>
</g>
<!-- Node8 -->
<g id="node8" class="node">
<title>Node8</title>
<g id="a_node8"><a xlink:title=" ">
<polygon fill="white" stroke="#bfbfbf" points="434.5,-707.38 434.5,-724.38 533.5,-724.38 533.5,-707.38 434.5,-707.38"/>
<text text-anchor="middle" x="484" y="-713.98" font-family="Helvetica,sans-Serif" font-size="8.00">const Builder_config</text>
</a>
</g>
</g>
<!-- Node8&#45;&gt;Node1 -->
<g id="edge7" class="edge">
<title>Node8&#45;&gt;Node1</title>
<path fill="none" stroke="#9a32cd" stroke-dasharray="5,2" d="M543.88,-724.14C591.36,-727.55 657.49,-724.54 703,-690.88 758.52,-649.82 778.5,-564.96 785.27,-521.62"/>
<polygon fill="#9a32cd" stroke="#9a32cd" points="544.01,-720.64 533.75,-723.3 543.43,-727.62 544.01,-720.64"/>
<text text-anchor="middle" x="636.5" y="-727.48" font-family="Helvetica,sans-Serif" font-size="8.00"> m_struct_builder_config</text>
</g>
<!-- Node9 -->
<g id="node9" class="node">
<title>Node9</title>
<g id="a_node9"><a xlink:title=" ">
<polygon fill="white" stroke="#bfbfbf" points="459.5,-671.38 459.5,-688.38 508.5,-688.38 508.5,-671.38 459.5,-671.38"/>
<text text-anchor="middle" x="484" y="-677.98" font-family="Helvetica,sans-Serif" font-size="8.00">Session</text>
</a>
</g>
</g>
<!-- Node9&#45;&gt;Node1 -->
<g id="edge8" class="edge">
<title>Node9&#45;&gt;Node1</title>
<path fill="none" stroke="#9a32cd" stroke-dasharray="5,2" d="M518.74,-679.93C572.3,-679.4 673.76,-675.72 703,-655.88 749.75,-624.16 772.87,-558.4 782.59,-521.49"/>
<polygon fill="#9a32cd" stroke="#9a32cd" points="518.67,-676.43 508.7,-680 518.72,-683.43 518.67,-676.43"/>
<text text-anchor="middle" x="636.5" y="-680.48" font-family="Helvetica,sans-Serif" font-size="8.00"> m_struct_lender_session</text>
</g>
<!-- Node10 -->
<g id="node10" class="node">
<title>Node10</title>
<g id="a_node10"><a xlink:title=" ">
<polygon fill="white" stroke="#bfbfbf" points="433.5,-635.38 433.5,-652.38 534.5,-652.38 534.5,-635.38 433.5,-635.38"/>
<text text-anchor="middle" x="484" y="-641.98" font-family="Helvetica,sans-Serif" font-size="8.00">Struct_reader_config</text>
</a>
</g>
</g>
<!-- Node10&#45;&gt;Node1 -->
<g id="edge9" class="edge">
<title>Node10&#45;&gt;Node1</title>
<path fill="none" stroke="#9a32cd" stroke-dasharray="5,2" d="M544.88,-643.78C600.07,-642.69 677.19,-638.31 703,-622.88 741.65,-599.77 766.46,-551.62 778.91,-521.42"/>
<polygon fill="#9a32cd" stroke="#9a32cd" points="544.79,-640.28 534.85,-643.95 544.91,-647.28 544.79,-640.28"/>
<text text-anchor="middle" x="636.5" y="-645.48" font-family="Helvetica,sans-Serif" font-size="8.00"> m_struct_reader_config</text>
</g>
<!-- Node11&#45;&gt;Node1 -->
<g id="edge10" class="edge">
<title>Node11&#45;&gt;Node1</title>
<path fill="none" stroke="#9a32cd" stroke-dasharray="5,2" d="M549.85,-838.57C598.18,-831.98 662.56,-815.57 703,-774.88 773.41,-704.04 786.1,-576.98 788.2,-521.74"/>
<polygon fill="#9a32cd" stroke="#9a32cd" points="549.28,-835.11 539.79,-839.83 550.15,-842.06 549.28,-835.11"/>
<text text-anchor="middle" x="636.5" y="-845.48" font-family="Helvetica,sans-Serif" font-size="8.00"> m_protocol_negotiator</text>
<text text-anchor="middle" x="636.5" y="-836.48" font-family="Helvetica,sans-Serif" font-size="8.00">m_protocol_negotiator_aux</text>
</g>
<!-- Node12 -->
<g id="node12" class="node">
<title>Node12</title>
<g id="a_node12"><a xlink:title=" ">
<polygon fill="white" stroke="#bfbfbf" points="136.5,-877.88 136.5,-903.88 241.5,-903.88 241.5,-877.88 136.5,-877.88"/>
<text text-anchor="start" x="144.5" y="-893.48" font-family="Helvetica,sans-Serif" font-size="8.00">static constexpr proto</text>
<text text-anchor="middle" x="189" y="-884.48" font-family="Helvetica,sans-Serif" font-size="8.00">_ver_t</text>
</a>
</g>
</g>
<!-- Node12&#45;&gt;Node11 -->
<g id="edge12" class="edge">
<title>Node12&#45;&gt;Node11</title>
<path fill="none" stroke="#9a32cd" stroke-dasharray="5,2" d="M251.82,-883.04C293.28,-877.52 349.05,-869.58 398,-860.88 407.8,-859.13 418.2,-857.09 428.23,-855.02"/>
<polygon fill="#9a32cd" stroke="#9a32cd" points="251.32,-879.57 241.87,-884.36 252.24,-886.51 251.32,-879.57"/>
<text text-anchor="middle" x="333" y="-891.48" font-family="Helvetica,sans-Serif" font-size="8.00"> S_VER_UNKNOWN</text>
<text text-anchor="middle" x="333" y="-882.48" font-family="Helvetica,sans-Serif" font-size="8.00">S_VER_UNSUPPORTED</text>
</g>
<!-- Node13 -->
<g id="node13" class="node">
<title>Node13</title>
<g id="a_node13"><a xlink:title=" ">
<polygon fill="white" stroke="black" points="159.5,-841.38 159.5,-858.38 218.5,-858.38 218.5,-841.38 159.5,-841.38"/>
<text text-anchor="middle" x="189" y="-847.98" font-family="Helvetica,sans-Serif" font-size="8.00">std::string</text>
</a>
</g>
</g>
<!-- Node13&#45;&gt;Node11 -->
<g id="edge13" class="edge">
<title>Node13&#45;&gt;Node11</title>
<path fill="none" stroke="#9a32cd" stroke-dasharray="5,2" d="M228.94,-848.95C280.16,-847.72 370.46,-845.57 428.46,-844.18"/>
<polygon fill="#9a32cd" stroke="#9a32cd" points="228.54,-845.46 218.63,-849.19 228.71,-852.45 228.54,-845.46"/>
<text text-anchor="middle" x="333" y="-850.48" font-family="Helvetica,sans-Serif" font-size="8.00"> m_nickname</text>
</g>
<!-- Node14 -->
<g id="node14" class="node">
<title>Node14</title>
<g id="a_node14"><a xlink:title=" ">
<polygon fill="white" stroke="black" points="0,-836.88 0,-862.88 91,-862.88 91,-836.88 0,-836.88"/>
<text text-anchor="start" x="8" y="-852.48" font-family="Helvetica,sans-Serif" font-size="8.00">std::basic_string&lt;</text>
<text text-anchor="middle" x="45.5" y="-843.48" font-family="Helvetica,sans-Serif" font-size="8.00"> Char &gt;</text>
</a>
</g>
</g>
<!-- Node14&#45;&gt;Node13 -->
<g id="edge14" class="edge">
<title>Node14&#45;&gt;Node13</title>
<path fill="none" stroke="midnightblue" d="M101.38,-849.88C121.07,-849.88 142.49,-849.88 159.11,-849.88"/>
<polygon fill="midnightblue" stroke="midnightblue" points="101.27,-846.38 91.27,-849.88 101.27,-853.38 101.27,-846.38"/>
</g>
<!-- Node15 -->
<g id="node15" class="node">
<title>Node15</title>
<g id="a_node15"><a xlink:title=" ">
<polygon fill="white" stroke="#bfbfbf" points="167,-800.38 167,-817.38 211,-817.38 211,-800.38 167,-800.38"/>
<text text-anchor="middle" x="189" y="-806.98" font-family="Helvetica,sans-Serif" font-size="8.00">int16_t</text>
</a>
</g>
</g>
<!-- Node15&#45;&gt;Node11 -->
<g id="edge15" class="edge">
<title>Node15&#45;&gt;Node11</title>
<path fill="none" stroke="#9a32cd" stroke-dasharray="5,2" d="M221.34,-806.69C262.31,-804.5 336.14,-802.85 398,-813.88 416.42,-817.16 436.25,-823.74 452.12,-829.8"/>
<polygon fill="#9a32cd" stroke="#9a32cd" points="220.95,-803.21 211.17,-807.28 221.36,-810.2 220.95,-803.21"/>
<text text-anchor="middle" x="333" y="-834.48" font-family="Helvetica,sans-Serif" font-size="8.00"> m_local_max_proto_ver</text>
<text text-anchor="middle" x="333" y="-825.48" font-family="Helvetica,sans-Serif" font-size="8.00">m_local_min_proto_ver</text>
<text text-anchor="middle" x="333" y="-816.48" font-family="Helvetica,sans-Serif" font-size="8.00">m_negotiated_proto_ver</text>
</g>
<!-- Node16 -->
<g id="node16" class="node">
<title>Node16</title>
<g id="a_node16"><a xlink:title=" ">
<polygon fill="white" stroke="#bfbfbf" points="171.5,-750.38 171.5,-767.38 206.5,-767.38 206.5,-750.38 171.5,-750.38"/>
<text text-anchor="middle" x="189" y="-756.98" font-family="Helvetica,sans-Serif" font-size="8.00">bool</text>
</a>
</g>
</g>
<!-- Node16&#45;&gt;Node1 -->
<g id="edge18" class="edge">
<title>Node16&#45;&gt;Node1</title>
<path fill="none" stroke="#9a32cd" stroke-dasharray="5,2" d="M216.77,-758.61C319.44,-757.47 683.31,-752.43 703,-737.88 772.76,-686.29 785.89,-573.34 788.16,-521.66"/>
<polygon fill="#9a32cd" stroke="#9a32cd" points="216.58,-755.11 206.62,-758.72 216.65,-762.11 216.58,-755.11"/>
<text text-anchor="middle" x="484" y="-766.48" font-family="Helvetica,sans-Serif" font-size="8.00"> m_phase_log_in_started</text>
<text text-anchor="middle" x="484" y="-757.48" font-family="Helvetica,sans-Serif" font-size="8.00">m_started_ops</text>
</g>
<!-- Node16&#45;&gt;Node11 -->
<g id="edge16" class="edge">
<title>Node16&#45;&gt;Node11</title>
<path fill="none" stroke="#9a32cd" stroke-dasharray="5,2" d="M216.84,-759.88C257.26,-762.1 335.68,-769.21 398,-791.88 423.23,-801.05 449.27,-817.99 465.77,-829.81"/>
<polygon fill="#9a32cd" stroke="#9a32cd" points="216.88,-756.37 206.72,-759.38 216.53,-763.37 216.88,-756.37"/>
<text text-anchor="middle" x="333" y="-794.48" font-family="Helvetica,sans-Serif" font-size="8.00"> m_local_max_proto_ver_sent</text>
</g>
<!-- Node17 -->
<g id="node17" class="node">
<title>Node17</title>
<g id="a_node17"><a xlink:title=" ">
<polygon fill="white" stroke="#bfbfbf" points="454,-599.38 454,-616.38 514,-616.38 514,-599.38 454,-599.38"/>
<text text-anchor="middle" x="484" y="-605.98" font-family="Helvetica,sans-Serif" font-size="8.00">Error_code</text>
</a>
</g>
</g>
<!-- Node17&#45;&gt;Node1 -->
<g id="edge17" class="edge">
<title>Node17&#45;&gt;Node1</title>
<path fill="none" stroke="#9a32cd" stroke-dasharray="5,2" d="M524.4,-597.53C538.71,-593.93 555.04,-590.02 570,-586.88 628.71,-574.56 648.35,-588.62 703,-563.88 725.42,-553.73 746.95,-536.29 762.8,-521.48"/>
<polygon fill="#9a32cd" stroke="#9a32cd" points="523.21,-594.22 514.39,-600.07 524.94,-601 523.21,-594.22"/>
<text text-anchor="start" x="593.5" y="-616.48" font-family="Helvetica,sans-Serif" font-size="8.00"> m_channel_err_code</text>
<text text-anchor="middle" x="636.5" y="-607.48" font-family="Helvetica,sans-Serif" font-size="8.00">_or_ok</text>
<text text-anchor="start" x="593.5" y="-598.48" font-family="Helvetica,sans-Serif" font-size="8.00">m_proto_neg_err</text>
<text text-anchor="middle" x="636.5" y="-589.48" font-family="Helvetica,sans-Serif" font-size="8.00">_code_or_ok</text>
</g>
<!-- Node18 -->
<g id="node18" class="node">
<title>Node18</title>
<g id="a_node18"><a xlink:title=" ">
<polygon fill="white" stroke="#bfbfbf" points="448.5,-563.38 448.5,-580.38 519.5,-580.38 519.5,-563.38 448.5,-563.38"/>
<text text-anchor="middle" x="484" y="-569.98" font-family="Helvetica,sans-Serif" font-size="8.00">Task_asio_err</text>
</a>
</g>
</g>
<!-- Node18&#45;&gt;Node1 -->
<g id="edge19" class="edge">
<title>Node18&#45;&gt;Node1</title>
<path fill="none" stroke="#9a32cd" stroke-dasharray="5,2" d="M529.53,-562.87C590.83,-550.44 694.67,-529.28 703,-526.88 708.79,-525.21 714.74,-523.33 720.68,-521.34"/>
<polygon fill="#9a32cd" stroke="#9a32cd" points="528.81,-559.44 519.71,-564.86 530.2,-566.3 528.81,-559.44"/>
<text text-anchor="middle" x="636.5" y="-556.48" font-family="Helvetica,sans-Serif" font-size="8.00"> m_on_err_func</text>
</g>
<!-- Node19 -->
<g id="node19" class="node">
<title>Node19</title>
<g id="a_node19"><a xlink:title=" ">
<polygon fill="white" stroke="#bfbfbf" points="426.5,-499.88 426.5,-543.88 541.5,-543.88 541.5,-499.88 426.5,-499.88"/>
<text text-anchor="start" x="434.5" y="-533.48" font-family="Helvetica,sans-Serif" font-size="8.00">array&lt; std::optional</text>
<text text-anchor="start" x="434.5" y="-524.48" font-family="Helvetica,sans-Serif" font-size="8.00">&lt; ipc::transport::struc</text>
<text text-anchor="start" x="434.5" y="-515.48" font-family="Helvetica,sans-Serif" font-size="8.00">::sync_io::Channel::Msg</text>
<text text-anchor="middle" x="484" y="-506.48" font-family="Helvetica,sans-Serif" font-size="8.00">_in_pipe &gt;, 2 &gt;</text>
</a>
</g>
</g>
<!-- Node19&#45;&gt;Node1 -->
<g id="edge20" class="edge">
<title>Node19&#45;&gt;Node1</title>
<path fill="none" stroke="#9a32cd" stroke-dasharray="5,2" d="M551.83,-515.93C602.04,-511.47 670.53,-505.37 720.91,-500.89"/>
<polygon fill="#9a32cd" stroke="#9a32cd" points="551.38,-512.46 541.73,-516.83 552,-519.43 551.38,-512.46"/>
<text text-anchor="middle" x="636.5" y="-516.48" font-family="Helvetica,sans-Serif" font-size="8.00"> m_rcv_pipes</text>
</g>
<!-- Node20 -->
<g id="node20" class="node">
<title>Node20</title>
<g id="a_node20"><a xlink:title=" ">
<polygon fill="white" stroke="#bfbfbf" points="435,-454.88 435,-480.88 533,-480.88 533,-454.88 435,-454.88"/>
<text text-anchor="start" x="443" y="-470.48" font-family="Helvetica,sans-Serif" font-size="8.00">Function&lt; void(Msg</text>
<text text-anchor="middle" x="484" y="-461.48" font-family="Helvetica,sans-Serif" font-size="8.00">_in_ptr &amp;&amp;msg)&gt;</text>
</a>
</g>
</g>
<!-- Node20&#45;&gt;Node1 -->
<g id="edge21" class="edge">
<title>Node20&#45;&gt;Node1</title>
<path fill="none" stroke="#9a32cd" stroke-dasharray="5,2" d="M543.42,-469.21C587.41,-470.67 649.14,-473.69 703,-479.88 708.84,-480.55 714.88,-481.36 720.93,-482.26"/>
<polygon fill="#9a32cd" stroke="#9a32cd" points="543.3,-465.71 533.2,-468.89 543.08,-472.7 543.3,-465.71"/>
<text text-anchor="start" x="577.5" y="-491.48" font-family="Helvetica,sans-Serif" font-size="8.00"> m_on_unexpected_response</text>
<text text-anchor="middle" x="636.5" y="-482.48" font-family="Helvetica,sans-Serif" font-size="8.00">_func_or_empty</text>
</g>
<!-- Node21 -->
<g id="node21" class="node">
<title>Node21</title>
<g id="a_node21"><a xlink:title=" ">
<polygon fill="white" stroke="#bfbfbf" points="416,-391.88 416,-435.88 552,-435.88 552,-391.88 416,-391.88"/>
<text text-anchor="start" x="424" y="-425.48" font-family="Helvetica,sans-Serif" font-size="8.00">Function&lt; void(msg</text>
<text text-anchor="start" x="424" y="-416.48" font-family="Helvetica,sans-Serif" font-size="8.00">_id_out_t msg_id_out,</text>
<text text-anchor="start" x="424" y="-407.48" font-family="Helvetica,sans-Serif" font-size="8.00"> std::string &amp;&amp;msg_metadata</text>
<text text-anchor="middle" x="484" y="-398.48" font-family="Helvetica,sans-Serif" font-size="8.00">_text)&gt;</text>
</a>
</g>
</g>
<!-- Node21&#45;&gt;Node1 -->
<g id="edge22" class="edge">
<title>Node21&#45;&gt;Node1</title>
<path fill="none" stroke="#9a32cd" stroke-dasharray="5,2" d="M562.25,-419.34C604.66,-423.96 657.69,-432.42 703,-447.88 717.91,-452.96 733.27,-460.56 746.79,-468.16"/>
<polygon fill="#9a32cd" stroke="#9a32cd" points="562.57,-415.85 552.27,-418.3 561.85,-422.81 562.57,-415.85"/>
<text text-anchor="start" x="582" y="-459.48" font-family="Helvetica,sans-Serif" font-size="8.00"> m_on_remote_unexpected</text>
<text text-anchor="middle" x="636.5" y="-450.48" font-family="Helvetica,sans-Serif" font-size="8.00">_response_func_or_empty</text>
</g>
<!-- Node22 -->
<g id="node22" class="node">
<title>Node22</title>
<g id="a_node22"><a xlink:title=" ">
<polygon fill="white" stroke="#bfbfbf" points="466.5,-355.38 466.5,-372.38 501.5,-372.38 501.5,-355.38 466.5,-355.38"/>
<text text-anchor="middle" x="484" y="-361.98" font-family="Helvetica,sans-Serif" font-size="8.00">uuid</text>
</a>
</g>
</g>
<!-- Node22&#45;&gt;Node1 -->
<g id="edge23" class="edge">
<title>Node22&#45;&gt;Node1</title>
<path fill="none" stroke="#9a32cd" stroke-dasharray="5,2" d="M511.92,-364.12C554.88,-365.58 640.47,-372.94 703,-406.88 730.33,-421.71 754.3,-448.25 769.85,-468.31"/>
<polygon fill="#9a32cd" stroke="#9a32cd" points="511.8,-360.62 501.71,-363.86 511.62,-367.62 511.8,-360.62"/>
<text text-anchor="middle" x="636.5" y="-409.48" font-family="Helvetica,sans-Serif" font-size="8.00"> m_session_token</text>
</g>
<!-- Node23 -->
<g id="node23" class="node">
<title>Node23</title>
<g id="a_node23"><a xlink:title=" ">
<polygon fill="white" stroke="#bfbfbf" points="459,-319.38 459,-336.38 509,-336.38 509,-319.38 459,-319.38"/>
<text text-anchor="middle" x="484" y="-325.98" font-family="Helvetica,sans-Serif" font-size="8.00">uint64_t</text>
</a>
</g>
</g>
<!-- Node23&#45;&gt;Node1 -->
<g id="edge24" class="edge">
<title>Node23&#45;&gt;Node1</title>
<path fill="none" stroke="#9a32cd" stroke-dasharray="5,2" d="M519.19,-321.74C564.89,-315.44 646.66,-311.01 703,-346.88 746.81,-374.77 770.67,-433.69 781.39,-468.18"/>
<polygon fill="#9a32cd" stroke="#9a32cd" points="518.57,-318.3 509.19,-323.23 519.6,-325.22 518.57,-318.3"/>
<text text-anchor="middle" x="636.5" y="-358.48" font-family="Helvetica,sans-Serif" font-size="8.00"> m_rcv_msg_next_id</text>
<text text-anchor="middle" x="636.5" y="-349.48" font-family="Helvetica,sans-Serif" font-size="8.00">m_snd_msg_next_id</text>
</g>
<!-- Node24 -->
<g id="node24" class="node">
<title>Node24</title>
<g id="a_node24"><a xlink:title=" ">
<polygon fill="white" stroke="#bfbfbf" points="463.5,-283.38 463.5,-300.38 504.5,-300.38 504.5,-283.38 463.5,-283.38"/>
<text text-anchor="middle" x="484" y="-289.98" font-family="Helvetica,sans-Serif" font-size="8.00">Phase</text>
</a>
</g>
</g>
<!-- Node24&#45;&gt;Node1 -->
<g id="edge25" class="edge">
<title>Node24&#45;&gt;Node1</title>
<path fill="none" stroke="#9a32cd" stroke-dasharray="5,2" d="M514.59,-284.56C559.6,-275.26 646.04,-264.7 703,-303.88 758.53,-342.07 778.48,-425.2 785.25,-468.09"/>
<polygon fill="#9a32cd" stroke="#9a32cd" points="513.62,-281.19 504.6,-286.75 515.11,-288.03 513.62,-281.19"/>
<text text-anchor="middle" x="636.5" y="-306.48" font-family="Helvetica,sans-Serif" font-size="8.00"> m_phase</text>
</g>
<!-- Node25 -->
<g id="node25" class="node">
<title>Node25</title>
<g id="a_node25"><a xlink:title=" ">
<polygon fill="white" stroke="#bfbfbf" points="420.5,-229.38 420.5,-264.38 547.5,-264.38 547.5,-229.38 420.5,-229.38"/>
<text text-anchor="start" x="428.5" y="-253.98" font-family="Helvetica,sans-Serif" font-size="8.00">unordered_map&lt; msg</text>
<text text-anchor="start" x="428.5" y="-244.98" font-family="Helvetica,sans-Serif" font-size="8.00">_id_out_t, typename</text>
<text text-anchor="middle" x="484" y="-235.98" font-family="Helvetica,sans-Serif" font-size="8.00"> Expecting_response::Ptr &gt;</text>
</a>
</g>
</g>
<!-- Node25&#45;&gt;Node1 -->
<g id="edge26" class="edge">
<title>Node25&#45;&gt;Node1</title>
<path fill="none" stroke="#9a32cd" stroke-dasharray="5,2" d="M557.84,-233.55C603.86,-229.3 662.14,-232.1 703,-262.88 769.01,-312.59 784.09,-418.72 787.51,-468.31"/>
<polygon fill="#9a32cd" stroke="#9a32cd" points="557.2,-230.1 547.62,-234.62 557.93,-237.06 557.2,-230.1"/>
<text text-anchor="middle" x="636.5" y="-265.48" font-family="Helvetica,sans-Serif" font-size="8.00"> m_rcv_expecting_response_map</text>
</g>
<!-- Node26 -->
<g id="node26" class="node">
<title>Node26</title>
<g id="a_node26"><a xlink:title=" ">
<polygon fill="white" stroke="#bfbfbf" points="430.5,-175.38 430.5,-210.38 537.5,-210.38 537.5,-175.38 430.5,-175.38"/>
<text text-anchor="start" x="438.5" y="-199.98" font-family="Helvetica,sans-Serif" font-size="8.00">unordered_map&lt; Msg</text>
<text text-anchor="start" x="438.5" y="-190.98" font-family="Helvetica,sans-Serif" font-size="8.00">_which_in, typename</text>
<text text-anchor="middle" x="484" y="-181.98" font-family="Helvetica,sans-Serif" font-size="8.00"> Expecting_msg::Ptr &gt;</text>
</a>
</g>
</g>
<!-- Node26&#45;&gt;Node1 -->
<g id="edge27" class="edge">
<title>Node26&#45;&gt;Node1</title>
<path fill="none" stroke="#9a32cd" stroke-dasharray="5,2" d="M548.13,-183.38C595.94,-179.84 660.44,-183.42 703,-218.88 779.12,-282.29 788.68,-412.13 789.07,-468.16"/>
<polygon fill="#9a32cd" stroke="#9a32cd" points="547.55,-179.91 537.89,-184.26 548.16,-186.89 547.55,-179.91"/>
<text text-anchor="middle" x="636.5" y="-221.48" font-family="Helvetica,sans-Serif" font-size="8.00"> m_rcv_expecting_msg_map</text>
</g>
<!-- Node27 -->
<g id="node27" class="node">
<title>Node27</title>
<g id="a_node27"><a xlink:title=" ">
<polygon fill="white" stroke="#bfbfbf" points="420.5,-139.38 420.5,-156.38 547.5,-156.38 547.5,-139.38 420.5,-139.38"/>
<text text-anchor="middle" x="484" y="-145.98" font-family="Helvetica,sans-Serif" font-size="8.00">optional&lt; Reassembly_q &gt;</text>
</a>
</g>
</g>
<!-- Node27&#45;&gt;Node1 -->
<g id="edge28" class="edge">
<title>Node27&#45;&gt;Node1</title>
<path fill="none" stroke="#9a32cd" stroke-dasharray="5,2" d="M534.76,-137.84C583.43,-131.09 656.78,-129.53 703,-168.88 749.17,-208.18 776.62,-397.51 785.4,-468.19"/>
<polygon fill="#9a32cd" stroke="#9a32cd" points="534.13,-134.4 524.77,-139.35 535.18,-141.32 534.13,-134.4"/>
<text text-anchor="middle" x="636.5" y="-171.48" font-family="Helvetica,sans-Serif" font-size="8.00"> m_rcv_reassembly_q</text>
</g>
<!-- Node28 -->
<g id="node28" class="node">
<title>Node28</title>
<g id="a_node28"><a xlink:title=" ">
<polygon fill="white" stroke="#bfbfbf" points="430.5,-93.88 430.5,-119.88 537.5,-119.88 537.5,-93.88 430.5,-93.88"/>
<text text-anchor="start" x="438.5" y="-109.48" font-family="Helvetica,sans-Serif" font-size="8.00">unordered_map&lt; Msg</text>
<text text-anchor="middle" x="484" y="-100.48" font-family="Helvetica,sans-Serif" font-size="8.00">_which_in, Msg_in_q &gt;</text>
</a>
</g>
</g>
<!-- Node28&#45;&gt;Node1 -->
<g id="edge29" class="edge">
<title>Node28&#45;&gt;Node1</title>
<path fill="none" stroke="#9a32cd" stroke-dasharray="5,2" d="M547.7,-92.55C595.76,-85.48 660.8,-84.96 703,-120.88 756.45,-166.36 779.84,-390.43 786.44,-468.22"/>
<polygon fill="#9a32cd" stroke="#9a32cd" points="547.03,-89.11 537.71,-94.14 548.14,-96.02 547.03,-89.11"/>
<text text-anchor="middle" x="636.5" y="-123.48" font-family="Helvetica,sans-Serif" font-size="8.00"> m_rcv_pending_msgs</text>
</g>
<!-- Node29 -->
<g id="node29" class="node">
<title>Node29</title>
<g id="a_node29"><a xlink:title=" ">
<polygon fill="white" stroke="#bfbfbf" points="450.5,-57.38 450.5,-74.38 517.5,-74.38 517.5,-57.38 450.5,-57.38"/>
<text text-anchor="middle" x="484" y="-63.98" font-family="Helvetica,sans-Serif" font-size="8.00">Channel_obj</text>
</a>
</g>
</g>
<!-- Node29&#45;&gt;Node1 -->
<g id="edge30" class="edge">
<title>Node29&#45;&gt;Node1</title>
<path fill="none" stroke="#9a32cd" stroke-dasharray="5,2" d="M522.53,-54.85C570.38,-43.31 652.9,-32.2 703,-74.88 763.47,-126.39 782.54,-384.1 787.21,-468.25"/>
<polygon fill="#9a32cd" stroke="#9a32cd" points="521.42,-51.52 512.59,-57.38 523.14,-58.31 521.42,-51.52"/>
<text text-anchor="middle" x="636.5" y="-77.48" font-family="Helvetica,sans-Serif" font-size="8.00"> m_channel</text>
</g>
<!-- Node30 -->
<g id="node30" class="node">
<title>Node30</title>
<g id="a_node30"><a xlink:title=" ">
<polygon fill="white" stroke="black" points="432,-3.38 432,-38.38 536,-38.38 536,-3.38 432,-3.38"/>
<text text-anchor="start" x="440" y="-27.98" font-family="Helvetica,sans-Serif" font-size="8.00">std::vector&lt; boost</text>
<text text-anchor="start" x="440" y="-18.98" font-family="Helvetica,sans-Serif" font-size="8.00">::movelib::unique_ptr</text>
<text text-anchor="middle" x="484" y="-9.98" font-family="Helvetica,sans-Serif" font-size="8.00">&lt; util::Task &gt; &gt;</text>
</a>
</g>
</g>
<!-- Node30&#45;&gt;Node1 -->
<g id="edge31" class="edge">
<title>Node30&#45;&gt;Node1</title>
<path fill="none" stroke="#9a32cd" stroke-dasharray="5,2" d="M546.16,-5.36C594.56,2.98 660.82,5.07 703,-31.88 769.26,-89.91 784.55,-378.33 787.73,-468.14"/>
<polygon fill="#9a32cd" stroke="#9a32cd" points="545.31,-1.96 536.12,-7.23 546.59,-8.84 545.31,-1.96"/>
<text text-anchor="middle" x="636.5" y="-34.48" font-family="Helvetica,sans-Serif" font-size="8.00"> m_sync_io_handlers</text>
</g>
<!-- Node31 -->
<g id="node31" class="node">
<title>Node31</title>
<g id="a_node31"><a xlink:title=" ">
<polygon fill="white" stroke="#bfbfbf" points="131.5,-12.38 131.5,-29.38 246.5,-29.38 246.5,-12.38 131.5,-12.38"/>
<text text-anchor="middle" x="189" y="-18.98" font-family="Helvetica,sans-Serif" font-size="8.00">unique_ptr&lt; util::Task &gt;</text>
</a>
</g>
</g>
<!-- Node31&#45;&gt;Node30 -->
<g id="edge32" class="edge">
<title>Node31&#45;&gt;Node30</title>
<path fill="none" stroke="#9a32cd" stroke-dasharray="5,2" d="M256.85,-20.88C309.96,-20.88 383.15,-20.88 431.71,-20.88"/>
<polygon fill="#9a32cd" stroke="#9a32cd" points="256.84,-17.38 246.84,-20.88 256.84,-24.38 256.84,-17.38"/>
<text text-anchor="middle" x="333" y="-23.48" font-family="Helvetica,sans-Serif" font-size="8.00"> elements</text>
</g>
</g>
</svg>
