<?xml version="1.0" encoding="UTF-8" standalone="no"?>
<!DOCTYPE svg PUBLIC "-//W3C//DTD SVG 1.1//EN"
 "http://www.w3.org/Graphics/SVG/1.1/DTD/svg11.dtd">
<!-- Generated by graphviz version 2.43.0 (0)
 -->
<!-- Title: ipc::transport::sync_io::Native_socket_stream::remote_peer_process_credentials Pages: 1 -->
<svg width="338pt" height="53pt"
 viewBox="0.00 0.00 338.00 53.00" xmlns="http://www.w3.org/2000/svg" xmlns:xlink="http://www.w3.org/1999/xlink">
<g id="graph0" class="graph" transform="scale(1 1) rotate(0) translate(4 49)">
<title>ipc::transport::sync_io::Native_socket_stream::remote_peer_process_credentials</title>
<polygon fill="white" stroke="transparent" points="-4,4 -4,-49 334,-49 334,4 -4,4"/>
<!-- Node1 -->
<g id="node1" class="node">
<title>Node1</title>
<g id="a_node1"><a xlink:title="OS&#45;reported process credential (PID, etc.) info about the other connected peer&#39;s process,...">
<polygon fill="#bfbfbf" stroke="black" points="170,-5 170,-40 330,-40 330,-5 170,-5"/>
<text text-anchor="start" x="178" y="-29.6" font-family="Helvetica,sans-Serif" font-size="8.00">ipc::transport::sync</text>
<text text-anchor="start" x="178" y="-20.6" font-family="Helvetica,sans-Serif" font-size="8.00">_io::Native_socket_stream</text>
<text text-anchor="middle" x="250" y="-11.6" font-family="Helvetica,sans-Serif" font-size="8.00">::remote_peer_process_credentials</text>
</a>
</g>
</g>
<!-- Node2 -->
<g id="node2" class="node">
<title>Node2</title>
<g id="a_node2"><a xlink:href="classipc_1_1transport_1_1sync__io_1_1Native__socket__stream_1_1Impl.html#a6600090ca22c9b940155f7920b1465e4" target="_top" xlink:title="See Native_socket_stream counterpart.">
<polygon fill="white" stroke="black" points="0,-0.5 0,-44.5 134,-44.5 134,-0.5 0,-0.5"/>
<text text-anchor="start" x="8" y="-34.1" font-family="Helvetica,sans-Serif" font-size="8.00">ipc::transport::sync</text>
<text text-anchor="start" x="8" y="-25.1" font-family="Helvetica,sans-Serif" font-size="8.00">_io::Native_socket_stream</text>
<text text-anchor="start" x="8" y="-16.1" font-family="Helvetica,sans-Serif" font-size="8.00">::Impl::remote_peer_process</text>
<text text-anchor="middle" x="67" y="-7.1" font-family="Helvetica,sans-Serif" font-size="8.00">_credentials</text>
</a>
</g>
</g>
<!-- Node1&#45;&gt;Node2 -->
<g id="edge1" class="edge">
<title>Node1&#45;&gt;Node2</title>
<path fill="none" stroke="midnightblue" d="M159.8,-22.5C151.19,-22.5 142.57,-22.5 134.24,-22.5"/>
<polygon fill="midnightblue" stroke="midnightblue" points="159.87,-26 169.87,-22.5 159.87,-19 159.87,-26"/>
</g>
</g>
</svg>
