<?xml version="1.0" encoding="UTF-8" standalone="no"?>
<!DOCTYPE svg PUBLIC "-//W3C//DTD SVG 1.1//EN"
 "http://www.w3.org/Graphics/SVG/1.1/DTD/svg11.dtd">
<!-- Generated by graphviz version 2.43.0 (0)
 -->
<!-- Title: ipc::transport::Posix_mq_handle::try_send Pages: 1 -->
<svg width="266pt" height="126pt"
 viewBox="0.00 0.00 266.00 125.50" xmlns="http://www.w3.org/2000/svg" xmlns:xlink="http://www.w3.org/1999/xlink">
<g id="graph0" class="graph" transform="scale(1 1) rotate(0) translate(4 121.5)">
<title>ipc::transport::Posix_mq_handle::try_send</title>
<polygon fill="white" stroke="transparent" points="-4,4 -4,-121.5 262,-121.5 262,4 -4,4"/>
<!-- Node1 -->
<g id="node1" class="node">
<title>Node1</title>
<g id="a_node1"><a xlink:title="Implements Persistent_mq_handle API: Non&#45;blocking send: pushes copy of message to queue and returns t...">
<polygon fill="#bfbfbf" stroke="black" points="0,-50.5 0,-76.5 106,-76.5 106,-50.5 0,-50.5"/>
<text text-anchor="start" x="8" y="-66.1" font-family="Helvetica,sans-Serif" font-size="8.00">ipc::transport::Posix</text>
<text text-anchor="middle" x="53" y="-57.1" font-family="Helvetica,sans-Serif" font-size="8.00">_mq_handle::try_send</text>
</a>
</g>
</g>
<!-- Node1&#45;&gt;Node1 -->
<g id="edge4" class="edge">
<title>Node1&#45;&gt;Node1</title>
<path fill="none" stroke="midnightblue" d="M28.3,-76.77C20.81,-85.96 29.05,-95 53,-95 67.6,-95 76.36,-91.64 79.28,-86.94"/>
<polygon fill="midnightblue" stroke="midnightblue" points="82.69,-86.12 77.7,-76.77 75.77,-87.19 82.69,-86.12"/>
</g>
<!-- Node2 -->
<g id="node2" class="node">
<title>Node2</title>
<g id="a_node2"><a xlink:href="namespaceipc_1_1util.html#a2bb38cee29dacbe56de5182221b45941" target="_top" xlink:title="Syntactic&#45;sugary helper that returns pointer to first byte in an immutable buffer,...">
<polygon fill="white" stroke="black" points="153,-100 153,-117 247,-117 247,-100 153,-100"/>
<text text-anchor="middle" x="200" y="-106.6" font-family="Helvetica,sans-Serif" font-size="8.00">ipc::util::blob_data</text>
</a>
</g>
</g>
<!-- Node1&#45;&gt;Node2 -->
<g id="edge1" class="edge">
<title>Node1&#45;&gt;Node2</title>
<path fill="none" stroke="midnightblue" d="M95.94,-76.52C116.69,-82.96 141.53,-90.66 161.62,-96.9"/>
<polygon fill="midnightblue" stroke="midnightblue" points="160.77,-100.3 171.36,-99.92 162.84,-93.61 160.77,-100.3"/>
</g>
<!-- Node3 -->
<g id="node3" class="node">
<title>Node3</title>
<g id="a_node3"><a xlink:href="classipc_1_1transport_1_1Posix__mq__handle.html#a244ee5da96550553edca346d77c2a825" target="_top" xlink:title="Helper that handles the result of an mq_*() call by logging WARNING(s) on error; setting *err_code on...">
<polygon fill="white" stroke="black" points="142,-46 142,-81 258,-81 258,-46 142,-46"/>
<text text-anchor="start" x="150" y="-70.6" font-family="Helvetica,sans-Serif" font-size="8.00">ipc::transport::Posix</text>
<text text-anchor="start" x="150" y="-61.6" font-family="Helvetica,sans-Serif" font-size="8.00">_mq_handle::handle_mq</text>
<text text-anchor="middle" x="200" y="-52.6" font-family="Helvetica,sans-Serif" font-size="8.00">_api_result</text>
</a>
</g>
</g>
<!-- Node1&#45;&gt;Node3 -->
<g id="edge2" class="edge">
<title>Node1&#45;&gt;Node3</title>
<path fill="none" stroke="midnightblue" d="M106.35,-63.5C114.54,-63.5 123.1,-63.5 131.57,-63.5"/>
<polygon fill="midnightblue" stroke="midnightblue" points="131.82,-67 141.82,-63.5 131.82,-60 131.82,-67"/>
</g>
<!-- Node4 -->
<g id="node4" class="node">
<title>Node4</title>
<g id="a_node4"><a xlink:href="structipc_1_1util_1_1Native__handle.html#a11bd62ce0a7bef4bdfe666201c26d4dc" target="_top" xlink:title="Returns true if and only if m_native_handle equals S_NULL_HANDLE.">
<polygon fill="white" stroke="black" points="144,-0.5 144,-26.5 256,-26.5 256,-0.5 144,-0.5"/>
<text text-anchor="start" x="152" y="-16.1" font-family="Helvetica,sans-Serif" font-size="8.00">ipc::util::Native_handle</text>
<text text-anchor="middle" x="200" y="-7.1" font-family="Helvetica,sans-Serif" font-size="8.00">::null</text>
</a>
</g>
</g>
<!-- Node1&#45;&gt;Node4 -->
<g id="edge3" class="edge">
<title>Node1&#45;&gt;Node4</title>
<path fill="none" stroke="midnightblue" d="M91.72,-50.49C110.02,-44.18 132.21,-36.53 151.64,-29.83"/>
<polygon fill="midnightblue" stroke="midnightblue" points="152.91,-33.1 161.22,-26.53 150.62,-26.48 152.91,-33.1"/>
</g>
</g>
</svg>
