<?xml version="1.0" encoding="UTF-8" standalone="no"?>
<!DOCTYPE svg PUBLIC "-//W3C//DTD SVG 1.1//EN"
 "http://www.w3.org/Graphics/SVG/1.1/DTD/svg11.dtd">
<!-- Generated by graphviz version 2.43.0 (0)
 -->
<!-- Title: ipc::session::shm::arena_lend::jemalloc::Server_session_impl&lt; S_MQ_TYPE_OR_NONE, S_TRANSMIT_NATIVE_HANDLES, Mdt_payload &gt; Pages: 1 -->
<svg width="1498pt" height="1153pt"
 viewBox="0.00 0.00 1498.00 1152.50" xmlns="http://www.w3.org/2000/svg" xmlns:xlink="http://www.w3.org/1999/xlink">
<g id="graph0" class="graph" transform="scale(1 1) rotate(0) translate(4 1148.5)">
<title>ipc::session::shm::arena_lend::jemalloc::Server_session_impl&lt; S_MQ_TYPE_OR_NONE, S_TRANSMIT_NATIVE_HANDLES, Mdt_payload &gt;</title>
<polygon fill="white" stroke="transparent" points="-4,4 -4,-1148.5 1494,-1148.5 1494,4 -4,4"/>
<!-- Node1 -->
<g id="node1" class="node">
<title>Node1</title>
<g id="a_node1"><a xlink:title="Core internally&#45;used implementation of shm::arena_lend::jemalloc::Server_session: it is to the latter...">
<polygon fill="#bfbfbf" stroke="black" points="1352,-67.5 1352,-129.5 1490,-129.5 1490,-67.5 1352,-67.5"/>
<text text-anchor="start" x="1360" y="-119.1" font-family="Helvetica,sans-Serif" font-size="8.00">ipc::session::shm::</text>
<text text-anchor="start" x="1360" y="-110.1" font-family="Helvetica,sans-Serif" font-size="8.00">arena_lend::jemalloc</text>
<text text-anchor="start" x="1360" y="-101.1" font-family="Helvetica,sans-Serif" font-size="8.00">::Server_session_impl</text>
<text text-anchor="start" x="1360" y="-92.1" font-family="Helvetica,sans-Serif" font-size="8.00">&lt; S_MQ_TYPE_OR_NONE, S</text>
<text text-anchor="start" x="1360" y="-83.1" font-family="Helvetica,sans-Serif" font-size="8.00">_TRANSMIT_NATIVE_HANDLES,</text>
<text text-anchor="middle" x="1421" y="-74.1" font-family="Helvetica,sans-Serif" font-size="8.00"> Mdt_payload &gt;</text>
</a>
</g>
</g>
<!-- Node2 -->
<g id="node2" class="node">
<title>Node2</title>
<g id="a_node2"><a xlink:href="classipc_1_1session_1_1shm_1_1arena__lend_1_1jemalloc_1_1Session__impl.html" target="_top" xlink:title=" ">
<polygon fill="white" stroke="black" points="1106,-14 1106,-103 1315,-103 1315,-14 1106,-14"/>
<text text-anchor="start" x="1114" y="-92.6" font-family="Helvetica,sans-Serif" font-size="8.00">ipc::session::shm::</text>
<text text-anchor="start" x="1114" y="-83.6" font-family="Helvetica,sans-Serif" font-size="8.00">arena_lend::jemalloc</text>
<text text-anchor="start" x="1114" y="-74.6" font-family="Helvetica,sans-Serif" font-size="8.00">::Session_impl&lt; session</text>
<text text-anchor="start" x="1114" y="-65.6" font-family="Helvetica,sans-Serif" font-size="8.00">::Server_session_impl&lt;</text>
<text text-anchor="start" x="1114" y="-56.6" font-family="Helvetica,sans-Serif" font-size="8.00"> S_MQ_TYPE_OR_NONE, S_TRANSMIT</text>
<text text-anchor="start" x="1114" y="-47.6" font-family="Helvetica,sans-Serif" font-size="8.00">_NATIVE_HANDLES, Mdt_payload,</text>
<text text-anchor="start" x="1114" y="-38.6" font-family="Helvetica,sans-Serif" font-size="8.00"> session::schema::ShmType::JEMALLOC,</text>
<text text-anchor="start" x="1114" y="-29.6" font-family="Helvetica,sans-Serif" font-size="8.00"> transport::struc::shm::Builder_base</text>
<text text-anchor="middle" x="1210.5" y="-20.6" font-family="Helvetica,sans-Serif" font-size="8.00">::S_MAX_SERIALIZATION_SEGMENT_SZ, true &gt; &gt;</text>
</a>
</g>
</g>
<!-- Node2&#45;&gt;Node1 -->
<g id="edge1" class="edge">
<title>Node2&#45;&gt;Node1</title>
<path fill="none" stroke="midnightblue" d="M1325.06,-80.29C1334.19,-82.04 1343.22,-83.77 1351.87,-85.43"/>
<polygon fill="midnightblue" stroke="midnightblue" points="1325.62,-76.83 1315.14,-78.38 1324.3,-83.7 1325.62,-76.83"/>
</g>
<!-- Node3 -->
<g id="node3" class="node">
<title>Node3</title>
<g id="a_node3"><a xlink:href="classipc_1_1session_1_1Server__session__impl.html" target="_top" xlink:title=" ">
<polygon fill="white" stroke="black" points="782,-605 782,-676 1002,-676 1002,-605 782,-605"/>
<text text-anchor="start" x="790" y="-665.6" font-family="Helvetica,sans-Serif" font-size="8.00">ipc::session::Server</text>
<text text-anchor="start" x="790" y="-656.6" font-family="Helvetica,sans-Serif" font-size="8.00">_session_impl&lt; S_MQ_TYPE</text>
<text text-anchor="start" x="790" y="-647.6" font-family="Helvetica,sans-Serif" font-size="8.00">_OR_NONE, S_TRANSMIT_NATIVE</text>
<text text-anchor="start" x="790" y="-638.6" font-family="Helvetica,sans-Serif" font-size="8.00">_HANDLES, Mdt_payload, session</text>
<text text-anchor="start" x="790" y="-629.6" font-family="Helvetica,sans-Serif" font-size="8.00">::schema::ShmType::JEMALLOC, transport</text>
<text text-anchor="start" x="790" y="-620.6" font-family="Helvetica,sans-Serif" font-size="8.00">::struc::shm::Builder_base::S_MAX_SERIALIZATION</text>
<text text-anchor="middle" x="892" y="-611.6" font-family="Helvetica,sans-Serif" font-size="8.00">_SEGMENT_SZ, true &gt;</text>
</a>
</g>
</g>
<!-- Node3&#45;&gt;Node2 -->
<g id="edge2" class="edge">
<title>Node3&#45;&gt;Node2</title>
<path fill="none" stroke="midnightblue" d="M901.07,-594.95C920.46,-497.06 977.89,-263.65 1106,-117.5 1110.5,-112.37 1115.56,-107.58 1120.96,-103.13"/>
<polygon fill="midnightblue" stroke="midnightblue" points="897.63,-594.34 899.16,-604.83 904.5,-595.68 897.63,-594.34"/>
</g>
<!-- Node4 -->
<g id="node4" class="node">
<title>Node4</title>
<g id="a_node4"><a xlink:href="classipc_1_1session_1_1Session__base.html" target="_top" xlink:title="Internal type containing data and types common to internal types Server_session_impl and Client_sessi...">
<polygon fill="white" stroke="black" points="489,-715.5 489,-759.5 635,-759.5 635,-715.5 489,-715.5"/>
<text text-anchor="start" x="497" y="-749.1" font-family="Helvetica,sans-Serif" font-size="8.00">ipc::session::Session</text>
<text text-anchor="start" x="497" y="-740.1" font-family="Helvetica,sans-Serif" font-size="8.00">_base&lt; S_MQ_TYPE_OR_NONE,</text>
<text text-anchor="start" x="497" y="-731.1" font-family="Helvetica,sans-Serif" font-size="8.00"> S_TRANSMIT_NATIVE_HANDLES,</text>
<text text-anchor="middle" x="562" y="-722.1" font-family="Helvetica,sans-Serif" font-size="8.00"> Mdt_payload &gt;</text>
</a>
</g>
</g>
<!-- Node4&#45;&gt;Node3 -->
<g id="edge3" class="edge">
<title>Node4&#45;&gt;Node3</title>
<path fill="none" stroke="midnightblue" d="M645.14,-713.21C686.47,-700.99 737.12,-686.01 781.69,-672.83"/>
<polygon fill="midnightblue" stroke="midnightblue" points="643.98,-709.9 635.39,-716.09 645.97,-716.61 643.98,-709.9"/>
</g>
<!-- Node5 -->
<g id="node5" class="node">
<title>Node5</title>
<g id="a_node5"><a xlink:title=" ">
<polygon fill="white" stroke="#bfbfbf" points="191.5,-801 191.5,-818 290.5,-818 290.5,-801 191.5,-801"/>
<text text-anchor="middle" x="241" y="-807.6" font-family="Helvetica,sans-Serif" font-size="8.00">boost::noncopyable</text>
</a>
</g>
</g>
<!-- Node5&#45;&gt;Node4 -->
<g id="edge4" class="edge">
<title>Node5&#45;&gt;Node4</title>
<path fill="none" stroke="#8b1a1a" d="M300.47,-804.44C347.23,-799.48 414.14,-790.29 471,-774.5 485,-770.61 499.75,-765.16 513.17,-759.64"/>
<polygon fill="#8b1a1a" stroke="#8b1a1a" points="300.1,-800.96 290.51,-805.47 300.82,-807.93 300.1,-800.96"/>
</g>
<!-- Node6 -->
<g id="node6" class="node">
<title>Node6</title>
<g id="a_node6"><a xlink:title=" ">
<polygon fill="white" stroke="#bfbfbf" points="190.5,-938 190.5,-955 291.5,-955 291.5,-938 190.5,-938"/>
<text text-anchor="middle" x="241" y="-944.6" font-family="Helvetica,sans-Serif" font-size="8.00">static constexpr bool</text>
</a>
</g>
</g>
<!-- Node6&#45;&gt;Node3 -->
<g id="edge19" class="edge">
<title>Node6&#45;&gt;Node3</title>
<path fill="none" stroke="#9a32cd" stroke-dasharray="5,2" d="M301.81,-951.18C348.33,-953.51 414.29,-953.93 471,-943.5 547.33,-929.46 567.71,-922.17 635,-883.5 731.43,-828.08 819.81,-729.1 863.08,-676.18"/>
<polygon fill="#9a32cd" stroke="#9a32cd" points="301.78,-947.67 291.6,-950.62 301.4,-954.66 301.78,-947.67"/>
<text text-anchor="middle" x="562" y="-969.1" font-family="Helvetica,sans-Serif" font-size="8.00"> S_GRACEFUL_FINISH_REQUIRED</text>
<text text-anchor="middle" x="562" y="-960.1" font-family="Helvetica,sans-Serif" font-size="8.00">S_MQS_ENABLED</text>
<text text-anchor="middle" x="562" y="-951.1" font-family="Helvetica,sans-Serif" font-size="8.00">S_SHM_ENABLED</text>
<text text-anchor="middle" x="562" y="-942.1" font-family="Helvetica,sans-Serif" font-size="8.00">S_SOCKET_STREAM_ENABLED</text>
</g>
<!-- Node6&#45;&gt;Node4 -->
<g id="edge5" class="edge">
<title>Node6&#45;&gt;Node4</title>
<path fill="none" stroke="#9a32cd" stroke-dasharray="5,2" d="M287.64,-935.42C350.11,-919.97 456.21,-892.61 471,-881.5 513.42,-849.62 540.68,-791.38 553.13,-759.61"/>
<polygon fill="#9a32cd" stroke="#9a32cd" points="286.51,-932.09 277.64,-937.88 288.19,-938.89 286.51,-932.09"/>
<text text-anchor="middle" x="405" y="-933.1" font-family="Helvetica,sans-Serif" font-size="8.00"> S_MQS_ENABLED</text>
<text text-anchor="middle" x="405" y="-924.1" font-family="Helvetica,sans-Serif" font-size="8.00">S_SOCKET_STREAM_ENABLED</text>
</g>
<!-- Node7 -->
<g id="node7" class="node">
<title>Node7</title>
<g id="a_node7"><a xlink:href="structipc_1_1session_1_1Server__app.html" target="_top" xlink:title="An App that is used as a server in at least one client&#45;server IPC split.">
<polygon fill="white" stroke="red" points="182,-765 182,-782 300,-782 300,-765 182,-765"/>
<text text-anchor="middle" x="241" y="-771.6" font-family="Helvetica,sans-Serif" font-size="8.00">ipc::session::Server_app</text>
</a>
</g>
</g>
<!-- Node7&#45;&gt;Node4 -->
<g id="edge6" class="edge">
<title>Node7&#45;&gt;Node4</title>
<path fill="none" stroke="#9a32cd" stroke-dasharray="5,2" d="M310.37,-765.78C362.88,-759.86 435.24,-751.69 488.71,-745.66"/>
<polygon fill="#9a32cd" stroke="#9a32cd" points="309.68,-762.34 300.14,-766.94 310.47,-769.3 309.68,-762.34"/>
<text text-anchor="middle" x="405" y="-764.1" font-family="Helvetica,sans-Serif" font-size="8.00"> m_srv_app_ref</text>
</g>
<!-- Node16 -->
<g id="node8" class="node">
<title>Node16</title>
<g id="a_node8"><a xlink:title=" ">
<polygon fill="white" stroke="#bfbfbf" points="205.5,-729 205.5,-746 276.5,-746 276.5,-729 205.5,-729"/>
<text text-anchor="middle" x="241" y="-735.6" font-family="Helvetica,sans-Serif" font-size="8.00">Fine_duration</text>
</a>
</g>
</g>
<!-- Node16&#45;&gt;Node4 -->
<g id="edge7" class="edge">
<title>Node16&#45;&gt;Node4</title>
<path fill="none" stroke="#9a32cd" stroke-dasharray="5,2" d="M287.07,-737.5C339.52,-737.5 426.84,-737.5 488.78,-737.5"/>
<polygon fill="#9a32cd" stroke="#9a32cd" points="286.75,-734 276.75,-737.5 286.75,-741 286.75,-734"/>
<text text-anchor="middle" x="405" y="-740.1" font-family="Helvetica,sans-Serif" font-size="8.00"> S_OPEN_CHANNEL_TIMEOUT</text>
</g>
<!-- Node17 -->
<g id="node9" class="node">
<title>Node17</title>
<g id="a_node9"><a xlink:title=" ">
<polygon fill="white" stroke="#bfbfbf" points="187.5,-693 187.5,-710 294.5,-710 294.5,-693 187.5,-693"/>
<text text-anchor="middle" x="241" y="-699.6" font-family="Helvetica,sans-Serif" font-size="8.00">static constexpr size_t</text>
</a>
</g>
</g>
<!-- Node17&#45;&gt;Node4 -->
<g id="edge8" class="edge">
<title>Node17&#45;&gt;Node4</title>
<path fill="none" stroke="#9a32cd" stroke-dasharray="5,2" d="M304.96,-707.08C351.01,-711.35 414.95,-717.64 471,-724.5 476.8,-725.21 482.8,-725.99 488.83,-726.79"/>
<polygon fill="#9a32cd" stroke="#9a32cd" points="305.1,-703.58 294.83,-706.15 304.46,-710.55 305.1,-703.58"/>
<text text-anchor="middle" x="405" y="-727.1" font-family="Helvetica,sans-Serif" font-size="8.00"> S_MQS_MAX_MSG_SZ</text>
</g>
<!-- Node18 -->
<g id="node10" class="node">
<title>Node18</title>
<g id="a_node10"><a xlink:title=" ">
<polygon fill="white" stroke="orangered" points="192,-639 192,-674 290,-674 290,-639 192,-639"/>
<text text-anchor="start" x="200" y="-663.6" font-family="Helvetica,sans-Serif" font-size="8.00">std::atomic&lt; const</text>
<text text-anchor="start" x="200" y="-654.6" font-family="Helvetica,sans-Serif" font-size="8.00"> ipc::session::Client</text>
<text text-anchor="middle" x="241" y="-645.6" font-family="Helvetica,sans-Serif" font-size="8.00">_app * &gt;</text>
</a>
</g>
</g>
<!-- Node18&#45;&gt;Node4 -->
<g id="edge9" class="edge">
<title>Node18&#45;&gt;Node4</title>
<path fill="none" stroke="#9a32cd" stroke-dasharray="5,2" d="M300.18,-662.51C347.05,-668.34 414.25,-678.93 471,-696.5 486.91,-701.42 503.68,-708.5 518.38,-715.4"/>
<polygon fill="#9a32cd" stroke="#9a32cd" points="300.55,-659.03 290.2,-661.31 299.71,-665.98 300.55,-659.03"/>
<text text-anchor="middle" x="405" y="-699.1" font-family="Helvetica,sans-Serif" font-size="8.00"> m_cli_app_ptr</text>
</g>
<!-- Node20 -->
<g id="node11" class="node">
<title>Node20</title>
<g id="a_node11"><a xlink:href="classipc_1_1util_1_1Shared__name.html" target="_top" xlink:title="String&#45;wrapping abstraction representing a name uniquely distinguishing a kernel&#45;persistent entity fr...">
<polygon fill="white" stroke="red" points="186,-432 186,-449 296,-449 296,-432 186,-432"/>
<text text-anchor="middle" x="241" y="-438.6" font-family="Helvetica,sans-Serif" font-size="8.00">ipc::util::Shared_name</text>
</a>
</g>
</g>
<!-- Node20&#45;&gt;Node4 -->
<g id="edge10" class="edge">
<title>Node20&#45;&gt;Node4</title>
<path fill="none" stroke="#9a32cd" stroke-dasharray="5,2" d="M270.04,-453.53C316.27,-476.08 409.49,-526.09 471,-589.5 490.58,-609.68 529.58,-679.35 549.18,-715.44"/>
<polygon fill="#9a32cd" stroke="#9a32cd" points="271.44,-450.32 260.91,-449.14 268.41,-456.63 271.44,-450.32"/>
<text text-anchor="middle" x="405" y="-601.1" font-family="Helvetica,sans-Serif" font-size="8.00"> m_cli_namespace</text>
<text text-anchor="middle" x="405" y="-592.1" font-family="Helvetica,sans-Serif" font-size="8.00">m_srv_namespace</text>
</g>
<!-- Node20&#45;&gt;Node20 -->
<g id="edge11" class="edge">
<title>Node20&#45;&gt;Node20</title>
<path fill="none" stroke="#9a32cd" stroke-dasharray="5,2" d="M216.63,-457.6C216.84,-463.12 224.96,-467.5 241,-467.5 264.87,-467.5 271.21,-457.79 260.02,-449.07"/>
<polygon fill="#9a32cd" stroke="#9a32cd" points="219.63,-459.4 221.98,-449.07 213.7,-455.68 219.63,-459.4"/>
<text text-anchor="middle" x="241" y="-533.1" font-family="Helvetica,sans-Serif" font-size="8.00"> S_1ST_OR_ONLY</text>
<text text-anchor="middle" x="241" y="-524.1" font-family="Helvetica,sans-Serif" font-size="8.00">S_EMPTY</text>
<text text-anchor="start" x="202.5" y="-515.1" font-family="Helvetica,sans-Serif" font-size="8.00">S_RESOURCE_TYPE</text>
<text text-anchor="middle" x="241" y="-506.1" font-family="Helvetica,sans-Serif" font-size="8.00">_ID_MUTEX</text>
<text text-anchor="start" x="202.5" y="-497.1" font-family="Helvetica,sans-Serif" font-size="8.00">S_RESOURCE_TYPE</text>
<text text-anchor="middle" x="241" y="-488.1" font-family="Helvetica,sans-Serif" font-size="8.00">_ID_SHM</text>
<text text-anchor="middle" x="241" y="-479.1" font-family="Helvetica,sans-Serif" font-size="8.00">S_ROOT_MAGIC</text>
<text text-anchor="middle" x="241" y="-470.1" font-family="Helvetica,sans-Serif" font-size="8.00">S_SENTINEL</text>
</g>
<!-- Node32 -->
<g id="node23" class="node">
<title>Node32</title>
<g id="a_node23"><a xlink:href="classipc_1_1transport_1_1sync__io_1_1Native__socket__stream.html" target="_top" xlink:title="Implements both sync_io::Native_handle_sender and sync_io::Native_handle_receiver concepts by using a...">
<polygon fill="white" stroke="black" points="500.5,-456.5 500.5,-482.5 623.5,-482.5 623.5,-456.5 500.5,-456.5"/>
<text text-anchor="start" x="508.5" y="-472.1" font-family="Helvetica,sans-Serif" font-size="8.00">ipc::transport::sync</text>
<text text-anchor="middle" x="562" y="-463.1" font-family="Helvetica,sans-Serif" font-size="8.00">_io::Native_socket_stream</text>
</a>
</g>
</g>
<!-- Node20&#45;&gt;Node32 -->
<g id="edge28" class="edge">
<title>Node20&#45;&gt;Node32</title>
<path fill="none" stroke="#9a32cd" stroke-dasharray="5,2" d="M306.38,-446.35C363.02,-451.5 444.86,-458.94 500.35,-463.99"/>
<polygon fill="#9a32cd" stroke="#9a32cd" points="306.39,-442.84 296.11,-445.42 305.76,-449.81 306.39,-442.84"/>
<text text-anchor="middle" x="405" y="-463.1" font-family="Helvetica,sans-Serif" font-size="8.00"> S_RESOURCE_TYPE_ID</text>
</g>
<!-- Node21 -->
<g id="node12" class="node">
<title>Node21</title>
<g id="a_node12"><a xlink:title=" ">
<polygon fill="white" stroke="#bfbfbf" points="9.5,-484 9.5,-501 49.5,-501 49.5,-484 9.5,-484"/>
<text text-anchor="middle" x="29.5" y="-490.6" font-family="Helvetica,sans-Serif" font-size="8.00">size_t</text>
</a>
</g>
</g>
<!-- Node21&#45;&gt;Node20 -->
<g id="edge12" class="edge">
<title>Node21&#45;&gt;Node20</title>
<path fill="none" stroke="#9a32cd" stroke-dasharray="5,2" d="M59.82,-485.22C98.09,-475.72 164.95,-459.13 205.58,-449.04"/>
<polygon fill="#9a32cd" stroke="#9a32cd" points="58.7,-481.9 49.83,-487.7 60.38,-488.69 58.7,-481.9"/>
<text text-anchor="middle" x="110" y="-482.1" font-family="Helvetica,sans-Serif" font-size="8.00"> S_MAX_LENGTH</text>
</g>
<!-- Node21&#45;&gt;Node32 -->
<g id="edge30" class="edge">
<title>Node21&#45;&gt;Node32</title>
<path fill="none" stroke="#9a32cd" stroke-dasharray="5,2" d="M54.95,-505.98C80.55,-519.36 122.32,-539.18 161,-548.5 228.02,-564.64 407.38,-587.06 471,-560.5 509.14,-544.58 539.37,-503.75 553.05,-482.62"/>
<polygon fill="#9a32cd" stroke="#9a32cd" points="56.45,-502.81 45.97,-501.2 53.16,-508.99 56.45,-502.81"/>
<text text-anchor="middle" x="241" y="-573.1" font-family="Helvetica,sans-Serif" font-size="8.00"> S_MAX_META_BLOB_LENGTH</text>
</g>
<!-- Node9 -->
<g id="node13" class="node">
<title>Node9</title>
<g id="a_node13"><a xlink:title=" ">
<polygon fill="white" stroke="red" points="0,-380 0,-397 59,-397 59,-380 0,-380"/>
<text text-anchor="middle" x="29.5" y="-386.6" font-family="Helvetica,sans-Serif" font-size="8.00">std::string</text>
</a>
</g>
</g>
<!-- Node9&#45;&gt;Node20 -->
<g id="edge13" class="edge">
<title>Node9&#45;&gt;Node20</title>
<path fill="none" stroke="#9a32cd" stroke-dasharray="5,2" d="M69.03,-398.87C94.97,-405.77 129.98,-414.93 161,-422.5 174.12,-425.7 188.51,-429.03 201.37,-431.95"/>
<polygon fill="#9a32cd" stroke="#9a32cd" points="69.77,-395.45 59.2,-396.25 67.96,-402.21 69.77,-395.45"/>
<text text-anchor="middle" x="110" y="-419.1" font-family="Helvetica,sans-Serif" font-size="8.00"> m_raw_name</text>
</g>
<!-- Node28 -->
<g id="node19" class="node">
<title>Node28</title>
<g id="a_node19"><a xlink:href="classipc_1_1transport_1_1Protocol__negotiator.html" target="_top" xlink:title="A simple state machine that, assuming the opposide side of a comm pathway uses an equivalent state ma...">
<polygon fill="white" stroke="black" points="506.5,-276.5 506.5,-302.5 617.5,-302.5 617.5,-276.5 506.5,-276.5"/>
<text text-anchor="start" x="514.5" y="-292.1" font-family="Helvetica,sans-Serif" font-size="8.00">ipc::transport::Protocol</text>
<text text-anchor="middle" x="562" y="-283.1" font-family="Helvetica,sans-Serif" font-size="8.00">_negotiator</text>
</a>
</g>
</g>
<!-- Node9&#45;&gt;Node28 -->
<g id="edge23" class="edge">
<title>Node9&#45;&gt;Node28</title>
<path fill="none" stroke="#9a32cd" stroke-dasharray="5,2" d="M43.41,-371.84C64.64,-345.99 109.71,-297.23 161,-278.5 222.75,-255.95 411.8,-272.75 506.19,-283.05"/>
<polygon fill="#9a32cd" stroke="#9a32cd" points="40.45,-369.95 36.93,-379.95 45.91,-374.33 40.45,-369.95"/>
<text text-anchor="middle" x="241" y="-281.1" font-family="Helvetica,sans-Serif" font-size="8.00"> m_nickname</text>
</g>
<!-- Node23 -->
<g id="node14" class="node">
<title>Node23</title>
<g id="a_node14"><a xlink:title=" ">
<polygon fill="white" stroke="#bfbfbf" points="205.5,-891 205.5,-908 276.5,-908 276.5,-891 205.5,-891"/>
<text text-anchor="middle" x="241" y="-897.6" font-family="Helvetica,sans-Serif" font-size="8.00">Task_asio_err</text>
</a>
</g>
</g>
<!-- Node23&#45;&gt;Node3 -->
<g id="edge26" class="edge">
<title>Node23&#45;&gt;Node3</title>
<path fill="none" stroke="#9a32cd" stroke-dasharray="5,2" d="M286.79,-900.63C333.76,-900.58 409.19,-896.94 471,-877.5 617.16,-831.53 768.98,-730.17 843.68,-676.11"/>
<polygon fill="#9a32cd" stroke="#9a32cd" points="286.65,-897.13 276.64,-900.59 286.62,-904.13 286.65,-897.13"/>
<text text-anchor="middle" x="562" y="-873.1" font-family="Helvetica,sans-Serif" font-size="8.00"> m_log_in_on_done_func</text>
</g>
<!-- Node23&#45;&gt;Node4 -->
<g id="edge14" class="edge">
<title>Node23&#45;&gt;Node4</title>
<path fill="none" stroke="#9a32cd" stroke-dasharray="5,2" d="M286.68,-892.59C298.16,-889.94 310.29,-886.34 321,-881.5 329.99,-877.43 329.91,-872.33 339,-868.5 393.87,-845.36 419.45,-875.31 471,-845.5 506.5,-824.97 534.16,-784.88 548.99,-759.74"/>
<polygon fill="#9a32cd" stroke="#9a32cd" points="285.86,-889.19 276.8,-894.69 287.31,-896.04 285.86,-889.19"/>
<text text-anchor="middle" x="405" y="-871.1" font-family="Helvetica,sans-Serif" font-size="8.00"> m_on_err_func</text>
</g>
<!-- Node24 -->
<g id="node15" class="node">
<title>Node24</title>
<g id="a_node15"><a xlink:title=" ">
<polygon fill="white" stroke="#bfbfbf" points="161,-837 161,-872 321,-872 321,-837 161,-837"/>
<text text-anchor="start" x="169" y="-861.6" font-family="Helvetica,sans-Serif" font-size="8.00">Function&lt; void(Channel</text>
<text text-anchor="start" x="169" y="-852.6" font-family="Helvetica,sans-Serif" font-size="8.00">_obj &amp;&amp;new_channel, Mdt</text>
<text text-anchor="middle" x="241" y="-843.6" font-family="Helvetica,sans-Serif" font-size="8.00">_reader_ptr &amp;&amp;new_channel_mdt)&gt;</text>
</a>
</g>
</g>
<!-- Node24&#45;&gt;Node4 -->
<g id="edge15" class="edge">
<title>Node24&#45;&gt;Node4</title>
<path fill="none" stroke="#9a32cd" stroke-dasharray="5,2" d="M312.1,-834.37C321.13,-831.96 330.26,-829.61 339,-827.5 397.21,-813.46 415.99,-824.16 471,-800.5 494.65,-790.33 518.39,-773.36 535.54,-759.6"/>
<polygon fill="#9a32cd" stroke="#9a32cd" points="311.11,-831.01 302.37,-836.99 312.94,-837.76 311.11,-831.01"/>
<text text-anchor="start" x="344.5" y="-839.1" font-family="Helvetica,sans-Serif" font-size="8.00"> m_on_passive_open_channel</text>
<text text-anchor="middle" x="405" y="-830.1" font-family="Helvetica,sans-Serif" font-size="8.00">_func_or_empty</text>
</g>
<!-- Node25 -->
<g id="node16" class="node">
<title>Node25</title>
<g id="a_node16"><a xlink:title=" ">
<polygon fill="white" stroke="#bfbfbf" points="211,-603 211,-620 271,-620 271,-603 211,-603"/>
<text text-anchor="middle" x="241" y="-609.6" font-family="Helvetica,sans-Serif" font-size="8.00">Error_code</text>
</a>
</g>
</g>
<!-- Node25&#45;&gt;Node3 -->
<g id="edge32" class="edge">
<title>Node25&#45;&gt;Node3</title>
<path fill="none" stroke="#9a32cd" stroke-dasharray="5,2" d="M281.36,-611.18C326.99,-610.97 404.47,-611.07 471,-613.5 576.69,-617.36 697.14,-625.48 781.87,-631.82"/>
<polygon fill="#9a32cd" stroke="#9a32cd" points="281.27,-607.68 271.29,-611.24 281.31,-614.68 281.27,-607.68"/>
<text text-anchor="middle" x="562" y="-624.1" font-family="Helvetica,sans-Serif" font-size="8.00"> m_pre_init_err_code</text>
</g>
<!-- Node25&#45;&gt;Node4 -->
<g id="edge16" class="edge">
<title>Node25&#45;&gt;Node4</title>
<path fill="none" stroke="#9a32cd" stroke-dasharray="5,2" d="M281.45,-609.92C329,-609.63 410.09,-614.42 471,-645.5 502.84,-661.75 530.04,-693.63 545.96,-715.25"/>
<polygon fill="#9a32cd" stroke="#9a32cd" points="281.21,-606.42 271.26,-610.06 281.31,-613.42 281.21,-606.42"/>
<text text-anchor="start" x="356.5" y="-657.1" font-family="Helvetica,sans-Serif" font-size="8.00"> m_peer_state_err_code</text>
<text text-anchor="middle" x="405" y="-648.1" font-family="Helvetica,sans-Serif" font-size="8.00">_or_ok</text>
</g>
<!-- Node26 -->
<g id="node17" class="node">
<title>Node26</title>
<g id="a_node17"><a xlink:title=" ">
<polygon fill="white" stroke="#bfbfbf" points="187.5,-174 187.5,-191 294.5,-191 294.5,-174 187.5,-174"/>
<text text-anchor="middle" x="241" y="-180.6" font-family="Helvetica,sans-Serif" font-size="8.00">flow::log::Log_context</text>
</a>
</g>
</g>
<!-- Node26&#45;&gt;Node3 -->
<g id="edge17" class="edge">
<title>Node26&#45;&gt;Node3</title>
<path fill="none" stroke="midnightblue" d="M304.91,-176.26C351.45,-173.41 416.04,-173.16 471,-186.5 550,-205.67 567.31,-222.48 635,-267.5 698.22,-309.55 717.79,-319.26 764,-379.5 819.36,-451.67 859.79,-551.82 878.82,-604.62"/>
<polygon fill="midnightblue" stroke="midnightblue" points="304.41,-172.79 294.67,-176.95 304.88,-179.77 304.41,-172.79"/>
</g>
<!-- Node26&#45;&gt;Node28 -->
<g id="edge21" class="edge">
<title>Node26&#45;&gt;Node28</title>
<path fill="none" stroke="midnightblue" d="M304.78,-186.36C362.1,-190.62 442.18,-198.63 471,-211.5 504.61,-226.51 534.99,-258.36 550.39,-276.37"/>
<polygon fill="midnightblue" stroke="midnightblue" points="304.94,-182.86 294.71,-185.63 304.43,-189.84 304.94,-182.86"/>
</g>
<!-- Node27 -->
<g id="node18" class="node">
<title>Node27</title>
<g id="a_node18"><a xlink:title=" ">
<polygon fill="white" stroke="#bfbfbf" points="535.5,-157 535.5,-174 588.5,-174 588.5,-157 535.5,-157"/>
<text text-anchor="middle" x="562" y="-163.6" font-family="Helvetica,sans-Serif" font-size="8.00">ShmType</text>
</a>
</g>
</g>
<!-- Node27&#45;&gt;Node3 -->
<g id="edge18" class="edge">
<title>Node27&#45;&gt;Node3</title>
<path fill="none" stroke="#9a32cd" stroke-dasharray="5,2" d="M599.03,-163.21C649.98,-160.74 739.61,-159.54 764,-179.5 831.06,-234.37 873.2,-506.29 886.47,-604.79"/>
<polygon fill="#9a32cd" stroke="#9a32cd" points="598.58,-159.72 588.78,-163.74 598.95,-166.71 598.58,-159.72"/>
<text text-anchor="middle" x="708.5" y="-182.1" font-family="Helvetica,sans-Serif" font-size="8.00"> S_SHM_TYPE</text>
</g>
<!-- Node28&#45;&gt;Node3 -->
<g id="edge20" class="edge">
<title>Node28&#45;&gt;Node3</title>
<path fill="none" stroke="#9a32cd" stroke-dasharray="5,2" d="M583.54,-310.17C620.25,-347.24 699.32,-427.69 764,-497.5 797.4,-533.55 834.63,-575.71 860.09,-604.87"/>
<polygon fill="#9a32cd" stroke="#9a32cd" points="585.9,-307.58 576.37,-302.94 580.92,-312.5 585.9,-307.58"/>
<text text-anchor="middle" x="708.5" y="-509.1" font-family="Helvetica,sans-Serif" font-size="8.00"> m_protocol_negotiator</text>
<text text-anchor="middle" x="708.5" y="-500.1" font-family="Helvetica,sans-Serif" font-size="8.00">m_protocol_negotiator_aux</text>
</g>
<!-- Node29 -->
<g id="node20" class="node">
<title>Node29</title>
<g id="a_node20"><a xlink:title=" ">
<polygon fill="white" stroke="#bfbfbf" points="188.5,-296.5 188.5,-322.5 293.5,-322.5 293.5,-296.5 188.5,-296.5"/>
<text text-anchor="start" x="196.5" y="-312.1" font-family="Helvetica,sans-Serif" font-size="8.00">static constexpr proto</text>
<text text-anchor="middle" x="241" y="-303.1" font-family="Helvetica,sans-Serif" font-size="8.00">_ver_t</text>
</a>
</g>
</g>
<!-- Node29&#45;&gt;Node28 -->
<g id="edge22" class="edge">
<title>Node29&#45;&gt;Node28</title>
<path fill="none" stroke="#9a32cd" stroke-dasharray="5,2" d="M303.86,-305.62C362.58,-301.94 450.01,-296.46 506.26,-292.93"/>
<polygon fill="#9a32cd" stroke="#9a32cd" points="303.37,-302.15 293.61,-306.26 303.81,-309.13 303.37,-302.15"/>
<text text-anchor="middle" x="405" y="-314.1" font-family="Helvetica,sans-Serif" font-size="8.00"> S_VER_UNKNOWN</text>
<text text-anchor="middle" x="405" y="-305.1" font-family="Helvetica,sans-Serif" font-size="8.00">S_VER_UNSUPPORTED</text>
</g>
<!-- Node30 -->
<g id="node21" class="node">
<title>Node30</title>
<g id="a_node21"><a xlink:title=" ">
<polygon fill="white" stroke="#bfbfbf" points="219,-215 219,-232 263,-232 263,-215 219,-215"/>
<text text-anchor="middle" x="241" y="-221.6" font-family="Helvetica,sans-Serif" font-size="8.00">int16_t</text>
</a>
</g>
</g>
<!-- Node30&#45;&gt;Node28 -->
<g id="edge24" class="edge">
<title>Node30&#45;&gt;Node28</title>
<path fill="none" stroke="#9a32cd" stroke-dasharray="5,2" d="M273.14,-219.47C318.03,-214.79 403,-210.19 471,-231.5 500.44,-240.73 529.55,-262.38 546.37,-276.46"/>
<polygon fill="#9a32cd" stroke="#9a32cd" points="272.7,-215.99 263.15,-220.58 273.48,-222.95 272.7,-215.99"/>
<text text-anchor="middle" x="405" y="-252.1" font-family="Helvetica,sans-Serif" font-size="8.00"> m_local_max_proto_ver</text>
<text text-anchor="middle" x="405" y="-243.1" font-family="Helvetica,sans-Serif" font-size="8.00">m_local_min_proto_ver</text>
<text text-anchor="middle" x="405" y="-234.1" font-family="Helvetica,sans-Serif" font-size="8.00">m_negotiated_proto_ver</text>
</g>
<!-- Node31 -->
<g id="node22" class="node">
<title>Node31</title>
<g id="a_node22"><a xlink:title=" ">
<polygon fill="white" stroke="#bfbfbf" points="223.5,-342 223.5,-359 258.5,-359 258.5,-342 223.5,-342"/>
<text text-anchor="middle" x="241" y="-348.6" font-family="Helvetica,sans-Serif" font-size="8.00">bool</text>
</a>
</g>
</g>
<!-- Node31&#45;&gt;Node28 -->
<g id="edge25" class="edge">
<title>Node31&#45;&gt;Node28</title>
<path fill="none" stroke="#9a32cd" stroke-dasharray="5,2" d="M268.88,-349.69C312.07,-347.88 399.35,-342.18 471,-324.5 492.32,-319.24 515.39,-310.2 532.83,-302.62"/>
<polygon fill="#9a32cd" stroke="#9a32cd" points="268.5,-346.2 258.64,-350.07 268.77,-353.19 268.5,-346.2"/>
<text text-anchor="middle" x="405" y="-347.1" font-family="Helvetica,sans-Serif" font-size="8.00"> m_local_max_proto_ver_sent</text>
</g>
<!-- Node31&#45;&gt;Node32 -->
<g id="edge29" class="edge">
<title>Node31&#45;&gt;Node32</title>
<path fill="none" stroke="#9a32cd" stroke-dasharray="5,2" d="M268.61,-352.38C325.07,-356.51 453.18,-366.72 471,-375.5 508.69,-394.08 539.12,-435.28 552.95,-456.43"/>
<polygon fill="#9a32cd" stroke="#9a32cd" points="268.86,-348.89 258.63,-351.66 268.36,-355.87 268.86,-348.89"/>
<text text-anchor="middle" x="405" y="-405.1" font-family="Helvetica,sans-Serif" font-size="8.00"> S_BLOB_UNDERFLOW_ALLOWED</text>
<text text-anchor="start" x="339" y="-396.1" font-family="Helvetica,sans-Serif" font-size="8.00">S_META_BLOB_UNDERFLOW</text>
<text text-anchor="middle" x="405" y="-387.1" font-family="Helvetica,sans-Serif" font-size="8.00">_ALLOWED</text>
<text text-anchor="middle" x="405" y="-378.1" font-family="Helvetica,sans-Serif" font-size="8.00">S_TRANSMIT_NATIVE_HANDLES</text>
</g>
<!-- Node32&#45;&gt;Node3 -->
<g id="edge27" class="edge">
<title>Node32&#45;&gt;Node3</title>
<path fill="none" stroke="#9a32cd" stroke-dasharray="5,2" d="M597.21,-487.34C650.41,-515.07 753.99,-569.07 822.84,-604.97"/>
<polygon fill="#9a32cd" stroke="#9a32cd" points="598.68,-484.15 588.19,-482.63 595.44,-490.36 598.68,-484.15"/>
<text text-anchor="middle" x="708.5" y="-572.1" font-family="Helvetica,sans-Serif" font-size="8.00"> m_master_sock_stm</text>
</g>
<!-- Node33 -->
<g id="node24" class="node">
<title>Node33</title>
<g id="a_node24"><a xlink:title=" ">
<polygon fill="white" stroke="#bfbfbf" points="182,-378 182,-413 300,-413 300,-378 182,-378"/>
<text text-anchor="start" x="190" y="-402.6" font-family="Helvetica,sans-Serif" font-size="8.00">propagate_const&lt; boost</text>
<text text-anchor="start" x="190" y="-393.6" font-family="Helvetica,sans-Serif" font-size="8.00">::movelib::unique_ptr</text>
<text text-anchor="middle" x="241" y="-384.6" font-family="Helvetica,sans-Serif" font-size="8.00">&lt; Impl &gt; &gt;</text>
</a>
</g>
</g>
<!-- Node33&#45;&gt;Node32 -->
<g id="edge31" class="edge">
<title>Node33&#45;&gt;Node32</title>
<path fill="none" stroke="#9a32cd" stroke-dasharray="5,2" d="M310.16,-409.83C319.83,-411.78 329.66,-413.72 339,-415.5 397.5,-426.63 413.33,-423.65 471,-438.5 489.88,-443.36 510.48,-450.33 527.2,-456.43"/>
<polygon fill="#9a32cd" stroke="#9a32cd" points="310.66,-406.36 300.16,-407.8 309.26,-413.22 310.66,-406.36"/>
<text text-anchor="middle" x="405" y="-441.1" font-family="Helvetica,sans-Serif" font-size="8.00"> m_impl</text>
</g>
<!-- Node34 -->
<g id="node25" class="node">
<title>Node34</title>
<g id="a_node25"><a xlink:title=" ">
<polygon fill="white" stroke="#bfbfbf" points="528,-102 528,-119 596,-119 596,-102 528,-102"/>
<text text-anchor="middle" x="562" y="-108.6" font-family="Helvetica,sans-Serif" font-size="8.00">unsigned int</text>
</a>
</g>
</g>
<!-- Node34&#45;&gt;Node3 -->
<g id="edge33" class="edge">
<title>Node34&#45;&gt;Node3</title>
<path fill="none" stroke="#9a32cd" stroke-dasharray="5,2" d="M606.43,-104.93C658.17,-99.31 740.56,-93.84 764,-112.5 842.28,-174.82 878.06,-496.75 888,-604.97"/>
<polygon fill="#9a32cd" stroke="#9a32cd" points="605.75,-101.49 596.2,-106.09 606.53,-108.45 605.75,-101.49"/>
<text text-anchor="start" x="656.5" y="-151.1" font-family="Helvetica,sans-Serif" font-size="8.00"> m_last_actively_opened</text>
<text text-anchor="middle" x="708.5" y="-142.1" font-family="Helvetica,sans-Serif" font-size="8.00">_channel_id</text>
<text text-anchor="middle" x="708.5" y="-133.1" font-family="Helvetica,sans-Serif" font-size="8.00">m_last_channel_mq_id</text>
<text text-anchor="start" x="656.5" y="-124.1" font-family="Helvetica,sans-Serif" font-size="8.00">m_last_passively_opened</text>
<text text-anchor="middle" x="708.5" y="-115.1" font-family="Helvetica,sans-Serif" font-size="8.00">_channel_id</text>
</g>
<!-- Node35 -->
<g id="node26" class="node">
<title>Node35</title>
<g id="a_node26"><a xlink:title=" ">
<polygon fill="white" stroke="#bfbfbf" points="504,-1117 504,-1134 620,-1134 620,-1117 504,-1117"/>
<text text-anchor="middle" x="562" y="-1123.6" font-family="Helvetica,sans-Serif" font-size="8.00">Single_thread_task_loop</text>
</a>
</g>
</g>
<!-- Node35&#45;&gt;Node3 -->
<g id="edge34" class="edge">
<title>Node35&#45;&gt;Node3</title>
<path fill="none" stroke="#9a32cd" stroke-dasharray="5,2" d="M624.62,-1134.83C668.51,-1137.87 726.18,-1134.03 764,-1101.5 829.69,-1044.99 872.69,-774.11 886.33,-676.04"/>
<polygon fill="#9a32cd" stroke="#9a32cd" points="624.89,-1131.34 614.63,-1134 624.31,-1138.31 624.89,-1131.34"/>
<text text-anchor="middle" x="708.5" y="-1138.1" font-family="Helvetica,sans-Serif" font-size="8.00"> m_async_worker</text>
</g>
<!-- Node36 -->
<g id="node27" class="node">
<title>Node36</title>
<g id="a_node27"><a xlink:title=" ">
<polygon fill="white" stroke="#bfbfbf" points="491,-1081 491,-1098 633,-1098 633,-1081 491,-1081"/>
<text text-anchor="middle" x="562" y="-1087.6" font-family="Helvetica,sans-Serif" font-size="8.00">Master_structured_channel_ptr</text>
</a>
</g>
</g>
<!-- Node36&#45;&gt;Node3 -->
<g id="edge35" class="edge">
<title>Node36&#45;&gt;Node3</title>
<path fill="none" stroke="#9a32cd" stroke-dasharray="5,2" d="M643.19,-1089.14C691,-1087.28 745.84,-1081.72 764,-1066.5 825.15,-1015.26 870.36,-768.93 885.5,-676.04"/>
<polygon fill="#9a32cd" stroke="#9a32cd" points="642.98,-1085.65 633.11,-1089.49 643.22,-1092.65 642.98,-1085.65"/>
<text text-anchor="middle" x="708.5" y="-1091.1" font-family="Helvetica,sans-Serif" font-size="8.00"> m_master_channel</text>
</g>
<!-- Node37 -->
<g id="node28" class="node">
<title>Node37</title>
<g id="a_node28"><a xlink:href="classFunction_3_01void_07_08_4.html" target="_top" xlink:title=" ">
<polygon fill="white" stroke="#bfbfbf" points="516.5,-1045 516.5,-1062 607.5,-1062 607.5,-1045 516.5,-1045"/>
<text text-anchor="middle" x="562" y="-1051.6" font-family="Helvetica,sans-Serif" font-size="8.00">Function&lt; void()&gt;</text>
</a>
</g>
</g>
<!-- Node37&#45;&gt;Node3 -->
<g id="edge36" class="edge">
<title>Node37&#45;&gt;Node3</title>
<path fill="none" stroke="#9a32cd" stroke-dasharray="5,2" d="M617.8,-1056.06C662.33,-1055.16 724.09,-1046.75 764,-1011.5 864.65,-922.6 885.59,-750.44 889.91,-676.1"/>
<polygon fill="#9a32cd" stroke="#9a32cd" points="617.7,-1052.56 607.72,-1056.14 617.75,-1059.56 617.7,-1052.56"/>
<text text-anchor="middle" x="708.5" y="-1056.1" font-family="Helvetica,sans-Serif" font-size="8.00"> m_deinit_func_or_empty</text>
</g>
<!-- Node38 -->
<g id="node29" class="node">
<title>Node38</title>
<g id="a_node29"><a xlink:title=" ">
<polygon fill="white" stroke="#bfbfbf" points="499.5,-991 499.5,-1026 624.5,-1026 624.5,-991 499.5,-991"/>
<text text-anchor="start" x="507.5" y="-1015.6" font-family="Helvetica,sans-Serif" font-size="8.00">optional&lt; typename</text>
<text text-anchor="start" x="507.5" y="-1006.6" font-family="Helvetica,sans-Serif" font-size="8.00"> ipc::session::Session</text>
<text text-anchor="middle" x="562" y="-997.6" font-family="Helvetica,sans-Serif" font-size="8.00">_base::Graceful_finisher &gt;</text>
</a>
</g>
</g>
<!-- Node38&#45;&gt;Node3 -->
<g id="edge37" class="edge">
<title>Node38&#45;&gt;Node3</title>
<path fill="none" stroke="#9a32cd" stroke-dasharray="5,2" d="M634.64,-1003.25C676.79,-996.72 728.59,-982.28 764,-950.5 846.56,-876.4 876.6,-740.61 886.55,-676.21"/>
<polygon fill="#9a32cd" stroke="#9a32cd" points="634.11,-999.79 624.71,-1004.67 635.1,-1006.72 634.11,-999.79"/>
<text text-anchor="middle" x="708.5" y="-1001.1" font-family="Helvetica,sans-Serif" font-size="8.00"> m_graceful_finisher</text>
</g>
<!-- Node39 -->
<g id="node30" class="node">
<title>Node39</title>
<g id="a_node30"><a xlink:title=" ">
<polygon fill="white" stroke="black" points="831.5,-91 831.5,-108 952.5,-108 952.5,-91 831.5,-91"/>
<text text-anchor="middle" x="892" y="-97.6" font-family="Helvetica,sans-Serif" font-size="8.00">std::shared_ptr&lt; Arena &gt;</text>
</a>
</g>
</g>
<!-- Node39&#45;&gt;Node1 -->
<g id="edge43" class="edge">
<title>Node39&#45;&gt;Node1</title>
<path fill="none" stroke="#9a32cd" stroke-dasharray="5,2" d="M962.98,-105.8C1046.75,-112.39 1191.26,-120.71 1315,-112.5 1326.93,-111.71 1339.57,-110.42 1351.79,-108.93"/>
<polygon fill="#9a32cd" stroke="#9a32cd" points="963.06,-102.3 952.82,-104.99 962.5,-109.28 963.06,-102.3"/>
<text text-anchor="middle" x="1210.5" y="-118.1" font-family="Helvetica,sans-Serif" font-size="8.00"> m_app_shm</text>
</g>
<!-- Node39&#45;&gt;Node2 -->
<g id="edge38" class="edge">
<title>Node39&#45;&gt;Node2</title>
<path fill="none" stroke="#9a32cd" stroke-dasharray="5,2" d="M962.64,-90.48C1004.58,-85.05 1058.77,-78.03 1105.69,-71.95"/>
<polygon fill="#9a32cd" stroke="#9a32cd" points="962,-87.03 952.53,-91.79 962.9,-93.97 962,-87.03"/>
<text text-anchor="middle" x="1054" y="-85.1" font-family="Helvetica,sans-Serif" font-size="8.00"> m_session_shm</text>
</g>
<!-- Node40 -->
<g id="node31" class="node">
<title>Node40</title>
<g id="a_node31"><a xlink:title=" ">
<polygon fill="white" stroke="#bfbfbf" points="541.5,-66 541.5,-83 582.5,-83 582.5,-66 541.5,-66"/>
<text text-anchor="middle" x="562" y="-72.6" font-family="Helvetica,sans-Serif" font-size="8.00">Arena</text>
</a>
</g>
</g>
<!-- Node40&#45;&gt;Node39 -->
<g id="edge39" class="edge">
<title>Node40&#45;&gt;Node39</title>
<path fill="none" stroke="#9a32cd" stroke-dasharray="5,2" d="M592.95,-74.02C632.29,-73.67 703.47,-74 764,-79.5 778.73,-80.84 812.23,-86.15 841.13,-90.96"/>
<polygon fill="#9a32cd" stroke="#9a32cd" points="592.7,-70.52 582.74,-74.13 592.77,-77.52 592.7,-70.52"/>
<text text-anchor="middle" x="708.5" y="-82.1" font-family="Helvetica,sans-Serif" font-size="8.00"> ptr</text>
</g>
<!-- Node41 -->
<g id="node32" class="node">
<title>Node41</title>
<g id="a_node32"><a xlink:title=" ">
<polygon fill="white" stroke="#bfbfbf" points="821,-45.5 821,-71.5 963,-71.5 963,-45.5 821,-45.5"/>
<text text-anchor="start" x="829" y="-61.1" font-family="Helvetica,sans-Serif" font-size="8.00">optional&lt; typename</text>
<text text-anchor="middle" x="892" y="-52.1" font-family="Helvetica,sans-Serif" font-size="8.00"> Shm_session::Shm_channel &gt;</text>
</a>
</g>
</g>
<!-- Node41&#45;&gt;Node2 -->
<g id="edge40" class="edge">
<title>Node41&#45;&gt;Node2</title>
<path fill="none" stroke="#9a32cd" stroke-dasharray="5,2" d="M973.27,-58.5C1013.51,-58.5 1062.73,-58.5 1105.8,-58.5"/>
<polygon fill="#9a32cd" stroke="#9a32cd" points="973.24,-55 963.24,-58.5 973.24,-62 973.24,-55"/>
<text text-anchor="middle" x="1054" y="-61.1" font-family="Helvetica,sans-Serif" font-size="8.00"> m_shm_channel</text>
</g>
<!-- Node42 -->
<g id="node33" class="node">
<title>Node42</title>
<g id="a_node33"><a xlink:title=" ">
<polygon fill="white" stroke="black" points="839,-0.5 839,-26.5 945,-26.5 945,-0.5 839,-0.5"/>
<text text-anchor="start" x="847" y="-16.1" font-family="Helvetica,sans-Serif" font-size="8.00">std::shared_ptr&lt; Shm</text>
<text text-anchor="middle" x="892" y="-7.1" font-family="Helvetica,sans-Serif" font-size="8.00">_session &gt;</text>
</a>
</g>
</g>
<!-- Node42&#45;&gt;Node2 -->
<g id="edge41" class="edge">
<title>Node42&#45;&gt;Node2</title>
<path fill="none" stroke="#9a32cd" stroke-dasharray="5,2" d="M955.27,-22.35C998.16,-28.45 1056.15,-36.7 1105.92,-43.77"/>
<polygon fill="#9a32cd" stroke="#9a32cd" points="955.66,-18.87 945.26,-20.93 954.67,-25.8 955.66,-18.87"/>
<text text-anchor="middle" x="1054" y="-43.1" font-family="Helvetica,sans-Serif" font-size="8.00"> m_shm_session</text>
</g>
<!-- Node43 -->
<g id="node34" class="node">
<title>Node43</title>
<g id="a_node34"><a xlink:title=" ">
<polygon fill="white" stroke="#bfbfbf" points="527,-5 527,-22 597,-22 597,-5 527,-5"/>
<text text-anchor="middle" x="562" y="-11.6" font-family="Helvetica,sans-Serif" font-size="8.00">Shm_session</text>
</a>
</g>
</g>
<!-- Node43&#45;&gt;Node42 -->
<g id="edge42" class="edge">
<title>Node43&#45;&gt;Node42</title>
<path fill="none" stroke="#9a32cd" stroke-dasharray="5,2" d="M607.49,-13.5C667.72,-13.5 774.99,-13.5 838.91,-13.5"/>
<polygon fill="#9a32cd" stroke="#9a32cd" points="607.17,-10 597.17,-13.5 607.17,-17 607.17,-10"/>
<text text-anchor="middle" x="708.5" y="-16.1" font-family="Helvetica,sans-Serif" font-size="8.00"> ptr</text>
</g>
</g>
</svg>
