<?xml version="1.0" encoding="UTF-8" standalone="no"?>
<!DOCTYPE svg PUBLIC "-//W3C//DTD SVG 1.1//EN"
 "http://www.w3.org/Graphics/SVG/1.1/DTD/svg11.dtd">
<!-- Generated by graphviz version 2.43.0 (0)
 -->
<!-- Title: ipc::session::shm::arena_lend::jemalloc::Server_session_impl&lt; S_MQ_TYPE_OR_NONE, S_TRANSMIT_NATIVE_HANDLES, Mdt_payload &gt; Pages: 1 -->
<svg width="964pt" height="101pt"
 viewBox="0.00 0.00 964.00 100.50" xmlns="http://www.w3.org/2000/svg" xmlns:xlink="http://www.w3.org/1999/xlink">
<g id="graph0" class="graph" transform="scale(1 1) rotate(0) translate(4 96.5)">
<title>ipc::session::shm::arena_lend::jemalloc::Server_session_impl&lt; S_MQ_TYPE_OR_NONE, S_TRANSMIT_NATIVE_HANDLES, Mdt_payload &gt;</title>
<polygon fill="white" stroke="transparent" points="-4,4 -4,-96.5 960,-96.5 960,4 -4,4"/>
<!-- Node1 -->
<g id="node1" class="node">
<title>Node1</title>
<g id="a_node1"><a xlink:title="Core internally&#45;used implementation of shm::arena_lend::jemalloc::Server_session: it is to the latter...">
<polygon fill="#bfbfbf" stroke="black" points="818,-14 818,-76 956,-76 956,-14 818,-14"/>
<text text-anchor="start" x="826" y="-65.6" font-family="Helvetica,sans-Serif" font-size="8.00">ipc::session::shm::</text>
<text text-anchor="start" x="826" y="-56.6" font-family="Helvetica,sans-Serif" font-size="8.00">arena_lend::jemalloc</text>
<text text-anchor="start" x="826" y="-47.6" font-family="Helvetica,sans-Serif" font-size="8.00">::Server_session_impl</text>
<text text-anchor="start" x="826" y="-38.6" font-family="Helvetica,sans-Serif" font-size="8.00">&lt; S_MQ_TYPE_OR_NONE, S</text>
<text text-anchor="start" x="826" y="-29.6" font-family="Helvetica,sans-Serif" font-size="8.00">_TRANSMIT_NATIVE_HANDLES,</text>
<text text-anchor="middle" x="887" y="-20.6" font-family="Helvetica,sans-Serif" font-size="8.00"> Mdt_payload &gt;</text>
</a>
</g>
</g>
<!-- Node2 -->
<g id="node2" class="node">
<title>Node2</title>
<g id="a_node2"><a xlink:href="classipc_1_1session_1_1shm_1_1arena__lend_1_1jemalloc_1_1Session__impl.html" target="_top" xlink:title=" ">
<polygon fill="white" stroke="black" points="573,-0.5 573,-89.5 782,-89.5 782,-0.5 573,-0.5"/>
<text text-anchor="start" x="581" y="-79.1" font-family="Helvetica,sans-Serif" font-size="8.00">ipc::session::shm::</text>
<text text-anchor="start" x="581" y="-70.1" font-family="Helvetica,sans-Serif" font-size="8.00">arena_lend::jemalloc</text>
<text text-anchor="start" x="581" y="-61.1" font-family="Helvetica,sans-Serif" font-size="8.00">::Session_impl&lt; session</text>
<text text-anchor="start" x="581" y="-52.1" font-family="Helvetica,sans-Serif" font-size="8.00">::Server_session_impl&lt;</text>
<text text-anchor="start" x="581" y="-43.1" font-family="Helvetica,sans-Serif" font-size="8.00"> S_MQ_TYPE_OR_NONE, S_TRANSMIT</text>
<text text-anchor="start" x="581" y="-34.1" font-family="Helvetica,sans-Serif" font-size="8.00">_NATIVE_HANDLES, Mdt_payload,</text>
<text text-anchor="start" x="581" y="-25.1" font-family="Helvetica,sans-Serif" font-size="8.00"> session::schema::ShmType::JEMALLOC,</text>
<text text-anchor="start" x="581" y="-16.1" font-family="Helvetica,sans-Serif" font-size="8.00"> transport::struc::shm::Builder_base</text>
<text text-anchor="middle" x="677.5" y="-7.1" font-family="Helvetica,sans-Serif" font-size="8.00">::S_MAX_SERIALIZATION_SEGMENT_SZ, true &gt; &gt;</text>
</a>
</g>
</g>
<!-- Node2&#45;&gt;Node1 -->
<g id="edge1" class="edge">
<title>Node2&#45;&gt;Node1</title>
<path fill="none" stroke="midnightblue" d="M792.41,-45C801.04,-45 809.57,-45 817.77,-45"/>
<polygon fill="midnightblue" stroke="midnightblue" points="792.25,-41.5 782.25,-45 792.25,-48.5 792.25,-41.5"/>
</g>
<!-- Node3 -->
<g id="node3" class="node">
<title>Node3</title>
<g id="a_node3"><a xlink:href="classipc_1_1session_1_1Server__session__impl.html" target="_top" xlink:title=" ">
<polygon fill="white" stroke="black" points="317,-9.5 317,-80.5 537,-80.5 537,-9.5 317,-9.5"/>
<text text-anchor="start" x="325" y="-70.1" font-family="Helvetica,sans-Serif" font-size="8.00">ipc::session::Server</text>
<text text-anchor="start" x="325" y="-61.1" font-family="Helvetica,sans-Serif" font-size="8.00">_session_impl&lt; S_MQ_TYPE</text>
<text text-anchor="start" x="325" y="-52.1" font-family="Helvetica,sans-Serif" font-size="8.00">_OR_NONE, S_TRANSMIT_NATIVE</text>
<text text-anchor="start" x="325" y="-43.1" font-family="Helvetica,sans-Serif" font-size="8.00">_HANDLES, Mdt_payload, session</text>
<text text-anchor="start" x="325" y="-34.1" font-family="Helvetica,sans-Serif" font-size="8.00">::schema::ShmType::JEMALLOC, transport</text>
<text text-anchor="start" x="325" y="-25.1" font-family="Helvetica,sans-Serif" font-size="8.00">::struc::shm::Builder_base::S_MAX_SERIALIZATION</text>
<text text-anchor="middle" x="427" y="-16.1" font-family="Helvetica,sans-Serif" font-size="8.00">_SEGMENT_SZ, true &gt;</text>
</a>
</g>
</g>
<!-- Node3&#45;&gt;Node2 -->
<g id="edge2" class="edge">
<title>Node3&#45;&gt;Node2</title>
<path fill="none" stroke="midnightblue" d="M547.55,-45C555.93,-45 564.34,-45 572.63,-45"/>
<polygon fill="midnightblue" stroke="midnightblue" points="547.36,-41.5 537.36,-45 547.36,-48.5 547.36,-41.5"/>
</g>
<!-- Node4 -->
<g id="node4" class="node">
<title>Node4</title>
<g id="a_node4"><a xlink:href="classipc_1_1session_1_1Session__base.html" target="_top" xlink:title="Internal type containing data and types common to internal types Server_session_impl and Client_sessi...">
<polygon fill="white" stroke="black" points="135,-48 135,-92 281,-92 281,-48 135,-48"/>
<text text-anchor="start" x="143" y="-81.6" font-family="Helvetica,sans-Serif" font-size="8.00">ipc::session::Session</text>
<text text-anchor="start" x="143" y="-72.6" font-family="Helvetica,sans-Serif" font-size="8.00">_base&lt; S_MQ_TYPE_OR_NONE,</text>
<text text-anchor="start" x="143" y="-63.6" font-family="Helvetica,sans-Serif" font-size="8.00"> S_TRANSMIT_NATIVE_HANDLES,</text>
<text text-anchor="middle" x="208" y="-54.6" font-family="Helvetica,sans-Serif" font-size="8.00"> Mdt_payload &gt;</text>
</a>
</g>
</g>
<!-- Node4&#45;&gt;Node3 -->
<g id="edge3" class="edge">
<title>Node4&#45;&gt;Node3</title>
<path fill="none" stroke="midnightblue" d="M291.34,-60.51C299.71,-59.55 308.29,-58.56 316.89,-57.57"/>
<polygon fill="midnightblue" stroke="midnightblue" points="290.79,-57.05 281.26,-61.68 291.59,-64.01 290.79,-57.05"/>
</g>
<!-- Node5 -->
<g id="node5" class="node">
<title>Node5</title>
<g id="a_node5"><a xlink:title=" ">
<polygon fill="white" stroke="#bfbfbf" points="0,-61.5 0,-78.5 99,-78.5 99,-61.5 0,-61.5"/>
<text text-anchor="middle" x="49.5" y="-68.1" font-family="Helvetica,sans-Serif" font-size="8.00">boost::noncopyable</text>
</a>
</g>
</g>
<!-- Node5&#45;&gt;Node4 -->
<g id="edge4" class="edge">
<title>Node5&#45;&gt;Node4</title>
<path fill="none" stroke="#8b1a1a" d="M109.18,-70C117.54,-70 126.23,-70 134.82,-70"/>
<polygon fill="#8b1a1a" stroke="#8b1a1a" points="109.16,-66.5 99.16,-70 109.16,-73.5 109.16,-66.5"/>
</g>
<!-- Node6 -->
<g id="node6" class="node">
<title>Node6</title>
<g id="a_node6"><a xlink:title=" ">
<polygon fill="white" stroke="#bfbfbf" points="154.5,-11.5 154.5,-28.5 261.5,-28.5 261.5,-11.5 154.5,-11.5"/>
<text text-anchor="middle" x="208" y="-18.1" font-family="Helvetica,sans-Serif" font-size="8.00">flow::log::Log_context</text>
</a>
</g>
</g>
<!-- Node6&#45;&gt;Node3 -->
<g id="edge5" class="edge">
<title>Node6&#45;&gt;Node3</title>
<path fill="none" stroke="midnightblue" d="M271.64,-27.22C285.87,-28.86 301.38,-30.64 316.91,-32.43"/>
<polygon fill="midnightblue" stroke="midnightblue" points="271.86,-23.72 261.53,-26.05 271.06,-30.67 271.86,-23.72"/>
</g>
</g>
</svg>
