<?xml version="1.0" encoding="UTF-8" standalone="no"?>
<!DOCTYPE svg PUBLIC "-//W3C//DTD SVG 1.1//EN"
 "http://www.w3.org/Graphics/SVG/1.1/DTD/svg11.dtd">
<!-- Generated by graphviz version 2.43.0 (0)
 -->
<!-- Title: ipc::transport::struc::Heap_fixed_builder::payload_msg_builder Pages: 1 -->
<svg width="272pt" height="44pt"
 viewBox="0.00 0.00 272.00 44.00" xmlns="http://www.w3.org/2000/svg" xmlns:xlink="http://www.w3.org/1999/xlink">
<g id="graph0" class="graph" transform="scale(1 1) rotate(0) translate(4 40)">
<title>ipc::transport::struc::Heap_fixed_builder::payload_msg_builder</title>
<polygon fill="white" stroke="transparent" points="-4,4 -4,-40 268,-40 268,4 -4,4"/>
<!-- Node1 -->
<g id="node1" class="node">
<title>Node1</title>
<g id="a_node1"><a xlink:title="Implements concept API.">
<polygon fill="#bfbfbf" stroke="black" points="155,-0.5 155,-35.5 264,-35.5 264,-0.5 155,-0.5"/>
<text text-anchor="start" x="163" y="-25.1" font-family="Helvetica,sans-Serif" font-size="8.00">ipc::transport::struc</text>
<text text-anchor="start" x="163" y="-16.1" font-family="Helvetica,sans-Serif" font-size="8.00">::Heap_fixed_builder</text>
<text text-anchor="middle" x="209.5" y="-7.1" font-family="Helvetica,sans-Serif" font-size="8.00">::payload_msg_builder</text>
</a>
</g>
</g>
<!-- Node2 -->
<g id="node2" class="node">
<title>Node2</title>
<g id="a_node2"><a xlink:href="classipc_1_1transport_1_1struc_1_1sync__io_1_1Channel.html#a8fc989561ed62604dd50f942655daea0" target="_top" xlink:title="Essentially a much&#45;cut&#45;down version of send_core() that specifically sends, along all Owned_channel p...">
<polygon fill="white" stroke="black" points="0,-0.5 0,-35.5 119,-35.5 119,-0.5 0,-0.5"/>
<text text-anchor="start" x="8" y="-25.1" font-family="Helvetica,sans-Serif" font-size="8.00">ipc::transport::struc</text>
<text text-anchor="start" x="8" y="-16.1" font-family="Helvetica,sans-Serif" font-size="8.00">::sync_io::Channel::send</text>
<text text-anchor="middle" x="59.5" y="-7.1" font-family="Helvetica,sans-Serif" font-size="8.00">_proto_neg</text>
</a>
</g>
</g>
<!-- Node1&#45;&gt;Node2 -->
<g id="edge1" class="edge">
<title>Node1&#45;&gt;Node2</title>
<path fill="none" stroke="midnightblue" d="M144.47,-18C136.02,-18 127.4,-18 119.06,-18"/>
<polygon fill="midnightblue" stroke="midnightblue" points="144.65,-21.5 154.65,-18 144.65,-14.5 144.65,-21.5"/>
</g>
</g>
</svg>
