<?xml version="1.0" encoding="UTF-8" standalone="no"?>
<!DOCTYPE svg PUBLIC "-//W3C//DTD SVG 1.1//EN"
 "http://www.w3.org/Graphics/SVG/1.1/DTD/svg11.dtd">
<!-- Generated by graphviz version 2.43.0 (0)
 -->
<!-- Title: ipc::transport::sync_io::Blob_stream_mq_receiver_impl::nickname Pages: 1 -->
<svg width="349pt" height="98pt"
 viewBox="0.00 0.00 349.00 98.00" xmlns="http://www.w3.org/2000/svg" xmlns:xlink="http://www.w3.org/1999/xlink">
<g id="graph0" class="graph" transform="scale(1 1) rotate(0) translate(4 94)">
<title>ipc::transport::sync_io::Blob_stream_mq_receiver_impl::nickname</title>
<polygon fill="white" stroke="transparent" points="-4,4 -4,-94 345,-94 345,4 -4,4"/>
<!-- Node1 -->
<g id="node1" class="node">
<title>Node1</title>
<g id="a_node1"><a xlink:title="See Blob_stream_mq_receiver counterpart, but assuming PEER state.">
<polygon fill="#bfbfbf" stroke="black" points="204,-27.5 204,-62.5 341,-62.5 341,-27.5 204,-27.5"/>
<text text-anchor="start" x="212" y="-52.1" font-family="Helvetica,sans-Serif" font-size="8.00">ipc::transport::sync</text>
<text text-anchor="start" x="212" y="-43.1" font-family="Helvetica,sans-Serif" font-size="8.00">_io::Blob_stream_mq_receiver</text>
<text text-anchor="middle" x="272.5" y="-34.1" font-family="Helvetica,sans-Serif" font-size="8.00">_impl::nickname</text>
</a>
</g>
</g>
<!-- Node2 -->
<g id="node2" class="node">
<title>Node2</title>
<g id="a_node2"><a xlink:href="classipc_1_1transport_1_1sync__io_1_1Blob__stream__mq__receiver__impl.html#a3e1c13dc986985621ab05de16f9e811c" target="_top" xlink:title="See Blob_stream_mq_receiver counterpart.">
<polygon fill="white" stroke="black" points="0,-54.5 0,-89.5 168,-89.5 168,-54.5 0,-54.5"/>
<text text-anchor="start" x="8" y="-79.1" font-family="Helvetica,sans-Serif" font-size="8.00">ipc::transport::sync</text>
<text text-anchor="start" x="8" y="-70.1" font-family="Helvetica,sans-Serif" font-size="8.00">_io::Blob_stream_mq_receiver</text>
<text text-anchor="middle" x="84" y="-61.1" font-family="Helvetica,sans-Serif" font-size="8.00">_impl::Blob_stream_mq_receiver_impl</text>
</a>
</g>
</g>
<!-- Node1&#45;&gt;Node2 -->
<g id="edge1" class="edge">
<title>Node1&#45;&gt;Node2</title>
<path fill="none" stroke="midnightblue" d="M193.75,-56.26C185.33,-57.47 176.75,-58.72 168.27,-59.94"/>
<polygon fill="midnightblue" stroke="midnightblue" points="194.51,-59.68 203.91,-54.79 193.51,-52.75 194.51,-59.68"/>
</g>
<!-- Node3 -->
<g id="node3" class="node">
<title>Node3</title>
<g id="a_node3"><a xlink:href="classipc_1_1transport_1_1sync__io_1_1Blob__stream__mq__receiver__impl.html#a4efecbe0fe86aa7d61b86f9c5edf20b4" target="_top" xlink:title="Prints string representation of the given Blob_stream_mq_receiver_impl to the given ostream.">
<polygon fill="white" stroke="black" points="15.5,-0.5 15.5,-35.5 152.5,-35.5 152.5,-0.5 15.5,-0.5"/>
<text text-anchor="start" x="23.5" y="-25.1" font-family="Helvetica,sans-Serif" font-size="8.00">ipc::transport::sync</text>
<text text-anchor="start" x="23.5" y="-16.1" font-family="Helvetica,sans-Serif" font-size="8.00">_io::Blob_stream_mq_receiver</text>
<text text-anchor="middle" x="84" y="-7.1" font-family="Helvetica,sans-Serif" font-size="8.00">_impl::operator&lt;&lt;</text>
</a>
</g>
</g>
<!-- Node1&#45;&gt;Node3 -->
<g id="edge2" class="edge">
<title>Node1&#45;&gt;Node3</title>
<path fill="none" stroke="midnightblue" d="M193.61,-33.72C180.02,-31.76 165.97,-29.72 152.68,-27.8"/>
<polygon fill="midnightblue" stroke="midnightblue" points="193.51,-37.25 203.91,-35.21 194.51,-30.32 193.51,-37.25"/>
</g>
</g>
</svg>
