<?xml version="1.0" encoding="UTF-8" standalone="no"?>
<!DOCTYPE svg PUBLIC "-//W3C//DTD SVG 1.1//EN"
 "http://www.w3.org/Graphics/SVG/1.1/DTD/svg11.dtd">
<!-- Generated by graphviz version 2.43.0 (0)
 -->
<!-- Title: ipc::transport::sync_io::Native_socket_stream::async_receive_native_handle_fwd Pages: 1 -->
<svg width="347pt" height="44pt"
 viewBox="0.00 0.00 347.00 44.00" xmlns="http://www.w3.org/2000/svg" xmlns:xlink="http://www.w3.org/1999/xlink">
<g id="graph0" class="graph" transform="scale(1 1) rotate(0) translate(4 40)">
<title>ipc::transport::sync_io::Native_socket_stream::async_receive_native_handle_fwd</title>
<polygon fill="white" stroke="transparent" points="-4,4 -4,-40 343,-40 343,4 -4,4"/>
<!-- Node1 -->
<g id="node1" class="node">
<title>Node1</title>
<g id="a_node1"><a xlink:title="Template&#45;free version of async_receive_native_handle() as required by pImpl idiom.">
<polygon fill="#bfbfbf" stroke="black" points="178,-0.5 178,-35.5 339,-35.5 339,-0.5 178,-0.5"/>
<text text-anchor="start" x="186" y="-25.1" font-family="Helvetica,sans-Serif" font-size="8.00">ipc::transport::sync</text>
<text text-anchor="start" x="186" y="-16.1" font-family="Helvetica,sans-Serif" font-size="8.00">_io::Native_socket_stream</text>
<text text-anchor="middle" x="258.5" y="-7.1" font-family="Helvetica,sans-Serif" font-size="8.00">::async_receive_native_handle_fwd</text>
</a>
</g>
</g>
<!-- Node2 -->
<g id="node2" class="node">
<title>Node2</title>
<g id="a_node2"><a xlink:href="classipc_1_1transport_1_1sync__io_1_1Native__socket__stream.html#a04effad6ce75fc5c8e6cbee5a26b73e8" target="_top" xlink:title="Implements Native_handle_receiver API per contract.">
<polygon fill="white" stroke="black" points="0,-0.5 0,-35.5 142,-35.5 142,-0.5 0,-0.5"/>
<text text-anchor="start" x="8" y="-25.1" font-family="Helvetica,sans-Serif" font-size="8.00">ipc::transport::sync</text>
<text text-anchor="start" x="8" y="-16.1" font-family="Helvetica,sans-Serif" font-size="8.00">_io::Native_socket_stream</text>
<text text-anchor="middle" x="71" y="-7.1" font-family="Helvetica,sans-Serif" font-size="8.00">::async_receive_native_handle</text>
</a>
</g>
</g>
<!-- Node1&#45;&gt;Node2 -->
<g id="edge1" class="edge">
<title>Node1&#45;&gt;Node2</title>
<path fill="none" stroke="midnightblue" d="M167.68,-18C159.07,-18 150.42,-18 142.04,-18"/>
<polygon fill="midnightblue" stroke="midnightblue" points="167.75,-21.5 177.75,-18 167.75,-14.5 167.75,-21.5"/>
</g>
</g>
</svg>
