<?xml version="1.0" encoding="UTF-8" standalone="no"?>
<!DOCTYPE svg PUBLIC "-//W3C//DTD SVG 1.1//EN"
 "http://www.w3.org/Graphics/SVG/1.1/DTD/svg11.dtd">
<!-- Generated by graphviz version 2.43.0 (0)
 -->
<!-- Title: ipc::transport::struc::Msg_in_impl::internal_msg_body_root Pages: 1 -->
<svg width="285pt" height="44pt"
 viewBox="0.00 0.00 285.00 44.00" xmlns="http://www.w3.org/2000/svg" xmlns:xlink="http://www.w3.org/1999/xlink">
<g id="graph0" class="graph" transform="scale(1 1) rotate(0) translate(4 40)">
<title>ipc::transport::struc::Msg_in_impl::internal_msg_body_root</title>
<polygon fill="white" stroke="transparent" points="-4,4 -4,-40 281,-40 281,4 -4,4"/>
<!-- Node1 -->
<g id="node1" class="node">
<title>Node1</title>
<g id="a_node1"><a xlink:title="See super&#45;class.">
<polygon fill="#bfbfbf" stroke="black" points="168,-0.5 168,-35.5 277,-35.5 277,-0.5 168,-0.5"/>
<text text-anchor="start" x="176" y="-25.1" font-family="Helvetica,sans-Serif" font-size="8.00">ipc::transport::struc</text>
<text text-anchor="start" x="176" y="-16.1" font-family="Helvetica,sans-Serif" font-size="8.00">::Msg_in_impl::internal</text>
<text text-anchor="middle" x="222.5" y="-7.1" font-family="Helvetica,sans-Serif" font-size="8.00">_msg_body_root</text>
</a>
</g>
</g>
<!-- Node2 -->
<g id="node2" class="node">
<title>Node2</title>
<g id="a_node2"><a xlink:href="classipc_1_1transport_1_1struc_1_1sync__io_1_1Channel.html#ab8bfe06a0aecb261dd11624c4ddec518" target="_top" xlink:title="Helper from rcv_struct_new_msg_in(): the case where the in&#45;message has a sentinel message ID value,...">
<polygon fill="white" stroke="black" points="0,-0.5 0,-35.5 132,-35.5 132,-0.5 0,-0.5"/>
<text text-anchor="start" x="8" y="-25.1" font-family="Helvetica,sans-Serif" font-size="8.00">ipc::transport::struc</text>
<text text-anchor="start" x="8" y="-16.1" font-family="Helvetica,sans-Serif" font-size="8.00">::sync_io::Channel::rcv</text>
<text text-anchor="middle" x="66" y="-7.1" font-family="Helvetica,sans-Serif" font-size="8.00">_struct_new_internal_msg_in</text>
</a>
</g>
</g>
<!-- Node1&#45;&gt;Node2 -->
<g id="edge1" class="edge">
<title>Node1&#45;&gt;Node2</title>
<path fill="none" stroke="midnightblue" d="M157.75,-18C149.33,-18 140.68,-18 132.22,-18"/>
<polygon fill="midnightblue" stroke="midnightblue" points="157.9,-21.5 167.9,-18 157.9,-14.5 157.9,-21.5"/>
</g>
</g>
</svg>
