<?xml version="1.0" encoding="UTF-8" standalone="no"?>
<!DOCTYPE svg PUBLIC "-//W3C//DTD SVG 1.1//EN"
 "http://www.w3.org/Graphics/SVG/1.1/DTD/svg11.dtd">
<!-- Generated by graphviz version 2.43.0 (0)
 -->
<!-- Title: ipc::session::shm::arena_lend::jemalloc::error::Category Pages: 1 -->
<svg width="111pt" height="107pt"
 viewBox="0.00 0.00 111.00 107.00" xmlns="http://www.w3.org/2000/svg" xmlns:xlink="http://www.w3.org/1999/xlink">
<g id="graph0" class="graph" transform="scale(1 1) rotate(0) translate(4 103)">
<title>ipc::session::shm::arena_lend::jemalloc::error::Category</title>
<polygon fill="white" stroke="transparent" points="-4,4 -4,-103 107,-103 107,4 -4,4"/>
<!-- Node1 -->
<g id="node1" class="node">
<title>Node1</title>
<g id="a_node1"><a xlink:title="The boost.system category for errors returned by the ipc::session module.">
<polygon fill="#bfbfbf" stroke="black" points="0,-0.5 0,-35.5 103,-35.5 103,-0.5 0,-0.5"/>
<text text-anchor="start" x="8" y="-25.1" font-family="Helvetica,sans-Serif" font-size="8.00">ipc::session::shm::</text>
<text text-anchor="start" x="8" y="-16.1" font-family="Helvetica,sans-Serif" font-size="8.00">arena_lend::jemalloc</text>
<text text-anchor="middle" x="51.5" y="-7.1" font-family="Helvetica,sans-Serif" font-size="8.00">::error::Category</text>
</a>
</g>
</g>
<!-- Node2 -->
<g id="node2" class="node">
<title>Node2</title>
<g id="a_node2"><a xlink:href="classboost_1_1system_1_1error__category.html" target="_top" xlink:title=" ">
<polygon fill="white" stroke="#bfbfbf" points="1,-72.5 1,-98.5 102,-98.5 102,-72.5 1,-72.5"/>
<text text-anchor="start" x="9" y="-88.1" font-family="Helvetica,sans-Serif" font-size="8.00">boost::system::error</text>
<text text-anchor="middle" x="51.5" y="-79.1" font-family="Helvetica,sans-Serif" font-size="8.00">_category</text>
</a>
</g>
</g>
<!-- Node2&#45;&gt;Node1 -->
<g id="edge1" class="edge">
<title>Node2&#45;&gt;Node1</title>
<path fill="none" stroke="midnightblue" d="M51.5,-62.25C51.5,-53.53 51.5,-43.71 51.5,-35.62"/>
<polygon fill="midnightblue" stroke="midnightblue" points="48,-62.49 51.5,-72.49 55,-62.49 48,-62.49"/>
</g>
</g>
</svg>
