<?xml version="1.0" encoding="UTF-8" standalone="no"?>
<!DOCTYPE svg PUBLIC "-//W3C//DTD SVG 1.1//EN"
 "http://www.w3.org/Graphics/SVG/1.1/DTD/svg11.dtd">
<!-- Generated by graphviz version 2.43.0 (0)
 -->
<!-- Title: ipc::util::Process_credentials::process_invoked_as Pages: 1 -->
<svg width="264pt" height="62pt"
 viewBox="0.00 0.00 264.00 62.00" xmlns="http://www.w3.org/2000/svg" xmlns:xlink="http://www.w3.org/1999/xlink">
<g id="graph0" class="graph" transform="scale(1 1) rotate(0) translate(4 58)">
<title>ipc::util::Process_credentials::process_invoked_as</title>
<polygon fill="white" stroke="transparent" points="-4,4 -4,-58 260,-58 260,4 -4,4"/>
<!-- Node1 -->
<g id="node1" class="node">
<title>Node1</title>
<g id="a_node1"><a xlink:title="Obtains, from the OS, information as to the binary name via which process process_id() was started,...">
<polygon fill="#bfbfbf" stroke="black" points="0,-0.5 0,-35.5 104,-35.5 104,-0.5 0,-0.5"/>
<text text-anchor="start" x="8" y="-25.1" font-family="Helvetica,sans-Serif" font-size="8.00">ipc::util::Process</text>
<text text-anchor="start" x="8" y="-16.1" font-family="Helvetica,sans-Serif" font-size="8.00">_credentials::process</text>
<text text-anchor="middle" x="52" y="-7.1" font-family="Helvetica,sans-Serif" font-size="8.00">_invoked_as</text>
</a>
</g>
</g>
<!-- Node1&#45;&gt;Node1 -->
<g id="edge2" class="edge">
<title>Node1&#45;&gt;Node1</title>
<path fill="none" stroke="midnightblue" d="M25.75,-35.78C21.29,-45.31 30.04,-54 52,-54 65.38,-54 73.86,-50.77 77.43,-46.1"/>
<polygon fill="midnightblue" stroke="midnightblue" points="80.94,-46.03 78.25,-35.78 73.96,-45.47 80.94,-46.03"/>
</g>
<!-- Node2 -->
<g id="node2" class="node">
<title>Node2</title>
<g id="a_node2"><a xlink:href="classipc_1_1util_1_1Process__credentials.html#a181288d97adcadedf187d08c71045854" target="_top" xlink:title="The process ID (PID).">
<polygon fill="white" stroke="black" points="140,-5 140,-31 256,-31 256,-5 140,-5"/>
<text text-anchor="start" x="148" y="-20.6" font-family="Helvetica,sans-Serif" font-size="8.00">ipc::util::Process</text>
<text text-anchor="middle" x="198" y="-11.6" font-family="Helvetica,sans-Serif" font-size="8.00">_credentials::process_id</text>
</a>
</g>
</g>
<!-- Node1&#45;&gt;Node2 -->
<g id="edge1" class="edge">
<title>Node1&#45;&gt;Node2</title>
<path fill="none" stroke="midnightblue" d="M104.17,-18C112.34,-18 120.89,-18 129.36,-18"/>
<polygon fill="midnightblue" stroke="midnightblue" points="129.62,-21.5 139.62,-18 129.62,-14.5 129.62,-21.5"/>
</g>
</g>
</svg>
