<?xml version="1.0" encoding="UTF-8" standalone="no"?>
<!DOCTYPE svg PUBLIC "-//W3C//DTD SVG 1.1//EN"
 "http://www.w3.org/Graphics/SVG/1.1/DTD/svg11.dtd">
<!-- Generated by graphviz version 2.43.0 (0)
 -->
<!-- Title: ipc::shm::classic::Pool_arena::is_addr_in_arena Pages: 1 -->
<svg width="432pt" height="90pt"
 viewBox="0.00 0.00 432.00 89.50" xmlns="http://www.w3.org/2000/svg" xmlns:xlink="http://www.w3.org/1999/xlink">
<g id="graph0" class="graph" transform="scale(1 1) rotate(0) translate(4 85.5)">
<title>ipc::shm::classic::Pool_arena::is_addr_in_arena</title>
<polygon fill="white" stroke="transparent" points="-4,4 -4,-85.5 428,-85.5 428,4 -4,4"/>
<!-- Node1 -->
<g id="node1" class="node">
<title>Node1</title>
<g id="a_node1"><a xlink:title="Returns true if and only if the byte at p is within the bounds of the pool accessed by *this.">
<polygon fill="#bfbfbf" stroke="black" points="327,-21 327,-56 424,-56 424,-21 327,-21"/>
<text text-anchor="start" x="335" y="-45.6" font-family="Helvetica,sans-Serif" font-size="8.00">ipc::shm::classic::</text>
<text text-anchor="start" x="335" y="-36.6" font-family="Helvetica,sans-Serif" font-size="8.00">Pool_arena::is_addr</text>
<text text-anchor="middle" x="375.5" y="-27.6" font-family="Helvetica,sans-Serif" font-size="8.00">_in_arena</text>
</a>
</g>
</g>
<!-- Node2 -->
<g id="node2" class="node">
<title>Node2</title>
<g id="a_node2"><a xlink:href="classipc_1_1shm_1_1classic_1_1Pool__arena.html#ad2d54cc87b56613bba32aabd2c52ef13" target="_top" xlink:title="Returns true if and only if handle came from either this&#45;&gt;construct&lt;T&gt;() or this&#45;&gt;borrow_object&lt;T&gt;().">
<polygon fill="white" stroke="black" points="172.5,-46 172.5,-81 279.5,-81 279.5,-46 172.5,-46"/>
<text text-anchor="start" x="180.5" y="-70.6" font-family="Helvetica,sans-Serif" font-size="8.00">ipc::shm::classic::</text>
<text text-anchor="start" x="180.5" y="-61.6" font-family="Helvetica,sans-Serif" font-size="8.00">Pool_arena::is_handle</text>
<text text-anchor="middle" x="226" y="-52.6" font-family="Helvetica,sans-Serif" font-size="8.00">_in_arena</text>
</a>
</g>
</g>
<!-- Node1&#45;&gt;Node2 -->
<g id="edge1" class="edge">
<title>Node1&#45;&gt;Node2</title>
<path fill="none" stroke="midnightblue" d="M316.58,-48.32C304.44,-50.38 291.69,-52.54 279.75,-54.56"/>
<polygon fill="midnightblue" stroke="midnightblue" points="317.34,-51.74 326.61,-46.62 316.17,-44.84 317.34,-51.74"/>
</g>
<!-- Node3 -->
<g id="node3" class="node">
<title>Node3</title>
<g id="a_node3"><a xlink:href="classipc_1_1shm_1_1classic_1_1Pool__arena.html#a45359fe5cbb7ec72a117812c20c35400" target="_top" xlink:title="Returns true if and only if all sizeof(T) bytes at address obj are within the bounds of the pool acce...">
<polygon fill="white" stroke="black" points="161,-0.5 161,-26.5 291,-26.5 291,-0.5 161,-0.5"/>
<text text-anchor="start" x="169" y="-16.1" font-family="Helvetica,sans-Serif" font-size="8.00">ipc::shm::classic::</text>
<text text-anchor="middle" x="226" y="-7.1" font-family="Helvetica,sans-Serif" font-size="8.00">Pool_arena::is_obj_in_arena</text>
</a>
</g>
</g>
<!-- Node1&#45;&gt;Node3 -->
<g id="edge2" class="edge">
<title>Node1&#45;&gt;Node3</title>
<path fill="none" stroke="midnightblue" d="M316.56,-28.68C308.18,-27.26 299.51,-25.79 291.02,-24.35"/>
<polygon fill="midnightblue" stroke="midnightblue" points="316.17,-32.16 326.61,-30.38 317.34,-25.26 316.17,-32.16"/>
</g>
<!-- Node4 -->
<g id="node4" class="node">
<title>Node4</title>
<g id="a_node4"><a xlink:href="classipc_1_1shm_1_1classic_1_1Pool__arena.html#ad2f2b767d7da42e7e57592cc029386e5" target="_top" xlink:title="Completes the cross&#45;process operation begun by lend_object() that returned serialization; to be invok...">
<polygon fill="white" stroke="black" points="0,-0.5 0,-26.5 125,-26.5 125,-0.5 0,-0.5"/>
<text text-anchor="start" x="8" y="-16.1" font-family="Helvetica,sans-Serif" font-size="8.00">ipc::shm::classic::</text>
<text text-anchor="middle" x="62.5" y="-7.1" font-family="Helvetica,sans-Serif" font-size="8.00">Pool_arena::borrow_object</text>
</a>
</g>
</g>
<!-- Node3&#45;&gt;Node4 -->
<g id="edge3" class="edge">
<title>Node3&#45;&gt;Node4</title>
<path fill="none" stroke="midnightblue" d="M150.47,-13.5C142.01,-13.5 133.47,-13.5 125.21,-13.5"/>
<polygon fill="midnightblue" stroke="midnightblue" points="150.71,-17 160.71,-13.5 150.71,-10 150.71,-17"/>
</g>
</g>
</svg>
