<?xml version="1.0" encoding="UTF-8" standalone="no"?>
<!DOCTYPE svg PUBLIC "-//W3C//DTD SVG 1.1//EN"
 "http://www.w3.org/Graphics/SVG/1.1/DTD/svg11.dtd">
<!-- Generated by graphviz version 2.43.0 (0)
 -->
<!-- Title: ipc::session::Session_server_impl::Session_server_impl Pages: 1 -->
<svg width="418pt" height="360pt"
 viewBox="0.00 0.00 418.00 360.00" xmlns="http://www.w3.org/2000/svg" xmlns:xlink="http://www.w3.org/1999/xlink">
<g id="graph0" class="graph" transform="scale(1 1) rotate(0) translate(4 356)">
<title>ipc::session::Session_server_impl::Session_server_impl</title>
<polygon fill="white" stroke="transparent" points="-4,4 -4,-356 414,-356 414,4 -4,4"/>
<!-- Node1 -->
<g id="node1" class="node">
<title>Node1</title>
<g id="a_node1"><a xlink:title="See Session_server ctor; it does that.">
<polygon fill="#bfbfbf" stroke="black" points="0,-167 0,-202 105,-202 105,-167 0,-167"/>
<text text-anchor="start" x="8" y="-191.6" font-family="Helvetica,sans-Serif" font-size="8.00">ipc::session::Session</text>
<text text-anchor="start" x="8" y="-182.6" font-family="Helvetica,sans-Serif" font-size="8.00">_server_impl::Session</text>
<text text-anchor="middle" x="52.5" y="-173.6" font-family="Helvetica,sans-Serif" font-size="8.00">_server_impl</text>
</a>
</g>
</g>
<!-- Node2 -->
<g id="node2" class="node">
<title>Node2</title>
<g id="a_node2"><a xlink:href="classipc_1_1session_1_1Server__session__dtl.html#ae91b835b0f82f071d695f9ae62ad9174" target="_top" xlink:title="Provides const access to Session_base super&#45;object.">
<polygon fill="white" stroke="black" points="153.5,-325.5 153.5,-351.5 251.5,-351.5 251.5,-325.5 153.5,-325.5"/>
<text text-anchor="start" x="161.5" y="-341.1" font-family="Helvetica,sans-Serif" font-size="8.00">ipc::session::Server</text>
<text text-anchor="middle" x="202.5" y="-332.1" font-family="Helvetica,sans-Serif" font-size="8.00">_session_dtl::base</text>
</a>
</g>
</g>
<!-- Node1&#45;&gt;Node2 -->
<g id="edge1" class="edge">
<title>Node1&#45;&gt;Node2</title>
<path fill="none" stroke="midnightblue" d="M61.03,-202.32C73.66,-230.19 101.64,-284.15 141,-315.5 143.38,-317.4 145.94,-319.15 148.61,-320.77"/>
<polygon fill="midnightblue" stroke="midnightblue" points="146.96,-323.86 157.43,-325.5 150.27,-317.69 146.96,-323.86"/>
</g>
<!-- Node3 -->
<g id="node3" class="node">
<title>Node3</title>
<g id="a_node3"><a xlink:href="namespaceipc_1_1session.html#a5216d618bb573e68276d2933ce3f4010" target="_top" xlink:title="Return the prefix common to all calls to either build_conventional_shared_name() overload with the ar...">
<polygon fill="white" stroke="black" points="149.5,-271 149.5,-306 255.5,-306 255.5,-271 149.5,-271"/>
<text text-anchor="start" x="157.5" y="-295.6" font-family="Helvetica,sans-Serif" font-size="8.00">ipc::session::build</text>
<text text-anchor="start" x="157.5" y="-286.6" font-family="Helvetica,sans-Serif" font-size="8.00">_conventional_shared</text>
<text text-anchor="middle" x="202.5" y="-277.6" font-family="Helvetica,sans-Serif" font-size="8.00">_name_prefix</text>
</a>
</g>
</g>
<!-- Node1&#45;&gt;Node3 -->
<g id="edge2" class="edge">
<title>Node1&#45;&gt;Node3</title>
<path fill="none" stroke="midnightblue" d="M70.32,-202.12C87.07,-218.95 114.1,-244.23 141,-261.5 143.45,-263.07 146.01,-264.6 148.63,-266.07"/>
<polygon fill="midnightblue" stroke="midnightblue" points="147.23,-269.29 157.7,-270.86 150.49,-263.1 147.23,-269.29"/>
</g>
<!-- Node5 -->
<g id="node5" class="node">
<title>Node5</title>
<g id="a_node5"><a xlink:href="classipc_1_1util_1_1Shared__name.html#a48f20b7b54490aa10dc64081d34c55b2" target="_top" xlink:title="Copy&#45;constructs from a char&#45;sequence container (including string, util::String_view,...">
<polygon fill="white" stroke="black" points="141,-235 141,-252 264,-252 264,-235 141,-235"/>
<text text-anchor="middle" x="202.5" y="-241.6" font-family="Helvetica,sans-Serif" font-size="8.00">ipc::util::Shared_name::ct</text>
</a>
</g>
</g>
<!-- Node1&#45;&gt;Node5 -->
<g id="edge4" class="edge">
<title>Node1&#45;&gt;Node5</title>
<path fill="none" stroke="midnightblue" d="M87.9,-202.07C103.82,-209.82 123.13,-218.7 141,-225.5 146.98,-227.78 153.38,-229.95 159.7,-231.95"/>
<polygon fill="midnightblue" stroke="midnightblue" points="158.9,-235.37 169.49,-234.94 160.95,-228.67 158.9,-235.37"/>
</g>
<!-- Node6 -->
<g id="node6" class="node">
<title>Node6</title>
<g id="a_node6"><a xlink:href="namespaceipc_1_1session.html#a0eac87b284d50832334d819a8877cbaa" target="_top" xlink:title="Utility, used internally but exposed in public API in case it is of general use, that checks that the...">
<polygon fill="white" stroke="black" points="144.5,-171.5 144.5,-197.5 260.5,-197.5 260.5,-171.5 144.5,-171.5"/>
<text text-anchor="start" x="152.5" y="-187.1" font-family="Helvetica,sans-Serif" font-size="8.00">ipc::session::ensure</text>
<text text-anchor="middle" x="202.5" y="-178.1" font-family="Helvetica,sans-Serif" font-size="8.00">_resource_owner_is_app</text>
</a>
</g>
</g>
<!-- Node1&#45;&gt;Node6 -->
<g id="edge5" class="edge">
<title>Node1&#45;&gt;Node6</title>
<path fill="none" stroke="midnightblue" d="M105.26,-184.5C114.67,-184.5 124.6,-184.5 134.37,-184.5"/>
<polygon fill="midnightblue" stroke="midnightblue" points="134.46,-188 144.46,-184.5 134.46,-181 134.46,-188"/>
</g>
<!-- Node7 -->
<g id="node7" class="node">
<title>Node7</title>
<g id="a_node7"><a xlink:href="namespaceipc_1_1util.html#abd43da87aa17031604c7906757c07d46" target="_top" xlink:title="Internal (to ipc) utility that invokes the given function that invokes a boost.interprocess operation...">
<polygon fill="white" stroke="black" points="143,-108.5 143,-134.5 262,-134.5 262,-108.5 143,-108.5"/>
<text text-anchor="start" x="151" y="-124.1" font-family="Helvetica,sans-Serif" font-size="8.00">ipc::util::op_with</text>
<text text-anchor="middle" x="202.5" y="-115.1" font-family="Helvetica,sans-Serif" font-size="8.00">_possible_bipc_exception</text>
</a>
</g>
</g>
<!-- Node1&#45;&gt;Node7 -->
<g id="edge7" class="edge">
<title>Node1&#45;&gt;Node7</title>
<path fill="none" stroke="midnightblue" d="M94.73,-166.95C115.55,-158.09 140.71,-147.38 161.37,-138.58"/>
<polygon fill="midnightblue" stroke="midnightblue" points="162.99,-141.7 170.82,-134.56 160.25,-135.26 162.99,-141.7"/>
</g>
<!-- Node8 -->
<g id="node8" class="node">
<title>Node8</title>
<g id="a_node8"><a xlink:href="namespaceipc_1_1util.html#abbba79fcaee378f433e7ce3093e5c435" target="_top" xlink:title="Utility that sets the permissions of the given resource (at the supplied file system path) to specifi...">
<polygon fill="white" stroke="black" points="149.5,-45.5 149.5,-71.5 255.5,-71.5 255.5,-45.5 149.5,-45.5"/>
<text text-anchor="start" x="157.5" y="-61.1" font-family="Helvetica,sans-Serif" font-size="8.00">ipc::util::set_resource</text>
<text text-anchor="middle" x="202.5" y="-52.1" font-family="Helvetica,sans-Serif" font-size="8.00">_permissions</text>
</a>
</g>
</g>
<!-- Node1&#45;&gt;Node8 -->
<g id="edge9" class="edge">
<title>Node1&#45;&gt;Node8</title>
<path fill="none" stroke="midnightblue" d="M69.78,-166.96C86.77,-149.1 114.56,-121.03 141,-99.5 150.59,-91.69 161.65,-83.89 171.66,-77.22"/>
<polygon fill="midnightblue" stroke="midnightblue" points="173.68,-80.08 180.13,-71.67 169.85,-74.22 173.68,-80.08"/>
</g>
<!-- Node9 -->
<g id="node9" class="node">
<title>Node9</title>
<g id="a_node9"><a xlink:href="namespaceipc_1_1util.html#abda2ce5bcdbc26ca63d667b87818439c" target="_top" xlink:title="Maps general Permissions_level specifier to low&#45;level Permissions value, when the underlying resource...">
<polygon fill="white" stroke="black" points="141.5,-0.5 141.5,-26.5 263.5,-26.5 263.5,-0.5 141.5,-0.5"/>
<text text-anchor="start" x="149.5" y="-16.1" font-family="Helvetica,sans-Serif" font-size="8.00">ipc::util::shared_resource</text>
<text text-anchor="middle" x="202.5" y="-7.1" font-family="Helvetica,sans-Serif" font-size="8.00">_permissions</text>
</a>
</g>
</g>
<!-- Node1&#45;&gt;Node9 -->
<g id="edge11" class="edge">
<title>Node1&#45;&gt;Node9</title>
<path fill="none" stroke="midnightblue" d="M59.48,-166.86C70.72,-136.19 97.85,-72.85 141,-36.5 143.03,-34.79 145.2,-33.2 147.47,-31.72"/>
<polygon fill="midnightblue" stroke="midnightblue" points="149.62,-34.52 156.61,-26.56 146.18,-28.43 149.62,-34.52"/>
</g>
<!-- Node4 -->
<g id="node4" class="node">
<title>Node4</title>
<g id="a_node4"><a xlink:href="classipc_1_1util_1_1Shared__name.html#a861ea6c9ad6672e83bab5c7747b66f7b" target="_top" xlink:title="Returns true if and only if str().empty() == true.">
<polygon fill="white" stroke="black" points="300,-275.5 300,-301.5 410,-301.5 410,-275.5 300,-275.5"/>
<text text-anchor="start" x="308" y="-291.1" font-family="Helvetica,sans-Serif" font-size="8.00">ipc::util::Shared_name</text>
<text text-anchor="middle" x="355" y="-282.1" font-family="Helvetica,sans-Serif" font-size="8.00">::empty</text>
</a>
</g>
</g>
<!-- Node3&#45;&gt;Node4 -->
<g id="edge3" class="edge">
<title>Node3&#45;&gt;Node4</title>
<path fill="none" stroke="midnightblue" d="M255.72,-288.5C266.64,-288.5 278.27,-288.5 289.58,-288.5"/>
<polygon fill="midnightblue" stroke="midnightblue" points="289.83,-292 299.83,-288.5 289.83,-285 289.83,-292"/>
</g>
<!-- Node6&#45;&gt;Node6 -->
<g id="edge6" class="edge">
<title>Node6&#45;&gt;Node6</title>
<path fill="none" stroke="midnightblue" d="M177.12,-197.77C169.43,-206.96 177.89,-216 202.5,-216 217.5,-216 226.5,-212.64 229.5,-207.94"/>
<polygon fill="midnightblue" stroke="midnightblue" points="232.91,-207.1 227.88,-197.77 225.99,-208.2 232.91,-207.1"/>
</g>
<!-- Node7&#45;&gt;Node7 -->
<g id="edge8" class="edge">
<title>Node7&#45;&gt;Node7</title>
<path fill="none" stroke="midnightblue" d="M177.12,-134.77C169.43,-143.96 177.89,-153 202.5,-153 217.5,-153 226.5,-149.64 229.5,-144.94"/>
<polygon fill="midnightblue" stroke="midnightblue" points="232.91,-144.1 227.88,-134.77 225.99,-145.2 232.91,-144.1"/>
</g>
<!-- Node8&#45;&gt;Node8 -->
<g id="edge10" class="edge">
<title>Node8&#45;&gt;Node8</title>
<path fill="none" stroke="midnightblue" d="M177.12,-71.77C169.43,-80.96 177.89,-90 202.5,-90 217.5,-90 226.5,-86.64 229.5,-81.94"/>
<polygon fill="midnightblue" stroke="midnightblue" points="232.91,-81.1 227.88,-71.77 225.99,-82.2 232.91,-81.1"/>
</g>
</g>
</svg>
