<?xml version="1.0" encoding="UTF-8" standalone="no"?>
<!DOCTYPE svg PUBLIC "-//W3C//DTD SVG 1.1//EN"
 "http://www.w3.org/Graphics/SVG/1.1/DTD/svg11.dtd">
<!-- Generated by graphviz version 2.43.0 (0)
 -->
<!-- Title: ipc::transport::sync_io::Async_adapter_sender&lt; Core_t &gt; Pages: 1 -->
<svg width="232pt" height="98pt"
 viewBox="0.00 0.00 232.00 98.00" xmlns="http://www.w3.org/2000/svg" xmlns:xlink="http://www.w3.org/1999/xlink">
<g id="graph0" class="graph" transform="scale(1 1) rotate(0) translate(4 94)">
<title>ipc::transport::sync_io::Async_adapter_sender&lt; Core_t &gt;</title>
<polygon fill="white" stroke="transparent" points="-4,4 -4,-94 228,-94 228,4 -4,4"/>
<!-- Node1 -->
<g id="node1" class="node">
<title>Node1</title>
<g id="a_node1"><a xlink:title="Internal&#45;use type that adapts a given PEER&#45;state sync_io::Native_handle_sender or sync_io::Blob_sende...">
<polygon fill="#bfbfbf" stroke="black" points="50.5,-0.5 50.5,-35.5 176.5,-35.5 176.5,-0.5 50.5,-0.5"/>
<text text-anchor="start" x="58.5" y="-25.1" font-family="Helvetica,sans-Serif" font-size="8.00">ipc::transport::sync</text>
<text text-anchor="start" x="58.5" y="-16.1" font-family="Helvetica,sans-Serif" font-size="8.00">_io::Async_adapter_sender</text>
<text text-anchor="middle" x="113.5" y="-7.1" font-family="Helvetica,sans-Serif" font-size="8.00">&lt; Core_t &gt;</text>
</a>
</g>
</g>
<!-- Node2 -->
<g id="node2" class="node">
<title>Node2</title>
<g id="a_node2"><a xlink:title=" ">
<polygon fill="white" stroke="#bfbfbf" points="0,-72.5 0,-89.5 107,-89.5 107,-72.5 0,-72.5"/>
<text text-anchor="middle" x="53.5" y="-79.1" font-family="Helvetica,sans-Serif" font-size="8.00">flow::log::Log_context</text>
</a>
</g>
</g>
<!-- Node2&#45;&gt;Node1 -->
<g id="edge1" class="edge">
<title>Node2&#45;&gt;Node1</title>
<path fill="none" stroke="midnightblue" d="M68.35,-64.9C77.09,-56.02 88.16,-44.76 97.16,-35.62"/>
<polygon fill="midnightblue" stroke="midnightblue" points="65.62,-62.69 61.1,-72.27 70.61,-67.6 65.62,-62.69"/>
</g>
<!-- Node3 -->
<g id="node3" class="node">
<title>Node3</title>
<g id="a_node3"><a xlink:title=" ">
<polygon fill="white" stroke="#bfbfbf" points="125,-72.5 125,-89.5 224,-89.5 224,-72.5 125,-72.5"/>
<text text-anchor="middle" x="174.5" y="-79.1" font-family="Helvetica,sans-Serif" font-size="8.00">boost::noncopyable</text>
</a>
</g>
</g>
<!-- Node3&#45;&gt;Node1 -->
<g id="edge2" class="edge">
<title>Node3&#45;&gt;Node1</title>
<path fill="none" stroke="#8b1a1a" d="M159.68,-65.18C150.75,-56.25 139.35,-44.85 130.12,-35.62"/>
<polygon fill="#8b1a1a" stroke="#8b1a1a" points="157.23,-67.68 166.77,-72.27 162.18,-62.73 157.23,-67.68"/>
</g>
</g>
</svg>
