<?xml version="1.0" encoding="UTF-8" standalone="no"?>
<!DOCTYPE svg PUBLIC "-//W3C//DTD SVG 1.1//EN"
 "http://www.w3.org/Graphics/SVG/1.1/DTD/svg11.dtd">
<!-- Generated by graphviz version 2.43.0 (0)
 -->
<!-- Title: ipc::transport::struc::sync_io::Channel::check_unsendable Pages: 1 -->
<svg width="286pt" height="44pt"
 viewBox="0.00 0.00 286.00 44.00" xmlns="http://www.w3.org/2000/svg" xmlns:xlink="http://www.w3.org/1999/xlink">
<g id="graph0" class="graph" transform="scale(1 1) rotate(0) translate(4 40)">
<title>ipc::transport::struc::sync_io::Channel::check_unsendable</title>
<polygon fill="white" stroke="transparent" points="-4,4 -4,-40 282,-40 282,4 -4,4"/>
<!-- Node1 -->
<g id="node1" class="node">
<title>Node1</title>
<g id="a_node1"><a xlink:title="send() and async_request() helper that returns true if and only if msg contains a native handle,...">
<polygon fill="#bfbfbf" stroke="black" points="0,-0.5 0,-35.5 122,-35.5 122,-0.5 0,-0.5"/>
<text text-anchor="start" x="8" y="-25.1" font-family="Helvetica,sans-Serif" font-size="8.00">ipc::transport::struc</text>
<text text-anchor="start" x="8" y="-16.1" font-family="Helvetica,sans-Serif" font-size="8.00">::sync_io::Channel::check</text>
<text text-anchor="middle" x="61" y="-7.1" font-family="Helvetica,sans-Serif" font-size="8.00">_unsendable</text>
</a>
</g>
</g>
<!-- Node2 -->
<g id="node2" class="node">
<title>Node2</title>
<g id="a_node2"><a xlink:href="classipc_1_1transport_1_1struc_1_1Msg__out.html#ae033461f1404be60262033bafcfaccba" target="_top" xlink:title="Returns whatever was the last word according to store_native_handle_or_null().">
<polygon fill="white" stroke="black" points="158,-0.5 158,-35.5 278,-35.5 278,-0.5 158,-0.5"/>
<text text-anchor="start" x="166" y="-25.1" font-family="Helvetica,sans-Serif" font-size="8.00">ipc::transport::struc</text>
<text text-anchor="start" x="166" y="-16.1" font-family="Helvetica,sans-Serif" font-size="8.00">::Msg_out::native_handle</text>
<text text-anchor="middle" x="218" y="-7.1" font-family="Helvetica,sans-Serif" font-size="8.00">_or_null</text>
</a>
</g>
</g>
<!-- Node1&#45;&gt;Node2 -->
<g id="edge1" class="edge">
<title>Node1&#45;&gt;Node2</title>
<path fill="none" stroke="midnightblue" d="M122.37,-18C130.65,-18 139.2,-18 147.63,-18"/>
<polygon fill="midnightblue" stroke="midnightblue" points="147.81,-21.5 157.81,-18 147.81,-14.5 147.81,-21.5"/>
</g>
</g>
</svg>
