<?xml version="1.0" encoding="UTF-8" standalone="no"?>
<!DOCTYPE svg PUBLIC "-//W3C//DTD SVG 1.1//EN"
 "http://www.w3.org/Graphics/SVG/1.1/DTD/svg11.dtd">
<!-- Generated by graphviz version 2.43.0 (0)
 -->
<!-- Title: ipc::transport::struc::Msg_in_impl&lt; Message_body, Struct_reader_config &gt; Pages: 1 -->
<svg width="146pt" height="170pt"
 viewBox="0.00 0.00 146.00 170.00" xmlns="http://www.w3.org/2000/svg" xmlns:xlink="http://www.w3.org/1999/xlink">
<g id="graph0" class="graph" transform="scale(1 1) rotate(0) translate(4 166)">
<title>ipc::transport::struc::Msg_in_impl&lt; Message_body, Struct_reader_config &gt;</title>
<polygon fill="white" stroke="transparent" points="-4,4 -4,-166 142,-166 142,4 -4,4"/>
<!-- Node1 -->
<g id="node1" class="node">
<title>Node1</title>
<g id="a_node1"><a xlink:title="Internally used (data&#45;free) addendum on&#45;top of Msg_in which makes the protected API public instead.">
<polygon fill="#bfbfbf" stroke="black" points="0,-0.5 0,-35.5 138,-35.5 138,-0.5 0,-0.5"/>
<text text-anchor="start" x="8" y="-25.1" font-family="Helvetica,sans-Serif" font-size="8.00">ipc::transport::struc</text>
<text text-anchor="start" x="8" y="-16.1" font-family="Helvetica,sans-Serif" font-size="8.00">::Msg_in_impl&lt; Message</text>
<text text-anchor="middle" x="69" y="-7.1" font-family="Helvetica,sans-Serif" font-size="8.00">_body, Struct_reader_config &gt;</text>
</a>
</g>
</g>
<!-- Node2 -->
<g id="node2" class="node">
<title>Node2</title>
<g id="a_node2"><a xlink:href="classipc_1_1transport_1_1struc_1_1Msg__in.html" target="_top" xlink:title="A structured in&#45;message instance suitable as received and emittable (to user) by struc::Channel.">
<polygon fill="white" stroke="black" points="8,-72.5 8,-107.5 130,-107.5 130,-72.5 8,-72.5"/>
<text text-anchor="start" x="16" y="-97.1" font-family="Helvetica,sans-Serif" font-size="8.00">ipc::transport::struc</text>
<text text-anchor="start" x="16" y="-88.1" font-family="Helvetica,sans-Serif" font-size="8.00">::Msg_in&lt; Message_body,</text>
<text text-anchor="middle" x="69" y="-79.1" font-family="Helvetica,sans-Serif" font-size="8.00"> Struct_reader_config &gt;</text>
</a>
</g>
</g>
<!-- Node2&#45;&gt;Node1 -->
<g id="edge1" class="edge">
<title>Node2&#45;&gt;Node1</title>
<path fill="none" stroke="midnightblue" d="M69,-62.19C69,-53.37 69,-43.83 69,-35.96"/>
<polygon fill="midnightblue" stroke="midnightblue" points="65.5,-62.41 69,-72.41 72.5,-62.41 65.5,-62.41"/>
</g>
<!-- Node3 -->
<g id="node3" class="node">
<title>Node3</title>
<g id="a_node3"><a xlink:title=" ">
<polygon fill="white" stroke="#bfbfbf" points="19.5,-144.5 19.5,-161.5 118.5,-161.5 118.5,-144.5 19.5,-144.5"/>
<text text-anchor="middle" x="69" y="-151.1" font-family="Helvetica,sans-Serif" font-size="8.00">boost::noncopyable</text>
</a>
</g>
</g>
<!-- Node3&#45;&gt;Node2 -->
<g id="edge2" class="edge">
<title>Node3&#45;&gt;Node2</title>
<path fill="none" stroke="#8b1a1a" d="M69,-134.11C69,-125.74 69,-115.83 69,-107.62"/>
<polygon fill="#8b1a1a" stroke="#8b1a1a" points="65.5,-134.27 69,-144.27 72.5,-134.27 65.5,-134.27"/>
</g>
</g>
</svg>
