<?xml version="1.0" encoding="UTF-8" standalone="no"?>
<!DOCTYPE svg PUBLIC "-//W3C//DTD SVG 1.1//EN"
 "http://www.w3.org/Graphics/SVG/1.1/DTD/svg11.dtd">
<!-- Generated by graphviz version 2.43.0 (0)
 -->
<!-- Title: ipc::transport::Posix_mq_handle::Posix_mq_handle Pages: 1 -->
<svg width="465pt" height="197pt"
 viewBox="0.00 0.00 465.00 196.88" xmlns="http://www.w3.org/2000/svg" xmlns:xlink="http://www.w3.org/1999/xlink">
<g id="graph0" class="graph" transform="scale(1 1) rotate(0) translate(4 192.88)">
<title>ipc::transport::Posix_mq_handle::Posix_mq_handle</title>
<polygon fill="white" stroke="transparent" points="-4,4 -4,-192.88 461,-192.88 461,4 -4,4"/>
<!-- Node1 -->
<g id="node1" class="node">
<title>Node1</title>
<g id="a_node1"><a xlink:title="Implements Persistent_mq_handle API: Construct handle to existing named MQ.">
<polygon fill="#bfbfbf" stroke="black" points="0,-90.5 0,-125.5 109,-125.5 109,-90.5 0,-90.5"/>
<text text-anchor="start" x="8" y="-115.1" font-family="Helvetica,sans-Serif" font-size="8.00">ipc::transport::Posix</text>
<text text-anchor="start" x="8" y="-106.1" font-family="Helvetica,sans-Serif" font-size="8.00">_mq_handle::Posix_mq</text>
<text text-anchor="middle" x="54.5" y="-97.1" font-family="Helvetica,sans-Serif" font-size="8.00">_handle</text>
</a>
</g>
</g>
<!-- Node2 -->
<g id="node2" class="node">
<title>Node2</title>
<g id="a_node2"><a xlink:href="classipc_1_1transport_1_1Posix__mq__handle.html#a7d62af06a8cea2a821908384ee098125" target="_top" xlink:title="Implements Persistent_mq_handle API: Returns name equal to absolute_name passed to ctor.">
<polygon fill="white" stroke="black" points="323,-118 323,-144 457,-144 457,-118 323,-118"/>
<text text-anchor="start" x="331" y="-133.6" font-family="Helvetica,sans-Serif" font-size="8.00">ipc::transport::Posix</text>
<text text-anchor="middle" x="390" y="-124.6" font-family="Helvetica,sans-Serif" font-size="8.00">_mq_handle::absolute_name</text>
</a>
</g>
</g>
<!-- Node1&#45;&gt;Node2 -->
<g id="edge1" class="edge">
<title>Node1&#45;&gt;Node2</title>
<path fill="none" stroke="midnightblue" d="M71.65,-125.62C88.19,-142.26 115.6,-166.1 145,-176 204.81,-196.14 225.25,-189.02 287,-176 311.9,-170.75 338.13,-159.02 357.76,-148.86"/>
<polygon fill="midnightblue" stroke="midnightblue" points="359.64,-151.82 366.82,-144.03 356.35,-145.64 359.64,-151.82"/>
</g>
<!-- Node3 -->
<g id="node3" class="node">
<title>Node3</title>
<g id="a_node3"><a xlink:href="classipc_1_1transport_1_1Posix__mq__handle.html#a47378b13e9dce85a1e1021896c98c3cd" target="_top" xlink:title="Ctor helper that sets up m_epoll_hndl_snd and m_epoll_hndl_rcv.">
<polygon fill="white" stroke="black" points="156.5,-140 156.5,-166 275.5,-166 275.5,-140 156.5,-140"/>
<text text-anchor="start" x="164.5" y="-155.6" font-family="Helvetica,sans-Serif" font-size="8.00">ipc::transport::Posix</text>
<text text-anchor="middle" x="216" y="-146.6" font-family="Helvetica,sans-Serif" font-size="8.00">_mq_handle::epoll_setup</text>
</a>
</g>
</g>
<!-- Node1&#45;&gt;Node3 -->
<g id="edge2" class="edge">
<title>Node1&#45;&gt;Node3</title>
<path fill="none" stroke="midnightblue" d="M109.05,-123.11C125.09,-127.63 142.72,-132.61 158.92,-137.18"/>
<polygon fill="midnightblue" stroke="midnightblue" points="158.22,-140.62 168.79,-139.96 160.12,-133.88 158.22,-140.62"/>
</g>
<!-- Node4 -->
<g id="node4" class="node">
<title>Node4</title>
<g id="a_node4"><a xlink:href="structipc_1_1util_1_1Native__handle.html#a11bd62ce0a7bef4bdfe666201c26d4dc" target="_top" xlink:title="Returns true if and only if m_native_handle equals S_NULL_HANDLE.">
<polygon fill="white" stroke="black" points="160,-95 160,-121 272,-121 272,-95 160,-95"/>
<text text-anchor="start" x="168" y="-110.6" font-family="Helvetica,sans-Serif" font-size="8.00">ipc::util::Native_handle</text>
<text text-anchor="middle" x="216" y="-101.6" font-family="Helvetica,sans-Serif" font-size="8.00">::null</text>
</a>
</g>
</g>
<!-- Node1&#45;&gt;Node4 -->
<g id="edge3" class="edge">
<title>Node1&#45;&gt;Node4</title>
<path fill="none" stroke="midnightblue" d="M109.05,-108C122.11,-108 136.21,-108 149.75,-108"/>
<polygon fill="midnightblue" stroke="midnightblue" points="149.95,-111.5 159.95,-108 149.95,-104.5 149.95,-111.5"/>
</g>
<!-- Node5 -->
<g id="node5" class="node">
<title>Node5</title>
<g id="a_node5"><a xlink:href="classipc_1_1transport_1_1Posix__mq__handle.html#ac2cf0213ceaa0a8c621ee2c02c6fbec6" target="_top" xlink:title="Ctor helper that sets up m_interrupt* pipe items.">
<polygon fill="white" stroke="black" points="158,-50 158,-76 274,-76 274,-50 158,-50"/>
<text text-anchor="start" x="166" y="-65.6" font-family="Helvetica,sans-Serif" font-size="8.00">ipc::transport::Posix</text>
<text text-anchor="middle" x="216" y="-56.6" font-family="Helvetica,sans-Serif" font-size="8.00">_mq_handle::pipe_setup</text>
</a>
</g>
</g>
<!-- Node1&#45;&gt;Node5 -->
<g id="edge4" class="edge">
<title>Node1&#45;&gt;Node5</title>
<path fill="none" stroke="midnightblue" d="M109.05,-92.89C125.09,-88.37 142.72,-83.39 158.92,-78.82"/>
<polygon fill="midnightblue" stroke="midnightblue" points="160.12,-82.12 168.79,-76.04 158.22,-75.38 160.12,-82.12"/>
</g>
<!-- Node6 -->
<g id="node6" class="node">
<title>Node6</title>
<g id="a_node6"><a xlink:href="classipc_1_1transport_1_1Posix__mq__handle.html#ab68150c87931f6eb32d0908049e4dac6" target="_top" xlink:title="Sets m_mq to blocking or non&#45;blocking and returns true on success and clears *err_code; otherwise ret...">
<polygon fill="white" stroke="black" points="145,-5 145,-31 287,-31 287,-5 145,-5"/>
<text text-anchor="start" x="153" y="-20.6" font-family="Helvetica,sans-Serif" font-size="8.00">ipc::transport::Posix</text>
<text text-anchor="middle" x="216" y="-11.6" font-family="Helvetica,sans-Serif" font-size="8.00">_mq_handle::set_non_blocking</text>
</a>
</g>
</g>
<!-- Node1&#45;&gt;Node6 -->
<g id="edge6" class="edge">
<title>Node1&#45;&gt;Node6</title>
<path fill="none" stroke="midnightblue" d="M74.43,-90.49C91.69,-75.32 118.48,-53.71 145,-40 148.69,-38.09 152.58,-36.31 156.55,-34.66"/>
<polygon fill="midnightblue" stroke="midnightblue" points="157.86,-37.91 165.93,-31.03 155.34,-31.38 157.86,-37.91"/>
</g>
<!-- Node5&#45;&gt;Node2 -->
<g id="edge5" class="edge">
<title>Node5&#45;&gt;Node2</title>
<path fill="none" stroke="midnightblue" d="M259.06,-76.08C268.33,-79.16 278.04,-82.56 287,-86 308.8,-94.37 332.7,-104.84 351.88,-113.58"/>
<polygon fill="midnightblue" stroke="midnightblue" points="350.62,-116.85 361.17,-117.84 353.54,-110.48 350.62,-116.85"/>
</g>
<!-- Node7 -->
<g id="node7" class="node">
<title>Node7</title>
<g id="a_node7"><a xlink:href="classipc_1_1transport_1_1Posix__mq__handle.html#a244ee5da96550553edca346d77c2a825" target="_top" xlink:title="Helper that handles the result of an mq_*() call by logging WARNING(s) on error; setting *err_code on...">
<polygon fill="white" stroke="black" points="332,-0.5 332,-35.5 448,-35.5 448,-0.5 332,-0.5"/>
<text text-anchor="start" x="340" y="-25.1" font-family="Helvetica,sans-Serif" font-size="8.00">ipc::transport::Posix</text>
<text text-anchor="start" x="340" y="-16.1" font-family="Helvetica,sans-Serif" font-size="8.00">_mq_handle::handle_mq</text>
<text text-anchor="middle" x="390" y="-7.1" font-family="Helvetica,sans-Serif" font-size="8.00">_api_result</text>
</a>
</g>
</g>
<!-- Node6&#45;&gt;Node7 -->
<g id="edge7" class="edge">
<title>Node6&#45;&gt;Node7</title>
<path fill="none" stroke="midnightblue" d="M287.46,-18C298.75,-18 310.41,-18 321.63,-18"/>
<polygon fill="midnightblue" stroke="midnightblue" points="321.79,-21.5 331.79,-18 321.79,-14.5 321.79,-21.5"/>
</g>
</g>
</svg>
