<?xml version="1.0" encoding="UTF-8" standalone="no"?>
<!DOCTYPE svg PUBLIC "-//W3C//DTD SVG 1.1//EN"
 "http://www.w3.org/Graphics/SVG/1.1/DTD/svg11.dtd">
<!-- Generated by graphviz version 2.43.0 (0)
 -->
<!-- Title: ipc::transport::struc::Msg_out&lt; Message_body, Struct_builder_t &gt; Pages: 1 -->
<svg width="328pt" height="170pt"
 viewBox="0.00 0.00 328.00 170.00" xmlns="http://www.w3.org/2000/svg" xmlns:xlink="http://www.w3.org/1999/xlink">
<g id="graph0" class="graph" transform="scale(1 1) rotate(0) translate(4 166)">
<title>ipc::transport::struc::Msg_out&lt; Message_body, Struct_builder_t &gt;</title>
<polygon fill="white" stroke="transparent" points="-4,4 -4,-166 324,-166 324,4 -4,4"/>
<!-- Node1 -->
<g id="node1" class="node">
<title>Node1</title>
<g id="a_node1"><a xlink:title="A structured out&#45;message suitable to be sent via struc::Channel::send().">
<polygon fill="#bfbfbf" stroke="black" points="57,-0.5 57,-35.5 185,-35.5 185,-0.5 57,-0.5"/>
<text text-anchor="start" x="65" y="-25.1" font-family="Helvetica,sans-Serif" font-size="8.00">ipc::transport::struc</text>
<text text-anchor="start" x="65" y="-16.1" font-family="Helvetica,sans-Serif" font-size="8.00">::Msg_out&lt; Message_body,</text>
<text text-anchor="middle" x="121" y="-7.1" font-family="Helvetica,sans-Serif" font-size="8.00"> Struct_builder_t &gt;</text>
</a>
</g>
</g>
<!-- Node2 -->
<g id="node2" class="node">
<title>Node2</title>
<g id="a_node2"><a xlink:title=" ">
<polygon fill="white" stroke="#bfbfbf" points="0,-81.5 0,-98.5 80,-98.5 80,-81.5 0,-81.5"/>
<text text-anchor="middle" x="40" y="-88.1" font-family="Helvetica,sans-Serif" font-size="8.00">Struct_builder_t</text>
</a>
</g>
</g>
<!-- Node2&#45;&gt;Node1 -->
<g id="edge1" class="edge">
<title>Node2&#45;&gt;Node1</title>
<path fill="none" stroke="#9a32cd" stroke-dasharray="5,2" d="M53.55,-74.02C59.59,-67.62 66.92,-60.21 74,-54 81.19,-47.69 89.44,-41.3 96.99,-35.73"/>
<polygon fill="#9a32cd" stroke="#9a32cd" points="50.92,-71.7 46.71,-81.42 56.07,-76.45 50.92,-71.7"/>
<text text-anchor="middle" x="95.5" y="-56.6" font-family="Helvetica,sans-Serif" font-size="8.00"> m_builder</text>
</g>
<!-- Node3 -->
<g id="node3" class="node">
<title>Node3</title>
<g id="a_node3"><a xlink:title=" ">
<polygon fill="white" stroke="#bfbfbf" points="98.5,-81.5 98.5,-98.5 143.5,-98.5 143.5,-81.5 98.5,-81.5"/>
<text text-anchor="middle" x="121" y="-88.1" font-family="Helvetica,sans-Serif" font-size="8.00">Builder</text>
</a>
</g>
</g>
<!-- Node3&#45;&gt;Node1 -->
<g id="edge2" class="edge">
<title>Node3&#45;&gt;Node1</title>
<path fill="none" stroke="#9a32cd" stroke-dasharray="5,2" d="M121,-71.16C121,-60.2 121,-46.26 121,-35.55"/>
<polygon fill="#9a32cd" stroke="#9a32cd" points="117.5,-71.24 121,-81.24 124.5,-71.24 117.5,-71.24"/>
<text text-anchor="middle" x="148.5" y="-56.6" font-family="Helvetica,sans-Serif" font-size="8.00"> m_body_root</text>
</g>
<!-- Node4 -->
<g id="node4" class="node">
<title>Node4</title>
<g id="a_node4"><a xlink:href="structipc_1_1util_1_1Native__handle.html" target="_top" xlink:title="A monolayer&#45;thin wrapper around a native handle, a/k/a descriptor a/k/a FD.">
<polygon fill="white" stroke="black" points="162,-81.5 162,-98.5 274,-98.5 274,-81.5 162,-81.5"/>
<text text-anchor="middle" x="218" y="-88.1" font-family="Helvetica,sans-Serif" font-size="8.00">ipc::util::Native_handle</text>
</a>
</g>
</g>
<!-- Node4&#45;&gt;Node1 -->
<g id="edge3" class="edge">
<title>Node4&#45;&gt;Node1</title>
<path fill="none" stroke="#9a32cd" stroke-dasharray="5,2" d="M203.39,-74.2C196.57,-67.66 188.17,-60.08 180,-54 171.21,-47.46 161.12,-41.1 151.8,-35.63"/>
<polygon fill="#9a32cd" stroke="#9a32cd" points="200.97,-76.74 210.56,-81.26 205.89,-71.75 200.97,-76.74"/>
<text text-anchor="middle" x="222.5" y="-56.6" font-family="Helvetica,sans-Serif" font-size="8.00"> m_hndl_or_null</text>
</g>
<!-- Node5 -->
<g id="node5" class="node">
<title>Node5</title>
<g id="a_node5"><a xlink:title=" ">
<polygon fill="white" stroke="#bfbfbf" points="121.5,-144.5 121.5,-161.5 222.5,-161.5 222.5,-144.5 121.5,-144.5"/>
<text text-anchor="middle" x="172" y="-151.1" font-family="Helvetica,sans-Serif" font-size="8.00">static const handle_t</text>
</a>
</g>
</g>
<!-- Node5&#45;&gt;Node4 -->
<g id="edge4" class="edge">
<title>Node5&#45;&gt;Node4</title>
<path fill="none" stroke="#9a32cd" stroke-dasharray="5,2" d="M169.18,-134.22C169.1,-128.38 169.96,-122.09 173,-117 177.99,-108.63 186.78,-102.7 195.27,-98.63"/>
<polygon fill="#9a32cd" stroke="#9a32cd" points="165.73,-134.85 170.21,-144.45 172.7,-134.15 165.73,-134.85"/>
<text text-anchor="middle" x="208" y="-119.6" font-family="Helvetica,sans-Serif" font-size="8.00"> S_NULL_HANDLE</text>
</g>
<!-- Node6 -->
<g id="node6" class="node">
<title>Node6</title>
<g id="a_node6"><a xlink:title=" ">
<polygon fill="white" stroke="#bfbfbf" points="250.5,-144.5 250.5,-161.5 279.5,-161.5 279.5,-144.5 250.5,-144.5"/>
<text text-anchor="middle" x="265" y="-151.1" font-family="Helvetica,sans-Serif" font-size="8.00">int</text>
</a>
</g>
</g>
<!-- Node6&#45;&gt;Node4 -->
<g id="edge5" class="edge">
<title>Node6&#45;&gt;Node4</title>
<path fill="none" stroke="#9a32cd" stroke-dasharray="5,2" d="M255.77,-135.8C252.06,-129.72 247.58,-122.86 243,-117 237.91,-110.49 231.42,-103.78 226.33,-98.81"/>
<polygon fill="#9a32cd" stroke="#9a32cd" points="252.78,-137.62 260.87,-144.47 258.82,-134.07 252.78,-137.62"/>
<text text-anchor="middle" x="284" y="-119.6" font-family="Helvetica,sans-Serif" font-size="8.00"> m_native_handle</text>
</g>
</g>
</svg>
