<?xml version="1.0" encoding="UTF-8" standalone="no"?>
<!DOCTYPE svg PUBLIC "-//W3C//DTD SVG 1.1//EN"
 "http://www.w3.org/Graphics/SVG/1.1/DTD/svg11.dtd">
<!-- Generated by graphviz version 2.43.0 (0)
 -->
<!-- Title: ipc::transport::Posix_mq_handle::operator= Pages: 1 -->
<svg width="267pt" height="72pt"
 viewBox="0.00 0.00 267.00 71.50" xmlns="http://www.w3.org/2000/svg" xmlns:xlink="http://www.w3.org/1999/xlink">
<g id="graph0" class="graph" transform="scale(1 1) rotate(0) translate(4 67.5)">
<title>ipc::transport::Posix_mq_handle::operator=</title>
<polygon fill="white" stroke="transparent" points="-4,4 -4,-67.5 263,-67.5 263,4 -4,4"/>
<!-- Node1 -->
<g id="node1" class="node">
<title>Node1</title>
<g id="a_node1"><a xlink:title="Implements Persistent_mq_handle API: Replaces handle with the source handle while making the latter i...">
<polygon fill="#bfbfbf" stroke="black" points="0,-16 0,-42 113,-42 113,-16 0,-16"/>
<text text-anchor="start" x="8" y="-31.6" font-family="Helvetica,sans-Serif" font-size="8.00">ipc::transport::Posix</text>
<text text-anchor="middle" x="56.5" y="-22.6" font-family="Helvetica,sans-Serif" font-size="8.00">_mq_handle::operator=</text>
</a>
</g>
</g>
<!-- Node2 -->
<g id="node2" class="node">
<title>Node2</title>
<g id="a_node2"><a xlink:href="classipc_1_1util_1_1Shared__name.html#a8328c9a6bc2739145087515ee8e677d8" target="_top" xlink:title="Makes it so empty() == true.">
<polygon fill="white" stroke="black" points="149,-37 149,-63 259,-63 259,-37 149,-37"/>
<text text-anchor="start" x="157" y="-52.6" font-family="Helvetica,sans-Serif" font-size="8.00">ipc::util::Shared_name</text>
<text text-anchor="middle" x="204" y="-43.6" font-family="Helvetica,sans-Serif" font-size="8.00">::clear</text>
</a>
</g>
</g>
<!-- Node1&#45;&gt;Node2 -->
<g id="edge1" class="edge">
<title>Node1&#45;&gt;Node2</title>
<path fill="none" stroke="midnightblue" d="M113.34,-37.06C121.75,-38.27 130.48,-39.53 139.04,-40.77"/>
<polygon fill="midnightblue" stroke="midnightblue" points="138.59,-44.24 148.99,-42.2 139.59,-37.31 138.59,-44.24"/>
</g>
<!-- Node3 -->
<g id="node3" class="node">
<title>Node3</title>
<g id="a_node3"><a xlink:href="namespaceipc_1_1transport.html#a65015c97813a6609da035fe86d1a36c0" target="_top" xlink:title="Implements Persistent_mq_handle related concept: Swaps two objects.">
<polygon fill="white" stroke="black" points="154,-0.5 154,-17.5 254,-17.5 254,-0.5 154,-0.5"/>
<text text-anchor="middle" x="204" y="-7.1" font-family="Helvetica,sans-Serif" font-size="8.00">ipc::transport::swap</text>
</a>
</g>
</g>
<!-- Node1&#45;&gt;Node3 -->
<g id="edge2" class="edge">
<title>Node1&#45;&gt;Node3</title>
<path fill="none" stroke="midnightblue" d="M113.34,-21.32C123.32,-19.95 133.74,-18.52 143.81,-17.14"/>
<polygon fill="midnightblue" stroke="midnightblue" points="144.3,-20.6 153.73,-15.77 143.34,-13.67 144.3,-20.6"/>
</g>
</g>
</svg>
