<?xml version="1.0" encoding="UTF-8" standalone="no"?>
<!DOCTYPE svg PUBLIC "-//W3C//DTD SVG 1.1//EN"
 "http://www.w3.org/Graphics/SVG/1.1/DTD/svg11.dtd">
<!-- Generated by graphviz version 2.43.0 (0)
 -->
<!-- Title: ipc::transport::Posix_mq_handle::wait_sendable Pages: 1 -->
<svg width="433pt" height="53pt"
 viewBox="0.00 0.00 433.00 53.00" xmlns="http://www.w3.org/2000/svg" xmlns:xlink="http://www.w3.org/1999/xlink">
<g id="graph0" class="graph" transform="scale(1 1) rotate(0) translate(4 49)">
<title>ipc::transport::Posix_mq_handle::wait_sendable</title>
<polygon fill="white" stroke="transparent" points="-4,4 -4,-49 429,-49 429,4 -4,4"/>
<!-- Node1 -->
<g id="node1" class="node">
<title>Node1</title>
<g id="a_node1"><a xlink:title="Implements Persistent_mq_handle API: Like send() but without the actual pushing of a message.">
<polygon fill="#bfbfbf" stroke="black" points="0,-0.5 0,-26.5 131,-26.5 131,-0.5 0,-0.5"/>
<text text-anchor="start" x="8" y="-16.1" font-family="Helvetica,sans-Serif" font-size="8.00">ipc::transport::Posix</text>
<text text-anchor="middle" x="65.5" y="-7.1" font-family="Helvetica,sans-Serif" font-size="8.00">_mq_handle::wait_sendable</text>
</a>
</g>
</g>
<!-- Node2 -->
<g id="node2" class="node">
<title>Node2</title>
<g id="a_node2"><a xlink:href="classipc_1_1transport_1_1Posix__mq__handle.html#a64e44dd9a0e2ba1f870a231ffcf02fb9" target="_top" xlink:title="Impl body for *_sendable() and *_receivable().">
<polygon fill="white" stroke="black" points="167,-0.5 167,-26.5 277,-26.5 277,-0.5 167,-0.5"/>
<text text-anchor="start" x="175" y="-16.1" font-family="Helvetica,sans-Serif" font-size="8.00">ipc::transport::Posix</text>
<text text-anchor="middle" x="222" y="-7.1" font-family="Helvetica,sans-Serif" font-size="8.00">_mq_handle::wait_impl</text>
</a>
</g>
</g>
<!-- Node1&#45;&gt;Node2 -->
<g id="edge1" class="edge">
<title>Node1&#45;&gt;Node2</title>
<path fill="none" stroke="midnightblue" d="M131.13,-13.5C139.59,-13.5 148.27,-13.5 156.72,-13.5"/>
<polygon fill="midnightblue" stroke="midnightblue" points="156.91,-17 166.91,-13.5 156.91,-10 156.91,-17"/>
</g>
<!-- Node2&#45;&gt;Node2 -->
<g id="edge3" class="edge">
<title>Node2&#45;&gt;Node2</title>
<path fill="none" stroke="midnightblue" d="M197.3,-26.77C189.81,-35.96 198.05,-45 222,-45 236.6,-45 245.36,-41.64 248.28,-36.94"/>
<polygon fill="midnightblue" stroke="midnightblue" points="251.69,-36.12 246.7,-26.77 244.77,-37.19 251.69,-36.12"/>
</g>
<!-- Node3 -->
<g id="node3" class="node">
<title>Node3</title>
<g id="a_node3"><a xlink:href="structipc_1_1util_1_1Native__handle.html#a11bd62ce0a7bef4bdfe666201c26d4dc" target="_top" xlink:title="Returns true if and only if m_native_handle equals S_NULL_HANDLE.">
<polygon fill="white" stroke="black" points="313,-0.5 313,-26.5 425,-26.5 425,-0.5 313,-0.5"/>
<text text-anchor="start" x="321" y="-16.1" font-family="Helvetica,sans-Serif" font-size="8.00">ipc::util::Native_handle</text>
<text text-anchor="middle" x="369" y="-7.1" font-family="Helvetica,sans-Serif" font-size="8.00">::null</text>
</a>
</g>
</g>
<!-- Node2&#45;&gt;Node3 -->
<g id="edge2" class="edge">
<title>Node2&#45;&gt;Node3</title>
<path fill="none" stroke="midnightblue" d="M277.41,-13.5C285.63,-13.5 294.19,-13.5 302.62,-13.5"/>
<polygon fill="midnightblue" stroke="midnightblue" points="302.81,-17 312.81,-13.5 302.81,-10 302.81,-17"/>
</g>
</g>
</svg>
