<?xml version="1.0" encoding="UTF-8" standalone="no"?>
<!DOCTYPE svg PUBLIC "-//W3C//DTD SVG 1.1//EN"
 "http://www.w3.org/Graphics/SVG/1.1/DTD/svg11.dtd">
<!-- Generated by graphviz version 2.43.0 (0)
 -->
<!-- Title: ipc::session::sync_io::Client_session_adapter::Client_session_adapter Pages: 1 -->
<svg width="555pt" height="53pt"
 viewBox="0.00 0.00 555.00 53.00" xmlns="http://www.w3.org/2000/svg" xmlns:xlink="http://www.w3.org/1999/xlink">
<g id="graph0" class="graph" transform="scale(1 1) rotate(0) translate(4 49)">
<title>ipc::session::sync_io::Client_session_adapter::Client_session_adapter</title>
<polygon fill="white" stroke="transparent" points="-4,4 -4,-49 551,-49 551,4 -4,4"/>
<!-- Node1 -->
<g id="node1" class="node">
<title>Node1</title>
<g id="a_node1"><a xlink:title="Forwards to the Session_obj ctor.">
<polygon fill="#bfbfbf" stroke="black" points="0,-0.5 0,-44.5 117,-44.5 117,-0.5 0,-0.5"/>
<text text-anchor="start" x="8" y="-34.1" font-family="Helvetica,sans-Serif" font-size="8.00">ipc::session::sync</text>
<text text-anchor="start" x="8" y="-25.1" font-family="Helvetica,sans-Serif" font-size="8.00">_io::Client_session</text>
<text text-anchor="start" x="8" y="-16.1" font-family="Helvetica,sans-Serif" font-size="8.00">_adapter::Client_session</text>
<text text-anchor="middle" x="58.5" y="-7.1" font-family="Helvetica,sans-Serif" font-size="8.00">_adapter</text>
</a>
</g>
</g>
<!-- Node2 -->
<g id="node2" class="node">
<title>Node2</title>
<g id="a_node2"><a xlink:href="classipc_1_1session_1_1sync__io_1_1Session__adapter.html#a48b4b10dcb605860a58d2a394ba9c35b" target="_top" xlink:title="Utility that sets up an IPC&#45;pipe in the given peer objects as well as loading a watcher&#45;descriptor ob...">
<polygon fill="white" stroke="black" points="153,-5 153,-40 255,-40 255,-5 153,-5"/>
<text text-anchor="start" x="161" y="-29.6" font-family="Helvetica,sans-Serif" font-size="8.00">ipc::session::sync</text>
<text text-anchor="start" x="161" y="-20.6" font-family="Helvetica,sans-Serif" font-size="8.00">_io::Session_adapter</text>
<text text-anchor="middle" x="204" y="-11.6" font-family="Helvetica,sans-Serif" font-size="8.00">::init_pipe</text>
</a>
</g>
</g>
<!-- Node1&#45;&gt;Node2 -->
<g id="edge1" class="edge">
<title>Node1&#45;&gt;Node2</title>
<path fill="none" stroke="midnightblue" d="M117.04,-22.5C125.47,-22.5 134.16,-22.5 142.65,-22.5"/>
<polygon fill="midnightblue" stroke="midnightblue" points="142.85,-26 152.85,-22.5 142.85,-19 142.85,-26"/>
</g>
<!-- Node3 -->
<g id="node3" class="node">
<title>Node3</title>
<g id="a_node3"><a xlink:href="classipc_1_1util_1_1sync__io_1_1Asio__waitable__native__handle.html#a7d28277f9ef090032b0483c65f79f23c" target="_top" xlink:title="Loads value to be returned by native_handle().">
<polygon fill="white" stroke="black" points="291,-5 291,-40 399,-40 399,-5 291,-5"/>
<text text-anchor="start" x="299" y="-29.6" font-family="Helvetica,sans-Serif" font-size="8.00">ipc::util::sync_io</text>
<text text-anchor="start" x="299" y="-20.6" font-family="Helvetica,sans-Serif" font-size="8.00">::Asio_waitable_native</text>
<text text-anchor="middle" x="345" y="-11.6" font-family="Helvetica,sans-Serif" font-size="8.00">_handle::assign</text>
</a>
</g>
</g>
<!-- Node2&#45;&gt;Node3 -->
<g id="edge2" class="edge">
<title>Node2&#45;&gt;Node3</title>
<path fill="none" stroke="midnightblue" d="M255.18,-22.5C263.36,-22.5 271.93,-22.5 280.39,-22.5"/>
<polygon fill="midnightblue" stroke="midnightblue" points="280.61,-26 290.61,-22.5 280.61,-19 280.61,-26"/>
</g>
<!-- Node4 -->
<g id="node4" class="node">
<title>Node4</title>
<g id="a_node4"><a xlink:href="structipc_1_1util_1_1Native__handle.html#a11bd62ce0a7bef4bdfe666201c26d4dc" target="_top" xlink:title="Returns true if and only if m_native_handle equals S_NULL_HANDLE.">
<polygon fill="white" stroke="black" points="435,-9.5 435,-35.5 547,-35.5 547,-9.5 435,-9.5"/>
<text text-anchor="start" x="443" y="-25.1" font-family="Helvetica,sans-Serif" font-size="8.00">ipc::util::Native_handle</text>
<text text-anchor="middle" x="491" y="-16.1" font-family="Helvetica,sans-Serif" font-size="8.00">::null</text>
</a>
</g>
</g>
<!-- Node3&#45;&gt;Node4 -->
<g id="edge3" class="edge">
<title>Node3&#45;&gt;Node4</title>
<path fill="none" stroke="midnightblue" d="M399.21,-22.5C407.41,-22.5 415.97,-22.5 424.4,-22.5"/>
<polygon fill="midnightblue" stroke="midnightblue" points="424.6,-26 434.6,-22.5 424.6,-19 424.6,-26"/>
</g>
</g>
</svg>
