<?xml version="1.0" encoding="UTF-8" standalone="no"?>
<!DOCTYPE svg PUBLIC "-//W3C//DTD SVG 1.1//EN"
 "http://www.w3.org/Graphics/SVG/1.1/DTD/svg11.dtd">
<!-- Generated by graphviz version 2.43.0 (0)
 -->
<!-- Title: ipc::transport::sync_io::Native_socket_stream::start_receive_blob_ops Pages: 1 -->
<svg width="483pt" height="44pt"
 viewBox="0.00 0.00 483.00 44.00" xmlns="http://www.w3.org/2000/svg" xmlns:xlink="http://www.w3.org/1999/xlink">
<g id="graph0" class="graph" transform="scale(1 1) rotate(0) translate(4 40)">
<title>ipc::transport::sync_io::Native_socket_stream::start_receive_blob_ops</title>
<polygon fill="white" stroke="transparent" points="-4,4 -4,-40 479,-40 479,4 -4,4"/>
<!-- Node1 -->
<g id="node1" class="node">
<title>Node1</title>
<g id="a_node1"><a xlink:title="Implements Blob_receiver API per contract.">
<polygon fill="#bfbfbf" stroke="black" points="0,-0.5 0,-35.5 123,-35.5 123,-0.5 0,-0.5"/>
<text text-anchor="start" x="8" y="-25.1" font-family="Helvetica,sans-Serif" font-size="8.00">ipc::transport::sync</text>
<text text-anchor="start" x="8" y="-16.1" font-family="Helvetica,sans-Serif" font-size="8.00">_io::Native_socket_stream</text>
<text text-anchor="middle" x="61.5" y="-7.1" font-family="Helvetica,sans-Serif" font-size="8.00">::start_receive_blob_ops</text>
</a>
</g>
</g>
<!-- Node2 -->
<g id="node2" class="node">
<title>Node2</title>
<g id="a_node2"><a xlink:href="classipc_1_1transport_1_1sync__io_1_1Native__socket__stream.html#ae980fbf72c11b6511cd3bec06ffef93b" target="_top" xlink:title="Template&#45;free version of start_receive_blob_ops() as required by pImpl idiom.">
<polygon fill="white" stroke="black" points="159,-0.5 159,-35.5 293,-35.5 293,-0.5 159,-0.5"/>
<text text-anchor="start" x="167" y="-25.1" font-family="Helvetica,sans-Serif" font-size="8.00">ipc::transport::sync</text>
<text text-anchor="start" x="167" y="-16.1" font-family="Helvetica,sans-Serif" font-size="8.00">_io::Native_socket_stream</text>
<text text-anchor="middle" x="226" y="-7.1" font-family="Helvetica,sans-Serif" font-size="8.00">::start_receive_blob_ops_fwd</text>
</a>
</g>
</g>
<!-- Node1&#45;&gt;Node2 -->
<g id="edge1" class="edge">
<title>Node1&#45;&gt;Node2</title>
<path fill="none" stroke="midnightblue" d="M123.01,-18C131.44,-18 140.19,-18 148.86,-18"/>
<polygon fill="midnightblue" stroke="midnightblue" points="148.99,-21.5 158.99,-18 148.99,-14.5 148.99,-21.5"/>
</g>
<!-- Node3 -->
<g id="node3" class="node">
<title>Node3</title>
<g id="a_node3"><a xlink:href="classipc_1_1transport_1_1sync__io_1_1Native__socket__stream.html#a8e3703d5c8bac62f828a372691249c85" target="_top" xlink:title="Helper that simply returns m_impl while guaranteeing that m_impl is non&#45;null upon return.">
<polygon fill="white" stroke="black" points="329,-5 329,-31 475,-31 475,-5 329,-5"/>
<text text-anchor="start" x="337" y="-20.6" font-family="Helvetica,sans-Serif" font-size="8.00">ipc::transport::sync</text>
<text text-anchor="middle" x="402" y="-11.6" font-family="Helvetica,sans-Serif" font-size="8.00">_io::Native_socket_stream::impl</text>
</a>
</g>
</g>
<!-- Node2&#45;&gt;Node3 -->
<g id="edge2" class="edge">
<title>Node2&#45;&gt;Node3</title>
<path fill="none" stroke="midnightblue" d="M293.28,-18C301.63,-18 310.25,-18 318.81,-18"/>
<polygon fill="midnightblue" stroke="midnightblue" points="318.82,-21.5 328.82,-18 318.82,-14.5 318.82,-21.5"/>
</g>
</g>
</svg>
