<?xml version="1.0" encoding="UTF-8" standalone="no"?>
<!DOCTYPE svg PUBLIC "-//W3C//DTD SVG 1.1//EN"
 "http://www.w3.org/Graphics/SVG/1.1/DTD/svg11.dtd">
<!-- Generated by graphviz version 2.43.0 (0)
 -->
<!-- Title: ipc::transport::sync_io::Native_socket_stream::get_logger Pages: 1 -->
<svg width="449pt" height="234pt"
 viewBox="0.00 0.00 449.00 233.50" xmlns="http://www.w3.org/2000/svg" xmlns:xlink="http://www.w3.org/1999/xlink">
<g id="graph0" class="graph" transform="scale(1 1) rotate(0) translate(4 229.5)">
<title>ipc::transport::sync_io::Native_socket_stream::get_logger</title>
<polygon fill="white" stroke="transparent" points="-4,4 -4,-229.5 445,-229.5 445,4 -4,4"/>
<!-- Node1 -->
<g id="node1" class="node">
<title>Node1</title>
<g id="a_node1"><a xlink:title="Returns logger (possibly null).">
<polygon fill="#bfbfbf" stroke="black" points="318,-99 318,-134 441,-134 441,-99 318,-99"/>
<text text-anchor="start" x="326" y="-123.6" font-family="Helvetica,sans-Serif" font-size="8.00">ipc::transport::sync</text>
<text text-anchor="start" x="326" y="-114.6" font-family="Helvetica,sans-Serif" font-size="8.00">_io::Native_socket_stream</text>
<text text-anchor="middle" x="379.5" y="-105.6" font-family="Helvetica,sans-Serif" font-size="8.00">::get_logger</text>
</a>
</g>
</g>
<!-- Node2 -->
<g id="node2" class="node">
<title>Node2</title>
<g id="a_node2"><a xlink:href="classipc_1_1transport_1_1sync__io_1_1Native__socket__stream_1_1Impl.html#af0278d57dd7654b6e611ae8d190b51fa" target="_top" xlink:title="See Native_socket_stream counterpart.">
<polygon fill="white" stroke="black" points="159,-190 159,-225 282,-225 282,-190 159,-190"/>
<text text-anchor="start" x="167" y="-214.6" font-family="Helvetica,sans-Serif" font-size="8.00">ipc::transport::sync</text>
<text text-anchor="start" x="167" y="-205.6" font-family="Helvetica,sans-Serif" font-size="8.00">_io::Native_socket_stream</text>
<text text-anchor="middle" x="220.5" y="-196.6" font-family="Helvetica,sans-Serif" font-size="8.00">::Impl::async_connect</text>
</a>
</g>
</g>
<!-- Node1&#45;&gt;Node2 -->
<g id="edge1" class="edge">
<title>Node1&#45;&gt;Node2</title>
<path fill="none" stroke="midnightblue" d="M345.68,-140.23C327.4,-152.95 303.95,-168.43 282,-180.5 276.05,-183.77 269.63,-186.97 263.28,-189.95"/>
<polygon fill="midnightblue" stroke="midnightblue" points="348.04,-142.85 354.21,-134.24 344.02,-137.12 348.04,-142.85"/>
</g>
<!-- Node3 -->
<g id="node3" class="node">
<title>Node3</title>
<g id="a_node3"><a xlink:href="classipc_1_1transport_1_1sync__io_1_1Native__socket__stream_1_1Impl.html#a25e051170a8eb568745f809bb186f980" target="_top" xlink:title="Utility that synchronously, non&#45;blockingly attempts to read over m_peer_socket into the target blob a...">
<polygon fill="white" stroke="black" points="159,-126.5 159,-170.5 282,-170.5 282,-126.5 159,-126.5"/>
<text text-anchor="start" x="167" y="-160.1" font-family="Helvetica,sans-Serif" font-size="8.00">ipc::transport::sync</text>
<text text-anchor="start" x="167" y="-151.1" font-family="Helvetica,sans-Serif" font-size="8.00">_io::Native_socket_stream</text>
<text text-anchor="start" x="167" y="-142.1" font-family="Helvetica,sans-Serif" font-size="8.00">::Impl::rcv_nb_read_low</text>
<text text-anchor="middle" x="220.5" y="-133.1" font-family="Helvetica,sans-Serif" font-size="8.00">_lvl_payload</text>
</a>
</g>
</g>
<!-- Node1&#45;&gt;Node3 -->
<g id="edge2" class="edge">
<title>Node1&#45;&gt;Node3</title>
<path fill="none" stroke="midnightblue" d="M307.79,-130.91C299.19,-132.66 290.47,-134.44 282.04,-136.16"/>
<polygon fill="midnightblue" stroke="midnightblue" points="308.7,-134.3 317.8,-128.87 307.3,-127.44 308.7,-134.3"/>
</g>
<!-- Node4 -->
<g id="node4" class="node">
<title>Node4</title>
<g id="a_node4"><a xlink:href="classipc_1_1transport_1_1sync__io_1_1Native__socket__stream_1_1Impl.html#af321a9b3ed8dc21f23988bf79c7c33f0" target="_top" xlink:title="Utility that sends non&#45;empty blob, and (unless null) hndl_or_null associated with its 1st byte,...">
<polygon fill="white" stroke="black" points="159,-63.5 159,-107.5 282,-107.5 282,-63.5 159,-63.5"/>
<text text-anchor="start" x="167" y="-97.1" font-family="Helvetica,sans-Serif" font-size="8.00">ipc::transport::sync</text>
<text text-anchor="start" x="167" y="-88.1" font-family="Helvetica,sans-Serif" font-size="8.00">_io::Native_socket_stream</text>
<text text-anchor="start" x="167" y="-79.1" font-family="Helvetica,sans-Serif" font-size="8.00">::Impl::snd_nb_write_low</text>
<text text-anchor="middle" x="220.5" y="-70.1" font-family="Helvetica,sans-Serif" font-size="8.00">_lvl_payload</text>
</a>
</g>
</g>
<!-- Node1&#45;&gt;Node4 -->
<g id="edge3" class="edge">
<title>Node1&#45;&gt;Node4</title>
<path fill="none" stroke="midnightblue" d="M307.79,-102.54C299.19,-100.84 290.47,-99.12 282.04,-97.45"/>
<polygon fill="midnightblue" stroke="midnightblue" points="307.31,-106.01 317.8,-104.51 308.67,-99.14 307.31,-106.01"/>
</g>
<!-- Node5 -->
<g id="node5" class="node">
<title>Node5</title>
<g id="a_node5"><a xlink:href="classipc_1_1transport_1_1sync__io_1_1Native__socket__stream_1_1Impl.html#a3c1c949f345f0ceef5eeca3c2edec291" target="_top" xlink:title="Either synchronously sends hndl_or_null handle (if any) and orig_blob low&#45;level blob over m_peer_sock...">
<polygon fill="white" stroke="black" points="159,-0.5 159,-44.5 282,-44.5 282,-0.5 159,-0.5"/>
<text text-anchor="start" x="167" y="-34.1" font-family="Helvetica,sans-Serif" font-size="8.00">ipc::transport::sync</text>
<text text-anchor="start" x="167" y="-25.1" font-family="Helvetica,sans-Serif" font-size="8.00">_io::Native_socket_stream</text>
<text text-anchor="start" x="167" y="-16.1" font-family="Helvetica,sans-Serif" font-size="8.00">::Impl::snd_sync_write_or</text>
<text text-anchor="middle" x="220.5" y="-7.1" font-family="Helvetica,sans-Serif" font-size="8.00">_q_payload</text>
</a>
</g>
</g>
<!-- Node1&#45;&gt;Node5 -->
<g id="edge4" class="edge">
<title>Node1&#45;&gt;Node5</title>
<path fill="none" stroke="midnightblue" d="M343.73,-93.15C325.56,-81.21 302.83,-66.67 282,-54.5 276.36,-51.2 270.35,-47.85 264.39,-44.61"/>
<polygon fill="midnightblue" stroke="midnightblue" points="341.98,-96.19 352.25,-98.78 345.84,-90.35 341.98,-96.19"/>
</g>
<!-- Node6 -->
<g id="node6" class="node">
<title>Node6</title>
<g id="a_node6"><a xlink:href="classipc_1_1transport_1_1sync__io_1_1Native__socket__stream_1_1Impl.html#a65eea0cec146df598fce1d9ab5ce7e15" target="_top" xlink:title="See Native_socket_stream counterpart.">
<polygon fill="white" stroke="black" points="0,-0.5 0,-44.5 123,-44.5 123,-0.5 0,-0.5"/>
<text text-anchor="start" x="8" y="-34.1" font-family="Helvetica,sans-Serif" font-size="8.00">ipc::transport::sync</text>
<text text-anchor="start" x="8" y="-25.1" font-family="Helvetica,sans-Serif" font-size="8.00">_io::Native_socket_stream</text>
<text text-anchor="start" x="8" y="-16.1" font-family="Helvetica,sans-Serif" font-size="8.00">::Impl::start_send_native</text>
<text text-anchor="middle" x="61.5" y="-7.1" font-family="Helvetica,sans-Serif" font-size="8.00">_handle_ops</text>
</a>
</g>
</g>
<!-- Node5&#45;&gt;Node6 -->
<g id="edge5" class="edge">
<title>Node5&#45;&gt;Node6</title>
<path fill="none" stroke="midnightblue" d="M148.79,-22.5C140.19,-22.5 131.47,-22.5 123.04,-22.5"/>
<polygon fill="midnightblue" stroke="midnightblue" points="148.8,-26 158.8,-22.5 148.8,-19 148.8,-26"/>
</g>
</g>
</svg>
