<?xml version="1.0" encoding="UTF-8" standalone="no"?>
<!DOCTYPE svg PUBLIC "-//W3C//DTD SVG 1.1//EN"
 "http://www.w3.org/Graphics/SVG/1.1/DTD/svg11.dtd">
<!-- Generated by graphviz version 2.43.0 (0)
 -->
<!-- Title: ipc::util::sync_io::Timer_event_emitter::consume_timer_firing_signal Pages: 1 -->
<svg width="267pt" height="53pt"
 viewBox="0.00 0.00 267.00 53.00" xmlns="http://www.w3.org/2000/svg" xmlns:xlink="http://www.w3.org/1999/xlink">
<g id="graph0" class="graph" transform="scale(1 1) rotate(0) translate(4 49)">
<title>ipc::util::sync_io::Timer_event_emitter::consume_timer_firing_signal</title>
<polygon fill="white" stroke="transparent" points="-4,4 -4,-49 263,-49 263,4 -4,4"/>
<!-- Node1 -->
<g id="node1" class="node">
<title>Node1</title>
<g id="a_node1"><a xlink:title="Must be called after a timer_async_wait()&#45;triggered timer fired, before invoking that method for the ...">
<polygon fill="#bfbfbf" stroke="black" points="0,-0.5 0,-44.5 110,-44.5 110,-0.5 0,-0.5"/>
<text text-anchor="start" x="8" y="-34.1" font-family="Helvetica,sans-Serif" font-size="8.00">ipc::util::sync_io</text>
<text text-anchor="start" x="8" y="-25.1" font-family="Helvetica,sans-Serif" font-size="8.00">::Timer_event_emitter</text>
<text text-anchor="start" x="8" y="-16.1" font-family="Helvetica,sans-Serif" font-size="8.00">::consume_timer_firing</text>
<text text-anchor="middle" x="55" y="-7.1" font-family="Helvetica,sans-Serif" font-size="8.00">_signal</text>
</a>
</g>
</g>
<!-- Node2 -->
<g id="node2" class="node">
<title>Node2</title>
<g id="a_node2"><a xlink:href="namespaceipc_1_1util.html#a814272e555c0592b0caf92b7bc3d64b3" target="_top" xlink:title="Reads a byte via the given pipe reader.">
<polygon fill="white" stroke="black" points="146,-14 146,-31 259,-31 259,-14 146,-14"/>
<text text-anchor="middle" x="202.5" y="-20.6" font-family="Helvetica,sans-Serif" font-size="8.00">ipc::util::pipe_consume</text>
</a>
</g>
</g>
<!-- Node1&#45;&gt;Node2 -->
<g id="edge1" class="edge">
<title>Node1&#45;&gt;Node2</title>
<path fill="none" stroke="midnightblue" d="M110.18,-22.5C118.45,-22.5 127.07,-22.5 135.56,-22.5"/>
<polygon fill="midnightblue" stroke="midnightblue" points="135.82,-26 145.82,-22.5 135.82,-19 135.82,-26"/>
</g>
</g>
</svg>
