<?xml version="1.0" encoding="UTF-8" standalone="no"?>
<!DOCTYPE svg PUBLIC "-//W3C//DTD SVG 1.1//EN"
 "http://www.w3.org/Graphics/SVG/1.1/DTD/svg11.dtd">
<!-- Generated by graphviz version 2.43.0 (0)
 -->
<!-- Title: ipc::transport::Native_socket_stream_acceptor::feed_success_result_to_deficit Pages: 1 -->
<svg width="649pt" height="116pt"
 viewBox="0.00 0.00 649.00 116.00" xmlns="http://www.w3.org/2000/svg" xmlns:xlink="http://www.w3.org/1999/xlink">
<g id="graph0" class="graph" transform="scale(1 1) rotate(0) translate(4 112)">
<title>ipc::transport::Native_socket_stream_acceptor::feed_success_result_to_deficit</title>
<polygon fill="white" stroke="transparent" points="-4,4 -4,-112 645,-112 645,4 -4,4"/>
<!-- Node1 -->
<g id="node1" class="node">
<title>Node1</title>
<g id="a_node1"><a xlink:title="In thread W, gets back to steady state by feeding the given just&#45;connected peer socket (which must ha...">
<polygon fill="#bfbfbf" stroke="black" points="522,-31 522,-75 641,-75 641,-31 522,-31"/>
<text text-anchor="start" x="530" y="-64.6" font-family="Helvetica,sans-Serif" font-size="8.00">ipc::transport::Native</text>
<text text-anchor="start" x="530" y="-55.6" font-family="Helvetica,sans-Serif" font-size="8.00">_socket_stream_acceptor</text>
<text text-anchor="start" x="530" y="-46.6" font-family="Helvetica,sans-Serif" font-size="8.00">::feed_success_result_to</text>
<text text-anchor="middle" x="581.5" y="-37.6" font-family="Helvetica,sans-Serif" font-size="8.00">_deficit</text>
</a>
</g>
</g>
<!-- Node2 -->
<g id="node2" class="node">
<title>Node2</title>
<g id="a_node2"><a xlink:href="classipc_1_1transport_1_1Native__socket__stream__acceptor.html#a2063fff89b58cc5b07ee7651f9e42366" target="_top" xlink:title="Non&#45;template impl of async_accept().">
<polygon fill="white" stroke="black" points="367,-68.5 367,-103.5 486,-103.5 486,-68.5 367,-68.5"/>
<text text-anchor="start" x="375" y="-93.1" font-family="Helvetica,sans-Serif" font-size="8.00">ipc::transport::Native</text>
<text text-anchor="start" x="375" y="-84.1" font-family="Helvetica,sans-Serif" font-size="8.00">_socket_stream_acceptor</text>
<text text-anchor="middle" x="426.5" y="-75.1" font-family="Helvetica,sans-Serif" font-size="8.00">::async_accept_impl</text>
</a>
</g>
</g>
<!-- Node1&#45;&gt;Node2 -->
<g id="edge1" class="edge">
<title>Node1&#45;&gt;Node2</title>
<path fill="none" stroke="midnightblue" d="M511.79,-67.82C503.2,-69.67 494.47,-71.55 486.06,-73.37"/>
<polygon fill="midnightblue" stroke="midnightblue" points="512.75,-71.19 521.78,-65.66 511.27,-64.35 512.75,-71.19"/>
</g>
<!-- Node5 -->
<g id="node5" class="node">
<title>Node5</title>
<g id="a_node5"><a xlink:href="classipc_1_1transport_1_1Native__socket__stream__acceptor.html#ab9744191a6b5d7d05b7b2b96fcda84d6" target="_top" xlink:title="In thread W, in steady state, introduces the just&#45;established peer socket handle into the state machi...">
<polygon fill="white" stroke="black" points="367,-2 367,-46 486,-46 486,-2 367,-2"/>
<text text-anchor="start" x="375" y="-35.6" font-family="Helvetica,sans-Serif" font-size="8.00">ipc::transport::Native</text>
<text text-anchor="start" x="375" y="-26.6" font-family="Helvetica,sans-Serif" font-size="8.00">_socket_stream_acceptor</text>
<text text-anchor="start" x="375" y="-17.6" font-family="Helvetica,sans-Serif" font-size="8.00">::finalize_q_surplus_on</text>
<text text-anchor="middle" x="426.5" y="-8.6" font-family="Helvetica,sans-Serif" font-size="8.00">_success</text>
</a>
</g>
</g>
<!-- Node1&#45;&gt;Node5 -->
<g id="edge4" class="edge">
<title>Node1&#45;&gt;Node5</title>
<path fill="none" stroke="midnightblue" d="M511.79,-39.98C503.2,-38.35 494.47,-36.69 486.06,-35.1"/>
<polygon fill="midnightblue" stroke="midnightblue" points="511.31,-43.45 521.78,-41.87 512.61,-36.57 511.31,-43.45"/>
</g>
<!-- Node3 -->
<g id="node3" class="node">
<title>Node3</title>
<g id="a_node3"><a xlink:href="classipc_1_1transport_1_1Native__socket__stream__acceptor.html#a81426af495ba5a9c832d1ba35fe23ba5" target="_top" xlink:title="Asynchronously awaits for a peer connection to be established and calls on_done_func(),...">
<polygon fill="white" stroke="black" points="200,-72.5 200,-107.5 319,-107.5 319,-72.5 200,-72.5"/>
<text text-anchor="start" x="208" y="-97.1" font-family="Helvetica,sans-Serif" font-size="8.00">ipc::transport::Native</text>
<text text-anchor="start" x="208" y="-88.1" font-family="Helvetica,sans-Serif" font-size="8.00">_socket_stream_acceptor</text>
<text text-anchor="middle" x="259.5" y="-79.1" font-family="Helvetica,sans-Serif" font-size="8.00">::async_accept</text>
</a>
</g>
</g>
<!-- Node2&#45;&gt;Node3 -->
<g id="edge2" class="edge">
<title>Node2&#45;&gt;Node3</title>
<path fill="none" stroke="midnightblue" d="M356.56,-87.67C344.15,-87.97 331.32,-88.28 319.23,-88.58"/>
<polygon fill="midnightblue" stroke="midnightblue" points="356.95,-91.16 366.86,-87.42 356.78,-84.16 356.95,-91.16"/>
</g>
<!-- Node4 -->
<g id="node4" class="node">
<title>Node4</title>
<g id="a_node4"><a xlink:href="classipc_1_1transport_1_1sync__io_1_1Native__socket__stream__acceptor.html#ade5271c427a9ed514555482cc2509ed9" target="_top" xlink:title="Starts background attempt at a peer connection being established, contingent on the user reporting (v...">
<polygon fill="white" stroke="black" points="14.5,-72.5 14.5,-107.5 137.5,-107.5 137.5,-72.5 14.5,-72.5"/>
<text text-anchor="start" x="22.5" y="-97.1" font-family="Helvetica,sans-Serif" font-size="8.00">ipc::transport::sync</text>
<text text-anchor="start" x="22.5" y="-88.1" font-family="Helvetica,sans-Serif" font-size="8.00">_io::Native_socket_stream</text>
<text text-anchor="middle" x="76" y="-79.1" font-family="Helvetica,sans-Serif" font-size="8.00">_acceptor::async_accept</text>
</a>
</g>
</g>
<!-- Node3&#45;&gt;Node4 -->
<g id="edge3" class="edge">
<title>Node3&#45;&gt;Node4</title>
<path fill="none" stroke="midnightblue" d="M189.38,-90C172.36,-90 154.25,-90 137.66,-90"/>
<polygon fill="midnightblue" stroke="midnightblue" points="189.82,-93.5 199.82,-90 189.82,-86.5 189.82,-93.5"/>
</g>
<!-- Node6 -->
<g id="node6" class="node">
<title>Node6</title>
<g id="a_node6"><a xlink:href="classipc_1_1transport_1_1Native__socket__stream__acceptor.html#af52346c8df9efc457efaec35bc6c0807" target="_top" xlink:title="Handler for incoming connection on m_acceptor.">
<polygon fill="white" stroke="black" points="188,-0.5 188,-35.5 331,-35.5 331,-0.5 188,-0.5"/>
<text text-anchor="start" x="196" y="-25.1" font-family="Helvetica,sans-Serif" font-size="8.00">ipc::transport::Native</text>
<text text-anchor="start" x="196" y="-16.1" font-family="Helvetica,sans-Serif" font-size="8.00">_socket_stream_acceptor</text>
<text text-anchor="middle" x="259.5" y="-7.1" font-family="Helvetica,sans-Serif" font-size="8.00">::on_next_peer_socket_or_error</text>
</a>
</g>
</g>
<!-- Node5&#45;&gt;Node6 -->
<g id="edge5" class="edge">
<title>Node5&#45;&gt;Node6</title>
<path fill="none" stroke="midnightblue" d="M356.67,-21.5C348.22,-21.19 339.57,-20.88 331.09,-20.57"/>
<polygon fill="midnightblue" stroke="midnightblue" points="356.74,-25 366.86,-21.87 357,-18.01 356.74,-25"/>
</g>
<!-- Node6&#45;&gt;Node6 -->
<g id="edge7" class="edge">
<title>Node6&#45;&gt;Node6</title>
<path fill="none" stroke="midnightblue" d="M288.41,-46.1C284.35,-50.77 274.71,-54 259.5,-54 234.54,-54 224.59,-45.31 229.66,-35.78"/>
<polygon fill="midnightblue" stroke="midnightblue" points="291.93,-46.06 289.34,-35.78 284.96,-45.43 291.93,-46.06"/>
</g>
<!-- Node7 -->
<g id="node7" class="node">
<title>Node7</title>
<g id="a_node7"><a xlink:href="classipc_1_1transport_1_1Native__socket__stream__acceptor.html#a77795acb028a95a4804f9b3ef18d99b0" target="_top" xlink:title="Creates the Native_socket_stream_acceptor and immediately begins listening in the background,...">
<polygon fill="white" stroke="black" points="0,-0.5 0,-35.5 152,-35.5 152,-0.5 0,-0.5"/>
<text text-anchor="start" x="8" y="-25.1" font-family="Helvetica,sans-Serif" font-size="8.00">ipc::transport::Native</text>
<text text-anchor="start" x="8" y="-16.1" font-family="Helvetica,sans-Serif" font-size="8.00">_socket_stream_acceptor</text>
<text text-anchor="middle" x="76" y="-7.1" font-family="Helvetica,sans-Serif" font-size="8.00">::Native_socket_stream_acceptor</text>
</a>
</g>
</g>
<!-- Node6&#45;&gt;Node7 -->
<g id="edge6" class="edge">
<title>Node6&#45;&gt;Node7</title>
<path fill="none" stroke="midnightblue" d="M177.61,-18C169.19,-18 160.66,-18 152.3,-18"/>
<polygon fill="midnightblue" stroke="midnightblue" points="177.81,-21.5 187.81,-18 177.81,-14.5 177.81,-21.5"/>
</g>
</g>
</svg>
