<?xml version="1.0" encoding="UTF-8" standalone="no"?>
<!DOCTYPE svg PUBLIC "-//W3C//DTD SVG 1.1//EN"
 "http://www.w3.org/Graphics/SVG/1.1/DTD/svg11.dtd">
<!-- Generated by graphviz version 2.43.0 (0)
 -->
<!-- Title: ipc::transport::Socket_stream_channel::remote_peer_process_credentials Pages: 1 -->
<svg width="272pt" height="98pt"
 viewBox="0.00 0.00 272.00 98.00" xmlns="http://www.w3.org/2000/svg" xmlns:xlink="http://www.w3.org/1999/xlink">
<g id="graph0" class="graph" transform="scale(1 1) rotate(0) translate(4 94)">
<title>ipc::transport::Socket_stream_channel::remote_peer_process_credentials</title>
<polygon fill="white" stroke="transparent" points="-4,4 -4,-94 268,-94 268,4 -4,4"/>
<!-- Node1 -->
<g id="node1" class="node">
<title>Node1</title>
<g id="a_node1"><a xlink:title="Identical to Native_socket_stream::remote_peer_process_credentials(): OS&#45;reported process credential ...">
<polygon fill="#bfbfbf" stroke="black" points="139,-27.5 139,-62.5 264,-62.5 264,-27.5 139,-27.5"/>
<text text-anchor="start" x="147" y="-52.1" font-family="Helvetica,sans-Serif" font-size="8.00">ipc::transport::Socket</text>
<text text-anchor="start" x="147" y="-43.1" font-family="Helvetica,sans-Serif" font-size="8.00">_stream_channel::remote</text>
<text text-anchor="middle" x="201.5" y="-34.1" font-family="Helvetica,sans-Serif" font-size="8.00">_peer_process_credentials</text>
</a>
</g>
</g>
<!-- Node2 -->
<g id="node2" class="node">
<title>Node2</title>
<g id="a_node2"><a xlink:href="classipc_1_1session_1_1Server__session__impl.html#aee35d521d9997d48f6b5565730e60e93" target="_top" xlink:title="For use by internal user Session_server: See Server_session_mv counterpart.">
<polygon fill="white" stroke="black" points="0,-54.5 0,-89.5 103,-89.5 103,-54.5 0,-54.5"/>
<text text-anchor="start" x="8" y="-79.1" font-family="Helvetica,sans-Serif" font-size="8.00">ipc::session::Server</text>
<text text-anchor="start" x="8" y="-70.1" font-family="Helvetica,sans-Serif" font-size="8.00">_session_impl::async</text>
<text text-anchor="middle" x="51.5" y="-61.1" font-family="Helvetica,sans-Serif" font-size="8.00">_accept_log_in</text>
</a>
</g>
</g>
<!-- Node1&#45;&gt;Node2 -->
<g id="edge1" class="edge">
<title>Node1&#45;&gt;Node2</title>
<path fill="none" stroke="midnightblue" d="M128.63,-58.11C120.1,-59.67 111.54,-61.23 103.39,-62.72"/>
<polygon fill="midnightblue" stroke="midnightblue" points="129.38,-61.53 138.59,-56.29 128.13,-54.65 129.38,-61.53"/>
</g>
<!-- Node3 -->
<g id="node3" class="node">
<title>Node3</title>
<g id="a_node3"><a xlink:href="classipc_1_1session_1_1Client__session__impl.html#a56c0d2b0ff082d1f7b0738e2528b4a92" target="_top" xlink:title="Core implementation of sync_connect().">
<polygon fill="white" stroke="black" points="0,-0.5 0,-35.5 103,-35.5 103,-0.5 0,-0.5"/>
<text text-anchor="start" x="8" y="-25.1" font-family="Helvetica,sans-Serif" font-size="8.00">ipc::session::Client</text>
<text text-anchor="start" x="8" y="-16.1" font-family="Helvetica,sans-Serif" font-size="8.00">_session_impl::async</text>
<text text-anchor="middle" x="51.5" y="-7.1" font-family="Helvetica,sans-Serif" font-size="8.00">_connect</text>
</a>
</g>
</g>
<!-- Node1&#45;&gt;Node3 -->
<g id="edge2" class="edge">
<title>Node1&#45;&gt;Node3</title>
<path fill="none" stroke="midnightblue" d="M128.63,-31.89C120.1,-30.33 111.54,-28.77 103.39,-27.28"/>
<polygon fill="midnightblue" stroke="midnightblue" points="128.13,-35.35 138.59,-33.71 129.38,-28.47 128.13,-35.35"/>
</g>
</g>
</svg>
