<?xml version="1.0" encoding="UTF-8" standalone="no"?>
<!DOCTYPE svg PUBLIC "-//W3C//DTD SVG 1.1//EN"
 "http://www.w3.org/Graphics/SVG/1.1/DTD/svg11.dtd">
<!-- Generated by graphviz version 2.43.0 (0)
 -->
<!-- Title: ipc::transport::struc::sync_io::Channel::rcv_async_read_lead_or_continuation_msg Pages: 1 -->
<svg width="333pt" height="44pt"
 viewBox="0.00 0.00 333.00 44.00" xmlns="http://www.w3.org/2000/svg" xmlns:xlink="http://www.w3.org/1999/xlink">
<g id="graph0" class="graph" transform="scale(1 1) rotate(0) translate(4 40)">
<title>ipc::transport::struc::sync_io::Channel::rcv_async_read_lead_or_continuation_msg</title>
<polygon fill="white" stroke="transparent" points="-4,4 -4,-40 329,-40 329,4 -4,4"/>
<!-- Node1 -->
<g id="node1" class="node">
<title>Node1</title>
<g id="a_node1"><a xlink:title="This key method acts on the pre&#45;condition that the given in&#45;pipe is not known to be in would&#45;block st...">
<polygon fill="#bfbfbf" stroke="black" points="0,-0.5 0,-35.5 177,-35.5 177,-0.5 0,-0.5"/>
<text text-anchor="start" x="8" y="-25.1" font-family="Helvetica,sans-Serif" font-size="8.00">ipc::transport::struc</text>
<text text-anchor="start" x="8" y="-16.1" font-family="Helvetica,sans-Serif" font-size="8.00">::sync_io::Channel::rcv</text>
<text text-anchor="middle" x="88.5" y="-7.1" font-family="Helvetica,sans-Serif" font-size="8.00">_async_read_lead_or_continuation_msg</text>
</a>
</g>
</g>
<!-- Node2 -->
<g id="node2" class="node">
<title>Node2</title>
<g id="a_node2"><a xlink:href="structipc_1_1util_1_1Native__handle.html#a11bd62ce0a7bef4bdfe666201c26d4dc" target="_top" xlink:title="Returns true if and only if m_native_handle equals S_NULL_HANDLE.">
<polygon fill="white" stroke="black" points="213,-5 213,-31 325,-31 325,-5 213,-5"/>
<text text-anchor="start" x="221" y="-20.6" font-family="Helvetica,sans-Serif" font-size="8.00">ipc::util::Native_handle</text>
<text text-anchor="middle" x="269" y="-11.6" font-family="Helvetica,sans-Serif" font-size="8.00">::null</text>
</a>
</g>
</g>
<!-- Node1&#45;&gt;Node2 -->
<g id="edge1" class="edge">
<title>Node1&#45;&gt;Node2</title>
<path fill="none" stroke="midnightblue" d="M177.18,-18C185.83,-18 194.5,-18 202.87,-18"/>
<polygon fill="midnightblue" stroke="midnightblue" points="202.89,-21.5 212.89,-18 202.89,-14.5 202.89,-21.5"/>
</g>
</g>
</svg>
