<?xml version="1.0" encoding="UTF-8" standalone="no"?>
<!DOCTYPE svg PUBLIC "-//W3C//DTD SVG 1.1//EN"
 "http://www.w3.org/Graphics/SVG/1.1/DTD/svg11.dtd">
<!-- Generated by graphviz version 2.43.0 (0)
 -->
<!-- Title: ipc::transport::sync_io::Native_socket_stream::Impl::rcv_nb_read_low_lvl_payload Pages: 1 -->
<svg width="481pt" height="171pt"
 viewBox="0.00 0.00 481.00 170.50" xmlns="http://www.w3.org/2000/svg" xmlns:xlink="http://www.w3.org/1999/xlink">
<g id="graph0" class="graph" transform="scale(1 1) rotate(0) translate(4 166.5)">
<title>ipc::transport::sync_io::Native_socket_stream::Impl::rcv_nb_read_low_lvl_payload</title>
<polygon fill="white" stroke="transparent" points="-4,4 -4,-166.5 477,-166.5 477,4 -4,4"/>
<!-- Node1 -->
<g id="node1" class="node">
<title>Node1</title>
<g id="a_node1"><a xlink:title="Utility that synchronously, non&#45;blockingly attempts to read over m_peer_socket into the target blob a...">
<polygon fill="#bfbfbf" stroke="black" points="0,-45.5 0,-89.5 123,-89.5 123,-45.5 0,-45.5"/>
<text text-anchor="start" x="8" y="-79.1" font-family="Helvetica,sans-Serif" font-size="8.00">ipc::transport::sync</text>
<text text-anchor="start" x="8" y="-70.1" font-family="Helvetica,sans-Serif" font-size="8.00">_io::Native_socket_stream</text>
<text text-anchor="start" x="8" y="-61.1" font-family="Helvetica,sans-Serif" font-size="8.00">::Impl::rcv_nb_read_low</text>
<text text-anchor="middle" x="61.5" y="-52.1" font-family="Helvetica,sans-Serif" font-size="8.00">_lvl_payload</text>
</a>
</g>
</g>
<!-- Node2 -->
<g id="node2" class="node">
<title>Node2</title>
<g id="a_node2"><a xlink:href="classipc_1_1transport_1_1sync__io_1_1Native__socket__stream.html#aac68d14f4ef33505399df4fd04cd4669" target="_top" xlink:title="Returns logger (possibly null).">
<polygon fill="white" stroke="black" points="163.5,-127 163.5,-162 286.5,-162 286.5,-127 163.5,-127"/>
<text text-anchor="start" x="171.5" y="-151.6" font-family="Helvetica,sans-Serif" font-size="8.00">ipc::transport::sync</text>
<text text-anchor="start" x="171.5" y="-142.6" font-family="Helvetica,sans-Serif" font-size="8.00">_io::Native_socket_stream</text>
<text text-anchor="middle" x="225" y="-133.6" font-family="Helvetica,sans-Serif" font-size="8.00">::get_logger</text>
</a>
</g>
</g>
<!-- Node1&#45;&gt;Node2 -->
<g id="edge1" class="edge">
<title>Node1&#45;&gt;Node2</title>
<path fill="none" stroke="midnightblue" d="M103.44,-89.68C120.47,-98.65 140.53,-108.9 159,-117.5 162.86,-119.3 166.88,-121.11 170.94,-122.89"/>
<polygon fill="midnightblue" stroke="midnightblue" points="169.86,-126.24 180.42,-126.99 172.63,-119.81 169.86,-126.24"/>
</g>
<!-- Node4 -->
<g id="node4" class="node">
<title>Node4</title>
<g id="a_node4"><a xlink:href="namespaceipc_1_1transport_1_1asio__local__stream__socket.html#a9ae82b2a234b218704c62fb616d6fcc5" target="_top" xlink:title="boost.asio extension similar to peer_socket&#45;&gt;non_blocking(true); auto n = peer_socket&#45;&gt;read_some(targ...">
<polygon fill="white" stroke="black" points="159,-45.5 159,-89.5 291,-89.5 291,-45.5 159,-45.5"/>
<text text-anchor="start" x="167" y="-79.1" font-family="Helvetica,sans-Serif" font-size="8.00">ipc::transport::asio</text>
<text text-anchor="start" x="167" y="-70.1" font-family="Helvetica,sans-Serif" font-size="8.00">_local_stream_socket</text>
<text text-anchor="start" x="167" y="-61.1" font-family="Helvetica,sans-Serif" font-size="8.00">::nb_read_some_with_native</text>
<text text-anchor="middle" x="225" y="-52.1" font-family="Helvetica,sans-Serif" font-size="8.00">_handle</text>
</a>
</g>
</g>
<!-- Node1&#45;&gt;Node4 -->
<g id="edge3" class="edge">
<title>Node1&#45;&gt;Node4</title>
<path fill="none" stroke="midnightblue" d="M123.1,-67.5C131.46,-67.5 140.13,-67.5 148.72,-67.5"/>
<polygon fill="midnightblue" stroke="midnightblue" points="148.74,-71 158.74,-67.5 148.74,-64 148.74,-71"/>
</g>
<!-- Node5 -->
<g id="node5" class="node">
<title>Node5</title>
<g id="a_node5"><a xlink:href="structipc_1_1util_1_1Native__handle.html#a11bd62ce0a7bef4bdfe666201c26d4dc" target="_top" xlink:title="Returns true if and only if m_native_handle equals S_NULL_HANDLE.">
<polygon fill="white" stroke="black" points="169,-0.5 169,-26.5 281,-26.5 281,-0.5 169,-0.5"/>
<text text-anchor="start" x="177" y="-16.1" font-family="Helvetica,sans-Serif" font-size="8.00">ipc::util::Native_handle</text>
<text text-anchor="middle" x="225" y="-7.1" font-family="Helvetica,sans-Serif" font-size="8.00">::null</text>
</a>
</g>
</g>
<!-- Node1&#45;&gt;Node5 -->
<g id="edge5" class="edge">
<title>Node1&#45;&gt;Node5</title>
<path fill="none" stroke="midnightblue" d="M123.1,-47.24C140.29,-41.49 158.79,-35.3 175.19,-29.82"/>
<polygon fill="midnightblue" stroke="midnightblue" points="176.73,-33 185.1,-26.51 174.51,-26.36 176.73,-33"/>
</g>
<!-- Node3 -->
<g id="node3" class="node">
<title>Node3</title>
<g id="a_node3"><a xlink:href="classipc_1_1transport_1_1sync__io_1_1Native__socket__stream.html#a8e3703d5c8bac62f828a372691249c85" target="_top" xlink:title="Helper that simply returns m_impl while guaranteeing that m_impl is non&#45;null upon return.">
<polygon fill="white" stroke="black" points="327,-131.5 327,-157.5 473,-157.5 473,-131.5 327,-131.5"/>
<text text-anchor="start" x="335" y="-147.1" font-family="Helvetica,sans-Serif" font-size="8.00">ipc::transport::sync</text>
<text text-anchor="middle" x="400" y="-138.1" font-family="Helvetica,sans-Serif" font-size="8.00">_io::Native_socket_stream::impl</text>
</a>
</g>
</g>
<!-- Node2&#45;&gt;Node3 -->
<g id="edge2" class="edge">
<title>Node2&#45;&gt;Node3</title>
<path fill="none" stroke="midnightblue" d="M286.51,-144.5C296.3,-144.5 306.58,-144.5 316.78,-144.5"/>
<polygon fill="midnightblue" stroke="midnightblue" points="316.94,-148 326.94,-144.5 316.94,-141 316.94,-148"/>
</g>
<!-- Node4&#45;&gt;Node4 -->
<g id="edge4" class="edge">
<title>Node4&#45;&gt;Node4</title>
<path fill="none" stroke="midnightblue" d="M195.1,-89.58C192.25,-99.46 202.22,-108 225,-108 239.24,-108 248.47,-104.66 252.7,-99.75"/>
<polygon fill="midnightblue" stroke="midnightblue" points="256.2,-100.09 254.9,-89.58 249.36,-98.61 256.2,-100.09"/>
</g>
</g>
</svg>
