<?xml version="1.0" encoding="UTF-8" standalone="no"?>
<!DOCTYPE svg PUBLIC "-//W3C//DTD SVG 1.1//EN"
 "http://www.w3.org/Graphics/SVG/1.1/DTD/svg11.dtd">
<!-- Generated by graphviz version 2.43.0 (0)
 -->
<!-- Title: ipc::transport::Blob_stream_mq_base_impl::mq_sentinel_name Pages: 1 -->
<svg width="460pt" height="80pt"
 viewBox="0.00 0.00 460.00 80.00" xmlns="http://www.w3.org/2000/svg" xmlns:xlink="http://www.w3.org/1999/xlink">
<g id="graph0" class="graph" transform="scale(1 1) rotate(0) translate(4 76)">
<title>ipc::transport::Blob_stream_mq_base_impl::mq_sentinel_name</title>
<polygon fill="white" stroke="transparent" points="-4,4 -4,-76 456,-76 456,4 -4,4"/>
<!-- Node1 -->
<g id="node1" class="node">
<title>Node1</title>
<g id="a_node1"><a xlink:title="Name of sentinel SHM pool created by ensure_unique_peer() and potentially cleaned up by remove_persis...">
<polygon fill="#bfbfbf" stroke="black" points="0,-18 0,-53 110,-53 110,-18 0,-18"/>
<text text-anchor="start" x="8" y="-42.6" font-family="Helvetica,sans-Serif" font-size="8.00">ipc::transport::Blob</text>
<text text-anchor="start" x="8" y="-33.6" font-family="Helvetica,sans-Serif" font-size="8.00">_stream_mq_base_impl</text>
<text text-anchor="middle" x="55" y="-24.6" font-family="Helvetica,sans-Serif" font-size="8.00">::mq_sentinel_name</text>
</a>
</g>
</g>
<!-- Node2 -->
<g id="node2" class="node">
<title>Node2</title>
<g id="a_node2"><a xlink:href="classipc_1_1util_1_1Shared__name.html#ab1934f80515fdbc3e2a59ccda32fff9a" target="_top" xlink:title="Returns true if and only if the first character is S_SEPARATOR.">
<polygon fill="white" stroke="black" points="171,-45.5 171,-71.5 281,-71.5 281,-45.5 171,-45.5"/>
<text text-anchor="start" x="179" y="-61.1" font-family="Helvetica,sans-Serif" font-size="8.00">ipc::util::Shared_name</text>
<text text-anchor="middle" x="226" y="-52.1" font-family="Helvetica,sans-Serif" font-size="8.00">::absolute</text>
</a>
</g>
</g>
<!-- Node1&#45;&gt;Node2 -->
<g id="edge1" class="edge">
<title>Node1&#45;&gt;Node2</title>
<path fill="none" stroke="midnightblue" d="M110.4,-42.9C126.46,-45.09 144.19,-47.5 160.81,-49.76"/>
<polygon fill="midnightblue" stroke="midnightblue" points="160.61,-53.27 170.99,-51.15 161.55,-46.33 160.61,-53.27"/>
</g>
<!-- Node3 -->
<g id="node3" class="node">
<title>Node3</title>
<g id="a_node3"><a xlink:href="namespaceipc_1_1util.html#a71fa0c2bd2c45109a9fbab4b048c666d" target="_top" xlink:title="Builds an absolute name according to the path convention explained in Shared_name class doc header; t...">
<polygon fill="white" stroke="black" points="146,-0.5 146,-26.5 306,-26.5 306,-0.5 146,-0.5"/>
<text text-anchor="start" x="154" y="-16.1" font-family="Helvetica,sans-Serif" font-size="8.00">ipc::util::build_conventional</text>
<text text-anchor="middle" x="226" y="-7.1" font-family="Helvetica,sans-Serif" font-size="8.00">_non_session_based_shared_name</text>
</a>
</g>
</g>
<!-- Node1&#45;&gt;Node3 -->
<g id="edge2" class="edge">
<title>Node1&#45;&gt;Node3</title>
<path fill="none" stroke="midnightblue" d="M110.4,-28.42C118.52,-27.36 127.06,-26.25 135.67,-25.13"/>
<polygon fill="midnightblue" stroke="midnightblue" points="136.31,-28.57 145.78,-23.81 135.41,-21.63 136.31,-28.57"/>
</g>
<!-- Node4 -->
<g id="node4" class="node">
<title>Node4</title>
<g id="a_node4"><a xlink:href="classipc_1_1util_1_1Shared__name.html#a861ea6c9ad6672e83bab5c7747b66f7b" target="_top" xlink:title="Returns true if and only if str().empty() == true.">
<polygon fill="white" stroke="black" points="342,-0.5 342,-26.5 452,-26.5 452,-0.5 342,-0.5"/>
<text text-anchor="start" x="350" y="-16.1" font-family="Helvetica,sans-Serif" font-size="8.00">ipc::util::Shared_name</text>
<text text-anchor="middle" x="397" y="-7.1" font-family="Helvetica,sans-Serif" font-size="8.00">::empty</text>
</a>
</g>
</g>
<!-- Node3&#45;&gt;Node4 -->
<g id="edge3" class="edge">
<title>Node3&#45;&gt;Node4</title>
<path fill="none" stroke="midnightblue" d="M306.06,-13.5C314.61,-13.5 323.23,-13.5 331.58,-13.5"/>
<polygon fill="midnightblue" stroke="midnightblue" points="331.6,-17 341.6,-13.5 331.6,-10 331.6,-17"/>
</g>
</g>
</svg>
