<?xml version="1.0" encoding="UTF-8" standalone="no"?>
<!DOCTYPE svg PUBLIC "-//W3C//DTD SVG 1.1//EN"
 "http://www.w3.org/Graphics/SVG/1.1/DTD/svg11.dtd">
<!-- Generated by graphviz version 2.43.0 (0)
 -->
<!-- Title: ipc::util::Shared_name::str Pages: 1 -->
<svg width="640pt" height="836pt"
 viewBox="0.00 0.00 640.00 836.00" xmlns="http://www.w3.org/2000/svg" xmlns:xlink="http://www.w3.org/1999/xlink">
<g id="graph0" class="graph" transform="scale(1 1) rotate(0) translate(4 832)">
<title>ipc::util::Shared_name::str</title>
<polygon fill="white" stroke="transparent" points="-4,4 -4,-832 636,-832 636,4 -4,4"/>
<!-- Node1 -->
<g id="node1" class="node">
<title>Node1</title>
<g id="a_node1"><a xlink:title="Returns (sans copying) ref to immutable entire wrapped name string, suitable to pass into sys calls w...">
<polygon fill="#bfbfbf" stroke="black" points="506,-407.5 506,-424.5 632,-424.5 632,-407.5 506,-407.5"/>
<text text-anchor="middle" x="569" y="-414.1" font-family="Helvetica,sans-Serif" font-size="8.00">ipc::util::Shared_name::str</text>
</a>
</g>
</g>
<!-- Node2 -->
<g id="node2" class="node">
<title>Node2</title>
<g id="a_node2"><a xlink:href="classipc_1_1session_1_1Server__session__impl.html#a92861565c698467bc58e44fbe471e356" target="_top" xlink:title="For use by internal user Session_server: See Server_session_mv counterpart.">
<polygon fill="white" stroke="black" points="347,-792.5 347,-827.5 450,-827.5 450,-792.5 347,-792.5"/>
<text text-anchor="start" x="355" y="-817.1" font-family="Helvetica,sans-Serif" font-size="8.00">ipc::session::Server</text>
<text text-anchor="start" x="355" y="-808.1" font-family="Helvetica,sans-Serif" font-size="8.00">_session_impl::async</text>
<text text-anchor="middle" x="398.5" y="-799.1" font-family="Helvetica,sans-Serif" font-size="8.00">_accept_log_in</text>
</a>
</g>
</g>
<!-- Node1&#45;&gt;Node2 -->
<g id="edge1" class="edge">
<title>Node1&#45;&gt;Node2</title>
<path fill="none" stroke="midnightblue" d="M568.23,-434.78C567.97,-492.97 559.56,-672.65 470,-778 464.6,-784.35 457.68,-789.5 450.3,-793.66"/>
<polygon fill="midnightblue" stroke="midnightblue" points="571.73,-434.54 568.2,-424.55 564.73,-434.56 571.73,-434.54"/>
</g>
<!-- Node3 -->
<g id="node3" class="node">
<title>Node3</title>
<g id="a_node3"><a xlink:href="classipc_1_1session_1_1shm_1_1arena__lend_1_1jemalloc_1_1Client__session__impl.html#a697e64450297808bb9ca5c6a870c1fe9" target="_top" xlink:title="Invoked on m_async_cleanup_worker, performs a round of the SHM&#45;pool cleanup algorithm and schedules s...">
<polygon fill="white" stroke="black" points="163.5,-735 163.5,-779 266.5,-779 266.5,-735 163.5,-735"/>
<text text-anchor="start" x="171.5" y="-768.6" font-family="Helvetica,sans-Serif" font-size="8.00">ipc::session::shm::</text>
<text text-anchor="start" x="171.5" y="-759.6" font-family="Helvetica,sans-Serif" font-size="8.00">arena_lend::jemalloc</text>
<text text-anchor="start" x="171.5" y="-750.6" font-family="Helvetica,sans-Serif" font-size="8.00">::Client_session_impl</text>
<text text-anchor="middle" x="215" y="-741.6" font-family="Helvetica,sans-Serif" font-size="8.00">::cleanup</text>
</a>
</g>
</g>
<!-- Node1&#45;&gt;Node3 -->
<g id="edge2" class="edge">
<title>Node1&#45;&gt;Node3</title>
<path fill="none" stroke="midnightblue" d="M565.23,-435.05C555.47,-499.18 520.58,-705.4 470,-745 412.3,-790.18 322.63,-781.81 266.71,-770.34"/>
<polygon fill="midnightblue" stroke="midnightblue" points="568.74,-435.21 566.75,-424.8 561.82,-434.18 568.74,-435.21"/>
</g>
<!-- Node5 -->
<g id="node5" class="node">
<title>Node5</title>
<g id="a_node5"><a xlink:href="classipc_1_1session_1_1shm_1_1arena__lend_1_1jemalloc_1_1Session__server.html#aafb28832358d6f75f363b932c291884f" target="_top" xlink:title="Invoked on m_async_cleanup_worker, performs a round of the SHM&#45;pool cleanup algorithm and schedules s...">
<polygon fill="white" stroke="black" points="153.5,-668.5 153.5,-703.5 276.5,-703.5 276.5,-668.5 153.5,-668.5"/>
<text text-anchor="start" x="161.5" y="-693.1" font-family="Helvetica,sans-Serif" font-size="8.00">ipc::session::shm::</text>
<text text-anchor="start" x="161.5" y="-684.1" font-family="Helvetica,sans-Serif" font-size="8.00">arena_lend::jemalloc</text>
<text text-anchor="middle" x="215" y="-675.1" font-family="Helvetica,sans-Serif" font-size="8.00">::Session_server::cleanup</text>
</a>
</g>
</g>
<!-- Node1&#45;&gt;Node5 -->
<g id="edge4" class="edge">
<title>Node1&#45;&gt;Node5</title>
<path fill="none" stroke="midnightblue" d="M566.8,-434.82C562.7,-481.83 544.97,-604.69 470,-661 414.73,-702.51 332.5,-702.72 276.69,-696.54"/>
<polygon fill="midnightblue" stroke="midnightblue" points="570.31,-434.82 567.58,-424.58 563.33,-434.29 570.31,-434.82"/>
</g>
<!-- Node6 -->
<g id="node6" class="node">
<title>Node6</title>
<g id="a_node6"><a xlink:href="namespaceipc_1_1session.html#ac970e7d7b97c1a9737bd836a6a7f77ec" target="_top" xlink:title="Decomposes a Shared_name built as&#45;if by build_conventional_shared_name() overload 1 (non&#45;global&#45;scope...">
<polygon fill="white" stroke="black" points="332,-709 332,-735 465,-735 465,-709 332,-709"/>
<text text-anchor="start" x="340" y="-724.6" font-family="Helvetica,sans-Serif" font-size="8.00">ipc::session::decompose</text>
<text text-anchor="middle" x="398.5" y="-715.6" font-family="Helvetica,sans-Serif" font-size="8.00">_conventional_shared_name</text>
</a>
</g>
</g>
<!-- Node1&#45;&gt;Node6 -->
<g id="edge5" class="edge">
<title>Node1&#45;&gt;Node6</title>
<path fill="none" stroke="midnightblue" d="M566.64,-434.65C562.08,-483.72 543.23,-617.85 470,-694 463.98,-700.27 456.37,-705.16 448.4,-708.98"/>
<polygon fill="midnightblue" stroke="midnightblue" points="570.14,-434.82 567.48,-424.57 563.16,-434.24 570.14,-434.82"/>
</g>
<!-- Node7 -->
<g id="node7" class="node">
<title>Node7</title>
<g id="a_node7"><a xlink:href="namespaceipc_1_1transport_1_1asio__local__stream__socket.html#af872520154fc00afaa59c7eec607a225" target="_top" xlink:title="Returns an Endpoint corresponding to the given absolute Shared_name, so that an Acceptor or Peer_sock...">
<polygon fill="white" stroke="black" points="333,-598.5 333,-633.5 464,-633.5 464,-598.5 333,-598.5"/>
<text text-anchor="start" x="341" y="-623.1" font-family="Helvetica,sans-Serif" font-size="8.00">ipc::transport::asio</text>
<text text-anchor="start" x="341" y="-614.1" font-family="Helvetica,sans-Serif" font-size="8.00">_local_stream_socket</text>
<text text-anchor="middle" x="398.5" y="-605.1" font-family="Helvetica,sans-Serif" font-size="8.00">::endpoint_at_shared_name</text>
</a>
</g>
</g>
<!-- Node1&#45;&gt;Node7 -->
<g id="edge8" class="edge">
<title>Node1&#45;&gt;Node7</title>
<path fill="none" stroke="midnightblue" d="M562.31,-434.32C550.59,-469.2 520.53,-545.52 470,-589 465.83,-592.59 461.13,-595.73 456.18,-598.47"/>
<polygon fill="midnightblue" stroke="midnightblue" points="565.72,-435.14 565.47,-424.55 559.06,-432.99 565.72,-435.14"/>
</g>
<!-- Node10 -->
<g id="node10" class="node">
<title>Node10</title>
<g id="a_node10"><a xlink:href="classipc_1_1util_1_1Shared__name.html#aba4ae811264cbb7e664ce126b591cbc7" target="_top" xlink:title="Hasher of Shared_name for boost.unordered et al.">
<polygon fill="white" stroke="black" points="343.5,-553 343.5,-579 453.5,-579 453.5,-553 343.5,-553"/>
<text text-anchor="start" x="351.5" y="-568.6" font-family="Helvetica,sans-Serif" font-size="8.00">ipc::util::Shared_name</text>
<text text-anchor="middle" x="398.5" y="-559.6" font-family="Helvetica,sans-Serif" font-size="8.00">::hash_value</text>
</a>
</g>
</g>
<!-- Node1&#45;&gt;Node10 -->
<g id="edge12" class="edge">
<title>Node1&#45;&gt;Node10</title>
<path fill="none" stroke="midnightblue" d="M558.93,-433.68C544.02,-461.03 511.77,-513.53 470,-543 464.42,-546.93 458.14,-550.22 451.67,-552.97"/>
<polygon fill="midnightblue" stroke="midnightblue" points="562.19,-435 563.78,-424.52 556.01,-431.72 562.19,-435"/>
</g>
<!-- Node11 -->
<g id="node11" class="node">
<title>Node11</title>
<g id="a_node11"><a xlink:href="classipc_1_1session_1_1shm_1_1arena__lend_1_1jemalloc_1_1Session__impl.html#a46155078d8764c71a8d75db64345074b" target="_top" xlink:title="To be invoked at most once, synchronously sets up nearly&#45;all aspects of this arena&#45;lending&#45;SHM&#45;capabl...">
<polygon fill="white" stroke="black" points="340.5,-498.5 340.5,-533.5 456.5,-533.5 456.5,-498.5 340.5,-498.5"/>
<text text-anchor="start" x="348.5" y="-523.1" font-family="Helvetica,sans-Serif" font-size="8.00">ipc::session::shm::</text>
<text text-anchor="start" x="348.5" y="-514.1" font-family="Helvetica,sans-Serif" font-size="8.00">arena_lend::jemalloc</text>
<text text-anchor="middle" x="398.5" y="-505.1" font-family="Helvetica,sans-Serif" font-size="8.00">::Session_impl::init_shm</text>
</a>
</g>
</g>
<!-- Node1&#45;&gt;Node11 -->
<g id="edge13" class="edge">
<title>Node1&#45;&gt;Node11</title>
<path fill="none" stroke="midnightblue" d="M550.6,-431.29C531.76,-447.28 500.3,-472.33 470,-489 463.8,-492.41 457.08,-495.59 450.33,-498.47"/>
<polygon fill="midnightblue" stroke="midnightblue" points="553.03,-433.82 558.33,-424.65 548.46,-428.52 553.03,-433.82"/>
</g>
<!-- Node12 -->
<g id="node12" class="node">
<title>Node12</title>
<g id="a_node12"><a xlink:href="classipc_1_1session_1_1Server__session__impl.html#a2e76a7808eb096c87fe186f245ccaa66" target="_top" xlink:title="See Server_session_mv counterpart.">
<polygon fill="white" stroke="black" points="335,-453 335,-479 462,-479 462,-453 335,-453"/>
<text text-anchor="start" x="343" y="-468.6" font-family="Helvetica,sans-Serif" font-size="8.00">ipc::session::Server</text>
<text text-anchor="middle" x="398.5" y="-459.6" font-family="Helvetica,sans-Serif" font-size="8.00">_session_impl::mdt_builder</text>
</a>
</g>
</g>
<!-- Node1&#45;&gt;Node12 -->
<g id="edge14" class="edge">
<title>Node1&#45;&gt;Node12</title>
<path fill="none" stroke="midnightblue" d="M529.31,-427.48C503.75,-435.07 470.18,-445.03 443.58,-452.92"/>
<polygon fill="midnightblue" stroke="midnightblue" points="530.44,-430.8 539.03,-424.6 528.45,-424.08 530.44,-430.8"/>
</g>
<!-- Node13 -->
<g id="node13" class="node">
<title>Node13</title>
<g id="a_node13"><a xlink:href="classipc_1_1session_1_1Server__session__impl.html#a997978ea3e1703ff561a4e0f0b7bd359" target="_top" xlink:title="In thread W, handler for m_master_channel receiving a passive&#45;open (a/k/a open&#45;channel&#45;to&#45;server) req...">
<polygon fill="white" stroke="black" points="332.5,-398.5 332.5,-433.5 464.5,-433.5 464.5,-398.5 332.5,-398.5"/>
<text text-anchor="start" x="340.5" y="-423.1" font-family="Helvetica,sans-Serif" font-size="8.00">ipc::session::Server</text>
<text text-anchor="start" x="340.5" y="-414.1" font-family="Helvetica,sans-Serif" font-size="8.00">_session_impl::on_master</text>
<text text-anchor="middle" x="398.5" y="-405.1" font-family="Helvetica,sans-Serif" font-size="8.00">_channel_open_channel_req</text>
</a>
</g>
</g>
<!-- Node1&#45;&gt;Node13 -->
<g id="edge15" class="edge">
<title>Node1&#45;&gt;Node13</title>
<path fill="none" stroke="midnightblue" d="M495.55,-416C485.27,-416 474.75,-416 464.61,-416"/>
<polygon fill="midnightblue" stroke="midnightblue" points="495.74,-419.5 505.74,-416 495.74,-412.5 495.74,-419.5"/>
</g>
<!-- Node14 -->
<g id="node14" class="node">
<title>Node14</title>
<g id="a_node14"><a xlink:href="classipc_1_1transport_1_1Native__socket__stream__acceptor.html#af52346c8df9efc457efaec35bc6c0807" target="_top" xlink:title="Handler for incoming connection on m_acceptor.">
<polygon fill="white" stroke="black" points="327,-326.5 327,-361.5 470,-361.5 470,-326.5 327,-326.5"/>
<text text-anchor="start" x="335" y="-351.1" font-family="Helvetica,sans-Serif" font-size="8.00">ipc::transport::Native</text>
<text text-anchor="start" x="335" y="-342.1" font-family="Helvetica,sans-Serif" font-size="8.00">_socket_stream_acceptor</text>
<text text-anchor="middle" x="398.5" y="-333.1" font-family="Helvetica,sans-Serif" font-size="8.00">::on_next_peer_socket_or_error</text>
</a>
</g>
</g>
<!-- Node1&#45;&gt;Node14 -->
<g id="edge16" class="edge">
<title>Node1&#45;&gt;Node14</title>
<path fill="none" stroke="midnightblue" d="M538.67,-403.47C511.57,-391.89 471.02,-374.56 440.67,-361.59"/>
<polygon fill="midnightblue" stroke="midnightblue" points="537.44,-406.75 548.01,-407.46 540.19,-400.31 537.44,-406.75"/>
</g>
<!-- Node15 -->
<g id="node15" class="node">
<title>Node15</title>
<g id="a_node15"><a xlink:href="classipc_1_1util_1_1Shared__name.html#a54dc5077333284fda9e8d2df8b0e9b91" target="_top" xlink:title="Returns new object equal to Shared_name(src1) += src2.">
<polygon fill="white" stroke="black" points="343.5,-281 343.5,-307 453.5,-307 453.5,-281 343.5,-281"/>
<text text-anchor="start" x="351.5" y="-296.6" font-family="Helvetica,sans-Serif" font-size="8.00">ipc::util::Shared_name</text>
<text text-anchor="middle" x="398.5" y="-287.6" font-family="Helvetica,sans-Serif" font-size="8.00">::operator+</text>
</a>
</g>
</g>
<!-- Node1&#45;&gt;Node15 -->
<g id="edge19" class="edge">
<title>Node1&#45;&gt;Node15</title>
<path fill="none" stroke="midnightblue" d="M555.56,-399.18C538.55,-377.29 506,-339.21 470,-317 463.75,-313.15 456.8,-309.87 449.75,-307.1"/>
<polygon fill="midnightblue" stroke="midnightblue" points="552.84,-401.38 561.68,-407.22 558.41,-397.14 552.84,-401.38"/>
</g>
<!-- Node16 -->
<g id="node16" class="node">
<title>Node16</title>
<g id="a_node16"><a xlink:href="classipc_1_1util_1_1Shared__name.html#a1bcac1c10e01ba11dcc437b3c32bbe6c" target="_top" xlink:title="Appends the given other Shared_name.">
<polygon fill="white" stroke="black" points="343.5,-218 343.5,-244 453.5,-244 453.5,-218 343.5,-218"/>
<text text-anchor="start" x="351.5" y="-233.6" font-family="Helvetica,sans-Serif" font-size="8.00">ipc::util::Shared_name</text>
<text text-anchor="middle" x="398.5" y="-224.6" font-family="Helvetica,sans-Serif" font-size="8.00">::operator+=</text>
</a>
</g>
</g>
<!-- Node1&#45;&gt;Node16 -->
<g id="edge20" class="edge">
<title>Node1&#45;&gt;Node16</title>
<path fill="none" stroke="midnightblue" d="M559.27,-398.22C544.26,-369.02 511.17,-310.35 470,-272 457.88,-260.71 442.11,-251.17 428.56,-244.15"/>
<polygon fill="midnightblue" stroke="midnightblue" points="556.19,-399.87 563.81,-407.23 562.44,-396.73 556.19,-399.87"/>
</g>
<!-- Node18 -->
<g id="node18" class="node">
<title>Node18</title>
<g id="a_node18"><a xlink:href="classipc_1_1util_1_1Shared__name.html#a956fdac1bb4cfab414b30091bec43f70" target="_top" xlink:title="Appends a folder separator followed by the given other Shared_name.">
<polygon fill="white" stroke="black" points="343.5,-173 343.5,-199 453.5,-199 453.5,-173 343.5,-173"/>
<text text-anchor="start" x="351.5" y="-188.6" font-family="Helvetica,sans-Serif" font-size="8.00">ipc::util::Shared_name</text>
<text text-anchor="middle" x="398.5" y="-179.6" font-family="Helvetica,sans-Serif" font-size="8.00">::operator/=</text>
</a>
</g>
</g>
<!-- Node1&#45;&gt;Node18 -->
<g id="edge23" class="edge">
<title>Node1&#45;&gt;Node18</title>
<path fill="none" stroke="midnightblue" d="M564.53,-397.58C555.96,-357.18 529.99,-260.24 470,-208 465.17,-203.79 459.53,-200.38 453.59,-197.63"/>
<polygon fill="midnightblue" stroke="midnightblue" points="561.1,-398.27 566.5,-407.39 567.97,-396.9 561.1,-398.27"/>
</g>
<!-- Node20 -->
<g id="node20" class="node">
<title>Node20</title>
<g id="a_node20"><a xlink:href="namespaceipc_1_1util.html#aea456ff91117633e731804a894aa94da" target="_top" xlink:title="Returns true if and only if val1.str() &lt; val2.str().">
<polygon fill="white" stroke="black" points="351,-136.5 351,-153.5 446,-153.5 446,-136.5 351,-136.5"/>
<text text-anchor="middle" x="398.5" y="-143.1" font-family="Helvetica,sans-Serif" font-size="8.00">ipc::util::operator&lt;</text>
</a>
</g>
</g>
<!-- Node1&#45;&gt;Node20 -->
<g id="edge25" class="edge">
<title>Node1&#45;&gt;Node20</title>
<path fill="none" stroke="midnightblue" d="M566.46,-397.27C561.56,-350.35 542.12,-226.97 470,-163 463.29,-157.05 454.88,-153.01 446.23,-150.29"/>
<polygon fill="midnightblue" stroke="midnightblue" points="563,-397.84 567.41,-407.47 569.97,-397.19 563,-397.84"/>
</g>
<!-- Node21 -->
<g id="node21" class="node">
<title>Node21</title>
<g id="a_node21"><a xlink:href="classipc_1_1util_1_1Shared__name.html#af7728c93fdf29479bbb2482e02f05cbf" target="_top" xlink:title="Prints embellished string representation of the given Shared_name to the given ostream.">
<polygon fill="white" stroke="black" points="343.5,-91 343.5,-117 453.5,-117 453.5,-91 343.5,-91"/>
<text text-anchor="start" x="351.5" y="-106.6" font-family="Helvetica,sans-Serif" font-size="8.00">ipc::util::Shared_name</text>
<text text-anchor="middle" x="398.5" y="-97.6" font-family="Helvetica,sans-Serif" font-size="8.00">::operator&lt;&lt;</text>
</a>
</g>
</g>
<!-- Node1&#45;&gt;Node21 -->
<g id="edge26" class="edge">
<title>Node1&#45;&gt;Node21</title>
<path fill="none" stroke="midnightblue" d="M567.21,-397.36C564.06,-346.58 548.3,-204.4 470,-127 465.33,-122.38 459.72,-118.69 453.74,-115.75"/>
<polygon fill="midnightblue" stroke="midnightblue" points="563.73,-397.69 567.75,-407.49 570.72,-397.32 563.73,-397.69"/>
</g>
<!-- Node22 -->
<g id="node22" class="node">
<title>Node22</title>
<g id="a_node22"><a xlink:href="namespaceipc_1_1util.html#adad98b6935e58bdc92dfcf57bf60345e" target="_top" xlink:title="Returns true if and only if val1.str() == val2.str().">
<polygon fill="white" stroke="black" points="347.5,-54.5 347.5,-71.5 449.5,-71.5 449.5,-54.5 347.5,-54.5"/>
<text text-anchor="middle" x="398.5" y="-61.1" font-family="Helvetica,sans-Serif" font-size="8.00">ipc::util::operator==</text>
</a>
</g>
</g>
<!-- Node1&#45;&gt;Node22 -->
<g id="edge27" class="edge">
<title>Node1&#45;&gt;Node22</title>
<path fill="none" stroke="midnightblue" d="M568.5,-397.19C568.94,-340.55 562.16,-170.03 470,-81 464.28,-75.47 457.1,-71.57 449.53,-68.84"/>
<polygon fill="midnightblue" stroke="midnightblue" points="565,-397.42 568.33,-407.48 572,-397.54 565,-397.42"/>
</g>
<!-- Node23 -->
<g id="node23" class="node">
<title>Node23</title>
<g id="a_node23"><a xlink:href="namespaceipc_1_1util.html#ad6be904bf1b0fe6659a11dec0fabbf6b" target="_top" xlink:title="Utility that invokes remove_each_persistent_if() with the filter that returns true (yes,...">
<polygon fill="white" stroke="black" points="343.5,-0.5 343.5,-35.5 453.5,-35.5 453.5,-0.5 343.5,-0.5"/>
<text text-anchor="start" x="351.5" y="-25.1" font-family="Helvetica,sans-Serif" font-size="8.00">ipc::util::remove_each</text>
<text text-anchor="start" x="351.5" y="-16.1" font-family="Helvetica,sans-Serif" font-size="8.00">_persistent_with_name</text>
<text text-anchor="middle" x="398.5" y="-7.1" font-family="Helvetica,sans-Serif" font-size="8.00">_prefix</text>
</a>
</g>
</g>
<!-- Node1&#45;&gt;Node23 -->
<g id="edge28" class="edge">
<title>Node1&#45;&gt;Node23</title>
<path fill="none" stroke="midnightblue" d="M568.65,-397.29C569.7,-337.8 564.93,-150.72 470,-45 465.45,-39.93 459.83,-35.8 453.78,-32.45"/>
<polygon fill="midnightblue" stroke="midnightblue" points="565.15,-397.34 568.39,-407.42 572.15,-397.52 565.15,-397.34"/>
</g>
<!-- Node4 -->
<g id="node4" class="node">
<title>Node4</title>
<g id="a_node4"><a xlink:href="classipc_1_1session_1_1shm_1_1arena__lend_1_1jemalloc_1_1Client__session__impl.html#a2b5cecc4850a58fd597542df2fc4c890" target="_top" xlink:title="See session::Client_session_impl::Client_session_impl() counterpart.">
<polygon fill="white" stroke="black" points="0,-735 0,-779 103,-779 103,-735 0,-735"/>
<text text-anchor="start" x="8" y="-768.6" font-family="Helvetica,sans-Serif" font-size="8.00">ipc::session::shm::</text>
<text text-anchor="start" x="8" y="-759.6" font-family="Helvetica,sans-Serif" font-size="8.00">arena_lend::jemalloc</text>
<text text-anchor="start" x="8" y="-750.6" font-family="Helvetica,sans-Serif" font-size="8.00">::Client_session_impl</text>
<text text-anchor="middle" x="51.5" y="-741.6" font-family="Helvetica,sans-Serif" font-size="8.00">::Client_session_impl</text>
</a>
</g>
</g>
<!-- Node3&#45;&gt;Node4 -->
<g id="edge3" class="edge">
<title>Node3&#45;&gt;Node4</title>
<path fill="none" stroke="midnightblue" d="M153.26,-757C136.78,-757 119.12,-757 103.25,-757"/>
<polygon fill="midnightblue" stroke="midnightblue" points="153.34,-760.5 163.34,-757 153.34,-753.5 153.34,-760.5"/>
</g>
<!-- Node6&#45;&gt;Node3 -->
<g id="edge6" class="edge">
<title>Node6&#45;&gt;Node3</title>
<path fill="none" stroke="midnightblue" d="M322.01,-736.56C303.34,-740.16 283.78,-743.93 266.62,-747.24"/>
<polygon fill="midnightblue" stroke="midnightblue" points="322.82,-739.97 331.97,-734.64 321.49,-733.09 322.82,-739.97"/>
</g>
<!-- Node6&#45;&gt;Node5 -->
<g id="edge7" class="edge">
<title>Node6&#45;&gt;Node5</title>
<path fill="none" stroke="midnightblue" d="M322.11,-707.05C306.94,-704.04 291.18,-700.91 276.59,-698.02"/>
<polygon fill="midnightblue" stroke="midnightblue" points="321.48,-710.49 331.97,-709 322.85,-703.62 321.48,-710.49"/>
</g>
<!-- Node7&#45;&gt;Node7 -->
<g id="edge10" class="edge">
<title>Node7&#45;&gt;Node7</title>
<path fill="none" stroke="midnightblue" d="M428.11,-644.1C423.95,-648.77 414.08,-652 398.5,-652 372.93,-652 362.75,-643.31 367.94,-633.78"/>
<polygon fill="midnightblue" stroke="midnightblue" points="431.62,-644.06 429.06,-633.78 424.65,-643.42 431.62,-644.06"/>
</g>
<!-- Node8 -->
<g id="node8" class="node">
<title>Node8</title>
<g id="a_node8"><a xlink:href="classipc_1_1transport_1_1sync__io_1_1Native__socket__stream_1_1Impl.html#ad6443fb49be059dbe76c75d86a18197e" target="_top" xlink:title="The core of sync_connect(), written in the sync_io&#45;pattern style.">
<polygon fill="white" stroke="black" points="153.5,-598.5 153.5,-633.5 276.5,-633.5 276.5,-598.5 153.5,-598.5"/>
<text text-anchor="start" x="161.5" y="-623.1" font-family="Helvetica,sans-Serif" font-size="8.00">ipc::transport::sync</text>
<text text-anchor="start" x="161.5" y="-614.1" font-family="Helvetica,sans-Serif" font-size="8.00">_io::Native_socket_stream</text>
<text text-anchor="middle" x="215" y="-605.1" font-family="Helvetica,sans-Serif" font-size="8.00">::Impl::async_connect</text>
</a>
</g>
</g>
<!-- Node7&#45;&gt;Node8 -->
<g id="edge9" class="edge">
<title>Node7&#45;&gt;Node8</title>
<path fill="none" stroke="midnightblue" d="M322.98,-616C307.56,-616 291.5,-616 276.65,-616"/>
<polygon fill="midnightblue" stroke="midnightblue" points="323,-619.5 333,-616 323,-612.5 323,-619.5"/>
</g>
<!-- Node9 -->
<g id="node9" class="node">
<title>Node9</title>
<g id="a_node9"><a xlink:href="classipc_1_1transport_1_1Native__socket__stream__acceptor.html#a77795acb028a95a4804f9b3ef18d99b0" target="_top" xlink:title="Creates the Native_socket_stream_acceptor and immediately begins listening in the background,...">
<polygon fill="white" stroke="black" points="139,-435.5 139,-470.5 291,-470.5 291,-435.5 139,-435.5"/>
<text text-anchor="start" x="147" y="-460.1" font-family="Helvetica,sans-Serif" font-size="8.00">ipc::transport::Native</text>
<text text-anchor="start" x="147" y="-451.1" font-family="Helvetica,sans-Serif" font-size="8.00">_socket_stream_acceptor</text>
<text text-anchor="middle" x="215" y="-442.1" font-family="Helvetica,sans-Serif" font-size="8.00">::Native_socket_stream_acceptor</text>
</a>
</g>
</g>
<!-- Node7&#45;&gt;Node9 -->
<g id="edge11" class="edge">
<title>Node7&#45;&gt;Node9</title>
<path fill="none" stroke="midnightblue" d="M333.68,-593.41C331.37,-592.01 329.14,-590.55 327,-589 281.31,-555.96 243.69,-499.65 226.33,-470.96"/>
<polygon fill="midnightblue" stroke="midnightblue" points="332.42,-596.71 342.87,-598.43 335.78,-590.57 332.42,-596.71"/>
</g>
<!-- Node14&#45;&gt;Node9 -->
<g id="edge17" class="edge">
<title>Node14&#45;&gt;Node9</title>
<path fill="none" stroke="midnightblue" d="M359.62,-366.75C325.64,-387.16 276.48,-416.68 245.39,-435.35"/>
<polygon fill="midnightblue" stroke="midnightblue" points="361.57,-369.66 368.34,-361.51 357.96,-363.66 361.57,-369.66"/>
</g>
<!-- Node14&#45;&gt;Node14 -->
<g id="edge18" class="edge">
<title>Node14&#45;&gt;Node14</title>
<path fill="none" stroke="midnightblue" d="M428.11,-372.1C423.95,-376.77 414.08,-380 398.5,-380 372.93,-380 362.75,-371.31 367.94,-361.78"/>
<polygon fill="midnightblue" stroke="midnightblue" points="431.62,-372.06 429.06,-361.78 424.65,-371.42 431.62,-372.06"/>
</g>
<!-- Node16&#45;&gt;Node16 -->
<g id="edge21" class="edge">
<title>Node16&#45;&gt;Node16</title>
<path fill="none" stroke="midnightblue" d="M429.35,-254.08C426.21,-258.97 415.93,-262.5 398.5,-262.5 370.61,-262.5 361.02,-253.46 369.74,-244.27"/>
<polygon fill="midnightblue" stroke="midnightblue" points="432.76,-253.32 427.26,-244.27 425.92,-254.78 432.76,-253.32"/>
</g>
<!-- Node17 -->
<g id="node17" class="node">
<title>Node17</title>
<g id="a_node17"><a xlink:href="classipc_1_1util_1_1Shared__name.html#a762bda2d73b31c9427c05c7c1a7abbcb" target="_top" xlink:title="Simply appends a folder separator followed by raw_name_to_append to the current value of str().">
<polygon fill="white" stroke="black" points="160,-218 160,-244 270,-244 270,-218 160,-218"/>
<text text-anchor="start" x="168" y="-233.6" font-family="Helvetica,sans-Serif" font-size="8.00">ipc::util::Shared_name</text>
<text text-anchor="middle" x="215" y="-224.6" font-family="Helvetica,sans-Serif" font-size="8.00">::operator/=</text>
</a>
</g>
</g>
<!-- Node16&#45;&gt;Node17 -->
<g id="edge22" class="edge">
<title>Node16&#45;&gt;Node17</title>
<path fill="none" stroke="midnightblue" d="M332.83,-231C312.29,-231 289.81,-231 270.1,-231"/>
<polygon fill="midnightblue" stroke="midnightblue" points="333.04,-234.5 343.04,-231 333.04,-227.5 333.04,-234.5"/>
</g>
<!-- Node19 -->
<g id="node19" class="node">
<title>Node19</title>
<g id="a_node19"><a xlink:href="classipc_1_1util_1_1Shared__name.html#a99c77008fb2c507e32e05272812c4782" target="_top" xlink:title="Similar to the overload that takes const Source&amp;, but takes NUL&#45;terminated string instead.">
<polygon fill="white" stroke="black" points="160,-173 160,-199 270,-199 270,-173 160,-173"/>
<text text-anchor="start" x="168" y="-188.6" font-family="Helvetica,sans-Serif" font-size="8.00">ipc::util::Shared_name</text>
<text text-anchor="middle" x="215" y="-179.6" font-family="Helvetica,sans-Serif" font-size="8.00">::operator/=</text>
</a>
</g>
</g>
<!-- Node18&#45;&gt;Node19 -->
<g id="edge24" class="edge">
<title>Node18&#45;&gt;Node19</title>
<path fill="none" stroke="midnightblue" d="M332.83,-186C312.29,-186 289.81,-186 270.1,-186"/>
<polygon fill="midnightblue" stroke="midnightblue" points="333.04,-189.5 343.04,-186 333.04,-182.5 333.04,-189.5"/>
</g>
</g>
</svg>
