<?xml version="1.0" encoding="UTF-8" standalone="no"?>
<!DOCTYPE svg PUBLIC "-//W3C//DTD SVG 1.1//EN"
 "http://www.w3.org/Graphics/SVG/1.1/DTD/svg11.dtd">
<!-- Generated by graphviz version 2.43.0 (0)
 -->
<!-- Title: ipc::transport::sync_io::Native_socket_stream::start_receive_native_handle_ops_fwd Pages: 1 -->
<svg width="511pt" height="53pt"
 viewBox="0.00 0.00 511.00 53.00" xmlns="http://www.w3.org/2000/svg" xmlns:xlink="http://www.w3.org/1999/xlink">
<g id="graph0" class="graph" transform="scale(1 1) rotate(0) translate(4 49)">
<title>ipc::transport::sync_io::Native_socket_stream::start_receive_native_handle_ops_fwd</title>
<polygon fill="white" stroke="transparent" points="-4,4 -4,-49 507,-49 507,4 -4,4"/>
<!-- Node1 -->
<g id="node1" class="node">
<title>Node1</title>
<g id="a_node1"><a xlink:title="Template&#45;free version of start_receive_native_handle_ops() as required by pImpl idiom.">
<polygon fill="#bfbfbf" stroke="black" points="366,-0.5 366,-44.5 503,-44.5 503,-0.5 366,-0.5"/>
<text text-anchor="start" x="374" y="-34.1" font-family="Helvetica,sans-Serif" font-size="8.00">ipc::transport::sync</text>
<text text-anchor="start" x="374" y="-25.1" font-family="Helvetica,sans-Serif" font-size="8.00">_io::Native_socket_stream</text>
<text text-anchor="start" x="374" y="-16.1" font-family="Helvetica,sans-Serif" font-size="8.00">::start_receive_native_handle</text>
<text text-anchor="middle" x="434.5" y="-7.1" font-family="Helvetica,sans-Serif" font-size="8.00">_ops_fwd</text>
</a>
</g>
</g>
<!-- Node2 -->
<g id="node2" class="node">
<title>Node2</title>
<g id="a_node2"><a xlink:href="classipc_1_1transport_1_1sync__io_1_1Native__socket__stream.html#ac6d65bc2852ad8800cb57a23311fbe7e" target="_top" xlink:title="Implements Native_handle_receiver API per contract.">
<polygon fill="white" stroke="black" points="175,-5 175,-40 330,-40 330,-5 175,-5"/>
<text text-anchor="start" x="183" y="-29.6" font-family="Helvetica,sans-Serif" font-size="8.00">ipc::transport::sync</text>
<text text-anchor="start" x="183" y="-20.6" font-family="Helvetica,sans-Serif" font-size="8.00">_io::Native_socket_stream</text>
<text text-anchor="middle" x="252.5" y="-11.6" font-family="Helvetica,sans-Serif" font-size="8.00">::start_receive_native_handle_ops</text>
</a>
</g>
</g>
<!-- Node1&#45;&gt;Node2 -->
<g id="edge1" class="edge">
<title>Node1&#45;&gt;Node2</title>
<path fill="none" stroke="midnightblue" d="M355.73,-22.5C347.26,-22.5 338.64,-22.5 330.19,-22.5"/>
<polygon fill="midnightblue" stroke="midnightblue" points="355.96,-26 365.96,-22.5 355.96,-19 355.96,-26"/>
</g>
<!-- Node3 -->
<g id="node3" class="node">
<title>Node3</title>
<g id="a_node3"><a xlink:href="classipc_1_1transport_1_1sync__io_1_1Native__socket__stream_1_1Impl.html#a12e99a2479fbf08b2fa32a2f17ed1ca7" target="_top" xlink:title="See Native_socket_stream counterpart.">
<polygon fill="white" stroke="black" points="0,-5 0,-40 139,-40 139,-5 0,-5"/>
<text text-anchor="start" x="8" y="-29.6" font-family="Helvetica,sans-Serif" font-size="8.00">ipc::transport::sync</text>
<text text-anchor="start" x="8" y="-20.6" font-family="Helvetica,sans-Serif" font-size="8.00">_io::Native_socket_stream</text>
<text text-anchor="middle" x="69.5" y="-11.6" font-family="Helvetica,sans-Serif" font-size="8.00">::Impl::start_receive_blob_ops</text>
</a>
</g>
</g>
<!-- Node2&#45;&gt;Node3 -->
<g id="edge2" class="edge">
<title>Node2&#45;&gt;Node3</title>
<path fill="none" stroke="midnightblue" d="M164.68,-22.5C156.08,-22.5 147.44,-22.5 139.06,-22.5"/>
<polygon fill="midnightblue" stroke="midnightblue" points="164.74,-26 174.74,-22.5 164.74,-19 164.74,-26"/>
</g>
</g>
</svg>
