<?xml version="1.0" encoding="UTF-8" standalone="no"?>
<!DOCTYPE svg PUBLIC "-//W3C//DTD SVG 1.1//EN"
 "http://www.w3.org/Graphics/SVG/1.1/DTD/svg11.dtd">
<!-- Generated by graphviz version 2.43.0 (0)
 -->
<!-- Title: ipc::transport::Blob_stream_mq_receiver&lt; Persistent_mq_handle &gt; Pages: 1 -->
<svg width="746pt" height="270pt"
 viewBox="0.00 0.00 746.00 269.50" xmlns="http://www.w3.org/2000/svg" xmlns:xlink="http://www.w3.org/1999/xlink">
<g id="graph0" class="graph" transform="scale(1 1) rotate(0) translate(4 265.5)">
<title>ipc::transport::Blob_stream_mq_receiver&lt; Persistent_mq_handle &gt;</title>
<polygon fill="white" stroke="transparent" points="-4,4 -4,-265.5 742,-265.5 742,4 -4,4"/>
<!-- Node1 -->
<g id="node1" class="node">
<title>Node1</title>
<g id="a_node1"><a xlink:title="Implements Blob_receiver concept by using an adopted Persistent_mq_handle MQ handle to an MQ (message...">
<polygon fill="#bfbfbf" stroke="black" points="621,-73 621,-108 738,-108 738,-73 621,-73"/>
<text text-anchor="start" x="629" y="-97.6" font-family="Helvetica,sans-Serif" font-size="8.00">ipc::transport::Blob</text>
<text text-anchor="start" x="629" y="-88.6" font-family="Helvetica,sans-Serif" font-size="8.00">_stream_mq_receiver&lt;</text>
<text text-anchor="middle" x="679.5" y="-79.6" font-family="Helvetica,sans-Serif" font-size="8.00"> Persistent_mq_handle &gt;</text>
</a>
</g>
</g>
<!-- Node2 -->
<g id="node2" class="node">
<title>Node2</title>
<g id="a_node2"><a xlink:href="classipc_1_1transport_1_1Blob__stream__mq__base.html" target="_top" xlink:title="Base of Blob_stream_mq_sender and Blob_stream_mq_receiver containing certain static facilities,...">
<polygon fill="white" stroke="black" points="314,-226 314,-261 453,-261 453,-226 314,-226"/>
<text text-anchor="start" x="322" y="-250.6" font-family="Helvetica,sans-Serif" font-size="8.00">ipc::transport::Blob</text>
<text text-anchor="start" x="322" y="-241.6" font-family="Helvetica,sans-Serif" font-size="8.00">_stream_mq_base&lt; Persistent</text>
<text text-anchor="middle" x="383.5" y="-232.6" font-family="Helvetica,sans-Serif" font-size="8.00">_mq_handle &gt;</text>
</a>
</g>
</g>
<!-- Node2&#45;&gt;Node1 -->
<g id="edge1" class="edge">
<title>Node2&#45;&gt;Node1</title>
<path fill="none" stroke="midnightblue" d="M441.13,-221.87C445.18,-220.12 449.17,-218.32 453,-216.5 525.95,-181.93 607.8,-133.68 649.97,-108.08"/>
<polygon fill="midnightblue" stroke="midnightblue" points="439.5,-218.76 431.65,-225.88 442.23,-225.21 439.5,-218.76"/>
</g>
<!-- Node3 -->
<g id="node3" class="node">
<title>Node3</title>
<g id="a_node3"><a xlink:href="classipc_1_1util_1_1Shared__name.html" target="_top" xlink:title="String&#45;wrapping abstraction representing a name uniquely distinguishing a kernel&#45;persistent entity fr...">
<polygon fill="white" stroke="black" points="328.5,-100 328.5,-117 438.5,-117 438.5,-100 328.5,-100"/>
<text text-anchor="middle" x="383.5" y="-106.6" font-family="Helvetica,sans-Serif" font-size="8.00">ipc::util::Shared_name</text>
</a>
</g>
</g>
<!-- Node3&#45;&gt;Node1 -->
<g id="edge2" class="edge">
<title>Node3&#45;&gt;Node1</title>
<path fill="none" stroke="#9a32cd" stroke-dasharray="5,2" d="M449.07,-104.55C500.34,-101.41 571.39,-97.06 620.78,-94.03"/>
<polygon fill="#9a32cd" stroke="#9a32cd" points="448.53,-101.07 438.77,-105.18 448.96,-108.06 448.53,-101.07"/>
<text text-anchor="middle" x="537" y="-105.1" font-family="Helvetica,sans-Serif" font-size="8.00"> S_RESOURCE_TYPE_ID</text>
</g>
<!-- Node3&#45;&gt;Node3 -->
<g id="edge3" class="edge">
<title>Node3&#45;&gt;Node3</title>
<path fill="none" stroke="#9a32cd" stroke-dasharray="5,2" d="M361.03,-125.98C361.55,-131.32 369.04,-135.5 383.5,-135.5 405.53,-135.5 411.38,-125.79 401.06,-117.07"/>
<polygon fill="#9a32cd" stroke="#9a32cd" points="364.18,-127.52 365.94,-117.07 358.05,-124.14 364.18,-127.52"/>
<text text-anchor="middle" x="383.5" y="-201.1" font-family="Helvetica,sans-Serif" font-size="8.00"> S_1ST_OR_ONLY</text>
<text text-anchor="middle" x="383.5" y="-192.1" font-family="Helvetica,sans-Serif" font-size="8.00">S_EMPTY</text>
<text text-anchor="start" x="345" y="-183.1" font-family="Helvetica,sans-Serif" font-size="8.00">S_RESOURCE_TYPE</text>
<text text-anchor="middle" x="383.5" y="-174.1" font-family="Helvetica,sans-Serif" font-size="8.00">_ID_MUTEX</text>
<text text-anchor="start" x="345" y="-165.1" font-family="Helvetica,sans-Serif" font-size="8.00">S_RESOURCE_TYPE</text>
<text text-anchor="middle" x="383.5" y="-156.1" font-family="Helvetica,sans-Serif" font-size="8.00">_ID_SHM</text>
<text text-anchor="middle" x="383.5" y="-147.1" font-family="Helvetica,sans-Serif" font-size="8.00">S_ROOT_MAGIC</text>
<text text-anchor="middle" x="383.5" y="-138.1" font-family="Helvetica,sans-Serif" font-size="8.00">S_SENTINEL</text>
</g>
<!-- Node4 -->
<g id="node4" class="node">
<title>Node4</title>
<g id="a_node4"><a xlink:title=" ">
<polygon fill="white" stroke="#bfbfbf" points="150,-136 150,-153 190,-153 190,-136 150,-136"/>
<text text-anchor="middle" x="170" y="-142.6" font-family="Helvetica,sans-Serif" font-size="8.00">size_t</text>
</a>
</g>
</g>
<!-- Node4&#45;&gt;Node3 -->
<g id="edge4" class="edge">
<title>Node4&#45;&gt;Node3</title>
<path fill="none" stroke="#9a32cd" stroke-dasharray="5,2" d="M200.36,-139.5C234.44,-133.7 291.22,-124.04 332.34,-117.04"/>
<polygon fill="#9a32cd" stroke="#9a32cd" points="199.41,-136.11 190.14,-141.24 200.59,-143.01 199.41,-136.11"/>
<text text-anchor="middle" x="263" y="-136.1" font-family="Helvetica,sans-Serif" font-size="8.00"> S_MAX_LENGTH</text>
</g>
<!-- Node5 -->
<g id="node5" class="node">
<title>Node5</title>
<g id="a_node5"><a xlink:title=" ">
<polygon fill="white" stroke="#bfbfbf" points="128,-100 128,-117 212,-117 212,-100 128,-100"/>
<text text-anchor="middle" x="170" y="-106.6" font-family="Helvetica,sans-Serif" font-size="8.00">static const char</text>
</a>
</g>
</g>
<!-- Node5&#45;&gt;Node3 -->
<g id="edge5" class="edge">
<title>Node5&#45;&gt;Node3</title>
<path fill="none" stroke="#9a32cd" stroke-dasharray="5,2" d="M222.12,-108.5C254.25,-108.5 295.67,-108.5 328.37,-108.5"/>
<polygon fill="#9a32cd" stroke="#9a32cd" points="222.03,-105 212.03,-108.5 222.03,-112 222.03,-105"/>
<text text-anchor="middle" x="263" y="-111.1" font-family="Helvetica,sans-Serif" font-size="8.00"> S_SEPARATOR</text>
</g>
<!-- Node6 -->
<g id="node6" class="node">
<title>Node6</title>
<g id="a_node6"><a xlink:title=" ">
<polygon fill="white" stroke="black" points="140.5,-64 140.5,-81 199.5,-81 199.5,-64 140.5,-64"/>
<text text-anchor="middle" x="170" y="-70.6" font-family="Helvetica,sans-Serif" font-size="8.00">std::string</text>
</a>
</g>
</g>
<!-- Node6&#45;&gt;Node3 -->
<g id="edge6" class="edge">
<title>Node6&#45;&gt;Node3</title>
<path fill="none" stroke="#9a32cd" stroke-dasharray="5,2" d="M209.65,-79.08C244.06,-84.94 294.62,-93.54 332.18,-99.93"/>
<polygon fill="#9a32cd" stroke="#9a32cd" points="209.97,-75.58 199.52,-77.36 208.79,-82.48 209.97,-75.58"/>
<text text-anchor="middle" x="263" y="-96.1" font-family="Helvetica,sans-Serif" font-size="8.00"> m_raw_name</text>
</g>
<!-- Node7 -->
<g id="node7" class="node">
<title>Node7</title>
<g id="a_node7"><a xlink:title=" ">
<polygon fill="white" stroke="black" points="0,-59.5 0,-85.5 91,-85.5 91,-59.5 0,-59.5"/>
<text text-anchor="start" x="8" y="-75.1" font-family="Helvetica,sans-Serif" font-size="8.00">std::basic_string&lt;</text>
<text text-anchor="middle" x="45.5" y="-66.1" font-family="Helvetica,sans-Serif" font-size="8.00"> Char &gt;</text>
</a>
</g>
</g>
<!-- Node7&#45;&gt;Node6 -->
<g id="edge7" class="edge">
<title>Node7&#45;&gt;Node6</title>
<path fill="none" stroke="midnightblue" d="M101.25,-72.5C114.72,-72.5 128.61,-72.5 140.29,-72.5"/>
<polygon fill="midnightblue" stroke="midnightblue" points="101.07,-69 91.07,-72.5 101.07,-76 101.07,-69"/>
</g>
<!-- Node8 -->
<g id="node8" class="node">
<title>Node8</title>
<g id="a_node8"><a xlink:title=" ">
<polygon fill="white" stroke="#bfbfbf" points="366,-64 366,-81 401,-81 401,-64 366,-64"/>
<text text-anchor="middle" x="383.5" y="-70.6" font-family="Helvetica,sans-Serif" font-size="8.00">bool</text>
</a>
</g>
</g>
<!-- Node8&#45;&gt;Node1 -->
<g id="edge8" class="edge">
<title>Node8&#45;&gt;Node1</title>
<path fill="none" stroke="#9a32cd" stroke-dasharray="5,2" d="M411.3,-72.94C452.55,-73.76 534.04,-75.98 603,-81.5 608.79,-81.96 614.82,-82.53 620.84,-83.16"/>
<polygon fill="#9a32cd" stroke="#9a32cd" points="411.31,-69.44 401.25,-72.75 411.18,-76.43 411.31,-69.44"/>
<text text-anchor="middle" x="537" y="-84.1" font-family="Helvetica,sans-Serif" font-size="8.00"> S_BLOB_UNDERFLOW_ALLOWED</text>
</g>
<!-- Node9 -->
<g id="node9" class="node">
<title>Node9</title>
<g id="a_node9"><a xlink:title=" ">
<polygon fill="white" stroke="#bfbfbf" points="319,-0.5 319,-44.5 448,-44.5 448,-0.5 319,-0.5"/>
<text text-anchor="start" x="327" y="-34.1" font-family="Helvetica,sans-Serif" font-size="8.00">propagate_const&lt; boost</text>
<text text-anchor="start" x="327" y="-25.1" font-family="Helvetica,sans-Serif" font-size="8.00">::movelib::unique_ptr</text>
<text text-anchor="start" x="327" y="-16.1" font-family="Helvetica,sans-Serif" font-size="8.00">&lt; Blob_stream_mq_receiver</text>
<text text-anchor="middle" x="383.5" y="-7.1" font-family="Helvetica,sans-Serif" font-size="8.00">_impl&lt; Mq &gt; &gt; &gt;</text>
</a>
</g>
</g>
<!-- Node9&#45;&gt;Node1 -->
<g id="edge9" class="edge">
<title>Node9&#45;&gt;Node1</title>
<path fill="none" stroke="#9a32cd" stroke-dasharray="5,2" d="M458.36,-32.11C501.07,-38.55 555.58,-48.29 603,-61.5 614.23,-64.63 626.11,-68.78 637.04,-72.95"/>
<polygon fill="#9a32cd" stroke="#9a32cd" points="458.73,-28.63 448.32,-30.62 457.7,-35.55 458.73,-28.63"/>
<text text-anchor="middle" x="537" y="-64.1" font-family="Helvetica,sans-Serif" font-size="8.00"> m_impl</text>
</g>
</g>
</svg>
