<?xml version="1.0" encoding="UTF-8" standalone="no"?>
<!DOCTYPE svg PUBLIC "-//W3C//DTD SVG 1.1//EN"
 "http://www.w3.org/Graphics/SVG/1.1/DTD/svg11.dtd">
<!-- Generated by graphviz version 2.43.0 (0)
 -->
<!-- Title: ipc::session::Client_session_mv&lt; Client_session_impl_t &gt; Pages: 1 -->
<svg width="145pt" height="107pt"
 viewBox="0.00 0.00 145.00 107.00" xmlns="http://www.w3.org/2000/svg" xmlns:xlink="http://www.w3.org/1999/xlink">
<g id="graph0" class="graph" transform="scale(1 1) rotate(0) translate(4 103)">
<title>ipc::session::Client_session_mv&lt; Client_session_impl_t &gt;</title>
<polygon fill="white" stroke="transparent" points="-4,4 -4,-103 141,-103 141,4 -4,4"/>
<!-- Node1 -->
<g id="node1" class="node">
<title>Node1</title>
<g id="a_node1"><a xlink:title="Implements Session concept on the Client_app end: a Session_mv that first achieves PEER state by conn...">
<polygon fill="#bfbfbf" stroke="black" points="1,-0.5 1,-35.5 136,-35.5 136,-0.5 1,-0.5"/>
<text text-anchor="start" x="9" y="-25.1" font-family="Helvetica,sans-Serif" font-size="8.00">ipc::session::Client</text>
<text text-anchor="start" x="9" y="-16.1" font-family="Helvetica,sans-Serif" font-size="8.00">_session_mv&lt; Client_session</text>
<text text-anchor="middle" x="68.5" y="-7.1" font-family="Helvetica,sans-Serif" font-size="8.00">_impl_t &gt;</text>
</a>
</g>
</g>
<!-- Node2 -->
<g id="node2" class="node">
<title>Node2</title>
<g id="a_node2"><a xlink:href="classipc_1_1session_1_1Session__mv.html" target="_top" xlink:title=" ">
<polygon fill="white" stroke="black" points="0,-72.5 0,-98.5 137,-98.5 137,-72.5 0,-72.5"/>
<text text-anchor="start" x="8" y="-88.1" font-family="Helvetica,sans-Serif" font-size="8.00">ipc::session::Session</text>
<text text-anchor="middle" x="68.5" y="-79.1" font-family="Helvetica,sans-Serif" font-size="8.00">_mv&lt; Client_session_impl_t &gt;</text>
</a>
</g>
</g>
<!-- Node2&#45;&gt;Node1 -->
<g id="edge1" class="edge">
<title>Node2&#45;&gt;Node1</title>
<path fill="none" stroke="midnightblue" d="M68.5,-62.25C68.5,-53.53 68.5,-43.71 68.5,-35.62"/>
<polygon fill="midnightblue" stroke="midnightblue" points="65,-62.49 68.5,-72.49 72,-62.49 65,-62.49"/>
</g>
</g>
</svg>
