<?xml version="1.0" encoding="UTF-8" standalone="no"?>
<!DOCTYPE svg PUBLIC "-//W3C//DTD SVG 1.1//EN"
 "http://www.w3.org/Graphics/SVG/1.1/DTD/svg11.dtd">
<!-- Generated by graphviz version 2.43.0 (0)
 -->
<!-- Title: ipc::transport::Bipc_mq_handle::try_receive Pages: 1 -->
<svg width="301pt" height="62pt"
 viewBox="0.00 0.00 301.00 62.00" xmlns="http://www.w3.org/2000/svg" xmlns:xlink="http://www.w3.org/1999/xlink">
<g id="graph0" class="graph" transform="scale(1 1) rotate(0) translate(4 58)">
<title>ipc::transport::Bipc_mq_handle::try_receive</title>
<polygon fill="white" stroke="transparent" points="-4,4 -4,-58 297,-58 297,4 -4,4"/>
<!-- Node1 -->
<g id="node1" class="node">
<title>Node1</title>
<g id="a_node1"><a xlink:title="Implements Persistent_mq_handle API: Non&#45;blocking receive: pops copy of message from queue into buffe...">
<polygon fill="#bfbfbf" stroke="black" points="0,-5 0,-31 116,-31 116,-5 0,-5"/>
<text text-anchor="start" x="8" y="-20.6" font-family="Helvetica,sans-Serif" font-size="8.00">ipc::transport::Bipc</text>
<text text-anchor="middle" x="58" y="-11.6" font-family="Helvetica,sans-Serif" font-size="8.00">_mq_handle::try_receive</text>
</a>
</g>
</g>
<!-- Node1&#45;&gt;Node1 -->
<g id="edge3" class="edge">
<title>Node1&#45;&gt;Node1</title>
<path fill="none" stroke="midnightblue" d="M30.25,-31.27C21.84,-40.46 31.09,-49.5 58,-49.5 74.82,-49.5 84.74,-45.97 87.76,-41.08"/>
<polygon fill="midnightblue" stroke="midnightblue" points="91.18,-40.36 85.75,-31.27 84.33,-41.77 91.18,-40.36"/>
</g>
<!-- Node2 -->
<g id="node2" class="node">
<title>Node2</title>
<g id="a_node2"><a xlink:href="classipc_1_1transport_1_1Bipc__mq__handle.html#a9948742d87298d5842d298de9c946c7c" target="_top" xlink:title="Error helper: Run func() which will perform a bipc::message_queue API that might throw; if it does em...">
<polygon fill="white" stroke="black" points="152,-0.5 152,-35.5 293,-35.5 293,-0.5 152,-0.5"/>
<text text-anchor="start" x="160" y="-25.1" font-family="Helvetica,sans-Serif" font-size="8.00">ipc::transport::Bipc</text>
<text text-anchor="start" x="160" y="-16.1" font-family="Helvetica,sans-Serif" font-size="8.00">_mq_handle::op_with_possible</text>
<text text-anchor="middle" x="222.5" y="-7.1" font-family="Helvetica,sans-Serif" font-size="8.00">_bipc_mq_exception</text>
</a>
</g>
</g>
<!-- Node1&#45;&gt;Node2 -->
<g id="edge1" class="edge">
<title>Node1&#45;&gt;Node2</title>
<path fill="none" stroke="midnightblue" d="M116.29,-18C124.57,-18 133.21,-18 141.82,-18"/>
<polygon fill="midnightblue" stroke="midnightblue" points="141.9,-21.5 151.9,-18 141.9,-14.5 141.9,-21.5"/>
</g>
<!-- Node2&#45;&gt;Node2 -->
<g id="edge2" class="edge">
<title>Node2&#45;&gt;Node2</title>
<path fill="none" stroke="midnightblue" d="M193.02,-35.78C188.01,-45.31 197.84,-54 222.5,-54 237.53,-54 247.05,-50.77 251.06,-46.1"/>
<polygon fill="midnightblue" stroke="midnightblue" points="254.58,-46.05 251.98,-35.78 247.61,-45.43 254.58,-46.05"/>
</g>
</g>
</svg>
