<?xml version="1.0" encoding="UTF-8" standalone="no"?>
<!DOCTYPE svg PUBLIC "-//W3C//DTD SVG 1.1//EN"
 "http://www.w3.org/Graphics/SVG/1.1/DTD/svg11.dtd">
<!-- Generated by graphviz version 2.43.0 (0)
 -->
<!-- Title: ipc::transport::Bipc_mq_handle::wait_sendable Pages: 1 -->
<svg width="270pt" height="53pt"
 viewBox="0.00 0.00 270.00 53.00" xmlns="http://www.w3.org/2000/svg" xmlns:xlink="http://www.w3.org/1999/xlink">
<g id="graph0" class="graph" transform="scale(1 1) rotate(0) translate(4 49)">
<title>ipc::transport::Bipc_mq_handle::wait_sendable</title>
<polygon fill="white" stroke="transparent" points="-4,4 -4,-49 266,-49 266,4 -4,4"/>
<!-- Node1 -->
<g id="node1" class="node">
<title>Node1</title>
<g id="a_node1"><a xlink:title="Implements Persistent_mq_handle API: Like send() but without the actual pushing of a message.">
<polygon fill="#bfbfbf" stroke="black" points="131,-0.5 131,-26.5 262,-26.5 262,-0.5 131,-0.5"/>
<text text-anchor="start" x="139" y="-16.1" font-family="Helvetica,sans-Serif" font-size="8.00">ipc::transport::Bipc</text>
<text text-anchor="middle" x="196.5" y="-7.1" font-family="Helvetica,sans-Serif" font-size="8.00">_mq_handle::wait_sendable</text>
</a>
</g>
</g>
<!-- Node2 -->
<g id="node2" class="node">
<title>Node2</title>
<g id="a_node2"><a xlink:href="classipc_1_1transport_1_1Bipc__mq__handle.html#a45e952a67d6568f6ef4834a3523a2ca4" target="_top" xlink:title="Implements Persistent_mq_handle API: Blocking send: pushes copy of message to queue; if queue is full...">
<polygon fill="white" stroke="black" points="0,-0.5 0,-26.5 95,-26.5 95,-0.5 0,-0.5"/>
<text text-anchor="start" x="8" y="-16.1" font-family="Helvetica,sans-Serif" font-size="8.00">ipc::transport::Bipc</text>
<text text-anchor="middle" x="47.5" y="-7.1" font-family="Helvetica,sans-Serif" font-size="8.00">_mq_handle::send</text>
</a>
</g>
</g>
<!-- Node1&#45;&gt;Node2 -->
<g id="edge1" class="edge">
<title>Node1&#45;&gt;Node2</title>
<path fill="none" stroke="midnightblue" d="M120.56,-13.5C111.99,-13.5 103.46,-13.5 95.41,-13.5"/>
<polygon fill="midnightblue" stroke="midnightblue" points="120.6,-17 130.6,-13.5 120.6,-10 120.6,-17"/>
</g>
<!-- Node2&#45;&gt;Node2 -->
<g id="edge2" class="edge">
<title>Node2&#45;&gt;Node2</title>
<path fill="none" stroke="midnightblue" d="M74.14,-36.94C71.18,-41.64 62.3,-45 47.5,-45 23.22,-45 14.87,-35.96 22.46,-26.77"/>
<polygon fill="midnightblue" stroke="midnightblue" points="77.55,-36.11 72.54,-26.77 70.63,-37.19 77.55,-36.11"/>
</g>
</g>
</svg>
