<?xml version="1.0" encoding="UTF-8" standalone="no"?>
<!DOCTYPE svg PUBLIC "-//W3C//DTD SVG 1.1//EN"
 "http://www.w3.org/Graphics/SVG/1.1/DTD/svg11.dtd">
<!-- Generated by graphviz version 2.43.0 (0)
 -->
<!-- Title: ipc::session::sync_io::Session_adapter::on_err_func_sio Pages: 1 -->
<svg width="255pt" height="44pt"
 viewBox="0.00 0.00 255.00 44.00" xmlns="http://www.w3.org/2000/svg" xmlns:xlink="http://www.w3.org/1999/xlink">
<g id="graph0" class="graph" transform="scale(1 1) rotate(0) translate(4 40)">
<title>ipc::session::sync_io::Session_adapter::on_err_func_sio</title>
<polygon fill="white" stroke="transparent" points="-4,4 -4,-40 251,-40 251,4 -4,4"/>
<!-- Node1 -->
<g id="node1" class="node">
<title>Node1</title>
<g id="a_node1"><a xlink:title="Returns the proper on&#45;error handler to set up on the underlying Session_obj (Client_session: via ctor...">
<polygon fill="#bfbfbf" stroke="black" points="0,-0.5 0,-35.5 102,-35.5 102,-0.5 0,-0.5"/>
<text text-anchor="start" x="8" y="-25.1" font-family="Helvetica,sans-Serif" font-size="8.00">ipc::session::sync</text>
<text text-anchor="start" x="8" y="-16.1" font-family="Helvetica,sans-Serif" font-size="8.00">_io::Session_adapter</text>
<text text-anchor="middle" x="51" y="-7.1" font-family="Helvetica,sans-Serif" font-size="8.00">::on_err_func_sio</text>
</a>
</g>
</g>
<!-- Node2 -->
<g id="node2" class="node">
<title>Node2</title>
<g id="a_node2"><a xlink:href="namespaceipc_1_1util.html#a5429c6225cc9a271ad8c0041d99c236b" target="_top" xlink:title="Writes a byte to the given pipe writer.">
<polygon fill="white" stroke="black" points="138,-9.5 138,-26.5 247,-26.5 247,-9.5 138,-9.5"/>
<text text-anchor="middle" x="192.5" y="-16.1" font-family="Helvetica,sans-Serif" font-size="8.00">ipc::util::pipe_produce</text>
</a>
</g>
</g>
<!-- Node1&#45;&gt;Node2 -->
<g id="edge1" class="edge">
<title>Node1&#45;&gt;Node2</title>
<path fill="none" stroke="midnightblue" d="M102.36,-18C110.57,-18 119.18,-18 127.66,-18"/>
<polygon fill="midnightblue" stroke="midnightblue" points="127.91,-21.5 137.91,-18 127.91,-14.5 127.91,-21.5"/>
</g>
</g>
</svg>
