<?xml version="1.0" encoding="UTF-8" standalone="no"?>
<!DOCTYPE svg PUBLIC "-//W3C//DTD SVG 1.1//EN"
 "http://www.w3.org/Graphics/SVG/1.1/DTD/svg11.dtd">
<!-- Generated by graphviz version 2.43.0 (0)
 -->
<!-- Title: ipc::transport::error::Category::code_symbol Pages: 1 -->
<svg width="261pt" height="35pt"
 viewBox="0.00 0.00 261.00 35.00" xmlns="http://www.w3.org/2000/svg" xmlns:xlink="http://www.w3.org/1999/xlink">
<g id="graph0" class="graph" transform="scale(1 1) rotate(0) translate(4 31)">
<title>ipc::transport::error::Category::code_symbol</title>
<polygon fill="white" stroke="transparent" points="-4,4 -4,-31 257,-31 257,4 -4,4"/>
<!-- Node1 -->
<g id="node1" class="node">
<title>Node1</title>
<g id="a_node1"><a xlink:title="The guts of the ostream &lt;&lt; Code operation: outputs, e.g., Code::S_INVALID_ARGUMENT =&gt; &quot;INVALID_ARGUME...">
<polygon fill="#bfbfbf" stroke="black" points="134,-0.5 134,-26.5 253,-26.5 253,-0.5 134,-0.5"/>
<text text-anchor="start" x="142" y="-16.1" font-family="Helvetica,sans-Serif" font-size="8.00">ipc::transport::error</text>
<text text-anchor="middle" x="193.5" y="-7.1" font-family="Helvetica,sans-Serif" font-size="8.00">::Category::code_symbol</text>
</a>
</g>
</g>
<!-- Node2 -->
<g id="node2" class="node">
<title>Node2</title>
<g id="a_node2"><a xlink:href="namespaceipc_1_1transport_1_1error.html#a4686a04e7ab89d4be42548cbb5b37975" target="_top" xlink:title="Serializes a transport::error::Code to a standard output stream.">
<polygon fill="white" stroke="black" points="0,-0.5 0,-26.5 98,-26.5 98,-0.5 0,-0.5"/>
<text text-anchor="start" x="8" y="-16.1" font-family="Helvetica,sans-Serif" font-size="8.00">ipc::transport::error</text>
<text text-anchor="middle" x="49" y="-7.1" font-family="Helvetica,sans-Serif" font-size="8.00">::operator&lt;&lt;</text>
</a>
</g>
</g>
<!-- Node1&#45;&gt;Node2 -->
<g id="edge1" class="edge">
<title>Node1&#45;&gt;Node2</title>
<path fill="none" stroke="midnightblue" d="M123.67,-13.5C115.07,-13.5 106.43,-13.5 98.23,-13.5"/>
<polygon fill="midnightblue" stroke="midnightblue" points="123.72,-17 133.72,-13.5 123.72,-10 123.72,-17"/>
</g>
</g>
</svg>
