<?xml version="1.0" encoding="UTF-8" standalone="no"?>
<!DOCTYPE svg PUBLIC "-//W3C//DTD SVG 1.1//EN"
 "http://www.w3.org/Graphics/SVG/1.1/DTD/svg11.dtd">
<!-- Generated by graphviz version 2.43.0 (0)
 -->
<!-- Title: ipc::transport::struc::Heap_fixed_builder_capnp_message_builder Pages: 1 -->
<svg width="590pt" height="166pt"
 viewBox="0.00 0.00 590.00 166.00" xmlns="http://www.w3.org/2000/svg" xmlns:xlink="http://www.w3.org/1999/xlink">
<g id="graph0" class="graph" transform="scale(1 1) rotate(0) translate(4 162)">
<title>ipc::transport::struc::Heap_fixed_builder_capnp_message_builder</title>
<polygon fill="white" stroke="transparent" points="-4,4 -4,-162 586,-162 586,4 -4,4"/>
<!-- Node1 -->
<g id="node1" class="node">
<title>Node1</title>
<g id="a_node1"><a xlink:title="A capnp::MessageBuilder used by Heap_fixed_builder: similar to a capnp::MallocMessageBuilder with the...">
<polygon fill="#bfbfbf" stroke="black" points="463,-70.5 463,-105.5 582,-105.5 582,-70.5 463,-70.5"/>
<text text-anchor="start" x="471" y="-95.1" font-family="Helvetica,sans-Serif" font-size="8.00">ipc::transport::struc</text>
<text text-anchor="start" x="471" y="-86.1" font-family="Helvetica,sans-Serif" font-size="8.00">::Heap_fixed_builder</text>
<text text-anchor="middle" x="522.5" y="-77.1" font-family="Helvetica,sans-Serif" font-size="8.00">_capnp_message_builder</text>
</a>
</g>
</g>
<!-- Node2 -->
<g id="node2" class="node">
<title>Node2</title>
<g id="a_node2"><a xlink:href="classCapnp__msg__builder__interface.html" target="_top" xlink:title=" ">
<polygon fill="white" stroke="#bfbfbf" points="181,-140.5 181,-157.5 318,-157.5 318,-140.5 181,-140.5"/>
<text text-anchor="middle" x="249.5" y="-147.1" font-family="Helvetica,sans-Serif" font-size="8.00">Capnp_msg_builder_interface</text>
</a>
</g>
</g>
<!-- Node2&#45;&gt;Node1 -->
<g id="edge1" class="edge">
<title>Node2&#45;&gt;Node1</title>
<path fill="none" stroke="midnightblue" d="M328.2,-139.83C364.1,-134.68 407.09,-127.19 445,-117 456.38,-113.94 468.43,-109.81 479.51,-105.64"/>
<polygon fill="midnightblue" stroke="midnightblue" points="327.68,-136.37 318.27,-141.23 328.66,-143.3 327.68,-136.37"/>
</g>
<!-- Node3 -->
<g id="node3" class="node">
<title>Node3</title>
<g id="a_node3"><a xlink:title=" ">
<polygon fill="white" stroke="#bfbfbf" points="224,-104.5 224,-121.5 275,-121.5 275,-104.5 224,-104.5"/>
<text text-anchor="middle" x="249.5" y="-111.1" font-family="Helvetica,sans-Serif" font-size="8.00">Logger *</text>
</a>
</g>
</g>
<!-- Node3&#45;&gt;Node1 -->
<g id="edge2" class="edge">
<title>Node3&#45;&gt;Node1</title>
<path fill="none" stroke="#9a32cd" stroke-dasharray="5,2" d="M285.11,-109.81C329.88,-105.68 408.54,-98.42 462.74,-93.42"/>
<polygon fill="#9a32cd" stroke="#9a32cd" points="284.66,-106.33 275.03,-110.74 285.31,-113.3 284.66,-106.33"/>
<text text-anchor="middle" x="390.5" y="-106.6" font-family="Helvetica,sans-Serif" font-size="8.00"> m_logger_for_blobs</text>
</g>
<!-- Node4 -->
<g id="node4" class="node">
<title>Node4</title>
<g id="a_node4"><a xlink:title=" ">
<polygon fill="white" stroke="#bfbfbf" points="229.5,-54.5 229.5,-71.5 269.5,-71.5 269.5,-54.5 229.5,-54.5"/>
<text text-anchor="middle" x="249.5" y="-61.1" font-family="Helvetica,sans-Serif" font-size="8.00">size_t</text>
</a>
</g>
</g>
<!-- Node4&#45;&gt;Node1 -->
<g id="edge3" class="edge">
<title>Node4&#45;&gt;Node1</title>
<path fill="none" stroke="#9a32cd" stroke-dasharray="5,2" d="M280.12,-60.43C318.44,-57.72 387.15,-54.99 445,-64 454.21,-65.44 463.85,-67.76 473.05,-70.42"/>
<polygon fill="#9a32cd" stroke="#9a32cd" points="279.41,-56.97 269.7,-61.22 279.94,-63.95 279.41,-56.97"/>
<text text-anchor="middle" x="390.5" y="-84.6" font-family="Helvetica,sans-Serif" font-size="8.00"> m_frame_postfix_sz</text>
<text text-anchor="middle" x="390.5" y="-75.6" font-family="Helvetica,sans-Serif" font-size="8.00">m_frame_prefix_sz</text>
<text text-anchor="middle" x="390.5" y="-66.6" font-family="Helvetica,sans-Serif" font-size="8.00">m_segment_sz</text>
</g>
<!-- Node5 -->
<g id="node5" class="node">
<title>Node5</title>
<g id="a_node5"><a xlink:title=" ">
<polygon fill="white" stroke="black" points="197.5,-0.5 197.5,-35.5 301.5,-35.5 301.5,-0.5 197.5,-0.5"/>
<text text-anchor="start" x="205.5" y="-25.1" font-family="Helvetica,sans-Serif" font-size="8.00">std::vector&lt; boost</text>
<text text-anchor="start" x="205.5" y="-16.1" font-family="Helvetica,sans-Serif" font-size="8.00">::movelib::unique_ptr</text>
<text text-anchor="middle" x="249.5" y="-7.1" font-family="Helvetica,sans-Serif" font-size="8.00">&lt; flow::util::Blob &gt; &gt;</text>
</a>
</g>
</g>
<!-- Node5&#45;&gt;Node1 -->
<g id="edge4" class="edge">
<title>Node5&#45;&gt;Node1</title>
<path fill="none" stroke="#9a32cd" stroke-dasharray="5,2" d="M311.79,-15.39C350.97,-15.64 402.27,-19.57 445,-35 466.58,-42.79 487.76,-58.25 502.34,-70.47"/>
<polygon fill="#9a32cd" stroke="#9a32cd" points="311.58,-11.89 301.59,-15.41 311.6,-18.89 311.58,-11.89"/>
<text text-anchor="start" x="336" y="-46.6" font-family="Helvetica,sans-Serif" font-size="8.00"> m_serialization_segments</text>
<text text-anchor="middle" x="390.5" y="-37.6" font-family="Helvetica,sans-Serif" font-size="8.00">_plus_frame_space</text>
</g>
<!-- Node6 -->
<g id="node6" class="node">
<title>Node6</title>
<g id="a_node6"><a xlink:title=" ">
<polygon fill="white" stroke="#bfbfbf" points="0,-5 0,-31 104,-31 104,-5 0,-5"/>
<text text-anchor="start" x="8" y="-20.6" font-family="Helvetica,sans-Serif" font-size="8.00">unique_ptr&lt; flow::util</text>
<text text-anchor="middle" x="52" y="-11.6" font-family="Helvetica,sans-Serif" font-size="8.00">::Blob &gt;</text>
</a>
</g>
</g>
<!-- Node6&#45;&gt;Node5 -->
<g id="edge5" class="edge">
<title>Node6&#45;&gt;Node5</title>
<path fill="none" stroke="#9a32cd" stroke-dasharray="5,2" d="M114.13,-18C140.86,-18 171.86,-18 197.35,-18"/>
<polygon fill="#9a32cd" stroke="#9a32cd" points="114.11,-14.5 104.11,-18 114.11,-21.5 114.11,-14.5"/>
<text text-anchor="middle" x="142.5" y="-20.6" font-family="Helvetica,sans-Serif" font-size="8.00"> elements</text>
</g>
</g>
</svg>
