<?xml version="1.0" encoding="UTF-8" standalone="no"?>
<!DOCTYPE svg PUBLIC "-//W3C//DTD SVG 1.1//EN"
 "http://www.w3.org/Graphics/SVG/1.1/DTD/svg11.dtd">
<!-- Generated by graphviz version 2.43.0 (0)
 -->
<!-- Title: ipc::session::Session_base&lt; S_MQ_TYPE_OR_NONE, S_TRANSMIT_NATIVE_HANDLES, Mdt_payload &gt; Pages: 1 -->
<svg width="972pt" height="526pt"
 viewBox="0.00 0.00 972.00 526.00" xmlns="http://www.w3.org/2000/svg" xmlns:xlink="http://www.w3.org/1999/xlink">
<g id="graph0" class="graph" transform="scale(1 1) rotate(0) translate(4 522)">
<title>ipc::session::Session_base&lt; S_MQ_TYPE_OR_NONE, S_TRANSMIT_NATIVE_HANDLES, Mdt_payload &gt;</title>
<polygon fill="white" stroke="transparent" points="-4,4 -4,-522 968,-522 968,4 -4,4"/>
<!-- Node1 -->
<g id="node1" class="node">
<title>Node1</title>
<g id="a_node1"><a xlink:title="Internal type containing data and types common to internal types Server_session_impl and Client_sessi...">
<polygon fill="#bfbfbf" stroke="black" points="135,-221.5 135,-265.5 281,-265.5 281,-221.5 135,-221.5"/>
<text text-anchor="start" x="143" y="-255.1" font-family="Helvetica,sans-Serif" font-size="8.00">ipc::session::Session</text>
<text text-anchor="start" x="143" y="-246.1" font-family="Helvetica,sans-Serif" font-size="8.00">_base&lt; S_MQ_TYPE_OR_NONE,</text>
<text text-anchor="start" x="143" y="-237.1" font-family="Helvetica,sans-Serif" font-size="8.00"> S_TRANSMIT_NATIVE_HANDLES,</text>
<text text-anchor="middle" x="208" y="-228.1" font-family="Helvetica,sans-Serif" font-size="8.00"> Mdt_payload &gt;</text>
</a>
</g>
</g>
<!-- Node3 -->
<g id="node3" class="node">
<title>Node3</title>
<g id="a_node3"><a xlink:href="classipc_1_1session_1_1Client__session__impl.html" target="_top" xlink:title=" ">
<polygon fill="white" stroke="black" points="340.5,-440 340.5,-493 513.5,-493 513.5,-440 340.5,-440"/>
<text text-anchor="start" x="348.5" y="-482.6" font-family="Helvetica,sans-Serif" font-size="8.00">ipc::session::Client</text>
<text text-anchor="start" x="348.5" y="-473.6" font-family="Helvetica,sans-Serif" font-size="8.00">_session_impl&lt; S_MQ_TYPE</text>
<text text-anchor="start" x="348.5" y="-464.6" font-family="Helvetica,sans-Serif" font-size="8.00">_OR_NONE, S_TRANSMIT_NATIVE</text>
<text text-anchor="start" x="348.5" y="-455.6" font-family="Helvetica,sans-Serif" font-size="8.00">_HANDLES, Mdt_payload, session</text>
<text text-anchor="middle" x="427" y="-446.6" font-family="Helvetica,sans-Serif" font-size="8.00">::schema::ShmType::JEMALLOC, true &gt;</text>
</a>
</g>
</g>
<!-- Node1&#45;&gt;Node3 -->
<g id="edge2" class="edge">
<title>Node1&#45;&gt;Node3</title>
<path fill="none" stroke="midnightblue" d="M222.32,-275.12C239.46,-312.59 272.42,-374.9 317,-414.5 328.21,-424.46 341.66,-432.91 355.22,-439.92"/>
<polygon fill="midnightblue" stroke="midnightblue" points="225.39,-273.41 218.11,-265.71 219,-276.27 225.39,-273.41"/>
</g>
<!-- Node6 -->
<g id="node6" class="node">
<title>Node6</title>
<g id="a_node6"><a xlink:href="classipc_1_1session_1_1Client__session__impl.html" target="_top" xlink:title=" ">
<polygon fill="white" stroke="black" points="351,-352 351,-405 503,-405 503,-352 351,-352"/>
<text text-anchor="start" x="359" y="-394.6" font-family="Helvetica,sans-Serif" font-size="8.00">ipc::session::Client</text>
<text text-anchor="start" x="359" y="-385.6" font-family="Helvetica,sans-Serif" font-size="8.00">_session_impl&lt; S_MQ_TYPE</text>
<text text-anchor="start" x="359" y="-376.6" font-family="Helvetica,sans-Serif" font-size="8.00">_OR_NONE, S_TRANSMIT_NATIVE</text>
<text text-anchor="start" x="359" y="-367.6" font-family="Helvetica,sans-Serif" font-size="8.00">_HANDLES, Mdt_payload, schema</text>
<text text-anchor="middle" x="427" y="-358.6" font-family="Helvetica,sans-Serif" font-size="8.00">::ShmType::CLASSIC &gt;</text>
</a>
</g>
</g>
<!-- Node1&#45;&gt;Node6 -->
<g id="edge5" class="edge">
<title>Node1&#45;&gt;Node6</title>
<path fill="none" stroke="midnightblue" d="M238.96,-272.75C259.64,-291.82 288.47,-316.27 317,-333.5 328.22,-340.27 340.64,-346.47 352.96,-351.96"/>
<polygon fill="midnightblue" stroke="midnightblue" points="241.14,-270 231.45,-265.73 236.36,-275.11 241.14,-270"/>
</g>
<!-- Node9 -->
<g id="node9" class="node">
<title>Node9</title>
<g id="a_node9"><a xlink:href="classipc_1_1session_1_1Server__session__impl.html" target="_top" xlink:title=" ">
<polygon fill="white" stroke="black" points="317,-253 317,-324 537,-324 537,-253 317,-253"/>
<text text-anchor="start" x="325" y="-313.6" font-family="Helvetica,sans-Serif" font-size="8.00">ipc::session::Server</text>
<text text-anchor="start" x="325" y="-304.6" font-family="Helvetica,sans-Serif" font-size="8.00">_session_impl&lt; S_MQ_TYPE</text>
<text text-anchor="start" x="325" y="-295.6" font-family="Helvetica,sans-Serif" font-size="8.00">_OR_NONE, S_TRANSMIT_NATIVE</text>
<text text-anchor="start" x="325" y="-286.6" font-family="Helvetica,sans-Serif" font-size="8.00">_HANDLES, Mdt_payload, session</text>
<text text-anchor="start" x="325" y="-277.6" font-family="Helvetica,sans-Serif" font-size="8.00">::schema::ShmType::JEMALLOC, transport</text>
<text text-anchor="start" x="325" y="-268.6" font-family="Helvetica,sans-Serif" font-size="8.00">::struc::shm::Builder_base::S_MAX_SERIALIZATION</text>
<text text-anchor="middle" x="427" y="-259.6" font-family="Helvetica,sans-Serif" font-size="8.00">_SEGMENT_SZ, true &gt;</text>
</a>
</g>
</g>
<!-- Node1&#45;&gt;Node9 -->
<g id="edge8" class="edge">
<title>Node1&#45;&gt;Node9</title>
<path fill="none" stroke="midnightblue" d="M291.06,-260.52C299.52,-262.27 308.2,-264.07 316.89,-265.87"/>
<polygon fill="midnightblue" stroke="midnightblue" points="291.76,-257.09 281.26,-258.48 290.34,-263.94 291.76,-257.09"/>
</g>
<!-- Node12 -->
<g id="node12" class="node">
<title>Node12</title>
<g id="a_node12"><a xlink:href="classipc_1_1session_1_1Server__session__impl.html" target="_top" xlink:title=" ">
<polygon fill="white" stroke="black" points="343.5,-163 343.5,-234 510.5,-234 510.5,-163 343.5,-163"/>
<text text-anchor="start" x="351.5" y="-223.6" font-family="Helvetica,sans-Serif" font-size="8.00">ipc::session::Server</text>
<text text-anchor="start" x="351.5" y="-214.6" font-family="Helvetica,sans-Serif" font-size="8.00">_session_impl&lt; S_MQ_TYPE</text>
<text text-anchor="start" x="351.5" y="-205.6" font-family="Helvetica,sans-Serif" font-size="8.00">_OR_NONE, S_TRANSMIT_NATIVE</text>
<text text-anchor="start" x="351.5" y="-196.6" font-family="Helvetica,sans-Serif" font-size="8.00">_HANDLES, Mdt_payload, schema</text>
<text text-anchor="start" x="351.5" y="-187.6" font-family="Helvetica,sans-Serif" font-size="8.00">::ShmType::CLASSIC, transport</text>
<text text-anchor="start" x="351.5" y="-178.6" font-family="Helvetica,sans-Serif" font-size="8.00">::struc::shm::Builder_base::S</text>
<text text-anchor="middle" x="427" y="-169.6" font-family="Helvetica,sans-Serif" font-size="8.00">_MAX_SERIALIZATION_SEGMENT_SZ &gt;</text>
</a>
</g>
</g>
<!-- Node1&#45;&gt;Node12 -->
<g id="edge11" class="edge">
<title>Node1&#45;&gt;Node12</title>
<path fill="none" stroke="midnightblue" d="M291.16,-226.46C308.19,-222.93 326.13,-219.21 343.18,-215.67"/>
<polygon fill="midnightblue" stroke="midnightblue" points="290.34,-223.06 281.26,-228.52 291.76,-229.91 290.34,-223.06"/>
</g>
<!-- Node15 -->
<g id="node15" class="node">
<title>Node15</title>
<g id="a_node15"><a xlink:href="classipc_1_1session_1_1Client__session__impl.html" target="_top" xlink:title="Internal, non&#45;movable pImpl&#45;lite implementation of Client_session_mv class template.">
<polygon fill="white" stroke="black" points="343,-81.5 343,-143.5 511,-143.5 511,-81.5 343,-81.5"/>
<text text-anchor="start" x="351" y="-133.1" font-family="Helvetica,sans-Serif" font-size="8.00">ipc::session::Client</text>
<text text-anchor="start" x="351" y="-124.1" font-family="Helvetica,sans-Serif" font-size="8.00">_session_impl&lt; S_MQ_TYPE</text>
<text text-anchor="start" x="351" y="-115.1" font-family="Helvetica,sans-Serif" font-size="8.00">_OR_NONE, S_TRANSMIT_NATIVE</text>
<text text-anchor="start" x="351" y="-106.1" font-family="Helvetica,sans-Serif" font-size="8.00">_HANDLES, Mdt_payload, S_SHM</text>
<text text-anchor="start" x="351" y="-97.1" font-family="Helvetica,sans-Serif" font-size="8.00">_TYPE_OR_NONE, S_GRACEFUL_FINISH</text>
<text text-anchor="middle" x="427" y="-88.1" font-family="Helvetica,sans-Serif" font-size="8.00">_REQUIRED_V &gt;</text>
</a>
</g>
</g>
<!-- Node1&#45;&gt;Node15 -->
<g id="edge14" class="edge">
<title>Node1&#45;&gt;Node15</title>
<path fill="none" stroke="midnightblue" d="M238.38,-214.33C259.02,-195.08 288.01,-170.38 317,-153.5 325.12,-148.77 333.89,-144.4 342.81,-140.43"/>
<polygon fill="midnightblue" stroke="midnightblue" points="235.76,-212 230.9,-221.42 240.57,-217.08 235.76,-212"/>
</g>
<!-- Node16 -->
<g id="node16" class="node">
<title>Node16</title>
<g id="a_node16"><a xlink:href="classipc_1_1session_1_1Server__session__impl.html" target="_top" xlink:title="Internal, non&#45;movable pImpl&#45;lite implementation of Server_session_mv class template.">
<polygon fill="white" stroke="black" points="337.5,-0.5 337.5,-62.5 516.5,-62.5 516.5,-0.5 337.5,-0.5"/>
<text text-anchor="start" x="345.5" y="-52.1" font-family="Helvetica,sans-Serif" font-size="8.00">ipc::session::Server</text>
<text text-anchor="start" x="345.5" y="-43.1" font-family="Helvetica,sans-Serif" font-size="8.00">_session_impl&lt; S_MQ_TYPE</text>
<text text-anchor="start" x="345.5" y="-34.1" font-family="Helvetica,sans-Serif" font-size="8.00">_OR_NONE, S_TRANSMIT_NATIVE</text>
<text text-anchor="start" x="345.5" y="-25.1" font-family="Helvetica,sans-Serif" font-size="8.00">_HANDLES, Mdt_payload, S_SHM</text>
<text text-anchor="start" x="345.5" y="-16.1" font-family="Helvetica,sans-Serif" font-size="8.00">_TYPE_OR_NONE, S_SHM_MAX_HNDL</text>
<text text-anchor="middle" x="427" y="-7.1" font-family="Helvetica,sans-Serif" font-size="8.00">_SZ, S_GRACEFUL_FINISH_REQUIRED_V &gt;</text>
</a>
</g>
</g>
<!-- Node1&#45;&gt;Node16 -->
<g id="edge15" class="edge">
<title>Node1&#45;&gt;Node16</title>
<path fill="none" stroke="midnightblue" d="M221.39,-211.59C237.8,-173.26 270.22,-109.4 317,-71.5 323.19,-66.49 330.06,-62.07 337.26,-58.18"/>
<polygon fill="midnightblue" stroke="midnightblue" points="218,-210.64 217.38,-221.21 224.46,-213.33 218,-210.64"/>
</g>
<!-- Node2 -->
<g id="node2" class="node">
<title>Node2</title>
<g id="a_node2"><a xlink:title=" ">
<polygon fill="white" stroke="#bfbfbf" points="0,-235 0,-252 99,-252 99,-235 0,-235"/>
<text text-anchor="middle" x="49.5" y="-241.6" font-family="Helvetica,sans-Serif" font-size="8.00">boost::noncopyable</text>
</a>
</g>
</g>
<!-- Node2&#45;&gt;Node1 -->
<g id="edge1" class="edge">
<title>Node2&#45;&gt;Node1</title>
<path fill="none" stroke="#8b1a1a" d="M109.18,-243.5C117.54,-243.5 126.23,-243.5 134.82,-243.5"/>
<polygon fill="#8b1a1a" stroke="#8b1a1a" points="109.16,-240 99.16,-243.5 109.16,-247 109.16,-240"/>
</g>
<!-- Node4 -->
<g id="node4" class="node">
<title>Node4</title>
<g id="a_node4"><a xlink:href="classipc_1_1session_1_1shm_1_1arena__lend_1_1jemalloc_1_1Session__impl.html" target="_top" xlink:title=" ">
<polygon fill="white" stroke="black" points="588,-437.5 588,-517.5 767,-517.5 767,-437.5 588,-437.5"/>
<text text-anchor="start" x="596" y="-507.1" font-family="Helvetica,sans-Serif" font-size="8.00">ipc::session::shm::</text>
<text text-anchor="start" x="596" y="-498.1" font-family="Helvetica,sans-Serif" font-size="8.00">arena_lend::jemalloc</text>
<text text-anchor="start" x="596" y="-489.1" font-family="Helvetica,sans-Serif" font-size="8.00">::Session_impl&lt; session</text>
<text text-anchor="start" x="596" y="-480.1" font-family="Helvetica,sans-Serif" font-size="8.00">::Client_session_impl&lt;</text>
<text text-anchor="start" x="596" y="-471.1" font-family="Helvetica,sans-Serif" font-size="8.00"> S_MQ_TYPE_OR_NONE, S_TRANSMIT</text>
<text text-anchor="start" x="596" y="-462.1" font-family="Helvetica,sans-Serif" font-size="8.00">_NATIVE_HANDLES, Mdt_payload,</text>
<text text-anchor="start" x="596" y="-453.1" font-family="Helvetica,sans-Serif" font-size="8.00"> session::schema::ShmType::JEMALLOC,</text>
<text text-anchor="middle" x="677.5" y="-444.1" font-family="Helvetica,sans-Serif" font-size="8.00"> true &gt; &gt;</text>
</a>
</g>
</g>
<!-- Node3&#45;&gt;Node4 -->
<g id="edge3" class="edge">
<title>Node3&#45;&gt;Node4</title>
<path fill="none" stroke="midnightblue" d="M523.76,-470.74C544.84,-471.67 567.08,-472.66 587.86,-473.58"/>
<polygon fill="midnightblue" stroke="midnightblue" points="523.66,-467.23 513.52,-470.29 523.36,-474.22 523.66,-467.23"/>
</g>
<!-- Node5 -->
<g id="node5" class="node">
<title>Node5</title>
<g id="a_node5"><a xlink:href="classipc_1_1session_1_1shm_1_1arena__lend_1_1jemalloc_1_1Client__session__impl.html" target="_top" xlink:title="Core internally&#45;used implementation of shm::arena_lend::jemalloc::Client_session: it is to the latter...">
<polygon fill="white" stroke="black" points="822,-446.5 822,-508.5 960,-508.5 960,-446.5 822,-446.5"/>
<text text-anchor="start" x="830" y="-498.1" font-family="Helvetica,sans-Serif" font-size="8.00">ipc::session::shm::</text>
<text text-anchor="start" x="830" y="-489.1" font-family="Helvetica,sans-Serif" font-size="8.00">arena_lend::jemalloc</text>
<text text-anchor="start" x="830" y="-480.1" font-family="Helvetica,sans-Serif" font-size="8.00">::Client_session_impl</text>
<text text-anchor="start" x="830" y="-471.1" font-family="Helvetica,sans-Serif" font-size="8.00">&lt; S_MQ_TYPE_OR_NONE, S</text>
<text text-anchor="start" x="830" y="-462.1" font-family="Helvetica,sans-Serif" font-size="8.00">_TRANSMIT_NATIVE_HANDLES,</text>
<text text-anchor="middle" x="891" y="-453.1" font-family="Helvetica,sans-Serif" font-size="8.00"> Mdt_payload &gt;</text>
</a>
</g>
</g>
<!-- Node4&#45;&gt;Node5 -->
<g id="edge4" class="edge">
<title>Node4&#45;&gt;Node5</title>
<path fill="none" stroke="midnightblue" d="M777.57,-477.5C792.51,-477.5 807.62,-477.5 821.71,-477.5"/>
<polygon fill="midnightblue" stroke="midnightblue" points="777.28,-474 767.28,-477.5 777.28,-481 777.28,-474"/>
</g>
<!-- Node7 -->
<g id="node7" class="node">
<title>Node7</title>
<g id="a_node7"><a xlink:href="classipc_1_1session_1_1shm_1_1classic_1_1Session__impl.html" target="_top" xlink:title=" ">
<polygon fill="white" stroke="black" points="602.5,-347 602.5,-418 752.5,-418 752.5,-347 602.5,-347"/>
<text text-anchor="start" x="610.5" y="-407.6" font-family="Helvetica,sans-Serif" font-size="8.00">ipc::session::shm::</text>
<text text-anchor="start" x="610.5" y="-398.6" font-family="Helvetica,sans-Serif" font-size="8.00">classic::Session_impl</text>
<text text-anchor="start" x="610.5" y="-389.6" font-family="Helvetica,sans-Serif" font-size="8.00">&lt; session::Client_session</text>
<text text-anchor="start" x="610.5" y="-380.6" font-family="Helvetica,sans-Serif" font-size="8.00">_impl&lt; S_MQ_TYPE_OR_NONE,</text>
<text text-anchor="start" x="610.5" y="-371.6" font-family="Helvetica,sans-Serif" font-size="8.00"> S_TRANSMIT_NATIVE_HANDLES,</text>
<text text-anchor="start" x="610.5" y="-362.6" font-family="Helvetica,sans-Serif" font-size="8.00"> Mdt_payload, schema::ShmType</text>
<text text-anchor="middle" x="677.5" y="-353.6" font-family="Helvetica,sans-Serif" font-size="8.00">::CLASSIC &gt; &gt;</text>
</a>
</g>
</g>
<!-- Node6&#45;&gt;Node7 -->
<g id="edge6" class="edge">
<title>Node6&#45;&gt;Node7</title>
<path fill="none" stroke="midnightblue" d="M513.33,-379.87C542.28,-380.34 574.37,-380.86 602.38,-381.31"/>
<polygon fill="midnightblue" stroke="midnightblue" points="513.29,-376.37 503.23,-379.71 513.17,-383.37 513.29,-376.37"/>
</g>
<!-- Node8 -->
<g id="node8" class="node">
<title>Node8</title>
<g id="a_node8"><a xlink:href="classipc_1_1session_1_1shm_1_1classic_1_1Client__session__impl.html" target="_top" xlink:title="Core internally&#45;used implementation of shm::classic::Client_session: it is to the latter what its pub...">
<polygon fill="white" stroke="black" points="818,-356 818,-409 964,-409 964,-356 818,-356"/>
<text text-anchor="start" x="826" y="-398.6" font-family="Helvetica,sans-Serif" font-size="8.00">ipc::session::shm::</text>
<text text-anchor="start" x="826" y="-389.6" font-family="Helvetica,sans-Serif" font-size="8.00">classic::Client_session</text>
<text text-anchor="start" x="826" y="-380.6" font-family="Helvetica,sans-Serif" font-size="8.00">_impl&lt; S_MQ_TYPE_OR_NONE,</text>
<text text-anchor="start" x="826" y="-371.6" font-family="Helvetica,sans-Serif" font-size="8.00"> S_TRANSMIT_NATIVE_HANDLES,</text>
<text text-anchor="middle" x="891" y="-362.6" font-family="Helvetica,sans-Serif" font-size="8.00"> Mdt_payload &gt;</text>
</a>
</g>
</g>
<!-- Node7&#45;&gt;Node8 -->
<g id="edge7" class="edge">
<title>Node7&#45;&gt;Node8</title>
<path fill="none" stroke="midnightblue" d="M763.02,-382.5C781.12,-382.5 800.09,-382.5 817.69,-382.5"/>
<polygon fill="midnightblue" stroke="midnightblue" points="762.77,-379 752.77,-382.5 762.77,-386 762.77,-379"/>
</g>
<!-- Node10 -->
<g id="node10" class="node">
<title>Node10</title>
<g id="a_node10"><a xlink:href="classipc_1_1session_1_1shm_1_1arena__lend_1_1jemalloc_1_1Session__impl.html" target="_top" xlink:title=" ">
<polygon fill="white" stroke="black" points="573,-239 573,-328 782,-328 782,-239 573,-239"/>
<text text-anchor="start" x="581" y="-317.6" font-family="Helvetica,sans-Serif" font-size="8.00">ipc::session::shm::</text>
<text text-anchor="start" x="581" y="-308.6" font-family="Helvetica,sans-Serif" font-size="8.00">arena_lend::jemalloc</text>
<text text-anchor="start" x="581" y="-299.6" font-family="Helvetica,sans-Serif" font-size="8.00">::Session_impl&lt; session</text>
<text text-anchor="start" x="581" y="-290.6" font-family="Helvetica,sans-Serif" font-size="8.00">::Server_session_impl&lt;</text>
<text text-anchor="start" x="581" y="-281.6" font-family="Helvetica,sans-Serif" font-size="8.00"> S_MQ_TYPE_OR_NONE, S_TRANSMIT</text>
<text text-anchor="start" x="581" y="-272.6" font-family="Helvetica,sans-Serif" font-size="8.00">_NATIVE_HANDLES, Mdt_payload,</text>
<text text-anchor="start" x="581" y="-263.6" font-family="Helvetica,sans-Serif" font-size="8.00"> session::schema::ShmType::JEMALLOC,</text>
<text text-anchor="start" x="581" y="-254.6" font-family="Helvetica,sans-Serif" font-size="8.00"> transport::struc::shm::Builder_base</text>
<text text-anchor="middle" x="677.5" y="-245.6" font-family="Helvetica,sans-Serif" font-size="8.00">::S_MAX_SERIALIZATION_SEGMENT_SZ, true &gt; &gt;</text>
</a>
</g>
</g>
<!-- Node9&#45;&gt;Node10 -->
<g id="edge9" class="edge">
<title>Node9&#45;&gt;Node10</title>
<path fill="none" stroke="midnightblue" d="M547.55,-286.09C555.93,-285.93 564.34,-285.76 572.63,-285.59"/>
<polygon fill="midnightblue" stroke="midnightblue" points="547.28,-282.6 537.36,-286.3 547.43,-289.6 547.28,-282.6"/>
</g>
<!-- Node11 -->
<g id="node11" class="node">
<title>Node11</title>
<g id="a_node11"><a xlink:href="classipc_1_1session_1_1shm_1_1arena__lend_1_1jemalloc_1_1Server__session__impl.html" target="_top" xlink:title="Core internally&#45;used implementation of shm::arena_lend::jemalloc::Server_session: it is to the latter...">
<polygon fill="white" stroke="black" points="822,-252.5 822,-314.5 960,-314.5 960,-252.5 822,-252.5"/>
<text text-anchor="start" x="830" y="-304.1" font-family="Helvetica,sans-Serif" font-size="8.00">ipc::session::shm::</text>
<text text-anchor="start" x="830" y="-295.1" font-family="Helvetica,sans-Serif" font-size="8.00">arena_lend::jemalloc</text>
<text text-anchor="start" x="830" y="-286.1" font-family="Helvetica,sans-Serif" font-size="8.00">::Server_session_impl</text>
<text text-anchor="start" x="830" y="-277.1" font-family="Helvetica,sans-Serif" font-size="8.00">&lt; S_MQ_TYPE_OR_NONE, S</text>
<text text-anchor="start" x="830" y="-268.1" font-family="Helvetica,sans-Serif" font-size="8.00">_TRANSMIT_NATIVE_HANDLES,</text>
<text text-anchor="middle" x="891" y="-259.1" font-family="Helvetica,sans-Serif" font-size="8.00"> Mdt_payload &gt;</text>
</a>
</g>
</g>
<!-- Node10&#45;&gt;Node11 -->
<g id="edge10" class="edge">
<title>Node10&#45;&gt;Node11</title>
<path fill="none" stroke="midnightblue" d="M792.2,-283.5C802.31,-283.5 812.31,-283.5 821.85,-283.5"/>
<polygon fill="midnightblue" stroke="midnightblue" points="792.08,-280 782.08,-283.5 792.08,-287 792.08,-280"/>
</g>
<!-- Node13 -->
<g id="node13" class="node">
<title>Node13</title>
<g id="a_node13"><a xlink:href="classipc_1_1session_1_1shm_1_1classic_1_1Session__impl.html" target="_top" xlink:title=" ">
<polygon fill="white" stroke="black" points="583.5,-131 583.5,-220 771.5,-220 771.5,-131 583.5,-131"/>
<text text-anchor="start" x="591.5" y="-209.6" font-family="Helvetica,sans-Serif" font-size="8.00">ipc::session::shm::</text>
<text text-anchor="start" x="591.5" y="-200.6" font-family="Helvetica,sans-Serif" font-size="8.00">classic::Session_impl</text>
<text text-anchor="start" x="591.5" y="-191.6" font-family="Helvetica,sans-Serif" font-size="8.00">&lt; session::Server_session</text>
<text text-anchor="start" x="591.5" y="-182.6" font-family="Helvetica,sans-Serif" font-size="8.00">_impl&lt; S_MQ_TYPE_OR_NONE,</text>
<text text-anchor="start" x="591.5" y="-173.6" font-family="Helvetica,sans-Serif" font-size="8.00"> S_TRANSMIT_NATIVE_HANDLES,</text>
<text text-anchor="start" x="591.5" y="-164.6" font-family="Helvetica,sans-Serif" font-size="8.00"> Mdt_payload, schema::ShmType</text>
<text text-anchor="start" x="591.5" y="-155.6" font-family="Helvetica,sans-Serif" font-size="8.00">::CLASSIC, transport::struc::</text>
<text text-anchor="start" x="591.5" y="-146.6" font-family="Helvetica,sans-Serif" font-size="8.00">shm::Builder_base::S_MAX_SERIALIZATION</text>
<text text-anchor="middle" x="677.5" y="-137.6" font-family="Helvetica,sans-Serif" font-size="8.00">_SEGMENT_SZ &gt; &gt;</text>
</a>
</g>
</g>
<!-- Node12&#45;&gt;Node13 -->
<g id="edge12" class="edge">
<title>Node12&#45;&gt;Node13</title>
<path fill="none" stroke="midnightblue" d="M520.97,-189.89C541.38,-188.01 562.99,-186.01 583.4,-184.12"/>
<polygon fill="midnightblue" stroke="midnightblue" points="520.38,-186.43 510.75,-190.84 521.03,-193.4 520.38,-186.43"/>
</g>
<!-- Node14 -->
<g id="node14" class="node">
<title>Node14</title>
<g id="a_node14"><a xlink:href="classipc_1_1session_1_1shm_1_1classic_1_1Server__session__impl.html" target="_top" xlink:title="Core internally&#45;used implementation of shm::classic::Server_session: it is to the latter what its pub...">
<polygon fill="white" stroke="black" points="818,-149 818,-202 964,-202 964,-149 818,-149"/>
<text text-anchor="start" x="826" y="-191.6" font-family="Helvetica,sans-Serif" font-size="8.00">ipc::session::shm::</text>
<text text-anchor="start" x="826" y="-182.6" font-family="Helvetica,sans-Serif" font-size="8.00">classic::Server_session</text>
<text text-anchor="start" x="826" y="-173.6" font-family="Helvetica,sans-Serif" font-size="8.00">_impl&lt; S_MQ_TYPE_OR_NONE,</text>
<text text-anchor="start" x="826" y="-164.6" font-family="Helvetica,sans-Serif" font-size="8.00"> S_TRANSMIT_NATIVE_HANDLES,</text>
<text text-anchor="middle" x="891" y="-155.6" font-family="Helvetica,sans-Serif" font-size="8.00"> Mdt_payload &gt;</text>
</a>
</g>
</g>
<!-- Node13&#45;&gt;Node14 -->
<g id="edge13" class="edge">
<title>Node13&#45;&gt;Node14</title>
<path fill="none" stroke="midnightblue" d="M781.8,-175.5C793.99,-175.5 806.23,-175.5 817.87,-175.5"/>
<polygon fill="midnightblue" stroke="midnightblue" points="781.57,-172 771.57,-175.5 781.57,-179 781.57,-172"/>
</g>
</g>
</svg>
