<?xml version="1.0" encoding="UTF-8" standalone="no"?>
<!DOCTYPE svg PUBLIC "-//W3C//DTD SVG 1.1//EN"
 "http://www.w3.org/Graphics/SVG/1.1/DTD/svg11.dtd">
<!-- Generated by graphviz version 2.43.0 (0)
 -->
<!-- Title: ipc::transport::sync_io::Blob_stream_mq_receiver_impl&lt; Persistent_mq_handle &gt; Pages: 1 -->
<svg width="894pt" height="1280pt"
 viewBox="0.00 0.00 894.00 1280.00" xmlns="http://www.w3.org/2000/svg" xmlns:xlink="http://www.w3.org/1999/xlink">
<g id="graph0" class="graph" transform="scale(1 1) rotate(0) translate(4 1276)">
<title>ipc::transport::sync_io::Blob_stream_mq_receiver_impl&lt; Persistent_mq_handle &gt;</title>
<polygon fill="white" stroke="transparent" points="-4,4 -4,-1276 890,-1276 890,4 -4,4"/>
<!-- Node1 -->
<g id="node1" class="node">
<title>Node1</title>
<g id="a_node1"><a xlink:title="Internal, non&#45;movable pImpl&#45;lite implementation of sync_io::Blob_stream_mq_receiver class template.">
<polygon fill="#bfbfbf" stroke="black" points="741,-516.5 741,-551.5 886,-551.5 886,-516.5 741,-516.5"/>
<text text-anchor="start" x="749" y="-541.1" font-family="Helvetica,sans-Serif" font-size="8.00">ipc::transport::sync</text>
<text text-anchor="start" x="749" y="-532.1" font-family="Helvetica,sans-Serif" font-size="8.00">_io::Blob_stream_mq_receiver</text>
<text text-anchor="middle" x="813.5" y="-523.1" font-family="Helvetica,sans-Serif" font-size="8.00">_impl&lt; Persistent_mq_handle &gt;</text>
</a>
</g>
</g>
<!-- Node2 -->
<g id="node2" class="node">
<title>Node2</title>
<g id="a_node2"><a xlink:href="classipc_1_1transport_1_1Blob__stream__mq__base__impl.html" target="_top" xlink:title="Internal implementation of Blob_stream_mq_base class template; and common utilities used by Blob_stre...">
<polygon fill="white" stroke="black" points="482,-1236.5 482,-1271.5 606,-1271.5 606,-1236.5 482,-1236.5"/>
<text text-anchor="start" x="490" y="-1261.1" font-family="Helvetica,sans-Serif" font-size="8.00">ipc::transport::Blob</text>
<text text-anchor="start" x="490" y="-1252.1" font-family="Helvetica,sans-Serif" font-size="8.00">_stream_mq_base_impl</text>
<text text-anchor="middle" x="544" y="-1243.1" font-family="Helvetica,sans-Serif" font-size="8.00">&lt; Persistent_mq_handle &gt;</text>
</a>
</g>
</g>
<!-- Node2&#45;&gt;Node1 -->
<g id="edge1" class="edge">
<title>Node2&#45;&gt;Node1</title>
<path fill="none" stroke="midnightblue" d="M616.43,-1260.19C653.28,-1259.28 696.03,-1251.16 723,-1223 771.08,-1172.8 805.14,-654.42 811.44,-551.65"/>
<polygon fill="midnightblue" stroke="midnightblue" points="616.19,-1256.69 606.22,-1260.26 616.24,-1263.69 616.19,-1256.69"/>
</g>
<!-- Node3 -->
<g id="node3" class="node">
<title>Node3</title>
<g id="a_node3"><a xlink:title=" ">
<polygon fill="white" stroke="#bfbfbf" points="206,-901.5 206,-918.5 313,-918.5 313,-901.5 206,-901.5"/>
<text text-anchor="middle" x="259.5" y="-908.1" font-family="Helvetica,sans-Serif" font-size="8.00">flow::log::Log_context</text>
</a>
</g>
</g>
<!-- Node3&#45;&gt;Node1 -->
<g id="edge2" class="edge">
<title>Node3&#45;&gt;Node1</title>
<path fill="none" stroke="midnightblue" d="M322.05,-922.99C324.17,-924.49 326.17,-926.15 328,-928 350.61,-950.82 320.61,-978.32 346,-998 387.45,-1030.14 413.27,-1011.31 464,-998 591.81,-964.46 641.37,-955.91 723,-852 797.58,-757.07 810.03,-603.25 812.09,-551.57"/>
<polygon fill="midnightblue" stroke="midnightblue" points="323.74,-919.93 313.32,-917.99 320.26,-926 323.74,-919.93"/>
</g>
<!-- Node7 -->
<g id="node7" class="node">
<title>Node7</title>
<g id="a_node7"><a xlink:href="classipc_1_1transport_1_1Protocol__negotiator.html" target="_top" xlink:title="A simple state machine that, assuming the opposide side of a comm pathway uses an equivalent state ma...">
<polygon fill="white" stroke="black" points="488.5,-689 488.5,-715 599.5,-715 599.5,-689 488.5,-689"/>
<text text-anchor="start" x="496.5" y="-704.6" font-family="Helvetica,sans-Serif" font-size="8.00">ipc::transport::Protocol</text>
<text text-anchor="middle" x="544" y="-695.6" font-family="Helvetica,sans-Serif" font-size="8.00">_negotiator</text>
</a>
</g>
</g>
<!-- Node3&#45;&gt;Node7 -->
<g id="edge7" class="edge">
<title>Node3&#45;&gt;Node7</title>
<path fill="none" stroke="midnightblue" d="M321.91,-896.87C324.07,-895.41 326.12,-893.79 328,-892 346.95,-873.99 327.73,-854.7 346,-836 384.8,-796.28 426.02,-835.5 464,-795 484.5,-773.13 462.57,-752.82 482,-730 487.29,-723.79 494.24,-718.88 501.56,-715.03"/>
<polygon fill="midnightblue" stroke="midnightblue" points="320.14,-893.85 313.08,-901.76 323.52,-899.98 320.14,-893.85"/>
</g>
<!-- Node21 -->
<g id="node21" class="node">
<title>Node21</title>
<g id="a_node21"><a xlink:href="classipc_1_1util_1_1sync__io_1_1Timer__event__emitter.html" target="_top" xlink:title="An object of this type, used internally to implement sync_io&#45;pattern objects that require timer event...">
<polygon fill="white" stroke="black" points="491.5,-861 491.5,-887 596.5,-887 596.5,-861 491.5,-861"/>
<text text-anchor="start" x="499.5" y="-876.6" font-family="Helvetica,sans-Serif" font-size="8.00">ipc::util::sync_io</text>
<text text-anchor="middle" x="544" y="-867.6" font-family="Helvetica,sans-Serif" font-size="8.00">::Timer_event_emitter</text>
</a>
</g>
</g>
<!-- Node3&#45;&gt;Node21 -->
<g id="edge26" class="edge">
<title>Node3&#45;&gt;Node21</title>
<path fill="none" stroke="midnightblue" d="M323.46,-901.98C374.02,-895.53 444.13,-886.6 491.41,-880.57"/>
<polygon fill="midnightblue" stroke="midnightblue" points="322.78,-898.53 313.3,-903.27 323.67,-905.48 322.78,-898.53"/>
</g>
<!-- Node4 -->
<g id="node4" class="node">
<title>Node4</title>
<g id="a_node4"><a xlink:title=" ">
<polygon fill="white" stroke="#bfbfbf" points="210,-1010.5 210,-1027.5 309,-1027.5 309,-1010.5 210,-1010.5"/>
<text text-anchor="middle" x="259.5" y="-1017.1" font-family="Helvetica,sans-Serif" font-size="8.00">boost::noncopyable</text>
</a>
</g>
</g>
<!-- Node4&#45;&gt;Node1 -->
<g id="edge3" class="edge">
<title>Node4&#45;&gt;Node1</title>
<path fill="none" stroke="#8b1a1a" d="M319.31,-1026.74C422.29,-1036.53 632.88,-1038.88 723,-911 805.93,-793.33 812.75,-608.94 812.76,-551.61"/>
<polygon fill="#8b1a1a" stroke="#8b1a1a" points="319.39,-1023.23 309.09,-1025.71 318.69,-1030.2 319.39,-1023.23"/>
</g>
<!-- Node4&#45;&gt;Node21 -->
<g id="edge27" class="edge">
<title>Node4&#45;&gt;Node21</title>
<path fill="none" stroke="#8b1a1a" d="M319.18,-1016.06C362.11,-1011.57 420.24,-1000.42 464,-973 498.66,-951.28 524.66,-908.86 536.28,-887.29"/>
<polygon fill="#8b1a1a" stroke="#8b1a1a" points="318.78,-1012.58 309.16,-1017.02 319.45,-1019.55 318.78,-1012.58"/>
</g>
<!-- Node5 -->
<g id="node5" class="node">
<title>Node5</title>
<g id="a_node5"><a xlink:title=" ">
<polygon fill="white" stroke="black" points="230,-754.5 230,-771.5 289,-771.5 289,-754.5 230,-754.5"/>
<text text-anchor="middle" x="259.5" y="-761.1" font-family="Helvetica,sans-Serif" font-size="8.00">std::string</text>
</a>
</g>
</g>
<!-- Node5&#45;&gt;Node1 -->
<g id="edge4" class="edge">
<title>Node5&#45;&gt;Node1</title>
<path fill="none" stroke="#9a32cd" stroke-dasharray="5,2" d="M299.43,-763.76C398.08,-764.96 654.91,-763.34 723,-716 780.24,-676.2 802.48,-589.09 809.61,-551.66"/>
<polygon fill="#9a32cd" stroke="#9a32cd" points="299.34,-760.26 289.29,-763.62 299.24,-767.26 299.34,-760.26"/>
<text text-anchor="middle" x="544" y="-762.6" font-family="Helvetica,sans-Serif" font-size="8.00"> m_nickname</text>
</g>
<!-- Node5&#45;&gt;Node7 -->
<g id="edge9" class="edge">
<title>Node5&#45;&gt;Node7</title>
<path fill="none" stroke="#9a32cd" stroke-dasharray="5,2" d="M287.96,-750.1C304.45,-742.86 326.04,-734.25 346,-729 393.24,-716.57 448.44,-709.63 488.38,-705.91"/>
<polygon fill="#9a32cd" stroke="#9a32cd" points="286.1,-747.1 278.41,-754.39 288.97,-753.49 286.1,-747.1"/>
<text text-anchor="middle" x="405" y="-731.6" font-family="Helvetica,sans-Serif" font-size="8.00"> m_nickname</text>
</g>
<!-- Node11 -->
<g id="node11" class="node">
<title>Node11</title>
<g id="a_node11"><a xlink:href="classipc_1_1util_1_1Shared__name.html" target="_top" xlink:title="String&#45;wrapping abstraction representing a name uniquely distinguishing a kernel&#45;persistent entity fr...">
<polygon fill="white" stroke="black" points="489,-1065.5 489,-1082.5 599,-1082.5 599,-1065.5 489,-1065.5"/>
<text text-anchor="middle" x="544" y="-1072.1" font-family="Helvetica,sans-Serif" font-size="8.00">ipc::util::Shared_name</text>
</a>
</g>
</g>
<!-- Node5&#45;&gt;Node11 -->
<g id="edge16" class="edge">
<title>Node5&#45;&gt;Node11</title>
<path fill="none" stroke="#9a32cd" stroke-dasharray="5,2" d="M298.92,-772.25C309.92,-776.75 320.86,-783.35 328,-793 367.4,-846.28 311.42,-884.47 346,-941 386.91,-1007.88 475.61,-1048.75 518.63,-1065.37"/>
<polygon fill="#9a32cd" stroke="#9a32cd" points="299.91,-768.89 289.32,-768.82 297.56,-775.48 299.91,-768.89"/>
<text text-anchor="middle" x="405" y="-1040.6" font-family="Helvetica,sans-Serif" font-size="8.00"> m_raw_name</text>
</g>
<!-- Node5&#45;&gt;Node21 -->
<g id="edge28" class="edge">
<title>Node5&#45;&gt;Node21</title>
<path fill="none" stroke="#9a32cd" stroke-dasharray="5,2" d="M298.99,-772.25C340.65,-782.91 408.56,-802.2 464,-827 485.41,-836.58 508.28,-850.66 523.88,-860.9"/>
<polygon fill="#9a32cd" stroke="#9a32cd" points="299.79,-768.84 289.24,-769.79 298.08,-775.63 299.79,-768.84"/>
<text text-anchor="middle" x="405" y="-829.6" font-family="Helvetica,sans-Serif" font-size="8.00"> m_nickname</text>
</g>
<!-- Node6 -->
<g id="node6" class="node">
<title>Node6</title>
<g id="a_node6"><a xlink:title=" ">
<polygon fill="white" stroke="black" points="11.5,-750 11.5,-776 102.5,-776 102.5,-750 11.5,-750"/>
<text text-anchor="start" x="19.5" y="-765.6" font-family="Helvetica,sans-Serif" font-size="8.00">std::basic_string&lt;</text>
<text text-anchor="middle" x="57" y="-756.6" font-family="Helvetica,sans-Serif" font-size="8.00"> Char &gt;</text>
</a>
</g>
</g>
<!-- Node6&#45;&gt;Node5 -->
<g id="edge5" class="edge">
<title>Node6&#45;&gt;Node5</title>
<path fill="none" stroke="midnightblue" d="M113.11,-763C150.96,-763 199.66,-763 229.98,-763"/>
<polygon fill="midnightblue" stroke="midnightblue" points="112.75,-759.5 102.75,-763 112.75,-766.5 112.75,-759.5"/>
</g>
<!-- Node7&#45;&gt;Node1 -->
<g id="edge6" class="edge">
<title>Node7&#45;&gt;Node1</title>
<path fill="none" stroke="#9a32cd" stroke-dasharray="5,2" d="M610.13,-704.84C646.02,-703.45 689.88,-696.6 723,-675 768.9,-645.07 795.81,-582.48 806.75,-551.77"/>
<polygon fill="#9a32cd" stroke="#9a32cd" points="609.66,-701.35 599.75,-705.11 609.84,-708.35 609.66,-701.35"/>
<text text-anchor="middle" x="673.5" y="-705.6" font-family="Helvetica,sans-Serif" font-size="8.00"> m_protocol_negotiator</text>
</g>
<!-- Node8 -->
<g id="node8" class="node">
<title>Node8</title>
<g id="a_node8"><a xlink:title=" ">
<polygon fill="white" stroke="#bfbfbf" points="207,-674 207,-700 312,-700 312,-674 207,-674"/>
<text text-anchor="start" x="215" y="-689.6" font-family="Helvetica,sans-Serif" font-size="8.00">static constexpr proto</text>
<text text-anchor="middle" x="259.5" y="-680.6" font-family="Helvetica,sans-Serif" font-size="8.00">_ver_t</text>
</a>
</g>
</g>
<!-- Node8&#45;&gt;Node7 -->
<g id="edge8" class="edge">
<title>Node8&#45;&gt;Node7</title>
<path fill="none" stroke="#9a32cd" stroke-dasharray="5,2" d="M322.28,-684.58C362.69,-683.66 416.58,-683.71 464,-688 471.91,-688.71 480.21,-689.81 488.34,-691.07"/>
<polygon fill="#9a32cd" stroke="#9a32cd" points="321.96,-681.08 312.05,-684.83 322.14,-688.08 321.96,-681.08"/>
<text text-anchor="middle" x="405" y="-699.6" font-family="Helvetica,sans-Serif" font-size="8.00"> S_VER_UNKNOWN</text>
<text text-anchor="middle" x="405" y="-690.6" font-family="Helvetica,sans-Serif" font-size="8.00">S_VER_UNSUPPORTED</text>
</g>
<!-- Node9 -->
<g id="node9" class="node">
<title>Node9</title>
<g id="a_node9"><a xlink:title=" ">
<polygon fill="white" stroke="#bfbfbf" points="237.5,-628.5 237.5,-645.5 281.5,-645.5 281.5,-628.5 237.5,-628.5"/>
<text text-anchor="middle" x="259.5" y="-635.1" font-family="Helvetica,sans-Serif" font-size="8.00">int16_t</text>
</a>
</g>
</g>
<!-- Node9&#45;&gt;Node7 -->
<g id="edge10" class="edge">
<title>Node9&#45;&gt;Node7</title>
<path fill="none" stroke="#9a32cd" stroke-dasharray="5,2" d="M291.62,-632.41C333.32,-627.76 408.49,-624.78 464,-653 474.96,-658.57 472.19,-666.6 482,-674 489.72,-679.82 498.85,-684.82 507.66,-688.9"/>
<polygon fill="#9a32cd" stroke="#9a32cd" points="291.03,-628.95 281.53,-633.64 291.88,-635.9 291.03,-628.95"/>
<text text-anchor="middle" x="405" y="-673.6" font-family="Helvetica,sans-Serif" font-size="8.00"> m_local_max_proto_ver</text>
<text text-anchor="middle" x="405" y="-664.6" font-family="Helvetica,sans-Serif" font-size="8.00">m_local_min_proto_ver</text>
<text text-anchor="middle" x="405" y="-655.6" font-family="Helvetica,sans-Serif" font-size="8.00">m_negotiated_proto_ver</text>
</g>
<!-- Node10 -->
<g id="node10" class="node">
<title>Node10</title>
<g id="a_node10"><a xlink:title=" ">
<polygon fill="white" stroke="#bfbfbf" points="242,-578.5 242,-595.5 277,-595.5 277,-578.5 242,-578.5"/>
<text text-anchor="middle" x="259.5" y="-585.1" font-family="Helvetica,sans-Serif" font-size="8.00">bool</text>
</a>
</g>
</g>
<!-- Node10&#45;&gt;Node1 -->
<g id="edge34" class="edge">
<title>Node10&#45;&gt;Node1</title>
<path fill="none" stroke="#9a32cd" stroke-dasharray="5,2" d="M287.43,-586.6C304.26,-586.38 326.39,-586.11 346,-586 398.44,-585.69 420.89,-556.13 464,-586 482.73,-598.98 463.27,-621.02 482,-634 527.3,-665.39 551.07,-638.43 606,-634 658.51,-629.76 675.52,-637.83 723,-615 754.16,-600.01 782.33,-570.7 798.43,-551.75"/>
<polygon fill="#9a32cd" stroke="#9a32cd" points="287.16,-583.11 277.21,-586.75 287.26,-590.11 287.16,-583.11"/>
<text text-anchor="middle" x="544" y="-650.6" font-family="Helvetica,sans-Serif" font-size="8.00"> m_control_state</text>
</g>
<!-- Node10&#45;&gt;Node7 -->
<g id="edge11" class="edge">
<title>Node10&#45;&gt;Node7</title>
<path fill="none" stroke="#9a32cd" stroke-dasharray="5,2" d="M287.42,-587.37C336.51,-588.58 437.93,-593.78 464,-616 484.54,-633.51 464.19,-653.72 482,-674 487.38,-680.13 494.38,-685 501.71,-688.84"/>
<polygon fill="#9a32cd" stroke="#9a32cd" points="287.31,-583.86 277.24,-587.15 287.16,-590.86 287.31,-583.86"/>
<text text-anchor="middle" x="405" y="-618.6" font-family="Helvetica,sans-Serif" font-size="8.00"> m_local_max_proto_ver_sent</text>
</g>
<!-- Node11&#45;&gt;Node1 -->
<g id="edge12" class="edge">
<title>Node11&#45;&gt;Node1</title>
<path fill="none" stroke="#9a32cd" stroke-dasharray="5,2" d="M609.68,-1082.68C647.54,-1083.97 693.54,-1078.37 723,-1050 796.68,-979.05 809.98,-634.22 812.12,-551.75"/>
<polygon fill="#9a32cd" stroke="#9a32cd" points="609.4,-1079.16 599.24,-1082.15 609.05,-1086.16 609.4,-1079.16"/>
<text text-anchor="middle" x="673.5" y="-1084.6" font-family="Helvetica,sans-Serif" font-size="8.00"> m_absolute_name</text>
</g>
<!-- Node11&#45;&gt;Node11 -->
<g id="edge13" class="edge">
<title>Node11&#45;&gt;Node11</title>
<path fill="none" stroke="#9a32cd" stroke-dasharray="5,2" d="M520,-1091.1C520.21,-1096.62 528.21,-1101 544,-1101 567.5,-1101 573.74,-1091.29 562.73,-1082.57"/>
<polygon fill="#9a32cd" stroke="#9a32cd" points="522.99,-1092.92 525.27,-1082.57 517.04,-1089.24 522.99,-1092.92"/>
<text text-anchor="middle" x="544" y="-1166.6" font-family="Helvetica,sans-Serif" font-size="8.00"> S_1ST_OR_ONLY</text>
<text text-anchor="middle" x="544" y="-1157.6" font-family="Helvetica,sans-Serif" font-size="8.00">S_EMPTY</text>
<text text-anchor="start" x="505.5" y="-1148.6" font-family="Helvetica,sans-Serif" font-size="8.00">S_RESOURCE_TYPE</text>
<text text-anchor="middle" x="544" y="-1139.6" font-family="Helvetica,sans-Serif" font-size="8.00">_ID_MUTEX</text>
<text text-anchor="start" x="505.5" y="-1130.6" font-family="Helvetica,sans-Serif" font-size="8.00">S_RESOURCE_TYPE</text>
<text text-anchor="middle" x="544" y="-1121.6" font-family="Helvetica,sans-Serif" font-size="8.00">_ID_SHM</text>
<text text-anchor="middle" x="544" y="-1112.6" font-family="Helvetica,sans-Serif" font-size="8.00">S_ROOT_MAGIC</text>
<text text-anchor="middle" x="544" y="-1103.6" font-family="Helvetica,sans-Serif" font-size="8.00">S_SENTINEL</text>
</g>
<!-- Node12 -->
<g id="node12" class="node">
<title>Node12</title>
<g id="a_node12"><a xlink:title=" ">
<polygon fill="white" stroke="#bfbfbf" points="239.5,-1169.5 239.5,-1186.5 279.5,-1186.5 279.5,-1169.5 239.5,-1169.5"/>
<text text-anchor="middle" x="259.5" y="-1176.1" font-family="Helvetica,sans-Serif" font-size="8.00">size_t</text>
</a>
</g>
</g>
<!-- Node12&#45;&gt;Node1 -->
<g id="edge20" class="edge">
<title>Node12&#45;&gt;Node1</title>
<path fill="none" stroke="#9a32cd" stroke-dasharray="5,2" d="M289.55,-1184.74C376.4,-1202.98 633.61,-1242.51 723,-1095 780.69,-999.79 806.23,-636.25 811.46,-551.66"/>
<polygon fill="#9a32cd" stroke="#9a32cd" points="290.11,-1181.28 279.59,-1182.59 288.62,-1188.12 290.11,-1181.28"/>
<text text-anchor="middle" x="544" y="-1205.6" font-family="Helvetica,sans-Serif" font-size="8.00"> m_mq_max_msg_sz</text>
</g>
<!-- Node12&#45;&gt;Node11 -->
<g id="edge14" class="edge">
<title>Node12&#45;&gt;Node11</title>
<path fill="none" stroke="#9a32cd" stroke-dasharray="5,2" d="M289.61,-1167.29C345.79,-1146.6 468.16,-1101.55 519.54,-1082.64"/>
<polygon fill="#9a32cd" stroke="#9a32cd" points="288.09,-1164.11 279.92,-1170.85 290.51,-1170.68 288.09,-1164.11"/>
<text text-anchor="middle" x="405" y="-1146.6" font-family="Helvetica,sans-Serif" font-size="8.00"> S_MAX_LENGTH</text>
</g>
<!-- Node13 -->
<g id="node13" class="node">
<title>Node13</title>
<g id="a_node13"><a xlink:title=" ">
<polygon fill="white" stroke="#bfbfbf" points="217.5,-1065.5 217.5,-1082.5 301.5,-1082.5 301.5,-1065.5 217.5,-1065.5"/>
<text text-anchor="middle" x="259.5" y="-1072.1" font-family="Helvetica,sans-Serif" font-size="8.00">static const char</text>
</a>
</g>
</g>
<!-- Node13&#45;&gt;Node11 -->
<g id="edge15" class="edge">
<title>Node13&#45;&gt;Node11</title>
<path fill="none" stroke="#9a32cd" stroke-dasharray="5,2" d="M311.85,-1074C361.92,-1074 437.78,-1074 488.8,-1074"/>
<polygon fill="#9a32cd" stroke="#9a32cd" points="311.58,-1070.5 301.58,-1074 311.58,-1077.5 311.58,-1070.5"/>
<text text-anchor="middle" x="405" y="-1076.6" font-family="Helvetica,sans-Serif" font-size="8.00"> S_SEPARATOR</text>
</g>
<!-- Node14 -->
<g id="node14" class="node">
<title>Node14</title>
<g id="a_node14"><a xlink:title=" ">
<polygon fill="white" stroke="#bfbfbf" points="496.5,-598 496.5,-624 591.5,-624 591.5,-598 496.5,-598"/>
<text text-anchor="start" x="504.5" y="-613.6" font-family="Helvetica,sans-Serif" font-size="8.00">optional&lt; flow::util</text>
<text text-anchor="middle" x="544" y="-604.6" font-family="Helvetica,sans-Serif" font-size="8.00">::Task_engine &gt;</text>
</a>
</g>
</g>
<!-- Node14&#45;&gt;Node1 -->
<g id="edge17" class="edge">
<title>Node14&#45;&gt;Node1</title>
<path fill="none" stroke="#9a32cd" stroke-dasharray="5,2" d="M601.9,-606.05C637.4,-601.83 683.68,-594.26 723,-581 744.62,-573.71 767.36,-561.7 784.51,-551.65"/>
<polygon fill="#9a32cd" stroke="#9a32cd" points="601.25,-602.6 591.71,-607.2 602.04,-609.55 601.25,-602.6"/>
<text text-anchor="middle" x="673.5" y="-604.6" font-family="Helvetica,sans-Serif" font-size="8.00"> m_nb_task_engine</text>
</g>
<!-- Node15 -->
<g id="node15" class="node">
<title>Node15</title>
<g id="a_node15"><a xlink:title=" ">
<polygon fill="white" stroke="#bfbfbf" points="510.5,-561.5 510.5,-578.5 577.5,-578.5 577.5,-561.5 510.5,-561.5"/>
<text text-anchor="middle" x="544" y="-568.1" font-family="Helvetica,sans-Serif" font-size="8.00">Task_engine</text>
</a>
</g>
</g>
<!-- Node15&#45;&gt;Node1 -->
<g id="edge18" class="edge">
<title>Node15&#45;&gt;Node1</title>
<path fill="none" stroke="#9a32cd" stroke-dasharray="5,2" d="M587.67,-564.68C623.74,-560.13 676.78,-553.34 723,-547 728.76,-546.21 734.72,-545.38 740.7,-544.53"/>
<polygon fill="#9a32cd" stroke="#9a32cd" points="586.99,-561.24 577.5,-565.96 587.86,-568.18 586.99,-561.24"/>
<text text-anchor="start" x="624" y="-570.6" font-family="Helvetica,sans-Serif" font-size="8.00"> m_ev_hndl_task_engine</text>
<text text-anchor="middle" x="673.5" y="-561.6" font-family="Helvetica,sans-Serif" font-size="8.00">_unused</text>
</g>
<!-- Node16 -->
<g id="node16" class="node">
<title>Node16</title>
<g id="a_node16"><a xlink:title=" ">
<polygon fill="white" stroke="#bfbfbf" points="501.5,-525.5 501.5,-542.5 586.5,-542.5 586.5,-525.5 501.5,-525.5"/>
<text text-anchor="middle" x="544" y="-532.1" font-family="Helvetica,sans-Serif" font-size="8.00">Auto_closing_mq</text>
</a>
</g>
</g>
<!-- Node16&#45;&gt;Node1 -->
<g id="edge19" class="edge">
<title>Node16&#45;&gt;Node1</title>
<path fill="none" stroke="#9a32cd" stroke-dasharray="5,2" d="M596.55,-534C637.56,-534 695.41,-534 740.92,-534"/>
<polygon fill="#9a32cd" stroke="#9a32cd" points="596.5,-530.5 586.5,-534 596.5,-537.5 596.5,-530.5"/>
<text text-anchor="middle" x="673.5" y="-536.6" font-family="Helvetica,sans-Serif" font-size="8.00"> m_mq</text>
</g>
<!-- Node17 -->
<g id="node17" class="node">
<title>Node17</title>
<g id="a_node17"><a xlink:title=" ">
<polygon fill="white" stroke="#bfbfbf" points="496.5,-480 496.5,-506 591.5,-506 591.5,-480 496.5,-480"/>
<text text-anchor="start" x="504.5" y="-495.6" font-family="Helvetica,sans-Serif" font-size="8.00">optional&lt; util::Pipe</text>
<text text-anchor="middle" x="544" y="-486.6" font-family="Helvetica,sans-Serif" font-size="8.00">_reader &gt;</text>
</a>
</g>
</g>
<!-- Node17&#45;&gt;Node1 -->
<g id="edge21" class="edge">
<title>Node17&#45;&gt;Node1</title>
<path fill="none" stroke="#9a32cd" stroke-dasharray="5,2" d="M601.58,-501.67C642.16,-507.89 697.13,-516.32 740.78,-523.01"/>
<polygon fill="#9a32cd" stroke="#9a32cd" points="602.01,-498.2 591.59,-500.14 600.95,-505.12 602.01,-498.2"/>
<text text-anchor="middle" x="673.5" y="-521.6" font-family="Helvetica,sans-Serif" font-size="8.00"> m_mq_ready_reader</text>
</g>
<!-- Node18 -->
<g id="node18" class="node">
<title>Node18</title>
<g id="a_node18"><a xlink:title=" ">
<polygon fill="white" stroke="#bfbfbf" points="496.5,-435 496.5,-461 591.5,-461 591.5,-435 496.5,-435"/>
<text text-anchor="start" x="504.5" y="-450.6" font-family="Helvetica,sans-Serif" font-size="8.00">optional&lt; util::Pipe</text>
<text text-anchor="middle" x="544" y="-441.6" font-family="Helvetica,sans-Serif" font-size="8.00">_writer &gt;</text>
</a>
</g>
</g>
<!-- Node18&#45;&gt;Node1 -->
<g id="edge22" class="edge">
<title>Node18&#45;&gt;Node1</title>
<path fill="none" stroke="#9a32cd" stroke-dasharray="5,2" d="M601.97,-459.1C637.33,-466.71 683.4,-477.97 723,-492 742.09,-498.76 762.6,-508.22 779.16,-516.44"/>
<polygon fill="#9a32cd" stroke="#9a32cd" points="602.34,-455.6 591.84,-456.95 600.89,-462.44 602.34,-455.6"/>
<text text-anchor="middle" x="673.5" y="-494.6" font-family="Helvetica,sans-Serif" font-size="8.00"> m_mq_ready_writer</text>
</g>
<!-- Node19 -->
<g id="node19" class="node">
<title>Node19</title>
<g id="a_node19"><a xlink:href="classipc_1_1util_1_1sync__io_1_1Asio__waitable__native__handle.html" target="_top" xlink:title="Useful if using the sync_io pattern within a user event loop built on boost.asio (optionally with flo...">
<polygon fill="white" stroke="black" points="490,-380.5 490,-415.5 598,-415.5 598,-380.5 490,-380.5"/>
<text text-anchor="start" x="498" y="-405.1" font-family="Helvetica,sans-Serif" font-size="8.00">ipc::util::sync_io</text>
<text text-anchor="start" x="498" y="-396.1" font-family="Helvetica,sans-Serif" font-size="8.00">::Asio_waitable_native</text>
<text text-anchor="middle" x="544" y="-387.1" font-family="Helvetica,sans-Serif" font-size="8.00">_handle</text>
</a>
</g>
</g>
<!-- Node19&#45;&gt;Node1 -->
<g id="edge23" class="edge">
<title>Node19&#45;&gt;Node1</title>
<path fill="none" stroke="#9a32cd" stroke-dasharray="5,2" d="M608.63,-400.57C644.23,-404.36 688.3,-413.13 723,-433 758.58,-453.37 787.34,-493.09 801.98,-516.18"/>
<polygon fill="#9a32cd" stroke="#9a32cd" points="608.64,-397.06 598.35,-399.59 607.97,-404.02 608.64,-397.06"/>
<text text-anchor="start" x="631" y="-453.6" font-family="Helvetica,sans-Serif" font-size="8.00"> m_ev_wait_hndl_idle</text>
<text text-anchor="middle" x="673.5" y="-444.6" font-family="Helvetica,sans-Serif" font-size="8.00">_timer_fired_peer</text>
<text text-anchor="middle" x="673.5" y="-435.6" font-family="Helvetica,sans-Serif" font-size="8.00">m_ev_wait_hndl_mq</text>
</g>
<!-- Node20 -->
<g id="node20" class="node">
<title>Node20</title>
<g id="a_node20"><a xlink:title=" ">
<polygon fill="white" stroke="#bfbfbf" points="214,-385 214,-411 305,-411 305,-385 214,-385"/>
<text text-anchor="start" x="222" y="-400.6" font-family="Helvetica,sans-Serif" font-size="8.00">boost::asio::posix</text>
<text text-anchor="middle" x="259.5" y="-391.6" font-family="Helvetica,sans-Serif" font-size="8.00">::descriptor</text>
</a>
</g>
</g>
<!-- Node20&#45;&gt;Node19 -->
<g id="edge24" class="edge">
<title>Node20&#45;&gt;Node19</title>
<path fill="none" stroke="darkgreen" d="M315.32,-398C365.7,-398 439.91,-398 489.78,-398"/>
<polygon fill="darkgreen" stroke="darkgreen" points="315.26,-394.5 305.26,-398 315.26,-401.5 315.26,-394.5"/>
</g>
<!-- Node21&#45;&gt;Node1 -->
<g id="edge25" class="edge">
<title>Node21&#45;&gt;Node1</title>
<path fill="none" stroke="#9a32cd" stroke-dasharray="5,2" d="M589.06,-857.07C628.98,-839.7 686.92,-809.11 723,-766 778.97,-699.12 802.34,-593.34 809.7,-551.69"/>
<polygon fill="#9a32cd" stroke="#9a32cd" points="587.66,-853.87 579.82,-861 590.4,-860.31 587.66,-853.87"/>
<text text-anchor="middle" x="673.5" y="-841.6" font-family="Helvetica,sans-Serif" font-size="8.00"> m_timer_worker</text>
</g>
<!-- Node22 -->
<g id="node22" class="node">
<title>Node22</title>
<g id="a_node22"><a xlink:title=" ">
<polygon fill="white" stroke="#bfbfbf" points="201.5,-865.5 201.5,-882.5 317.5,-882.5 317.5,-865.5 201.5,-865.5"/>
<text text-anchor="middle" x="259.5" y="-872.1" font-family="Helvetica,sans-Serif" font-size="8.00">Single_thread_task_loop</text>
</a>
</g>
</g>
<!-- Node22&#45;&gt;Node21 -->
<g id="edge29" class="edge">
<title>Node22&#45;&gt;Node21</title>
<path fill="none" stroke="#9a32cd" stroke-dasharray="5,2" d="M327.76,-874C377.84,-874 445.21,-874 491.15,-874"/>
<polygon fill="#9a32cd" stroke="#9a32cd" points="327.67,-870.5 317.67,-874 327.67,-877.5 327.67,-870.5"/>
<text text-anchor="middle" x="405" y="-876.6" font-family="Helvetica,sans-Serif" font-size="8.00"> m_worker</text>
</g>
<!-- Node23 -->
<g id="node23" class="node">
<title>Node23</title>
<g id="a_node23"><a xlink:title=" ">
<polygon fill="white" stroke="black" points="194,-937.5 194,-972.5 325,-972.5 325,-937.5 194,-937.5"/>
<text text-anchor="start" x="202" y="-962.1" font-family="Helvetica,sans-Serif" font-size="8.00">std::vector&lt; boost</text>
<text text-anchor="start" x="202" y="-953.1" font-family="Helvetica,sans-Serif" font-size="8.00">::movelib::unique_ptr</text>
<text text-anchor="middle" x="259.5" y="-944.1" font-family="Helvetica,sans-Serif" font-size="8.00">&lt; Timer_fired_read_end &gt; &gt;</text>
</a>
</g>
</g>
<!-- Node23&#45;&gt;Node21 -->
<g id="edge30" class="edge">
<title>Node23&#45;&gt;Node21</title>
<path fill="none" stroke="#9a32cd" stroke-dasharray="5,2" d="M334.86,-934.82C338.63,-933.85 342.35,-932.91 346,-932 398.21,-919.01 412.59,-920.87 464,-905 480.33,-899.96 498.08,-893.12 512.61,-887.15"/>
<polygon fill="#9a32cd" stroke="#9a32cd" points="333.66,-931.51 324.86,-937.41 335.42,-938.29 333.66,-931.51"/>
<text text-anchor="middle" x="405" y="-934.6" font-family="Helvetica,sans-Serif" font-size="8.00"> m_signal_pipe_readers</text>
</g>
<!-- Node24 -->
<g id="node24" class="node">
<title>Node24</title>
<g id="a_node24"><a xlink:title=" ">
<polygon fill="white" stroke="#bfbfbf" points="0,-942 0,-968 114,-968 114,-942 0,-942"/>
<text text-anchor="start" x="8" y="-957.6" font-family="Helvetica,sans-Serif" font-size="8.00">unique_ptr&lt; Timer_fired</text>
<text text-anchor="middle" x="57" y="-948.6" font-family="Helvetica,sans-Serif" font-size="8.00">_read_end &gt;</text>
</a>
</g>
</g>
<!-- Node24&#45;&gt;Node23 -->
<g id="edge31" class="edge">
<title>Node24&#45;&gt;Node23</title>
<path fill="none" stroke="#9a32cd" stroke-dasharray="5,2" d="M124.21,-955C146.63,-955 171.61,-955 193.9,-955"/>
<polygon fill="#9a32cd" stroke="#9a32cd" points="124.12,-951.5 114.12,-955 124.12,-958.5 124.12,-951.5"/>
<text text-anchor="middle" x="152.5" y="-957.6" font-family="Helvetica,sans-Serif" font-size="8.00"> elements</text>
</g>
<!-- Node25 -->
<g id="node25" class="node">
<title>Node25</title>
<g id="a_node25"><a xlink:title=" ">
<polygon fill="white" stroke="#bfbfbf" points="191,-802 191,-846 328,-846 328,-802 191,-802"/>
<text text-anchor="start" x="199" y="-835.6" font-family="Helvetica,sans-Serif" font-size="8.00">unordered_map&lt; Timer</text>
<text text-anchor="start" x="199" y="-826.6" font-family="Helvetica,sans-Serif" font-size="8.00">_fired_read_end *, boost</text>
<text text-anchor="start" x="199" y="-817.6" font-family="Helvetica,sans-Serif" font-size="8.00">::movelib::unique_ptr&lt; boost</text>
<text text-anchor="middle" x="259.5" y="-808.6" font-family="Helvetica,sans-Serif" font-size="8.00">::asio::writable_pipe &gt; &gt;</text>
</a>
</g>
</g>
<!-- Node25&#45;&gt;Node21 -->
<g id="edge32" class="edge">
<title>Node25&#45;&gt;Node21</title>
<path fill="none" stroke="#9a32cd" stroke-dasharray="5,2" d="M338.06,-837.73C386.86,-846.36 448.49,-857.27 491.36,-864.86"/>
<polygon fill="#9a32cd" stroke="#9a32cd" points="338.62,-834.27 328.17,-835.98 337.4,-841.17 338.62,-834.27"/>
<text text-anchor="middle" x="405" y="-861.6" font-family="Helvetica,sans-Serif" font-size="8.00"> m_signal_pipe_writers</text>
</g>
<!-- Node26 -->
<g id="node26" class="node">
<title>Node26</title>
<g id="a_node26"><a xlink:title=" ">
<polygon fill="white" stroke="#bfbfbf" points="486,-317 486,-361 602,-361 602,-317 486,-317"/>
<text text-anchor="start" x="494" y="-350.6" font-family="Helvetica,sans-Serif" font-size="8.00">optional&lt; ipc::transport</text>
<text text-anchor="start" x="494" y="-341.6" font-family="Helvetica,sans-Serif" font-size="8.00">::sync_io::Blob_stream</text>
<text text-anchor="start" x="494" y="-332.6" font-family="Helvetica,sans-Serif" font-size="8.00">_mq_receiver_impl::User</text>
<text text-anchor="middle" x="544" y="-323.6" font-family="Helvetica,sans-Serif" font-size="8.00">_request &gt;</text>
</a>
</g>
</g>
<!-- Node26&#45;&gt;Node1 -->
<g id="edge33" class="edge">
<title>Node26&#45;&gt;Node1</title>
<path fill="none" stroke="#9a32cd" stroke-dasharray="5,2" d="M612.15,-345.94C647.93,-352.41 691.02,-364.9 723,-389 767.65,-422.65 795.16,-485.65 806.49,-516.32"/>
<polygon fill="#9a32cd" stroke="#9a32cd" points="612.72,-342.49 602.27,-344.28 611.55,-349.39 612.72,-342.49"/>
<text text-anchor="middle" x="673.5" y="-391.6" font-family="Helvetica,sans-Serif" font-size="8.00"> m_user_request</text>
</g>
<!-- Node27 -->
<g id="node27" class="node">
<title>Node27</title>
<g id="a_node27"><a xlink:title=" ">
<polygon fill="white" stroke="#bfbfbf" points="526.5,-280.5 526.5,-297.5 561.5,-297.5 561.5,-280.5 526.5,-280.5"/>
<text text-anchor="middle" x="544" y="-287.1" font-family="Helvetica,sans-Serif" font-size="8.00">Blob</text>
</a>
</g>
</g>
<!-- Node27&#45;&gt;Node1 -->
<g id="edge35" class="edge">
<title>Node27&#45;&gt;Node1</title>
<path fill="none" stroke="#9a32cd" stroke-dasharray="5,2" d="M571.87,-288.99C609.82,-290.37 679.36,-298.2 723,-335 780.78,-383.72 802.86,-477.36 809.79,-516.32"/>
<polygon fill="#9a32cd" stroke="#9a32cd" points="571.69,-285.48 561.61,-288.75 571.52,-292.48 571.69,-285.48"/>
<text text-anchor="middle" x="673.5" y="-337.6" font-family="Helvetica,sans-Serif" font-size="8.00"> m_target_control_blob</text>
</g>
<!-- Node28 -->
<g id="node28" class="node">
<title>Node28</title>
<g id="a_node28"><a xlink:title=" ">
<polygon fill="white" stroke="#bfbfbf" points="514,-244.5 514,-261.5 574,-261.5 574,-244.5 514,-244.5"/>
<text text-anchor="middle" x="544" y="-251.1" font-family="Helvetica,sans-Serif" font-size="8.00">Error_code</text>
</a>
</g>
</g>
<!-- Node28&#45;&gt;Node1 -->
<g id="edge36" class="edge">
<title>Node28&#45;&gt;Node1</title>
<path fill="none" stroke="#9a32cd" stroke-dasharray="5,2" d="M584.27,-248.41C623.77,-246.03 684.24,-248.79 723,-281 796.99,-342.49 809.85,-469.4 812.05,-516.18"/>
<polygon fill="#9a32cd" stroke="#9a32cd" points="583.92,-244.93 574.21,-249.16 584.44,-251.91 583.92,-244.93"/>
<text text-anchor="middle" x="673.5" y="-283.6" font-family="Helvetica,sans-Serif" font-size="8.00"> m_pending_err_code</text>
</g>
<!-- Node29 -->
<g id="node29" class="node">
<title>Node29</title>
<g id="a_node29"><a xlink:title=" ">
<polygon fill="white" stroke="#bfbfbf" points="508.5,-208.5 508.5,-225.5 579.5,-225.5 579.5,-208.5 508.5,-208.5"/>
<text text-anchor="middle" x="544" y="-215.1" font-family="Helvetica,sans-Serif" font-size="8.00">Fine_duration</text>
</a>
</g>
</g>
<!-- Node29&#45;&gt;Node1 -->
<g id="edge37" class="edge">
<title>Node29&#45;&gt;Node1</title>
<path fill="none" stroke="#9a32cd" stroke-dasharray="5,2" d="M589.88,-208.77C629.37,-204.21 686.18,-204.59 723,-235 767.91,-272.09 800.51,-457.78 809.8,-516.3"/>
<polygon fill="#9a32cd" stroke="#9a32cd" points="589.19,-205.33 579.73,-210.09 590.1,-212.27 589.19,-205.33"/>
<text text-anchor="middle" x="673.5" y="-237.6" font-family="Helvetica,sans-Serif" font-size="8.00"> m_idle_timeout</text>
</g>
<!-- Node30 -->
<g id="node30" class="node">
<title>Node30</title>
<g id="a_node30"><a xlink:title=" ">
<polygon fill="white" stroke="#bfbfbf" points="524.5,-172.5 524.5,-189.5 563.5,-189.5 563.5,-172.5 524.5,-172.5"/>
<text text-anchor="middle" x="544" y="-179.1" font-family="Helvetica,sans-Serif" font-size="8.00">Timer</text>
</a>
</g>
</g>
<!-- Node30&#45;&gt;Node1 -->
<g id="edge38" class="edge">
<title>Node30&#45;&gt;Node1</title>
<path fill="none" stroke="#9a32cd" stroke-dasharray="5,2" d="M573.7,-173.66C612.28,-165.66 680.88,-158.19 723,-193 774.42,-235.5 803.17,-452.9 810.57,-516.5"/>
<polygon fill="#9a32cd" stroke="#9a32cd" points="572.66,-170.31 563.66,-175.9 574.19,-177.14 572.66,-170.31"/>
<text text-anchor="middle" x="673.5" y="-195.6" font-family="Helvetica,sans-Serif" font-size="8.00"> m_idle_timer</text>
</g>
<!-- Node31 -->
<g id="node31" class="node">
<title>Node31</title>
<g id="a_node31"><a xlink:title=" ">
<polygon fill="white" stroke="#bfbfbf" points="489,-136.5 489,-153.5 599,-153.5 599,-136.5 489,-136.5"/>
<text text-anchor="middle" x="544" y="-143.1" font-family="Helvetica,sans-Serif" font-size="8.00">Timer_fired_read_end *</text>
</a>
</g>
</g>
<!-- Node31&#45;&gt;Node1 -->
<g id="edge39" class="edge">
<title>Node31&#45;&gt;Node1</title>
<path fill="none" stroke="#9a32cd" stroke-dasharray="5,2" d="M584.86,-134.28C624.5,-126.21 684.78,-121.3 723,-153 780.52,-200.72 805.28,-447.8 811.1,-516.35"/>
<polygon fill="#9a32cd" stroke="#9a32cd" points="584.02,-130.88 575,-136.44 585.52,-137.72 584.02,-130.88"/>
<text text-anchor="middle" x="673.5" y="-155.6" font-family="Helvetica,sans-Serif" font-size="8.00"> m_idle_timer_fired_peer</text>
</g>
<!-- Node32 -->
<g id="node32" class="node">
<title>Node32</title>
<g id="a_node32"><a xlink:title=" ">
<polygon fill="white" stroke="#bfbfbf" points="482.5,-55 482.5,-117 605.5,-117 605.5,-55 482.5,-55"/>
<text text-anchor="start" x="490.5" y="-106.6" font-family="Helvetica,sans-Serif" font-size="8.00">Function&lt; void(Asio</text>
<text text-anchor="start" x="490.5" y="-97.6" font-family="Helvetica,sans-Serif" font-size="8.00">_waitable_native_handle</text>
<text text-anchor="start" x="490.5" y="-88.6" font-family="Helvetica,sans-Serif" font-size="8.00"> *hndl_of_interest, bool</text>
<text text-anchor="start" x="490.5" y="-79.6" font-family="Helvetica,sans-Serif" font-size="8.00"> ev_of_interest_snd_else</text>
<text text-anchor="start" x="490.5" y="-70.6" font-family="Helvetica,sans-Serif" font-size="8.00">_rcv, Task_ptr &amp;&amp;on_active</text>
<text text-anchor="middle" x="544" y="-61.6" font-family="Helvetica,sans-Serif" font-size="8.00">_ev_func)&gt;</text>
</a>
</g>
</g>
<!-- Node32&#45;&gt;Node1 -->
<g id="edge40" class="edge">
<title>Node32&#45;&gt;Node1</title>
<path fill="none" stroke="#9a32cd" stroke-dasharray="5,2" d="M615.87,-79.83C652.34,-80.6 694.92,-88.26 723,-115 782.66,-171.81 806.08,-443.99 811.31,-516.32"/>
<polygon fill="#9a32cd" stroke="#9a32cd" points="615.78,-76.33 605.76,-79.78 615.75,-83.33 615.78,-76.33"/>
<text text-anchor="middle" x="673.5" y="-117.6" font-family="Helvetica,sans-Serif" font-size="8.00"> m_ev_wait_func</text>
</g>
<!-- Node33 -->
<g id="node33" class="node">
<title>Node33</title>
<g id="a_node33"><a xlink:title=" ">
<polygon fill="white" stroke="#bfbfbf" points="491,-0.5 491,-35.5 597,-35.5 597,-0.5 491,-0.5"/>
<text text-anchor="start" x="499" y="-25.1" font-family="Helvetica,sans-Serif" font-size="8.00">optional&lt; flow::async</text>
<text text-anchor="start" x="499" y="-16.1" font-family="Helvetica,sans-Serif" font-size="8.00">::Single_thread_task</text>
<text text-anchor="middle" x="544" y="-7.1" font-family="Helvetica,sans-Serif" font-size="8.00">_loop &gt;</text>
</a>
</g>
</g>
<!-- Node33&#45;&gt;Node1 -->
<g id="edge41" class="edge">
<title>Node33&#45;&gt;Node1</title>
<path fill="none" stroke="#9a32cd" stroke-dasharray="5,2" d="M607.47,-19.24C646.11,-23.42 693.75,-35.34 723,-67 785.53,-134.69 807.06,-439.48 811.55,-516.35"/>
<polygon fill="#9a32cd" stroke="#9a32cd" points="607.63,-15.74 597.35,-18.29 606.98,-22.71 607.63,-15.74"/>
<text text-anchor="middle" x="673.5" y="-69.6" font-family="Helvetica,sans-Serif" font-size="8.00"> m_blocking_worker</text>
</g>
</g>
</svg>
