<?xml version="1.0" encoding="UTF-8" standalone="no"?>
<!DOCTYPE svg PUBLIC "-//W3C//DTD SVG 1.1//EN"
 "http://www.w3.org/Graphics/SVG/1.1/DTD/svg11.dtd">
<!-- Generated by graphviz version 2.43.0 (0)
 -->
<!-- Title: ipc::transport::Bipc_mq_handle::wait_impl Pages: 1 -->
<svg width="295pt" height="116pt"
 viewBox="0.00 0.00 295.00 116.00" xmlns="http://www.w3.org/2000/svg" xmlns:xlink="http://www.w3.org/1999/xlink">
<g id="graph0" class="graph" transform="scale(1 1) rotate(0) translate(4 112)">
<title>ipc::transport::Bipc_mq_handle::wait_impl</title>
<polygon fill="white" stroke="transparent" points="-4,4 -4,-112 291,-112 291,4 -4,4"/>
<!-- Node1 -->
<g id="node1" class="node">
<title>Node1</title>
<g id="a_node1"><a xlink:title="Impl body for *_sendable() and *_receivable().">
<polygon fill="#bfbfbf" stroke="black" points="0,-32 0,-58 110,-58 110,-32 0,-32"/>
<text text-anchor="start" x="8" y="-47.6" font-family="Helvetica,sans-Serif" font-size="8.00">ipc::transport::Bipc</text>
<text text-anchor="middle" x="55" y="-38.6" font-family="Helvetica,sans-Serif" font-size="8.00">_mq_handle::wait_impl</text>
</a>
</g>
</g>
<!-- Node2 -->
<g id="node2" class="node">
<title>Node2</title>
<g id="a_node2"><a xlink:href="classipc_1_1transport_1_1Bipc__mq__handle.html#a9948742d87298d5842d298de9c946c7c" target="_top" xlink:title="Error helper: Run func() which will perform a bipc::message_queue API that might throw; if it does em...">
<polygon fill="white" stroke="black" points="146,-54.5 146,-89.5 287,-89.5 287,-54.5 146,-54.5"/>
<text text-anchor="start" x="154" y="-79.1" font-family="Helvetica,sans-Serif" font-size="8.00">ipc::transport::Bipc</text>
<text text-anchor="start" x="154" y="-70.1" font-family="Helvetica,sans-Serif" font-size="8.00">_mq_handle::op_with_possible</text>
<text text-anchor="middle" x="216.5" y="-61.1" font-family="Helvetica,sans-Serif" font-size="8.00">_bipc_mq_exception</text>
</a>
</g>
</g>
<!-- Node1&#45;&gt;Node2 -->
<g id="edge1" class="edge">
<title>Node1&#45;&gt;Node2</title>
<path fill="none" stroke="midnightblue" d="M110.44,-54.22C118.62,-55.6 127.19,-57.05 135.75,-58.5"/>
<polygon fill="midnightblue" stroke="midnightblue" points="135.35,-61.98 145.79,-60.2 136.51,-55.08 135.35,-61.98"/>
</g>
<!-- Node3 -->
<g id="node3" class="node">
<title>Node3</title>
<g id="a_node3"><a xlink:href="classipc_1_1transport_1_1Bipc__mq__handle.html#a5d2035b92c80a1b2e27b9e238107f1b1" target="_top" xlink:title="Implements Persistent_mq_handle API: Like timed_receive() but without the actual popping of a message...">
<polygon fill="white" stroke="black" points="158.5,-0.5 158.5,-35.5 274.5,-35.5 274.5,-0.5 158.5,-0.5"/>
<text text-anchor="start" x="166.5" y="-25.1" font-family="Helvetica,sans-Serif" font-size="8.00">ipc::transport::Bipc</text>
<text text-anchor="start" x="166.5" y="-16.1" font-family="Helvetica,sans-Serif" font-size="8.00">_mq_handle::timed_wait</text>
<text text-anchor="middle" x="216.5" y="-7.1" font-family="Helvetica,sans-Serif" font-size="8.00">_receivable</text>
</a>
</g>
</g>
<!-- Node1&#45;&gt;Node3 -->
<g id="edge3" class="edge">
<title>Node1&#45;&gt;Node3</title>
<path fill="none" stroke="midnightblue" d="M110.44,-35.78C122.62,-33.72 135.68,-31.51 148.3,-29.38"/>
<polygon fill="midnightblue" stroke="midnightblue" points="149.03,-32.8 158.31,-27.68 147.86,-25.9 149.03,-32.8"/>
</g>
<!-- Node2&#45;&gt;Node2 -->
<g id="edge2" class="edge">
<title>Node2&#45;&gt;Node2</title>
<path fill="none" stroke="midnightblue" d="M187.74,-89.78C182.85,-99.31 192.44,-108 216.5,-108 231.16,-108 240.45,-104.77 244.36,-100.1"/>
<polygon fill="midnightblue" stroke="midnightblue" points="247.88,-100.05 245.26,-89.78 240.91,-99.44 247.88,-100.05"/>
</g>
</g>
</svg>
