<?xml version="1.0" encoding="UTF-8" standalone="no"?>
<!DOCTYPE svg PUBLIC "-//W3C//DTD SVG 1.1//EN"
 "http://www.w3.org/Graphics/SVG/1.1/DTD/svg11.dtd">
<!-- Generated by graphviz version 2.43.0 (0)
 -->
<!-- Title: ipc::transport::struc::Msg_out::native_handle_or_null Pages: 1 -->
<svg width="304pt" height="90pt"
 viewBox="0.00 0.00 304.00 89.50" xmlns="http://www.w3.org/2000/svg" xmlns:xlink="http://www.w3.org/1999/xlink">
<g id="graph0" class="graph" transform="scale(1 1) rotate(0) translate(4 85.5)">
<title>ipc::transport::struc::Msg_out::native_handle_or_null</title>
<polygon fill="white" stroke="transparent" points="-4,4 -4,-85.5 300,-85.5 300,4 -4,4"/>
<!-- Node1 -->
<g id="node1" class="node">
<title>Node1</title>
<g id="a_node1"><a xlink:title="Returns whatever was the last word according to store_native_handle_or_null().">
<polygon fill="#bfbfbf" stroke="black" points="176,-21 176,-56 296,-56 296,-21 176,-21"/>
<text text-anchor="start" x="184" y="-45.6" font-family="Helvetica,sans-Serif" font-size="8.00">ipc::transport::struc</text>
<text text-anchor="start" x="184" y="-36.6" font-family="Helvetica,sans-Serif" font-size="8.00">::Msg_out::native_handle</text>
<text text-anchor="middle" x="236" y="-27.6" font-family="Helvetica,sans-Serif" font-size="8.00">_or_null</text>
</a>
</g>
</g>
<!-- Node2 -->
<g id="node2" class="node">
<title>Node2</title>
<g id="a_node2"><a xlink:href="classipc_1_1transport_1_1struc_1_1sync__io_1_1Channel.html#ae43681c46951acd7e3c06d3cd73854f6" target="_top" xlink:title="send() and async_request() helper that returns true if and only if msg contains a native handle,...">
<polygon fill="white" stroke="black" points="9,-46 9,-81 131,-81 131,-46 9,-46"/>
<text text-anchor="start" x="17" y="-70.6" font-family="Helvetica,sans-Serif" font-size="8.00">ipc::transport::struc</text>
<text text-anchor="start" x="17" y="-61.6" font-family="Helvetica,sans-Serif" font-size="8.00">::sync_io::Channel::check</text>
<text text-anchor="middle" x="70" y="-52.6" font-family="Helvetica,sans-Serif" font-size="8.00">_unsendable</text>
</a>
</g>
</g>
<!-- Node1&#45;&gt;Node2 -->
<g id="edge1" class="edge">
<title>Node1&#45;&gt;Node2</title>
<path fill="none" stroke="midnightblue" d="M165.8,-49.05C154.31,-50.8 142.47,-52.6 131.22,-54.32"/>
<polygon fill="midnightblue" stroke="midnightblue" points="166.43,-52.49 175.79,-47.53 165.38,-45.57 166.43,-52.49"/>
</g>
<!-- Node3 -->
<g id="node3" class="node">
<title>Node3</title>
<g id="a_node3"><a xlink:href="classipc_1_1transport_1_1struc_1_1sync__io_1_1Channel.html#a0550bcab7578fcd9aa90a4add39eb3c7" target="_top" xlink:title="Core of send() or internal&#45;message&#45;send: Serializes the given structured out&#45;messages (metadata out&#45;m...">
<polygon fill="white" stroke="black" points="0,-0.5 0,-26.5 140,-26.5 140,-0.5 0,-0.5"/>
<text text-anchor="start" x="8" y="-16.1" font-family="Helvetica,sans-Serif" font-size="8.00">ipc::transport::struc</text>
<text text-anchor="middle" x="70" y="-7.1" font-family="Helvetica,sans-Serif" font-size="8.00">::sync_io::Channel::send_core</text>
</a>
</g>
</g>
<!-- Node1&#45;&gt;Node3 -->
<g id="edge2" class="edge">
<title>Node1&#45;&gt;Node3</title>
<path fill="none" stroke="midnightblue" d="M165.91,-27.97C157.39,-26.67 148.68,-25.34 140.16,-24.04"/>
<polygon fill="midnightblue" stroke="midnightblue" points="165.38,-31.43 175.79,-29.47 166.43,-24.51 165.38,-31.43"/>
</g>
</g>
</svg>
