<?xml version="1.0" encoding="UTF-8" standalone="no"?>
<!DOCTYPE svg PUBLIC "-//W3C//DTD SVG 1.1//EN"
 "http://www.w3.org/Graphics/SVG/1.1/DTD/svg11.dtd">
<!-- Generated by graphviz version 2.43.0 (0)
 -->
<!-- Title: ipc::transport::sync_io::Native_socket_stream::Impl::Impl Pages: 1 -->
<svg width="465pt" height="98pt"
 viewBox="0.00 0.00 465.00 98.00" xmlns="http://www.w3.org/2000/svg" xmlns:xlink="http://www.w3.org/1999/xlink">
<g id="graph0" class="graph" transform="scale(1 1) rotate(0) translate(4 94)">
<title>ipc::transport::sync_io::Native_socket_stream::Impl::Impl</title>
<polygon fill="white" stroke="transparent" points="-4,4 -4,-94 461,-94 461,4 -4,4"/>
<!-- Node1 -->
<g id="node1" class="node">
<title>Node1</title>
<g id="a_node1"><a xlink:title="See Native_socket_stream counterpart.">
<polygon fill="#bfbfbf" stroke="black" points="0,-27.5 0,-62.5 123,-62.5 123,-27.5 0,-27.5"/>
<text text-anchor="start" x="8" y="-52.1" font-family="Helvetica,sans-Serif" font-size="8.00">ipc::transport::sync</text>
<text text-anchor="start" x="8" y="-43.1" font-family="Helvetica,sans-Serif" font-size="8.00">_io::Native_socket_stream</text>
<text text-anchor="middle" x="61.5" y="-34.1" font-family="Helvetica,sans-Serif" font-size="8.00">::Impl::Impl</text>
</a>
</g>
</g>
<!-- Node2 -->
<g id="node2" class="node">
<title>Node2</title>
<g id="a_node2"><a xlink:href="classipc_1_1util_1_1sync__io_1_1Asio__waitable__native__handle.html#a7d28277f9ef090032b0483c65f79f23c" target="_top" xlink:title="Loads value to be returned by native_handle().">
<polygon fill="white" stroke="black" points="180,-54.5 180,-89.5 288,-89.5 288,-54.5 180,-54.5"/>
<text text-anchor="start" x="188" y="-79.1" font-family="Helvetica,sans-Serif" font-size="8.00">ipc::util::sync_io</text>
<text text-anchor="start" x="188" y="-70.1" font-family="Helvetica,sans-Serif" font-size="8.00">::Asio_waitable_native</text>
<text text-anchor="middle" x="234" y="-61.1" font-family="Helvetica,sans-Serif" font-size="8.00">_handle::assign</text>
</a>
</g>
</g>
<!-- Node1&#45;&gt;Node2 -->
<g id="edge1" class="edge">
<title>Node1&#45;&gt;Node2</title>
<path fill="none" stroke="midnightblue" d="M123.09,-54.6C138.32,-57.01 154.71,-59.6 170.05,-62.03"/>
<polygon fill="midnightblue" stroke="midnightblue" points="169.54,-65.49 179.96,-63.6 170.63,-58.58 169.54,-65.49"/>
</g>
<!-- Node4 -->
<g id="node4" class="node">
<title>Node4</title>
<g id="a_node4"><a xlink:href="classipc_1_1transport_1_1sync__io_1_1Native__socket__stream_1_1Impl.html#a0dbf9cd119e525223aa105411afbba94" target="_top" xlink:title="To be called if and only if m_peer_socket is connected – actually ideally at the moment it becomes co...">
<polygon fill="white" stroke="black" points="159,-0.5 159,-35.5 309,-35.5 309,-0.5 159,-0.5"/>
<text text-anchor="start" x="167" y="-25.1" font-family="Helvetica,sans-Serif" font-size="8.00">ipc::transport::sync</text>
<text text-anchor="start" x="167" y="-16.1" font-family="Helvetica,sans-Serif" font-size="8.00">_io::Native_socket_stream</text>
<text text-anchor="middle" x="234" y="-7.1" font-family="Helvetica,sans-Serif" font-size="8.00">::Impl::save_peer_process_creds</text>
</a>
</g>
</g>
<!-- Node1&#45;&gt;Node4 -->
<g id="edge3" class="edge">
<title>Node1&#45;&gt;Node4</title>
<path fill="none" stroke="midnightblue" d="M123.09,-35.4C131.42,-34.09 140.08,-32.71 148.74,-31.34"/>
<polygon fill="midnightblue" stroke="midnightblue" points="149.54,-34.76 158.87,-29.74 148.44,-27.85 149.54,-34.76"/>
</g>
<!-- Node3 -->
<g id="node3" class="node">
<title>Node3</title>
<g id="a_node3"><a xlink:href="structipc_1_1util_1_1Native__handle.html#a11bd62ce0a7bef4bdfe666201c26d4dc" target="_top" xlink:title="Returns true if and only if m_native_handle equals S_NULL_HANDLE.">
<polygon fill="white" stroke="black" points="345,-59 345,-85 457,-85 457,-59 345,-59"/>
<text text-anchor="start" x="353" y="-74.6" font-family="Helvetica,sans-Serif" font-size="8.00">ipc::util::Native_handle</text>
<text text-anchor="middle" x="401" y="-65.6" font-family="Helvetica,sans-Serif" font-size="8.00">::null</text>
</a>
</g>
</g>
<!-- Node2&#45;&gt;Node3 -->
<g id="edge2" class="edge">
<title>Node2&#45;&gt;Node3</title>
<path fill="none" stroke="midnightblue" d="M288.12,-72C303.03,-72 319.42,-72 334.94,-72"/>
<polygon fill="midnightblue" stroke="midnightblue" points="335,-75.5 345,-72 335,-68.5 335,-75.5"/>
</g>
</g>
</svg>
