<?xml version="1.0" encoding="UTF-8" standalone="no"?>
<!DOCTYPE svg PUBLIC "-//W3C//DTD SVG 1.1//EN"
 "http://www.w3.org/Graphics/SVG/1.1/DTD/svg11.dtd">
<!-- Generated by graphviz version 2.43.0 (0)
 -->
<!-- Title: ipc::util::Shared_name::sanitize Pages: 1 -->
<svg width="264pt" height="80pt"
 viewBox="0.00 0.00 264.00 80.00" xmlns="http://www.w3.org/2000/svg" xmlns:xlink="http://www.w3.org/1999/xlink">
<g id="graph0" class="graph" transform="scale(1 1) rotate(0) translate(4 76)">
<title>ipc::util::Shared_name::sanitize</title>
<polygon fill="white" stroke="transparent" points="-4,4 -4,-76 260,-76 260,4 -4,4"/>
<!-- Node1 -->
<g id="node1" class="node">
<title>Node1</title>
<g id="a_node1"><a xlink:title="Best&#45;effort attempt to turn sanitized() from false to true, unless it is already true; returns the fi...">
<polygon fill="#bfbfbf" stroke="black" points="0,-22.5 0,-48.5 110,-48.5 110,-22.5 0,-22.5"/>
<text text-anchor="start" x="8" y="-38.1" font-family="Helvetica,sans-Serif" font-size="8.00">ipc::util::Shared_name</text>
<text text-anchor="middle" x="55" y="-29.1" font-family="Helvetica,sans-Serif" font-size="8.00">::sanitize</text>
</a>
</g>
</g>
<!-- Node2 -->
<g id="node2" class="node">
<title>Node2</title>
<g id="a_node2"><a xlink:href="classipc_1_1util_1_1Shared__name.html#a861ea6c9ad6672e83bab5c7747b66f7b" target="_top" xlink:title="Returns true if and only if str().empty() == true.">
<polygon fill="white" stroke="black" points="146,-45.5 146,-71.5 256,-71.5 256,-45.5 146,-45.5"/>
<text text-anchor="start" x="154" y="-61.1" font-family="Helvetica,sans-Serif" font-size="8.00">ipc::util::Shared_name</text>
<text text-anchor="middle" x="201" y="-52.1" font-family="Helvetica,sans-Serif" font-size="8.00">::empty</text>
</a>
</g>
</g>
<!-- Node1&#45;&gt;Node2 -->
<g id="edge1" class="edge">
<title>Node1&#45;&gt;Node2</title>
<path fill="none" stroke="midnightblue" d="M110.03,-44.13C118.4,-45.47 127.13,-46.86 135.7,-48.23"/>
<polygon fill="midnightblue" stroke="midnightblue" points="135.24,-51.7 145.67,-49.82 136.34,-44.79 135.24,-51.7"/>
</g>
<!-- Node3 -->
<g id="node3" class="node">
<title>Node3</title>
<g id="a_node3"><a xlink:href="classipc_1_1util_1_1Shared__name.html#af34db2934e116f8a4fdd403fd04695af" target="_top" xlink:title="Returns str().size().">
<polygon fill="white" stroke="black" points="146,-0.5 146,-26.5 256,-26.5 256,-0.5 146,-0.5"/>
<text text-anchor="start" x="154" y="-16.1" font-family="Helvetica,sans-Serif" font-size="8.00">ipc::util::Shared_name</text>
<text text-anchor="middle" x="201" y="-7.1" font-family="Helvetica,sans-Serif" font-size="8.00">::size</text>
</a>
</g>
</g>
<!-- Node1&#45;&gt;Node3 -->
<g id="edge2" class="edge">
<title>Node1&#45;&gt;Node3</title>
<path fill="none" stroke="midnightblue" d="M110.03,-27.25C118.4,-25.97 127.13,-24.63 135.7,-23.32"/>
<polygon fill="midnightblue" stroke="midnightblue" points="136.31,-26.77 145.67,-21.8 135.25,-19.85 136.31,-26.77"/>
</g>
</g>
</svg>
