<?xml version="1.0" encoding="UTF-8" standalone="no"?>
<!DOCTYPE svg PUBLIC "-//W3C//DTD SVG 1.1//EN"
 "http://www.w3.org/Graphics/SVG/1.1/DTD/svg11.dtd">
<!-- Generated by graphviz version 2.43.0 (0)
 -->
<!-- Title: ipc::transport::sync_io::Native_handle_receiver Pages: 1 -->
<svg width="400pt" height="288pt"
 viewBox="0.00 0.00 400.00 288.00" xmlns="http://www.w3.org/2000/svg" xmlns:xlink="http://www.w3.org/1999/xlink">
<g id="graph0" class="graph" transform="scale(1 1) rotate(0) translate(4 284)">
<title>ipc::transport::sync_io::Native_handle_receiver</title>
<polygon fill="white" stroke="transparent" points="-4,4 -4,-284 396,-284 396,4 -4,4"/>
<!-- Node1 -->
<g id="node1" class="node">
<title>Node1</title>
<g id="a_node1"><a xlink:title="A documentation&#45;only concept defining the behavior of an object that is the sync_io&#45;pattern counterpa...">
<polygon fill="#bfbfbf" stroke="black" points="137.5,-0.5 137.5,-26.5 266.5,-26.5 266.5,-0.5 137.5,-0.5"/>
<text text-anchor="start" x="145.5" y="-16.1" font-family="Helvetica,sans-Serif" font-size="8.00">ipc::transport::sync</text>
<text text-anchor="middle" x="202" y="-7.1" font-family="Helvetica,sans-Serif" font-size="8.00">_io::Native_handle_receiver</text>
</a>
</g>
</g>
<!-- Node2 -->
<g id="node2" class="node">
<title>Node2</title>
<g id="a_node2"><a xlink:href="classipc_1_1util_1_1Shared__name.html" target="_top" xlink:title="String&#45;wrapping abstraction representing a name uniquely distinguishing a kernel&#45;persistent entity fr...">
<polygon fill="white" stroke="black" points="54,-108.5 54,-125.5 164,-125.5 164,-108.5 54,-108.5"/>
<text text-anchor="middle" x="109" y="-115.1" font-family="Helvetica,sans-Serif" font-size="8.00">ipc::util::Shared_name</text>
</a>
</g>
</g>
<!-- Node2&#45;&gt;Node1 -->
<g id="edge1" class="edge">
<title>Node2&#45;&gt;Node1</title>
<path fill="none" stroke="#9a32cd" stroke-dasharray="5,2" d="M122.78,-100.96C141.34,-80.71 173.99,-45.07 191,-26.51"/>
<polygon fill="#9a32cd" stroke="#9a32cd" points="120.17,-98.63 115.99,-108.37 125.33,-103.36 120.17,-98.63"/>
<text text-anchor="middle" x="217.5" y="-52.1" font-family="Helvetica,sans-Serif" font-size="8.00"> S_RESOURCE_TYPE_ID</text>
</g>
<!-- Node2&#45;&gt;Node2 -->
<g id="edge2" class="edge">
<title>Node2&#45;&gt;Node2</title>
<path fill="none" stroke="#9a32cd" stroke-dasharray="5,2" d="M142.52,-127.17C162.82,-129.49 182,-126.1 182,-117 182,-106.41 156.03,-103.55 132.55,-108.44"/>
<polygon fill="#9a32cd" stroke="#9a32cd" points="142.98,-123.69 132.55,-125.56 141.87,-130.6 142.98,-123.69"/>
<text text-anchor="middle" x="220.5" y="-146.6" font-family="Helvetica,sans-Serif" font-size="8.00"> S_1ST_OR_ONLY</text>
<text text-anchor="middle" x="220.5" y="-137.6" font-family="Helvetica,sans-Serif" font-size="8.00">S_EMPTY</text>
<text text-anchor="start" x="182" y="-128.6" font-family="Helvetica,sans-Serif" font-size="8.00">S_RESOURCE_TYPE</text>
<text text-anchor="middle" x="220.5" y="-119.6" font-family="Helvetica,sans-Serif" font-size="8.00">_ID_MUTEX</text>
<text text-anchor="start" x="182" y="-110.6" font-family="Helvetica,sans-Serif" font-size="8.00">S_RESOURCE_TYPE</text>
<text text-anchor="middle" x="220.5" y="-101.6" font-family="Helvetica,sans-Serif" font-size="8.00">_ID_SHM</text>
<text text-anchor="middle" x="220.5" y="-92.6" font-family="Helvetica,sans-Serif" font-size="8.00">S_ROOT_MAGIC</text>
<text text-anchor="middle" x="220.5" y="-83.6" font-family="Helvetica,sans-Serif" font-size="8.00">S_SENTINEL</text>
</g>
<!-- Node3 -->
<g id="node3" class="node">
<title>Node3</title>
<g id="a_node3"><a xlink:title=" ">
<polygon fill="white" stroke="#bfbfbf" points="0,-198.5 0,-215.5 40,-215.5 40,-198.5 0,-198.5"/>
<text text-anchor="middle" x="20" y="-205.1" font-family="Helvetica,sans-Serif" font-size="8.00">size_t</text>
</a>
</g>
</g>
<!-- Node3&#45;&gt;Node2 -->
<g id="edge3" class="edge">
<title>Node3&#45;&gt;Node2</title>
<path fill="none" stroke="#9a32cd" stroke-dasharray="5,2" d="M27.32,-189.14C30.41,-183.06 34.38,-176.37 39,-171 55.69,-151.58 80.62,-134.82 95.79,-125.6"/>
<polygon fill="#9a32cd" stroke="#9a32cd" points="24.02,-187.92 22.97,-198.46 30.37,-190.88 24.02,-187.92"/>
<text text-anchor="middle" x="72" y="-173.6" font-family="Helvetica,sans-Serif" font-size="8.00"> S_MAX_LENGTH</text>
</g>
<!-- Node4 -->
<g id="node4" class="node">
<title>Node4</title>
<g id="a_node4"><a xlink:title=" ">
<polygon fill="white" stroke="#bfbfbf" points="67,-198.5 67,-215.5 151,-215.5 151,-198.5 67,-198.5"/>
<text text-anchor="middle" x="109" y="-205.1" font-family="Helvetica,sans-Serif" font-size="8.00">static const char</text>
</a>
</g>
</g>
<!-- Node4&#45;&gt;Node2 -->
<g id="edge4" class="edge">
<title>Node4&#45;&gt;Node2</title>
<path fill="none" stroke="#9a32cd" stroke-dasharray="5,2" d="M109,-188.44C109,-169.34 109,-139.67 109,-125.73"/>
<polygon fill="#9a32cd" stroke="#9a32cd" points="105.5,-188.5 109,-198.5 112.5,-188.5 105.5,-188.5"/>
<text text-anchor="middle" x="138" y="-173.6" font-family="Helvetica,sans-Serif" font-size="8.00"> S_SEPARATOR</text>
</g>
<!-- Node5 -->
<g id="node5" class="node">
<title>Node5</title>
<g id="a_node5"><a xlink:title=" ">
<polygon fill="white" stroke="black" points="169.5,-198.5 169.5,-215.5 228.5,-215.5 228.5,-198.5 169.5,-198.5"/>
<text text-anchor="middle" x="199" y="-205.1" font-family="Helvetica,sans-Serif" font-size="8.00">std::string</text>
</a>
</g>
</g>
<!-- Node5&#45;&gt;Node2 -->
<g id="edge5" class="edge">
<title>Node5&#45;&gt;Node2</title>
<path fill="none" stroke="#9a32cd" stroke-dasharray="5,2" d="M187.36,-190.16C182.54,-183.97 176.75,-176.94 171,-171 154.06,-153.5 131.9,-135.59 119.17,-125.72"/>
<polygon fill="#9a32cd" stroke="#9a32cd" points="184.77,-192.55 193.59,-198.42 190.36,-188.33 184.77,-192.55"/>
<text text-anchor="middle" x="207" y="-173.6" font-family="Helvetica,sans-Serif" font-size="8.00"> m_raw_name</text>
</g>
<!-- Node6 -->
<g id="node6" class="node">
<title>Node6</title>
<g id="a_node6"><a xlink:title=" ">
<polygon fill="white" stroke="black" points="153.5,-253.5 153.5,-279.5 244.5,-279.5 244.5,-253.5 153.5,-253.5"/>
<text text-anchor="start" x="161.5" y="-269.1" font-family="Helvetica,sans-Serif" font-size="8.00">std::basic_string&lt;</text>
<text text-anchor="middle" x="199" y="-260.1" font-family="Helvetica,sans-Serif" font-size="8.00"> Char &gt;</text>
</a>
</g>
</g>
<!-- Node6&#45;&gt;Node5 -->
<g id="edge6" class="edge">
<title>Node6&#45;&gt;Node5</title>
<path fill="none" stroke="midnightblue" d="M199,-243.08C199,-233.43 199,-222.78 199,-215.77"/>
<polygon fill="midnightblue" stroke="midnightblue" points="195.5,-243.31 199,-253.31 202.5,-243.31 195.5,-243.31"/>
</g>
<!-- Node7 -->
<g id="node7" class="node">
<title>Node7</title>
<g id="a_node7"><a xlink:title=" ">
<polygon fill="white" stroke="#bfbfbf" points="277.5,-108.5 277.5,-125.5 312.5,-125.5 312.5,-108.5 277.5,-108.5"/>
<text text-anchor="middle" x="295" y="-115.1" font-family="Helvetica,sans-Serif" font-size="8.00">bool</text>
</a>
</g>
</g>
<!-- Node7&#45;&gt;Node1 -->
<g id="edge7" class="edge">
<title>Node7&#45;&gt;Node1</title>
<path fill="none" stroke="#9a32cd" stroke-dasharray="5,2" d="M291.89,-98.41C288.31,-82.7 281.01,-59.93 267,-45 259.66,-37.18 249.92,-31.18 240.22,-26.65"/>
<polygon fill="#9a32cd" stroke="#9a32cd" points="288.5,-99.26 293.89,-108.38 295.36,-97.89 288.5,-99.26"/>
<text text-anchor="start" x="278" y="-56.6" font-family="Helvetica,sans-Serif" font-size="8.00"> S_META_BLOB_UNDERFLOW</text>
<text text-anchor="middle" x="335" y="-47.6" font-family="Helvetica,sans-Serif" font-size="8.00">_ALLOWED</text>
</g>
</g>
</svg>
