<?xml version="1.0" encoding="UTF-8" standalone="no"?>
<!DOCTYPE svg PUBLIC "-//W3C//DTD SVG 1.1//EN"
 "http://www.w3.org/Graphics/SVG/1.1/DTD/svg11.dtd">
<!-- Generated by graphviz version 2.43.0 (0)
 -->
<!-- Title: ipc::transport::sync_io::Native_socket_stream::Impl::start_send_native_handle_ops Pages: 1 -->
<svg width="631pt" height="124pt"
 viewBox="0.00 0.00 631.00 123.50" xmlns="http://www.w3.org/2000/svg" xmlns:xlink="http://www.w3.org/1999/xlink">
<g id="graph0" class="graph" transform="scale(1 1) rotate(0) translate(4 119.5)">
<title>ipc::transport::sync_io::Native_socket_stream::Impl::start_send_native_handle_ops</title>
<polygon fill="white" stroke="transparent" points="-4,4 -4,-119.5 627,-119.5 627,4 -4,4"/>
<!-- Node1 -->
<g id="node1" class="node">
<title>Node1</title>
<g id="a_node1"><a xlink:title="See Native_socket_stream counterpart.">
<polygon fill="#bfbfbf" stroke="black" points="0,-45.5 0,-89.5 123,-89.5 123,-45.5 0,-45.5"/>
<text text-anchor="start" x="8" y="-79.1" font-family="Helvetica,sans-Serif" font-size="8.00">ipc::transport::sync</text>
<text text-anchor="start" x="8" y="-70.1" font-family="Helvetica,sans-Serif" font-size="8.00">_io::Native_socket_stream</text>
<text text-anchor="start" x="8" y="-61.1" font-family="Helvetica,sans-Serif" font-size="8.00">::Impl::start_send_native</text>
<text text-anchor="middle" x="61.5" y="-52.1" font-family="Helvetica,sans-Serif" font-size="8.00">_handle_ops</text>
</a>
</g>
</g>
<!-- Node2 -->
<g id="node2" class="node">
<title>Node2</title>
<g id="a_node2"><a xlink:href="classipc_1_1transport_1_1Protocol__negotiator.html#a54480f0849ddb5635302b42ed87c43af" target="_top" xlink:title="To be called at most once, this returns local_max_proto_ver from ctor the first time and S_VER_UNKNOW...">
<polygon fill="white" stroke="black" points="165,-80 165,-115 276,-115 276,-80 165,-80"/>
<text text-anchor="start" x="173" y="-104.6" font-family="Helvetica,sans-Serif" font-size="8.00">ipc::transport::Protocol</text>
<text text-anchor="start" x="173" y="-95.6" font-family="Helvetica,sans-Serif" font-size="8.00">_negotiator::local_max</text>
<text text-anchor="middle" x="220.5" y="-86.6" font-family="Helvetica,sans-Serif" font-size="8.00">_proto_ver_for_sending</text>
</a>
</g>
</g>
<!-- Node1&#45;&gt;Node2 -->
<g id="edge1" class="edge">
<title>Node1&#45;&gt;Node2</title>
<path fill="none" stroke="midnightblue" d="M123.2,-79.1C133.6,-81.09 144.43,-83.16 154.93,-85.16"/>
<polygon fill="midnightblue" stroke="midnightblue" points="154.38,-88.62 164.86,-87.06 155.69,-81.74 154.38,-88.62"/>
</g>
<!-- Node3 -->
<g id="node3" class="node">
<title>Node3</title>
<g id="a_node3"><a xlink:href="classipc_1_1transport_1_1sync__io_1_1Native__socket__stream_1_1Impl.html#a3c1c949f345f0ceef5eeca3c2edec291" target="_top" xlink:title="Either synchronously sends hndl_or_null handle (if any) and orig_blob low&#45;level blob over m_peer_sock...">
<polygon fill="white" stroke="black" points="159,-16.5 159,-60.5 282,-60.5 282,-16.5 159,-16.5"/>
<text text-anchor="start" x="167" y="-50.1" font-family="Helvetica,sans-Serif" font-size="8.00">ipc::transport::sync</text>
<text text-anchor="start" x="167" y="-41.1" font-family="Helvetica,sans-Serif" font-size="8.00">_io::Native_socket_stream</text>
<text text-anchor="start" x="167" y="-32.1" font-family="Helvetica,sans-Serif" font-size="8.00">::Impl::snd_sync_write_or</text>
<text text-anchor="middle" x="220.5" y="-23.1" font-family="Helvetica,sans-Serif" font-size="8.00">_q_payload</text>
</a>
</g>
</g>
<!-- Node1&#45;&gt;Node3 -->
<g id="edge2" class="edge">
<title>Node1&#45;&gt;Node3</title>
<path fill="none" stroke="midnightblue" d="M123.2,-56.29C131.64,-54.73 140.36,-53.12 148.95,-51.53"/>
<polygon fill="midnightblue" stroke="midnightblue" points="149.76,-54.94 158.96,-49.68 148.49,-48.06 149.76,-54.94"/>
</g>
<!-- Node4 -->
<g id="node4" class="node">
<title>Node4</title>
<g id="a_node4"><a xlink:href="classipc_1_1transport_1_1sync__io_1_1Native__socket__stream.html#aac68d14f4ef33505399df4fd04cd4669" target="_top" xlink:title="Returns logger (possibly null).">
<polygon fill="white" stroke="black" points="318,-46 318,-81 441,-81 441,-46 318,-46"/>
<text text-anchor="start" x="326" y="-70.6" font-family="Helvetica,sans-Serif" font-size="8.00">ipc::transport::sync</text>
<text text-anchor="start" x="326" y="-61.6" font-family="Helvetica,sans-Serif" font-size="8.00">_io::Native_socket_stream</text>
<text text-anchor="middle" x="379.5" y="-52.6" font-family="Helvetica,sans-Serif" font-size="8.00">::get_logger</text>
</a>
</g>
</g>
<!-- Node3&#45;&gt;Node4 -->
<g id="edge3" class="edge">
<title>Node3&#45;&gt;Node4</title>
<path fill="none" stroke="midnightblue" d="M282.2,-48.17C290.64,-49.51 299.36,-50.9 307.95,-52.27"/>
<polygon fill="midnightblue" stroke="midnightblue" points="307.54,-55.74 317.96,-53.86 308.64,-48.83 307.54,-55.74"/>
</g>
<!-- Node6 -->
<g id="node6" class="node">
<title>Node6</title>
<g id="a_node6"><a xlink:href="structipc_1_1util_1_1Native__handle.html#a11bd62ce0a7bef4bdfe666201c26d4dc" target="_top" xlink:title="Returns true if and only if m_native_handle equals S_NULL_HANDLE.">
<polygon fill="white" stroke="black" points="323.5,-0.5 323.5,-26.5 435.5,-26.5 435.5,-0.5 323.5,-0.5"/>
<text text-anchor="start" x="331.5" y="-16.1" font-family="Helvetica,sans-Serif" font-size="8.00">ipc::util::Native_handle</text>
<text text-anchor="middle" x="379.5" y="-7.1" font-family="Helvetica,sans-Serif" font-size="8.00">::null</text>
</a>
</g>
</g>
<!-- Node3&#45;&gt;Node6 -->
<g id="edge5" class="edge">
<title>Node3&#45;&gt;Node6</title>
<path fill="none" stroke="midnightblue" d="M282.2,-28.83C292.36,-27.22 302.94,-25.53 313.21,-23.9"/>
<polygon fill="midnightblue" stroke="midnightblue" points="314.03,-27.31 323.35,-22.28 312.92,-20.4 314.03,-27.31"/>
</g>
<!-- Node5 -->
<g id="node5" class="node">
<title>Node5</title>
<g id="a_node5"><a xlink:href="classipc_1_1transport_1_1sync__io_1_1Native__socket__stream.html#a8e3703d5c8bac62f828a372691249c85" target="_top" xlink:title="Helper that simply returns m_impl while guaranteeing that m_impl is non&#45;null upon return.">
<polygon fill="white" stroke="black" points="477,-50.5 477,-76.5 623,-76.5 623,-50.5 477,-50.5"/>
<text text-anchor="start" x="485" y="-66.1" font-family="Helvetica,sans-Serif" font-size="8.00">ipc::transport::sync</text>
<text text-anchor="middle" x="550" y="-57.1" font-family="Helvetica,sans-Serif" font-size="8.00">_io::Native_socket_stream::impl</text>
</a>
</g>
</g>
<!-- Node4&#45;&gt;Node5 -->
<g id="edge4" class="edge">
<title>Node4&#45;&gt;Node5</title>
<path fill="none" stroke="midnightblue" d="M441.33,-63.5C449.6,-63.5 458.19,-63.5 466.76,-63.5"/>
<polygon fill="midnightblue" stroke="midnightblue" points="466.78,-67 476.78,-63.5 466.78,-60 466.78,-67"/>
</g>
</g>
</svg>
