<?xml version="1.0" encoding="UTF-8" standalone="no"?>
<!DOCTYPE svg PUBLIC "-//W3C//DTD SVG 1.1//EN"
 "http://www.w3.org/Graphics/SVG/1.1/DTD/svg11.dtd">
<!-- Generated by graphviz version 2.43.0 (0)
 -->
<!-- Title: ipc::transport::struc::Msg_mdt_out&lt; Struct_builder_config &gt; Pages: 1 -->
<svg width="705pt" height="116pt"
 viewBox="0.00 0.00 705.00 116.00" xmlns="http://www.w3.org/2000/svg" xmlns:xlink="http://www.w3.org/1999/xlink">
<g id="graph0" class="graph" transform="scale(1 1) rotate(0) translate(4 112)">
<title>ipc::transport::struc::Msg_mdt_out&lt; Struct_builder_config &gt;</title>
<polygon fill="white" stroke="transparent" points="-4,4 -4,-112 701,-112 701,4 -4,4"/>
<!-- Node1 -->
<g id="node1" class="node">
<title>Node1</title>
<g id="a_node1"><a xlink:title="Internally used (data&#45;free) addendum on&#45;top of Msg_out; really an alias to Msg_out&lt;schema::detail::St...">
<polygon fill="#bfbfbf" stroke="black" points="588,-45.5 588,-80.5 697,-80.5 697,-45.5 588,-45.5"/>
<text text-anchor="start" x="596" y="-70.1" font-family="Helvetica,sans-Serif" font-size="8.00">ipc::transport::struc</text>
<text text-anchor="start" x="596" y="-61.1" font-family="Helvetica,sans-Serif" font-size="8.00">::Msg_mdt_out&lt; Struct</text>
<text text-anchor="middle" x="642.5" y="-52.1" font-family="Helvetica,sans-Serif" font-size="8.00">_builder_config &gt;</text>
</a>
</g>
</g>
<!-- Node2 -->
<g id="node2" class="node">
<title>Node2</title>
<g id="a_node2"><a xlink:href="classipc_1_1transport_1_1struc_1_1Msg__out.html" target="_top" xlink:title=" ">
<polygon fill="white" stroke="black" points="420,-41 420,-85 551,-85 551,-41 420,-41"/>
<text text-anchor="start" x="428" y="-74.6" font-family="Helvetica,sans-Serif" font-size="8.00">ipc::transport::struc</text>
<text text-anchor="start" x="428" y="-65.6" font-family="Helvetica,sans-Serif" font-size="8.00">::Msg_out&lt; schema::detail</text>
<text text-anchor="start" x="428" y="-56.6" font-family="Helvetica,sans-Serif" font-size="8.00">::StructuredMessage, Struct</text>
<text text-anchor="middle" x="485.5" y="-47.6" font-family="Helvetica,sans-Serif" font-size="8.00">_builder_config::Builder &gt;</text>
</a>
</g>
</g>
<!-- Node2&#45;&gt;Node1 -->
<g id="edge1" class="edge">
<title>Node2&#45;&gt;Node1</title>
<path fill="none" stroke="#8b1a1a" d="M561.34,-63C570.24,-63 579.19,-63 587.72,-63"/>
<polygon fill="#8b1a1a" stroke="#8b1a1a" points="561.34,-59.5 551.34,-63 561.34,-66.5 561.34,-59.5"/>
</g>
<!-- Node3 -->
<g id="node3" class="node">
<title>Node3</title>
<g id="a_node3"><a xlink:href="classStruct__builder__config_1_1Builder.html" target="_top" xlink:title=" ">
<polygon fill="white" stroke="#bfbfbf" points="242.5,-90.5 242.5,-107.5 287.5,-107.5 287.5,-90.5 242.5,-90.5"/>
<text text-anchor="middle" x="265" y="-97.1" font-family="Helvetica,sans-Serif" font-size="8.00">Builder</text>
</a>
</g>
</g>
<!-- Node3&#45;&gt;Node2 -->
<g id="edge2" class="edge">
<title>Node3&#45;&gt;Node2</title>
<path fill="none" stroke="#9a32cd" stroke-dasharray="5,2" d="M297.83,-93.76C329.73,-88.5 379.73,-80.26 419.96,-73.63"/>
<polygon fill="#9a32cd" stroke="#9a32cd" points="297.05,-90.34 287.75,-95.42 298.19,-97.24 297.05,-90.34"/>
<text text-anchor="middle" x="370.5" y="-88.6" font-family="Helvetica,sans-Serif" font-size="8.00"> m_builder</text>
</g>
<!-- Node4 -->
<g id="node4" class="node">
<title>Node4</title>
<g id="a_node4"><a xlink:title=" ">
<polygon fill="white" stroke="#bfbfbf" points="242.5,-54.5 242.5,-71.5 287.5,-71.5 287.5,-54.5 242.5,-54.5"/>
<text text-anchor="middle" x="265" y="-61.1" font-family="Helvetica,sans-Serif" font-size="8.00">Builder</text>
</a>
</g>
</g>
<!-- Node4&#45;&gt;Node2 -->
<g id="edge3" class="edge">
<title>Node4&#45;&gt;Node2</title>
<path fill="none" stroke="#9a32cd" stroke-dasharray="5,2" d="M297.83,-63C329.73,-63 379.73,-63 419.96,-63"/>
<polygon fill="#9a32cd" stroke="#9a32cd" points="297.75,-59.5 287.75,-63 297.75,-66.5 297.75,-59.5"/>
<text text-anchor="middle" x="370.5" y="-65.6" font-family="Helvetica,sans-Serif" font-size="8.00"> m_body_root</text>
</g>
<!-- Node5 -->
<g id="node5" class="node">
<title>Node5</title>
<g id="a_node5"><a xlink:href="structipc_1_1util_1_1Native__handle.html" target="_top" xlink:title="A monolayer&#45;thin wrapper around a native handle, a/k/a descriptor a/k/a FD.">
<polygon fill="white" stroke="black" points="209,-18.5 209,-35.5 321,-35.5 321,-18.5 209,-18.5"/>
<text text-anchor="middle" x="265" y="-25.1" font-family="Helvetica,sans-Serif" font-size="8.00">ipc::util::Native_handle</text>
</a>
</g>
</g>
<!-- Node5&#45;&gt;Node2 -->
<g id="edge4" class="edge">
<title>Node5&#45;&gt;Node2</title>
<path fill="none" stroke="#9a32cd" stroke-dasharray="5,2" d="M327.71,-37.17C356.46,-41.9 390.67,-47.54 419.79,-52.34"/>
<polygon fill="#9a32cd" stroke="#9a32cd" points="328.22,-33.7 317.78,-35.53 327.08,-40.61 328.22,-33.7"/>
<text text-anchor="middle" x="370.5" y="-51.6" font-family="Helvetica,sans-Serif" font-size="8.00"> m_hndl_or_null</text>
</g>
<!-- Node6 -->
<g id="node6" class="node">
<title>Node6</title>
<g id="a_node6"><a xlink:title=" ">
<polygon fill="white" stroke="#bfbfbf" points="0,-36.5 0,-53.5 101,-53.5 101,-36.5 0,-36.5"/>
<text text-anchor="middle" x="50.5" y="-43.1" font-family="Helvetica,sans-Serif" font-size="8.00">static const handle_t</text>
</a>
</g>
</g>
<!-- Node6&#45;&gt;Node5 -->
<g id="edge5" class="edge">
<title>Node6&#45;&gt;Node5</title>
<path fill="none" stroke="#9a32cd" stroke-dasharray="5,2" d="M111.17,-39.95C141.77,-37.35 178.81,-34.22 208.75,-31.68"/>
<polygon fill="#9a32cd" stroke="#9a32cd" points="110.72,-36.47 101.05,-40.8 111.31,-43.45 110.72,-36.47"/>
<text text-anchor="middle" x="155" y="-41.6" font-family="Helvetica,sans-Serif" font-size="8.00"> S_NULL_HANDLE</text>
</g>
<!-- Node7 -->
<g id="node7" class="node">
<title>Node7</title>
<g id="a_node7"><a xlink:title=" ">
<polygon fill="white" stroke="#bfbfbf" points="36,-0.5 36,-17.5 65,-17.5 65,-0.5 36,-0.5"/>
<text text-anchor="middle" x="50.5" y="-7.1" font-family="Helvetica,sans-Serif" font-size="8.00">int</text>
</a>
</g>
</g>
<!-- Node7&#45;&gt;Node5 -->
<g id="edge6" class="edge">
<title>Node7&#45;&gt;Node5</title>
<path fill="none" stroke="#9a32cd" stroke-dasharray="5,2" d="M75.71,-10.78C103.54,-12.86 150.58,-16.47 191,-20 196.71,-20.5 202.66,-21.04 208.61,-21.59"/>
<polygon fill="#9a32cd" stroke="#9a32cd" points="75.6,-7.27 65.37,-10.02 75.08,-14.25 75.6,-7.27"/>
<text text-anchor="middle" x="155" y="-22.6" font-family="Helvetica,sans-Serif" font-size="8.00"> m_native_handle</text>
</g>
</g>
</svg>
