<?xml version="1.0" encoding="UTF-8" standalone="no"?>
<!DOCTYPE svg PUBLIC "-//W3C//DTD SVG 1.1//EN"
 "http://www.w3.org/Graphics/SVG/1.1/DTD/svg11.dtd">
<!-- Generated by graphviz version 2.43.0 (0)
 -->
<!-- Title: ipc::session::Server_session_impl&lt; S_MQ_TYPE_OR_NONE, S_TRANSMIT_NATIVE_HANDLES, Mdt_payload, S_SHM_TYPE_OR_NONE, S_SHM_MAX_HNDL_SZ, S_GRACEFUL_FINISH_REQUIRED_V &gt; Pages: 1 -->
<svg width="1409pt" height="996pt"
 viewBox="0.00 0.00 1409.00 996.00" xmlns="http://www.w3.org/2000/svg" xmlns:xlink="http://www.w3.org/1999/xlink">
<g id="graph0" class="graph" transform="scale(1 1) rotate(0) translate(4 992)">
<title>ipc::session::Server_session_impl&lt; S_MQ_TYPE_OR_NONE, S_TRANSMIT_NATIVE_HANDLES, Mdt_payload, S_SHM_TYPE_OR_NONE, S_SHM_MAX_HNDL_SZ, S_GRACEFUL_FINISH_REQUIRED_V &gt;</title>
<polygon fill="white" stroke="transparent" points="-4,4 -4,-992 1405,-992 1405,4 -4,4"/>
<!-- Node1 -->
<g id="node1" class="node">
<title>Node1</title>
<g id="a_node1"><a xlink:title="Internal, non&#45;movable pImpl&#45;lite implementation of Server_session_mv class template.">
<polygon fill="#bfbfbf" stroke="black" points="1222,-228 1222,-290 1401,-290 1401,-228 1222,-228"/>
<text text-anchor="start" x="1230" y="-279.6" font-family="Helvetica,sans-Serif" font-size="8.00">ipc::session::Server</text>
<text text-anchor="start" x="1230" y="-270.6" font-family="Helvetica,sans-Serif" font-size="8.00">_session_impl&lt; S_MQ_TYPE</text>
<text text-anchor="start" x="1230" y="-261.6" font-family="Helvetica,sans-Serif" font-size="8.00">_OR_NONE, S_TRANSMIT_NATIVE</text>
<text text-anchor="start" x="1230" y="-252.6" font-family="Helvetica,sans-Serif" font-size="8.00">_HANDLES, Mdt_payload, S_SHM</text>
<text text-anchor="start" x="1230" y="-243.6" font-family="Helvetica,sans-Serif" font-size="8.00">_TYPE_OR_NONE, S_SHM_MAX_HNDL</text>
<text text-anchor="middle" x="1311.5" y="-234.6" font-family="Helvetica,sans-Serif" font-size="8.00">_SZ, S_GRACEFUL_FINISH_REQUIRED_V &gt;</text>
</a>
</g>
</g>
<!-- Node2 -->
<g id="node2" class="node">
<title>Node2</title>
<g id="a_node2"><a xlink:href="classipc_1_1session_1_1Session__base.html" target="_top" xlink:title="Internal type containing data and types common to internal types Server_session_impl and Client_sessi...">
<polygon fill="white" stroke="black" points="929,-377 929,-421 1075,-421 1075,-377 929,-377"/>
<text text-anchor="start" x="937" y="-410.6" font-family="Helvetica,sans-Serif" font-size="8.00">ipc::session::Session</text>
<text text-anchor="start" x="937" y="-401.6" font-family="Helvetica,sans-Serif" font-size="8.00">_base&lt; S_MQ_TYPE_OR_NONE,</text>
<text text-anchor="start" x="937" y="-392.6" font-family="Helvetica,sans-Serif" font-size="8.00"> S_TRANSMIT_NATIVE_HANDLES,</text>
<text text-anchor="middle" x="1002" y="-383.6" font-family="Helvetica,sans-Serif" font-size="8.00"> Mdt_payload &gt;</text>
</a>
</g>
</g>
<!-- Node2&#45;&gt;Node1 -->
<g id="edge1" class="edge">
<title>Node2&#45;&gt;Node1</title>
<path fill="none" stroke="midnightblue" d="M1067.83,-373.06C1107.48,-356.83 1159.06,-335.07 1204,-314 1219.83,-306.58 1236.73,-298.11 1252.31,-290.07"/>
<polygon fill="midnightblue" stroke="midnightblue" points="1066.46,-369.84 1058.53,-376.86 1069.11,-376.32 1066.46,-369.84"/>
</g>
<!-- Node3 -->
<g id="node3" class="node">
<title>Node3</title>
<g id="a_node3"><a xlink:title=" ">
<polygon fill="white" stroke="#bfbfbf" points="631.5,-462.5 631.5,-479.5 730.5,-479.5 730.5,-462.5 631.5,-462.5"/>
<text text-anchor="middle" x="681" y="-469.1" font-family="Helvetica,sans-Serif" font-size="8.00">boost::noncopyable</text>
</a>
</g>
</g>
<!-- Node3&#45;&gt;Node2 -->
<g id="edge2" class="edge">
<title>Node3&#45;&gt;Node2</title>
<path fill="none" stroke="#8b1a1a" d="M740.47,-465.94C787.23,-460.98 854.14,-451.79 911,-436 925,-432.11 939.75,-426.66 953.17,-421.14"/>
<polygon fill="#8b1a1a" stroke="#8b1a1a" points="740.1,-462.46 730.51,-466.97 740.82,-469.43 740.1,-462.46"/>
</g>
<!-- Node4 -->
<g id="node4" class="node">
<title>Node4</title>
<g id="a_node4"><a xlink:title=" ">
<polygon fill="white" stroke="#bfbfbf" points="630.5,-552.5 630.5,-569.5 731.5,-569.5 731.5,-552.5 630.5,-552.5"/>
<text text-anchor="middle" x="681" y="-559.1" font-family="Helvetica,sans-Serif" font-size="8.00">static constexpr bool</text>
</a>
</g>
</g>
<!-- Node4&#45;&gt;Node1 -->
<g id="edge28" class="edge">
<title>Node4&#45;&gt;Node1</title>
<path fill="none" stroke="#9a32cd" stroke-dasharray="5,2" d="M741.72,-566.11C788.91,-568.16 855.79,-566.56 911,-548 1070.04,-494.53 1219.73,-353.53 1281.16,-290.37"/>
<polygon fill="#9a32cd" stroke="#9a32cd" points="741.83,-562.61 731.67,-565.61 741.48,-569.6 741.83,-562.61"/>
<text text-anchor="middle" x="1002" y="-569.6" font-family="Helvetica,sans-Serif" font-size="8.00"> S_GRACEFUL_FINISH_REQUIRED</text>
<text text-anchor="middle" x="1002" y="-560.6" font-family="Helvetica,sans-Serif" font-size="8.00">S_MQS_ENABLED</text>
<text text-anchor="middle" x="1002" y="-551.6" font-family="Helvetica,sans-Serif" font-size="8.00">S_SHM_ENABLED</text>
<text text-anchor="middle" x="1002" y="-542.6" font-family="Helvetica,sans-Serif" font-size="8.00">S_SOCKET_STREAM_ENABLED</text>
</g>
<!-- Node4&#45;&gt;Node2 -->
<g id="edge3" class="edge">
<title>Node4&#45;&gt;Node2</title>
<path fill="none" stroke="#9a32cd" stroke-dasharray="5,2" d="M741.65,-550.13C748.31,-548.13 754.89,-545.77 761,-543 769.99,-538.93 769.91,-533.83 779,-530 833.87,-506.86 859.45,-536.81 911,-507 946.5,-486.47 974.16,-446.38 988.99,-421.24"/>
<polygon fill="#9a32cd" stroke="#9a32cd" points="740.59,-546.8 731.88,-552.83 742.45,-553.54 740.59,-546.8"/>
<text text-anchor="middle" x="845" y="-541.6" font-family="Helvetica,sans-Serif" font-size="8.00"> S_MQS_ENABLED</text>
<text text-anchor="middle" x="845" y="-532.6" font-family="Helvetica,sans-Serif" font-size="8.00">S_SOCKET_STREAM_ENABLED</text>
</g>
<!-- Node5 -->
<g id="node5" class="node">
<title>Node5</title>
<g id="a_node5"><a xlink:href="structipc_1_1session_1_1Server__app.html" target="_top" xlink:title="An App that is used as a server in at least one client&#45;server IPC split.">
<polygon fill="white" stroke="black" points="381,-336.5 381,-353.5 499,-353.5 499,-336.5 381,-336.5"/>
<text text-anchor="middle" x="440" y="-343.1" font-family="Helvetica,sans-Serif" font-size="8.00">ipc::session::Server_app</text>
</a>
</g>
</g>
<!-- Node5&#45;&gt;Node2 -->
<g id="edge4" class="edge">
<title>Node5&#45;&gt;Node2</title>
<path fill="none" stroke="#9a32cd" stroke-dasharray="5,2" d="M509.4,-343.82C574.33,-343.44 674.58,-344.74 761,-354 817.9,-360.1 881.53,-372.28 928.97,-382.43"/>
<polygon fill="#9a32cd" stroke="#9a32cd" points="509.26,-340.32 499.29,-343.9 509.31,-347.32 509.26,-340.32"/>
<text text-anchor="middle" x="681" y="-356.6" font-family="Helvetica,sans-Serif" font-size="8.00"> m_srv_app_ref</text>
</g>
<!-- Node6 -->
<g id="node6" class="node">
<title>Node6</title>
<g id="a_node6"><a xlink:href="structipc_1_1session_1_1App.html" target="_top" xlink:title="A description of an application in this ipc::session inter&#45;process communication universe.">
<polygon fill="white" stroke="black" points="155,-406.5 155,-423.5 243,-423.5 243,-406.5 155,-406.5"/>
<text text-anchor="middle" x="199" y="-413.1" font-family="Helvetica,sans-Serif" font-size="8.00">ipc::session::App</text>
</a>
</g>
</g>
<!-- Node6&#45;&gt;Node5 -->
<g id="edge5" class="edge">
<title>Node6&#45;&gt;Node5</title>
<path fill="none" stroke="midnightblue" d="M253.13,-404.43C285.27,-397.51 326.88,-387.61 363,-376 382.94,-369.59 405.04,-360.32 420.24,-353.59"/>
<polygon fill="midnightblue" stroke="midnightblue" points="252.1,-401.07 243.05,-406.57 253.56,-407.92 252.1,-401.07"/>
</g>
<!-- Node17 -->
<g id="node16" class="node">
<title>Node17</title>
<g id="a_node16"><a xlink:href="structipc_1_1session_1_1Client__app.html" target="_top" xlink:title="An App that is used as a client in at least one client&#45;server IPC split.">
<polygon fill="white" stroke="black" points="382.5,-394.5 382.5,-411.5 497.5,-411.5 497.5,-394.5 382.5,-394.5"/>
<text text-anchor="middle" x="440" y="-401.1" font-family="Helvetica,sans-Serif" font-size="8.00">ipc::session::Client_app</text>
</a>
</g>
</g>
<!-- Node6&#45;&gt;Node17 -->
<g id="edge17" class="edge">
<title>Node6&#45;&gt;Node17</title>
<path fill="none" stroke="midnightblue" d="M253.45,-412.32C291.79,-410.39 343.35,-407.8 382.39,-405.84"/>
<polygon fill="midnightblue" stroke="midnightblue" points="252.82,-408.84 243,-412.84 253.17,-415.83 252.82,-408.84"/>
</g>
<!-- Node7 -->
<g id="node7" class="node">
<title>Node7</title>
<g id="a_node7"><a xlink:title=" ">
<polygon fill="white" stroke="red" points="0,-626.5 0,-643.5 59,-643.5 59,-626.5 0,-626.5"/>
<text text-anchor="middle" x="29.5" y="-633.1" font-family="Helvetica,sans-Serif" font-size="8.00">std::string</text>
</a>
</g>
</g>
<!-- Node7&#45;&gt;Node6 -->
<g id="edge6" class="edge">
<title>Node7&#45;&gt;Node6</title>
<path fill="none" stroke="#9a32cd" stroke-dasharray="5,2" d="M43.33,-618.16C76.83,-574.15 166.1,-456.89 191.3,-423.8"/>
<polygon fill="#9a32cd" stroke="#9a32cd" points="40.34,-616.3 37.07,-626.38 45.91,-620.54 40.34,-616.3"/>
<text text-anchor="middle" x="104.5" y="-571.6" font-family="Helvetica,sans-Serif" font-size="8.00"> m_name</text>
</g>
<!-- Node18 -->
<g id="node17" class="node">
<title>Node18</title>
<g id="a_node17"><a xlink:href="classipc_1_1util_1_1Shared__name.html" target="_top" xlink:title="String&#45;wrapping abstraction representing a name uniquely distinguishing a kernel&#45;persistent entity fr...">
<polygon fill="white" stroke="black" points="626,-745.5 626,-762.5 736,-762.5 736,-745.5 626,-745.5"/>
<text text-anchor="middle" x="681" y="-752.1" font-family="Helvetica,sans-Serif" font-size="8.00">ipc::util::Shared_name</text>
</a>
</g>
</g>
<!-- Node7&#45;&gt;Node18 -->
<g id="edge22" class="edge">
<title>Node7&#45;&gt;Node18</title>
<path fill="none" stroke="#9a32cd" stroke-dasharray="5,2" d="M68.38,-646.46C71.29,-647.33 74.19,-648.18 77,-649 211.79,-688.35 242.6,-711.3 381,-735 465.72,-749.51 565.65,-753.2 625.86,-754"/>
<polygon fill="#9a32cd" stroke="#9a32cd" points="69.09,-643.02 58.51,-643.52 67.09,-649.73 69.09,-643.02"/>
<text text-anchor="middle" x="314.5" y="-733.6" font-family="Helvetica,sans-Serif" font-size="8.00"> m_raw_name</text>
</g>
<!-- Node26 -->
<g id="node25" class="node">
<title>Node26</title>
<g id="a_node25"><a xlink:href="classipc_1_1transport_1_1Protocol__negotiator.html" target="_top" xlink:title="A simple state machine that, assuming the opposide side of a comm pathway uses an equivalent state ma...">
<polygon fill="white" stroke="black" points="946.5,-641 946.5,-667 1057.5,-667 1057.5,-641 946.5,-641"/>
<text text-anchor="start" x="954.5" y="-656.6" font-family="Helvetica,sans-Serif" font-size="8.00">ipc::transport::Protocol</text>
<text text-anchor="middle" x="1002" y="-647.6" font-family="Helvetica,sans-Serif" font-size="8.00">_negotiator</text>
</a>
</g>
</g>
<!-- Node7&#45;&gt;Node26 -->
<g id="edge32" class="edge">
<title>Node7&#45;&gt;Node26</title>
<path fill="none" stroke="#9a32cd" stroke-dasharray="5,2" d="M69.66,-635C103.61,-635 154.05,-635 198,-635 198,-635 198,-635 551,-635 693.71,-635 861.64,-644.66 946.31,-650.2"/>
<polygon fill="#9a32cd" stroke="#9a32cd" points="69.25,-631.5 59.25,-635 69.25,-638.5 69.25,-631.5"/>
<text text-anchor="middle" x="440" y="-637.6" font-family="Helvetica,sans-Serif" font-size="8.00"> m_nickname</text>
</g>
<!-- Node9 -->
<g id="node8" class="node">
<title>Node9</title>
<g id="a_node8"><a xlink:title=" ">
<polygon fill="white" stroke="#bfbfbf" points="12,-349.5 12,-366.5 47,-366.5 47,-349.5 12,-349.5"/>
<text text-anchor="middle" x="29.5" y="-356.1" font-family="Helvetica,sans-Serif" font-size="8.00">path</text>
</a>
</g>
</g>
<!-- Node9&#45;&gt;Node5 -->
<g id="edge11" class="edge">
<title>Node9&#45;&gt;Node5</title>
<path fill="none" stroke="#9a32cd" stroke-dasharray="5,2" d="M57.17,-351.06C81.24,-345.18 117.72,-337.21 150,-334 229.69,-326.08 322.27,-332.3 380.74,-338.11"/>
<polygon fill="#9a32cd" stroke="#9a32cd" points="56.21,-347.7 47.36,-353.51 57.91,-354.49 56.21,-347.7"/>
<text text-anchor="start" x="156.5" y="-345.6" font-family="Helvetica,sans-Serif" font-size="8.00"> m_kernel_persistent</text>
<text text-anchor="middle" x="199" y="-336.6" font-family="Helvetica,sans-Serif" font-size="8.00">_run_dir_override</text>
</g>
<!-- Node9&#45;&gt;Node6 -->
<g id="edge7" class="edge">
<title>Node9&#45;&gt;Node6</title>
<path fill="none" stroke="#9a32cd" stroke-dasharray="5,2" d="M56.66,-366.9C88.37,-377.69 141.43,-395.75 172.73,-406.4"/>
<polygon fill="#9a32cd" stroke="#9a32cd" points="57.77,-363.58 47.17,-363.67 55.51,-370.21 57.77,-363.58"/>
<text text-anchor="middle" x="104.5" y="-393.6" font-family="Helvetica,sans-Serif" font-size="8.00"> m_exec_path</text>
</g>
<!-- Node10 -->
<g id="node9" class="node">
<title>Node10</title>
<g id="a_node9"><a xlink:title=" ">
<polygon fill="white" stroke="#bfbfbf" points="11.5,-435.5 11.5,-452.5 47.5,-452.5 47.5,-435.5 11.5,-435.5"/>
<text text-anchor="middle" x="29.5" y="-442.1" font-family="Helvetica,sans-Serif" font-size="8.00">uid_t</text>
</a>
</g>
</g>
<!-- Node10&#45;&gt;Node6 -->
<g id="edge8" class="edge">
<title>Node10&#45;&gt;Node6</title>
<path fill="none" stroke="#9a32cd" stroke-dasharray="5,2" d="M57.82,-439.27C84.13,-434.71 124.35,-427.75 154.97,-422.45"/>
<polygon fill="#9a32cd" stroke="#9a32cd" points="57.05,-435.85 47.79,-441.01 58.25,-442.75 57.05,-435.85"/>
<text text-anchor="middle" x="104.5" y="-437.6" font-family="Helvetica,sans-Serif" font-size="8.00"> m_user_id</text>
</g>
<!-- Node11 -->
<g id="node10" class="node">
<title>Node11</title>
<g id="a_node10"><a xlink:title=" ">
<polygon fill="white" stroke="#bfbfbf" points="11.5,-399.5 11.5,-416.5 47.5,-416.5 47.5,-399.5 11.5,-399.5"/>
<text text-anchor="middle" x="29.5" y="-406.1" font-family="Helvetica,sans-Serif" font-size="8.00">gid_t</text>
</a>
</g>
</g>
<!-- Node11&#45;&gt;Node6 -->
<g id="edge9" class="edge">
<title>Node11&#45;&gt;Node6</title>
<path fill="none" stroke="#9a32cd" stroke-dasharray="5,2" d="M57.82,-409.14C84.13,-410.24 124.35,-411.92 154.97,-413.2"/>
<polygon fill="#9a32cd" stroke="#9a32cd" points="57.93,-405.64 47.79,-408.72 57.64,-412.64 57.93,-405.64"/>
<text text-anchor="middle" x="104.5" y="-414.6" font-family="Helvetica,sans-Serif" font-size="8.00"> m_group_id</text>
</g>
<!-- Node12 -->
<g id="node11" class="node">
<title>Node12</title>
<g id="a_node11"><a xlink:title=" ">
<polygon fill="white" stroke="#bfbfbf" points="150,-361 150,-387 248,-387 248,-361 150,-361"/>
<text text-anchor="start" x="158" y="-376.6" font-family="Helvetica,sans-Serif" font-size="8.00">unordered_set&lt; std</text>
<text text-anchor="middle" x="199" y="-367.6" font-family="Helvetica,sans-Serif" font-size="8.00">::string &gt;</text>
</a>
</g>
</g>
<!-- Node12&#45;&gt;Node5 -->
<g id="edge10" class="edge">
<title>Node12&#45;&gt;Node5</title>
<path fill="none" stroke="#9a32cd" stroke-dasharray="5,2" d="M258.28,-366.93C295.53,-362.41 343.65,-356.57 380.87,-352.05"/>
<polygon fill="#9a32cd" stroke="#9a32cd" points="257.58,-363.49 248.08,-368.17 258.43,-370.44 257.58,-363.49"/>
<text text-anchor="middle" x="314.5" y="-367.6" font-family="Helvetica,sans-Serif" font-size="8.00"> m_allowed_client_apps</text>
</g>
<!-- Node13 -->
<g id="node12" class="node">
<title>Node13</title>
<g id="a_node12"><a xlink:title=" ">
<polygon fill="white" stroke="#bfbfbf" points="154.5,-270.5 154.5,-287.5 243.5,-287.5 243.5,-270.5 154.5,-270.5"/>
<text text-anchor="middle" x="199" y="-277.1" font-family="Helvetica,sans-Serif" font-size="8.00">Permissions_level</text>
</a>
</g>
</g>
<!-- Node13&#45;&gt;Node5 -->
<g id="edge12" class="edge">
<title>Node13&#45;&gt;Node5</title>
<path fill="none" stroke="#9a32cd" stroke-dasharray="5,2" d="M253.72,-276.29C286.23,-276.35 328.04,-279.46 363,-292 390.26,-301.77 416.76,-324 430.09,-336.34"/>
<polygon fill="#9a32cd" stroke="#9a32cd" points="253.48,-272.8 243.5,-276.38 253.53,-279.8 253.48,-272.8"/>
<text text-anchor="start" x="271" y="-303.6" font-family="Helvetica,sans-Serif" font-size="8.00"> m_permissions_level</text>
<text text-anchor="middle" x="314.5" y="-294.6" font-family="Helvetica,sans-Serif" font-size="8.00">_for_client_apps</text>
</g>
<!-- Node14 -->
<g id="node13" class="node">
<title>Node14</title>
<g id="a_node13"><a xlink:title=" ">
<polygon fill="white" stroke="#bfbfbf" points="645.5,-426.5 645.5,-443.5 716.5,-443.5 716.5,-426.5 645.5,-426.5"/>
<text text-anchor="middle" x="681" y="-433.1" font-family="Helvetica,sans-Serif" font-size="8.00">Fine_duration</text>
</a>
</g>
</g>
<!-- Node14&#45;&gt;Node2 -->
<g id="edge13" class="edge">
<title>Node14&#45;&gt;Node2</title>
<path fill="none" stroke="#9a32cd" stroke-dasharray="5,2" d="M726.74,-429.95C779.16,-424.04 866.71,-414.16 928.78,-407.15"/>
<polygon fill="#9a32cd" stroke="#9a32cd" points="726.29,-426.48 716.75,-431.08 727.08,-433.44 726.29,-426.48"/>
<text text-anchor="middle" x="845" y="-425.6" font-family="Helvetica,sans-Serif" font-size="8.00"> S_OPEN_CHANNEL_TIMEOUT</text>
</g>
<!-- Node15 -->
<g id="node14" class="node">
<title>Node15</title>
<g id="a_node14"><a xlink:title=" ">
<polygon fill="white" stroke="#bfbfbf" points="627.5,-255.5 627.5,-272.5 734.5,-272.5 734.5,-255.5 627.5,-255.5"/>
<text text-anchor="middle" x="681" y="-262.1" font-family="Helvetica,sans-Serif" font-size="8.00">static constexpr size_t</text>
</a>
</g>
</g>
<!-- Node15&#45;&gt;Node2 -->
<g id="edge14" class="edge">
<title>Node15&#45;&gt;Node2</title>
<path fill="none" stroke="#9a32cd" stroke-dasharray="5,2" d="M745.01,-262.42C793.15,-263.77 859.72,-271.33 911,-299 928.68,-308.54 963.23,-350.4 984,-376.85"/>
<polygon fill="#9a32cd" stroke="#9a32cd" points="744.79,-258.91 734.72,-262.22 744.65,-265.91 744.79,-258.91"/>
<text text-anchor="middle" x="845" y="-301.6" font-family="Helvetica,sans-Serif" font-size="8.00"> S_MQS_MAX_MSG_SZ</text>
</g>
<!-- Node16 -->
<g id="node15" class="node">
<title>Node16</title>
<g id="a_node15"><a xlink:title=" ">
<polygon fill="white" stroke="black" points="632,-372.5 632,-407.5 730,-407.5 730,-372.5 632,-372.5"/>
<text text-anchor="start" x="640" y="-397.1" font-family="Helvetica,sans-Serif" font-size="8.00">std::atomic&lt; const</text>
<text text-anchor="start" x="640" y="-388.1" font-family="Helvetica,sans-Serif" font-size="8.00"> ipc::session::Client</text>
<text text-anchor="middle" x="681" y="-379.1" font-family="Helvetica,sans-Serif" font-size="8.00">_app * &gt;</text>
</a>
</g>
</g>
<!-- Node16&#45;&gt;Node2 -->
<g id="edge15" class="edge">
<title>Node16&#45;&gt;Node2</title>
<path fill="none" stroke="#9a32cd" stroke-dasharray="5,2" d="M740.36,-391.65C793.39,-393.14 871.83,-395.36 928.8,-396.96"/>
<polygon fill="#9a32cd" stroke="#9a32cd" points="740.2,-388.14 730.1,-391.36 740,-395.14 740.2,-388.14"/>
<text text-anchor="middle" x="845" y="-398.6" font-family="Helvetica,sans-Serif" font-size="8.00"> m_cli_app_ptr</text>
</g>
<!-- Node17&#45;&gt;Node16 -->
<g id="edge16" class="edge">
<title>Node17&#45;&gt;Node16</title>
<path fill="none" stroke="#9a32cd" stroke-dasharray="5,2" d="M507.7,-399.37C547.14,-397.23 596.17,-394.56 631.83,-392.62"/>
<polygon fill="#9a32cd" stroke="#9a32cd" points="507.43,-395.88 497.64,-399.92 507.82,-402.87 507.43,-395.88"/>
<text text-anchor="middle" x="550" y="-400.6" font-family="Helvetica,sans-Serif" font-size="8.00"> ptr</text>
</g>
<!-- Node18&#45;&gt;Node2 -->
<g id="edge18" class="edge">
<title>Node18&#45;&gt;Node2</title>
<path fill="none" stroke="#9a32cd" stroke-dasharray="5,2" d="M746.31,-754.92C798.97,-751.92 871.08,-738.49 911,-691 932.74,-665.13 919.16,-572.33 929,-540 942.52,-495.56 969.57,-448.35 986.39,-421.39"/>
<polygon fill="#9a32cd" stroke="#9a32cd" points="745.88,-751.44 736.05,-755.39 746.2,-758.43 745.88,-751.44"/>
<text text-anchor="middle" x="845" y="-762.6" font-family="Helvetica,sans-Serif" font-size="8.00"> m_cli_namespace</text>
<text text-anchor="middle" x="845" y="-753.6" font-family="Helvetica,sans-Serif" font-size="8.00">m_srv_namespace</text>
</g>
<!-- Node18&#45;&gt;Node18 -->
<g id="edge19" class="edge">
<title>Node18&#45;&gt;Node18</title>
<path fill="none" stroke="#9a32cd" stroke-dasharray="5,2" d="M656.63,-771.1C656.84,-776.62 664.96,-781 681,-781 704.87,-781 711.21,-771.29 700.02,-762.57"/>
<polygon fill="#9a32cd" stroke="#9a32cd" points="659.63,-772.9 661.98,-762.57 653.7,-769.18 659.63,-772.9"/>
<text text-anchor="middle" x="681" y="-846.6" font-family="Helvetica,sans-Serif" font-size="8.00"> S_1ST_OR_ONLY</text>
<text text-anchor="middle" x="681" y="-837.6" font-family="Helvetica,sans-Serif" font-size="8.00">S_EMPTY</text>
<text text-anchor="start" x="642.5" y="-828.6" font-family="Helvetica,sans-Serif" font-size="8.00">S_RESOURCE_TYPE</text>
<text text-anchor="middle" x="681" y="-819.6" font-family="Helvetica,sans-Serif" font-size="8.00">_ID_MUTEX</text>
<text text-anchor="start" x="642.5" y="-810.6" font-family="Helvetica,sans-Serif" font-size="8.00">S_RESOURCE_TYPE</text>
<text text-anchor="middle" x="681" y="-801.6" font-family="Helvetica,sans-Serif" font-size="8.00">_ID_SHM</text>
<text text-anchor="middle" x="681" y="-792.6" font-family="Helvetica,sans-Serif" font-size="8.00">S_ROOT_MAGIC</text>
<text text-anchor="middle" x="681" y="-783.6" font-family="Helvetica,sans-Serif" font-size="8.00">S_SENTINEL</text>
</g>
<!-- Node30 -->
<g id="node29" class="node">
<title>Node30</title>
<g id="a_node29"><a xlink:href="classipc_1_1transport_1_1sync__io_1_1Native__socket__stream.html" target="_top" xlink:title="Implements both sync_io::Native_handle_sender and sync_io::Native_handle_receiver concepts by using a...">
<polygon fill="white" stroke="black" points="940.5,-861 940.5,-887 1063.5,-887 1063.5,-861 940.5,-861"/>
<text text-anchor="start" x="948.5" y="-876.6" font-family="Helvetica,sans-Serif" font-size="8.00">ipc::transport::sync</text>
<text text-anchor="middle" x="1002" y="-867.6" font-family="Helvetica,sans-Serif" font-size="8.00">_io::Native_socket_stream</text>
</a>
</g>
</g>
<!-- Node18&#45;&gt;Node30 -->
<g id="edge37" class="edge">
<title>Node18&#45;&gt;Node30</title>
<path fill="none" stroke="#9a32cd" stroke-dasharray="5,2" d="M717.79,-765.6C736,-771.27 758.56,-777.94 779,-783 837.04,-797.36 856.16,-785.17 911,-809 940.7,-821.91 970.18,-845.87 986.93,-860.81"/>
<polygon fill="#9a32cd" stroke="#9a32cd" points="718.75,-762.23 708.16,-762.57 716.65,-768.91 718.75,-762.23"/>
<text text-anchor="middle" x="845" y="-811.6" font-family="Helvetica,sans-Serif" font-size="8.00"> S_RESOURCE_TYPE_ID</text>
</g>
<!-- Node19 -->
<g id="node18" class="node">
<title>Node19</title>
<g id="a_node18"><a xlink:title=" ">
<polygon fill="white" stroke="#bfbfbf" points="420,-876.5 420,-893.5 460,-893.5 460,-876.5 420,-876.5"/>
<text text-anchor="middle" x="440" y="-883.1" font-family="Helvetica,sans-Serif" font-size="8.00">size_t</text>
</a>
</g>
</g>
<!-- Node19&#45;&gt;Node18 -->
<g id="edge20" class="edge">
<title>Node19&#45;&gt;Node18</title>
<path fill="none" stroke="#9a32cd" stroke-dasharray="5,2" d="M465.67,-871.48C514.8,-844.55 623.6,-784.92 664.26,-762.63"/>
<polygon fill="#9a32cd" stroke="#9a32cd" points="463.77,-868.53 456.68,-876.4 467.13,-874.67 463.77,-868.53"/>
<text text-anchor="middle" x="550" y="-844.6" font-family="Helvetica,sans-Serif" font-size="8.00"> S_MAX_LENGTH</text>
</g>
<!-- Node19&#45;&gt;Node30 -->
<g id="edge39" class="edge">
<title>Node19&#45;&gt;Node30</title>
<path fill="none" stroke="#9a32cd" stroke-dasharray="5,2" d="M470.04,-891.57C544.28,-907.29 746.71,-943.45 911,-911 934.2,-906.42 958.94,-895.78 976.6,-887.08"/>
<polygon fill="#9a32cd" stroke="#9a32cd" points="470.55,-888.1 460.04,-889.41 469.08,-894.94 470.55,-888.1"/>
<text text-anchor="middle" x="681" y="-926.6" font-family="Helvetica,sans-Serif" font-size="8.00"> S_MAX_META_BLOB_LENGTH</text>
</g>
<!-- Node20 -->
<g id="node19" class="node">
<title>Node20</title>
<g id="a_node19"><a xlink:title=" ">
<polygon fill="white" stroke="#bfbfbf" points="398,-708.5 398,-725.5 482,-725.5 482,-708.5 398,-708.5"/>
<text text-anchor="middle" x="440" y="-715.1" font-family="Helvetica,sans-Serif" font-size="8.00">static const char</text>
</a>
</g>
</g>
<!-- Node20&#45;&gt;Node18 -->
<g id="edge21" class="edge">
<title>Node20&#45;&gt;Node18</title>
<path fill="none" stroke="#9a32cd" stroke-dasharray="5,2" d="M492.32,-719.91C519.45,-721.99 553.2,-725.44 583,-731 591.16,-732.52 592.95,-733.97 601,-736 613.96,-739.27 628.18,-742.6 640.94,-745.48"/>
<polygon fill="#9a32cd" stroke="#9a32cd" points="492.5,-716.42 482.28,-719.18 492,-723.4 492.5,-716.42"/>
<text text-anchor="middle" x="550" y="-733.6" font-family="Helvetica,sans-Serif" font-size="8.00"> S_SEPARATOR</text>
</g>
<!-- Node21 -->
<g id="node20" class="node">
<title>Node21</title>
<g id="a_node20"><a xlink:title=" ">
<polygon fill="white" stroke="#bfbfbf" points="645.5,-211.5 645.5,-228.5 716.5,-228.5 716.5,-211.5 645.5,-211.5"/>
<text text-anchor="middle" x="681" y="-218.1" font-family="Helvetica,sans-Serif" font-size="8.00">Task_asio_err</text>
</a>
</g>
</g>
<!-- Node21&#45;&gt;Node1 -->
<g id="edge35" class="edge">
<title>Node21&#45;&gt;Node1</title>
<path fill="none" stroke="#9a32cd" stroke-dasharray="5,2" d="M726.9,-219.09C773.15,-218.59 847.27,-219.02 911,-225 919.07,-225.76 920.96,-226.91 929,-228 1001.62,-237.81 1019.98,-238.87 1093,-245 1135.32,-248.55 1182.35,-251.68 1221.82,-254.08"/>
<polygon fill="#9a32cd" stroke="#9a32cd" points="726.57,-215.59 716.62,-219.22 726.66,-222.59 726.57,-215.59"/>
<text text-anchor="middle" x="1002" y="-245.6" font-family="Helvetica,sans-Serif" font-size="8.00"> m_log_in_on_done_func</text>
</g>
<!-- Node21&#45;&gt;Node2 -->
<g id="edge23" class="edge">
<title>Node21&#45;&gt;Node2</title>
<path fill="none" stroke="#9a32cd" stroke-dasharray="5,2" d="M726.87,-220.43C785.59,-221.91 884.2,-227.9 911,-251 932.73,-269.73 915.5,-287.68 929,-313 941.82,-337.06 962.16,-360.52 977.95,-376.85"/>
<polygon fill="#9a32cd" stroke="#9a32cd" points="726.82,-216.92 716.75,-220.2 726.67,-223.92 726.82,-216.92"/>
<text text-anchor="middle" x="845" y="-253.6" font-family="Helvetica,sans-Serif" font-size="8.00"> m_on_err_func</text>
</g>
<!-- Node22 -->
<g id="node21" class="node">
<title>Node22</title>
<g id="a_node21"><a xlink:title=" ">
<polygon fill="white" stroke="#bfbfbf" points="601,-498.5 601,-533.5 761,-533.5 761,-498.5 601,-498.5"/>
<text text-anchor="start" x="609" y="-523.1" font-family="Helvetica,sans-Serif" font-size="8.00">Function&lt; void(Channel</text>
<text text-anchor="start" x="609" y="-514.1" font-family="Helvetica,sans-Serif" font-size="8.00">_obj &amp;&amp;new_channel, Mdt</text>
<text text-anchor="middle" x="681" y="-505.1" font-family="Helvetica,sans-Serif" font-size="8.00">_reader_ptr &amp;&amp;new_channel_mdt)&gt;</text>
</a>
</g>
</g>
<!-- Node22&#45;&gt;Node2 -->
<g id="edge24" class="edge">
<title>Node22&#45;&gt;Node2</title>
<path fill="none" stroke="#9a32cd" stroke-dasharray="5,2" d="M752.1,-495.87C761.13,-493.46 770.26,-491.11 779,-489 837.21,-474.96 855.99,-485.66 911,-462 934.65,-451.83 958.39,-434.86 975.54,-421.1"/>
<polygon fill="#9a32cd" stroke="#9a32cd" points="751.11,-492.51 742.37,-498.49 752.94,-499.26 751.11,-492.51"/>
<text text-anchor="start" x="784.5" y="-500.6" font-family="Helvetica,sans-Serif" font-size="8.00"> m_on_passive_open_channel</text>
<text text-anchor="middle" x="845" y="-491.6" font-family="Helvetica,sans-Serif" font-size="8.00">_func_or_empty</text>
</g>
<!-- Node23 -->
<g id="node22" class="node">
<title>Node23</title>
<g id="a_node22"><a xlink:title=" ">
<polygon fill="white" stroke="#bfbfbf" points="651,-291.5 651,-308.5 711,-308.5 711,-291.5 651,-291.5"/>
<text text-anchor="middle" x="681" y="-298.1" font-family="Helvetica,sans-Serif" font-size="8.00">Error_code</text>
</a>
</g>
</g>
<!-- Node23&#45;&gt;Node1 -->
<g id="edge41" class="edge">
<title>Node23&#45;&gt;Node1</title>
<path fill="none" stroke="#9a32cd" stroke-dasharray="5,2" d="M721.35,-297.67C766.97,-294.95 844.44,-290.28 911,-286 1017.83,-279.12 1140.7,-270.75 1221.65,-265.17"/>
<polygon fill="#9a32cd" stroke="#9a32cd" points="721.06,-294.18 711.28,-298.27 721.47,-301.17 721.06,-294.18"/>
<text text-anchor="middle" x="1002" y="-286.6" font-family="Helvetica,sans-Serif" font-size="8.00"> m_pre_init_err_code</text>
</g>
<!-- Node23&#45;&gt;Node2 -->
<g id="edge25" class="edge">
<title>Node23&#45;&gt;Node2</title>
<path fill="none" stroke="#9a32cd" stroke-dasharray="5,2" d="M721.29,-304.8C782.09,-312.39 893.8,-327 911,-334 935.64,-344.02 959.86,-362.13 976.97,-376.69"/>
<polygon fill="#9a32cd" stroke="#9a32cd" points="721.63,-301.32 711.28,-303.56 720.77,-308.26 721.63,-301.32"/>
<text text-anchor="start" x="796.5" y="-345.6" font-family="Helvetica,sans-Serif" font-size="8.00"> m_peer_state_err_code</text>
<text text-anchor="middle" x="845" y="-336.6" font-family="Helvetica,sans-Serif" font-size="8.00">_or_ok</text>
</g>
<!-- Node24 -->
<g id="node23" class="node">
<title>Node24</title>
<g id="a_node23"><a xlink:title=" ">
<polygon fill="white" stroke="#bfbfbf" points="627.5,-709.5 627.5,-726.5 734.5,-726.5 734.5,-709.5 627.5,-709.5"/>
<text text-anchor="middle" x="681" y="-716.1" font-family="Helvetica,sans-Serif" font-size="8.00">flow::log::Log_context</text>
</a>
</g>
</g>
<!-- Node24&#45;&gt;Node1 -->
<g id="edge26" class="edge">
<title>Node24&#45;&gt;Node1</title>
<path fill="none" stroke="midnightblue" d="M744.72,-719.69C868.66,-721.65 1138.62,-718.64 1204,-658 1258.74,-607.24 1294.9,-375.03 1306.48,-290.17"/>
<polygon fill="midnightblue" stroke="midnightblue" points="744.68,-716.19 734.62,-719.51 744.56,-723.19 744.68,-716.19"/>
</g>
<!-- Node24&#45;&gt;Node26 -->
<g id="edge30" class="edge">
<title>Node24&#45;&gt;Node26</title>
<path fill="none" stroke="midnightblue" d="M744.74,-714.21C791.2,-710.41 855.75,-703.02 911,-689 932.29,-683.6 955.36,-674.56 972.81,-667.02"/>
<polygon fill="midnightblue" stroke="midnightblue" points="744.21,-710.74 734.52,-715.02 744.76,-717.72 744.21,-710.74"/>
</g>
<!-- Node25 -->
<g id="node24" class="node">
<title>Node25</title>
<g id="a_node24"><a xlink:title=" ">
<polygon fill="white" stroke="#bfbfbf" points="975.5,-201.5 975.5,-218.5 1028.5,-218.5 1028.5,-201.5 975.5,-201.5"/>
<text text-anchor="middle" x="1002" y="-208.1" font-family="Helvetica,sans-Serif" font-size="8.00">ShmType</text>
</a>
</g>
</g>
<!-- Node25&#45;&gt;Node1 -->
<g id="edge27" class="edge">
<title>Node25&#45;&gt;Node1</title>
<path fill="none" stroke="#9a32cd" stroke-dasharray="5,2" d="M1038.94,-213.73C1079.26,-218.12 1146.55,-226.1 1204,-236 1209.87,-237.01 1215.91,-238.12 1221.99,-239.29"/>
<polygon fill="#9a32cd" stroke="#9a32cd" points="1039.12,-210.23 1028.8,-212.64 1038.37,-217.19 1039.12,-210.23"/>
<text text-anchor="middle" x="1148.5" y="-238.6" font-family="Helvetica,sans-Serif" font-size="8.00"> S_SHM_TYPE</text>
</g>
<!-- Node26&#45;&gt;Node1 -->
<g id="edge29" class="edge">
<title>Node26&#45;&gt;Node1</title>
<path fill="none" stroke="#9a32cd" stroke-dasharray="5,2" d="M1067.91,-643.63C1111.77,-633.44 1168.03,-613.67 1204,-576 1282.19,-494.12 1303.05,-353.05 1308.56,-290.47"/>
<polygon fill="#9a32cd" stroke="#9a32cd" points="1066.91,-640.27 1057.9,-645.84 1068.42,-647.1 1066.91,-640.27"/>
<text text-anchor="middle" x="1148.5" y="-647.6" font-family="Helvetica,sans-Serif" font-size="8.00"> m_protocol_negotiator</text>
<text text-anchor="middle" x="1148.5" y="-638.6" font-family="Helvetica,sans-Serif" font-size="8.00">m_protocol_negotiator_aux</text>
</g>
<!-- Node27 -->
<g id="node26" class="node">
<title>Node27</title>
<g id="a_node26"><a xlink:title=" ">
<polygon fill="white" stroke="#bfbfbf" points="628.5,-664 628.5,-690 733.5,-690 733.5,-664 628.5,-664"/>
<text text-anchor="start" x="636.5" y="-679.6" font-family="Helvetica,sans-Serif" font-size="8.00">static constexpr proto</text>
<text text-anchor="middle" x="681" y="-670.6" font-family="Helvetica,sans-Serif" font-size="8.00">_ver_t</text>
</a>
</g>
</g>
<!-- Node27&#45;&gt;Node26 -->
<g id="edge31" class="edge">
<title>Node27&#45;&gt;Node26</title>
<path fill="none" stroke="#9a32cd" stroke-dasharray="5,2" d="M743.86,-672.54C802.58,-668.31 890.01,-662 946.26,-657.95"/>
<polygon fill="#9a32cd" stroke="#9a32cd" points="743.33,-669.07 733.61,-673.28 743.83,-676.05 743.33,-669.07"/>
<text text-anchor="middle" x="845" y="-680.6" font-family="Helvetica,sans-Serif" font-size="8.00"> S_VER_UNKNOWN</text>
<text text-anchor="middle" x="845" y="-671.6" font-family="Helvetica,sans-Serif" font-size="8.00">S_VER_UNSUPPORTED</text>
</g>
<!-- Node28 -->
<g id="node27" class="node">
<title>Node28</title>
<g id="a_node27"><a xlink:title=" ">
<polygon fill="white" stroke="#bfbfbf" points="659,-588.5 659,-605.5 703,-605.5 703,-588.5 659,-588.5"/>
<text text-anchor="middle" x="681" y="-595.1" font-family="Helvetica,sans-Serif" font-size="8.00">int16_t</text>
</a>
</g>
</g>
<!-- Node28&#45;&gt;Node26 -->
<g id="edge33" class="edge">
<title>Node28&#45;&gt;Node26</title>
<path fill="none" stroke="#9a32cd" stroke-dasharray="5,2" d="M713.06,-591.35C757.84,-584.42 842.68,-575.89 911,-596 940.6,-604.71 969.66,-626.51 986.43,-640.77"/>
<polygon fill="#9a32cd" stroke="#9a32cd" points="712.4,-587.91 703.09,-592.97 713.52,-594.82 712.4,-587.91"/>
<text text-anchor="middle" x="845" y="-616.6" font-family="Helvetica,sans-Serif" font-size="8.00"> m_local_max_proto_ver</text>
<text text-anchor="middle" x="845" y="-607.6" font-family="Helvetica,sans-Serif" font-size="8.00">m_local_min_proto_ver</text>
<text text-anchor="middle" x="845" y="-598.6" font-family="Helvetica,sans-Serif" font-size="8.00">m_negotiated_proto_ver</text>
</g>
<!-- Node29 -->
<g id="node28" class="node">
<title>Node29</title>
<g id="a_node28"><a xlink:title=" ">
<polygon fill="white" stroke="#bfbfbf" points="663.5,-871.5 663.5,-888.5 698.5,-888.5 698.5,-871.5 663.5,-871.5"/>
<text text-anchor="middle" x="681" y="-878.1" font-family="Helvetica,sans-Serif" font-size="8.00">bool</text>
</a>
</g>
</g>
<!-- Node29&#45;&gt;Node26 -->
<g id="edge34" class="edge">
<title>Node29&#45;&gt;Node26</title>
<path fill="none" stroke="#9a32cd" stroke-dasharray="5,2" d="M708.59,-874.37C723.96,-871.01 743.63,-866.52 761,-862 828.23,-844.5 856.85,-861.53 911,-818 962.13,-776.9 988.61,-698.55 997.5,-667.33"/>
<polygon fill="#9a32cd" stroke="#9a32cd" points="707.75,-870.97 698.72,-876.5 709.23,-877.81 707.75,-870.97"/>
<text text-anchor="middle" x="845" y="-859.6" font-family="Helvetica,sans-Serif" font-size="8.00"> m_local_max_proto_ver_sent</text>
</g>
<!-- Node29&#45;&gt;Node30 -->
<g id="edge38" class="edge">
<title>Node29&#45;&gt;Node30</title>
<path fill="none" stroke="#9a32cd" stroke-dasharray="5,2" d="M709.06,-878.26C728.51,-877.1 755.36,-875.66 779,-875 833.52,-873.47 895.59,-873.33 940.21,-873.5"/>
<polygon fill="#9a32cd" stroke="#9a32cd" points="708.58,-874.79 698.81,-878.89 709.01,-881.77 708.58,-874.79"/>
<text text-anchor="middle" x="845" y="-904.6" font-family="Helvetica,sans-Serif" font-size="8.00"> S_BLOB_UNDERFLOW_ALLOWED</text>
<text text-anchor="start" x="779" y="-895.6" font-family="Helvetica,sans-Serif" font-size="8.00">S_META_BLOB_UNDERFLOW</text>
<text text-anchor="middle" x="845" y="-886.6" font-family="Helvetica,sans-Serif" font-size="8.00">_ALLOWED</text>
<text text-anchor="middle" x="845" y="-877.6" font-family="Helvetica,sans-Serif" font-size="8.00">S_TRANSMIT_NATIVE_HANDLES</text>
</g>
<!-- Node30&#45;&gt;Node1 -->
<g id="edge36" class="edge">
<title>Node30&#45;&gt;Node1</title>
<path fill="none" stroke="#9a32cd" stroke-dasharray="5,2" d="M1047.01,-857.02C1093.42,-836.78 1165.11,-798.44 1204,-742 1304.49,-596.17 1312.19,-371.81 1311.38,-290.11"/>
<polygon fill="#9a32cd" stroke="#9a32cd" points="1045.62,-853.81 1037.79,-860.95 1048.36,-860.25 1045.62,-853.81"/>
<text text-anchor="middle" x="1148.5" y="-834.6" font-family="Helvetica,sans-Serif" font-size="8.00"> m_master_sock_stm</text>
</g>
<!-- Node31 -->
<g id="node30" class="node">
<title>Node31</title>
<g id="a_node30"><a xlink:title=" ">
<polygon fill="white" stroke="#bfbfbf" points="622,-952.5 622,-987.5 740,-987.5 740,-952.5 622,-952.5"/>
<text text-anchor="start" x="630" y="-977.1" font-family="Helvetica,sans-Serif" font-size="8.00">propagate_const&lt; boost</text>
<text text-anchor="start" x="630" y="-968.1" font-family="Helvetica,sans-Serif" font-size="8.00">::movelib::unique_ptr</text>
<text text-anchor="middle" x="681" y="-959.1" font-family="Helvetica,sans-Serif" font-size="8.00">&lt; Impl &gt; &gt;</text>
</a>
</g>
</g>
<!-- Node31&#45;&gt;Node30 -->
<g id="edge40" class="edge">
<title>Node31&#45;&gt;Node30</title>
<path fill="none" stroke="#9a32cd" stroke-dasharray="5,2" d="M750.46,-969.4C797.16,-966.93 859.63,-959.52 911,-939 941.25,-926.92 970.78,-902.46 987.36,-887.23"/>
<polygon fill="#9a32cd" stroke="#9a32cd" points="750.27,-965.9 740.44,-969.86 750.59,-972.89 750.27,-965.9"/>
<text text-anchor="middle" x="845" y="-968.6" font-family="Helvetica,sans-Serif" font-size="8.00"> m_impl</text>
</g>
<!-- Node32 -->
<g id="node31" class="node">
<title>Node32</title>
<g id="a_node31"><a xlink:title=" ">
<polygon fill="white" stroke="#bfbfbf" points="968,-162.5 968,-179.5 1036,-179.5 1036,-162.5 968,-162.5"/>
<text text-anchor="middle" x="1002" y="-169.1" font-family="Helvetica,sans-Serif" font-size="8.00">unsigned int</text>
</a>
</g>
</g>
<!-- Node32&#45;&gt;Node1 -->
<g id="edge42" class="edge">
<title>Node32&#45;&gt;Node1</title>
<path fill="none" stroke="#9a32cd" stroke-dasharray="5,2" d="M1046.29,-162.75C1088.01,-156.69 1152.24,-152.38 1204,-171 1235.37,-182.28 1264.07,-207.26 1283.76,-227.73"/>
<polygon fill="#9a32cd" stroke="#9a32cd" points="1045.54,-159.33 1036.19,-164.32 1046.61,-166.25 1045.54,-159.33"/>
<text text-anchor="start" x="1096.5" y="-209.6" font-family="Helvetica,sans-Serif" font-size="8.00"> m_last_actively_opened</text>
<text text-anchor="middle" x="1148.5" y="-200.6" font-family="Helvetica,sans-Serif" font-size="8.00">_channel_id</text>
<text text-anchor="middle" x="1148.5" y="-191.6" font-family="Helvetica,sans-Serif" font-size="8.00">m_last_channel_mq_id</text>
<text text-anchor="start" x="1096.5" y="-182.6" font-family="Helvetica,sans-Serif" font-size="8.00">m_last_passively_opened</text>
<text text-anchor="middle" x="1148.5" y="-173.6" font-family="Helvetica,sans-Serif" font-size="8.00">_channel_id</text>
</g>
<!-- Node33 -->
<g id="node32" class="node">
<title>Node33</title>
<g id="a_node32"><a xlink:title=" ">
<polygon fill="white" stroke="#bfbfbf" points="944,-126.5 944,-143.5 1060,-143.5 1060,-126.5 944,-126.5"/>
<text text-anchor="middle" x="1002" y="-133.1" font-family="Helvetica,sans-Serif" font-size="8.00">Single_thread_task_loop</text>
</a>
</g>
</g>
<!-- Node33&#45;&gt;Node1 -->
<g id="edge43" class="edge">
<title>Node33&#45;&gt;Node1</title>
<path fill="none" stroke="#9a32cd" stroke-dasharray="5,2" d="M1069.08,-125.65C1109.81,-122.81 1162.08,-124.56 1204,-144 1242.39,-161.8 1273.43,-200.41 1291.89,-227.98"/>
<polygon fill="#9a32cd" stroke="#9a32cd" points="1068.67,-122.17 1058.99,-126.47 1069.24,-129.15 1068.67,-122.17"/>
<text text-anchor="middle" x="1148.5" y="-146.6" font-family="Helvetica,sans-Serif" font-size="8.00"> m_async_worker</text>
</g>
<!-- Node34 -->
<g id="node33" class="node">
<title>Node34</title>
<g id="a_node33"><a xlink:title=" ">
<polygon fill="white" stroke="#bfbfbf" points="931,-90.5 931,-107.5 1073,-107.5 1073,-90.5 931,-90.5"/>
<text text-anchor="middle" x="1002" y="-97.1" font-family="Helvetica,sans-Serif" font-size="8.00">Master_structured_channel_ptr</text>
</a>
</g>
</g>
<!-- Node34&#45;&gt;Node1 -->
<g id="edge44" class="edge">
<title>Node34&#45;&gt;Node1</title>
<path fill="none" stroke="#9a32cd" stroke-dasharray="5,2" d="M1064.29,-89.51C1106.18,-86.05 1161.57,-87.63 1204,-111 1250.72,-136.73 1282.08,-192.71 1298.06,-227.97"/>
<polygon fill="#9a32cd" stroke="#9a32cd" points="1063.85,-86.04 1054.22,-90.46 1064.5,-93 1063.85,-86.04"/>
<text text-anchor="middle" x="1148.5" y="-113.6" font-family="Helvetica,sans-Serif" font-size="8.00"> m_master_channel</text>
</g>
<!-- Node35 -->
<g id="node34" class="node">
<title>Node35</title>
<g id="a_node34"><a xlink:href="classFunction_3_01void_07_08_4.html" target="_top" xlink:title=" ">
<polygon fill="white" stroke="#bfbfbf" points="956.5,-54.5 956.5,-71.5 1047.5,-71.5 1047.5,-54.5 956.5,-54.5"/>
<text text-anchor="middle" x="1002" y="-61.1" font-family="Helvetica,sans-Serif" font-size="8.00">Function&lt; void()&gt;</text>
</a>
</g>
</g>
<!-- Node35&#45;&gt;Node1 -->
<g id="edge45" class="edge">
<title>Node35&#45;&gt;Node1</title>
<path fill="none" stroke="#9a32cd" stroke-dasharray="5,2" d="M1056.12,-53.16C1099.19,-48.07 1159.8,-47.72 1204,-75 1259.91,-109.5 1289.56,-184.98 1302.44,-227.77"/>
<polygon fill="#9a32cd" stroke="#9a32cd" points="1055.58,-49.7 1046.11,-54.46 1056.48,-56.64 1055.58,-49.7"/>
<text text-anchor="middle" x="1148.5" y="-77.6" font-family="Helvetica,sans-Serif" font-size="8.00"> m_deinit_func_or_empty</text>
</g>
<!-- Node36 -->
<g id="node35" class="node">
<title>Node36</title>
<g id="a_node35"><a xlink:title=" ">
<polygon fill="white" stroke="#bfbfbf" points="939.5,-0.5 939.5,-35.5 1064.5,-35.5 1064.5,-0.5 939.5,-0.5"/>
<text text-anchor="start" x="947.5" y="-25.1" font-family="Helvetica,sans-Serif" font-size="8.00">optional&lt; typename</text>
<text text-anchor="start" x="947.5" y="-16.1" font-family="Helvetica,sans-Serif" font-size="8.00"> ipc::session::Session</text>
<text text-anchor="middle" x="1002" y="-7.1" font-family="Helvetica,sans-Serif" font-size="8.00">_base::Graceful_finisher &gt;</text>
</a>
</g>
</g>
<!-- Node36&#45;&gt;Node1 -->
<g id="edge46" class="edge">
<title>Node36&#45;&gt;Node1</title>
<path fill="none" stroke="#9a32cd" stroke-dasharray="5,2" d="M1074.62,-8.31C1115.9,-6.49 1166.81,-11.07 1204,-37 1268.87,-82.23 1295.6,-178.02 1305.44,-227.68"/>
<polygon fill="#9a32cd" stroke="#9a32cd" points="1074.4,-4.82 1064.61,-8.88 1074.8,-11.8 1074.4,-4.82"/>
<text text-anchor="middle" x="1148.5" y="-39.6" font-family="Helvetica,sans-Serif" font-size="8.00"> m_graceful_finisher</text>
</g>
</g>
</svg>
