<?xml version="1.0" encoding="UTF-8" standalone="no"?>
<!DOCTYPE svg PUBLIC "-//W3C//DTD SVG 1.1//EN"
 "http://www.w3.org/Graphics/SVG/1.1/DTD/svg11.dtd">
<!-- Generated by graphviz version 2.43.0 (0)
 -->
<!-- Title: ipc::session::Client_session_impl&lt; S_MQ_TYPE_OR_NONE, S_TRANSMIT_NATIVE_HANDLES, Mdt_payload, S_SHM_TYPE_OR_NONE, S_GRACEFUL_FINISH_REQUIRED_V &gt; Pages: 1 -->
<svg width="1445pt" height="816pt"
 viewBox="0.00 0.00 1445.00 816.00" xmlns="http://www.w3.org/2000/svg" xmlns:xlink="http://www.w3.org/1999/xlink">
<g id="graph0" class="graph" transform="scale(1 1) rotate(0) translate(4 812)">
<title>ipc::session::Client_session_impl&lt; S_MQ_TYPE_OR_NONE, S_TRANSMIT_NATIVE_HANDLES, Mdt_payload, S_SHM_TYPE_OR_NONE, S_GRACEFUL_FINISH_REQUIRED_V &gt;</title>
<polygon fill="white" stroke="transparent" points="-4,4 -4,-812 1441,-812 1441,4 -4,4"/>
<!-- Node1 -->
<g id="node1" class="node">
<title>Node1</title>
<g id="a_node1"><a xlink:title="Internal, non&#45;movable pImpl&#45;lite implementation of Client_session_mv class template.">
<polygon fill="#bfbfbf" stroke="black" points="1269,-184 1269,-246 1437,-246 1437,-184 1269,-184"/>
<text text-anchor="start" x="1277" y="-235.6" font-family="Helvetica,sans-Serif" font-size="8.00">ipc::session::Client</text>
<text text-anchor="start" x="1277" y="-226.6" font-family="Helvetica,sans-Serif" font-size="8.00">_session_impl&lt; S_MQ_TYPE</text>
<text text-anchor="start" x="1277" y="-217.6" font-family="Helvetica,sans-Serif" font-size="8.00">_OR_NONE, S_TRANSMIT_NATIVE</text>
<text text-anchor="start" x="1277" y="-208.6" font-family="Helvetica,sans-Serif" font-size="8.00">_HANDLES, Mdt_payload, S_SHM</text>
<text text-anchor="start" x="1277" y="-199.6" font-family="Helvetica,sans-Serif" font-size="8.00">_TYPE_OR_NONE, S_GRACEFUL_FINISH</text>
<text text-anchor="middle" x="1353" y="-190.6" font-family="Helvetica,sans-Serif" font-size="8.00">_REQUIRED_V &gt;</text>
</a>
</g>
</g>
<!-- Node2 -->
<g id="node2" class="node">
<title>Node2</title>
<g id="a_node2"><a xlink:href="classipc_1_1session_1_1Session__base.html" target="_top" xlink:title="Internal type containing data and types common to internal types Server_session_impl and Client_sessi...">
<polygon fill="white" stroke="black" points="976,-527 976,-571 1122,-571 1122,-527 976,-527"/>
<text text-anchor="start" x="984" y="-560.6" font-family="Helvetica,sans-Serif" font-size="8.00">ipc::session::Session</text>
<text text-anchor="start" x="984" y="-551.6" font-family="Helvetica,sans-Serif" font-size="8.00">_base&lt; S_MQ_TYPE_OR_NONE,</text>
<text text-anchor="start" x="984" y="-542.6" font-family="Helvetica,sans-Serif" font-size="8.00"> S_TRANSMIT_NATIVE_HANDLES,</text>
<text text-anchor="middle" x="1049" y="-533.6" font-family="Helvetica,sans-Serif" font-size="8.00"> Mdt_payload &gt;</text>
</a>
</g>
</g>
<!-- Node2&#45;&gt;Node1 -->
<g id="edge1" class="edge">
<title>Node2&#45;&gt;Node1</title>
<path fill="none" stroke="midnightblue" d="M1094.98,-521.6C1138.71,-493.37 1205.06,-446.07 1251,-393 1290.53,-347.33 1322.1,-283.82 1338.85,-246.3"/>
<polygon fill="midnightblue" stroke="midnightblue" points="1093.09,-518.66 1086.55,-526.99 1096.86,-524.56 1093.09,-518.66"/>
</g>
<!-- Node3 -->
<g id="node3" class="node">
<title>Node3</title>
<g id="a_node3"><a xlink:title=" ">
<polygon fill="white" stroke="#bfbfbf" points="689.5,-459.5 689.5,-476.5 788.5,-476.5 788.5,-459.5 689.5,-459.5"/>
<text text-anchor="middle" x="739" y="-466.1" font-family="Helvetica,sans-Serif" font-size="8.00">boost::noncopyable</text>
</a>
</g>
</g>
<!-- Node3&#45;&gt;Node2 -->
<g id="edge2" class="edge">
<title>Node3&#45;&gt;Node2</title>
<path fill="none" stroke="#8b1a1a" d="M798.98,-474.34C843.42,-480.12 905.46,-490.35 958,-507 974.27,-512.16 991.42,-519.61 1006.33,-526.8"/>
<polygon fill="#8b1a1a" stroke="#8b1a1a" points="799.29,-470.85 788.93,-473.07 798.41,-477.8 799.29,-470.85"/>
</g>
<!-- Node4 -->
<g id="node4" class="node">
<title>Node4</title>
<g id="a_node4"><a xlink:title=" ">
<polygon fill="white" stroke="#bfbfbf" points="688.5,-771.5 688.5,-788.5 789.5,-788.5 789.5,-771.5 688.5,-771.5"/>
<text text-anchor="middle" x="739" y="-778.1" font-family="Helvetica,sans-Serif" font-size="8.00">static constexpr bool</text>
</a>
</g>
</g>
<!-- Node4&#45;&gt;Node1 -->
<g id="edge28" class="edge">
<title>Node4&#45;&gt;Node1</title>
<path fill="none" stroke="#9a32cd" stroke-dasharray="5,2" d="M784.15,-790.46C829.8,-798.98 902.1,-805.97 958,-781 1192.76,-676.14 1310.91,-348.91 1342.89,-246.18"/>
<polygon fill="#9a32cd" stroke="#9a32cd" points="784.75,-787.01 774.26,-788.51 783.4,-793.88 784.75,-787.01"/>
<text text-anchor="middle" x="1049" y="-801.6" font-family="Helvetica,sans-Serif" font-size="8.00"> S_GRACEFUL_FINISH_REQUIRED</text>
<text text-anchor="middle" x="1049" y="-792.6" font-family="Helvetica,sans-Serif" font-size="8.00">S_MQS_ENABLED</text>
<text text-anchor="middle" x="1049" y="-783.6" font-family="Helvetica,sans-Serif" font-size="8.00">S_SHM_ENABLED</text>
<text text-anchor="middle" x="1049" y="-774.6" font-family="Helvetica,sans-Serif" font-size="8.00">S_SOCKET_STREAM_ENABLED</text>
</g>
<!-- Node4&#45;&gt;Node2 -->
<g id="edge3" class="edge">
<title>Node4&#45;&gt;Node2</title>
<path fill="none" stroke="#9a32cd" stroke-dasharray="5,2" d="M797.91,-769.7C861.94,-758.27 956.39,-741.24 958,-740 1013.63,-697.19 1036.39,-611.55 1044.33,-571.11"/>
<polygon fill="#9a32cd" stroke="#9a32cd" points="797.14,-766.28 787.91,-771.49 798.37,-773.18 797.14,-766.28"/>
<text text-anchor="middle" x="897.5" y="-772.6" font-family="Helvetica,sans-Serif" font-size="8.00"> S_MQS_ENABLED</text>
<text text-anchor="middle" x="897.5" y="-763.6" font-family="Helvetica,sans-Serif" font-size="8.00">S_SOCKET_STREAM_ENABLED</text>
</g>
<!-- Node5 -->
<g id="node5" class="node">
<title>Node5</title>
<g id="a_node5"><a xlink:href="structipc_1_1session_1_1Server__app.html" target="_top" xlink:title="An App that is used as a server in at least one client&#45;server IPC split.">
<polygon fill="white" stroke="black" points="429,-652.5 429,-669.5 547,-669.5 547,-652.5 429,-652.5"/>
<text text-anchor="middle" x="488" y="-659.1" font-family="Helvetica,sans-Serif" font-size="8.00">ipc::session::Server_app</text>
</a>
</g>
</g>
<!-- Node5&#45;&gt;Node2 -->
<g id="edge4" class="edge">
<title>Node5&#45;&gt;Node2</title>
<path fill="none" stroke="#9a32cd" stroke-dasharray="5,2" d="M517.81,-673.5C595.42,-705.1 812.83,-779.71 958,-693 1004.06,-665.49 1030.12,-604.31 1041.33,-571.24"/>
<polygon fill="#9a32cd" stroke="#9a32cd" points="518.8,-670.12 508.22,-669.52 516.11,-676.59 518.8,-670.12"/>
<text text-anchor="middle" x="739" y="-735.6" font-family="Helvetica,sans-Serif" font-size="8.00"> m_srv_app_ref</text>
</g>
<!-- Node6 -->
<g id="node6" class="node">
<title>Node6</title>
<g id="a_node6"><a xlink:href="structipc_1_1session_1_1App.html" target="_top" xlink:title="A description of an application in this ipc::session inter&#45;process communication universe.">
<polygon fill="white" stroke="black" points="197,-611.5 197,-628.5 285,-628.5 285,-611.5 197,-611.5"/>
<text text-anchor="middle" x="241" y="-618.1" font-family="Helvetica,sans-Serif" font-size="8.00">ipc::session::App</text>
</a>
</g>
</g>
<!-- Node6&#45;&gt;Node5 -->
<g id="edge5" class="edge">
<title>Node6&#45;&gt;Node5</title>
<path fill="none" stroke="midnightblue" d="M295.24,-628.91C337.07,-635.91 394.95,-645.6 436.15,-652.49"/>
<polygon fill="midnightblue" stroke="midnightblue" points="295.68,-625.43 285.24,-627.24 294.52,-632.34 295.68,-625.43"/>
</g>
<!-- Node17 -->
<g id="node16" class="node">
<title>Node17</title>
<g id="a_node16"><a xlink:href="structipc_1_1session_1_1Client__app.html" target="_top" xlink:title="An App that is used as a client in at least one client&#45;server IPC split.">
<polygon fill="white" stroke="black" points="430.5,-594.5 430.5,-611.5 545.5,-611.5 545.5,-594.5 430.5,-594.5"/>
<text text-anchor="middle" x="488" y="-601.1" font-family="Helvetica,sans-Serif" font-size="8.00">ipc::session::Client_app</text>
</a>
</g>
</g>
<!-- Node6&#45;&gt;Node17 -->
<g id="edge17" class="edge">
<title>Node6&#45;&gt;Node17</title>
<path fill="none" stroke="midnightblue" d="M295.31,-616.3C335.21,-613.53 389.7,-609.75 430.38,-606.93"/>
<polygon fill="midnightblue" stroke="midnightblue" points="294.97,-612.82 285.24,-617 295.46,-619.8 294.97,-612.82"/>
</g>
<!-- Node7 -->
<g id="node7" class="node">
<title>Node7</title>
<g id="a_node7"><a xlink:title=" ">
<polygon fill="white" stroke="red" points="12.5,-447.5 12.5,-464.5 71.5,-464.5 71.5,-447.5 12.5,-447.5"/>
<text text-anchor="middle" x="42" y="-454.1" font-family="Helvetica,sans-Serif" font-size="8.00">std::string</text>
</a>
</g>
</g>
<!-- Node7&#45;&gt;Node6 -->
<g id="edge6" class="edge">
<title>Node7&#45;&gt;Node6</title>
<path fill="none" stroke="#9a32cd" stroke-dasharray="5,2" d="M57.72,-472.48C82.41,-499.49 134.52,-553.88 186,-591 197.05,-598.97 210.55,-606.22 221.29,-611.47"/>
<polygon fill="#9a32cd" stroke="#9a32cd" points="60.01,-469.8 50.71,-464.73 54.82,-474.49 60.01,-469.8"/>
<text text-anchor="middle" x="135" y="-576.6" font-family="Helvetica,sans-Serif" font-size="8.00"> m_name</text>
</g>
<!-- Node18 -->
<g id="node17" class="node">
<title>Node18</title>
<g id="a_node17"><a xlink:href="classipc_1_1util_1_1Shared__name.html" target="_top" xlink:title="String&#45;wrapping abstraction representing a name uniquely distinguishing a kernel&#45;persistent entity fr...">
<polygon fill="white" stroke="black" points="186,-320.5 186,-337.5 296,-337.5 296,-320.5 186,-320.5"/>
<text text-anchor="middle" x="241" y="-327.1" font-family="Helvetica,sans-Serif" font-size="8.00">ipc::util::Shared_name</text>
</a>
</g>
</g>
<!-- Node7&#45;&gt;Node18 -->
<g id="edge22" class="edge">
<title>Node7&#45;&gt;Node18</title>
<path fill="none" stroke="#9a32cd" stroke-dasharray="5,2" d="M64.67,-442.03C105.58,-415.66 193.06,-359.26 226.57,-337.66"/>
<polygon fill="#9a32cd" stroke="#9a32cd" points="62.74,-439.11 56.23,-447.47 66.53,-444.99 62.74,-439.11"/>
<text text-anchor="middle" x="135" y="-416.6" font-family="Helvetica,sans-Serif" font-size="8.00"> m_raw_name</text>
</g>
<!-- Node27 -->
<g id="node26" class="node">
<title>Node27</title>
<g id="a_node26"><a xlink:href="classipc_1_1transport_1_1Protocol__negotiator.html" target="_top" xlink:title="A simple state machine that, assuming the opposide side of a comm pathway uses an equivalent state ma...">
<polygon fill="white" stroke="black" points="993.5,-279 993.5,-305 1104.5,-305 1104.5,-279 993.5,-279"/>
<text text-anchor="start" x="1001.5" y="-294.6" font-family="Helvetica,sans-Serif" font-size="8.00">ipc::transport::Protocol</text>
<text text-anchor="middle" x="1049" y="-285.6" font-family="Helvetica,sans-Serif" font-size="8.00">_negotiator</text>
</a>
</g>
</g>
<!-- Node7&#45;&gt;Node27 -->
<g id="edge33" class="edge">
<title>Node7&#45;&gt;Node27</title>
<path fill="none" stroke="#9a32cd" stroke-dasharray="5,2" d="M81.53,-454.21C131.22,-451.64 220.27,-446.19 296,-437 458.4,-417.3 497.61,-402.78 659,-376 791.84,-353.95 828.1,-362.49 958,-327 978.86,-321.3 1001.55,-312.46 1018.93,-305.09"/>
<polygon fill="#9a32cd" stroke="#9a32cd" points="81.35,-450.71 71.54,-454.71 81.7,-457.7 81.35,-450.71"/>
<text text-anchor="middle" x="488" y="-419.6" font-family="Helvetica,sans-Serif" font-size="8.00"> m_nickname</text>
</g>
<!-- Node9 -->
<g id="node8" class="node">
<title>Node9</title>
<g id="a_node8"><a xlink:title=" ">
<polygon fill="white" stroke="#bfbfbf" points="24.5,-575.5 24.5,-592.5 59.5,-592.5 59.5,-575.5 24.5,-575.5"/>
<text text-anchor="middle" x="42" y="-582.1" font-family="Helvetica,sans-Serif" font-size="8.00">path</text>
</a>
</g>
</g>
<!-- Node9&#45;&gt;Node5 -->
<g id="edge11" class="edge">
<title>Node9&#45;&gt;Node5</title>
<path fill="none" stroke="#9a32cd" stroke-dasharray="5,2" d="M69.93,-580.82C116.49,-576.02 214.83,-569 296,-584 349.81,-593.94 360.33,-607.32 411,-628 430.58,-635.99 452.73,-645.69 468.05,-652.49"/>
<polygon fill="#9a32cd" stroke="#9a32cd" points="69.33,-577.36 59.77,-581.92 70.09,-584.32 69.33,-577.36"/>
<text text-anchor="start" x="198.5" y="-595.6" font-family="Helvetica,sans-Serif" font-size="8.00"> m_kernel_persistent</text>
<text text-anchor="middle" x="241" y="-586.6" font-family="Helvetica,sans-Serif" font-size="8.00">_run_dir_override</text>
</g>
<!-- Node9&#45;&gt;Node6 -->
<g id="edge7" class="edge">
<title>Node9&#45;&gt;Node6</title>
<path fill="none" stroke="#9a32cd" stroke-dasharray="5,2" d="M69.94,-588.92C102.61,-594.89 158.07,-605.03 196.75,-612.1"/>
<polygon fill="#9a32cd" stroke="#9a32cd" points="70.26,-585.42 59.8,-587.07 69,-592.31 70.26,-585.42"/>
<text text-anchor="middle" x="135" y="-608.6" font-family="Helvetica,sans-Serif" font-size="8.00"> m_exec_path</text>
</g>
<!-- Node10 -->
<g id="node9" class="node">
<title>Node10</title>
<g id="a_node9"><a xlink:title=" ">
<polygon fill="white" stroke="#bfbfbf" points="24,-661.5 24,-678.5 60,-678.5 60,-661.5 24,-661.5"/>
<text text-anchor="middle" x="42" y="-668.1" font-family="Helvetica,sans-Serif" font-size="8.00">uid_t</text>
</a>
</g>
</g>
<!-- Node10&#45;&gt;Node6 -->
<g id="edge8" class="edge">
<title>Node10&#45;&gt;Node6</title>
<path fill="none" stroke="#9a32cd" stroke-dasharray="5,2" d="M70.09,-664.55C95.5,-659.3 134.51,-650.85 168,-642 183.29,-637.96 200.21,-632.82 213.81,-628.53"/>
<polygon fill="#9a32cd" stroke="#9a32cd" points="69.18,-661.17 60.08,-666.6 70.58,-668.03 69.18,-661.17"/>
<text text-anchor="middle" x="135" y="-659.6" font-family="Helvetica,sans-Serif" font-size="8.00"> m_user_id</text>
</g>
<!-- Node11 -->
<g id="node10" class="node">
<title>Node11</title>
<g id="a_node10"><a xlink:title=" ">
<polygon fill="white" stroke="#bfbfbf" points="24,-625.5 24,-642.5 60,-642.5 60,-625.5 24,-625.5"/>
<text text-anchor="middle" x="42" y="-632.1" font-family="Helvetica,sans-Serif" font-size="8.00">gid_t</text>
</a>
</g>
</g>
<!-- Node11&#45;&gt;Node6 -->
<g id="edge9" class="edge">
<title>Node11&#45;&gt;Node6</title>
<path fill="none" stroke="#9a32cd" stroke-dasharray="5,2" d="M70.33,-632.06C103.09,-629.73 158.4,-625.8 196.93,-623.06"/>
<polygon fill="#9a32cd" stroke="#9a32cd" points="69.86,-628.58 60.14,-632.78 70.36,-635.56 69.86,-628.58"/>
<text text-anchor="middle" x="135" y="-631.6" font-family="Helvetica,sans-Serif" font-size="8.00"> m_group_id</text>
</g>
<!-- Node12 -->
<g id="node11" class="node">
<title>Node12</title>
<g id="a_node11"><a xlink:title=" ">
<polygon fill="white" stroke="#bfbfbf" points="192,-689 192,-715 290,-715 290,-689 192,-689"/>
<text text-anchor="start" x="200" y="-704.6" font-family="Helvetica,sans-Serif" font-size="8.00">unordered_set&lt; std</text>
<text text-anchor="middle" x="241" y="-695.6" font-family="Helvetica,sans-Serif" font-size="8.00">::string &gt;</text>
</a>
</g>
</g>
<!-- Node12&#45;&gt;Node5 -->
<g id="edge10" class="edge">
<title>Node12&#45;&gt;Node5</title>
<path fill="none" stroke="#9a32cd" stroke-dasharray="5,2" d="M300.59,-696.06C333.24,-692.33 374.54,-686.91 411,-680 425.97,-677.16 442.38,-673.17 456.12,-669.58"/>
<polygon fill="#9a32cd" stroke="#9a32cd" points="299.86,-692.62 290.31,-697.21 300.64,-699.58 299.86,-692.62"/>
<text text-anchor="middle" x="362.5" y="-696.6" font-family="Helvetica,sans-Serif" font-size="8.00"> m_allowed_client_apps</text>
</g>
<!-- Node13 -->
<g id="node12" class="node">
<title>Node13</title>
<g id="a_node12"><a xlink:title=" ">
<polygon fill="white" stroke="#bfbfbf" points="196.5,-652.5 196.5,-669.5 285.5,-669.5 285.5,-652.5 196.5,-652.5"/>
<text text-anchor="middle" x="241" y="-659.1" font-family="Helvetica,sans-Serif" font-size="8.00">Permissions_level</text>
</a>
</g>
</g>
<!-- Node13&#45;&gt;Node5 -->
<g id="edge12" class="edge">
<title>Node13&#45;&gt;Node5</title>
<path fill="none" stroke="#9a32cd" stroke-dasharray="5,2" d="M295.71,-661C335.03,-661 388.34,-661 428.7,-661"/>
<polygon fill="#9a32cd" stroke="#9a32cd" points="295.52,-657.5 285.52,-661 295.52,-664.5 295.52,-657.5"/>
<text text-anchor="start" x="319" y="-672.6" font-family="Helvetica,sans-Serif" font-size="8.00"> m_permissions_level</text>
<text text-anchor="middle" x="362.5" y="-663.6" font-family="Helvetica,sans-Serif" font-size="8.00">_for_client_apps</text>
</g>
<!-- Node14 -->
<g id="node13" class="node">
<title>Node14</title>
<g id="a_node13"><a xlink:title=" ">
<polygon fill="white" stroke="#bfbfbf" points="703.5,-675.5 703.5,-692.5 774.5,-692.5 774.5,-675.5 703.5,-675.5"/>
<text text-anchor="middle" x="739" y="-682.1" font-family="Helvetica,sans-Serif" font-size="8.00">Fine_duration</text>
</a>
</g>
</g>
<!-- Node14&#45;&gt;Node2 -->
<g id="edge13" class="edge">
<title>Node14&#45;&gt;Node2</title>
<path fill="none" stroke="#9a32cd" stroke-dasharray="5,2" d="M784.98,-684.7C831.09,-683.58 903.56,-676.6 958,-647 991.08,-629.01 1018.52,-594.2 1034.09,-571.28"/>
<polygon fill="#9a32cd" stroke="#9a32cd" points="784.65,-681.21 774.71,-684.86 784.76,-688.21 784.65,-681.21"/>
<text text-anchor="middle" x="897.5" y="-682.6" font-family="Helvetica,sans-Serif" font-size="8.00"> S_OPEN_CHANNEL_TIMEOUT</text>
</g>
<!-- Node15 -->
<g id="node14" class="node">
<title>Node15</title>
<g id="a_node14"><a xlink:title=" ">
<polygon fill="white" stroke="#bfbfbf" points="685.5,-639.5 685.5,-656.5 792.5,-656.5 792.5,-639.5 685.5,-639.5"/>
<text text-anchor="middle" x="739" y="-646.1" font-family="Helvetica,sans-Serif" font-size="8.00">static constexpr size_t</text>
</a>
</g>
</g>
<!-- Node15&#45;&gt;Node2 -->
<g id="edge14" class="edge">
<title>Node15&#45;&gt;Node2</title>
<path fill="none" stroke="#9a32cd" stroke-dasharray="5,2" d="M802.59,-640.78C847.05,-634.29 907.57,-622.68 958,-603 978.71,-594.92 1000.12,-582.28 1016.86,-571.26"/>
<polygon fill="#9a32cd" stroke="#9a32cd" points="801.91,-637.34 792.5,-642.2 802.89,-644.27 801.91,-637.34"/>
<text text-anchor="middle" x="897.5" y="-636.6" font-family="Helvetica,sans-Serif" font-size="8.00"> S_MQS_MAX_MSG_SZ</text>
</g>
<!-- Node16 -->
<g id="node15" class="node">
<title>Node16</title>
<g id="a_node15"><a xlink:title=" ">
<polygon fill="white" stroke="black" points="690,-585.5 690,-620.5 788,-620.5 788,-585.5 690,-585.5"/>
<text text-anchor="start" x="698" y="-610.1" font-family="Helvetica,sans-Serif" font-size="8.00">std::atomic&lt; const</text>
<text text-anchor="start" x="698" y="-601.1" font-family="Helvetica,sans-Serif" font-size="8.00"> ipc::session::Client</text>
<text text-anchor="middle" x="739" y="-592.1" font-family="Helvetica,sans-Serif" font-size="8.00">_app * &gt;</text>
</a>
</g>
</g>
<!-- Node16&#45;&gt;Node2 -->
<g id="edge15" class="edge">
<title>Node16&#45;&gt;Node2</title>
<path fill="none" stroke="#9a32cd" stroke-dasharray="5,2" d="M798.24,-595.96C842.29,-590.28 904.19,-581.5 958,-571 963.84,-569.86 969.87,-568.59 975.92,-567.25"/>
<polygon fill="#9a32cd" stroke="#9a32cd" points="797.75,-592.5 788.28,-597.24 798.64,-599.44 797.75,-592.5"/>
<text text-anchor="middle" x="897.5" y="-592.6" font-family="Helvetica,sans-Serif" font-size="8.00"> m_cli_app_ptr</text>
</g>
<!-- Node17&#45;&gt;Node16 -->
<g id="edge16" class="edge">
<title>Node17&#45;&gt;Node16</title>
<path fill="none" stroke="#9a32cd" stroke-dasharray="5,2" d="M555.7,-603C597.93,-603 651.56,-603 689.69,-603"/>
<polygon fill="#9a32cd" stroke="#9a32cd" points="555.5,-599.5 545.5,-603 555.5,-606.5 555.5,-599.5"/>
<text text-anchor="middle" x="603" y="-605.6" font-family="Helvetica,sans-Serif" font-size="8.00"> ptr</text>
</g>
<!-- Node18&#45;&gt;Node2 -->
<g id="edge18" class="edge">
<title>Node18&#45;&gt;Node2</title>
<path fill="none" stroke="#9a32cd" stroke-dasharray="5,2" d="M270.34,-341.7C306.45,-357.36 371.13,-383.65 429,-398 659.67,-455.19 742.3,-376.24 958,-476 984.66,-488.33 1010.18,-510.34 1027.2,-526.98"/>
<polygon fill="#9a32cd" stroke="#9a32cd" points="271.51,-338.39 260.94,-337.59 268.7,-344.81 271.51,-338.39"/>
<text text-anchor="middle" x="603" y="-432.6" font-family="Helvetica,sans-Serif" font-size="8.00"> m_cli_namespace</text>
<text text-anchor="middle" x="603" y="-423.6" font-family="Helvetica,sans-Serif" font-size="8.00">m_srv_namespace</text>
</g>
<!-- Node18&#45;&gt;Node18 -->
<g id="edge19" class="edge">
<title>Node18&#45;&gt;Node18</title>
<path fill="none" stroke="#9a32cd" stroke-dasharray="5,2" d="M221.19,-346.86C221.93,-352.02 228.53,-356 241,-356 260.46,-356 265.63,-346.29 256.51,-337.57"/>
<polygon fill="#9a32cd" stroke="#9a32cd" points="224.47,-348.12 225.49,-337.57 218.12,-345.18 224.47,-348.12"/>
<text text-anchor="middle" x="241" y="-421.6" font-family="Helvetica,sans-Serif" font-size="8.00"> S_1ST_OR_ONLY</text>
<text text-anchor="middle" x="241" y="-412.6" font-family="Helvetica,sans-Serif" font-size="8.00">S_EMPTY</text>
<text text-anchor="start" x="202.5" y="-403.6" font-family="Helvetica,sans-Serif" font-size="8.00">S_RESOURCE_TYPE</text>
<text text-anchor="middle" x="241" y="-394.6" font-family="Helvetica,sans-Serif" font-size="8.00">_ID_MUTEX</text>
<text text-anchor="start" x="202.5" y="-385.6" font-family="Helvetica,sans-Serif" font-size="8.00">S_RESOURCE_TYPE</text>
<text text-anchor="middle" x="241" y="-376.6" font-family="Helvetica,sans-Serif" font-size="8.00">_ID_SHM</text>
<text text-anchor="middle" x="241" y="-367.6" font-family="Helvetica,sans-Serif" font-size="8.00">S_ROOT_MAGIC</text>
<text text-anchor="middle" x="241" y="-358.6" font-family="Helvetica,sans-Serif" font-size="8.00">S_SENTINEL</text>
</g>
<!-- Node19 -->
<g id="node18" class="node">
<title>Node19</title>
<g id="a_node18"><a xlink:title=" ">
<polygon fill="white" stroke="#bfbfbf" points="22,-338.5 22,-355.5 62,-355.5 62,-338.5 22,-338.5"/>
<text text-anchor="middle" x="42" y="-345.1" font-family="Helvetica,sans-Serif" font-size="8.00">size_t</text>
</a>
</g>
</g>
<!-- Node19&#45;&gt;Node18 -->
<g id="edge20" class="edge">
<title>Node19&#45;&gt;Node18</title>
<path fill="none" stroke="#9a32cd" stroke-dasharray="5,2" d="M72.43,-344.31C102.3,-341.58 149.22,-337.29 185.83,-333.95"/>
<polygon fill="#9a32cd" stroke="#9a32cd" points="71.89,-340.85 62.25,-345.24 72.52,-347.82 71.89,-340.85"/>
<text text-anchor="middle" x="135" y="-343.6" font-family="Helvetica,sans-Serif" font-size="8.00"> S_MAX_LENGTH</text>
</g>
<!-- Node20 -->
<g id="node19" class="node">
<title>Node20</title>
<g id="a_node19"><a xlink:title=" ">
<polygon fill="white" stroke="#bfbfbf" points="0,-302.5 0,-319.5 84,-319.5 84,-302.5 0,-302.5"/>
<text text-anchor="middle" x="42" y="-309.1" font-family="Helvetica,sans-Serif" font-size="8.00">static const char</text>
</a>
</g>
</g>
<!-- Node20&#45;&gt;Node18 -->
<g id="edge21" class="edge">
<title>Node20&#45;&gt;Node18</title>
<path fill="none" stroke="#9a32cd" stroke-dasharray="5,2" d="M94.18,-315.4C116.81,-317.37 143.73,-319.75 168,-322 173.75,-322.53 179.76,-323.1 185.75,-323.67"/>
<polygon fill="#9a32cd" stroke="#9a32cd" points="94.37,-311.9 84.11,-314.52 93.77,-318.87 94.37,-311.9"/>
<text text-anchor="middle" x="135" y="-324.6" font-family="Helvetica,sans-Serif" font-size="8.00"> S_SEPARATOR</text>
</g>
<!-- Node21 -->
<g id="node20" class="node">
<title>Node21</title>
<g id="a_node20"><a xlink:title=" ">
<polygon fill="white" stroke="#bfbfbf" points="703.5,-385.5 703.5,-402.5 774.5,-402.5 774.5,-385.5 703.5,-385.5"/>
<text text-anchor="middle" x="739" y="-392.1" font-family="Helvetica,sans-Serif" font-size="8.00">Task_asio_err</text>
</a>
</g>
</g>
<!-- Node21&#45;&gt;Node1 -->
<g id="edge36" class="edge">
<title>Node21&#45;&gt;Node1</title>
<path fill="none" stroke="#9a32cd" stroke-dasharray="5,2" d="M784.64,-393.68C876.67,-391.35 1092.19,-377.22 1251,-299 1277.8,-285.8 1303.62,-264.11 1322.45,-246.08"/>
<polygon fill="#9a32cd" stroke="#9a32cd" points="784.48,-390.18 774.56,-393.9 784.63,-397.18 784.48,-390.18"/>
<text text-anchor="start" x="1001.5" y="-387.6" font-family="Helvetica,sans-Serif" font-size="8.00"> m_conn_on_done_func</text>
<text text-anchor="middle" x="1049" y="-378.6" font-family="Helvetica,sans-Serif" font-size="8.00">_or_empty</text>
</g>
<!-- Node21&#45;&gt;Node2 -->
<g id="edge23" class="edge">
<title>Node21&#45;&gt;Node2</title>
<path fill="none" stroke="#9a32cd" stroke-dasharray="5,2" d="M785.12,-393.4C840.27,-393.43 929.78,-396.22 958,-413 1001.68,-438.98 1028.35,-495.39 1040.39,-526.78"/>
<polygon fill="#9a32cd" stroke="#9a32cd" points="784.9,-389.9 774.9,-393.42 784.91,-396.9 784.9,-389.9"/>
<text text-anchor="middle" x="897.5" y="-415.6" font-family="Helvetica,sans-Serif" font-size="8.00"> m_on_err_func</text>
</g>
<!-- Node22 -->
<g id="node21" class="node">
<title>Node22</title>
<g id="a_node21"><a xlink:title=" ">
<polygon fill="white" stroke="#bfbfbf" points="659,-531.5 659,-566.5 819,-566.5 819,-531.5 659,-531.5"/>
<text text-anchor="start" x="667" y="-556.1" font-family="Helvetica,sans-Serif" font-size="8.00">Function&lt; void(Channel</text>
<text text-anchor="start" x="667" y="-547.1" font-family="Helvetica,sans-Serif" font-size="8.00">_obj &amp;&amp;new_channel, Mdt</text>
<text text-anchor="middle" x="739" y="-538.1" font-family="Helvetica,sans-Serif" font-size="8.00">_reader_ptr &amp;&amp;new_channel_mdt)&gt;</text>
</a>
</g>
</g>
<!-- Node22&#45;&gt;Node2 -->
<g id="edge24" class="edge">
<title>Node22&#45;&gt;Node2</title>
<path fill="none" stroke="#9a32cd" stroke-dasharray="5,2" d="M829.4,-549C875.93,-549 932.07,-549 975.8,-549"/>
<polygon fill="#9a32cd" stroke="#9a32cd" points="829.32,-545.5 819.32,-549 829.32,-552.5 829.32,-545.5"/>
<text text-anchor="start" x="837" y="-560.6" font-family="Helvetica,sans-Serif" font-size="8.00"> m_on_passive_open_channel</text>
<text text-anchor="middle" x="897.5" y="-551.6" font-family="Helvetica,sans-Serif" font-size="8.00">_func_or_empty</text>
</g>
<!-- Node23 -->
<g id="node22" class="node">
<title>Node23</title>
<g id="a_node22"><a xlink:title=" ">
<polygon fill="white" stroke="#bfbfbf" points="709,-495.5 709,-512.5 769,-512.5 769,-495.5 709,-495.5"/>
<text text-anchor="middle" x="739" y="-502.1" font-family="Helvetica,sans-Serif" font-size="8.00">Error_code</text>
</a>
</g>
</g>
<!-- Node23&#45;&gt;Node2 -->
<g id="edge25" class="edge">
<title>Node23&#45;&gt;Node2</title>
<path fill="none" stroke="#9a32cd" stroke-dasharray="5,2" d="M779.31,-506.55C823.14,-509.76 896,-516.2 958,-527 963.86,-528.02 969.91,-529.21 975.97,-530.49"/>
<polygon fill="#9a32cd" stroke="#9a32cd" points="779.31,-503.04 769.09,-505.82 778.81,-510.02 779.31,-503.04"/>
<text text-anchor="start" x="849" y="-538.6" font-family="Helvetica,sans-Serif" font-size="8.00"> m_peer_state_err_code</text>
<text text-anchor="middle" x="897.5" y="-529.6" font-family="Helvetica,sans-Serif" font-size="8.00">_or_ok</text>
</g>
<!-- Node24 -->
<g id="node23" class="node">
<title>Node24</title>
<g id="a_node23"><a xlink:title=" ">
<polygon fill="white" stroke="#bfbfbf" points="685.5,-180.5 685.5,-197.5 792.5,-197.5 792.5,-180.5 685.5,-180.5"/>
<text text-anchor="middle" x="739" y="-187.1" font-family="Helvetica,sans-Serif" font-size="8.00">flow::log::Log_context</text>
</a>
</g>
</g>
<!-- Node24&#45;&gt;Node1 -->
<g id="edge26" class="edge">
<title>Node24&#45;&gt;Node1</title>
<path fill="none" stroke="midnightblue" d="M803.02,-189.59C846.56,-190.06 905.8,-190.85 958,-192 1030.9,-193.61 1049.18,-193.04 1122,-197 1170.69,-199.65 1225.09,-203.85 1268.76,-207.52"/>
<polygon fill="midnightblue" stroke="midnightblue" points="802.9,-186.09 792.87,-189.48 802.83,-193.09 802.9,-186.09"/>
</g>
<!-- Node24&#45;&gt;Node27 -->
<g id="edge31" class="edge">
<title>Node24&#45;&gt;Node27</title>
<path fill="none" stroke="midnightblue" d="M802.82,-192.28C858.54,-196.38 934.61,-205.29 958,-224 974.82,-237.46 960.24,-254.32 976,-269 980.99,-273.65 986.93,-277.36 993.22,-280.32"/>
<polygon fill="midnightblue" stroke="midnightblue" points="802.9,-188.77 792.68,-191.57 802.41,-195.76 802.9,-188.77"/>
</g>
<!-- Node25 -->
<g id="node24" class="node">
<title>Node25</title>
<g id="a_node24"><a xlink:title=" ">
<polygon fill="white" stroke="#bfbfbf" points="1022.5,-242.5 1022.5,-259.5 1075.5,-259.5 1075.5,-242.5 1022.5,-242.5"/>
<text text-anchor="middle" x="1049" y="-249.1" font-family="Helvetica,sans-Serif" font-size="8.00">ShmType</text>
</a>
</g>
</g>
<!-- Node25&#45;&gt;Node1 -->
<g id="edge27" class="edge">
<title>Node25&#45;&gt;Node1</title>
<path fill="none" stroke="#9a32cd" stroke-dasharray="5,2" d="M1085.82,-247.05C1126.04,-242.59 1193.23,-235.02 1251,-228 1256.79,-227.3 1262.77,-226.56 1268.79,-225.8"/>
<polygon fill="#9a32cd" stroke="#9a32cd" points="1085.27,-243.59 1075.71,-248.17 1086.04,-250.55 1085.27,-243.59"/>
<text text-anchor="middle" x="1195.5" y="-242.6" font-family="Helvetica,sans-Serif" font-size="8.00"> S_SHM_TYPE</text>
</g>
<!-- Node26 -->
<g id="node25" class="node">
<title>Node26</title>
<g id="a_node25"><a xlink:title=" ">
<polygon fill="white" stroke="#bfbfbf" points="1030,-206.5 1030,-223.5 1068,-223.5 1068,-206.5 1030,-206.5"/>
<text text-anchor="middle" x="1049" y="-213.1" font-family="Helvetica,sans-Serif" font-size="8.00">State</text>
</a>
</g>
</g>
<!-- Node26&#45;&gt;Node1 -->
<g id="edge29" class="edge">
<title>Node26&#45;&gt;Node1</title>
<path fill="none" stroke="#9a32cd" stroke-dasharray="5,2" d="M1078.51,-215C1121.7,-215 1205.42,-215 1268.9,-215"/>
<polygon fill="#9a32cd" stroke="#9a32cd" points="1078.44,-211.5 1068.44,-215 1078.44,-218.5 1078.44,-211.5"/>
<text text-anchor="middle" x="1195.5" y="-217.6" font-family="Helvetica,sans-Serif" font-size="8.00"> m_state</text>
</g>
<!-- Node27&#45;&gt;Node1 -->
<g id="edge30" class="edge">
<title>Node27&#45;&gt;Node1</title>
<path fill="none" stroke="#9a32cd" stroke-dasharray="5,2" d="M1114.84,-282.27C1154.54,-275.61 1206.16,-265.69 1251,-253 1258.3,-250.93 1265.82,-248.57 1273.3,-246.06"/>
<polygon fill="#9a32cd" stroke="#9a32cd" points="1114.05,-278.85 1104.75,-283.93 1115.19,-285.76 1114.05,-278.85"/>
<text text-anchor="middle" x="1195.5" y="-288.6" font-family="Helvetica,sans-Serif" font-size="8.00"> m_protocol_negotiator</text>
<text text-anchor="middle" x="1195.5" y="-279.6" font-family="Helvetica,sans-Serif" font-size="8.00">m_protocol_negotiator_aux</text>
</g>
<!-- Node28 -->
<g id="node27" class="node">
<title>Node28</title>
<g id="a_node27"><a xlink:title=" ">
<polygon fill="white" stroke="#bfbfbf" points="686.5,-266 686.5,-292 791.5,-292 791.5,-266 686.5,-266"/>
<text text-anchor="start" x="694.5" y="-281.6" font-family="Helvetica,sans-Serif" font-size="8.00">static constexpr proto</text>
<text text-anchor="middle" x="739" y="-272.6" font-family="Helvetica,sans-Serif" font-size="8.00">_ver_t</text>
</a>
</g>
</g>
<!-- Node28&#45;&gt;Node27 -->
<g id="edge32" class="edge">
<title>Node28&#45;&gt;Node27</title>
<path fill="none" stroke="#9a32cd" stroke-dasharray="5,2" d="M801.72,-280.96C845.38,-282.41 905.29,-284.57 958,-287 969.41,-287.53 981.63,-288.16 993.28,-288.79"/>
<polygon fill="#9a32cd" stroke="#9a32cd" points="801.66,-277.45 791.55,-280.62 801.42,-284.45 801.66,-277.45"/>
<text text-anchor="middle" x="897.5" y="-298.6" font-family="Helvetica,sans-Serif" font-size="8.00"> S_VER_UNKNOWN</text>
<text text-anchor="middle" x="897.5" y="-289.6" font-family="Helvetica,sans-Serif" font-size="8.00">S_VER_UNSUPPORTED</text>
</g>
<!-- Node29 -->
<g id="node28" class="node">
<title>Node29</title>
<g id="a_node28"><a xlink:title=" ">
<polygon fill="white" stroke="#bfbfbf" points="717,-227.5 717,-244.5 761,-244.5 761,-227.5 717,-227.5"/>
<text text-anchor="middle" x="739" y="-234.1" font-family="Helvetica,sans-Serif" font-size="8.00">int16_t</text>
</a>
</g>
</g>
<!-- Node29&#45;&gt;Node27 -->
<g id="edge34" class="edge">
<title>Node29&#45;&gt;Node27</title>
<path fill="none" stroke="#9a32cd" stroke-dasharray="5,2" d="M771.04,-231.56C814.88,-226.72 896.43,-222.98 958,-251 968.3,-255.69 966.34,-263.11 976,-269 982.39,-272.89 989.5,-276.19 996.7,-278.97"/>
<polygon fill="#9a32cd" stroke="#9a32cd" points="770.51,-228.1 761,-232.77 771.35,-235.05 770.51,-228.1"/>
<text text-anchor="middle" x="897.5" y="-271.6" font-family="Helvetica,sans-Serif" font-size="8.00"> m_local_max_proto_ver</text>
<text text-anchor="middle" x="897.5" y="-262.6" font-family="Helvetica,sans-Serif" font-size="8.00">m_local_min_proto_ver</text>
<text text-anchor="middle" x="897.5" y="-253.6" font-family="Helvetica,sans-Serif" font-size="8.00">m_negotiated_proto_ver</text>
</g>
<!-- Node30 -->
<g id="node29" class="node">
<title>Node30</title>
<g id="a_node29"><a xlink:title=" ">
<polygon fill="white" stroke="#bfbfbf" points="721.5,-311.5 721.5,-328.5 756.5,-328.5 756.5,-311.5 721.5,-311.5"/>
<text text-anchor="middle" x="739" y="-318.1" font-family="Helvetica,sans-Serif" font-size="8.00">bool</text>
</a>
</g>
</g>
<!-- Node30&#45;&gt;Node27 -->
<g id="edge35" class="edge">
<title>Node30&#45;&gt;Node27</title>
<path fill="none" stroke="#9a32cd" stroke-dasharray="5,2" d="M766.76,-318.8C807.93,-316.82 889.26,-312.32 958,-305 969.46,-303.78 981.7,-302.2 993.35,-300.56"/>
<polygon fill="#9a32cd" stroke="#9a32cd" points="766.54,-315.31 756.72,-319.28 766.87,-322.3 766.54,-315.31"/>
<text text-anchor="middle" x="897.5" y="-316.6" font-family="Helvetica,sans-Serif" font-size="8.00"> m_local_max_proto_ver_sent</text>
</g>
<!-- Node31 -->
<g id="node30" class="node">
<title>Node31</title>
<g id="a_node30"><a xlink:title=" ">
<polygon fill="white" stroke="#bfbfbf" points="1015,-126.5 1015,-143.5 1083,-143.5 1083,-126.5 1015,-126.5"/>
<text text-anchor="middle" x="1049" y="-133.1" font-family="Helvetica,sans-Serif" font-size="8.00">unsigned int</text>
</a>
</g>
</g>
<!-- Node31&#45;&gt;Node1 -->
<g id="edge37" class="edge">
<title>Node31&#45;&gt;Node1</title>
<path fill="none" stroke="#9a32cd" stroke-dasharray="5,2" d="M1093.28,-125.8C1134.98,-118.88 1199.21,-113.45 1251,-132 1279.85,-142.33 1306.35,-164.85 1324.97,-183.83"/>
<polygon fill="#9a32cd" stroke="#9a32cd" points="1092.42,-122.39 1083.18,-127.57 1093.64,-129.29 1092.42,-122.39"/>
<text text-anchor="start" x="1143.5" y="-161.6" font-family="Helvetica,sans-Serif" font-size="8.00"> m_last_actively_opened</text>
<text text-anchor="middle" x="1195.5" y="-152.6" font-family="Helvetica,sans-Serif" font-size="8.00">_channel_id</text>
<text text-anchor="start" x="1143.5" y="-143.6" font-family="Helvetica,sans-Serif" font-size="8.00">m_last_passively_opened</text>
<text text-anchor="middle" x="1195.5" y="-134.6" font-family="Helvetica,sans-Serif" font-size="8.00">_channel_id</text>
</g>
<!-- Node32 -->
<g id="node31" class="node">
<title>Node32</title>
<g id="a_node31"><a xlink:title=" ">
<polygon fill="white" stroke="#bfbfbf" points="991,-90.5 991,-107.5 1107,-107.5 1107,-90.5 991,-90.5"/>
<text text-anchor="middle" x="1049" y="-97.1" font-family="Helvetica,sans-Serif" font-size="8.00">Single_thread_task_loop</text>
</a>
</g>
</g>
<!-- Node32&#45;&gt;Node1 -->
<g id="edge38" class="edge">
<title>Node32&#45;&gt;Node1</title>
<path fill="none" stroke="#9a32cd" stroke-dasharray="5,2" d="M1109.48,-89.44C1151,-85.47 1206.71,-85.73 1251,-106 1286.78,-122.37 1315.77,-157.92 1333.37,-183.98"/>
<polygon fill="#9a32cd" stroke="#9a32cd" points="1109.08,-85.96 1099.51,-90.49 1109.82,-92.92 1109.08,-85.96"/>
<text text-anchor="middle" x="1195.5" y="-108.6" font-family="Helvetica,sans-Serif" font-size="8.00"> m_async_worker</text>
</g>
<!-- Node33 -->
<g id="node32" class="node">
<title>Node33</title>
<g id="a_node32"><a xlink:title=" ">
<polygon fill="white" stroke="#bfbfbf" points="978,-54.5 978,-71.5 1120,-71.5 1120,-54.5 978,-54.5"/>
<text text-anchor="middle" x="1049" y="-61.1" font-family="Helvetica,sans-Serif" font-size="8.00">Master_structured_channel_ptr</text>
</a>
</g>
</g>
<!-- Node33&#45;&gt;Node1 -->
<g id="edge39" class="edge">
<title>Node33&#45;&gt;Node1</title>
<path fill="none" stroke="#9a32cd" stroke-dasharray="5,2" d="M1108.37,-53.38C1150.56,-49.35 1207.55,-50.16 1251,-74 1294.82,-98.05 1324.28,-150.2 1339.58,-183.89"/>
<polygon fill="#9a32cd" stroke="#9a32cd" points="1107.82,-49.92 1098.25,-54.47 1108.56,-56.88 1107.82,-49.92"/>
<text text-anchor="middle" x="1195.5" y="-76.6" font-family="Helvetica,sans-Serif" font-size="8.00"> m_master_channel</text>
</g>
<!-- Node34 -->
<g id="node33" class="node">
<title>Node34</title>
<g id="a_node33"><a xlink:title=" ">
<polygon fill="white" stroke="#bfbfbf" points="986.5,-0.5 986.5,-35.5 1111.5,-35.5 1111.5,-0.5 986.5,-0.5"/>
<text text-anchor="start" x="994.5" y="-25.1" font-family="Helvetica,sans-Serif" font-size="8.00">optional&lt; typename</text>
<text text-anchor="start" x="994.5" y="-16.1" font-family="Helvetica,sans-Serif" font-size="8.00"> ipc::session::Session</text>
<text text-anchor="middle" x="1049" y="-7.1" font-family="Helvetica,sans-Serif" font-size="8.00">_base::Graceful_finisher &gt;</text>
</a>
</g>
</g>
<!-- Node34&#45;&gt;Node1 -->
<g id="edge40" class="edge">
<title>Node34&#45;&gt;Node1</title>
<path fill="none" stroke="#9a32cd" stroke-dasharray="5,2" d="M1122.13,-9.67C1162.99,-8.55 1213.31,-13.53 1251,-38 1303.23,-71.9 1331.38,-142.85 1343.88,-183.88"/>
<polygon fill="#9a32cd" stroke="#9a32cd" points="1121.81,-6.18 1111.96,-10.08 1122.09,-13.18 1121.81,-6.18"/>
<text text-anchor="middle" x="1195.5" y="-40.6" font-family="Helvetica,sans-Serif" font-size="8.00"> m_graceful_finisher</text>
</g>
</g>
</svg>
