<?xml version="1.0" encoding="UTF-8" standalone="no"?>
<!DOCTYPE svg PUBLIC "-//W3C//DTD SVG 1.1//EN"
 "http://www.w3.org/Graphics/SVG/1.1/DTD/svg11.dtd">
<!-- Generated by graphviz version 2.43.0 (0)
 -->
<!-- Title: ipc::transport::struc::sync_io::Channel::rcv_struct_new_internal_msg_in Pages: 1 -->
<svg width="298pt" height="98pt"
 viewBox="0.00 0.00 298.00 98.00" xmlns="http://www.w3.org/2000/svg" xmlns:xlink="http://www.w3.org/1999/xlink">
<g id="graph0" class="graph" transform="scale(1 1) rotate(0) translate(4 94)">
<title>ipc::transport::struc::sync_io::Channel::rcv_struct_new_internal_msg_in</title>
<polygon fill="white" stroke="transparent" points="-4,4 -4,-94 294,-94 294,4 -4,4"/>
<!-- Node1 -->
<g id="node1" class="node">
<title>Node1</title>
<g id="a_node1"><a xlink:title="Helper from rcv_struct_new_msg_in(): the case where the in&#45;message has a sentinel message ID value,...">
<polygon fill="#bfbfbf" stroke="black" points="0,-27.5 0,-62.5 132,-62.5 132,-27.5 0,-27.5"/>
<text text-anchor="start" x="8" y="-52.1" font-family="Helvetica,sans-Serif" font-size="8.00">ipc::transport::struc</text>
<text text-anchor="start" x="8" y="-43.1" font-family="Helvetica,sans-Serif" font-size="8.00">::sync_io::Channel::rcv</text>
<text text-anchor="middle" x="66" y="-34.1" font-family="Helvetica,sans-Serif" font-size="8.00">_struct_new_internal_msg_in</text>
</a>
</g>
</g>
<!-- Node2 -->
<g id="node2" class="node">
<title>Node2</title>
<g id="a_node2"><a xlink:href="classipc_1_1transport_1_1struc_1_1Msg__in__impl.html#a1a57abfeb8dc53f43d20cd0a8bb7def7" target="_top" xlink:title="See super&#45;class.">
<polygon fill="white" stroke="black" points="174.5,-54.5 174.5,-89.5 283.5,-89.5 283.5,-54.5 174.5,-54.5"/>
<text text-anchor="start" x="182.5" y="-79.1" font-family="Helvetica,sans-Serif" font-size="8.00">ipc::transport::struc</text>
<text text-anchor="start" x="182.5" y="-70.1" font-family="Helvetica,sans-Serif" font-size="8.00">::Msg_in_impl::internal</text>
<text text-anchor="middle" x="229" y="-61.1" font-family="Helvetica,sans-Serif" font-size="8.00">_msg_body_root</text>
</a>
</g>
</g>
<!-- Node1&#45;&gt;Node2 -->
<g id="edge1" class="edge">
<title>Node1&#45;&gt;Node2</title>
<path fill="none" stroke="midnightblue" d="M132.02,-55.9C142.67,-57.69 153.69,-59.54 164.31,-61.32"/>
<polygon fill="midnightblue" stroke="midnightblue" points="163.89,-64.8 174.33,-63 165.05,-57.89 163.89,-64.8"/>
</g>
<!-- Node3 -->
<g id="node3" class="node">
<title>Node3</title>
<g id="a_node3"><a xlink:href="classipc_1_1transport_1_1struc_1_1Msg__in__impl.html#a0cca042534b3ebee0a90e2c6d7c1c7ca" target="_top" xlink:title="See super&#45;class.">
<polygon fill="white" stroke="black" points="168,-0.5 168,-35.5 290,-35.5 290,-0.5 168,-0.5"/>
<text text-anchor="start" x="176" y="-25.1" font-family="Helvetica,sans-Serif" font-size="8.00">ipc::transport::struc</text>
<text text-anchor="start" x="176" y="-16.1" font-family="Helvetica,sans-Serif" font-size="8.00">::Msg_in_impl::originating</text>
<text text-anchor="middle" x="229" y="-7.1" font-family="Helvetica,sans-Serif" font-size="8.00">_msg_id_or_none</text>
</a>
</g>
</g>
<!-- Node1&#45;&gt;Node3 -->
<g id="edge2" class="edge">
<title>Node1&#45;&gt;Node3</title>
<path fill="none" stroke="midnightblue" d="M132.02,-34.1C140.55,-32.67 149.32,-31.19 157.93,-29.75"/>
<polygon fill="midnightblue" stroke="midnightblue" points="158.66,-33.18 167.94,-28.07 157.5,-26.27 158.66,-33.18"/>
</g>
</g>
</svg>
