<?xml version="1.0" encoding="UTF-8" standalone="no"?>
<!DOCTYPE svg PUBLIC "-//W3C//DTD SVG 1.1//EN"
 "http://www.w3.org/Graphics/SVG/1.1/DTD/svg11.dtd">
<!-- Generated by graphviz version 2.43.0 (0)
 -->
<!-- Title: ipc::util::sync_io::Timer_event_emitter Pages: 1 -->
<svg width="573pt" height="252pt"
 viewBox="0.00 0.00 573.00 251.50" xmlns="http://www.w3.org/2000/svg" xmlns:xlink="http://www.w3.org/1999/xlink">
<g id="graph0" class="graph" transform="scale(1 1) rotate(0) translate(4 247.5)">
<title>ipc::util::sync_io::Timer_event_emitter</title>
<polygon fill="white" stroke="transparent" points="-4,4 -4,-247.5 569,-247.5 569,4 -4,4"/>
<!-- Node1 -->
<g id="node1" class="node">
<title>Node1</title>
<g id="a_node1"><a xlink:title="An object of this type, used internally to implement sync_io&#45;pattern objects that require timer event...">
<polygon fill="#bfbfbf" stroke="black" points="460,-131.5 460,-157.5 565,-157.5 565,-131.5 460,-131.5"/>
<text text-anchor="start" x="468" y="-147.1" font-family="Helvetica,sans-Serif" font-size="8.00">ipc::util::sync_io</text>
<text text-anchor="middle" x="512.5" y="-138.1" font-family="Helvetica,sans-Serif" font-size="8.00">::Timer_event_emitter</text>
</a>
</g>
</g>
<!-- Node2 -->
<g id="node2" class="node">
<title>Node2</title>
<g id="a_node2"><a xlink:title=" ">
<polygon fill="white" stroke="#bfbfbf" points="206,-226 206,-243 313,-243 313,-226 206,-226"/>
<text text-anchor="middle" x="259.5" y="-232.6" font-family="Helvetica,sans-Serif" font-size="8.00">flow::log::Log_context</text>
</a>
</g>
</g>
<!-- Node2&#45;&gt;Node1 -->
<g id="edge1" class="edge">
<title>Node2&#45;&gt;Node1</title>
<path fill="none" stroke="midnightblue" d="M323.66,-225.33C359.4,-218.74 404.35,-208.03 442,-191.5 461.87,-182.78 482.16,-168.29 495.64,-157.7"/>
<polygon fill="midnightblue" stroke="midnightblue" points="322.58,-221.97 313.35,-227.17 323.81,-228.86 322.58,-221.97"/>
</g>
<!-- Node3 -->
<g id="node3" class="node">
<title>Node3</title>
<g id="a_node3"><a xlink:title=" ">
<polygon fill="white" stroke="#bfbfbf" points="210,-190 210,-207 309,-207 309,-190 210,-190"/>
<text text-anchor="middle" x="259.5" y="-196.6" font-family="Helvetica,sans-Serif" font-size="8.00">boost::noncopyable</text>
</a>
</g>
</g>
<!-- Node3&#45;&gt;Node1 -->
<g id="edge2" class="edge">
<title>Node3&#45;&gt;Node1</title>
<path fill="none" stroke="#8b1a1a" d="M319.37,-191.33C355.15,-186.35 401.56,-178.75 442,-168.5 453.76,-165.52 466.36,-161.45 477.56,-157.5"/>
<polygon fill="#8b1a1a" stroke="#8b1a1a" points="318.54,-187.91 309.11,-192.73 319.49,-194.85 318.54,-187.91"/>
</g>
<!-- Node4 -->
<g id="node4" class="node">
<title>Node4</title>
<g id="a_node4"><a xlink:title=" ">
<polygon fill="white" stroke="black" points="230,-154 230,-171 289,-171 289,-154 230,-154"/>
<text text-anchor="middle" x="259.5" y="-160.6" font-family="Helvetica,sans-Serif" font-size="8.00">std::string</text>
</a>
</g>
</g>
<!-- Node4&#45;&gt;Node1 -->
<g id="edge3" class="edge">
<title>Node4&#45;&gt;Node1</title>
<path fill="none" stroke="#9a32cd" stroke-dasharray="5,2" d="M299.36,-159.71C342.37,-156.63 411.88,-151.64 459.54,-148.23"/>
<polygon fill="#9a32cd" stroke="#9a32cd" points="299.02,-156.23 289.29,-160.44 299.52,-163.21 299.02,-156.23"/>
<text text-anchor="middle" x="394" y="-158.1" font-family="Helvetica,sans-Serif" font-size="8.00"> m_nickname</text>
</g>
<!-- Node5 -->
<g id="node5" class="node">
<title>Node5</title>
<g id="a_node5"><a xlink:title=" ">
<polygon fill="white" stroke="black" points="11.5,-149.5 11.5,-175.5 102.5,-175.5 102.5,-149.5 11.5,-149.5"/>
<text text-anchor="start" x="19.5" y="-165.1" font-family="Helvetica,sans-Serif" font-size="8.00">std::basic_string&lt;</text>
<text text-anchor="middle" x="57" y="-156.1" font-family="Helvetica,sans-Serif" font-size="8.00"> Char &gt;</text>
</a>
</g>
</g>
<!-- Node5&#45;&gt;Node4 -->
<g id="edge4" class="edge">
<title>Node5&#45;&gt;Node4</title>
<path fill="none" stroke="midnightblue" d="M113.11,-162.5C150.96,-162.5 199.66,-162.5 229.98,-162.5"/>
<polygon fill="midnightblue" stroke="midnightblue" points="112.75,-159 102.75,-162.5 112.75,-166 112.75,-159"/>
</g>
<!-- Node6 -->
<g id="node6" class="node">
<title>Node6</title>
<g id="a_node6"><a xlink:title=" ">
<polygon fill="white" stroke="#bfbfbf" points="201.5,-118 201.5,-135 317.5,-135 317.5,-118 201.5,-118"/>
<text text-anchor="middle" x="259.5" y="-124.6" font-family="Helvetica,sans-Serif" font-size="8.00">Single_thread_task_loop</text>
</a>
</g>
</g>
<!-- Node6&#45;&gt;Node1 -->
<g id="edge5" class="edge">
<title>Node6&#45;&gt;Node1</title>
<path fill="none" stroke="#9a32cd" stroke-dasharray="5,2" d="M328.12,-129.27C362.29,-130.91 404.38,-133.3 442,-136.5 447.81,-136.99 453.88,-137.58 459.92,-138.22"/>
<polygon fill="#9a32cd" stroke="#9a32cd" points="327.94,-125.75 317.78,-128.78 327.61,-132.75 327.94,-125.75"/>
<text text-anchor="middle" x="394" y="-139.1" font-family="Helvetica,sans-Serif" font-size="8.00"> m_worker</text>
</g>
<!-- Node7 -->
<g id="node7" class="node">
<title>Node7</title>
<g id="a_node7"><a xlink:title=" ">
<polygon fill="white" stroke="black" points="194,-64 194,-99 325,-99 325,-64 194,-64"/>
<text text-anchor="start" x="202" y="-88.6" font-family="Helvetica,sans-Serif" font-size="8.00">std::vector&lt; boost</text>
<text text-anchor="start" x="202" y="-79.6" font-family="Helvetica,sans-Serif" font-size="8.00">::movelib::unique_ptr</text>
<text text-anchor="middle" x="259.5" y="-70.6" font-family="Helvetica,sans-Serif" font-size="8.00">&lt; Timer_fired_read_end &gt; &gt;</text>
</a>
</g>
</g>
<!-- Node7&#45;&gt;Node1 -->
<g id="edge6" class="edge">
<title>Node7&#45;&gt;Node1</title>
<path fill="none" stroke="#9a32cd" stroke-dasharray="5,2" d="M335.12,-92.56C368.21,-98.31 407.41,-106.3 442,-116.5 455.6,-120.51 470.22,-126.18 482.52,-131.37"/>
<polygon fill="#9a32cd" stroke="#9a32cd" points="335.51,-89.07 325.06,-90.84 334.33,-95.97 335.51,-89.07"/>
<text text-anchor="middle" x="394" y="-119.1" font-family="Helvetica,sans-Serif" font-size="8.00"> m_signal_pipe_readers</text>
</g>
<!-- Node8 -->
<g id="node8" class="node">
<title>Node8</title>
<g id="a_node8"><a xlink:title=" ">
<polygon fill="white" stroke="#bfbfbf" points="0,-68.5 0,-94.5 114,-94.5 114,-68.5 0,-68.5"/>
<text text-anchor="start" x="8" y="-84.1" font-family="Helvetica,sans-Serif" font-size="8.00">unique_ptr&lt; Timer_fired</text>
<text text-anchor="middle" x="57" y="-75.1" font-family="Helvetica,sans-Serif" font-size="8.00">_read_end &gt;</text>
</a>
</g>
</g>
<!-- Node8&#45;&gt;Node7 -->
<g id="edge7" class="edge">
<title>Node8&#45;&gt;Node7</title>
<path fill="none" stroke="#9a32cd" stroke-dasharray="5,2" d="M124.21,-81.5C146.63,-81.5 171.61,-81.5 193.9,-81.5"/>
<polygon fill="#9a32cd" stroke="#9a32cd" points="124.12,-78 114.12,-81.5 124.12,-85 124.12,-78"/>
<text text-anchor="middle" x="152.5" y="-84.1" font-family="Helvetica,sans-Serif" font-size="8.00"> elements</text>
</g>
<!-- Node9 -->
<g id="node9" class="node">
<title>Node9</title>
<g id="a_node9"><a xlink:title=" ">
<polygon fill="white" stroke="#bfbfbf" points="191,-0.5 191,-44.5 328,-44.5 328,-0.5 191,-0.5"/>
<text text-anchor="start" x="199" y="-34.1" font-family="Helvetica,sans-Serif" font-size="8.00">unordered_map&lt; Timer</text>
<text text-anchor="start" x="199" y="-25.1" font-family="Helvetica,sans-Serif" font-size="8.00">_fired_read_end *, boost</text>
<text text-anchor="start" x="199" y="-16.1" font-family="Helvetica,sans-Serif" font-size="8.00">::movelib::unique_ptr&lt; boost</text>
<text text-anchor="middle" x="259.5" y="-7.1" font-family="Helvetica,sans-Serif" font-size="8.00">::asio::writable_pipe &gt; &gt;</text>
</a>
</g>
</g>
<!-- Node9&#45;&gt;Node1 -->
<g id="edge8" class="edge">
<title>Node9&#45;&gt;Node1</title>
<path fill="none" stroke="#9a32cd" stroke-dasharray="5,2" d="M337.75,-39.85C371.18,-49.28 409.91,-62.9 442,-81.5 465.25,-94.98 487.4,-117.25 500.21,-131.39"/>
<polygon fill="#9a32cd" stroke="#9a32cd" points="338.58,-36.45 328.01,-37.18 336.73,-43.2 338.58,-36.45"/>
<text text-anchor="middle" x="394" y="-84.1" font-family="Helvetica,sans-Serif" font-size="8.00"> m_signal_pipe_writers</text>
</g>
</g>
</svg>
