<?xml version="1.0" encoding="UTF-8" standalone="no"?>
<!DOCTYPE svg PUBLIC "-//W3C//DTD SVG 1.1//EN"
 "http://www.w3.org/Graphics/SVG/1.1/DTD/svg11.dtd">
<!-- Generated by graphviz version 2.43.0 (0)
 -->
<!-- Title: ipc::session::shm::arena_lend::jemalloc::error::Category Pages: 1 -->
<svg width="184pt" height="108pt"
 viewBox="0.00 0.00 184.00 108.00" xmlns="http://www.w3.org/2000/svg" xmlns:xlink="http://www.w3.org/1999/xlink">
<g id="graph0" class="graph" transform="scale(1 1) rotate(0) translate(4 104)">
<title>ipc::session::shm::arena_lend::jemalloc::error::Category</title>
<polygon fill="white" stroke="transparent" points="-4,4 -4,-104 180,-104 180,4 -4,4"/>
<!-- Node1 -->
<g id="node1" class="node">
<title>Node1</title>
<g id="a_node1"><a xlink:title="The boost.system category for errors returned by the ipc::session module.">
<polygon fill="#bfbfbf" stroke="black" points="0,-0.5 0,-35.5 103,-35.5 103,-0.5 0,-0.5"/>
<text text-anchor="start" x="8" y="-25.1" font-family="Helvetica,sans-Serif" font-size="8.00">ipc::session::shm::</text>
<text text-anchor="start" x="8" y="-16.1" font-family="Helvetica,sans-Serif" font-size="8.00">arena_lend::jemalloc</text>
<text text-anchor="middle" x="51.5" y="-7.1" font-family="Helvetica,sans-Serif" font-size="8.00">::error::Category</text>
</a>
</g>
</g>
<!-- Node1&#45;&gt;Node1 -->
<g id="edge2" class="edge">
<title>Node1&#45;&gt;Node1</title>
<path fill="none" stroke="#9a32cd" stroke-dasharray="5,2" d="M112.96,-23.17C117.92,-22.04 121,-20.32 121,-18 121,-14.38 113.5,-12.21 103.03,-11.51"/>
<polygon fill="#9a32cd" stroke="#9a32cd" points="112.47,-19.7 103.03,-24.49 113.4,-26.64 112.47,-19.7"/>
<text text-anchor="middle" x="148.5" y="-16.1" font-family="Helvetica,sans-Serif" font-size="8.00"> S_CATEGORY</text>
</g>
<!-- Node2 -->
<g id="node2" class="node">
<title>Node2</title>
<g id="a_node2"><a xlink:href="classboost_1_1system_1_1error__category.html" target="_top" xlink:title=" ">
<polygon fill="white" stroke="#bfbfbf" points="1,-73.5 1,-99.5 102,-99.5 102,-73.5 1,-73.5"/>
<text text-anchor="start" x="9" y="-89.1" font-family="Helvetica,sans-Serif" font-size="8.00">boost::system::error</text>
<text text-anchor="middle" x="51.5" y="-80.1" font-family="Helvetica,sans-Serif" font-size="8.00">_category</text>
</a>
</g>
</g>
<!-- Node2&#45;&gt;Node1 -->
<g id="edge1" class="edge">
<title>Node2&#45;&gt;Node1</title>
<path fill="none" stroke="midnightblue" d="M51.5,-63.21C51.5,-54.28 51.5,-44.17 51.5,-35.88"/>
<polygon fill="midnightblue" stroke="midnightblue" points="48,-63.3 51.5,-73.3 55,-63.3 48,-63.3"/>
</g>
</g>
</svg>
