<?xml version="1.0" encoding="UTF-8" standalone="no"?>
<!DOCTYPE svg PUBLIC "-//W3C//DTD SVG 1.1//EN"
 "http://www.w3.org/Graphics/SVG/1.1/DTD/svg11.dtd">
<!-- Generated by graphviz version 2.43.0 (0)
 -->
<!-- Title: ipc::transport::Posix_mq_handle::wait_impl Pages: 1 -->
<svg width="453pt" height="306pt"
 viewBox="0.00 0.00 453.00 306.00" xmlns="http://www.w3.org/2000/svg" xmlns:xlink="http://www.w3.org/1999/xlink">
<g id="graph0" class="graph" transform="scale(1 1) rotate(0) translate(4 302)">
<title>ipc::transport::Posix_mq_handle::wait_impl</title>
<polygon fill="white" stroke="transparent" points="-4,4 -4,-302 449,-302 449,4 -4,4"/>
<!-- Node1 -->
<g id="node1" class="node">
<title>Node1</title>
<g id="a_node1"><a xlink:title="Impl body for *_sendable() and *_receivable().">
<polygon fill="#bfbfbf" stroke="black" points="335,-149.5 335,-175.5 445,-175.5 445,-149.5 335,-149.5"/>
<text text-anchor="start" x="343" y="-165.1" font-family="Helvetica,sans-Serif" font-size="8.00">ipc::transport::Posix</text>
<text text-anchor="middle" x="390" y="-156.1" font-family="Helvetica,sans-Serif" font-size="8.00">_mq_handle::wait_impl</text>
</a>
</g>
</g>
<!-- Node1&#45;&gt;Node1 -->
<g id="edge9" class="edge">
<title>Node1&#45;&gt;Node1</title>
<path fill="none" stroke="midnightblue" d="M418.44,-185.94C415.28,-190.64 405.8,-194 390,-194 364.08,-194 355.17,-184.96 363.27,-175.77"/>
<polygon fill="midnightblue" stroke="midnightblue" points="421.84,-185.05 416.73,-175.77 414.93,-186.21 421.84,-185.05"/>
</g>
<!-- Node2 -->
<g id="node2" class="node">
<title>Node2</title>
<g id="a_node2"><a xlink:href="classipc_1_1transport_1_1Posix__mq__handle.html#a399bb25dbcfa06437b2f50abcc1500d1" target="_top" xlink:title="Implements Persistent_mq_handle API: Like try_receive() but without the actual popping of a message.">
<polygon fill="white" stroke="black" points="169,-271.5 169,-297.5 294,-297.5 294,-271.5 169,-271.5"/>
<text text-anchor="start" x="177" y="-287.1" font-family="Helvetica,sans-Serif" font-size="8.00">ipc::transport::Posix</text>
<text text-anchor="middle" x="231.5" y="-278.1" font-family="Helvetica,sans-Serif" font-size="8.00">_mq_handle::is_receivable</text>
</a>
</g>
</g>
<!-- Node1&#45;&gt;Node2 -->
<g id="edge1" class="edge">
<title>Node1&#45;&gt;Node2</title>
<path fill="none" stroke="midnightblue" d="M374.97,-183.76C359.05,-206.31 331.11,-241.52 299,-262.5 293.71,-265.96 287.82,-268.92 281.8,-271.44"/>
<polygon fill="midnightblue" stroke="midnightblue" points="377.86,-185.73 380.65,-175.51 372.1,-181.76 377.86,-185.73"/>
</g>
<!-- Node3 -->
<g id="node3" class="node">
<title>Node3</title>
<g id="a_node3"><a xlink:href="classipc_1_1transport_1_1Posix__mq__handle.html#a409b0d91e57c994341d900f840e75bb4" target="_top" xlink:title="Implements Persistent_mq_handle API: Like try_send() but without the actual pushing of a message.">
<polygon fill="white" stroke="black" points="171.5,-226.5 171.5,-252.5 291.5,-252.5 291.5,-226.5 171.5,-226.5"/>
<text text-anchor="start" x="179.5" y="-242.1" font-family="Helvetica,sans-Serif" font-size="8.00">ipc::transport::Posix</text>
<text text-anchor="middle" x="231.5" y="-233.1" font-family="Helvetica,sans-Serif" font-size="8.00">_mq_handle::is_sendable</text>
</a>
</g>
</g>
<!-- Node1&#45;&gt;Node3 -->
<g id="edge2" class="edge">
<title>Node1&#45;&gt;Node3</title>
<path fill="none" stroke="midnightblue" d="M361.45,-181.08C344.04,-192.29 320.79,-206.33 299,-216.5 291.25,-220.12 282.77,-223.48 274.53,-226.45"/>
<polygon fill="midnightblue" stroke="midnightblue" points="363.52,-183.9 369.98,-175.51 359.69,-178.04 363.52,-183.9"/>
</g>
<!-- Node4 -->
<g id="node4" class="node">
<title>Node4</title>
<g id="a_node4"><a xlink:href="classipc_1_1transport_1_1Posix__mq__handle.html#a64079f1c9315af2e75e808b6ae5312e5" target="_top" xlink:title="Implements Persistent_mq_handle API: Like timed_receive() but without the actual popping of a message...">
<polygon fill="white" stroke="black" points="173.5,-172 173.5,-207 289.5,-207 289.5,-172 173.5,-172"/>
<text text-anchor="start" x="181.5" y="-196.6" font-family="Helvetica,sans-Serif" font-size="8.00">ipc::transport::Posix</text>
<text text-anchor="start" x="181.5" y="-187.6" font-family="Helvetica,sans-Serif" font-size="8.00">_mq_handle::timed_wait</text>
<text text-anchor="middle" x="231.5" y="-178.6" font-family="Helvetica,sans-Serif" font-size="8.00">_receivable</text>
</a>
</g>
</g>
<!-- Node1&#45;&gt;Node4 -->
<g id="edge3" class="edge">
<title>Node1&#45;&gt;Node4</title>
<path fill="none" stroke="midnightblue" d="M324.64,-173.6C313.04,-175.61 301.01,-177.68 289.63,-179.64"/>
<polygon fill="midnightblue" stroke="midnightblue" points="325.44,-177.02 334.7,-171.87 324.25,-170.12 325.44,-177.02"/>
</g>
<!-- Node6 -->
<g id="node6" class="node">
<title>Node6</title>
<g id="a_node6"><a xlink:href="classipc_1_1transport_1_1Posix__mq__handle.html#aa46ffcc8019c998313c18ed05b7c6ad3" target="_top" xlink:title="Implements Persistent_mq_handle API: Like timed_send() but without the actual pushing of a message.">
<polygon fill="white" stroke="black" points="173.5,-118 173.5,-153 289.5,-153 289.5,-118 173.5,-118"/>
<text text-anchor="start" x="181.5" y="-142.6" font-family="Helvetica,sans-Serif" font-size="8.00">ipc::transport::Posix</text>
<text text-anchor="start" x="181.5" y="-133.6" font-family="Helvetica,sans-Serif" font-size="8.00">_mq_handle::timed_wait</text>
<text text-anchor="middle" x="231.5" y="-124.6" font-family="Helvetica,sans-Serif" font-size="8.00">_sendable</text>
</a>
</g>
</g>
<!-- Node1&#45;&gt;Node6 -->
<g id="edge6" class="edge">
<title>Node1&#45;&gt;Node6</title>
<path fill="none" stroke="midnightblue" d="M324.64,-151.4C313.04,-149.39 301.01,-147.32 289.63,-145.36"/>
<polygon fill="midnightblue" stroke="midnightblue" points="324.25,-154.88 334.7,-153.13 325.44,-147.98 324.25,-154.88"/>
</g>
<!-- Node8 -->
<g id="node8" class="node">
<title>Node8</title>
<g id="a_node8"><a xlink:href="classipc_1_1transport_1_1Posix__mq__handle.html#a0f93df71d0c476e17b32ca4d6bf82b9b" target="_top" xlink:title="Implements Persistent_mq_handle API: Like receive() but without the actual popping of a message.">
<polygon fill="white" stroke="black" points="164,-66.5 164,-92.5 299,-92.5 299,-66.5 164,-66.5"/>
<text text-anchor="start" x="172" y="-82.1" font-family="Helvetica,sans-Serif" font-size="8.00">ipc::transport::Posix</text>
<text text-anchor="middle" x="231.5" y="-73.1" font-family="Helvetica,sans-Serif" font-size="8.00">_mq_handle::wait_receivable</text>
</a>
</g>
</g>
<!-- Node1&#45;&gt;Node8 -->
<g id="edge10" class="edge">
<title>Node1&#45;&gt;Node8</title>
<path fill="none" stroke="midnightblue" d="M360.13,-143.88C342.74,-132.99 319.97,-119.3 299,-108.5 288.03,-102.85 275.71,-97.27 264.69,-92.54"/>
<polygon fill="midnightblue" stroke="midnightblue" points="358.37,-146.91 368.7,-149.29 362.11,-140.99 358.37,-146.91"/>
</g>
<!-- Node10 -->
<g id="node10" class="node">
<title>Node10</title>
<g id="a_node10"><a xlink:href="classipc_1_1transport_1_1Posix__mq__handle.html#acf32c33a96d66436628153c74d4a8eb9" target="_top" xlink:title="Implements Persistent_mq_handle API: Like send() but without the actual pushing of a message.">
<polygon fill="white" stroke="black" points="166,-12.5 166,-38.5 297,-38.5 297,-12.5 166,-12.5"/>
<text text-anchor="start" x="174" y="-28.1" font-family="Helvetica,sans-Serif" font-size="8.00">ipc::transport::Posix</text>
<text text-anchor="middle" x="231.5" y="-19.1" font-family="Helvetica,sans-Serif" font-size="8.00">_mq_handle::wait_sendable</text>
</a>
</g>
</g>
<!-- Node1&#45;&gt;Node10 -->
<g id="edge13" class="edge">
<title>Node1&#45;&gt;Node10</title>
<path fill="none" stroke="midnightblue" d="M374.74,-140.66C358.63,-117.35 330.52,-80.54 299,-56.5 289.68,-49.39 278.47,-43.39 267.93,-38.62"/>
<polygon fill="midnightblue" stroke="midnightblue" points="372,-142.85 380.5,-149.17 377.79,-138.92 372,-142.85"/>
</g>
<!-- Node5 -->
<g id="node5" class="node">
<title>Node5</title>
<g id="a_node5"><a xlink:href="classipc_1_1transport_1_1Posix__mq__handle.html#aa853452d0d0aeeaf61461cc8a48b5c09" target="_top" xlink:title="Implements Persistent_mq_handle API: Blocking timed receive: pops copy of message from queue into buf...">
<polygon fill="white" stroke="black" points="0,-189.5 0,-215.5 128,-215.5 128,-189.5 0,-189.5"/>
<text text-anchor="start" x="8" y="-205.1" font-family="Helvetica,sans-Serif" font-size="8.00">ipc::transport::Posix</text>
<text text-anchor="middle" x="64" y="-196.1" font-family="Helvetica,sans-Serif" font-size="8.00">_mq_handle::timed_receive</text>
</a>
</g>
</g>
<!-- Node4&#45;&gt;Node5 -->
<g id="edge4" class="edge">
<title>Node4&#45;&gt;Node5</title>
<path fill="none" stroke="midnightblue" d="M163.09,-194.79C151.58,-195.7 139.66,-196.64 128.26,-197.53"/>
<polygon fill="midnightblue" stroke="midnightblue" points="163.39,-198.28 173.08,-194.01 162.84,-191.3 163.39,-198.28"/>
</g>
<!-- Node5&#45;&gt;Node5 -->
<g id="edge5" class="edge">
<title>Node5&#45;&gt;Node5</title>
<path fill="none" stroke="midnightblue" d="M94.12,-225.58C91.06,-230.47 81.02,-234 64,-234 36.77,-234 27.4,-224.96 35.91,-215.77"/>
<polygon fill="midnightblue" stroke="midnightblue" points="97.54,-224.85 92.09,-215.77 90.69,-226.27 97.54,-224.85"/>
</g>
<!-- Node7 -->
<g id="node7" class="node">
<title>Node7</title>
<g id="a_node7"><a xlink:href="classipc_1_1transport_1_1Posix__mq__handle.html#abe2b3968c60945224ddfce119bcae018" target="_top" xlink:title="Implements Persistent_mq_handle API: Blocking timed send: pushes copy of message to queue; if queue i...">
<polygon fill="white" stroke="black" points="4.5,-126.5 4.5,-152.5 123.5,-152.5 123.5,-126.5 4.5,-126.5"/>
<text text-anchor="start" x="12.5" y="-142.1" font-family="Helvetica,sans-Serif" font-size="8.00">ipc::transport::Posix</text>
<text text-anchor="middle" x="64" y="-133.1" font-family="Helvetica,sans-Serif" font-size="8.00">_mq_handle::timed_send</text>
</a>
</g>
</g>
<!-- Node6&#45;&gt;Node7 -->
<g id="edge7" class="edge">
<title>Node6&#45;&gt;Node7</title>
<path fill="none" stroke="midnightblue" d="M162.82,-137.14C149.85,-137.45 136.38,-137.77 123.72,-138.08"/>
<polygon fill="midnightblue" stroke="midnightblue" points="163.17,-140.63 173.08,-136.89 163,-133.63 163.17,-140.63"/>
</g>
<!-- Node7&#45;&gt;Node7 -->
<g id="edge8" class="edge">
<title>Node7&#45;&gt;Node7</title>
<path fill="none" stroke="midnightblue" d="M94.12,-162.58C91.06,-167.47 81.02,-171 64,-171 36.77,-171 27.4,-161.96 35.91,-152.77"/>
<polygon fill="midnightblue" stroke="midnightblue" points="97.54,-161.85 92.09,-152.77 90.69,-163.27 97.54,-161.85"/>
</g>
<!-- Node9 -->
<g id="node9" class="node">
<title>Node9</title>
<g id="a_node9"><a xlink:href="classipc_1_1transport_1_1Posix__mq__handle.html#a65f35bfe249b13dc3bc0442d10a55a0f" target="_top" xlink:title="Implements Persistent_mq_handle API: Blocking receive: pops copy of message from queue into buffer; i...">
<polygon fill="white" stroke="black" points="13.5,-63.5 13.5,-89.5 114.5,-89.5 114.5,-63.5 13.5,-63.5"/>
<text text-anchor="start" x="21.5" y="-79.1" font-family="Helvetica,sans-Serif" font-size="8.00">ipc::transport::Posix</text>
<text text-anchor="middle" x="64" y="-70.1" font-family="Helvetica,sans-Serif" font-size="8.00">_mq_handle::receive</text>
</a>
</g>
</g>
<!-- Node8&#45;&gt;Node9 -->
<g id="edge11" class="edge">
<title>Node8&#45;&gt;Node9</title>
<path fill="none" stroke="midnightblue" d="M153.57,-78.11C140.3,-77.86 126.82,-77.62 114.52,-77.4"/>
<polygon fill="midnightblue" stroke="midnightblue" points="153.6,-81.61 163.66,-78.29 153.73,-74.61 153.6,-81.61"/>
</g>
<!-- Node9&#45;&gt;Node9 -->
<g id="edge12" class="edge">
<title>Node9&#45;&gt;Node9</title>
<path fill="none" stroke="midnightblue" d="M94.12,-99.58C91.06,-104.47 81.02,-108 64,-108 36.77,-108 27.4,-98.96 35.91,-89.77"/>
<polygon fill="midnightblue" stroke="midnightblue" points="97.54,-98.85 92.09,-89.77 90.69,-100.27 97.54,-98.85"/>
</g>
<!-- Node11 -->
<g id="node11" class="node">
<title>Node11</title>
<g id="a_node11"><a xlink:href="classipc_1_1transport_1_1Posix__mq__handle.html#a6e9b11537c7c83f43728aca7af348a42" target="_top" xlink:title="Implements Persistent_mq_handle API: Blocking send: pushes copy of message to queue; if queue is full...">
<polygon fill="white" stroke="black" points="14.5,-0.5 14.5,-26.5 113.5,-26.5 113.5,-0.5 14.5,-0.5"/>
<text text-anchor="start" x="22.5" y="-16.1" font-family="Helvetica,sans-Serif" font-size="8.00">ipc::transport::Posix</text>
<text text-anchor="middle" x="64" y="-7.1" font-family="Helvetica,sans-Serif" font-size="8.00">_mq_handle::send</text>
</a>
</g>
</g>
<!-- Node10&#45;&gt;Node11 -->
<g id="edge14" class="edge">
<title>Node10&#45;&gt;Node11</title>
<path fill="none" stroke="midnightblue" d="M155.33,-20.05C141.17,-19.02 126.71,-17.97 113.63,-17.03"/>
<polygon fill="midnightblue" stroke="midnightblue" points="155.34,-23.56 165.57,-20.79 155.84,-16.58 155.34,-23.56"/>
</g>
<!-- Node11&#45;&gt;Node11 -->
<g id="edge15" class="edge">
<title>Node11&#45;&gt;Node11</title>
<path fill="none" stroke="midnightblue" d="M94.12,-36.58C91.06,-41.47 81.02,-45 64,-45 36.77,-45 27.4,-35.96 35.91,-26.77"/>
<polygon fill="midnightblue" stroke="midnightblue" points="97.54,-35.85 92.09,-26.77 90.69,-37.27 97.54,-35.85"/>
</g>
</g>
</svg>
