<?xml version="1.0" encoding="UTF-8" standalone="no"?>
<!DOCTYPE svg PUBLIC "-//W3C//DTD SVG 1.1//EN"
 "http://www.w3.org/Graphics/SVG/1.1/DTD/svg11.dtd">
<!-- Generated by graphviz version 2.43.0 (0)
 -->
<!-- Title: ipc::transport::Blob_stream_mq_sender_impl::nickname Pages: 1 -->
<svg width="282pt" height="44pt"
 viewBox="0.00 0.00 282.00 44.00" xmlns="http://www.w3.org/2000/svg" xmlns:xlink="http://www.w3.org/1999/xlink">
<g id="graph0" class="graph" transform="scale(1 1) rotate(0) translate(4 40)">
<title>ipc::transport::Blob_stream_mq_sender_impl::nickname</title>
<polygon fill="white" stroke="transparent" points="-4,4 -4,-40 278,-40 278,4 -4,4"/>
<!-- Node1 -->
<g id="node1" class="node">
<title>Node1</title>
<g id="a_node1"><a xlink:title="See Blob_stream_mq_sender counterpart, but assuming PEER state.">
<polygon fill="#bfbfbf" stroke="black" points="155,-0.5 155,-35.5 274,-35.5 274,-0.5 155,-0.5"/>
<text text-anchor="start" x="163" y="-25.1" font-family="Helvetica,sans-Serif" font-size="8.00">ipc::transport::Blob</text>
<text text-anchor="start" x="163" y="-16.1" font-family="Helvetica,sans-Serif" font-size="8.00">_stream_mq_sender_impl</text>
<text text-anchor="middle" x="214.5" y="-7.1" font-family="Helvetica,sans-Serif" font-size="8.00">::nickname</text>
</a>
</g>
</g>
<!-- Node2 -->
<g id="node2" class="node">
<title>Node2</title>
<g id="a_node2"><a xlink:href="classipc_1_1transport_1_1Blob__stream__mq__sender__impl.html#a8bc3464c81b40649e99da6ce2ee5f87c" target="_top" xlink:title="Prints string representation of the given Blob_stream_mq_sender to the given ostream.">
<polygon fill="white" stroke="black" points="0,-0.5 0,-35.5 119,-35.5 119,-0.5 0,-0.5"/>
<text text-anchor="start" x="8" y="-25.1" font-family="Helvetica,sans-Serif" font-size="8.00">ipc::transport::Blob</text>
<text text-anchor="start" x="8" y="-16.1" font-family="Helvetica,sans-Serif" font-size="8.00">_stream_mq_sender_impl</text>
<text text-anchor="middle" x="59.5" y="-7.1" font-family="Helvetica,sans-Serif" font-size="8.00">::operator&lt;&lt;</text>
</a>
</g>
</g>
<!-- Node1&#45;&gt;Node2 -->
<g id="edge1" class="edge">
<title>Node1&#45;&gt;Node2</title>
<path fill="none" stroke="midnightblue" d="M144.51,-18C136.01,-18 127.38,-18 119.06,-18"/>
<polygon fill="midnightblue" stroke="midnightblue" points="144.78,-21.5 154.78,-18 144.78,-14.5 144.78,-21.5"/>
</g>
</g>
</svg>
