<?xml version="1.0" encoding="UTF-8" standalone="no"?>
<!DOCTYPE svg PUBLIC "-//W3C//DTD SVG 1.1//EN"
 "http://www.w3.org/Graphics/SVG/1.1/DTD/svg11.dtd">
<!-- Generated by graphviz version 2.43.0 (0)
 -->
<!-- Title: ipc::session::Session_server_impl&lt; Session_server_t, Server_session_t &gt; Pages: 1 -->
<svg width="918pt" height="325pt"
 viewBox="0.00 0.00 918.00 325.00" xmlns="http://www.w3.org/2000/svg" xmlns:xlink="http://www.w3.org/1999/xlink">
<g id="graph0" class="graph" transform="scale(1 1) rotate(0) translate(4 321)">
<title>ipc::session::Session_server_impl&lt; Session_server_t, Server_session_t &gt;</title>
<polygon fill="white" stroke="transparent" points="-4,4 -4,-321 914,-321 914,4 -4,4"/>
<!-- Node1 -->
<g id="node1" class="node">
<title>Node1</title>
<g id="a_node1"><a xlink:title="Internal class template comprising API/logic common to every Session_server variant,...">
<polygon fill="#bfbfbf" stroke="black" points="776,-155.5 776,-190.5 910,-190.5 910,-155.5 776,-155.5"/>
<text text-anchor="start" x="784" y="-180.1" font-family="Helvetica,sans-Serif" font-size="8.00">ipc::session::Session</text>
<text text-anchor="start" x="784" y="-171.1" font-family="Helvetica,sans-Serif" font-size="8.00">_server_impl&lt; Session</text>
<text text-anchor="middle" x="843" y="-162.1" font-family="Helvetica,sans-Serif" font-size="8.00">_server_t, Server_session_t &gt;</text>
</a>
</g>
</g>
<!-- Node2 -->
<g id="node2" class="node">
<title>Node2</title>
<g id="a_node2"><a xlink:title=" ">
<polygon fill="white" stroke="#bfbfbf" points="518,-298.5 518,-315.5 625,-315.5 625,-298.5 518,-298.5"/>
<text text-anchor="middle" x="571.5" y="-305.1" font-family="Helvetica,sans-Serif" font-size="8.00">flow::log::Log_context</text>
</a>
</g>
</g>
<!-- Node2&#45;&gt;Node1 -->
<g id="edge1" class="edge">
<title>Node2&#45;&gt;Node1</title>
<path fill="none" stroke="midnightblue" d="M635.42,-301.32C673.03,-295.75 720.59,-284.74 758,-263 789.23,-244.85 815.84,-211.44 830.31,-190.83"/>
<polygon fill="midnightblue" stroke="midnightblue" points="634.52,-297.91 625.1,-302.75 635.49,-304.84 634.52,-297.91"/>
</g>
<!-- Node3 -->
<g id="node3" class="node">
<title>Node3</title>
<g id="a_node3"><a xlink:title=" ">
<polygon fill="white" stroke="#bfbfbf" points="522,-262.5 522,-279.5 621,-279.5 621,-262.5 522,-262.5"/>
<text text-anchor="middle" x="571.5" y="-269.1" font-family="Helvetica,sans-Serif" font-size="8.00">boost::noncopyable</text>
</a>
</g>
</g>
<!-- Node3&#45;&gt;Node1 -->
<g id="edge2" class="edge">
<title>Node3&#45;&gt;Node1</title>
<path fill="none" stroke="#8b1a1a" d="M631.38,-266.3C668.88,-261.7 717.78,-252.66 758,-235 782.73,-224.14 807.13,-204.92 823.2,-190.75"/>
<polygon fill="#8b1a1a" stroke="#8b1a1a" points="630.66,-262.86 621.13,-267.48 631.46,-269.81 630.66,-262.86"/>
</g>
<!-- Node4 -->
<g id="node4" class="node">
<title>Node4</title>
<g id="a_node4"><a xlink:href="structipc_1_1session_1_1Server__app.html" target="_top" xlink:title="An App that is used as a server in at least one client&#45;server IPC split.">
<polygon fill="white" stroke="black" points="512.5,-226.5 512.5,-243.5 630.5,-243.5 630.5,-226.5 512.5,-226.5"/>
<text text-anchor="middle" x="571.5" y="-233.1" font-family="Helvetica,sans-Serif" font-size="8.00">ipc::session::Server_app</text>
</a>
</g>
</g>
<!-- Node4&#45;&gt;Node1 -->
<g id="edge3" class="edge">
<title>Node4&#45;&gt;Node1</title>
<path fill="none" stroke="#9a32cd" stroke-dasharray="5,2" d="M637.98,-224.69C673.69,-218.56 718.54,-210.02 758,-200 768.69,-197.28 780.01,-193.96 790.76,-190.59"/>
<polygon fill="#9a32cd" stroke="#9a32cd" points="636.96,-221.32 627.68,-226.44 638.13,-228.22 636.96,-221.32"/>
<text text-anchor="middle" x="705" y="-224.6" font-family="Helvetica,sans-Serif" font-size="8.00"> m_srv_app_ref</text>
</g>
<!-- Node5 -->
<g id="node5" class="node">
<title>Node5</title>
<g id="a_node5"><a xlink:href="structipc_1_1session_1_1App.html" target="_top" xlink:title="A description of an application in this ipc::session inter&#45;process communication universe.">
<polygon fill="white" stroke="black" points="283,-250.5 283,-267.5 371,-267.5 371,-250.5 283,-250.5"/>
<text text-anchor="middle" x="327" y="-257.1" font-family="Helvetica,sans-Serif" font-size="8.00">ipc::session::App</text>
</a>
</g>
</g>
<!-- Node5&#45;&gt;Node4 -->
<g id="edge4" class="edge">
<title>Node5&#45;&gt;Node4</title>
<path fill="none" stroke="midnightblue" d="M381.12,-253.74C419.9,-249.9 472.44,-244.7 512.35,-240.76"/>
<polygon fill="midnightblue" stroke="midnightblue" points="380.68,-250.27 371.07,-254.74 381.37,-257.23 380.68,-250.27"/>
</g>
<!-- Node6 -->
<g id="node6" class="node">
<title>Node6</title>
<g id="a_node6"><a xlink:title=" ">
<polygon fill="white" stroke="black" points="128,-254.5 128,-271.5 187,-271.5 187,-254.5 128,-254.5"/>
<text text-anchor="middle" x="157.5" y="-261.1" font-family="Helvetica,sans-Serif" font-size="8.00">std::string</text>
</a>
</g>
</g>
<!-- Node6&#45;&gt;Node5 -->
<g id="edge5" class="edge">
<title>Node6&#45;&gt;Node5</title>
<path fill="none" stroke="#9a32cd" stroke-dasharray="5,2" d="M197.19,-260.34C199.83,-260.21 202.45,-260.09 205,-260 230.82,-259.06 259.76,-258.79 282.87,-258.77"/>
<polygon fill="#9a32cd" stroke="#9a32cd" points="196.8,-256.85 187.01,-260.91 197.19,-263.84 196.8,-256.85"/>
<text text-anchor="middle" x="232.5" y="-262.6" font-family="Helvetica,sans-Serif" font-size="8.00"> m_name</text>
</g>
<!-- Node7 -->
<g id="node7" class="node">
<title>Node7</title>
<g id="a_node7"><a xlink:title=" ">
<polygon fill="white" stroke="black" points="0,-250 0,-276 91,-276 91,-250 0,-250"/>
<text text-anchor="start" x="8" y="-265.6" font-family="Helvetica,sans-Serif" font-size="8.00">std::basic_string&lt;</text>
<text text-anchor="middle" x="45.5" y="-256.6" font-family="Helvetica,sans-Serif" font-size="8.00"> Char &gt;</text>
</a>
</g>
</g>
<!-- Node7&#45;&gt;Node6 -->
<g id="edge6" class="edge">
<title>Node7&#45;&gt;Node6</title>
<path fill="none" stroke="midnightblue" d="M101.5,-263C110.63,-263 119.76,-263 127.89,-263"/>
<polygon fill="midnightblue" stroke="midnightblue" points="101.24,-259.5 91.24,-263 101.24,-266.5 101.24,-259.5"/>
</g>
<!-- Node8 -->
<g id="node8" class="node">
<title>Node8</title>
<g id="a_node8"><a xlink:title=" ">
<polygon fill="white" stroke="#bfbfbf" points="140,-298.5 140,-315.5 175,-315.5 175,-298.5 140,-298.5"/>
<text text-anchor="middle" x="157.5" y="-305.1" font-family="Helvetica,sans-Serif" font-size="8.00">path</text>
</a>
</g>
</g>
<!-- Node8&#45;&gt;Node4 -->
<g id="edge11" class="edge">
<title>Node8&#45;&gt;Node4</title>
<path fill="none" stroke="#9a32cd" stroke-dasharray="5,2" d="M185.18,-306.14C242.41,-303.69 380.73,-294.49 491,-261 499.38,-258.46 500.78,-256.01 509,-253 518.4,-249.55 528.79,-246.3 538.32,-243.54"/>
<polygon fill="#9a32cd" stroke="#9a32cd" points="185.01,-302.64 175.15,-306.54 185.28,-309.64 185.01,-302.64"/>
<text text-anchor="start" x="284.5" y="-310.6" font-family="Helvetica,sans-Serif" font-size="8.00"> m_kernel_persistent</text>
<text text-anchor="middle" x="327" y="-301.6" font-family="Helvetica,sans-Serif" font-size="8.00">_run_dir_override</text>
</g>
<!-- Node8&#45;&gt;Node5 -->
<g id="edge7" class="edge">
<title>Node8&#45;&gt;Node5</title>
<path fill="none" stroke="#9a32cd" stroke-dasharray="5,2" d="M184.98,-298.23C191.5,-296.13 198.49,-293.94 205,-292 234.64,-283.18 268.62,-273.99 293.02,-267.56"/>
<polygon fill="#9a32cd" stroke="#9a32cd" points="183.66,-294.98 175.23,-301.4 185.82,-301.63 183.66,-294.98"/>
<text text-anchor="middle" x="232.5" y="-294.6" font-family="Helvetica,sans-Serif" font-size="8.00"> m_exec_path</text>
</g>
<!-- Node9 -->
<g id="node9" class="node">
<title>Node9</title>
<g id="a_node9"><a xlink:title=" ">
<polygon fill="white" stroke="#bfbfbf" points="139.5,-182.5 139.5,-199.5 175.5,-199.5 175.5,-182.5 139.5,-182.5"/>
<text text-anchor="middle" x="157.5" y="-189.1" font-family="Helvetica,sans-Serif" font-size="8.00">uid_t</text>
</a>
</g>
</g>
<!-- Node9&#45;&gt;Node5 -->
<g id="edge8" class="edge">
<title>Node9&#45;&gt;Node5</title>
<path fill="none" stroke="#9a32cd" stroke-dasharray="5,2" d="M185.82,-195.38C207.22,-199.72 237.08,-207.81 260,-222 269.89,-228.12 268.31,-234.57 278,-241 283.71,-244.79 290.33,-247.93 296.79,-250.46"/>
<polygon fill="#9a32cd" stroke="#9a32cd" points="186.25,-191.9 175.78,-193.5 184.96,-198.78 186.25,-191.9"/>
<text text-anchor="middle" x="232.5" y="-224.6" font-family="Helvetica,sans-Serif" font-size="8.00"> m_user_id</text>
</g>
<!-- Node10 -->
<g id="node10" class="node">
<title>Node10</title>
<g id="a_node10"><a xlink:title=" ">
<polygon fill="white" stroke="#bfbfbf" points="139.5,-218.5 139.5,-235.5 175.5,-235.5 175.5,-218.5 139.5,-218.5"/>
<text text-anchor="middle" x="157.5" y="-225.1" font-family="Helvetica,sans-Serif" font-size="8.00">gid_t</text>
</a>
</g>
</g>
<!-- Node10&#45;&gt;Node5 -->
<g id="edge9" class="edge">
<title>Node10&#45;&gt;Node5</title>
<path fill="none" stroke="#9a32cd" stroke-dasharray="5,2" d="M185.66,-231.56C206.13,-235.06 234.87,-240.11 260,-245 268.74,-246.7 278.1,-248.63 286.96,-250.49"/>
<polygon fill="#9a32cd" stroke="#9a32cd" points="186.22,-228.11 175.77,-229.88 185.05,-235.01 186.22,-228.11"/>
<text text-anchor="middle" x="232.5" y="-247.6" font-family="Helvetica,sans-Serif" font-size="8.00"> m_group_id</text>
</g>
<!-- Node11 -->
<g id="node11" class="node">
<title>Node11</title>
<g id="a_node11"><a xlink:title=" ">
<polygon fill="white" stroke="#bfbfbf" points="278,-205 278,-231 376,-231 376,-205 278,-205"/>
<text text-anchor="start" x="286" y="-220.6" font-family="Helvetica,sans-Serif" font-size="8.00">unordered_set&lt; std</text>
<text text-anchor="middle" x="327" y="-211.6" font-family="Helvetica,sans-Serif" font-size="8.00">::string &gt;</text>
</a>
</g>
</g>
<!-- Node11&#45;&gt;Node4 -->
<g id="edge10" class="edge">
<title>Node11&#45;&gt;Node4</title>
<path fill="none" stroke="#9a32cd" stroke-dasharray="5,2" d="M386.39,-221.21C417.47,-223.01 456.33,-225.41 491,-228 497.91,-228.52 505.15,-229.1 512.33,-229.7"/>
<polygon fill="#9a32cd" stroke="#9a32cd" points="386.35,-217.7 376.17,-220.62 385.95,-224.69 386.35,-217.7"/>
<text text-anchor="middle" x="442.5" y="-230.6" font-family="Helvetica,sans-Serif" font-size="8.00"> m_allowed_client_apps</text>
</g>
<!-- Node12 -->
<g id="node12" class="node">
<title>Node12</title>
<g id="a_node12"><a xlink:title=" ">
<polygon fill="white" stroke="#bfbfbf" points="282.5,-168.5 282.5,-185.5 371.5,-185.5 371.5,-168.5 282.5,-168.5"/>
<text text-anchor="middle" x="327" y="-175.1" font-family="Helvetica,sans-Serif" font-size="8.00">Permissions_level</text>
</a>
</g>
</g>
<!-- Node12&#45;&gt;Node4 -->
<g id="edge12" class="edge">
<title>Node12&#45;&gt;Node4</title>
<path fill="none" stroke="#9a32cd" stroke-dasharray="5,2" d="M382.1,-175.72C415.11,-176.97 457.29,-182.31 491,-199 501.14,-204.02 499.27,-211.23 509,-217 515.6,-220.91 523.11,-224.03 530.57,-226.48"/>
<polygon fill="#9a32cd" stroke="#9a32cd" points="381.82,-172.21 371.73,-175.45 381.63,-179.21 381.82,-172.21"/>
<text text-anchor="start" x="399" y="-210.6" font-family="Helvetica,sans-Serif" font-size="8.00"> m_permissions_level</text>
<text text-anchor="middle" x="442.5" y="-201.6" font-family="Helvetica,sans-Serif" font-size="8.00">_for_client_apps</text>
</g>
<!-- Node13 -->
<g id="node13" class="node">
<title>Node13</title>
<g id="a_node13"><a xlink:title=" ">
<polygon fill="white" stroke="#bfbfbf" points="524,-181 524,-207 619,-207 619,-181 524,-181"/>
<text text-anchor="start" x="532" y="-196.6" font-family="Helvetica,sans-Serif" font-size="8.00">Session_server_obj</text>
<text text-anchor="middle" x="571.5" y="-187.6" font-family="Helvetica,sans-Serif" font-size="8.00"> *const</text>
</a>
</g>
</g>
<!-- Node13&#45;&gt;Node1 -->
<g id="edge13" class="edge">
<title>Node13&#45;&gt;Node1</title>
<path fill="none" stroke="#9a32cd" stroke-dasharray="5,2" d="M629.37,-189.57C672.15,-186.24 730.87,-181.66 775.76,-178.16"/>
<polygon fill="#9a32cd" stroke="#9a32cd" points="628.83,-186.1 619.14,-190.37 629.38,-193.08 628.83,-186.1"/>
<text text-anchor="middle" x="705" y="-189.6" font-family="Helvetica,sans-Serif" font-size="8.00"> m_this_session_srv</text>
</g>
<!-- Node14 -->
<g id="node14" class="node">
<title>Node14</title>
<g id="a_node14"><a xlink:title=" ">
<polygon fill="white" stroke="#bfbfbf" points="537,-144.5 537,-161.5 606,-161.5 606,-144.5 537,-144.5"/>
<text text-anchor="middle" x="571.5" y="-151.1" font-family="Helvetica,sans-Serif" font-size="8.00">Master_set &amp;</text>
</a>
</g>
</g>
<!-- Node14&#45;&gt;Node1 -->
<g id="edge14" class="edge">
<title>Node14&#45;&gt;Node1</title>
<path fill="none" stroke="#9a32cd" stroke-dasharray="5,2" d="M616.17,-154.56C653.79,-156.09 709.54,-158.81 758,-163 763.71,-163.49 769.62,-164.07 775.56,-164.69"/>
<polygon fill="#9a32cd" stroke="#9a32cd" points="616.19,-151.06 606.06,-154.16 615.91,-158.05 616.19,-151.06"/>
<text text-anchor="middle" x="705" y="-165.6" font-family="Helvetica,sans-Serif" font-size="8.00"> m_cli_app_master_set_ref</text>
</g>
<!-- Node15 -->
<g id="node15" class="node">
<title>Node15</title>
<g id="a_node15"><a xlink:title=" ">
<polygon fill="white" stroke="#bfbfbf" points="509,-90.5 509,-125.5 634,-125.5 634,-90.5 509,-90.5"/>
<text text-anchor="start" x="517" y="-115.1" font-family="Helvetica,sans-Serif" font-size="8.00">const Function&lt; Error</text>
<text text-anchor="start" x="517" y="-106.1" font-family="Helvetica,sans-Serif" font-size="8.00">_code(const ipc::session</text>
<text text-anchor="middle" x="571.5" y="-97.1" font-family="Helvetica,sans-Serif" font-size="8.00">::Client_app &amp;client_app)&gt;</text>
</a>
</g>
</g>
<!-- Node15&#45;&gt;Node1 -->
<g id="edge15" class="edge">
<title>Node15&#45;&gt;Node1</title>
<path fill="none" stroke="#9a32cd" stroke-dasharray="5,2" d="M644.08,-118.81C678.77,-124.74 720.86,-132.93 758,-143 770.85,-146.48 784.55,-151.01 797.07,-155.49"/>
<polygon fill="#9a32cd" stroke="#9a32cd" points="644.48,-115.33 634.04,-117.13 643.32,-122.23 644.48,-115.33"/>
<text text-anchor="middle" x="705" y="-145.6" font-family="Helvetica,sans-Serif" font-size="8.00"> m_per_app_setup_func</text>
</g>
<!-- Node16 -->
<g id="node16" class="node">
<title>Node16</title>
<g id="a_node16"><a xlink:title=" ">
<polygon fill="white" stroke="#bfbfbf" points="517,-36.5 517,-71.5 626,-71.5 626,-36.5 517,-36.5"/>
<text text-anchor="start" x="525" y="-61.1" font-family="Helvetica,sans-Serif" font-size="8.00">optional&lt; ipc::session</text>
<text text-anchor="start" x="525" y="-52.1" font-family="Helvetica,sans-Serif" font-size="8.00">::Session_server_impl</text>
<text text-anchor="middle" x="571.5" y="-43.1" font-family="Helvetica,sans-Serif" font-size="8.00">::State &gt;</text>
</a>
</g>
</g>
<!-- Node16&#45;&gt;Node1 -->
<g id="edge16" class="edge">
<title>Node16&#45;&gt;Node1</title>
<path fill="none" stroke="#9a32cd" stroke-dasharray="5,2" d="M636.25,-65.79C673.13,-74.16 719.69,-87.44 758,-107 782.94,-119.74 807.68,-140.41 823.79,-155.23"/>
<polygon fill="#9a32cd" stroke="#9a32cd" points="636.63,-62.29 626.11,-63.56 635.13,-69.13 636.63,-62.29"/>
<text text-anchor="middle" x="705" y="-109.6" font-family="Helvetica,sans-Serif" font-size="8.00"> m_state</text>
</g>
<!-- Node17 -->
<g id="node17" class="node">
<title>Node17</title>
<g id="a_node17"><a xlink:href="classFunction_3_01void_07_08_4.html" target="_top" xlink:title=" ">
<polygon fill="white" stroke="#bfbfbf" points="526,-0.5 526,-17.5 617,-17.5 617,-0.5 526,-0.5"/>
<text text-anchor="middle" x="571.5" y="-7.1" font-family="Helvetica,sans-Serif" font-size="8.00">Function&lt; void()&gt;</text>
</a>
</g>
</g>
<!-- Node17&#45;&gt;Node1 -->
<g id="edge17" class="edge">
<title>Node17&#45;&gt;Node1</title>
<path fill="none" stroke="#9a32cd" stroke-dasharray="5,2" d="M627.15,-13.28C666.42,-18.58 719.07,-30.44 758,-57 795.18,-82.36 821.78,-129.85 834.17,-155.49"/>
<polygon fill="#9a32cd" stroke="#9a32cd" points="627.58,-9.81 617.22,-12.04 626.71,-16.75 627.58,-9.81"/>
<text text-anchor="middle" x="705" y="-59.6" font-family="Helvetica,sans-Serif" font-size="8.00"> m_deinit_func_or_empty</text>
</g>
</g>
</svg>
