<?xml version="1.0" encoding="UTF-8" standalone="no"?>
<!DOCTYPE svg PUBLIC "-//W3C//DTD SVG 1.1//EN"
 "http://www.w3.org/Graphics/SVG/1.1/DTD/svg11.dtd">
<!-- Generated by graphviz version 2.43.0 (0)
 -->
<!-- Title: ipc::util::Shared_name::operator+= Pages: 1 -->
<svg width="264pt" height="53pt"
 viewBox="0.00 0.00 264.00 53.00" xmlns="http://www.w3.org/2000/svg" xmlns:xlink="http://www.w3.org/1999/xlink">
<g id="graph0" class="graph" transform="scale(1 1) rotate(0) translate(4 49)">
<title>ipc::util::Shared_name::operator+=</title>
<polygon fill="white" stroke="transparent" points="-4,4 -4,-49 260,-49 260,4 -4,4"/>
<!-- Node1 -->
<g id="node1" class="node">
<title>Node1</title>
<g id="a_node1"><a xlink:title="Appends the given other Shared_name.">
<polygon fill="#bfbfbf" stroke="black" points="146,-0.5 146,-26.5 256,-26.5 256,-0.5 146,-0.5"/>
<text text-anchor="start" x="154" y="-16.1" font-family="Helvetica,sans-Serif" font-size="8.00">ipc::util::Shared_name</text>
<text text-anchor="middle" x="201" y="-7.1" font-family="Helvetica,sans-Serif" font-size="8.00">::operator+=</text>
</a>
</g>
</g>
<!-- Node1&#45;&gt;Node1 -->
<g id="edge1" class="edge">
<title>Node1&#45;&gt;Node1</title>
<path fill="none" stroke="midnightblue" d="M227.28,-36.94C224.36,-41.64 215.6,-45 201,-45 177.05,-45 168.81,-35.96 176.3,-26.77"/>
<polygon fill="midnightblue" stroke="midnightblue" points="230.69,-36.12 225.7,-26.77 223.77,-37.19 230.69,-36.12"/>
</g>
<!-- Node2 -->
<g id="node2" class="node">
<title>Node2</title>
<g id="a_node2"><a xlink:href="classipc_1_1util_1_1Shared__name.html#a762bda2d73b31c9427c05c7c1a7abbcb" target="_top" xlink:title="Simply appends a folder separator followed by raw_name_to_append to the current value of str().">
<polygon fill="white" stroke="black" points="0,-0.5 0,-26.5 110,-26.5 110,-0.5 0,-0.5"/>
<text text-anchor="start" x="8" y="-16.1" font-family="Helvetica,sans-Serif" font-size="8.00">ipc::util::Shared_name</text>
<text text-anchor="middle" x="55" y="-7.1" font-family="Helvetica,sans-Serif" font-size="8.00">::operator/=</text>
</a>
</g>
</g>
<!-- Node1&#45;&gt;Node2 -->
<g id="edge2" class="edge">
<title>Node1&#45;&gt;Node2</title>
<path fill="none" stroke="midnightblue" d="M135.73,-13.5C127.25,-13.5 118.62,-13.5 110.33,-13.5"/>
<polygon fill="midnightblue" stroke="midnightblue" points="135.97,-17 145.97,-13.5 135.97,-10 135.97,-17"/>
</g>
</g>
</svg>
