<?xml version="1.0" encoding="UTF-8" standalone="no"?>
<!DOCTYPE svg PUBLIC "-//W3C//DTD SVG 1.1//EN"
 "http://www.w3.org/Graphics/SVG/1.1/DTD/svg11.dtd">
<!-- Generated by graphviz version 2.43.0 (0)
 -->
<!-- Title: ipc::transport::Posix_mq_handle::handle_mq_api_result Pages: 1 -->
<svg width="447pt" height="503pt"
 viewBox="0.00 0.00 447.00 503.00" xmlns="http://www.w3.org/2000/svg" xmlns:xlink="http://www.w3.org/1999/xlink">
<g id="graph0" class="graph" transform="scale(1 1) rotate(0) translate(4 499)">
<title>ipc::transport::Posix_mq_handle::handle_mq_api_result</title>
<polygon fill="white" stroke="transparent" points="-4,4 -4,-499 443,-499 443,4 -4,4"/>
<!-- Node1 -->
<g id="node1" class="node">
<title>Node1</title>
<g id="a_node1"><a xlink:title="Helper that handles the result of an mq_*() call by logging WARNING(s) on error; setting *err_code on...">
<polygon fill="#bfbfbf" stroke="black" points="323,-248 323,-283 439,-283 439,-248 323,-248"/>
<text text-anchor="start" x="331" y="-272.6" font-family="Helvetica,sans-Serif" font-size="8.00">ipc::transport::Posix</text>
<text text-anchor="start" x="331" y="-263.6" font-family="Helvetica,sans-Serif" font-size="8.00">_mq_handle::handle_mq</text>
<text text-anchor="middle" x="381" y="-254.6" font-family="Helvetica,sans-Serif" font-size="8.00">_api_result</text>
</a>
</g>
</g>
<!-- Node2 -->
<g id="node2" class="node">
<title>Node2</title>
<g id="a_node2"><a xlink:href="classipc_1_1transport_1_1Posix__mq__handle.html#a412e7c922909eeb5707bb0abe6e27a76" target="_top" xlink:title="Implements Persistent_mq_handle API: Returns the max message size of the underlying queue.">
<polygon fill="white" stroke="black" points="151,-468.5 151,-494.5 281,-494.5 281,-468.5 151,-468.5"/>
<text text-anchor="start" x="159" y="-484.1" font-family="Helvetica,sans-Serif" font-size="8.00">ipc::transport::Posix</text>
<text text-anchor="middle" x="216" y="-475.1" font-family="Helvetica,sans-Serif" font-size="8.00">_mq_handle::max_msg_size</text>
</a>
</g>
</g>
<!-- Node1&#45;&gt;Node2 -->
<g id="edge1" class="edge">
<title>Node1&#45;&gt;Node2</title>
<path fill="none" stroke="midnightblue" d="M374.22,-292.91C363.98,-334.84 338.65,-414.73 287,-459.5 282.96,-463 278.36,-465.95 273.49,-468.43"/>
<polygon fill="midnightblue" stroke="midnightblue" points="377.65,-293.65 376.51,-283.12 370.83,-292.06 377.65,-293.65"/>
</g>
<!-- Node3 -->
<g id="node3" class="node">
<title>Node3</title>
<g id="a_node3"><a xlink:href="classipc_1_1transport_1_1Posix__mq__handle.html#a514dbdda12ec70ea1ff65abfa6237ce2" target="_top" xlink:title="Implements Persistent_mq_handle API: Returns the max message count of the underlying queue.">
<polygon fill="white" stroke="black" points="154.5,-423.5 154.5,-449.5 277.5,-449.5 277.5,-423.5 154.5,-423.5"/>
<text text-anchor="start" x="162.5" y="-439.1" font-family="Helvetica,sans-Serif" font-size="8.00">ipc::transport::Posix</text>
<text text-anchor="middle" x="216" y="-430.1" font-family="Helvetica,sans-Serif" font-size="8.00">_mq_handle::max_n_msgs</text>
</a>
</g>
</g>
<!-- Node1&#45;&gt;Node3 -->
<g id="edge2" class="edge">
<title>Node1&#45;&gt;Node3</title>
<path fill="none" stroke="midnightblue" d="M369.97,-292.62C356.26,-326.05 328.52,-382.36 287,-414.5 282.47,-418.01 277.36,-420.96 272.03,-423.45"/>
<polygon fill="midnightblue" stroke="midnightblue" points="373.34,-293.62 373.78,-283.03 366.84,-291.04 373.34,-293.62"/>
</g>
<!-- Node4 -->
<g id="node4" class="node">
<title>Node4</title>
<g id="a_node4"><a xlink:href="classipc_1_1transport_1_1Posix__mq__handle.html#a65f35bfe249b13dc3bc0442d10a55a0f" target="_top" xlink:title="Implements Persistent_mq_handle API: Blocking receive: pops copy of message from queue into buffer; i...">
<polygon fill="white" stroke="black" points="165.5,-360.5 165.5,-386.5 266.5,-386.5 266.5,-360.5 165.5,-360.5"/>
<text text-anchor="start" x="173.5" y="-376.1" font-family="Helvetica,sans-Serif" font-size="8.00">ipc::transport::Posix</text>
<text text-anchor="middle" x="216" y="-367.1" font-family="Helvetica,sans-Serif" font-size="8.00">_mq_handle::receive</text>
</a>
</g>
</g>
<!-- Node1&#45;&gt;Node4 -->
<g id="edge3" class="edge">
<title>Node1&#45;&gt;Node4</title>
<path fill="none" stroke="midnightblue" d="M358.59,-290.61C341.08,-309.72 314.76,-335.41 287,-351.5 280.72,-355.14 273.76,-358.25 266.75,-360.89"/>
<polygon fill="midnightblue" stroke="midnightblue" points="361.23,-292.91 365.31,-283.13 356.02,-288.23 361.23,-292.91"/>
</g>
<!-- Node5 -->
<g id="node5" class="node">
<title>Node5</title>
<g id="a_node5"><a xlink:href="classipc_1_1transport_1_1Posix__mq__handle.html#a6e9b11537c7c83f43728aca7af348a42" target="_top" xlink:title="Implements Persistent_mq_handle API: Blocking send: pushes copy of message to queue; if queue is full...">
<polygon fill="white" stroke="black" points="166.5,-297.5 166.5,-323.5 265.5,-323.5 265.5,-297.5 166.5,-297.5"/>
<text text-anchor="start" x="174.5" y="-313.1" font-family="Helvetica,sans-Serif" font-size="8.00">ipc::transport::Posix</text>
<text text-anchor="middle" x="216" y="-304.1" font-family="Helvetica,sans-Serif" font-size="8.00">_mq_handle::send</text>
</a>
</g>
</g>
<!-- Node1&#45;&gt;Node5 -->
<g id="edge5" class="edge">
<title>Node1&#45;&gt;Node5</title>
<path fill="none" stroke="midnightblue" d="M312.94,-284.01C296.6,-288.52 279.46,-293.26 264.27,-297.45"/>
<polygon fill="midnightblue" stroke="midnightblue" points="314.28,-287.27 322.99,-281.24 312.42,-280.53 314.28,-287.27"/>
</g>
<!-- Node6 -->
<g id="node6" class="node">
<title>Node6</title>
<g id="a_node6"><a xlink:href="classipc_1_1transport_1_1Posix__mq__handle.html#ab68150c87931f6eb32d0908049e4dac6" target="_top" xlink:title="Sets m_mq to blocking or non&#45;blocking and returns true on success and clears *err_code; otherwise ret...">
<polygon fill="white" stroke="black" points="145,-252.5 145,-278.5 287,-278.5 287,-252.5 145,-252.5"/>
<text text-anchor="start" x="153" y="-268.1" font-family="Helvetica,sans-Serif" font-size="8.00">ipc::transport::Posix</text>
<text text-anchor="middle" x="216" y="-259.1" font-family="Helvetica,sans-Serif" font-size="8.00">_mq_handle::set_non_blocking</text>
</a>
</g>
</g>
<!-- Node1&#45;&gt;Node6 -->
<g id="edge7" class="edge">
<title>Node1&#45;&gt;Node6</title>
<path fill="none" stroke="midnightblue" d="M312.8,-265.5C304.34,-265.5 295.67,-265.5 287.17,-265.5"/>
<polygon fill="midnightblue" stroke="midnightblue" points="312.99,-269 322.99,-265.5 312.99,-262 312.99,-269"/>
</g>
<!-- Node8 -->
<g id="node8" class="node">
<title>Node8</title>
<g id="a_node8"><a xlink:href="classipc_1_1transport_1_1Posix__mq__handle.html#aa853452d0d0aeeaf61461cc8a48b5c09" target="_top" xlink:title="Implements Persistent_mq_handle API: Blocking timed receive: pops copy of message from queue into buf...">
<polygon fill="white" stroke="black" points="152,-189.5 152,-215.5 280,-215.5 280,-189.5 152,-189.5"/>
<text text-anchor="start" x="160" y="-205.1" font-family="Helvetica,sans-Serif" font-size="8.00">ipc::transport::Posix</text>
<text text-anchor="middle" x="216" y="-196.1" font-family="Helvetica,sans-Serif" font-size="8.00">_mq_handle::timed_receive</text>
</a>
</g>
</g>
<!-- Node1&#45;&gt;Node8 -->
<g id="edge9" class="edge">
<title>Node1&#45;&gt;Node8</title>
<path fill="none" stroke="midnightblue" d="M325.02,-244.25C300.42,-234.74 272.21,-223.84 250.79,-215.56"/>
<polygon fill="midnightblue" stroke="midnightblue" points="324.01,-247.61 334.6,-247.95 326.53,-241.08 324.01,-247.61"/>
</g>
<!-- Node9 -->
<g id="node9" class="node">
<title>Node9</title>
<g id="a_node9"><a xlink:href="classipc_1_1transport_1_1Posix__mq__handle.html#abe2b3968c60945224ddfce119bcae018" target="_top" xlink:title="Implements Persistent_mq_handle API: Blocking timed send: pushes copy of message to queue; if queue i...">
<polygon fill="white" stroke="black" points="156.5,-126.5 156.5,-152.5 275.5,-152.5 275.5,-126.5 156.5,-126.5"/>
<text text-anchor="start" x="164.5" y="-142.1" font-family="Helvetica,sans-Serif" font-size="8.00">ipc::transport::Posix</text>
<text text-anchor="middle" x="216" y="-133.1" font-family="Helvetica,sans-Serif" font-size="8.00">_mq_handle::timed_send</text>
</a>
</g>
</g>
<!-- Node1&#45;&gt;Node9 -->
<g id="edge11" class="edge">
<title>Node1&#45;&gt;Node9</title>
<path fill="none" stroke="midnightblue" d="M355.54,-240.48C337.47,-222.68 311.8,-198.78 287,-180.5 272.83,-170.05 255.81,-160.03 242.1,-152.52"/>
<polygon fill="midnightblue" stroke="midnightblue" points="353.24,-243.13 362.8,-247.7 358.18,-238.17 353.24,-243.13"/>
</g>
<!-- Node10 -->
<g id="node10" class="node">
<title>Node10</title>
<g id="a_node10"><a xlink:href="classipc_1_1transport_1_1Posix__mq__handle.html#abe9a423ceda292d5b01b54039102170b" target="_top" xlink:title="Implements Persistent_mq_handle API: Non&#45;blocking receive: pops copy of message from queue into buffe...">
<polygon fill="white" stroke="black" points="158,-63.5 158,-89.5 274,-89.5 274,-63.5 158,-63.5"/>
<text text-anchor="start" x="166" y="-79.1" font-family="Helvetica,sans-Serif" font-size="8.00">ipc::transport::Posix</text>
<text text-anchor="middle" x="216" y="-70.1" font-family="Helvetica,sans-Serif" font-size="8.00">_mq_handle::try_receive</text>
</a>
</g>
</g>
<!-- Node1&#45;&gt;Node10 -->
<g id="edge13" class="edge">
<title>Node1&#45;&gt;Node10</title>
<path fill="none" stroke="midnightblue" d="M367.96,-238.47C352.72,-206.55 323.93,-153.29 287,-117.5 275.27,-106.13 259.8,-96.65 246.38,-89.67"/>
<polygon fill="midnightblue" stroke="midnightblue" points="364.85,-240.07 372.25,-247.65 371.19,-237.11 364.85,-240.07"/>
</g>
<!-- Node11 -->
<g id="node11" class="node">
<title>Node11</title>
<g id="a_node11"><a xlink:href="classipc_1_1transport_1_1Posix__mq__handle.html#a5787b3fe1eb2a7f5f6abda8b9536529b" target="_top" xlink:title="Implements Persistent_mq_handle API: Non&#45;blocking send: pushes copy of message to queue and returns t...">
<polygon fill="white" stroke="black" points="163,-0.5 163,-26.5 269,-26.5 269,-0.5 163,-0.5"/>
<text text-anchor="start" x="171" y="-16.1" font-family="Helvetica,sans-Serif" font-size="8.00">ipc::transport::Posix</text>
<text text-anchor="middle" x="216" y="-7.1" font-family="Helvetica,sans-Serif" font-size="8.00">_mq_handle::try_send</text>
</a>
</g>
</g>
<!-- Node1&#45;&gt;Node11 -->
<g id="edge15" class="edge">
<title>Node1&#45;&gt;Node11</title>
<path fill="none" stroke="midnightblue" d="M373.75,-238.08C362.7,-194.71 336.09,-109.58 287,-54.5 276.5,-42.73 261.79,-33.41 248.57,-26.65"/>
<polygon fill="midnightblue" stroke="midnightblue" points="370.39,-239.04 376.18,-247.92 377.18,-237.37 370.39,-239.04"/>
</g>
<!-- Node4&#45;&gt;Node4 -->
<g id="edge4" class="edge">
<title>Node4&#45;&gt;Node4</title>
<path fill="none" stroke="midnightblue" d="M244.8,-396.94C241.6,-401.64 232,-405 216,-405 189.75,-405 180.73,-395.96 188.93,-386.77"/>
<polygon fill="midnightblue" stroke="midnightblue" points="248.2,-396.04 243.07,-386.77 241.29,-397.22 248.2,-396.04"/>
</g>
<!-- Node5&#45;&gt;Node5 -->
<g id="edge6" class="edge">
<title>Node5&#45;&gt;Node5</title>
<path fill="none" stroke="midnightblue" d="M244.8,-333.94C241.6,-338.64 232,-342 216,-342 189.75,-342 180.73,-332.96 188.93,-323.77"/>
<polygon fill="midnightblue" stroke="midnightblue" points="248.2,-333.04 243.07,-323.77 241.29,-334.22 248.2,-333.04"/>
</g>
<!-- Node7 -->
<g id="node7" class="node">
<title>Node7</title>
<g id="a_node7"><a xlink:href="classipc_1_1transport_1_1Posix__mq__handle.html#af5471cf5d7a11cf725e291fad962a636" target="_top" xlink:title="Helper ctor delegated by the 2 public ctors that take Open_or_create or Create_only mode.">
<polygon fill="white" stroke="black" points="0,-248 0,-283 109,-283 109,-248 0,-248"/>
<text text-anchor="start" x="8" y="-272.6" font-family="Helvetica,sans-Serif" font-size="8.00">ipc::transport::Posix</text>
<text text-anchor="start" x="8" y="-263.6" font-family="Helvetica,sans-Serif" font-size="8.00">_mq_handle::Posix_mq</text>
<text text-anchor="middle" x="54.5" y="-254.6" font-family="Helvetica,sans-Serif" font-size="8.00">_handle</text>
</a>
</g>
</g>
<!-- Node6&#45;&gt;Node7 -->
<g id="edge8" class="edge">
<title>Node6&#45;&gt;Node7</title>
<path fill="none" stroke="midnightblue" d="M134.54,-265.5C125.97,-265.5 117.41,-265.5 109.26,-265.5"/>
<polygon fill="midnightblue" stroke="midnightblue" points="134.58,-269 144.58,-265.5 134.58,-262 134.58,-269"/>
</g>
<!-- Node8&#45;&gt;Node8 -->
<g id="edge10" class="edge">
<title>Node8&#45;&gt;Node8</title>
<path fill="none" stroke="midnightblue" d="M244.8,-225.94C241.6,-230.64 232,-234 216,-234 189.75,-234 180.73,-224.96 188.93,-215.77"/>
<polygon fill="midnightblue" stroke="midnightblue" points="248.2,-225.04 243.07,-215.77 241.29,-226.22 248.2,-225.04"/>
</g>
<!-- Node9&#45;&gt;Node9 -->
<g id="edge12" class="edge">
<title>Node9&#45;&gt;Node9</title>
<path fill="none" stroke="midnightblue" d="M244.8,-162.94C241.6,-167.64 232,-171 216,-171 189.75,-171 180.73,-161.96 188.93,-152.77"/>
<polygon fill="midnightblue" stroke="midnightblue" points="248.2,-162.04 243.07,-152.77 241.29,-163.22 248.2,-162.04"/>
</g>
<!-- Node10&#45;&gt;Node10 -->
<g id="edge14" class="edge">
<title>Node10&#45;&gt;Node10</title>
<path fill="none" stroke="midnightblue" d="M244.8,-99.94C241.6,-104.64 232,-108 216,-108 189.75,-108 180.73,-98.96 188.93,-89.77"/>
<polygon fill="midnightblue" stroke="midnightblue" points="248.2,-99.04 243.07,-89.77 241.29,-100.22 248.2,-99.04"/>
</g>
<!-- Node11&#45;&gt;Node11 -->
<g id="edge16" class="edge">
<title>Node11&#45;&gt;Node11</title>
<path fill="none" stroke="midnightblue" d="M244.8,-36.94C241.6,-41.64 232,-45 216,-45 189.75,-45 180.73,-35.96 188.93,-26.77"/>
<polygon fill="midnightblue" stroke="midnightblue" points="248.2,-36.04 243.07,-26.77 241.29,-37.22 248.2,-36.04"/>
</g>
</g>
</svg>
