<?xml version="1.0" encoding="UTF-8" standalone="no"?>
<!DOCTYPE svg PUBLIC "-//W3C//DTD SVG 1.1//EN"
 "http://www.w3.org/Graphics/SVG/1.1/DTD/svg11.dtd">
<!-- Generated by graphviz version 2.43.0 (0)
 -->
<!-- Title: ipc::transport::sync_io::Blob_stream_mq_sender::replace_event_wait_handles Pages: 1 -->
<svg width="325pt" height="44pt"
 viewBox="0.00 0.00 325.00 44.00" xmlns="http://www.w3.org/2000/svg" xmlns:xlink="http://www.w3.org/1999/xlink">
<g id="graph0" class="graph" transform="scale(1 1) rotate(0) translate(4 40)">
<title>ipc::transport::sync_io::Blob_stream_mq_sender::replace_event_wait_handles</title>
<polygon fill="white" stroke="transparent" points="-4,4 -4,-40 321,-40 321,4 -4,4"/>
<!-- Node1 -->
<g id="node1" class="node">
<title>Node1</title>
<g id="a_node1"><a xlink:title="Implements Blob_sender API per contract.">
<polygon fill="#bfbfbf" stroke="black" points="179,-0.5 179,-35.5 317,-35.5 317,-0.5 179,-0.5"/>
<text text-anchor="start" x="187" y="-25.1" font-family="Helvetica,sans-Serif" font-size="8.00">ipc::transport::sync</text>
<text text-anchor="start" x="187" y="-16.1" font-family="Helvetica,sans-Serif" font-size="8.00">_io::Blob_stream_mq_sender</text>
<text text-anchor="middle" x="248" y="-7.1" font-family="Helvetica,sans-Serif" font-size="8.00">::replace_event_wait_handles</text>
</a>
</g>
</g>
<!-- Node2 -->
<g id="node2" class="node">
<title>Node2</title>
<g id="a_node2"><a xlink:href="classipc_1_1transport_1_1Blob__stream__mq__sender__impl.html#a13aedec368cb3b736b03656b056cbee2" target="_top" xlink:title="See Blob_stream_mq_sender counterpart.">
<polygon fill="white" stroke="black" points="0,-0.5 0,-35.5 143,-35.5 143,-0.5 0,-0.5"/>
<text text-anchor="start" x="8" y="-25.1" font-family="Helvetica,sans-Serif" font-size="8.00">ipc::transport::Blob</text>
<text text-anchor="start" x="8" y="-16.1" font-family="Helvetica,sans-Serif" font-size="8.00">_stream_mq_sender_impl</text>
<text text-anchor="middle" x="71.5" y="-7.1" font-family="Helvetica,sans-Serif" font-size="8.00">::Blob_stream_mq_sender_impl</text>
</a>
</g>
</g>
<!-- Node1&#45;&gt;Node2 -->
<g id="edge1" class="edge">
<title>Node1&#45;&gt;Node2</title>
<path fill="none" stroke="midnightblue" d="M168.57,-18C160.14,-18 151.59,-18 143.26,-18"/>
<polygon fill="midnightblue" stroke="midnightblue" points="168.78,-21.5 178.78,-18 168.78,-14.5 168.78,-21.5"/>
</g>
</g>
</svg>
