<?xml version="1.0" encoding="UTF-8" standalone="no"?>
<!DOCTYPE svg PUBLIC "-//W3C//DTD SVG 1.1//EN"
 "http://www.w3.org/Graphics/SVG/1.1/DTD/svg11.dtd">
<!-- Generated by graphviz version 2.43.0 (0)
 -->
<!-- Title: ipc::transport::Channel&lt; Blob_sender, Blob_receiver, Native_handle_sender, Native_handle_receiver &gt; Pages: 1 -->
<svg width="148pt" height="107pt"
 viewBox="0.00 0.00 148.00 107.00" xmlns="http://www.w3.org/2000/svg" xmlns:xlink="http://www.w3.org/1999/xlink">
<g id="graph0" class="graph" transform="scale(1 1) rotate(0) translate(4 103)">
<title>ipc::transport::Channel&lt; Blob_sender, Blob_receiver, Native_handle_sender, Native_handle_receiver &gt;</title>
<polygon fill="white" stroke="transparent" points="-4,4 -4,-103 144,-103 144,4 -4,4"/>
<!-- Node1 -->
<g id="node1" class="node">
<title>Node1</title>
<g id="a_node1"><a xlink:title="Peer to a bundle of 1&#45;2 full&#45;duplex pipe(s), one for transmitting unstructured binary blobs; the othe...">
<polygon fill="#bfbfbf" stroke="black" points="0,-0.5 0,-44.5 140,-44.5 140,-0.5 0,-0.5"/>
<text text-anchor="start" x="8" y="-34.1" font-family="Helvetica,sans-Serif" font-size="8.00">ipc::transport::Channel</text>
<text text-anchor="start" x="8" y="-25.1" font-family="Helvetica,sans-Serif" font-size="8.00">&lt; Blob_sender, Blob_receiver,</text>
<text text-anchor="start" x="8" y="-16.1" font-family="Helvetica,sans-Serif" font-size="8.00"> Native_handle_sender, Native</text>
<text text-anchor="middle" x="70" y="-7.1" font-family="Helvetica,sans-Serif" font-size="8.00">_handle_receiver &gt;</text>
</a>
</g>
</g>
<!-- Node2 -->
<g id="node2" class="node">
<title>Node2</title>
<g id="a_node2"><a xlink:title=" ">
<polygon fill="white" stroke="#bfbfbf" points="16.5,-81.5 16.5,-98.5 123.5,-98.5 123.5,-81.5 16.5,-81.5"/>
<text text-anchor="middle" x="70" y="-88.1" font-family="Helvetica,sans-Serif" font-size="8.00">flow::log::Log_context</text>
</a>
</g>
</g>
<!-- Node2&#45;&gt;Node1 -->
<g id="edge1" class="edge">
<title>Node2&#45;&gt;Node1</title>
<path fill="none" stroke="midnightblue" d="M70,-71.23C70,-63.02 70,-53.2 70,-44.6"/>
<polygon fill="midnightblue" stroke="midnightblue" points="66.5,-71.49 70,-81.49 73.5,-71.49 66.5,-71.49"/>
</g>
</g>
</svg>
