<?xml version="1.0" encoding="UTF-8" standalone="no"?>
<!DOCTYPE svg PUBLIC "-//W3C//DTD SVG 1.1//EN"
 "http://www.w3.org/Graphics/SVG/1.1/DTD/svg11.dtd">
<!-- Generated by graphviz version 2.43.0 (0)
 -->
<!-- Title: ipc::transport::struc::Msg_out_impl&lt; Message_body, Struct_builder &gt; Pages: 1 -->
<svg width="136pt" height="116pt"
 viewBox="0.00 0.00 136.00 116.00" xmlns="http://www.w3.org/2000/svg" xmlns:xlink="http://www.w3.org/1999/xlink">
<g id="graph0" class="graph" transform="scale(1 1) rotate(0) translate(4 112)">
<title>ipc::transport::struc::Msg_out_impl&lt; Message_body, Struct_builder &gt;</title>
<polygon fill="white" stroke="transparent" points="-4,4 -4,-112 132,-112 132,4 -4,4"/>
<!-- Node1 -->
<g id="node1" class="node">
<title>Node1</title>
<g id="a_node1"><a xlink:title="Internally used (data&#45;free) addendum on&#45;top of Msg_out which makes the protected API public instead.">
<polygon fill="#bfbfbf" stroke="black" points="2.5,-0.5 2.5,-35.5 125.5,-35.5 125.5,-0.5 2.5,-0.5"/>
<text text-anchor="start" x="10.5" y="-25.1" font-family="Helvetica,sans-Serif" font-size="8.00">ipc::transport::struc</text>
<text text-anchor="start" x="10.5" y="-16.1" font-family="Helvetica,sans-Serif" font-size="8.00">::Msg_out_impl&lt; Message</text>
<text text-anchor="middle" x="64" y="-7.1" font-family="Helvetica,sans-Serif" font-size="8.00">_body, Struct_builder &gt;</text>
</a>
</g>
</g>
<!-- Node2 -->
<g id="node2" class="node">
<title>Node2</title>
<g id="a_node2"><a xlink:href="classipc_1_1transport_1_1struc_1_1Msg__out.html" target="_top" xlink:title=" ">
<polygon fill="white" stroke="black" points="0,-72.5 0,-107.5 128,-107.5 128,-72.5 0,-72.5"/>
<text text-anchor="start" x="8" y="-97.1" font-family="Helvetica,sans-Serif" font-size="8.00">ipc::transport::struc</text>
<text text-anchor="start" x="8" y="-88.1" font-family="Helvetica,sans-Serif" font-size="8.00">::Msg_out&lt; Message_body,</text>
<text text-anchor="middle" x="64" y="-79.1" font-family="Helvetica,sans-Serif" font-size="8.00"> Struct_builder &gt;</text>
</a>
</g>
</g>
<!-- Node2&#45;&gt;Node1 -->
<g id="edge1" class="edge">
<title>Node2&#45;&gt;Node1</title>
<path fill="none" stroke="midnightblue" d="M64,-62.19C64,-53.37 64,-43.83 64,-35.96"/>
<polygon fill="midnightblue" stroke="midnightblue" points="60.5,-62.41 64,-72.41 67.5,-62.41 60.5,-62.41"/>
</g>
</g>
</svg>
