<?xml version="1.0" encoding="UTF-8" standalone="no"?>
<!DOCTYPE svg PUBLIC "-//W3C//DTD SVG 1.1//EN"
 "http://www.w3.org/Graphics/SVG/1.1/DTD/svg11.dtd">
<!-- Generated by graphviz version 2.43.0 (0)
 -->
<!-- Title: ipc::session::Server_session_impl::async_accept_log_in Pages: 1 -->
<svg width="273pt" height="80pt"
 viewBox="0.00 0.00 273.00 80.00" xmlns="http://www.w3.org/2000/svg" xmlns:xlink="http://www.w3.org/1999/xlink">
<g id="graph0" class="graph" transform="scale(1 1) rotate(0) translate(4 76)">
<title>ipc::session::Server_session_impl::async_accept_log_in</title>
<polygon fill="white" stroke="transparent" points="-4,4 -4,-76 269,-76 269,4 -4,4"/>
<!-- Node1 -->
<g id="node1" class="node">
<title>Node1</title>
<g id="a_node1"><a xlink:title="For use by internal user Session_server: See Server_session_mv counterpart.">
<polygon fill="#bfbfbf" stroke="black" points="0,-13.5 0,-48.5 103,-48.5 103,-13.5 0,-13.5"/>
<text text-anchor="start" x="8" y="-38.1" font-family="Helvetica,sans-Serif" font-size="8.00">ipc::session::Server</text>
<text text-anchor="start" x="8" y="-29.1" font-family="Helvetica,sans-Serif" font-size="8.00">_session_impl::async</text>
<text text-anchor="middle" x="51.5" y="-20.1" font-family="Helvetica,sans-Serif" font-size="8.00">_accept_log_in</text>
</a>
</g>
</g>
<!-- Node2 -->
<g id="node2" class="node">
<title>Node2</title>
<g id="a_node2"><a xlink:href="classipc_1_1transport_1_1Socket__stream__channel.html#acad7936d9a7db817bc46ee4fe479d838" target="_top" xlink:title="Identical to Native_socket_stream::remote_peer_process_credentials(): OS&#45;reported process credential ...">
<polygon fill="white" stroke="black" points="139.5,-36.5 139.5,-71.5 264.5,-71.5 264.5,-36.5 139.5,-36.5"/>
<text text-anchor="start" x="147.5" y="-61.1" font-family="Helvetica,sans-Serif" font-size="8.00">ipc::transport::Socket</text>
<text text-anchor="start" x="147.5" y="-52.1" font-family="Helvetica,sans-Serif" font-size="8.00">_stream_channel::remote</text>
<text text-anchor="middle" x="202" y="-43.1" font-family="Helvetica,sans-Serif" font-size="8.00">_peer_process_credentials</text>
</a>
</g>
</g>
<!-- Node1&#45;&gt;Node2 -->
<g id="edge1" class="edge">
<title>Node1&#45;&gt;Node2</title>
<path fill="none" stroke="midnightblue" d="M103.19,-38.85C111.68,-40.17 120.62,-41.55 129.51,-42.93"/>
<polygon fill="midnightblue" stroke="midnightblue" points="129.08,-46.4 139.5,-44.47 130.15,-39.49 129.08,-46.4"/>
</g>
<!-- Node3 -->
<g id="node3" class="node">
<title>Node3</title>
<g id="a_node3"><a xlink:href="classipc_1_1util_1_1Shared__name.html#ae89e1e061f87ffe0288514e254837595" target="_top" xlink:title="Returns (sans copying) ref to immutable entire wrapped name string, suitable to pass into sys calls w...">
<polygon fill="white" stroke="black" points="139,-0.5 139,-17.5 265,-17.5 265,-0.5 139,-0.5"/>
<text text-anchor="middle" x="202" y="-7.1" font-family="Helvetica,sans-Serif" font-size="8.00">ipc::util::Shared_name::str</text>
</a>
</g>
</g>
<!-- Node1&#45;&gt;Node3 -->
<g id="edge2" class="edge">
<title>Node1&#45;&gt;Node3</title>
<path fill="none" stroke="midnightblue" d="M103.19,-23.49C112.89,-22.05 123.2,-20.53 133.34,-19.02"/>
<polygon fill="midnightblue" stroke="midnightblue" points="134.01,-22.46 143.39,-17.53 132.99,-15.54 134.01,-22.46"/>
</g>
</g>
</svg>
