<?xml version="1.0" encoding="UTF-8" standalone="no"?>
<!DOCTYPE svg PUBLIC "-//W3C//DTD SVG 1.1//EN"
 "http://www.w3.org/Graphics/SVG/1.1/DTD/svg11.dtd">
<!-- Generated by graphviz version 2.43.0 (0)
 -->
<!-- Title: ipc::session::Server_session_dtl::base Pages: 1 -->
<svg width="247pt" height="44pt"
 viewBox="0.00 0.00 247.00 44.00" xmlns="http://www.w3.org/2000/svg" xmlns:xlink="http://www.w3.org/1999/xlink">
<g id="graph0" class="graph" transform="scale(1 1) rotate(0) translate(4 40)">
<title>ipc::session::Server_session_dtl::base</title>
<polygon fill="white" stroke="transparent" points="-4,4 -4,-40 243,-40 243,4 -4,4"/>
<!-- Node1 -->
<g id="node1" class="node">
<title>Node1</title>
<g id="a_node1"><a xlink:title="Provides const access to Session_base super&#45;object.">
<polygon fill="#bfbfbf" stroke="black" points="141,-5 141,-31 239,-31 239,-5 141,-5"/>
<text text-anchor="start" x="149" y="-20.6" font-family="Helvetica,sans-Serif" font-size="8.00">ipc::session::Server</text>
<text text-anchor="middle" x="190" y="-11.6" font-family="Helvetica,sans-Serif" font-size="8.00">_session_dtl::base</text>
</a>
</g>
</g>
<!-- Node2 -->
<g id="node2" class="node">
<title>Node2</title>
<g id="a_node2"><a xlink:href="classipc_1_1session_1_1Session__server__impl.html#a9bf4d5502b41c98a98fee4cc3c2f2530" target="_top" xlink:title="See Session_server ctor; it does that.">
<polygon fill="white" stroke="black" points="0,-0.5 0,-35.5 105,-35.5 105,-0.5 0,-0.5"/>
<text text-anchor="start" x="8" y="-25.1" font-family="Helvetica,sans-Serif" font-size="8.00">ipc::session::Session</text>
<text text-anchor="start" x="8" y="-16.1" font-family="Helvetica,sans-Serif" font-size="8.00">_server_impl::Session</text>
<text text-anchor="middle" x="52.5" y="-7.1" font-family="Helvetica,sans-Serif" font-size="8.00">_server_impl</text>
</a>
</g>
</g>
<!-- Node1&#45;&gt;Node2 -->
<g id="edge1" class="edge">
<title>Node1&#45;&gt;Node2</title>
<path fill="none" stroke="midnightblue" d="M130.65,-18C122.17,-18 113.5,-18 105.17,-18"/>
<polygon fill="midnightblue" stroke="midnightblue" points="130.85,-21.5 140.85,-18 130.85,-14.5 130.85,-21.5"/>
</g>
</g>
</svg>
