<?xml version="1.0" encoding="UTF-8" standalone="no"?>
<!DOCTYPE svg PUBLIC "-//W3C//DTD SVG 1.1//EN"
 "http://www.w3.org/Graphics/SVG/1.1/DTD/svg11.dtd">
<!-- Generated by graphviz version 2.43.0 (0)
 -->
<!-- Title: ipc::transport::Native_socket_stream_acceptor::finalize_q_surplus_on_error Pages: 1 -->
<svg width="310pt" height="44pt"
 viewBox="0.00 0.00 310.00 44.00" xmlns="http://www.w3.org/2000/svg" xmlns:xlink="http://www.w3.org/1999/xlink">
<g id="graph0" class="graph" transform="scale(1 1) rotate(0) translate(4 40)">
<title>ipc::transport::Native_socket_stream_acceptor::finalize_q_surplus_on_error</title>
<polygon fill="white" stroke="transparent" points="-4,4 -4,-40 306,-40 306,4 -4,4"/>
<!-- Node1 -->
<g id="node1" class="node">
<title>Node1</title>
<g id="a_node1"><a xlink:title="In thread W, in steady state except for an Error_code just pushed to the back of m_pending_results_q ...">
<polygon fill="#bfbfbf" stroke="black" points="0,-0.5 0,-35.5 133,-35.5 133,-0.5 0,-0.5"/>
<text text-anchor="start" x="8" y="-25.1" font-family="Helvetica,sans-Serif" font-size="8.00">ipc::transport::Native</text>
<text text-anchor="start" x="8" y="-16.1" font-family="Helvetica,sans-Serif" font-size="8.00">_socket_stream_acceptor</text>
<text text-anchor="middle" x="66.5" y="-7.1" font-family="Helvetica,sans-Serif" font-size="8.00">::finalize_q_surplus_on_error</text>
</a>
</g>
</g>
<!-- Node2 -->
<g id="node2" class="node">
<title>Node2</title>
<g id="a_node2"><a xlink:href="classipc_1_1transport_1_1Native__socket__stream__acceptor.html#a8ff2e85b30532cb9778aa43c01931955" target="_top" xlink:title="In thread W, gets back to steady state by feeding the given Error_code (which must be the sole elemen...">
<polygon fill="white" stroke="black" points="169,-0.5 169,-35.5 302,-35.5 302,-0.5 169,-0.5"/>
<text text-anchor="start" x="177" y="-25.1" font-family="Helvetica,sans-Serif" font-size="8.00">ipc::transport::Native</text>
<text text-anchor="start" x="177" y="-16.1" font-family="Helvetica,sans-Serif" font-size="8.00">_socket_stream_acceptor</text>
<text text-anchor="middle" x="235.5" y="-7.1" font-family="Helvetica,sans-Serif" font-size="8.00">::feed_error_result_to_deficit</text>
</a>
</g>
</g>
<!-- Node1&#45;&gt;Node2 -->
<g id="edge1" class="edge">
<title>Node1&#45;&gt;Node2</title>
<path fill="none" stroke="midnightblue" d="M133.02,-18C141.5,-18 150.23,-18 158.85,-18"/>
<polygon fill="midnightblue" stroke="midnightblue" points="158.89,-21.5 168.89,-18 158.89,-14.5 158.89,-21.5"/>
</g>
</g>
</svg>
