<?xml version="1.0" encoding="UTF-8" standalone="no"?>
<!DOCTYPE svg PUBLIC "-//W3C//DTD SVG 1.1//EN"
 "http://www.w3.org/Graphics/SVG/1.1/DTD/svg11.dtd">
<!-- Generated by graphviz version 2.43.0 (0)
 -->
<!-- Title: ipc::session::shm::classic::Client_session_impl&lt; S_MQ_TYPE_OR_NONE, S_TRANSMIT_NATIVE_HANDLES, Mdt_payload &gt; Pages: 1 -->
<svg width="1269pt" height="677pt"
 viewBox="0.00 0.00 1269.00 677.45" xmlns="http://www.w3.org/2000/svg" xmlns:xlink="http://www.w3.org/1999/xlink">
<g id="graph0" class="graph" transform="scale(1 1) rotate(0) translate(4 673.45)">
<title>ipc::session::shm::classic::Client_session_impl&lt; S_MQ_TYPE_OR_NONE, S_TRANSMIT_NATIVE_HANDLES, Mdt_payload &gt;</title>
<polygon fill="white" stroke="transparent" points="-4,4 -4,-673.45 1265,-673.45 1265,4 -4,4"/>
<!-- Node1 -->
<g id="node1" class="node">
<title>Node1</title>
<g id="a_node1"><a xlink:title="Core internally&#45;used implementation of shm::classic::Client_session: it is to the latter what its pub...">
<polygon fill="#bfbfbf" stroke="black" points="1115,-206.95 1115,-259.95 1261,-259.95 1261,-206.95 1115,-206.95"/>
<text text-anchor="start" x="1123" y="-249.55" font-family="Helvetica,sans-Serif" font-size="8.00">ipc::session::shm::</text>
<text text-anchor="start" x="1123" y="-240.55" font-family="Helvetica,sans-Serif" font-size="8.00">classic::Client_session</text>
<text text-anchor="start" x="1123" y="-231.55" font-family="Helvetica,sans-Serif" font-size="8.00">_impl&lt; S_MQ_TYPE_OR_NONE,</text>
<text text-anchor="start" x="1123" y="-222.55" font-family="Helvetica,sans-Serif" font-size="8.00"> S_TRANSMIT_NATIVE_HANDLES,</text>
<text text-anchor="middle" x="1188" y="-213.55" font-family="Helvetica,sans-Serif" font-size="8.00"> Mdt_payload &gt;</text>
</a>
</g>
</g>
<!-- Node2 -->
<g id="node2" class="node">
<title>Node2</title>
<g id="a_node2"><a xlink:href="classipc_1_1session_1_1shm_1_1classic_1_1Session__impl.html" target="_top" xlink:title=" ">
<polygon fill="white" stroke="black" points="878,-248.95 878,-319.95 1028,-319.95 1028,-248.95 878,-248.95"/>
<text text-anchor="start" x="886" y="-309.55" font-family="Helvetica,sans-Serif" font-size="8.00">ipc::session::shm::</text>
<text text-anchor="start" x="886" y="-300.55" font-family="Helvetica,sans-Serif" font-size="8.00">classic::Session_impl</text>
<text text-anchor="start" x="886" y="-291.55" font-family="Helvetica,sans-Serif" font-size="8.00">&lt; session::Client_session</text>
<text text-anchor="start" x="886" y="-282.55" font-family="Helvetica,sans-Serif" font-size="8.00">_impl&lt; S_MQ_TYPE_OR_NONE,</text>
<text text-anchor="start" x="886" y="-273.55" font-family="Helvetica,sans-Serif" font-size="8.00"> S_TRANSMIT_NATIVE_HANDLES,</text>
<text text-anchor="start" x="886" y="-264.55" font-family="Helvetica,sans-Serif" font-size="8.00"> Mdt_payload, schema::ShmType</text>
<text text-anchor="middle" x="953" y="-255.55" font-family="Helvetica,sans-Serif" font-size="8.00">::CLASSIC &gt; &gt;</text>
</a>
</g>
</g>
<!-- Node2&#45;&gt;Node1 -->
<g id="edge1" class="edge">
<title>Node2&#45;&gt;Node1</title>
<path fill="none" stroke="midnightblue" d="M1037.93,-266.08C1063.07,-260.58 1090.42,-254.59 1114.74,-249.27"/>
<polygon fill="midnightblue" stroke="midnightblue" points="1037.06,-262.69 1028.04,-268.24 1038.56,-269.53 1037.06,-262.69"/>
</g>
<!-- Node3 -->
<g id="node3" class="node">
<title>Node3</title>
<g id="a_node3"><a xlink:href="classipc_1_1session_1_1Client__session__impl.html" target="_top" xlink:title=" ">
<polygon fill="white" stroke="black" points="603,-289.95 603,-342.95 755,-342.95 755,-289.95 603,-289.95"/>
<text text-anchor="start" x="611" y="-332.55" font-family="Helvetica,sans-Serif" font-size="8.00">ipc::session::Client</text>
<text text-anchor="start" x="611" y="-323.55" font-family="Helvetica,sans-Serif" font-size="8.00">_session_impl&lt; S_MQ_TYPE</text>
<text text-anchor="start" x="611" y="-314.55" font-family="Helvetica,sans-Serif" font-size="8.00">_OR_NONE, S_TRANSMIT_NATIVE</text>
<text text-anchor="start" x="611" y="-305.55" font-family="Helvetica,sans-Serif" font-size="8.00">_HANDLES, Mdt_payload, schema</text>
<text text-anchor="middle" x="679" y="-296.55" font-family="Helvetica,sans-Serif" font-size="8.00">::ShmType::CLASSIC &gt;</text>
</a>
</g>
</g>
<!-- Node3&#45;&gt;Node2 -->
<g id="edge2" class="edge">
<title>Node3&#45;&gt;Node2</title>
<path fill="none" stroke="midnightblue" d="M765.07,-306.44C801.15,-302.2 842.84,-297.29 877.67,-293.2"/>
<polygon fill="midnightblue" stroke="midnightblue" points="764.57,-302.98 755.05,-307.62 765.39,-309.93 764.57,-302.98"/>
</g>
<!-- Node4 -->
<g id="node4" class="node">
<title>Node4</title>
<g id="a_node4"><a xlink:href="classipc_1_1session_1_1Session__base.html" target="_top" xlink:title="Internal type containing data and types common to internal types Server_session_impl and Client_sessi...">
<polygon fill="white" stroke="black" points="317,-261.45 317,-305.45 463,-305.45 463,-261.45 317,-261.45"/>
<text text-anchor="start" x="325" y="-295.05" font-family="Helvetica,sans-Serif" font-size="8.00">ipc::session::Session</text>
<text text-anchor="start" x="325" y="-286.05" font-family="Helvetica,sans-Serif" font-size="8.00">_base&lt; S_MQ_TYPE_OR_NONE,</text>
<text text-anchor="start" x="325" y="-277.05" font-family="Helvetica,sans-Serif" font-size="8.00"> S_TRANSMIT_NATIVE_HANDLES,</text>
<text text-anchor="middle" x="390" y="-268.05" font-family="Helvetica,sans-Serif" font-size="8.00"> Mdt_payload &gt;</text>
</a>
</g>
</g>
<!-- Node4&#45;&gt;Node3 -->
<g id="edge3" class="edge">
<title>Node4&#45;&gt;Node3</title>
<path fill="none" stroke="midnightblue" d="M472.99,-292.88C513.89,-297.58 563.01,-303.23 602.91,-307.82"/>
<polygon fill="midnightblue" stroke="midnightblue" points="473.39,-289.4 463.05,-291.74 472.59,-296.36 473.39,-289.4"/>
</g>
<!-- Node5 -->
<g id="node5" class="node">
<title>Node5</title>
<g id="a_node5"><a xlink:title=" ">
<polygon fill="white" stroke="#bfbfbf" points="30.5,-579.95 30.5,-596.95 129.5,-596.95 129.5,-579.95 30.5,-579.95"/>
<text text-anchor="middle" x="80" y="-586.55" font-family="Helvetica,sans-Serif" font-size="8.00">boost::noncopyable</text>
</a>
</g>
</g>
<!-- Node5&#45;&gt;Node4 -->
<g id="edge4" class="edge">
<title>Node5&#45;&gt;Node4</title>
<path fill="none" stroke="#8b1a1a" d="M139.7,-580.35C197.18,-571.11 278.96,-554.04 299,-529.45 329.15,-492.46 289.34,-354.34 317,-315.45 319.62,-311.77 322.75,-308.51 326.24,-305.62"/>
<polygon fill="#8b1a1a" stroke="#8b1a1a" points="138.97,-576.92 129.63,-581.93 140.05,-583.84 138.97,-576.92"/>
</g>
<!-- Node34 -->
<g id="node23" class="node">
<title>Node34</title>
<g id="a_node23"><a xlink:href="classipc_1_1shm_1_1classic_1_1Pool__arena.html" target="_top" xlink:title="A SHM&#45;classic interface around a single SHM pool with allocation&#45;algorithm services by boost....">
<polygon fill="white" stroke="black" points="344,-561.45 344,-587.45 436,-587.45 436,-561.45 344,-561.45"/>
<text text-anchor="start" x="352" y="-577.05" font-family="Helvetica,sans-Serif" font-size="8.00">ipc::shm::classic::</text>
<text text-anchor="middle" x="390" y="-568.05" font-family="Helvetica,sans-Serif" font-size="8.00">Pool_arena</text>
</a>
</g>
</g>
<!-- Node5&#45;&gt;Node34 -->
<g id="edge27" class="edge">
<title>Node5&#45;&gt;Node34</title>
<path fill="none" stroke="#8b1a1a" d="M139.8,-585.78C199.27,-583.08 289.92,-578.96 343.93,-576.5"/>
<polygon fill="#8b1a1a" stroke="#8b1a1a" points="139.63,-582.28 129.8,-586.23 139.95,-589.28 139.63,-582.28"/>
</g>
<!-- Node6 -->
<g id="node6" class="node">
<title>Node6</title>
<g id="a_node6"><a xlink:title=" ">
<polygon fill="white" stroke="#bfbfbf" points="29.5,-156.95 29.5,-173.95 130.5,-173.95 130.5,-156.95 29.5,-156.95"/>
<text text-anchor="middle" x="80" y="-163.55" font-family="Helvetica,sans-Serif" font-size="8.00">static constexpr bool</text>
</a>
</g>
</g>
<!-- Node6&#45;&gt;Node3 -->
<g id="edge17" class="edge">
<title>Node6&#45;&gt;Node3</title>
<path fill="none" stroke="#9a32cd" stroke-dasharray="5,2" d="M141.01,-162.45C185.06,-161.38 246.17,-162.23 299,-171.45 374.6,-184.65 391.16,-198.47 463,-225.45 516.31,-245.47 575.87,-270.93 618.75,-289.82"/>
<polygon fill="#9a32cd" stroke="#9a32cd" points="140.66,-158.96 130.76,-162.75 140.86,-165.96 140.66,-158.96"/>
<text text-anchor="middle" x="390" y="-246.05" font-family="Helvetica,sans-Serif" font-size="8.00"> S_MQS_ENABLED</text>
<text text-anchor="middle" x="390" y="-237.05" font-family="Helvetica,sans-Serif" font-size="8.00">S_SHM_ENABLED</text>
<text text-anchor="middle" x="390" y="-228.05" font-family="Helvetica,sans-Serif" font-size="8.00">S_SOCKET_STREAM_ENABLED</text>
</g>
<!-- Node6&#45;&gt;Node4 -->
<g id="edge5" class="edge">
<title>Node6&#45;&gt;Node4</title>
<path fill="none" stroke="#9a32cd" stroke-dasharray="5,2" d="M141.14,-169.16C195.85,-173.3 272.03,-181.22 299,-194.45 330.37,-209.84 357.49,-240.44 373.54,-261.43"/>
<polygon fill="#9a32cd" stroke="#9a32cd" points="141.08,-165.64 130.85,-168.4 140.57,-172.63 141.08,-165.64"/>
<text text-anchor="middle" x="238.5" y="-206.05" font-family="Helvetica,sans-Serif" font-size="8.00"> S_MQS_ENABLED</text>
<text text-anchor="middle" x="238.5" y="-197.05" font-family="Helvetica,sans-Serif" font-size="8.00">S_SOCKET_STREAM_ENABLED</text>
</g>
<!-- Node7 -->
<g id="node7" class="node">
<title>Node7</title>
<g id="a_node7"><a xlink:href="structipc_1_1session_1_1Server__app.html" target="_top" xlink:title="An App that is used as a server in at least one client&#45;server IPC split.">
<polygon fill="white" stroke="red" points="21,-201.95 21,-218.95 139,-218.95 139,-201.95 21,-201.95"/>
<text text-anchor="middle" x="80" y="-208.55" font-family="Helvetica,sans-Serif" font-size="8.00">ipc::session::Server_app</text>
</a>
</g>
</g>
<!-- Node7&#45;&gt;Node4 -->
<g id="edge6" class="edge">
<title>Node7&#45;&gt;Node4</title>
<path fill="none" stroke="#9a32cd" stroke-dasharray="5,2" d="M149.28,-212.8C192.9,-215.78 250.23,-222.48 299,-237.45 317.62,-243.17 337.01,-252.58 353.01,-261.4"/>
<polygon fill="#9a32cd" stroke="#9a32cd" points="149.26,-209.29 139.06,-212.15 148.82,-216.28 149.26,-209.29"/>
<text text-anchor="middle" x="238.5" y="-240.05" font-family="Helvetica,sans-Serif" font-size="8.00"> m_srv_app_ref</text>
</g>
<!-- Node16 -->
<g id="node8" class="node">
<title>Node16</title>
<g id="a_node8"><a xlink:title=" ">
<polygon fill="white" stroke="#bfbfbf" points="44.5,-417.95 44.5,-434.95 115.5,-434.95 115.5,-417.95 44.5,-417.95"/>
<text text-anchor="middle" x="80" y="-424.55" font-family="Helvetica,sans-Serif" font-size="8.00">Fine_duration</text>
</a>
</g>
</g>
<!-- Node16&#45;&gt;Node4 -->
<g id="edge7" class="edge">
<title>Node16&#45;&gt;Node4</title>
<path fill="none" stroke="#9a32cd" stroke-dasharray="5,2" d="M125.63,-426.59C181.95,-425.8 274.45,-420.98 299,-398.45 326.81,-372.93 293.18,-344.73 317,-315.45 320.02,-311.74 323.56,-308.44 327.43,-305.52"/>
<polygon fill="#9a32cd" stroke="#9a32cd" points="125.52,-423.09 115.56,-426.69 125.6,-430.09 125.52,-423.09"/>
<text text-anchor="middle" x="238.5" y="-427.05" font-family="Helvetica,sans-Serif" font-size="8.00"> S_OPEN_CHANNEL_TIMEOUT</text>
</g>
<!-- Node17 -->
<g id="node9" class="node">
<title>Node17</title>
<g id="a_node9"><a xlink:title=" ">
<polygon fill="white" stroke="#bfbfbf" points="26.5,-381.95 26.5,-398.95 133.5,-398.95 133.5,-381.95 26.5,-381.95"/>
<text text-anchor="middle" x="80" y="-388.55" font-family="Helvetica,sans-Serif" font-size="8.00">static constexpr size_t</text>
</a>
</g>
</g>
<!-- Node17&#45;&gt;Node4 -->
<g id="edge8" class="edge">
<title>Node17&#45;&gt;Node4</title>
<path fill="none" stroke="#9a32cd" stroke-dasharray="5,2" d="M143.84,-390.08C190.44,-386.94 253.51,-376.35 299,-344.45 311.42,-335.74 305.56,-325.42 317,-315.45 321.23,-311.77 325.95,-308.44 330.9,-305.46"/>
<polygon fill="#9a32cd" stroke="#9a32cd" points="143.34,-386.61 133.56,-390.68 143.74,-393.59 143.34,-386.61"/>
<text text-anchor="middle" x="238.5" y="-388.05" font-family="Helvetica,sans-Serif" font-size="8.00"> S_MQS_MAX_MSG_SZ</text>
</g>
<!-- Node18 -->
<g id="node10" class="node">
<title>Node18</title>
<g id="a_node10"><a xlink:title=" ">
<polygon fill="white" stroke="orangered" points="31,-327.95 31,-362.95 129,-362.95 129,-327.95 31,-327.95"/>
<text text-anchor="start" x="39" y="-352.55" font-family="Helvetica,sans-Serif" font-size="8.00">std::atomic&lt; const</text>
<text text-anchor="start" x="39" y="-343.55" font-family="Helvetica,sans-Serif" font-size="8.00"> ipc::session::Client</text>
<text text-anchor="middle" x="80" y="-334.55" font-family="Helvetica,sans-Serif" font-size="8.00">_app * &gt;</text>
</a>
</g>
</g>
<!-- Node18&#45;&gt;Node4 -->
<g id="edge9" class="edge">
<title>Node18&#45;&gt;Node4</title>
<path fill="none" stroke="#9a32cd" stroke-dasharray="5,2" d="M139.39,-338.21C183.52,-332.23 245.45,-322.73 299,-310.45 305.36,-308.99 311.93,-307.33 318.49,-305.57"/>
<polygon fill="#9a32cd" stroke="#9a32cd" points="138.86,-334.75 129.41,-339.55 139.79,-341.69 138.86,-334.75"/>
<text text-anchor="middle" x="238.5" y="-334.05" font-family="Helvetica,sans-Serif" font-size="8.00"> m_cli_app_ptr</text>
</g>
<!-- Node20 -->
<g id="node11" class="node">
<title>Node20</title>
<g id="a_node11"><a xlink:href="classipc_1_1util_1_1Shared__name.html" target="_top" xlink:title="String&#45;wrapping abstraction representing a name uniquely distinguishing a kernel&#45;persistent entity fr...">
<polygon fill="white" stroke="red" points="25,-453.95 25,-470.95 135,-470.95 135,-453.95 25,-453.95"/>
<text text-anchor="middle" x="80" y="-460.55" font-family="Helvetica,sans-Serif" font-size="8.00">ipc::util::Shared_name</text>
</a>
</g>
</g>
<!-- Node20&#45;&gt;Node4 -->
<g id="edge10" class="edge">
<title>Node20&#45;&gt;Node4</title>
<path fill="none" stroke="#9a32cd" stroke-dasharray="5,2" d="M131.83,-472.47C181.33,-479.02 255.31,-479.76 299,-437.45 338.38,-399.33 283.85,-359.1 317,-315.45 319.81,-311.75 323.15,-308.46 326.82,-305.55"/>
<polygon fill="#9a32cd" stroke="#9a32cd" points="132.06,-468.97 121.66,-471 131.06,-475.9 132.06,-468.97"/>
<text text-anchor="middle" x="238.5" y="-487.05" font-family="Helvetica,sans-Serif" font-size="8.00"> m_cli_namespace</text>
<text text-anchor="middle" x="238.5" y="-478.05" font-family="Helvetica,sans-Serif" font-size="8.00">m_srv_namespace</text>
</g>
<!-- Node20&#45;&gt;Node20 -->
<g id="edge11" class="edge">
<title>Node20&#45;&gt;Node20</title>
<path fill="none" stroke="#9a32cd" stroke-dasharray="5,2" d="M50.41,-478.77C49.74,-484.65 59.6,-489.45 80,-489.45 109.01,-489.45 116.71,-479.74 103.12,-471.02"/>
<polygon fill="#9a32cd" stroke="#9a32cd" points="53.16,-480.94 56.88,-471.02 47.79,-476.45 53.16,-480.94"/>
<text text-anchor="middle" x="80" y="-555.05" font-family="Helvetica,sans-Serif" font-size="8.00"> S_1ST_OR_ONLY</text>
<text text-anchor="middle" x="80" y="-546.05" font-family="Helvetica,sans-Serif" font-size="8.00">S_EMPTY</text>
<text text-anchor="start" x="41.5" y="-537.05" font-family="Helvetica,sans-Serif" font-size="8.00">S_RESOURCE_TYPE</text>
<text text-anchor="middle" x="80" y="-528.05" font-family="Helvetica,sans-Serif" font-size="8.00">_ID_MUTEX</text>
<text text-anchor="start" x="41.5" y="-519.05" font-family="Helvetica,sans-Serif" font-size="8.00">S_RESOURCE_TYPE</text>
<text text-anchor="middle" x="80" y="-510.05" font-family="Helvetica,sans-Serif" font-size="8.00">_ID_SHM</text>
<text text-anchor="middle" x="80" y="-501.05" font-family="Helvetica,sans-Serif" font-size="8.00">S_ROOT_MAGIC</text>
<text text-anchor="middle" x="80" y="-492.05" font-family="Helvetica,sans-Serif" font-size="8.00">S_SENTINEL</text>
</g>
<!-- Node20&#45;&gt;Node34 -->
<g id="edge28" class="edge">
<title>Node20&#45;&gt;Node34</title>
<path fill="none" stroke="#9a32cd" stroke-dasharray="5,2" d="M113.85,-474.4C172.07,-495.57 292.85,-539.49 353.15,-561.41"/>
<polygon fill="#9a32cd" stroke="#9a32cd" points="115,-471.09 104.4,-470.96 112.6,-477.67 115,-471.09"/>
<text text-anchor="middle" x="238.5" y="-543.05" font-family="Helvetica,sans-Serif" font-size="8.00"> m_pool_name</text>
</g>
<!-- Node23 -->
<g id="node12" class="node">
<title>Node23</title>
<g id="a_node12"><a xlink:title=" ">
<polygon fill="white" stroke="#bfbfbf" points="44.5,-110.95 44.5,-127.95 115.5,-127.95 115.5,-110.95 44.5,-110.95"/>
<text text-anchor="middle" x="80" y="-117.55" font-family="Helvetica,sans-Serif" font-size="8.00">Task_asio_err</text>
</a>
</g>
</g>
<!-- Node23&#45;&gt;Node3 -->
<g id="edge19" class="edge">
<title>Node23&#45;&gt;Node3</title>
<path fill="none" stroke="#9a32cd" stroke-dasharray="5,2" d="M126.04,-115.24C199.53,-110.13 348.54,-107.25 463,-153.45 522.02,-177.28 545.16,-178.82 585,-228.45 600.31,-247.52 586.72,-262.2 603,-280.45 606.08,-283.9 609.56,-287.05 613.29,-289.92"/>
<polygon fill="#9a32cd" stroke="#9a32cd" points="125.47,-111.77 115.75,-116 125.99,-118.75 125.47,-111.77"/>
<text text-anchor="start" x="342.5" y="-165.05" font-family="Helvetica,sans-Serif" font-size="8.00"> m_conn_on_done_func</text>
<text text-anchor="middle" x="390" y="-156.05" font-family="Helvetica,sans-Serif" font-size="8.00">_or_empty</text>
</g>
<!-- Node23&#45;&gt;Node4 -->
<g id="edge12" class="edge">
<title>Node23&#45;&gt;Node4</title>
<path fill="none" stroke="#9a32cd" stroke-dasharray="5,2" d="M125.75,-117.46C172.82,-117.55 247.13,-124.09 299,-159.45 311.53,-168 308.41,-175.95 317,-188.45 334.58,-214.04 356.28,-242.25 371.23,-261.24"/>
<polygon fill="#9a32cd" stroke="#9a32cd" points="125.53,-113.97 115.56,-117.55 125.59,-120.97 125.53,-113.97"/>
<text text-anchor="middle" x="238.5" y="-162.05" font-family="Helvetica,sans-Serif" font-size="8.00"> m_on_err_func</text>
</g>
<!-- Node24 -->
<g id="node13" class="node">
<title>Node24</title>
<g id="a_node13"><a xlink:title=" ">
<polygon fill="white" stroke="#bfbfbf" points="0,-273.95 0,-308.95 160,-308.95 160,-273.95 0,-273.95"/>
<text text-anchor="start" x="8" y="-298.55" font-family="Helvetica,sans-Serif" font-size="8.00">Function&lt; void(Channel</text>
<text text-anchor="start" x="8" y="-289.55" font-family="Helvetica,sans-Serif" font-size="8.00">_obj &amp;&amp;new_channel, Mdt</text>
<text text-anchor="middle" x="80" y="-280.55" font-family="Helvetica,sans-Serif" font-size="8.00">_reader_ptr &amp;&amp;new_channel_mdt)&gt;</text>
</a>
</g>
</g>
<!-- Node24&#45;&gt;Node4 -->
<g id="edge13" class="edge">
<title>Node24&#45;&gt;Node4</title>
<path fill="none" stroke="#9a32cd" stroke-dasharray="5,2" d="M170.4,-289.13C216.93,-287.92 273.07,-286.46 316.8,-285.33"/>
<polygon fill="#9a32cd" stroke="#9a32cd" points="170.22,-285.63 160.32,-289.39 170.41,-292.63 170.22,-285.63"/>
<text text-anchor="start" x="178" y="-300.05" font-family="Helvetica,sans-Serif" font-size="8.00"> m_on_passive_open_channel</text>
<text text-anchor="middle" x="238.5" y="-291.05" font-family="Helvetica,sans-Serif" font-size="8.00">_func_or_empty</text>
</g>
<!-- Node25 -->
<g id="node14" class="node">
<title>Node25</title>
<g id="a_node14"><a xlink:title=" ">
<polygon fill="white" stroke="#bfbfbf" points="50,-237.95 50,-254.95 110,-254.95 110,-237.95 50,-237.95"/>
<text text-anchor="middle" x="80" y="-244.55" font-family="Helvetica,sans-Serif" font-size="8.00">Error_code</text>
</a>
</g>
</g>
<!-- Node25&#45;&gt;Node4 -->
<g id="edge14" class="edge">
<title>Node25&#45;&gt;Node4</title>
<path fill="none" stroke="#9a32cd" stroke-dasharray="5,2" d="M120.28,-247.85C164.07,-249.79 236.91,-254.18 299,-263.45 304.86,-264.33 310.9,-265.37 316.96,-266.5"/>
<polygon fill="#9a32cd" stroke="#9a32cd" points="120.2,-244.34 110.06,-247.42 119.91,-251.34 120.2,-244.34"/>
<text text-anchor="start" x="190" y="-275.05" font-family="Helvetica,sans-Serif" font-size="8.00"> m_peer_state_err_code</text>
<text text-anchor="middle" x="238.5" y="-266.05" font-family="Helvetica,sans-Serif" font-size="8.00">_or_ok</text>
</g>
<!-- Node26 -->
<g id="node15" class="node">
<title>Node26</title>
<g id="a_node15"><a xlink:title=" ">
<polygon fill="white" stroke="#bfbfbf" points="26.5,-615.95 26.5,-632.95 133.5,-632.95 133.5,-615.95 26.5,-615.95"/>
<text text-anchor="middle" x="80" y="-622.55" font-family="Helvetica,sans-Serif" font-size="8.00">flow::log::Log_context</text>
</a>
</g>
</g>
<!-- Node26&#45;&gt;Node3 -->
<g id="edge15" class="edge">
<title>Node26&#45;&gt;Node3</title>
<path fill="none" stroke="midnightblue" d="M144.01,-626.29C238.07,-627.99 409.82,-626.76 463,-597.45 542.25,-553.78 542.58,-514.38 585,-434.45 596.46,-412.85 589.37,-402.76 603,-382.45 612.96,-367.62 627.04,-354.04 640.32,-343.1"/>
<polygon fill="midnightblue" stroke="midnightblue" points="143.84,-622.79 133.77,-626.09 143.7,-629.78 143.84,-622.79"/>
</g>
<!-- Node26&#45;&gt;Node34 -->
<g id="edge26" class="edge">
<title>Node26&#45;&gt;Node34</title>
<path fill="none" stroke="midnightblue" d="M143.6,-614.29C202.97,-604.65 290.74,-590.4 343.64,-581.81"/>
<polygon fill="midnightblue" stroke="midnightblue" points="142.91,-610.86 133.6,-615.91 144.03,-617.77 142.91,-610.86"/>
</g>
<!-- Node27 -->
<g id="node16" class="node">
<title>Node27</title>
<g id="a_node16"><a xlink:title=" ">
<polygon fill="white" stroke="#bfbfbf" points="363.5,-46.95 363.5,-63.95 416.5,-63.95 416.5,-46.95 363.5,-46.95"/>
<text text-anchor="middle" x="390" y="-53.55" font-family="Helvetica,sans-Serif" font-size="8.00">ShmType</text>
</a>
</g>
</g>
<!-- Node27&#45;&gt;Node3 -->
<g id="edge16" class="edge">
<title>Node27&#45;&gt;Node3</title>
<path fill="none" stroke="#9a32cd" stroke-dasharray="5,2" d="M426.65,-47.55C470.54,-40.15 544.24,-35.68 585,-77.45 616.63,-109.86 577.21,-243.22 603,-280.45 605.39,-283.89 608.19,-287.02 611.3,-289.85"/>
<polygon fill="#9a32cd" stroke="#9a32cd" points="425.92,-44.13 416.71,-49.37 427.17,-51.01 425.92,-44.13"/>
<text text-anchor="middle" x="533" y="-80.05" font-family="Helvetica,sans-Serif" font-size="8.00"> S_SHM_TYPE</text>
</g>
<!-- Node28 -->
<g id="node17" class="node">
<title>Node28</title>
<g id="a_node17"><a xlink:title=" ">
<polygon fill="white" stroke="#bfbfbf" points="371,-10.95 371,-27.95 409,-27.95 409,-10.95 371,-10.95"/>
<text text-anchor="middle" x="390" y="-17.55" font-family="Helvetica,sans-Serif" font-size="8.00">State</text>
</a>
</g>
</g>
<!-- Node28&#45;&gt;Node3 -->
<g id="edge18" class="edge">
<title>Node28&#45;&gt;Node3</title>
<path fill="none" stroke="#9a32cd" stroke-dasharray="5,2" d="M418.92,-10.97C461.19,-0.06 541.13,12.76 585,-30.45 624.68,-69.54 571.66,-234.4 603,-280.45 605.36,-283.91 608.14,-287.05 611.23,-289.9"/>
<polygon fill="#9a32cd" stroke="#9a32cd" points="417.76,-7.66 409.03,-13.67 419.6,-14.42 417.76,-7.66"/>
<text text-anchor="middle" x="533" y="-33.05" font-family="Helvetica,sans-Serif" font-size="8.00"> m_state</text>
</g>
<!-- Node29 -->
<g id="node18" class="node">
<title>Node29</title>
<g id="a_node18"><a xlink:title=" ">
<polygon fill="white" stroke="#bfbfbf" points="356,-396.95 356,-413.95 424,-413.95 424,-396.95 356,-396.95"/>
<text text-anchor="middle" x="390" y="-403.55" font-family="Helvetica,sans-Serif" font-size="8.00">unsigned int</text>
</a>
</g>
</g>
<!-- Node29&#45;&gt;Node3 -->
<g id="edge20" class="edge">
<title>Node29&#45;&gt;Node3</title>
<path fill="none" stroke="#9a32cd" stroke-dasharray="5,2" d="M434.12,-401.62C474.17,-397.1 534.99,-387.75 585,-369.45 603.32,-362.75 622.26,-352.63 638.23,-343.02"/>
<polygon fill="#9a32cd" stroke="#9a32cd" points="433.72,-398.14 424.15,-402.7 434.47,-405.1 433.72,-398.14"/>
<text text-anchor="start" x="481" y="-424.05" font-family="Helvetica,sans-Serif" font-size="8.00"> m_last_actively_opened</text>
<text text-anchor="middle" x="533" y="-415.05" font-family="Helvetica,sans-Serif" font-size="8.00">_channel_id</text>
<text text-anchor="start" x="481" y="-406.05" font-family="Helvetica,sans-Serif" font-size="8.00">m_last_passively_opened</text>
<text text-anchor="middle" x="533" y="-397.05" font-family="Helvetica,sans-Serif" font-size="8.00">_channel_id</text>
</g>
<!-- Node30 -->
<g id="node19" class="node">
<title>Node30</title>
<g id="a_node19"><a xlink:title=" ">
<polygon fill="white" stroke="#bfbfbf" points="332,-360.95 332,-377.95 448,-377.95 448,-360.95 332,-360.95"/>
<text text-anchor="middle" x="390" y="-367.55" font-family="Helvetica,sans-Serif" font-size="8.00">Single_thread_task_loop</text>
</a>
</g>
</g>
<!-- Node30&#45;&gt;Node3 -->
<g id="edge21" class="edge">
<title>Node30&#45;&gt;Node3</title>
<path fill="none" stroke="#9a32cd" stroke-dasharray="5,2" d="M458.44,-361.13C495.88,-356.07 543.21,-348.94 585,-340.45 590.8,-339.27 596.78,-337.96 602.78,-336.57"/>
<polygon fill="#9a32cd" stroke="#9a32cd" points="457.6,-357.71 448.15,-362.5 458.52,-364.65 457.6,-357.71"/>
<text text-anchor="middle" x="533" y="-359.05" font-family="Helvetica,sans-Serif" font-size="8.00"> m_async_worker</text>
</g>
<!-- Node31 -->
<g id="node20" class="node">
<title>Node31</title>
<g id="a_node20"><a xlink:title=" ">
<polygon fill="white" stroke="#bfbfbf" points="319,-324.95 319,-341.95 461,-341.95 461,-324.95 319,-324.95"/>
<text text-anchor="middle" x="390" y="-331.55" font-family="Helvetica,sans-Serif" font-size="8.00">Master_structured_channel_ptr</text>
</a>
</g>
</g>
<!-- Node31&#45;&gt;Node3 -->
<g id="edge22" class="edge">
<title>Node31&#45;&gt;Node3</title>
<path fill="none" stroke="#9a32cd" stroke-dasharray="5,2" d="M471.23,-328.7C512.5,-326.25 562.5,-323.29 602.99,-320.89"/>
<polygon fill="#9a32cd" stroke="#9a32cd" points="470.98,-325.21 461.21,-329.29 471.4,-332.2 470.98,-325.21"/>
<text text-anchor="middle" x="533" y="-330.05" font-family="Helvetica,sans-Serif" font-size="8.00"> m_master_channel</text>
</g>
<!-- Node32 -->
<g id="node21" class="node">
<title>Node32</title>
<g id="a_node21"><a xlink:title=" ">
<polygon fill="white" stroke="#bfbfbf" points="616,-253.95 616,-270.95 742,-270.95 742,-253.95 616,-253.95"/>
<text text-anchor="middle" x="679" y="-260.55" font-family="Helvetica,sans-Serif" font-size="8.00">static constexpr scope_id_t</text>
</a>
</g>
</g>
<!-- Node32&#45;&gt;Node2 -->
<g id="edge23" class="edge">
<title>Node32&#45;&gt;Node2</title>
<path fill="none" stroke="#9a32cd" stroke-dasharray="5,2" d="M752.11,-266.57C785.03,-268.63 824.52,-271.34 860,-274.45 865.76,-274.96 871.72,-275.52 877.71,-276.11"/>
<polygon fill="#9a32cd" stroke="#9a32cd" points="752.31,-263.07 742.11,-265.95 751.88,-270.06 752.31,-263.07"/>
<text text-anchor="middle" x="816.5" y="-286.05" font-family="Helvetica,sans-Serif" font-size="8.00"> S_SCOPE_ID_APP</text>
<text text-anchor="middle" x="816.5" y="-277.05" font-family="Helvetica,sans-Serif" font-size="8.00">S_SCOPE_ID_SESSION</text>
</g>
<!-- Node33 -->
<g id="node22" class="node">
<title>Node33</title>
<g id="a_node22"><a xlink:title=" ">
<polygon fill="white" stroke="#bfbfbf" points="628,-217.95 628,-234.95 730,-234.95 730,-217.95 628,-217.95"/>
<text text-anchor="middle" x="679" y="-224.55" font-family="Helvetica,sans-Serif" font-size="8.00">unique_ptr&lt; Arena &gt;</text>
</a>
</g>
</g>
<!-- Node33&#45;&gt;Node2 -->
<g id="edge24" class="edge">
<title>Node33&#45;&gt;Node2</title>
<path fill="none" stroke="#9a32cd" stroke-dasharray="5,2" d="M740.2,-233.35C775.4,-238 820.53,-245.01 860,-254.45 865.88,-255.86 871.93,-257.46 877.98,-259.18"/>
<polygon fill="#9a32cd" stroke="#9a32cd" points="740.45,-229.86 730.08,-232.05 739.55,-236.8 740.45,-229.86"/>
<text text-anchor="middle" x="816.5" y="-257.05" font-family="Helvetica,sans-Serif" font-size="8.00"> m_session_shm</text>
</g>
<!-- Node34&#45;&gt;Node2 -->
<g id="edge25" class="edge">
<title>Node34&#45;&gt;Node2</title>
<path fill="none" stroke="#9a32cd" stroke-dasharray="5,2" d="M425.19,-556.78C515.57,-510.06 762.13,-382.6 883.14,-320.05"/>
<polygon fill="#9a32cd" stroke="#9a32cd" points="423.47,-553.73 416.19,-561.43 426.69,-559.94 423.47,-553.73"/>
<text text-anchor="middle" x="679" y="-465.05" font-family="Helvetica,sans-Serif" font-size="8.00"> m_app_shm</text>
</g>
<!-- Node35 -->
<g id="node24" class="node">
<title>Node35</title>
<g id="a_node24"><a xlink:title=" ">
<polygon fill="white" stroke="#bfbfbf" points="32.5,-651.95 32.5,-668.95 127.5,-668.95 127.5,-651.95 32.5,-651.95"/>
<text text-anchor="middle" x="80" y="-658.55" font-family="Helvetica,sans-Serif" font-size="8.00">unique_ptr&lt; Pool &gt;</text>
</a>
</g>
</g>
<!-- Node35&#45;&gt;Node34 -->
<g id="edge29" class="edge">
<title>Node35&#45;&gt;Node34</title>
<path fill="none" stroke="#9a32cd" stroke-dasharray="5,2" d="M137.61,-650.93C182.06,-642.75 245.21,-629.57 299,-612.45 320.5,-605.61 343.95,-595.62 361.52,-587.6"/>
<polygon fill="#9a32cd" stroke="#9a32cd" points="136.79,-647.52 127.58,-652.75 138.04,-654.41 136.79,-647.52"/>
<text text-anchor="middle" x="238.5" y="-644.05" font-family="Helvetica,sans-Serif" font-size="8.00"> m_pool</text>
</g>
<!-- Node36 -->
<g id="node25" class="node">
<title>Node36</title>
<g id="a_node25"><a xlink:title=" ">
<polygon fill="white" stroke="#bfbfbf" points="925,-212.95 925,-229.95 981,-229.95 981,-212.95 925,-212.95"/>
<text text-anchor="middle" x="953" y="-219.55" font-family="Helvetica,sans-Serif" font-size="8.00">Arena_ptr</text>
</a>
</g>
</g>
<!-- Node36&#45;&gt;Node1 -->
<g id="edge30" class="edge">
<title>Node36&#45;&gt;Node1</title>
<path fill="none" stroke="#9a32cd" stroke-dasharray="5,2" d="M991.35,-223.37C1024.51,-225.08 1073.89,-227.63 1114.75,-229.73"/>
<polygon fill="#9a32cd" stroke="#9a32cd" points="991.35,-219.87 981.18,-222.85 990.99,-226.86 991.35,-219.87"/>
<text text-anchor="middle" x="1071.5" y="-231.05" font-family="Helvetica,sans-Serif" font-size="8.00"> m_app_shm</text>
</g>
</g>
</svg>
