<?xml version="1.0" encoding="UTF-8" standalone="no"?>
<!DOCTYPE svg PUBLIC "-//W3C//DTD SVG 1.1//EN"
 "http://www.w3.org/Graphics/SVG/1.1/DTD/svg11.dtd">
<!-- Generated by graphviz version 2.43.0 (0)
 -->
<!-- Title: ipc::transport::struc::Msg_mdt_out::internal_msg_body_root Pages: 1 -->
<svg width="294pt" height="53pt"
 viewBox="0.00 0.00 294.00 53.00" xmlns="http://www.w3.org/2000/svg" xmlns:xlink="http://www.w3.org/1999/xlink">
<g id="graph0" class="graph" transform="scale(1 1) rotate(0) translate(4 49)">
<title>ipc::transport::struc::Msg_mdt_out::internal_msg_body_root</title>
<polygon fill="white" stroke="transparent" points="-4,4 -4,-49 290,-49 290,4 -4,4"/>
<!-- Node1 -->
<g id="node1" class="node">
<title>Node1</title>
<g id="a_node1"><a xlink:title="Returns a builder for the internal&#45;message root; to be called only if id_or_none == 0 in ctor.">
<polygon fill="#bfbfbf" stroke="black" points="173,-5 173,-40 286,-40 286,-5 173,-5"/>
<text text-anchor="start" x="181" y="-29.6" font-family="Helvetica,sans-Serif" font-size="8.00">ipc::transport::struc</text>
<text text-anchor="start" x="181" y="-20.6" font-family="Helvetica,sans-Serif" font-size="8.00">::Msg_mdt_out::internal</text>
<text text-anchor="middle" x="229.5" y="-11.6" font-family="Helvetica,sans-Serif" font-size="8.00">_msg_body_root</text>
</a>
</g>
</g>
<!-- Node2 -->
<g id="node2" class="node">
<title>Node2</title>
<g id="a_node2"><a xlink:href="classipc_1_1transport_1_1struc_1_1sync__io_1_1Channel.html#a795baef6fefbc4749daf5ceda52943c1" target="_top" xlink:title="Helper from rcv_struct_new_msg_in_is_next_expected() that reacts to receiving an otherwise valid repo...">
<polygon fill="white" stroke="black" points="0,-0.5 0,-44.5 137,-44.5 137,-0.5 0,-0.5"/>
<text text-anchor="start" x="8" y="-34.1" font-family="Helvetica,sans-Serif" font-size="8.00">ipc::transport::struc</text>
<text text-anchor="start" x="8" y="-25.1" font-family="Helvetica,sans-Serif" font-size="8.00">::sync_io::Channel::rcv</text>
<text text-anchor="start" x="8" y="-16.1" font-family="Helvetica,sans-Serif" font-size="8.00">_struct_inform_of_unexpected</text>
<text text-anchor="middle" x="68.5" y="-7.1" font-family="Helvetica,sans-Serif" font-size="8.00">_response</text>
</a>
</g>
</g>
<!-- Node1&#45;&gt;Node2 -->
<g id="edge1" class="edge">
<title>Node1&#45;&gt;Node2</title>
<path fill="none" stroke="midnightblue" d="M162.71,-22.5C154.26,-22.5 145.59,-22.5 137.11,-22.5"/>
<polygon fill="midnightblue" stroke="midnightblue" points="162.89,-26 172.89,-22.5 162.89,-19 162.89,-26"/>
</g>
</g>
</svg>
