<?xml version="1.0" encoding="UTF-8" standalone="no"?>
<!DOCTYPE svg PUBLIC "-//W3C//DTD SVG 1.1//EN"
 "http://www.w3.org/Graphics/SVG/1.1/DTD/svg11.dtd">
<!-- Generated by graphviz version 2.43.0 (0)
 -->
<!-- Title: ipc::util::Process_credentials::own_user_id Pages: 1 -->
<svg width="291pt" height="98pt"
 viewBox="0.00 0.00 291.00 98.00" xmlns="http://www.w3.org/2000/svg" xmlns:xlink="http://www.w3.org/1999/xlink">
<g id="graph0" class="graph" transform="scale(1 1) rotate(0) translate(4 94)">
<title>ipc::util::Process_credentials::own_user_id</title>
<polygon fill="white" stroke="transparent" points="-4,4 -4,-94 287,-94 287,4 -4,4"/>
<!-- Node1 -->
<g id="node1" class="node">
<title>Node1</title>
<g id="a_node1"><a xlink:title="Obtains the calling process&#39;s effective user_id().">
<polygon fill="#bfbfbf" stroke="black" points="161,-32 161,-58 283,-58 283,-32 161,-32"/>
<text text-anchor="start" x="169" y="-47.6" font-family="Helvetica,sans-Serif" font-size="8.00">ipc::util::Process</text>
<text text-anchor="middle" x="222" y="-38.6" font-family="Helvetica,sans-Serif" font-size="8.00">_credentials::own_user_id</text>
</a>
</g>
</g>
<!-- Node2 -->
<g id="node2" class="node">
<title>Node2</title>
<g id="a_node2"><a xlink:href="classipc_1_1session_1_1Client__session__impl.html#acaacff906e2eb50f48d1b04a64247649" target="_top" xlink:title="In thread W, handler for the transport::Native_socket_stream::async_connect(), as invoked in CONNECTI...">
<polygon fill="white" stroke="black" points="4.5,-54.5 4.5,-89.5 120.5,-89.5 120.5,-54.5 4.5,-54.5"/>
<text text-anchor="start" x="12.5" y="-79.1" font-family="Helvetica,sans-Serif" font-size="8.00">ipc::session::Client</text>
<text text-anchor="start" x="12.5" y="-70.1" font-family="Helvetica,sans-Serif" font-size="8.00">_session_impl::conn_on</text>
<text text-anchor="middle" x="62.5" y="-61.1" font-family="Helvetica,sans-Serif" font-size="8.00">_async_connect_or_error</text>
</a>
</g>
</g>
<!-- Node1&#45;&gt;Node2 -->
<g id="edge1" class="edge">
<title>Node1&#45;&gt;Node2</title>
<path fill="none" stroke="midnightblue" d="M150.62,-57.06C140.6,-58.78 130.4,-60.53 120.67,-62.2"/>
<polygon fill="midnightblue" stroke="midnightblue" points="151.29,-60.5 160.56,-55.36 150.11,-53.6 151.29,-60.5"/>
</g>
<!-- Node3 -->
<g id="node3" class="node">
<title>Node3</title>
<g id="a_node3"><a xlink:href="classipc_1_1util_1_1Process__credentials.html#a573d6de2f257144562fd55e0772991f1" target="_top" xlink:title="Constructs and returns Process_credentials containing values pertaining to the calling process at thi...">
<polygon fill="white" stroke="black" points="0,-0.5 0,-35.5 125,-35.5 125,-0.5 0,-0.5"/>
<text text-anchor="start" x="8" y="-25.1" font-family="Helvetica,sans-Serif" font-size="8.00">ipc::util::Process</text>
<text text-anchor="start" x="8" y="-16.1" font-family="Helvetica,sans-Serif" font-size="8.00">_credentials::own_process</text>
<text text-anchor="middle" x="62.5" y="-7.1" font-family="Helvetica,sans-Serif" font-size="8.00">_credentials</text>
</a>
</g>
</g>
<!-- Node1&#45;&gt;Node3 -->
<g id="edge2" class="edge">
<title>Node1&#45;&gt;Node3</title>
<path fill="none" stroke="midnightblue" d="M150.64,-32.94C142.12,-31.48 133.47,-29.99 125.08,-28.56"/>
<polygon fill="midnightblue" stroke="midnightblue" points="150.11,-36.4 160.56,-34.64 151.29,-29.5 150.11,-36.4"/>
</g>
</g>
</svg>
