<?xml version="1.0" encoding="UTF-8" standalone="no"?>
<!DOCTYPE svg PUBLIC "-//W3C//DTD SVG 1.1//EN"
 "http://www.w3.org/Graphics/SVG/1.1/DTD/svg11.dtd">
<!-- Generated by graphviz version 2.43.0 (0)
 -->
<!-- Title: ipc::transport::Blob_stream_mq_base::remove_persistent Pages: 1 -->
<svg width="591pt" height="58pt"
 viewBox="0.00 0.00 591.00 57.50" xmlns="http://www.w3.org/2000/svg" xmlns:xlink="http://www.w3.org/1999/xlink">
<g id="graph0" class="graph" transform="scale(1 1) rotate(0) translate(4 53.5)">
<title>ipc::transport::Blob_stream_mq_base::remove_persistent</title>
<polygon fill="white" stroke="transparent" points="-4,4 -4,-53.5 587,-53.5 587,4 -4,4"/>
<!-- Node1 -->
<g id="node1" class="node">
<title>Node1</title>
<g id="a_node1"><a xlink:title="Removes the Blob_stream_mq_sender and/or Blob_stream_mq_receiver persistent resources associated with...">
<polygon fill="#bfbfbf" stroke="black" points="0,-0.5 0,-35.5 126,-35.5 126,-0.5 0,-0.5"/>
<text text-anchor="start" x="8" y="-25.1" font-family="Helvetica,sans-Serif" font-size="8.00">ipc::transport::Blob</text>
<text text-anchor="start" x="8" y="-16.1" font-family="Helvetica,sans-Serif" font-size="8.00">_stream_mq_base::remove</text>
<text text-anchor="middle" x="63" y="-7.1" font-family="Helvetica,sans-Serif" font-size="8.00">_persistent</text>
</a>
</g>
</g>
<!-- Node2 -->
<g id="node2" class="node">
<title>Node2</title>
<g id="a_node2"><a xlink:href="classipc_1_1transport_1_1Blob__stream__mq__base__impl.html#a8877f75af055ab927a4b4c993f0873a2" target="_top" xlink:title="See Blob_stream_mq_base counterpart.">
<polygon fill="white" stroke="black" points="162,-0.5 162,-35.5 272,-35.5 272,-0.5 162,-0.5"/>
<text text-anchor="start" x="170" y="-25.1" font-family="Helvetica,sans-Serif" font-size="8.00">ipc::transport::Blob</text>
<text text-anchor="start" x="170" y="-16.1" font-family="Helvetica,sans-Serif" font-size="8.00">_stream_mq_base_impl</text>
<text text-anchor="middle" x="217" y="-7.1" font-family="Helvetica,sans-Serif" font-size="8.00">::remove_persistent</text>
</a>
</g>
</g>
<!-- Node1&#45;&gt;Node2 -->
<g id="edge1" class="edge">
<title>Node1&#45;&gt;Node2</title>
<path fill="none" stroke="midnightblue" d="M126.26,-18C134.66,-18 143.28,-18 151.71,-18"/>
<polygon fill="midnightblue" stroke="midnightblue" points="151.86,-21.5 161.86,-18 151.86,-14.5 151.86,-21.5"/>
</g>
<!-- Node3 -->
<g id="node3" class="node">
<title>Node3</title>
<g id="a_node3"><a xlink:href="namespaceipc_1_1util.html#a1cdc0a8d761170faa844c49d37c522ff" target="_top" xlink:title="Equivalent to shm::classic::Pool_arena::remove_persistent().">
<polygon fill="white" stroke="black" points="308,-5 308,-31 437,-31 437,-5 308,-5"/>
<text text-anchor="start" x="316" y="-20.6" font-family="Helvetica,sans-Serif" font-size="8.00">ipc::util::remove_persistent</text>
<text text-anchor="middle" x="372.5" y="-11.6" font-family="Helvetica,sans-Serif" font-size="8.00">_shm_pool</text>
</a>
</g>
</g>
<!-- Node2&#45;&gt;Node3 -->
<g id="edge2" class="edge">
<title>Node2&#45;&gt;Node3</title>
<path fill="none" stroke="midnightblue" d="M272.12,-18C280.43,-18 289.13,-18 297.78,-18"/>
<polygon fill="midnightblue" stroke="midnightblue" points="297.89,-21.5 307.89,-18 297.89,-14.5 297.89,-21.5"/>
</g>
<!-- Node3&#45;&gt;Node3 -->
<g id="edge4" class="edge">
<title>Node3&#45;&gt;Node3</title>
<path fill="none" stroke="midnightblue" d="M346.44,-31.27C338.55,-40.46 347.23,-49.5 372.5,-49.5 387.9,-49.5 397.14,-46.14 400.22,-41.44"/>
<polygon fill="midnightblue" stroke="midnightblue" points="403.62,-40.57 398.56,-31.27 396.71,-41.7 403.62,-40.57"/>
</g>
<!-- Node4 -->
<g id="node4" class="node">
<title>Node4</title>
<g id="a_node4"><a xlink:href="classipc_1_1util_1_1Shared__name.html#a0bccc73c9c5b4f3b784a1e57cdc5c910" target="_top" xlink:title="Returns (sans copying) pointer to NUL&#45;terminated wrapped name string, suitable to pass into sys calls...">
<polygon fill="white" stroke="black" points="473,-5 473,-31 583,-31 583,-5 473,-5"/>
<text text-anchor="start" x="481" y="-20.6" font-family="Helvetica,sans-Serif" font-size="8.00">ipc::util::Shared_name</text>
<text text-anchor="middle" x="528" y="-11.6" font-family="Helvetica,sans-Serif" font-size="8.00">::native_str</text>
</a>
</g>
</g>
<!-- Node3&#45;&gt;Node4 -->
<g id="edge3" class="edge">
<title>Node3&#45;&gt;Node4</title>
<path fill="none" stroke="midnightblue" d="M437.26,-18C445.7,-18 454.35,-18 462.79,-18"/>
<polygon fill="midnightblue" stroke="midnightblue" points="462.95,-21.5 472.95,-18 462.95,-14.5 462.95,-21.5"/>
</g>
</g>
</svg>
