<?xml version="1.0" encoding="UTF-8" standalone="no"?>
<!DOCTYPE svg PUBLIC "-//W3C//DTD SVG 1.1//EN"
 "http://www.w3.org/Graphics/SVG/1.1/DTD/svg11.dtd">
<!-- Generated by graphviz version 2.43.0 (0)
 -->
<!-- Title: ipc::transport::Bipc_mq_handle::timed_wait_receivable Pages: 1 -->
<svg width="288pt" height="98pt"
 viewBox="0.00 0.00 288.00 98.00" xmlns="http://www.w3.org/2000/svg" xmlns:xlink="http://www.w3.org/1999/xlink">
<g id="graph0" class="graph" transform="scale(1 1) rotate(0) translate(4 94)">
<title>ipc::transport::Bipc_mq_handle::timed_wait_receivable</title>
<polygon fill="white" stroke="transparent" points="-4,4 -4,-94 284,-94 284,4 -4,4"/>
<!-- Node1 -->
<g id="node1" class="node">
<title>Node1</title>
<g id="a_node1"><a xlink:title="Implements Persistent_mq_handle API: Like timed_receive() but without the actual popping of a message...">
<polygon fill="#bfbfbf" stroke="black" points="164,-18 164,-53 280,-53 280,-18 164,-18"/>
<text text-anchor="start" x="172" y="-42.6" font-family="Helvetica,sans-Serif" font-size="8.00">ipc::transport::Bipc</text>
<text text-anchor="start" x="172" y="-33.6" font-family="Helvetica,sans-Serif" font-size="8.00">_mq_handle::timed_wait</text>
<text text-anchor="middle" x="222" y="-24.6" font-family="Helvetica,sans-Serif" font-size="8.00">_receivable</text>
</a>
</g>
</g>
<!-- Node2 -->
<g id="node2" class="node">
<title>Node2</title>
<g id="a_node2"><a xlink:href="classipc_1_1transport_1_1Bipc__mq__handle.html#a67be05bc1749981e0863d18681d006ac" target="_top" xlink:title="Implements Persistent_mq_handle API: Blocking timed receive: pops copy of message from queue into buf...">
<polygon fill="white" stroke="black" points="0,-45.5 0,-71.5 128,-71.5 128,-45.5 0,-45.5"/>
<text text-anchor="start" x="8" y="-61.1" font-family="Helvetica,sans-Serif" font-size="8.00">ipc::transport::Bipc</text>
<text text-anchor="middle" x="64" y="-52.1" font-family="Helvetica,sans-Serif" font-size="8.00">_mq_handle::timed_receive</text>
</a>
</g>
</g>
<!-- Node1&#45;&gt;Node2 -->
<g id="edge1" class="edge">
<title>Node1&#45;&gt;Node2</title>
<path fill="none" stroke="midnightblue" d="M153.63,-45.43C145.2,-46.68 136.61,-47.94 128.25,-49.17"/>
<polygon fill="midnightblue" stroke="midnightblue" points="154.41,-48.85 163.8,-43.93 153.39,-41.93 154.41,-48.85"/>
</g>
<!-- Node3 -->
<g id="node3" class="node">
<title>Node3</title>
<g id="a_node3"><a xlink:href="classipc_1_1transport_1_1Bipc__mq__handle.html#ada9cf828123f98f5bb66236e5446d37d" target="_top" xlink:title="Impl body for *_sendable() and *_receivable().">
<polygon fill="white" stroke="black" points="9,-0.5 9,-26.5 119,-26.5 119,-0.5 9,-0.5"/>
<text text-anchor="start" x="17" y="-16.1" font-family="Helvetica,sans-Serif" font-size="8.00">ipc::transport::Bipc</text>
<text text-anchor="middle" x="64" y="-7.1" font-family="Helvetica,sans-Serif" font-size="8.00">_mq_handle::wait_impl</text>
</a>
</g>
</g>
<!-- Node1&#45;&gt;Node3 -->
<g id="edge3" class="edge">
<title>Node1&#45;&gt;Node3</title>
<path fill="none" stroke="midnightblue" d="M153.73,-26.01C142.16,-24.38 130.26,-22.7 119.08,-21.13"/>
<polygon fill="midnightblue" stroke="midnightblue" points="153.41,-29.5 163.8,-27.43 154.38,-22.57 153.41,-29.5"/>
</g>
<!-- Node2&#45;&gt;Node2 -->
<g id="edge2" class="edge">
<title>Node2&#45;&gt;Node2</title>
<path fill="none" stroke="midnightblue" d="M92.44,-81.94C89.28,-86.64 79.8,-90 64,-90 38.08,-90 29.17,-80.96 37.27,-71.77"/>
<polygon fill="midnightblue" stroke="midnightblue" points="95.84,-81.05 90.73,-71.77 88.93,-82.21 95.84,-81.05"/>
</g>
</g>
</svg>
