<?xml version="1.0" encoding="UTF-8" standalone="no"?>
<!DOCTYPE svg PUBLIC "-//W3C//DTD SVG 1.1//EN"
 "http://www.w3.org/Graphics/SVG/1.1/DTD/svg11.dtd">
<!-- Generated by graphviz version 2.43.0 (0)
 -->
<!-- Title: ipc::shm::classic::Pool_arena::is_handle_in_arena Pages: 1 -->
<svg width="248pt" height="44pt"
 viewBox="0.00 0.00 248.00 44.00" xmlns="http://www.w3.org/2000/svg" xmlns:xlink="http://www.w3.org/1999/xlink">
<g id="graph0" class="graph" transform="scale(1 1) rotate(0) translate(4 40)">
<title>ipc::shm::classic::Pool_arena::is_handle_in_arena</title>
<polygon fill="white" stroke="transparent" points="-4,4 -4,-40 244,-40 244,4 -4,4"/>
<!-- Node1 -->
<g id="node1" class="node">
<title>Node1</title>
<g id="a_node1"><a xlink:title="Returns true if and only if handle came from either this&#45;&gt;construct&lt;T&gt;() or this&#45;&gt;borrow_object&lt;T&gt;().">
<polygon fill="#bfbfbf" stroke="black" points="0,-0.5 0,-35.5 107,-35.5 107,-0.5 0,-0.5"/>
<text text-anchor="start" x="8" y="-25.1" font-family="Helvetica,sans-Serif" font-size="8.00">ipc::shm::classic::</text>
<text text-anchor="start" x="8" y="-16.1" font-family="Helvetica,sans-Serif" font-size="8.00">Pool_arena::is_handle</text>
<text text-anchor="middle" x="53.5" y="-7.1" font-family="Helvetica,sans-Serif" font-size="8.00">_in_arena</text>
</a>
</g>
</g>
<!-- Node2 -->
<g id="node2" class="node">
<title>Node2</title>
<g id="a_node2"><a xlink:href="classipc_1_1shm_1_1classic_1_1Pool__arena.html#a88b632d6a9d1248810175a6b65d7f638" target="_top" xlink:title="Returns true if and only if the byte at p is within the bounds of the pool accessed by *this.">
<polygon fill="white" stroke="black" points="143,-0.5 143,-35.5 240,-35.5 240,-0.5 143,-0.5"/>
<text text-anchor="start" x="151" y="-25.1" font-family="Helvetica,sans-Serif" font-size="8.00">ipc::shm::classic::</text>
<text text-anchor="start" x="151" y="-16.1" font-family="Helvetica,sans-Serif" font-size="8.00">Pool_arena::is_addr</text>
<text text-anchor="middle" x="191.5" y="-7.1" font-family="Helvetica,sans-Serif" font-size="8.00">_in_arena</text>
</a>
</g>
</g>
<!-- Node1&#45;&gt;Node2 -->
<g id="edge1" class="edge">
<title>Node1&#45;&gt;Node2</title>
<path fill="none" stroke="midnightblue" d="M107.08,-18C115.48,-18 124.2,-18 132.71,-18"/>
<polygon fill="midnightblue" stroke="midnightblue" points="132.95,-21.5 142.95,-18 132.95,-14.5 132.95,-21.5"/>
</g>
</g>
</svg>
