<?xml version="1.0" encoding="UTF-8" standalone="no"?>
<!DOCTYPE svg PUBLIC "-//W3C//DTD SVG 1.1//EN"
 "http://www.w3.org/Graphics/SVG/1.1/DTD/svg11.dtd">
<!-- Generated by graphviz version 2.43.0 (0)
 -->
<!-- Title: ipc::transport::Native_socket_stream::Impl Pages: 1 -->
<svg width="1008pt" height="274pt"
 viewBox="0.00 0.00 1008.00 274.00" xmlns="http://www.w3.org/2000/svg" xmlns:xlink="http://www.w3.org/1999/xlink">
<g id="graph0" class="graph" transform="scale(1 1) rotate(0) translate(4 270)">
<title>ipc::transport::Native_socket_stream::Impl</title>
<polygon fill="white" stroke="transparent" points="-4,4 -4,-270 1004,-270 1004,4 -4,4"/>
<!-- Node1 -->
<g id="node1" class="node">
<title>Node1</title>
<g id="a_node1"><a xlink:title="Internal, non&#45;movable pImpl implementation of Native_socket_stream class.">
<polygon fill="#bfbfbf" stroke="black" points="896,-137 896,-163 1000,-163 1000,-137 896,-137"/>
<text text-anchor="start" x="904" y="-152.6" font-family="Helvetica,sans-Serif" font-size="8.00">ipc::transport::Native</text>
<text text-anchor="middle" x="948" y="-143.6" font-family="Helvetica,sans-Serif" font-size="8.00">_socket_stream::Impl</text>
</a>
</g>
</g>
<!-- Node2 -->
<g id="node2" class="node">
<title>Node2</title>
<g id="a_node2"><a xlink:title=" ">
<polygon fill="white" stroke="#bfbfbf" points="627,-235.5 627,-252.5 734,-252.5 734,-235.5 627,-235.5"/>
<text text-anchor="middle" x="680.5" y="-242.1" font-family="Helvetica,sans-Serif" font-size="8.00">flow::log::Log_context</text>
</a>
</g>
</g>
<!-- Node2&#45;&gt;Node1 -->
<g id="edge1" class="edge">
<title>Node2&#45;&gt;Node1</title>
<path fill="none" stroke="midnightblue" d="M744.15,-235.13C783.74,-228.05 835.29,-216.1 878,-197 897.72,-188.18 917.86,-173.71 931.25,-163.15"/>
<polygon fill="midnightblue" stroke="midnightblue" points="743.36,-231.71 734.1,-236.86 744.55,-238.61 743.36,-231.71"/>
</g>
<!-- Node3 -->
<g id="node3" class="node">
<title>Node3</title>
<g id="a_node3"><a xlink:title=" ">
<polygon fill="white" stroke="#bfbfbf" points="631,-199.5 631,-216.5 730,-216.5 730,-199.5 631,-199.5"/>
<text text-anchor="middle" x="680.5" y="-206.1" font-family="Helvetica,sans-Serif" font-size="8.00">boost::noncopyable</text>
</a>
</g>
</g>
<!-- Node3&#45;&gt;Node1 -->
<g id="edge2" class="edge">
<title>Node3&#45;&gt;Node1</title>
<path fill="none" stroke="#8b1a1a" d="M740.32,-199.81C779.61,-193.79 832.28,-184.63 878,-173 888.89,-170.23 900.55,-166.61 911.13,-163.06"/>
<polygon fill="#8b1a1a" stroke="#8b1a1a" points="739.74,-196.36 730.37,-201.32 740.78,-203.28 739.74,-196.36"/>
</g>
<!-- Node4 -->
<g id="node4" class="node">
<title>Node4</title>
<g id="a_node4"><a xlink:title=" ">
<polygon fill="white" stroke="#bfbfbf" points="615,-154 615,-180 746,-180 746,-154 615,-154"/>
<text text-anchor="start" x="623" y="-169.6" font-family="Helvetica,sans-Serif" font-size="8.00">unique_ptr&lt; flow::async</text>
<text text-anchor="middle" x="680.5" y="-160.6" font-family="Helvetica,sans-Serif" font-size="8.00">::Single_thread_task_loop &gt;</text>
</a>
</g>
</g>
<!-- Node4&#45;&gt;Node1 -->
<g id="edge3" class="edge">
<title>Node4&#45;&gt;Node1</title>
<path fill="none" stroke="#9a32cd" stroke-dasharray="5,2" d="M756.31,-162.21C800.89,-159.36 856.3,-155.81 895.88,-153.27"/>
<polygon fill="#9a32cd" stroke="#9a32cd" points="755.86,-158.73 746.11,-162.86 756.31,-165.72 755.86,-158.73"/>
<text text-anchor="middle" x="828.5" y="-162.6" font-family="Helvetica,sans-Serif" font-size="8.00"> m_worker</text>
</g>
<!-- Node5 -->
<g id="node5" class="node">
<title>Node5</title>
<g id="a_node5"><a xlink:href="classipc_1_1transport_1_1sync__io_1_1Native__socket__stream.html" target="_top" xlink:title="Implements both sync_io::Native_handle_sender and sync_io::Native_handle_receiver concepts by using a...">
<polygon fill="white" stroke="black" points="619,-109 619,-135 742,-135 742,-109 619,-109"/>
<text text-anchor="start" x="627" y="-124.6" font-family="Helvetica,sans-Serif" font-size="8.00">ipc::transport::sync</text>
<text text-anchor="middle" x="680.5" y="-115.6" font-family="Helvetica,sans-Serif" font-size="8.00">_io::Native_socket_stream</text>
</a>
</g>
</g>
<!-- Node5&#45;&gt;Node1 -->
<g id="edge4" class="edge">
<title>Node5&#45;&gt;Node1</title>
<path fill="none" stroke="#9a32cd" stroke-dasharray="5,2" d="M752.48,-128.29C789.86,-131.74 836.44,-136.28 878,-141 883.76,-141.65 889.79,-142.38 895.78,-143.13"/>
<polygon fill="#9a32cd" stroke="#9a32cd" points="752.47,-124.77 742.19,-127.34 751.83,-131.74 752.47,-124.77"/>
<text text-anchor="middle" x="828.5" y="-143.6" font-family="Helvetica,sans-Serif" font-size="8.00"> m_sync_io</text>
</g>
<!-- Node6 -->
<g id="node6" class="node">
<title>Node6</title>
<g id="a_node6"><a xlink:href="classipc_1_1util_1_1Shared__name.html" target="_top" xlink:title="String&#45;wrapping abstraction representing a name uniquely distinguishing a kernel&#45;persistent entity fr...">
<polygon fill="white" stroke="black" points="318,-130.5 318,-147.5 428,-147.5 428,-130.5 318,-130.5"/>
<text text-anchor="middle" x="373" y="-137.1" font-family="Helvetica,sans-Serif" font-size="8.00">ipc::util::Shared_name</text>
</a>
</g>
</g>
<!-- Node6&#45;&gt;Node5 -->
<g id="edge5" class="edge">
<title>Node6&#45;&gt;Node5</title>
<path fill="none" stroke="#9a32cd" stroke-dasharray="5,2" d="M438.47,-136.29C479.56,-134.47 533.93,-131.88 582,-129 593.94,-128.28 606.7,-127.43 618.92,-126.57"/>
<polygon fill="#9a32cd" stroke="#9a32cd" points="438.16,-132.8 428.32,-136.74 438.47,-139.8 438.16,-132.8"/>
<text text-anchor="middle" x="516" y="-137.6" font-family="Helvetica,sans-Serif" font-size="8.00"> S_RESOURCE_TYPE_ID</text>
</g>
<!-- Node6&#45;&gt;Node6 -->
<g id="edge6" class="edge">
<title>Node6&#45;&gt;Node6</title>
<path fill="none" stroke="#9a32cd" stroke-dasharray="5,2" d="M352.45,-156.86C353.21,-162.02 360.06,-166 373,-166 393.2,-166 398.56,-156.29 389.09,-147.57"/>
<polygon fill="#9a32cd" stroke="#9a32cd" points="355.73,-158.1 356.91,-147.57 349.42,-155.07 355.73,-158.1"/>
<text text-anchor="middle" x="373" y="-231.6" font-family="Helvetica,sans-Serif" font-size="8.00"> S_1ST_OR_ONLY</text>
<text text-anchor="middle" x="373" y="-222.6" font-family="Helvetica,sans-Serif" font-size="8.00">S_EMPTY</text>
<text text-anchor="start" x="334.5" y="-213.6" font-family="Helvetica,sans-Serif" font-size="8.00">S_RESOURCE_TYPE</text>
<text text-anchor="middle" x="373" y="-204.6" font-family="Helvetica,sans-Serif" font-size="8.00">_ID_MUTEX</text>
<text text-anchor="start" x="334.5" y="-195.6" font-family="Helvetica,sans-Serif" font-size="8.00">S_RESOURCE_TYPE</text>
<text text-anchor="middle" x="373" y="-186.6" font-family="Helvetica,sans-Serif" font-size="8.00">_ID_SHM</text>
<text text-anchor="middle" x="373" y="-177.6" font-family="Helvetica,sans-Serif" font-size="8.00">S_ROOT_MAGIC</text>
<text text-anchor="middle" x="373" y="-168.6" font-family="Helvetica,sans-Serif" font-size="8.00">S_SENTINEL</text>
</g>
<!-- Node7 -->
<g id="node7" class="node">
<title>Node7</title>
<g id="a_node7"><a xlink:title=" ">
<polygon fill="white" stroke="#bfbfbf" points="150,-221.5 150,-238.5 190,-238.5 190,-221.5 150,-221.5"/>
<text text-anchor="middle" x="170" y="-228.1" font-family="Helvetica,sans-Serif" font-size="8.00">size_t</text>
</a>
</g>
</g>
<!-- Node7&#45;&gt;Node5 -->
<g id="edge12" class="edge">
<title>Node7&#45;&gt;Node5</title>
<path fill="none" stroke="#9a32cd" stroke-dasharray="5,2" d="M200,-238.07C248.88,-250.31 350.32,-269.86 432,-247 516.12,-223.46 520.02,-180.11 600,-145 608.55,-141.25 617.89,-137.92 627.05,-135.04"/>
<polygon fill="#9a32cd" stroke="#9a32cd" points="200.68,-234.63 190.12,-235.51 198.92,-241.4 200.68,-234.63"/>
<text text-anchor="middle" x="373" y="-259.6" font-family="Helvetica,sans-Serif" font-size="8.00"> S_MAX_META_BLOB_LENGTH</text>
</g>
<!-- Node7&#45;&gt;Node6 -->
<g id="edge7" class="edge">
<title>Node7&#45;&gt;Node6</title>
<path fill="none" stroke="#9a32cd" stroke-dasharray="5,2" d="M199.19,-217.24C240.78,-198.41 317.45,-163.69 352.99,-147.6"/>
<polygon fill="#9a32cd" stroke="#9a32cd" points="197.58,-214.13 189.91,-221.44 200.46,-220.5 197.58,-214.13"/>
<text text-anchor="middle" x="263" y="-205.6" font-family="Helvetica,sans-Serif" font-size="8.00"> S_MAX_LENGTH</text>
</g>
<!-- Node8 -->
<g id="node8" class="node">
<title>Node8</title>
<g id="a_node8"><a xlink:title=" ">
<polygon fill="white" stroke="#bfbfbf" points="128,-147.5 128,-164.5 212,-164.5 212,-147.5 128,-147.5"/>
<text text-anchor="middle" x="170" y="-154.1" font-family="Helvetica,sans-Serif" font-size="8.00">static const char</text>
</a>
</g>
</g>
<!-- Node8&#45;&gt;Node6 -->
<g id="edge8" class="edge">
<title>Node8&#45;&gt;Node6</title>
<path fill="none" stroke="#9a32cd" stroke-dasharray="5,2" d="M222.18,-151.67C251.46,-149.19 288.17,-146.09 317.92,-143.57"/>
<polygon fill="#9a32cd" stroke="#9a32cd" points="221.83,-148.19 212.16,-152.52 222.42,-155.16 221.83,-148.19"/>
<text text-anchor="middle" x="263" y="-152.6" font-family="Helvetica,sans-Serif" font-size="8.00"> S_SEPARATOR</text>
</g>
<!-- Node9 -->
<g id="node9" class="node">
<title>Node9</title>
<g id="a_node9"><a xlink:title=" ">
<polygon fill="white" stroke="black" points="140.5,-111.5 140.5,-128.5 199.5,-128.5 199.5,-111.5 140.5,-111.5"/>
<text text-anchor="middle" x="170" y="-118.1" font-family="Helvetica,sans-Serif" font-size="8.00">std::string</text>
</a>
</g>
</g>
<!-- Node9&#45;&gt;Node6 -->
<g id="edge9" class="edge">
<title>Node9&#45;&gt;Node6</title>
<path fill="none" stroke="#9a32cd" stroke-dasharray="5,2" d="M210.11,-123.7C240.81,-126.6 283.9,-130.67 317.91,-133.89"/>
<polygon fill="#9a32cd" stroke="#9a32cd" points="210.08,-120.18 199.8,-122.72 209.42,-127.15 210.08,-120.18"/>
<text text-anchor="middle" x="263" y="-133.6" font-family="Helvetica,sans-Serif" font-size="8.00"> m_raw_name</text>
</g>
<!-- Node10 -->
<g id="node10" class="node">
<title>Node10</title>
<g id="a_node10"><a xlink:title=" ">
<polygon fill="white" stroke="black" points="0,-107 0,-133 91,-133 91,-107 0,-107"/>
<text text-anchor="start" x="8" y="-122.6" font-family="Helvetica,sans-Serif" font-size="8.00">std::basic_string&lt;</text>
<text text-anchor="middle" x="45.5" y="-113.6" font-family="Helvetica,sans-Serif" font-size="8.00"> Char &gt;</text>
</a>
</g>
</g>
<!-- Node10&#45;&gt;Node9 -->
<g id="edge10" class="edge">
<title>Node10&#45;&gt;Node9</title>
<path fill="none" stroke="midnightblue" d="M101.25,-120C114.72,-120 128.61,-120 140.29,-120"/>
<polygon fill="midnightblue" stroke="midnightblue" points="101.07,-116.5 91.07,-120 101.07,-123.5 101.07,-116.5"/>
</g>
<!-- Node11 -->
<g id="node11" class="node">
<title>Node11</title>
<g id="a_node11"><a xlink:title=" ">
<polygon fill="white" stroke="#bfbfbf" points="355.5,-83.5 355.5,-100.5 390.5,-100.5 390.5,-83.5 355.5,-83.5"/>
<text text-anchor="middle" x="373" y="-90.1" font-family="Helvetica,sans-Serif" font-size="8.00">bool</text>
</a>
</g>
</g>
<!-- Node11&#45;&gt;Node5 -->
<g id="edge11" class="edge">
<title>Node11&#45;&gt;Node5</title>
<path fill="none" stroke="#9a32cd" stroke-dasharray="5,2" d="M400.89,-90.68C415.43,-90.03 433.69,-89.32 450,-89 508.66,-87.84 525.21,-74.28 582,-89 590.86,-91.3 591.55,-95.48 600,-99 608.89,-102.7 618.57,-106.04 628.02,-108.95"/>
<polygon fill="#9a32cd" stroke="#9a32cd" points="400.43,-87.2 390.6,-91.16 400.75,-94.19 400.43,-87.2"/>
<text text-anchor="middle" x="516" y="-118.6" font-family="Helvetica,sans-Serif" font-size="8.00"> S_BLOB_UNDERFLOW_ALLOWED</text>
<text text-anchor="start" x="450" y="-109.6" font-family="Helvetica,sans-Serif" font-size="8.00">S_META_BLOB_UNDERFLOW</text>
<text text-anchor="middle" x="516" y="-100.6" font-family="Helvetica,sans-Serif" font-size="8.00">_ALLOWED</text>
<text text-anchor="middle" x="516" y="-91.6" font-family="Helvetica,sans-Serif" font-size="8.00">S_TRANSMIT_NATIVE_HANDLES</text>
</g>
<!-- Node12 -->
<g id="node12" class="node">
<title>Node12</title>
<g id="a_node12"><a xlink:title=" ">
<polygon fill="white" stroke="#bfbfbf" points="314,-29.5 314,-64.5 432,-64.5 432,-29.5 314,-29.5"/>
<text text-anchor="start" x="322" y="-54.1" font-family="Helvetica,sans-Serif" font-size="8.00">propagate_const&lt; boost</text>
<text text-anchor="start" x="322" y="-45.1" font-family="Helvetica,sans-Serif" font-size="8.00">::movelib::unique_ptr</text>
<text text-anchor="middle" x="373" y="-36.1" font-family="Helvetica,sans-Serif" font-size="8.00">&lt; Impl &gt; &gt;</text>
</a>
</g>
</g>
<!-- Node12&#45;&gt;Node5 -->
<g id="edge13" class="edge">
<title>Node12&#45;&gt;Node5</title>
<path fill="none" stroke="#9a32cd" stroke-dasharray="5,2" d="M442.51,-39.4C485.72,-38.01 540.91,-42.78 582,-69 595.11,-77.36 587.68,-89.52 600,-99 605.69,-103.38 612.19,-106.93 618.97,-109.8"/>
<polygon fill="#9a32cd" stroke="#9a32cd" points="442.2,-35.91 432.37,-39.85 442.51,-42.91 442.2,-35.91"/>
<text text-anchor="middle" x="516" y="-71.6" font-family="Helvetica,sans-Serif" font-size="8.00"> m_impl</text>
</g>
<!-- Node13 -->
<g id="node13" class="node">
<title>Node13</title>
<g id="a_node13"><a xlink:title=" ">
<polygon fill="white" stroke="#bfbfbf" points="602.5,-54.5 602.5,-89.5 758.5,-89.5 758.5,-54.5 602.5,-54.5"/>
<text text-anchor="start" x="610.5" y="-79.1" font-family="Helvetica,sans-Serif" font-size="8.00">optional&lt; ipc::transport</text>
<text text-anchor="start" x="610.5" y="-70.1" font-family="Helvetica,sans-Serif" font-size="8.00">::sync_io::Async_adapter</text>
<text text-anchor="middle" x="680.5" y="-61.1" font-family="Helvetica,sans-Serif" font-size="8.00">_sender&lt; decltype(m_sync_io)&gt; &gt;</text>
</a>
</g>
</g>
<!-- Node13&#45;&gt;Node1 -->
<g id="edge14" class="edge">
<title>Node13&#45;&gt;Node1</title>
<path fill="none" stroke="#9a32cd" stroke-dasharray="5,2" d="M768.64,-88.39C803.14,-95.92 842.88,-105.89 878,-118 892.98,-123.17 909.08,-130.52 921.95,-136.88"/>
<polygon fill="#9a32cd" stroke="#9a32cd" points="769.09,-84.91 758.58,-86.24 767.62,-91.76 769.09,-84.91"/>
<text text-anchor="middle" x="828.5" y="-120.6" font-family="Helvetica,sans-Serif" font-size="8.00"> m_snd_sync_io_adapter</text>
</g>
<!-- Node14 -->
<g id="node14" class="node">
<title>Node14</title>
<g id="a_node14"><a xlink:title=" ">
<polygon fill="white" stroke="#bfbfbf" points="600,-0.5 600,-35.5 761,-35.5 761,-0.5 600,-0.5"/>
<text text-anchor="start" x="608" y="-25.1" font-family="Helvetica,sans-Serif" font-size="8.00">optional&lt; ipc::transport</text>
<text text-anchor="start" x="608" y="-16.1" font-family="Helvetica,sans-Serif" font-size="8.00">::sync_io::Async_adapter</text>
<text text-anchor="middle" x="680.5" y="-7.1" font-family="Helvetica,sans-Serif" font-size="8.00">_receiver&lt; decltype(m_sync_io)&gt; &gt;</text>
</a>
</g>
</g>
<!-- Node14&#45;&gt;Node1 -->
<g id="edge15" class="edge">
<title>Node14&#45;&gt;Node1</title>
<path fill="none" stroke="#9a32cd" stroke-dasharray="5,2" d="M771.18,-35.13C806.21,-44.37 845.65,-58.1 878,-78 903.36,-93.6 925.79,-120.74 937.78,-136.87"/>
<polygon fill="#9a32cd" stroke="#9a32cd" points="771.98,-31.72 761.43,-32.64 770.25,-38.5 771.98,-31.72"/>
<text text-anchor="middle" x="828.5" y="-80.6" font-family="Helvetica,sans-Serif" font-size="8.00"> m_rcv_sync_io_adapter</text>
</g>
</g>
</svg>
