<?xml version="1.0" encoding="UTF-8" standalone="no"?>
<!DOCTYPE svg PUBLIC "-//W3C//DTD SVG 1.1//EN"
 "http://www.w3.org/Graphics/SVG/1.1/DTD/svg11.dtd">
<!-- Generated by graphviz version 2.43.0 (0)
 -->
<!-- Title: ipc::transport::Socket_stream_channel_of_blobs&lt; SIO &gt; Pages: 1 -->
<svg width="709pt" height="334pt"
 viewBox="0.00 0.00 709.00 333.50" xmlns="http://www.w3.org/2000/svg" xmlns:xlink="http://www.w3.org/1999/xlink">
<g id="graph0" class="graph" transform="scale(1 1) rotate(0) translate(4 329.5)">
<title>ipc::transport::Socket_stream_channel_of_blobs&lt; SIO &gt;</title>
<polygon fill="white" stroke="transparent" points="-4,4 -4,-329.5 705,-329.5 705,4 -4,4"/>
<!-- Node1 -->
<g id="node1" class="node">
<title>Node1</title>
<g id="a_node1"><a xlink:title="A Channel with a blobs pipe only (no handles pipe) that uses a Unix domain socket connection as the u...">
<polygon fill="#bfbfbf" stroke="black" points="577,-131 577,-166 701,-166 701,-131 577,-131"/>
<text text-anchor="start" x="585" y="-155.6" font-family="Helvetica,sans-Serif" font-size="8.00">ipc::transport::Socket</text>
<text text-anchor="start" x="585" y="-146.6" font-family="Helvetica,sans-Serif" font-size="8.00">_stream_channel_of_blobs</text>
<text text-anchor="middle" x="639" y="-137.6" font-family="Helvetica,sans-Serif" font-size="8.00">&lt; SIO &gt;</text>
</a>
</g>
</g>
<!-- Node2 -->
<g id="node2" class="node">
<title>Node2</title>
<g id="a_node2"><a xlink:href="classipc_1_1transport_1_1Channel.html" target="_top" xlink:title=" ">
<polygon fill="white" stroke="black" points="378,-108.5 378,-188.5 540,-188.5 540,-108.5 378,-108.5"/>
<text text-anchor="start" x="386" y="-178.1" font-family="Helvetica,sans-Serif" font-size="8.00">ipc::transport::Channel</text>
<text text-anchor="start" x="386" y="-169.1" font-family="Helvetica,sans-Serif" font-size="8.00">&lt; std::conditional_t&lt;</text>
<text text-anchor="start" x="386" y="-160.1" font-family="Helvetica,sans-Serif" font-size="8.00"> SIO, sync_io::Native_socket</text>
<text text-anchor="start" x="386" y="-151.1" font-family="Helvetica,sans-Serif" font-size="8.00">_stream, Native_socket_stream</text>
<text text-anchor="start" x="386" y="-142.1" font-family="Helvetica,sans-Serif" font-size="8.00"> &gt;, std::conditional_t&lt; SIO,</text>
<text text-anchor="start" x="386" y="-133.1" font-family="Helvetica,sans-Serif" font-size="8.00"> sync_io::Native_socket_stream,</text>
<text text-anchor="start" x="386" y="-124.1" font-family="Helvetica,sans-Serif" font-size="8.00"> Native_socket_stream &gt;, Null_peer,</text>
<text text-anchor="middle" x="459" y="-115.1" font-family="Helvetica,sans-Serif" font-size="8.00"> Null_peer &gt;</text>
</a>
</g>
</g>
<!-- Node2&#45;&gt;Node1 -->
<g id="edge1" class="edge">
<title>Node2&#45;&gt;Node1</title>
<path fill="none" stroke="midnightblue" d="M550.32,-148.5C559.35,-148.5 568.35,-148.5 576.97,-148.5"/>
<polygon fill="midnightblue" stroke="midnightblue" points="550.15,-145 540.15,-148.5 550.15,-152 550.15,-145"/>
</g>
<!-- Node3 -->
<g id="node3" class="node">
<title>Node3</title>
<g id="a_node3"><a xlink:title=" ">
<polygon fill="white" stroke="#bfbfbf" points="133.5,-308 133.5,-325 240.5,-325 240.5,-308 133.5,-308"/>
<text text-anchor="middle" x="187" y="-314.6" font-family="Helvetica,sans-Serif" font-size="8.00">flow::log::Log_context</text>
</a>
</g>
</g>
<!-- Node3&#45;&gt;Node2 -->
<g id="edge2" class="edge">
<title>Node3&#45;&gt;Node2</title>
<path fill="none" stroke="midnightblue" d="M251.07,-321.6C285.57,-321.48 327.73,-316.32 360,-296.5 400.31,-271.74 427.51,-223.46 442.83,-188.77"/>
<polygon fill="midnightblue" stroke="midnightblue" points="250.67,-318.1 240.63,-321.49 250.59,-325.1 250.67,-318.1"/>
</g>
<!-- Node4 -->
<g id="node4" class="node">
<title>Node4</title>
<g id="a_node4"><a xlink:title=" ">
<polygon fill="white" stroke="#bfbfbf" points="136.5,-217 136.5,-234 237.5,-234 237.5,-217 136.5,-217"/>
<text text-anchor="middle" x="187" y="-223.6" font-family="Helvetica,sans-Serif" font-size="8.00">static constexpr bool</text>
</a>
</g>
</g>
<!-- Node4&#45;&gt;Node2 -->
<g id="edge3" class="edge">
<title>Node4&#45;&gt;Node2</title>
<path fill="none" stroke="#9a32cd" stroke-dasharray="5,2" d="M247.64,-215.9C281.07,-209.8 323.3,-200.9 360,-189.5 365.9,-187.67 371.93,-185.61 377.97,-183.42"/>
<polygon fill="#9a32cd" stroke="#9a32cd" points="246.79,-212.49 237.57,-217.7 248.03,-219.39 246.79,-212.49"/>
<text text-anchor="middle" x="312" y="-286.1" font-family="Helvetica,sans-Serif" font-size="8.00"> S_HAS_2_PIPES</text>
<text text-anchor="middle" x="312" y="-277.1" font-family="Helvetica,sans-Serif" font-size="8.00">S_HAS_BLOB_PIPE</text>
<text text-anchor="middle" x="312" y="-268.1" font-family="Helvetica,sans-Serif" font-size="8.00">S_HAS_BLOB_PIPE_ONLY</text>
<text text-anchor="start" x="264" y="-259.1" font-family="Helvetica,sans-Serif" font-size="8.00">S_HAS_NATIVE_HANDLE</text>
<text text-anchor="middle" x="312" y="-250.1" font-family="Helvetica,sans-Serif" font-size="8.00">_PIPE</text>
<text text-anchor="start" x="264" y="-241.1" font-family="Helvetica,sans-Serif" font-size="8.00">S_HAS_NATIVE_HANDLE</text>
<text text-anchor="middle" x="312" y="-232.1" font-family="Helvetica,sans-Serif" font-size="8.00">_PIPE_ONLY</text>
<text text-anchor="middle" x="312" y="-223.1" font-family="Helvetica,sans-Serif" font-size="8.00">S_IS_ASYNC_IO_OBJ</text>
<text text-anchor="middle" x="312" y="-214.1" font-family="Helvetica,sans-Serif" font-size="8.00">S_IS_SYNC_IO_OBJ</text>
</g>
<!-- Node5 -->
<g id="node5" class="node">
<title>Node5</title>
<g id="a_node5"><a xlink:title=" ">
<polygon fill="white" stroke="black" points="157.5,-181 157.5,-198 216.5,-198 216.5,-181 157.5,-181"/>
<text text-anchor="middle" x="187" y="-187.6" font-family="Helvetica,sans-Serif" font-size="8.00">std::string</text>
</a>
</g>
</g>
<!-- Node5&#45;&gt;Node2 -->
<g id="edge4" class="edge">
<title>Node5&#45;&gt;Node2</title>
<path fill="none" stroke="#9a32cd" stroke-dasharray="5,2" d="M226.6,-183.64C265.9,-177.67 327.97,-168.24 377.94,-160.66"/>
<polygon fill="#9a32cd" stroke="#9a32cd" points="226,-180.19 216.64,-185.15 227.05,-187.11 226,-180.19"/>
<text text-anchor="middle" x="312" y="-179.1" font-family="Helvetica,sans-Serif" font-size="8.00"> m_nickname</text>
</g>
<!-- Node6 -->
<g id="node6" class="node">
<title>Node6</title>
<g id="a_node6"><a xlink:title=" ">
<polygon fill="white" stroke="black" points="0,-176.5 0,-202.5 91,-202.5 91,-176.5 0,-176.5"/>
<text text-anchor="start" x="8" y="-192.1" font-family="Helvetica,sans-Serif" font-size="8.00">std::basic_string&lt;</text>
<text text-anchor="middle" x="45.5" y="-183.1" font-family="Helvetica,sans-Serif" font-size="8.00"> Char &gt;</text>
</a>
</g>
</g>
<!-- Node6&#45;&gt;Node5 -->
<g id="edge5" class="edge">
<title>Node6&#45;&gt;Node5</title>
<path fill="none" stroke="midnightblue" d="M101.16,-189.5C120.32,-189.5 141.07,-189.5 157.25,-189.5"/>
<polygon fill="midnightblue" stroke="midnightblue" points="101.02,-186 91.02,-189.5 101.02,-193 101.02,-186"/>
</g>
<!-- Node7 -->
<g id="node7" class="node">
<title>Node7</title>
<g id="a_node7"><a xlink:title=" ">
<polygon fill="white" stroke="#bfbfbf" points="132,-135.5 132,-161.5 242,-161.5 242,-135.5 132,-135.5"/>
<text text-anchor="start" x="140" y="-151.1" font-family="Helvetica,sans-Serif" font-size="8.00">optional&lt; Blob_sender</text>
<text text-anchor="middle" x="187" y="-142.1" font-family="Helvetica,sans-Serif" font-size="8.00">_obj &gt;</text>
</a>
</g>
</g>
<!-- Node7&#45;&gt;Node2 -->
<g id="edge6" class="edge">
<title>Node7&#45;&gt;Node2</title>
<path fill="none" stroke="#9a32cd" stroke-dasharray="5,2" d="M252.64,-148.5C290.24,-148.5 337.94,-148.5 377.91,-148.5"/>
<polygon fill="#9a32cd" stroke="#9a32cd" points="252.31,-145 242.31,-148.5 252.31,-152 252.31,-145"/>
<text text-anchor="middle" x="312" y="-151.1" font-family="Helvetica,sans-Serif" font-size="8.00"> m_blob_snd</text>
</g>
<!-- Node8 -->
<g id="node8" class="node">
<title>Node8</title>
<g id="a_node8"><a xlink:title=" ">
<polygon fill="white" stroke="#bfbfbf" points="130,-90.5 130,-116.5 244,-116.5 244,-90.5 130,-90.5"/>
<text text-anchor="start" x="138" y="-106.1" font-family="Helvetica,sans-Serif" font-size="8.00">optional&lt; Blob_receiver</text>
<text text-anchor="middle" x="187" y="-97.1" font-family="Helvetica,sans-Serif" font-size="8.00">_obj &gt;</text>
</a>
</g>
</g>
<!-- Node8&#45;&gt;Node2 -->
<g id="edge7" class="edge">
<title>Node8&#45;&gt;Node2</title>
<path fill="none" stroke="#9a32cd" stroke-dasharray="5,2" d="M254.53,-114.59C291.86,-120.81 338.68,-128.61 377.99,-135.16"/>
<polygon fill="#9a32cd" stroke="#9a32cd" points="254.71,-111.07 244.27,-112.88 253.56,-117.98 254.71,-111.07"/>
<text text-anchor="middle" x="312" y="-133.1" font-family="Helvetica,sans-Serif" font-size="8.00"> m_blob_rcv</text>
</g>
<!-- Node9 -->
<g id="node9" class="node">
<title>Node9</title>
<g id="a_node9"><a xlink:title=" ">
<polygon fill="white" stroke="#bfbfbf" points="128,-45.5 128,-71.5 246,-71.5 246,-45.5 128,-45.5"/>
<text text-anchor="start" x="136" y="-61.1" font-family="Helvetica,sans-Serif" font-size="8.00">optional&lt; Native_handle</text>
<text text-anchor="middle" x="187" y="-52.1" font-family="Helvetica,sans-Serif" font-size="8.00">_sender_obj &gt;</text>
</a>
</g>
</g>
<!-- Node9&#45;&gt;Node2 -->
<g id="edge8" class="edge">
<title>Node9&#45;&gt;Node2</title>
<path fill="none" stroke="#9a32cd" stroke-dasharray="5,2" d="M256.22,-73.45C288.14,-81.17 326.43,-91.5 360,-103.5 365.91,-105.61 371.94,-107.94 377.98,-110.39"/>
<polygon fill="#9a32cd" stroke="#9a32cd" points="256.64,-69.95 246.1,-71.03 255.01,-76.76 256.64,-69.95"/>
<text text-anchor="middle" x="312" y="-106.1" font-family="Helvetica,sans-Serif" font-size="8.00"> m_hndl_snd</text>
</g>
<!-- Node10 -->
<g id="node10" class="node">
<title>Node10</title>
<g id="a_node10"><a xlink:title=" ">
<polygon fill="white" stroke="#bfbfbf" points="128,-0.5 128,-26.5 246,-26.5 246,-0.5 128,-0.5"/>
<text text-anchor="start" x="136" y="-16.1" font-family="Helvetica,sans-Serif" font-size="8.00">optional&lt; Native_handle</text>
<text text-anchor="middle" x="187" y="-7.1" font-family="Helvetica,sans-Serif" font-size="8.00">_receiver_obj &gt;</text>
</a>
</g>
</g>
<!-- Node10&#45;&gt;Node2 -->
<g id="edge9" class="edge">
<title>Node10&#45;&gt;Node2</title>
<path fill="none" stroke="#9a32cd" stroke-dasharray="5,2" d="M256.17,-25.62C288.89,-33.23 327.88,-45 360,-62.5 381.86,-74.41 403.03,-91.97 420.07,-108.11"/>
<polygon fill="#9a32cd" stroke="#9a32cd" points="256.75,-22.16 246.23,-23.39 255.22,-28.99 256.75,-22.16"/>
<text text-anchor="middle" x="312" y="-65.1" font-family="Helvetica,sans-Serif" font-size="8.00"> m_hndl_rcv</text>
</g>
</g>
</svg>
