<?xml version="1.0" encoding="UTF-8" standalone="no"?>
<!DOCTYPE svg PUBLIC "-//W3C//DTD SVG 1.1//EN"
 "http://www.w3.org/Graphics/SVG/1.1/DTD/svg11.dtd">
<!-- Generated by graphviz version 2.43.0 (0)
 -->
<!-- Title: ipc::transport::struc::Channel::Channel Pages: 1 -->
<svg width="278pt" height="90pt"
 viewBox="0.00 0.00 278.00 89.50" xmlns="http://www.w3.org/2000/svg" xmlns:xlink="http://www.w3.org/1999/xlink">
<g id="graph0" class="graph" transform="scale(1 1) rotate(0) translate(4 85.5)">
<title>ipc::transport::struc::Channel::Channel</title>
<polygon fill="white" stroke="transparent" points="-4,4 -4,-85.5 274,-85.5 274,4 -4,4"/>
<!-- Node1 -->
<g id="node1" class="node">
<title>Node1</title>
<g id="a_node1"><a xlink:title="All explicit constructors: signatures match exactly those of struc::sync_io::Channel (a/k/a Sync_io_o...">
<polygon fill="#bfbfbf" stroke="black" points="0,-25.5 0,-51.5 98,-51.5 98,-25.5 0,-25.5"/>
<text text-anchor="start" x="8" y="-41.1" font-family="Helvetica,sans-Serif" font-size="8.00">ipc::transport::struc</text>
<text text-anchor="middle" x="49" y="-32.1" font-family="Helvetica,sans-Serif" font-size="8.00">::Channel::Channel</text>
</a>
</g>
</g>
<!-- Node2 -->
<g id="node2" class="node">
<title>Node2</title>
<g id="a_node2"><a xlink:href="classipc_1_1transport_1_1struc_1_1sync__io_1_1Channel.html#a543aa806ec21b8550f9f440e59767d52" target="_top" xlink:title="Analogous to transport::sync_io::Native_handle_sender::replace_event_wait_handles().">
<polygon fill="white" stroke="black" points="137.5,-46 137.5,-81 266.5,-81 266.5,-46 137.5,-46"/>
<text text-anchor="start" x="145.5" y="-70.6" font-family="Helvetica,sans-Serif" font-size="8.00">ipc::transport::struc</text>
<text text-anchor="start" x="145.5" y="-61.6" font-family="Helvetica,sans-Serif" font-size="8.00">::sync_io::Channel::replace</text>
<text text-anchor="middle" x="202" y="-52.6" font-family="Helvetica,sans-Serif" font-size="8.00">_event_wait_handles</text>
</a>
</g>
</g>
<!-- Node1&#45;&gt;Node2 -->
<g id="edge1" class="edge">
<title>Node1&#45;&gt;Node2</title>
<path fill="none" stroke="midnightblue" d="M98.19,-46.48C107.51,-48.02 117.48,-49.67 127.4,-51.31"/>
<polygon fill="midnightblue" stroke="midnightblue" points="126.84,-54.77 137.28,-52.95 127.98,-47.86 126.84,-54.77"/>
</g>
<!-- Node3 -->
<g id="node3" class="node">
<title>Node3</title>
<g id="a_node3"><a xlink:href="classipc_1_1transport_1_1struc_1_1sync__io_1_1Channel.html#a6e4f8c4207fcf678b4cfc785707d3dce" target="_top" xlink:title="Sets up the sync_io&#45;pattern interaction between *this and the user&#39;s event loop; required before asyn...">
<polygon fill="white" stroke="black" points="134,-0.5 134,-26.5 270,-26.5 270,-0.5 134,-0.5"/>
<text text-anchor="start" x="142" y="-16.1" font-family="Helvetica,sans-Serif" font-size="8.00">ipc::transport::struc</text>
<text text-anchor="middle" x="202" y="-7.1" font-family="Helvetica,sans-Serif" font-size="8.00">::sync_io::Channel::start_ops</text>
</a>
</g>
</g>
<!-- Node1&#45;&gt;Node3 -->
<g id="edge2" class="edge">
<title>Node1&#45;&gt;Node3</title>
<path fill="none" stroke="midnightblue" d="M98.19,-30.52C106.47,-29.15 115.25,-27.7 124.06,-26.24"/>
<polygon fill="midnightblue" stroke="midnightblue" points="124.7,-29.68 134,-24.59 123.56,-22.77 124.7,-29.68"/>
</g>
</g>
</svg>
