<?xml version="1.0" encoding="UTF-8" standalone="no"?>
<!DOCTYPE svg PUBLIC "-//W3C//DTD SVG 1.1//EN"
 "http://www.w3.org/Graphics/SVG/1.1/DTD/svg11.dtd">
<!-- Generated by graphviz version 2.43.0 (0)
 -->
<!-- Title: ipc::transport::Bipc_mq_handle::timed_receive Pages: 1 -->
<svg width="313pt" height="116pt"
 viewBox="0.00 0.00 313.00 116.00" xmlns="http://www.w3.org/2000/svg" xmlns:xlink="http://www.w3.org/1999/xlink">
<g id="graph0" class="graph" transform="scale(1 1) rotate(0) translate(4 112)">
<title>ipc::transport::Bipc_mq_handle::timed_receive</title>
<polygon fill="white" stroke="transparent" points="-4,4 -4,-112 309,-112 309,4 -4,4"/>
<!-- Node1 -->
<g id="node1" class="node">
<title>Node1</title>
<g id="a_node1"><a xlink:title="Implements Persistent_mq_handle API: Blocking timed receive: pops copy of message from queue into buf...">
<polygon fill="#bfbfbf" stroke="black" points="0,-32 0,-58 128,-58 128,-32 0,-32"/>
<text text-anchor="start" x="8" y="-47.6" font-family="Helvetica,sans-Serif" font-size="8.00">ipc::transport::Bipc</text>
<text text-anchor="middle" x="64" y="-38.6" font-family="Helvetica,sans-Serif" font-size="8.00">_mq_handle::timed_receive</text>
</a>
</g>
</g>
<!-- Node1&#45;&gt;Node1 -->
<g id="edge3" class="edge">
<title>Node1&#45;&gt;Node1</title>
<path fill="none" stroke="midnightblue" d="M35.24,-58.27C26.52,-67.46 36.11,-76.5 64,-76.5 81.43,-76.5 91.71,-72.97 94.85,-68.08"/>
<polygon fill="midnightblue" stroke="midnightblue" points="98.26,-67.32 92.76,-58.27 91.42,-68.78 98.26,-67.32"/>
</g>
<!-- Node2 -->
<g id="node2" class="node">
<title>Node2</title>
<g id="a_node2"><a xlink:href="classipc_1_1transport_1_1Bipc__mq__handle.html#a9948742d87298d5842d298de9c946c7c" target="_top" xlink:title="Error helper: Run func() which will perform a bipc::message_queue API that might throw; if it does em...">
<polygon fill="white" stroke="black" points="164,-54.5 164,-89.5 305,-89.5 305,-54.5 164,-54.5"/>
<text text-anchor="start" x="172" y="-79.1" font-family="Helvetica,sans-Serif" font-size="8.00">ipc::transport::Bipc</text>
<text text-anchor="start" x="172" y="-70.1" font-family="Helvetica,sans-Serif" font-size="8.00">_mq_handle::op_with_possible</text>
<text text-anchor="middle" x="234.5" y="-61.1" font-family="Helvetica,sans-Serif" font-size="8.00">_bipc_mq_exception</text>
</a>
</g>
</g>
<!-- Node1&#45;&gt;Node2 -->
<g id="edge1" class="edge">
<title>Node1&#45;&gt;Node2</title>
<path fill="none" stroke="midnightblue" d="M128.22,-55.13C136.61,-56.48 145.3,-57.87 153.92,-59.25"/>
<polygon fill="midnightblue" stroke="midnightblue" points="153.56,-62.74 163.99,-60.86 154.67,-55.82 153.56,-62.74"/>
</g>
<!-- Node3 -->
<g id="node3" class="node">
<title>Node3</title>
<g id="a_node3"><a xlink:href="classipc_1_1transport_1_1Bipc__mq__handle.html#a5d2035b92c80a1b2e27b9e238107f1b1" target="_top" xlink:title="Implements Persistent_mq_handle API: Like timed_receive() but without the actual popping of a message...">
<polygon fill="white" stroke="black" points="176.5,-0.5 176.5,-35.5 292.5,-35.5 292.5,-0.5 176.5,-0.5"/>
<text text-anchor="start" x="184.5" y="-25.1" font-family="Helvetica,sans-Serif" font-size="8.00">ipc::transport::Bipc</text>
<text text-anchor="start" x="184.5" y="-16.1" font-family="Helvetica,sans-Serif" font-size="8.00">_mq_handle::timed_wait</text>
<text text-anchor="middle" x="234.5" y="-7.1" font-family="Helvetica,sans-Serif" font-size="8.00">_receivable</text>
</a>
</g>
</g>
<!-- Node1&#45;&gt;Node3 -->
<g id="edge4" class="edge">
<title>Node1&#45;&gt;Node3</title>
<path fill="none" stroke="midnightblue" d="M128.22,-34.87C140.68,-32.87 153.78,-30.77 166.36,-28.76"/>
<polygon fill="midnightblue" stroke="midnightblue" points="166.99,-32.2 176.31,-27.16 165.88,-25.29 166.99,-32.2"/>
</g>
<!-- Node2&#45;&gt;Node2 -->
<g id="edge2" class="edge">
<title>Node2&#45;&gt;Node2</title>
<path fill="none" stroke="midnightblue" d="M203.94,-89.78C198.75,-99.31 208.93,-108 234.5,-108 250.08,-108 259.95,-104.77 264.11,-100.1"/>
<polygon fill="midnightblue" stroke="midnightblue" points="267.62,-100.06 265.06,-89.78 260.65,-99.42 267.62,-100.06"/>
</g>
</g>
</svg>
