<?xml version="1.0" encoding="UTF-8" standalone="no"?>
<!DOCTYPE svg PUBLIC "-//W3C//DTD SVG 1.1//EN"
 "http://www.w3.org/Graphics/SVG/1.1/DTD/svg11.dtd">
<!-- Generated by graphviz version 2.43.0 (0)
 -->
<!-- Title: ipc::transport::Native_socket_stream::send_blob_max_size Pages: 1 -->
<svg width="297pt" height="44pt"
 viewBox="0.00 0.00 297.00 44.00" xmlns="http://www.w3.org/2000/svg" xmlns:xlink="http://www.w3.org/1999/xlink">
<g id="graph0" class="graph" transform="scale(1 1) rotate(0) translate(4 40)">
<title>ipc::transport::Native_socket_stream::send_blob_max_size</title>
<polygon fill="white" stroke="transparent" points="-4,4 -4,-40 293,-40 293,4 -4,4"/>
<!-- Node1 -->
<g id="node1" class="node">
<title>Node1</title>
<g id="a_node1"><a xlink:title="Implements Blob_sender API per contract.">
<polygon fill="#bfbfbf" stroke="black" points="161,-0.5 161,-35.5 289,-35.5 289,-0.5 161,-0.5"/>
<text text-anchor="start" x="169" y="-25.1" font-family="Helvetica,sans-Serif" font-size="8.00">ipc::transport::Native</text>
<text text-anchor="start" x="169" y="-16.1" font-family="Helvetica,sans-Serif" font-size="8.00">_socket_stream::send_blob</text>
<text text-anchor="middle" x="225" y="-7.1" font-family="Helvetica,sans-Serif" font-size="8.00">_max_size</text>
</a>
</g>
</g>
<!-- Node2 -->
<g id="node2" class="node">
<title>Node2</title>
<g id="a_node2"><a xlink:href="classipc_1_1transport_1_1Native__socket__stream_1_1Impl.html#a356082fb50487830a83301cf12836ede" target="_top" xlink:title="See Native_socket_stream counterpart.">
<polygon fill="white" stroke="black" points="0,-0.5 0,-35.5 125,-35.5 125,-0.5 0,-0.5"/>
<text text-anchor="start" x="8" y="-25.1" font-family="Helvetica,sans-Serif" font-size="8.00">ipc::transport::Native</text>
<text text-anchor="start" x="8" y="-16.1" font-family="Helvetica,sans-Serif" font-size="8.00">_socket_stream::Impl::</text>
<text text-anchor="middle" x="62.5" y="-7.1" font-family="Helvetica,sans-Serif" font-size="8.00">send_meta_blob_max_size</text>
</a>
</g>
</g>
<!-- Node1&#45;&gt;Node2 -->
<g id="edge1" class="edge">
<title>Node1&#45;&gt;Node2</title>
<path fill="none" stroke="midnightblue" d="M150.36,-18C141.93,-18 133.41,-18 125.16,-18"/>
<polygon fill="midnightblue" stroke="midnightblue" points="150.57,-21.5 160.57,-18 150.57,-14.5 150.57,-21.5"/>
</g>
</g>
</svg>
