<?xml version="1.0" encoding="UTF-8" standalone="no"?>
<!DOCTYPE svg PUBLIC "-//W3C//DTD SVG 1.1//EN"
 "http://www.w3.org/Graphics/SVG/1.1/DTD/svg11.dtd">
<!-- Generated by graphviz version 2.43.0 (0)
 -->
<!-- Title: ipc::transport::Bipc_mq_handle::receive Pages: 1 -->
<svg width="286pt" height="108pt"
 viewBox="0.00 0.00 286.00 107.50" xmlns="http://www.w3.org/2000/svg" xmlns:xlink="http://www.w3.org/1999/xlink">
<g id="graph0" class="graph" transform="scale(1 1) rotate(0) translate(4 103.5)">
<title>ipc::transport::Bipc_mq_handle::receive</title>
<polygon fill="white" stroke="transparent" points="-4,4 -4,-103.5 282,-103.5 282,4 -4,4"/>
<!-- Node1 -->
<g id="node1" class="node">
<title>Node1</title>
<g id="a_node1"><a xlink:title="Implements Persistent_mq_handle API: Blocking receive: pops copy of message from queue into buffer; i...">
<polygon fill="#bfbfbf" stroke="black" points="0,-25.5 0,-51.5 101,-51.5 101,-25.5 0,-25.5"/>
<text text-anchor="start" x="8" y="-41.1" font-family="Helvetica,sans-Serif" font-size="8.00">ipc::transport::Bipc</text>
<text text-anchor="middle" x="50.5" y="-32.1" font-family="Helvetica,sans-Serif" font-size="8.00">_mq_handle::receive</text>
</a>
</g>
</g>
<!-- Node1&#45;&gt;Node1 -->
<g id="edge3" class="edge">
<title>Node1&#45;&gt;Node1</title>
<path fill="none" stroke="midnightblue" d="M24.11,-51.77C16.11,-60.96 24.91,-70 50.5,-70 66.1,-70 75.46,-66.64 78.58,-61.94"/>
<polygon fill="midnightblue" stroke="midnightblue" points="81.98,-61.06 76.89,-51.77 75.07,-62.21 81.98,-61.06"/>
</g>
<!-- Node2 -->
<g id="node2" class="node">
<title>Node2</title>
<g id="a_node2"><a xlink:href="classipc_1_1transport_1_1Bipc__mq__handle.html#a9948742d87298d5842d298de9c946c7c" target="_top" xlink:title="Error helper: Run func() which will perform a bipc::message_queue API that might throw; if it does em...">
<polygon fill="white" stroke="black" points="137,-46 137,-81 278,-81 278,-46 137,-46"/>
<text text-anchor="start" x="145" y="-70.6" font-family="Helvetica,sans-Serif" font-size="8.00">ipc::transport::Bipc</text>
<text text-anchor="start" x="145" y="-61.6" font-family="Helvetica,sans-Serif" font-size="8.00">_mq_handle::op_with_possible</text>
<text text-anchor="middle" x="207.5" y="-52.6" font-family="Helvetica,sans-Serif" font-size="8.00">_bipc_mq_exception</text>
</a>
</g>
</g>
<!-- Node1&#45;&gt;Node2 -->
<g id="edge1" class="edge">
<title>Node1&#45;&gt;Node2</title>
<path fill="none" stroke="midnightblue" d="M101.4,-46.55C109.54,-47.86 118.15,-49.25 126.79,-50.64"/>
<polygon fill="midnightblue" stroke="midnightblue" points="126.5,-54.14 136.93,-52.28 127.62,-47.23 126.5,-54.14"/>
</g>
<!-- Node3 -->
<g id="node3" class="node">
<title>Node3</title>
<g id="a_node3"><a xlink:href="classipc_1_1transport_1_1Bipc__mq__handle.html#a7e2d79b92673be3ddba30c6d57020125" target="_top" xlink:title="Implements Persistent_mq_handle API: Like receive() but without the actual popping of a message.">
<polygon fill="white" stroke="black" points="140,-0.5 140,-26.5 275,-26.5 275,-0.5 140,-0.5"/>
<text text-anchor="start" x="148" y="-16.1" font-family="Helvetica,sans-Serif" font-size="8.00">ipc::transport::Bipc</text>
<text text-anchor="middle" x="207.5" y="-7.1" font-family="Helvetica,sans-Serif" font-size="8.00">_mq_handle::wait_receivable</text>
</a>
</g>
</g>
<!-- Node1&#45;&gt;Node3 -->
<g id="edge4" class="edge">
<title>Node1&#45;&gt;Node3</title>
<path fill="none" stroke="midnightblue" d="M101.4,-30.45C110.46,-28.99 120.1,-27.43 129.73,-25.88"/>
<polygon fill="midnightblue" stroke="midnightblue" points="130.42,-29.32 139.74,-24.27 129.31,-22.41 130.42,-29.32"/>
</g>
<!-- Node2&#45;&gt;Node2 -->
<g id="edge2" class="edge">
<title>Node2&#45;&gt;Node2</title>
<path fill="none" stroke="midnightblue" d="M179.46,-81.28C174.69,-90.81 184.04,-99.5 207.5,-99.5 221.8,-99.5 230.85,-96.27 234.67,-91.6"/>
<polygon fill="midnightblue" stroke="midnightblue" points="238.18,-91.54 235.54,-81.28 231.21,-90.95 238.18,-91.54"/>
</g>
</g>
</svg>
