<?xml version="1.0" encoding="UTF-8" standalone="no"?>
<!DOCTYPE svg PUBLIC "-//W3C//DTD SVG 1.1//EN"
 "http://www.w3.org/Graphics/SVG/1.1/DTD/svg11.dtd">
<!-- Generated by graphviz version 2.43.0 (0)
 -->
<!-- Title: ipc::transport::Persistent_mq_handle Pages: 1 -->
<svg width="377pt" height="279pt"
 viewBox="0.00 0.00 377.00 279.00" xmlns="http://www.w3.org/2000/svg" xmlns:xlink="http://www.w3.org/1999/xlink">
<g id="graph0" class="graph" transform="scale(1 1) rotate(0) translate(4 275)">
<title>ipc::transport::Persistent_mq_handle</title>
<polygon fill="white" stroke="transparent" points="-4,4 -4,-275 373,-275 373,4 -4,4"/>
<!-- Node1 -->
<g id="node1" class="node">
<title>Node1</title>
<g id="a_node1"><a xlink:title="A documentation&#45;only concept defining the behavior of an object representing a light&#45;weight handle to...">
<polygon fill="#bfbfbf" stroke="black" points="142.5,-0.5 142.5,-26.5 261.5,-26.5 261.5,-0.5 142.5,-0.5"/>
<text text-anchor="start" x="150.5" y="-16.1" font-family="Helvetica,sans-Serif" font-size="8.00">ipc::transport::Persistent</text>
<text text-anchor="middle" x="202" y="-7.1" font-family="Helvetica,sans-Serif" font-size="8.00">_mq_handle</text>
</a>
</g>
</g>
<!-- Node2 -->
<g id="node2" class="node">
<title>Node2</title>
<g id="a_node2"><a xlink:href="classipc_1_1util_1_1Shared__name.html" target="_top" xlink:title="String&#45;wrapping abstraction representing a name uniquely distinguishing a kernel&#45;persistent entity fr...">
<polygon fill="white" stroke="black" points="54,-99.5 54,-116.5 164,-116.5 164,-99.5 54,-99.5"/>
<text text-anchor="middle" x="109" y="-106.1" font-family="Helvetica,sans-Serif" font-size="8.00">ipc::util::Shared_name</text>
</a>
</g>
</g>
<!-- Node2&#45;&gt;Node1 -->
<g id="edge1" class="edge">
<title>Node2&#45;&gt;Node1</title>
<path fill="none" stroke="#9a32cd" stroke-dasharray="5,2" d="M124.05,-92.03C142.29,-73.89 172.7,-43.64 189.64,-26.79"/>
<polygon fill="#9a32cd" stroke="#9a32cd" points="121.23,-89.9 116.61,-99.43 126.17,-94.86 121.23,-89.9"/>
<text text-anchor="middle" x="215.5" y="-47.6" font-family="Helvetica,sans-Serif" font-size="8.00"> S_RESOURCE_TYPE_ID</text>
</g>
<!-- Node2&#45;&gt;Node2 -->
<g id="edge2" class="edge">
<title>Node2&#45;&gt;Node2</title>
<path fill="none" stroke="#9a32cd" stroke-dasharray="5,2" d="M142.52,-118.17C162.82,-120.49 182,-117.1 182,-108 182,-97.41 156.03,-94.55 132.55,-99.44"/>
<polygon fill="#9a32cd" stroke="#9a32cd" points="142.98,-114.69 132.55,-116.56 141.87,-121.6 142.98,-114.69"/>
<text text-anchor="middle" x="220.5" y="-137.6" font-family="Helvetica,sans-Serif" font-size="8.00"> S_1ST_OR_ONLY</text>
<text text-anchor="middle" x="220.5" y="-128.6" font-family="Helvetica,sans-Serif" font-size="8.00">S_EMPTY</text>
<text text-anchor="start" x="182" y="-119.6" font-family="Helvetica,sans-Serif" font-size="8.00">S_RESOURCE_TYPE</text>
<text text-anchor="middle" x="220.5" y="-110.6" font-family="Helvetica,sans-Serif" font-size="8.00">_ID_MUTEX</text>
<text text-anchor="start" x="182" y="-101.6" font-family="Helvetica,sans-Serif" font-size="8.00">S_RESOURCE_TYPE</text>
<text text-anchor="middle" x="220.5" y="-92.6" font-family="Helvetica,sans-Serif" font-size="8.00">_ID_SHM</text>
<text text-anchor="middle" x="220.5" y="-83.6" font-family="Helvetica,sans-Serif" font-size="8.00">S_ROOT_MAGIC</text>
<text text-anchor="middle" x="220.5" y="-74.6" font-family="Helvetica,sans-Serif" font-size="8.00">S_SENTINEL</text>
</g>
<!-- Node3 -->
<g id="node3" class="node">
<title>Node3</title>
<g id="a_node3"><a xlink:title=" ">
<polygon fill="white" stroke="#bfbfbf" points="0,-189.5 0,-206.5 40,-206.5 40,-189.5 0,-189.5"/>
<text text-anchor="middle" x="20" y="-196.1" font-family="Helvetica,sans-Serif" font-size="8.00">size_t</text>
</a>
</g>
</g>
<!-- Node3&#45;&gt;Node2 -->
<g id="edge3" class="edge">
<title>Node3&#45;&gt;Node2</title>
<path fill="none" stroke="#9a32cd" stroke-dasharray="5,2" d="M27.32,-180.14C30.41,-174.06 34.38,-167.37 39,-162 55.69,-142.58 80.62,-125.82 95.79,-116.6"/>
<polygon fill="#9a32cd" stroke="#9a32cd" points="24.02,-178.92 22.97,-189.46 30.37,-181.88 24.02,-178.92"/>
<text text-anchor="middle" x="72" y="-164.6" font-family="Helvetica,sans-Serif" font-size="8.00"> S_MAX_LENGTH</text>
</g>
<!-- Node4 -->
<g id="node4" class="node">
<title>Node4</title>
<g id="a_node4"><a xlink:title=" ">
<polygon fill="white" stroke="#bfbfbf" points="67,-189.5 67,-206.5 151,-206.5 151,-189.5 67,-189.5"/>
<text text-anchor="middle" x="109" y="-196.1" font-family="Helvetica,sans-Serif" font-size="8.00">static const char</text>
</a>
</g>
</g>
<!-- Node4&#45;&gt;Node2 -->
<g id="edge4" class="edge">
<title>Node4&#45;&gt;Node2</title>
<path fill="none" stroke="#9a32cd" stroke-dasharray="5,2" d="M109,-179.44C109,-160.34 109,-130.67 109,-116.73"/>
<polygon fill="#9a32cd" stroke="#9a32cd" points="105.5,-179.5 109,-189.5 112.5,-179.5 105.5,-179.5"/>
<text text-anchor="middle" x="138" y="-164.6" font-family="Helvetica,sans-Serif" font-size="8.00"> S_SEPARATOR</text>
</g>
<!-- Node5 -->
<g id="node5" class="node">
<title>Node5</title>
<g id="a_node5"><a xlink:title=" ">
<polygon fill="white" stroke="black" points="169.5,-189.5 169.5,-206.5 228.5,-206.5 228.5,-189.5 169.5,-189.5"/>
<text text-anchor="middle" x="199" y="-196.1" font-family="Helvetica,sans-Serif" font-size="8.00">std::string</text>
</a>
</g>
</g>
<!-- Node5&#45;&gt;Node2 -->
<g id="edge5" class="edge">
<title>Node5&#45;&gt;Node2</title>
<path fill="none" stroke="#9a32cd" stroke-dasharray="5,2" d="M187.36,-181.16C182.54,-174.97 176.75,-167.94 171,-162 154.06,-144.5 131.9,-126.59 119.17,-116.72"/>
<polygon fill="#9a32cd" stroke="#9a32cd" points="184.77,-183.55 193.59,-189.42 190.36,-179.33 184.77,-183.55"/>
<text text-anchor="middle" x="207" y="-164.6" font-family="Helvetica,sans-Serif" font-size="8.00"> m_raw_name</text>
</g>
<!-- Node6 -->
<g id="node6" class="node">
<title>Node6</title>
<g id="a_node6"><a xlink:title=" ">
<polygon fill="white" stroke="black" points="153.5,-244.5 153.5,-270.5 244.5,-270.5 244.5,-244.5 153.5,-244.5"/>
<text text-anchor="start" x="161.5" y="-260.1" font-family="Helvetica,sans-Serif" font-size="8.00">std::basic_string&lt;</text>
<text text-anchor="middle" x="199" y="-251.1" font-family="Helvetica,sans-Serif" font-size="8.00"> Char &gt;</text>
</a>
</g>
</g>
<!-- Node6&#45;&gt;Node5 -->
<g id="edge6" class="edge">
<title>Node6&#45;&gt;Node5</title>
<path fill="none" stroke="midnightblue" d="M199,-234.08C199,-224.43 199,-213.78 199,-206.77"/>
<polygon fill="midnightblue" stroke="midnightblue" points="195.5,-234.31 199,-244.31 202.5,-234.31 195.5,-234.31"/>
</g>
<!-- Node7 -->
<g id="node7" class="node">
<title>Node7</title>
<g id="a_node7"><a xlink:title=" ">
<polygon fill="white" stroke="#bfbfbf" points="277.5,-99.5 277.5,-116.5 312.5,-116.5 312.5,-99.5 277.5,-99.5"/>
<text text-anchor="middle" x="295" y="-106.1" font-family="Helvetica,sans-Serif" font-size="8.00">bool</text>
</a>
</g>
</g>
<!-- Node7&#45;&gt;Node1 -->
<g id="edge7" class="edge">
<title>Node7&#45;&gt;Node1</title>
<path fill="none" stroke="#9a32cd" stroke-dasharray="5,2" d="M290.05,-89.55C285.45,-75.97 277.41,-57.41 265,-45 257.27,-37.27 247.19,-31.2 237.36,-26.59"/>
<polygon fill="#9a32cd" stroke="#9a32cd" points="286.73,-90.64 293.02,-99.16 293.41,-88.57 286.73,-90.64"/>
<text text-anchor="middle" x="320.5" y="-47.6" font-family="Helvetica,sans-Serif" font-size="8.00"> S_HAS_NATIVE_HANDLE</text>
</g>
</g>
</svg>
