<?xml version="1.0" encoding="UTF-8" standalone="no"?>
<!DOCTYPE svg PUBLIC "-//W3C//DTD SVG 1.1//EN"
 "http://www.w3.org/Graphics/SVG/1.1/DTD/svg11.dtd">
<!-- Generated by graphviz version 2.43.0 (0)
 -->
<!-- Title: ipc::transport::struc::sync_io::Channel::replace_event_wait_handles Pages: 1 -->
<svg width="271pt" height="44pt"
 viewBox="0.00 0.00 271.00 44.00" xmlns="http://www.w3.org/2000/svg" xmlns:xlink="http://www.w3.org/1999/xlink">
<g id="graph0" class="graph" transform="scale(1 1) rotate(0) translate(4 40)">
<title>ipc::transport::struc::sync_io::Channel::replace_event_wait_handles</title>
<polygon fill="white" stroke="transparent" points="-4,4 -4,-40 267,-40 267,4 -4,4"/>
<!-- Node1 -->
<g id="node1" class="node">
<title>Node1</title>
<g id="a_node1"><a xlink:title="Analogous to transport::sync_io::Native_handle_sender::replace_event_wait_handles().">
<polygon fill="#bfbfbf" stroke="black" points="134,-0.5 134,-35.5 263,-35.5 263,-0.5 134,-0.5"/>
<text text-anchor="start" x="142" y="-25.1" font-family="Helvetica,sans-Serif" font-size="8.00">ipc::transport::struc</text>
<text text-anchor="start" x="142" y="-16.1" font-family="Helvetica,sans-Serif" font-size="8.00">::sync_io::Channel::replace</text>
<text text-anchor="middle" x="198.5" y="-7.1" font-family="Helvetica,sans-Serif" font-size="8.00">_event_wait_handles</text>
</a>
</g>
</g>
<!-- Node2 -->
<g id="node2" class="node">
<title>Node2</title>
<g id="a_node2"><a xlink:href="classipc_1_1transport_1_1struc_1_1Channel.html#abe73bfa20ca0207ac8aa63d26d54de83" target="_top" xlink:title="All explicit constructors: signatures match exactly those of struc::sync_io::Channel (a/k/a Sync_io_o...">
<polygon fill="white" stroke="black" points="0,-5 0,-31 98,-31 98,-5 0,-5"/>
<text text-anchor="start" x="8" y="-20.6" font-family="Helvetica,sans-Serif" font-size="8.00">ipc::transport::struc</text>
<text text-anchor="middle" x="49" y="-11.6" font-family="Helvetica,sans-Serif" font-size="8.00">::Channel::Channel</text>
</a>
</g>
</g>
<!-- Node1&#45;&gt;Node2 -->
<g id="edge1" class="edge">
<title>Node1&#45;&gt;Node2</title>
<path fill="none" stroke="midnightblue" d="M123.62,-18C115.05,-18 106.47,-18 98.37,-18"/>
<polygon fill="midnightblue" stroke="midnightblue" points="123.66,-21.5 133.66,-18 123.66,-14.5 123.66,-21.5"/>
</g>
</g>
</svg>
