<?xml version="1.0" encoding="UTF-8" standalone="no"?>
<!DOCTYPE svg PUBLIC "-//W3C//DTD SVG 1.1//EN"
 "http://www.w3.org/Graphics/SVG/1.1/DTD/svg11.dtd">
<!-- Generated by graphviz version 2.43.0 (0)
 -->
<!-- Title: ipc::transport::struc::Heap_fixed_builder::emit_serialization Pages: 1 -->
<svg width="243pt" height="62pt"
 viewBox="0.00 0.00 243.00 62.00" xmlns="http://www.w3.org/2000/svg" xmlns:xlink="http://www.w3.org/1999/xlink">
<g id="graph0" class="graph" transform="scale(1 1) rotate(0) translate(4 58)">
<title>ipc::transport::struc::Heap_fixed_builder::emit_serialization</title>
<polygon fill="white" stroke="transparent" points="-4,4 -4,-58 239,-58 239,4 -4,4"/>
<!-- Node1 -->
<g id="node1" class="node">
<title>Node1</title>
<g id="a_node1"><a xlink:title="Implements concept API.">
<polygon fill="#bfbfbf" stroke="black" points="134,-0.5 134,-35.5 235,-35.5 235,-0.5 134,-0.5"/>
<text text-anchor="start" x="142" y="-25.1" font-family="Helvetica,sans-Serif" font-size="8.00">ipc::transport::struc</text>
<text text-anchor="start" x="142" y="-16.1" font-family="Helvetica,sans-Serif" font-size="8.00">::Heap_fixed_builder</text>
<text text-anchor="middle" x="184.5" y="-7.1" font-family="Helvetica,sans-Serif" font-size="8.00">::emit_serialization</text>
</a>
</g>
</g>
<!-- Node1&#45;&gt;Node1 -->
<g id="edge2" class="edge">
<title>Node1&#45;&gt;Node1</title>
<path fill="none" stroke="midnightblue" d="M207.84,-46.1C204.56,-50.77 196.78,-54 184.5,-54 164.35,-54 156.32,-45.31 160.41,-35.78"/>
<polygon fill="midnightblue" stroke="midnightblue" points="211.35,-46.01 208.59,-35.78 204.37,-45.5 211.35,-46.01"/>
</g>
<!-- Node2 -->
<g id="node2" class="node">
<title>Node2</title>
<g id="a_node2"><a xlink:href="classipc_1_1transport_1_1struc_1_1shm_1_1Builder.html#a7909a2d1e1d24037fb8af5338fffa783" target="_top" xlink:title="Implements concept API.">
<polygon fill="white" stroke="black" points="0,-0.5 0,-35.5 98,-35.5 98,-0.5 0,-0.5"/>
<text text-anchor="start" x="8" y="-25.1" font-family="Helvetica,sans-Serif" font-size="8.00">ipc::transport::struc</text>
<text text-anchor="start" x="8" y="-16.1" font-family="Helvetica,sans-Serif" font-size="8.00">::shm::Builder::emit</text>
<text text-anchor="middle" x="49" y="-7.1" font-family="Helvetica,sans-Serif" font-size="8.00">_serialization</text>
</a>
</g>
</g>
<!-- Node1&#45;&gt;Node2 -->
<g id="edge1" class="edge">
<title>Node1&#45;&gt;Node2</title>
<path fill="none" stroke="midnightblue" d="M123.61,-18C115.18,-18 106.6,-18 98.42,-18"/>
<polygon fill="midnightblue" stroke="midnightblue" points="123.79,-21.5 133.79,-18 123.79,-14.5 123.79,-21.5"/>
</g>
</g>
</svg>
