<?xml version="1.0" encoding="UTF-8" standalone="no"?>
<!DOCTYPE svg PUBLIC "-//W3C//DTD SVG 1.1//EN"
 "http://www.w3.org/Graphics/SVG/1.1/DTD/svg11.dtd">
<!-- Generated by graphviz version 2.43.0 (0)
 -->
<!-- Title: ipc::session::shm::classic::Client_session_impl&lt; S_MQ_TYPE_OR_NONE, S_TRANSMIT_NATIVE_HANDLES, Mdt_payload &gt; Pages: 1 -->
<svg width="1427pt" height="835pt"
 viewBox="0.00 0.00 1427.00 835.41" xmlns="http://www.w3.org/2000/svg" xmlns:xlink="http://www.w3.org/1999/xlink">
<g id="graph0" class="graph" transform="scale(1 1) rotate(0) translate(4 831.41)">
<title>ipc::session::shm::classic::Client_session_impl&lt; S_MQ_TYPE_OR_NONE, S_TRANSMIT_NATIVE_HANDLES, Mdt_payload &gt;</title>
<polygon fill="white" stroke="transparent" points="-4,4 -4,-831.41 1423,-831.41 1423,4 -4,4"/>
<!-- Node1 -->
<g id="node1" class="node">
<title>Node1</title>
<g id="a_node1"><a xlink:title="Core internally&#45;used implementation of shm::classic::Client_session: it is to the latter what its pub...">
<polygon fill="#bfbfbf" stroke="black" points="1273,-310.91 1273,-363.91 1419,-363.91 1419,-310.91 1273,-310.91"/>
<text text-anchor="start" x="1281" y="-353.51" font-family="Helvetica,sans-Serif" font-size="8.00">ipc::session::shm::</text>
<text text-anchor="start" x="1281" y="-344.51" font-family="Helvetica,sans-Serif" font-size="8.00">classic::Client_session</text>
<text text-anchor="start" x="1281" y="-335.51" font-family="Helvetica,sans-Serif" font-size="8.00">_impl&lt; S_MQ_TYPE_OR_NONE,</text>
<text text-anchor="start" x="1281" y="-326.51" font-family="Helvetica,sans-Serif" font-size="8.00"> S_TRANSMIT_NATIVE_HANDLES,</text>
<text text-anchor="middle" x="1346" y="-317.51" font-family="Helvetica,sans-Serif" font-size="8.00"> Mdt_payload &gt;</text>
</a>
</g>
</g>
<!-- Node2 -->
<g id="node2" class="node">
<title>Node2</title>
<g id="a_node2"><a xlink:href="classipc_1_1session_1_1shm_1_1classic_1_1Session__impl.html" target="_top" xlink:title=" ">
<polygon fill="white" stroke="black" points="1036,-352.91 1036,-423.91 1186,-423.91 1186,-352.91 1036,-352.91"/>
<text text-anchor="start" x="1044" y="-413.51" font-family="Helvetica,sans-Serif" font-size="8.00">ipc::session::shm::</text>
<text text-anchor="start" x="1044" y="-404.51" font-family="Helvetica,sans-Serif" font-size="8.00">classic::Session_impl</text>
<text text-anchor="start" x="1044" y="-395.51" font-family="Helvetica,sans-Serif" font-size="8.00">&lt; session::Client_session</text>
<text text-anchor="start" x="1044" y="-386.51" font-family="Helvetica,sans-Serif" font-size="8.00">_impl&lt; S_MQ_TYPE_OR_NONE,</text>
<text text-anchor="start" x="1044" y="-377.51" font-family="Helvetica,sans-Serif" font-size="8.00"> S_TRANSMIT_NATIVE_HANDLES,</text>
<text text-anchor="start" x="1044" y="-368.51" font-family="Helvetica,sans-Serif" font-size="8.00"> Mdt_payload, schema::ShmType</text>
<text text-anchor="middle" x="1111" y="-359.51" font-family="Helvetica,sans-Serif" font-size="8.00">::CLASSIC &gt; &gt;</text>
</a>
</g>
</g>
<!-- Node2&#45;&gt;Node1 -->
<g id="edge1" class="edge">
<title>Node2&#45;&gt;Node1</title>
<path fill="none" stroke="midnightblue" d="M1195.93,-370.04C1221.07,-364.53 1248.42,-358.55 1272.74,-353.22"/>
<polygon fill="midnightblue" stroke="midnightblue" points="1195.06,-366.64 1186.04,-372.2 1196.56,-373.48 1195.06,-366.64"/>
</g>
<!-- Node3 -->
<g id="node3" class="node">
<title>Node3</title>
<g id="a_node3"><a xlink:href="classipc_1_1session_1_1Client__session__impl.html" target="_top" xlink:title=" ">
<polygon fill="white" stroke="black" points="761,-393.91 761,-446.91 913,-446.91 913,-393.91 761,-393.91"/>
<text text-anchor="start" x="769" y="-436.51" font-family="Helvetica,sans-Serif" font-size="8.00">ipc::session::Client</text>
<text text-anchor="start" x="769" y="-427.51" font-family="Helvetica,sans-Serif" font-size="8.00">_session_impl&lt; S_MQ_TYPE</text>
<text text-anchor="start" x="769" y="-418.51" font-family="Helvetica,sans-Serif" font-size="8.00">_OR_NONE, S_TRANSMIT_NATIVE</text>
<text text-anchor="start" x="769" y="-409.51" font-family="Helvetica,sans-Serif" font-size="8.00">_HANDLES, Mdt_payload, schema</text>
<text text-anchor="middle" x="837" y="-400.51" font-family="Helvetica,sans-Serif" font-size="8.00">::ShmType::CLASSIC &gt;</text>
</a>
</g>
</g>
<!-- Node3&#45;&gt;Node2 -->
<g id="edge2" class="edge">
<title>Node3&#45;&gt;Node2</title>
<path fill="none" stroke="midnightblue" d="M923.07,-410.4C959.15,-406.15 1000.84,-401.25 1035.67,-397.15"/>
<polygon fill="midnightblue" stroke="midnightblue" points="922.57,-406.93 913.05,-411.58 923.39,-413.89 922.57,-406.93"/>
</g>
<!-- Node4 -->
<g id="node4" class="node">
<title>Node4</title>
<g id="a_node4"><a xlink:href="classipc_1_1session_1_1Session__base.html" target="_top" xlink:title="Internal type containing data and types common to internal types Server_session_impl and Client_sessi...">
<polygon fill="white" stroke="black" points="468,-267.41 468,-311.41 614,-311.41 614,-267.41 468,-267.41"/>
<text text-anchor="start" x="476" y="-301.01" font-family="Helvetica,sans-Serif" font-size="8.00">ipc::session::Session</text>
<text text-anchor="start" x="476" y="-292.01" font-family="Helvetica,sans-Serif" font-size="8.00">_base&lt; S_MQ_TYPE_OR_NONE,</text>
<text text-anchor="start" x="476" y="-283.01" font-family="Helvetica,sans-Serif" font-size="8.00"> S_TRANSMIT_NATIVE_HANDLES,</text>
<text text-anchor="middle" x="541" y="-274.01" font-family="Helvetica,sans-Serif" font-size="8.00"> Mdt_payload &gt;</text>
</a>
</g>
</g>
<!-- Node4&#45;&gt;Node3 -->
<g id="edge3" class="edge">
<title>Node4&#45;&gt;Node3</title>
<path fill="none" stroke="midnightblue" d="M600.78,-315.6C651.74,-338.31 725.14,-371.01 776.35,-393.83"/>
<polygon fill="midnightblue" stroke="midnightblue" points="602.1,-312.35 591.54,-311.48 599.25,-318.75 602.1,-312.35"/>
</g>
<!-- Node5 -->
<g id="node5" class="node">
<title>Node5</title>
<g id="a_node5"><a xlink:title=" ">
<polygon fill="white" stroke="#bfbfbf" points="181.5,-623.91 181.5,-640.91 280.5,-640.91 280.5,-623.91 181.5,-623.91"/>
<text text-anchor="middle" x="231" y="-630.51" font-family="Helvetica,sans-Serif" font-size="8.00">boost::noncopyable</text>
</a>
</g>
</g>
<!-- Node5&#45;&gt;Node4 -->
<g id="edge4" class="edge">
<title>Node5&#45;&gt;Node4</title>
<path fill="none" stroke="#8b1a1a" d="M290.56,-630.63C347.7,-627.57 429.02,-619.21 450,-596.41 483.66,-559.82 448.89,-419.3 468,-373.41 478.04,-349.29 497.73,-327.09 513.99,-311.58"/>
<polygon fill="#8b1a1a" stroke="#8b1a1a" points="290.36,-627.14 280.54,-631.13 290.71,-634.13 290.36,-627.14"/>
</g>
<!-- Node39 -->
<g id="node29" class="node">
<title>Node39</title>
<g id="a_node29"><a xlink:href="classipc_1_1shm_1_1classic_1_1Pool__arena.html" target="_top" xlink:title="A SHM&#45;classic interface around a single SHM pool with allocation&#45;algorithm services by boost....">
<polygon fill="white" stroke="black" points="495,-622.41 495,-648.41 587,-648.41 587,-622.41 495,-622.41"/>
<text text-anchor="start" x="503" y="-638.01" font-family="Helvetica,sans-Serif" font-size="8.00">ipc::shm::classic::</text>
<text text-anchor="middle" x="541" y="-629.01" font-family="Helvetica,sans-Serif" font-size="8.00">Pool_arena</text>
</a>
</g>
</g>
<!-- Node5&#45;&gt;Node39 -->
<g id="edge35" class="edge">
<title>Node5&#45;&gt;Node39</title>
<path fill="none" stroke="#8b1a1a" d="M291.17,-632.98C350.65,-633.56 441.03,-634.44 494.93,-634.97"/>
<polygon fill="#8b1a1a" stroke="#8b1a1a" points="290.84,-629.48 280.8,-632.88 290.77,-636.48 290.84,-629.48"/>
</g>
<!-- Node6 -->
<g id="node6" class="node">
<title>Node6</title>
<g id="a_node6"><a xlink:title=" ">
<polygon fill="white" stroke="#bfbfbf" points="180.5,-379.91 180.5,-396.91 281.5,-396.91 281.5,-379.91 180.5,-379.91"/>
<text text-anchor="middle" x="231" y="-386.51" font-family="Helvetica,sans-Serif" font-size="8.00">static constexpr bool</text>
</a>
</g>
</g>
<!-- Node6&#45;&gt;Node3 -->
<g id="edge18" class="edge">
<title>Node6&#45;&gt;Node3</title>
<path fill="none" stroke="#9a32cd" stroke-dasharray="5,2" d="M292,-390.65C367.25,-393.56 500.21,-399.03 614,-405.41 662.89,-408.15 717.78,-411.85 760.76,-414.89"/>
<polygon fill="#9a32cd" stroke="#9a32cd" points="291.9,-387.14 281.77,-390.26 291.63,-394.14 291.9,-387.14"/>
<text text-anchor="middle" x="541" y="-435.01" font-family="Helvetica,sans-Serif" font-size="8.00"> S_GRACEFUL_FINISH_REQUIRED</text>
<text text-anchor="middle" x="541" y="-426.01" font-family="Helvetica,sans-Serif" font-size="8.00">S_MQS_ENABLED</text>
<text text-anchor="middle" x="541" y="-417.01" font-family="Helvetica,sans-Serif" font-size="8.00">S_SHM_ENABLED</text>
<text text-anchor="middle" x="541" y="-408.01" font-family="Helvetica,sans-Serif" font-size="8.00">S_SOCKET_STREAM_ENABLED</text>
</g>
<!-- Node6&#45;&gt;Node4 -->
<g id="edge5" class="edge">
<title>Node6&#45;&gt;Node4</title>
<path fill="none" stroke="#9a32cd" stroke-dasharray="5,2" d="M284.77,-377.52C293.59,-375.37 302.6,-372.98 311,-370.41 319.21,-367.89 320.75,-365.77 329,-363.41 381.62,-348.31 398.61,-359.27 450,-340.41 469.89,-333.11 490.57,-321.7 507.08,-311.53"/>
<polygon fill="#9a32cd" stroke="#9a32cd" points="283.88,-374.13 274.94,-379.83 285.48,-380.95 283.88,-374.13"/>
<text text-anchor="middle" x="389.5" y="-375.01" font-family="Helvetica,sans-Serif" font-size="8.00"> S_MQS_ENABLED</text>
<text text-anchor="middle" x="389.5" y="-366.01" font-family="Helvetica,sans-Serif" font-size="8.00">S_SOCKET_STREAM_ENABLED</text>
</g>
<!-- Node7 -->
<g id="node7" class="node">
<title>Node7</title>
<g id="a_node7"><a xlink:href="structipc_1_1session_1_1Server__app.html" target="_top" xlink:title="An App that is used as a server in at least one client&#45;server IPC split.">
<polygon fill="white" stroke="red" points="172,-199.91 172,-216.91 290,-216.91 290,-199.91 172,-199.91"/>
<text text-anchor="middle" x="231" y="-206.51" font-family="Helvetica,sans-Serif" font-size="8.00">ipc::session::Server_app</text>
</a>
</g>
</g>
<!-- Node7&#45;&gt;Node4 -->
<g id="edge6" class="edge">
<title>Node7&#45;&gt;Node4</title>
<path fill="none" stroke="#9a32cd" stroke-dasharray="5,2" d="M300.48,-211.72C344.18,-215.39 401.52,-223.12 450,-239.41 469.99,-246.13 490.68,-257.27 507.17,-267.34"/>
<polygon fill="#9a32cd" stroke="#9a32cd" points="300.49,-208.21 290.24,-210.91 299.94,-215.19 300.49,-208.21"/>
<text text-anchor="middle" x="389.5" y="-242.01" font-family="Helvetica,sans-Serif" font-size="8.00"> m_srv_app_ref</text>
</g>
<!-- Node16 -->
<g id="node8" class="node">
<title>Node16</title>
<g id="a_node8"><a xlink:title=" ">
<polygon fill="white" stroke="#bfbfbf" points="195.5,-163.91 195.5,-180.91 266.5,-180.91 266.5,-163.91 195.5,-163.91"/>
<text text-anchor="middle" x="231" y="-170.51" font-family="Helvetica,sans-Serif" font-size="8.00">Fine_duration</text>
</a>
</g>
</g>
<!-- Node16&#45;&gt;Node4 -->
<g id="edge7" class="edge">
<title>Node16&#45;&gt;Node4</title>
<path fill="none" stroke="#9a32cd" stroke-dasharray="5,2" d="M276.96,-170.62C322.76,-170.58 394.7,-175.52 450,-202.41 480.68,-217.33 507.58,-246.67 523.8,-267.13"/>
<polygon fill="#9a32cd" stroke="#9a32cd" points="276.72,-167.12 266.76,-170.72 276.79,-174.12 276.72,-167.12"/>
<text text-anchor="middle" x="389.5" y="-205.01" font-family="Helvetica,sans-Serif" font-size="8.00"> S_OPEN_CHANNEL_TIMEOUT</text>
</g>
<!-- Node17 -->
<g id="node9" class="node">
<title>Node17</title>
<g id="a_node9"><a xlink:title=" ">
<polygon fill="white" stroke="#bfbfbf" points="177.5,-127.91 177.5,-144.91 284.5,-144.91 284.5,-127.91 177.5,-127.91"/>
<text text-anchor="middle" x="231" y="-134.51" font-family="Helvetica,sans-Serif" font-size="8.00">static constexpr size_t</text>
</a>
</g>
</g>
<!-- Node17&#45;&gt;Node4 -->
<g id="edge8" class="edge">
<title>Node17&#45;&gt;Node4</title>
<path fill="none" stroke="#9a32cd" stroke-dasharray="5,2" d="M294.57,-137.61C349.51,-139.68 424.53,-145.29 450,-160.41 455.5,-163.67 501.23,-231.36 525.3,-267.34"/>
<polygon fill="#9a32cd" stroke="#9a32cd" points="294.68,-134.11 284.56,-137.26 294.44,-141.11 294.68,-134.11"/>
<text text-anchor="middle" x="389.5" y="-163.01" font-family="Helvetica,sans-Serif" font-size="8.00"> S_MQS_MAX_MSG_SZ</text>
</g>
<!-- Node18 -->
<g id="node10" class="node">
<title>Node18</title>
<g id="a_node10"><a xlink:title=" ">
<polygon fill="white" stroke="orangered" points="182,-325.91 182,-360.91 280,-360.91 280,-325.91 182,-325.91"/>
<text text-anchor="start" x="190" y="-350.51" font-family="Helvetica,sans-Serif" font-size="8.00">std::atomic&lt; const</text>
<text text-anchor="start" x="190" y="-341.51" font-family="Helvetica,sans-Serif" font-size="8.00"> ipc::session::Client</text>
<text text-anchor="middle" x="231" y="-332.51" font-family="Helvetica,sans-Serif" font-size="8.00">_app * &gt;</text>
</a>
</g>
</g>
<!-- Node18&#45;&gt;Node4 -->
<g id="edge9" class="edge">
<title>Node18&#45;&gt;Node4</title>
<path fill="none" stroke="#9a32cd" stroke-dasharray="5,2" d="M290.12,-334.87C334.11,-328.21 395.98,-318.44 450,-308.41 455.81,-307.33 461.82,-306.16 467.85,-304.96"/>
<polygon fill="#9a32cd" stroke="#9a32cd" points="289.54,-331.41 280.17,-336.36 290.58,-338.34 289.54,-331.41"/>
<text text-anchor="middle" x="389.5" y="-331.01" font-family="Helvetica,sans-Serif" font-size="8.00"> m_cli_app_ptr</text>
</g>
<!-- Node20 -->
<g id="node11" class="node">
<title>Node20</title>
<g id="a_node11"><a xlink:href="classipc_1_1util_1_1Shared__name.html" target="_top" xlink:title="String&#45;wrapping abstraction representing a name uniquely distinguishing a kernel&#45;persistent entity fr...">
<polygon fill="white" stroke="red" points="176,-461.91 176,-478.91 286,-478.91 286,-461.91 176,-461.91"/>
<text text-anchor="middle" x="231" y="-468.51" font-family="Helvetica,sans-Serif" font-size="8.00">ipc::util::Shared_name</text>
</a>
</g>
</g>
<!-- Node20&#45;&gt;Node4 -->
<g id="edge10" class="edge">
<title>Node20&#45;&gt;Node4</title>
<path fill="none" stroke="#9a32cd" stroke-dasharray="5,2" d="M296.3,-471.89C352.24,-471.79 427.75,-467.84 450,-448.41 475.82,-425.86 452.41,-403.94 468,-373.41 480.05,-349.8 500.03,-327.24 515.89,-311.45"/>
<polygon fill="#9a32cd" stroke="#9a32cd" points="296.1,-468.39 286.09,-471.87 296.09,-475.39 296.1,-468.39"/>
<text text-anchor="middle" x="389.5" y="-482.01" font-family="Helvetica,sans-Serif" font-size="8.00"> m_cli_namespace</text>
<text text-anchor="middle" x="389.5" y="-473.01" font-family="Helvetica,sans-Serif" font-size="8.00">m_srv_namespace</text>
</g>
<!-- Node20&#45;&gt;Node20 -->
<g id="edge11" class="edge">
<title>Node20&#45;&gt;Node20</title>
<path fill="none" stroke="#9a32cd" stroke-dasharray="5,2" d="M207.41,-487.89C207.95,-493.23 215.82,-497.41 231,-497.41 254.13,-497.41 260.28,-487.7 249.43,-478.98"/>
<polygon fill="#9a32cd" stroke="#9a32cd" points="210.58,-489.39 212.57,-478.98 204.53,-485.88 210.58,-489.39"/>
<text text-anchor="middle" x="231" y="-563.01" font-family="Helvetica,sans-Serif" font-size="8.00"> S_1ST_OR_ONLY</text>
<text text-anchor="middle" x="231" y="-554.01" font-family="Helvetica,sans-Serif" font-size="8.00">S_EMPTY</text>
<text text-anchor="start" x="192.5" y="-545.01" font-family="Helvetica,sans-Serif" font-size="8.00">S_RESOURCE_TYPE</text>
<text text-anchor="middle" x="231" y="-536.01" font-family="Helvetica,sans-Serif" font-size="8.00">_ID_MUTEX</text>
<text text-anchor="start" x="192.5" y="-527.01" font-family="Helvetica,sans-Serif" font-size="8.00">S_RESOURCE_TYPE</text>
<text text-anchor="middle" x="231" y="-518.01" font-family="Helvetica,sans-Serif" font-size="8.00">_ID_SHM</text>
<text text-anchor="middle" x="231" y="-509.01" font-family="Helvetica,sans-Serif" font-size="8.00">S_ROOT_MAGIC</text>
<text text-anchor="middle" x="231" y="-500.01" font-family="Helvetica,sans-Serif" font-size="8.00">S_SENTINEL</text>
</g>
<!-- Node20&#45;&gt;Node39 -->
<g id="edge36" class="edge">
<title>Node20&#45;&gt;Node39</title>
<path fill="none" stroke="#9a32cd" stroke-dasharray="5,2" d="M278.28,-481.36C338.65,-496.04 438.04,-521.72 450,-534.41 474.41,-560.29 443.9,-586.24 468,-612.41 475.11,-620.13 484.81,-625.27 494.78,-628.69"/>
<polygon fill="#9a32cd" stroke="#9a32cd" points="278.76,-477.87 268.22,-478.93 277.11,-484.68 278.76,-477.87"/>
<text text-anchor="middle" x="389.5" y="-537.01" font-family="Helvetica,sans-Serif" font-size="8.00"> m_pool_name</text>
</g>
<!-- Node9 -->
<g id="node12" class="node">
<title>Node9</title>
<g id="a_node12"><a xlink:title=" ">
<polygon fill="white" stroke="red" points="0,-643.91 0,-660.91 59,-660.91 59,-643.91 0,-643.91"/>
<text text-anchor="middle" x="29.5" y="-650.51" font-family="Helvetica,sans-Serif" font-size="8.00">std::string</text>
</a>
</g>
</g>
<!-- Node9&#45;&gt;Node20 -->
<g id="edge12" class="edge">
<title>Node9&#45;&gt;Node20</title>
<path fill="none" stroke="#9a32cd" stroke-dasharray="5,2" d="M47.27,-637.11C87.57,-600.34 188.84,-507.96 220.43,-479.13"/>
<polygon fill="#9a32cd" stroke="#9a32cd" points="44.88,-634.55 39.85,-643.87 49.6,-639.72 44.88,-634.55"/>
<text text-anchor="middle" x="105" y="-611.01" font-family="Helvetica,sans-Serif" font-size="8.00"> m_raw_name</text>
</g>
<!-- Node29 -->
<g id="node19" class="node">
<title>Node29</title>
<g id="a_node19"><a xlink:href="classipc_1_1transport_1_1Protocol__negotiator.html" target="_top" xlink:title="A simple state machine that, assuming the opposide side of a comm pathway uses an equivalent state ma...">
<polygon fill="white" stroke="black" points="485.5,-450.41 485.5,-476.41 596.5,-476.41 596.5,-450.41 485.5,-450.41"/>
<text text-anchor="start" x="493.5" y="-466.01" font-family="Helvetica,sans-Serif" font-size="8.00">ipc::transport::Protocol</text>
<text text-anchor="middle" x="541" y="-457.01" font-family="Helvetica,sans-Serif" font-size="8.00">_negotiator</text>
</a>
</g>
</g>
<!-- Node9&#45;&gt;Node29 -->
<g id="edge23" class="edge">
<title>Node9&#45;&gt;Node29</title>
<path fill="none" stroke="#9a32cd" stroke-dasharray="5,2" d="M63.76,-664.3C87.68,-672.23 120.89,-681.98 151,-686.41 216.74,-696.07 400.98,-734.27 450,-689.41 483.41,-658.83 439.7,-521.76 468,-486.41 472.59,-480.67 478.62,-476.34 485.24,-473.08"/>
<polygon fill="#9a32cd" stroke="#9a32cd" points="64.7,-660.92 54.11,-661.03 62.46,-667.55 64.7,-660.92"/>
<text text-anchor="middle" x="231" y="-711.01" font-family="Helvetica,sans-Serif" font-size="8.00"> m_nickname</text>
</g>
<!-- Node23 -->
<g id="node13" class="node">
<title>Node23</title>
<g id="a_node13"><a xlink:title=" ">
<polygon fill="white" stroke="#bfbfbf" points="195.5,-85.91 195.5,-102.91 266.5,-102.91 266.5,-85.91 195.5,-85.91"/>
<text text-anchor="middle" x="231" y="-92.51" font-family="Helvetica,sans-Serif" font-size="8.00">Task_asio_err</text>
</a>
</g>
</g>
<!-- Node23&#45;&gt;Node3 -->
<g id="edge26" class="edge">
<title>Node23&#45;&gt;Node3</title>
<path fill="none" stroke="#9a32cd" stroke-dasharray="5,2" d="M276.69,-83.93C323.4,-75.55 397.11,-69.82 450,-101.41 463.68,-109.58 457.26,-120.64 468,-132.41 569.03,-243.05 654.74,-206.33 743,-327.41 758.65,-348.87 743.59,-364.34 761,-384.41 763.93,-387.79 767.26,-390.88 770.83,-393.7"/>
<polygon fill="#9a32cd" stroke="#9a32cd" points="275.74,-80.55 266.58,-85.86 277.06,-87.42 275.74,-80.55"/>
<text text-anchor="start" x="493.5" y="-239.01" font-family="Helvetica,sans-Serif" font-size="8.00"> m_conn_on_done_func</text>
<text text-anchor="middle" x="541" y="-230.01" font-family="Helvetica,sans-Serif" font-size="8.00">_or_empty</text>
</g>
<!-- Node23&#45;&gt;Node4 -->
<g id="edge13" class="edge">
<title>Node23&#45;&gt;Node4</title>
<path fill="none" stroke="#9a32cd" stroke-dasharray="5,2" d="M276.77,-95.79C332.8,-98.41 424.5,-105.94 450,-127.41 469.36,-143.7 456.89,-158.68 468,-181.41 483.45,-212.99 506.8,-246.18 522.69,-267.3"/>
<polygon fill="#9a32cd" stroke="#9a32cd" points="276.9,-92.29 266.75,-95.35 276.59,-99.28 276.9,-92.29"/>
<text text-anchor="middle" x="389.5" y="-130.01" font-family="Helvetica,sans-Serif" font-size="8.00"> m_on_err_func</text>
</g>
<!-- Node24 -->
<g id="node14" class="node">
<title>Node24</title>
<g id="a_node14"><a xlink:title=" ">
<polygon fill="white" stroke="#bfbfbf" points="151,-271.91 151,-306.91 311,-306.91 311,-271.91 151,-271.91"/>
<text text-anchor="start" x="159" y="-296.51" font-family="Helvetica,sans-Serif" font-size="8.00">Function&lt; void(Channel</text>
<text text-anchor="start" x="159" y="-287.51" font-family="Helvetica,sans-Serif" font-size="8.00">_obj &amp;&amp;new_channel, Mdt</text>
<text text-anchor="middle" x="231" y="-278.51" font-family="Helvetica,sans-Serif" font-size="8.00">_reader_ptr &amp;&amp;new_channel_mdt)&gt;</text>
</a>
</g>
</g>
<!-- Node24&#45;&gt;Node4 -->
<g id="edge14" class="edge">
<title>Node24&#45;&gt;Node4</title>
<path fill="none" stroke="#9a32cd" stroke-dasharray="5,2" d="M321.4,-289.41C367.93,-289.41 424.07,-289.41 467.8,-289.41"/>
<polygon fill="#9a32cd" stroke="#9a32cd" points="321.32,-285.91 311.32,-289.41 321.32,-292.91 321.32,-285.91"/>
<text text-anchor="start" x="329" y="-301.01" font-family="Helvetica,sans-Serif" font-size="8.00"> m_on_passive_open_channel</text>
<text text-anchor="middle" x="389.5" y="-292.01" font-family="Helvetica,sans-Serif" font-size="8.00">_func_or_empty</text>
</g>
<!-- Node25 -->
<g id="node15" class="node">
<title>Node25</title>
<g id="a_node15"><a xlink:title=" ">
<polygon fill="white" stroke="#bfbfbf" points="201,-235.91 201,-252.91 261,-252.91 261,-235.91 201,-235.91"/>
<text text-anchor="middle" x="231" y="-242.51" font-family="Helvetica,sans-Serif" font-size="8.00">Error_code</text>
</a>
</g>
</g>
<!-- Node25&#45;&gt;Node4 -->
<g id="edge15" class="edge">
<title>Node25&#45;&gt;Node4</title>
<path fill="none" stroke="#9a32cd" stroke-dasharray="5,2" d="M271.31,-246.95C315.14,-250.16 388,-256.61 450,-267.41 455.86,-268.43 461.91,-269.61 467.97,-270.9"/>
<polygon fill="#9a32cd" stroke="#9a32cd" points="271.31,-243.45 261.09,-246.23 270.81,-250.43 271.31,-243.45"/>
<text text-anchor="start" x="341" y="-279.01" font-family="Helvetica,sans-Serif" font-size="8.00"> m_peer_state_err_code</text>
<text text-anchor="middle" x="389.5" y="-270.01" font-family="Helvetica,sans-Serif" font-size="8.00">_or_ok</text>
</g>
<!-- Node26 -->
<g id="node16" class="node">
<title>Node26</title>
<g id="a_node16"><a xlink:title=" ">
<polygon fill="white" stroke="#bfbfbf" points="177.5,-751.91 177.5,-768.91 284.5,-768.91 284.5,-751.91 177.5,-751.91"/>
<text text-anchor="middle" x="231" y="-758.51" font-family="Helvetica,sans-Serif" font-size="8.00">flow::log::Log_context</text>
</a>
</g>
</g>
<!-- Node26&#45;&gt;Node3 -->
<g id="edge16" class="edge">
<title>Node26&#45;&gt;Node3</title>
<path fill="none" stroke="midnightblue" d="M278.19,-770.83C322.91,-779.04 392.25,-786.79 450,-771.41 595.05,-732.77 654.63,-724.75 743,-603.41 765.73,-572.19 744.87,-553.49 761,-518.41 773.26,-491.74 793.88,-465.55 810.4,-446.96"/>
<polygon fill="midnightblue" stroke="midnightblue" points="278.68,-767.36 268.2,-768.91 277.36,-774.23 278.68,-767.36"/>
</g>
<!-- Node26&#45;&gt;Node29 -->
<g id="edge21" class="edge">
<title>Node26&#45;&gt;Node29</title>
<path fill="none" stroke="midnightblue" d="M295.03,-753.08C355.64,-745.42 439.59,-732.92 450,-721.41 485.13,-682.56 435.52,-527.49 468,-486.41 472.56,-480.64 478.57,-476.3 485.17,-473.03"/>
<polygon fill="midnightblue" stroke="midnightblue" points="294.25,-749.65 284.76,-754.36 295.12,-756.6 294.25,-749.65"/>
</g>
<!-- Node26&#45;&gt;Node39 -->
<g id="edge34" class="edge">
<title>Node26&#45;&gt;Node39</title>
<path fill="none" stroke="midnightblue" d="M294.94,-769.27C340.51,-772.72 402.23,-771.08 450,-746.41 492.32,-724.55 521.79,-673.04 533.87,-648.65"/>
<polygon fill="midnightblue" stroke="midnightblue" points="295.15,-765.78 284.89,-768.41 294.55,-772.75 295.15,-765.78"/>
</g>
<!-- Node27 -->
<g id="node17" class="node">
<title>Node27</title>
<g id="a_node17"><a xlink:title=" ">
<polygon fill="white" stroke="#bfbfbf" points="514.5,-105.91 514.5,-122.91 567.5,-122.91 567.5,-105.91 514.5,-105.91"/>
<text text-anchor="middle" x="541" y="-112.51" font-family="Helvetica,sans-Serif" font-size="8.00">ShmType</text>
</a>
</g>
</g>
<!-- Node27&#45;&gt;Node3 -->
<g id="edge17" class="edge">
<title>Node27&#45;&gt;Node3</title>
<path fill="none" stroke="#9a32cd" stroke-dasharray="5,2" d="M577.65,-106.19C623.03,-98.07 700.62,-92.45 743,-136.41 781.35,-176.19 729.9,-338.74 761,-384.41 763.36,-387.87 766.14,-391.01 769.23,-393.85"/>
<polygon fill="#9a32cd" stroke="#9a32cd" points="576.82,-102.79 567.66,-108.11 578.14,-109.66 576.82,-102.79"/>
<text text-anchor="middle" x="687.5" y="-139.01" font-family="Helvetica,sans-Serif" font-size="8.00"> S_SHM_TYPE</text>
</g>
<!-- Node28 -->
<g id="node18" class="node">
<title>Node28</title>
<g id="a_node18"><a xlink:title=" ">
<polygon fill="white" stroke="#bfbfbf" points="522,-69.91 522,-86.91 560,-86.91 560,-69.91 522,-69.91"/>
<text text-anchor="middle" x="541" y="-76.51" font-family="Helvetica,sans-Serif" font-size="8.00">State</text>
</a>
</g>
</g>
<!-- Node28&#45;&gt;Node3 -->
<g id="edge19" class="edge">
<title>Node28&#45;&gt;Node3</title>
<path fill="none" stroke="#9a32cd" stroke-dasharray="5,2" d="M570.08,-75.44C619.57,-70.9 719.34,-65 743,-88.41 789.85,-134.75 724.23,-329.72 761,-384.41 763.34,-387.88 766.11,-391.03 769.18,-393.89"/>
<polygon fill="#9a32cd" stroke="#9a32cd" points="569.66,-71.97 560.05,-76.41 570.34,-78.93 569.66,-71.97"/>
<text text-anchor="middle" x="687.5" y="-91.01" font-family="Helvetica,sans-Serif" font-size="8.00"> m_state</text>
</g>
<!-- Node29&#45;&gt;Node3 -->
<g id="edge20" class="edge">
<title>Node29&#45;&gt;Node3</title>
<path fill="none" stroke="#9a32cd" stroke-dasharray="5,2" d="M606.66,-453.95C652.17,-447.29 713.23,-438.36 760.9,-431.39"/>
<polygon fill="#9a32cd" stroke="#9a32cd" points="606,-450.51 596.61,-455.42 607.01,-457.44 606,-450.51"/>
<text text-anchor="middle" x="687.5" y="-461.01" font-family="Helvetica,sans-Serif" font-size="8.00"> m_protocol_negotiator</text>
<text text-anchor="middle" x="687.5" y="-452.01" font-family="Helvetica,sans-Serif" font-size="8.00">m_protocol_negotiator_aux</text>
</g>
<!-- Node30 -->
<g id="node20" class="node">
<title>Node30</title>
<g id="a_node20"><a xlink:title=" ">
<polygon fill="white" stroke="#bfbfbf" points="178.5,-416.41 178.5,-442.41 283.5,-442.41 283.5,-416.41 178.5,-416.41"/>
<text text-anchor="start" x="186.5" y="-432.01" font-family="Helvetica,sans-Serif" font-size="8.00">static constexpr proto</text>
<text text-anchor="middle" x="231" y="-423.01" font-family="Helvetica,sans-Serif" font-size="8.00">_ver_t</text>
</a>
</g>
</g>
<!-- Node30&#45;&gt;Node29 -->
<g id="edge22" class="edge">
<title>Node30&#45;&gt;Node29</title>
<path fill="none" stroke="#9a32cd" stroke-dasharray="5,2" d="M293.79,-424.05C337.72,-421.6 397.93,-421.04 450,-430.41 461.38,-432.46 486.94,-442.01 507.92,-450.31"/>
<polygon fill="#9a32cd" stroke="#9a32cd" points="293.32,-420.57 283.55,-424.67 293.74,-427.56 293.32,-420.57"/>
<text text-anchor="middle" x="389.5" y="-442.01" font-family="Helvetica,sans-Serif" font-size="8.00"> S_VER_UNKNOWN</text>
<text text-anchor="middle" x="389.5" y="-433.01" font-family="Helvetica,sans-Serif" font-size="8.00">S_VER_UNSUPPORTED</text>
</g>
<!-- Node31 -->
<g id="node21" class="node">
<title>Node31</title>
<g id="a_node21"><a xlink:title=" ">
<polygon fill="white" stroke="#bfbfbf" points="209,-659.91 209,-676.91 253,-676.91 253,-659.91 209,-659.91"/>
<text text-anchor="middle" x="231" y="-666.51" font-family="Helvetica,sans-Serif" font-size="8.00">int16_t</text>
</a>
</g>
</g>
<!-- Node31&#45;&gt;Node29 -->
<g id="edge24" class="edge">
<title>Node31&#45;&gt;Node29</title>
<path fill="none" stroke="#9a32cd" stroke-dasharray="5,2" d="M263.14,-666.48C317.19,-662.46 425,-651.21 450,-624.41 492.19,-579.18 428.36,-533.89 468,-486.41 472.71,-480.77 478.8,-476.49 485.45,-473.26"/>
<polygon fill="#9a32cd" stroke="#9a32cd" points="262.82,-662.99 253.09,-667.19 263.31,-669.98 262.82,-662.99"/>
<text text-anchor="middle" x="389.5" y="-679.01" font-family="Helvetica,sans-Serif" font-size="8.00"> m_local_max_proto_ver</text>
<text text-anchor="middle" x="389.5" y="-670.01" font-family="Helvetica,sans-Serif" font-size="8.00">m_local_min_proto_ver</text>
<text text-anchor="middle" x="389.5" y="-661.01" font-family="Helvetica,sans-Serif" font-size="8.00">m_negotiated_proto_ver</text>
</g>
<!-- Node32 -->
<g id="node22" class="node">
<title>Node32</title>
<g id="a_node22"><a xlink:title=" ">
<polygon fill="white" stroke="#bfbfbf" points="213.5,-587.91 213.5,-604.91 248.5,-604.91 248.5,-587.91 213.5,-587.91"/>
<text text-anchor="middle" x="231" y="-594.51" font-family="Helvetica,sans-Serif" font-size="8.00">bool</text>
</a>
</g>
</g>
<!-- Node32&#45;&gt;Node29 -->
<g id="edge25" class="edge">
<title>Node32&#45;&gt;Node29</title>
<path fill="none" stroke="#9a32cd" stroke-dasharray="5,2" d="M259.03,-598.27C304.59,-599.87 396.86,-596.19 450,-546.41 470.32,-527.37 448.49,-506.27 468,-486.41 472.87,-481.45 478.82,-477.55 485.17,-474.5"/>
<polygon fill="#9a32cd" stroke="#9a32cd" points="258.92,-594.77 248.77,-597.8 258.59,-601.76 258.92,-594.77"/>
<text text-anchor="middle" x="389.5" y="-597.01" font-family="Helvetica,sans-Serif" font-size="8.00"> m_local_max_proto_ver_sent</text>
</g>
<!-- Node33 -->
<g id="node23" class="node">
<title>Node33</title>
<g id="a_node23"><a xlink:title=" ">
<polygon fill="white" stroke="#bfbfbf" points="507,-12.91 507,-29.91 575,-29.91 575,-12.91 507,-12.91"/>
<text text-anchor="middle" x="541" y="-19.51" font-family="Helvetica,sans-Serif" font-size="8.00">unsigned int</text>
</a>
</g>
</g>
<!-- Node33&#45;&gt;Node3 -->
<g id="edge27" class="edge">
<title>Node33&#45;&gt;Node3</title>
<path fill="none" stroke="#9a32cd" stroke-dasharray="5,2" d="M578.63,-10.3C623.96,0.92 700.37,11.17 743,-31.41 770.79,-59.16 739.24,-351.71 761,-384.41 763.24,-387.77 765.89,-390.84 768.83,-393.62"/>
<polygon fill="#9a32cd" stroke="#9a32cd" points="577.69,-6.93 568.9,-12.84 579.46,-13.7 577.69,-6.93"/>
<text text-anchor="start" x="635.5" y="-61.01" font-family="Helvetica,sans-Serif" font-size="8.00"> m_last_actively_opened</text>
<text text-anchor="middle" x="687.5" y="-52.01" font-family="Helvetica,sans-Serif" font-size="8.00">_channel_id</text>
<text text-anchor="start" x="635.5" y="-43.01" font-family="Helvetica,sans-Serif" font-size="8.00">m_last_passively_opened</text>
<text text-anchor="middle" x="687.5" y="-34.01" font-family="Helvetica,sans-Serif" font-size="8.00">_channel_id</text>
</g>
<!-- Node34 -->
<g id="node24" class="node">
<title>Node34</title>
<g id="a_node24"><a xlink:title=" ">
<polygon fill="white" stroke="#bfbfbf" points="483,-585.91 483,-602.91 599,-602.91 599,-585.91 483,-585.91"/>
<text text-anchor="middle" x="541" y="-592.51" font-family="Helvetica,sans-Serif" font-size="8.00">Single_thread_task_loop</text>
</a>
</g>
</g>
<!-- Node34&#45;&gt;Node3 -->
<g id="edge28" class="edge">
<title>Node34&#45;&gt;Node3</title>
<path fill="none" stroke="#9a32cd" stroke-dasharray="5,2" d="M609.18,-593.55C650.69,-590.14 703.41,-580.36 743,-554.41 783.14,-528.09 810.9,-477.88 825.07,-446.95"/>
<polygon fill="#9a32cd" stroke="#9a32cd" points="608.87,-590.06 599.15,-594.27 609.37,-597.04 608.87,-590.06"/>
<text text-anchor="middle" x="687.5" y="-593.01" font-family="Helvetica,sans-Serif" font-size="8.00"> m_async_worker</text>
</g>
<!-- Node35 -->
<g id="node25" class="node">
<title>Node35</title>
<g id="a_node25"><a xlink:title=" ">
<polygon fill="white" stroke="#bfbfbf" points="470,-495.91 470,-512.91 612,-512.91 612,-495.91 470,-495.91"/>
<text text-anchor="middle" x="541" y="-502.51" font-family="Helvetica,sans-Serif" font-size="8.00">Master_structured_channel_ptr</text>
</a>
</g>
</g>
<!-- Node35&#45;&gt;Node3 -->
<g id="edge29" class="edge">
<title>Node35&#45;&gt;Node3</title>
<path fill="none" stroke="#9a32cd" stroke-dasharray="5,2" d="M622.6,-497.49C659.96,-492.7 704.5,-484.69 743,-471.41 760.76,-465.28 779.13,-455.94 794.8,-446.92"/>
<polygon fill="#9a32cd" stroke="#9a32cd" points="621.77,-494.07 612.27,-498.76 622.62,-501.02 621.77,-494.07"/>
<text text-anchor="middle" x="687.5" y="-498.01" font-family="Helvetica,sans-Serif" font-size="8.00"> m_master_channel</text>
</g>
<!-- Node36 -->
<g id="node26" class="node">
<title>Node36</title>
<g id="a_node26"><a xlink:title=" ">
<polygon fill="white" stroke="#bfbfbf" points="478.5,-531.91 478.5,-566.91 603.5,-566.91 603.5,-531.91 478.5,-531.91"/>
<text text-anchor="start" x="486.5" y="-556.51" font-family="Helvetica,sans-Serif" font-size="8.00">optional&lt; typename</text>
<text text-anchor="start" x="486.5" y="-547.51" font-family="Helvetica,sans-Serif" font-size="8.00"> ipc::session::Session</text>
<text text-anchor="middle" x="541" y="-538.51" font-family="Helvetica,sans-Serif" font-size="8.00">_base::Graceful_finisher &gt;</text>
</a>
</g>
</g>
<!-- Node36&#45;&gt;Node3 -->
<g id="edge30" class="edge">
<title>Node36&#45;&gt;Node3</title>
<path fill="none" stroke="#9a32cd" stroke-dasharray="5,2" d="M614.03,-544.45C653.85,-539.37 703.18,-529.11 743,-508.41 771.6,-493.54 797.63,-467.28 814.84,-447.31"/>
<polygon fill="#9a32cd" stroke="#9a32cd" points="613.37,-541 603.86,-545.66 614.2,-547.95 613.37,-541"/>
<text text-anchor="middle" x="687.5" y="-544.01" font-family="Helvetica,sans-Serif" font-size="8.00"> m_graceful_finisher</text>
</g>
<!-- Node37 -->
<g id="node27" class="node">
<title>Node37</title>
<g id="a_node27"><a xlink:title=" ">
<polygon fill="white" stroke="#bfbfbf" points="774,-357.91 774,-374.91 900,-374.91 900,-357.91 774,-357.91"/>
<text text-anchor="middle" x="837" y="-364.51" font-family="Helvetica,sans-Serif" font-size="8.00">static constexpr scope_id_t</text>
</a>
</g>
</g>
<!-- Node37&#45;&gt;Node2 -->
<g id="edge31" class="edge">
<title>Node37&#45;&gt;Node2</title>
<path fill="none" stroke="#9a32cd" stroke-dasharray="5,2" d="M910.11,-370.52C943.03,-372.58 982.52,-375.3 1018,-378.41 1023.76,-378.91 1029.72,-379.47 1035.71,-380.06"/>
<polygon fill="#9a32cd" stroke="#9a32cd" points="910.31,-367.03 900.11,-369.91 909.88,-374.02 910.31,-367.03"/>
<text text-anchor="middle" x="974.5" y="-390.01" font-family="Helvetica,sans-Serif" font-size="8.00"> S_SCOPE_ID_APP</text>
<text text-anchor="middle" x="974.5" y="-381.01" font-family="Helvetica,sans-Serif" font-size="8.00">S_SCOPE_ID_SESSION</text>
</g>
<!-- Node38 -->
<g id="node28" class="node">
<title>Node38</title>
<g id="a_node28"><a xlink:title=" ">
<polygon fill="white" stroke="#bfbfbf" points="786,-321.91 786,-338.91 888,-338.91 888,-321.91 786,-321.91"/>
<text text-anchor="middle" x="837" y="-328.51" font-family="Helvetica,sans-Serif" font-size="8.00">unique_ptr&lt; Arena &gt;</text>
</a>
</g>
</g>
<!-- Node38&#45;&gt;Node2 -->
<g id="edge32" class="edge">
<title>Node38&#45;&gt;Node2</title>
<path fill="none" stroke="#9a32cd" stroke-dasharray="5,2" d="M898.2,-337.31C933.4,-341.95 978.53,-348.97 1018,-358.41 1023.88,-359.81 1029.93,-361.42 1035.98,-363.14"/>
<polygon fill="#9a32cd" stroke="#9a32cd" points="898.45,-333.81 888.08,-336 897.55,-340.75 898.45,-333.81"/>
<text text-anchor="middle" x="974.5" y="-361.01" font-family="Helvetica,sans-Serif" font-size="8.00"> m_session_shm</text>
</g>
<!-- Node39&#45;&gt;Node2 -->
<g id="edge33" class="edge">
<title>Node39&#45;&gt;Node2</title>
<path fill="none" stroke="#9a32cd" stroke-dasharray="5,2" d="M597.2,-632.16C638.37,-628.42 695.47,-620.43 743,-603.41 866.57,-559.15 995.47,-472.7 1062.73,-423.99"/>
<polygon fill="#9a32cd" stroke="#9a32cd" points="596.76,-628.68 587.09,-633.02 597.36,-635.66 596.76,-628.68"/>
<text text-anchor="middle" x="837" y="-597.01" font-family="Helvetica,sans-Serif" font-size="8.00"> m_app_shm</text>
</g>
<!-- Node40 -->
<g id="node30" class="node">
<title>Node40</title>
<g id="a_node30"><a xlink:title=" ">
<polygon fill="white" stroke="#bfbfbf" points="183.5,-809.91 183.5,-826.91 278.5,-826.91 278.5,-809.91 183.5,-809.91"/>
<text text-anchor="middle" x="231" y="-816.51" font-family="Helvetica,sans-Serif" font-size="8.00">unique_ptr&lt; Pool &gt;</text>
</a>
</g>
</g>
<!-- Node40&#45;&gt;Node39 -->
<g id="edge37" class="edge">
<title>Node40&#45;&gt;Node39</title>
<path fill="none" stroke="#9a32cd" stroke-dasharray="5,2" d="M288.53,-818.1C335.47,-815.28 402.07,-805.11 450,-772.41 496.54,-740.65 524.93,-676.06 535.4,-648.43"/>
<polygon fill="#9a32cd" stroke="#9a32cd" points="288.34,-814.6 278.53,-818.61 288.69,-821.59 288.34,-814.6"/>
<text text-anchor="middle" x="389.5" y="-816.01" font-family="Helvetica,sans-Serif" font-size="8.00"> m_pool</text>
</g>
<!-- Node41 -->
<g id="node31" class="node">
<title>Node41</title>
<g id="a_node31"><a xlink:title=" ">
<polygon fill="white" stroke="#bfbfbf" points="1083,-316.91 1083,-333.91 1139,-333.91 1139,-316.91 1083,-316.91"/>
<text text-anchor="middle" x="1111" y="-323.51" font-family="Helvetica,sans-Serif" font-size="8.00">Arena_ptr</text>
</a>
</g>
</g>
<!-- Node41&#45;&gt;Node1 -->
<g id="edge38" class="edge">
<title>Node41&#45;&gt;Node1</title>
<path fill="none" stroke="#9a32cd" stroke-dasharray="5,2" d="M1149.35,-327.33C1182.51,-329.04 1231.89,-331.58 1272.75,-333.69"/>
<polygon fill="#9a32cd" stroke="#9a32cd" points="1149.35,-323.83 1139.18,-326.81 1148.99,-330.82 1149.35,-323.83"/>
<text text-anchor="middle" x="1229.5" y="-335.01" font-family="Helvetica,sans-Serif" font-size="8.00"> m_app_shm</text>
</g>
</g>
</svg>
