<?xml version="1.0" encoding="UTF-8" standalone="no"?>
<!DOCTYPE svg PUBLIC "-//W3C//DTD SVG 1.1//EN"
 "http://www.w3.org/Graphics/SVG/1.1/DTD/svg11.dtd">
<!-- Generated by graphviz version 2.43.0 (0)
 -->
<!-- Title: ipc::session::shm::classic::Server_session_impl&lt; S_MQ_TYPE_OR_NONE, S_TRANSMIT_NATIVE_HANDLES, Mdt_payload &gt; Pages: 1 -->
<svg width="898pt" height="101pt"
 viewBox="0.00 0.00 898.00 100.50" xmlns="http://www.w3.org/2000/svg" xmlns:xlink="http://www.w3.org/1999/xlink">
<g id="graph0" class="graph" transform="scale(1 1) rotate(0) translate(4 96.5)">
<title>ipc::session::shm::classic::Server_session_impl&lt; S_MQ_TYPE_OR_NONE, S_TRANSMIT_NATIVE_HANDLES, Mdt_payload &gt;</title>
<polygon fill="white" stroke="transparent" points="-4,4 -4,-96.5 894,-96.5 894,4 -4,4"/>
<!-- Node1 -->
<g id="node1" class="node">
<title>Node1</title>
<g id="a_node1"><a xlink:title="Core internally&#45;used implementation of shm::classic::Server_session: it is to the latter what its pub...">
<polygon fill="#bfbfbf" stroke="black" points="744,-18.5 744,-71.5 890,-71.5 890,-18.5 744,-18.5"/>
<text text-anchor="start" x="752" y="-61.1" font-family="Helvetica,sans-Serif" font-size="8.00">ipc::session::shm::</text>
<text text-anchor="start" x="752" y="-52.1" font-family="Helvetica,sans-Serif" font-size="8.00">classic::Server_session</text>
<text text-anchor="start" x="752" y="-43.1" font-family="Helvetica,sans-Serif" font-size="8.00">_impl&lt; S_MQ_TYPE_OR_NONE,</text>
<text text-anchor="start" x="752" y="-34.1" font-family="Helvetica,sans-Serif" font-size="8.00"> S_TRANSMIT_NATIVE_HANDLES,</text>
<text text-anchor="middle" x="817" y="-25.1" font-family="Helvetica,sans-Serif" font-size="8.00"> Mdt_payload &gt;</text>
</a>
</g>
</g>
<!-- Node2 -->
<g id="node2" class="node">
<title>Node2</title>
<g id="a_node2"><a xlink:href="classipc_1_1session_1_1shm_1_1classic_1_1Session__impl.html" target="_top" xlink:title=" ">
<polygon fill="white" stroke="black" points="520,-0.5 520,-89.5 708,-89.5 708,-0.5 520,-0.5"/>
<text text-anchor="start" x="528" y="-79.1" font-family="Helvetica,sans-Serif" font-size="8.00">ipc::session::shm::</text>
<text text-anchor="start" x="528" y="-70.1" font-family="Helvetica,sans-Serif" font-size="8.00">classic::Session_impl</text>
<text text-anchor="start" x="528" y="-61.1" font-family="Helvetica,sans-Serif" font-size="8.00">&lt; session::Server_session</text>
<text text-anchor="start" x="528" y="-52.1" font-family="Helvetica,sans-Serif" font-size="8.00">_impl&lt; S_MQ_TYPE_OR_NONE,</text>
<text text-anchor="start" x="528" y="-43.1" font-family="Helvetica,sans-Serif" font-size="8.00"> S_TRANSMIT_NATIVE_HANDLES,</text>
<text text-anchor="start" x="528" y="-34.1" font-family="Helvetica,sans-Serif" font-size="8.00"> Mdt_payload, schema::ShmType</text>
<text text-anchor="start" x="528" y="-25.1" font-family="Helvetica,sans-Serif" font-size="8.00">::CLASSIC, transport::struc::</text>
<text text-anchor="start" x="528" y="-16.1" font-family="Helvetica,sans-Serif" font-size="8.00">shm::Builder_base::S_MAX_SERIALIZATION</text>
<text text-anchor="middle" x="614" y="-7.1" font-family="Helvetica,sans-Serif" font-size="8.00">_SEGMENT_SZ &gt; &gt;</text>
</a>
</g>
</g>
<!-- Node2&#45;&gt;Node1 -->
<g id="edge1" class="edge">
<title>Node2&#45;&gt;Node1</title>
<path fill="none" stroke="midnightblue" d="M718.3,-45C726.95,-45 735.58,-45 743.92,-45"/>
<polygon fill="midnightblue" stroke="midnightblue" points="718.15,-41.5 708.15,-45 718.14,-48.5 718.15,-41.5"/>
</g>
<!-- Node3 -->
<g id="node3" class="node">
<title>Node3</title>
<g id="a_node3"><a xlink:href="classipc_1_1session_1_1Server__session__impl.html" target="_top" xlink:title=" ">
<polygon fill="white" stroke="black" points="317,-9.5 317,-80.5 484,-80.5 484,-9.5 317,-9.5"/>
<text text-anchor="start" x="325" y="-70.1" font-family="Helvetica,sans-Serif" font-size="8.00">ipc::session::Server</text>
<text text-anchor="start" x="325" y="-61.1" font-family="Helvetica,sans-Serif" font-size="8.00">_session_impl&lt; S_MQ_TYPE</text>
<text text-anchor="start" x="325" y="-52.1" font-family="Helvetica,sans-Serif" font-size="8.00">_OR_NONE, S_TRANSMIT_NATIVE</text>
<text text-anchor="start" x="325" y="-43.1" font-family="Helvetica,sans-Serif" font-size="8.00">_HANDLES, Mdt_payload, schema</text>
<text text-anchor="start" x="325" y="-34.1" font-family="Helvetica,sans-Serif" font-size="8.00">::ShmType::CLASSIC, transport</text>
<text text-anchor="start" x="325" y="-25.1" font-family="Helvetica,sans-Serif" font-size="8.00">::struc::shm::Builder_base::S</text>
<text text-anchor="middle" x="400.5" y="-16.1" font-family="Helvetica,sans-Serif" font-size="8.00">_MAX_SERIALIZATION_SEGMENT_SZ &gt;</text>
</a>
</g>
</g>
<!-- Node3&#45;&gt;Node2 -->
<g id="edge2" class="edge">
<title>Node3&#45;&gt;Node2</title>
<path fill="none" stroke="midnightblue" d="M494.41,-45C502.86,-45 511.41,-45 519.86,-45"/>
<polygon fill="midnightblue" stroke="midnightblue" points="494.18,-41.5 484.18,-45 494.18,-48.5 494.18,-41.5"/>
</g>
<!-- Node4 -->
<g id="node4" class="node">
<title>Node4</title>
<g id="a_node4"><a xlink:href="classipc_1_1session_1_1Session__base.html" target="_top" xlink:title="Internal type containing data and types common to internal types Server_session_impl and Client_sessi...">
<polygon fill="white" stroke="black" points="135,-48 135,-92 281,-92 281,-48 135,-48"/>
<text text-anchor="start" x="143" y="-81.6" font-family="Helvetica,sans-Serif" font-size="8.00">ipc::session::Session</text>
<text text-anchor="start" x="143" y="-72.6" font-family="Helvetica,sans-Serif" font-size="8.00">_base&lt; S_MQ_TYPE_OR_NONE,</text>
<text text-anchor="start" x="143" y="-63.6" font-family="Helvetica,sans-Serif" font-size="8.00"> S_TRANSMIT_NATIVE_HANDLES,</text>
<text text-anchor="middle" x="208" y="-54.6" font-family="Helvetica,sans-Serif" font-size="8.00"> Mdt_payload &gt;</text>
</a>
</g>
</g>
<!-- Node4&#45;&gt;Node3 -->
<g id="edge3" class="edge">
<title>Node4&#45;&gt;Node3</title>
<path fill="none" stroke="midnightblue" d="M290.99,-59.24C299.55,-58.12 308.26,-56.97 316.83,-55.85"/>
<polygon fill="midnightblue" stroke="midnightblue" points="290.48,-55.78 281.02,-60.55 291.39,-62.72 290.48,-55.78"/>
</g>
<!-- Node5 -->
<g id="node5" class="node">
<title>Node5</title>
<g id="a_node5"><a xlink:title=" ">
<polygon fill="white" stroke="#bfbfbf" points="0,-61.5 0,-78.5 99,-78.5 99,-61.5 0,-61.5"/>
<text text-anchor="middle" x="49.5" y="-68.1" font-family="Helvetica,sans-Serif" font-size="8.00">boost::noncopyable</text>
</a>
</g>
</g>
<!-- Node5&#45;&gt;Node4 -->
<g id="edge4" class="edge">
<title>Node5&#45;&gt;Node4</title>
<path fill="none" stroke="#8b1a1a" d="M109.18,-70C117.54,-70 126.23,-70 134.82,-70"/>
<polygon fill="#8b1a1a" stroke="#8b1a1a" points="109.16,-66.5 99.16,-70 109.16,-73.5 109.16,-66.5"/>
</g>
<!-- Node6 -->
<g id="node6" class="node">
<title>Node6</title>
<g id="a_node6"><a xlink:title=" ">
<polygon fill="white" stroke="#bfbfbf" points="154.5,-11.5 154.5,-28.5 261.5,-28.5 261.5,-11.5 154.5,-11.5"/>
<text text-anchor="middle" x="208" y="-18.1" font-family="Helvetica,sans-Serif" font-size="8.00">flow::log::Log_context</text>
</a>
</g>
</g>
<!-- Node6&#45;&gt;Node3 -->
<g id="edge5" class="edge">
<title>Node6&#45;&gt;Node3</title>
<path fill="none" stroke="midnightblue" d="M271.8,-28.24C286.17,-30.13 301.66,-32.16 316.73,-34.14"/>
<polygon fill="midnightblue" stroke="midnightblue" points="271.93,-24.73 261.56,-26.9 271.02,-31.67 271.93,-24.73"/>
</g>
</g>
</svg>
