<?xml version="1.0" encoding="UTF-8" standalone="no"?>
<!DOCTYPE svg PUBLIC "-//W3C//DTD SVG 1.1//EN"
 "http://www.w3.org/Graphics/SVG/1.1/DTD/svg11.dtd">
<!-- Generated by graphviz version 2.43.0 (0)
 -->
<!-- Title: ipc::transport::Native_socket_stream_acceptor::finalize_q_surplus_on_error Pages: 1 -->
<svg width="508pt" height="62pt"
 viewBox="0.00 0.00 508.00 62.00" xmlns="http://www.w3.org/2000/svg" xmlns:xlink="http://www.w3.org/1999/xlink">
<g id="graph0" class="graph" transform="scale(1 1) rotate(0) translate(4 58)">
<title>ipc::transport::Native_socket_stream_acceptor::finalize_q_surplus_on_error</title>
<polygon fill="white" stroke="transparent" points="-4,4 -4,-58 504,-58 504,4 -4,4"/>
<!-- Node1 -->
<g id="node1" class="node">
<title>Node1</title>
<g id="a_node1"><a xlink:title="In thread W, in steady state except for an Error_code just pushed to the back of m_pending_results_q ...">
<polygon fill="#bfbfbf" stroke="black" points="367,-0.5 367,-35.5 500,-35.5 500,-0.5 367,-0.5"/>
<text text-anchor="start" x="375" y="-25.1" font-family="Helvetica,sans-Serif" font-size="8.00">ipc::transport::Native</text>
<text text-anchor="start" x="375" y="-16.1" font-family="Helvetica,sans-Serif" font-size="8.00">_socket_stream_acceptor</text>
<text text-anchor="middle" x="433.5" y="-7.1" font-family="Helvetica,sans-Serif" font-size="8.00">::finalize_q_surplus_on_error</text>
</a>
</g>
</g>
<!-- Node2 -->
<g id="node2" class="node">
<title>Node2</title>
<g id="a_node2"><a xlink:href="classipc_1_1transport_1_1Native__socket__stream__acceptor.html#af52346c8df9efc457efaec35bc6c0807" target="_top" xlink:title="Handler for incoming connection on m_acceptor.">
<polygon fill="white" stroke="black" points="188,-0.5 188,-35.5 331,-35.5 331,-0.5 188,-0.5"/>
<text text-anchor="start" x="196" y="-25.1" font-family="Helvetica,sans-Serif" font-size="8.00">ipc::transport::Native</text>
<text text-anchor="start" x="196" y="-16.1" font-family="Helvetica,sans-Serif" font-size="8.00">_socket_stream_acceptor</text>
<text text-anchor="middle" x="259.5" y="-7.1" font-family="Helvetica,sans-Serif" font-size="8.00">::on_next_peer_socket_or_error</text>
</a>
</g>
</g>
<!-- Node1&#45;&gt;Node2 -->
<g id="edge1" class="edge">
<title>Node1&#45;&gt;Node2</title>
<path fill="none" stroke="midnightblue" d="M356.75,-18C348.28,-18 339.68,-18 331.28,-18"/>
<polygon fill="midnightblue" stroke="midnightblue" points="356.98,-21.5 366.98,-18 356.98,-14.5 356.98,-21.5"/>
</g>
<!-- Node2&#45;&gt;Node2 -->
<g id="edge3" class="edge">
<title>Node2&#45;&gt;Node2</title>
<path fill="none" stroke="midnightblue" d="M289.8,-46.1C285.55,-50.77 275.45,-54 259.5,-54 233.33,-54 222.91,-45.31 228.22,-35.78"/>
<polygon fill="midnightblue" stroke="midnightblue" points="293.32,-46.07 290.78,-35.78 286.35,-45.41 293.32,-46.07"/>
</g>
<!-- Node3 -->
<g id="node3" class="node">
<title>Node3</title>
<g id="a_node3"><a xlink:href="classipc_1_1transport_1_1Native__socket__stream__acceptor.html#a77795acb028a95a4804f9b3ef18d99b0" target="_top" xlink:title="Creates the Native_socket_stream_acceptor and immediately begins listening in the background,...">
<polygon fill="white" stroke="black" points="0,-0.5 0,-35.5 152,-35.5 152,-0.5 0,-0.5"/>
<text text-anchor="start" x="8" y="-25.1" font-family="Helvetica,sans-Serif" font-size="8.00">ipc::transport::Native</text>
<text text-anchor="start" x="8" y="-16.1" font-family="Helvetica,sans-Serif" font-size="8.00">_socket_stream_acceptor</text>
<text text-anchor="middle" x="76" y="-7.1" font-family="Helvetica,sans-Serif" font-size="8.00">::Native_socket_stream_acceptor</text>
</a>
</g>
</g>
<!-- Node2&#45;&gt;Node3 -->
<g id="edge2" class="edge">
<title>Node2&#45;&gt;Node3</title>
<path fill="none" stroke="midnightblue" d="M177.61,-18C169.19,-18 160.66,-18 152.3,-18"/>
<polygon fill="midnightblue" stroke="midnightblue" points="177.81,-21.5 187.81,-18 177.81,-14.5 177.81,-21.5"/>
</g>
</g>
</svg>
