<?xml version="1.0" encoding="UTF-8" standalone="no"?>
<!DOCTYPE svg PUBLIC "-//W3C//DTD SVG 1.1//EN"
 "http://www.w3.org/Graphics/SVG/1.1/DTD/svg11.dtd">
<!-- Generated by graphviz version 2.43.0 (0)
 -->
<!-- Title: ipc::transport::sync_io::Native_socket_stream::Impl::snd_async_write_q_head_payload Pages: 1 -->
<svg width="620pt" height="129pt"
 viewBox="0.00 0.00 620.00 128.50" xmlns="http://www.w3.org/2000/svg" xmlns:xlink="http://www.w3.org/1999/xlink">
<g id="graph0" class="graph" transform="scale(1 1) rotate(0) translate(4 124.5)">
<title>ipc::transport::sync_io::Native_socket_stream::Impl::snd_async_write_q_head_payload</title>
<polygon fill="white" stroke="transparent" points="-4,4 -4,-124.5 616,-124.5 616,4 -4,4"/>
<!-- Node1 -->
<g id="node1" class="node">
<title>Node1</title>
<g id="a_node1"><a xlink:title="Initiates async&#45;write over m_peer_socket of the low&#45;level payload at the head of out&#45;queue m_snd_pend...">
<polygon fill="#bfbfbf" stroke="black" points="0,-68.5 0,-112.5 123,-112.5 123,-68.5 0,-68.5"/>
<text text-anchor="start" x="8" y="-102.1" font-family="Helvetica,sans-Serif" font-size="8.00">ipc::transport::sync</text>
<text text-anchor="start" x="8" y="-93.1" font-family="Helvetica,sans-Serif" font-size="8.00">_io::Native_socket_stream</text>
<text text-anchor="start" x="8" y="-84.1" font-family="Helvetica,sans-Serif" font-size="8.00">::Impl::snd_async_write</text>
<text text-anchor="middle" x="61.5" y="-75.1" font-family="Helvetica,sans-Serif" font-size="8.00">_q_head_payload</text>
</a>
</g>
</g>
<!-- Node2 -->
<g id="node2" class="node">
<title>Node2</title>
<g id="a_node2"><a xlink:href="namespaceipc_1_1transport_1_1asio__local__stream__socket.html#a68071e53f4a048084f8ad26ff3ac6711" target="_top" xlink:title="boost.asio extension similar to boost::asio::async_write(Peer_socket&amp;, Blob_const,...">
<polygon fill="white" stroke="black" points="159,-68.5 159,-112.5 280,-112.5 280,-68.5 159,-68.5"/>
<text text-anchor="start" x="167" y="-102.1" font-family="Helvetica,sans-Serif" font-size="8.00">ipc::transport::asio</text>
<text text-anchor="start" x="167" y="-93.1" font-family="Helvetica,sans-Serif" font-size="8.00">_local_stream_socket</text>
<text text-anchor="start" x="167" y="-84.1" font-family="Helvetica,sans-Serif" font-size="8.00">::async_write_with_native</text>
<text text-anchor="middle" x="219.5" y="-75.1" font-family="Helvetica,sans-Serif" font-size="8.00">_handle</text>
</a>
</g>
</g>
<!-- Node1&#45;&gt;Node2 -->
<g id="edge1" class="edge">
<title>Node1&#45;&gt;Node2</title>
<path fill="none" stroke="midnightblue" d="M123.26,-90.5C131.59,-90.5 140.2,-90.5 148.68,-90.5"/>
<polygon fill="midnightblue" stroke="midnightblue" points="148.93,-94 158.93,-90.5 148.93,-87 148.93,-94"/>
</g>
<!-- Node3 -->
<g id="node3" class="node">
<title>Node3</title>
<g id="a_node3"><a xlink:href="namespaceipc_1_1util.html#a2bb38cee29dacbe56de5182221b45941" target="_top" xlink:title="Syntactic&#45;sugary helper that returns pointer to first byte in an immutable buffer,...">
<polygon fill="white" stroke="black" points="498,-103 498,-120 592,-120 592,-103 498,-103"/>
<text text-anchor="middle" x="545" y="-109.6" font-family="Helvetica,sans-Serif" font-size="8.00">ipc::util::blob_data</text>
</a>
</g>
</g>
<!-- Node2&#45;&gt;Node3 -->
<g id="edge2" class="edge">
<title>Node2&#45;&gt;Node3</title>
<path fill="none" stroke="midnightblue" d="M280.22,-107.17C291.99,-109.8 304.31,-112.11 316,-113.5 374.29,-120.42 441.55,-118.65 487.83,-115.94"/>
<polygon fill="midnightblue" stroke="midnightblue" points="488.2,-119.42 497.96,-115.31 487.76,-112.44 488.2,-119.42"/>
</g>
<!-- Node4 -->
<g id="node4" class="node">
<title>Node4</title>
<g id="a_node4"><a xlink:href="structipc_1_1util_1_1Native__handle.html#a11bd62ce0a7bef4bdfe666201c26d4dc" target="_top" xlink:title="Returns true if and only if m_native_handle equals S_NULL_HANDLE.">
<polygon fill="white" stroke="black" points="323,-77.5 323,-103.5 435,-103.5 435,-77.5 323,-77.5"/>
<text text-anchor="start" x="331" y="-93.1" font-family="Helvetica,sans-Serif" font-size="8.00">ipc::util::Native_handle</text>
<text text-anchor="middle" x="379" y="-84.1" font-family="Helvetica,sans-Serif" font-size="8.00">::null</text>
</a>
</g>
</g>
<!-- Node2&#45;&gt;Node4 -->
<g id="edge3" class="edge">
<title>Node2&#45;&gt;Node4</title>
<path fill="none" stroke="midnightblue" d="M280.04,-90.5C290.67,-90.5 301.8,-90.5 312.58,-90.5"/>
<polygon fill="midnightblue" stroke="midnightblue" points="312.78,-94 322.78,-90.5 312.78,-87 312.78,-94"/>
</g>
<!-- Node5 -->
<g id="node5" class="node">
<title>Node5</title>
<g id="a_node5"><a xlink:href="namespaceipc_1_1transport_1_1asio__local__stream__socket.html#a677a303f9f81cc5661bd2b34a29309f7" target="_top" xlink:title="Helper of async_write_with_native_handle() used as the callback executed when waiting for writability...">
<polygon fill="white" stroke="black" points="316,-5 316,-40 442,-40 442,-5 316,-5"/>
<text text-anchor="start" x="324" y="-29.6" font-family="Helvetica,sans-Serif" font-size="8.00">ipc::transport::asio</text>
<text text-anchor="start" x="324" y="-20.6" font-family="Helvetica,sans-Serif" font-size="8.00">_local_stream_socket</text>
<text text-anchor="middle" x="379" y="-11.6" font-family="Helvetica,sans-Serif" font-size="8.00">::on_wait_writable_or_error</text>
</a>
</g>
</g>
<!-- Node2&#45;&gt;Node5 -->
<g id="edge4" class="edge">
<title>Node2&#45;&gt;Node5</title>
<path fill="none" stroke="midnightblue" d="M271.64,-68.42C289.76,-60.6 310.13,-51.8 328.15,-44.02"/>
<polygon fill="midnightblue" stroke="midnightblue" points="329.54,-47.24 337.33,-40.06 326.76,-40.81 329.54,-47.24"/>
</g>
<!-- Node5&#45;&gt;Node3 -->
<g id="edge5" class="edge">
<title>Node5&#45;&gt;Node3</title>
<path fill="none" stroke="midnightblue" d="M412.4,-40.08C443.77,-57.11 490.64,-82.54 519.16,-98.02"/>
<polygon fill="midnightblue" stroke="midnightblue" points="517.62,-101.17 528.08,-102.86 520.96,-95.02 517.62,-101.17"/>
</g>
<!-- Node5&#45;&gt;Node5 -->
<g id="edge8" class="edge">
<title>Node5&#45;&gt;Node5</title>
<path fill="none" stroke="midnightblue" d="M350.6,-40.28C345.77,-49.81 355.24,-58.5 379,-58.5 393.48,-58.5 402.65,-55.27 406.52,-50.6"/>
<polygon fill="midnightblue" stroke="midnightblue" points="410.03,-50.54 407.4,-40.28 403.06,-49.95 410.03,-50.54"/>
</g>
<!-- Node6 -->
<g id="node6" class="node">
<title>Node6</title>
<g id="a_node6"><a xlink:href="namespaceipc_1_1transport_1_1asio__local__stream__socket.html#a1022dfd42e9a0d6eab8384b0352decb0" target="_top" xlink:title="boost.asio extension similar to peer_socket&#45;&gt;non_blocking(true); auto n = peer_socket&#45;&gt;write_some(pay...">
<polygon fill="white" stroke="black" points="478,-0.5 478,-44.5 612,-44.5 612,-0.5 478,-0.5"/>
<text text-anchor="start" x="486" y="-34.1" font-family="Helvetica,sans-Serif" font-size="8.00">ipc::transport::asio</text>
<text text-anchor="start" x="486" y="-25.1" font-family="Helvetica,sans-Serif" font-size="8.00">_local_stream_socket</text>
<text text-anchor="start" x="486" y="-16.1" font-family="Helvetica,sans-Serif" font-size="8.00">::nb_write_some_with_native</text>
<text text-anchor="middle" x="545" y="-7.1" font-family="Helvetica,sans-Serif" font-size="8.00">_handle</text>
</a>
</g>
</g>
<!-- Node5&#45;&gt;Node6 -->
<g id="edge6" class="edge">
<title>Node5&#45;&gt;Node6</title>
<path fill="none" stroke="midnightblue" d="M442,-22.5C450.41,-22.5 459.12,-22.5 467.74,-22.5"/>
<polygon fill="midnightblue" stroke="midnightblue" points="467.81,-26 477.81,-22.5 467.81,-19 467.81,-26"/>
</g>
<!-- Node6&#45;&gt;Node6 -->
<g id="edge7" class="edge">
<title>Node6&#45;&gt;Node6</title>
<path fill="none" stroke="midnightblue" d="M514.36,-44.58C511.44,-54.46 521.66,-63 545,-63 559.59,-63 569.05,-59.66 573.38,-54.75"/>
<polygon fill="midnightblue" stroke="midnightblue" points="576.89,-55.1 575.64,-44.58 570.06,-53.58 576.89,-55.1"/>
</g>
</g>
</svg>
