<?xml version="1.0" encoding="UTF-8" standalone="no"?>
<!DOCTYPE svg PUBLIC "-//W3C//DTD SVG 1.1//EN"
 "http://www.w3.org/Graphics/SVG/1.1/DTD/svg11.dtd">
<!-- Generated by graphviz version 2.43.0 (0)
 -->
<!-- Title: ipc::transport::sync_io::Native_socket_stream::Impl::snd_sync_write_or_q_payload Pages: 1 -->
<svg width="290pt" height="53pt"
 viewBox="0.00 0.00 290.00 53.00" xmlns="http://www.w3.org/2000/svg" xmlns:xlink="http://www.w3.org/1999/xlink">
<g id="graph0" class="graph" transform="scale(1 1) rotate(0) translate(4 49)">
<title>ipc::transport::sync_io::Native_socket_stream::Impl::snd_sync_write_or_q_payload</title>
<polygon fill="white" stroke="transparent" points="-4,4 -4,-49 286,-49 286,4 -4,4"/>
<!-- Node1 -->
<g id="node1" class="node">
<title>Node1</title>
<g id="a_node1"><a xlink:title="Either synchronously sends hndl_or_null handle (if any) and orig_blob low&#45;level blob over m_peer_sock...">
<polygon fill="#bfbfbf" stroke="black" points="159,-0.5 159,-44.5 282,-44.5 282,-0.5 159,-0.5"/>
<text text-anchor="start" x="167" y="-34.1" font-family="Helvetica,sans-Serif" font-size="8.00">ipc::transport::sync</text>
<text text-anchor="start" x="167" y="-25.1" font-family="Helvetica,sans-Serif" font-size="8.00">_io::Native_socket_stream</text>
<text text-anchor="start" x="167" y="-16.1" font-family="Helvetica,sans-Serif" font-size="8.00">::Impl::snd_sync_write_or</text>
<text text-anchor="middle" x="220.5" y="-7.1" font-family="Helvetica,sans-Serif" font-size="8.00">_q_payload</text>
</a>
</g>
</g>
<!-- Node2 -->
<g id="node2" class="node">
<title>Node2</title>
<g id="a_node2"><a xlink:href="classipc_1_1transport_1_1sync__io_1_1Native__socket__stream_1_1Impl.html#a65eea0cec146df598fce1d9ab5ce7e15" target="_top" xlink:title="See Native_socket_stream counterpart.">
<polygon fill="white" stroke="black" points="0,-0.5 0,-44.5 123,-44.5 123,-0.5 0,-0.5"/>
<text text-anchor="start" x="8" y="-34.1" font-family="Helvetica,sans-Serif" font-size="8.00">ipc::transport::sync</text>
<text text-anchor="start" x="8" y="-25.1" font-family="Helvetica,sans-Serif" font-size="8.00">_io::Native_socket_stream</text>
<text text-anchor="start" x="8" y="-16.1" font-family="Helvetica,sans-Serif" font-size="8.00">::Impl::start_send_native</text>
<text text-anchor="middle" x="61.5" y="-7.1" font-family="Helvetica,sans-Serif" font-size="8.00">_handle_ops</text>
</a>
</g>
</g>
<!-- Node1&#45;&gt;Node2 -->
<g id="edge1" class="edge">
<title>Node1&#45;&gt;Node2</title>
<path fill="none" stroke="midnightblue" d="M148.79,-22.5C140.19,-22.5 131.47,-22.5 123.04,-22.5"/>
<polygon fill="midnightblue" stroke="midnightblue" points="148.8,-26 158.8,-22.5 148.8,-19 148.8,-26"/>
</g>
</g>
</svg>
