<?xml version="1.0" encoding="UTF-8" standalone="no"?>
<!DOCTYPE svg PUBLIC "-//W3C//DTD SVG 1.1//EN"
 "http://www.w3.org/Graphics/SVG/1.1/DTD/svg11.dtd">
<!-- Generated by graphviz version 2.43.0 (0)
 -->
<!-- Title: ipc::transport::Native_socket_stream_acceptor Pages: 1 -->
<svg width="731pt" height="397pt"
 viewBox="0.00 0.00 731.00 397.00" xmlns="http://www.w3.org/2000/svg" xmlns:xlink="http://www.w3.org/1999/xlink">
<g id="graph0" class="graph" transform="scale(1 1) rotate(0) translate(4 393)">
<title>ipc::transport::Native_socket_stream_acceptor</title>
<polygon fill="white" stroke="transparent" points="-4,4 -4,-393 727,-393 727,4 -4,4"/>
<!-- Node1 -->
<g id="node1" class="node">
<title>Node1</title>
<g id="a_node1"><a xlink:title="A server object that binds to a Shared_name and listens for incoming Native_socket_stream connect att...">
<polygon fill="#bfbfbf" stroke="black" points="604,-144 604,-170 723,-170 723,-144 604,-144"/>
<text text-anchor="start" x="612" y="-159.6" font-family="Helvetica,sans-Serif" font-size="8.00">ipc::transport::Native</text>
<text text-anchor="middle" x="663.5" y="-150.6" font-family="Helvetica,sans-Serif" font-size="8.00">_socket_stream_acceptor</text>
</a>
</g>
</g>
<!-- Node2 -->
<g id="node2" class="node">
<title>Node2</title>
<g id="a_node2"><a xlink:title=" ">
<polygon fill="white" stroke="#bfbfbf" points="331,-371.5 331,-388.5 438,-388.5 438,-371.5 331,-371.5"/>
<text text-anchor="middle" x="384.5" y="-378.1" font-family="Helvetica,sans-Serif" font-size="8.00">flow::log::Log_context</text>
</a>
</g>
</g>
<!-- Node2&#45;&gt;Node1 -->
<g id="edge1" class="edge">
<title>Node2&#45;&gt;Node1</title>
<path fill="none" stroke="midnightblue" d="M431.64,-368.79C475.97,-355.98 542.46,-331.14 586,-289 622.92,-253.26 647.82,-195.88 657.71,-170.19"/>
<polygon fill="midnightblue" stroke="midnightblue" points="430.67,-365.43 421.98,-371.5 432.56,-372.17 430.67,-365.43"/>
</g>
<!-- Node3 -->
<g id="node3" class="node">
<title>Node3</title>
<g id="a_node3"><a xlink:title=" ">
<polygon fill="white" stroke="#bfbfbf" points="335,-335.5 335,-352.5 434,-352.5 434,-335.5 335,-335.5"/>
<text text-anchor="middle" x="384.5" y="-342.1" font-family="Helvetica,sans-Serif" font-size="8.00">boost::noncopyable</text>
</a>
</g>
</g>
<!-- Node3&#45;&gt;Node1 -->
<g id="edge2" class="edge">
<title>Node3&#45;&gt;Node1</title>
<path fill="none" stroke="#8b1a1a" d="M434.48,-332.34C439.82,-330.48 445.09,-328.37 450,-326 536.13,-284.32 619.28,-202.47 650.02,-170.37"/>
<polygon fill="#8b1a1a" stroke="#8b1a1a" points="433.32,-329.04 424.87,-335.43 435.46,-335.71 433.32,-329.04"/>
</g>
<!-- Node4 -->
<g id="node4" class="node">
<title>Node4</title>
<g id="a_node4"><a xlink:href="classipc_1_1util_1_1Shared__name.html" target="_top" xlink:title="String&#45;wrapping abstraction representing a name uniquely distinguishing a kernel&#45;persistent entity fr...">
<polygon fill="white" stroke="black" points="329.5,-209.5 329.5,-226.5 439.5,-226.5 439.5,-209.5 329.5,-209.5"/>
<text text-anchor="middle" x="384.5" y="-216.1" font-family="Helvetica,sans-Serif" font-size="8.00">ipc::util::Shared_name</text>
</a>
</g>
</g>
<!-- Node4&#45;&gt;Node1 -->
<g id="edge3" class="edge">
<title>Node4&#45;&gt;Node1</title>
<path fill="none" stroke="#9a32cd" stroke-dasharray="5,2" d="M449.65,-209.39C489.27,-203.43 540.96,-194.51 586,-183 599.86,-179.46 614.82,-174.61 627.81,-170.06"/>
<polygon fill="#9a32cd" stroke="#9a32cd" points="448.97,-205.95 439.59,-210.88 450,-212.88 448.97,-205.95"/>
<text text-anchor="middle" x="527" y="-216.6" font-family="Helvetica,sans-Serif" font-size="8.00"> S_RESOURCE_TYPE_ID</text>
<text text-anchor="middle" x="527" y="-207.6" font-family="Helvetica,sans-Serif" font-size="8.00">m_absolute_name</text>
</g>
<!-- Node4&#45;&gt;Node4 -->
<g id="edge4" class="edge">
<title>Node4&#45;&gt;Node4</title>
<path fill="none" stroke="#9a32cd" stroke-dasharray="5,2" d="M362.78,-235.48C363.28,-240.82 370.52,-245 384.5,-245 405.8,-245 411.45,-235.29 401.47,-226.57"/>
<polygon fill="#9a32cd" stroke="#9a32cd" points="365.91,-237.04 367.53,-226.57 359.74,-233.75 365.91,-237.04"/>
<text text-anchor="middle" x="384.5" y="-310.6" font-family="Helvetica,sans-Serif" font-size="8.00"> S_1ST_OR_ONLY</text>
<text text-anchor="middle" x="384.5" y="-301.6" font-family="Helvetica,sans-Serif" font-size="8.00">S_EMPTY</text>
<text text-anchor="start" x="346" y="-292.6" font-family="Helvetica,sans-Serif" font-size="8.00">S_RESOURCE_TYPE</text>
<text text-anchor="middle" x="384.5" y="-283.6" font-family="Helvetica,sans-Serif" font-size="8.00">_ID_MUTEX</text>
<text text-anchor="start" x="346" y="-274.6" font-family="Helvetica,sans-Serif" font-size="8.00">S_RESOURCE_TYPE</text>
<text text-anchor="middle" x="384.5" y="-265.6" font-family="Helvetica,sans-Serif" font-size="8.00">_ID_SHM</text>
<text text-anchor="middle" x="384.5" y="-256.6" font-family="Helvetica,sans-Serif" font-size="8.00">S_ROOT_MAGIC</text>
<text text-anchor="middle" x="384.5" y="-247.6" font-family="Helvetica,sans-Serif" font-size="8.00">S_SENTINEL</text>
</g>
<!-- Node5 -->
<g id="node5" class="node">
<title>Node5</title>
<g id="a_node5"><a xlink:title=" ">
<polygon fill="white" stroke="#bfbfbf" points="152.5,-274.5 152.5,-291.5 192.5,-291.5 192.5,-274.5 152.5,-274.5"/>
<text text-anchor="middle" x="172.5" y="-281.1" font-family="Helvetica,sans-Serif" font-size="8.00">size_t</text>
</a>
</g>
</g>
<!-- Node5&#45;&gt;Node4 -->
<g id="edge5" class="edge">
<title>Node5&#45;&gt;Node4</title>
<path fill="none" stroke="#9a32cd" stroke-dasharray="5,2" d="M202.71,-276.84C228.76,-271.08 267.8,-261.75 301,-251 323.01,-243.87 347.55,-233.77 364.1,-226.62"/>
<polygon fill="#9a32cd" stroke="#9a32cd" points="201.76,-273.47 192.74,-279.02 203.25,-280.31 201.76,-273.47"/>
<text text-anchor="middle" x="268" y="-271.6" font-family="Helvetica,sans-Serif" font-size="8.00"> S_MAX_LENGTH</text>
</g>
<!-- Node6 -->
<g id="node6" class="node">
<title>Node6</title>
<g id="a_node6"><a xlink:title=" ">
<polygon fill="white" stroke="#bfbfbf" points="130.5,-238.5 130.5,-255.5 214.5,-255.5 214.5,-238.5 130.5,-238.5"/>
<text text-anchor="middle" x="172.5" y="-245.1" font-family="Helvetica,sans-Serif" font-size="8.00">static const char</text>
</a>
</g>
</g>
<!-- Node6&#45;&gt;Node4 -->
<g id="edge6" class="edge">
<title>Node6&#45;&gt;Node4</title>
<path fill="none" stroke="#9a32cd" stroke-dasharray="5,2" d="M224.69,-239.93C256.36,-235.56 296.99,-229.95 329.22,-225.5"/>
<polygon fill="#9a32cd" stroke="#9a32cd" points="224.17,-236.47 214.74,-241.31 225.12,-243.4 224.17,-236.47"/>
<text text-anchor="middle" x="268" y="-240.6" font-family="Helvetica,sans-Serif" font-size="8.00"> S_SEPARATOR</text>
</g>
<!-- Node7 -->
<g id="node7" class="node">
<title>Node7</title>
<g id="a_node7"><a xlink:title=" ">
<polygon fill="white" stroke="black" points="143,-202.5 143,-219.5 202,-219.5 202,-202.5 143,-202.5"/>
<text text-anchor="middle" x="172.5" y="-209.1" font-family="Helvetica,sans-Serif" font-size="8.00">std::string</text>
</a>
</g>
</g>
<!-- Node7&#45;&gt;Node4 -->
<g id="edge7" class="edge">
<title>Node7&#45;&gt;Node4</title>
<path fill="none" stroke="#9a32cd" stroke-dasharray="5,2" d="M212.38,-212.3C245.22,-213.39 292.61,-214.97 329.2,-216.19"/>
<polygon fill="#9a32cd" stroke="#9a32cd" points="212.37,-208.79 202.26,-211.96 212.14,-215.79 212.37,-208.79"/>
<text text-anchor="middle" x="268" y="-217.6" font-family="Helvetica,sans-Serif" font-size="8.00"> m_raw_name</text>
</g>
<!-- Node8 -->
<g id="node8" class="node">
<title>Node8</title>
<g id="a_node8"><a xlink:title=" ">
<polygon fill="white" stroke="black" points="0,-198 0,-224 91,-224 91,-198 0,-198"/>
<text text-anchor="start" x="8" y="-213.6" font-family="Helvetica,sans-Serif" font-size="8.00">std::basic_string&lt;</text>
<text text-anchor="middle" x="45.5" y="-204.6" font-family="Helvetica,sans-Serif" font-size="8.00"> Char &gt;</text>
</a>
</g>
</g>
<!-- Node8&#45;&gt;Node7 -->
<g id="edge8" class="edge">
<title>Node8&#45;&gt;Node7</title>
<path fill="none" stroke="midnightblue" d="M101.55,-211C115.86,-211 130.69,-211 142.99,-211"/>
<polygon fill="midnightblue" stroke="midnightblue" points="101.27,-207.5 91.27,-211 101.27,-214.5 101.27,-207.5"/>
</g>
<!-- Node9 -->
<g id="node9" class="node">
<title>Node9</title>
<g id="a_node9"><a xlink:title=" ">
<polygon fill="white" stroke="black" points="322,-164 322,-190 447,-190 447,-164 322,-164"/>
<text text-anchor="start" x="330" y="-179.6" font-family="Helvetica,sans-Serif" font-size="8.00">std::queue&lt; User_request</text>
<text text-anchor="middle" x="384.5" y="-170.6" font-family="Helvetica,sans-Serif" font-size="8.00">::Ptr &gt;</text>
</a>
</g>
</g>
<!-- Node9&#45;&gt;Node1 -->
<g id="edge9" class="edge">
<title>Node9&#45;&gt;Node1</title>
<path fill="none" stroke="#9a32cd" stroke-dasharray="5,2" d="M457.41,-171.81C502.91,-168.52 560.99,-164.33 603.72,-161.24"/>
<polygon fill="#9a32cd" stroke="#9a32cd" points="457.04,-168.33 447.32,-172.54 457.55,-175.31 457.04,-168.33"/>
<text text-anchor="middle" x="527" y="-172.6" font-family="Helvetica,sans-Serif" font-size="8.00"> m_pending_user_requests_q</text>
</g>
<!-- Node10 -->
<g id="node10" class="node">
<title>Node10</title>
<g id="a_node10"><a xlink:title=" ">
<polygon fill="white" stroke="#bfbfbf" points="158,-166.5 158,-183.5 187,-183.5 187,-166.5 158,-166.5"/>
<text text-anchor="middle" x="172.5" y="-173.1" font-family="Helvetica,sans-Serif" font-size="8.00">Ptr</text>
</a>
</g>
</g>
<!-- Node10&#45;&gt;Node9 -->
<g id="edge10" class="edge">
<title>Node10&#45;&gt;Node9</title>
<path fill="none" stroke="#9a32cd" stroke-dasharray="5,2" d="M197.63,-175.23C227.68,-175.52 280.13,-176.02 321.66,-176.41"/>
<polygon fill="#9a32cd" stroke="#9a32cd" points="197.31,-171.73 187.28,-175.13 197.24,-178.73 197.31,-171.73"/>
<text text-anchor="middle" x="268" y="-178.6" font-family="Helvetica,sans-Serif" font-size="8.00"> elements</text>
</g>
<!-- Node11 -->
<g id="node11" class="node">
<title>Node11</title>
<g id="a_node11"><a xlink:title=" ">
<polygon fill="white" stroke="black" points="322,-119 322,-145 447,-145 447,-119 322,-119"/>
<text text-anchor="start" x="330" y="-134.6" font-family="Helvetica,sans-Serif" font-size="8.00">std::queue&lt; std::variant</text>
<text text-anchor="middle" x="384.5" y="-125.6" font-family="Helvetica,sans-Serif" font-size="8.00">&lt; Peer_ptr, Error_code &gt; &gt;</text>
</a>
</g>
</g>
<!-- Node11&#45;&gt;Node1 -->
<g id="edge11" class="edge">
<title>Node11&#45;&gt;Node1</title>
<path fill="none" stroke="#9a32cd" stroke-dasharray="5,2" d="M457.4,-137.75C495.62,-140.9 543.38,-144.97 586,-149 591.72,-149.54 597.67,-150.13 603.62,-150.73"/>
<polygon fill="#9a32cd" stroke="#9a32cd" points="457.65,-134.26 447.4,-136.93 457.08,-141.24 457.65,-134.26"/>
<text text-anchor="middle" x="527" y="-151.6" font-family="Helvetica,sans-Serif" font-size="8.00"> m_pending_results_q</text>
</g>
<!-- Node12 -->
<g id="node12" class="node">
<title>Node12</title>
<g id="a_node12"><a xlink:title=" ">
<polygon fill="white" stroke="#bfbfbf" points="128,-119 128,-145 217,-145 217,-119 128,-119"/>
<text text-anchor="start" x="136" y="-134.6" font-family="Helvetica,sans-Serif" font-size="8.00">variant&lt; Peer_ptr,</text>
<text text-anchor="middle" x="172.5" y="-125.6" font-family="Helvetica,sans-Serif" font-size="8.00"> Error_code &gt;</text>
</a>
</g>
</g>
<!-- Node12&#45;&gt;Node11 -->
<g id="edge12" class="edge">
<title>Node12&#45;&gt;Node11</title>
<path fill="none" stroke="#9a32cd" stroke-dasharray="5,2" d="M227.3,-132C256.13,-132 291.77,-132 321.73,-132"/>
<polygon fill="#9a32cd" stroke="#9a32cd" points="227.01,-128.5 217.01,-132 227.01,-135.5 227.01,-128.5"/>
<text text-anchor="middle" x="268" y="-134.6" font-family="Helvetica,sans-Serif" font-size="8.00"> elements</text>
</g>
<!-- Node13 -->
<g id="node13" class="node">
<title>Node13</title>
<g id="a_node13"><a xlink:title=" ">
<polygon fill="white" stroke="#bfbfbf" points="326.5,-82.5 326.5,-99.5 442.5,-99.5 442.5,-82.5 326.5,-82.5"/>
<text text-anchor="middle" x="384.5" y="-89.1" font-family="Helvetica,sans-Serif" font-size="8.00">Single_thread_task_loop</text>
</a>
</g>
</g>
<!-- Node13&#45;&gt;Node1 -->
<g id="edge13" class="edge">
<title>Node13&#45;&gt;Node1</title>
<path fill="none" stroke="#9a32cd" stroke-dasharray="5,2" d="M452.89,-98.52C492.21,-103.88 542.48,-112.39 586,-125 602.87,-129.89 621.03,-137.39 635.43,-143.89"/>
<polygon fill="#9a32cd" stroke="#9a32cd" points="453.26,-95.04 442.89,-97.2 452.34,-101.98 453.26,-95.04"/>
<text text-anchor="middle" x="527" y="-127.6" font-family="Helvetica,sans-Serif" font-size="8.00"> m_worker</text>
</g>
<!-- Node14 -->
<g id="node14" class="node">
<title>Node14</title>
<g id="a_node14"><a xlink:title=" ">
<polygon fill="white" stroke="#bfbfbf" points="319,-37 319,-63 450,-63 450,-37 319,-37"/>
<text text-anchor="start" x="327" y="-52.6" font-family="Helvetica,sans-Serif" font-size="8.00">unique_ptr&lt; asio_local</text>
<text text-anchor="middle" x="384.5" y="-43.6" font-family="Helvetica,sans-Serif" font-size="8.00">_stream_socket::Acceptor &gt;</text>
</a>
</g>
</g>
<!-- Node14&#45;&gt;Node1 -->
<g id="edge14" class="edge">
<title>Node14&#45;&gt;Node1</title>
<path fill="none" stroke="#9a32cd" stroke-dasharray="5,2" d="M460.39,-55.04C499.44,-59.97 547.05,-69.73 586,-89 613.24,-102.47 638.22,-128.29 651.81,-143.94"/>
<polygon fill="#9a32cd" stroke="#9a32cd" points="460.49,-51.52 450.14,-53.82 459.66,-58.47 460.49,-51.52"/>
<text text-anchor="middle" x="527" y="-91.6" font-family="Helvetica,sans-Serif" font-size="8.00"> m_acceptor</text>
</g>
<!-- Node15 -->
<g id="node15" class="node">
<title>Node15</title>
<g id="a_node15"><a xlink:title=" ">
<polygon fill="white" stroke="#bfbfbf" points="362.5,-0.5 362.5,-17.5 406.5,-17.5 406.5,-0.5 362.5,-0.5"/>
<text text-anchor="middle" x="384.5" y="-7.1" font-family="Helvetica,sans-Serif" font-size="8.00">socket</text>
</a>
</g>
</g>
<!-- Node15&#45;&gt;Node1 -->
<g id="edge15" class="edge">
<title>Node15&#45;&gt;Node1</title>
<path fill="none" stroke="#9a32cd" stroke-dasharray="5,2" d="M416.92,-7.22C458.85,-6.36 533.87,-10.27 586,-44 624.19,-68.71 648.13,-119.92 657.71,-143.98"/>
<polygon fill="#9a32cd" stroke="#9a32cd" points="416.64,-3.72 406.75,-7.53 416.86,-10.72 416.64,-3.72"/>
<text text-anchor="middle" x="527" y="-46.6" font-family="Helvetica,sans-Serif" font-size="8.00"> m_next_peer_socket</text>
</g>
</g>
</svg>
