<?xml version="1.0" encoding="UTF-8" standalone="no"?>
<!DOCTYPE svg PUBLIC "-//W3C//DTD SVG 1.1//EN"
 "http://www.w3.org/Graphics/SVG/1.1/DTD/svg11.dtd">
<!-- Generated by graphviz version 2.43.0 (0)
 -->
<!-- Title: ipc::session::Server_session_impl::on_master_channel_open_channel_req Pages: 1 -->
<svg width="302pt" height="72pt"
 viewBox="0.00 0.00 302.00 71.50" xmlns="http://www.w3.org/2000/svg" xmlns:xlink="http://www.w3.org/1999/xlink">
<g id="graph0" class="graph" transform="scale(1 1) rotate(0) translate(4 67.5)">
<title>ipc::session::Server_session_impl::on_master_channel_open_channel_req</title>
<polygon fill="white" stroke="transparent" points="-4,4 -4,-67.5 298,-67.5 298,4 -4,4"/>
<!-- Node1 -->
<g id="node1" class="node">
<title>Node1</title>
<g id="a_node1"><a xlink:title="In thread W, handler for m_master_channel receiving a passive&#45;open (a/k/a open&#45;channel&#45;to&#45;server) req...">
<polygon fill="#bfbfbf" stroke="black" points="0,-11.5 0,-46.5 132,-46.5 132,-11.5 0,-11.5"/>
<text text-anchor="start" x="8" y="-36.1" font-family="Helvetica,sans-Serif" font-size="8.00">ipc::session::Server</text>
<text text-anchor="start" x="8" y="-27.1" font-family="Helvetica,sans-Serif" font-size="8.00">_session_impl::on_master</text>
<text text-anchor="middle" x="66" y="-18.1" font-family="Helvetica,sans-Serif" font-size="8.00">_channel_open_channel_req</text>
</a>
</g>
</g>
<!-- Node2 -->
<g id="node2" class="node">
<title>Node2</title>
<g id="a_node2"><a xlink:href="classipc_1_1util_1_1Shared__name.html#a861ea6c9ad6672e83bab5c7747b66f7b" target="_top" xlink:title="Returns true if and only if str().empty() == true.">
<polygon fill="white" stroke="black" points="176,-37 176,-63 286,-63 286,-37 176,-37"/>
<text text-anchor="start" x="184" y="-52.6" font-family="Helvetica,sans-Serif" font-size="8.00">ipc::util::Shared_name</text>
<text text-anchor="middle" x="231" y="-43.6" font-family="Helvetica,sans-Serif" font-size="8.00">::empty</text>
</a>
</g>
</g>
<!-- Node1&#45;&gt;Node2 -->
<g id="edge1" class="edge">
<title>Node1&#45;&gt;Node2</title>
<path fill="none" stroke="midnightblue" d="M132.36,-37.42C143.41,-38.84 154.88,-40.32 165.9,-41.74"/>
<polygon fill="midnightblue" stroke="midnightblue" points="165.5,-45.22 175.87,-43.03 166.4,-38.28 165.5,-45.22"/>
</g>
<!-- Node3 -->
<g id="node3" class="node">
<title>Node3</title>
<g id="a_node3"><a xlink:href="classipc_1_1util_1_1Shared__name.html#ae89e1e061f87ffe0288514e254837595" target="_top" xlink:title="Returns (sans copying) ref to immutable entire wrapped name string, suitable to pass into sys calls w...">
<polygon fill="white" stroke="black" points="168,-0.5 168,-17.5 294,-17.5 294,-0.5 168,-0.5"/>
<text text-anchor="middle" x="231" y="-7.1" font-family="Helvetica,sans-Serif" font-size="8.00">ipc::util::Shared_name::str</text>
</a>
</g>
</g>
<!-- Node1&#45;&gt;Node3 -->
<g id="edge2" class="edge">
<title>Node1&#45;&gt;Node3</title>
<path fill="none" stroke="midnightblue" d="M132.36,-20.98C140.67,-19.96 149.22,-18.91 157.63,-17.88"/>
<polygon fill="midnightblue" stroke="midnightblue" points="158.3,-21.32 167.8,-16.63 157.45,-14.38 158.3,-21.32"/>
</g>
</g>
</svg>
