<?xml version="1.0" encoding="UTF-8" standalone="no"?>
<!DOCTYPE svg PUBLIC "-//W3C//DTD SVG 1.1//EN"
 "http://www.w3.org/Graphics/SVG/1.1/DTD/svg11.dtd">
<!-- Generated by graphviz version 2.43.0 (0)
 -->
<!-- Title: ipc::transport::sync_io::Native_socket_stream::Impl::save_peer_process_creds Pages: 1 -->
<svg width="317pt" height="44pt"
 viewBox="0.00 0.00 317.00 44.00" xmlns="http://www.w3.org/2000/svg" xmlns:xlink="http://www.w3.org/1999/xlink">
<g id="graph0" class="graph" transform="scale(1 1) rotate(0) translate(4 40)">
<title>ipc::transport::sync_io::Native_socket_stream::Impl::save_peer_process_creds</title>
<polygon fill="white" stroke="transparent" points="-4,4 -4,-40 313,-40 313,4 -4,4"/>
<!-- Node1 -->
<g id="node1" class="node">
<title>Node1</title>
<g id="a_node1"><a xlink:title="To be called if and only if m_peer_socket is connected – actually ideally at the moment it becomes co...">
<polygon fill="#bfbfbf" stroke="black" points="159,-0.5 159,-35.5 309,-35.5 309,-0.5 159,-0.5"/>
<text text-anchor="start" x="167" y="-25.1" font-family="Helvetica,sans-Serif" font-size="8.00">ipc::transport::sync</text>
<text text-anchor="start" x="167" y="-16.1" font-family="Helvetica,sans-Serif" font-size="8.00">_io::Native_socket_stream</text>
<text text-anchor="middle" x="234" y="-7.1" font-family="Helvetica,sans-Serif" font-size="8.00">::Impl::save_peer_process_creds</text>
</a>
</g>
</g>
<!-- Node2 -->
<g id="node2" class="node">
<title>Node2</title>
<g id="a_node2"><a xlink:href="classipc_1_1transport_1_1sync__io_1_1Native__socket__stream_1_1Impl.html#a90f29990e2e88052232c218c076414c7" target="_top" xlink:title="See Native_socket_stream counterpart.">
<polygon fill="white" stroke="black" points="0,-0.5 0,-35.5 123,-35.5 123,-0.5 0,-0.5"/>
<text text-anchor="start" x="8" y="-25.1" font-family="Helvetica,sans-Serif" font-size="8.00">ipc::transport::sync</text>
<text text-anchor="start" x="8" y="-16.1" font-family="Helvetica,sans-Serif" font-size="8.00">_io::Native_socket_stream</text>
<text text-anchor="middle" x="61.5" y="-7.1" font-family="Helvetica,sans-Serif" font-size="8.00">::Impl::Impl</text>
</a>
</g>
</g>
<!-- Node1&#45;&gt;Node2 -->
<g id="edge1" class="edge">
<title>Node1&#45;&gt;Node2</title>
<path fill="none" stroke="midnightblue" d="M148.67,-18C140.09,-18 131.5,-18 123.25,-18"/>
<polygon fill="midnightblue" stroke="midnightblue" points="148.71,-21.5 158.71,-18 148.71,-14.5 148.71,-21.5"/>
</g>
</g>
</svg>
