<?xml version="1.0" encoding="UTF-8" standalone="no"?>
<!DOCTYPE svg PUBLIC "-//W3C//DTD SVG 1.1//EN"
 "http://www.w3.org/Graphics/SVG/1.1/DTD/svg11.dtd">
<!-- Generated by graphviz version 2.43.0 (0)
 -->
<!-- Title: ipc::util::Shared_name::ct Pages: 1 -->
<svg width="628pt" height="1039pt"
 viewBox="0.00 0.00 628.00 1038.50" xmlns="http://www.w3.org/2000/svg" xmlns:xlink="http://www.w3.org/1999/xlink">
<g id="graph0" class="graph" transform="scale(1 1) rotate(0) translate(4 1034.5)">
<title>ipc::util::Shared_name::ct</title>
<polygon fill="white" stroke="transparent" points="-4,4 -4,-1034.5 624,-1034.5 624,4 -4,4"/>
<!-- Node1 -->
<g id="node1" class="node">
<title>Node1</title>
<g id="a_node1"><a xlink:title="Copy&#45;constructs from a char&#45;sequence container (including string, util::String_view,...">
<polygon fill="#bfbfbf" stroke="black" points="497,-508.5 497,-525.5 620,-525.5 620,-508.5 497,-508.5"/>
<text text-anchor="middle" x="558.5" y="-515.1" font-family="Helvetica,sans-Serif" font-size="8.00">ipc::util::Shared_name::ct</text>
</a>
</g>
</g>
<!-- Node2 -->
<g id="node2" class="node">
<title>Node2</title>
<g id="a_node2"><a xlink:href="classipc_1_1session_1_1Session__server__impl.html#a60ec88b23d73c354959a1e11636dc717" target="_top" xlink:title="See Session_server method.">
<polygon fill="white" stroke="black" points="317.5,-1004 317.5,-1030 445.5,-1030 445.5,-1004 317.5,-1004"/>
<text text-anchor="start" x="325.5" y="-1019.6" font-family="Helvetica,sans-Serif" font-size="8.00">ipc::session::Session</text>
<text text-anchor="middle" x="381.5" y="-1010.6" font-family="Helvetica,sans-Serif" font-size="8.00">_server_impl::async_accept</text>
</a>
</g>
</g>
<!-- Node1&#45;&gt;Node2 -->
<g id="edge1" class="edge">
<title>Node1&#45;&gt;Node2</title>
<path fill="none" stroke="midnightblue" d="M556.24,-535.75C550.55,-615.4 524.58,-924.74 461,-994 456.68,-998.71 451.45,-1002.47 445.77,-1005.48"/>
<polygon fill="midnightblue" stroke="midnightblue" points="559.74,-535.94 556.94,-525.72 552.76,-535.46 559.74,-535.94"/>
</g>
<!-- Node3 -->
<g id="node3" class="node">
<title>Node3</title>
<g id="a_node3"><a xlink:href="classipc_1_1session_1_1shm_1_1classic_1_1Server__session__impl.html#a9c78b2c35b853e1702a06ec451545945" target="_top" xlink:title="For use by internal user Session_server: See Server_session_mv counterpart.">
<polygon fill="white" stroke="black" points="318,-949.5 318,-984.5 445,-984.5 445,-949.5 318,-949.5"/>
<text text-anchor="start" x="326" y="-974.1" font-family="Helvetica,sans-Serif" font-size="8.00">ipc::session::shm::</text>
<text text-anchor="start" x="326" y="-965.1" font-family="Helvetica,sans-Serif" font-size="8.00">classic::Server_session</text>
<text text-anchor="middle" x="381.5" y="-956.1" font-family="Helvetica,sans-Serif" font-size="8.00">_impl::async_accept_log_in</text>
</a>
</g>
</g>
<!-- Node1&#45;&gt;Node3 -->
<g id="edge2" class="edge">
<title>Node1&#45;&gt;Node3</title>
<path fill="none" stroke="midnightblue" d="M555.62,-535.86C547.9,-609.73 516.43,-878.3 461,-940 456.57,-944.93 451.2,-948.96 445.36,-952.26"/>
<polygon fill="midnightblue" stroke="midnightblue" points="559.12,-536.05 556.65,-525.74 552.16,-535.33 559.12,-536.05"/>
</g>
<!-- Node4 -->
<g id="node4" class="node">
<title>Node4</title>
<g id="a_node4"><a xlink:href="classipc_1_1session_1_1Client__session__impl.html#a56c0d2b0ff082d1f7b0738e2528b4a92" target="_top" xlink:title="Core implementation of sync_connect().">
<polygon fill="white" stroke="black" points="330,-895.5 330,-930.5 433,-930.5 433,-895.5 330,-895.5"/>
<text text-anchor="start" x="338" y="-920.1" font-family="Helvetica,sans-Serif" font-size="8.00">ipc::session::Client</text>
<text text-anchor="start" x="338" y="-911.1" font-family="Helvetica,sans-Serif" font-size="8.00">_session_impl::async</text>
<text text-anchor="middle" x="381.5" y="-902.1" font-family="Helvetica,sans-Serif" font-size="8.00">_connect</text>
</a>
</g>
</g>
<!-- Node1&#45;&gt;Node4 -->
<g id="edge3" class="edge">
<title>Node1&#45;&gt;Node4</title>
<path fill="none" stroke="midnightblue" d="M554.98,-535.58C545.51,-602.93 510.05,-833.1 461,-886 453.55,-894.03 443.61,-899.67 433.31,-903.64"/>
<polygon fill="midnightblue" stroke="midnightblue" points="558.46,-535.97 556.36,-525.59 551.53,-535.02 558.46,-535.97"/>
</g>
<!-- Node5 -->
<g id="node5" class="node">
<title>Node5</title>
<g id="a_node5"><a xlink:href="classipc_1_1session_1_1shm_1_1classic_1_1Client__session__impl.html#a2e6f245648bff51b17a45a16178d62dc" target="_top" xlink:title="See session::Client_session_impl counterpart.">
<polygon fill="white" stroke="black" points="327,-841.5 327,-876.5 436,-876.5 436,-841.5 327,-841.5"/>
<text text-anchor="start" x="335" y="-866.1" font-family="Helvetica,sans-Serif" font-size="8.00">ipc::session::shm::</text>
<text text-anchor="start" x="335" y="-857.1" font-family="Helvetica,sans-Serif" font-size="8.00">classic::Client_session</text>
<text text-anchor="middle" x="381.5" y="-848.1" font-family="Helvetica,sans-Serif" font-size="8.00">_impl::async_connect</text>
</a>
</g>
</g>
<!-- Node1&#45;&gt;Node5 -->
<g id="edge4" class="edge">
<title>Node1&#45;&gt;Node5</title>
<path fill="none" stroke="midnightblue" d="M557.35,-535.78C555.89,-589.56 544.32,-745.79 461,-832 454.19,-839.05 445.46,-844.25 436.31,-848.1"/>
<polygon fill="midnightblue" stroke="midnightblue" points="560.85,-535.73 557.53,-525.67 553.85,-535.6 560.85,-535.73"/>
</g>
<!-- Node6 -->
<g id="node6" class="node">
<title>Node6</title>
<g id="a_node6"><a xlink:href="classipc_1_1session_1_1Session__base.html#a09cbe99083616bae00928f8e37c8373b" target="_top" xlink:title="Computes the name of the interprocess named&#45;mutex used to control reading/writing to the file storing...">
<polygon fill="white" stroke="black" points="318.5,-787.5 318.5,-822.5 444.5,-822.5 444.5,-787.5 318.5,-787.5"/>
<text text-anchor="start" x="326.5" y="-812.1" font-family="Helvetica,sans-Serif" font-size="8.00">ipc::session::Session</text>
<text text-anchor="start" x="326.5" y="-803.1" font-family="Helvetica,sans-Serif" font-size="8.00">_base::cur_ns_store_mutex</text>
<text text-anchor="middle" x="381.5" y="-794.1" font-family="Helvetica,sans-Serif" font-size="8.00">_absolute_name</text>
</a>
</g>
</g>
<!-- Node1&#45;&gt;Node6 -->
<g id="edge5" class="edge">
<title>Node1&#45;&gt;Node6</title>
<path fill="none" stroke="midnightblue" d="M555.98,-535.64C551.12,-582.94 531.86,-708.75 461,-778 456.26,-782.63 450.69,-786.47 444.74,-789.66"/>
<polygon fill="midnightblue" stroke="midnightblue" points="559.47,-535.9 556.9,-525.62 552.5,-535.26 559.47,-535.9"/>
</g>
<!-- Node7 -->
<g id="node7" class="node">
<title>Node7</title>
<g id="a_node7"><a xlink:href="namespaceipc_1_1session.html#ac970e7d7b97c1a9737bd836a6a7f77ec" target="_top" xlink:title="Decomposes a Shared_name built as&#45;if by build_conventional_shared_name() overload 1 (non&#45;global&#45;scope...">
<polygon fill="white" stroke="black" points="315,-742 315,-768 448,-768 448,-742 315,-742"/>
<text text-anchor="start" x="323" y="-757.6" font-family="Helvetica,sans-Serif" font-size="8.00">ipc::session::decompose</text>
<text text-anchor="middle" x="381.5" y="-748.6" font-family="Helvetica,sans-Serif" font-size="8.00">_conventional_shared_name</text>
</a>
</g>
</g>
<!-- Node1&#45;&gt;Node7 -->
<g id="edge6" class="edge">
<title>Node1&#45;&gt;Node7</title>
<path fill="none" stroke="midnightblue" d="M554.62,-535.67C547.15,-577.5 523.25,-679.29 461,-733 456.93,-736.51 452.34,-739.47 447.47,-741.95"/>
<polygon fill="midnightblue" stroke="midnightblue" points="558.11,-535.99 556.3,-525.55 551.21,-534.84 558.11,-535.99"/>
</g>
<!-- Node11 -->
<g id="node11" class="node">
<title>Node11</title>
<g id="a_node11"><a xlink:href="namespaceipc_1_1util.html#a49b39ceb74614b5f2d26dd86fd71bcb3" target="_top" xlink:title="Implementation of Persistent_object::for_each_persistent(); for example see shm::classic::Pool_arena:...">
<polygon fill="white" stroke="black" points="337,-697 337,-723 426,-723 426,-697 337,-697"/>
<text text-anchor="start" x="345" y="-712.6" font-family="Helvetica,sans-Serif" font-size="8.00">ipc::util::for_each</text>
<text text-anchor="middle" x="381.5" y="-703.6" font-family="Helvetica,sans-Serif" font-size="8.00">_persistent_impl</text>
</a>
</g>
</g>
<!-- Node1&#45;&gt;Node11 -->
<g id="edge10" class="edge">
<title>Node1&#45;&gt;Node11</title>
<path fill="none" stroke="midnightblue" d="M552.19,-535.38C541.15,-570.28 512.38,-646.32 461,-687 450.98,-694.93 438.3,-700.13 426.08,-703.54"/>
<polygon fill="midnightblue" stroke="midnightblue" points="555.61,-536.17 555.16,-525.59 548.91,-534.14 555.61,-536.17"/>
</g>
<!-- Node16 -->
<g id="node16" class="node">
<title>Node16</title>
<g id="a_node16"><a xlink:href="classipc_1_1session_1_1shm_1_1classic_1_1Session__server.html#a406e3860e68d2e863e64215aae43812e" target="_top" xlink:title="Implementation of our per_app_setup_func() customization point used in the ctor impl: invoked from an...">
<polygon fill="white" stroke="black" points="319,-642.5 319,-677.5 444,-677.5 444,-642.5 319,-642.5"/>
<text text-anchor="start" x="327" y="-667.1" font-family="Helvetica,sans-Serif" font-size="8.00">ipc::session::shm::</text>
<text text-anchor="start" x="327" y="-658.1" font-family="Helvetica,sans-Serif" font-size="8.00">classic::Session_server</text>
<text text-anchor="middle" x="381.5" y="-649.1" font-family="Helvetica,sans-Serif" font-size="8.00">::init_app_shm_as_needed</text>
</a>
</g>
</g>
<!-- Node1&#45;&gt;Node16 -->
<g id="edge15" class="edge">
<title>Node1&#45;&gt;Node16</title>
<path fill="none" stroke="midnightblue" d="M547.24,-534.27C531.61,-559.19 499.54,-605.2 461,-632 455.3,-635.97 448.97,-639.43 442.46,-642.44"/>
<polygon fill="midnightblue" stroke="midnightblue" points="550.34,-535.91 552.58,-525.55 544.37,-532.25 550.34,-535.91"/>
</g>
<!-- Node18 -->
<g id="node18" class="node">
<title>Node18</title>
<g id="a_node18"><a xlink:href="classipc_1_1session_1_1shm_1_1arena__lend_1_1jemalloc_1_1Session__server.html#ae5b53f9881efc8eccb5f93dc7d820c70" target="_top" xlink:title="Analogous to classic::Session_server::init_app_shm_as_needed().">
<polygon fill="white" stroke="black" points="328.5,-579 328.5,-623 434.5,-623 434.5,-579 328.5,-579"/>
<text text-anchor="start" x="336.5" y="-612.6" font-family="Helvetica,sans-Serif" font-size="8.00">ipc::session::shm::</text>
<text text-anchor="start" x="336.5" y="-603.6" font-family="Helvetica,sans-Serif" font-size="8.00">arena_lend::jemalloc</text>
<text text-anchor="start" x="336.5" y="-594.6" font-family="Helvetica,sans-Serif" font-size="8.00">::Session_server::init</text>
<text text-anchor="middle" x="381.5" y="-585.6" font-family="Helvetica,sans-Serif" font-size="8.00">_app_shm_as_needed</text>
</a>
</g>
</g>
<!-- Node1&#45;&gt;Node18 -->
<g id="edge17" class="edge">
<title>Node1&#45;&gt;Node18</title>
<path fill="none" stroke="midnightblue" d="M534,-530.58C514.68,-541.52 486.44,-557 461,-569 452.61,-572.95 443.6,-576.9 434.78,-580.6"/>
<polygon fill="midnightblue" stroke="midnightblue" points="535.76,-533.61 542.71,-525.61 532.29,-527.53 535.76,-533.61"/>
</g>
<!-- Node20 -->
<g id="node20" class="node">
<title>Node20</title>
<g id="a_node20"><a xlink:href="classipc_1_1session_1_1shm_1_1arena__lend_1_1jemalloc_1_1Session__impl.html#a46155078d8764c71a8d75db64345074b" target="_top" xlink:title="To be invoked at most once, synchronously sets up nearly&#45;all aspects of this arena&#45;lending&#45;SHM&#45;capabl...">
<polygon fill="white" stroke="black" points="323.5,-524.5 323.5,-559.5 439.5,-559.5 439.5,-524.5 323.5,-524.5"/>
<text text-anchor="start" x="331.5" y="-549.1" font-family="Helvetica,sans-Serif" font-size="8.00">ipc::session::shm::</text>
<text text-anchor="start" x="331.5" y="-540.1" font-family="Helvetica,sans-Serif" font-size="8.00">arena_lend::jemalloc</text>
<text text-anchor="middle" x="381.5" y="-531.1" font-family="Helvetica,sans-Serif" font-size="8.00">::Session_impl::init_shm</text>
</a>
</g>
</g>
<!-- Node1&#45;&gt;Node20 -->
<g id="edge19" class="edge">
<title>Node1&#45;&gt;Node20</title>
<path fill="none" stroke="midnightblue" d="M487.46,-527.01C471.57,-529.28 454.88,-531.66 439.6,-533.84"/>
<polygon fill="midnightblue" stroke="midnightblue" points="488.36,-530.41 497.76,-525.53 487.37,-523.48 488.36,-530.41"/>
</g>
<!-- Node21 -->
<g id="node21" class="node">
<title>Node21</title>
<g id="a_node21"><a xlink:href="classipc_1_1session_1_1Server__session__impl.html#a84d54a57d3e06c064cde737d1f4be472" target="_top" xlink:title="Helper for create_channel_and_resources(), invoked and compiled if and only if S_MQS_ENABLED,...">
<polygon fill="white" stroke="black" points="302,-479 302,-505 461,-505 461,-479 302,-479"/>
<text text-anchor="start" x="310" y="-494.6" font-family="Helvetica,sans-Serif" font-size="8.00">ipc::session::Server</text>
<text text-anchor="middle" x="381.5" y="-485.6" font-family="Helvetica,sans-Serif" font-size="8.00">_session_impl::make_channel_mqs</text>
</a>
</g>
</g>
<!-- Node1&#45;&gt;Node21 -->
<g id="edge20" class="edge">
<title>Node1&#45;&gt;Node21</title>
<path fill="none" stroke="midnightblue" d="M487.67,-507.02C478.95,-505.78 469.99,-504.5 461.15,-503.24"/>
<polygon fill="midnightblue" stroke="midnightblue" points="487.37,-510.52 497.76,-508.47 488.36,-503.59 487.37,-510.52"/>
</g>
<!-- Node22 -->
<g id="node22" class="node">
<title>Node22</title>
<g id="a_node22"><a xlink:href="classipc_1_1session_1_1Client__session__impl.html#ac983066e433f143cf02cd730260e6e65" target="_top" xlink:title="In thread W, handler for m_master_channel receiving a init&#45;channel&#45;open message.">
<polygon fill="white" stroke="black" points="316,-424.5 316,-459.5 447,-459.5 447,-424.5 316,-424.5"/>
<text text-anchor="start" x="324" y="-449.1" font-family="Helvetica,sans-Serif" font-size="8.00">ipc::session::Client</text>
<text text-anchor="start" x="324" y="-440.1" font-family="Helvetica,sans-Serif" font-size="8.00">_session_impl::on_master</text>
<text text-anchor="middle" x="381.5" y="-431.1" font-family="Helvetica,sans-Serif" font-size="8.00">_channel_init_open_channel</text>
</a>
</g>
</g>
<!-- Node1&#45;&gt;Node22 -->
<g id="edge21" class="edge">
<title>Node1&#45;&gt;Node22</title>
<path fill="none" stroke="midnightblue" d="M532.75,-503.57C513.5,-493.4 485.95,-479.45 461,-469 453.16,-465.72 444.76,-462.51 436.48,-459.53"/>
<polygon fill="midnightblue" stroke="midnightblue" points="531.28,-506.75 541.75,-508.37 534.57,-500.57 531.28,-506.75"/>
</g>
<!-- Node23 -->
<g id="node23" class="node">
<title>Node23</title>
<g id="a_node23"><a xlink:href="classipc_1_1session_1_1Client__session__impl.html#a139fde1cf8dc2c64276b9eb25b35bcee" target="_top" xlink:title="In thread W, handler for the successful receipt of log&#45;in response (upon send()ing the log&#45;in request...">
<polygon fill="white" stroke="black" points="320.5,-370.5 320.5,-405.5 442.5,-405.5 442.5,-370.5 320.5,-370.5"/>
<text text-anchor="start" x="328.5" y="-395.1" font-family="Helvetica,sans-Serif" font-size="8.00">ipc::session::Client</text>
<text text-anchor="start" x="328.5" y="-386.1" font-family="Helvetica,sans-Serif" font-size="8.00">_session_impl::on_master</text>
<text text-anchor="middle" x="381.5" y="-377.1" font-family="Helvetica,sans-Serif" font-size="8.00">_channel_log_in_rsp</text>
</a>
</g>
</g>
<!-- Node1&#45;&gt;Node23 -->
<g id="edge22" class="edge">
<title>Node1&#45;&gt;Node23</title>
<path fill="none" stroke="midnightblue" d="M545.62,-500.07C529.08,-477.63 497.03,-438.2 461,-415 455.31,-411.33 449.06,-408.1 442.65,-405.27"/>
<polygon fill="midnightblue" stroke="midnightblue" points="542.86,-502.22 551.55,-508.28 548.54,-498.12 542.86,-502.22"/>
</g>
<!-- Node24 -->
<g id="node24" class="node">
<title>Node24</title>
<g id="a_node24"><a xlink:href="classipc_1_1session_1_1Client__session__impl.html#a84bcd253bb1cd89fcf94233c2f771142" target="_top" xlink:title="In thread W, handler for m_master_channel receiving a passive&#45;open (a/k/a open&#45;channel&#45;to&#45;client) req...">
<polygon fill="white" stroke="black" points="315.5,-316.5 315.5,-351.5 447.5,-351.5 447.5,-316.5 315.5,-316.5"/>
<text text-anchor="start" x="323.5" y="-341.1" font-family="Helvetica,sans-Serif" font-size="8.00">ipc::session::Client</text>
<text text-anchor="start" x="323.5" y="-332.1" font-family="Helvetica,sans-Serif" font-size="8.00">_session_impl::on_master</text>
<text text-anchor="middle" x="381.5" y="-323.1" font-family="Helvetica,sans-Serif" font-size="8.00">_channel_open_channel_req</text>
</a>
</g>
</g>
<!-- Node1&#45;&gt;Node24 -->
<g id="edge23" class="edge">
<title>Node1&#45;&gt;Node24</title>
<path fill="none" stroke="midnightblue" d="M551.08,-499.01C538.68,-466.74 508.39,-398.86 461,-361 456.5,-357.4 451.48,-354.27 446.23,-351.54"/>
<polygon fill="midnightblue" stroke="midnightblue" points="547.84,-500.34 554.6,-508.49 554.41,-497.9 547.84,-500.34"/>
</g>
<!-- Node25 -->
<g id="node25" class="node">
<title>Node25</title>
<g id="a_node25"><a xlink:href="classipc_1_1session_1_1Client__session__impl.html#a4a377590fbf55b6d312f24d888d2a1bd" target="_top" xlink:title="See Client_session_mv counterpart.">
<polygon fill="white" stroke="black" points="313,-253 313,-279 450,-279 450,-253 313,-253"/>
<text text-anchor="start" x="321" y="-268.6" font-family="Helvetica,sans-Serif" font-size="8.00">ipc::session::Client</text>
<text text-anchor="middle" x="381.5" y="-259.6" font-family="Helvetica,sans-Serif" font-size="8.00">_session_impl::open_channel</text>
</a>
</g>
</g>
<!-- Node1&#45;&gt;Node25 -->
<g id="edge24" class="edge">
<title>Node1&#45;&gt;Node25</title>
<path fill="none" stroke="midnightblue" d="M553.3,-498.37C543.51,-458.64 515.72,-364.56 461,-307 449.45,-294.85 433.51,-285.62 419,-279.02"/>
<polygon fill="midnightblue" stroke="midnightblue" points="549.93,-499.33 555.64,-508.26 556.75,-497.72 549.93,-499.33"/>
</g>
<!-- Node26 -->
<g id="node26" class="node">
<title>Node26</title>
<g id="a_node26"><a xlink:href="classipc_1_1util_1_1Shared__name.html#a1f1a40877cc08b287f8f3c7e7f663782" target="_top" xlink:title="Returns new object equal to Shared_name(src2) with raw_src1 pre&#45;pended to it.">
<polygon fill="white" stroke="black" points="326.5,-208 326.5,-234 436.5,-234 436.5,-208 326.5,-208"/>
<text text-anchor="start" x="334.5" y="-223.6" font-family="Helvetica,sans-Serif" font-size="8.00">ipc::util::Shared_name</text>
<text text-anchor="middle" x="381.5" y="-214.6" font-family="Helvetica,sans-Serif" font-size="8.00">::operator+</text>
</a>
</g>
</g>
<!-- Node1&#45;&gt;Node26 -->
<g id="edge26" class="edge">
<title>Node1&#45;&gt;Node26</title>
<path fill="none" stroke="midnightblue" d="M556.59,-498.18C553.18,-448.75 536.99,-314.18 461,-243 454.18,-236.61 445.66,-232.06 436.77,-228.81"/>
<polygon fill="midnightblue" stroke="midnightblue" points="553.11,-498.57 557.19,-508.35 560.1,-498.16 553.11,-498.57"/>
</g>
<!-- Node27 -->
<g id="node27" class="node">
<title>Node27</title>
<g id="a_node27"><a xlink:href="classipc_1_1util_1_1Shared__name.html#a462b81d34ba23c968f63d9805fa74538" target="_top" xlink:title="Returns new object equal to Shared_name(raw_src1) /= src2.">
<polygon fill="white" stroke="black" points="326.5,-163 326.5,-189 436.5,-189 436.5,-163 326.5,-163"/>
<text text-anchor="start" x="334.5" y="-178.6" font-family="Helvetica,sans-Serif" font-size="8.00">ipc::util::Shared_name</text>
<text text-anchor="middle" x="381.5" y="-169.6" font-family="Helvetica,sans-Serif" font-size="8.00">::operator/</text>
</a>
</g>
</g>
<!-- Node1&#45;&gt;Node27 -->
<g id="edge27" class="edge">
<title>Node1&#45;&gt;Node27</title>
<path fill="none" stroke="midnightblue" d="M557.68,-498.11C557.14,-443.35 547.83,-283.07 461,-198 454.23,-191.36 445.62,-186.69 436.61,-183.42"/>
<polygon fill="midnightblue" stroke="midnightblue" points="554.18,-498.39 557.69,-508.38 561.18,-498.38 554.18,-498.39"/>
</g>
<!-- Node28 -->
<g id="node28" class="node">
<title>Node28</title>
<g id="a_node28"><a xlink:href="classipc_1_1util_1_1Shared__name.html#adfd8805e0d37556102cad7b191fee9a3" target="_top" xlink:title="Reads Shared_name from the given istream; equivalent to reading string into Shared_name::str().">
<polygon fill="white" stroke="black" points="326.5,-118 326.5,-144 436.5,-144 436.5,-118 326.5,-118"/>
<text text-anchor="start" x="334.5" y="-133.6" font-family="Helvetica,sans-Serif" font-size="8.00">ipc::util::Shared_name</text>
<text text-anchor="middle" x="381.5" y="-124.6" font-family="Helvetica,sans-Serif" font-size="8.00">::operator&gt;&gt;</text>
</a>
</g>
</g>
<!-- Node1&#45;&gt;Node28 -->
<g id="edge28" class="edge">
<title>Node1&#45;&gt;Node28</title>
<path fill="none" stroke="midnightblue" d="M554.99,-498.16C545.65,-430.86 510.91,-203.61 461,-153 454.34,-146.25 445.79,-141.52 436.8,-138.23"/>
<polygon fill="midnightblue" stroke="midnightblue" points="551.58,-499.04 556.39,-508.48 558.51,-498.1 551.58,-499.04"/>
</g>
<!-- Node29 -->
<g id="node29" class="node">
<title>Node29</title>
<g id="a_node29"><a xlink:href="classipc_1_1session_1_1Session__base.html#a3d34c5a9c283a6b7c8ab943f344cdd28" target="_top" xlink:title="Computes the absolute name at which the server shall set up a transport::Native_socket_stream_accepto...">
<polygon fill="white" stroke="black" points="322,-55 322,-99 441,-99 441,-55 322,-55"/>
<text text-anchor="start" x="330" y="-88.6" font-family="Helvetica,sans-Serif" font-size="8.00">ipc::session::Session</text>
<text text-anchor="start" x="330" y="-79.6" font-family="Helvetica,sans-Serif" font-size="8.00">_base::session_master</text>
<text text-anchor="start" x="330" y="-70.6" font-family="Helvetica,sans-Serif" font-size="8.00">_socket_stream_acceptor</text>
<text text-anchor="middle" x="381.5" y="-61.6" font-family="Helvetica,sans-Serif" font-size="8.00">_absolute_name</text>
</a>
</g>
</g>
<!-- Node1&#45;&gt;Node29 -->
<g id="edge29" class="edge">
<title>Node1&#45;&gt;Node29</title>
<path fill="none" stroke="midnightblue" d="M555.34,-497.92C546.82,-425.47 513.34,-168.5 461,-108 455.54,-101.68 448.61,-96.64 441.15,-92.62"/>
<polygon fill="midnightblue" stroke="midnightblue" points="551.91,-498.7 556.54,-508.23 558.87,-497.9 551.91,-498.7"/>
</g>
<!-- Node30 -->
<g id="node30" class="node">
<title>Node30</title>
<g id="a_node30"><a xlink:href="classipc_1_1session_1_1Session__server__impl.html#a9bf4d5502b41c98a98fee4cc3c2f2530" target="_top" xlink:title="See Session_server ctor; it does that.">
<polygon fill="white" stroke="black" points="329,-0.5 329,-35.5 434,-35.5 434,-0.5 329,-0.5"/>
<text text-anchor="start" x="337" y="-25.1" font-family="Helvetica,sans-Serif" font-size="8.00">ipc::session::Session</text>
<text text-anchor="start" x="337" y="-16.1" font-family="Helvetica,sans-Serif" font-size="8.00">_server_impl::Session</text>
<text text-anchor="middle" x="381.5" y="-7.1" font-family="Helvetica,sans-Serif" font-size="8.00">_server_impl</text>
</a>
</g>
</g>
<!-- Node1&#45;&gt;Node30 -->
<g id="edge30" class="edge">
<title>Node1&#45;&gt;Node30</title>
<path fill="none" stroke="midnightblue" d="M556.1,-498.03C549.87,-418.75 522.29,-114.79 461,-45 453.87,-36.88 444.18,-31.2 434.04,-27.23"/>
<polygon fill="midnightblue" stroke="midnightblue" points="552.64,-498.7 556.89,-508.4 559.62,-498.17 552.64,-498.7"/>
</g>
<!-- Node8 -->
<g id="node8" class="node">
<title>Node8</title>
<g id="a_node8"><a xlink:href="classipc_1_1session_1_1shm_1_1arena__lend_1_1jemalloc_1_1Client__session__impl.html#a697e64450297808bb9ca5c6a870c1fe9" target="_top" xlink:title="Invoked on m_async_cleanup_worker, performs a round of the SHM&#45;pool cleanup algorithm and schedules s...">
<polygon fill="white" stroke="black" points="153,-826 153,-870 256,-870 256,-826 153,-826"/>
<text text-anchor="start" x="161" y="-859.6" font-family="Helvetica,sans-Serif" font-size="8.00">ipc::session::shm::</text>
<text text-anchor="start" x="161" y="-850.6" font-family="Helvetica,sans-Serif" font-size="8.00">arena_lend::jemalloc</text>
<text text-anchor="start" x="161" y="-841.6" font-family="Helvetica,sans-Serif" font-size="8.00">::Client_session_impl</text>
<text text-anchor="middle" x="204.5" y="-832.6" font-family="Helvetica,sans-Serif" font-size="8.00">::cleanup</text>
</a>
</g>
</g>
<!-- Node7&#45;&gt;Node8 -->
<g id="edge7" class="edge">
<title>Node7&#45;&gt;Node8</title>
<path fill="none" stroke="midnightblue" d="M313.41,-771.97C309.45,-773.79 305.61,-775.79 302,-778 282.15,-790.13 284.53,-801.93 266,-816 261.36,-819.52 256.28,-822.87 251.1,-825.97"/>
<polygon fill="midnightblue" stroke="midnightblue" points="314.93,-775.12 322.81,-768.04 312.24,-768.66 314.93,-775.12"/>
</g>
<!-- Node10 -->
<g id="node10" class="node">
<title>Node10</title>
<g id="a_node10"><a xlink:href="classipc_1_1session_1_1shm_1_1arena__lend_1_1jemalloc_1_1Session__server.html#aafb28832358d6f75f363b932c291884f" target="_top" xlink:title="Invoked on m_async_cleanup_worker, performs a round of the SHM&#45;pool cleanup algorithm and schedules s...">
<polygon fill="white" stroke="black" points="143,-771.5 143,-806.5 266,-806.5 266,-771.5 143,-771.5"/>
<text text-anchor="start" x="151" y="-796.1" font-family="Helvetica,sans-Serif" font-size="8.00">ipc::session::shm::</text>
<text text-anchor="start" x="151" y="-787.1" font-family="Helvetica,sans-Serif" font-size="8.00">arena_lend::jemalloc</text>
<text text-anchor="middle" x="204.5" y="-778.1" font-family="Helvetica,sans-Serif" font-size="8.00">::Session_server::cleanup</text>
</a>
</g>
</g>
<!-- Node7&#45;&gt;Node10 -->
<g id="edge9" class="edge">
<title>Node7&#45;&gt;Node10</title>
<path fill="none" stroke="midnightblue" d="M304.98,-769.67C291.97,-772.2 278.59,-774.8 266.04,-777.24"/>
<polygon fill="midnightblue" stroke="midnightblue" points="305.69,-773.1 314.84,-767.76 304.35,-766.23 305.69,-773.1"/>
</g>
<!-- Node9 -->
<g id="node9" class="node">
<title>Node9</title>
<g id="a_node9"><a xlink:href="classipc_1_1session_1_1shm_1_1arena__lend_1_1jemalloc_1_1Client__session__impl.html#a2b5cecc4850a58fd597542df2fc4c890" target="_top" xlink:title="See session::Client_session_impl::Client_session_impl() counterpart.">
<polygon fill="white" stroke="black" points="2,-826 2,-870 105,-870 105,-826 2,-826"/>
<text text-anchor="start" x="10" y="-859.6" font-family="Helvetica,sans-Serif" font-size="8.00">ipc::session::shm::</text>
<text text-anchor="start" x="10" y="-850.6" font-family="Helvetica,sans-Serif" font-size="8.00">arena_lend::jemalloc</text>
<text text-anchor="start" x="10" y="-841.6" font-family="Helvetica,sans-Serif" font-size="8.00">::Client_session_impl</text>
<text text-anchor="middle" x="53.5" y="-832.6" font-family="Helvetica,sans-Serif" font-size="8.00">::Client_session_impl</text>
</a>
</g>
</g>
<!-- Node8&#45;&gt;Node9 -->
<g id="edge8" class="edge">
<title>Node8&#45;&gt;Node9</title>
<path fill="none" stroke="midnightblue" d="M142.39,-848C130,-848 117.11,-848 105.13,-848"/>
<polygon fill="midnightblue" stroke="midnightblue" points="142.64,-851.5 152.64,-848 142.64,-844.5 142.64,-851.5"/>
</g>
<!-- Node12 -->
<g id="node12" class="node">
<title>Node12</title>
<g id="a_node12"><a xlink:href="classipc_1_1transport_1_1Posix__mq__handle.html#a1df87fc56734cb902a71340eab6c0303" target="_top" xlink:title="Implements Persistent_mq_handle API.">
<polygon fill="white" stroke="black" points="151,-717.5 151,-752.5 258,-752.5 258,-717.5 151,-717.5"/>
<text text-anchor="start" x="159" y="-742.1" font-family="Helvetica,sans-Serif" font-size="8.00">ipc::transport::Posix</text>
<text text-anchor="start" x="159" y="-733.1" font-family="Helvetica,sans-Serif" font-size="8.00">_mq_handle::for_each</text>
<text text-anchor="middle" x="204.5" y="-724.1" font-family="Helvetica,sans-Serif" font-size="8.00">_persistent</text>
</a>
</g>
</g>
<!-- Node11&#45;&gt;Node12 -->
<g id="edge11" class="edge">
<title>Node11&#45;&gt;Node12</title>
<path fill="none" stroke="midnightblue" d="M326.73,-717.68C304.99,-720.79 279.96,-724.36 258.31,-727.46"/>
<polygon fill="midnightblue" stroke="midnightblue" points="327.39,-721.12 336.79,-716.24 326.4,-714.19 327.39,-721.12"/>
</g>
<!-- Node13 -->
<g id="node13" class="node">
<title>Node13</title>
<g id="a_node13"><a xlink:href="namespaceipc_1_1util.html#a74135195ff6c2f840092c21e522f964a" target="_top" xlink:title="Equivalent to shm::classic::Pool_arena::for_each_persistent().">
<polygon fill="white" stroke="black" points="152.5,-672 152.5,-698 256.5,-698 256.5,-672 152.5,-672"/>
<text text-anchor="start" x="160.5" y="-687.6" font-family="Helvetica,sans-Serif" font-size="8.00">ipc::util::for_each</text>
<text text-anchor="middle" x="204.5" y="-678.6" font-family="Helvetica,sans-Serif" font-size="8.00">_persistent_shm_pool</text>
</a>
</g>
</g>
<!-- Node11&#45;&gt;Node13 -->
<g id="edge12" class="edge">
<title>Node11&#45;&gt;Node13</title>
<path fill="none" stroke="midnightblue" d="M326.82,-702.33C304.52,-699.15 278.75,-695.46 256.72,-692.32"/>
<polygon fill="midnightblue" stroke="midnightblue" points="326.4,-705.81 336.79,-703.76 327.39,-698.88 326.4,-705.81"/>
</g>
<!-- Node14 -->
<g id="node14" class="node">
<title>Node14</title>
<g id="a_node14"><a xlink:href="classipc_1_1transport_1_1Bipc__mq__handle.html#a3d6fa3398edb4db10a933f9731924255" target="_top" xlink:title="Implements Persistent_mq_handle API.">
<polygon fill="white" stroke="black" points="0,-694.5 0,-729.5 107,-729.5 107,-694.5 0,-694.5"/>
<text text-anchor="start" x="8" y="-719.1" font-family="Helvetica,sans-Serif" font-size="8.00">ipc::transport::Bipc</text>
<text text-anchor="start" x="8" y="-710.1" font-family="Helvetica,sans-Serif" font-size="8.00">_mq_handle::for_each</text>
<text text-anchor="middle" x="53.5" y="-701.1" font-family="Helvetica,sans-Serif" font-size="8.00">_persistent</text>
</a>
</g>
</g>
<!-- Node13&#45;&gt;Node14 -->
<g id="edge13" class="edge">
<title>Node13&#45;&gt;Node14</title>
<path fill="none" stroke="midnightblue" d="M142.15,-696.12C130.53,-698.22 118.46,-700.41 107.14,-702.46"/>
<polygon fill="midnightblue" stroke="midnightblue" points="143.01,-699.52 152.22,-694.29 141.76,-692.63 143.01,-699.52"/>
</g>
<!-- Node15 -->
<g id="node15" class="node">
<title>Node15</title>
<g id="a_node15"><a xlink:href="classipc_1_1shm_1_1classic_1_1Pool__arena.html#a9e720283945eefe3d941b185e95d2ce1" target="_top" xlink:title="Lists all named SHM pool objects currently persisting, invoking the given handler synchronously on ea...">
<polygon fill="white" stroke="black" points="2,-640.5 2,-675.5 105,-675.5 105,-640.5 2,-640.5"/>
<text text-anchor="start" x="10" y="-665.1" font-family="Helvetica,sans-Serif" font-size="8.00">ipc::shm::classic::</text>
<text text-anchor="start" x="10" y="-656.1" font-family="Helvetica,sans-Serif" font-size="8.00">Pool_arena::for_each</text>
<text text-anchor="middle" x="53.5" y="-647.1" font-family="Helvetica,sans-Serif" font-size="8.00">_persistent</text>
</a>
</g>
</g>
<!-- Node13&#45;&gt;Node15 -->
<g id="edge14" class="edge">
<title>Node13&#45;&gt;Node15</title>
<path fill="none" stroke="midnightblue" d="M142.05,-673.86C129.76,-671.64 116.99,-669.32 105.12,-667.17"/>
<polygon fill="midnightblue" stroke="midnightblue" points="141.76,-677.37 152.22,-675.71 143.01,-670.48 141.76,-677.37"/>
</g>
<!-- Node17 -->
<g id="node17" class="node">
<title>Node17</title>
<g id="a_node17"><a xlink:href="classipc_1_1session_1_1shm_1_1classic_1_1Session__server.html#af10bb97219c59c34fce50be09eaacf0c" target="_top" xlink:title="Constructor: identical to session::Session_server ctor.">
<polygon fill="white" stroke="black" points="148.5,-617.5 148.5,-652.5 260.5,-652.5 260.5,-617.5 148.5,-617.5"/>
<text text-anchor="start" x="156.5" y="-642.1" font-family="Helvetica,sans-Serif" font-size="8.00">ipc::session::shm::</text>
<text text-anchor="start" x="156.5" y="-633.1" font-family="Helvetica,sans-Serif" font-size="8.00">classic::Session_server</text>
<text text-anchor="middle" x="204.5" y="-624.1" font-family="Helvetica,sans-Serif" font-size="8.00">::Session_server</text>
</a>
</g>
</g>
<!-- Node16&#45;&gt;Node17 -->
<g id="edge16" class="edge">
<title>Node16&#45;&gt;Node17</title>
<path fill="none" stroke="midnightblue" d="M308.87,-649.77C292.74,-647.46 275.85,-645.05 260.52,-642.86"/>
<polygon fill="midnightblue" stroke="midnightblue" points="308.41,-653.24 318.8,-651.19 309.4,-646.31 308.41,-653.24"/>
</g>
<!-- Node19 -->
<g id="node19" class="node">
<title>Node19</title>
<g id="a_node19"><a xlink:href="classipc_1_1session_1_1shm_1_1arena__lend_1_1jemalloc_1_1Session__server.html#a5cfd3651a06380b877738c6b5fc353a9" target="_top" xlink:title="Constructor: identical to session::Session_server ctor.">
<polygon fill="white" stroke="black" points="143.5,-554 143.5,-598 265.5,-598 265.5,-554 143.5,-554"/>
<text text-anchor="start" x="151.5" y="-587.6" font-family="Helvetica,sans-Serif" font-size="8.00">ipc::session::shm::</text>
<text text-anchor="start" x="151.5" y="-578.6" font-family="Helvetica,sans-Serif" font-size="8.00">arena_lend::jemalloc</text>
<text text-anchor="start" x="151.5" y="-569.6" font-family="Helvetica,sans-Serif" font-size="8.00">::Session_server::Session</text>
<text text-anchor="middle" x="204.5" y="-560.6" font-family="Helvetica,sans-Serif" font-size="8.00">_server</text>
</a>
</g>
</g>
<!-- Node18&#45;&gt;Node19 -->
<g id="edge18" class="edge">
<title>Node18&#45;&gt;Node19</title>
<path fill="none" stroke="midnightblue" d="M318.54,-592.15C301.35,-589.69 282.72,-587.03 265.64,-584.59"/>
<polygon fill="midnightblue" stroke="midnightblue" points="318.07,-595.62 328.47,-593.57 319.06,-588.69 318.07,-595.62"/>
</g>
<!-- Node25&#45;&gt;Node25 -->
<g id="edge25" class="edge">
<title>Node25&#45;&gt;Node25</title>
<path fill="none" stroke="midnightblue" d="M413.43,-289.08C410.19,-293.97 399.55,-297.5 381.5,-297.5 352.62,-297.5 342.7,-288.46 351.72,-279.27"/>
<polygon fill="midnightblue" stroke="midnightblue" points="416.84,-288.29 411.28,-279.27 410.01,-289.79 416.84,-288.29"/>
</g>
</g>
</svg>
