<?xml version="1.0" encoding="UTF-8" standalone="no"?>
<!DOCTYPE svg PUBLIC "-//W3C//DTD SVG 1.1//EN"
 "http://www.w3.org/Graphics/SVG/1.1/DTD/svg11.dtd">
<!-- Generated by graphviz version 2.43.0 (0)
 -->
<!-- Title: ipc::util::Shared_name::size Pages: 1 -->
<svg width="473pt" height="207pt"
 viewBox="0.00 0.00 473.00 206.50" xmlns="http://www.w3.org/2000/svg" xmlns:xlink="http://www.w3.org/1999/xlink">
<g id="graph0" class="graph" transform="scale(1 1) rotate(0) translate(4 202.5)">
<title>ipc::util::Shared_name::size</title>
<polygon fill="white" stroke="transparent" points="-4,4 -4,-202.5 469,-202.5 469,4 -4,4"/>
<!-- Node1 -->
<g id="node1" class="node">
<title>Node1</title>
<g id="a_node1"><a xlink:title="Returns str().size().">
<polygon fill="#bfbfbf" stroke="black" points="355,-70.5 355,-96.5 465,-96.5 465,-70.5 355,-70.5"/>
<text text-anchor="start" x="363" y="-86.1" font-family="Helvetica,sans-Serif" font-size="8.00">ipc::util::Shared_name</text>
<text text-anchor="middle" x="410" y="-77.1" font-family="Helvetica,sans-Serif" font-size="8.00">::size</text>
</a>
</g>
</g>
<!-- Node2 -->
<g id="node2" class="node">
<title>Node2</title>
<g id="a_node2"><a xlink:href="classipc_1_1session_1_1shm_1_1arena__lend_1_1jemalloc_1_1Session__server.html#aafb28832358d6f75f363b932c291884f" target="_top" xlink:title="Invoked on m_async_cleanup_worker, performs a round of the SHM&#45;pool cleanup algorithm and schedules s...">
<polygon fill="white" stroke="black" points="192,-163 192,-198 315,-198 315,-163 192,-163"/>
<text text-anchor="start" x="200" y="-187.6" font-family="Helvetica,sans-Serif" font-size="8.00">ipc::session::shm::</text>
<text text-anchor="start" x="200" y="-178.6" font-family="Helvetica,sans-Serif" font-size="8.00">arena_lend::jemalloc</text>
<text text-anchor="middle" x="253.5" y="-169.6" font-family="Helvetica,sans-Serif" font-size="8.00">::Session_server::cleanup</text>
</a>
</g>
</g>
<!-- Node1&#45;&gt;Node2 -->
<g id="edge1" class="edge">
<title>Node1&#45;&gt;Node2</title>
<path fill="none" stroke="midnightblue" d="M386.66,-103.6C369.14,-118.66 343.68,-139.08 319,-153.5 313.24,-156.87 306.97,-160.04 300.69,-162.93"/>
<polygon fill="midnightblue" stroke="midnightblue" points="389.35,-105.89 394.59,-96.68 384.75,-100.62 389.35,-105.89"/>
</g>
<!-- Node3 -->
<g id="node3" class="node">
<title>Node3</title>
<g id="a_node3"><a xlink:href="namespaceipc_1_1transport_1_1asio__local__stream__socket.html#af872520154fc00afaa59c7eec607a225" target="_top" xlink:title="Returns an Endpoint corresponding to the given absolute Shared_name, so that an Acceptor or Peer_sock...">
<polygon fill="white" stroke="black" points="188,-91 188,-126 319,-126 319,-91 188,-91"/>
<text text-anchor="start" x="196" y="-115.6" font-family="Helvetica,sans-Serif" font-size="8.00">ipc::transport::asio</text>
<text text-anchor="start" x="196" y="-106.6" font-family="Helvetica,sans-Serif" font-size="8.00">_local_stream_socket</text>
<text text-anchor="middle" x="253.5" y="-97.6" font-family="Helvetica,sans-Serif" font-size="8.00">::endpoint_at_shared_name</text>
</a>
</g>
</g>
<!-- Node1&#45;&gt;Node3 -->
<g id="edge2" class="edge">
<title>Node1&#45;&gt;Node3</title>
<path fill="none" stroke="midnightblue" d="M345.04,-93.85C336.48,-95.23 327.7,-96.66 319.12,-98.04"/>
<polygon fill="midnightblue" stroke="midnightblue" points="345.65,-97.3 354.96,-92.24 344.53,-90.39 345.65,-97.3"/>
</g>
<!-- Node6 -->
<g id="node6" class="node">
<title>Node6</title>
<g id="a_node6"><a xlink:href="classipc_1_1util_1_1Shared__name.html#add4ed045e03f786427a236a5dfa5a1b0" target="_top" xlink:title="Best&#45;effort attempt to turn sanitized() from false to true, unless it is already true; returns the fi...">
<polygon fill="white" stroke="black" points="198.5,-45.5 198.5,-71.5 308.5,-71.5 308.5,-45.5 198.5,-45.5"/>
<text text-anchor="start" x="206.5" y="-61.1" font-family="Helvetica,sans-Serif" font-size="8.00">ipc::util::Shared_name</text>
<text text-anchor="middle" x="253.5" y="-52.1" font-family="Helvetica,sans-Serif" font-size="8.00">::sanitize</text>
</a>
</g>
</g>
<!-- Node1&#45;&gt;Node6 -->
<g id="edge6" class="edge">
<title>Node1&#45;&gt;Node6</title>
<path fill="none" stroke="midnightblue" d="M344.93,-73.13C332.82,-71.17 320.27,-69.14 308.51,-67.24"/>
<polygon fill="midnightblue" stroke="midnightblue" points="344.53,-76.61 354.96,-74.76 345.65,-69.7 344.53,-76.61"/>
</g>
<!-- Node7 -->
<g id="node7" class="node">
<title>Node7</title>
<g id="a_node7"><a xlink:href="classipc_1_1util_1_1Shared__name.html#a03d90faae35392c8bbdd22f056755ba9" target="_top" xlink:title="Returns true if and only if the contained name/fragment is sanitized according to length,...">
<polygon fill="white" stroke="black" points="198.5,-0.5 198.5,-26.5 308.5,-26.5 308.5,-0.5 198.5,-0.5"/>
<text text-anchor="start" x="206.5" y="-16.1" font-family="Helvetica,sans-Serif" font-size="8.00">ipc::util::Shared_name</text>
<text text-anchor="middle" x="253.5" y="-7.1" font-family="Helvetica,sans-Serif" font-size="8.00">::sanitized</text>
</a>
</g>
</g>
<!-- Node1&#45;&gt;Node7 -->
<g id="edge7" class="edge">
<title>Node1&#45;&gt;Node7</title>
<path fill="none" stroke="midnightblue" d="M377.97,-65.35C360.9,-55.78 339.15,-44.24 319,-35.5 311.73,-32.35 303.84,-29.33 296.17,-26.61"/>
<polygon fill="midnightblue" stroke="midnightblue" points="376.51,-68.55 386.93,-70.44 379.96,-62.46 376.51,-68.55"/>
</g>
<!-- Node3&#45;&gt;Node3 -->
<g id="edge4" class="edge">
<title>Node3&#45;&gt;Node3</title>
<path fill="none" stroke="midnightblue" d="M280.67,-136.6C276.85,-141.27 267.8,-144.5 253.5,-144.5 230.04,-144.5 220.69,-135.81 225.46,-126.28"/>
<polygon fill="midnightblue" stroke="midnightblue" points="284.18,-136.54 281.54,-126.28 277.21,-135.95 284.18,-136.54"/>
</g>
<!-- Node4 -->
<g id="node4" class="node">
<title>Node4</title>
<g id="a_node4"><a xlink:href="classipc_1_1transport_1_1sync__io_1_1Native__socket__stream_1_1Impl.html#ad6443fb49be059dbe76c75d86a18197e" target="_top" xlink:title="The core of sync_connect(), written in the sync_io&#45;pattern style.">
<polygon fill="white" stroke="black" points="14.5,-118 14.5,-153 137.5,-153 137.5,-118 14.5,-118"/>
<text text-anchor="start" x="22.5" y="-142.6" font-family="Helvetica,sans-Serif" font-size="8.00">ipc::transport::sync</text>
<text text-anchor="start" x="22.5" y="-133.6" font-family="Helvetica,sans-Serif" font-size="8.00">_io::Native_socket_stream</text>
<text text-anchor="middle" x="76" y="-124.6" font-family="Helvetica,sans-Serif" font-size="8.00">::Impl::async_connect</text>
</a>
</g>
</g>
<!-- Node3&#45;&gt;Node4 -->
<g id="edge3" class="edge">
<title>Node3&#45;&gt;Node4</title>
<path fill="none" stroke="midnightblue" d="M177.53,-120.03C164.17,-122.09 150.41,-124.21 137.51,-126.19"/>
<polygon fill="midnightblue" stroke="midnightblue" points="178.3,-123.46 187.65,-118.48 177.23,-116.54 178.3,-123.46"/>
</g>
<!-- Node5 -->
<g id="node5" class="node">
<title>Node5</title>
<g id="a_node5"><a xlink:href="classipc_1_1transport_1_1Native__socket__stream__acceptor.html#a77795acb028a95a4804f9b3ef18d99b0" target="_top" xlink:title="Creates the Native_socket_stream_acceptor and immediately begins listening in the background,...">
<polygon fill="white" stroke="black" points="0,-64 0,-99 152,-99 152,-64 0,-64"/>
<text text-anchor="start" x="8" y="-88.6" font-family="Helvetica,sans-Serif" font-size="8.00">ipc::transport::Native</text>
<text text-anchor="start" x="8" y="-79.6" font-family="Helvetica,sans-Serif" font-size="8.00">_socket_stream_acceptor</text>
<text text-anchor="middle" x="76" y="-70.6" font-family="Helvetica,sans-Serif" font-size="8.00">::Native_socket_stream_acceptor</text>
</a>
</g>
</g>
<!-- Node3&#45;&gt;Node5 -->
<g id="edge5" class="edge">
<title>Node3&#45;&gt;Node5</title>
<path fill="none" stroke="midnightblue" d="M177.54,-96.97C169.16,-95.68 160.63,-94.37 152.26,-93.08"/>
<polygon fill="midnightblue" stroke="midnightblue" points="177.23,-100.46 187.65,-98.52 178.3,-93.54 177.23,-100.46"/>
</g>
</g>
</svg>
