<?xml version="1.0" encoding="UTF-8" standalone="no"?>
<!DOCTYPE svg PUBLIC "-//W3C//DTD SVG 1.1//EN"
 "http://www.w3.org/Graphics/SVG/1.1/DTD/svg11.dtd">
<!-- Generated by graphviz version 2.43.0 (0)
 -->
<!-- Title: ipc::transport::Posix_mq_handle::absolute_name Pages: 1 -->
<svg width="470pt" height="182pt"
 viewBox="0.00 0.00 470.00 182.00" xmlns="http://www.w3.org/2000/svg" xmlns:xlink="http://www.w3.org/1999/xlink">
<g id="graph0" class="graph" transform="scale(1 1) rotate(0) translate(4 178)">
<title>ipc::transport::Posix_mq_handle::absolute_name</title>
<polygon fill="white" stroke="transparent" points="-4,4 -4,-178 466,-178 466,4 -4,4"/>
<!-- Node1 -->
<g id="node1" class="node">
<title>Node1</title>
<g id="a_node1"><a xlink:title="Implements Persistent_mq_handle API: Returns name equal to absolute_name passed to ctor.">
<polygon fill="#bfbfbf" stroke="black" points="328,-81.5 328,-107.5 462,-107.5 462,-81.5 328,-81.5"/>
<text text-anchor="start" x="336" y="-97.1" font-family="Helvetica,sans-Serif" font-size="8.00">ipc::transport::Posix</text>
<text text-anchor="middle" x="395" y="-88.1" font-family="Helvetica,sans-Serif" font-size="8.00">_mq_handle::absolute_name</text>
</a>
</g>
</g>
<!-- Node2 -->
<g id="node2" class="node">
<title>Node2</title>
<g id="a_node2"><a xlink:href="classipc_1_1transport_1_1Posix__mq__handle.html#a8fb9256b66ad3dfdf742de66223466d7" target="_top" xlink:title="Prints string representation of the given Posix_mq_handle to the given ostream.">
<polygon fill="white" stroke="black" points="158.5,-147.5 158.5,-173.5 278.5,-173.5 278.5,-147.5 158.5,-147.5"/>
<text text-anchor="start" x="166.5" y="-163.1" font-family="Helvetica,sans-Serif" font-size="8.00">ipc::transport::Posix</text>
<text text-anchor="middle" x="218.5" y="-154.1" font-family="Helvetica,sans-Serif" font-size="8.00">_mq_handle::operator&lt;&lt;</text>
</a>
</g>
</g>
<!-- Node1&#45;&gt;Node2 -->
<g id="edge1" class="edge">
<title>Node1&#45;&gt;Node2</title>
<path fill="none" stroke="midnightblue" d="M356.92,-111.69C337.75,-120.27 313.84,-130.5 292,-138.5 283.48,-141.62 274.28,-144.66 265.4,-147.43"/>
<polygon fill="midnightblue" stroke="midnightblue" points="358.53,-114.81 366.2,-107.5 355.65,-108.43 358.53,-114.81"/>
</g>
<!-- Node3 -->
<g id="node3" class="node">
<title>Node3</title>
<g id="a_node3"><a xlink:href="classipc_1_1transport_1_1Posix__mq__handle.html#ac2cf0213ceaa0a8c621ee2c02c6fbec6" target="_top" xlink:title="Ctor helper that sets up m_interrupt* pipe items.">
<polygon fill="white" stroke="black" points="160.5,-102.5 160.5,-128.5 276.5,-128.5 276.5,-102.5 160.5,-102.5"/>
<text text-anchor="start" x="168.5" y="-118.1" font-family="Helvetica,sans-Serif" font-size="8.00">ipc::transport::Posix</text>
<text text-anchor="middle" x="218.5" y="-109.1" font-family="Helvetica,sans-Serif" font-size="8.00">_mq_handle::pipe_setup</text>
</a>
</g>
</g>
<!-- Node1&#45;&gt;Node3 -->
<g id="edge2" class="edge">
<title>Node1&#45;&gt;Node3</title>
<path fill="none" stroke="midnightblue" d="M317.21,-103.74C303.59,-105.38 289.63,-107.06 276.67,-108.62"/>
<polygon fill="midnightblue" stroke="midnightblue" points="318.02,-107.17 327.53,-102.5 317.18,-100.22 318.02,-107.17"/>
</g>
<!-- Node4 -->
<g id="node4" class="node">
<title>Node4</title>
<g id="a_node4"><a xlink:href="classipc_1_1transport_1_1Posix__mq__handle.html#af5471cf5d7a11cf725e291fad962a636" target="_top" xlink:title="Helper ctor delegated by the 2 public ctors that take Open_or_create or Create_only mode.">
<polygon fill="white" stroke="black" points="0,-77 0,-112 109,-112 109,-77 0,-77"/>
<text text-anchor="start" x="8" y="-101.6" font-family="Helvetica,sans-Serif" font-size="8.00">ipc::transport::Posix</text>
<text text-anchor="start" x="8" y="-92.6" font-family="Helvetica,sans-Serif" font-size="8.00">_mq_handle::Posix_mq</text>
<text text-anchor="middle" x="54.5" y="-83.6" font-family="Helvetica,sans-Serif" font-size="8.00">_handle</text>
</a>
</g>
</g>
<!-- Node1&#45;&gt;Node4 -->
<g id="edge4" class="edge">
<title>Node1&#45;&gt;Node4</title>
<path fill="none" stroke="midnightblue" d="M317.74,-93.67C309.06,-93.6 300.34,-93.54 292,-93.5 226.67,-93.18 210.33,-93.14 145,-93.5 133.5,-93.56 121.17,-93.67 109.45,-93.8"/>
<polygon fill="midnightblue" stroke="midnightblue" points="317.85,-97.17 327.88,-93.76 317.91,-90.17 317.85,-97.17"/>
</g>
<!-- Node5 -->
<g id="node5" class="node">
<title>Node5</title>
<g id="a_node5"><a xlink:href="classipc_1_1transport_1_1Posix__mq__handle.html#a658271ad982e3e0af4c3666b947019cc" target="_top" xlink:title="Implements Persistent_mq_handle API: Removes the named persistent MQ.">
<polygon fill="white" stroke="black" points="145,-0.5 145,-26.5 292,-26.5 292,-0.5 145,-0.5"/>
<text text-anchor="start" x="153" y="-16.1" font-family="Helvetica,sans-Serif" font-size="8.00">ipc::transport::Posix</text>
<text text-anchor="middle" x="218.5" y="-7.1" font-family="Helvetica,sans-Serif" font-size="8.00">_mq_handle::remove_persistent</text>
</a>
</g>
</g>
<!-- Node1&#45;&gt;Node5 -->
<g id="edge5" class="edge">
<title>Node1&#45;&gt;Node5</title>
<path fill="none" stroke="midnightblue" d="M356.74,-77.21C324.11,-62.06 277.39,-40.37 247.76,-26.62"/>
<polygon fill="midnightblue" stroke="midnightblue" points="355.42,-80.45 365.96,-81.49 358.37,-74.1 355.42,-80.45"/>
</g>
<!-- Node3&#45;&gt;Node4 -->
<g id="edge3" class="edge">
<title>Node3&#45;&gt;Node4</title>
<path fill="none" stroke="midnightblue" d="M150.07,-106.76C136.41,-104.99 122.22,-103.15 109.12,-101.45"/>
<polygon fill="midnightblue" stroke="midnightblue" points="150.02,-110.28 160.38,-108.1 150.92,-103.34 150.02,-110.28"/>
</g>
<!-- Node5&#45;&gt;Node5 -->
<g id="edge6" class="edge">
<title>Node5&#45;&gt;Node5</title>
<path fill="none" stroke="midnightblue" d="M248.26,-36.58C245.24,-41.47 235.32,-45 218.5,-45 191.59,-45 182.34,-35.96 190.75,-26.77"/>
<polygon fill="midnightblue" stroke="midnightblue" points="251.68,-35.86 246.25,-26.77 244.83,-37.27 251.68,-35.86"/>
</g>
</g>
</svg>
