<?xml version="1.0" encoding="UTF-8" standalone="no"?>
<!DOCTYPE svg PUBLIC "-//W3C//DTD SVG 1.1//EN"
 "http://www.w3.org/Graphics/SVG/1.1/DTD/svg11.dtd">
<!-- Generated by graphviz version 2.43.0 (0)
 -->
<!-- Title: ipc::session::shm::classic::Server_session_impl&lt; S_MQ_TYPE_OR_NONE, S_TRANSMIT_NATIVE_HANDLES, Mdt_payload &gt; Pages: 1 -->
<svg width="1451pt" height="1066pt"
 viewBox="0.00 0.00 1451.00 1066.36" xmlns="http://www.w3.org/2000/svg" xmlns:xlink="http://www.w3.org/1999/xlink">
<g id="graph0" class="graph" transform="scale(1 1) rotate(0) translate(4 1062.36)">
<title>ipc::session::shm::classic::Server_session_impl&lt; S_MQ_TYPE_OR_NONE, S_TRANSMIT_NATIVE_HANDLES, Mdt_payload &gt;</title>
<polygon fill="white" stroke="transparent" points="-4,4 -4,-1062.36 1447,-1062.36 1447,4 -4,4"/>
<!-- Node1 -->
<g id="node1" class="node">
<title>Node1</title>
<g id="a_node1"><a xlink:title="Core internally&#45;used implementation of shm::classic::Server_session: it is to the latter what its pub...">
<polygon fill="#bfbfbf" stroke="black" points="1297,-329.86 1297,-382.86 1443,-382.86 1443,-329.86 1297,-329.86"/>
<text text-anchor="start" x="1305" y="-372.46" font-family="Helvetica,sans-Serif" font-size="8.00">ipc::session::shm::</text>
<text text-anchor="start" x="1305" y="-363.46" font-family="Helvetica,sans-Serif" font-size="8.00">classic::Server_session</text>
<text text-anchor="start" x="1305" y="-354.46" font-family="Helvetica,sans-Serif" font-size="8.00">_impl&lt; S_MQ_TYPE_OR_NONE,</text>
<text text-anchor="start" x="1305" y="-345.46" font-family="Helvetica,sans-Serif" font-size="8.00"> S_TRANSMIT_NATIVE_HANDLES,</text>
<text text-anchor="middle" x="1370" y="-336.46" font-family="Helvetica,sans-Serif" font-size="8.00"> Mdt_payload &gt;</text>
</a>
</g>
</g>
<!-- Node2 -->
<g id="node2" class="node">
<title>Node2</title>
<g id="a_node2"><a xlink:href="classipc_1_1session_1_1shm_1_1classic_1_1Session__impl.html" target="_top" xlink:title=" ">
<polygon fill="white" stroke="black" points="1072,-311.86 1072,-400.86 1260,-400.86 1260,-311.86 1072,-311.86"/>
<text text-anchor="start" x="1080" y="-390.46" font-family="Helvetica,sans-Serif" font-size="8.00">ipc::session::shm::</text>
<text text-anchor="start" x="1080" y="-381.46" font-family="Helvetica,sans-Serif" font-size="8.00">classic::Session_impl</text>
<text text-anchor="start" x="1080" y="-372.46" font-family="Helvetica,sans-Serif" font-size="8.00">&lt; session::Server_session</text>
<text text-anchor="start" x="1080" y="-363.46" font-family="Helvetica,sans-Serif" font-size="8.00">_impl&lt; S_MQ_TYPE_OR_NONE,</text>
<text text-anchor="start" x="1080" y="-354.46" font-family="Helvetica,sans-Serif" font-size="8.00"> S_TRANSMIT_NATIVE_HANDLES,</text>
<text text-anchor="start" x="1080" y="-345.46" font-family="Helvetica,sans-Serif" font-size="8.00"> Mdt_payload, schema::ShmType</text>
<text text-anchor="start" x="1080" y="-336.46" font-family="Helvetica,sans-Serif" font-size="8.00">::CLASSIC, transport::struc::</text>
<text text-anchor="start" x="1080" y="-327.46" font-family="Helvetica,sans-Serif" font-size="8.00">shm::Builder_base::S_MAX_SERIALIZATION</text>
<text text-anchor="middle" x="1166" y="-318.46" font-family="Helvetica,sans-Serif" font-size="8.00">_SEGMENT_SZ &gt; &gt;</text>
</a>
</g>
</g>
<!-- Node2&#45;&gt;Node1 -->
<g id="edge1" class="edge">
<title>Node2&#45;&gt;Node1</title>
<path fill="none" stroke="midnightblue" d="M1270.15,-356.36C1279.12,-356.36 1288.08,-356.36 1296.72,-356.36"/>
<polygon fill="midnightblue" stroke="midnightblue" points="1270.02,-352.86 1260.02,-356.36 1270.02,-359.86 1270.02,-352.86"/>
</g>
<!-- Node3 -->
<g id="node3" class="node">
<title>Node3</title>
<g id="a_node3"><a xlink:href="classipc_1_1session_1_1Server__session__impl.html" target="_top" xlink:title=" ">
<polygon fill="white" stroke="black" points="782,-352.86 782,-423.86 949,-423.86 949,-352.86 782,-352.86"/>
<text text-anchor="start" x="790" y="-413.46" font-family="Helvetica,sans-Serif" font-size="8.00">ipc::session::Server</text>
<text text-anchor="start" x="790" y="-404.46" font-family="Helvetica,sans-Serif" font-size="8.00">_session_impl&lt; S_MQ_TYPE</text>
<text text-anchor="start" x="790" y="-395.46" font-family="Helvetica,sans-Serif" font-size="8.00">_OR_NONE, S_TRANSMIT_NATIVE</text>
<text text-anchor="start" x="790" y="-386.46" font-family="Helvetica,sans-Serif" font-size="8.00">_HANDLES, Mdt_payload, schema</text>
<text text-anchor="start" x="790" y="-377.46" font-family="Helvetica,sans-Serif" font-size="8.00">::ShmType::CLASSIC, transport</text>
<text text-anchor="start" x="790" y="-368.46" font-family="Helvetica,sans-Serif" font-size="8.00">::struc::shm::Builder_base::S</text>
<text text-anchor="middle" x="865.5" y="-359.46" font-family="Helvetica,sans-Serif" font-size="8.00">_MAX_SERIALIZATION_SEGMENT_SZ &gt;</text>
</a>
</g>
</g>
<!-- Node3&#45;&gt;Node2 -->
<g id="edge2" class="edge">
<title>Node3&#45;&gt;Node2</title>
<path fill="none" stroke="midnightblue" d="M959.21,-378.42C995.04,-374.58 1035.96,-370.2 1071.83,-366.35"/>
<polygon fill="midnightblue" stroke="midnightblue" points="958.82,-374.94 949.25,-379.49 959.57,-381.9 958.82,-374.94"/>
</g>
<!-- Node4 -->
<g id="node4" class="node">
<title>Node4</title>
<g id="a_node4"><a xlink:href="classipc_1_1session_1_1Session__base.html" target="_top" xlink:title="Internal type containing data and types common to internal types Server_session_impl and Client_sessi...">
<polygon fill="white" stroke="black" points="489,-366.36 489,-410.36 635,-410.36 635,-366.36 489,-366.36"/>
<text text-anchor="start" x="497" y="-399.96" font-family="Helvetica,sans-Serif" font-size="8.00">ipc::session::Session</text>
<text text-anchor="start" x="497" y="-390.96" font-family="Helvetica,sans-Serif" font-size="8.00">_base&lt; S_MQ_TYPE_OR_NONE,</text>
<text text-anchor="start" x="497" y="-381.96" font-family="Helvetica,sans-Serif" font-size="8.00"> S_TRANSMIT_NATIVE_HANDLES,</text>
<text text-anchor="middle" x="562" y="-372.96" font-family="Helvetica,sans-Serif" font-size="8.00"> Mdt_payload &gt;</text>
</a>
</g>
</g>
<!-- Node4&#45;&gt;Node3 -->
<g id="edge3" class="edge">
<title>Node4&#45;&gt;Node3</title>
<path fill="none" stroke="midnightblue" d="M645.25,-388.36C687.73,-388.36 739.43,-388.36 781.95,-388.36"/>
<polygon fill="midnightblue" stroke="midnightblue" points="645.22,-384.86 635.22,-388.36 645.22,-391.86 645.22,-384.86"/>
</g>
<!-- Node5 -->
<g id="node5" class="node">
<title>Node5</title>
<g id="a_node5"><a xlink:title=" ">
<polygon fill="white" stroke="#bfbfbf" points="191.5,-531.86 191.5,-548.86 290.5,-548.86 290.5,-531.86 191.5,-531.86"/>
<text text-anchor="middle" x="241" y="-538.46" font-family="Helvetica,sans-Serif" font-size="8.00">boost::noncopyable</text>
</a>
</g>
</g>
<!-- Node5&#45;&gt;Node4 -->
<g id="edge4" class="edge">
<title>Node5&#45;&gt;Node4</title>
<path fill="none" stroke="#8b1a1a" d="M300.84,-537.97C349.43,-533.69 418.65,-522.15 471,-491.36 504.77,-471.5 532.4,-434.45 547.77,-410.62"/>
<polygon fill="#8b1a1a" stroke="#8b1a1a" points="300.49,-534.48 290.8,-538.77 301.05,-541.46 300.49,-534.48"/>
</g>
<!-- Node40 -->
<g id="node31" class="node">
<title>Node40</title>
<g id="a_node31"><a xlink:href="classipc_1_1shm_1_1classic_1_1Pool__arena.html" target="_top" xlink:title="A SHM&#45;classic interface around a single SHM pool with allocation&#45;algorithm services by boost....">
<polygon fill="white" stroke="black" points="516,-728.36 516,-754.36 608,-754.36 608,-728.36 516,-728.36"/>
<text text-anchor="start" x="524" y="-743.96" font-family="Helvetica,sans-Serif" font-size="8.00">ipc::shm::classic::</text>
<text text-anchor="middle" x="562" y="-734.96" font-family="Helvetica,sans-Serif" font-size="8.00">Pool_arena</text>
</a>
</g>
</g>
<!-- Node5&#45;&gt;Node40 -->
<g id="edge41" class="edge">
<title>Node5&#45;&gt;Node40</title>
<path fill="none" stroke="#8b1a1a" d="M301.14,-536.86C353.58,-537.22 428.29,-546.88 471,-593.36 508.98,-634.69 452.74,-675.52 489,-718.36 495.87,-726.48 505.6,-731.76 515.69,-735.19"/>
<polygon fill="#8b1a1a" stroke="#8b1a1a" points="300.95,-533.36 290.97,-536.9 300.98,-540.36 300.95,-533.36"/>
</g>
<!-- Node6 -->
<g id="node6" class="node">
<title>Node6</title>
<g id="a_node6"><a xlink:title=" ">
<polygon fill="white" stroke="#bfbfbf" points="190.5,-482.86 190.5,-499.86 291.5,-499.86 291.5,-482.86 190.5,-482.86"/>
<text text-anchor="middle" x="241" y="-489.46" font-family="Helvetica,sans-Serif" font-size="8.00">static constexpr bool</text>
</a>
</g>
</g>
<!-- Node6&#45;&gt;Node3 -->
<g id="edge19" class="edge">
<title>Node6&#45;&gt;Node3</title>
<path fill="none" stroke="#9a32cd" stroke-dasharray="5,2" d="M302,-494.05C348.36,-495.22 414.02,-494.93 471,-487.36 580.29,-472.86 703.01,-439.09 781.9,-415.03"/>
<polygon fill="#9a32cd" stroke="#9a32cd" points="301.92,-490.54 291.83,-493.76 301.73,-497.54 301.92,-490.54"/>
<text text-anchor="middle" x="562" y="-503.96" font-family="Helvetica,sans-Serif" font-size="8.00"> S_MQS_ENABLED</text>
<text text-anchor="middle" x="562" y="-494.96" font-family="Helvetica,sans-Serif" font-size="8.00">S_SHM_ENABLED</text>
<text text-anchor="middle" x="562" y="-485.96" font-family="Helvetica,sans-Serif" font-size="8.00">S_SOCKET_STREAM_ENABLED</text>
</g>
<!-- Node6&#45;&gt;Node4 -->
<g id="edge5" class="edge">
<title>Node6&#45;&gt;Node4</title>
<path fill="none" stroke="#9a32cd" stroke-dasharray="5,2" d="M287.6,-480.52C303.8,-476.8 322.17,-472.73 339,-469.36 397.39,-457.66 415.53,-468.03 471,-446.36 493.33,-437.64 516.01,-422.98 533.02,-410.58"/>
<polygon fill="#9a32cd" stroke="#9a32cd" points="286.79,-477.12 277.84,-482.78 288.37,-483.93 286.79,-477.12"/>
<text text-anchor="middle" x="405" y="-480.96" font-family="Helvetica,sans-Serif" font-size="8.00"> S_MQS_ENABLED</text>
<text text-anchor="middle" x="405" y="-471.96" font-family="Helvetica,sans-Serif" font-size="8.00">S_SOCKET_STREAM_ENABLED</text>
</g>
<!-- Node7 -->
<g id="node7" class="node">
<title>Node7</title>
<g id="a_node7"><a xlink:href="structipc_1_1session_1_1Server__app.html" target="_top" xlink:title="An App that is used as a server in at least one client&#45;server IPC split.">
<polygon fill="white" stroke="red" points="182,-435.86 182,-452.86 300,-452.86 300,-435.86 182,-435.86"/>
<text text-anchor="middle" x="241" y="-442.46" font-family="Helvetica,sans-Serif" font-size="8.00">ipc::session::Server_app</text>
</a>
</g>
</g>
<!-- Node7&#45;&gt;Node4 -->
<g id="edge6" class="edge">
<title>Node7&#45;&gt;Node4</title>
<path fill="none" stroke="#9a32cd" stroke-dasharray="5,2" d="M310.39,-438.13C356.15,-433.3 417.54,-425.52 471,-414.36 476.73,-413.17 482.63,-411.79 488.54,-410.31"/>
<polygon fill="#9a32cd" stroke="#9a32cd" points="309.87,-434.67 300.29,-439.18 310.6,-441.63 309.87,-434.67"/>
<text text-anchor="middle" x="405" y="-436.96" font-family="Helvetica,sans-Serif" font-size="8.00"> m_srv_app_ref</text>
</g>
<!-- Node16 -->
<g id="node8" class="node">
<title>Node16</title>
<g id="a_node8"><a xlink:title=" ">
<polygon fill="white" stroke="#bfbfbf" points="205.5,-399.86 205.5,-416.86 276.5,-416.86 276.5,-399.86 205.5,-399.86"/>
<text text-anchor="middle" x="241" y="-406.46" font-family="Helvetica,sans-Serif" font-size="8.00">Fine_duration</text>
</a>
</g>
</g>
<!-- Node16&#45;&gt;Node4 -->
<g id="edge7" class="edge">
<title>Node16&#45;&gt;Node4</title>
<path fill="none" stroke="#9a32cd" stroke-dasharray="5,2" d="M286.74,-405.56C339.16,-402.27 426.71,-396.78 488.78,-392.89"/>
<polygon fill="#9a32cd" stroke="#9a32cd" points="286.51,-402.06 276.75,-406.18 286.95,-409.05 286.51,-402.06"/>
<text text-anchor="middle" x="405" y="-403.96" font-family="Helvetica,sans-Serif" font-size="8.00"> S_OPEN_CHANNEL_TIMEOUT</text>
</g>
<!-- Node17 -->
<g id="node9" class="node">
<title>Node17</title>
<g id="a_node9"><a xlink:title=" ">
<polygon fill="white" stroke="#bfbfbf" points="187.5,-363.86 187.5,-380.86 294.5,-380.86 294.5,-363.86 187.5,-363.86"/>
<text text-anchor="middle" x="241" y="-370.46" font-family="Helvetica,sans-Serif" font-size="8.00">static constexpr size_t</text>
</a>
</g>
</g>
<!-- Node17&#45;&gt;Node4 -->
<g id="edge8" class="edge">
<title>Node17&#45;&gt;Node4</title>
<path fill="none" stroke="#9a32cd" stroke-dasharray="5,2" d="M305,-369.92C351.06,-368.8 415.02,-368.61 471,-373.36 476.84,-373.86 482.87,-374.52 488.92,-375.3"/>
<polygon fill="#9a32cd" stroke="#9a32cd" points="304.76,-366.43 294.86,-370.19 304.95,-373.42 304.76,-366.43"/>
<text text-anchor="middle" x="405" y="-375.96" font-family="Helvetica,sans-Serif" font-size="8.00"> S_MQS_MAX_MSG_SZ</text>
</g>
<!-- Node18 -->
<g id="node10" class="node">
<title>Node18</title>
<g id="a_node10"><a xlink:title=" ">
<polygon fill="white" stroke="orangered" points="192,-309.86 192,-344.86 290,-344.86 290,-309.86 192,-309.86"/>
<text text-anchor="start" x="200" y="-334.46" font-family="Helvetica,sans-Serif" font-size="8.00">std::atomic&lt; const</text>
<text text-anchor="start" x="200" y="-325.46" font-family="Helvetica,sans-Serif" font-size="8.00"> ipc::session::Client</text>
<text text-anchor="middle" x="241" y="-316.46" font-family="Helvetica,sans-Serif" font-size="8.00">_app * &gt;</text>
</a>
</g>
</g>
<!-- Node18&#45;&gt;Node4 -->
<g id="edge9" class="edge">
<title>Node18&#45;&gt;Node4</title>
<path fill="none" stroke="#9a32cd" stroke-dasharray="5,2" d="M300.61,-330.81C347.27,-334.44 413.99,-341.62 471,-355.36 482.81,-358.21 495.2,-362.12 506.89,-366.25"/>
<polygon fill="#9a32cd" stroke="#9a32cd" points="300.61,-327.3 290.38,-330.04 300.09,-334.28 300.61,-327.3"/>
<text text-anchor="middle" x="405" y="-357.96" font-family="Helvetica,sans-Serif" font-size="8.00"> m_cli_app_ptr</text>
</g>
<!-- Node20 -->
<g id="node11" class="node">
<title>Node20</title>
<g id="a_node11"><a xlink:href="classipc_1_1util_1_1Shared__name.html" target="_top" xlink:title="String&#45;wrapping abstraction representing a name uniquely distinguishing a kernel&#45;persistent entity fr...">
<polygon fill="white" stroke="red" points="186,-769.86 186,-786.86 296,-786.86 296,-769.86 186,-769.86"/>
<text text-anchor="middle" x="241" y="-776.46" font-family="Helvetica,sans-Serif" font-size="8.00">ipc::util::Shared_name</text>
</a>
</g>
</g>
<!-- Node20&#45;&gt;Node4 -->
<g id="edge10" class="edge">
<title>Node20&#45;&gt;Node4</title>
<path fill="none" stroke="#9a32cd" stroke-dasharray="5,2" d="M306.42,-769.03C366.56,-758.9 450.12,-740.71 471,-715.36 504.45,-674.77 469.85,-528.35 489,-479.36 499.42,-452.72 520.43,-427.63 537.08,-410.58"/>
<polygon fill="#9a32cd" stroke="#9a32cd" points="305.53,-765.63 296.23,-770.71 306.66,-772.54 305.53,-765.63"/>
<text text-anchor="middle" x="405" y="-772.96" font-family="Helvetica,sans-Serif" font-size="8.00"> m_cli_namespace</text>
<text text-anchor="middle" x="405" y="-763.96" font-family="Helvetica,sans-Serif" font-size="8.00">m_srv_namespace</text>
</g>
<!-- Node20&#45;&gt;Node20 -->
<g id="edge11" class="edge">
<title>Node20&#45;&gt;Node20</title>
<path fill="none" stroke="#9a32cd" stroke-dasharray="5,2" d="M216.63,-795.46C216.84,-800.98 224.96,-805.36 241,-805.36 264.87,-805.36 271.21,-795.65 260.02,-786.93"/>
<polygon fill="#9a32cd" stroke="#9a32cd" points="219.63,-797.26 221.98,-786.93 213.7,-793.54 219.63,-797.26"/>
<text text-anchor="middle" x="241" y="-870.96" font-family="Helvetica,sans-Serif" font-size="8.00"> S_1ST_OR_ONLY</text>
<text text-anchor="middle" x="241" y="-861.96" font-family="Helvetica,sans-Serif" font-size="8.00">S_EMPTY</text>
<text text-anchor="start" x="202.5" y="-852.96" font-family="Helvetica,sans-Serif" font-size="8.00">S_RESOURCE_TYPE</text>
<text text-anchor="middle" x="241" y="-843.96" font-family="Helvetica,sans-Serif" font-size="8.00">_ID_MUTEX</text>
<text text-anchor="start" x="202.5" y="-834.96" font-family="Helvetica,sans-Serif" font-size="8.00">S_RESOURCE_TYPE</text>
<text text-anchor="middle" x="241" y="-825.96" font-family="Helvetica,sans-Serif" font-size="8.00">_ID_SHM</text>
<text text-anchor="middle" x="241" y="-816.96" font-family="Helvetica,sans-Serif" font-size="8.00">S_ROOT_MAGIC</text>
<text text-anchor="middle" x="241" y="-807.96" font-family="Helvetica,sans-Serif" font-size="8.00">S_SENTINEL</text>
</g>
<!-- Node32 -->
<g id="node23" class="node">
<title>Node32</title>
<g id="a_node23"><a xlink:href="classipc_1_1transport_1_1sync__io_1_1Native__socket__stream.html" target="_top" xlink:title="Implements both sync_io::Native_handle_sender and sync_io::Native_handle_receiver concepts by using a...">
<polygon fill="white" stroke="black" points="500.5,-931.36 500.5,-957.36 623.5,-957.36 623.5,-931.36 500.5,-931.36"/>
<text text-anchor="start" x="508.5" y="-946.96" font-family="Helvetica,sans-Serif" font-size="8.00">ipc::transport::sync</text>
<text text-anchor="middle" x="562" y="-937.96" font-family="Helvetica,sans-Serif" font-size="8.00">_io::Native_socket_stream</text>
</a>
</g>
</g>
<!-- Node20&#45;&gt;Node32 -->
<g id="edge28" class="edge">
<title>Node20&#45;&gt;Node32</title>
<path fill="none" stroke="#9a32cd" stroke-dasharray="5,2" d="M271.91,-790.77C290.93,-798.41 316.19,-808.1 339,-815.36 396.73,-833.74 418.8,-818.62 471,-849.36 507.02,-870.58 537.76,-910.37 552.19,-931.08"/>
<polygon fill="#9a32cd" stroke="#9a32cd" points="273.16,-787.5 262.58,-786.98 270.53,-793.99 273.16,-787.5"/>
<text text-anchor="middle" x="405" y="-851.96" font-family="Helvetica,sans-Serif" font-size="8.00"> S_RESOURCE_TYPE_ID</text>
</g>
<!-- Node20&#45;&gt;Node40 -->
<g id="edge42" class="edge">
<title>Node20&#45;&gt;Node40</title>
<path fill="none" stroke="#9a32cd" stroke-dasharray="5,2" d="M283,-789.28C329.45,-799.81 407.01,-811.8 471,-794.36 499.34,-786.64 527.85,-767.47 544.97,-754.43"/>
<polygon fill="#9a32cd" stroke="#9a32cd" points="283.55,-785.81 273.01,-786.93 281.94,-792.62 283.55,-785.81"/>
<text text-anchor="middle" x="405" y="-804.96" font-family="Helvetica,sans-Serif" font-size="8.00"> m_pool_name</text>
</g>
<!-- Node21 -->
<g id="node12" class="node">
<title>Node21</title>
<g id="a_node12"><a xlink:title=" ">
<polygon fill="white" stroke="#bfbfbf" points="9.5,-812.86 9.5,-829.86 49.5,-829.86 49.5,-812.86 9.5,-812.86"/>
<text text-anchor="middle" x="29.5" y="-819.46" font-family="Helvetica,sans-Serif" font-size="8.00">size_t</text>
</a>
</g>
</g>
<!-- Node21&#45;&gt;Node20 -->
<g id="edge12" class="edge">
<title>Node21&#45;&gt;Node20</title>
<path fill="none" stroke="#9a32cd" stroke-dasharray="5,2" d="M59.73,-815.36C95.84,-807.95 157.49,-795.3 198.48,-786.88"/>
<polygon fill="#9a32cd" stroke="#9a32cd" points="58.93,-811.95 49.83,-817.39 60.33,-818.81 58.93,-811.95"/>
<text text-anchor="middle" x="110" y="-812.96" font-family="Helvetica,sans-Serif" font-size="8.00"> S_MAX_LENGTH</text>
</g>
<!-- Node21&#45;&gt;Node32 -->
<g id="edge30" class="edge">
<title>Node21&#45;&gt;Node32</title>
<path fill="none" stroke="#9a32cd" stroke-dasharray="5,2" d="M41.01,-838.91C60.4,-869.53 105,-932.11 161,-960.36 284.3,-1022.56 335.52,-1008.12 471,-981.36 494.2,-976.78 518.94,-966.14 536.6,-957.44"/>
<polygon fill="#9a32cd" stroke="#9a32cd" points="43.85,-836.85 35.61,-830.18 37.89,-840.53 43.85,-836.85"/>
<text text-anchor="middle" x="241" y="-1005.96" font-family="Helvetica,sans-Serif" font-size="8.00"> S_MAX_META_BLOB_LENGTH</text>
</g>
<!-- Node9 -->
<g id="node13" class="node">
<title>Node9</title>
<g id="a_node13"><a xlink:title=" ">
<polygon fill="white" stroke="red" points="0,-762.86 0,-779.86 59,-779.86 59,-762.86 0,-762.86"/>
<text text-anchor="middle" x="29.5" y="-769.46" font-family="Helvetica,sans-Serif" font-size="8.00">std::string</text>
</a>
</g>
</g>
<!-- Node9&#45;&gt;Node20 -->
<g id="edge13" class="edge">
<title>Node9&#45;&gt;Node20</title>
<path fill="none" stroke="#9a32cd" stroke-dasharray="5,2" d="M69.29,-772.66C102.05,-773.75 149.33,-775.33 185.83,-776.55"/>
<polygon fill="#9a32cd" stroke="#9a32cd" points="69.3,-769.16 59.19,-772.32 69.07,-776.15 69.3,-769.16"/>
<text text-anchor="middle" x="110" y="-776.96" font-family="Helvetica,sans-Serif" font-size="8.00"> m_raw_name</text>
</g>
<!-- Node28 -->
<g id="node19" class="node">
<title>Node28</title>
<g id="a_node19"><a xlink:href="classipc_1_1transport_1_1Protocol__negotiator.html" target="_top" xlink:title="A simple state machine that, assuming the opposide side of a comm pathway uses an equivalent state ma...">
<polygon fill="white" stroke="black" points="506.5,-646.36 506.5,-672.36 617.5,-672.36 617.5,-646.36 506.5,-646.36"/>
<text text-anchor="start" x="514.5" y="-661.96" font-family="Helvetica,sans-Serif" font-size="8.00">ipc::transport::Protocol</text>
<text text-anchor="middle" x="562" y="-652.96" font-family="Helvetica,sans-Serif" font-size="8.00">_negotiator</text>
</a>
</g>
</g>
<!-- Node9&#45;&gt;Node28 -->
<g id="edge23" class="edge">
<title>Node9&#45;&gt;Node28</title>
<path fill="none" stroke="#9a32cd" stroke-dasharray="5,2" d="M69.4,-765.02C95.31,-760.89 130.15,-755.52 161,-751.36 229.73,-742.11 413.51,-754.15 471,-715.36 484.85,-706.02 476.12,-693 489,-682.36 494.16,-678.1 500.12,-674.62 506.36,-671.79"/>
<polygon fill="#9a32cd" stroke="#9a32cd" points="68.55,-761.61 59.23,-766.65 69.65,-768.52 68.55,-761.61"/>
<text text-anchor="middle" x="241" y="-753.96" font-family="Helvetica,sans-Serif" font-size="8.00"> m_nickname</text>
</g>
<!-- Node23 -->
<g id="node14" class="node">
<title>Node23</title>
<g id="a_node14"><a xlink:title=" ">
<polygon fill="white" stroke="#bfbfbf" points="205.5,-171.86 205.5,-188.86 276.5,-188.86 276.5,-171.86 205.5,-171.86"/>
<text text-anchor="middle" x="241" y="-178.46" font-family="Helvetica,sans-Serif" font-size="8.00">Task_asio_err</text>
</a>
</g>
</g>
<!-- Node23&#45;&gt;Node3 -->
<g id="edge26" class="edge">
<title>Node23&#45;&gt;Node3</title>
<path fill="none" stroke="#9a32cd" stroke-dasharray="5,2" d="M286.79,-177.06C333.17,-174.5 407.58,-172.81 471,-182.36 608.39,-203.06 670.9,-188.23 764,-291.36 780.39,-309.52 766.2,-324.69 782,-343.36 784.85,-346.72 788.01,-349.88 791.39,-352.83"/>
<polygon fill="#9a32cd" stroke="#9a32cd" points="286.54,-173.57 276.77,-177.65 286.96,-180.55 286.54,-173.57"/>
<text text-anchor="middle" x="562" y="-208.96" font-family="Helvetica,sans-Serif" font-size="8.00"> m_log_in_on_done_func</text>
</g>
<!-- Node23&#45;&gt;Node4 -->
<g id="edge14" class="edge">
<title>Node23&#45;&gt;Node4</title>
<path fill="none" stroke="#9a32cd" stroke-dasharray="5,2" d="M286.7,-178.44C336.33,-178.56 416.6,-185.68 471,-225.36 519.45,-260.7 544.94,-330.41 555.31,-366.12"/>
<polygon fill="#9a32cd" stroke="#9a32cd" points="286.57,-174.94 276.59,-178.51 286.62,-181.94 286.57,-174.94"/>
<text text-anchor="middle" x="405" y="-227.96" font-family="Helvetica,sans-Serif" font-size="8.00"> m_on_err_func</text>
</g>
<!-- Node24 -->
<g id="node15" class="node">
<title>Node24</title>
<g id="a_node15"><a xlink:title=" ">
<polygon fill="white" stroke="#bfbfbf" points="161,-255.86 161,-290.86 321,-290.86 321,-255.86 161,-255.86"/>
<text text-anchor="start" x="169" y="-280.46" font-family="Helvetica,sans-Serif" font-size="8.00">Function&lt; void(Channel</text>
<text text-anchor="start" x="169" y="-271.46" font-family="Helvetica,sans-Serif" font-size="8.00">_obj &amp;&amp;new_channel, Mdt</text>
<text text-anchor="middle" x="241" y="-262.46" font-family="Helvetica,sans-Serif" font-size="8.00">_reader_ptr &amp;&amp;new_channel_mdt)&gt;</text>
</a>
</g>
</g>
<!-- Node24&#45;&gt;Node4 -->
<g id="edge15" class="edge">
<title>Node24&#45;&gt;Node4</title>
<path fill="none" stroke="#9a32cd" stroke-dasharray="5,2" d="M331.18,-277.54C374.95,-282.29 427.48,-292.14 471,-312.36 498.63,-325.2 524.59,-348.84 541.46,-366.36"/>
<polygon fill="#9a32cd" stroke="#9a32cd" points="331.42,-274.05 321.12,-276.52 330.72,-281.01 331.42,-274.05"/>
<text text-anchor="start" x="344.5" y="-323.96" font-family="Helvetica,sans-Serif" font-size="8.00"> m_on_passive_open_channel</text>
<text text-anchor="middle" x="405" y="-314.96" font-family="Helvetica,sans-Serif" font-size="8.00">_func_or_empty</text>
</g>
<!-- Node25 -->
<g id="node16" class="node">
<title>Node25</title>
<g id="a_node16"><a xlink:title=" ">
<polygon fill="white" stroke="#bfbfbf" points="211,-217.86 211,-234.86 271,-234.86 271,-217.86 211,-217.86"/>
<text text-anchor="middle" x="241" y="-224.46" font-family="Helvetica,sans-Serif" font-size="8.00">Error_code</text>
</a>
</g>
</g>
<!-- Node25&#45;&gt;Node3 -->
<g id="edge32" class="edge">
<title>Node25&#45;&gt;Node3</title>
<path fill="none" stroke="#9a32cd" stroke-dasharray="5,2" d="M281.44,-224.98C327.46,-224.21 405.59,-225.47 471,-239.36 586.76,-263.95 713.59,-317.09 791.12,-352.79"/>
<polygon fill="#9a32cd" stroke="#9a32cd" points="281.22,-221.49 271.3,-225.2 281.37,-228.49 281.22,-221.49"/>
<text text-anchor="middle" x="562" y="-289.96" font-family="Helvetica,sans-Serif" font-size="8.00"> m_pre_init_err_code</text>
</g>
<!-- Node25&#45;&gt;Node4 -->
<g id="edge16" class="edge">
<title>Node25&#45;&gt;Node4</title>
<path fill="none" stroke="#9a32cd" stroke-dasharray="5,2" d="M281.11,-230.82C344.4,-238.16 463.01,-252.44 471,-257.36 512.71,-283.03 539.85,-336.08 552.57,-366.2"/>
<polygon fill="#9a32cd" stroke="#9a32cd" points="281.42,-227.34 271.09,-229.67 280.62,-234.29 281.42,-227.34"/>
<text text-anchor="start" x="356.5" y="-268.96" font-family="Helvetica,sans-Serif" font-size="8.00"> m_peer_state_err_code</text>
<text text-anchor="middle" x="405" y="-259.96" font-family="Helvetica,sans-Serif" font-size="8.00">_or_ok</text>
</g>
<!-- Node26 -->
<g id="node17" class="node">
<title>Node26</title>
<g id="a_node17"><a xlink:title=" ">
<polygon fill="white" stroke="#bfbfbf" points="187.5,-633.86 187.5,-650.86 294.5,-650.86 294.5,-633.86 187.5,-633.86"/>
<text text-anchor="middle" x="241" y="-640.46" font-family="Helvetica,sans-Serif" font-size="8.00">flow::log::Log_context</text>
</a>
</g>
</g>
<!-- Node26&#45;&gt;Node3 -->
<g id="edge17" class="edge">
<title>Node26&#45;&gt;Node3</title>
<path fill="none" stroke="midnightblue" d="M304.54,-637.12C351.34,-631.92 416.39,-621.92 471,-603.36 602.01,-558.83 740.8,-472.49 813.4,-423.86"/>
<polygon fill="midnightblue" stroke="midnightblue" points="304.12,-633.65 294.55,-638.19 304.86,-640.61 304.12,-633.65"/>
</g>
<!-- Node26&#45;&gt;Node28 -->
<g id="edge21" class="edge">
<title>Node26&#45;&gt;Node28</title>
<path fill="none" stroke="midnightblue" d="M304.94,-645.72C363.69,-648.85 450.47,-653.47 506.37,-656.45"/>
<polygon fill="midnightblue" stroke="midnightblue" points="304.85,-642.21 294.68,-645.17 304.48,-649.2 304.85,-642.21"/>
</g>
<!-- Node26&#45;&gt;Node40 -->
<g id="edge40" class="edge">
<title>Node26&#45;&gt;Node40</title>
<path fill="none" stroke="midnightblue" d="M305.03,-650.1C368.17,-658.32 457.82,-671.48 471,-681.36 485.63,-692.33 475.17,-706.39 489,-718.36 496.64,-724.98 506.2,-729.69 515.83,-733.05"/>
<polygon fill="midnightblue" stroke="midnightblue" points="305.12,-646.58 294.75,-648.77 304.22,-653.52 305.12,-646.58"/>
</g>
<!-- Node27 -->
<g id="node18" class="node">
<title>Node27</title>
<g id="a_node18"><a xlink:title=" ">
<polygon fill="white" stroke="#bfbfbf" points="535.5,-126.86 535.5,-143.86 588.5,-143.86 588.5,-126.86 535.5,-126.86"/>
<text text-anchor="middle" x="562" y="-133.46" font-family="Helvetica,sans-Serif" font-size="8.00">ShmType</text>
</a>
</g>
</g>
<!-- Node27&#45;&gt;Node3 -->
<g id="edge18" class="edge">
<title>Node27&#45;&gt;Node3</title>
<path fill="none" stroke="#9a32cd" stroke-dasharray="5,2" d="M598.88,-134.1C650.41,-133.12 741.67,-134.75 764,-157.36 793.18,-186.91 759.11,-308.72 782,-343.36 784.16,-346.63 786.64,-349.68 789.36,-352.52"/>
<polygon fill="#9a32cd" stroke="#9a32cd" points="598.74,-130.6 588.82,-134.33 598.9,-137.6 598.74,-130.6"/>
<text text-anchor="middle" x="708.5" y="-159.96" font-family="Helvetica,sans-Serif" font-size="8.00"> S_SHM_TYPE</text>
</g>
<!-- Node28&#45;&gt;Node3 -->
<g id="edge20" class="edge">
<title>Node28&#45;&gt;Node3</title>
<path fill="none" stroke="#9a32cd" stroke-dasharray="5,2" d="M627.89,-657.21C678.36,-654.29 743.21,-647.45 764,-631.36 830.08,-580.24 853.04,-478.03 860.76,-423.9"/>
<polygon fill="#9a32cd" stroke="#9a32cd" points="627.48,-653.72 617.68,-657.76 627.85,-660.71 627.48,-653.72"/>
<text text-anchor="middle" x="708.5" y="-665.96" font-family="Helvetica,sans-Serif" font-size="8.00"> m_protocol_negotiator</text>
<text text-anchor="middle" x="708.5" y="-656.96" font-family="Helvetica,sans-Serif" font-size="8.00">m_protocol_negotiator_aux</text>
</g>
<!-- Node29 -->
<g id="node20" class="node">
<title>Node29</title>
<g id="a_node20"><a xlink:title=" ">
<polygon fill="white" stroke="#bfbfbf" points="188.5,-571.36 188.5,-597.36 293.5,-597.36 293.5,-571.36 188.5,-571.36"/>
<text text-anchor="start" x="196.5" y="-586.96" font-family="Helvetica,sans-Serif" font-size="8.00">static constexpr proto</text>
<text text-anchor="middle" x="241" y="-577.96" font-family="Helvetica,sans-Serif" font-size="8.00">_ver_t</text>
</a>
</g>
</g>
<!-- Node29&#45;&gt;Node28 -->
<g id="edge22" class="edge">
<title>Node29&#45;&gt;Node28</title>
<path fill="none" stroke="#9a32cd" stroke-dasharray="5,2" d="M303.46,-592.23C349.96,-598.94 415.14,-609.95 471,-625.36 491.29,-630.96 513.41,-639.28 530.64,-646.29"/>
<polygon fill="#9a32cd" stroke="#9a32cd" points="303.93,-588.76 293.54,-590.82 302.95,-595.69 303.93,-588.76"/>
<text text-anchor="middle" x="405" y="-636.96" font-family="Helvetica,sans-Serif" font-size="8.00"> S_VER_UNKNOWN</text>
<text text-anchor="middle" x="405" y="-627.96" font-family="Helvetica,sans-Serif" font-size="8.00">S_VER_UNSUPPORTED</text>
</g>
<!-- Node30 -->
<g id="node21" class="node">
<title>Node30</title>
<g id="a_node21"><a xlink:title=" ">
<polygon fill="white" stroke="#bfbfbf" points="219,-688.86 219,-705.86 263,-705.86 263,-688.86 219,-688.86"/>
<text text-anchor="middle" x="241" y="-695.46" font-family="Helvetica,sans-Serif" font-size="8.00">int16_t</text>
</a>
</g>
</g>
<!-- Node30&#45;&gt;Node28 -->
<g id="edge24" class="edge">
<title>Node30&#45;&gt;Node28</title>
<path fill="none" stroke="#9a32cd" stroke-dasharray="5,2" d="M273.19,-693.65C327.26,-687.21 439.04,-673.89 506.28,-665.88"/>
<polygon fill="#9a32cd" stroke="#9a32cd" points="272.69,-690.18 263.18,-694.84 273.52,-697.13 272.69,-690.18"/>
<text text-anchor="middle" x="405" y="-704.96" font-family="Helvetica,sans-Serif" font-size="8.00"> m_local_max_proto_ver</text>
<text text-anchor="middle" x="405" y="-695.96" font-family="Helvetica,sans-Serif" font-size="8.00">m_local_min_proto_ver</text>
<text text-anchor="middle" x="405" y="-686.96" font-family="Helvetica,sans-Serif" font-size="8.00">m_negotiated_proto_ver</text>
</g>
<!-- Node31 -->
<g id="node22" class="node">
<title>Node31</title>
<g id="a_node22"><a xlink:title=" ">
<polygon fill="white" stroke="#bfbfbf" points="223.5,-933.86 223.5,-950.86 258.5,-950.86 258.5,-933.86 223.5,-933.86"/>
<text text-anchor="middle" x="241" y="-940.46" font-family="Helvetica,sans-Serif" font-size="8.00">bool</text>
</a>
</g>
</g>
<!-- Node31&#45;&gt;Node28 -->
<g id="edge25" class="edge">
<title>Node31&#45;&gt;Node28</title>
<path fill="none" stroke="#9a32cd" stroke-dasharray="5,2" d="M268.88,-938.07C326.47,-928.63 457.66,-905.66 471,-890.36 501.48,-855.39 460.05,-718.61 489,-682.36 493.59,-676.62 499.61,-672.29 506.23,-669.03"/>
<polygon fill="#9a32cd" stroke="#9a32cd" points="268.02,-934.67 258.71,-939.73 269.14,-941.58 268.02,-934.67"/>
<text text-anchor="middle" x="405" y="-926.96" font-family="Helvetica,sans-Serif" font-size="8.00"> m_local_max_proto_ver_sent</text>
</g>
<!-- Node31&#45;&gt;Node32 -->
<g id="edge29" class="edge">
<title>Node31&#45;&gt;Node32</title>
<path fill="none" stroke="#9a32cd" stroke-dasharray="5,2" d="M268.85,-942.53C319.58,-942.85 430.63,-943.54 500.26,-943.98"/>
<polygon fill="#9a32cd" stroke="#9a32cd" points="268.72,-939.03 258.7,-942.47 268.68,-946.03 268.72,-939.03"/>
<text text-anchor="middle" x="405" y="-972.96" font-family="Helvetica,sans-Serif" font-size="8.00"> S_BLOB_UNDERFLOW_ALLOWED</text>
<text text-anchor="start" x="339" y="-963.96" font-family="Helvetica,sans-Serif" font-size="8.00">S_META_BLOB_UNDERFLOW</text>
<text text-anchor="middle" x="405" y="-954.96" font-family="Helvetica,sans-Serif" font-size="8.00">_ALLOWED</text>
<text text-anchor="middle" x="405" y="-945.96" font-family="Helvetica,sans-Serif" font-size="8.00">S_TRANSMIT_NATIVE_HANDLES</text>
</g>
<!-- Node32&#45;&gt;Node3 -->
<g id="edge27" class="edge">
<title>Node32&#45;&gt;Node3</title>
<path fill="none" stroke="#9a32cd" stroke-dasharray="5,2" d="M585.55,-924.33C626.74,-886.59 714.41,-800.69 764,-711.36 817.58,-614.83 846.67,-485.88 858.34,-424.19"/>
<polygon fill="#9a32cd" stroke="#9a32cd" points="583.01,-921.91 577.96,-931.22 587.72,-927.09 583.01,-921.91"/>
<text text-anchor="middle" x="708.5" y="-858.96" font-family="Helvetica,sans-Serif" font-size="8.00"> m_master_sock_stm</text>
</g>
<!-- Node33 -->
<g id="node24" class="node">
<title>Node33</title>
<g id="a_node24"><a xlink:title=" ">
<polygon fill="white" stroke="#bfbfbf" points="182,-1022.86 182,-1057.86 300,-1057.86 300,-1022.86 182,-1022.86"/>
<text text-anchor="start" x="190" y="-1047.46" font-family="Helvetica,sans-Serif" font-size="8.00">propagate_const&lt; boost</text>
<text text-anchor="start" x="190" y="-1038.46" font-family="Helvetica,sans-Serif" font-size="8.00">::movelib::unique_ptr</text>
<text text-anchor="middle" x="241" y="-1029.46" font-family="Helvetica,sans-Serif" font-size="8.00">&lt; Impl &gt; &gt;</text>
</a>
</g>
</g>
<!-- Node33&#45;&gt;Node32 -->
<g id="edge31" class="edge">
<title>Node33&#45;&gt;Node32</title>
<path fill="none" stroke="#9a32cd" stroke-dasharray="5,2" d="M310.46,-1039.76C357.16,-1037.29 419.63,-1029.88 471,-1009.36 501.25,-997.28 530.78,-972.82 547.36,-957.59"/>
<polygon fill="#9a32cd" stroke="#9a32cd" points="310.27,-1036.26 300.44,-1040.23 310.59,-1043.26 310.27,-1036.26"/>
<text text-anchor="middle" x="405" y="-1038.96" font-family="Helvetica,sans-Serif" font-size="8.00"> m_impl</text>
</g>
<!-- Node34 -->
<g id="node25" class="node">
<title>Node34</title>
<g id="a_node25"><a xlink:title=" ">
<polygon fill="white" stroke="#bfbfbf" points="528,-81.86 528,-98.86 596,-98.86 596,-81.86 528,-81.86"/>
<text text-anchor="middle" x="562" y="-88.46" font-family="Helvetica,sans-Serif" font-size="8.00">unsigned int</text>
</a>
</g>
</g>
<!-- Node34&#45;&gt;Node3 -->
<g id="edge33" class="edge">
<title>Node34&#45;&gt;Node3</title>
<path fill="none" stroke="#9a32cd" stroke-dasharray="5,2" d="M606.18,-82.81C658.37,-74.79 741.98,-65.83 764,-86.36 805.87,-125.4 751.07,-295.18 782,-343.36 784.12,-346.66 786.56,-349.73 789.25,-352.59"/>
<polygon fill="#9a32cd" stroke="#9a32cd" points="605.51,-79.37 596.18,-84.39 606.61,-86.29 605.51,-79.37"/>
<text text-anchor="start" x="656.5" y="-124.96" font-family="Helvetica,sans-Serif" font-size="8.00"> m_last_actively_opened</text>
<text text-anchor="middle" x="708.5" y="-115.96" font-family="Helvetica,sans-Serif" font-size="8.00">_channel_id</text>
<text text-anchor="middle" x="708.5" y="-106.96" font-family="Helvetica,sans-Serif" font-size="8.00">m_last_channel_mq_id</text>
<text text-anchor="start" x="656.5" y="-97.96" font-family="Helvetica,sans-Serif" font-size="8.00">m_last_passively_opened</text>
<text text-anchor="middle" x="708.5" y="-88.96" font-family="Helvetica,sans-Serif" font-size="8.00">_channel_id</text>
</g>
<!-- Node35 -->
<g id="node26" class="node">
<title>Node35</title>
<g id="a_node26"><a xlink:title=" ">
<polygon fill="white" stroke="#bfbfbf" points="504,-45.86 504,-62.86 620,-62.86 620,-45.86 504,-45.86"/>
<text text-anchor="middle" x="562" y="-52.46" font-family="Helvetica,sans-Serif" font-size="8.00">Single_thread_task_loop</text>
</a>
</g>
</g>
<!-- Node35&#45;&gt;Node3 -->
<g id="edge34" class="edge">
<title>Node35&#45;&gt;Node3</title>
<path fill="none" stroke="#9a32cd" stroke-dasharray="5,2" d="M630.11,-47.44C681.07,-43.83 745.45,-43.34 764,-61.36 809.04,-105.12 748.24,-290.41 782,-343.36 784.11,-346.66 786.54,-349.74 789.23,-352.61"/>
<polygon fill="#9a32cd" stroke="#9a32cd" points="629.82,-43.96 620.12,-48.2 630.35,-50.94 629.82,-43.96"/>
<text text-anchor="middle" x="708.5" y="-63.96" font-family="Helvetica,sans-Serif" font-size="8.00"> m_async_worker</text>
</g>
<!-- Node36 -->
<g id="node27" class="node">
<title>Node36</title>
<g id="a_node27"><a xlink:title=" ">
<polygon fill="white" stroke="#bfbfbf" points="491,-9.86 491,-26.86 633,-26.86 633,-9.86 491,-9.86"/>
<text text-anchor="middle" x="562" y="-16.46" font-family="Helvetica,sans-Serif" font-size="8.00">Master_structured_channel_ptr</text>
</a>
</g>
</g>
<!-- Node36&#45;&gt;Node3 -->
<g id="edge35" class="edge">
<title>Node36&#45;&gt;Node3</title>
<path fill="none" stroke="#9a32cd" stroke-dasharray="5,2" d="M603.09,-7.65C648.85,1.89 722.71,8.62 764,-33.36 788.19,-57.96 763.53,-314.22 782,-343.36 784.1,-346.67 786.52,-349.75 789.2,-352.62"/>
<polygon fill="#9a32cd" stroke="#9a32cd" points="602.21,-4.26 593.21,-9.84 603.73,-11.09 602.21,-4.26"/>
<text text-anchor="middle" x="708.5" y="-35.96" font-family="Helvetica,sans-Serif" font-size="8.00"> m_master_channel</text>
</g>
<!-- Node37 -->
<g id="node28" class="node">
<title>Node37</title>
<g id="a_node28"><a xlink:href="classFunction_3_01void_07_08_4.html" target="_top" xlink:title=" ">
<polygon fill="white" stroke="#bfbfbf" points="516.5,-691.86 516.5,-708.86 607.5,-708.86 607.5,-691.86 516.5,-691.86"/>
<text text-anchor="middle" x="562" y="-698.46" font-family="Helvetica,sans-Serif" font-size="8.00">Function&lt; void()&gt;</text>
</a>
</g>
</g>
<!-- Node37&#45;&gt;Node3 -->
<g id="edge36" class="edge">
<title>Node37&#45;&gt;Node3</title>
<path fill="none" stroke="#9a32cd" stroke-dasharray="5,2" d="M617.96,-700.18C669.62,-698.91 742.17,-693.9 764,-676.36 842.02,-613.67 859.62,-486.57 863.48,-424.33"/>
<polygon fill="#9a32cd" stroke="#9a32cd" points="617.85,-696.68 607.93,-700.39 618,-703.68 617.85,-696.68"/>
<text text-anchor="middle" x="708.5" y="-700.96" font-family="Helvetica,sans-Serif" font-size="8.00"> m_deinit_func_or_empty</text>
</g>
<!-- Node38 -->
<g id="node29" class="node">
<title>Node38</title>
<g id="a_node29"><a xlink:title=" ">
<polygon fill="white" stroke="#bfbfbf" points="802.5,-316.86 802.5,-333.86 928.5,-333.86 928.5,-316.86 802.5,-316.86"/>
<text text-anchor="middle" x="865.5" y="-323.46" font-family="Helvetica,sans-Serif" font-size="8.00">static constexpr scope_id_t</text>
</a>
</g>
</g>
<!-- Node38&#45;&gt;Node2 -->
<g id="edge37" class="edge">
<title>Node38&#45;&gt;Node2</title>
<path fill="none" stroke="#9a32cd" stroke-dasharray="5,2" d="M938.74,-330.69C973.61,-333.48 1016.02,-337.18 1054,-341.36 1059.8,-342 1065.76,-342.7 1071.77,-343.43"/>
<polygon fill="#9a32cd" stroke="#9a32cd" points="938.89,-327.19 928.65,-329.89 938.34,-334.17 938.89,-327.19"/>
<text text-anchor="middle" x="1010.5" y="-352.96" font-family="Helvetica,sans-Serif" font-size="8.00"> S_SCOPE_ID_APP</text>
<text text-anchor="middle" x="1010.5" y="-343.96" font-family="Helvetica,sans-Serif" font-size="8.00">S_SCOPE_ID_SESSION</text>
</g>
<!-- Node39 -->
<g id="node30" class="node">
<title>Node39</title>
<g id="a_node30"><a xlink:title=" ">
<polygon fill="white" stroke="#bfbfbf" points="814.5,-280.86 814.5,-297.86 916.5,-297.86 916.5,-280.86 814.5,-280.86"/>
<text text-anchor="middle" x="865.5" y="-287.46" font-family="Helvetica,sans-Serif" font-size="8.00">unique_ptr&lt; Arena &gt;</text>
</a>
</g>
</g>
<!-- Node39&#45;&gt;Node2 -->
<g id="edge38" class="edge">
<title>Node39&#45;&gt;Node2</title>
<path fill="none" stroke="#9a32cd" stroke-dasharray="5,2" d="M926.77,-296.99C963.77,-302.24 1011.95,-310.13 1054,-320.36 1059.81,-321.78 1065.75,-323.34 1071.72,-325"/>
<polygon fill="#9a32cd" stroke="#9a32cd" points="927.04,-293.49 916.65,-295.57 926.07,-300.42 927.04,-293.49"/>
<text text-anchor="middle" x="1010.5" y="-322.96" font-family="Helvetica,sans-Serif" font-size="8.00"> m_session_shm</text>
</g>
<!-- Node40&#45;&gt;Node2 -->
<g id="edge39" class="edge">
<title>Node40&#45;&gt;Node2</title>
<path fill="none" stroke="#9a32cd" stroke-dasharray="5,2" d="M618.21,-741.5C660.02,-739.66 717.92,-732.85 764,-711.36 923.47,-636.99 1066.31,-478.57 1129.96,-401.01"/>
<polygon fill="#9a32cd" stroke="#9a32cd" points="618.08,-738 608.22,-741.85 618.33,-744.99 618.08,-738"/>
<text text-anchor="middle" x="865.5" y="-702.96" font-family="Helvetica,sans-Serif" font-size="8.00"> m_app_shm</text>
</g>
<!-- Node41 -->
<g id="node32" class="node">
<title>Node41</title>
<g id="a_node32"><a xlink:title=" ">
<polygon fill="white" stroke="#bfbfbf" points="193.5,-895.86 193.5,-912.86 288.5,-912.86 288.5,-895.86 193.5,-895.86"/>
<text text-anchor="middle" x="241" y="-902.46" font-family="Helvetica,sans-Serif" font-size="8.00">unique_ptr&lt; Pool &gt;</text>
</a>
</g>
</g>
<!-- Node41&#45;&gt;Node40 -->
<g id="edge43" class="edge">
<title>Node41&#45;&gt;Node40</title>
<path fill="none" stroke="#9a32cd" stroke-dasharray="5,2" d="M290.87,-893.61C300.86,-891.3 311.28,-888.82 321,-886.36 329.05,-884.33 330.9,-883.19 339,-881.36 397.09,-868.27 420.04,-889.17 471,-858.36 513.33,-832.77 542.99,-779.27 555.02,-754.48"/>
<polygon fill="#9a32cd" stroke="#9a32cd" points="290.03,-890.2 281.06,-895.84 291.59,-897.03 290.03,-890.2"/>
<text text-anchor="middle" x="405" y="-883.96" font-family="Helvetica,sans-Serif" font-size="8.00"> m_pool</text>
</g>
</g>
</svg>
