<?xml version="1.0" encoding="UTF-8" standalone="no"?>
<!DOCTYPE svg PUBLIC "-//W3C//DTD SVG 1.1//EN"
 "http://www.w3.org/Graphics/SVG/1.1/DTD/svg11.dtd">
<!-- Generated by graphviz version 2.43.0 (0)
 -->
<!-- Title: ipc::session::shm::arena_lend::jemalloc::Server_session&lt; S_MQ_TYPE_OR_NONE, S_TRANSMIT_NATIVE_HANDLES, Mdt_payload &gt; Pages: 1 -->
<svg width="1038pt" height="130pt"
 viewBox="0.00 0.00 1038.00 130.00" xmlns="http://www.w3.org/2000/svg" xmlns:xlink="http://www.w3.org/1999/xlink">
<g id="graph0" class="graph" transform="scale(1 1) rotate(0) translate(4 126)">
<title>ipc::session::shm::arena_lend::jemalloc::Server_session&lt; S_MQ_TYPE_OR_NONE, S_TRANSMIT_NATIVE_HANDLES, Mdt_payload &gt;</title>
<polygon fill="white" stroke="transparent" points="-4,4 -4,-126 1034,-126 1034,4 -4,4"/>
<!-- Node1 -->
<g id="node1" class="node">
<title>Node1</title>
<g id="a_node1"><a xlink:title="Identical to session::Server_session in every way, except that it makes available two SHM arenas,...">
<polygon fill="#bfbfbf" stroke="black" points="874,-36.5 874,-89.5 1030,-89.5 1030,-36.5 874,-36.5"/>
<text text-anchor="start" x="882" y="-79.1" font-family="Helvetica,sans-Serif" font-size="8.00">ipc::session::shm::</text>
<text text-anchor="start" x="882" y="-70.1" font-family="Helvetica,sans-Serif" font-size="8.00">arena_lend::jemalloc</text>
<text text-anchor="start" x="882" y="-61.1" font-family="Helvetica,sans-Serif" font-size="8.00">::Server_session&lt; S_MQ</text>
<text text-anchor="start" x="882" y="-52.1" font-family="Helvetica,sans-Serif" font-size="8.00">_TYPE_OR_NONE, S_TRANSMIT</text>
<text text-anchor="middle" x="952" y="-43.1" font-family="Helvetica,sans-Serif" font-size="8.00">_NATIVE_HANDLES, Mdt_payload &gt;</text>
</a>
</g>
</g>
<!-- Node2 -->
<g id="node2" class="node">
<title>Node2</title>
<g id="a_node2"><a xlink:href="classipc_1_1session_1_1shm_1_1arena__lend_1_1jemalloc_1_1Session__mv.html" target="_top" xlink:title=" ">
<polygon fill="white" stroke="black" points="662,-27.5 662,-98.5 837,-98.5 837,-27.5 662,-27.5"/>
<text text-anchor="start" x="670" y="-88.1" font-family="Helvetica,sans-Serif" font-size="8.00">ipc::session::shm::</text>
<text text-anchor="start" x="670" y="-79.1" font-family="Helvetica,sans-Serif" font-size="8.00">arena_lend::jemalloc</text>
<text text-anchor="start" x="670" y="-70.1" font-family="Helvetica,sans-Serif" font-size="8.00">::Session_mv&lt; session</text>
<text text-anchor="start" x="670" y="-61.1" font-family="Helvetica,sans-Serif" font-size="8.00">::Server_session_mv&lt; Server</text>
<text text-anchor="start" x="670" y="-52.1" font-family="Helvetica,sans-Serif" font-size="8.00">_session_impl&lt; S_MQ_TYPE_OR</text>
<text text-anchor="start" x="670" y="-43.1" font-family="Helvetica,sans-Serif" font-size="8.00">_NONE, S_TRANSMIT_NATIVE_HANDLES,</text>
<text text-anchor="middle" x="749.5" y="-34.1" font-family="Helvetica,sans-Serif" font-size="8.00"> Mdt_payload &gt; &gt; &gt;</text>
</a>
</g>
</g>
<!-- Node2&#45;&gt;Node1 -->
<g id="edge1" class="edge">
<title>Node2&#45;&gt;Node1</title>
<path fill="none" stroke="midnightblue" d="M847.31,-63C856.22,-63 865.16,-63 873.86,-63"/>
<polygon fill="midnightblue" stroke="midnightblue" points="847.28,-59.5 837.28,-63 847.28,-66.5 847.28,-59.5"/>
</g>
<!-- Node3 -->
<g id="node3" class="node">
<title>Node3</title>
<g id="a_node3"><a xlink:href="classipc_1_1session_1_1Server__session__mv.html" target="_top" xlink:title=" ">
<polygon fill="white" stroke="black" points="479,-36.5 479,-89.5 625,-89.5 625,-36.5 479,-36.5"/>
<text text-anchor="start" x="487" y="-79.1" font-family="Helvetica,sans-Serif" font-size="8.00">ipc::session::Server</text>
<text text-anchor="start" x="487" y="-70.1" font-family="Helvetica,sans-Serif" font-size="8.00">_session_mv&lt; Server_session</text>
<text text-anchor="start" x="487" y="-61.1" font-family="Helvetica,sans-Serif" font-size="8.00">_impl&lt; S_MQ_TYPE_OR_NONE,</text>
<text text-anchor="start" x="487" y="-52.1" font-family="Helvetica,sans-Serif" font-size="8.00"> S_TRANSMIT_NATIVE_HANDLES,</text>
<text text-anchor="middle" x="552" y="-43.1" font-family="Helvetica,sans-Serif" font-size="8.00"> Mdt_payload &gt; &gt;</text>
</a>
</g>
</g>
<!-- Node3&#45;&gt;Node2 -->
<g id="edge2" class="edge">
<title>Node3&#45;&gt;Node2</title>
<path fill="none" stroke="midnightblue" d="M635.45,-63C644.23,-63 653.17,-63 661.99,-63"/>
<polygon fill="midnightblue" stroke="midnightblue" points="635.24,-59.5 625.24,-63 635.24,-66.5 635.24,-59.5"/>
</g>
<!-- Node4 -->
<g id="node4" class="node">
<title>Node4</title>
<g id="a_node4"><a xlink:href="classipc_1_1session_1_1Session__mv.html" target="_top" xlink:title=" ">
<polygon fill="white" stroke="black" points="274,-41 274,-85 442,-85 442,-41 274,-41"/>
<text text-anchor="start" x="282" y="-74.6" font-family="Helvetica,sans-Serif" font-size="8.00">ipc::session::Session</text>
<text text-anchor="start" x="282" y="-65.6" font-family="Helvetica,sans-Serif" font-size="8.00">_mv&lt; Server_session_impl</text>
<text text-anchor="start" x="282" y="-56.6" font-family="Helvetica,sans-Serif" font-size="8.00">&lt; S_MQ_TYPE_OR_NONE, S_TRANSMIT</text>
<text text-anchor="middle" x="358" y="-47.6" font-family="Helvetica,sans-Serif" font-size="8.00">_NATIVE_HANDLES, Mdt_payload &gt; &gt;</text>
</a>
</g>
</g>
<!-- Node4&#45;&gt;Node3 -->
<g id="edge3" class="edge">
<title>Node4&#45;&gt;Node3</title>
<path fill="none" stroke="midnightblue" d="M452.2,-63C461.18,-63 470.2,-63 478.92,-63"/>
<polygon fill="midnightblue" stroke="midnightblue" points="452.1,-59.5 442.1,-63 452.1,-66.5 452.1,-59.5"/>
</g>
<!-- Node5 -->
<g id="node5" class="node">
<title>Node5</title>
<g id="a_node5"><a xlink:title=" ">
<polygon fill="white" stroke="#bfbfbf" points="32.5,-104.5 32.5,-121.5 85.5,-121.5 85.5,-104.5 32.5,-104.5"/>
<text text-anchor="middle" x="59" y="-111.1" font-family="Helvetica,sans-Serif" font-size="8.00">ShmType</text>
</a>
</g>
</g>
<!-- Node5&#45;&gt;Node4 -->
<g id="edge4" class="edge">
<title>Node5&#45;&gt;Node4</title>
<path fill="none" stroke="#9a32cd" stroke-dasharray="5,2" d="M95.75,-110.7C135.23,-107.76 200.57,-101.72 256,-91 264.66,-89.32 273.67,-87.28 282.58,-85.06"/>
<polygon fill="#9a32cd" stroke="#9a32cd" points="95.29,-107.22 85.57,-111.43 95.79,-114.2 95.29,-107.22"/>
<text text-anchor="middle" x="196" y="-108.6" font-family="Helvetica,sans-Serif" font-size="8.00"> S_SHM_TYPE</text>
</g>
<!-- Node6 -->
<g id="node6" class="node">
<title>Node6</title>
<g id="a_node6"><a xlink:title=" ">
<polygon fill="white" stroke="#bfbfbf" points="8.5,-54.5 8.5,-71.5 109.5,-71.5 109.5,-54.5 8.5,-54.5"/>
<text text-anchor="middle" x="59" y="-61.1" font-family="Helvetica,sans-Serif" font-size="8.00">static constexpr bool</text>
</a>
</g>
</g>
<!-- Node6&#45;&gt;Node4 -->
<g id="edge5" class="edge">
<title>Node6&#45;&gt;Node4</title>
<path fill="none" stroke="#9a32cd" stroke-dasharray="5,2" d="M119.74,-63C164.02,-63 224.94,-63 273.96,-63"/>
<polygon fill="#9a32cd" stroke="#9a32cd" points="119.71,-59.5 109.71,-63 119.71,-66.5 119.71,-59.5"/>
<text text-anchor="middle" x="196" y="-83.6" font-family="Helvetica,sans-Serif" font-size="8.00"> S_MQS_ENABLED</text>
<text text-anchor="middle" x="196" y="-74.6" font-family="Helvetica,sans-Serif" font-size="8.00">S_SHM_ENABLED</text>
<text text-anchor="middle" x="196" y="-65.6" font-family="Helvetica,sans-Serif" font-size="8.00">S_SOCKET_STREAM_ENABLED</text>
</g>
<!-- Node7 -->
<g id="node7" class="node">
<title>Node7</title>
<g id="a_node7"><a xlink:title=" ">
<polygon fill="white" stroke="#bfbfbf" points="0,-0.5 0,-35.5 118,-35.5 118,-0.5 0,-0.5"/>
<text text-anchor="start" x="8" y="-25.1" font-family="Helvetica,sans-Serif" font-size="8.00">propagate_const&lt; boost</text>
<text text-anchor="start" x="8" y="-16.1" font-family="Helvetica,sans-Serif" font-size="8.00">::movelib::unique_ptr</text>
<text text-anchor="middle" x="59" y="-7.1" font-family="Helvetica,sans-Serif" font-size="8.00">&lt; Impl &gt; &gt;</text>
</a>
</g>
</g>
<!-- Node7&#45;&gt;Node4 -->
<g id="edge6" class="edge">
<title>Node7&#45;&gt;Node4</title>
<path fill="none" stroke="#9a32cd" stroke-dasharray="5,2" d="M128.47,-28.37C171.75,-34.93 227.96,-43.45 273.8,-50.39"/>
<polygon fill="#9a32cd" stroke="#9a32cd" points="128.73,-24.87 118.32,-26.84 127.69,-31.8 128.73,-24.87"/>
<text text-anchor="middle" x="196" y="-49.6" font-family="Helvetica,sans-Serif" font-size="8.00"> m_impl</text>
</g>
</g>
</svg>
