<?xml version="1.0" encoding="UTF-8" standalone="no"?>
<!DOCTYPE svg PUBLIC "-//W3C//DTD SVG 1.1//EN"
 "http://www.w3.org/Graphics/SVG/1.1/DTD/svg11.dtd">
<!-- Generated by graphviz version 2.43.0 (0)
 -->
<!-- Title: ipc::transport::sync_io::Native_socket_stream::sync_connect Pages: 1 -->
<svg width="270pt" height="44pt"
 viewBox="0.00 0.00 270.00 44.00" xmlns="http://www.w3.org/2000/svg" xmlns:xlink="http://www.w3.org/1999/xlink">
<g id="graph0" class="graph" transform="scale(1 1) rotate(0) translate(4 40)">
<title>ipc::transport::sync_io::Native_socket_stream::sync_connect</title>
<polygon fill="white" stroke="transparent" points="-4,4 -4,-40 266,-40 266,4 -4,4"/>
<!-- Node1 -->
<g id="node1" class="node">
<title>Node1</title>
<g id="a_node1"><a xlink:title="Identical to Async_io_obj counterpart.">
<polygon fill="#bfbfbf" stroke="black" points="139,-0.5 139,-35.5 262,-35.5 262,-0.5 139,-0.5"/>
<text text-anchor="start" x="147" y="-25.1" font-family="Helvetica,sans-Serif" font-size="8.00">ipc::transport::sync</text>
<text text-anchor="start" x="147" y="-16.1" font-family="Helvetica,sans-Serif" font-size="8.00">_io::Native_socket_stream</text>
<text text-anchor="middle" x="200.5" y="-7.1" font-family="Helvetica,sans-Serif" font-size="8.00">::sync_connect</text>
</a>
</g>
</g>
<!-- Node2 -->
<g id="node2" class="node">
<title>Node2</title>
<g id="a_node2"><a xlink:href="classipc_1_1session_1_1Client__session__impl.html#a56c0d2b0ff082d1f7b0738e2528b4a92" target="_top" xlink:title="Core implementation of sync_connect().">
<polygon fill="white" stroke="black" points="0,-0.5 0,-35.5 103,-35.5 103,-0.5 0,-0.5"/>
<text text-anchor="start" x="8" y="-25.1" font-family="Helvetica,sans-Serif" font-size="8.00">ipc::session::Client</text>
<text text-anchor="start" x="8" y="-16.1" font-family="Helvetica,sans-Serif" font-size="8.00">_session_impl::async</text>
<text text-anchor="middle" x="51.5" y="-7.1" font-family="Helvetica,sans-Serif" font-size="8.00">_connect</text>
</a>
</g>
</g>
<!-- Node1&#45;&gt;Node2 -->
<g id="edge1" class="edge">
<title>Node1&#45;&gt;Node2</title>
<path fill="none" stroke="midnightblue" d="M128.77,-18C120.13,-18 111.44,-18 103.18,-18"/>
<polygon fill="midnightblue" stroke="midnightblue" points="128.86,-21.5 138.86,-18 128.86,-14.5 128.86,-21.5"/>
</g>
</g>
</svg>
