<?xml version="1.0" encoding="UTF-8" standalone="no"?>
<!DOCTYPE svg PUBLIC "-//W3C//DTD SVG 1.1//EN"
 "http://www.w3.org/Graphics/SVG/1.1/DTD/svg11.dtd">
<!-- Generated by graphviz version 2.43.0 (0)
 -->
<!-- Title: ipc::shm::classic::Pool_arena Pages: 1 -->
<svg width="569pt" height="279pt"
 viewBox="0.00 0.00 569.00 279.00" xmlns="http://www.w3.org/2000/svg" xmlns:xlink="http://www.w3.org/1999/xlink">
<g id="graph0" class="graph" transform="scale(1 1) rotate(0) translate(4 275)">
<title>ipc::shm::classic::Pool_arena</title>
<polygon fill="white" stroke="transparent" points="-4,4 -4,-275 565,-275 565,4 -4,4"/>
<!-- Node1 -->
<g id="node1" class="node">
<title>Node1</title>
<g id="a_node1"><a xlink:title="A SHM&#45;classic interface around a single SHM pool with allocation&#45;algorithm services by boost....">
<polygon fill="#bfbfbf" stroke="black" points="167.5,-0.5 167.5,-26.5 259.5,-26.5 259.5,-0.5 167.5,-0.5"/>
<text text-anchor="start" x="175.5" y="-16.1" font-family="Helvetica,sans-Serif" font-size="8.00">ipc::shm::classic::</text>
<text text-anchor="middle" x="213.5" y="-7.1" font-family="Helvetica,sans-Serif" font-size="8.00">Pool_arena</text>
</a>
</g>
</g>
<!-- Node2 -->
<g id="node2" class="node">
<title>Node2</title>
<g id="a_node2"><a xlink:title=" ">
<polygon fill="white" stroke="#bfbfbf" points="0,-99.5 0,-116.5 107,-116.5 107,-99.5 0,-99.5"/>
<text text-anchor="middle" x="53.5" y="-106.1" font-family="Helvetica,sans-Serif" font-size="8.00">flow::log::Log_context</text>
</a>
</g>
</g>
<!-- Node2&#45;&gt;Node1 -->
<g id="edge1" class="edge">
<title>Node2&#45;&gt;Node1</title>
<path fill="none" stroke="midnightblue" d="M75.3,-94.4C106.14,-76.57 162.12,-44.2 192.51,-26.63"/>
<polygon fill="midnightblue" stroke="midnightblue" points="73.5,-91.4 66.59,-99.43 77,-97.46 73.5,-91.4"/>
</g>
<!-- Node3 -->
<g id="node3" class="node">
<title>Node3</title>
<g id="a_node3"><a xlink:title=" ">
<polygon fill="white" stroke="#bfbfbf" points="125,-99.5 125,-116.5 224,-116.5 224,-99.5 125,-99.5"/>
<text text-anchor="middle" x="174.5" y="-106.1" font-family="Helvetica,sans-Serif" font-size="8.00">boost::noncopyable</text>
</a>
</g>
</g>
<!-- Node3&#45;&gt;Node1 -->
<g id="edge2" class="edge">
<title>Node3&#45;&gt;Node1</title>
<path fill="none" stroke="#8b1a1a" d="M181.66,-90.03C189.37,-71.72 201.47,-43.03 208.32,-26.79"/>
<polygon fill="#8b1a1a" stroke="#8b1a1a" points="178.35,-88.86 177.69,-99.43 184.8,-91.58 178.35,-88.86"/>
</g>
<!-- Node4 -->
<g id="node4" class="node">
<title>Node4</title>
<g id="a_node4"><a xlink:href="classipc_1_1util_1_1Shared__name.html" target="_top" xlink:title="String&#45;wrapping abstraction representing a name uniquely distinguishing a kernel&#45;persistent entity fr...">
<polygon fill="white" stroke="black" points="242.5,-99.5 242.5,-116.5 352.5,-116.5 352.5,-99.5 242.5,-99.5"/>
<text text-anchor="middle" x="297.5" y="-106.1" font-family="Helvetica,sans-Serif" font-size="8.00">ipc::util::Shared_name</text>
</a>
</g>
</g>
<!-- Node4&#45;&gt;Node1 -->
<g id="edge3" class="edge">
<title>Node4&#45;&gt;Node1</title>
<path fill="none" stroke="#9a32cd" stroke-dasharray="5,2" d="M283.46,-91.54C266.94,-73.34 239.83,-43.49 224.66,-26.79"/>
<polygon fill="#9a32cd" stroke="#9a32cd" points="281.31,-94.38 290.63,-99.43 286.49,-89.67 281.31,-94.38"/>
<text text-anchor="middle" x="278" y="-47.6" font-family="Helvetica,sans-Serif" font-size="8.00"> m_pool_name</text>
</g>
<!-- Node4&#45;&gt;Node4 -->
<g id="edge4" class="edge">
<title>Node4&#45;&gt;Node4</title>
<path fill="none" stroke="#9a32cd" stroke-dasharray="5,2" d="M331.02,-118.17C351.32,-120.49 370.5,-117.1 370.5,-108 370.5,-97.41 344.53,-94.55 321.05,-99.44"/>
<polygon fill="#9a32cd" stroke="#9a32cd" points="331.48,-114.69 321.05,-116.56 330.37,-121.6 331.48,-114.69"/>
<text text-anchor="middle" x="409" y="-137.6" font-family="Helvetica,sans-Serif" font-size="8.00"> S_1ST_OR_ONLY</text>
<text text-anchor="middle" x="409" y="-128.6" font-family="Helvetica,sans-Serif" font-size="8.00">S_EMPTY</text>
<text text-anchor="start" x="370.5" y="-119.6" font-family="Helvetica,sans-Serif" font-size="8.00">S_RESOURCE_TYPE</text>
<text text-anchor="middle" x="409" y="-110.6" font-family="Helvetica,sans-Serif" font-size="8.00">_ID_MUTEX</text>
<text text-anchor="start" x="370.5" y="-101.6" font-family="Helvetica,sans-Serif" font-size="8.00">S_RESOURCE_TYPE</text>
<text text-anchor="middle" x="409" y="-92.6" font-family="Helvetica,sans-Serif" font-size="8.00">_ID_SHM</text>
<text text-anchor="middle" x="409" y="-83.6" font-family="Helvetica,sans-Serif" font-size="8.00">S_ROOT_MAGIC</text>
<text text-anchor="middle" x="409" y="-74.6" font-family="Helvetica,sans-Serif" font-size="8.00">S_SENTINEL</text>
</g>
<!-- Node5 -->
<g id="node5" class="node">
<title>Node5</title>
<g id="a_node5"><a xlink:title=" ">
<polygon fill="white" stroke="#bfbfbf" points="188.5,-189.5 188.5,-206.5 228.5,-206.5 228.5,-189.5 188.5,-189.5"/>
<text text-anchor="middle" x="208.5" y="-196.1" font-family="Helvetica,sans-Serif" font-size="8.00">size_t</text>
</a>
</g>
</g>
<!-- Node5&#45;&gt;Node4 -->
<g id="edge5" class="edge">
<title>Node5&#45;&gt;Node4</title>
<path fill="none" stroke="#9a32cd" stroke-dasharray="5,2" d="M215.82,-180.14C218.91,-174.06 222.88,-167.37 227.5,-162 244.19,-142.58 269.12,-125.82 284.29,-116.6"/>
<polygon fill="#9a32cd" stroke="#9a32cd" points="212.52,-178.92 211.47,-189.46 218.87,-181.88 212.52,-178.92"/>
<text text-anchor="middle" x="260.5" y="-164.6" font-family="Helvetica,sans-Serif" font-size="8.00"> S_MAX_LENGTH</text>
</g>
<!-- Node6 -->
<g id="node6" class="node">
<title>Node6</title>
<g id="a_node6"><a xlink:title=" ">
<polygon fill="white" stroke="#bfbfbf" points="255.5,-189.5 255.5,-206.5 339.5,-206.5 339.5,-189.5 255.5,-189.5"/>
<text text-anchor="middle" x="297.5" y="-196.1" font-family="Helvetica,sans-Serif" font-size="8.00">static const char</text>
</a>
</g>
</g>
<!-- Node6&#45;&gt;Node4 -->
<g id="edge6" class="edge">
<title>Node6&#45;&gt;Node4</title>
<path fill="none" stroke="#9a32cd" stroke-dasharray="5,2" d="M297.5,-179.44C297.5,-160.34 297.5,-130.67 297.5,-116.73"/>
<polygon fill="#9a32cd" stroke="#9a32cd" points="294,-179.5 297.5,-189.5 301,-179.5 294,-179.5"/>
<text text-anchor="middle" x="326.5" y="-164.6" font-family="Helvetica,sans-Serif" font-size="8.00"> S_SEPARATOR</text>
</g>
<!-- Node7 -->
<g id="node7" class="node">
<title>Node7</title>
<g id="a_node7"><a xlink:title=" ">
<polygon fill="white" stroke="black" points="358,-189.5 358,-206.5 417,-206.5 417,-189.5 358,-189.5"/>
<text text-anchor="middle" x="387.5" y="-196.1" font-family="Helvetica,sans-Serif" font-size="8.00">std::string</text>
</a>
</g>
</g>
<!-- Node7&#45;&gt;Node4 -->
<g id="edge7" class="edge">
<title>Node7&#45;&gt;Node4</title>
<path fill="none" stroke="#9a32cd" stroke-dasharray="5,2" d="M375.86,-181.16C371.04,-174.97 365.25,-167.94 359.5,-162 342.56,-144.5 320.4,-126.59 307.67,-116.72"/>
<polygon fill="#9a32cd" stroke="#9a32cd" points="373.27,-183.55 382.09,-189.42 378.86,-179.33 373.27,-183.55"/>
<text text-anchor="middle" x="395.5" y="-164.6" font-family="Helvetica,sans-Serif" font-size="8.00"> m_raw_name</text>
</g>
<!-- Node8 -->
<g id="node8" class="node">
<title>Node8</title>
<g id="a_node8"><a xlink:title=" ">
<polygon fill="white" stroke="black" points="342,-244.5 342,-270.5 433,-270.5 433,-244.5 342,-244.5"/>
<text text-anchor="start" x="350" y="-260.1" font-family="Helvetica,sans-Serif" font-size="8.00">std::basic_string&lt;</text>
<text text-anchor="middle" x="387.5" y="-251.1" font-family="Helvetica,sans-Serif" font-size="8.00"> Char &gt;</text>
</a>
</g>
</g>
<!-- Node8&#45;&gt;Node7 -->
<g id="edge8" class="edge">
<title>Node8&#45;&gt;Node7</title>
<path fill="none" stroke="midnightblue" d="M387.5,-234.08C387.5,-224.43 387.5,-213.78 387.5,-206.77"/>
<polygon fill="midnightblue" stroke="midnightblue" points="384,-234.31 387.5,-244.31 391,-234.31 384,-234.31"/>
</g>
<!-- Node9 -->
<g id="node9" class="node">
<title>Node9</title>
<g id="a_node9"><a xlink:title=" ">
<polygon fill="white" stroke="#bfbfbf" points="466,-99.5 466,-116.5 561,-116.5 561,-99.5 466,-99.5"/>
<text text-anchor="middle" x="513.5" y="-106.1" font-family="Helvetica,sans-Serif" font-size="8.00">unique_ptr&lt; Pool &gt;</text>
</a>
</g>
</g>
<!-- Node9&#45;&gt;Node1 -->
<g id="edge9" class="edge">
<title>Node9&#45;&gt;Node1</title>
<path fill="none" stroke="#9a32cd" stroke-dasharray="5,2" d="M494.61,-93.29C483.89,-86.05 469.95,-77.55 456.5,-72 390.78,-44.87 309.54,-28.9 259.63,-20.93"/>
<polygon fill="#9a32cd" stroke="#9a32cd" points="492.92,-96.37 503.12,-99.21 496.92,-90.63 492.92,-96.37"/>
<text text-anchor="middle" x="420.5" y="-47.6" font-family="Helvetica,sans-Serif" font-size="8.00"> m_pool</text>
</g>
</g>
</svg>
