<?xml version="1.0" encoding="UTF-8" standalone="no"?>
<!DOCTYPE svg PUBLIC "-//W3C//DTD SVG 1.1//EN"
 "http://www.w3.org/Graphics/SVG/1.1/DTD/svg11.dtd">
<!-- Generated by graphviz version 2.43.0 (0)
 -->
<!-- Title: ipc::session::shm::classic::Client_session_impl::async_connect Pages: 1 -->
<svg width="574pt" height="99pt"
 viewBox="0.00 0.00 574.00 99.00" xmlns="http://www.w3.org/2000/svg" xmlns:xlink="http://www.w3.org/1999/xlink">
<g id="graph0" class="graph" transform="scale(1 1) rotate(0) translate(4 95)">
<title>ipc::session::shm::classic::Client_session_impl::async_connect</title>
<polygon fill="white" stroke="transparent" points="-4,4 -4,-95 570,-95 570,4 -4,4"/>
<!-- Node1 -->
<g id="node1" class="node">
<title>Node1</title>
<g id="a_node1"><a xlink:title="See Client_session_mv counterpart.">
<polygon fill="#bfbfbf" stroke="black" points="0,-11.5 0,-46.5 109,-46.5 109,-11.5 0,-11.5"/>
<text text-anchor="start" x="8" y="-36.1" font-family="Helvetica,sans-Serif" font-size="8.00">ipc::session::shm::</text>
<text text-anchor="start" x="8" y="-27.1" font-family="Helvetica,sans-Serif" font-size="8.00">classic::Client_session</text>
<text text-anchor="middle" x="54.5" y="-18.1" font-family="Helvetica,sans-Serif" font-size="8.00">_impl::async_connect</text>
</a>
</g>
</g>
<!-- Node2 -->
<g id="node2" class="node">
<title>Node2</title>
<g id="a_node2"><a xlink:href="namespaceipc_1_1session.html#a365d2d63f77b738e67e206af6b702634" target="_top" xlink:title="Builds an absolute name according to the path convention explained in Shared_name class doc header; t...">
<polygon fill="white" stroke="black" points="145,-37 145,-63 278,-63 278,-37 145,-37"/>
<text text-anchor="start" x="153" y="-52.6" font-family="Helvetica,sans-Serif" font-size="8.00">ipc::session::build</text>
<text text-anchor="middle" x="211.5" y="-43.6" font-family="Helvetica,sans-Serif" font-size="8.00">_conventional_shared_name</text>
</a>
</g>
</g>
<!-- Node1&#45;&gt;Node2 -->
<g id="edge1" class="edge">
<title>Node1&#45;&gt;Node2</title>
<path fill="none" stroke="midnightblue" d="M109.28,-36.29C117.51,-37.4 126.14,-38.57 134.74,-39.74"/>
<polygon fill="midnightblue" stroke="midnightblue" points="134.41,-43.22 144.79,-41.1 135.35,-36.29 134.41,-43.22"/>
</g>
<!-- Node5 -->
<g id="node5" class="node">
<title>Node5</title>
<g id="a_node5"><a xlink:href="classipc_1_1util_1_1Shared__name.html#a48f20b7b54490aa10dc64081d34c55b2" target="_top" xlink:title="Copy&#45;constructs from a char&#45;sequence container (including string, util::String_view,...">
<polygon fill="white" stroke="black" points="150,-0.5 150,-17.5 273,-17.5 273,-0.5 150,-0.5"/>
<text text-anchor="middle" x="211.5" y="-7.1" font-family="Helvetica,sans-Serif" font-size="8.00">ipc::util::Shared_name::ct</text>
</a>
</g>
</g>
<!-- Node1&#45;&gt;Node5 -->
<g id="edge5" class="edge">
<title>Node1&#45;&gt;Node5</title>
<path fill="none" stroke="midnightblue" d="M109.28,-22.06C119.11,-20.79 129.51,-19.45 139.76,-18.13"/>
<polygon fill="midnightblue" stroke="midnightblue" points="140.45,-21.57 149.92,-16.82 139.55,-14.63 140.45,-21.57"/>
</g>
<!-- Node3 -->
<g id="node3" class="node">
<title>Node3</title>
<g id="a_node3"><a xlink:href="namespaceipc_1_1session.html#a5216d618bb573e68276d2933ce3f4010" target="_top" xlink:title="Return the prefix common to all calls to either build_conventional_shared_name() overload with the ar...">
<polygon fill="white" stroke="black" points="314,-55.5 314,-90.5 420,-90.5 420,-55.5 314,-55.5"/>
<text text-anchor="start" x="322" y="-80.1" font-family="Helvetica,sans-Serif" font-size="8.00">ipc::session::build</text>
<text text-anchor="start" x="322" y="-71.1" font-family="Helvetica,sans-Serif" font-size="8.00">_conventional_shared</text>
<text text-anchor="middle" x="367" y="-62.1" font-family="Helvetica,sans-Serif" font-size="8.00">_name_prefix</text>
</a>
</g>
</g>
<!-- Node2&#45;&gt;Node3 -->
<g id="edge2" class="edge">
<title>Node2&#45;&gt;Node3</title>
<path fill="none" stroke="midnightblue" d="M278.04,-59.82C286.5,-61.09 295.14,-62.38 303.55,-63.64"/>
<polygon fill="midnightblue" stroke="midnightblue" points="303.25,-67.14 313.66,-65.16 304.29,-60.21 303.25,-67.14"/>
</g>
<!-- Node4 -->
<g id="node4" class="node">
<title>Node4</title>
<g id="a_node4"><a xlink:href="classipc_1_1util_1_1Shared__name.html#a861ea6c9ad6672e83bab5c7747b66f7b" target="_top" xlink:title="Returns true if and only if str().empty() == true.">
<polygon fill="white" stroke="black" points="456,-37 456,-63 566,-63 566,-37 456,-37"/>
<text text-anchor="start" x="464" y="-52.6" font-family="Helvetica,sans-Serif" font-size="8.00">ipc::util::Shared_name</text>
<text text-anchor="middle" x="511" y="-43.6" font-family="Helvetica,sans-Serif" font-size="8.00">::empty</text>
</a>
</g>
</g>
<!-- Node2&#45;&gt;Node4 -->
<g id="edge4" class="edge">
<title>Node2&#45;&gt;Node4</title>
<path fill="none" stroke="midnightblue" d="M278.01,-47.04C289.98,-46.61 302.36,-46.23 314,-46 361.1,-45.07 372.9,-44.95 420,-46 428.32,-46.18 437.06,-46.47 445.7,-46.79"/>
<polygon fill="midnightblue" stroke="midnightblue" points="445.63,-50.29 455.76,-47.2 445.91,-43.3 445.63,-50.29"/>
</g>
<!-- Node3&#45;&gt;Node4 -->
<g id="edge3" class="edge">
<title>Node3&#45;&gt;Node4</title>
<path fill="none" stroke="midnightblue" d="M420.07,-64.57C428.38,-63.22 437.05,-61.82 445.6,-60.43"/>
<polygon fill="midnightblue" stroke="midnightblue" points="446.24,-63.87 455.55,-58.82 445.12,-56.96 446.24,-63.87"/>
</g>
</g>
</svg>
