<?xml version="1.0" encoding="UTF-8" standalone="no"?>
<!DOCTYPE svg PUBLIC "-//W3C//DTD SVG 1.1//EN"
 "http://www.w3.org/Graphics/SVG/1.1/DTD/svg11.dtd">
<!-- Generated by graphviz version 2.43.0 (0)
 -->
<!-- Title: Session_t Pages: 1 -->
<svg width="402pt" height="107pt"
 viewBox="0.00 0.00 402.00 107.00" xmlns="http://www.w3.org/2000/svg" xmlns:xlink="http://www.w3.org/1999/xlink">
<g id="graph0" class="graph" transform="scale(1 1) rotate(0) translate(4 103)">
<title>Session_t</title>
<polygon fill="white" stroke="transparent" points="-4,4 -4,-103 398,-103 398,4 -4,4"/>
<!-- Node1 -->
<g id="node1" class="node">
<title>Node1</title>
<g id="a_node1"><a xlink:title=" ">
<polygon fill="#bfbfbf" stroke="black" points="0,-45.5 0,-62.5 56,-62.5 56,-45.5 0,-45.5"/>
<text text-anchor="middle" x="28" y="-52.1" font-family="Helvetica,sans-Serif" font-size="8.00">Session_t</text>
</a>
</g>
</g>
<!-- Node2 -->
<g id="node2" class="node">
<title>Node2</title>
<g id="a_node2"><a xlink:href="classipc_1_1session_1_1shm_1_1arena__lend_1_1jemalloc_1_1Session__mv.html" target="_top" xlink:title="Implements the SHM&#45;related API common to shm::arena_lend::jemalloc::Server_session and shm::arena_len...">
<polygon fill="white" stroke="black" points="92,-63.5 92,-98.5 220,-98.5 220,-63.5 92,-63.5"/>
<text text-anchor="start" x="100" y="-88.1" font-family="Helvetica,sans-Serif" font-size="8.00">ipc::session::shm::</text>
<text text-anchor="start" x="100" y="-79.1" font-family="Helvetica,sans-Serif" font-size="8.00">arena_lend::jemalloc</text>
<text text-anchor="middle" x="156" y="-70.1" font-family="Helvetica,sans-Serif" font-size="8.00">::Session_mv&lt; Session_t &gt;</text>
</a>
</g>
</g>
<!-- Node1&#45;&gt;Node2 -->
<g id="edge1" class="edge">
<title>Node1&#45;&gt;Node2</title>
<path fill="none" stroke="midnightblue" d="M65.92,-61.91C74.06,-63.66 82.91,-65.55 91.77,-67.45"/>
<polygon fill="midnightblue" stroke="midnightblue" points="66.54,-58.47 56.03,-59.79 65.07,-65.31 66.54,-58.47"/>
</g>
<!-- Node3 -->
<g id="node3" class="node">
<title>Node3</title>
<g id="a_node3"><a xlink:href="classipc_1_1session_1_1shm_1_1classic_1_1Session__mv.html" target="_top" xlink:title="Implements the SHM&#45;related API common to shm::classic::Server_session and shm::classic::Client_sessio...">
<polygon fill="white" stroke="black" points="107,-9.5 107,-44.5 205,-44.5 205,-9.5 107,-9.5"/>
<text text-anchor="start" x="115" y="-34.1" font-family="Helvetica,sans-Serif" font-size="8.00">ipc::session::shm::</text>
<text text-anchor="start" x="115" y="-25.1" font-family="Helvetica,sans-Serif" font-size="8.00">classic::Session_mv</text>
<text text-anchor="middle" x="156" y="-16.1" font-family="Helvetica,sans-Serif" font-size="8.00">&lt; Session_t &gt;</text>
</a>
</g>
</g>
<!-- Node1&#45;&gt;Node3 -->
<g id="edge2" class="edge">
<title>Node1&#45;&gt;Node3</title>
<path fill="none" stroke="midnightblue" d="M65.89,-46.09C78.72,-43.35 93.31,-40.22 106.91,-37.3"/>
<polygon fill="midnightblue" stroke="midnightblue" points="65.07,-42.69 56.03,-48.21 66.54,-49.53 65.07,-42.69"/>
</g>
<!-- Node4 -->
<g id="node4" class="node">
<title>Node4</title>
<g id="a_node4"><a xlink:href="classipc_1_1session_1_1shm_1_1classic_1_1Server__session.html" target="_top" xlink:title="Identical to session::Server_session in every way, except that it makes available two SHM arenas,...">
<polygon fill="white" stroke="black" points="256,-0.5 256,-53.5 394,-53.5 394,-0.5 256,-0.5"/>
<text text-anchor="start" x="264" y="-43.1" font-family="Helvetica,sans-Serif" font-size="8.00">ipc::session::shm::</text>
<text text-anchor="start" x="264" y="-34.1" font-family="Helvetica,sans-Serif" font-size="8.00">classic::Server_session</text>
<text text-anchor="start" x="264" y="-25.1" font-family="Helvetica,sans-Serif" font-size="8.00">&lt; S_MQ_TYPE_OR_NONE, S</text>
<text text-anchor="start" x="264" y="-16.1" font-family="Helvetica,sans-Serif" font-size="8.00">_TRANSMIT_NATIVE_HANDLES,</text>
<text text-anchor="middle" x="325" y="-7.1" font-family="Helvetica,sans-Serif" font-size="8.00"> Mdt_payload &gt;</text>
</a>
</g>
</g>
<!-- Node3&#45;&gt;Node4 -->
<g id="edge3" class="edge">
<title>Node3&#45;&gt;Node4</title>
<path fill="none" stroke="midnightblue" d="M215.55,-27C228.6,-27 242.54,-27 255.93,-27"/>
<polygon fill="midnightblue" stroke="midnightblue" points="215.3,-23.5 205.3,-27 215.3,-30.5 215.3,-23.5"/>
</g>
</g>
</svg>
