<?xml version="1.0" encoding="UTF-8" standalone="no"?>
<!DOCTYPE svg PUBLIC "-//W3C//DTD SVG 1.1//EN"
 "http://www.w3.org/Graphics/SVG/1.1/DTD/svg11.dtd">
<!-- Generated by graphviz version 2.43.0 (0)
 -->
<!-- Title: ipc::session::sync_io::Session_server_adapter::async_accept Pages: 1 -->
<svg width="253pt" height="44pt"
 viewBox="0.00 0.00 253.00 44.00" xmlns="http://www.w3.org/2000/svg" xmlns:xlink="http://www.w3.org/1999/xlink">
<g id="graph0" class="graph" transform="scale(1 1) rotate(0) translate(4 40)">
<title>ipc::session::sync_io::Session_server_adapter::async_accept</title>
<polygon fill="white" stroke="transparent" points="-4,4 -4,-40 249,-40 249,4 -4,4"/>
<!-- Node1 -->
<g id="node1" class="node">
<title>Node1</title>
<g id="a_node1"><a xlink:title="Acts identically to 1&#45;arg overload of Session_server::async_accept(), except that the completion hand...">
<polygon fill="#bfbfbf" stroke="black" points="0,-0.5 0,-35.5 114,-35.5 114,-0.5 0,-0.5"/>
<text text-anchor="start" x="8" y="-25.1" font-family="Helvetica,sans-Serif" font-size="8.00">ipc::session::sync</text>
<text text-anchor="start" x="8" y="-16.1" font-family="Helvetica,sans-Serif" font-size="8.00">_io::Session_server</text>
<text text-anchor="middle" x="57" y="-7.1" font-family="Helvetica,sans-Serif" font-size="8.00">_adapter::async_accept</text>
</a>
</g>
</g>
<!-- Node2 -->
<g id="node2" class="node">
<title>Node2</title>
<g id="a_node2"><a xlink:href="classipc_1_1session_1_1sync__io_1_1Server__session__adapter.html#a4528b072fafd737cf01db4c5bc3243a0" target="_top" xlink:title="The adapted mutable Session_obj.">
<polygon fill="white" stroke="black" points="150,-0.5 150,-35.5 245,-35.5 245,-0.5 150,-0.5"/>
<text text-anchor="start" x="158" y="-25.1" font-family="Helvetica,sans-Serif" font-size="8.00">ipc::session::sync</text>
<text text-anchor="start" x="158" y="-16.1" font-family="Helvetica,sans-Serif" font-size="8.00">_io::Server_session</text>
<text text-anchor="middle" x="197.5" y="-7.1" font-family="Helvetica,sans-Serif" font-size="8.00">_adapter::core</text>
</a>
</g>
</g>
<!-- Node1&#45;&gt;Node2 -->
<g id="edge1" class="edge">
<title>Node1&#45;&gt;Node2</title>
<path fill="none" stroke="midnightblue" d="M114.33,-18C122.75,-18 131.42,-18 139.84,-18"/>
<polygon fill="midnightblue" stroke="midnightblue" points="139.95,-21.5 149.95,-18 139.95,-14.5 139.95,-21.5"/>
</g>
</g>
</svg>
