<?xml version="1.0" encoding="UTF-8" standalone="no"?>
<!DOCTYPE svg PUBLIC "-//W3C//DTD SVG 1.1//EN"
 "http://www.w3.org/Graphics/SVG/1.1/DTD/svg11.dtd">
<!-- Generated by graphviz version 2.43.0 (0)
 -->
<!-- Title: ipc::transport::Bipc_mq_handle::timed_send Pages: 1 -->
<svg width="304pt" height="152pt"
 viewBox="0.00 0.00 304.00 152.00" xmlns="http://www.w3.org/2000/svg" xmlns:xlink="http://www.w3.org/1999/xlink">
<g id="graph0" class="graph" transform="scale(1 1) rotate(0) translate(4 148)">
<title>ipc::transport::Bipc_mq_handle::timed_send</title>
<polygon fill="white" stroke="transparent" points="-4,4 -4,-148 300,-148 300,4 -4,4"/>
<!-- Node1 -->
<g id="node1" class="node">
<title>Node1</title>
<g id="a_node1"><a xlink:title="Implements Persistent_mq_handle API: Blocking timed send: pushes copy of message to queue; if queue i...">
<polygon fill="#bfbfbf" stroke="black" points="0,-59 0,-85 119,-85 119,-59 0,-59"/>
<text text-anchor="start" x="8" y="-74.6" font-family="Helvetica,sans-Serif" font-size="8.00">ipc::transport::Bipc</text>
<text text-anchor="middle" x="59.5" y="-65.6" font-family="Helvetica,sans-Serif" font-size="8.00">_mq_handle::timed_send</text>
</a>
</g>
</g>
<!-- Node1&#45;&gt;Node1 -->
<g id="edge4" class="edge">
<title>Node1&#45;&gt;Node1</title>
<path fill="none" stroke="midnightblue" d="M31.41,-85.27C22.9,-94.46 32.27,-103.5 59.5,-103.5 76.52,-103.5 86.56,-99.97 89.62,-95.08"/>
<polygon fill="midnightblue" stroke="midnightblue" points="93.04,-94.35 87.59,-85.27 86.19,-95.77 93.04,-94.35"/>
</g>
<!-- Node2 -->
<g id="node2" class="node">
<title>Node2</title>
<g id="a_node2"><a xlink:href="namespaceipc_1_1util.html#a2bb38cee29dacbe56de5182221b45941" target="_top" xlink:title="Syntactic&#45;sugary helper that returns pointer to first byte in an immutable buffer,...">
<polygon fill="white" stroke="black" points="178.5,-126.5 178.5,-143.5 272.5,-143.5 272.5,-126.5 178.5,-126.5"/>
<text text-anchor="middle" x="225.5" y="-133.1" font-family="Helvetica,sans-Serif" font-size="8.00">ipc::util::blob_data</text>
</a>
</g>
</g>
<!-- Node1&#45;&gt;Node2 -->
<g id="edge1" class="edge">
<title>Node1&#45;&gt;Node2</title>
<path fill="none" stroke="midnightblue" d="M84.82,-85.17C103.58,-94.93 130.41,-108.05 155,-117 161.84,-119.49 169.19,-121.78 176.44,-123.83"/>
<polygon fill="midnightblue" stroke="midnightblue" points="175.66,-127.25 186.22,-126.48 177.49,-120.49 175.66,-127.25"/>
</g>
<!-- Node3 -->
<g id="node3" class="node">
<title>Node3</title>
<g id="a_node3"><a xlink:href="classipc_1_1transport_1_1Bipc__mq__handle.html#a9948742d87298d5842d298de9c946c7c" target="_top" xlink:title="Error helper: Run func() which will perform a bipc::message_queue API that might throw; if it does em...">
<polygon fill="white" stroke="black" points="155,-54.5 155,-89.5 296,-89.5 296,-54.5 155,-54.5"/>
<text text-anchor="start" x="163" y="-79.1" font-family="Helvetica,sans-Serif" font-size="8.00">ipc::transport::Bipc</text>
<text text-anchor="start" x="163" y="-70.1" font-family="Helvetica,sans-Serif" font-size="8.00">_mq_handle::op_with_possible</text>
<text text-anchor="middle" x="225.5" y="-61.1" font-family="Helvetica,sans-Serif" font-size="8.00">_bipc_mq_exception</text>
</a>
</g>
</g>
<!-- Node1&#45;&gt;Node3 -->
<g id="edge2" class="edge">
<title>Node1&#45;&gt;Node3</title>
<path fill="none" stroke="midnightblue" d="M119.24,-72C127.57,-72 136.24,-72 144.88,-72"/>
<polygon fill="midnightblue" stroke="midnightblue" points="144.98,-75.5 154.98,-72 144.98,-68.5 144.98,-75.5"/>
</g>
<!-- Node4 -->
<g id="node4" class="node">
<title>Node4</title>
<g id="a_node4"><a xlink:href="classipc_1_1transport_1_1Bipc__mq__handle.html#a164168adee0d188da11db8f17442dbef" target="_top" xlink:title="Implements Persistent_mq_handle API: Like timed_send() but without the actual pushing of a message.">
<polygon fill="white" stroke="black" points="167.5,-0.5 167.5,-35.5 283.5,-35.5 283.5,-0.5 167.5,-0.5"/>
<text text-anchor="start" x="175.5" y="-25.1" font-family="Helvetica,sans-Serif" font-size="8.00">ipc::transport::Bipc</text>
<text text-anchor="start" x="175.5" y="-16.1" font-family="Helvetica,sans-Serif" font-size="8.00">_mq_handle::timed_wait</text>
<text text-anchor="middle" x="225.5" y="-7.1" font-family="Helvetica,sans-Serif" font-size="8.00">_sendable</text>
</a>
</g>
</g>
<!-- Node1&#45;&gt;Node4 -->
<g id="edge5" class="edge">
<title>Node1&#45;&gt;Node4</title>
<path fill="none" stroke="midnightblue" d="M100.2,-58.93C118.61,-52.87 140.95,-45.51 161.57,-38.72"/>
<polygon fill="midnightblue" stroke="midnightblue" points="162.82,-41.99 171.22,-35.54 160.63,-35.35 162.82,-41.99"/>
</g>
<!-- Node3&#45;&gt;Node3 -->
<g id="edge3" class="edge">
<title>Node3&#45;&gt;Node3</title>
<path fill="none" stroke="midnightblue" d="M195.66,-89.78C190.59,-99.31 200.54,-108 225.5,-108 240.71,-108 250.35,-104.77 254.41,-100.1"/>
<polygon fill="midnightblue" stroke="midnightblue" points="257.93,-100.06 255.34,-89.78 250.96,-99.43 257.93,-100.06"/>
</g>
</g>
</svg>
