<?xml version="1.0" encoding="UTF-8" standalone="no"?>
<!DOCTYPE svg PUBLIC "-//W3C//DTD SVG 1.1//EN"
 "http://www.w3.org/Graphics/SVG/1.1/DTD/svg11.dtd">
<!-- Generated by graphviz version 2.43.0 (0)
 -->
<!-- Title: ipc::session::Session_base::cur_ns_store_mutex_absolute_name Pages: 1 -->
<svg width="591pt" height="99pt"
 viewBox="0.00 0.00 591.00 99.00" xmlns="http://www.w3.org/2000/svg" xmlns:xlink="http://www.w3.org/1999/xlink">
<g id="graph0" class="graph" transform="scale(1 1) rotate(0) translate(4 95)">
<title>ipc::session::Session_base::cur_ns_store_mutex_absolute_name</title>
<polygon fill="white" stroke="transparent" points="-4,4 -4,-95 587,-95 587,4 -4,4"/>
<!-- Node1 -->
<g id="node1" class="node">
<title>Node1</title>
<g id="a_node1"><a xlink:title="Computes the name of the interprocess named&#45;mutex used to control reading/writing to the file storing...">
<polygon fill="#bfbfbf" stroke="black" points="0,-11.5 0,-46.5 126,-46.5 126,-11.5 0,-11.5"/>
<text text-anchor="start" x="8" y="-36.1" font-family="Helvetica,sans-Serif" font-size="8.00">ipc::session::Session</text>
<text text-anchor="start" x="8" y="-27.1" font-family="Helvetica,sans-Serif" font-size="8.00">_base::cur_ns_store_mutex</text>
<text text-anchor="middle" x="63" y="-18.1" font-family="Helvetica,sans-Serif" font-size="8.00">_absolute_name</text>
</a>
</g>
</g>
<!-- Node2 -->
<g id="node2" class="node">
<title>Node2</title>
<g id="a_node2"><a xlink:href="namespaceipc_1_1session.html#a365d2d63f77b738e67e206af6b702634" target="_top" xlink:title="Builds an absolute name according to the path convention explained in Shared_name class doc header; t...">
<polygon fill="white" stroke="black" points="162,-37 162,-63 295,-63 295,-37 162,-37"/>
<text text-anchor="start" x="170" y="-52.6" font-family="Helvetica,sans-Serif" font-size="8.00">ipc::session::build</text>
<text text-anchor="middle" x="228.5" y="-43.6" font-family="Helvetica,sans-Serif" font-size="8.00">_conventional_shared_name</text>
</a>
</g>
</g>
<!-- Node1&#45;&gt;Node2 -->
<g id="edge1" class="edge">
<title>Node1&#45;&gt;Node2</title>
<path fill="none" stroke="midnightblue" d="M126.28,-37C134.65,-38.07 143.3,-39.19 151.87,-40.29"/>
<polygon fill="midnightblue" stroke="midnightblue" points="151.5,-43.77 161.86,-41.57 152.39,-36.82 151.5,-43.77"/>
</g>
<!-- Node5 -->
<g id="node5" class="node">
<title>Node5</title>
<g id="a_node5"><a xlink:href="classipc_1_1util_1_1Shared__name.html#a48f20b7b54490aa10dc64081d34c55b2" target="_top" xlink:title="Copy&#45;constructs from a char&#45;sequence container (including string, util::String_view,...">
<polygon fill="white" stroke="black" points="167,-0.5 167,-17.5 290,-17.5 290,-0.5 167,-0.5"/>
<text text-anchor="middle" x="228.5" y="-7.1" font-family="Helvetica,sans-Serif" font-size="8.00">ipc::util::Shared_name::ct</text>
</a>
</g>
</g>
<!-- Node1&#45;&gt;Node5 -->
<g id="edge5" class="edge">
<title>Node1&#45;&gt;Node5</title>
<path fill="none" stroke="midnightblue" d="M126.28,-21.38C136.23,-20.16 146.59,-18.9 156.72,-17.66"/>
<polygon fill="midnightblue" stroke="midnightblue" points="157.24,-21.12 166.74,-16.43 156.39,-14.17 157.24,-21.12"/>
</g>
<!-- Node3 -->
<g id="node3" class="node">
<title>Node3</title>
<g id="a_node3"><a xlink:href="namespaceipc_1_1session.html#a5216d618bb573e68276d2933ce3f4010" target="_top" xlink:title="Return the prefix common to all calls to either build_conventional_shared_name() overload with the ar...">
<polygon fill="white" stroke="black" points="331,-55.5 331,-90.5 437,-90.5 437,-55.5 331,-55.5"/>
<text text-anchor="start" x="339" y="-80.1" font-family="Helvetica,sans-Serif" font-size="8.00">ipc::session::build</text>
<text text-anchor="start" x="339" y="-71.1" font-family="Helvetica,sans-Serif" font-size="8.00">_conventional_shared</text>
<text text-anchor="middle" x="384" y="-62.1" font-family="Helvetica,sans-Serif" font-size="8.00">_name_prefix</text>
</a>
</g>
</g>
<!-- Node2&#45;&gt;Node3 -->
<g id="edge2" class="edge">
<title>Node2&#45;&gt;Node3</title>
<path fill="none" stroke="midnightblue" d="M295.04,-59.82C303.5,-61.09 312.14,-62.38 320.55,-63.64"/>
<polygon fill="midnightblue" stroke="midnightblue" points="320.25,-67.14 330.66,-65.16 321.29,-60.21 320.25,-67.14"/>
</g>
<!-- Node4 -->
<g id="node4" class="node">
<title>Node4</title>
<g id="a_node4"><a xlink:href="classipc_1_1util_1_1Shared__name.html#a861ea6c9ad6672e83bab5c7747b66f7b" target="_top" xlink:title="Returns true if and only if str().empty() == true.">
<polygon fill="white" stroke="black" points="473,-37 473,-63 583,-63 583,-37 473,-37"/>
<text text-anchor="start" x="481" y="-52.6" font-family="Helvetica,sans-Serif" font-size="8.00">ipc::util::Shared_name</text>
<text text-anchor="middle" x="528" y="-43.6" font-family="Helvetica,sans-Serif" font-size="8.00">::empty</text>
</a>
</g>
</g>
<!-- Node2&#45;&gt;Node4 -->
<g id="edge4" class="edge">
<title>Node2&#45;&gt;Node4</title>
<path fill="none" stroke="midnightblue" d="M295.01,-47.04C306.98,-46.61 319.36,-46.23 331,-46 378.1,-45.07 389.9,-44.95 437,-46 445.32,-46.18 454.06,-46.47 462.7,-46.79"/>
<polygon fill="midnightblue" stroke="midnightblue" points="462.63,-50.29 472.76,-47.2 462.91,-43.3 462.63,-50.29"/>
</g>
<!-- Node3&#45;&gt;Node4 -->
<g id="edge3" class="edge">
<title>Node3&#45;&gt;Node4</title>
<path fill="none" stroke="midnightblue" d="M437.07,-64.57C445.38,-63.22 454.05,-61.82 462.6,-60.43"/>
<polygon fill="midnightblue" stroke="midnightblue" points="463.24,-63.87 472.55,-58.82 462.12,-56.96 463.24,-63.87"/>
</g>
</g>
</svg>
