<?xml version="1.0" encoding="UTF-8" standalone="no"?>
<!DOCTYPE svg PUBLIC "-//W3C//DTD SVG 1.1//EN"
 "http://www.w3.org/Graphics/SVG/1.1/DTD/svg11.dtd">
<!-- Generated by graphviz version 2.43.0 (0)
 -->
<!-- Title: ipc::transport::Posix_mq_handle::try_receive Pages: 1 -->
<svg width="276pt" height="90pt"
 viewBox="0.00 0.00 276.00 89.50" xmlns="http://www.w3.org/2000/svg" xmlns:xlink="http://www.w3.org/1999/xlink">
<g id="graph0" class="graph" transform="scale(1 1) rotate(0) translate(4 85.5)">
<title>ipc::transport::Posix_mq_handle::try_receive</title>
<polygon fill="white" stroke="transparent" points="-4,4 -4,-85.5 272,-85.5 272,4 -4,4"/>
<!-- Node1 -->
<g id="node1" class="node">
<title>Node1</title>
<g id="a_node1"><a xlink:title="Implements Persistent_mq_handle API: Non&#45;blocking receive: pops copy of message from queue into buffe...">
<polygon fill="#bfbfbf" stroke="black" points="0,-25.5 0,-51.5 116,-51.5 116,-25.5 0,-25.5"/>
<text text-anchor="start" x="8" y="-41.1" font-family="Helvetica,sans-Serif" font-size="8.00">ipc::transport::Posix</text>
<text text-anchor="middle" x="58" y="-32.1" font-family="Helvetica,sans-Serif" font-size="8.00">_mq_handle::try_receive</text>
</a>
</g>
</g>
<!-- Node1&#45;&gt;Node1 -->
<g id="edge3" class="edge">
<title>Node1&#45;&gt;Node1</title>
<path fill="none" stroke="midnightblue" d="M32.28,-51.77C24.49,-60.96 33.06,-70 58,-70 73.2,-70 82.32,-66.64 85.36,-61.94"/>
<polygon fill="midnightblue" stroke="midnightblue" points="88.77,-61.09 83.72,-51.77 81.85,-62.2 88.77,-61.09"/>
</g>
<!-- Node2 -->
<g id="node2" class="node">
<title>Node2</title>
<g id="a_node2"><a xlink:href="classipc_1_1transport_1_1Posix__mq__handle.html#a244ee5da96550553edca346d77c2a825" target="_top" xlink:title="Helper that handles the result of an mq_*() call by logging WARNING(s) on error; setting *err_code on...">
<polygon fill="white" stroke="black" points="152,-46 152,-81 268,-81 268,-46 152,-46"/>
<text text-anchor="start" x="160" y="-70.6" font-family="Helvetica,sans-Serif" font-size="8.00">ipc::transport::Posix</text>
<text text-anchor="start" x="160" y="-61.6" font-family="Helvetica,sans-Serif" font-size="8.00">_mq_handle::handle_mq</text>
<text text-anchor="middle" x="210" y="-52.6" font-family="Helvetica,sans-Serif" font-size="8.00">_api_result</text>
</a>
</g>
</g>
<!-- Node1&#45;&gt;Node2 -->
<g id="edge1" class="edge">
<title>Node1&#45;&gt;Node2</title>
<path fill="none" stroke="midnightblue" d="M116.14,-48.02C124.47,-49.41 133.11,-50.85 141.62,-52.27"/>
<polygon fill="midnightblue" stroke="midnightblue" points="141.09,-55.73 151.53,-53.92 142.24,-48.82 141.09,-55.73"/>
</g>
<!-- Node3 -->
<g id="node3" class="node">
<title>Node3</title>
<g id="a_node3"><a xlink:href="structipc_1_1util_1_1Native__handle.html#a11bd62ce0a7bef4bdfe666201c26d4dc" target="_top" xlink:title="Returns true if and only if m_native_handle equals S_NULL_HANDLE.">
<polygon fill="white" stroke="black" points="154,-0.5 154,-26.5 266,-26.5 266,-0.5 154,-0.5"/>
<text text-anchor="start" x="162" y="-16.1" font-family="Helvetica,sans-Serif" font-size="8.00">ipc::util::Native_handle</text>
<text text-anchor="middle" x="210" y="-7.1" font-family="Helvetica,sans-Serif" font-size="8.00">::null</text>
</a>
</g>
</g>
<!-- Node1&#45;&gt;Node3 -->
<g id="edge2" class="edge">
<title>Node1&#45;&gt;Node3</title>
<path fill="none" stroke="midnightblue" d="M116.14,-28.98C125.04,-27.49 134.3,-25.95 143.37,-24.44"/>
<polygon fill="midnightblue" stroke="midnightblue" points="144.22,-27.85 153.51,-22.75 143.07,-20.94 144.22,-27.85"/>
</g>
</g>
</svg>
