<?xml version="1.0" encoding="UTF-8" standalone="no"?>
<!DOCTYPE svg PUBLIC "-//W3C//DTD SVG 1.1//EN"
 "http://www.w3.org/Graphics/SVG/1.1/DTD/svg11.dtd">
<!-- Generated by graphviz version 2.43.0 (0)
 -->
<!-- Title: ipc::session::shm::classic::Session_server::init_app_shm_as_needed Pages: 1 -->
<svg width="590pt" height="145pt"
 viewBox="0.00 0.00 590.00 144.50" xmlns="http://www.w3.org/2000/svg" xmlns:xlink="http://www.w3.org/1999/xlink">
<g id="graph0" class="graph" transform="scale(1 1) rotate(0) translate(4 140.5)">
<title>ipc::session::shm::classic::Session_server::init_app_shm_as_needed</title>
<polygon fill="white" stroke="transparent" points="-4,4 -4,-140.5 586,-140.5 586,4 -4,4"/>
<!-- Node1 -->
<g id="node1" class="node">
<title>Node1</title>
<g id="a_node1"><a xlink:title="Implementation of our per_app_setup_func() customization point used in the ctor impl: invoked from an...">
<polygon fill="#bfbfbf" stroke="black" points="0,-37 0,-72 125,-72 125,-37 0,-37"/>
<text text-anchor="start" x="8" y="-61.6" font-family="Helvetica,sans-Serif" font-size="8.00">ipc::session::shm::</text>
<text text-anchor="start" x="8" y="-52.6" font-family="Helvetica,sans-Serif" font-size="8.00">classic::Session_server</text>
<text text-anchor="middle" x="62.5" y="-43.6" font-family="Helvetica,sans-Serif" font-size="8.00">::init_app_shm_as_needed</text>
</a>
</g>
</g>
<!-- Node2 -->
<g id="node2" class="node">
<title>Node2</title>
<g id="a_node2"><a xlink:href="namespaceipc_1_1session.html#a365d2d63f77b738e67e206af6b702634" target="_top" xlink:title="Builds an absolute name according to the path convention explained in Shared_name class doc header; t...">
<polygon fill="white" stroke="black" points="161,-82.5 161,-108.5 294,-108.5 294,-82.5 161,-82.5"/>
<text text-anchor="start" x="169" y="-98.1" font-family="Helvetica,sans-Serif" font-size="8.00">ipc::session::build</text>
<text text-anchor="middle" x="227.5" y="-89.1" font-family="Helvetica,sans-Serif" font-size="8.00">_conventional_shared_name</text>
</a>
</g>
</g>
<!-- Node1&#45;&gt;Node2 -->
<g id="edge1" class="edge">
<title>Node1&#45;&gt;Node2</title>
<path fill="none" stroke="midnightblue" d="M125.12,-70C138.13,-73.27 151.85,-76.72 164.85,-79.99"/>
<polygon fill="midnightblue" stroke="midnightblue" points="164.08,-83.41 174.63,-82.45 165.79,-76.62 164.08,-83.41"/>
</g>
<!-- Node5 -->
<g id="node5" class="node">
<title>Node5</title>
<g id="a_node5"><a xlink:href="classipc_1_1util_1_1Shared__name.html#a48f20b7b54490aa10dc64081d34c55b2" target="_top" xlink:title="Copy&#45;constructs from a char&#45;sequence container (including string, util::String_view,...">
<polygon fill="white" stroke="black" points="166,-46 166,-63 289,-63 289,-46 166,-46"/>
<text text-anchor="middle" x="227.5" y="-52.6" font-family="Helvetica,sans-Serif" font-size="8.00">ipc::util::Shared_name::ct</text>
</a>
</g>
</g>
<!-- Node1&#45;&gt;Node5 -->
<g id="edge5" class="edge">
<title>Node1&#45;&gt;Node5</title>
<path fill="none" stroke="midnightblue" d="M125.12,-54.5C135.13,-54.5 145.56,-54.5 155.77,-54.5"/>
<polygon fill="midnightblue" stroke="midnightblue" points="155.87,-58 165.87,-54.5 155.87,-51 155.87,-58"/>
</g>
<!-- Node6 -->
<g id="node6" class="node">
<title>Node6</title>
<g id="a_node6"><a xlink:href="namespaceipc_1_1util.html#abda2ce5bcdbc26ca63d667b87818439c" target="_top" xlink:title="Maps general Permissions_level specifier to low&#45;level Permissions value, when the underlying resource...">
<polygon fill="white" stroke="black" points="166.5,-0.5 166.5,-26.5 288.5,-26.5 288.5,-0.5 166.5,-0.5"/>
<text text-anchor="start" x="174.5" y="-16.1" font-family="Helvetica,sans-Serif" font-size="8.00">ipc::util::shared_resource</text>
<text text-anchor="middle" x="227.5" y="-7.1" font-family="Helvetica,sans-Serif" font-size="8.00">_permissions</text>
</a>
</g>
</g>
<!-- Node1&#45;&gt;Node6 -->
<g id="edge6" class="edge">
<title>Node1&#45;&gt;Node6</title>
<path fill="none" stroke="midnightblue" d="M125.12,-39C138.13,-35.73 151.85,-32.28 164.85,-29.01"/>
<polygon fill="midnightblue" stroke="midnightblue" points="165.79,-32.38 174.63,-26.55 164.08,-25.59 165.79,-32.38"/>
</g>
<!-- Node3 -->
<g id="node3" class="node">
<title>Node3</title>
<g id="a_node3"><a xlink:href="namespaceipc_1_1session.html#a5216d618bb573e68276d2933ce3f4010" target="_top" xlink:title="Return the prefix common to all calls to either build_conventional_shared_name() overload with the ar...">
<polygon fill="white" stroke="black" points="330,-101 330,-136 436,-136 436,-101 330,-101"/>
<text text-anchor="start" x="338" y="-125.6" font-family="Helvetica,sans-Serif" font-size="8.00">ipc::session::build</text>
<text text-anchor="start" x="338" y="-116.6" font-family="Helvetica,sans-Serif" font-size="8.00">_conventional_shared</text>
<text text-anchor="middle" x="383" y="-107.6" font-family="Helvetica,sans-Serif" font-size="8.00">_name_prefix</text>
</a>
</g>
</g>
<!-- Node2&#45;&gt;Node3 -->
<g id="edge2" class="edge">
<title>Node2&#45;&gt;Node3</title>
<path fill="none" stroke="midnightblue" d="M294.04,-105.32C302.5,-106.59 311.14,-107.88 319.55,-109.14"/>
<polygon fill="midnightblue" stroke="midnightblue" points="319.25,-112.64 329.66,-110.66 320.29,-105.71 319.25,-112.64"/>
</g>
<!-- Node4 -->
<g id="node4" class="node">
<title>Node4</title>
<g id="a_node4"><a xlink:href="classipc_1_1util_1_1Shared__name.html#a861ea6c9ad6672e83bab5c7747b66f7b" target="_top" xlink:title="Returns true if and only if str().empty() == true.">
<polygon fill="white" stroke="black" points="472,-82.5 472,-108.5 582,-108.5 582,-82.5 472,-82.5"/>
<text text-anchor="start" x="480" y="-98.1" font-family="Helvetica,sans-Serif" font-size="8.00">ipc::util::Shared_name</text>
<text text-anchor="middle" x="527" y="-89.1" font-family="Helvetica,sans-Serif" font-size="8.00">::empty</text>
</a>
</g>
</g>
<!-- Node2&#45;&gt;Node4 -->
<g id="edge4" class="edge">
<title>Node2&#45;&gt;Node4</title>
<path fill="none" stroke="midnightblue" d="M294.01,-92.54C305.98,-92.11 318.36,-91.73 330,-91.5 377.1,-90.57 388.9,-90.45 436,-91.5 444.32,-91.68 453.06,-91.97 461.7,-92.29"/>
<polygon fill="midnightblue" stroke="midnightblue" points="461.63,-95.79 471.76,-92.7 461.91,-88.8 461.63,-95.79"/>
</g>
<!-- Node3&#45;&gt;Node4 -->
<g id="edge3" class="edge">
<title>Node3&#45;&gt;Node4</title>
<path fill="none" stroke="midnightblue" d="M436.07,-110.07C444.38,-108.72 453.05,-107.32 461.6,-105.93"/>
<polygon fill="midnightblue" stroke="midnightblue" points="462.24,-109.37 471.55,-104.32 461.12,-102.46 462.24,-109.37"/>
</g>
</g>
</svg>
