<?xml version="1.0" encoding="UTF-8" standalone="no"?>
<!DOCTYPE svg PUBLIC "-//W3C//DTD SVG 1.1//EN"
 "http://www.w3.org/Graphics/SVG/1.1/DTD/svg11.dtd">
<!-- Generated by graphviz version 2.43.0 (0)
 -->
<!-- Title: ipc::transport::Mqs_channel&lt; SIO, Persistent_mq_handle, Native_handle_sender, Native_handle_receiver &gt; Pages: 1 -->
<svg width="754pt" height="334pt"
 viewBox="0.00 0.00 754.00 333.50" xmlns="http://www.w3.org/2000/svg" xmlns:xlink="http://www.w3.org/1999/xlink">
<g id="graph0" class="graph" transform="scale(1 1) rotate(0) translate(4 329.5)">
<title>ipc::transport::Mqs_channel&lt; SIO, Persistent_mq_handle, Native_handle_sender, Native_handle_receiver &gt;</title>
<polygon fill="white" stroke="transparent" points="-4,4 -4,-329.5 750,-329.5 750,4 -4,4"/>
<!-- Node1 -->
<g id="node1" class="node">
<title>Node1</title>
<g id="a_node1"><a xlink:title="A Channel with at least a blobs pipe consisting of two MQs of type Persistent_mq_handle (template arg...">
<polygon fill="#bfbfbf" stroke="black" points="588,-126.5 588,-170.5 746,-170.5 746,-126.5 588,-126.5"/>
<text text-anchor="start" x="596" y="-160.1" font-family="Helvetica,sans-Serif" font-size="8.00">ipc::transport::Mqs</text>
<text text-anchor="start" x="596" y="-151.1" font-family="Helvetica,sans-Serif" font-size="8.00">_channel&lt; SIO, Persistent</text>
<text text-anchor="start" x="596" y="-142.1" font-family="Helvetica,sans-Serif" font-size="8.00">_mq_handle, Native_handle</text>
<text text-anchor="middle" x="667" y="-133.1" font-family="Helvetica,sans-Serif" font-size="8.00">_sender, Native_handle_receiver &gt;</text>
</a>
</g>
</g>
<!-- Node2 -->
<g id="node2" class="node">
<title>Node2</title>
<g id="a_node2"><a xlink:href="classipc_1_1transport_1_1Channel.html" target="_top" xlink:title=" ">
<polygon fill="white" stroke="black" points="378,-95 378,-202 551,-202 551,-95 378,-95"/>
<text text-anchor="start" x="386" y="-191.6" font-family="Helvetica,sans-Serif" font-size="8.00">ipc::transport::Channel</text>
<text text-anchor="start" x="386" y="-182.6" font-family="Helvetica,sans-Serif" font-size="8.00">&lt; std::conditional_t&lt;</text>
<text text-anchor="start" x="386" y="-173.6" font-family="Helvetica,sans-Serif" font-size="8.00"> SIO, sync_io::Blob_stream</text>
<text text-anchor="start" x="386" y="-164.6" font-family="Helvetica,sans-Serif" font-size="8.00">_mq_sender&lt; Persistent_mq</text>
<text text-anchor="start" x="386" y="-155.6" font-family="Helvetica,sans-Serif" font-size="8.00">_handle &gt;, Blob_stream_mq_sender</text>
<text text-anchor="start" x="386" y="-146.6" font-family="Helvetica,sans-Serif" font-size="8.00">&lt; Persistent_mq_handle &gt; &gt;, std</text>
<text text-anchor="start" x="386" y="-137.6" font-family="Helvetica,sans-Serif" font-size="8.00">::conditional_t&lt; SIO, sync_io::Blob</text>
<text text-anchor="start" x="386" y="-128.6" font-family="Helvetica,sans-Serif" font-size="8.00">_stream_mq_receiver&lt; Persistent_mq</text>
<text text-anchor="start" x="386" y="-119.6" font-family="Helvetica,sans-Serif" font-size="8.00">_handle &gt;, Blob_stream_mq_receiver&lt;</text>
<text text-anchor="start" x="386" y="-110.6" font-family="Helvetica,sans-Serif" font-size="8.00"> Persistent_mq_handle &gt; &gt;, Null_peer,</text>
<text text-anchor="middle" x="464.5" y="-101.6" font-family="Helvetica,sans-Serif" font-size="8.00"> Null_peer &gt;</text>
</a>
</g>
</g>
<!-- Node2&#45;&gt;Node1 -->
<g id="edge1" class="edge">
<title>Node2&#45;&gt;Node1</title>
<path fill="none" stroke="midnightblue" d="M561.2,-148.5C570.17,-148.5 579.19,-148.5 587.97,-148.5"/>
<polygon fill="midnightblue" stroke="midnightblue" points="561.11,-145 551.11,-148.5 561.11,-152 561.11,-145"/>
</g>
<!-- Node3 -->
<g id="node3" class="node">
<title>Node3</title>
<g id="a_node3"><a xlink:title=" ">
<polygon fill="white" stroke="#bfbfbf" points="133.5,-308 133.5,-325 240.5,-325 240.5,-308 133.5,-308"/>
<text text-anchor="middle" x="187" y="-314.6" font-family="Helvetica,sans-Serif" font-size="8.00">flow::log::Log_context</text>
</a>
</g>
</g>
<!-- Node3&#45;&gt;Node2 -->
<g id="edge2" class="edge">
<title>Node3&#45;&gt;Node2</title>
<path fill="none" stroke="midnightblue" d="M251.25,-321.28C285.62,-321.02 327.6,-315.84 360,-296.5 396.21,-274.89 422.94,-235.13 440.16,-202.26"/>
<polygon fill="midnightblue" stroke="midnightblue" points="250.87,-317.78 240.85,-321.21 250.82,-324.78 250.87,-317.78"/>
</g>
<!-- Node4 -->
<g id="node4" class="node">
<title>Node4</title>
<g id="a_node4"><a xlink:title=" ">
<polygon fill="white" stroke="#bfbfbf" points="136.5,-217 136.5,-234 237.5,-234 237.5,-217 136.5,-217"/>
<text text-anchor="middle" x="187" y="-223.6" font-family="Helvetica,sans-Serif" font-size="8.00">static constexpr bool</text>
</a>
</g>
</g>
<!-- Node4&#45;&gt;Node2 -->
<g id="edge3" class="edge">
<title>Node4&#45;&gt;Node2</title>
<path fill="none" stroke="#9a32cd" stroke-dasharray="5,2" d="M247.92,-215.56C281.27,-209.38 323.33,-200.51 360,-189.5 365.83,-187.75 371.79,-185.81 377.77,-183.75"/>
<polygon fill="#9a32cd" stroke="#9a32cd" points="247.08,-212.16 237.87,-217.39 248.33,-219.04 247.08,-212.16"/>
<text text-anchor="middle" x="312" y="-286.1" font-family="Helvetica,sans-Serif" font-size="8.00"> S_HAS_2_PIPES</text>
<text text-anchor="middle" x="312" y="-277.1" font-family="Helvetica,sans-Serif" font-size="8.00">S_HAS_BLOB_PIPE</text>
<text text-anchor="middle" x="312" y="-268.1" font-family="Helvetica,sans-Serif" font-size="8.00">S_HAS_BLOB_PIPE_ONLY</text>
<text text-anchor="start" x="264" y="-259.1" font-family="Helvetica,sans-Serif" font-size="8.00">S_HAS_NATIVE_HANDLE</text>
<text text-anchor="middle" x="312" y="-250.1" font-family="Helvetica,sans-Serif" font-size="8.00">_PIPE</text>
<text text-anchor="start" x="264" y="-241.1" font-family="Helvetica,sans-Serif" font-size="8.00">S_HAS_NATIVE_HANDLE</text>
<text text-anchor="middle" x="312" y="-232.1" font-family="Helvetica,sans-Serif" font-size="8.00">_PIPE_ONLY</text>
<text text-anchor="middle" x="312" y="-223.1" font-family="Helvetica,sans-Serif" font-size="8.00">S_IS_ASYNC_IO_OBJ</text>
<text text-anchor="middle" x="312" y="-214.1" font-family="Helvetica,sans-Serif" font-size="8.00">S_IS_SYNC_IO_OBJ</text>
</g>
<!-- Node5 -->
<g id="node5" class="node">
<title>Node5</title>
<g id="a_node5"><a xlink:title=" ">
<polygon fill="white" stroke="black" points="157.5,-181 157.5,-198 216.5,-198 216.5,-181 157.5,-181"/>
<text text-anchor="middle" x="187" y="-187.6" font-family="Helvetica,sans-Serif" font-size="8.00">std::string</text>
</a>
</g>
</g>
<!-- Node5&#45;&gt;Node2 -->
<g id="edge4" class="edge">
<title>Node5&#45;&gt;Node2</title>
<path fill="none" stroke="#9a32cd" stroke-dasharray="5,2" d="M226.6,-183.76C265.64,-177.95 327.26,-168.77 377.88,-161.24"/>
<polygon fill="#9a32cd" stroke="#9a32cd" points="226.08,-180.29 216.7,-185.23 227.11,-187.22 226.08,-180.29"/>
<text text-anchor="middle" x="312" y="-179.1" font-family="Helvetica,sans-Serif" font-size="8.00"> m_nickname</text>
</g>
<!-- Node6 -->
<g id="node6" class="node">
<title>Node6</title>
<g id="a_node6"><a xlink:title=" ">
<polygon fill="white" stroke="black" points="0,-176.5 0,-202.5 91,-202.5 91,-176.5 0,-176.5"/>
<text text-anchor="start" x="8" y="-192.1" font-family="Helvetica,sans-Serif" font-size="8.00">std::basic_string&lt;</text>
<text text-anchor="middle" x="45.5" y="-183.1" font-family="Helvetica,sans-Serif" font-size="8.00"> Char &gt;</text>
</a>
</g>
</g>
<!-- Node6&#45;&gt;Node5 -->
<g id="edge5" class="edge">
<title>Node6&#45;&gt;Node5</title>
<path fill="none" stroke="midnightblue" d="M101.16,-189.5C120.32,-189.5 141.07,-189.5 157.25,-189.5"/>
<polygon fill="midnightblue" stroke="midnightblue" points="101.02,-186 91.02,-189.5 101.02,-193 101.02,-186"/>
</g>
<!-- Node7 -->
<g id="node7" class="node">
<title>Node7</title>
<g id="a_node7"><a xlink:title=" ">
<polygon fill="white" stroke="#bfbfbf" points="132,-135.5 132,-161.5 242,-161.5 242,-135.5 132,-135.5"/>
<text text-anchor="start" x="140" y="-151.1" font-family="Helvetica,sans-Serif" font-size="8.00">optional&lt; Blob_sender</text>
<text text-anchor="middle" x="187" y="-142.1" font-family="Helvetica,sans-Serif" font-size="8.00">_obj &gt;</text>
</a>
</g>
</g>
<!-- Node7&#45;&gt;Node2 -->
<g id="edge6" class="edge">
<title>Node7&#45;&gt;Node2</title>
<path fill="none" stroke="#9a32cd" stroke-dasharray="5,2" d="M252.36,-148.5C289.73,-148.5 337.29,-148.5 377.8,-148.5"/>
<polygon fill="#9a32cd" stroke="#9a32cd" points="252.1,-145 242.1,-148.5 252.1,-152 252.1,-145"/>
<text text-anchor="middle" x="312" y="-151.1" font-family="Helvetica,sans-Serif" font-size="8.00"> m_blob_snd</text>
</g>
<!-- Node8 -->
<g id="node8" class="node">
<title>Node8</title>
<g id="a_node8"><a xlink:title=" ">
<polygon fill="white" stroke="#bfbfbf" points="130,-90.5 130,-116.5 244,-116.5 244,-90.5 130,-90.5"/>
<text text-anchor="start" x="138" y="-106.1" font-family="Helvetica,sans-Serif" font-size="8.00">optional&lt; Blob_receiver</text>
<text text-anchor="middle" x="187" y="-97.1" font-family="Helvetica,sans-Serif" font-size="8.00">_obj &gt;</text>
</a>
</g>
</g>
<!-- Node8&#45;&gt;Node2 -->
<g id="edge7" class="edge">
<title>Node8&#45;&gt;Node2</title>
<path fill="none" stroke="#9a32cd" stroke-dasharray="5,2" d="M254.28,-114.33C291.39,-120.39 338.06,-128.01 377.9,-134.52"/>
<polygon fill="#9a32cd" stroke="#9a32cd" points="254.52,-110.82 244.08,-112.66 253.39,-117.73 254.52,-110.82"/>
<text text-anchor="middle" x="312" y="-133.1" font-family="Helvetica,sans-Serif" font-size="8.00"> m_blob_rcv</text>
</g>
<!-- Node9 -->
<g id="node9" class="node">
<title>Node9</title>
<g id="a_node9"><a xlink:title=" ">
<polygon fill="white" stroke="#bfbfbf" points="128,-45.5 128,-71.5 246,-71.5 246,-45.5 128,-45.5"/>
<text text-anchor="start" x="136" y="-61.1" font-family="Helvetica,sans-Serif" font-size="8.00">optional&lt; Native_handle</text>
<text text-anchor="middle" x="187" y="-52.1" font-family="Helvetica,sans-Serif" font-size="8.00">_sender_obj &gt;</text>
</a>
</g>
</g>
<!-- Node9&#45;&gt;Node2 -->
<g id="edge8" class="edge">
<title>Node9&#45;&gt;Node2</title>
<path fill="none" stroke="#9a32cd" stroke-dasharray="5,2" d="M256.49,-73.85C288.31,-81.63 326.44,-91.89 360,-103.5 365.83,-105.52 371.8,-107.72 377.77,-110.03"/>
<polygon fill="#9a32cd" stroke="#9a32cd" points="256.93,-70.35 246.39,-71.41 255.29,-77.16 256.93,-70.35"/>
<text text-anchor="middle" x="312" y="-106.1" font-family="Helvetica,sans-Serif" font-size="8.00"> m_hndl_snd</text>
</g>
<!-- Node10 -->
<g id="node10" class="node">
<title>Node10</title>
<g id="a_node10"><a xlink:title=" ">
<polygon fill="white" stroke="#bfbfbf" points="128,-0.5 128,-26.5 246,-26.5 246,-0.5 128,-0.5"/>
<text text-anchor="start" x="136" y="-16.1" font-family="Helvetica,sans-Serif" font-size="8.00">optional&lt; Native_handle</text>
<text text-anchor="middle" x="187" y="-7.1" font-family="Helvetica,sans-Serif" font-size="8.00">_receiver_obj &gt;</text>
</a>
</g>
</g>
<!-- Node10&#45;&gt;Node2 -->
<g id="edge9" class="edge">
<title>Node10&#45;&gt;Node2</title>
<path fill="none" stroke="#9a32cd" stroke-dasharray="5,2" d="M256.29,-26.63C288.89,-34.55 327.72,-46.48 360,-63.5 376.15,-72.01 392.12,-83.3 406.51,-94.85"/>
<polygon fill="#9a32cd" stroke="#9a32cd" points="256.93,-23.19 246.39,-24.3 255.33,-30 256.93,-23.19"/>
<text text-anchor="middle" x="312" y="-66.1" font-family="Helvetica,sans-Serif" font-size="8.00"> m_hndl_rcv</text>
</g>
</g>
</svg>
