<?xml version="1.0" encoding="UTF-8" standalone="no"?>
<!DOCTYPE svg PUBLIC "-//W3C//DTD SVG 1.1//EN"
 "http://www.w3.org/Graphics/SVG/1.1/DTD/svg11.dtd">
<!-- Generated by graphviz version 2.43.0 (0)
 -->
<!-- Title: ipc::session::shm::arena_lend::jemalloc::Session_impl::init_shm Pages: 1 -->
<svg width="581pt" height="301pt"
 viewBox="0.00 0.00 581.00 301.00" xmlns="http://www.w3.org/2000/svg" xmlns:xlink="http://www.w3.org/1999/xlink">
<g id="graph0" class="graph" transform="scale(1 1) rotate(0) translate(4 297)">
<title>ipc::session::shm::arena_lend::jemalloc::Session_impl::init_shm</title>
<polygon fill="white" stroke="transparent" points="-4,4 -4,-297 577,-297 577,4 -4,4"/>
<!-- Node1 -->
<g id="node1" class="node">
<title>Node1</title>
<g id="a_node1"><a xlink:title="To be invoked at most once, synchronously sets up nearly&#45;all aspects of this arena&#45;lending&#45;SHM&#45;capabl...">
<polygon fill="#bfbfbf" stroke="black" points="0,-111.5 0,-146.5 116,-146.5 116,-111.5 0,-111.5"/>
<text text-anchor="start" x="8" y="-136.1" font-family="Helvetica,sans-Serif" font-size="8.00">ipc::session::shm::</text>
<text text-anchor="start" x="8" y="-127.1" font-family="Helvetica,sans-Serif" font-size="8.00">arena_lend::jemalloc</text>
<text text-anchor="middle" x="58" y="-118.1" font-family="Helvetica,sans-Serif" font-size="8.00">::Session_impl::init_shm</text>
</a>
</g>
</g>
<!-- Node2 -->
<g id="node2" class="node">
<title>Node2</title>
<g id="a_node2"><a xlink:href="namespaceipc_1_1session.html#a365d2d63f77b738e67e206af6b702634" target="_top" xlink:title="Builds an absolute name according to the path convention explained in Shared_name class doc header; t...">
<polygon fill="white" stroke="black" points="152,-220 152,-246 285,-246 285,-220 152,-220"/>
<text text-anchor="start" x="160" y="-235.6" font-family="Helvetica,sans-Serif" font-size="8.00">ipc::session::build</text>
<text text-anchor="middle" x="218.5" y="-226.6" font-family="Helvetica,sans-Serif" font-size="8.00">_conventional_shared_name</text>
</a>
</g>
</g>
<!-- Node1&#45;&gt;Node2 -->
<g id="edge1" class="edge">
<title>Node1&#45;&gt;Node2</title>
<path fill="none" stroke="midnightblue" d="M77.4,-146.7C95.36,-163.3 124,-188.04 152,-205 158.4,-208.88 165.43,-212.48 172.44,-215.73"/>
<polygon fill="midnightblue" stroke="midnightblue" points="171.36,-219.08 181.93,-219.94 174.2,-212.68 171.36,-219.08"/>
</g>
<!-- Node4 -->
<g id="node4" class="node">
<title>Node4</title>
<g id="a_node4"><a xlink:href="classipc_1_1util_1_1Shared__name.html#a861ea6c9ad6672e83bab5c7747b66f7b" target="_top" xlink:title="Returns true if and only if str().empty() == true.">
<polygon fill="white" stroke="black" points="463,-216 463,-242 573,-242 573,-216 463,-216"/>
<text text-anchor="start" x="471" y="-231.6" font-family="Helvetica,sans-Serif" font-size="8.00">ipc::util::Shared_name</text>
<text text-anchor="middle" x="518" y="-222.6" font-family="Helvetica,sans-Serif" font-size="8.00">::empty</text>
</a>
</g>
</g>
<!-- Node1&#45;&gt;Node4 -->
<g id="edge6" class="edge">
<title>Node1&#45;&gt;Node4</title>
<path fill="none" stroke="midnightblue" d="M91.27,-146.63C108.77,-155.49 131.06,-165.66 152,-172 254.6,-203.06 378.81,-217.86 452.68,-224.39"/>
<polygon fill="midnightblue" stroke="midnightblue" points="452.5,-227.89 462.76,-225.26 453.1,-220.92 452.5,-227.89"/>
</g>
<!-- Node5 -->
<g id="node5" class="node">
<title>Node5</title>
<g id="a_node5"><a xlink:href="classipc_1_1util_1_1Shared__name.html#a48f20b7b54490aa10dc64081d34c55b2" target="_top" xlink:title="Copy&#45;constructs from a char&#45;sequence container (including string, util::String_view,...">
<polygon fill="white" stroke="black" points="157,-145.5 157,-162.5 280,-162.5 280,-145.5 157,-145.5"/>
<text text-anchor="middle" x="218.5" y="-152.1" font-family="Helvetica,sans-Serif" font-size="8.00">ipc::util::Shared_name::ct</text>
</a>
</g>
</g>
<!-- Node1&#45;&gt;Node5 -->
<g id="edge5" class="edge">
<title>Node1&#45;&gt;Node5</title>
<path fill="none" stroke="midnightblue" d="M116.22,-138.03C128.28,-139.93 141.07,-141.94 153.36,-143.88"/>
<polygon fill="midnightblue" stroke="midnightblue" points="153.11,-147.39 163.53,-145.49 154.2,-140.47 153.11,-147.39"/>
</g>
<!-- Node6 -->
<g id="node6" class="node">
<title>Node6</title>
<g id="a_node6"><a xlink:href="namespaceipc_1_1transport_1_1asio__local__stream__socket.html#af0833f160dffd7f1c6921d27883a186b" target="_top" xlink:title="Little utility that returns the raw Native_handle suitable for Peer_socket to the OS.">
<polygon fill="white" stroke="black" points="166,-82 166,-126 271,-126 271,-82 166,-82"/>
<text text-anchor="start" x="174" y="-115.6" font-family="Helvetica,sans-Serif" font-size="8.00">ipc::transport::asio</text>
<text text-anchor="start" x="174" y="-106.6" font-family="Helvetica,sans-Serif" font-size="8.00">_local_stream_socket</text>
<text text-anchor="start" x="174" y="-97.6" font-family="Helvetica,sans-Serif" font-size="8.00">::release_native_peer</text>
<text text-anchor="middle" x="218.5" y="-88.6" font-family="Helvetica,sans-Serif" font-size="8.00">_socket</text>
</a>
</g>
</g>
<!-- Node1&#45;&gt;Node6 -->
<g id="edge7" class="edge">
<title>Node1&#45;&gt;Node6</title>
<path fill="none" stroke="midnightblue" d="M116.22,-119.97C129.03,-117.95 142.66,-115.8 155.65,-113.76"/>
<polygon fill="midnightblue" stroke="midnightblue" points="156.56,-117.16 165.89,-112.14 155.47,-110.24 156.56,-117.16"/>
</g>
<!-- Node7 -->
<g id="node7" class="node">
<title>Node7</title>
<g id="a_node7"><a xlink:href="namespaceipc_1_1util.html#abda2ce5bcdbc26ca63d667b87818439c" target="_top" xlink:title="Maps general Permissions_level specifier to low&#45;level Permissions value, when the underlying resource...">
<polygon fill="white" stroke="black" points="157.5,-37 157.5,-63 279.5,-63 279.5,-37 157.5,-37"/>
<text text-anchor="start" x="165.5" y="-52.6" font-family="Helvetica,sans-Serif" font-size="8.00">ipc::util::shared_resource</text>
<text text-anchor="middle" x="218.5" y="-43.6" font-family="Helvetica,sans-Serif" font-size="8.00">_permissions</text>
</a>
</g>
</g>
<!-- Node1&#45;&gt;Node7 -->
<g id="edge8" class="edge">
<title>Node1&#45;&gt;Node7</title>
<path fill="none" stroke="midnightblue" d="M84.18,-111.41C102.42,-99.21 127.98,-83.22 152,-72 156.02,-70.12 160.25,-68.33 164.54,-66.63"/>
<polygon fill="midnightblue" stroke="midnightblue" points="165.85,-69.88 173.97,-63.08 163.38,-63.33 165.85,-69.88"/>
</g>
<!-- Node8 -->
<g id="node8" class="node">
<title>Node8</title>
<g id="a_node8"><a xlink:href="classipc_1_1util_1_1Shared__name.html#ae89e1e061f87ffe0288514e254837595" target="_top" xlink:title="Returns (sans copying) ref to immutable entire wrapped name string, suitable to pass into sys calls w...">
<polygon fill="white" stroke="black" points="155.5,-0.5 155.5,-17.5 281.5,-17.5 281.5,-0.5 155.5,-0.5"/>
<text text-anchor="middle" x="218.5" y="-7.1" font-family="Helvetica,sans-Serif" font-size="8.00">ipc::util::Shared_name::str</text>
</a>
</g>
</g>
<!-- Node1&#45;&gt;Node8 -->
<g id="edge9" class="edge">
<title>Node1&#45;&gt;Node8</title>
<path fill="none" stroke="midnightblue" d="M70.3,-111.41C85.91,-88.53 116.24,-48.91 152,-27 155.62,-24.78 159.52,-22.83 163.54,-21.12"/>
<polygon fill="midnightblue" stroke="midnightblue" points="164.96,-24.32 173.09,-17.53 162.5,-17.77 164.96,-24.32"/>
</g>
<!-- Node3 -->
<g id="node3" class="node">
<title>Node3</title>
<g id="a_node3"><a xlink:href="namespaceipc_1_1session.html#a5216d618bb573e68276d2933ce3f4010" target="_top" xlink:title="Return the prefix common to all calls to either build_conventional_shared_name() overload with the ar...">
<polygon fill="white" stroke="black" points="321,-257.5 321,-292.5 427,-292.5 427,-257.5 321,-257.5"/>
<text text-anchor="start" x="329" y="-282.1" font-family="Helvetica,sans-Serif" font-size="8.00">ipc::session::build</text>
<text text-anchor="start" x="329" y="-273.1" font-family="Helvetica,sans-Serif" font-size="8.00">_conventional_shared</text>
<text text-anchor="middle" x="374" y="-264.1" font-family="Helvetica,sans-Serif" font-size="8.00">_name_prefix</text>
</a>
</g>
</g>
<!-- Node2&#45;&gt;Node3 -->
<g id="edge2" class="edge">
<title>Node2&#45;&gt;Node3</title>
<path fill="none" stroke="midnightblue" d="M267.23,-246.06C281.03,-249.83 296.3,-254.01 310.84,-257.99"/>
<polygon fill="midnightblue" stroke="midnightblue" points="310.2,-261.44 320.77,-260.71 312.04,-254.69 310.2,-261.44"/>
</g>
<!-- Node2&#45;&gt;Node4 -->
<g id="edge4" class="edge">
<title>Node2&#45;&gt;Node4</title>
<path fill="none" stroke="midnightblue" d="M285.16,-232.12C335,-231.45 403.17,-230.53 452.68,-229.86"/>
<polygon fill="midnightblue" stroke="midnightblue" points="453,-233.36 462.95,-229.73 452.9,-226.36 453,-233.36"/>
</g>
<!-- Node3&#45;&gt;Node4 -->
<g id="edge3" class="edge">
<title>Node3&#45;&gt;Node4</title>
<path fill="none" stroke="midnightblue" d="M427.07,-258.13C440.06,-253.92 453.97,-249.42 466.87,-245.24"/>
<polygon fill="midnightblue" stroke="midnightblue" points="468.07,-248.53 476.5,-242.12 465.91,-241.87 468.07,-248.53"/>
</g>
</g>
</svg>
