<?xml version="1.0" encoding="UTF-8" standalone="no"?>
<!DOCTYPE svg PUBLIC "-//W3C//DTD SVG 1.1//EN"
 "http://www.w3.org/Graphics/SVG/1.1/DTD/svg11.dtd">
<!-- Generated by graphviz version 2.43.0 (0)
 -->
<!-- Title: ipc::transport::Posix_mq_handle::pipe_setup Pages: 1 -->
<svg width="294pt" height="35pt"
 viewBox="0.00 0.00 294.00 35.00" xmlns="http://www.w3.org/2000/svg" xmlns:xlink="http://www.w3.org/1999/xlink">
<g id="graph0" class="graph" transform="scale(1 1) rotate(0) translate(4 31)">
<title>ipc::transport::Posix_mq_handle::pipe_setup</title>
<polygon fill="white" stroke="transparent" points="-4,4 -4,-31 290,-31 290,4 -4,4"/>
<!-- Node1 -->
<g id="node1" class="node">
<title>Node1</title>
<g id="a_node1"><a xlink:title="Ctor helper that sets up m_interrupt* pipe items.">
<polygon fill="#bfbfbf" stroke="black" points="0,-0.5 0,-26.5 116,-26.5 116,-0.5 0,-0.5"/>
<text text-anchor="start" x="8" y="-16.1" font-family="Helvetica,sans-Serif" font-size="8.00">ipc::transport::Posix</text>
<text text-anchor="middle" x="58" y="-7.1" font-family="Helvetica,sans-Serif" font-size="8.00">_mq_handle::pipe_setup</text>
</a>
</g>
</g>
<!-- Node2 -->
<g id="node2" class="node">
<title>Node2</title>
<g id="a_node2"><a xlink:href="classipc_1_1transport_1_1Posix__mq__handle.html#a7d62af06a8cea2a821908384ee098125" target="_top" xlink:title="Implements Persistent_mq_handle API: Returns name equal to absolute_name passed to ctor.">
<polygon fill="white" stroke="black" points="152,-0.5 152,-26.5 286,-26.5 286,-0.5 152,-0.5"/>
<text text-anchor="start" x="160" y="-16.1" font-family="Helvetica,sans-Serif" font-size="8.00">ipc::transport::Posix</text>
<text text-anchor="middle" x="219" y="-7.1" font-family="Helvetica,sans-Serif" font-size="8.00">_mq_handle::absolute_name</text>
</a>
</g>
</g>
<!-- Node1&#45;&gt;Node2 -->
<g id="edge1" class="edge">
<title>Node1&#45;&gt;Node2</title>
<path fill="none" stroke="midnightblue" d="M116.4,-13.5C124.56,-13.5 133.06,-13.5 141.51,-13.5"/>
<polygon fill="midnightblue" stroke="midnightblue" points="141.76,-17 151.76,-13.5 141.76,-10 141.76,-17"/>
</g>
</g>
</svg>
