<?xml version="1.0" encoding="UTF-8" standalone="no"?>
<!DOCTYPE svg PUBLIC "-//W3C//DTD SVG 1.1//EN"
 "http://www.w3.org/Graphics/SVG/1.1/DTD/svg11.dtd">
<!-- Generated by graphviz version 2.43.0 (0)
 -->
<!-- Title: ipc::session::Session_server&lt; S_MQ_TYPE_OR_NONE, S_TRANSMIT_NATIVE_HANDLES, Mdt_payload &gt; Pages: 1 -->
<svg width="970pt" height="324pt"
 viewBox="0.00 0.00 970.00 324.00" xmlns="http://www.w3.org/2000/svg" xmlns:xlink="http://www.w3.org/1999/xlink">
<g id="graph0" class="graph" transform="scale(1 1) rotate(0) translate(4 320)">
<title>ipc::session::Session_server&lt; S_MQ_TYPE_OR_NONE, S_TRANSMIT_NATIVE_HANDLES, Mdt_payload &gt;</title>
<polygon fill="white" stroke="transparent" points="-4,4 -4,-320 966,-320 966,4 -4,4"/>
<!-- Node1 -->
<g id="node1" class="node">
<title>Node1</title>
<g id="a_node1"><a xlink:title="To be instantiated typically once in a given process, an object of this type asynchronously listens f...">
<polygon fill="#bfbfbf" stroke="black" points="831,-151 831,-195 962,-195 962,-151 831,-151"/>
<text text-anchor="start" x="839" y="-184.6" font-family="Helvetica,sans-Serif" font-size="8.00">ipc::session::Session</text>
<text text-anchor="start" x="839" y="-175.6" font-family="Helvetica,sans-Serif" font-size="8.00">_server&lt; S_MQ_TYPE_OR</text>
<text text-anchor="start" x="839" y="-166.6" font-family="Helvetica,sans-Serif" font-size="8.00">_NONE, S_TRANSMIT_NATIVE</text>
<text text-anchor="middle" x="896.5" y="-157.6" font-family="Helvetica,sans-Serif" font-size="8.00">_HANDLES, Mdt_payload &gt;</text>
</a>
</g>
</g>
<!-- Node2 -->
<g id="node2" class="node">
<title>Node2</title>
<g id="a_node2"><a xlink:href="classipc_1_1session_1_1Session__server__impl.html" target="_top" xlink:title=" ">
<polygon fill="white" stroke="black" points="648,-133 648,-213 794,-213 794,-133 648,-133"/>
<text text-anchor="start" x="656" y="-202.6" font-family="Helvetica,sans-Serif" font-size="8.00">ipc::session::Session</text>
<text text-anchor="start" x="656" y="-193.6" font-family="Helvetica,sans-Serif" font-size="8.00">_server_impl&lt; Session</text>
<text text-anchor="start" x="656" y="-184.6" font-family="Helvetica,sans-Serif" font-size="8.00">_server&lt; S_MQ_TYPE_OR</text>
<text text-anchor="start" x="656" y="-175.6" font-family="Helvetica,sans-Serif" font-size="8.00">_NONE, S_TRANSMIT_NATIVE</text>
<text text-anchor="start" x="656" y="-166.6" font-family="Helvetica,sans-Serif" font-size="8.00">_HANDLES, Mdt_payload &gt;,</text>
<text text-anchor="start" x="656" y="-157.6" font-family="Helvetica,sans-Serif" font-size="8.00"> Server_session&lt; S_MQ_TYPE</text>
<text text-anchor="start" x="656" y="-148.6" font-family="Helvetica,sans-Serif" font-size="8.00">_OR_NONE, S_TRANSMIT_NATIVE</text>
<text text-anchor="middle" x="721" y="-139.6" font-family="Helvetica,sans-Serif" font-size="8.00">_HANDLES, Mdt_payload &gt; &gt;</text>
</a>
</g>
</g>
<!-- Node2&#45;&gt;Node1 -->
<g id="edge1" class="edge">
<title>Node2&#45;&gt;Node1</title>
<path fill="none" stroke="#8b1a1a" d="M804.15,-173C813.11,-173 822.14,-173 830.86,-173"/>
<polygon fill="#8b1a1a" stroke="#8b1a1a" points="804.07,-169.5 794.07,-173 804.07,-176.5 804.07,-169.5"/>
</g>
<!-- Node3 -->
<g id="node3" class="node">
<title>Node3</title>
<g id="a_node3"><a xlink:title=" ">
<polygon fill="white" stroke="#bfbfbf" points="390,-298.5 390,-315.5 497,-315.5 497,-298.5 390,-298.5"/>
<text text-anchor="middle" x="443.5" y="-305.1" font-family="Helvetica,sans-Serif" font-size="8.00">flow::log::Log_context</text>
</a>
</g>
</g>
<!-- Node3&#45;&gt;Node2 -->
<g id="edge2" class="edge">
<title>Node3&#45;&gt;Node2</title>
<path fill="none" stroke="midnightblue" d="M507.48,-299.84C544.89,-293.58 592.25,-282.05 630,-261 651.57,-248.97 671.63,-230.42 687.32,-213.44"/>
<polygon fill="midnightblue" stroke="midnightblue" points="506.53,-296.45 497.2,-301.47 507.63,-303.36 506.53,-296.45"/>
</g>
<!-- Node4 -->
<g id="node4" class="node">
<title>Node4</title>
<g id="a_node4"><a xlink:title=" ">
<polygon fill="white" stroke="#bfbfbf" points="394,-262.5 394,-279.5 493,-279.5 493,-262.5 394,-262.5"/>
<text text-anchor="middle" x="443.5" y="-269.1" font-family="Helvetica,sans-Serif" font-size="8.00">boost::noncopyable</text>
</a>
</g>
</g>
<!-- Node4&#45;&gt;Node2 -->
<g id="edge3" class="edge">
<title>Node4&#45;&gt;Node2</title>
<path fill="none" stroke="#8b1a1a" d="M503.53,-265.31C540.88,-260.25 589.57,-250.92 630,-234 643.06,-228.54 656.19,-221.04 668.23,-213.17"/>
<polygon fill="#8b1a1a" stroke="#8b1a1a" points="502.79,-261.88 493.32,-266.63 503.68,-268.82 502.79,-261.88"/>
</g>
<!-- Node5 -->
<g id="node5" class="node">
<title>Node5</title>
<g id="a_node5"><a xlink:href="structipc_1_1session_1_1Server__app.html" target="_top" xlink:title="An App that is used as a server in at least one client&#45;server IPC split.">
<polygon fill="white" stroke="black" points="384.5,-226.5 384.5,-243.5 502.5,-243.5 502.5,-226.5 384.5,-226.5"/>
<text text-anchor="middle" x="443.5" y="-233.1" font-family="Helvetica,sans-Serif" font-size="8.00">ipc::session::Server_app</text>
</a>
</g>
</g>
<!-- Node5&#45;&gt;Node2 -->
<g id="edge4" class="edge">
<title>Node5&#45;&gt;Node2</title>
<path fill="none" stroke="#9a32cd" stroke-dasharray="5,2" d="M507.87,-224.74C543.88,-218.49 589.69,-209.82 630,-200 635.86,-198.57 641.91,-196.99 647.97,-195.33"/>
<polygon fill="#9a32cd" stroke="#9a32cd" points="507.25,-221.3 497.99,-226.44 508.44,-228.19 507.25,-221.3"/>
<text text-anchor="middle" x="577" y="-223.6" font-family="Helvetica,sans-Serif" font-size="8.00"> m_srv_app_ref</text>
</g>
<!-- Node6 -->
<g id="node6" class="node">
<title>Node6</title>
<g id="a_node6"><a xlink:href="structipc_1_1session_1_1App.html" target="_top" xlink:title="A description of an application in this ipc::session inter&#45;process communication universe.">
<polygon fill="white" stroke="black" points="155,-250.5 155,-267.5 243,-267.5 243,-250.5 155,-250.5"/>
<text text-anchor="middle" x="199" y="-257.1" font-family="Helvetica,sans-Serif" font-size="8.00">ipc::session::App</text>
</a>
</g>
</g>
<!-- Node6&#45;&gt;Node5 -->
<g id="edge5" class="edge">
<title>Node6&#45;&gt;Node5</title>
<path fill="none" stroke="midnightblue" d="M253.12,-253.74C291.9,-249.9 344.44,-244.7 384.35,-240.76"/>
<polygon fill="midnightblue" stroke="midnightblue" points="252.68,-250.27 243.07,-254.74 253.37,-257.23 252.68,-250.27"/>
</g>
<!-- Node7 -->
<g id="node7" class="node">
<title>Node7</title>
<g id="a_node7"><a xlink:title=" ">
<polygon fill="white" stroke="red" points="0,-252.5 0,-269.5 59,-269.5 59,-252.5 0,-252.5"/>
<text text-anchor="middle" x="29.5" y="-259.1" font-family="Helvetica,sans-Serif" font-size="8.00">std::string</text>
</a>
</g>
</g>
<!-- Node7&#45;&gt;Node6 -->
<g id="edge6" class="edge">
<title>Node7&#45;&gt;Node6</title>
<path fill="none" stroke="#9a32cd" stroke-dasharray="5,2" d="M69.19,-260.13C71.84,-260.08 74.46,-260.04 77,-260 102.84,-259.62 131.78,-259.37 154.88,-259.22"/>
<polygon fill="#9a32cd" stroke="#9a32cd" points="68.95,-256.63 59.03,-260.33 69.09,-263.63 68.95,-256.63"/>
<text text-anchor="middle" x="104.5" y="-262.6" font-family="Helvetica,sans-Serif" font-size="8.00"> m_name</text>
</g>
<!-- Node9 -->
<g id="node8" class="node">
<title>Node9</title>
<g id="a_node8"><a xlink:title=" ">
<polygon fill="white" stroke="#bfbfbf" points="12,-296.5 12,-313.5 47,-313.5 47,-296.5 12,-296.5"/>
<text text-anchor="middle" x="29.5" y="-303.1" font-family="Helvetica,sans-Serif" font-size="8.00">path</text>
</a>
</g>
</g>
<!-- Node9&#45;&gt;Node5 -->
<g id="edge11" class="edge">
<title>Node9&#45;&gt;Node5</title>
<path fill="none" stroke="#9a32cd" stroke-dasharray="5,2" d="M57.24,-304.91C77.75,-304.61 106.73,-303.67 132,-301 235.62,-290.04 263.3,-291.28 363,-261 371.38,-258.46 372.78,-256.01 381,-253 390.4,-249.55 400.79,-246.3 410.32,-243.54"/>
<polygon fill="#9a32cd" stroke="#9a32cd" points="57.04,-301.41 47.07,-305.02 57.11,-308.41 57.04,-301.41"/>
<text text-anchor="start" x="156.5" y="-309.6" font-family="Helvetica,sans-Serif" font-size="8.00"> m_kernel_persistent</text>
<text text-anchor="middle" x="199" y="-300.6" font-family="Helvetica,sans-Serif" font-size="8.00">_run_dir_override</text>
</g>
<!-- Node9&#45;&gt;Node6 -->
<g id="edge7" class="edge">
<title>Node9&#45;&gt;Node6</title>
<path fill="none" stroke="#9a32cd" stroke-dasharray="5,2" d="M57.03,-297.55C63.56,-295.73 70.53,-293.79 77,-292 107.33,-283.62 141.97,-274.19 166.39,-267.56"/>
<polygon fill="#9a32cd" stroke="#9a32cd" points="55.97,-294.21 47.28,-300.28 57.85,-300.96 55.97,-294.21"/>
<text text-anchor="middle" x="104.5" y="-294.6" font-family="Helvetica,sans-Serif" font-size="8.00"> m_exec_path</text>
</g>
<!-- Node10 -->
<g id="node9" class="node">
<title>Node10</title>
<g id="a_node9"><a xlink:title=" ">
<polygon fill="white" stroke="#bfbfbf" points="11.5,-180.5 11.5,-197.5 47.5,-197.5 47.5,-180.5 11.5,-180.5"/>
<text text-anchor="middle" x="29.5" y="-187.1" font-family="Helvetica,sans-Serif" font-size="8.00">uid_t</text>
</a>
</g>
</g>
<!-- Node10&#45;&gt;Node6 -->
<g id="edge8" class="edge">
<title>Node10&#45;&gt;Node6</title>
<path fill="none" stroke="#9a32cd" stroke-dasharray="5,2" d="M57.82,-194.01C79.21,-198.82 109.08,-207.52 132,-222 141.83,-228.21 140.31,-234.57 150,-241 155.71,-244.79 162.33,-247.93 168.79,-250.46"/>
<polygon fill="#9a32cd" stroke="#9a32cd" points="58.28,-190.53 47.78,-191.9 56.85,-197.38 58.28,-190.53"/>
<text text-anchor="middle" x="104.5" y="-224.6" font-family="Helvetica,sans-Serif" font-size="8.00"> m_user_id</text>
</g>
<!-- Node11 -->
<g id="node10" class="node">
<title>Node11</title>
<g id="a_node10"><a xlink:title=" ">
<polygon fill="white" stroke="#bfbfbf" points="11.5,-216.5 11.5,-233.5 47.5,-233.5 47.5,-216.5 11.5,-216.5"/>
<text text-anchor="middle" x="29.5" y="-223.1" font-family="Helvetica,sans-Serif" font-size="8.00">gid_t</text>
</a>
</g>
</g>
<!-- Node11&#45;&gt;Node6 -->
<g id="edge9" class="edge">
<title>Node11&#45;&gt;Node6</title>
<path fill="none" stroke="#9a32cd" stroke-dasharray="5,2" d="M57.93,-230.57C84.54,-235.97 125.31,-244.24 156.01,-250.48"/>
<polygon fill="#9a32cd" stroke="#9a32cd" points="58.29,-227.07 47.79,-228.51 56.9,-233.93 58.29,-227.07"/>
<text text-anchor="middle" x="104.5" y="-247.6" font-family="Helvetica,sans-Serif" font-size="8.00"> m_group_id</text>
</g>
<!-- Node12 -->
<g id="node11" class="node">
<title>Node12</title>
<g id="a_node11"><a xlink:title=" ">
<polygon fill="white" stroke="#bfbfbf" points="150,-205 150,-231 248,-231 248,-205 150,-205"/>
<text text-anchor="start" x="158" y="-220.6" font-family="Helvetica,sans-Serif" font-size="8.00">unordered_set&lt; std</text>
<text text-anchor="middle" x="199" y="-211.6" font-family="Helvetica,sans-Serif" font-size="8.00">::string &gt;</text>
</a>
</g>
</g>
<!-- Node12&#45;&gt;Node5 -->
<g id="edge10" class="edge">
<title>Node12&#45;&gt;Node5</title>
<path fill="none" stroke="#9a32cd" stroke-dasharray="5,2" d="M258.39,-221.21C289.47,-223.01 328.33,-225.41 363,-228 369.91,-228.52 377.15,-229.1 384.33,-229.7"/>
<polygon fill="#9a32cd" stroke="#9a32cd" points="258.35,-217.7 248.17,-220.62 257.95,-224.69 258.35,-217.7"/>
<text text-anchor="middle" x="314.5" y="-230.6" font-family="Helvetica,sans-Serif" font-size="8.00"> m_allowed_client_apps</text>
</g>
<!-- Node13 -->
<g id="node12" class="node">
<title>Node13</title>
<g id="a_node12"><a xlink:title=" ">
<polygon fill="white" stroke="#bfbfbf" points="154.5,-168.5 154.5,-185.5 243.5,-185.5 243.5,-168.5 154.5,-168.5"/>
<text text-anchor="middle" x="199" y="-175.1" font-family="Helvetica,sans-Serif" font-size="8.00">Permissions_level</text>
</a>
</g>
</g>
<!-- Node13&#45;&gt;Node5 -->
<g id="edge12" class="edge">
<title>Node13&#45;&gt;Node5</title>
<path fill="none" stroke="#9a32cd" stroke-dasharray="5,2" d="M254.1,-175.72C287.11,-176.97 329.29,-182.31 363,-199 373.14,-204.02 371.27,-211.23 381,-217 387.6,-220.91 395.11,-224.03 402.57,-226.48"/>
<polygon fill="#9a32cd" stroke="#9a32cd" points="253.82,-172.21 243.73,-175.45 253.63,-179.21 253.82,-172.21"/>
<text text-anchor="start" x="271" y="-210.6" font-family="Helvetica,sans-Serif" font-size="8.00"> m_permissions_level</text>
<text text-anchor="middle" x="314.5" y="-201.6" font-family="Helvetica,sans-Serif" font-size="8.00">_for_client_apps</text>
</g>
<!-- Node14 -->
<g id="node13" class="node">
<title>Node14</title>
<g id="a_node13"><a xlink:title=" ">
<polygon fill="white" stroke="#bfbfbf" points="396,-181 396,-207 491,-207 491,-181 396,-181"/>
<text text-anchor="start" x="404" y="-196.6" font-family="Helvetica,sans-Serif" font-size="8.00">Session_server_obj</text>
<text text-anchor="middle" x="443.5" y="-187.6" font-family="Helvetica,sans-Serif" font-size="8.00"> *const</text>
</a>
</g>
</g>
<!-- Node14&#45;&gt;Node2 -->
<g id="edge13" class="edge">
<title>Node14&#45;&gt;Node2</title>
<path fill="none" stroke="#9a32cd" stroke-dasharray="5,2" d="M501.4,-189.66C543.84,-186.43 602.15,-181.98 647.87,-178.5"/>
<polygon fill="#9a32cd" stroke="#9a32cd" points="500.94,-186.19 491.23,-190.44 501.47,-193.17 500.94,-186.19"/>
<text text-anchor="middle" x="577" y="-189.6" font-family="Helvetica,sans-Serif" font-size="8.00"> m_this_session_srv</text>
</g>
<!-- Node15 -->
<g id="node14" class="node">
<title>Node15</title>
<g id="a_node14"><a xlink:title=" ">
<polygon fill="white" stroke="#bfbfbf" points="409,-144.5 409,-161.5 478,-161.5 478,-144.5 409,-144.5"/>
<text text-anchor="middle" x="443.5" y="-151.1" font-family="Helvetica,sans-Serif" font-size="8.00">Master_set &amp;</text>
</a>
</g>
</g>
<!-- Node15&#45;&gt;Node2 -->
<g id="edge14" class="edge">
<title>Node15&#45;&gt;Node2</title>
<path fill="none" stroke="#9a32cd" stroke-dasharray="5,2" d="M488.16,-154.65C525.78,-156.25 581.52,-159 630,-163 635.8,-163.48 641.8,-164.03 647.82,-164.62"/>
<polygon fill="#9a32cd" stroke="#9a32cd" points="488.19,-151.15 478.05,-154.23 487.9,-158.15 488.19,-151.15"/>
<text text-anchor="middle" x="577" y="-165.6" font-family="Helvetica,sans-Serif" font-size="8.00"> m_cli_app_master_set_ref</text>
</g>
<!-- Node16 -->
<g id="node15" class="node">
<title>Node16</title>
<g id="a_node15"><a xlink:title=" ">
<polygon fill="white" stroke="#bfbfbf" points="381,-90.5 381,-125.5 506,-125.5 506,-90.5 381,-90.5"/>
<text text-anchor="start" x="389" y="-115.1" font-family="Helvetica,sans-Serif" font-size="8.00">const Function&lt; Error</text>
<text text-anchor="start" x="389" y="-106.1" font-family="Helvetica,sans-Serif" font-size="8.00">_code(const ipc::session</text>
<text text-anchor="middle" x="443.5" y="-97.1" font-family="Helvetica,sans-Serif" font-size="8.00">::Client_app &amp;client_app)&gt;</text>
</a>
</g>
</g>
<!-- Node16&#45;&gt;Node2 -->
<g id="edge15" class="edge">
<title>Node16&#45;&gt;Node2</title>
<path fill="none" stroke="#9a32cd" stroke-dasharray="5,2" d="M516.39,-119.23C550.98,-125.23 592.9,-133.36 630,-143 635.74,-144.49 641.64,-146.16 647.55,-147.92"/>
<polygon fill="#9a32cd" stroke="#9a32cd" points="516.82,-115.75 506.37,-117.52 515.64,-122.65 516.82,-115.75"/>
<text text-anchor="middle" x="577" y="-145.6" font-family="Helvetica,sans-Serif" font-size="8.00"> m_per_app_setup_func</text>
</g>
<!-- Node17 -->
<g id="node16" class="node">
<title>Node17</title>
<g id="a_node16"><a xlink:title=" ">
<polygon fill="white" stroke="#bfbfbf" points="389,-36.5 389,-71.5 498,-71.5 498,-36.5 389,-36.5"/>
<text text-anchor="start" x="397" y="-61.1" font-family="Helvetica,sans-Serif" font-size="8.00">optional&lt; ipc::session</text>
<text text-anchor="start" x="397" y="-52.1" font-family="Helvetica,sans-Serif" font-size="8.00">::Session_server_impl</text>
<text text-anchor="middle" x="443.5" y="-43.1" font-family="Helvetica,sans-Serif" font-size="8.00">::State &gt;</text>
</a>
</g>
</g>
<!-- Node17&#45;&gt;Node2 -->
<g id="edge16" class="edge">
<title>Node17&#45;&gt;Node2</title>
<path fill="none" stroke="#9a32cd" stroke-dasharray="5,2" d="M508.4,-66.36C545.15,-74.9 591.51,-88.14 630,-107 644.27,-113.99 658.63,-123.27 671.56,-132.66"/>
<polygon fill="#9a32cd" stroke="#9a32cd" points="508.83,-62.87 498.31,-64.08 507.29,-69.7 508.83,-62.87"/>
<text text-anchor="middle" x="577" y="-109.6" font-family="Helvetica,sans-Serif" font-size="8.00"> m_state</text>
</g>
<!-- Node18 -->
<g id="node17" class="node">
<title>Node18</title>
<g id="a_node17"><a xlink:href="classFunction_3_01void_07_08_4.html" target="_top" xlink:title=" ">
<polygon fill="white" stroke="#bfbfbf" points="398,-0.5 398,-17.5 489,-17.5 489,-0.5 398,-0.5"/>
<text text-anchor="middle" x="443.5" y="-7.1" font-family="Helvetica,sans-Serif" font-size="8.00">Function&lt; void()&gt;</text>
</a>
</g>
</g>
<!-- Node18&#45;&gt;Node2 -->
<g id="edge17" class="edge">
<title>Node18&#45;&gt;Node2</title>
<path fill="none" stroke="#9a32cd" stroke-dasharray="5,2" d="M499.53,-13.76C538.59,-19.29 590.85,-31.23 630,-57 658.96,-76.06 682.55,-107.61 698.3,-132.99"/>
<polygon fill="#9a32cd" stroke="#9a32cd" points="499.76,-10.26 489.39,-12.42 498.84,-17.2 499.76,-10.26"/>
<text text-anchor="middle" x="577" y="-59.6" font-family="Helvetica,sans-Serif" font-size="8.00"> m_deinit_func_or_empty</text>
</g>
</g>
</svg>
