<?xml version="1.0" encoding="UTF-8" standalone="no"?>
<!DOCTYPE svg PUBLIC "-//W3C//DTD SVG 1.1//EN"
 "http://www.w3.org/Graphics/SVG/1.1/DTD/svg11.dtd">
<!-- Generated by graphviz version 2.43.0 (0)
 -->
<!-- Title: ipc::session::Server_session_mv&lt; Server_session_impl_t &gt; Pages: 1 -->
<svg width="148pt" height="107pt"
 viewBox="0.00 0.00 148.00 107.00" xmlns="http://www.w3.org/2000/svg" xmlns:xlink="http://www.w3.org/1999/xlink">
<g id="graph0" class="graph" transform="scale(1 1) rotate(0) translate(4 103)">
<title>ipc::session::Server_session_mv&lt; Server_session_impl_t &gt;</title>
<polygon fill="white" stroke="transparent" points="-4,4 -4,-103 144,-103 144,4 -4,4"/>
<!-- Node1 -->
<g id="node1" class="node">
<title>Node1</title>
<g id="a_node1"><a xlink:title="Implements Session concept on the Server_app end: a Session that is emitted in almost&#45;PEER state by l...">
<polygon fill="#bfbfbf" stroke="black" points="1,-0.5 1,-35.5 139,-35.5 139,-0.5 1,-0.5"/>
<text text-anchor="start" x="9" y="-25.1" font-family="Helvetica,sans-Serif" font-size="8.00">ipc::session::Server</text>
<text text-anchor="start" x="9" y="-16.1" font-family="Helvetica,sans-Serif" font-size="8.00">_session_mv&lt; Server_session</text>
<text text-anchor="middle" x="70" y="-7.1" font-family="Helvetica,sans-Serif" font-size="8.00">_impl_t &gt;</text>
</a>
</g>
</g>
<!-- Node2 -->
<g id="node2" class="node">
<title>Node2</title>
<g id="a_node2"><a xlink:href="classipc_1_1session_1_1Session__mv.html" target="_top" xlink:title=" ">
<polygon fill="white" stroke="black" points="0,-72.5 0,-98.5 140,-98.5 140,-72.5 0,-72.5"/>
<text text-anchor="start" x="8" y="-88.1" font-family="Helvetica,sans-Serif" font-size="8.00">ipc::session::Session</text>
<text text-anchor="middle" x="70" y="-79.1" font-family="Helvetica,sans-Serif" font-size="8.00">_mv&lt; Server_session_impl_t &gt;</text>
</a>
</g>
</g>
<!-- Node2&#45;&gt;Node1 -->
<g id="edge1" class="edge">
<title>Node2&#45;&gt;Node1</title>
<path fill="none" stroke="midnightblue" d="M70,-62.25C70,-53.53 70,-43.71 70,-35.62"/>
<polygon fill="midnightblue" stroke="midnightblue" points="66.5,-62.49 70,-72.49 73.5,-62.49 66.5,-62.49"/>
</g>
</g>
</svg>
