<?xml version="1.0" encoding="UTF-8" standalone="no"?>
<!DOCTYPE svg PUBLIC "-//W3C//DTD SVG 1.1//EN"
 "http://www.w3.org/Graphics/SVG/1.1/DTD/svg11.dtd">
<!-- Generated by graphviz version 2.43.0 (0)
 -->
<!-- Title: ipc::session::shm::arena_lend::jemalloc::Session_server::init_app_shm_as_needed Pages: 1 -->
<svg width="571pt" height="145pt"
 viewBox="0.00 0.00 571.00 144.50" xmlns="http://www.w3.org/2000/svg" xmlns:xlink="http://www.w3.org/1999/xlink">
<g id="graph0" class="graph" transform="scale(1 1) rotate(0) translate(4 140.5)">
<title>ipc::session::shm::arena_lend::jemalloc::Session_server::init_app_shm_as_needed</title>
<polygon fill="white" stroke="transparent" points="-4,4 -4,-140.5 567,-140.5 567,4 -4,4"/>
<!-- Node1 -->
<g id="node1" class="node">
<title>Node1</title>
<g id="a_node1"><a xlink:title="Analogous to classic::Session_server::init_app_shm_as_needed().">
<polygon fill="#bfbfbf" stroke="black" points="0,-32.5 0,-76.5 106,-76.5 106,-32.5 0,-32.5"/>
<text text-anchor="start" x="8" y="-66.1" font-family="Helvetica,sans-Serif" font-size="8.00">ipc::session::shm::</text>
<text text-anchor="start" x="8" y="-57.1" font-family="Helvetica,sans-Serif" font-size="8.00">arena_lend::jemalloc</text>
<text text-anchor="start" x="8" y="-48.1" font-family="Helvetica,sans-Serif" font-size="8.00">::Session_server::init</text>
<text text-anchor="middle" x="53" y="-39.1" font-family="Helvetica,sans-Serif" font-size="8.00">_app_shm_as_needed</text>
</a>
</g>
</g>
<!-- Node2 -->
<g id="node2" class="node">
<title>Node2</title>
<g id="a_node2"><a xlink:href="namespaceipc_1_1session.html#a365d2d63f77b738e67e206af6b702634" target="_top" xlink:title="Builds an absolute name according to the path convention explained in Shared_name class doc header; t...">
<polygon fill="white" stroke="black" points="142,-82.5 142,-108.5 275,-108.5 275,-82.5 142,-82.5"/>
<text text-anchor="start" x="150" y="-98.1" font-family="Helvetica,sans-Serif" font-size="8.00">ipc::session::build</text>
<text text-anchor="middle" x="208.5" y="-89.1" font-family="Helvetica,sans-Serif" font-size="8.00">_conventional_shared_name</text>
</a>
</g>
</g>
<!-- Node1&#45;&gt;Node2 -->
<g id="edge1" class="edge">
<title>Node1&#45;&gt;Node2</title>
<path fill="none" stroke="midnightblue" d="M106.4,-68.5C120.02,-72.14 134.8,-76.08 148.73,-79.8"/>
<polygon fill="midnightblue" stroke="midnightblue" points="148.13,-83.27 158.7,-82.47 149.94,-76.5 148.13,-83.27"/>
</g>
<!-- Node5 -->
<g id="node5" class="node">
<title>Node5</title>
<g id="a_node5"><a xlink:href="classipc_1_1util_1_1Shared__name.html#a48f20b7b54490aa10dc64081d34c55b2" target="_top" xlink:title="Copy&#45;constructs from a char&#45;sequence container (including string, util::String_view,...">
<polygon fill="white" stroke="black" points="147,-46 147,-63 270,-63 270,-46 147,-46"/>
<text text-anchor="middle" x="208.5" y="-52.6" font-family="Helvetica,sans-Serif" font-size="8.00">ipc::util::Shared_name::ct</text>
</a>
</g>
</g>
<!-- Node1&#45;&gt;Node5 -->
<g id="edge5" class="edge">
<title>Node1&#45;&gt;Node5</title>
<path fill="none" stroke="midnightblue" d="M106.4,-54.5C116.17,-54.5 126.53,-54.5 136.74,-54.5"/>
<polygon fill="midnightblue" stroke="midnightblue" points="136.88,-58 146.88,-54.5 136.88,-51 136.88,-58"/>
</g>
<!-- Node6 -->
<g id="node6" class="node">
<title>Node6</title>
<g id="a_node6"><a xlink:href="namespaceipc_1_1util.html#abda2ce5bcdbc26ca63d667b87818439c" target="_top" xlink:title="Maps general Permissions_level specifier to low&#45;level Permissions value, when the underlying resource...">
<polygon fill="white" stroke="black" points="147.5,-0.5 147.5,-26.5 269.5,-26.5 269.5,-0.5 147.5,-0.5"/>
<text text-anchor="start" x="155.5" y="-16.1" font-family="Helvetica,sans-Serif" font-size="8.00">ipc::util::shared_resource</text>
<text text-anchor="middle" x="208.5" y="-7.1" font-family="Helvetica,sans-Serif" font-size="8.00">_permissions</text>
</a>
</g>
</g>
<!-- Node1&#45;&gt;Node6 -->
<g id="edge6" class="edge">
<title>Node1&#45;&gt;Node6</title>
<path fill="none" stroke="midnightblue" d="M106.4,-40.5C120.02,-36.86 134.8,-32.92 148.73,-29.2"/>
<polygon fill="midnightblue" stroke="midnightblue" points="149.94,-32.5 158.7,-26.53 148.13,-25.73 149.94,-32.5"/>
</g>
<!-- Node3 -->
<g id="node3" class="node">
<title>Node3</title>
<g id="a_node3"><a xlink:href="namespaceipc_1_1session.html#a5216d618bb573e68276d2933ce3f4010" target="_top" xlink:title="Return the prefix common to all calls to either build_conventional_shared_name() overload with the ar...">
<polygon fill="white" stroke="black" points="311,-101 311,-136 417,-136 417,-101 311,-101"/>
<text text-anchor="start" x="319" y="-125.6" font-family="Helvetica,sans-Serif" font-size="8.00">ipc::session::build</text>
<text text-anchor="start" x="319" y="-116.6" font-family="Helvetica,sans-Serif" font-size="8.00">_conventional_shared</text>
<text text-anchor="middle" x="364" y="-107.6" font-family="Helvetica,sans-Serif" font-size="8.00">_name_prefix</text>
</a>
</g>
</g>
<!-- Node2&#45;&gt;Node3 -->
<g id="edge2" class="edge">
<title>Node2&#45;&gt;Node3</title>
<path fill="none" stroke="midnightblue" d="M275.04,-105.32C283.5,-106.59 292.14,-107.88 300.55,-109.14"/>
<polygon fill="midnightblue" stroke="midnightblue" points="300.25,-112.64 310.66,-110.66 301.29,-105.71 300.25,-112.64"/>
</g>
<!-- Node4 -->
<g id="node4" class="node">
<title>Node4</title>
<g id="a_node4"><a xlink:href="classipc_1_1util_1_1Shared__name.html#a861ea6c9ad6672e83bab5c7747b66f7b" target="_top" xlink:title="Returns true if and only if str().empty() == true.">
<polygon fill="white" stroke="black" points="453,-82.5 453,-108.5 563,-108.5 563,-82.5 453,-82.5"/>
<text text-anchor="start" x="461" y="-98.1" font-family="Helvetica,sans-Serif" font-size="8.00">ipc::util::Shared_name</text>
<text text-anchor="middle" x="508" y="-89.1" font-family="Helvetica,sans-Serif" font-size="8.00">::empty</text>
</a>
</g>
</g>
<!-- Node2&#45;&gt;Node4 -->
<g id="edge4" class="edge">
<title>Node2&#45;&gt;Node4</title>
<path fill="none" stroke="midnightblue" d="M275.01,-92.54C286.98,-92.11 299.36,-91.73 311,-91.5 358.1,-90.57 369.9,-90.45 417,-91.5 425.32,-91.68 434.06,-91.97 442.7,-92.29"/>
<polygon fill="midnightblue" stroke="midnightblue" points="442.63,-95.79 452.76,-92.7 442.91,-88.8 442.63,-95.79"/>
</g>
<!-- Node3&#45;&gt;Node4 -->
<g id="edge3" class="edge">
<title>Node3&#45;&gt;Node4</title>
<path fill="none" stroke="midnightblue" d="M417.07,-110.07C425.38,-108.72 434.05,-107.32 442.6,-105.93"/>
<polygon fill="midnightblue" stroke="midnightblue" points="443.24,-109.37 452.55,-104.32 442.12,-102.46 443.24,-109.37"/>
</g>
</g>
</svg>
