<?xml version="1.0" encoding="UTF-8" standalone="no"?>
<!DOCTYPE svg PUBLIC "-//W3C//DTD SVG 1.1//EN"
 "http://www.w3.org/Graphics/SVG/1.1/DTD/svg11.dtd">
<!-- Generated by graphviz version 2.43.0 (0)
 -->
<!-- Title: Server_session_t Pages: 1 -->
<svg width="109pt" height="98pt"
 viewBox="0.00 0.00 109.00 98.00" xmlns="http://www.w3.org/2000/svg" xmlns:xlink="http://www.w3.org/1999/xlink">
<g id="graph0" class="graph" transform="scale(1 1) rotate(0) translate(4 94)">
<title>Server_session_t</title>
<polygon fill="white" stroke="transparent" points="-4,4 -4,-94 105,-94 105,4 -4,4"/>
<!-- Node1 -->
<g id="node1" class="node">
<title>Node1</title>
<g id="a_node1"><a xlink:title=" ">
<polygon fill="#bfbfbf" stroke="black" points="8,-72.5 8,-89.5 93,-89.5 93,-72.5 8,-72.5"/>
<text text-anchor="middle" x="50.5" y="-79.1" font-family="Helvetica,sans-Serif" font-size="8.00">Server_session_t</text>
</a>
</g>
</g>
<!-- Node2 -->
<g id="node2" class="node">
<title>Node2</title>
<g id="a_node2"><a xlink:href="classipc_1_1session_1_1Server__session__dtl.html" target="_top" xlink:title="This is the data&#45;less sub&#45;class of Server_session or any more&#45;advanced (e.g., SHM&#45;capable) variant th...">
<polygon fill="white" stroke="black" points="0,-0.5 0,-35.5 101,-35.5 101,-0.5 0,-0.5"/>
<text text-anchor="start" x="8" y="-25.1" font-family="Helvetica,sans-Serif" font-size="8.00">ipc::session::Server</text>
<text text-anchor="start" x="8" y="-16.1" font-family="Helvetica,sans-Serif" font-size="8.00">_session_dtl&lt; Server</text>
<text text-anchor="middle" x="50.5" y="-7.1" font-family="Helvetica,sans-Serif" font-size="8.00">_session_t &gt;</text>
</a>
</g>
</g>
<!-- Node1&#45;&gt;Node2 -->
<g id="edge1" class="edge">
<title>Node1&#45;&gt;Node2</title>
<path fill="none" stroke="midnightblue" d="M50.5,-62.11C50.5,-53.74 50.5,-43.83 50.5,-35.62"/>
<polygon fill="midnightblue" stroke="midnightblue" points="47,-62.27 50.5,-72.27 54,-62.27 47,-62.27"/>
</g>
</g>
</svg>
