<?xml version="1.0" encoding="UTF-8" standalone="no"?>
<!DOCTYPE svg PUBLIC "-//W3C//DTD SVG 1.1//EN"
 "http://www.w3.org/Graphics/SVG/1.1/DTD/svg11.dtd">
<!-- Generated by graphviz version 2.43.0 (0)
 -->
<!-- Title: ipc::transport::Bipc_mq_handle::wait_impl Pages: 1 -->
<svg width="295pt" height="62pt"
 viewBox="0.00 0.00 295.00 62.00" xmlns="http://www.w3.org/2000/svg" xmlns:xlink="http://www.w3.org/1999/xlink">
<g id="graph0" class="graph" transform="scale(1 1) rotate(0) translate(4 58)">
<title>ipc::transport::Bipc_mq_handle::wait_impl</title>
<polygon fill="white" stroke="transparent" points="-4,4 -4,-58 291,-58 291,4 -4,4"/>
<!-- Node1 -->
<g id="node1" class="node">
<title>Node1</title>
<g id="a_node1"><a xlink:title="Impl body for *_sendable() and *_receivable().">
<polygon fill="#bfbfbf" stroke="black" points="0,-5 0,-31 110,-31 110,-5 0,-5"/>
<text text-anchor="start" x="8" y="-20.6" font-family="Helvetica,sans-Serif" font-size="8.00">ipc::transport::Bipc</text>
<text text-anchor="middle" x="55" y="-11.6" font-family="Helvetica,sans-Serif" font-size="8.00">_mq_handle::wait_impl</text>
</a>
</g>
</g>
<!-- Node2 -->
<g id="node2" class="node">
<title>Node2</title>
<g id="a_node2"><a xlink:href="classipc_1_1transport_1_1Bipc__mq__handle.html#a9948742d87298d5842d298de9c946c7c" target="_top" xlink:title="Error helper: Run func() which will perform a bipc::message_queue API that might throw; if it does em...">
<polygon fill="white" stroke="black" points="146,-0.5 146,-35.5 287,-35.5 287,-0.5 146,-0.5"/>
<text text-anchor="start" x="154" y="-25.1" font-family="Helvetica,sans-Serif" font-size="8.00">ipc::transport::Bipc</text>
<text text-anchor="start" x="154" y="-16.1" font-family="Helvetica,sans-Serif" font-size="8.00">_mq_handle::op_with_possible</text>
<text text-anchor="middle" x="216.5" y="-7.1" font-family="Helvetica,sans-Serif" font-size="8.00">_bipc_mq_exception</text>
</a>
</g>
</g>
<!-- Node1&#45;&gt;Node2 -->
<g id="edge1" class="edge">
<title>Node1&#45;&gt;Node2</title>
<path fill="none" stroke="midnightblue" d="M110.44,-18C118.62,-18 127.19,-18 135.75,-18"/>
<polygon fill="midnightblue" stroke="midnightblue" points="135.79,-21.5 145.79,-18 135.79,-14.5 135.79,-21.5"/>
</g>
<!-- Node2&#45;&gt;Node2 -->
<g id="edge2" class="edge">
<title>Node2&#45;&gt;Node2</title>
<path fill="none" stroke="midnightblue" d="M187.74,-35.78C182.85,-45.31 192.44,-54 216.5,-54 231.16,-54 240.45,-50.77 244.36,-46.1"/>
<polygon fill="midnightblue" stroke="midnightblue" points="247.88,-46.05 245.26,-35.78 240.91,-45.44 247.88,-46.05"/>
</g>
</g>
</svg>
