<?xml version="1.0" encoding="UTF-8" standalone="no"?>
<!DOCTYPE svg PUBLIC "-//W3C//DTD SVG 1.1//EN"
 "http://www.w3.org/Graphics/SVG/1.1/DTD/svg11.dtd">
<!-- Generated by graphviz version 2.43.0 (0)
 -->
<!-- Title: ipc::session::Session_mv&lt; Session_impl_t &gt; Pages: 1 -->
<svg width="392pt" height="130pt"
 viewBox="0.00 0.00 392.00 130.00" xmlns="http://www.w3.org/2000/svg" xmlns:xlink="http://www.w3.org/1999/xlink">
<g id="graph0" class="graph" transform="scale(1 1) rotate(0) translate(4 126)">
<title>ipc::session::Session_mv&lt; Session_impl_t &gt;</title>
<polygon fill="white" stroke="transparent" points="-4,4 -4,-126 388,-126 388,4 -4,4"/>
<!-- Node1 -->
<g id="node1" class="node">
<title>Node1</title>
<g id="a_node1"><a xlink:title="Implements the Session concept when it is in PEER state.">
<polygon fill="#bfbfbf" stroke="black" points="274,-50 274,-76 384,-76 384,-50 274,-50"/>
<text text-anchor="start" x="282" y="-65.6" font-family="Helvetica,sans-Serif" font-size="8.00">ipc::session::Session</text>
<text text-anchor="middle" x="329" y="-56.6" font-family="Helvetica,sans-Serif" font-size="8.00">_mv&lt; Session_impl_t &gt;</text>
</a>
</g>
</g>
<!-- Node2 -->
<g id="node2" class="node">
<title>Node2</title>
<g id="a_node2"><a xlink:title=" ">
<polygon fill="white" stroke="#bfbfbf" points="32.5,-104.5 32.5,-121.5 85.5,-121.5 85.5,-104.5 32.5,-104.5"/>
<text text-anchor="middle" x="59" y="-111.1" font-family="Helvetica,sans-Serif" font-size="8.00">ShmType</text>
</a>
</g>
</g>
<!-- Node2&#45;&gt;Node1 -->
<g id="edge1" class="edge">
<title>Node2&#45;&gt;Node1</title>
<path fill="none" stroke="#9a32cd" stroke-dasharray="5,2" d="M95.98,-111.75C135.67,-109.73 201.18,-104.49 256,-91 270.72,-87.38 286.47,-81.5 299.48,-76.06"/>
<polygon fill="#9a32cd" stroke="#9a32cd" points="95.57,-108.27 85.74,-112.23 95.89,-115.26 95.57,-108.27"/>
<text text-anchor="middle" x="196" y="-110.6" font-family="Helvetica,sans-Serif" font-size="8.00"> S_SHM_TYPE</text>
</g>
<!-- Node3 -->
<g id="node3" class="node">
<title>Node3</title>
<g id="a_node3"><a xlink:title=" ">
<polygon fill="white" stroke="#bfbfbf" points="8.5,-54.5 8.5,-71.5 109.5,-71.5 109.5,-54.5 8.5,-54.5"/>
<text text-anchor="middle" x="59" y="-61.1" font-family="Helvetica,sans-Serif" font-size="8.00">static constexpr bool</text>
</a>
</g>
</g>
<!-- Node3&#45;&gt;Node1 -->
<g id="edge2" class="edge">
<title>Node3&#45;&gt;Node1</title>
<path fill="none" stroke="#9a32cd" stroke-dasharray="5,2" d="M119.94,-63C166.07,-63 229.28,-63 273.88,-63"/>
<polygon fill="#9a32cd" stroke="#9a32cd" points="119.78,-59.5 109.78,-63 119.78,-66.5 119.78,-59.5"/>
<text text-anchor="middle" x="196" y="-83.6" font-family="Helvetica,sans-Serif" font-size="8.00"> S_MQS_ENABLED</text>
<text text-anchor="middle" x="196" y="-74.6" font-family="Helvetica,sans-Serif" font-size="8.00">S_SHM_ENABLED</text>
<text text-anchor="middle" x="196" y="-65.6" font-family="Helvetica,sans-Serif" font-size="8.00">S_SOCKET_STREAM_ENABLED</text>
</g>
<!-- Node4 -->
<g id="node4" class="node">
<title>Node4</title>
<g id="a_node4"><a xlink:title=" ">
<polygon fill="white" stroke="#bfbfbf" points="0,-0.5 0,-35.5 118,-35.5 118,-0.5 0,-0.5"/>
<text text-anchor="start" x="8" y="-25.1" font-family="Helvetica,sans-Serif" font-size="8.00">propagate_const&lt; boost</text>
<text text-anchor="start" x="8" y="-16.1" font-family="Helvetica,sans-Serif" font-size="8.00">::movelib::unique_ptr</text>
<text text-anchor="middle" x="59" y="-7.1" font-family="Helvetica,sans-Serif" font-size="8.00">&lt; Impl &gt; &gt;</text>
</a>
</g>
</g>
<!-- Node4&#45;&gt;Node1 -->
<g id="edge3" class="edge">
<title>Node4&#45;&gt;Node1</title>
<path fill="none" stroke="#9a32cd" stroke-dasharray="5,2" d="M128.7,-28.93C166.32,-34.98 213.76,-42.74 256,-50 261.76,-50.99 267.77,-52.04 273.76,-53.11"/>
<polygon fill="#9a32cd" stroke="#9a32cd" points="128.79,-25.4 118.36,-27.27 127.68,-32.31 128.79,-25.4"/>
<text text-anchor="middle" x="196" y="-52.6" font-family="Helvetica,sans-Serif" font-size="8.00"> m_impl</text>
</g>
</g>
</svg>
