<?xml version="1.0" encoding="UTF-8" standalone="no"?>
<!DOCTYPE svg PUBLIC "-//W3C//DTD SVG 1.1//EN"
 "http://www.w3.org/Graphics/SVG/1.1/DTD/svg11.dtd">
<!-- Generated by graphviz version 2.43.0 (0)
 -->
<!-- Title: ipc::transport::Native_socket_stream Pages: 1 -->
<svg width="517pt" height="297pt"
 viewBox="0.00 0.00 517.00 297.00" xmlns="http://www.w3.org/2000/svg" xmlns:xlink="http://www.w3.org/1999/xlink">
<g id="graph0" class="graph" transform="scale(1 1) rotate(0) translate(4 293)">
<title>ipc::transport::Native_socket_stream</title>
<polygon fill="white" stroke="transparent" points="-4,4 -4,-293 513,-293 513,4 -4,4"/>
<!-- Node1 -->
<g id="node1" class="node">
<title>Node1</title>
<g id="a_node1"><a xlink:title="Implements both Native_handle_sender and Native_handle_receiver concepts by using a stream&#45;oriented U...">
<polygon fill="#bfbfbf" stroke="black" points="243,-0.5 243,-26.5 347,-26.5 347,-0.5 243,-0.5"/>
<text text-anchor="start" x="251" y="-16.1" font-family="Helvetica,sans-Serif" font-size="8.00">ipc::transport::Native</text>
<text text-anchor="middle" x="295" y="-7.1" font-family="Helvetica,sans-Serif" font-size="8.00">_socket_stream</text>
</a>
</g>
</g>
<!-- Node2 -->
<g id="node2" class="node">
<title>Node2</title>
<g id="a_node2"><a xlink:href="classipc_1_1util_1_1Shared__name.html" target="_top" xlink:title="String&#45;wrapping abstraction representing a name uniquely distinguishing a kernel&#45;persistent entity fr...">
<polygon fill="white" stroke="black" points="54,-117.5 54,-134.5 164,-134.5 164,-117.5 54,-117.5"/>
<text text-anchor="middle" x="109" y="-124.1" font-family="Helvetica,sans-Serif" font-size="8.00">ipc::util::Shared_name</text>
</a>
</g>
</g>
<!-- Node2&#45;&gt;Node1 -->
<g id="edge1" class="edge">
<title>Node2&#45;&gt;Node1</title>
<path fill="none" stroke="#9a32cd" stroke-dasharray="5,2" d="M122.84,-109.46C139.52,-91.59 169.18,-62.48 200,-45 213.56,-37.31 229.33,-31.26 244.07,-26.64"/>
<polygon fill="#9a32cd" stroke="#9a32cd" points="119.9,-107.48 115.74,-117.23 125.07,-112.2 119.9,-107.48"/>
<text text-anchor="middle" x="245.5" y="-56.6" font-family="Helvetica,sans-Serif" font-size="8.00"> S_RESOURCE_TYPE_ID</text>
</g>
<!-- Node2&#45;&gt;Node2 -->
<g id="edge2" class="edge">
<title>Node2&#45;&gt;Node2</title>
<path fill="none" stroke="#9a32cd" stroke-dasharray="5,2" d="M142.52,-136.17C162.82,-138.49 182,-135.1 182,-126 182,-115.41 156.03,-112.55 132.55,-117.44"/>
<polygon fill="#9a32cd" stroke="#9a32cd" points="142.98,-132.69 132.55,-134.56 141.87,-139.6 142.98,-132.69"/>
<text text-anchor="middle" x="220.5" y="-155.6" font-family="Helvetica,sans-Serif" font-size="8.00"> S_1ST_OR_ONLY</text>
<text text-anchor="middle" x="220.5" y="-146.6" font-family="Helvetica,sans-Serif" font-size="8.00">S_EMPTY</text>
<text text-anchor="start" x="182" y="-137.6" font-family="Helvetica,sans-Serif" font-size="8.00">S_RESOURCE_TYPE</text>
<text text-anchor="middle" x="220.5" y="-128.6" font-family="Helvetica,sans-Serif" font-size="8.00">_ID_MUTEX</text>
<text text-anchor="start" x="182" y="-119.6" font-family="Helvetica,sans-Serif" font-size="8.00">S_RESOURCE_TYPE</text>
<text text-anchor="middle" x="220.5" y="-110.6" font-family="Helvetica,sans-Serif" font-size="8.00">_ID_SHM</text>
<text text-anchor="middle" x="220.5" y="-101.6" font-family="Helvetica,sans-Serif" font-size="8.00">S_ROOT_MAGIC</text>
<text text-anchor="middle" x="220.5" y="-92.6" font-family="Helvetica,sans-Serif" font-size="8.00">S_SENTINEL</text>
</g>
<!-- Node3 -->
<g id="node3" class="node">
<title>Node3</title>
<g id="a_node3"><a xlink:title=" ">
<polygon fill="white" stroke="#bfbfbf" points="0,-207.5 0,-224.5 40,-224.5 40,-207.5 0,-207.5"/>
<text text-anchor="middle" x="20" y="-214.1" font-family="Helvetica,sans-Serif" font-size="8.00">size_t</text>
</a>
</g>
</g>
<!-- Node3&#45;&gt;Node2 -->
<g id="edge3" class="edge">
<title>Node3&#45;&gt;Node2</title>
<path fill="none" stroke="#9a32cd" stroke-dasharray="5,2" d="M27.32,-198.14C30.41,-192.06 34.38,-185.37 39,-180 55.69,-160.58 80.62,-143.82 95.79,-134.6"/>
<polygon fill="#9a32cd" stroke="#9a32cd" points="24.02,-196.92 22.97,-207.46 30.37,-199.88 24.02,-196.92"/>
<text text-anchor="middle" x="72" y="-182.6" font-family="Helvetica,sans-Serif" font-size="8.00"> S_MAX_LENGTH</text>
</g>
<!-- Node4 -->
<g id="node4" class="node">
<title>Node4</title>
<g id="a_node4"><a xlink:title=" ">
<polygon fill="white" stroke="#bfbfbf" points="67,-207.5 67,-224.5 151,-224.5 151,-207.5 67,-207.5"/>
<text text-anchor="middle" x="109" y="-214.1" font-family="Helvetica,sans-Serif" font-size="8.00">static const char</text>
</a>
</g>
</g>
<!-- Node4&#45;&gt;Node2 -->
<g id="edge4" class="edge">
<title>Node4&#45;&gt;Node2</title>
<path fill="none" stroke="#9a32cd" stroke-dasharray="5,2" d="M109,-197.44C109,-178.34 109,-148.67 109,-134.73"/>
<polygon fill="#9a32cd" stroke="#9a32cd" points="105.5,-197.5 109,-207.5 112.5,-197.5 105.5,-197.5"/>
<text text-anchor="middle" x="138" y="-182.6" font-family="Helvetica,sans-Serif" font-size="8.00"> S_SEPARATOR</text>
</g>
<!-- Node5 -->
<g id="node5" class="node">
<title>Node5</title>
<g id="a_node5"><a xlink:title=" ">
<polygon fill="white" stroke="black" points="169.5,-207.5 169.5,-224.5 228.5,-224.5 228.5,-207.5 169.5,-207.5"/>
<text text-anchor="middle" x="199" y="-214.1" font-family="Helvetica,sans-Serif" font-size="8.00">std::string</text>
</a>
</g>
</g>
<!-- Node5&#45;&gt;Node2 -->
<g id="edge5" class="edge">
<title>Node5&#45;&gt;Node2</title>
<path fill="none" stroke="#9a32cd" stroke-dasharray="5,2" d="M187.36,-199.16C182.54,-192.97 176.75,-185.94 171,-180 154.06,-162.5 131.9,-144.59 119.17,-134.72"/>
<polygon fill="#9a32cd" stroke="#9a32cd" points="184.77,-201.55 193.59,-207.42 190.36,-197.33 184.77,-201.55"/>
<text text-anchor="middle" x="207" y="-182.6" font-family="Helvetica,sans-Serif" font-size="8.00"> m_raw_name</text>
</g>
<!-- Node6 -->
<g id="node6" class="node">
<title>Node6</title>
<g id="a_node6"><a xlink:title=" ">
<polygon fill="white" stroke="black" points="153.5,-262.5 153.5,-288.5 244.5,-288.5 244.5,-262.5 153.5,-262.5"/>
<text text-anchor="start" x="161.5" y="-278.1" font-family="Helvetica,sans-Serif" font-size="8.00">std::basic_string&lt;</text>
<text text-anchor="middle" x="199" y="-269.1" font-family="Helvetica,sans-Serif" font-size="8.00"> Char &gt;</text>
</a>
</g>
</g>
<!-- Node6&#45;&gt;Node5 -->
<g id="edge6" class="edge">
<title>Node6&#45;&gt;Node5</title>
<path fill="none" stroke="midnightblue" d="M199,-252.08C199,-242.43 199,-231.78 199,-224.77"/>
<polygon fill="midnightblue" stroke="midnightblue" points="195.5,-252.31 199,-262.31 202.5,-252.31 195.5,-252.31"/>
</g>
<!-- Node7 -->
<g id="node7" class="node">
<title>Node7</title>
<g id="a_node7"><a xlink:title=" ">
<polygon fill="white" stroke="#bfbfbf" points="277.5,-117.5 277.5,-134.5 312.5,-134.5 312.5,-117.5 277.5,-117.5"/>
<text text-anchor="middle" x="295" y="-124.1" font-family="Helvetica,sans-Serif" font-size="8.00">bool</text>
</a>
</g>
</g>
<!-- Node7&#45;&gt;Node1 -->
<g id="edge7" class="edge">
<title>Node7&#45;&gt;Node1</title>
<path fill="none" stroke="#9a32cd" stroke-dasharray="5,2" d="M295,-107.22C295,-84.63 295,-46.25 295,-26.71"/>
<polygon fill="#9a32cd" stroke="#9a32cd" points="291.5,-107.4 295,-117.4 298.5,-107.4 291.5,-107.4"/>
<text text-anchor="middle" x="361" y="-65.6" font-family="Helvetica,sans-Serif" font-size="8.00"> S_BLOB_UNDERFLOW_ALLOWED</text>
<text text-anchor="start" x="295" y="-56.6" font-family="Helvetica,sans-Serif" font-size="8.00">S_META_BLOB_UNDERFLOW</text>
<text text-anchor="middle" x="361" y="-47.6" font-family="Helvetica,sans-Serif" font-size="8.00">_ALLOWED</text>
</g>
<!-- Node8 -->
<g id="node8" class="node">
<title>Node8</title>
<g id="a_node8"><a xlink:title=" ">
<polygon fill="white" stroke="#bfbfbf" points="391,-108.5 391,-143.5 509,-143.5 509,-108.5 391,-108.5"/>
<text text-anchor="start" x="399" y="-133.1" font-family="Helvetica,sans-Serif" font-size="8.00">propagate_const&lt; boost</text>
<text text-anchor="start" x="399" y="-124.1" font-family="Helvetica,sans-Serif" font-size="8.00">::movelib::unique_ptr</text>
<text text-anchor="middle" x="450" y="-115.1" font-family="Helvetica,sans-Serif" font-size="8.00">&lt; Impl &gt; &gt;</text>
</a>
</g>
</g>
<!-- Node8&#45;&gt;Node1 -->
<g id="edge8" class="edge">
<title>Node8&#45;&gt;Node1</title>
<path fill="none" stroke="#9a32cd" stroke-dasharray="5,2" d="M449.41,-98.24C447.59,-80.75 442.3,-58.7 428,-45 416.32,-33.82 379.29,-25.89 347.25,-20.92"/>
<polygon fill="#9a32cd" stroke="#9a32cd" points="445.94,-98.7 450.16,-108.42 452.92,-98.19 445.94,-98.7"/>
<text text-anchor="middle" x="458.5" y="-56.6" font-family="Helvetica,sans-Serif" font-size="8.00"> m_impl</text>
</g>
</g>
</svg>
