<?xml version="1.0" encoding="UTF-8" standalone="no"?>
<!DOCTYPE svg PUBLIC "-//W3C//DTD SVG 1.1//EN"
 "http://www.w3.org/Graphics/SVG/1.1/DTD/svg11.dtd">
<!-- Generated by graphviz version 2.43.0 (0)
 -->
<!-- Title: ipc::transport::struc::Msg_out_impl&lt; Message_body, Struct_builder &gt; Pages: 1 -->
<svg width="346pt" height="252pt"
 viewBox="0.00 0.00 346.00 252.00" xmlns="http://www.w3.org/2000/svg" xmlns:xlink="http://www.w3.org/1999/xlink">
<g id="graph0" class="graph" transform="scale(1 1) rotate(0) translate(4 248)">
<title>ipc::transport::struc::Msg_out_impl&lt; Message_body, Struct_builder &gt;</title>
<polygon fill="white" stroke="transparent" points="-4,4 -4,-248 342,-248 342,4 -4,4"/>
<!-- Node1 -->
<g id="node1" class="node">
<title>Node1</title>
<g id="a_node1"><a xlink:title="Internally used (data&#45;free) addendum on&#45;top of Msg_out which makes the protected API public instead.">
<polygon fill="#bfbfbf" stroke="black" points="77.5,-0.5 77.5,-35.5 200.5,-35.5 200.5,-0.5 77.5,-0.5"/>
<text text-anchor="start" x="85.5" y="-25.1" font-family="Helvetica,sans-Serif" font-size="8.00">ipc::transport::struc</text>
<text text-anchor="start" x="85.5" y="-16.1" font-family="Helvetica,sans-Serif" font-size="8.00">::Msg_out_impl&lt; Message</text>
<text text-anchor="middle" x="139" y="-7.1" font-family="Helvetica,sans-Serif" font-size="8.00">_body, Struct_builder &gt;</text>
</a>
</g>
</g>
<!-- Node2 -->
<g id="node2" class="node">
<title>Node2</title>
<g id="a_node2"><a xlink:href="classipc_1_1transport_1_1struc_1_1Msg__out.html" target="_top" xlink:title=" ">
<polygon fill="white" stroke="black" points="75,-73.5 75,-108.5 203,-108.5 203,-73.5 75,-73.5"/>
<text text-anchor="start" x="83" y="-98.1" font-family="Helvetica,sans-Serif" font-size="8.00">ipc::transport::struc</text>
<text text-anchor="start" x="83" y="-89.1" font-family="Helvetica,sans-Serif" font-size="8.00">::Msg_out&lt; Message_body,</text>
<text text-anchor="middle" x="139" y="-80.1" font-family="Helvetica,sans-Serif" font-size="8.00"> Struct_builder &gt;</text>
</a>
</g>
</g>
<!-- Node2&#45;&gt;Node1 -->
<g id="edge1" class="edge">
<title>Node2&#45;&gt;Node1</title>
<path fill="none" stroke="midnightblue" d="M139,-62.94C139,-53.78 139,-43.82 139,-35.71"/>
<polygon fill="midnightblue" stroke="midnightblue" points="135.5,-63.17 139,-73.17 142.5,-63.17 135.5,-63.17"/>
</g>
<!-- Node3 -->
<g id="node3" class="node">
<title>Node3</title>
<g id="a_node3"><a xlink:href="classipc_1_1transport_1_1struc_1_1Struct__builder.html" target="_top" xlink:title="A documentation&#45;only concept defining the behavior of an object capable of zero&#45;copy&#45;serializing,...">
<polygon fill="white" stroke="black" points="0,-154.5 0,-180.5 98,-180.5 98,-154.5 0,-154.5"/>
<text text-anchor="start" x="8" y="-170.1" font-family="Helvetica,sans-Serif" font-size="8.00">ipc::transport::struc</text>
<text text-anchor="middle" x="49" y="-161.1" font-family="Helvetica,sans-Serif" font-size="8.00">::Struct_builder</text>
</a>
</g>
</g>
<!-- Node3&#45;&gt;Node2 -->
<g id="edge2" class="edge">
<title>Node3&#45;&gt;Node2</title>
<path fill="none" stroke="#9a32cd" stroke-dasharray="5,2" d="M69.23,-147.12C76.29,-140.57 84.37,-133.32 92,-127 99.52,-120.77 108.01,-114.29 115.69,-108.63"/>
<polygon fill="#9a32cd" stroke="#9a32cd" points="66.38,-145 61.49,-154.39 71.17,-150.1 66.38,-145"/>
<text text-anchor="middle" x="113.5" y="-129.6" font-family="Helvetica,sans-Serif" font-size="8.00"> m_builder</text>
</g>
<!-- Node4 -->
<g id="node4" class="node">
<title>Node4</title>
<g id="a_node4"><a xlink:title=" ">
<polygon fill="white" stroke="#bfbfbf" points="116.5,-159 116.5,-176 161.5,-176 161.5,-159 116.5,-159"/>
<text text-anchor="middle" x="139" y="-165.6" font-family="Helvetica,sans-Serif" font-size="8.00">Builder</text>
</a>
</g>
</g>
<!-- Node4&#45;&gt;Node2 -->
<g id="edge3" class="edge">
<title>Node4&#45;&gt;Node2</title>
<path fill="none" stroke="#9a32cd" stroke-dasharray="5,2" d="M139,-148.6C139,-136.48 139,-120.57 139,-108.71"/>
<polygon fill="#9a32cd" stroke="#9a32cd" points="135.5,-148.81 139,-158.81 142.5,-148.81 135.5,-148.81"/>
<text text-anchor="middle" x="166.5" y="-129.6" font-family="Helvetica,sans-Serif" font-size="8.00"> m_body_root</text>
</g>
<!-- Node5 -->
<g id="node5" class="node">
<title>Node5</title>
<g id="a_node5"><a xlink:href="structipc_1_1util_1_1Native__handle.html" target="_top" xlink:title="A monolayer&#45;thin wrapper around a native handle, a/k/a descriptor a/k/a FD.">
<polygon fill="white" stroke="black" points="180,-159 180,-176 292,-176 292,-159 180,-159"/>
<text text-anchor="middle" x="236" y="-165.6" font-family="Helvetica,sans-Serif" font-size="8.00">ipc::util::Native_handle</text>
</a>
</g>
</g>
<!-- Node5&#45;&gt;Node2 -->
<g id="edge4" class="edge">
<title>Node5&#45;&gt;Node2</title>
<path fill="none" stroke="#9a32cd" stroke-dasharray="5,2" d="M223.13,-151.27C216.14,-143.5 207.09,-134.2 198,-127 189.6,-120.34 179.81,-114.04 170.65,-108.67"/>
<polygon fill="#9a32cd" stroke="#9a32cd" points="220.59,-153.69 229.8,-158.92 225.87,-149.09 220.59,-153.69"/>
<text text-anchor="middle" x="239.5" y="-129.6" font-family="Helvetica,sans-Serif" font-size="8.00"> m_hndl_or_null</text>
</g>
<!-- Node6 -->
<g id="node6" class="node">
<title>Node6</title>
<g id="a_node6"><a xlink:title=" ">
<polygon fill="white" stroke="#bfbfbf" points="139.5,-226.5 139.5,-243.5 240.5,-243.5 240.5,-226.5 139.5,-226.5"/>
<text text-anchor="middle" x="190" y="-233.1" font-family="Helvetica,sans-Serif" font-size="8.00">static const handle_t</text>
</a>
</g>
</g>
<!-- Node6&#45;&gt;Node5 -->
<g id="edge5" class="edge">
<title>Node6&#45;&gt;Node5</title>
<path fill="none" stroke="#9a32cd" stroke-dasharray="5,2" d="M187.39,-216.12C187.35,-210.35 188.18,-204.13 191,-199 196.72,-188.57 207.71,-181.02 217.4,-176.04"/>
<polygon fill="#9a32cd" stroke="#9a32cd" points="183.92,-216.59 188.3,-226.24 190.89,-215.97 183.92,-216.59"/>
<text text-anchor="middle" x="226" y="-201.6" font-family="Helvetica,sans-Serif" font-size="8.00"> S_NULL_HANDLE</text>
</g>
<!-- Node7 -->
<g id="node7" class="node">
<title>Node7</title>
<g id="a_node7"><a xlink:title=" ">
<polygon fill="white" stroke="#bfbfbf" points="268.5,-226.5 268.5,-243.5 297.5,-243.5 297.5,-226.5 268.5,-226.5"/>
<text text-anchor="middle" x="283" y="-233.1" font-family="Helvetica,sans-Serif" font-size="8.00">int</text>
</a>
</g>
</g>
<!-- Node7&#45;&gt;Node5 -->
<g id="edge6" class="edge">
<title>Node7&#45;&gt;Node5</title>
<path fill="none" stroke="#9a32cd" stroke-dasharray="5,2" d="M273.11,-217.33C269.46,-211.43 265.19,-204.82 261,-199 255.24,-191 248.05,-182.35 242.86,-176.31"/>
<polygon fill="#9a32cd" stroke="#9a32cd" points="270.38,-219.57 278.55,-226.31 276.36,-215.94 270.38,-219.57"/>
<text text-anchor="middle" x="302" y="-201.6" font-family="Helvetica,sans-Serif" font-size="8.00"> m_native_handle</text>
</g>
</g>
</svg>
