<?xml version="1.0" encoding="UTF-8" standalone="no"?>
<!DOCTYPE svg PUBLIC "-//W3C//DTD SVG 1.1//EN"
 "http://www.w3.org/Graphics/SVG/1.1/DTD/svg11.dtd">
<!-- Generated by graphviz version 2.43.0 (0)
 -->
<!-- Title: ipc::transport::sync_io::Native_socket_stream::Impl::start_receive_blob_ops Pages: 1 -->
<svg width="693pt" height="53pt"
 viewBox="0.00 0.00 693.00 53.00" xmlns="http://www.w3.org/2000/svg" xmlns:xlink="http://www.w3.org/1999/xlink">
<g id="graph0" class="graph" transform="scale(1 1) rotate(0) translate(4 49)">
<title>ipc::transport::sync_io::Native_socket_stream::Impl::start_receive_blob_ops</title>
<polygon fill="white" stroke="transparent" points="-4,4 -4,-49 689,-49 689,4 -4,4"/>
<!-- Node1 -->
<g id="node1" class="node">
<title>Node1</title>
<g id="a_node1"><a xlink:title="See Native_socket_stream counterpart.">
<polygon fill="#bfbfbf" stroke="black" points="0,-5 0,-40 139,-40 139,-5 0,-5"/>
<text text-anchor="start" x="8" y="-29.6" font-family="Helvetica,sans-Serif" font-size="8.00">ipc::transport::sync</text>
<text text-anchor="start" x="8" y="-20.6" font-family="Helvetica,sans-Serif" font-size="8.00">_io::Native_socket_stream</text>
<text text-anchor="middle" x="69.5" y="-11.6" font-family="Helvetica,sans-Serif" font-size="8.00">::Impl::start_receive_blob_ops</text>
</a>
</g>
</g>
<!-- Node2 -->
<g id="node2" class="node">
<title>Node2</title>
<g id="a_node2"><a xlink:href="classipc_1_1transport_1_1sync__io_1_1Native__socket__stream.html#ac6d65bc2852ad8800cb57a23311fbe7e" target="_top" xlink:title="Implements Native_handle_receiver API per contract.">
<polygon fill="white" stroke="black" points="175,-5 175,-40 330,-40 330,-5 175,-5"/>
<text text-anchor="start" x="183" y="-29.6" font-family="Helvetica,sans-Serif" font-size="8.00">ipc::transport::sync</text>
<text text-anchor="start" x="183" y="-20.6" font-family="Helvetica,sans-Serif" font-size="8.00">_io::Native_socket_stream</text>
<text text-anchor="middle" x="252.5" y="-11.6" font-family="Helvetica,sans-Serif" font-size="8.00">::start_receive_native_handle_ops</text>
</a>
</g>
</g>
<!-- Node1&#45;&gt;Node2 -->
<g id="edge1" class="edge">
<title>Node1&#45;&gt;Node2</title>
<path fill="none" stroke="midnightblue" d="M139.19,-22.5C147.6,-22.5 156.27,-22.5 164.9,-22.5"/>
<polygon fill="midnightblue" stroke="midnightblue" points="164.99,-26 174.99,-22.5 164.99,-19 164.99,-26"/>
</g>
<!-- Node3 -->
<g id="node3" class="node">
<title>Node3</title>
<g id="a_node3"><a xlink:href="classipc_1_1transport_1_1sync__io_1_1Native__socket__stream.html#acd887142b1f85fa6c69ee1d409dd2292" target="_top" xlink:title="Template&#45;free version of start_receive_native_handle_ops() as required by pImpl idiom.">
<polygon fill="white" stroke="black" points="366,-0.5 366,-44.5 503,-44.5 503,-0.5 366,-0.5"/>
<text text-anchor="start" x="374" y="-34.1" font-family="Helvetica,sans-Serif" font-size="8.00">ipc::transport::sync</text>
<text text-anchor="start" x="374" y="-25.1" font-family="Helvetica,sans-Serif" font-size="8.00">_io::Native_socket_stream</text>
<text text-anchor="start" x="374" y="-16.1" font-family="Helvetica,sans-Serif" font-size="8.00">::start_receive_native_handle</text>
<text text-anchor="middle" x="434.5" y="-7.1" font-family="Helvetica,sans-Serif" font-size="8.00">_ops_fwd</text>
</a>
</g>
</g>
<!-- Node2&#45;&gt;Node3 -->
<g id="edge2" class="edge">
<title>Node2&#45;&gt;Node3</title>
<path fill="none" stroke="midnightblue" d="M330.1,-22.5C338.53,-22.5 347.13,-22.5 355.58,-22.5"/>
<polygon fill="midnightblue" stroke="midnightblue" points="355.8,-26 365.8,-22.5 355.8,-19 355.8,-26"/>
</g>
<!-- Node4 -->
<g id="node4" class="node">
<title>Node4</title>
<g id="a_node4"><a xlink:href="classipc_1_1transport_1_1sync__io_1_1Native__socket__stream.html#a8e3703d5c8bac62f828a372691249c85" target="_top" xlink:title="Helper that simply returns m_impl while guaranteeing that m_impl is non&#45;null upon return.">
<polygon fill="white" stroke="black" points="539,-9.5 539,-35.5 685,-35.5 685,-9.5 539,-9.5"/>
<text text-anchor="start" x="547" y="-25.1" font-family="Helvetica,sans-Serif" font-size="8.00">ipc::transport::sync</text>
<text text-anchor="middle" x="612" y="-16.1" font-family="Helvetica,sans-Serif" font-size="8.00">_io::Native_socket_stream::impl</text>
</a>
</g>
</g>
<!-- Node3&#45;&gt;Node4 -->
<g id="edge3" class="edge">
<title>Node3&#45;&gt;Node4</title>
<path fill="none" stroke="midnightblue" d="M503.1,-22.5C511.5,-22.5 520.16,-22.5 528.75,-22.5"/>
<polygon fill="midnightblue" stroke="midnightblue" points="528.77,-26 538.77,-22.5 528.77,-19 528.77,-26"/>
</g>
</g>
</svg>
