<?xml version="1.0" encoding="UTF-8" standalone="no"?>
<!DOCTYPE svg PUBLIC "-//W3C//DTD SVG 1.1//EN"
 "http://www.w3.org/Graphics/SVG/1.1/DTD/svg11.dtd">
<!-- Generated by graphviz version 2.43.0 (0)
 -->
<!-- Title: ipc::transport::struc::Heap_reader Pages: 1 -->
<svg width="555pt" height="207pt"
 viewBox="0.00 0.00 555.00 206.50" xmlns="http://www.w3.org/2000/svg" xmlns:xlink="http://www.w3.org/1999/xlink">
<g id="graph0" class="graph" transform="scale(1 1) rotate(0) translate(4 202.5)">
<title>ipc::transport::struc::Heap_reader</title>
<polygon fill="white" stroke="transparent" points="-4,4 -4,-202.5 551,-202.5 551,4 -4,4"/>
<!-- Node1 -->
<g id="node1" class="node">
<title>Node1</title>
<g id="a_node1"><a xlink:title="Implements Struct_reader concept by straightforwardly interpreting a serialization by Heap_fixed_buil...">
<polygon fill="#bfbfbf" stroke="black" points="449,-95.5 449,-121.5 547,-121.5 547,-95.5 449,-95.5"/>
<text text-anchor="start" x="457" y="-111.1" font-family="Helvetica,sans-Serif" font-size="8.00">ipc::transport::struc</text>
<text text-anchor="middle" x="498" y="-102.1" font-family="Helvetica,sans-Serif" font-size="8.00">::Heap_reader</text>
</a>
</g>
</g>
<!-- Node2 -->
<g id="node2" class="node">
<title>Node2</title>
<g id="a_node2"><a xlink:title=" ">
<polygon fill="white" stroke="#bfbfbf" points="190.5,-181 190.5,-198 297.5,-198 297.5,-181 190.5,-181"/>
<text text-anchor="middle" x="244" y="-187.6" font-family="Helvetica,sans-Serif" font-size="8.00">flow::log::Log_context</text>
</a>
</g>
</g>
<!-- Node2&#45;&gt;Node1 -->
<g id="edge1" class="edge">
<title>Node2&#45;&gt;Node1</title>
<path fill="none" stroke="midnightblue" d="M305.93,-178.95C342.85,-171.54 390.49,-160.14 431,-144.5 446.83,-138.39 463.6,-129.2 476.28,-121.64"/>
<polygon fill="midnightblue" stroke="midnightblue" points="304.96,-175.58 295.82,-180.94 306.31,-182.44 304.96,-175.58"/>
</g>
<!-- Node3 -->
<g id="node3" class="node">
<title>Node3</title>
<g id="a_node3"><a xlink:title=" ">
<polygon fill="white" stroke="#bfbfbf" points="194.5,-145 194.5,-162 293.5,-162 293.5,-145 194.5,-145"/>
<text text-anchor="middle" x="244" y="-151.6" font-family="Helvetica,sans-Serif" font-size="8.00">boost::noncopyable</text>
</a>
</g>
</g>
<!-- Node3&#45;&gt;Node1 -->
<g id="edge2" class="edge">
<title>Node3&#45;&gt;Node1</title>
<path fill="none" stroke="#8b1a1a" d="M303.64,-143.78C340.28,-137.62 388.44,-129.35 431,-121.5 436.74,-120.44 442.76,-119.3 448.72,-118.15"/>
<polygon fill="#8b1a1a" stroke="#8b1a1a" points="302.9,-140.36 293.62,-145.46 304.06,-147.26 302.9,-140.36"/>
</g>
<!-- Node4 -->
<g id="node4" class="node">
<title>Node4</title>
<g id="a_node4"><a xlink:title=" ">
<polygon fill="white" stroke="black" points="192,-91 192,-126 296,-126 296,-91 192,-91"/>
<text text-anchor="start" x="200" y="-115.6" font-family="Helvetica,sans-Serif" font-size="8.00">std::vector&lt; boost</text>
<text text-anchor="start" x="200" y="-106.6" font-family="Helvetica,sans-Serif" font-size="8.00">::movelib::unique_ptr</text>
<text text-anchor="middle" x="244" y="-97.6" font-family="Helvetica,sans-Serif" font-size="8.00">&lt; flow::util::Blob &gt; &gt;</text>
</a>
</g>
</g>
<!-- Node4&#45;&gt;Node1 -->
<g id="edge3" class="edge">
<title>Node4&#45;&gt;Node1</title>
<path fill="none" stroke="#9a32cd" stroke-dasharray="5,2" d="M306.54,-108.5C350.32,-108.5 408.32,-108.5 448.76,-108.5"/>
<polygon fill="#9a32cd" stroke="#9a32cd" points="306.3,-105 296.3,-108.5 306.3,-112 306.3,-105"/>
<text text-anchor="middle" x="376.5" y="-111.1" font-family="Helvetica,sans-Serif" font-size="8.00"> m_serialization_segments</text>
</g>
<!-- Node5 -->
<g id="node5" class="node">
<title>Node5</title>
<g id="a_node5"><a xlink:title=" ">
<polygon fill="white" stroke="#bfbfbf" points="1.5,-95.5 1.5,-121.5 105.5,-121.5 105.5,-95.5 1.5,-95.5"/>
<text text-anchor="start" x="9.5" y="-111.1" font-family="Helvetica,sans-Serif" font-size="8.00">unique_ptr&lt; flow::util</text>
<text text-anchor="middle" x="53.5" y="-102.1" font-family="Helvetica,sans-Serif" font-size="8.00">::Blob &gt;</text>
</a>
</g>
</g>
<!-- Node5&#45;&gt;Node4 -->
<g id="edge4" class="edge">
<title>Node5&#45;&gt;Node4</title>
<path fill="none" stroke="#9a32cd" stroke-dasharray="5,2" d="M115.83,-108.5C140.44,-108.5 168.47,-108.5 191.95,-108.5"/>
<polygon fill="#9a32cd" stroke="#9a32cd" points="115.51,-105 105.51,-108.5 115.51,-112 115.51,-105"/>
<text text-anchor="middle" x="145.5" y="-111.1" font-family="Helvetica,sans-Serif" font-size="8.00"> elements</text>
</g>
<!-- Node6 -->
<g id="node6" class="node">
<title>Node6</title>
<g id="a_node6"><a xlink:title=" ">
<polygon fill="white" stroke="black" points="196,-45.5 196,-71.5 292,-71.5 292,-45.5 196,-45.5"/>
<text text-anchor="start" x="204" y="-61.1" font-family="Helvetica,sans-Serif" font-size="8.00">std::vector&lt; Capnp</text>
<text text-anchor="middle" x="244" y="-52.1" font-family="Helvetica,sans-Serif" font-size="8.00">_word_array_ptr &gt;</text>
</a>
</g>
</g>
<!-- Node6&#45;&gt;Node1 -->
<g id="edge5" class="edge">
<title>Node6&#45;&gt;Node1</title>
<path fill="none" stroke="#9a32cd" stroke-dasharray="5,2" d="M302.13,-69.84C346.39,-78.62 407.02,-90.65 448.84,-98.94"/>
<polygon fill="#9a32cd" stroke="#9a32cd" points="302.59,-66.36 292.1,-67.85 301.23,-73.23 302.59,-66.36"/>
<text text-anchor="middle" x="376.5" y="-97.1" font-family="Helvetica,sans-Serif" font-size="8.00"> m_capnp_segments</text>
</g>
<!-- Node7 -->
<g id="node7" class="node">
<title>Node7</title>
<g id="a_node7"><a xlink:title=" ">
<polygon fill="white" stroke="#bfbfbf" points="0,-50 0,-67 107,-67 107,-50 0,-50"/>
<text text-anchor="middle" x="53.5" y="-56.6" font-family="Helvetica,sans-Serif" font-size="8.00">Capnp_word_array_ptr</text>
</a>
</g>
</g>
<!-- Node7&#45;&gt;Node6 -->
<g id="edge6" class="edge">
<title>Node7&#45;&gt;Node6</title>
<path fill="none" stroke="#9a32cd" stroke-dasharray="5,2" d="M117.04,-58.5C142.77,-58.5 172.06,-58.5 195.92,-58.5"/>
<polygon fill="#9a32cd" stroke="#9a32cd" points="117.01,-55 107.01,-58.5 117.01,-62 117.01,-55"/>
<text text-anchor="middle" x="145.5" y="-61.1" font-family="Helvetica,sans-Serif" font-size="8.00"> elements</text>
</g>
<!-- Node8 -->
<g id="node8" class="node">
<title>Node8</title>
<g id="a_node8"><a xlink:title=" ">
<polygon fill="white" stroke="#bfbfbf" points="184,-0.5 184,-26.5 304,-26.5 304,-0.5 184,-0.5"/>
<text text-anchor="start" x="192" y="-16.1" font-family="Helvetica,sans-Serif" font-size="8.00">unique_ptr&lt; Capnp_heap</text>
<text text-anchor="middle" x="244" y="-7.1" font-family="Helvetica,sans-Serif" font-size="8.00">_engine &gt;</text>
</a>
</g>
</g>
<!-- Node8&#45;&gt;Node1 -->
<g id="edge7" class="edge">
<title>Node8&#45;&gt;Node1</title>
<path fill="none" stroke="#9a32cd" stroke-dasharray="5,2" d="M314.19,-25.07C350.12,-32.62 394.11,-44.33 431,-61.5 450,-70.35 469.24,-84.82 482.01,-95.37"/>
<polygon fill="#9a32cd" stroke="#9a32cd" points="314.78,-21.62 304.28,-23.05 313.38,-28.47 314.78,-21.62"/>
<text text-anchor="middle" x="376.5" y="-64.1" font-family="Helvetica,sans-Serif" font-size="8.00"> m_engine</text>
</g>
</g>
</svg>
