<?xml version="1.0" encoding="UTF-8" standalone="no"?>
<!DOCTYPE svg PUBLIC "-//W3C//DTD SVG 1.1//EN"
 "http://www.w3.org/Graphics/SVG/1.1/DTD/svg11.dtd">
<!-- Generated by graphviz version 2.43.0 (0)
 -->
<!-- Title: ipc::transport::struc::shm::Capnp_message_builder&lt; Shm_arena &gt; Pages: 1 -->
<svg width="270pt" height="98pt"
 viewBox="0.00 0.00 270.00 98.00" xmlns="http://www.w3.org/2000/svg" xmlns:xlink="http://www.w3.org/1999/xlink">
<g id="graph0" class="graph" transform="scale(1 1) rotate(0) translate(4 94)">
<title>ipc::transport::struc::shm::Capnp_message_builder&lt; Shm_arena &gt;</title>
<polygon fill="white" stroke="transparent" points="-4,4 -4,-94 266,-94 266,4 -4,4"/>
<!-- Node1 -->
<g id="node1" class="node">
<title>Node1</title>
<g id="a_node1"><a xlink:title="A capnp::MessageBuilder used by shm::Builder: similar to a MallocMessageBuilder with the GROW_HEURIST...">
<polygon fill="#bfbfbf" stroke="black" points="82,-0.5 82,-35.5 195,-35.5 195,-0.5 82,-0.5"/>
<text text-anchor="start" x="90" y="-25.1" font-family="Helvetica,sans-Serif" font-size="8.00">ipc::transport::struc</text>
<text text-anchor="start" x="90" y="-16.1" font-family="Helvetica,sans-Serif" font-size="8.00">::shm::Capnp_message</text>
<text text-anchor="middle" x="138.5" y="-7.1" font-family="Helvetica,sans-Serif" font-size="8.00">_builder&lt; Shm_arena &gt;</text>
</a>
</g>
</g>
<!-- Node2 -->
<g id="node2" class="node">
<title>Node2</title>
<g id="a_node2"><a xlink:href="classCapnp__msg__builder__interface.html" target="_top" xlink:title=" ">
<polygon fill="white" stroke="#bfbfbf" points="0,-72.5 0,-89.5 137,-89.5 137,-72.5 0,-72.5"/>
<text text-anchor="middle" x="68.5" y="-79.1" font-family="Helvetica,sans-Serif" font-size="8.00">Capnp_msg_builder_interface</text>
</a>
</g>
</g>
<!-- Node2&#45;&gt;Node1 -->
<g id="edge1" class="edge">
<title>Node2&#45;&gt;Node1</title>
<path fill="none" stroke="midnightblue" d="M85.2,-65.45C95.5,-56.48 108.73,-44.94 119.43,-35.62"/>
<polygon fill="midnightblue" stroke="midnightblue" points="82.61,-63.07 77.37,-72.27 87.2,-68.34 82.61,-63.07"/>
</g>
<!-- Node3 -->
<g id="node3" class="node">
<title>Node3</title>
<g id="a_node3"><a xlink:title=" ">
<polygon fill="white" stroke="#bfbfbf" points="155,-72.5 155,-89.5 262,-89.5 262,-72.5 155,-72.5"/>
<text text-anchor="middle" x="208.5" y="-79.1" font-family="Helvetica,sans-Serif" font-size="8.00">flow::log::Log_context</text>
</a>
</g>
</g>
<!-- Node3&#45;&gt;Node1 -->
<g id="edge2" class="edge">
<title>Node3&#45;&gt;Node1</title>
<path fill="none" stroke="midnightblue" d="M191.8,-65.45C181.5,-56.48 168.27,-44.94 157.57,-35.62"/>
<polygon fill="midnightblue" stroke="midnightblue" points="189.8,-68.34 199.63,-72.27 194.39,-63.07 189.8,-68.34"/>
</g>
</g>
</svg>
