<?xml version="1.0" encoding="UTF-8" standalone="no"?>
<!DOCTYPE svg PUBLIC "-//W3C//DTD SVG 1.1//EN"
 "http://www.w3.org/Graphics/SVG/1.1/DTD/svg11.dtd">
<!-- Generated by graphviz version 2.43.0 (0)
 -->
<!-- Title: ipc::transport::sync_io::Blob_stream_mq_sender_impl&lt; Persistent_mq_handle &gt; Pages: 1 -->
<svg width="897pt" height="1135pt"
 viewBox="0.00 0.00 897.00 1135.00" xmlns="http://www.w3.org/2000/svg" xmlns:xlink="http://www.w3.org/1999/xlink">
<g id="graph0" class="graph" transform="scale(1 1) rotate(0) translate(4 1131)">
<title>ipc::transport::sync_io::Blob_stream_mq_sender_impl&lt; Persistent_mq_handle &gt;</title>
<polygon fill="white" stroke="transparent" points="-4,4 -4,-1131 893,-1131 893,4 -4,4"/>
<!-- Node1 -->
<g id="node1" class="node">
<title>Node1</title>
<g id="a_node1"><a xlink:title="Internal, non&#45;movable pImpl&#45;lite implementation of sync_io::Blob_stream_mq_sender class template.">
<polygon fill="#bfbfbf" stroke="black" points="744,-478.5 744,-513.5 889,-513.5 889,-478.5 744,-478.5"/>
<text text-anchor="start" x="752" y="-503.1" font-family="Helvetica,sans-Serif" font-size="8.00">ipc::transport::sync</text>
<text text-anchor="start" x="752" y="-494.1" font-family="Helvetica,sans-Serif" font-size="8.00">_io::Blob_stream_mq_sender</text>
<text text-anchor="middle" x="816.5" y="-485.1" font-family="Helvetica,sans-Serif" font-size="8.00">_impl&lt; Persistent_mq_handle &gt;</text>
</a>
</g>
</g>
<!-- Node2 -->
<g id="node2" class="node">
<title>Node2</title>
<g id="a_node2"><a xlink:href="classipc_1_1transport_1_1Blob__stream__mq__base__impl.html" target="_top" xlink:title="Internal implementation of Blob_stream_mq_base class template; and common utilities used by Blob_stre...">
<polygon fill="white" stroke="black" points="460,-1091.5 460,-1126.5 584,-1126.5 584,-1091.5 460,-1091.5"/>
<text text-anchor="start" x="468" y="-1116.1" font-family="Helvetica,sans-Serif" font-size="8.00">ipc::transport::Blob</text>
<text text-anchor="start" x="468" y="-1107.1" font-family="Helvetica,sans-Serif" font-size="8.00">_stream_mq_base_impl</text>
<text text-anchor="middle" x="522" y="-1098.1" font-family="Helvetica,sans-Serif" font-size="8.00">&lt; Persistent_mq_handle &gt;</text>
</a>
</g>
</g>
<!-- Node2&#45;&gt;Node1 -->
<g id="edge1" class="edge">
<title>Node2&#45;&gt;Node1</title>
<path fill="none" stroke="midnightblue" d="M594.28,-1117.59C638.12,-1118.68 692.19,-1111.78 726,-1078 808.09,-996 814.97,-601.81 815.47,-513.56"/>
<polygon fill="midnightblue" stroke="midnightblue" points="594.37,-1114.09 584.24,-1117.2 594.1,-1121.09 594.37,-1114.09"/>
</g>
<!-- Node3 -->
<g id="node3" class="node">
<title>Node3</title>
<g id="a_node3"><a xlink:title=" ">
<polygon fill="white" stroke="#bfbfbf" points="206,-705.5 206,-722.5 313,-722.5 313,-705.5 206,-705.5"/>
<text text-anchor="middle" x="259.5" y="-712.1" font-family="Helvetica,sans-Serif" font-size="8.00">flow::log::Log_context</text>
</a>
</g>
</g>
<!-- Node3&#45;&gt;Node1 -->
<g id="edge2" class="edge">
<title>Node3&#45;&gt;Node1</title>
<path fill="none" stroke="midnightblue" d="M323.41,-717.32C435.23,-721.97 662.77,-725.45 726,-681 783.94,-640.27 805.84,-551.48 812.75,-513.64"/>
<polygon fill="midnightblue" stroke="midnightblue" points="323.43,-713.82 313.29,-716.88 323.13,-720.81 323.43,-713.82"/>
</g>
<!-- Node17 -->
<g id="node17" class="node">
<title>Node17</title>
<g id="a_node17"><a xlink:href="classipc_1_1util_1_1sync__io_1_1Timer__event__emitter.html" target="_top" xlink:title="An object of this type, used internally to implement sync_io&#45;pattern objects that require timer event...">
<polygon fill="white" stroke="black" points="469.5,-762 469.5,-788 574.5,-788 574.5,-762 469.5,-762"/>
<text text-anchor="start" x="477.5" y="-777.6" font-family="Helvetica,sans-Serif" font-size="8.00">ipc::util::sync_io</text>
<text text-anchor="middle" x="522" y="-768.6" font-family="Helvetica,sans-Serif" font-size="8.00">::Timer_event_emitter</text>
</a>
</g>
</g>
<!-- Node3&#45;&gt;Node17 -->
<g id="edge20" class="edge">
<title>Node3&#45;&gt;Node17</title>
<path fill="none" stroke="midnightblue" d="M306.89,-724.86C352.41,-735.52 421.68,-751.74 469.03,-762.83"/>
<polygon fill="midnightblue" stroke="midnightblue" points="307.53,-721.42 297,-722.55 305.93,-728.23 307.53,-721.42"/>
</g>
<!-- Node4 -->
<g id="node4" class="node">
<title>Node4</title>
<g id="a_node4"><a xlink:title=" ">
<polygon fill="white" stroke="#bfbfbf" points="210,-662.5 210,-679.5 309,-679.5 309,-662.5 210,-662.5"/>
<text text-anchor="middle" x="259.5" y="-669.1" font-family="Helvetica,sans-Serif" font-size="8.00">boost::noncopyable</text>
</a>
</g>
</g>
<!-- Node4&#45;&gt;Node1 -->
<g id="edge3" class="edge">
<title>Node4&#45;&gt;Node1</title>
<path fill="none" stroke="#8b1a1a" d="M319.48,-675.84C429.18,-683.72 659.5,-694.67 726,-654 778.18,-622.09 802.67,-547.81 811.48,-513.7"/>
<polygon fill="#8b1a1a" stroke="#8b1a1a" points="319.48,-672.33 309.25,-675.09 318.96,-679.31 319.48,-672.33"/>
</g>
<!-- Node4&#45;&gt;Node17 -->
<g id="edge21" class="edge">
<title>Node4&#45;&gt;Node17</title>
<path fill="none" stroke="#8b1a1a" d="M302.35,-682.39C339.68,-693.12 395.47,-710.57 442,-731 462.41,-739.96 484.49,-752.52 500.1,-761.93"/>
<polygon fill="#8b1a1a" stroke="#8b1a1a" points="302.9,-678.91 292.33,-679.54 300.99,-685.64 302.9,-678.91"/>
</g>
<!-- Node5 -->
<g id="node5" class="node">
<title>Node5</title>
<g id="a_node5"><a xlink:title=" ">
<polygon fill="white" stroke="black" points="230,-895.5 230,-912.5 289,-912.5 289,-895.5 230,-895.5"/>
<text text-anchor="middle" x="259.5" y="-902.1" font-family="Helvetica,sans-Serif" font-size="8.00">std::string</text>
</a>
</g>
</g>
<!-- Node5&#45;&gt;Node1 -->
<g id="edge4" class="edge">
<title>Node5&#45;&gt;Node1</title>
<path fill="none" stroke="#9a32cd" stroke-dasharray="5,2" d="M299.39,-906.78C388.49,-910.86 608.71,-907.54 726,-788 803.8,-708.71 814.2,-563.64 815.41,-513.55"/>
<polygon fill="#9a32cd" stroke="#9a32cd" points="299.36,-903.27 289.19,-906.25 299,-910.26 299.36,-903.27"/>
<text text-anchor="middle" x="522" y="-901.6" font-family="Helvetica,sans-Serif" font-size="8.00"> m_nickname</text>
</g>
<!-- Node7 -->
<g id="node7" class="node">
<title>Node7</title>
<g id="a_node7"><a xlink:href="classipc_1_1util_1_1Shared__name.html" target="_top" xlink:title="String&#45;wrapping abstraction representing a name uniquely distinguishing a kernel&#45;persistent entity fr...">
<polygon fill="white" stroke="black" points="467,-920.5 467,-937.5 577,-937.5 577,-920.5 467,-920.5"/>
<text text-anchor="middle" x="522" y="-927.1" font-family="Helvetica,sans-Serif" font-size="8.00">ipc::util::Shared_name</text>
</a>
</g>
</g>
<!-- Node5&#45;&gt;Node7 -->
<g id="edge10" class="edge">
<title>Node5&#45;&gt;Node7</title>
<path fill="none" stroke="#9a32cd" stroke-dasharray="5,2" d="M299.49,-907.74C343.94,-912.01 416.9,-919.01 466.85,-923.8"/>
<polygon fill="#9a32cd" stroke="#9a32cd" points="299.66,-904.24 289.37,-906.77 298.99,-911.21 299.66,-904.24"/>
<text text-anchor="middle" x="394" y="-922.6" font-family="Helvetica,sans-Serif" font-size="8.00"> m_raw_name</text>
</g>
<!-- Node5&#45;&gt;Node17 -->
<g id="edge22" class="edge">
<title>Node5&#45;&gt;Node17</title>
<path fill="none" stroke="#9a32cd" stroke-dasharray="5,2" d="M299.18,-896.52C308.87,-893.89 319.05,-890.44 328,-886 337.08,-881.49 336.87,-876.39 346,-872 385.54,-852.99 403.37,-869.8 442,-849 470.79,-833.5 496.94,-804.88 510.74,-788.14"/>
<polygon fill="#9a32cd" stroke="#9a32cd" points="298.19,-893.16 289.33,-898.98 299.88,-899.96 298.19,-893.16"/>
<text text-anchor="middle" x="394" y="-874.6" font-family="Helvetica,sans-Serif" font-size="8.00"> m_nickname</text>
</g>
<!-- Node6 -->
<g id="node6" class="node">
<title>Node6</title>
<g id="a_node6"><a xlink:title=" ">
<polygon fill="white" stroke="black" points="11.5,-891 11.5,-917 102.5,-917 102.5,-891 11.5,-891"/>
<text text-anchor="start" x="19.5" y="-906.6" font-family="Helvetica,sans-Serif" font-size="8.00">std::basic_string&lt;</text>
<text text-anchor="middle" x="57" y="-897.6" font-family="Helvetica,sans-Serif" font-size="8.00"> Char &gt;</text>
</a>
</g>
</g>
<!-- Node6&#45;&gt;Node5 -->
<g id="edge5" class="edge">
<title>Node6&#45;&gt;Node5</title>
<path fill="none" stroke="midnightblue" d="M113.11,-904C150.96,-904 199.66,-904 229.98,-904"/>
<polygon fill="midnightblue" stroke="midnightblue" points="112.75,-900.5 102.75,-904 112.75,-907.5 112.75,-900.5"/>
</g>
<!-- Node7&#45;&gt;Node1 -->
<g id="edge6" class="edge">
<title>Node7&#45;&gt;Node1</title>
<path fill="none" stroke="#9a32cd" stroke-dasharray="5,2" d="M577.73,-938.72C623.09,-943.43 686.35,-941.8 726,-906 785.76,-852.05 809.04,-585.69 814.29,-513.87"/>
<polygon fill="#9a32cd" stroke="#9a32cd" points="578.1,-935.24 567.76,-937.55 577.28,-942.19 578.1,-935.24"/>
<text text-anchor="middle" x="664" y="-942.6" font-family="Helvetica,sans-Serif" font-size="8.00"> m_absolute_name</text>
</g>
<!-- Node7&#45;&gt;Node7 -->
<g id="edge7" class="edge">
<title>Node7&#45;&gt;Node7</title>
<path fill="none" stroke="#9a32cd" stroke-dasharray="5,2" d="M498,-946.1C498.21,-951.62 506.21,-956 522,-956 545.5,-956 551.74,-946.29 540.73,-937.57"/>
<polygon fill="#9a32cd" stroke="#9a32cd" points="500.99,-947.92 503.27,-937.57 495.04,-944.24 500.99,-947.92"/>
<text text-anchor="middle" x="522" y="-1021.6" font-family="Helvetica,sans-Serif" font-size="8.00"> S_1ST_OR_ONLY</text>
<text text-anchor="middle" x="522" y="-1012.6" font-family="Helvetica,sans-Serif" font-size="8.00">S_EMPTY</text>
<text text-anchor="start" x="483.5" y="-1003.6" font-family="Helvetica,sans-Serif" font-size="8.00">S_RESOURCE_TYPE</text>
<text text-anchor="middle" x="522" y="-994.6" font-family="Helvetica,sans-Serif" font-size="8.00">_ID_MUTEX</text>
<text text-anchor="start" x="483.5" y="-985.6" font-family="Helvetica,sans-Serif" font-size="8.00">S_RESOURCE_TYPE</text>
<text text-anchor="middle" x="522" y="-976.6" font-family="Helvetica,sans-Serif" font-size="8.00">_ID_SHM</text>
<text text-anchor="middle" x="522" y="-967.6" font-family="Helvetica,sans-Serif" font-size="8.00">S_ROOT_MAGIC</text>
<text text-anchor="middle" x="522" y="-958.6" font-family="Helvetica,sans-Serif" font-size="8.00">S_SENTINEL</text>
</g>
<!-- Node8 -->
<g id="node8" class="node">
<title>Node8</title>
<g id="a_node8"><a xlink:title=" ">
<polygon fill="white" stroke="#bfbfbf" points="239.5,-1008.5 239.5,-1025.5 279.5,-1025.5 279.5,-1008.5 239.5,-1008.5"/>
<text text-anchor="middle" x="259.5" y="-1015.1" font-family="Helvetica,sans-Serif" font-size="8.00">size_t</text>
</a>
</g>
</g>
<!-- Node8&#45;&gt;Node1 -->
<g id="edge14" class="edge">
<title>Node8&#45;&gt;Node1</title>
<path fill="none" stroke="#9a32cd" stroke-dasharray="5,2" d="M289.45,-1024.81C374.97,-1045.92 626.71,-1093.55 726,-953 777.89,-879.54 807.19,-588.55 813.97,-513.66"/>
<polygon fill="#9a32cd" stroke="#9a32cd" points="290.19,-1021.39 279.64,-1022.32 288.47,-1028.17 290.19,-1021.39"/>
<text text-anchor="middle" x="522" y="-1051.6" font-family="Helvetica,sans-Serif" font-size="8.00"> m_mq_max_msg_sz</text>
</g>
<!-- Node8&#45;&gt;Node7 -->
<g id="edge8" class="edge">
<title>Node8&#45;&gt;Node7</title>
<path fill="none" stroke="#9a32cd" stroke-dasharray="5,2" d="M289.36,-1009.23C325.41,-999.3 388.84,-981.1 442,-962 462.84,-954.51 486.18,-944.56 502.06,-937.55"/>
<polygon fill="#9a32cd" stroke="#9a32cd" points="288.24,-1005.91 279.52,-1011.92 290.09,-1012.66 288.24,-1005.91"/>
<text text-anchor="middle" x="394" y="-994.6" font-family="Helvetica,sans-Serif" font-size="8.00"> S_MAX_LENGTH</text>
</g>
<!-- Node9 -->
<g id="node9" class="node">
<title>Node9</title>
<g id="a_node9"><a xlink:title=" ">
<polygon fill="white" stroke="#bfbfbf" points="217.5,-951.5 217.5,-968.5 301.5,-968.5 301.5,-951.5 217.5,-951.5"/>
<text text-anchor="middle" x="259.5" y="-958.1" font-family="Helvetica,sans-Serif" font-size="8.00">static const char</text>
</a>
</g>
</g>
<!-- Node9&#45;&gt;Node7 -->
<g id="edge9" class="edge">
<title>Node9&#45;&gt;Node7</title>
<path fill="none" stroke="#9a32cd" stroke-dasharray="5,2" d="M311.85,-953.89C356.58,-948.57 421.24,-940.87 466.8,-935.45"/>
<polygon fill="#9a32cd" stroke="#9a32cd" points="311.29,-950.43 301.78,-955.09 312.12,-957.38 311.29,-950.43"/>
<text text-anchor="middle" x="394" y="-951.6" font-family="Helvetica,sans-Serif" font-size="8.00"> S_SEPARATOR</text>
</g>
<!-- Node10 -->
<g id="node10" class="node">
<title>Node10</title>
<g id="a_node10"><a xlink:title=" ">
<polygon fill="white" stroke="#bfbfbf" points="474.5,-624 474.5,-650 569.5,-650 569.5,-624 474.5,-624"/>
<text text-anchor="start" x="482.5" y="-639.6" font-family="Helvetica,sans-Serif" font-size="8.00">optional&lt; flow::util</text>
<text text-anchor="middle" x="522" y="-630.6" font-family="Helvetica,sans-Serif" font-size="8.00">::Task_engine &gt;</text>
</a>
</g>
</g>
<!-- Node10&#45;&gt;Node1 -->
<g id="edge11" class="edge">
<title>Node10&#45;&gt;Node1</title>
<path fill="none" stroke="#9a32cd" stroke-dasharray="5,2" d="M579.95,-641.37C622.8,-642.07 681.54,-637.34 726,-612 766.22,-589.07 794.49,-540.12 807.47,-513.73"/>
<polygon fill="#9a32cd" stroke="#9a32cd" points="579.79,-637.86 569.7,-641.09 579.6,-644.86 579.79,-637.86"/>
<text text-anchor="middle" x="664" y="-643.6" font-family="Helvetica,sans-Serif" font-size="8.00"> m_nb_task_engine</text>
</g>
<!-- Node11 -->
<g id="node11" class="node">
<title>Node11</title>
<g id="a_node11"><a xlink:title=" ">
<polygon fill="white" stroke="#bfbfbf" points="488.5,-587.5 488.5,-604.5 555.5,-604.5 555.5,-587.5 488.5,-587.5"/>
<text text-anchor="middle" x="522" y="-594.1" font-family="Helvetica,sans-Serif" font-size="8.00">Task_engine</text>
</a>
</g>
</g>
<!-- Node11&#45;&gt;Node1 -->
<g id="edge12" class="edge">
<title>Node11&#45;&gt;Node1</title>
<path fill="none" stroke="#9a32cd" stroke-dasharray="5,2" d="M565.77,-594.26C607.97,-591.26 673.61,-583.12 726,-561 753.07,-549.57 779.75,-528.59 796.84,-513.55"/>
<polygon fill="#9a32cd" stroke="#9a32cd" points="565.32,-590.78 555.56,-594.92 565.77,-597.77 565.32,-590.78"/>
<text text-anchor="start" x="614.5" y="-601.6" font-family="Helvetica,sans-Serif" font-size="8.00"> m_ev_hndl_task_engine</text>
<text text-anchor="middle" x="664" y="-592.6" font-family="Helvetica,sans-Serif" font-size="8.00">_unused</text>
</g>
<!-- Node12 -->
<g id="node12" class="node">
<title>Node12</title>
<g id="a_node12"><a xlink:title=" ">
<polygon fill="white" stroke="#bfbfbf" points="479.5,-551.5 479.5,-568.5 564.5,-568.5 564.5,-551.5 479.5,-551.5"/>
<text text-anchor="middle" x="522" y="-558.1" font-family="Helvetica,sans-Serif" font-size="8.00">Auto_closing_mq</text>
</a>
</g>
</g>
<!-- Node12&#45;&gt;Node1 -->
<g id="edge13" class="edge">
<title>Node12&#45;&gt;Node1</title>
<path fill="none" stroke="#9a32cd" stroke-dasharray="5,2" d="M574.66,-553.17C615.94,-547.22 675.11,-537.56 726,-525 739,-521.79 752.86,-517.66 765.69,-513.53"/>
<polygon fill="#9a32cd" stroke="#9a32cd" points="573.98,-549.73 564.57,-554.6 574.96,-556.66 573.98,-549.73"/>
<text text-anchor="middle" x="664" y="-550.6" font-family="Helvetica,sans-Serif" font-size="8.00"> m_mq</text>
</g>
<!-- Node13 -->
<g id="node13" class="node">
<title>Node13</title>
<g id="a_node13"><a xlink:title=" ">
<polygon fill="white" stroke="#bfbfbf" points="474.5,-506 474.5,-532 569.5,-532 569.5,-506 474.5,-506"/>
<text text-anchor="start" x="482.5" y="-521.6" font-family="Helvetica,sans-Serif" font-size="8.00">optional&lt; util::Pipe</text>
<text text-anchor="middle" x="522" y="-512.6" font-family="Helvetica,sans-Serif" font-size="8.00">_reader &gt;</text>
</a>
</g>
</g>
<!-- Node13&#45;&gt;Node1 -->
<g id="edge15" class="edge">
<title>Node13&#45;&gt;Node1</title>
<path fill="none" stroke="#9a32cd" stroke-dasharray="5,2" d="M579.65,-514.55C626.5,-510.86 693.31,-505.61 743.87,-501.63"/>
<polygon fill="#9a32cd" stroke="#9a32cd" points="579.37,-511.06 569.67,-515.33 579.91,-518.04 579.37,-511.06"/>
<text text-anchor="middle" x="664" y="-514.6" font-family="Helvetica,sans-Serif" font-size="8.00"> m_mq_ready_reader</text>
</g>
<!-- Node14 -->
<g id="node14" class="node">
<title>Node14</title>
<g id="a_node14"><a xlink:title=" ">
<polygon fill="white" stroke="#bfbfbf" points="474.5,-461 474.5,-487 569.5,-487 569.5,-461 474.5,-461"/>
<text text-anchor="start" x="482.5" y="-476.6" font-family="Helvetica,sans-Serif" font-size="8.00">optional&lt; util::Pipe</text>
<text text-anchor="middle" x="522" y="-467.6" font-family="Helvetica,sans-Serif" font-size="8.00">_writer &gt;</text>
</a>
</g>
</g>
<!-- Node14&#45;&gt;Node1 -->
<g id="edge16" class="edge">
<title>Node14&#45;&gt;Node1</title>
<path fill="none" stroke="#9a32cd" stroke-dasharray="5,2" d="M579.79,-477.61C620.51,-480.27 676.65,-484.09 726,-488 731.75,-488.46 737.71,-488.95 743.7,-489.45"/>
<polygon fill="#9a32cd" stroke="#9a32cd" points="579.99,-474.11 569.78,-476.96 579.54,-481.1 579.99,-474.11"/>
<text text-anchor="middle" x="664" y="-490.6" font-family="Helvetica,sans-Serif" font-size="8.00"> m_mq_ready_writer</text>
</g>
<!-- Node15 -->
<g id="node15" class="node">
<title>Node15</title>
<g id="a_node15"><a xlink:href="classipc_1_1util_1_1sync__io_1_1Asio__waitable__native__handle.html" target="_top" xlink:title="Useful if using the sync_io pattern within a user event loop built on boost.asio (optionally with flo...">
<polygon fill="white" stroke="black" points="468,-406.5 468,-441.5 576,-441.5 576,-406.5 468,-406.5"/>
<text text-anchor="start" x="476" y="-431.1" font-family="Helvetica,sans-Serif" font-size="8.00">ipc::util::sync_io</text>
<text text-anchor="start" x="476" y="-422.1" font-family="Helvetica,sans-Serif" font-size="8.00">::Asio_waitable_native</text>
<text text-anchor="middle" x="522" y="-413.1" font-family="Helvetica,sans-Serif" font-size="8.00">_handle</text>
</a>
</g>
</g>
<!-- Node15&#45;&gt;Node1 -->
<g id="edge17" class="edge">
<title>Node15&#45;&gt;Node1</title>
<path fill="none" stroke="#9a32cd" stroke-dasharray="5,2" d="M586.34,-425.42C627.04,-427.8 680.59,-433.71 726,-448 748.37,-455.04 771.65,-467.72 788.86,-478.28"/>
<polygon fill="#9a32cd" stroke="#9a32cd" points="586.46,-421.92 576.28,-424.89 586.09,-428.91 586.46,-421.92"/>
<text text-anchor="start" x="618" y="-468.6" font-family="Helvetica,sans-Serif" font-size="8.00"> m_ev_wait_hndl_auto</text>
<text text-anchor="middle" x="664" y="-459.6" font-family="Helvetica,sans-Serif" font-size="8.00">_ping_timer_fired_peer</text>
<text text-anchor="middle" x="664" y="-450.6" font-family="Helvetica,sans-Serif" font-size="8.00">m_ev_wait_hndl_mq</text>
</g>
<!-- Node16 -->
<g id="node16" class="node">
<title>Node16</title>
<g id="a_node16"><a xlink:title=" ">
<polygon fill="white" stroke="#bfbfbf" points="214,-411 214,-437 305,-437 305,-411 214,-411"/>
<text text-anchor="start" x="222" y="-426.6" font-family="Helvetica,sans-Serif" font-size="8.00">boost::asio::posix</text>
<text text-anchor="middle" x="259.5" y="-417.6" font-family="Helvetica,sans-Serif" font-size="8.00">::descriptor</text>
</a>
</g>
</g>
<!-- Node16&#45;&gt;Node15 -->
<g id="edge18" class="edge">
<title>Node16&#45;&gt;Node15</title>
<path fill="none" stroke="darkgreen" d="M315.42,-424C360.32,-424 423.41,-424 467.82,-424"/>
<polygon fill="darkgreen" stroke="darkgreen" points="315.28,-420.5 305.28,-424 315.28,-427.5 315.28,-420.5"/>
</g>
<!-- Node17&#45;&gt;Node1 -->
<g id="edge19" class="edge">
<title>Node17&#45;&gt;Node1</title>
<path fill="none" stroke="#9a32cd" stroke-dasharray="5,2" d="M584.87,-776.45C629.01,-774.26 687.19,-764.37 726,-731 793.7,-672.79 810.35,-557.62 814.31,-513.64"/>
<polygon fill="#9a32cd" stroke="#9a32cd" points="584.69,-772.96 574.82,-776.83 584.95,-779.95 584.69,-772.96"/>
<text text-anchor="middle" x="664" y="-777.6" font-family="Helvetica,sans-Serif" font-size="8.00"> m_timer_worker</text>
</g>
<!-- Node18 -->
<g id="node18" class="node">
<title>Node18</title>
<g id="a_node18"><a xlink:title=" ">
<polygon fill="white" stroke="#bfbfbf" points="201.5,-859.5 201.5,-876.5 317.5,-876.5 317.5,-859.5 201.5,-859.5"/>
<text text-anchor="middle" x="259.5" y="-866.1" font-family="Helvetica,sans-Serif" font-size="8.00">Single_thread_task_loop</text>
</a>
</g>
</g>
<!-- Node18&#45;&gt;Node17 -->
<g id="edge23" class="edge">
<title>Node18&#45;&gt;Node17</title>
<path fill="none" stroke="#9a32cd" stroke-dasharray="5,2" d="M309.22,-856.55C315.62,-854.6 322.02,-852.41 328,-850 336.49,-846.57 337.47,-843.32 346,-840 386.89,-824.09 400.97,-832.53 442,-817 462.48,-809.25 484.37,-797.29 499.9,-788.12"/>
<polygon fill="#9a32cd" stroke="#9a32cd" points="307.88,-853.3 299.23,-859.42 309.81,-860.02 307.88,-853.3"/>
<text text-anchor="middle" x="394" y="-842.6" font-family="Helvetica,sans-Serif" font-size="8.00"> m_worker</text>
</g>
<!-- Node19 -->
<g id="node19" class="node">
<title>Node19</title>
<g id="a_node19"><a xlink:title=" ">
<polygon fill="white" stroke="black" points="194,-805.5 194,-840.5 325,-840.5 325,-805.5 194,-805.5"/>
<text text-anchor="start" x="202" y="-830.1" font-family="Helvetica,sans-Serif" font-size="8.00">std::vector&lt; boost</text>
<text text-anchor="start" x="202" y="-821.1" font-family="Helvetica,sans-Serif" font-size="8.00">::movelib::unique_ptr</text>
<text text-anchor="middle" x="259.5" y="-812.1" font-family="Helvetica,sans-Serif" font-size="8.00">&lt; Timer_fired_read_end &gt; &gt;</text>
</a>
</g>
</g>
<!-- Node19&#45;&gt;Node17 -->
<g id="edge24" class="edge">
<title>Node19&#45;&gt;Node17</title>
<path fill="none" stroke="#9a32cd" stroke-dasharray="5,2" d="M335.07,-809.26C378.01,-801.35 430.89,-791.6 469.26,-784.53"/>
<polygon fill="#9a32cd" stroke="#9a32cd" points="334.43,-805.82 325.23,-811.07 335.7,-812.7 334.43,-805.82"/>
<text text-anchor="middle" x="394" y="-808.6" font-family="Helvetica,sans-Serif" font-size="8.00"> m_signal_pipe_readers</text>
</g>
<!-- Node20 -->
<g id="node20" class="node">
<title>Node20</title>
<g id="a_node20"><a xlink:title=" ">
<polygon fill="white" stroke="#bfbfbf" points="0,-810 0,-836 114,-836 114,-810 0,-810"/>
<text text-anchor="start" x="8" y="-825.6" font-family="Helvetica,sans-Serif" font-size="8.00">unique_ptr&lt; Timer_fired</text>
<text text-anchor="middle" x="57" y="-816.6" font-family="Helvetica,sans-Serif" font-size="8.00">_read_end &gt;</text>
</a>
</g>
</g>
<!-- Node20&#45;&gt;Node19 -->
<g id="edge25" class="edge">
<title>Node20&#45;&gt;Node19</title>
<path fill="none" stroke="#9a32cd" stroke-dasharray="5,2" d="M124.21,-823C146.63,-823 171.61,-823 193.9,-823"/>
<polygon fill="#9a32cd" stroke="#9a32cd" points="124.12,-819.5 114.12,-823 124.12,-826.5 124.12,-819.5"/>
<text text-anchor="middle" x="152.5" y="-825.6" font-family="Helvetica,sans-Serif" font-size="8.00"> elements</text>
</g>
<!-- Node21 -->
<g id="node21" class="node">
<title>Node21</title>
<g id="a_node21"><a xlink:title=" ">
<polygon fill="white" stroke="#bfbfbf" points="191,-742 191,-786 328,-786 328,-742 191,-742"/>
<text text-anchor="start" x="199" y="-775.6" font-family="Helvetica,sans-Serif" font-size="8.00">unordered_map&lt; Timer</text>
<text text-anchor="start" x="199" y="-766.6" font-family="Helvetica,sans-Serif" font-size="8.00">_fired_read_end *, boost</text>
<text text-anchor="start" x="199" y="-757.6" font-family="Helvetica,sans-Serif" font-size="8.00">::movelib::unique_ptr&lt; boost</text>
<text text-anchor="middle" x="259.5" y="-748.6" font-family="Helvetica,sans-Serif" font-size="8.00">::asio::writable_pipe &gt; &gt;</text>
</a>
</g>
</g>
<!-- Node21&#45;&gt;Node17 -->
<g id="edge26" class="edge">
<title>Node21&#45;&gt;Node17</title>
<path fill="none" stroke="#9a32cd" stroke-dasharray="5,2" d="M338.26,-767.28C380.58,-769.07 431.78,-771.23 469.21,-772.81"/>
<polygon fill="#9a32cd" stroke="#9a32cd" points="338.4,-763.79 328.26,-766.86 338.11,-770.78 338.4,-763.79"/>
<text text-anchor="middle" x="394" y="-773.6" font-family="Helvetica,sans-Serif" font-size="8.00"> m_signal_pipe_writers</text>
</g>
<!-- Node22 -->
<g id="node22" class="node">
<title>Node22</title>
<g id="a_node22"><a xlink:title=" ">
<polygon fill="white" stroke="black" points="466,-352.5 466,-387.5 578,-387.5 578,-352.5 466,-352.5"/>
<text text-anchor="start" x="474" y="-377.1" font-family="Helvetica,sans-Serif" font-size="8.00">std::queue&lt; typename</text>
<text text-anchor="start" x="474" y="-368.1" font-family="Helvetica,sans-Serif" font-size="8.00"> Snd_low_lvl_payload</text>
<text text-anchor="middle" x="522" y="-359.1" font-family="Helvetica,sans-Serif" font-size="8.00">::Ptr &gt;</text>
</a>
</g>
</g>
<!-- Node22&#45;&gt;Node1 -->
<g id="edge27" class="edge">
<title>Node22&#45;&gt;Node1</title>
<path fill="none" stroke="#9a32cd" stroke-dasharray="5,2" d="M588.21,-374.86C629.57,-380.05 683.16,-390.79 726,-413 757.23,-429.19 785.59,-459.28 801.67,-478.44"/>
<polygon fill="#9a32cd" stroke="#9a32cd" points="588.58,-371.38 578.24,-373.68 587.76,-378.33 588.58,-371.38"/>
<text text-anchor="middle" x="664" y="-415.6" font-family="Helvetica,sans-Serif" font-size="8.00"> m_pending_payloads_q</text>
</g>
<!-- Node23 -->
<g id="node23" class="node">
<title>Node23</title>
<g id="a_node23"><a xlink:title=" ">
<polygon fill="white" stroke="#bfbfbf" points="245,-361.5 245,-378.5 274,-378.5 274,-361.5 245,-361.5"/>
<text text-anchor="middle" x="259.5" y="-368.1" font-family="Helvetica,sans-Serif" font-size="8.00">Ptr</text>
</a>
</g>
</g>
<!-- Node23&#45;&gt;Node22 -->
<g id="edge28" class="edge">
<title>Node23&#45;&gt;Node22</title>
<path fill="none" stroke="#9a32cd" stroke-dasharray="5,2" d="M284.2,-370C325,-370 409.51,-370 465.74,-370"/>
<polygon fill="#9a32cd" stroke="#9a32cd" points="284.14,-366.5 274.14,-370 284.14,-373.5 284.14,-366.5"/>
<text text-anchor="middle" x="394" y="-372.6" font-family="Helvetica,sans-Serif" font-size="8.00"> elements</text>
</g>
<!-- Node24 -->
<g id="node24" class="node">
<title>Node24</title>
<g id="a_node24"><a xlink:title=" ">
<polygon fill="white" stroke="#bfbfbf" points="492,-316.5 492,-333.5 552,-333.5 552,-316.5 492,-316.5"/>
<text text-anchor="middle" x="522" y="-323.1" font-family="Helvetica,sans-Serif" font-size="8.00">Error_code</text>
</a>
</g>
</g>
<!-- Node24&#45;&gt;Node1 -->
<g id="edge29" class="edge">
<title>Node24&#45;&gt;Node1</title>
<path fill="none" stroke="#9a32cd" stroke-dasharray="5,2" d="M562.33,-323.66C605.83,-324.04 676.32,-330.33 726,-363 769.48,-391.6 797.2,-449.38 808.98,-478.46"/>
<polygon fill="#9a32cd" stroke="#9a32cd" points="562.14,-320.16 552.14,-323.68 562.15,-327.16 562.14,-320.16"/>
<text text-anchor="middle" x="664" y="-365.6" font-family="Helvetica,sans-Serif" font-size="8.00"> m_pending_err_code</text>
</g>
<!-- Node25 -->
<g id="node25" class="node">
<title>Node25</title>
<g id="a_node25"><a xlink:title=" ">
<polygon fill="white" stroke="#bfbfbf" points="504.5,-280.5 504.5,-297.5 539.5,-297.5 539.5,-280.5 504.5,-280.5"/>
<text text-anchor="middle" x="522" y="-287.1" font-family="Helvetica,sans-Serif" font-size="8.00">bool</text>
</a>
</g>
</g>
<!-- Node25&#45;&gt;Node1 -->
<g id="edge30" class="edge">
<title>Node25&#45;&gt;Node1</title>
<path fill="none" stroke="#9a32cd" stroke-dasharray="5,2" d="M549.51,-284.49C591.17,-278.92 672.72,-274.33 726,-312 783.58,-352.71 805.67,-440.91 812.7,-478.48"/>
<polygon fill="#9a32cd" stroke="#9a32cd" points="548.97,-281.03 539.58,-285.94 549.98,-287.96 548.97,-281.03"/>
<text text-anchor="middle" x="664" y="-314.6" font-family="Helvetica,sans-Serif" font-size="8.00"> m_finished</text>
</g>
<!-- Node26 -->
<g id="node26" class="node">
<title>Node26</title>
<g id="a_node26"><a xlink:title=" ">
<polygon fill="white" stroke="#bfbfbf" points="486.5,-244.5 486.5,-261.5 557.5,-261.5 557.5,-244.5 486.5,-244.5"/>
<text text-anchor="middle" x="522" y="-251.1" font-family="Helvetica,sans-Serif" font-size="8.00">Task_asio_err</text>
</a>
</g>
</g>
<!-- Node26&#45;&gt;Node1 -->
<g id="edge31" class="edge">
<title>Node26&#45;&gt;Node1</title>
<path fill="none" stroke="#9a32cd" stroke-dasharray="5,2" d="M561.79,-242.11C605.85,-232.2 677.88,-223.8 726,-258 800.12,-310.68 812.91,-432.69 815.07,-478.34"/>
<polygon fill="#9a32cd" stroke="#9a32cd" points="560.94,-238.71 552.02,-244.43 562.56,-245.52 560.94,-238.71"/>
<text text-anchor="start" x="611.5" y="-269.6" font-family="Helvetica,sans-Serif" font-size="8.00"> m_pending_on_last_send</text>
<text text-anchor="middle" x="664" y="-260.6" font-family="Helvetica,sans-Serif" font-size="8.00">_done_func_or_empty</text>
</g>
<!-- Node27 -->
<g id="node27" class="node">
<title>Node27</title>
<g id="a_node27"><a xlink:title=" ">
<polygon fill="white" stroke="#bfbfbf" points="486.5,-208.5 486.5,-225.5 557.5,-225.5 557.5,-208.5 486.5,-208.5"/>
<text text-anchor="middle" x="522" y="-215.1" font-family="Helvetica,sans-Serif" font-size="8.00">Fine_duration</text>
</a>
</g>
</g>
<!-- Node27&#45;&gt;Node1 -->
<g id="edge32" class="edge">
<title>Node27&#45;&gt;Node1</title>
<path fill="none" stroke="#9a32cd" stroke-dasharray="5,2" d="M559.47,-205.87C603.48,-194.85 677.6,-184.26 726,-220 810.9,-282.68 816.78,-427.61 816.12,-478.19"/>
<polygon fill="#9a32cd" stroke="#9a32cd" points="558.54,-202.5 549.76,-208.44 560.32,-209.27 558.54,-202.5"/>
<text text-anchor="middle" x="664" y="-222.6" font-family="Helvetica,sans-Serif" font-size="8.00"> m_auto_ping_period</text>
</g>
<!-- Node28 -->
<g id="node28" class="node">
<title>Node28</title>
<g id="a_node28"><a xlink:title=" ">
<polygon fill="white" stroke="#bfbfbf" points="502.5,-172.5 502.5,-189.5 541.5,-189.5 541.5,-172.5 502.5,-172.5"/>
<text text-anchor="middle" x="522" y="-179.1" font-family="Helvetica,sans-Serif" font-size="8.00">Timer</text>
</a>
</g>
</g>
<!-- Node28&#45;&gt;Node1 -->
<g id="edge33" class="edge">
<title>Node28&#45;&gt;Node1</title>
<path fill="none" stroke="#9a32cd" stroke-dasharray="5,2" d="M551.52,-177.09C600.85,-170.97 699.38,-161.81 726,-182 774.77,-219 804.96,-417.1 813.2,-478.11"/>
<polygon fill="#9a32cd" stroke="#9a32cd" points="550.98,-173.63 541.51,-178.37 551.87,-180.57 550.98,-173.63"/>
<text text-anchor="middle" x="664" y="-184.6" font-family="Helvetica,sans-Serif" font-size="8.00"> m_auto_ping_timer</text>
</g>
<!-- Node29 -->
<g id="node29" class="node">
<title>Node29</title>
<g id="a_node29"><a xlink:title=" ">
<polygon fill="white" stroke="#bfbfbf" points="467,-136.5 467,-153.5 577,-153.5 577,-136.5 467,-136.5"/>
<text text-anchor="middle" x="522" y="-143.1" font-family="Helvetica,sans-Serif" font-size="8.00">Timer_fired_read_end *</text>
</a>
</g>
</g>
<!-- Node29&#45;&gt;Node1 -->
<g id="edge34" class="edge">
<title>Node29&#45;&gt;Node1</title>
<path fill="none" stroke="#9a32cd" stroke-dasharray="5,2" d="M564.11,-134.33C609.06,-125.32 680.69,-119.08 726,-156 777.46,-197.93 806.08,-414.04 813.53,-478.09"/>
<polygon fill="#9a32cd" stroke="#9a32cd" points="563.17,-130.96 554.12,-136.47 564.63,-137.8 563.17,-130.96"/>
<text text-anchor="middle" x="664" y="-158.6" font-family="Helvetica,sans-Serif" font-size="8.00"> m_auto_ping_timer_fired_peer</text>
</g>
<!-- Node30 -->
<g id="node30" class="node">
<title>Node30</title>
<g id="a_node30"><a xlink:title=" ">
<polygon fill="white" stroke="#bfbfbf" points="460.5,-55 460.5,-117 583.5,-117 583.5,-55 460.5,-55"/>
<text text-anchor="start" x="468.5" y="-106.6" font-family="Helvetica,sans-Serif" font-size="8.00">Function&lt; void(Asio</text>
<text text-anchor="start" x="468.5" y="-97.6" font-family="Helvetica,sans-Serif" font-size="8.00">_waitable_native_handle</text>
<text text-anchor="start" x="468.5" y="-88.6" font-family="Helvetica,sans-Serif" font-size="8.00"> *hndl_of_interest, bool</text>
<text text-anchor="start" x="468.5" y="-79.6" font-family="Helvetica,sans-Serif" font-size="8.00"> ev_of_interest_snd_else</text>
<text text-anchor="start" x="468.5" y="-70.6" font-family="Helvetica,sans-Serif" font-size="8.00">_rcv, Task_ptr &amp;&amp;on_active</text>
<text text-anchor="middle" x="522" y="-61.6" font-family="Helvetica,sans-Serif" font-size="8.00">_ev_func)&gt;</text>
</a>
</g>
</g>
<!-- Node30&#45;&gt;Node1 -->
<g id="edge35" class="edge">
<title>Node30&#45;&gt;Node1</title>
<path fill="none" stroke="#9a32cd" stroke-dasharray="5,2" d="M594.03,-77.12C637.34,-75.79 690.94,-82.06 726,-114 781.39,-164.46 807.68,-410.31 813.97,-478.46"/>
<polygon fill="#9a32cd" stroke="#9a32cd" points="593.65,-73.63 583.82,-77.58 593.97,-80.63 593.65,-73.63"/>
<text text-anchor="middle" x="664" y="-116.6" font-family="Helvetica,sans-Serif" font-size="8.00"> m_ev_wait_func</text>
</g>
<!-- Node31 -->
<g id="node31" class="node">
<title>Node31</title>
<g id="a_node31"><a xlink:title=" ">
<polygon fill="white" stroke="#bfbfbf" points="469,-0.5 469,-35.5 575,-35.5 575,-0.5 469,-0.5"/>
<text text-anchor="start" x="477" y="-25.1" font-family="Helvetica,sans-Serif" font-size="8.00">optional&lt; flow::async</text>
<text text-anchor="start" x="477" y="-16.1" font-family="Helvetica,sans-Serif" font-size="8.00">::Single_thread_task</text>
<text text-anchor="middle" x="522" y="-7.1" font-family="Helvetica,sans-Serif" font-size="8.00">_loop &gt;</text>
</a>
</g>
</g>
<!-- Node31&#45;&gt;Node1 -->
<g id="edge36" class="edge">
<title>Node31&#45;&gt;Node1</title>
<path fill="none" stroke="#9a32cd" stroke-dasharray="5,2" d="M585.68,-15.08C630.77,-16.52 689.79,-26.27 726,-63 785.82,-123.68 809.19,-404.74 814.35,-478.33"/>
<polygon fill="#9a32cd" stroke="#9a32cd" points="585.48,-11.57 575.41,-14.88 585.34,-18.57 585.48,-11.57"/>
<text text-anchor="middle" x="664" y="-65.6" font-family="Helvetica,sans-Serif" font-size="8.00"> m_blocking_worker</text>
</g>
</g>
</svg>
