<?xml version="1.0" encoding="UTF-8" standalone="no"?>
<!DOCTYPE svg PUBLIC "-//W3C//DTD SVG 1.1//EN"
 "http://www.w3.org/Graphics/SVG/1.1/DTD/svg11.dtd">
<!-- Generated by graphviz version 2.43.0 (0)
 -->
<!-- Title: ipc::transport::sync_io::Native_socket_stream::Impl::Impl Pages: 1 -->
<svg width="472pt" height="206pt"
 viewBox="0.00 0.00 472.00 206.00" xmlns="http://www.w3.org/2000/svg" xmlns:xlink="http://www.w3.org/1999/xlink">
<g id="graph0" class="graph" transform="scale(1 1) rotate(0) translate(4 202)">
<title>ipc::transport::sync_io::Native_socket_stream::Impl::Impl</title>
<polygon fill="white" stroke="transparent" points="-4,4 -4,-202 468,-202 468,4 -4,4"/>
<!-- Node1 -->
<g id="node1" class="node">
<title>Node1</title>
<g id="a_node1"><a xlink:title="See Native_socket_stream counterpart.">
<polygon fill="#bfbfbf" stroke="black" points="0,-81.5 0,-116.5 123,-116.5 123,-81.5 0,-81.5"/>
<text text-anchor="start" x="8" y="-106.1" font-family="Helvetica,sans-Serif" font-size="8.00">ipc::transport::sync</text>
<text text-anchor="start" x="8" y="-97.1" font-family="Helvetica,sans-Serif" font-size="8.00">_io::Native_socket_stream</text>
<text text-anchor="middle" x="61.5" y="-88.1" font-family="Helvetica,sans-Serif" font-size="8.00">::Impl::Impl</text>
</a>
</g>
</g>
<!-- Node2 -->
<g id="node2" class="node">
<title>Node2</title>
<g id="a_node2"><a xlink:href="classipc_1_1util_1_1sync__io_1_1Asio__waitable__native__handle.html#a7d28277f9ef090032b0483c65f79f23c" target="_top" xlink:title="Loads value to be returned by native_handle().">
<polygon fill="white" stroke="black" points="166.5,-162.5 166.5,-197.5 274.5,-197.5 274.5,-162.5 166.5,-162.5"/>
<text text-anchor="start" x="174.5" y="-187.1" font-family="Helvetica,sans-Serif" font-size="8.00">ipc::util::sync_io</text>
<text text-anchor="start" x="174.5" y="-178.1" font-family="Helvetica,sans-Serif" font-size="8.00">::Asio_waitable_native</text>
<text text-anchor="middle" x="220.5" y="-169.1" font-family="Helvetica,sans-Serif" font-size="8.00">_handle::assign</text>
</a>
</g>
</g>
<!-- Node1&#45;&gt;Node2 -->
<g id="edge1" class="edge">
<title>Node1&#45;&gt;Node2</title>
<path fill="none" stroke="midnightblue" d="M92.55,-116.74C111.4,-127.64 136.35,-141.64 159,-153 162.49,-154.75 166.11,-156.51 169.77,-158.24"/>
<polygon fill="midnightblue" stroke="midnightblue" points="168.37,-161.45 178.91,-162.49 171.32,-155.1 168.37,-161.45"/>
</g>
<!-- Node4 -->
<g id="node4" class="node">
<title>Node4</title>
<g id="a_node4"><a xlink:href="classipc_1_1transport_1_1sync__io_1_1Native__socket__stream.html#aac68d14f4ef33505399df4fd04cd4669" target="_top" xlink:title="Returns logger (possibly null).">
<polygon fill="white" stroke="black" points="159,-108.5 159,-143.5 282,-143.5 282,-108.5 159,-108.5"/>
<text text-anchor="start" x="167" y="-133.1" font-family="Helvetica,sans-Serif" font-size="8.00">ipc::transport::sync</text>
<text text-anchor="start" x="167" y="-124.1" font-family="Helvetica,sans-Serif" font-size="8.00">_io::Native_socket_stream</text>
<text text-anchor="middle" x="220.5" y="-115.1" font-family="Helvetica,sans-Serif" font-size="8.00">::get_logger</text>
</a>
</g>
</g>
<!-- Node1&#45;&gt;Node4 -->
<g id="edge3" class="edge">
<title>Node1&#45;&gt;Node4</title>
<path fill="none" stroke="midnightblue" d="M123.2,-109.44C131.64,-110.89 140.36,-112.39 148.95,-113.87"/>
<polygon fill="midnightblue" stroke="midnightblue" points="148.51,-117.34 158.96,-115.59 149.7,-110.44 148.51,-117.34"/>
</g>
<!-- Node6 -->
<g id="node6" class="node">
<title>Node6</title>
<g id="a_node6"><a xlink:href="classipc_1_1transport_1_1sync__io_1_1Native__socket__stream_1_1Impl.html#a0ddd1b1e57bc61827d457e16e3db8600" target="_top" xlink:title="See Native_socket_stream counterpart.">
<polygon fill="white" stroke="black" points="159,-54.5 159,-89.5 282,-89.5 282,-54.5 159,-54.5"/>
<text text-anchor="start" x="167" y="-79.1" font-family="Helvetica,sans-Serif" font-size="8.00">ipc::transport::sync</text>
<text text-anchor="start" x="167" y="-70.1" font-family="Helvetica,sans-Serif" font-size="8.00">_io::Native_socket_stream</text>
<text text-anchor="middle" x="220.5" y="-61.1" font-family="Helvetica,sans-Serif" font-size="8.00">::Impl::nickname</text>
</a>
</g>
</g>
<!-- Node1&#45;&gt;Node6 -->
<g id="edge5" class="edge">
<title>Node1&#45;&gt;Node6</title>
<path fill="none" stroke="midnightblue" d="M123.2,-88.56C131.64,-87.11 140.36,-85.61 148.95,-84.13"/>
<polygon fill="midnightblue" stroke="midnightblue" points="149.7,-87.56 158.96,-82.41 148.51,-80.66 149.7,-87.56"/>
</g>
<!-- Node7 -->
<g id="node7" class="node">
<title>Node7</title>
<g id="a_node7"><a xlink:href="classipc_1_1transport_1_1sync__io_1_1Native__socket__stream_1_1Impl.html#a3c6214376ab8bc59823635d405f9704a" target="_top" xlink:title="It is start_ops&lt;Op::S_CONN&gt;().">
<polygon fill="white" stroke="black" points="159,-0.5 159,-35.5 282,-35.5 282,-0.5 159,-0.5"/>
<text text-anchor="start" x="167" y="-25.1" font-family="Helvetica,sans-Serif" font-size="8.00">ipc::transport::sync</text>
<text text-anchor="start" x="167" y="-16.1" font-family="Helvetica,sans-Serif" font-size="8.00">_io::Native_socket_stream</text>
<text text-anchor="middle" x="220.5" y="-7.1" font-family="Helvetica,sans-Serif" font-size="8.00">::Impl::start_connect_ops</text>
</a>
</g>
</g>
<!-- Node1&#45;&gt;Node7 -->
<g id="edge6" class="edge">
<title>Node1&#45;&gt;Node7</title>
<path fill="none" stroke="midnightblue" d="M92.55,-81.26C111.4,-70.36 136.35,-56.36 159,-45 162.49,-43.25 166.11,-41.49 169.77,-39.76"/>
<polygon fill="midnightblue" stroke="midnightblue" points="171.32,-42.9 178.91,-35.51 168.37,-36.55 171.32,-42.9"/>
</g>
<!-- Node3 -->
<g id="node3" class="node">
<title>Node3</title>
<g id="a_node3"><a xlink:href="structipc_1_1util_1_1Native__handle.html#a11bd62ce0a7bef4bdfe666201c26d4dc" target="_top" xlink:title="Returns true if and only if m_native_handle equals S_NULL_HANDLE.">
<polygon fill="white" stroke="black" points="335,-167 335,-193 447,-193 447,-167 335,-167"/>
<text text-anchor="start" x="343" y="-182.6" font-family="Helvetica,sans-Serif" font-size="8.00">ipc::util::Native_handle</text>
<text text-anchor="middle" x="391" y="-173.6" font-family="Helvetica,sans-Serif" font-size="8.00">::null</text>
</a>
</g>
</g>
<!-- Node2&#45;&gt;Node3 -->
<g id="edge2" class="edge">
<title>Node2&#45;&gt;Node3</title>
<path fill="none" stroke="midnightblue" d="M274.81,-180C290.62,-180 308.12,-180 324.6,-180"/>
<polygon fill="midnightblue" stroke="midnightblue" points="324.71,-183.5 334.71,-180 324.71,-176.5 324.71,-183.5"/>
</g>
<!-- Node5 -->
<g id="node5" class="node">
<title>Node5</title>
<g id="a_node5"><a xlink:href="classipc_1_1transport_1_1sync__io_1_1Native__socket__stream.html#a8e3703d5c8bac62f828a372691249c85" target="_top" xlink:title="Helper that simply returns m_impl while guaranteeing that m_impl is non&#45;null upon return.">
<polygon fill="white" stroke="black" points="318,-113 318,-139 464,-139 464,-113 318,-113"/>
<text text-anchor="start" x="326" y="-128.6" font-family="Helvetica,sans-Serif" font-size="8.00">ipc::transport::sync</text>
<text text-anchor="middle" x="391" y="-119.6" font-family="Helvetica,sans-Serif" font-size="8.00">_io::Native_socket_stream::impl</text>
</a>
</g>
</g>
<!-- Node4&#45;&gt;Node5 -->
<g id="edge4" class="edge">
<title>Node4&#45;&gt;Node5</title>
<path fill="none" stroke="midnightblue" d="M282.33,-126C290.6,-126 299.19,-126 307.76,-126"/>
<polygon fill="midnightblue" stroke="midnightblue" points="307.78,-129.5 317.78,-126 307.78,-122.5 307.78,-129.5"/>
</g>
</g>
</svg>
