<?xml version="1.0" encoding="UTF-8" standalone="no"?>
<!DOCTYPE svg PUBLIC "-//W3C//DTD SVG 1.1//EN"
 "http://www.w3.org/Graphics/SVG/1.1/DTD/svg11.dtd">
<!-- Generated by graphviz version 2.43.0 (0)
 -->
<!-- Title: ipc::shm::classic::Pool_arena::is_obj_in_arena Pages: 1 -->
<svg width="299pt" height="35pt"
 viewBox="0.00 0.00 299.00 35.00" xmlns="http://www.w3.org/2000/svg" xmlns:xlink="http://www.w3.org/1999/xlink">
<g id="graph0" class="graph" transform="scale(1 1) rotate(0) translate(4 31)">
<title>ipc::shm::classic::Pool_arena::is_obj_in_arena</title>
<polygon fill="white" stroke="transparent" points="-4,4 -4,-31 295,-31 295,4 -4,4"/>
<!-- Node1 -->
<g id="node1" class="node">
<title>Node1</title>
<g id="a_node1"><a xlink:title="Returns true if and only if all sizeof(T) bytes at address obj are within the bounds of the pool acce...">
<polygon fill="#bfbfbf" stroke="black" points="161,-0.5 161,-26.5 291,-26.5 291,-0.5 161,-0.5"/>
<text text-anchor="start" x="169" y="-16.1" font-family="Helvetica,sans-Serif" font-size="8.00">ipc::shm::classic::</text>
<text text-anchor="middle" x="226" y="-7.1" font-family="Helvetica,sans-Serif" font-size="8.00">Pool_arena::is_obj_in_arena</text>
</a>
</g>
</g>
<!-- Node2 -->
<g id="node2" class="node">
<title>Node2</title>
<g id="a_node2"><a xlink:href="classipc_1_1shm_1_1classic_1_1Pool__arena.html#ad2f2b767d7da42e7e57592cc029386e5" target="_top" xlink:title="Completes the cross&#45;process operation begun by lend_object() that returned serialization; to be invok...">
<polygon fill="white" stroke="black" points="0,-0.5 0,-26.5 125,-26.5 125,-0.5 0,-0.5"/>
<text text-anchor="start" x="8" y="-16.1" font-family="Helvetica,sans-Serif" font-size="8.00">ipc::shm::classic::</text>
<text text-anchor="middle" x="62.5" y="-7.1" font-family="Helvetica,sans-Serif" font-size="8.00">Pool_arena::borrow_object</text>
</a>
</g>
</g>
<!-- Node1&#45;&gt;Node2 -->
<g id="edge1" class="edge">
<title>Node1&#45;&gt;Node2</title>
<path fill="none" stroke="midnightblue" d="M150.47,-13.5C142.01,-13.5 133.47,-13.5 125.21,-13.5"/>
<polygon fill="midnightblue" stroke="midnightblue" points="150.71,-17 160.71,-13.5 150.71,-10 150.71,-17"/>
</g>
</g>
</svg>
