<?xml version="1.0" encoding="UTF-8" standalone="no"?>
<!DOCTYPE svg PUBLIC "-//W3C//DTD SVG 1.1//EN"
 "http://www.w3.org/Graphics/SVG/1.1/DTD/svg11.dtd">
<!-- Generated by graphviz version 2.43.0 (0)
 -->
<!-- Title: ipc::session::shm::arena_lend::jemalloc::Session_server&lt; S_MQ_TYPE_OR_NONE, S_TRANSMIT_NATIVE_HANDLES, Mdt_payload &gt; Pages: 1 -->
<svg width="1157pt" height="579pt"
 viewBox="0.00 0.00 1157.00 579.00" xmlns="http://www.w3.org/2000/svg" xmlns:xlink="http://www.w3.org/1999/xlink">
<g id="graph0" class="graph" transform="scale(1 1) rotate(0) translate(4 575)">
<title>ipc::session::shm::arena_lend::jemalloc::Session_server&lt; S_MQ_TYPE_OR_NONE, S_TRANSMIT_NATIVE_HANDLES, Mdt_payload &gt;</title>
<polygon fill="white" stroke="transparent" points="-4,4 -4,-575 1153,-575 1153,4 -4,4"/>
<!-- Node1 -->
<g id="node1" class="node">
<title>Node1</title>
<g id="a_node1"><a xlink:title="This is to vanilla Session_server what shm::arena_lend::jemalloc::Server_session is to vanilla Server...">
<polygon fill="#bfbfbf" stroke="black" points="993,-118.5 993,-171.5 1149,-171.5 1149,-118.5 993,-118.5"/>
<text text-anchor="start" x="1001" y="-161.1" font-family="Helvetica,sans-Serif" font-size="8.00">ipc::session::shm::</text>
<text text-anchor="start" x="1001" y="-152.1" font-family="Helvetica,sans-Serif" font-size="8.00">arena_lend::jemalloc</text>
<text text-anchor="start" x="1001" y="-143.1" font-family="Helvetica,sans-Serif" font-size="8.00">::Session_server&lt; S_MQ</text>
<text text-anchor="start" x="1001" y="-134.1" font-family="Helvetica,sans-Serif" font-size="8.00">_TYPE_OR_NONE, S_TRANSMIT</text>
<text text-anchor="middle" x="1071" y="-125.1" font-family="Helvetica,sans-Serif" font-size="8.00">_NATIVE_HANDLES, Mdt_payload &gt;</text>
</a>
</g>
</g>
<!-- Node2 -->
<g id="node2" class="node">
<title>Node2</title>
<g id="a_node2"><a xlink:href="classipc_1_1session_1_1Session__server__impl.html" target="_top" xlink:title=" ">
<polygon fill="white" stroke="black" points="696,-315 696,-395 842,-395 842,-315 696,-315"/>
<text text-anchor="start" x="704" y="-384.6" font-family="Helvetica,sans-Serif" font-size="8.00">ipc::session::Session</text>
<text text-anchor="start" x="704" y="-375.6" font-family="Helvetica,sans-Serif" font-size="8.00">_server_impl&lt; Session</text>
<text text-anchor="start" x="704" y="-366.6" font-family="Helvetica,sans-Serif" font-size="8.00">_server&lt; S_MQ_TYPE_OR</text>
<text text-anchor="start" x="704" y="-357.6" font-family="Helvetica,sans-Serif" font-size="8.00">_NONE, S_TRANSMIT_NATIVE</text>
<text text-anchor="start" x="704" y="-348.6" font-family="Helvetica,sans-Serif" font-size="8.00">_HANDLES, Mdt_payload &gt;,</text>
<text text-anchor="start" x="704" y="-339.6" font-family="Helvetica,sans-Serif" font-size="8.00"> Server_session&lt; S_MQ_TYPE</text>
<text text-anchor="start" x="704" y="-330.6" font-family="Helvetica,sans-Serif" font-size="8.00">_OR_NONE, S_TRANSMIT_NATIVE</text>
<text text-anchor="middle" x="769" y="-321.6" font-family="Helvetica,sans-Serif" font-size="8.00">_HANDLES, Mdt_payload &gt; &gt;</text>
</a>
</g>
</g>
<!-- Node2&#45;&gt;Node1 -->
<g id="edge1" class="edge">
<title>Node2&#45;&gt;Node1</title>
<path fill="none" stroke="#8b1a1a" d="M835.77,-308.96C895.78,-266.96 982.39,-206.33 1031.74,-171.78"/>
<polygon fill="#8b1a1a" stroke="#8b1a1a" points="833.67,-306.16 827.49,-314.76 837.69,-311.89 833.67,-306.16"/>
</g>
<!-- Node3 -->
<g id="node3" class="node">
<title>Node3</title>
<g id="a_node3"><a xlink:title=" ">
<polygon fill="white" stroke="#bfbfbf" points="438,-418.5 438,-435.5 545,-435.5 545,-418.5 438,-418.5"/>
<text text-anchor="middle" x="491.5" y="-425.1" font-family="Helvetica,sans-Serif" font-size="8.00">flow::log::Log_context</text>
</a>
</g>
</g>
<!-- Node3&#45;&gt;Node2 -->
<g id="edge2" class="edge">
<title>Node3&#45;&gt;Node2</title>
<path fill="none" stroke="midnightblue" d="M552.59,-416.64C589.17,-409.78 636.65,-399.86 678,-388 683.76,-386.35 689.68,-384.51 695.6,-382.57"/>
<polygon fill="midnightblue" stroke="midnightblue" points="551.78,-413.23 542.58,-418.5 553.05,-420.12 551.78,-413.23"/>
</g>
<!-- Node4 -->
<g id="node4" class="node">
<title>Node4</title>
<g id="a_node4"><a xlink:title=" ">
<polygon fill="white" stroke="#bfbfbf" points="442,-382.5 442,-399.5 541,-399.5 541,-382.5 442,-382.5"/>
<text text-anchor="middle" x="491.5" y="-389.1" font-family="Helvetica,sans-Serif" font-size="8.00">boost::noncopyable</text>
</a>
</g>
</g>
<!-- Node4&#45;&gt;Node2 -->
<g id="edge3" class="edge">
<title>Node4&#45;&gt;Node2</title>
<path fill="none" stroke="#8b1a1a" d="M551.33,-384.01C587.83,-379.6 635.67,-373.68 678,-368 683.79,-367.22 689.79,-366.4 695.81,-365.56"/>
<polygon fill="#8b1a1a" stroke="#8b1a1a" points="550.86,-380.54 541.36,-385.21 551.7,-387.49 550.86,-380.54"/>
</g>
<!-- Node5 -->
<g id="node5" class="node">
<title>Node5</title>
<g id="a_node5"><a xlink:href="structipc_1_1session_1_1Server__app.html" target="_top" xlink:title="An App that is used as a server in at least one client&#45;server IPC split.">
<polygon fill="white" stroke="black" points="432.5,-508.5 432.5,-525.5 550.5,-525.5 550.5,-508.5 432.5,-508.5"/>
<text text-anchor="middle" x="491.5" y="-515.1" font-family="Helvetica,sans-Serif" font-size="8.00">ipc::session::Server_app</text>
</a>
</g>
</g>
<!-- Node5&#45;&gt;Node1 -->
<g id="edge18" class="edge">
<title>Node5&#45;&gt;Node1</title>
<path fill="none" stroke="#9a32cd" stroke-dasharray="5,2" d="M560.93,-519.29C596.58,-518.64 640.45,-514.9 678,-503 860.96,-445 1005.66,-244.46 1053.27,-171.67"/>
<polygon fill="#9a32cd" stroke="#9a32cd" points="560.59,-515.8 550.63,-519.4 560.66,-522.8 560.59,-515.8"/>
<text text-anchor="middle" x="769" y="-497.6" font-family="Helvetica,sans-Serif" font-size="8.00"> m_srv_app_ref</text>
</g>
<!-- Node5&#45;&gt;Node2 -->
<g id="edge4" class="edge">
<title>Node5&#45;&gt;Node2</title>
<path fill="none" stroke="#9a32cd" stroke-dasharray="5,2" d="M531.84,-505.57C544.64,-501.86 558.92,-497.74 572,-494 619.07,-480.53 637,-490.76 678,-464 704.92,-446.43 727.86,-418.3 743.84,-395.02"/>
<polygon fill="#9a32cd" stroke="#9a32cd" points="530.57,-502.29 521.94,-508.44 532.52,-509.02 530.57,-502.29"/>
<text text-anchor="middle" x="625" y="-496.6" font-family="Helvetica,sans-Serif" font-size="8.00"> m_srv_app_ref</text>
</g>
<!-- Node6 -->
<g id="node6" class="node">
<title>Node6</title>
<g id="a_node6"><a xlink:href="structipc_1_1session_1_1App.html" target="_top" xlink:title="A description of an application in this ipc::session inter&#45;process communication universe.">
<polygon fill="white" stroke="black" points="197,-458.5 197,-475.5 285,-475.5 285,-458.5 197,-458.5"/>
<text text-anchor="middle" x="241" y="-465.1" font-family="Helvetica,sans-Serif" font-size="8.00">ipc::session::App</text>
</a>
</g>
</g>
<!-- Node6&#45;&gt;Node5 -->
<g id="edge5" class="edge">
<title>Node6&#45;&gt;Node5</title>
<path fill="none" stroke="midnightblue" d="M294.46,-477.56C340.23,-486.76 405.77,-499.95 448.24,-508.5"/>
<polygon fill="midnightblue" stroke="midnightblue" points="294.93,-474.08 284.44,-475.54 293.55,-480.94 294.93,-474.08"/>
</g>
<!-- Node7 -->
<g id="node7" class="node">
<title>Node7</title>
<g id="a_node7"><a xlink:title=" ">
<polygon fill="white" stroke="red" points="12.5,-368.5 12.5,-385.5 71.5,-385.5 71.5,-368.5 12.5,-368.5"/>
<text text-anchor="middle" x="42" y="-375.1" font-family="Helvetica,sans-Serif" font-size="8.00">std::string</text>
</a>
</g>
</g>
<!-- Node7&#45;&gt;Node6 -->
<g id="edge6" class="edge">
<title>Node7&#45;&gt;Node6</title>
<path fill="none" stroke="#9a32cd" stroke-dasharray="5,2" d="M81.72,-383.74C108.2,-389.89 142.91,-401.16 168,-421 179.61,-430.17 174.32,-439.92 186,-449 191.07,-452.94 197.05,-456.04 203.15,-458.47"/>
<polygon fill="#9a32cd" stroke="#9a32cd" points="82.17,-380.25 71.65,-381.55 80.68,-387.09 82.17,-380.25"/>
<text text-anchor="middle" x="135" y="-423.6" font-family="Helvetica,sans-Serif" font-size="8.00"> m_name</text>
</g>
<!-- Node19 -->
<g id="node18" class="node">
<title>Node19</title>
<g id="a_node18"><a xlink:href="classipc_1_1util_1_1Shared__name.html" target="_top" xlink:title="String&#45;wrapping abstraction representing a name uniquely distinguishing a kernel&#45;persistent entity fr...">
<polygon fill="white" stroke="black" points="186,-194.5 186,-211.5 296,-211.5 296,-194.5 186,-194.5"/>
<text text-anchor="middle" x="241" y="-201.1" font-family="Helvetica,sans-Serif" font-size="8.00">ipc::util::Shared_name</text>
</a>
</g>
</g>
<!-- Node7&#45;&gt;Node19 -->
<g id="edge23" class="edge">
<title>Node7&#45;&gt;Node19</title>
<path fill="none" stroke="#9a32cd" stroke-dasharray="5,2" d="M60.42,-361.61C100.61,-326.11 198.78,-239.41 230.17,-211.68"/>
<polygon fill="#9a32cd" stroke="#9a32cd" points="57.95,-359.13 52.77,-368.37 62.58,-364.37 57.95,-359.13"/>
<text text-anchor="middle" x="135" y="-322.6" font-family="Helvetica,sans-Serif" font-size="8.00"> m_raw_name</text>
</g>
<!-- Node9 -->
<g id="node8" class="node">
<title>Node9</title>
<g id="a_node8"><a xlink:title=" ">
<polygon fill="white" stroke="#bfbfbf" points="24.5,-498.5 24.5,-515.5 59.5,-515.5 59.5,-498.5 24.5,-498.5"/>
<text text-anchor="middle" x="42" y="-505.1" font-family="Helvetica,sans-Serif" font-size="8.00">path</text>
</a>
</g>
</g>
<!-- Node9&#45;&gt;Node5 -->
<g id="edge11" class="edge">
<title>Node9&#45;&gt;Node5</title>
<path fill="none" stroke="#9a32cd" stroke-dasharray="5,2" d="M70.05,-507.6C141.13,-509.19 334.43,-513.51 432.2,-515.7"/>
<polygon fill="#9a32cd" stroke="#9a32cd" points="69.8,-504.1 59.73,-507.37 69.65,-511.1 69.8,-504.1"/>
<text text-anchor="start" x="198.5" y="-523.6" font-family="Helvetica,sans-Serif" font-size="8.00"> m_kernel_persistent</text>
<text text-anchor="middle" x="241" y="-514.6" font-family="Helvetica,sans-Serif" font-size="8.00">_run_dir_override</text>
</g>
<!-- Node9&#45;&gt;Node6 -->
<g id="edge7" class="edge">
<title>Node9&#45;&gt;Node6</title>
<path fill="none" stroke="#9a32cd" stroke-dasharray="5,2" d="M69.43,-501.04C79.6,-498.78 91.33,-496.22 102,-494 133.67,-487.41 169.52,-480.41 196.75,-475.19"/>
<polygon fill="#9a32cd" stroke="#9a32cd" points="68.5,-497.66 59.51,-503.25 70.03,-504.49 68.5,-497.66"/>
<text text-anchor="middle" x="135" y="-496.6" font-family="Helvetica,sans-Serif" font-size="8.00"> m_exec_path</text>
</g>
<!-- Node10 -->
<g id="node9" class="node">
<title>Node10</title>
<g id="a_node9"><a xlink:title=" ">
<polygon fill="white" stroke="#bfbfbf" points="24,-416.5 24,-433.5 60,-433.5 60,-416.5 24,-416.5"/>
<text text-anchor="middle" x="42" y="-423.1" font-family="Helvetica,sans-Serif" font-size="8.00">uid_t</text>
</a>
</g>
</g>
<!-- Node10&#45;&gt;Node6 -->
<g id="edge8" class="edge">
<title>Node10&#45;&gt;Node6</title>
<path fill="none" stroke="#9a32cd" stroke-dasharray="5,2" d="M70.09,-428.99C95.52,-432.92 134.53,-439.42 168,-447 182.55,-450.29 198.56,-454.66 211.78,-458.48"/>
<polygon fill="#9a32cd" stroke="#9a32cd" points="70.5,-425.52 60.09,-427.47 69.45,-432.44 70.5,-425.52"/>
<text text-anchor="middle" x="135" y="-449.6" font-family="Helvetica,sans-Serif" font-size="8.00"> m_user_id</text>
</g>
<!-- Node11 -->
<g id="node10" class="node">
<title>Node11</title>
<g id="a_node10"><a xlink:title=" ">
<polygon fill="white" stroke="#bfbfbf" points="24,-452.5 24,-469.5 60,-469.5 60,-452.5 24,-452.5"/>
<text text-anchor="middle" x="42" y="-459.1" font-family="Helvetica,sans-Serif" font-size="8.00">gid_t</text>
</a>
</g>
</g>
<!-- Node11&#45;&gt;Node6 -->
<g id="edge9" class="edge">
<title>Node11&#45;&gt;Node6</title>
<path fill="none" stroke="#9a32cd" stroke-dasharray="5,2" d="M70.72,-460.73C96.06,-460.61 134.56,-460.71 168,-462 177.27,-462.36 187.19,-462.93 196.62,-463.56"/>
<polygon fill="#9a32cd" stroke="#9a32cd" points="70.38,-457.24 60.4,-460.8 70.42,-464.24 70.38,-457.24"/>
<text text-anchor="middle" x="135" y="-464.6" font-family="Helvetica,sans-Serif" font-size="8.00"> m_group_id</text>
</g>
<!-- Node12 -->
<g id="node11" class="node">
<title>Node12</title>
<g id="a_node11"><a xlink:title=" ">
<polygon fill="white" stroke="#bfbfbf" points="192,-413 192,-439 290,-439 290,-413 192,-413"/>
<text text-anchor="start" x="200" y="-428.6" font-family="Helvetica,sans-Serif" font-size="8.00">unordered_set&lt; std</text>
<text text-anchor="middle" x="241" y="-419.6" font-family="Helvetica,sans-Serif" font-size="8.00">::string &gt;</text>
</a>
</g>
</g>
<!-- Node12&#45;&gt;Node5 -->
<g id="edge10" class="edge">
<title>Node12&#45;&gt;Node5</title>
<path fill="none" stroke="#9a32cd" stroke-dasharray="5,2" d="M300.47,-429.2C335.48,-433.69 379.21,-444.12 411,-468 423.74,-477.57 416.46,-489.17 429,-499 434.08,-502.98 440.01,-506.08 446.15,-508.5"/>
<polygon fill="#9a32cd" stroke="#9a32cd" points="300.71,-425.7 290.37,-428.03 299.9,-432.66 300.71,-425.7"/>
<text text-anchor="middle" x="362.5" y="-470.6" font-family="Helvetica,sans-Serif" font-size="8.00"> m_allowed_client_apps</text>
</g>
<!-- Node13 -->
<g id="node12" class="node">
<title>Node13</title>
<g id="a_node12"><a xlink:title=" ">
<polygon fill="white" stroke="#bfbfbf" points="196.5,-553.5 196.5,-570.5 285.5,-570.5 285.5,-553.5 196.5,-553.5"/>
<text text-anchor="middle" x="241" y="-560.1" font-family="Helvetica,sans-Serif" font-size="8.00">Permissions_level</text>
</a>
</g>
</g>
<!-- Node13&#45;&gt;Node5 -->
<g id="edge12" class="edge">
<title>Node13&#45;&gt;Node5</title>
<path fill="none" stroke="#9a32cd" stroke-dasharray="5,2" d="M295.49,-552.31C339.41,-544.36 401.02,-533.2 443.17,-525.57"/>
<polygon fill="#9a32cd" stroke="#9a32cd" points="294.79,-548.88 285.57,-554.11 296.03,-555.77 294.79,-548.88"/>
<text text-anchor="start" x="319" y="-559.6" font-family="Helvetica,sans-Serif" font-size="8.00"> m_permissions_level</text>
<text text-anchor="middle" x="362.5" y="-550.6" font-family="Helvetica,sans-Serif" font-size="8.00">_for_client_apps</text>
</g>
<!-- Node14 -->
<g id="node13" class="node">
<title>Node14</title>
<g id="a_node13"><a xlink:title=" ">
<polygon fill="white" stroke="#bfbfbf" points="444,-301 444,-327 539,-327 539,-301 444,-301"/>
<text text-anchor="start" x="452" y="-316.6" font-family="Helvetica,sans-Serif" font-size="8.00">Session_server_obj</text>
<text text-anchor="middle" x="491.5" y="-307.6" font-family="Helvetica,sans-Serif" font-size="8.00"> *const</text>
</a>
</g>
</g>
<!-- Node14&#45;&gt;Node2 -->
<g id="edge13" class="edge">
<title>Node14&#45;&gt;Node2</title>
<path fill="none" stroke="#9a32cd" stroke-dasharray="5,2" d="M549.13,-322.43C591.6,-328.75 650.05,-337.45 695.87,-344.27"/>
<polygon fill="#9a32cd" stroke="#9a32cd" points="549.64,-318.97 539.23,-320.96 548.61,-325.89 549.64,-318.97"/>
<text text-anchor="middle" x="625" y="-342.6" font-family="Helvetica,sans-Serif" font-size="8.00"> m_this_session_srv</text>
</g>
<!-- Node15 -->
<g id="node14" class="node">
<title>Node15</title>
<g id="a_node14"><a xlink:title=" ">
<polygon fill="white" stroke="#bfbfbf" points="457,-264.5 457,-281.5 526,-281.5 526,-264.5 457,-264.5"/>
<text text-anchor="middle" x="491.5" y="-271.1" font-family="Helvetica,sans-Serif" font-size="8.00">Master_set &amp;</text>
</a>
</g>
</g>
<!-- Node15&#45;&gt;Node2 -->
<g id="edge14" class="edge">
<title>Node15&#45;&gt;Node2</title>
<path fill="none" stroke="#9a32cd" stroke-dasharray="5,2" d="M536.51,-279.63C574.58,-286.03 630.76,-297.11 678,-313 683.88,-314.98 689.89,-317.23 695.87,-319.64"/>
<polygon fill="#9a32cd" stroke="#9a32cd" points="536.72,-276.11 526.28,-277.94 535.58,-283.02 536.72,-276.11"/>
<text text-anchor="middle" x="625" y="-315.6" font-family="Helvetica,sans-Serif" font-size="8.00"> m_cli_app_master_set_ref</text>
</g>
<!-- Node16 -->
<g id="node15" class="node">
<title>Node16</title>
<g id="a_node15"><a xlink:title=" ">
<polygon fill="white" stroke="#bfbfbf" points="429,-210.5 429,-245.5 554,-245.5 554,-210.5 429,-210.5"/>
<text text-anchor="start" x="437" y="-235.1" font-family="Helvetica,sans-Serif" font-size="8.00">const Function&lt; Error</text>
<text text-anchor="start" x="437" y="-226.1" font-family="Helvetica,sans-Serif" font-size="8.00">_code(const ipc::session</text>
<text text-anchor="middle" x="491.5" y="-217.1" font-family="Helvetica,sans-Serif" font-size="8.00">::Client_app &amp;client_app)&gt;</text>
</a>
</g>
</g>
<!-- Node16&#45;&gt;Node2 -->
<g id="edge15" class="edge">
<title>Node16&#45;&gt;Node2</title>
<path fill="none" stroke="#9a32cd" stroke-dasharray="5,2" d="M564.02,-236.77C599.79,-243.25 642.83,-254.31 678,-273 697.97,-283.61 716.97,-299.68 732.32,-314.79"/>
<polygon fill="#9a32cd" stroke="#9a32cd" points="564.59,-233.32 554.14,-235.07 563.4,-240.22 564.59,-233.32"/>
<text text-anchor="middle" x="625" y="-275.6" font-family="Helvetica,sans-Serif" font-size="8.00"> m_per_app_setup_func</text>
</g>
<!-- Node17 -->
<g id="node16" class="node">
<title>Node17</title>
<g id="a_node16"><a xlink:title=" ">
<polygon fill="white" stroke="#bfbfbf" points="437,-454.5 437,-489.5 546,-489.5 546,-454.5 437,-454.5"/>
<text text-anchor="start" x="445" y="-479.1" font-family="Helvetica,sans-Serif" font-size="8.00">optional&lt; ipc::session</text>
<text text-anchor="start" x="445" y="-470.1" font-family="Helvetica,sans-Serif" font-size="8.00">::Session_server_impl</text>
<text text-anchor="middle" x="491.5" y="-461.1" font-family="Helvetica,sans-Serif" font-size="8.00">::State &gt;</text>
</a>
</g>
</g>
<!-- Node17&#45;&gt;Node2 -->
<g id="edge16" class="edge">
<title>Node17&#45;&gt;Node2</title>
<path fill="none" stroke="#9a32cd" stroke-dasharray="5,2" d="M556.38,-456.73C592.93,-446.85 639.1,-432.39 678,-414 689.32,-408.65 700.87,-402.06 711.77,-395.24"/>
<polygon fill="#9a32cd" stroke="#9a32cd" points="555.11,-453.45 546.35,-459.4 556.91,-460.21 555.11,-453.45"/>
<text text-anchor="middle" x="625" y="-453.6" font-family="Helvetica,sans-Serif" font-size="8.00"> m_state</text>
</g>
<!-- Node18 -->
<g id="node17" class="node">
<title>Node18</title>
<g id="a_node17"><a xlink:href="classFunction_3_01void_07_08_4.html" target="_top" xlink:title=" ">
<polygon fill="white" stroke="#bfbfbf" points="446,-346.5 446,-363.5 537,-363.5 537,-346.5 446,-346.5"/>
<text text-anchor="middle" x="491.5" y="-353.1" font-family="Helvetica,sans-Serif" font-size="8.00">Function&lt; void()&gt;</text>
</a>
</g>
</g>
<!-- Node18&#45;&gt;Node2 -->
<g id="edge17" class="edge">
<title>Node18&#45;&gt;Node2</title>
<path fill="none" stroke="#9a32cd" stroke-dasharray="5,2" d="M547.24,-355C589.84,-355 649.31,-355 695.8,-355"/>
<polygon fill="#9a32cd" stroke="#9a32cd" points="547.07,-351.5 537.07,-355 547.07,-358.5 547.07,-351.5"/>
<text text-anchor="middle" x="625" y="-357.6" font-family="Helvetica,sans-Serif" font-size="8.00"> m_deinit_func_or_empty</text>
</g>
<!-- Node19&#45;&gt;Node1 -->
<g id="edge19" class="edge">
<title>Node19&#45;&gt;Node1</title>
<path fill="none" stroke="#9a32cd" stroke-dasharray="5,2" d="M306.37,-200.67C434.1,-195.68 728.56,-182.39 975,-158 980.8,-157.43 986.79,-156.77 992.8,-156.05"/>
<polygon fill="#9a32cd" stroke="#9a32cd" points="306.22,-197.17 296.36,-201.05 306.49,-204.16 306.22,-197.17"/>
<text text-anchor="middle" x="625" y="-189.6" font-family="Helvetica,sans-Serif" font-size="8.00"> m_srv_namespace</text>
</g>
<!-- Node19&#45;&gt;Node19 -->
<g id="edge20" class="edge">
<title>Node19&#45;&gt;Node19</title>
<path fill="none" stroke="#9a32cd" stroke-dasharray="5,2" d="M221.19,-220.86C221.93,-226.02 228.53,-230 241,-230 260.46,-230 265.63,-220.29 256.51,-211.57"/>
<polygon fill="#9a32cd" stroke="#9a32cd" points="224.47,-222.12 225.49,-211.57 218.12,-219.18 224.47,-222.12"/>
<text text-anchor="middle" x="241" y="-295.6" font-family="Helvetica,sans-Serif" font-size="8.00"> S_1ST_OR_ONLY</text>
<text text-anchor="middle" x="241" y="-286.6" font-family="Helvetica,sans-Serif" font-size="8.00">S_EMPTY</text>
<text text-anchor="start" x="202.5" y="-277.6" font-family="Helvetica,sans-Serif" font-size="8.00">S_RESOURCE_TYPE</text>
<text text-anchor="middle" x="241" y="-268.6" font-family="Helvetica,sans-Serif" font-size="8.00">_ID_MUTEX</text>
<text text-anchor="start" x="202.5" y="-259.6" font-family="Helvetica,sans-Serif" font-size="8.00">S_RESOURCE_TYPE</text>
<text text-anchor="middle" x="241" y="-250.6" font-family="Helvetica,sans-Serif" font-size="8.00">_ID_SHM</text>
<text text-anchor="middle" x="241" y="-241.6" font-family="Helvetica,sans-Serif" font-size="8.00">S_ROOT_MAGIC</text>
<text text-anchor="middle" x="241" y="-232.6" font-family="Helvetica,sans-Serif" font-size="8.00">S_SENTINEL</text>
</g>
<!-- Node20 -->
<g id="node19" class="node">
<title>Node20</title>
<g id="a_node19"><a xlink:title=" ">
<polygon fill="white" stroke="#bfbfbf" points="22,-191.5 22,-208.5 62,-208.5 62,-191.5 22,-191.5"/>
<text text-anchor="middle" x="42" y="-198.1" font-family="Helvetica,sans-Serif" font-size="8.00">size_t</text>
</a>
</g>
</g>
<!-- Node20&#45;&gt;Node19 -->
<g id="edge21" class="edge">
<title>Node20&#45;&gt;Node19</title>
<path fill="none" stroke="#9a32cd" stroke-dasharray="5,2" d="M72.43,-200.45C102.3,-200.9 149.22,-201.62 185.83,-202.18"/>
<polygon fill="#9a32cd" stroke="#9a32cd" points="72.3,-196.95 62.25,-200.29 72.19,-203.95 72.3,-196.95"/>
<text text-anchor="middle" x="135" y="-203.6" font-family="Helvetica,sans-Serif" font-size="8.00"> S_MAX_LENGTH</text>
</g>
<!-- Node21 -->
<g id="node20" class="node">
<title>Node21</title>
<g id="a_node20"><a xlink:title=" ">
<polygon fill="white" stroke="#bfbfbf" points="0,-227.5 0,-244.5 84,-244.5 84,-227.5 0,-227.5"/>
<text text-anchor="middle" x="42" y="-234.1" font-family="Helvetica,sans-Serif" font-size="8.00">static const char</text>
</a>
</g>
</g>
<!-- Node21&#45;&gt;Node19 -->
<g id="edge22" class="edge">
<title>Node21&#45;&gt;Node19</title>
<path fill="none" stroke="#9a32cd" stroke-dasharray="5,2" d="M94.29,-227.41C123.44,-222.53 159.83,-216.43 188.95,-211.55"/>
<polygon fill="#9a32cd" stroke="#9a32cd" points="93.58,-223.98 84.3,-229.08 94.74,-230.88 93.58,-223.98"/>
<text text-anchor="middle" x="135" y="-227.6" font-family="Helvetica,sans-Serif" font-size="8.00"> S_SEPARATOR</text>
</g>
<!-- Node22 -->
<g id="node21" class="node">
<title>Node22</title>
<g id="a_node21"><a xlink:title=" ">
<polygon fill="white" stroke="#bfbfbf" points="718.5,-136.5 718.5,-153.5 819.5,-153.5 819.5,-136.5 718.5,-136.5"/>
<text text-anchor="middle" x="769" y="-143.1" font-family="Helvetica,sans-Serif" font-size="8.00">Mutex_non_recursive</text>
</a>
</g>
</g>
<!-- Node22&#45;&gt;Node1 -->
<g id="edge24" class="edge">
<title>Node22&#45;&gt;Node1</title>
<path fill="none" stroke="#9a32cd" stroke-dasharray="5,2" d="M829.82,-145C876.61,-145 942.03,-145 992.77,-145"/>
<polygon fill="#9a32cd" stroke="#9a32cd" points="829.54,-141.5 819.54,-145 829.54,-148.5 829.54,-141.5"/>
<text text-anchor="middle" x="917.5" y="-147.6" font-family="Helvetica,sans-Serif" font-size="8.00"> m_app_shm_mutex</text>
</g>
<!-- Node23 -->
<g id="node22" class="node">
<title>Node23</title>
<g id="a_node22"><a xlink:title=" ">
<polygon fill="white" stroke="#bfbfbf" points="709,-91 709,-117 829,-117 829,-91 709,-91"/>
<text text-anchor="start" x="717" y="-106.6" font-family="Helvetica,sans-Serif" font-size="8.00">Owner_shm_pool_listener</text>
<text text-anchor="middle" x="769" y="-97.6" font-family="Helvetica,sans-Serif" font-size="8.00">_for_repository</text>
</a>
</g>
</g>
<!-- Node23&#45;&gt;Node1 -->
<g id="edge25" class="edge">
<title>Node23&#45;&gt;Node1</title>
<path fill="none" stroke="#9a32cd" stroke-dasharray="5,2" d="M839.32,-113.46C879.04,-118.89 929.82,-125.82 975,-132 980.77,-132.79 986.74,-133.61 992.75,-134.43"/>
<polygon fill="#9a32cd" stroke="#9a32cd" points="839.59,-109.97 829.21,-112.08 838.64,-116.9 839.59,-109.97"/>
<text text-anchor="middle" x="917.5" y="-134.6" font-family="Helvetica,sans-Serif" font-size="8.00"> m_shm_arena_pool_listener</text>
</g>
<!-- Node24 -->
<g id="node23" class="node">
<title>Node24</title>
<g id="a_node23"><a xlink:title=" ">
<polygon fill="white" stroke="#bfbfbf" points="717.5,-36.5 717.5,-71.5 820.5,-71.5 820.5,-36.5 717.5,-36.5"/>
<text text-anchor="start" x="725.5" y="-61.1" font-family="Helvetica,sans-Serif" font-size="8.00">unordered_map&lt; std</text>
<text text-anchor="start" x="725.5" y="-52.1" font-family="Helvetica,sans-Serif" font-size="8.00">::string, std::shared</text>
<text text-anchor="middle" x="769" y="-43.1" font-family="Helvetica,sans-Serif" font-size="8.00">_ptr&lt; Arena &gt; &gt;</text>
</a>
</g>
</g>
<!-- Node24&#45;&gt;Node1 -->
<g id="edge26" class="edge">
<title>Node24&#45;&gt;Node1</title>
<path fill="none" stroke="#9a32cd" stroke-dasharray="5,2" d="M830.75,-65.49C871.98,-74.03 927.43,-86.95 975,-103 987.99,-107.38 1001.63,-112.86 1014.41,-118.41"/>
<polygon fill="#9a32cd" stroke="#9a32cd" points="831.35,-62.05 820.85,-63.47 829.95,-68.9 831.35,-62.05"/>
<text text-anchor="middle" x="917.5" y="-105.6" font-family="Helvetica,sans-Serif" font-size="8.00"> m_app_shm_by_name</text>
</g>
<!-- Node25 -->
<g id="node24" class="node">
<title>Node25</title>
<g id="a_node24"><a xlink:title=" ">
<polygon fill="white" stroke="#bfbfbf" points="711,-0.5 711,-17.5 827,-17.5 827,-0.5 711,-0.5"/>
<text text-anchor="middle" x="769" y="-7.1" font-family="Helvetica,sans-Serif" font-size="8.00">Single_thread_task_loop</text>
</a>
</g>
</g>
<!-- Node25&#45;&gt;Node1 -->
<g id="edge27" class="edge">
<title>Node25&#45;&gt;Node1</title>
<path fill="none" stroke="#9a32cd" stroke-dasharray="5,2" d="M837.09,-16.8C878.65,-23.66 932.09,-36.25 975,-59 1003.11,-73.9 1029.46,-98.99 1047.24,-118.23"/>
<polygon fill="#9a32cd" stroke="#9a32cd" points="837.49,-13.32 827.06,-15.22 836.4,-20.23 837.49,-13.32"/>
<text text-anchor="middle" x="917.5" y="-61.6" font-family="Helvetica,sans-Serif" font-size="8.00"> m_async_cleanup_worker</text>
</g>
</g>
</svg>
