<?xml version="1.0" encoding="UTF-8" standalone="no"?>
<!DOCTYPE svg PUBLIC "-//W3C//DTD SVG 1.1//EN"
 "http://www.w3.org/Graphics/SVG/1.1/DTD/svg11.dtd">
<!-- Generated by graphviz version 2.43.0 (0)
 -->
<!-- Title: ipc::shm::classic::Pool_arena::Pool_arena Pages: 1 -->
<svg width="276pt" height="98pt"
 viewBox="0.00 0.00 276.00 98.00" xmlns="http://www.w3.org/2000/svg" xmlns:xlink="http://www.w3.org/1999/xlink">
<g id="graph0" class="graph" transform="scale(1 1) rotate(0) translate(4 94)">
<title>ipc::shm::classic::Pool_arena::Pool_arena</title>
<polygon fill="white" stroke="transparent" points="-4,4 -4,-94 272,-94 272,4 -4,4"/>
<!-- Node1 -->
<g id="node1" class="node">
<title>Node1</title>
<g id="a_node1"><a xlink:title="Construct Pool_arena accessor object to existing named SHM pool.">
<polygon fill="#bfbfbf" stroke="black" points="0,-31.5 0,-57.5 113,-57.5 113,-31.5 0,-31.5"/>
<text text-anchor="start" x="8" y="-47.1" font-family="Helvetica,sans-Serif" font-size="8.00">ipc::shm::classic::</text>
<text text-anchor="middle" x="56.5" y="-38.1" font-family="Helvetica,sans-Serif" font-size="8.00">Pool_arena::Pool_arena</text>
</a>
</g>
</g>
<!-- Node2 -->
<g id="node2" class="node">
<title>Node2</title>
<g id="a_node2"><a xlink:href="classipc_1_1util_1_1Shared__name.html#a0bccc73c9c5b4f3b784a1e57cdc5c910" target="_top" xlink:title="Returns (sans copying) pointer to NUL&#45;terminated wrapped name string, suitable to pass into sys calls...">
<polygon fill="white" stroke="black" points="153.5,-63.5 153.5,-89.5 263.5,-89.5 263.5,-63.5 153.5,-63.5"/>
<text text-anchor="start" x="161.5" y="-79.1" font-family="Helvetica,sans-Serif" font-size="8.00">ipc::util::Shared_name</text>
<text text-anchor="middle" x="208.5" y="-70.1" font-family="Helvetica,sans-Serif" font-size="8.00">::native_str</text>
</a>
</g>
</g>
<!-- Node1&#45;&gt;Node2 -->
<g id="edge1" class="edge">
<title>Node1&#45;&gt;Node2</title>
<path fill="none" stroke="midnightblue" d="M113.35,-56.42C123.1,-58.49 133.31,-60.67 143.26,-62.79"/>
<polygon fill="midnightblue" stroke="midnightblue" points="142.58,-66.23 153.09,-64.89 144.05,-59.38 142.58,-66.23"/>
</g>
<!-- Node3 -->
<g id="node3" class="node">
<title>Node3</title>
<g id="a_node3"><a xlink:href="namespaceipc_1_1util.html#abd43da87aa17031604c7906757c07d46" target="_top" xlink:title="Internal (to ipc) utility that invokes the given function that invokes a boost.interprocess operation...">
<polygon fill="white" stroke="black" points="149,-0.5 149,-26.5 268,-26.5 268,-0.5 149,-0.5"/>
<text text-anchor="start" x="157" y="-16.1" font-family="Helvetica,sans-Serif" font-size="8.00">ipc::util::op_with</text>
<text text-anchor="middle" x="208.5" y="-7.1" font-family="Helvetica,sans-Serif" font-size="8.00">_possible_bipc_exception</text>
</a>
</g>
</g>
<!-- Node1&#45;&gt;Node3 -->
<g id="edge2" class="edge">
<title>Node1&#45;&gt;Node3</title>
<path fill="none" stroke="midnightblue" d="M113.35,-32.96C121.68,-31.24 130.33,-29.45 138.88,-27.68"/>
<polygon fill="midnightblue" stroke="midnightblue" points="139.75,-31.08 148.84,-25.62 138.34,-24.22 139.75,-31.08"/>
</g>
<!-- Node3&#45;&gt;Node3 -->
<g id="edge3" class="edge">
<title>Node3&#45;&gt;Node3</title>
<path fill="none" stroke="midnightblue" d="M182.78,-26.77C174.99,-35.96 183.56,-45 208.5,-45 223.7,-45 232.82,-41.64 235.86,-36.94"/>
<polygon fill="midnightblue" stroke="midnightblue" points="239.27,-36.09 234.22,-26.77 232.35,-37.2 239.27,-36.09"/>
</g>
</g>
</svg>
