<?xml version="1.0" encoding="UTF-8" standalone="no"?>
<!DOCTYPE svg PUBLIC "-//W3C//DTD SVG 1.1//EN"
 "http://www.w3.org/Graphics/SVG/1.1/DTD/svg11.dtd">
<!-- Generated by graphviz version 2.43.0 (0)
 -->
<!-- Title: ipc::transport::sync_io::Native_socket_stream::replace_event_wait_handles_fwd Pages: 1 -->
<svg width="501pt" height="44pt"
 viewBox="0.00 0.00 501.00 44.00" xmlns="http://www.w3.org/2000/svg" xmlns:xlink="http://www.w3.org/1999/xlink">
<g id="graph0" class="graph" transform="scale(1 1) rotate(0) translate(4 40)">
<title>ipc::transport::sync_io::Native_socket_stream::replace_event_wait_handles_fwd</title>
<polygon fill="white" stroke="transparent" points="-4,4 -4,-40 497,-40 497,4 -4,4"/>
<!-- Node1 -->
<g id="node1" class="node">
<title>Node1</title>
<g id="a_node1"><a xlink:title="Template&#45;free version of replace_event_wait_handles() as required by pImpl idiom.">
<polygon fill="#bfbfbf" stroke="black" points="336,-0.5 336,-35.5 493,-35.5 493,-0.5 336,-0.5"/>
<text text-anchor="start" x="344" y="-25.1" font-family="Helvetica,sans-Serif" font-size="8.00">ipc::transport::sync</text>
<text text-anchor="start" x="344" y="-16.1" font-family="Helvetica,sans-Serif" font-size="8.00">_io::Native_socket_stream</text>
<text text-anchor="middle" x="414.5" y="-7.1" font-family="Helvetica,sans-Serif" font-size="8.00">::replace_event_wait_handles_fwd</text>
</a>
</g>
</g>
<!-- Node2 -->
<g id="node2" class="node">
<title>Node2</title>
<g id="a_node2"><a xlink:href="classipc_1_1transport_1_1sync__io_1_1Native__socket__stream.html#af5e6e5ccf19782cb698017e9dcf85b34" target="_top" xlink:title="Implements Native_handle_sender and Native_handle_receiver APIs at the same time, per their concept c...">
<polygon fill="white" stroke="black" points="162,-0.5 162,-35.5 300,-35.5 300,-0.5 162,-0.5"/>
<text text-anchor="start" x="170" y="-25.1" font-family="Helvetica,sans-Serif" font-size="8.00">ipc::transport::sync</text>
<text text-anchor="start" x="170" y="-16.1" font-family="Helvetica,sans-Serif" font-size="8.00">_io::Native_socket_stream</text>
<text text-anchor="middle" x="231" y="-7.1" font-family="Helvetica,sans-Serif" font-size="8.00">::replace_event_wait_handles</text>
</a>
</g>
</g>
<!-- Node1&#45;&gt;Node2 -->
<g id="edge1" class="edge">
<title>Node1&#45;&gt;Node2</title>
<path fill="none" stroke="midnightblue" d="M325.7,-18C317.12,-18 308.5,-18 300.16,-18"/>
<polygon fill="midnightblue" stroke="midnightblue" points="325.74,-21.5 335.74,-18 325.74,-14.5 325.74,-21.5"/>
</g>
<!-- Node3 -->
<g id="node3" class="node">
<title>Node3</title>
<g id="a_node3"><a xlink:href="classipc_1_1transport_1_1Native__socket__stream_1_1Impl.html#ae6713aa742cee52ae9ca16156d1f8599" target="_top" xlink:title="Core delegated&#45;to ctor: does everything except m_sync_io.start_*_ops().">
<polygon fill="white" stroke="black" points="0,-5 0,-31 126,-31 126,-5 0,-5"/>
<text text-anchor="start" x="8" y="-20.6" font-family="Helvetica,sans-Serif" font-size="8.00">ipc::transport::Native</text>
<text text-anchor="middle" x="63" y="-11.6" font-family="Helvetica,sans-Serif" font-size="8.00">_socket_stream::Impl::Impl</text>
</a>
</g>
</g>
<!-- Node2&#45;&gt;Node3 -->
<g id="edge2" class="edge">
<title>Node2&#45;&gt;Node3</title>
<path fill="none" stroke="midnightblue" d="M151.3,-18C142.88,-18 134.4,-18 126.2,-18"/>
<polygon fill="midnightblue" stroke="midnightblue" points="151.52,-21.5 161.52,-18 151.52,-14.5 151.52,-21.5"/>
</g>
</g>
</svg>
