<?xml version="1.0" encoding="UTF-8" standalone="no"?>
<!DOCTYPE svg PUBLIC "-//W3C//DTD SVG 1.1//EN"
 "http://www.w3.org/Graphics/SVG/1.1/DTD/svg11.dtd">
<!-- Generated by graphviz version 2.43.0 (0)
 -->
<!-- Title: ipc::transport::sync_io::Native_socket_stream::start_connect_ops Pages: 1 -->
<svg width="293pt" height="44pt"
 viewBox="0.00 0.00 293.00 44.00" xmlns="http://www.w3.org/2000/svg" xmlns:xlink="http://www.w3.org/1999/xlink">
<g id="graph0" class="graph" transform="scale(1 1) rotate(0) translate(4 40)">
<title>ipc::transport::sync_io::Native_socket_stream::start_connect_ops</title>
<polygon fill="white" stroke="transparent" points="-4,4 -4,-40 289,-40 289,4 -4,4"/>
<!-- Node1 -->
<g id="node1" class="node">
<title>Node1</title>
<g id="a_node1"><a xlink:title="Sets up the sync_io&#45;pattern interaction between *this and the user&#39;s event loop; required before asyn...">
<polygon fill="#bfbfbf" stroke="black" points="162,-0.5 162,-35.5 285,-35.5 285,-0.5 162,-0.5"/>
<text text-anchor="start" x="170" y="-25.1" font-family="Helvetica,sans-Serif" font-size="8.00">ipc::transport::sync</text>
<text text-anchor="start" x="170" y="-16.1" font-family="Helvetica,sans-Serif" font-size="8.00">_io::Native_socket_stream</text>
<text text-anchor="middle" x="223.5" y="-7.1" font-family="Helvetica,sans-Serif" font-size="8.00">::start_connect_ops</text>
</a>
</g>
</g>
<!-- Node2 -->
<g id="node2" class="node">
<title>Node2</title>
<g id="a_node2"><a xlink:href="classipc_1_1transport_1_1Native__socket__stream_1_1Impl.html#ad7c2d6c843935c5413d3dd8fbc39d272" target="_top" xlink:title="See Native_socket_stream counterpart.">
<polygon fill="white" stroke="black" points="0,-5 0,-31 126,-31 126,-5 0,-5"/>
<text text-anchor="start" x="8" y="-20.6" font-family="Helvetica,sans-Serif" font-size="8.00">ipc::transport::Native</text>
<text text-anchor="middle" x="63" y="-11.6" font-family="Helvetica,sans-Serif" font-size="8.00">_socket_stream::Impl::Impl</text>
</a>
</g>
</g>
<!-- Node1&#45;&gt;Node2 -->
<g id="edge1" class="edge">
<title>Node1&#45;&gt;Node2</title>
<path fill="none" stroke="midnightblue" d="M151.49,-18C143.07,-18 134.52,-18 126.24,-18"/>
<polygon fill="midnightblue" stroke="midnightblue" points="151.67,-21.5 161.67,-18 151.67,-14.5 151.67,-21.5"/>
</g>
</g>
</svg>
