<?xml version="1.0" encoding="UTF-8" standalone="no"?>
<!DOCTYPE svg PUBLIC "-//W3C//DTD SVG 1.1//EN"
 "http://www.w3.org/Graphics/SVG/1.1/DTD/svg11.dtd">
<!-- Generated by graphviz version 2.43.0 (0)
 -->
<!-- Title: ipc::transport::struc::shm::Reader&lt; Shm_arena &gt; Pages: 1 -->
<svg width="851pt" height="297pt"
 viewBox="0.00 0.00 851.00 296.50" xmlns="http://www.w3.org/2000/svg" xmlns:xlink="http://www.w3.org/1999/xlink">
<g id="graph0" class="graph" transform="scale(1 1) rotate(0) translate(4 292.5)">
<title>ipc::transport::struc::shm::Reader&lt; Shm_arena &gt;</title>
<polygon fill="white" stroke="transparent" points="-4,4 -4,-292.5 847,-292.5 847,4 -4,4"/>
<!-- Node1 -->
<g id="node1" class="node">
<title>Node1</title>
<g id="a_node1"><a xlink:title="Implements Struct_reader concept by interpreting a serialization by shm::Builder with the same templa...">
<polygon fill="#bfbfbf" stroke="black" points="704,-148.5 704,-174.5 843,-174.5 843,-148.5 704,-148.5"/>
<text text-anchor="start" x="712" y="-164.1" font-family="Helvetica,sans-Serif" font-size="8.00">ipc::transport::struc</text>
<text text-anchor="middle" x="773.5" y="-155.1" font-family="Helvetica,sans-Serif" font-size="8.00">::shm::Reader&lt; Shm_arena &gt;</text>
</a>
</g>
</g>
<!-- Node2 -->
<g id="node2" class="node">
<title>Node2</title>
<g id="a_node2"><a xlink:title=" ">
<polygon fill="white" stroke="#bfbfbf" points="190.5,-226 190.5,-243 297.5,-243 297.5,-226 190.5,-226"/>
<text text-anchor="middle" x="244" y="-232.6" font-family="Helvetica,sans-Serif" font-size="8.00">flow::log::Log_context</text>
</a>
</g>
</g>
<!-- Node2&#45;&gt;Node1 -->
<g id="edge1" class="edge">
<title>Node2&#45;&gt;Node1</title>
<path fill="none" stroke="midnightblue" d="M307.73,-238.56C394.84,-242.23 556.33,-241.84 686,-200.5 707.5,-193.65 730.76,-182.96 747.74,-174.5"/>
<polygon fill="midnightblue" stroke="midnightblue" points="307.89,-235.07 297.74,-238.11 307.57,-242.06 307.89,-235.07"/>
</g>
<!-- Node5 -->
<g id="node5" class="node">
<title>Node5</title>
<g id="a_node5"><a xlink:href="classipc_1_1transport_1_1struc_1_1Heap__reader.html" target="_top" xlink:title="Implements Struct_reader concept by straightforwardly interpreting a serialization by Heap_fixed_buil...">
<polygon fill="white" stroke="black" points="467.5,-148.5 467.5,-174.5 565.5,-174.5 565.5,-148.5 467.5,-148.5"/>
<text text-anchor="start" x="475.5" y="-164.1" font-family="Helvetica,sans-Serif" font-size="8.00">ipc::transport::struc</text>
<text text-anchor="middle" x="516.5" y="-155.1" font-family="Helvetica,sans-Serif" font-size="8.00">::Heap_reader</text>
</a>
</g>
</g>
<!-- Node2&#45;&gt;Node5 -->
<g id="edge5" class="edge">
<title>Node2&#45;&gt;Node5</title>
<path fill="none" stroke="midnightblue" d="M296.49,-223.75C334.03,-215.56 385.98,-203.52 431,-190.5 433.48,-189.78 456.19,-181.98 477.44,-174.65"/>
<polygon fill="midnightblue" stroke="midnightblue" points="295.34,-220.41 286.31,-225.95 296.82,-227.26 295.34,-220.41"/>
</g>
<!-- Node3 -->
<g id="node3" class="node">
<title>Node3</title>
<g id="a_node3"><a xlink:title=" ">
<polygon fill="white" stroke="#bfbfbf" points="194.5,-271 194.5,-288 293.5,-288 293.5,-271 194.5,-271"/>
<text text-anchor="middle" x="244" y="-277.6" font-family="Helvetica,sans-Serif" font-size="8.00">boost::noncopyable</text>
</a>
</g>
</g>
<!-- Node3&#45;&gt;Node1 -->
<g id="edge2" class="edge">
<title>Node3&#45;&gt;Node1</title>
<path fill="none" stroke="#8b1a1a" d="M303.99,-282.48C391.35,-284.64 558.53,-279.99 686,-223.5 713.87,-211.15 741.75,-188.96 758.05,-174.75"/>
<polygon fill="#8b1a1a" stroke="#8b1a1a" points="303.83,-278.98 293.74,-282.19 303.63,-285.97 303.83,-278.98"/>
</g>
<!-- Node3&#45;&gt;Node5 -->
<g id="edge6" class="edge">
<title>Node3&#45;&gt;Node5</title>
<path fill="none" stroke="#8b1a1a" d="M303.77,-271.41C343.4,-263.4 394.85,-247.74 431,-217.5 443.81,-206.78 436.25,-195.29 449,-184.5 454.41,-179.92 460.78,-176.24 467.4,-173.28"/>
<polygon fill="#8b1a1a" stroke="#8b1a1a" points="302.88,-268.02 293.71,-273.34 304.19,-274.9 302.88,-268.02"/>
</g>
<!-- Node4 -->
<g id="node4" class="node">
<title>Node4</title>
<g id="a_node4"><a xlink:title=" ">
<polygon fill="white" stroke="#bfbfbf" points="492,-194 492,-211 541,-211 541,-194 492,-194"/>
<text text-anchor="middle" x="516.5" y="-200.6" font-family="Helvetica,sans-Serif" font-size="8.00">Session</text>
</a>
</g>
</g>
<!-- Node4&#45;&gt;Node1 -->
<g id="edge3" class="edge">
<title>Node4&#45;&gt;Node1</title>
<path fill="none" stroke="#9a32cd" stroke-dasharray="5,2" d="M551.24,-197.07C589.99,-190.84 654.56,-180.46 703.98,-172.52"/>
<polygon fill="#9a32cd" stroke="#9a32cd" points="550.35,-193.67 541.03,-198.72 551.46,-200.58 550.35,-193.67"/>
<text text-anchor="middle" x="644" y="-190.1" font-family="Helvetica,sans-Serif" font-size="8.00"> m_session</text>
</g>
<!-- Node5&#45;&gt;Node1 -->
<g id="edge4" class="edge">
<title>Node5&#45;&gt;Node1</title>
<path fill="none" stroke="#9a32cd" stroke-dasharray="5,2" d="M576.16,-161.5C614.18,-161.5 663.86,-161.5 703.73,-161.5"/>
<polygon fill="#9a32cd" stroke="#9a32cd" points="575.76,-158 565.76,-161.5 575.76,-165 575.76,-158"/>
<text text-anchor="middle" x="644" y="-164.1" font-family="Helvetica,sans-Serif" font-size="8.00"> m_top_engine</text>
</g>
<!-- Node6 -->
<g id="node6" class="node">
<title>Node6</title>
<g id="a_node6"><a xlink:title=" ">
<polygon fill="white" stroke="black" points="192,-168 192,-203 296,-203 296,-168 192,-168"/>
<text text-anchor="start" x="200" y="-192.6" font-family="Helvetica,sans-Serif" font-size="8.00">std::vector&lt; boost</text>
<text text-anchor="start" x="200" y="-183.6" font-family="Helvetica,sans-Serif" font-size="8.00">::movelib::unique_ptr</text>
<text text-anchor="middle" x="244" y="-174.6" font-family="Helvetica,sans-Serif" font-size="8.00">&lt; flow::util::Blob &gt; &gt;</text>
</a>
</g>
</g>
<!-- Node6&#45;&gt;Node5 -->
<g id="edge7" class="edge">
<title>Node6&#45;&gt;Node5</title>
<path fill="none" stroke="#9a32cd" stroke-dasharray="5,2" d="M306.3,-180.06C355.04,-175.74 422.28,-169.77 467.24,-165.78"/>
<polygon fill="#9a32cd" stroke="#9a32cd" points="305.85,-176.59 296.2,-180.96 306.47,-183.56 305.85,-176.59"/>
<text text-anchor="middle" x="376.5" y="-180.1" font-family="Helvetica,sans-Serif" font-size="8.00"> m_serialization_segments</text>
</g>
<!-- Node7 -->
<g id="node7" class="node">
<title>Node7</title>
<g id="a_node7"><a xlink:title=" ">
<polygon fill="white" stroke="#bfbfbf" points="1.5,-172.5 1.5,-198.5 105.5,-198.5 105.5,-172.5 1.5,-172.5"/>
<text text-anchor="start" x="9.5" y="-188.1" font-family="Helvetica,sans-Serif" font-size="8.00">unique_ptr&lt; flow::util</text>
<text text-anchor="middle" x="53.5" y="-179.1" font-family="Helvetica,sans-Serif" font-size="8.00">::Blob &gt;</text>
</a>
</g>
</g>
<!-- Node7&#45;&gt;Node6 -->
<g id="edge8" class="edge">
<title>Node7&#45;&gt;Node6</title>
<path fill="none" stroke="#9a32cd" stroke-dasharray="5,2" d="M115.83,-185.5C140.44,-185.5 168.47,-185.5 191.95,-185.5"/>
<polygon fill="#9a32cd" stroke="#9a32cd" points="115.51,-182 105.51,-185.5 115.51,-189 115.51,-182"/>
<text text-anchor="middle" x="145.5" y="-188.1" font-family="Helvetica,sans-Serif" font-size="8.00"> elements</text>
</g>
<!-- Node8 -->
<g id="node8" class="node">
<title>Node8</title>
<g id="a_node8"><a xlink:title=" ">
<polygon fill="white" stroke="black" points="196,-115.5 196,-141.5 292,-141.5 292,-115.5 196,-115.5"/>
<text text-anchor="start" x="204" y="-131.1" font-family="Helvetica,sans-Serif" font-size="8.00">std::vector&lt; Capnp</text>
<text text-anchor="middle" x="244" y="-122.1" font-family="Helvetica,sans-Serif" font-size="8.00">_word_array_ptr &gt;</text>
</a>
</g>
</g>
<!-- Node8&#45;&gt;Node1 -->
<g id="edge14" class="edge">
<title>Node8&#45;&gt;Node1</title>
<path fill="none" stroke="#9a32cd" stroke-dasharray="5,2" d="M302.28,-126.1C369.78,-123.91 485.27,-122.14 584,-130.5 625.8,-134.04 672.32,-141.65 708.69,-148.44"/>
<polygon fill="#9a32cd" stroke="#9a32cd" points="302.14,-122.61 292.27,-126.44 302.38,-129.6 302.14,-122.61"/>
<text text-anchor="middle" x="516.5" y="-133.1" font-family="Helvetica,sans-Serif" font-size="8.00"> m_btm_capnp_segments</text>
</g>
<!-- Node8&#45;&gt;Node5 -->
<g id="edge9" class="edge">
<title>Node8&#45;&gt;Node5</title>
<path fill="none" stroke="#9a32cd" stroke-dasharray="5,2" d="M302.23,-135.48C351.19,-141.46 420.88,-149.96 467.1,-155.6"/>
<polygon fill="#9a32cd" stroke="#9a32cd" points="302.47,-131.98 292.12,-134.25 301.62,-138.93 302.47,-131.98"/>
<text text-anchor="middle" x="376.5" y="-153.1" font-family="Helvetica,sans-Serif" font-size="8.00"> m_capnp_segments</text>
</g>
<!-- Node9 -->
<g id="node9" class="node">
<title>Node9</title>
<g id="a_node9"><a xlink:title=" ">
<polygon fill="white" stroke="#bfbfbf" points="0,-120 0,-137 107,-137 107,-120 0,-120"/>
<text text-anchor="middle" x="53.5" y="-126.6" font-family="Helvetica,sans-Serif" font-size="8.00">Capnp_word_array_ptr</text>
</a>
</g>
</g>
<!-- Node9&#45;&gt;Node8 -->
<g id="edge10" class="edge">
<title>Node9&#45;&gt;Node8</title>
<path fill="none" stroke="#9a32cd" stroke-dasharray="5,2" d="M117.04,-128.5C142.77,-128.5 172.06,-128.5 195.92,-128.5"/>
<polygon fill="#9a32cd" stroke="#9a32cd" points="117.01,-125 107.01,-128.5 117.01,-132 117.01,-125"/>
<text text-anchor="middle" x="145.5" y="-131.1" font-family="Helvetica,sans-Serif" font-size="8.00"> elements</text>
</g>
<!-- Node10 -->
<g id="node10" class="node">
<title>Node10</title>
<g id="a_node10"><a xlink:title=" ">
<polygon fill="white" stroke="#bfbfbf" points="184,-57.5 184,-83.5 304,-83.5 304,-57.5 184,-57.5"/>
<text text-anchor="start" x="192" y="-73.1" font-family="Helvetica,sans-Serif" font-size="8.00">unique_ptr&lt; Capnp_heap</text>
<text text-anchor="middle" x="244" y="-64.1" font-family="Helvetica,sans-Serif" font-size="8.00">_engine &gt;</text>
</a>
</g>
</g>
<!-- Node10&#45;&gt;Node1 -->
<g id="edge12" class="edge">
<title>Node10&#45;&gt;Node1</title>
<path fill="none" stroke="#9a32cd" stroke-dasharray="5,2" d="M314.2,-73.98C401.97,-79.68 557.39,-94.02 686,-128.5 705.25,-133.66 726.15,-141.56 742.58,-148.34"/>
<polygon fill="#9a32cd" stroke="#9a32cd" points="314.3,-70.48 304.1,-73.35 313.86,-77.47 314.3,-70.48"/>
<text text-anchor="middle" x="516.5" y="-108.1" font-family="Helvetica,sans-Serif" font-size="8.00"> m_btm_engine</text>
</g>
<!-- Node10&#45;&gt;Node5 -->
<g id="edge11" class="edge">
<title>Node10&#45;&gt;Node5</title>
<path fill="none" stroke="#9a32cd" stroke-dasharray="5,2" d="M309.54,-86.15C345.77,-95.7 391.5,-109.04 431,-124.5 439.33,-127.76 440.87,-129.76 449,-133.5 460.04,-138.58 472.26,-143.83 483.18,-148.39"/>
<polygon fill="#9a32cd" stroke="#9a32cd" points="310.14,-82.69 299.58,-83.56 308.38,-89.47 310.14,-82.69"/>
<text text-anchor="middle" x="376.5" y="-127.1" font-family="Helvetica,sans-Serif" font-size="8.00"> m_engine</text>
</g>
<!-- Node11 -->
<g id="node11" class="node">
<title>Node11</title>
<g id="a_node11"><a xlink:title=" ">
<polygon fill="white" stroke="#bfbfbf" points="449,-0.5 449,-26.5 584,-26.5 584,-0.5 449,-0.5"/>
<text text-anchor="start" x="457" y="-16.1" font-family="Helvetica,sans-Serif" font-size="8.00">template Handle&lt; Segments</text>
<text text-anchor="middle" x="516.5" y="-7.1" font-family="Helvetica,sans-Serif" font-size="8.00">_in_shm &gt;</text>
</a>
</g>
</g>
<!-- Node11&#45;&gt;Node1 -->
<g id="edge13" class="edge">
<title>Node11&#45;&gt;Node1</title>
<path fill="none" stroke="#9a32cd" stroke-dasharray="5,2" d="M594.25,-8.08C624.71,-9.27 658.88,-15.06 686,-31.5 731.67,-59.19 758.27,-121.25 768.11,-148.38"/>
<polygon fill="#9a32cd" stroke="#9a32cd" points="594.16,-4.58 584.08,-7.85 593.99,-11.58 594.16,-4.58"/>
<text text-anchor="start" x="602" y="-43.1" font-family="Helvetica,sans-Serif" font-size="8.00"> m_btm_serialization</text>
<text text-anchor="middle" x="644" y="-34.1" font-family="Helvetica,sans-Serif" font-size="8.00">_shm_handle</text>
</g>
</g>
</svg>
