<?xml version="1.0" encoding="UTF-8" standalone="no"?>
<!DOCTYPE svg PUBLIC "-//W3C//DTD SVG 1.1//EN"
 "http://www.w3.org/Graphics/SVG/1.1/DTD/svg11.dtd">
<!-- Generated by graphviz version 2.43.0 (0)
 -->
<!-- Title: ipc::session::sync_io::Session_adapter::init_pipe Pages: 1 -->
<svg width="248pt" height="44pt"
 viewBox="0.00 0.00 248.00 44.00" xmlns="http://www.w3.org/2000/svg" xmlns:xlink="http://www.w3.org/1999/xlink">
<g id="graph0" class="graph" transform="scale(1 1) rotate(0) translate(4 40)">
<title>ipc::session::sync_io::Session_adapter::init_pipe</title>
<polygon fill="white" stroke="transparent" points="-4,4 -4,-40 244,-40 244,4 -4,4"/>
<!-- Node1 -->
<g id="node1" class="node">
<title>Node1</title>
<g id="a_node1"><a xlink:title="Utility that sets up an IPC&#45;pipe in the given peer objects as well as loading a watcher&#45;descriptor ob...">
<polygon fill="#bfbfbf" stroke="black" points="138,-0.5 138,-35.5 240,-35.5 240,-0.5 138,-0.5"/>
<text text-anchor="start" x="146" y="-25.1" font-family="Helvetica,sans-Serif" font-size="8.00">ipc::session::sync</text>
<text text-anchor="start" x="146" y="-16.1" font-family="Helvetica,sans-Serif" font-size="8.00">_io::Session_adapter</text>
<text text-anchor="middle" x="189" y="-7.1" font-family="Helvetica,sans-Serif" font-size="8.00">::init_pipe</text>
</a>
</g>
</g>
<!-- Node2 -->
<g id="node2" class="node">
<title>Node2</title>
<g id="a_node2"><a xlink:href="classipc_1_1session_1_1sync__io_1_1Session__adapter.html#a8b4dada833c59e6a63780dfaba4f704f" target="_top" xlink:title="Forwards to the Session_obj default ctor.">
<polygon fill="white" stroke="black" points="0,-0.5 0,-35.5 102,-35.5 102,-0.5 0,-0.5"/>
<text text-anchor="start" x="8" y="-25.1" font-family="Helvetica,sans-Serif" font-size="8.00">ipc::session::sync</text>
<text text-anchor="start" x="8" y="-16.1" font-family="Helvetica,sans-Serif" font-size="8.00">_io::Session_adapter</text>
<text text-anchor="middle" x="51" y="-7.1" font-family="Helvetica,sans-Serif" font-size="8.00">::Session_adapter</text>
</a>
</g>
</g>
<!-- Node1&#45;&gt;Node2 -->
<g id="edge1" class="edge">
<title>Node1&#45;&gt;Node2</title>
<path fill="none" stroke="midnightblue" d="M127.49,-18C118.99,-18 110.33,-18 102.05,-18"/>
<polygon fill="midnightblue" stroke="midnightblue" points="127.75,-21.5 137.75,-18 127.74,-14.5 127.75,-21.5"/>
</g>
</g>
</svg>
