<?xml version="1.0" encoding="UTF-8" standalone="no"?>
<!DOCTYPE svg PUBLIC "-//W3C//DTD SVG 1.1//EN"
 "http://www.w3.org/Graphics/SVG/1.1/DTD/svg11.dtd">
<!-- Generated by graphviz version 2.43.0 (0)
 -->
<!-- Title: ipc::transport::struc::sync_io::Channel::start_ops Pages: 1 -->
<svg width="278pt" height="35pt"
 viewBox="0.00 0.00 278.00 35.00" xmlns="http://www.w3.org/2000/svg" xmlns:xlink="http://www.w3.org/1999/xlink">
<g id="graph0" class="graph" transform="scale(1 1) rotate(0) translate(4 31)">
<title>ipc::transport::struc::sync_io::Channel::start_ops</title>
<polygon fill="white" stroke="transparent" points="-4,4 -4,-31 274,-31 274,4 -4,4"/>
<!-- Node1 -->
<g id="node1" class="node">
<title>Node1</title>
<g id="a_node1"><a xlink:title="Sets up the sync_io&#45;pattern interaction between *this and the user&#39;s event loop; required before star...">
<polygon fill="#bfbfbf" stroke="black" points="134,-0.5 134,-26.5 270,-26.5 270,-0.5 134,-0.5"/>
<text text-anchor="start" x="142" y="-16.1" font-family="Helvetica,sans-Serif" font-size="8.00">ipc::transport::struc</text>
<text text-anchor="middle" x="202" y="-7.1" font-family="Helvetica,sans-Serif" font-size="8.00">::sync_io::Channel::start_ops</text>
</a>
</g>
</g>
<!-- Node2 -->
<g id="node2" class="node">
<title>Node2</title>
<g id="a_node2"><a xlink:href="classipc_1_1transport_1_1struc_1_1Channel.html#abe73bfa20ca0207ac8aa63d26d54de83" target="_top" xlink:title="All explicit constructors: signatures match exactly those of struc::sync_io::Channel (a/k/a Sync_io_o...">
<polygon fill="white" stroke="black" points="0,-0.5 0,-26.5 98,-26.5 98,-0.5 0,-0.5"/>
<text text-anchor="start" x="8" y="-16.1" font-family="Helvetica,sans-Serif" font-size="8.00">ipc::transport::struc</text>
<text text-anchor="middle" x="49" y="-7.1" font-family="Helvetica,sans-Serif" font-size="8.00">::Channel::Channel</text>
</a>
</g>
</g>
<!-- Node1&#45;&gt;Node2 -->
<g id="edge1" class="edge">
<title>Node1&#45;&gt;Node2</title>
<path fill="none" stroke="midnightblue" d="M123.75,-13.5C115.1,-13.5 106.48,-13.5 98.34,-13.5"/>
<polygon fill="midnightblue" stroke="midnightblue" points="123.89,-17 133.89,-13.5 123.89,-10 123.89,-17"/>
</g>
</g>
</svg>
