<?xml version="1.0" encoding="UTF-8" standalone="no"?>
<!DOCTYPE svg PUBLIC "-//W3C//DTD SVG 1.1//EN"
 "http://www.w3.org/Graphics/SVG/1.1/DTD/svg11.dtd">
<!-- Generated by graphviz version 2.43.0 (0)
 -->
<!-- Title: ipc::session::shm::classic::Session_server&lt; S_MQ_TYPE_OR_NONE, S_TRANSMIT_NATIVE_HANDLES, Mdt_payload &gt; Pages: 1 -->
<svg width="1067pt" height="497pt"
 viewBox="0.00 0.00 1067.00 497.00" xmlns="http://www.w3.org/2000/svg" xmlns:xlink="http://www.w3.org/1999/xlink">
<g id="graph0" class="graph" transform="scale(1 1) rotate(0) translate(4 493)">
<title>ipc::session::shm::classic::Session_server&lt; S_MQ_TYPE_OR_NONE, S_TRANSMIT_NATIVE_HANDLES, Mdt_payload &gt;</title>
<polygon fill="white" stroke="transparent" points="-4,4 -4,-493 1063,-493 1063,4 -4,4"/>
<!-- Node1 -->
<g id="node1" class="node">
<title>Node1</title>
<g id="a_node1"><a xlink:title="This is to vanilla Session_server what shm::classic::Server_session is to vanilla Server_session: it ...">
<polygon fill="#bfbfbf" stroke="black" points="921,-195.5 921,-248.5 1059,-248.5 1059,-195.5 921,-195.5"/>
<text text-anchor="start" x="929" y="-238.1" font-family="Helvetica,sans-Serif" font-size="8.00">ipc::session::shm::</text>
<text text-anchor="start" x="929" y="-229.1" font-family="Helvetica,sans-Serif" font-size="8.00">classic::Session_server</text>
<text text-anchor="start" x="929" y="-220.1" font-family="Helvetica,sans-Serif" font-size="8.00">&lt; S_MQ_TYPE_OR_NONE, S</text>
<text text-anchor="start" x="929" y="-211.1" font-family="Helvetica,sans-Serif" font-size="8.00">_TRANSMIT_NATIVE_HANDLES,</text>
<text text-anchor="middle" x="990" y="-202.1" font-family="Helvetica,sans-Serif" font-size="8.00"> Mdt_payload &gt;</text>
</a>
</g>
</g>
<!-- Node2 -->
<g id="node2" class="node">
<title>Node2</title>
<g id="a_node2"><a xlink:href="classipc_1_1session_1_1Session__server__impl.html" target="_top" xlink:title=" ">
<polygon fill="white" stroke="black" points="648,-182 648,-262 794,-262 794,-182 648,-182"/>
<text text-anchor="start" x="656" y="-251.6" font-family="Helvetica,sans-Serif" font-size="8.00">ipc::session::Session</text>
<text text-anchor="start" x="656" y="-242.6" font-family="Helvetica,sans-Serif" font-size="8.00">_server_impl&lt; Session</text>
<text text-anchor="start" x="656" y="-233.6" font-family="Helvetica,sans-Serif" font-size="8.00">_server&lt; S_MQ_TYPE_OR</text>
<text text-anchor="start" x="656" y="-224.6" font-family="Helvetica,sans-Serif" font-size="8.00">_NONE, S_TRANSMIT_NATIVE</text>
<text text-anchor="start" x="656" y="-215.6" font-family="Helvetica,sans-Serif" font-size="8.00">_HANDLES, Mdt_payload &gt;,</text>
<text text-anchor="start" x="656" y="-206.6" font-family="Helvetica,sans-Serif" font-size="8.00"> Server_session&lt; S_MQ_TYPE</text>
<text text-anchor="start" x="656" y="-197.6" font-family="Helvetica,sans-Serif" font-size="8.00">_OR_NONE, S_TRANSMIT_NATIVE</text>
<text text-anchor="middle" x="721" y="-188.6" font-family="Helvetica,sans-Serif" font-size="8.00">_HANDLES, Mdt_payload &gt; &gt;</text>
</a>
</g>
</g>
<!-- Node2&#45;&gt;Node1 -->
<g id="edge1" class="edge">
<title>Node2&#45;&gt;Node1</title>
<path fill="none" stroke="#8b1a1a" d="M804.6,-222C841.89,-222 885.43,-222 920.82,-222"/>
<polygon fill="#8b1a1a" stroke="#8b1a1a" points="804.25,-218.5 794.25,-222 804.25,-225.5 804.25,-218.5"/>
</g>
<!-- Node3 -->
<g id="node3" class="node">
<title>Node3</title>
<g id="a_node3"><a xlink:title=" ">
<polygon fill="white" stroke="#bfbfbf" points="390,-36.5 390,-53.5 497,-53.5 497,-36.5 390,-36.5"/>
<text text-anchor="middle" x="443.5" y="-43.1" font-family="Helvetica,sans-Serif" font-size="8.00">flow::log::Log_context</text>
</a>
</g>
</g>
<!-- Node3&#45;&gt;Node2 -->
<g id="edge2" class="edge">
<title>Node3&#45;&gt;Node2</title>
<path fill="none" stroke="midnightblue" d="M507.38,-42.14C547.75,-43.83 598.35,-53.08 630,-85 657.8,-113.04 626.23,-139.06 648,-172 650.27,-175.43 652.85,-178.69 655.67,-181.78"/>
<polygon fill="midnightblue" stroke="midnightblue" points="507.45,-38.64 497.36,-41.86 507.26,-45.64 507.45,-38.64"/>
</g>
<!-- Node4 -->
<g id="node4" class="node">
<title>Node4</title>
<g id="a_node4"><a xlink:title=" ">
<polygon fill="white" stroke="#bfbfbf" points="394,-0.5 394,-17.5 493,-17.5 493,-0.5 394,-0.5"/>
<text text-anchor="middle" x="443.5" y="-7.1" font-family="Helvetica,sans-Serif" font-size="8.00">boost::noncopyable</text>
</a>
</g>
</g>
<!-- Node4&#45;&gt;Node2 -->
<g id="edge3" class="edge">
<title>Node4&#45;&gt;Node2</title>
<path fill="none" stroke="#8b1a1a" d="M503.31,-2.16C544.54,-0.87 597.82,-6.84 630,-40 671.23,-82.49 617.07,-121.51 648,-172 650.15,-175.5 652.64,-178.82 655.39,-181.96"/>
<polygon fill="#8b1a1a" stroke="#8b1a1a" points="502.94,1.33 493.11,-2.63 503.27,-5.66 502.94,1.33"/>
</g>
<!-- Node5 -->
<g id="node5" class="node">
<title>Node5</title>
<g id="a_node5"><a xlink:href="structipc_1_1session_1_1Server__app.html" target="_top" xlink:title="An App that is used as a server in at least one client&#45;server IPC split.">
<polygon fill="white" stroke="black" points="384.5,-298.5 384.5,-315.5 502.5,-315.5 502.5,-298.5 384.5,-298.5"/>
<text text-anchor="middle" x="443.5" y="-305.1" font-family="Helvetica,sans-Serif" font-size="8.00">ipc::session::Server_app</text>
</a>
</g>
</g>
<!-- Node5&#45;&gt;Node1 -->
<g id="edge19" class="edge">
<title>Node5&#45;&gt;Node1</title>
<path fill="none" stroke="#9a32cd" stroke-dasharray="5,2" d="M512.81,-304.36C547.89,-302.64 591.3,-299.97 630,-296 703.28,-288.48 721.78,-286.5 794,-272 836.49,-263.47 883.57,-251.47 920.82,-241.37"/>
<polygon fill="#9a32cd" stroke="#9a32cd" points="512.49,-300.87 502.67,-304.84 512.83,-307.86 512.49,-300.87"/>
<text text-anchor="middle" x="721" y="-296.6" font-family="Helvetica,sans-Serif" font-size="8.00"> m_srv_app_ref</text>
</g>
<!-- Node5&#45;&gt;Node2 -->
<g id="edge4" class="edge">
<title>Node5&#45;&gt;Node2</title>
<path fill="none" stroke="#9a32cd" stroke-dasharray="5,2" d="M487.05,-296.02C498.99,-293.02 511.98,-289.81 524,-287 570.94,-276.01 584.32,-279.4 630,-264 635.88,-262.02 641.89,-259.76 647.87,-257.35"/>
<polygon fill="#9a32cd" stroke="#9a32cd" points="486.15,-292.64 477.32,-298.49 487.87,-299.42 486.15,-292.64"/>
<text text-anchor="middle" x="577" y="-289.6" font-family="Helvetica,sans-Serif" font-size="8.00"> m_srv_app_ref</text>
</g>
<!-- Node6 -->
<g id="node6" class="node">
<title>Node6</title>
<g id="a_node6"><a xlink:href="structipc_1_1session_1_1App.html" target="_top" xlink:title="A description of an application in this ipc::session inter&#45;process communication universe.">
<polygon fill="white" stroke="black" points="155,-262.5 155,-279.5 243,-279.5 243,-262.5 155,-262.5"/>
<text text-anchor="middle" x="199" y="-269.1" font-family="Helvetica,sans-Serif" font-size="8.00">ipc::session::App</text>
</a>
</g>
</g>
<!-- Node6&#45;&gt;Node5 -->
<g id="edge5" class="edge">
<title>Node6&#45;&gt;Node5</title>
<path fill="none" stroke="midnightblue" d="M253.16,-278.89C292.08,-284.67 344.85,-292.5 384.8,-298.43"/>
<polygon fill="midnightblue" stroke="midnightblue" points="253.48,-275.4 243.07,-277.39 252.45,-282.33 253.48,-275.4"/>
</g>
<!-- Node7 -->
<g id="node7" class="node">
<title>Node7</title>
<g id="a_node7"><a xlink:title=" ">
<polygon fill="white" stroke="red" points="0,-368.5 0,-385.5 59,-385.5 59,-368.5 0,-368.5"/>
<text text-anchor="middle" x="29.5" y="-375.1" font-family="Helvetica,sans-Serif" font-size="8.00">std::string</text>
</a>
</g>
</g>
<!-- Node7&#45;&gt;Node6 -->
<g id="edge6" class="edge">
<title>Node7&#45;&gt;Node6</title>
<path fill="none" stroke="#9a32cd" stroke-dasharray="5,2" d="M60.11,-364.09C81.77,-353.62 110.94,-337.29 132,-317 142.66,-306.74 138.49,-298.29 150,-289 154.85,-285.09 160.63,-281.97 166.48,-279.5"/>
<polygon fill="#9a32cd" stroke="#9a32cd" points="58.6,-360.93 51.04,-368.35 61.58,-367.27 58.6,-360.93"/>
<text text-anchor="middle" x="104.5" y="-357.6" font-family="Helvetica,sans-Serif" font-size="8.00"> m_name</text>
</g>
<!-- Node20 -->
<g id="node19" class="node">
<title>Node20</title>
<g id="a_node19"><a xlink:href="classipc_1_1util_1_1Shared__name.html" target="_top" xlink:title="String&#45;wrapping abstraction representing a name uniquely distinguishing a kernel&#45;persistent entity fr...">
<polygon fill="white" stroke="black" points="666,-337.5 666,-354.5 776,-354.5 776,-337.5 666,-337.5"/>
<text text-anchor="middle" x="721" y="-344.1" font-family="Helvetica,sans-Serif" font-size="8.00">ipc::util::Shared_name</text>
</a>
</g>
</g>
<!-- Node7&#45;&gt;Node20 -->
<g id="edge24" class="edge">
<title>Node7&#45;&gt;Node20</title>
<path fill="none" stroke="#9a32cd" stroke-dasharray="5,2" d="M69.35,-377.49C164.94,-378.35 419.12,-378.43 630,-359 642.1,-357.88 655.07,-356.26 667.28,-354.54"/>
<polygon fill="#9a32cd" stroke="#9a32cd" points="69.31,-373.99 59.28,-377.4 69.24,-380.99 69.31,-373.99"/>
<text text-anchor="middle" x="314.5" y="-378.6" font-family="Helvetica,sans-Serif" font-size="8.00"> m_raw_name</text>
</g>
<!-- Node9 -->
<g id="node8" class="node">
<title>Node9</title>
<g id="a_node8"><a xlink:title=" ">
<polygon fill="white" stroke="#bfbfbf" points="12,-222.5 12,-239.5 47,-239.5 47,-222.5 12,-222.5"/>
<text text-anchor="middle" x="29.5" y="-229.1" font-family="Helvetica,sans-Serif" font-size="8.00">path</text>
</a>
</g>
</g>
<!-- Node9&#45;&gt;Node5 -->
<g id="edge11" class="edge">
<title>Node9&#45;&gt;Node5</title>
<path fill="none" stroke="#9a32cd" stroke-dasharray="5,2" d="M57.12,-228.69C98.4,-225.72 180.18,-222.36 248,-235 301.49,-244.97 314.46,-252.4 363,-277 371.58,-281.35 372.29,-284.94 381,-289 388.97,-292.71 397.87,-295.85 406.38,-298.41"/>
<polygon fill="#9a32cd" stroke="#9a32cd" points="56.76,-225.2 47.06,-229.46 57.3,-232.18 56.76,-225.2"/>
<text text-anchor="start" x="156.5" y="-246.6" font-family="Helvetica,sans-Serif" font-size="8.00"> m_kernel_persistent</text>
<text text-anchor="middle" x="199" y="-237.6" font-family="Helvetica,sans-Serif" font-size="8.00">_run_dir_override</text>
</g>
<!-- Node9&#45;&gt;Node6 -->
<g id="edge7" class="edge">
<title>Node9&#45;&gt;Node6</title>
<path fill="none" stroke="#9a32cd" stroke-dasharray="5,2" d="M57.17,-237.37C85.56,-244.15 130.63,-254.91 162.11,-262.43"/>
<polygon fill="#9a32cd" stroke="#9a32cd" points="57.71,-233.9 47.17,-234.98 56.09,-240.71 57.71,-233.9"/>
<text text-anchor="middle" x="104.5" y="-256.6" font-family="Helvetica,sans-Serif" font-size="8.00"> m_exec_path</text>
</g>
<!-- Node10 -->
<g id="node9" class="node">
<title>Node10</title>
<g id="a_node9"><a xlink:title=" ">
<polygon fill="white" stroke="#bfbfbf" points="11.5,-272.5 11.5,-289.5 47.5,-289.5 47.5,-272.5 11.5,-272.5"/>
<text text-anchor="middle" x="29.5" y="-279.1" font-family="Helvetica,sans-Serif" font-size="8.00">uid_t</text>
</a>
</g>
</g>
<!-- Node10&#45;&gt;Node6 -->
<g id="edge8" class="edge">
<title>Node10&#45;&gt;Node6</title>
<path fill="none" stroke="#9a32cd" stroke-dasharray="5,2" d="M57.82,-279.37C84.13,-277.8 124.35,-275.4 154.97,-273.57"/>
<polygon fill="#9a32cd" stroke="#9a32cd" points="57.57,-275.88 47.79,-279.97 57.99,-282.87 57.57,-275.88"/>
<text text-anchor="middle" x="104.5" y="-280.6" font-family="Helvetica,sans-Serif" font-size="8.00"> m_user_id</text>
</g>
<!-- Node11 -->
<g id="node10" class="node">
<title>Node11</title>
<g id="a_node10"><a xlink:title=" ">
<polygon fill="white" stroke="#bfbfbf" points="11.5,-308.5 11.5,-325.5 47.5,-325.5 47.5,-308.5 11.5,-308.5"/>
<text text-anchor="middle" x="29.5" y="-315.1" font-family="Helvetica,sans-Serif" font-size="8.00">gid_t</text>
</a>
</g>
</g>
<!-- Node11&#45;&gt;Node6 -->
<g id="edge9" class="edge">
<title>Node11&#45;&gt;Node6</title>
<path fill="none" stroke="#9a32cd" stroke-dasharray="5,2" d="M57.7,-310.37C78.19,-305.3 106.94,-298 132,-291 144.8,-287.42 158.91,-283.19 170.78,-279.54"/>
<polygon fill="#9a32cd" stroke="#9a32cd" points="56.67,-307.02 47.8,-312.81 58.35,-313.82 56.67,-307.02"/>
<text text-anchor="middle" x="104.5" y="-306.6" font-family="Helvetica,sans-Serif" font-size="8.00"> m_group_id</text>
</g>
<!-- Node12 -->
<g id="node11" class="node">
<title>Node12</title>
<g id="a_node11"><a xlink:title=" ">
<polygon fill="white" stroke="#bfbfbf" points="150,-335 150,-361 248,-361 248,-335 150,-335"/>
<text text-anchor="start" x="158" y="-350.6" font-family="Helvetica,sans-Serif" font-size="8.00">unordered_set&lt; std</text>
<text text-anchor="middle" x="199" y="-341.6" font-family="Helvetica,sans-Serif" font-size="8.00">::string &gt;</text>
</a>
</g>
</g>
<!-- Node12&#45;&gt;Node5 -->
<g id="edge10" class="edge">
<title>Node12&#45;&gt;Node5</title>
<path fill="none" stroke="#9a32cd" stroke-dasharray="5,2" d="M258.59,-341.54C289.73,-337.74 328.57,-332.42 363,-326 378.62,-323.09 395.79,-319.09 410.17,-315.51"/>
<polygon fill="#9a32cd" stroke="#9a32cd" points="257.86,-338.1 248.35,-342.77 258.69,-345.05 257.86,-338.1"/>
<text text-anchor="middle" x="314.5" y="-342.6" font-family="Helvetica,sans-Serif" font-size="8.00"> m_allowed_client_apps</text>
</g>
<!-- Node13 -->
<g id="node12" class="node">
<title>Node13</title>
<g id="a_node12"><a xlink:title=" ">
<polygon fill="white" stroke="#bfbfbf" points="154.5,-298.5 154.5,-315.5 243.5,-315.5 243.5,-298.5 154.5,-298.5"/>
<text text-anchor="middle" x="199" y="-305.1" font-family="Helvetica,sans-Serif" font-size="8.00">Permissions_level</text>
</a>
</g>
</g>
<!-- Node13&#45;&gt;Node5 -->
<g id="edge12" class="edge">
<title>Node13&#45;&gt;Node5</title>
<path fill="none" stroke="#9a32cd" stroke-dasharray="5,2" d="M253.66,-307C292.32,-307 344.47,-307 384.16,-307"/>
<polygon fill="#9a32cd" stroke="#9a32cd" points="253.63,-303.5 243.63,-307 253.63,-310.5 253.63,-303.5"/>
<text text-anchor="start" x="271" y="-318.6" font-family="Helvetica,sans-Serif" font-size="8.00"> m_permissions_level</text>
<text text-anchor="middle" x="314.5" y="-309.6" font-family="Helvetica,sans-Serif" font-size="8.00">_for_client_apps</text>
</g>
<!-- Node14 -->
<g id="node13" class="node">
<title>Node14</title>
<g id="a_node13"><a xlink:title=" ">
<polygon fill="white" stroke="#bfbfbf" points="396,-253 396,-279 491,-279 491,-253 396,-253"/>
<text text-anchor="start" x="404" y="-268.6" font-family="Helvetica,sans-Serif" font-size="8.00">Session_server_obj</text>
<text text-anchor="middle" x="443.5" y="-259.6" font-family="Helvetica,sans-Serif" font-size="8.00"> *const</text>
</a>
</g>
</g>
<!-- Node14&#45;&gt;Node2 -->
<g id="edge13" class="edge">
<title>Node14&#45;&gt;Node2</title>
<path fill="none" stroke="#9a32cd" stroke-dasharray="5,2" d="M501.13,-256.96C543.6,-250.17 602.05,-240.84 647.87,-233.52"/>
<polygon fill="#9a32cd" stroke="#9a32cd" points="500.56,-253.5 491.23,-258.54 501.66,-260.42 500.56,-253.5"/>
<text text-anchor="middle" x="577" y="-254.6" font-family="Helvetica,sans-Serif" font-size="8.00"> m_this_session_srv</text>
</g>
<!-- Node15 -->
<g id="node14" class="node">
<title>Node15</title>
<g id="a_node14"><a xlink:title=" ">
<polygon fill="white" stroke="#bfbfbf" points="409,-216.5 409,-233.5 478,-233.5 478,-216.5 409,-216.5"/>
<text text-anchor="middle" x="443.5" y="-223.1" font-family="Helvetica,sans-Serif" font-size="8.00">Master_set &amp;</text>
</a>
</g>
</g>
<!-- Node15&#45;&gt;Node2 -->
<g id="edge14" class="edge">
<title>Node15&#45;&gt;Node2</title>
<path fill="none" stroke="#9a32cd" stroke-dasharray="5,2" d="M488.46,-223.74C500.02,-223.45 512.48,-223.17 524,-223 565,-222.38 610.83,-222.12 647.86,-222.02"/>
<polygon fill="#9a32cd" stroke="#9a32cd" points="488.06,-220.25 478.15,-224 488.24,-227.24 488.06,-220.25"/>
<text text-anchor="middle" x="577" y="-225.6" font-family="Helvetica,sans-Serif" font-size="8.00"> m_cli_app_master_set_ref</text>
</g>
<!-- Node16 -->
<g id="node15" class="node">
<title>Node16</title>
<g id="a_node15"><a xlink:title=" ">
<polygon fill="white" stroke="#bfbfbf" points="381,-162.5 381,-197.5 506,-197.5 506,-162.5 381,-162.5"/>
<text text-anchor="start" x="389" y="-187.1" font-family="Helvetica,sans-Serif" font-size="8.00">const Function&lt; Error</text>
<text text-anchor="start" x="389" y="-178.1" font-family="Helvetica,sans-Serif" font-size="8.00">_code(const ipc::session</text>
<text text-anchor="middle" x="443.5" y="-169.1" font-family="Helvetica,sans-Serif" font-size="8.00">::Client_app &amp;client_app)&gt;</text>
</a>
</g>
</g>
<!-- Node16&#45;&gt;Node2 -->
<g id="edge15" class="edge">
<title>Node16&#45;&gt;Node2</title>
<path fill="none" stroke="#9a32cd" stroke-dasharray="5,2" d="M516.38,-190.96C556.81,-197.12 607.14,-204.79 647.65,-210.97"/>
<polygon fill="#9a32cd" stroke="#9a32cd" points="516.74,-187.47 506.33,-189.43 515.69,-194.39 516.74,-187.47"/>
<text text-anchor="middle" x="577" y="-209.6" font-family="Helvetica,sans-Serif" font-size="8.00"> m_per_app_setup_func</text>
</g>
<!-- Node17 -->
<g id="node16" class="node">
<title>Node17</title>
<g id="a_node16"><a xlink:title=" ">
<polygon fill="white" stroke="#bfbfbf" points="389,-108.5 389,-143.5 498,-143.5 498,-108.5 389,-108.5"/>
<text text-anchor="start" x="397" y="-133.1" font-family="Helvetica,sans-Serif" font-size="8.00">optional&lt; ipc::session</text>
<text text-anchor="start" x="397" y="-124.1" font-family="Helvetica,sans-Serif" font-size="8.00">::Session_server_impl</text>
<text text-anchor="middle" x="443.5" y="-115.1" font-family="Helvetica,sans-Serif" font-size="8.00">::State &gt;</text>
</a>
</g>
</g>
<!-- Node17&#45;&gt;Node2 -->
<g id="edge16" class="edge">
<title>Node17&#45;&gt;Node2</title>
<path fill="none" stroke="#9a32cd" stroke-dasharray="5,2" d="M507.99,-141.32C544.22,-150.76 590.2,-163.93 630,-179 635.83,-181.21 641.8,-183.64 647.76,-186.2"/>
<polygon fill="#9a32cd" stroke="#9a32cd" points="508.6,-137.87 498.04,-138.76 506.85,-144.64 508.6,-137.87"/>
<text text-anchor="middle" x="577" y="-181.6" font-family="Helvetica,sans-Serif" font-size="8.00"> m_state</text>
</g>
<!-- Node18 -->
<g id="node17" class="node">
<title>Node18</title>
<g id="a_node17"><a xlink:href="classFunction_3_01void_07_08_4.html" target="_top" xlink:title=" ">
<polygon fill="white" stroke="#bfbfbf" points="398,-72.5 398,-89.5 489,-89.5 489,-72.5 398,-72.5"/>
<text text-anchor="middle" x="443.5" y="-79.1" font-family="Helvetica,sans-Serif" font-size="8.00">Function&lt; void()&gt;</text>
</a>
</g>
</g>
<!-- Node18&#45;&gt;Node2 -->
<g id="edge17" class="edge">
<title>Node18&#45;&gt;Node2</title>
<path fill="none" stroke="#9a32cd" stroke-dasharray="5,2" d="M499.39,-83.83C539.71,-88.58 593.59,-100.82 630,-132 644.81,-144.68 635.54,-157.01 648,-172 650.82,-175.39 653.93,-178.66 657.22,-181.79"/>
<polygon fill="#9a32cd" stroke="#9a32cd" points="499.5,-80.32 489.18,-82.75 498.76,-87.28 499.5,-80.32"/>
<text text-anchor="middle" x="577" y="-134.6" font-family="Helvetica,sans-Serif" font-size="8.00"> m_deinit_func_or_empty</text>
</g>
<!-- Node19 -->
<g id="node18" class="node">
<title>Node19</title>
<g id="a_node18"><a xlink:title=" ">
<polygon fill="white" stroke="#bfbfbf" points="423.5,-453.5 423.5,-470.5 463.5,-470.5 463.5,-453.5 423.5,-453.5"/>
<text text-anchor="middle" x="443.5" y="-460.1" font-family="Helvetica,sans-Serif" font-size="8.00">size_t</text>
</a>
</g>
</g>
<!-- Node19&#45;&gt;Node1 -->
<g id="edge18" class="edge">
<title>Node19&#45;&gt;Node1</title>
<path fill="none" stroke="#9a32cd" stroke-dasharray="5,2" d="M473.7,-467.74C535.36,-478.5 682.32,-496.97 794,-454 890,-417.07 953.1,-301.24 977.56,-248.56"/>
<polygon fill="#9a32cd" stroke="#9a32cd" points="474.01,-464.23 463.54,-465.9 472.76,-471.12 474.01,-464.23"/>
<text text-anchor="middle" x="721" y="-482.6" font-family="Helvetica,sans-Serif" font-size="8.00"> m_pool_size_limit_mi</text>
</g>
<!-- Node19&#45;&gt;Node20 -->
<g id="edge22" class="edge">
<title>Node19&#45;&gt;Node20</title>
<path fill="none" stroke="#9a32cd" stroke-dasharray="5,2" d="M473.73,-455.46C511.06,-446.52 577.15,-428.73 630,-404 660.3,-389.82 692.49,-366.9 708.93,-354.55"/>
<polygon fill="#9a32cd" stroke="#9a32cd" points="472.49,-452.15 463.55,-457.84 474.09,-458.97 472.49,-452.15"/>
<text text-anchor="middle" x="577" y="-443.6" font-family="Helvetica,sans-Serif" font-size="8.00"> S_MAX_LENGTH</text>
</g>
<!-- Node20&#45;&gt;Node1 -->
<g id="edge20" class="edge">
<title>Node20&#45;&gt;Node1</title>
<path fill="none" stroke="#9a32cd" stroke-dasharray="5,2" d="M786.64,-348.95C822.82,-347.95 867.63,-342.14 903,-323 934.4,-306.01 959.3,-272.57 974.06,-248.83"/>
<polygon fill="#9a32cd" stroke="#9a32cd" points="786.13,-345.45 776.19,-349.11 786.24,-352.45 786.13,-345.45"/>
<text text-anchor="middle" x="857.5" y="-349.6" font-family="Helvetica,sans-Serif" font-size="8.00"> m_srv_namespace</text>
</g>
<!-- Node20&#45;&gt;Node20 -->
<g id="edge21" class="edge">
<title>Node20&#45;&gt;Node20</title>
<path fill="none" stroke="#9a32cd" stroke-dasharray="5,2" d="M695.5,-363.1C695.73,-368.62 704.22,-373 721,-373 745.97,-373 752.6,-363.29 740.9,-354.57"/>
<polygon fill="#9a32cd" stroke="#9a32cd" points="698.54,-364.85 701.1,-354.57 692.69,-361.01 698.54,-364.85"/>
<text text-anchor="middle" x="721" y="-438.6" font-family="Helvetica,sans-Serif" font-size="8.00"> S_1ST_OR_ONLY</text>
<text text-anchor="middle" x="721" y="-429.6" font-family="Helvetica,sans-Serif" font-size="8.00">S_EMPTY</text>
<text text-anchor="start" x="682.5" y="-420.6" font-family="Helvetica,sans-Serif" font-size="8.00">S_RESOURCE_TYPE</text>
<text text-anchor="middle" x="721" y="-411.6" font-family="Helvetica,sans-Serif" font-size="8.00">_ID_MUTEX</text>
<text text-anchor="start" x="682.5" y="-402.6" font-family="Helvetica,sans-Serif" font-size="8.00">S_RESOURCE_TYPE</text>
<text text-anchor="middle" x="721" y="-393.6" font-family="Helvetica,sans-Serif" font-size="8.00">_ID_SHM</text>
<text text-anchor="middle" x="721" y="-384.6" font-family="Helvetica,sans-Serif" font-size="8.00">S_ROOT_MAGIC</text>
<text text-anchor="middle" x="721" y="-375.6" font-family="Helvetica,sans-Serif" font-size="8.00">S_SENTINEL</text>
</g>
<!-- Node21 -->
<g id="node20" class="node">
<title>Node21</title>
<g id="a_node20"><a xlink:title=" ">
<polygon fill="white" stroke="#bfbfbf" points="401.5,-337.5 401.5,-354.5 485.5,-354.5 485.5,-337.5 401.5,-337.5"/>
<text text-anchor="middle" x="443.5" y="-344.1" font-family="Helvetica,sans-Serif" font-size="8.00">static const char</text>
</a>
</g>
</g>
<!-- Node21&#45;&gt;Node20 -->
<g id="edge23" class="edge">
<title>Node21&#45;&gt;Node20</title>
<path fill="none" stroke="#9a32cd" stroke-dasharray="5,2" d="M495.99,-346C544.33,-346 616.39,-346 665.65,-346"/>
<polygon fill="#9a32cd" stroke="#9a32cd" points="495.75,-342.5 485.75,-346 495.75,-349.5 495.75,-342.5"/>
<text text-anchor="middle" x="577" y="-348.6" font-family="Helvetica,sans-Serif" font-size="8.00"> S_SEPARATOR</text>
</g>
<!-- Node22 -->
<g id="node21" class="node">
<title>Node22</title>
<g id="a_node21"><a xlink:title=" ">
<polygon fill="white" stroke="#bfbfbf" points="670.5,-145.5 670.5,-162.5 771.5,-162.5 771.5,-145.5 670.5,-145.5"/>
<text text-anchor="middle" x="721" y="-152.1" font-family="Helvetica,sans-Serif" font-size="8.00">Mutex_non_recursive</text>
</a>
</g>
</g>
<!-- Node22&#45;&gt;Node1 -->
<g id="edge25" class="edge">
<title>Node22&#45;&gt;Node1</title>
<path fill="none" stroke="#9a32cd" stroke-dasharray="5,2" d="M765.47,-165.07C807.51,-175.78 871.86,-192.17 920.74,-204.61"/>
<polygon fill="#9a32cd" stroke="#9a32cd" points="766.1,-161.62 755.55,-162.54 764.37,-168.4 766.1,-161.62"/>
<text text-anchor="middle" x="857.5" y="-202.6" font-family="Helvetica,sans-Serif" font-size="8.00"> m_app_shm_mutex</text>
</g>
<!-- Node23 -->
<g id="node22" class="node">
<title>Node23</title>
<g id="a_node22"><a xlink:title=" ">
<polygon fill="white" stroke="#bfbfbf" points="662.5,-91.5 662.5,-126.5 779.5,-126.5 779.5,-91.5 662.5,-91.5"/>
<text text-anchor="start" x="670.5" y="-116.1" font-family="Helvetica,sans-Serif" font-size="8.00">unordered_map&lt; std</text>
<text text-anchor="start" x="670.5" y="-107.1" font-family="Helvetica,sans-Serif" font-size="8.00">::string, boost::movelib</text>
<text text-anchor="middle" x="721" y="-98.1" font-family="Helvetica,sans-Serif" font-size="8.00">::unique_ptr&lt; Arena &gt; &gt;</text>
</a>
</g>
</g>
<!-- Node23&#45;&gt;Node1 -->
<g id="edge26" class="edge">
<title>Node23&#45;&gt;Node1</title>
<path fill="none" stroke="#9a32cd" stroke-dasharray="5,2" d="M789.94,-124.5C824.68,-133.69 867.1,-146.92 903,-164 920.89,-172.51 939.28,-184.42 954.44,-195.23"/>
<polygon fill="#9a32cd" stroke="#9a32cd" points="790.44,-121.01 779.88,-121.89 788.69,-127.79 790.44,-121.01"/>
<text text-anchor="middle" x="857.5" y="-166.6" font-family="Helvetica,sans-Serif" font-size="8.00"> m_app_shm_by_name</text>
</g>
<!-- Node24 -->
<g id="node23" class="node">
<title>Node24</title>
<g id="a_node23"><a xlink:title=" ">
<polygon fill="white" stroke="#bfbfbf" points="652.5,-46 652.5,-72 789.5,-72 789.5,-46 652.5,-46"/>
<text text-anchor="start" x="660.5" y="-61.6" font-family="Helvetica,sans-Serif" font-size="8.00">shared_ptr&lt; std::vector</text>
<text text-anchor="middle" x="721" y="-52.6" font-family="Helvetica,sans-Serif" font-size="8.00">&lt; ipc::util::Shared_name &gt; &gt;</text>
</a>
</g>
</g>
<!-- Node24&#45;&gt;Node1 -->
<g id="edge27" class="edge">
<title>Node24&#45;&gt;Node1</title>
<path fill="none" stroke="#9a32cd" stroke-dasharray="5,2" d="M799.6,-73.97C833.38,-83 872.2,-96.96 903,-118 932.79,-138.36 957.86,-171.86 973.11,-195.32"/>
<polygon fill="#9a32cd" stroke="#9a32cd" points="800.31,-70.54 789.75,-71.44 798.56,-77.32 800.31,-70.54"/>
<text text-anchor="middle" x="857.5" y="-120.6" font-family="Helvetica,sans-Serif" font-size="8.00"> m_shm_pool_names</text>
</g>
</g>
</svg>
