<?xml version="1.0" encoding="UTF-8" standalone="no"?>
<!DOCTYPE svg PUBLIC "-//W3C//DTD SVG 1.1//EN"
 "http://www.w3.org/Graphics/SVG/1.1/DTD/svg11.dtd">
<!-- Generated by graphviz version 2.43.0 (0)
 -->
<!-- Title: ipc::session::Client_session_impl&lt; S_MQ_TYPE_OR_NONE, S_TRANSMIT_NATIVE_HANDLES, Mdt_payload, S_SHM_TYPE_OR_NONE, S_GRACEFUL_FINISH_REQUIRED_V &gt; Pages: 1 -->
<svg width="493pt" height="90pt"
 viewBox="0.00 0.00 493.00 89.50" xmlns="http://www.w3.org/2000/svg" xmlns:xlink="http://www.w3.org/1999/xlink">
<g id="graph0" class="graph" transform="scale(1 1) rotate(0) translate(4 85.5)">
<title>ipc::session::Client_session_impl&lt; S_MQ_TYPE_OR_NONE, S_TRANSMIT_NATIVE_HANDLES, Mdt_payload, S_SHM_TYPE_OR_NONE, S_GRACEFUL_FINISH_REQUIRED_V &gt;</title>
<polygon fill="white" stroke="transparent" points="-4,4 -4,-85.5 489,-85.5 489,4 -4,4"/>
<!-- Node1 -->
<g id="node1" class="node">
<title>Node1</title>
<g id="a_node1"><a xlink:title="Internal, non&#45;movable pImpl&#45;lite implementation of Client_session_mv class template.">
<polygon fill="#bfbfbf" stroke="black" points="317,-3 317,-65 485,-65 485,-3 317,-3"/>
<text text-anchor="start" x="325" y="-54.6" font-family="Helvetica,sans-Serif" font-size="8.00">ipc::session::Client</text>
<text text-anchor="start" x="325" y="-45.6" font-family="Helvetica,sans-Serif" font-size="8.00">_session_impl&lt; S_MQ_TYPE</text>
<text text-anchor="start" x="325" y="-36.6" font-family="Helvetica,sans-Serif" font-size="8.00">_OR_NONE, S_TRANSMIT_NATIVE</text>
<text text-anchor="start" x="325" y="-27.6" font-family="Helvetica,sans-Serif" font-size="8.00">_HANDLES, Mdt_payload, S_SHM</text>
<text text-anchor="start" x="325" y="-18.6" font-family="Helvetica,sans-Serif" font-size="8.00">_TYPE_OR_NONE, S_GRACEFUL_FINISH</text>
<text text-anchor="middle" x="401" y="-9.6" font-family="Helvetica,sans-Serif" font-size="8.00">_REQUIRED_V &gt;</text>
</a>
</g>
</g>
<!-- Node2 -->
<g id="node2" class="node">
<title>Node2</title>
<g id="a_node2"><a xlink:href="classipc_1_1session_1_1Session__base.html" target="_top" xlink:title="Internal type containing data and types common to internal types Server_session_impl and Client_sessi...">
<polygon fill="white" stroke="black" points="135,-37 135,-81 281,-81 281,-37 135,-37"/>
<text text-anchor="start" x="143" y="-70.6" font-family="Helvetica,sans-Serif" font-size="8.00">ipc::session::Session</text>
<text text-anchor="start" x="143" y="-61.6" font-family="Helvetica,sans-Serif" font-size="8.00">_base&lt; S_MQ_TYPE_OR_NONE,</text>
<text text-anchor="start" x="143" y="-52.6" font-family="Helvetica,sans-Serif" font-size="8.00"> S_TRANSMIT_NATIVE_HANDLES,</text>
<text text-anchor="middle" x="208" y="-43.6" font-family="Helvetica,sans-Serif" font-size="8.00"> Mdt_payload &gt;</text>
</a>
</g>
</g>
<!-- Node2&#45;&gt;Node1 -->
<g id="edge1" class="edge">
<title>Node2&#45;&gt;Node1</title>
<path fill="none" stroke="midnightblue" d="M291.39,-48.22C299.81,-47.11 308.37,-45.99 316.79,-44.89"/>
<polygon fill="midnightblue" stroke="midnightblue" points="290.67,-44.78 281.21,-49.55 291.58,-51.72 290.67,-44.78"/>
</g>
<!-- Node3 -->
<g id="node3" class="node">
<title>Node3</title>
<g id="a_node3"><a xlink:title=" ">
<polygon fill="white" stroke="#bfbfbf" points="0,-50.5 0,-67.5 99,-67.5 99,-50.5 0,-50.5"/>
<text text-anchor="middle" x="49.5" y="-57.1" font-family="Helvetica,sans-Serif" font-size="8.00">boost::noncopyable</text>
</a>
</g>
</g>
<!-- Node3&#45;&gt;Node2 -->
<g id="edge2" class="edge">
<title>Node3&#45;&gt;Node2</title>
<path fill="none" stroke="#8b1a1a" d="M109.18,-59C117.54,-59 126.23,-59 134.82,-59"/>
<polygon fill="#8b1a1a" stroke="#8b1a1a" points="109.16,-55.5 99.16,-59 109.16,-62.5 109.16,-55.5"/>
</g>
<!-- Node4 -->
<g id="node4" class="node">
<title>Node4</title>
<g id="a_node4"><a xlink:title=" ">
<polygon fill="white" stroke="#bfbfbf" points="154.5,-0.5 154.5,-17.5 261.5,-17.5 261.5,-0.5 154.5,-0.5"/>
<text text-anchor="middle" x="208" y="-7.1" font-family="Helvetica,sans-Serif" font-size="8.00">flow::log::Log_context</text>
</a>
</g>
</g>
<!-- Node4&#45;&gt;Node1 -->
<g id="edge3" class="edge">
<title>Node4&#45;&gt;Node1</title>
<path fill="none" stroke="midnightblue" d="M271.9,-17.23C286.21,-19.11 301.63,-21.12 316.65,-23.09"/>
<polygon fill="midnightblue" stroke="midnightblue" points="272.07,-13.73 261.7,-15.9 271.16,-20.67 272.07,-13.73"/>
</g>
</g>
</svg>
