<?xml version="1.0" encoding="UTF-8" standalone="no"?>
<!DOCTYPE svg PUBLIC "-//W3C//DTD SVG 1.1//EN"
 "http://www.w3.org/Graphics/SVG/1.1/DTD/svg11.dtd">
<!-- Generated by graphviz version 2.43.0 (0)
 -->
<!-- Title: ipc::transport::Posix_mq_handle::operator&lt;&lt; Pages: 1 -->
<svg width="298pt" height="80pt"
 viewBox="0.00 0.00 298.00 80.00" xmlns="http://www.w3.org/2000/svg" xmlns:xlink="http://www.w3.org/1999/xlink">
<g id="graph0" class="graph" transform="scale(1 1) rotate(0) translate(4 76)">
<title>ipc::transport::Posix_mq_handle::operator&lt;&lt;</title>
<polygon fill="white" stroke="transparent" points="-4,4 -4,-76 294,-76 294,4 -4,4"/>
<!-- Node1 -->
<g id="node1" class="node">
<title>Node1</title>
<g id="a_node1"><a xlink:title="Prints string representation of the given Posix_mq_handle to the given ostream.">
<polygon fill="#bfbfbf" stroke="black" points="0,-22.5 0,-48.5 120,-48.5 120,-22.5 0,-22.5"/>
<text text-anchor="start" x="8" y="-38.1" font-family="Helvetica,sans-Serif" font-size="8.00">ipc::transport::Posix</text>
<text text-anchor="middle" x="60" y="-29.1" font-family="Helvetica,sans-Serif" font-size="8.00">_mq_handle::operator&lt;&lt;</text>
</a>
</g>
</g>
<!-- Node2 -->
<g id="node2" class="node">
<title>Node2</title>
<g id="a_node2"><a xlink:href="classipc_1_1transport_1_1Posix__mq__handle.html#a7d62af06a8cea2a821908384ee098125" target="_top" xlink:title="Implements Persistent_mq_handle API: Returns name equal to absolute_name passed to ctor.">
<polygon fill="white" stroke="black" points="156,-45.5 156,-71.5 290,-71.5 290,-45.5 156,-45.5"/>
<text text-anchor="start" x="164" y="-61.1" font-family="Helvetica,sans-Serif" font-size="8.00">ipc::transport::Posix</text>
<text text-anchor="middle" x="223" y="-52.1" font-family="Helvetica,sans-Serif" font-size="8.00">_mq_handle::absolute_name</text>
</a>
</g>
</g>
<!-- Node1&#45;&gt;Node2 -->
<g id="edge1" class="edge">
<title>Node1&#45;&gt;Node2</title>
<path fill="none" stroke="midnightblue" d="M120.04,-43.93C128.42,-45.13 137.14,-46.38 145.8,-47.61"/>
<polygon fill="midnightblue" stroke="midnightblue" points="145.51,-51.11 155.9,-49.06 146.5,-44.18 145.51,-51.11"/>
</g>
<!-- Node3 -->
<g id="node3" class="node">
<title>Node3</title>
<g id="a_node3"><a xlink:href="classipc_1_1transport_1_1Posix__mq__handle.html#a62bc5410c9928099dff46ba021acb879" target="_top" xlink:title="Implements Persistent_mq_handle API: Returns the stored native MQ handle; null if not open.">
<polygon fill="white" stroke="black" points="158.5,-0.5 158.5,-26.5 287.5,-26.5 287.5,-0.5 158.5,-0.5"/>
<text text-anchor="start" x="166.5" y="-16.1" font-family="Helvetica,sans-Serif" font-size="8.00">ipc::transport::Posix</text>
<text text-anchor="middle" x="223" y="-7.1" font-family="Helvetica,sans-Serif" font-size="8.00">_mq_handle::native_handle</text>
</a>
</g>
</g>
<!-- Node1&#45;&gt;Node3 -->
<g id="edge2" class="edge">
<title>Node1&#45;&gt;Node3</title>
<path fill="none" stroke="midnightblue" d="M120.04,-27.43C129.2,-26.18 138.76,-24.87 148.2,-23.59"/>
<polygon fill="midnightblue" stroke="midnightblue" points="148.93,-27.02 158.36,-22.2 147.98,-20.08 148.93,-27.02"/>
</g>
</g>
</svg>
