<?xml version="1.0" encoding="UTF-8" standalone="no"?>
<!DOCTYPE svg PUBLIC "-//W3C//DTD SVG 1.1//EN"
 "http://www.w3.org/Graphics/SVG/1.1/DTD/svg11.dtd">
<!-- Generated by graphviz version 2.43.0 (0)
 -->
<!-- Title: ipc::shm::classic::Pool_arena::borrow_object Pages: 1 -->
<svg width="432pt" height="44pt"
 viewBox="0.00 0.00 432.00 44.00" xmlns="http://www.w3.org/2000/svg" xmlns:xlink="http://www.w3.org/1999/xlink">
<g id="graph0" class="graph" transform="scale(1 1) rotate(0) translate(4 40)">
<title>ipc::shm::classic::Pool_arena::borrow_object</title>
<polygon fill="white" stroke="transparent" points="-4,4 -4,-40 428,-40 428,4 -4,4"/>
<!-- Node1 -->
<g id="node1" class="node">
<title>Node1</title>
<g id="a_node1"><a xlink:title="Completes the cross&#45;process operation begun by lend_object() that returned serialization; to be invok...">
<polygon fill="#bfbfbf" stroke="black" points="0,-5 0,-31 125,-31 125,-5 0,-5"/>
<text text-anchor="start" x="8" y="-20.6" font-family="Helvetica,sans-Serif" font-size="8.00">ipc::shm::classic::</text>
<text text-anchor="middle" x="62.5" y="-11.6" font-family="Helvetica,sans-Serif" font-size="8.00">Pool_arena::borrow_object</text>
</a>
</g>
</g>
<!-- Node2 -->
<g id="node2" class="node">
<title>Node2</title>
<g id="a_node2"><a xlink:href="classipc_1_1shm_1_1classic_1_1Pool__arena.html#a45359fe5cbb7ec72a117812c20c35400" target="_top" xlink:title="Returns true if and only if all sizeof(T) bytes at address obj are within the bounds of the pool acce...">
<polygon fill="white" stroke="black" points="161,-5 161,-31 291,-31 291,-5 161,-5"/>
<text text-anchor="start" x="169" y="-20.6" font-family="Helvetica,sans-Serif" font-size="8.00">ipc::shm::classic::</text>
<text text-anchor="middle" x="226" y="-11.6" font-family="Helvetica,sans-Serif" font-size="8.00">Pool_arena::is_obj_in_arena</text>
</a>
</g>
</g>
<!-- Node1&#45;&gt;Node2 -->
<g id="edge1" class="edge">
<title>Node1&#45;&gt;Node2</title>
<path fill="none" stroke="midnightblue" d="M125.02,-18C133.47,-18 142.23,-18 150.88,-18"/>
<polygon fill="midnightblue" stroke="midnightblue" points="150.97,-21.5 160.97,-18 150.97,-14.5 150.97,-21.5"/>
</g>
<!-- Node3 -->
<g id="node3" class="node">
<title>Node3</title>
<g id="a_node3"><a xlink:href="classipc_1_1shm_1_1classic_1_1Pool__arena.html#a88b632d6a9d1248810175a6b65d7f638" target="_top" xlink:title="Returns true if and only if the byte at p is within the bounds of the pool accessed by *this.">
<polygon fill="white" stroke="black" points="327,-0.5 327,-35.5 424,-35.5 424,-0.5 327,-0.5"/>
<text text-anchor="start" x="335" y="-25.1" font-family="Helvetica,sans-Serif" font-size="8.00">ipc::shm::classic::</text>
<text text-anchor="start" x="335" y="-16.1" font-family="Helvetica,sans-Serif" font-size="8.00">Pool_arena::is_addr</text>
<text text-anchor="middle" x="375.5" y="-7.1" font-family="Helvetica,sans-Serif" font-size="8.00">_in_arena</text>
</a>
</g>
</g>
<!-- Node2&#45;&gt;Node3 -->
<g id="edge2" class="edge">
<title>Node2&#45;&gt;Node3</title>
<path fill="none" stroke="midnightblue" d="M291.27,-18C299.77,-18 308.44,-18 316.82,-18"/>
<polygon fill="midnightblue" stroke="midnightblue" points="316.86,-21.5 326.86,-18 316.86,-14.5 316.86,-21.5"/>
</g>
</g>
</svg>
