<?xml version="1.0" encoding="UTF-8" standalone="no"?>
<!DOCTYPE svg PUBLIC "-//W3C//DTD SVG 1.1//EN"
 "http://www.w3.org/Graphics/SVG/1.1/DTD/svg11.dtd">
<!-- Generated by graphviz version 2.43.0 (0)
 -->
<!-- Title: ipc::transport::Native_socket_stream::impl Pages: 1 -->
<svg width="606pt" height="803pt"
 viewBox="0.00 0.00 606.00 803.00" xmlns="http://www.w3.org/2000/svg" xmlns:xlink="http://www.w3.org/1999/xlink">
<g id="graph0" class="graph" transform="scale(1 1) rotate(0) translate(4 799)">
<title>ipc::transport::Native_socket_stream::impl</title>
<polygon fill="white" stroke="transparent" points="-4,4 -4,-799 602,-799 602,4 -4,4"/>
<!-- Node1 -->
<g id="node1" class="node">
<title>Node1</title>
<g id="a_node1"><a xlink:title="Helper that simply returns m_impl while guaranteeing that m_impl is non&#45;null upon return.">
<polygon fill="#bfbfbf" stroke="black" points="494,-392 494,-418 598,-418 598,-392 494,-392"/>
<text text-anchor="start" x="502" y="-407.6" font-family="Helvetica,sans-Serif" font-size="8.00">ipc::transport::Native</text>
<text text-anchor="middle" x="546" y="-398.6" font-family="Helvetica,sans-Serif" font-size="8.00">_socket_stream::impl</text>
</a>
</g>
</g>
<!-- Node2 -->
<g id="node2" class="node">
<title>Node2</title>
<g id="a_node2"><a xlink:href="classipc_1_1transport_1_1Native__socket__stream.html#a5f2128f86d75975f5a62ed3b59fb8e1e" target="_top" xlink:title="Template&#45;free version of async_connect() as required by pImpl idiom.">
<polygon fill="white" stroke="black" points="331.5,-759.5 331.5,-794.5 441.5,-794.5 441.5,-759.5 331.5,-759.5"/>
<text text-anchor="start" x="339.5" y="-784.1" font-family="Helvetica,sans-Serif" font-size="8.00">ipc::transport::Native</text>
<text text-anchor="start" x="339.5" y="-775.1" font-family="Helvetica,sans-Serif" font-size="8.00">_socket_stream::async</text>
<text text-anchor="middle" x="386.5" y="-766.1" font-family="Helvetica,sans-Serif" font-size="8.00">_connect_fwd</text>
</a>
</g>
</g>
<!-- Node1&#45;&gt;Node2 -->
<g id="edge1" class="edge">
<title>Node1&#45;&gt;Node2</title>
<path fill="none" stroke="midnightblue" d="M541.92,-428.48C532.38,-498.03 501.32,-701.21 458,-750 453.48,-755.1 447.88,-759.24 441.84,-762.6"/>
<polygon fill="midnightblue" stroke="midnightblue" points="545.45,-428.53 543.32,-418.15 538.51,-427.6 545.45,-428.53"/>
</g>
<!-- Node4 -->
<g id="node4" class="node">
<title>Node4</title>
<g id="a_node4"><a xlink:href="classipc_1_1transport_1_1Native__socket__stream.html#a949ab3296e29230518095d1f00f57a93" target="_top" xlink:title="Template&#45;free version of async_end_sending() as required by pImpl idiom.">
<polygon fill="white" stroke="black" points="331.5,-705.5 331.5,-740.5 441.5,-740.5 441.5,-705.5 331.5,-705.5"/>
<text text-anchor="start" x="339.5" y="-730.1" font-family="Helvetica,sans-Serif" font-size="8.00">ipc::transport::Native</text>
<text text-anchor="start" x="339.5" y="-721.1" font-family="Helvetica,sans-Serif" font-size="8.00">_socket_stream::async</text>
<text text-anchor="middle" x="386.5" y="-712.1" font-family="Helvetica,sans-Serif" font-size="8.00">_end_sending_fwd</text>
</a>
</g>
</g>
<!-- Node1&#45;&gt;Node4 -->
<g id="edge3" class="edge">
<title>Node1&#45;&gt;Node4</title>
<path fill="none" stroke="midnightblue" d="M544.66,-428.61C542.63,-482.96 530.14,-618.22 458,-696 453.37,-701 447.7,-705.08 441.63,-708.41"/>
<polygon fill="midnightblue" stroke="midnightblue" points="548.17,-428.39 544.96,-418.29 541.17,-428.19 548.17,-428.39"/>
</g>
<!-- Node7 -->
<g id="node7" class="node">
<title>Node7</title>
<g id="a_node7"><a xlink:href="classipc_1_1transport_1_1Native__socket__stream.html#a5a134afa6a1f07f956e13fc0835873ee" target="_top" xlink:title="Template&#45;free version of async_receive_blob() as required by pImpl idiom.">
<polygon fill="white" stroke="black" points="331.5,-651.5 331.5,-686.5 441.5,-686.5 441.5,-651.5 331.5,-651.5"/>
<text text-anchor="start" x="339.5" y="-676.1" font-family="Helvetica,sans-Serif" font-size="8.00">ipc::transport::Native</text>
<text text-anchor="start" x="339.5" y="-667.1" font-family="Helvetica,sans-Serif" font-size="8.00">_socket_stream::async</text>
<text text-anchor="middle" x="386.5" y="-658.1" font-family="Helvetica,sans-Serif" font-size="8.00">_receive_blob_fwd</text>
</a>
</g>
</g>
<!-- Node1&#45;&gt;Node7 -->
<g id="edge6" class="edge">
<title>Node1&#45;&gt;Node7</title>
<path fill="none" stroke="midnightblue" d="M542.83,-428.01C537.24,-474.62 518.26,-580.89 458,-642 453.31,-646.76 447.69,-650.69 441.69,-653.94"/>
<polygon fill="midnightblue" stroke="midnightblue" points="546.31,-428.33 543.93,-418.01 539.35,-427.57 546.31,-428.33"/>
</g>
<!-- Node9 -->
<g id="node9" class="node">
<title>Node9</title>
<g id="a_node9"><a xlink:href="classipc_1_1transport_1_1Native__socket__stream.html#ab6df246711fd2ca98c10ed1235e0aa1c" target="_top" xlink:title="Template&#45;free version of async_receive_native_handle() as required by pImpl idiom.">
<polygon fill="white" stroke="black" points="321,-597.5 321,-632.5 452,-632.5 452,-597.5 321,-597.5"/>
<text text-anchor="start" x="329" y="-622.1" font-family="Helvetica,sans-Serif" font-size="8.00">ipc::transport::Native</text>
<text text-anchor="start" x="329" y="-613.1" font-family="Helvetica,sans-Serif" font-size="8.00">_socket_stream::async</text>
<text text-anchor="middle" x="386.5" y="-604.1" font-family="Helvetica,sans-Serif" font-size="8.00">_receive_native_handle_fwd</text>
</a>
</g>
</g>
<!-- Node1&#45;&gt;Node9 -->
<g id="edge8" class="edge">
<title>Node1&#45;&gt;Node9</title>
<path fill="none" stroke="midnightblue" d="M539.91,-428.24C530.35,-466.62 506.19,-543.43 458,-588 454.15,-591.56 449.78,-594.67 445.15,-597.37"/>
<polygon fill="midnightblue" stroke="midnightblue" points="543.42,-428.6 542.32,-418.06 536.61,-426.99 543.42,-428.6"/>
</g>
<!-- Node11 -->
<g id="node11" class="node">
<title>Node11</title>
<g id="a_node11"><a xlink:href="classipc_1_1transport_1_1Native__socket__stream.html#aa5e699d5eead4220bf8b5604f629a970" target="_top" xlink:title="Implements Native_handle_sender, Blob_sender API per contract.">
<polygon fill="white" stroke="black" points="323.5,-552 323.5,-578 449.5,-578 449.5,-552 323.5,-552"/>
<text text-anchor="start" x="331.5" y="-567.6" font-family="Helvetica,sans-Serif" font-size="8.00">ipc::transport::Native</text>
<text text-anchor="middle" x="386.5" y="-558.6" font-family="Helvetica,sans-Serif" font-size="8.00">_socket_stream::auto_ping</text>
</a>
</g>
</g>
<!-- Node1&#45;&gt;Node11 -->
<g id="edge10" class="edge">
<title>Node1&#45;&gt;Node11</title>
<path fill="none" stroke="midnightblue" d="M536.61,-427.59C524.12,-458.18 497.74,-512.45 458,-543 453.43,-546.52 448.28,-549.48 442.91,-551.97"/>
<polygon fill="midnightblue" stroke="midnightblue" points="539.9,-428.78 540.32,-418.19 533.39,-426.21 539.9,-428.78"/>
</g>
<!-- Node12 -->
<g id="node12" class="node">
<title>Node12</title>
<g id="a_node12"><a xlink:href="classipc_1_1transport_1_1Native__socket__stream.html#ace134e4a6e4918212f256b60c3ed77e4" target="_top" xlink:title="Implements Native_handle_sender, Blob_sender API per contract.">
<polygon fill="white" stroke="black" points="317.5,-507 317.5,-533 455.5,-533 455.5,-507 317.5,-507"/>
<text text-anchor="start" x="325.5" y="-522.6" font-family="Helvetica,sans-Serif" font-size="8.00">ipc::transport::Native</text>
<text text-anchor="middle" x="386.5" y="-513.6" font-family="Helvetica,sans-Serif" font-size="8.00">_socket_stream::end_sending</text>
</a>
</g>
</g>
<!-- Node1&#45;&gt;Node12 -->
<g id="edge11" class="edge">
<title>Node1&#45;&gt;Node12</title>
<path fill="none" stroke="midnightblue" d="M530.15,-426.44C514.5,-447.52 487.98,-479.18 458,-498 452.46,-501.48 446.33,-504.44 440.07,-506.96"/>
<polygon fill="midnightblue" stroke="midnightblue" points="533.14,-428.28 536.17,-418.13 527.47,-424.17 533.14,-428.28"/>
</g>
<!-- Node13 -->
<g id="node13" class="node">
<title>Node13</title>
<g id="a_node13"><a xlink:href="classipc_1_1transport_1_1Native__socket__stream.html#a1b4ce3ddee39f21e752ec9114ac17bbd" target="_top" xlink:title="Implements Native_handle_receiver, Blob_receiver API per contract.">
<polygon fill="white" stroke="black" points="315,-462 315,-488 458,-488 458,-462 315,-462"/>
<text text-anchor="start" x="323" y="-477.6" font-family="Helvetica,sans-Serif" font-size="8.00">ipc::transport::Native</text>
<text text-anchor="middle" x="386.5" y="-468.6" font-family="Helvetica,sans-Serif" font-size="8.00">_socket_stream::idle_timer_run</text>
</a>
</g>
</g>
<!-- Node1&#45;&gt;Node13 -->
<g id="edge12" class="edge">
<title>Node1&#45;&gt;Node13</title>
<path fill="none" stroke="midnightblue" d="M515.5,-423.22C499,-432.92 477.81,-444.55 458,-453 450.33,-456.27 442.02,-459.3 433.87,-462"/>
<polygon fill="midnightblue" stroke="midnightblue" points="517.35,-426.2 524.15,-418.07 513.77,-420.18 517.35,-426.2"/>
</g>
<!-- Node14 -->
<g id="node14" class="node">
<title>Node14</title>
<g id="a_node14"><a xlink:href="classipc_1_1transport_1_1Native__socket__stream.html#a25d9c0e12a03a3b68f7f266c23466f71" target="_top" xlink:title="Returns nickname, a brief string suitable for logging.">
<polygon fill="white" stroke="black" points="324,-417 324,-443 449,-443 449,-417 324,-417"/>
<text text-anchor="start" x="332" y="-432.6" font-family="Helvetica,sans-Serif" font-size="8.00">ipc::transport::Native</text>
<text text-anchor="middle" x="386.5" y="-423.6" font-family="Helvetica,sans-Serif" font-size="8.00">_socket_stream::nickname</text>
</a>
</g>
</g>
<!-- Node1&#45;&gt;Node14 -->
<g id="edge13" class="edge">
<title>Node1&#45;&gt;Node14</title>
<path fill="none" stroke="midnightblue" d="M483.97,-414.69C472.53,-416.5 460.56,-418.4 449.1,-420.22"/>
<polygon fill="midnightblue" stroke="midnightblue" points="484.54,-418.14 493.86,-413.12 483.44,-411.23 484.54,-418.14"/>
</g>
<!-- Node16 -->
<g id="node16" class="node">
<title>Node16</title>
<g id="a_node16"><a xlink:href="classipc_1_1transport_1_1Native__socket__stream.html#adb667160fd0ab3951d93d219d7bdc3be" target="_top" xlink:title="Implements Blob_receiver API per contract.">
<polygon fill="white" stroke="black" points="328.5,-362.5 328.5,-397.5 444.5,-397.5 444.5,-362.5 328.5,-362.5"/>
<text text-anchor="start" x="336.5" y="-387.1" font-family="Helvetica,sans-Serif" font-size="8.00">ipc::transport::Native</text>
<text text-anchor="start" x="336.5" y="-378.1" font-family="Helvetica,sans-Serif" font-size="8.00">_socket_stream::receive</text>
<text text-anchor="middle" x="386.5" y="-369.1" font-family="Helvetica,sans-Serif" font-size="8.00">_blob_max_size</text>
</a>
</g>
</g>
<!-- Node1&#45;&gt;Node16 -->
<g id="edge15" class="edge">
<title>Node1&#45;&gt;Node16</title>
<path fill="none" stroke="midnightblue" d="M483.72,-395.27C470.86,-393.23 457.35,-391.09 444.65,-389.07"/>
<polygon fill="midnightblue" stroke="midnightblue" points="483.44,-398.77 493.86,-396.88 484.54,-391.86 483.44,-398.77"/>
</g>
<!-- Node18 -->
<g id="node18" class="node">
<title>Node18</title>
<g id="a_node18"><a xlink:href="classipc_1_1transport_1_1Native__socket__stream.html#ac7659af6812efca67c410af286f0cb34" target="_top" xlink:title="Implements Native_handle_receiver API per contract.">
<polygon fill="white" stroke="black" points="328.5,-308.5 328.5,-343.5 444.5,-343.5 444.5,-308.5 328.5,-308.5"/>
<text text-anchor="start" x="336.5" y="-333.1" font-family="Helvetica,sans-Serif" font-size="8.00">ipc::transport::Native</text>
<text text-anchor="start" x="336.5" y="-324.1" font-family="Helvetica,sans-Serif" font-size="8.00">_socket_stream::receive</text>
<text text-anchor="middle" x="386.5" y="-315.1" font-family="Helvetica,sans-Serif" font-size="8.00">_meta_blob_max_size</text>
</a>
</g>
</g>
<!-- Node1&#45;&gt;Node18 -->
<g id="edge17" class="edge">
<title>Node1&#45;&gt;Node18</title>
<path fill="none" stroke="midnightblue" d="M516.46,-386.23C499.81,-375.72 478.17,-362.8 458,-353 451.16,-349.68 443.8,-346.48 436.51,-343.51"/>
<polygon fill="midnightblue" stroke="midnightblue" points="514.85,-389.36 525.16,-391.79 518.62,-383.46 514.85,-389.36"/>
</g>
<!-- Node19 -->
<g id="node19" class="node">
<title>Node19</title>
<g id="a_node19"><a xlink:href="classipc_1_1transport_1_1Native__socket__stream.html#a559ef620bfc3f46220dc7c3522bed32d" target="_top" xlink:title="In PEER state only, with no prior send or receive ops, returns a sync_io::Native_socket_stream core (...">
<polygon fill="white" stroke="black" points="328.5,-263 328.5,-289 444.5,-289 444.5,-263 328.5,-263"/>
<text text-anchor="start" x="336.5" y="-278.6" font-family="Helvetica,sans-Serif" font-size="8.00">ipc::transport::Native</text>
<text text-anchor="middle" x="386.5" y="-269.6" font-family="Helvetica,sans-Serif" font-size="8.00">_socket_stream::release</text>
</a>
</g>
</g>
<!-- Node1&#45;&gt;Node19 -->
<g id="edge18" class="edge">
<title>Node1&#45;&gt;Node19</title>
<path fill="none" stroke="midnightblue" d="M532.39,-383.16C517.51,-359.23 490.62,-321.29 458,-299 452.26,-295.08 445.8,-291.79 439.19,-289.04"/>
<polygon fill="midnightblue" stroke="midnightblue" points="529.5,-385.14 537.67,-391.88 535.49,-381.51 529.5,-385.14"/>
</g>
<!-- Node20 -->
<g id="node20" class="node">
<title>Node20</title>
<g id="a_node20"><a xlink:href="classipc_1_1transport_1_1Native__socket__stream.html#af63671c0e30d39d3460331c4dd3742b2" target="_top" xlink:title="OS&#45;reported process credential (PID, etc.) info about the other connected peer&#39;s process,...">
<polygon fill="white" stroke="black" points="324,-208.5 324,-243.5 449,-243.5 449,-208.5 324,-208.5"/>
<text text-anchor="start" x="332" y="-233.1" font-family="Helvetica,sans-Serif" font-size="8.00">ipc::transport::Native</text>
<text text-anchor="start" x="332" y="-224.1" font-family="Helvetica,sans-Serif" font-size="8.00">_socket_stream::remote</text>
<text text-anchor="middle" x="386.5" y="-215.1" font-family="Helvetica,sans-Serif" font-size="8.00">_peer_process_credentials</text>
</a>
</g>
</g>
<!-- Node1&#45;&gt;Node20 -->
<g id="edge19" class="edge">
<title>Node1&#45;&gt;Node20</title>
<path fill="none" stroke="midnightblue" d="M537.35,-382.16C525.34,-349.51 499.09,-289.54 458,-254 453.42,-250.04 448.21,-246.59 442.74,-243.61"/>
<polygon fill="midnightblue" stroke="midnightblue" points="534.11,-383.48 540.75,-391.73 540.71,-381.14 534.11,-383.48"/>
</g>
<!-- Node21 -->
<g id="node21" class="node">
<title>Node21</title>
<g id="a_node21"><a xlink:href="classipc_1_1transport_1_1Native__socket__stream.html#a415febd76ee222c81d59d2bcfa9c01bc" target="_top" xlink:title="Implements Blob_sender API per contract.">
<polygon fill="white" stroke="black" points="322.5,-163 322.5,-189 450.5,-189 450.5,-163 322.5,-163"/>
<text text-anchor="start" x="330.5" y="-178.6" font-family="Helvetica,sans-Serif" font-size="8.00">ipc::transport::Native</text>
<text text-anchor="middle" x="386.5" y="-169.6" font-family="Helvetica,sans-Serif" font-size="8.00">_socket_stream::send_blob</text>
</a>
</g>
</g>
<!-- Node1&#45;&gt;Node21 -->
<g id="edge20" class="edge">
<title>Node1&#45;&gt;Node21</title>
<path fill="none" stroke="midnightblue" d="M541.62,-381.84C534.23,-339.48 512.69,-249.27 458,-199 453.73,-195.08 448.79,-191.83 443.54,-189.13"/>
<polygon fill="midnightblue" stroke="midnightblue" points="538.17,-382.45 543.24,-391.75 545.08,-381.32 538.17,-382.45"/>
</g>
<!-- Node22 -->
<g id="node22" class="node">
<title>Node22</title>
<g id="a_node22"><a xlink:href="classipc_1_1transport_1_1Native__socket__stream.html#a127a462a4aaf6e5cf1e42bdd33f51693" target="_top" xlink:title="Implements Blob_sender API per contract.">
<polygon fill="white" stroke="black" points="322.5,-108.5 322.5,-143.5 450.5,-143.5 450.5,-108.5 322.5,-108.5"/>
<text text-anchor="start" x="330.5" y="-133.1" font-family="Helvetica,sans-Serif" font-size="8.00">ipc::transport::Native</text>
<text text-anchor="start" x="330.5" y="-124.1" font-family="Helvetica,sans-Serif" font-size="8.00">_socket_stream::send_blob</text>
<text text-anchor="middle" x="386.5" y="-115.1" font-family="Helvetica,sans-Serif" font-size="8.00">_max_size</text>
</a>
</g>
</g>
<!-- Node1&#45;&gt;Node22 -->
<g id="edge21" class="edge">
<title>Node1&#45;&gt;Node22</title>
<path fill="none" stroke="midnightblue" d="M543.38,-381.56C538.76,-332.6 521.44,-218.59 458,-153 454.54,-149.42 450.55,-146.31 446.27,-143.6"/>
<polygon fill="midnightblue" stroke="midnightblue" points="539.91,-382.1 544.24,-391.77 546.89,-381.51 539.91,-382.1"/>
</g>
<!-- Node24 -->
<g id="node24" class="node">
<title>Node24</title>
<g id="a_node24"><a xlink:href="classipc_1_1transport_1_1Native__socket__stream.html#a844b8245c9341da8006f979c6b005893" target="_top" xlink:title="Implements Native_handle_sender API per contract.">
<polygon fill="white" stroke="black" points="321,-54.5 321,-89.5 452,-89.5 452,-54.5 321,-54.5"/>
<text text-anchor="start" x="329" y="-79.1" font-family="Helvetica,sans-Serif" font-size="8.00">ipc::transport::Native</text>
<text text-anchor="start" x="329" y="-70.1" font-family="Helvetica,sans-Serif" font-size="8.00">_socket_stream::send_meta</text>
<text text-anchor="middle" x="386.5" y="-61.1" font-family="Helvetica,sans-Serif" font-size="8.00">_blob_max_size</text>
</a>
</g>
</g>
<!-- Node1&#45;&gt;Node24 -->
<g id="edge23" class="edge">
<title>Node1&#45;&gt;Node24</title>
<path fill="none" stroke="midnightblue" d="M545.09,-381.69C544.04,-325.62 533.67,-181.71 458,-99 454.73,-95.42 450.93,-92.31 446.82,-89.62"/>
<polygon fill="midnightblue" stroke="midnightblue" points="541.59,-381.73 545.19,-391.69 548.59,-381.66 541.59,-381.73"/>
</g>
<!-- Node25 -->
<g id="node25" class="node">
<title>Node25</title>
<g id="a_node25"><a xlink:href="classipc_1_1transport_1_1Native__socket__stream.html#a555df6a81654160285ea35b545cfd23d" target="_top" xlink:title="Implements Native_handle_sender API per contract.">
<polygon fill="white" stroke="black" points="319,-0.5 319,-35.5 454,-35.5 454,-0.5 319,-0.5"/>
<text text-anchor="start" x="327" y="-25.1" font-family="Helvetica,sans-Serif" font-size="8.00">ipc::transport::Native</text>
<text text-anchor="start" x="327" y="-16.1" font-family="Helvetica,sans-Serif" font-size="8.00">_socket_stream::send_native</text>
<text text-anchor="middle" x="386.5" y="-7.1" font-family="Helvetica,sans-Serif" font-size="8.00">_handle</text>
</a>
</g>
</g>
<!-- Node1&#45;&gt;Node25 -->
<g id="edge24" class="edge">
<title>Node1&#45;&gt;Node25</title>
<path fill="none" stroke="midnightblue" d="M542.18,-381.44C533.17,-309.78 503.03,-96.23 458,-45 454.88,-41.46 451.25,-38.37 447.31,-35.7"/>
<polygon fill="midnightblue" stroke="midnightblue" points="538.74,-382.18 543.44,-391.68 545.69,-381.32 538.74,-382.18"/>
</g>
<!-- Node3 -->
<g id="node3" class="node">
<title>Node3</title>
<g id="a_node3"><a xlink:href="classipc_1_1transport_1_1Native__socket__stream.html#a3614a9677c1a203090b97ac935093390" target="_top" xlink:title="To be invoked in NULL state only, it asynchronously attempts to connect to an opposing Native_socket_...">
<polygon fill="white" stroke="black" points="157,-759.5 157,-794.5 267,-794.5 267,-759.5 157,-759.5"/>
<text text-anchor="start" x="165" y="-784.1" font-family="Helvetica,sans-Serif" font-size="8.00">ipc::transport::Native</text>
<text text-anchor="start" x="165" y="-775.1" font-family="Helvetica,sans-Serif" font-size="8.00">_socket_stream::async</text>
<text text-anchor="middle" x="212" y="-766.1" font-family="Helvetica,sans-Serif" font-size="8.00">_connect</text>
</a>
</g>
</g>
<!-- Node2&#45;&gt;Node3 -->
<g id="edge2" class="edge">
<title>Node2&#45;&gt;Node3</title>
<path fill="none" stroke="midnightblue" d="M321.12,-777C303.38,-777 284.32,-777 267.21,-777"/>
<polygon fill="midnightblue" stroke="midnightblue" points="321.39,-780.5 331.39,-777 321.39,-773.5 321.39,-780.5"/>
</g>
<!-- Node5 -->
<g id="node5" class="node">
<title>Node5</title>
<g id="a_node5"><a xlink:href="classipc_1_1transport_1_1Native__socket__stream.html#ac3cd00ddd2e0502677630320708277a3" target="_top" xlink:title="Implements Native_handle_sender, Blob_sender API per contract.">
<polygon fill="white" stroke="black" points="157,-705.5 157,-740.5 267,-740.5 267,-705.5 157,-705.5"/>
<text text-anchor="start" x="165" y="-730.1" font-family="Helvetica,sans-Serif" font-size="8.00">ipc::transport::Native</text>
<text text-anchor="start" x="165" y="-721.1" font-family="Helvetica,sans-Serif" font-size="8.00">_socket_stream::async</text>
<text text-anchor="middle" x="212" y="-712.1" font-family="Helvetica,sans-Serif" font-size="8.00">_end_sending</text>
</a>
</g>
</g>
<!-- Node4&#45;&gt;Node5 -->
<g id="edge4" class="edge">
<title>Node4&#45;&gt;Node5</title>
<path fill="none" stroke="midnightblue" d="M321.12,-723C303.38,-723 284.32,-723 267.21,-723"/>
<polygon fill="midnightblue" stroke="midnightblue" points="321.39,-726.5 331.39,-723 321.39,-719.5 321.39,-726.5"/>
</g>
<!-- Node6 -->
<g id="node6" class="node">
<title>Node6</title>
<g id="a_node6"><a xlink:href="classipc_1_1transport_1_1Native__socket__stream_1_1Impl.html#a39c3a466e4f61e20dfaa8d9b66266f61" target="_top" xlink:title="See Native_socket_stream counterpart.">
<polygon fill="white" stroke="black" points="0,-705.5 0,-740.5 109,-740.5 109,-705.5 0,-705.5"/>
<text text-anchor="start" x="8" y="-730.1" font-family="Helvetica,sans-Serif" font-size="8.00">ipc::transport::Native</text>
<text text-anchor="start" x="8" y="-721.1" font-family="Helvetica,sans-Serif" font-size="8.00">_socket_stream::Impl::</text>
<text text-anchor="middle" x="54.5" y="-712.1" font-family="Helvetica,sans-Serif" font-size="8.00">end_sending</text>
</a>
</g>
</g>
<!-- Node5&#45;&gt;Node6 -->
<g id="edge5" class="edge">
<title>Node5&#45;&gt;Node6</title>
<path fill="none" stroke="midnightblue" d="M146.33,-723C133.93,-723 121.07,-723 109.07,-723"/>
<polygon fill="midnightblue" stroke="midnightblue" points="146.61,-726.5 156.61,-723 146.61,-719.5 146.61,-726.5"/>
</g>
<!-- Node8 -->
<g id="node8" class="node">
<title>Node8</title>
<g id="a_node8"><a xlink:href="classipc_1_1transport_1_1Native__socket__stream.html#ac5572c8165e25f106f18d327c07d1c3f" target="_top" xlink:title="Implements Blob_receiver API per contract.">
<polygon fill="white" stroke="black" points="157,-651.5 157,-686.5 267,-686.5 267,-651.5 157,-651.5"/>
<text text-anchor="start" x="165" y="-676.1" font-family="Helvetica,sans-Serif" font-size="8.00">ipc::transport::Native</text>
<text text-anchor="start" x="165" y="-667.1" font-family="Helvetica,sans-Serif" font-size="8.00">_socket_stream::async</text>
<text text-anchor="middle" x="212" y="-658.1" font-family="Helvetica,sans-Serif" font-size="8.00">_receive_blob</text>
</a>
</g>
</g>
<!-- Node7&#45;&gt;Node8 -->
<g id="edge7" class="edge">
<title>Node7&#45;&gt;Node8</title>
<path fill="none" stroke="midnightblue" d="M321.12,-669C303.38,-669 284.32,-669 267.21,-669"/>
<polygon fill="midnightblue" stroke="midnightblue" points="321.39,-672.5 331.39,-669 321.39,-665.5 321.39,-672.5"/>
</g>
<!-- Node10 -->
<g id="node10" class="node">
<title>Node10</title>
<g id="a_node10"><a xlink:href="classipc_1_1transport_1_1Native__socket__stream.html#a266b52821557f2a4fa8f81058290dee2" target="_top" xlink:title="Implements Native_handle_receiver API per contract.">
<polygon fill="white" stroke="black" points="156,-597.5 156,-632.5 268,-632.5 268,-597.5 156,-597.5"/>
<text text-anchor="start" x="164" y="-622.1" font-family="Helvetica,sans-Serif" font-size="8.00">ipc::transport::Native</text>
<text text-anchor="start" x="164" y="-613.1" font-family="Helvetica,sans-Serif" font-size="8.00">_socket_stream::async</text>
<text text-anchor="middle" x="212" y="-604.1" font-family="Helvetica,sans-Serif" font-size="8.00">_receive_native_handle</text>
</a>
</g>
</g>
<!-- Node9&#45;&gt;Node10 -->
<g id="edge9" class="edge">
<title>Node9&#45;&gt;Node10</title>
<path fill="none" stroke="midnightblue" d="M310.52,-615C296.3,-615 281.67,-615 268.2,-615"/>
<polygon fill="midnightblue" stroke="midnightblue" points="310.78,-618.5 320.78,-615 310.78,-611.5 310.78,-618.5"/>
</g>
<!-- Node15 -->
<g id="node15" class="node">
<title>Node15</title>
<g id="a_node15"><a xlink:href="classipc_1_1transport_1_1Native__socket__stream_1_1Impl.html#a0bc4f6f4dfa20d1c1902f1da85f637b3" target="_top" xlink:title="See Native_socket_stream counterpart.">
<polygon fill="white" stroke="black" points="145.5,-417 145.5,-443 278.5,-443 278.5,-417 145.5,-417"/>
<text text-anchor="start" x="153.5" y="-432.6" font-family="Helvetica,sans-Serif" font-size="8.00">ipc::transport::Native</text>
<text text-anchor="middle" x="212" y="-423.6" font-family="Helvetica,sans-Serif" font-size="8.00">_socket_stream::Impl::~Impl</text>
</a>
</g>
</g>
<!-- Node14&#45;&gt;Node15 -->
<g id="edge14" class="edge">
<title>Node14&#45;&gt;Node15</title>
<path fill="none" stroke="midnightblue" d="M313.65,-430C302.08,-430 290.15,-430 278.73,-430"/>
<polygon fill="midnightblue" stroke="midnightblue" points="313.71,-433.5 323.71,-430 313.71,-426.5 313.71,-433.5"/>
</g>
<!-- Node17 -->
<g id="node17" class="node">
<title>Node17</title>
<g id="a_node17"><a xlink:href="classipc_1_1transport_1_1Native__socket__stream_1_1Impl.html#ae599fae31c48348f10341c6c70e343e7" target="_top" xlink:title="See Native_socket_stream counterpart.">
<polygon fill="white" stroke="black" points="145,-362.5 145,-397.5 279,-397.5 279,-362.5 145,-362.5"/>
<text text-anchor="start" x="153" y="-387.1" font-family="Helvetica,sans-Serif" font-size="8.00">ipc::transport::Native</text>
<text text-anchor="start" x="153" y="-378.1" font-family="Helvetica,sans-Serif" font-size="8.00">_socket_stream::Impl::</text>
<text text-anchor="middle" x="212" y="-369.1" font-family="Helvetica,sans-Serif" font-size="8.00">receive_meta_blob_max_size</text>
</a>
</g>
</g>
<!-- Node16&#45;&gt;Node17 -->
<g id="edge16" class="edge">
<title>Node16&#45;&gt;Node17</title>
<path fill="none" stroke="midnightblue" d="M317.97,-380C305.2,-380 291.86,-380 279.14,-380"/>
<polygon fill="midnightblue" stroke="midnightblue" points="318.06,-383.5 328.06,-380 318.06,-376.5 318.06,-383.5"/>
</g>
<!-- Node23 -->
<g id="node23" class="node">
<title>Node23</title>
<g id="a_node23"><a xlink:href="classipc_1_1transport_1_1Native__socket__stream_1_1Impl.html#a356082fb50487830a83301cf12836ede" target="_top" xlink:title="See Native_socket_stream counterpart.">
<polygon fill="white" stroke="black" points="149.5,-108.5 149.5,-143.5 274.5,-143.5 274.5,-108.5 149.5,-108.5"/>
<text text-anchor="start" x="157.5" y="-133.1" font-family="Helvetica,sans-Serif" font-size="8.00">ipc::transport::Native</text>
<text text-anchor="start" x="157.5" y="-124.1" font-family="Helvetica,sans-Serif" font-size="8.00">_socket_stream::Impl::</text>
<text text-anchor="middle" x="212" y="-115.1" font-family="Helvetica,sans-Serif" font-size="8.00">send_meta_blob_max_size</text>
</a>
</g>
</g>
<!-- Node22&#45;&gt;Node23 -->
<g id="edge22" class="edge">
<title>Node22&#45;&gt;Node23</title>
<path fill="none" stroke="midnightblue" d="M311.89,-126C299.44,-126 286.62,-126 274.52,-126"/>
<polygon fill="midnightblue" stroke="midnightblue" points="312.25,-129.5 322.25,-126 312.25,-122.5 312.25,-129.5"/>
</g>
</g>
</svg>
