<?xml version="1.0" encoding="UTF-8" standalone="no"?>
<!DOCTYPE svg PUBLIC "-//W3C//DTD SVG 1.1//EN"
 "http://www.w3.org/Graphics/SVG/1.1/DTD/svg11.dtd">
<!-- Generated by graphviz version 2.43.0 (0)
 -->
<!-- Title: ipc::transport::sync_io::Blob_stream_mq_receiver_impl::Blob_stream_mq_receiver_impl Pages: 1 -->
<svg width="665pt" height="152pt"
 viewBox="0.00 0.00 665.00 152.00" xmlns="http://www.w3.org/2000/svg" xmlns:xlink="http://www.w3.org/1999/xlink">
<g id="graph0" class="graph" transform="scale(1 1) rotate(0) translate(4 148)">
<title>ipc::transport::sync_io::Blob_stream_mq_receiver_impl::Blob_stream_mq_receiver_impl</title>
<polygon fill="white" stroke="transparent" points="-4,4 -4,-148 661,-148 661,4 -4,4"/>
<!-- Node1 -->
<g id="node1" class="node">
<title>Node1</title>
<g id="a_node1"><a xlink:title="See Blob_stream_mq_receiver counterpart.">
<polygon fill="#bfbfbf" stroke="black" points="0,-54.5 0,-89.5 168,-89.5 168,-54.5 0,-54.5"/>
<text text-anchor="start" x="8" y="-79.1" font-family="Helvetica,sans-Serif" font-size="8.00">ipc::transport::sync</text>
<text text-anchor="start" x="8" y="-70.1" font-family="Helvetica,sans-Serif" font-size="8.00">_io::Blob_stream_mq_receiver</text>
<text text-anchor="middle" x="84" y="-61.1" font-family="Helvetica,sans-Serif" font-size="8.00">_impl::Blob_stream_mq_receiver_impl</text>
</a>
</g>
</g>
<!-- Node2 -->
<g id="node2" class="node">
<title>Node2</title>
<g id="a_node2"><a xlink:href="classipc_1_1util_1_1sync__io_1_1Asio__waitable__native__handle.html#a7d28277f9ef090032b0483c65f79f23c" target="_top" xlink:title="Loads value to be returned by native_handle().">
<polygon fill="white" stroke="black" points="218.5,-108.5 218.5,-143.5 326.5,-143.5 326.5,-108.5 218.5,-108.5"/>
<text text-anchor="start" x="226.5" y="-133.1" font-family="Helvetica,sans-Serif" font-size="8.00">ipc::util::sync_io</text>
<text text-anchor="start" x="226.5" y="-124.1" font-family="Helvetica,sans-Serif" font-size="8.00">::Asio_waitable_native</text>
<text text-anchor="middle" x="272.5" y="-115.1" font-family="Helvetica,sans-Serif" font-size="8.00">_handle::assign</text>
</a>
</g>
</g>
<!-- Node1&#45;&gt;Node2 -->
<g id="edge1" class="edge">
<title>Node1&#45;&gt;Node2</title>
<path fill="none" stroke="midnightblue" d="M145.55,-89.53C165.75,-95.38 188.3,-101.91 208.67,-107.81"/>
<polygon fill="midnightblue" stroke="midnightblue" points="207.89,-111.23 218.47,-110.65 209.84,-104.5 207.89,-111.23"/>
</g>
<!-- Node4 -->
<g id="node4" class="node">
<title>Node4</title>
<g id="a_node4"><a xlink:href="classipc_1_1transport_1_1Blob__stream__mq__base__impl.html#a4776b5f569ccac03eccb3fc2f360fcc9" target="_top" xlink:title="Internal helper for Blob_stream_mq_sender and Blob_stream_mq_receiver that operates both the start an...">
<polygon fill="white" stroke="black" points="217.5,-54.5 217.5,-89.5 327.5,-89.5 327.5,-54.5 217.5,-54.5"/>
<text text-anchor="start" x="225.5" y="-79.1" font-family="Helvetica,sans-Serif" font-size="8.00">ipc::transport::Blob</text>
<text text-anchor="start" x="225.5" y="-70.1" font-family="Helvetica,sans-Serif" font-size="8.00">_stream_mq_base_impl</text>
<text text-anchor="middle" x="272.5" y="-61.1" font-family="Helvetica,sans-Serif" font-size="8.00">::ensure_unique_peer</text>
</a>
</g>
</g>
<!-- Node1&#45;&gt;Node4 -->
<g id="edge3" class="edge">
<title>Node1&#45;&gt;Node4</title>
<path fill="none" stroke="midnightblue" d="M168.16,-72C181.21,-72 194.53,-72 207.08,-72"/>
<polygon fill="midnightblue" stroke="midnightblue" points="207.41,-75.5 217.41,-72 207.41,-68.5 207.41,-75.5"/>
</g>
<!-- Node8 -->
<g id="node8" class="node">
<title>Node8</title>
<g id="a_node8"><a xlink:href="classipc_1_1transport_1_1sync__io_1_1Blob__stream__mq__receiver__impl.html#adaf3579ec3abf0b5d85258965d264660" target="_top" xlink:title="See Blob_stream_mq_receiver counterpart, but assuming PEER state.">
<polygon fill="white" stroke="black" points="204,-0.5 204,-35.5 341,-35.5 341,-0.5 204,-0.5"/>
<text text-anchor="start" x="212" y="-25.1" font-family="Helvetica,sans-Serif" font-size="8.00">ipc::transport::sync</text>
<text text-anchor="start" x="212" y="-16.1" font-family="Helvetica,sans-Serif" font-size="8.00">_io::Blob_stream_mq_receiver</text>
<text text-anchor="middle" x="272.5" y="-7.1" font-family="Helvetica,sans-Serif" font-size="8.00">_impl::nickname</text>
</a>
</g>
</g>
<!-- Node1&#45;&gt;Node8 -->
<g id="edge8" class="edge">
<title>Node1&#45;&gt;Node8</title>
<path fill="none" stroke="midnightblue" d="M145.55,-54.47C163.31,-49.33 182.89,-43.66 201.2,-38.36"/>
<polygon fill="midnightblue" stroke="midnightblue" points="202.3,-41.68 210.93,-35.54 200.35,-34.96 202.3,-41.68"/>
</g>
<!-- Node3 -->
<g id="node3" class="node">
<title>Node3</title>
<g id="a_node3"><a xlink:href="structipc_1_1util_1_1Native__handle.html#a11bd62ce0a7bef4bdfe666201c26d4dc" target="_top" xlink:title="Returns true if and only if m_native_handle equals S_NULL_HANDLE.">
<polygon fill="white" stroke="black" points="388,-113 388,-139 500,-139 500,-113 388,-113"/>
<text text-anchor="start" x="396" y="-128.6" font-family="Helvetica,sans-Serif" font-size="8.00">ipc::util::Native_handle</text>
<text text-anchor="middle" x="444" y="-119.6" font-family="Helvetica,sans-Serif" font-size="8.00">::null</text>
</a>
</g>
</g>
<!-- Node2&#45;&gt;Node3 -->
<g id="edge2" class="edge">
<title>Node2&#45;&gt;Node3</title>
<path fill="none" stroke="midnightblue" d="M326.67,-126C342.83,-126 360.77,-126 377.64,-126"/>
<polygon fill="midnightblue" stroke="midnightblue" points="377.98,-129.5 387.98,-126 377.98,-122.5 377.98,-129.5"/>
</g>
<!-- Node5 -->
<g id="node5" class="node">
<title>Node5</title>
<g id="a_node5"><a xlink:href="classipc_1_1transport_1_1Persistent__mq__handle.html#a5ef74ca74a9d985710af974fd6518940" target="_top" xlink:title="Returns name equal to absolute_name passed to ctor.">
<polygon fill="white" stroke="black" points="377,-64 377,-90 511,-90 511,-64 377,-64"/>
<text text-anchor="start" x="385" y="-79.6" font-family="Helvetica,sans-Serif" font-size="8.00">ipc::transport::Persistent</text>
<text text-anchor="middle" x="444" y="-70.6" font-family="Helvetica,sans-Serif" font-size="8.00">_mq_handle::absolute_name</text>
</a>
</g>
</g>
<!-- Node4&#45;&gt;Node5 -->
<g id="edge4" class="edge">
<title>Node4&#45;&gt;Node5</title>
<path fill="none" stroke="midnightblue" d="M327.6,-73.6C340.1,-73.96 353.64,-74.36 366.89,-74.75"/>
<polygon fill="midnightblue" stroke="midnightblue" points="366.85,-78.26 376.95,-75.05 367.06,-71.26 366.85,-78.26"/>
</g>
<!-- Node6 -->
<g id="node6" class="node">
<title>Node6</title>
<g id="a_node6"><a xlink:href="namespaceipc_1_1util.html#a1cdc0a8d761170faa844c49d37c522ff" target="_top" xlink:title="Equivalent to shm::classic::Pool_arena::remove_persistent().">
<polygon fill="white" stroke="black" points="379.5,-1 379.5,-27 508.5,-27 508.5,-1 379.5,-1"/>
<text text-anchor="start" x="387.5" y="-16.6" font-family="Helvetica,sans-Serif" font-size="8.00">ipc::util::remove_persistent</text>
<text text-anchor="middle" x="444" y="-7.6" font-family="Helvetica,sans-Serif" font-size="8.00">_shm_pool</text>
</a>
</g>
</g>
<!-- Node4&#45;&gt;Node6 -->
<g id="edge5" class="edge">
<title>Node4&#45;&gt;Node6</title>
<path fill="none" stroke="midnightblue" d="M324.82,-54.44C347.12,-46.81 373.11,-37.92 395.03,-30.42"/>
<polygon fill="midnightblue" stroke="midnightblue" points="396.45,-33.63 404.78,-27.08 394.19,-27 396.45,-33.63"/>
</g>
<!-- Node6&#45;&gt;Node6 -->
<g id="edge7" class="edge">
<title>Node6&#45;&gt;Node6</title>
<path fill="none" stroke="midnightblue" d="M417.27,-27.27C409.17,-36.46 418.08,-45.5 444,-45.5 459.8,-45.5 469.28,-42.14 472.44,-37.44"/>
<polygon fill="midnightblue" stroke="midnightblue" points="475.84,-36.55 470.73,-27.27 468.93,-37.71 475.84,-36.55"/>
</g>
<!-- Node7 -->
<g id="node7" class="node">
<title>Node7</title>
<g id="a_node7"><a xlink:href="classipc_1_1util_1_1Shared__name.html#a0bccc73c9c5b4f3b784a1e57cdc5c910" target="_top" xlink:title="Returns (sans copying) pointer to NUL&#45;terminated wrapped name string, suitable to pass into sys calls...">
<polygon fill="white" stroke="black" points="547,-1 547,-27 657,-27 657,-1 547,-1"/>
<text text-anchor="start" x="555" y="-16.6" font-family="Helvetica,sans-Serif" font-size="8.00">ipc::util::Shared_name</text>
<text text-anchor="middle" x="602" y="-7.6" font-family="Helvetica,sans-Serif" font-size="8.00">::native_str</text>
</a>
</g>
</g>
<!-- Node6&#45;&gt;Node7 -->
<g id="edge6" class="edge">
<title>Node6&#45;&gt;Node7</title>
<path fill="none" stroke="midnightblue" d="M508.9,-14C518.07,-14 527.51,-14 536.69,-14"/>
<polygon fill="midnightblue" stroke="midnightblue" points="536.91,-17.5 546.91,-14 536.91,-10.5 536.91,-17.5"/>
</g>
</g>
</svg>
