<?xml version="1.0" encoding="UTF-8" standalone="no"?>
<!DOCTYPE svg PUBLIC "-//W3C//DTD SVG 1.1//EN"
 "http://www.w3.org/Graphics/SVG/1.1/DTD/svg11.dtd">
<!-- Generated by graphviz version 2.43.0 (0)
 -->
<!-- Title: ipc::transport::Protocol_negotiator::compute_negotiated_proto_ver Pages: 1 -->
<svg width="312pt" height="62pt"
 viewBox="0.00 0.00 312.00 62.00" xmlns="http://www.w3.org/2000/svg" xmlns:xlink="http://www.w3.org/1999/xlink">
<g id="graph0" class="graph" transform="scale(1 1) rotate(0) translate(4 58)">
<title>ipc::transport::Protocol_negotiator::compute_negotiated_proto_ver</title>
<polygon fill="white" stroke="transparent" points="-4,4 -4,-58 308,-58 308,4 -4,4"/>
<!-- Node1 -->
<g id="node1" class="node">
<title>Node1</title>
<g id="a_node1"><a xlink:title="Based on the presumably&#45;just&#45;received&#45;from&#45;opposing&#45;side value of their local_max_proto_ver,...">
<polygon fill="#bfbfbf" stroke="black" points="0,-0.5 0,-35.5 154,-35.5 154,-0.5 0,-0.5"/>
<text text-anchor="start" x="8" y="-25.1" font-family="Helvetica,sans-Serif" font-size="8.00">ipc::transport::Protocol</text>
<text text-anchor="start" x="8" y="-16.1" font-family="Helvetica,sans-Serif" font-size="8.00">_negotiator::compute_negotiated</text>
<text text-anchor="middle" x="77" y="-7.1" font-family="Helvetica,sans-Serif" font-size="8.00">_proto_ver</text>
</a>
</g>
</g>
<!-- Node1&#45;&gt;Node1 -->
<g id="edge1" class="edge">
<title>Node1&#45;&gt;Node1</title>
<path fill="none" stroke="midnightblue" d="M46.44,-35.78C41.25,-45.31 51.43,-54 77,-54 92.58,-54 102.45,-50.77 106.61,-46.1"/>
<polygon fill="midnightblue" stroke="midnightblue" points="110.12,-46.06 107.56,-35.78 103.15,-45.42 110.12,-46.06"/>
</g>
<!-- Node2 -->
<g id="node2" class="node">
<title>Node2</title>
<g id="a_node2"><a xlink:href="classipc_1_1transport_1_1Protocol__negotiator.html#a9596a28f6379b209ec1e7efcc58b8adc" target="_top" xlink:title="Returns S_VER_UNKNOWN before compute_negotiated_proto_ver(); then either the positive version of the ...">
<polygon fill="white" stroke="black" points="190,-0.5 190,-35.5 304,-35.5 304,-0.5 190,-0.5"/>
<text text-anchor="start" x="198" y="-25.1" font-family="Helvetica,sans-Serif" font-size="8.00">ipc::transport::Protocol</text>
<text text-anchor="start" x="198" y="-16.1" font-family="Helvetica,sans-Serif" font-size="8.00">_negotiator::negotiated</text>
<text text-anchor="middle" x="247" y="-7.1" font-family="Helvetica,sans-Serif" font-size="8.00">_proto_ver</text>
</a>
</g>
</g>
<!-- Node1&#45;&gt;Node2 -->
<g id="edge2" class="edge">
<title>Node1&#45;&gt;Node2</title>
<path fill="none" stroke="midnightblue" d="M154.14,-18C162.65,-18 171.28,-18 179.66,-18"/>
<polygon fill="midnightblue" stroke="midnightblue" points="179.74,-21.5 189.74,-18 179.74,-14.5 179.74,-21.5"/>
</g>
</g>
</svg>
