<?xml version="1.0" encoding="UTF-8" standalone="no"?>
<!DOCTYPE svg PUBLIC "-//W3C//DTD SVG 1.1//EN"
 "http://www.w3.org/Graphics/SVG/1.1/DTD/svg11.dtd">
<!-- Generated by graphviz version 2.43.0 (0)
 -->
<!-- Title: ipc::transport::Native_socket_stream::Impl::sync_connect Pages: 1 -->
<svg width="434pt" height="44pt"
 viewBox="0.00 0.00 434.00 44.00" xmlns="http://www.w3.org/2000/svg" xmlns:xlink="http://www.w3.org/1999/xlink">
<g id="graph0" class="graph" transform="scale(1 1) rotate(0) translate(4 40)">
<title>ipc::transport::Native_socket_stream::Impl::sync_connect</title>
<polygon fill="white" stroke="transparent" points="-4,4 -4,-40 430,-40 430,4 -4,4"/>
<!-- Node1 -->
<g id="node1" class="node">
<title>Node1</title>
<g id="a_node1"><a xlink:title="See Native_socket_stream counterpart.">
<polygon fill="#bfbfbf" stroke="black" points="0,-0.5 0,-35.5 109,-35.5 109,-0.5 0,-0.5"/>
<text text-anchor="start" x="8" y="-25.1" font-family="Helvetica,sans-Serif" font-size="8.00">ipc::transport::Native</text>
<text text-anchor="start" x="8" y="-16.1" font-family="Helvetica,sans-Serif" font-size="8.00">_socket_stream::Impl::</text>
<text text-anchor="middle" x="54.5" y="-7.1" font-family="Helvetica,sans-Serif" font-size="8.00">sync_connect</text>
</a>
</g>
</g>
<!-- Node2 -->
<g id="node2" class="node">
<title>Node2</title>
<g id="a_node2"><a xlink:href="classipc_1_1transport_1_1Native__socket__stream.html#a89d591db714e83dcb55a52738fed1ebb" target="_top" xlink:title="To be invoked in NULL state only, it synchronously and non&#45;blockingly attempts to connect to an oppos...">
<polygon fill="white" stroke="black" points="145,-5 145,-31 286,-31 286,-5 145,-5"/>
<text text-anchor="start" x="153" y="-20.6" font-family="Helvetica,sans-Serif" font-size="8.00">ipc::transport::Native</text>
<text text-anchor="middle" x="215.5" y="-11.6" font-family="Helvetica,sans-Serif" font-size="8.00">_socket_stream::sync_connect</text>
</a>
</g>
</g>
<!-- Node1&#45;&gt;Node2 -->
<g id="edge1" class="edge">
<title>Node1&#45;&gt;Node2</title>
<path fill="none" stroke="midnightblue" d="M109.33,-18C117.55,-18 126.19,-18 134.83,-18"/>
<polygon fill="midnightblue" stroke="midnightblue" points="134.94,-21.5 144.94,-18 134.94,-14.5 134.94,-21.5"/>
</g>
<!-- Node3 -->
<g id="node3" class="node">
<title>Node3</title>
<g id="a_node3"><a xlink:href="classipc_1_1transport_1_1Native__socket__stream.html#a0d0416ffe729877dad845e88c3609974" target="_top" xlink:title="Helper that simply returns m_impl while guaranteeing that m_impl is non&#45;null upon return.">
<polygon fill="white" stroke="black" points="322,-5 322,-31 426,-31 426,-5 322,-5"/>
<text text-anchor="start" x="330" y="-20.6" font-family="Helvetica,sans-Serif" font-size="8.00">ipc::transport::Native</text>
<text text-anchor="middle" x="374" y="-11.6" font-family="Helvetica,sans-Serif" font-size="8.00">_socket_stream::impl</text>
</a>
</g>
</g>
<!-- Node2&#45;&gt;Node3 -->
<g id="edge2" class="edge">
<title>Node2&#45;&gt;Node3</title>
<path fill="none" stroke="midnightblue" d="M286.05,-18C294.64,-18 303.38,-18 311.83,-18"/>
<polygon fill="midnightblue" stroke="midnightblue" points="311.97,-21.5 321.97,-18 311.97,-14.5 311.97,-21.5"/>
</g>
</g>
</svg>
