<?xml version="1.0" encoding="UTF-8" standalone="no"?>
<!DOCTYPE svg PUBLIC "-//W3C//DTD SVG 1.1//EN"
 "http://www.w3.org/Graphics/SVG/1.1/DTD/svg11.dtd">
<!-- Generated by graphviz version 2.43.0 (0)
 -->
<!-- Title: ipc::transport::sync_io::Native_socket_stream::start_send_native_handle_ops Pages: 1 -->
<svg width="499pt" height="53pt"
 viewBox="0.00 0.00 499.00 53.00" xmlns="http://www.w3.org/2000/svg" xmlns:xlink="http://www.w3.org/1999/xlink">
<g id="graph0" class="graph" transform="scale(1 1) rotate(0) translate(4 49)">
<title>ipc::transport::sync_io::Native_socket_stream::start_send_native_handle_ops</title>
<polygon fill="white" stroke="transparent" points="-4,4 -4,-49 495,-49 495,4 -4,4"/>
<!-- Node1 -->
<g id="node1" class="node">
<title>Node1</title>
<g id="a_node1"><a xlink:title="Implements Native_handle_sender API per contract.">
<polygon fill="#bfbfbf" stroke="black" points="0,-5 0,-40 146,-40 146,-5 0,-5"/>
<text text-anchor="start" x="8" y="-29.6" font-family="Helvetica,sans-Serif" font-size="8.00">ipc::transport::sync</text>
<text text-anchor="start" x="8" y="-20.6" font-family="Helvetica,sans-Serif" font-size="8.00">_io::Native_socket_stream</text>
<text text-anchor="middle" x="73" y="-11.6" font-family="Helvetica,sans-Serif" font-size="8.00">::start_send_native_handle_ops</text>
</a>
</g>
</g>
<!-- Node2 -->
<g id="node2" class="node">
<title>Node2</title>
<g id="a_node2"><a xlink:href="classipc_1_1transport_1_1sync__io_1_1Native__socket__stream.html#aa4cc1d2afc33e2c713ce585689c8f745" target="_top" xlink:title="Template&#45;free version of start_send_native_handle_ops() as required by pImpl idiom.">
<polygon fill="white" stroke="black" points="182,-0.5 182,-44.5 309,-44.5 309,-0.5 182,-0.5"/>
<text text-anchor="start" x="190" y="-34.1" font-family="Helvetica,sans-Serif" font-size="8.00">ipc::transport::sync</text>
<text text-anchor="start" x="190" y="-25.1" font-family="Helvetica,sans-Serif" font-size="8.00">_io::Native_socket_stream</text>
<text text-anchor="start" x="190" y="-16.1" font-family="Helvetica,sans-Serif" font-size="8.00">::start_send_native_handle</text>
<text text-anchor="middle" x="245.5" y="-7.1" font-family="Helvetica,sans-Serif" font-size="8.00">_ops_fwd</text>
</a>
</g>
</g>
<!-- Node1&#45;&gt;Node2 -->
<g id="edge1" class="edge">
<title>Node1&#45;&gt;Node2</title>
<path fill="none" stroke="midnightblue" d="M146.31,-22.5C154.7,-22.5 163.26,-22.5 171.65,-22.5"/>
<polygon fill="midnightblue" stroke="midnightblue" points="171.79,-26 181.79,-22.5 171.79,-19 171.79,-26"/>
</g>
<!-- Node3 -->
<g id="node3" class="node">
<title>Node3</title>
<g id="a_node3"><a xlink:href="classipc_1_1transport_1_1sync__io_1_1Native__socket__stream.html#a8e3703d5c8bac62f828a372691249c85" target="_top" xlink:title="Helper that simply returns m_impl while guaranteeing that m_impl is non&#45;null upon return.">
<polygon fill="white" stroke="black" points="345,-9.5 345,-35.5 491,-35.5 491,-9.5 345,-9.5"/>
<text text-anchor="start" x="353" y="-25.1" font-family="Helvetica,sans-Serif" font-size="8.00">ipc::transport::sync</text>
<text text-anchor="middle" x="418" y="-16.1" font-family="Helvetica,sans-Serif" font-size="8.00">_io::Native_socket_stream::impl</text>
</a>
</g>
</g>
<!-- Node2&#45;&gt;Node3 -->
<g id="edge2" class="edge">
<title>Node2&#45;&gt;Node3</title>
<path fill="none" stroke="midnightblue" d="M309.02,-22.5C317.42,-22.5 326.14,-22.5 334.82,-22.5"/>
<polygon fill="midnightblue" stroke="midnightblue" points="334.96,-26 344.96,-22.5 334.96,-19 334.96,-26"/>
</g>
</g>
</svg>
