<?xml version="1.0" encoding="UTF-8" standalone="no"?>
<!DOCTYPE svg PUBLIC "-//W3C//DTD SVG 1.1//EN"
 "http://www.w3.org/Graphics/SVG/1.1/DTD/svg11.dtd">
<!-- Generated by graphviz version 2.43.0 (0)
 -->
<!-- Title: ipc::transport::Posix_mq_handle::wait_impl Pages: 1 -->
<svg width="266pt" height="53pt"
 viewBox="0.00 0.00 266.00 53.00" xmlns="http://www.w3.org/2000/svg" xmlns:xlink="http://www.w3.org/1999/xlink">
<g id="graph0" class="graph" transform="scale(1 1) rotate(0) translate(4 49)">
<title>ipc::transport::Posix_mq_handle::wait_impl</title>
<polygon fill="white" stroke="transparent" points="-4,4 -4,-49 262,-49 262,4 -4,4"/>
<!-- Node1 -->
<g id="node1" class="node">
<title>Node1</title>
<g id="a_node1"><a xlink:title="Impl body for *_sendable() and *_receivable().">
<polygon fill="#bfbfbf" stroke="black" points="0,-0.5 0,-26.5 110,-26.5 110,-0.5 0,-0.5"/>
<text text-anchor="start" x="8" y="-16.1" font-family="Helvetica,sans-Serif" font-size="8.00">ipc::transport::Posix</text>
<text text-anchor="middle" x="55" y="-7.1" font-family="Helvetica,sans-Serif" font-size="8.00">_mq_handle::wait_impl</text>
</a>
</g>
</g>
<!-- Node1&#45;&gt;Node1 -->
<g id="edge2" class="edge">
<title>Node1&#45;&gt;Node1</title>
<path fill="none" stroke="midnightblue" d="M30.3,-26.77C22.81,-35.96 31.05,-45 55,-45 69.6,-45 78.36,-41.64 81.28,-36.94"/>
<polygon fill="midnightblue" stroke="midnightblue" points="84.69,-36.12 79.7,-26.77 77.77,-37.19 84.69,-36.12"/>
</g>
<!-- Node2 -->
<g id="node2" class="node">
<title>Node2</title>
<g id="a_node2"><a xlink:href="structipc_1_1util_1_1Native__handle.html#a11bd62ce0a7bef4bdfe666201c26d4dc" target="_top" xlink:title="Returns true if and only if m_native_handle equals S_NULL_HANDLE.">
<polygon fill="white" stroke="black" points="146,-0.5 146,-26.5 258,-26.5 258,-0.5 146,-0.5"/>
<text text-anchor="start" x="154" y="-16.1" font-family="Helvetica,sans-Serif" font-size="8.00">ipc::util::Native_handle</text>
<text text-anchor="middle" x="202" y="-7.1" font-family="Helvetica,sans-Serif" font-size="8.00">::null</text>
</a>
</g>
</g>
<!-- Node1&#45;&gt;Node2 -->
<g id="edge1" class="edge">
<title>Node1&#45;&gt;Node2</title>
<path fill="none" stroke="midnightblue" d="M110.41,-13.5C118.63,-13.5 127.19,-13.5 135.62,-13.5"/>
<polygon fill="midnightblue" stroke="midnightblue" points="135.81,-17 145.81,-13.5 135.81,-10 135.81,-17"/>
</g>
</g>
</svg>
