<?xml version="1.0" encoding="UTF-8" standalone="no"?>
<!DOCTYPE svg PUBLIC "-//W3C//DTD SVG 1.1//EN"
 "http://www.w3.org/Graphics/SVG/1.1/DTD/svg11.dtd">
<!-- Generated by graphviz version 2.43.0 (0)
 -->
<!-- Title: ipc::transport::sync_io::Blob_stream_mq_receiver_impl::absolute_name Pages: 1 -->
<svg width="318pt" height="44pt"
 viewBox="0.00 0.00 318.00 44.00" xmlns="http://www.w3.org/2000/svg" xmlns:xlink="http://www.w3.org/1999/xlink">
<g id="graph0" class="graph" transform="scale(1 1) rotate(0) translate(4 40)">
<title>ipc::transport::sync_io::Blob_stream_mq_receiver_impl::absolute_name</title>
<polygon fill="white" stroke="transparent" points="-4,4 -4,-40 314,-40 314,4 -4,4"/>
<!-- Node1 -->
<g id="node1" class="node">
<title>Node1</title>
<g id="a_node1"><a xlink:title="See Blob_stream_mq_receiver counterpart, but assuming PEER state.">
<polygon fill="#bfbfbf" stroke="black" points="173,-0.5 173,-35.5 310,-35.5 310,-0.5 173,-0.5"/>
<text text-anchor="start" x="181" y="-25.1" font-family="Helvetica,sans-Serif" font-size="8.00">ipc::transport::sync</text>
<text text-anchor="start" x="181" y="-16.1" font-family="Helvetica,sans-Serif" font-size="8.00">_io::Blob_stream_mq_receiver</text>
<text text-anchor="middle" x="241.5" y="-7.1" font-family="Helvetica,sans-Serif" font-size="8.00">_impl::absolute_name</text>
</a>
</g>
</g>
<!-- Node2 -->
<g id="node2" class="node">
<title>Node2</title>
<g id="a_node2"><a xlink:href="classipc_1_1transport_1_1sync__io_1_1Blob__stream__mq__receiver__impl.html#a4efecbe0fe86aa7d61b86f9c5edf20b4" target="_top" xlink:title="Prints string representation of the given Blob_stream_mq_receiver_impl to the given ostream.">
<polygon fill="white" stroke="black" points="0,-0.5 0,-35.5 137,-35.5 137,-0.5 0,-0.5"/>
<text text-anchor="start" x="8" y="-25.1" font-family="Helvetica,sans-Serif" font-size="8.00">ipc::transport::sync</text>
<text text-anchor="start" x="8" y="-16.1" font-family="Helvetica,sans-Serif" font-size="8.00">_io::Blob_stream_mq_receiver</text>
<text text-anchor="middle" x="68.5" y="-7.1" font-family="Helvetica,sans-Serif" font-size="8.00">_impl::operator&lt;&lt;</text>
</a>
</g>
</g>
<!-- Node1&#45;&gt;Node2 -->
<g id="edge1" class="edge">
<title>Node1&#45;&gt;Node2</title>
<path fill="none" stroke="midnightblue" d="M162.9,-18C154.31,-18 145.61,-18 137.15,-18"/>
<polygon fill="midnightblue" stroke="midnightblue" points="162.92,-21.5 172.92,-18 162.92,-14.5 162.92,-21.5"/>
</g>
</g>
</svg>
