<?xml version="1.0" encoding="UTF-8" standalone="no"?>
<!DOCTYPE svg PUBLIC "-//W3C//DTD SVG 1.1//EN"
 "http://www.w3.org/Graphics/SVG/1.1/DTD/svg11.dtd">
<!-- Generated by graphviz version 2.43.0 (0)
 -->
<!-- Title: ipc::transport::struc::shm::Builder&lt; Shm_arena &gt; Pages: 1 -->
<svg width="640pt" height="200pt"
 viewBox="0.00 0.00 640.00 200.00" xmlns="http://www.w3.org/2000/svg" xmlns:xlink="http://www.w3.org/1999/xlink">
<g id="graph0" class="graph" transform="scale(1 1) rotate(0) translate(4 196)">
<title>ipc::transport::struc::shm::Builder&lt; Shm_arena &gt;</title>
<polygon fill="white" stroke="transparent" points="-4,4 -4,-196 636,-196 636,4 -4,4"/>
<!-- Node1 -->
<g id="node1" class="node">
<title>Node1</title>
<g id="a_node1"><a xlink:title="Implements Struct_builder concept with maximal zero&#45;copy perf by (1) storing the actual user&#45;schema&#45;c...">
<polygon fill="#bfbfbf" stroke="black" points="494,-67 494,-93 632,-93 632,-67 494,-67"/>
<text text-anchor="start" x="502" y="-82.6" font-family="Helvetica,sans-Serif" font-size="8.00">ipc::transport::struc</text>
<text text-anchor="middle" x="563" y="-73.6" font-family="Helvetica,sans-Serif" font-size="8.00">::shm::Builder&lt; Shm_arena &gt;</text>
</a>
</g>
</g>
<!-- Node2 -->
<g id="node2" class="node">
<title>Node2</title>
<g id="a_node2"><a xlink:title=" ">
<polygon fill="white" stroke="#bfbfbf" points="10.5,-62.5 10.5,-79.5 117.5,-79.5 117.5,-62.5 10.5,-62.5"/>
<text text-anchor="middle" x="64" y="-69.1" font-family="Helvetica,sans-Serif" font-size="8.00">flow::log::Log_context</text>
</a>
</g>
</g>
<!-- Node2&#45;&gt;Node1 -->
<g id="edge1" class="edge">
<title>Node2&#45;&gt;Node1</title>
<path fill="none" stroke="midnightblue" d="M127.9,-72.14C221.54,-73.83 396.94,-77.01 493.65,-78.76"/>
<polygon fill="midnightblue" stroke="midnightblue" points="127.78,-68.64 117.72,-71.95 127.65,-75.64 127.78,-68.64"/>
</g>
<!-- Node5 -->
<g id="node5" class="node">
<title>Node5</title>
<g id="a_node5"><a xlink:href="classipc_1_1transport_1_1struc_1_1Heap__fixed__builder.html" target="_top" xlink:title="Implements Struct_builder concept by straightforwardly allocating fixed&#45;size segments on&#45;demand in th...">
<polygon fill="white" stroke="black" points="275.5,-101 275.5,-127 376.5,-127 376.5,-101 275.5,-101"/>
<text text-anchor="start" x="283.5" y="-116.6" font-family="Helvetica,sans-Serif" font-size="8.00">ipc::transport::struc</text>
<text text-anchor="middle" x="326" y="-107.6" font-family="Helvetica,sans-Serif" font-size="8.00">::Heap_fixed_builder</text>
</a>
</g>
</g>
<!-- Node2&#45;&gt;Node5 -->
<g id="edge5" class="edge">
<title>Node2&#45;&gt;Node5</title>
<path fill="none" stroke="midnightblue" d="M126.69,-81.2C172.05,-88.7 232.9,-98.77 275.18,-105.76"/>
<polygon fill="midnightblue" stroke="midnightblue" points="127.12,-77.73 116.68,-79.55 125.97,-84.63 127.12,-77.73"/>
</g>
<!-- Node3 -->
<g id="node3" class="node">
<title>Node3</title>
<g id="a_node3"><a xlink:href="classipc_1_1transport_1_1struc_1_1shm_1_1Builder__base.html" target="_top" xlink:title="shm::Builder base that contains non&#45;parameterized public items such as tag types and constants.">
<polygon fill="white" stroke="black" points="277,-159 277,-185 375,-185 375,-159 277,-159"/>
<text text-anchor="start" x="285" y="-174.6" font-family="Helvetica,sans-Serif" font-size="8.00">ipc::transport::struc</text>
<text text-anchor="middle" x="326" y="-165.6" font-family="Helvetica,sans-Serif" font-size="8.00">::shm::Builder_base</text>
</a>
</g>
</g>
<!-- Node3&#45;&gt;Node1 -->
<g id="edge2" class="edge">
<title>Node3&#45;&gt;Node1</title>
<path fill="none" stroke="midnightblue" d="M371.36,-155.31C401.04,-144.08 440.93,-128.84 476,-115 493.99,-107.9 514.01,-99.76 530.21,-93.13"/>
<polygon fill="midnightblue" stroke="midnightblue" points="369.82,-152.15 361.7,-158.96 372.3,-158.7 369.82,-152.15"/>
</g>
<!-- Node4 -->
<g id="node4" class="node">
<title>Node4</title>
<g id="a_node4"><a xlink:title=" ">
<polygon fill="white" stroke="#bfbfbf" points="44,-167.5 44,-184.5 84,-184.5 84,-167.5 44,-167.5"/>
<text text-anchor="middle" x="64" y="-174.1" font-family="Helvetica,sans-Serif" font-size="8.00">size_t</text>
</a>
</g>
</g>
<!-- Node4&#45;&gt;Node3 -->
<g id="edge3" class="edge">
<title>Node4&#45;&gt;Node3</title>
<path fill="none" stroke="#9a32cd" stroke-dasharray="5,2" d="M94.23,-175.55C138.61,-174.87 223.47,-173.56 276.99,-172.74"/>
<polygon fill="#9a32cd" stroke="#9a32cd" points="94.06,-172.05 84.12,-175.71 94.17,-179.05 94.06,-172.05"/>
<text text-anchor="start" x="146" y="-185.6" font-family="Helvetica,sans-Serif" font-size="8.00"> S_MAX_SERIALIZATION</text>
<text text-anchor="middle" x="192" y="-176.6" font-family="Helvetica,sans-Serif" font-size="8.00">_SEGMENT_SZ</text>
</g>
<!-- Node4&#45;&gt;Node5 -->
<g id="edge6" class="edge">
<title>Node4&#45;&gt;Node5</title>
<path fill="none" stroke="#9a32cd" stroke-dasharray="5,2" d="M93.86,-169.12C137.71,-158.66 221.71,-138.63 275.47,-125.81"/>
<polygon fill="#9a32cd" stroke="#9a32cd" points="93.03,-165.72 84.12,-171.44 94.66,-172.53 93.03,-165.72"/>
<text text-anchor="middle" x="192" y="-157.6" font-family="Helvetica,sans-Serif" font-size="8.00"> m_segment_sz</text>
</g>
<!-- Node5&#45;&gt;Node1 -->
<g id="edge4" class="edge">
<title>Node5&#45;&gt;Node1</title>
<path fill="none" stroke="#9a32cd" stroke-dasharray="5,2" d="M386.85,-105.34C419.46,-100.62 459.96,-94.76 493.8,-89.87"/>
<polygon fill="#9a32cd" stroke="#9a32cd" points="385.95,-101.94 376.55,-106.83 386.95,-108.86 385.95,-101.94"/>
<text text-anchor="middle" x="445" y="-104.6" font-family="Helvetica,sans-Serif" font-size="8.00"> m_top_engine</text>
</g>
<!-- Node6 -->
<g id="node6" class="node">
<title>Node6</title>
<g id="a_node6"><a xlink:title=" ">
<polygon fill="white" stroke="#bfbfbf" points="0,-104.5 0,-139.5 128,-139.5 128,-104.5 0,-104.5"/>
<text text-anchor="start" x="8" y="-129.1" font-family="Helvetica,sans-Serif" font-size="8.00">unique_ptr&lt; ipc::transport</text>
<text text-anchor="start" x="8" y="-120.1" font-family="Helvetica,sans-Serif" font-size="8.00">::struc::Heap_fixed_builder</text>
<text text-anchor="middle" x="64" y="-111.1" font-family="Helvetica,sans-Serif" font-size="8.00">_capnp_message_builder &gt;</text>
</a>
</g>
</g>
<!-- Node6&#45;&gt;Node5 -->
<g id="edge7" class="edge">
<title>Node6&#45;&gt;Node5</title>
<path fill="none" stroke="#9a32cd" stroke-dasharray="5,2" d="M138.3,-119.74C182.1,-118.4 236.58,-116.72 275.36,-115.53"/>
<polygon fill="#9a32cd" stroke="#9a32cd" points="138.16,-116.25 128.27,-120.05 138.37,-123.24 138.16,-116.25"/>
<text text-anchor="middle" x="192" y="-121.6" font-family="Helvetica,sans-Serif" font-size="8.00"> m_engine</text>
</g>
<!-- Node7 -->
<g id="node7" class="node">
<title>Node7</title>
<g id="a_node7"><a xlink:title=" ">
<polygon fill="white" stroke="#bfbfbf" points="256,-0.5 256,-35.5 396,-35.5 396,-0.5 256,-0.5"/>
<text text-anchor="start" x="264" y="-25.1" font-family="Helvetica,sans-Serif" font-size="8.00">unique_ptr&lt; ipc::transport</text>
<text text-anchor="start" x="264" y="-16.1" font-family="Helvetica,sans-Serif" font-size="8.00">::struc::shm::Capnp_message</text>
<text text-anchor="middle" x="326" y="-7.1" font-family="Helvetica,sans-Serif" font-size="8.00">_builder &gt;</text>
</a>
</g>
</g>
<!-- Node7&#45;&gt;Node1 -->
<g id="edge8" class="edge">
<title>Node7&#45;&gt;Node1</title>
<path fill="none" stroke="#9a32cd" stroke-dasharray="5,2" d="M406.11,-26.12C428.95,-29.56 453.71,-34.36 476,-41 497.68,-47.46 520.98,-58.29 537.85,-66.9"/>
<polygon fill="#9a32cd" stroke="#9a32cd" points="406.51,-22.64 396.11,-24.68 405.51,-29.57 406.51,-22.64"/>
<text text-anchor="middle" x="445" y="-43.6" font-family="Helvetica,sans-Serif" font-size="8.00"> m_btm_engine</text>
</g>
</g>
</svg>
