<?xml version="1.0" encoding="UTF-8" standalone="no"?>
<!DOCTYPE svg PUBLIC "-//W3C//DTD SVG 1.1//EN"
 "http://www.w3.org/Graphics/SVG/1.1/DTD/svg11.dtd">
<!-- Generated by graphviz version 2.43.0 (0)
 -->
<!-- Title: ipc::session::shm::classic::Server_session_impl&lt; S_MQ_TYPE_OR_NONE, S_TRANSMIT_NATIVE_HANDLES, Mdt_payload &gt; Pages: 1 -->
<svg width="1451pt" height="1098pt"
 viewBox="0.00 0.00 1451.00 1097.83" xmlns="http://www.w3.org/2000/svg" xmlns:xlink="http://www.w3.org/1999/xlink">
<g id="graph0" class="graph" transform="scale(1 1) rotate(0) translate(4 1093.83)">
<title>ipc::session::shm::classic::Server_session_impl&lt; S_MQ_TYPE_OR_NONE, S_TRANSMIT_NATIVE_HANDLES, Mdt_payload &gt;</title>
<polygon fill="white" stroke="transparent" points="-4,4 -4,-1093.83 1447,-1093.83 1447,4 -4,4"/>
<!-- Node1 -->
<g id="node1" class="node">
<title>Node1</title>
<g id="a_node1"><a xlink:title="Core internally&#45;used implementation of shm::classic::Server_session: it is to the latter what its pub...">
<polygon fill="#bfbfbf" stroke="black" points="1297,-241.33 1297,-294.33 1443,-294.33 1443,-241.33 1297,-241.33"/>
<text text-anchor="start" x="1305" y="-283.93" font-family="Helvetica,sans-Serif" font-size="8.00">ipc::session::shm::</text>
<text text-anchor="start" x="1305" y="-274.93" font-family="Helvetica,sans-Serif" font-size="8.00">classic::Server_session</text>
<text text-anchor="start" x="1305" y="-265.93" font-family="Helvetica,sans-Serif" font-size="8.00">_impl&lt; S_MQ_TYPE_OR_NONE,</text>
<text text-anchor="start" x="1305" y="-256.93" font-family="Helvetica,sans-Serif" font-size="8.00"> S_TRANSMIT_NATIVE_HANDLES,</text>
<text text-anchor="middle" x="1370" y="-247.93" font-family="Helvetica,sans-Serif" font-size="8.00"> Mdt_payload &gt;</text>
</a>
</g>
</g>
<!-- Node2 -->
<g id="node2" class="node">
<title>Node2</title>
<g id="a_node2"><a xlink:href="classipc_1_1session_1_1shm_1_1classic_1_1Session__impl.html" target="_top" xlink:title=" ">
<polygon fill="white" stroke="black" points="1072,-223.33 1072,-312.33 1260,-312.33 1260,-223.33 1072,-223.33"/>
<text text-anchor="start" x="1080" y="-301.93" font-family="Helvetica,sans-Serif" font-size="8.00">ipc::session::shm::</text>
<text text-anchor="start" x="1080" y="-292.93" font-family="Helvetica,sans-Serif" font-size="8.00">classic::Session_impl</text>
<text text-anchor="start" x="1080" y="-283.93" font-family="Helvetica,sans-Serif" font-size="8.00">&lt; session::Server_session</text>
<text text-anchor="start" x="1080" y="-274.93" font-family="Helvetica,sans-Serif" font-size="8.00">_impl&lt; S_MQ_TYPE_OR_NONE,</text>
<text text-anchor="start" x="1080" y="-265.93" font-family="Helvetica,sans-Serif" font-size="8.00"> S_TRANSMIT_NATIVE_HANDLES,</text>
<text text-anchor="start" x="1080" y="-256.93" font-family="Helvetica,sans-Serif" font-size="8.00"> Mdt_payload, schema::ShmType</text>
<text text-anchor="start" x="1080" y="-247.93" font-family="Helvetica,sans-Serif" font-size="8.00">::CLASSIC, transport::struc::</text>
<text text-anchor="start" x="1080" y="-238.93" font-family="Helvetica,sans-Serif" font-size="8.00">shm::Builder_base::S_MAX_SERIALIZATION</text>
<text text-anchor="middle" x="1166" y="-229.93" font-family="Helvetica,sans-Serif" font-size="8.00">_SEGMENT_SZ &gt; &gt;</text>
</a>
</g>
</g>
<!-- Node2&#45;&gt;Node1 -->
<g id="edge1" class="edge">
<title>Node2&#45;&gt;Node1</title>
<path fill="none" stroke="midnightblue" d="M1270.15,-267.83C1279.12,-267.83 1288.08,-267.83 1296.72,-267.83"/>
<polygon fill="midnightblue" stroke="midnightblue" points="1270.02,-264.33 1260.02,-267.83 1270.02,-271.33 1270.02,-264.33"/>
</g>
<!-- Node3 -->
<g id="node3" class="node">
<title>Node3</title>
<g id="a_node3"><a xlink:href="classipc_1_1session_1_1Server__session__impl.html" target="_top" xlink:title=" ">
<polygon fill="white" stroke="black" points="782,-264.33 782,-335.33 949,-335.33 949,-264.33 782,-264.33"/>
<text text-anchor="start" x="790" y="-324.93" font-family="Helvetica,sans-Serif" font-size="8.00">ipc::session::Server</text>
<text text-anchor="start" x="790" y="-315.93" font-family="Helvetica,sans-Serif" font-size="8.00">_session_impl&lt; S_MQ_TYPE</text>
<text text-anchor="start" x="790" y="-306.93" font-family="Helvetica,sans-Serif" font-size="8.00">_OR_NONE, S_TRANSMIT_NATIVE</text>
<text text-anchor="start" x="790" y="-297.93" font-family="Helvetica,sans-Serif" font-size="8.00">_HANDLES, Mdt_payload, schema</text>
<text text-anchor="start" x="790" y="-288.93" font-family="Helvetica,sans-Serif" font-size="8.00">::ShmType::CLASSIC, transport</text>
<text text-anchor="start" x="790" y="-279.93" font-family="Helvetica,sans-Serif" font-size="8.00">::struc::shm::Builder_base::S</text>
<text text-anchor="middle" x="865.5" y="-270.93" font-family="Helvetica,sans-Serif" font-size="8.00">_MAX_SERIALIZATION_SEGMENT_SZ &gt;</text>
</a>
</g>
</g>
<!-- Node3&#45;&gt;Node2 -->
<g id="edge2" class="edge">
<title>Node3&#45;&gt;Node2</title>
<path fill="none" stroke="midnightblue" d="M959.21,-289.89C995.04,-286.05 1035.96,-281.66 1071.83,-277.82"/>
<polygon fill="midnightblue" stroke="midnightblue" points="958.82,-286.41 949.25,-290.96 959.57,-293.37 958.82,-286.41"/>
</g>
<!-- Node4 -->
<g id="node4" class="node">
<title>Node4</title>
<g id="a_node4"><a xlink:href="classipc_1_1session_1_1Session__base.html" target="_top" xlink:title="Internal type containing data and types common to internal types Server_session_impl and Client_sessi...">
<polygon fill="white" stroke="black" points="489,-381.83 489,-425.83 635,-425.83 635,-381.83 489,-381.83"/>
<text text-anchor="start" x="497" y="-415.43" font-family="Helvetica,sans-Serif" font-size="8.00">ipc::session::Session</text>
<text text-anchor="start" x="497" y="-406.43" font-family="Helvetica,sans-Serif" font-size="8.00">_base&lt; S_MQ_TYPE_OR_NONE,</text>
<text text-anchor="start" x="497" y="-397.43" font-family="Helvetica,sans-Serif" font-size="8.00"> S_TRANSMIT_NATIVE_HANDLES,</text>
<text text-anchor="middle" x="562" y="-388.43" font-family="Helvetica,sans-Serif" font-size="8.00"> Mdt_payload &gt;</text>
</a>
</g>
</g>
<!-- Node4&#45;&gt;Node3 -->
<g id="edge3" class="edge">
<title>Node4&#45;&gt;Node3</title>
<path fill="none" stroke="midnightblue" d="M636.4,-378.51C680.32,-363.36 736.24,-344.07 781.73,-328.38"/>
<polygon fill="midnightblue" stroke="midnightblue" points="635.25,-375.2 626.94,-381.77 637.54,-381.82 635.25,-375.2"/>
</g>
<!-- Node5 -->
<g id="node5" class="node">
<title>Node5</title>
<g id="a_node5"><a xlink:title=" ">
<polygon fill="white" stroke="#bfbfbf" points="191.5,-557.33 191.5,-574.33 290.5,-574.33 290.5,-557.33 191.5,-557.33"/>
<text text-anchor="middle" x="241" y="-563.93" font-family="Helvetica,sans-Serif" font-size="8.00">boost::noncopyable</text>
</a>
</g>
</g>
<!-- Node5&#45;&gt;Node4 -->
<g id="edge4" class="edge">
<title>Node5&#45;&gt;Node4</title>
<path fill="none" stroke="#8b1a1a" d="M300.89,-566.24C349.81,-564.03 419.47,-554.74 471,-522.83 508.88,-499.37 536.49,-453.72 550.52,-426.28"/>
<polygon fill="#8b1a1a" stroke="#8b1a1a" points="300.65,-562.75 290.78,-566.61 300.91,-569.74 300.65,-562.75"/>
</g>
<!-- Node41 -->
<g id="node32" class="node">
<title>Node41</title>
<g id="a_node32"><a xlink:href="classipc_1_1shm_1_1classic_1_1Pool__arena.html" target="_top" xlink:title="A SHM&#45;classic interface around a single SHM pool with allocation&#45;algorithm services by boost....">
<polygon fill="white" stroke="black" points="516,-777.83 516,-803.83 608,-803.83 608,-777.83 516,-777.83"/>
<text text-anchor="start" x="524" y="-793.43" font-family="Helvetica,sans-Serif" font-size="8.00">ipc::shm::classic::</text>
<text text-anchor="middle" x="562" y="-784.43" font-family="Helvetica,sans-Serif" font-size="8.00">Pool_arena</text>
</a>
</g>
</g>
<!-- Node5&#45;&gt;Node41 -->
<g id="edge42" class="edge">
<title>Node5&#45;&gt;Node41</title>
<path fill="none" stroke="#8b1a1a" d="M301.01,-563.83C353.72,-565.49 428.91,-577.02 471,-624.83 513.33,-672.91 448.06,-718.57 489,-767.83 495.88,-776.11 505.74,-781.44 515.96,-784.87"/>
<polygon fill="#8b1a1a" stroke="#8b1a1a" points="300.86,-560.32 290.79,-563.62 300.71,-567.32 300.86,-560.32"/>
</g>
<!-- Node6 -->
<g id="node6" class="node">
<title>Node6</title>
<g id="a_node6"><a xlink:title=" ">
<polygon fill="white" stroke="#bfbfbf" points="190.5,-516.33 190.5,-533.33 291.5,-533.33 291.5,-516.33 190.5,-516.33"/>
<text text-anchor="middle" x="241" y="-522.93" font-family="Helvetica,sans-Serif" font-size="8.00">static constexpr bool</text>
</a>
</g>
</g>
<!-- Node6&#45;&gt;Node3 -->
<g id="edge19" class="edge">
<title>Node6&#45;&gt;Node3</title>
<path fill="none" stroke="#9a32cd" stroke-dasharray="5,2" d="M301.81,-530.36C348.59,-533 414.9,-533 471,-518.83 608.96,-483.99 749.65,-388 819.45,-335.41"/>
<polygon fill="#9a32cd" stroke="#9a32cd" points="301.74,-526.85 291.54,-529.72 301.31,-533.84 301.74,-526.85"/>
<text text-anchor="middle" x="562" y="-542.43" font-family="Helvetica,sans-Serif" font-size="8.00"> S_GRACEFUL_FINISH_REQUIRED</text>
<text text-anchor="middle" x="562" y="-533.43" font-family="Helvetica,sans-Serif" font-size="8.00">S_MQS_ENABLED</text>
<text text-anchor="middle" x="562" y="-524.43" font-family="Helvetica,sans-Serif" font-size="8.00">S_SHM_ENABLED</text>
<text text-anchor="middle" x="562" y="-515.43" font-family="Helvetica,sans-Serif" font-size="8.00">S_SOCKET_STREAM_ENABLED</text>
</g>
<!-- Node6&#45;&gt;Node4 -->
<g id="edge5" class="edge">
<title>Node6&#45;&gt;Node4</title>
<path fill="none" stroke="#9a32cd" stroke-dasharray="5,2" d="M284.35,-513.67C301.28,-509.38 321.01,-504.62 339,-500.83 397.27,-488.56 416.88,-502.67 471,-477.83 498.02,-465.42 523.69,-442.87 540.64,-425.91"/>
<polygon fill="#9a32cd" stroke="#9a32cd" points="283.03,-510.39 274.2,-516.26 284.76,-517.18 283.03,-510.39"/>
<text text-anchor="middle" x="405" y="-512.43" font-family="Helvetica,sans-Serif" font-size="8.00"> S_MQS_ENABLED</text>
<text text-anchor="middle" x="405" y="-503.43" font-family="Helvetica,sans-Serif" font-size="8.00">S_SOCKET_STREAM_ENABLED</text>
</g>
<!-- Node7 -->
<g id="node7" class="node">
<title>Node7</title>
<g id="a_node7"><a xlink:href="structipc_1_1session_1_1Server__app.html" target="_top" xlink:title="An App that is used as a server in at least one client&#45;server IPC split.">
<polygon fill="white" stroke="red" points="182,-467.33 182,-484.33 300,-484.33 300,-467.33 182,-467.33"/>
<text text-anchor="middle" x="241" y="-473.93" font-family="Helvetica,sans-Serif" font-size="8.00">ipc::session::Server_app</text>
</a>
</g>
</g>
<!-- Node7&#45;&gt;Node4 -->
<g id="edge6" class="edge">
<title>Node7&#45;&gt;Node4</title>
<path fill="none" stroke="#9a32cd" stroke-dasharray="5,2" d="M310.37,-469.69C356.36,-464.52 418.04,-455.54 471,-440.83 485,-436.94 499.75,-431.49 513.17,-425.97"/>
<polygon fill="#9a32cd" stroke="#9a32cd" points="309.77,-466.24 300.21,-470.8 310.53,-473.19 309.77,-466.24"/>
<text text-anchor="middle" x="405" y="-468.43" font-family="Helvetica,sans-Serif" font-size="8.00"> m_srv_app_ref</text>
</g>
<!-- Node16 -->
<g id="node8" class="node">
<title>Node16</title>
<g id="a_node8"><a xlink:title=" ">
<polygon fill="white" stroke="#bfbfbf" points="205.5,-431.33 205.5,-448.33 276.5,-448.33 276.5,-431.33 205.5,-431.33"/>
<text text-anchor="middle" x="241" y="-437.93" font-family="Helvetica,sans-Serif" font-size="8.00">Fine_duration</text>
</a>
</g>
</g>
<!-- Node16&#45;&gt;Node4 -->
<g id="edge7" class="edge">
<title>Node16&#45;&gt;Node4</title>
<path fill="none" stroke="#9a32cd" stroke-dasharray="5,2" d="M286.74,-434.78C339.16,-428.87 426.71,-418.98 488.78,-411.98"/>
<polygon fill="#9a32cd" stroke="#9a32cd" points="286.29,-431.31 276.75,-435.91 287.08,-438.27 286.29,-431.31"/>
<text text-anchor="middle" x="405" y="-430.43" font-family="Helvetica,sans-Serif" font-size="8.00"> S_OPEN_CHANNEL_TIMEOUT</text>
</g>
<!-- Node17 -->
<g id="node9" class="node">
<title>Node17</title>
<g id="a_node9"><a xlink:title=" ">
<polygon fill="white" stroke="#bfbfbf" points="187.5,-395.33 187.5,-412.33 294.5,-412.33 294.5,-395.33 187.5,-395.33"/>
<text text-anchor="middle" x="241" y="-401.93" font-family="Helvetica,sans-Serif" font-size="8.00">static constexpr size_t</text>
</a>
</g>
</g>
<!-- Node17&#45;&gt;Node4 -->
<g id="edge8" class="edge">
<title>Node17&#45;&gt;Node4</title>
<path fill="none" stroke="#9a32cd" stroke-dasharray="5,2" d="M304.94,-403.83C357.85,-403.83 433.49,-403.83 488.84,-403.83"/>
<polygon fill="#9a32cd" stroke="#9a32cd" points="304.68,-400.33 294.68,-403.83 304.68,-407.33 304.68,-400.33"/>
<text text-anchor="middle" x="405" y="-406.43" font-family="Helvetica,sans-Serif" font-size="8.00"> S_MQS_MAX_MSG_SZ</text>
</g>
<!-- Node18 -->
<g id="node10" class="node">
<title>Node18</title>
<g id="a_node10"><a xlink:title=" ">
<polygon fill="white" stroke="orangered" points="192,-341.33 192,-376.33 290,-376.33 290,-341.33 192,-341.33"/>
<text text-anchor="start" x="200" y="-365.93" font-family="Helvetica,sans-Serif" font-size="8.00">std::atomic&lt; const</text>
<text text-anchor="start" x="200" y="-356.93" font-family="Helvetica,sans-Serif" font-size="8.00"> ipc::session::Client</text>
<text text-anchor="middle" x="241" y="-347.93" font-family="Helvetica,sans-Serif" font-size="8.00">_app * &gt;</text>
</a>
</g>
</g>
<!-- Node18&#45;&gt;Node4 -->
<g id="edge9" class="edge">
<title>Node18&#45;&gt;Node4</title>
<path fill="none" stroke="#9a32cd" stroke-dasharray="5,2" d="M300.4,-366.92C346.69,-373.34 412.99,-382.59 471,-390.83 476.78,-391.65 482.77,-392.51 488.79,-393.37"/>
<polygon fill="#9a32cd" stroke="#9a32cd" points="300.64,-363.42 290.26,-365.51 299.68,-370.35 300.64,-363.42"/>
<text text-anchor="middle" x="405" y="-393.43" font-family="Helvetica,sans-Serif" font-size="8.00"> m_cli_app_ptr</text>
</g>
<!-- Node20 -->
<g id="node11" class="node">
<title>Node20</title>
<g id="a_node11"><a xlink:href="classipc_1_1util_1_1Shared__name.html" target="_top" xlink:title="String&#45;wrapping abstraction representing a name uniquely distinguishing a kernel&#45;persistent entity fr...">
<polygon fill="white" stroke="red" points="186,-801.33 186,-818.33 296,-818.33 296,-801.33 186,-801.33"/>
<text text-anchor="middle" x="241" y="-807.93" font-family="Helvetica,sans-Serif" font-size="8.00">ipc::util::Shared_name</text>
</a>
</g>
</g>
<!-- Node20&#45;&gt;Node4 -->
<g id="edge10" class="edge">
<title>Node20&#45;&gt;Node4</title>
<path fill="none" stroke="#9a32cd" stroke-dasharray="5,2" d="M306.42,-800.5C366.56,-790.37 450.12,-772.17 471,-746.83 504.45,-706.24 471.75,-560.52 489,-510.83 500.24,-478.47 523.76,-446.57 540.87,-426.14"/>
<polygon fill="#9a32cd" stroke="#9a32cd" points="305.53,-797.1 296.23,-802.18 306.66,-804.01 305.53,-797.1"/>
<text text-anchor="middle" x="405" y="-804.43" font-family="Helvetica,sans-Serif" font-size="8.00"> m_cli_namespace</text>
<text text-anchor="middle" x="405" y="-795.43" font-family="Helvetica,sans-Serif" font-size="8.00">m_srv_namespace</text>
</g>
<!-- Node20&#45;&gt;Node20 -->
<g id="edge11" class="edge">
<title>Node20&#45;&gt;Node20</title>
<path fill="none" stroke="#9a32cd" stroke-dasharray="5,2" d="M216.63,-826.93C216.84,-832.45 224.96,-836.83 241,-836.83 264.87,-836.83 271.21,-827.12 260.02,-818.4"/>
<polygon fill="#9a32cd" stroke="#9a32cd" points="219.63,-828.73 221.98,-818.4 213.7,-825.01 219.63,-828.73"/>
<text text-anchor="middle" x="241" y="-902.43" font-family="Helvetica,sans-Serif" font-size="8.00"> S_1ST_OR_ONLY</text>
<text text-anchor="middle" x="241" y="-893.43" font-family="Helvetica,sans-Serif" font-size="8.00">S_EMPTY</text>
<text text-anchor="start" x="202.5" y="-884.43" font-family="Helvetica,sans-Serif" font-size="8.00">S_RESOURCE_TYPE</text>
<text text-anchor="middle" x="241" y="-875.43" font-family="Helvetica,sans-Serif" font-size="8.00">_ID_MUTEX</text>
<text text-anchor="start" x="202.5" y="-866.43" font-family="Helvetica,sans-Serif" font-size="8.00">S_RESOURCE_TYPE</text>
<text text-anchor="middle" x="241" y="-857.43" font-family="Helvetica,sans-Serif" font-size="8.00">_ID_SHM</text>
<text text-anchor="middle" x="241" y="-848.43" font-family="Helvetica,sans-Serif" font-size="8.00">S_ROOT_MAGIC</text>
<text text-anchor="middle" x="241" y="-839.43" font-family="Helvetica,sans-Serif" font-size="8.00">S_SENTINEL</text>
</g>
<!-- Node32 -->
<g id="node23" class="node">
<title>Node32</title>
<g id="a_node23"><a xlink:href="classipc_1_1transport_1_1sync__io_1_1Native__socket__stream.html" target="_top" xlink:title="Implements both sync_io::Native_handle_sender and sync_io::Native_handle_receiver concepts by using a...">
<polygon fill="white" stroke="black" points="500.5,-962.83 500.5,-988.83 623.5,-988.83 623.5,-962.83 500.5,-962.83"/>
<text text-anchor="start" x="508.5" y="-978.43" font-family="Helvetica,sans-Serif" font-size="8.00">ipc::transport::sync</text>
<text text-anchor="middle" x="562" y="-969.43" font-family="Helvetica,sans-Serif" font-size="8.00">_io::Native_socket_stream</text>
</a>
</g>
</g>
<!-- Node20&#45;&gt;Node32 -->
<g id="edge28" class="edge">
<title>Node20&#45;&gt;Node32</title>
<path fill="none" stroke="#9a32cd" stroke-dasharray="5,2" d="M274.54,-821.82C293.29,-828.58 317.36,-837.01 339,-843.83 397.11,-862.14 418.83,-849.36 471,-880.83 506.79,-902.42 537.63,-942.05 552.14,-962.64"/>
<polygon fill="#9a32cd" stroke="#9a32cd" points="275.58,-818.47 264.99,-818.35 273.19,-825.05 275.58,-818.47"/>
<text text-anchor="middle" x="405" y="-883.43" font-family="Helvetica,sans-Serif" font-size="8.00"> S_RESOURCE_TYPE_ID</text>
</g>
<!-- Node20&#45;&gt;Node41 -->
<g id="edge43" class="edge">
<title>Node20&#45;&gt;Node41</title>
<path fill="none" stroke="#9a32cd" stroke-dasharray="5,2" d="M290.14,-820.24C336.77,-828.67 409.27,-837.41 471,-825.83 493.41,-821.63 517.41,-812.01 534.99,-803.92"/>
<polygon fill="#9a32cd" stroke="#9a32cd" points="290.5,-816.75 280.03,-818.34 289.21,-823.63 290.5,-816.75"/>
<text text-anchor="middle" x="405" y="-833.43" font-family="Helvetica,sans-Serif" font-size="8.00"> m_pool_name</text>
</g>
<!-- Node21 -->
<g id="node12" class="node">
<title>Node21</title>
<g id="a_node12"><a xlink:title=" ">
<polygon fill="white" stroke="#bfbfbf" points="9.5,-844.33 9.5,-861.33 49.5,-861.33 49.5,-844.33 9.5,-844.33"/>
<text text-anchor="middle" x="29.5" y="-850.93" font-family="Helvetica,sans-Serif" font-size="8.00">size_t</text>
</a>
</g>
</g>
<!-- Node21&#45;&gt;Node20 -->
<g id="edge12" class="edge">
<title>Node21&#45;&gt;Node20</title>
<path fill="none" stroke="#9a32cd" stroke-dasharray="5,2" d="M59.73,-846.83C95.84,-839.42 157.49,-826.77 198.48,-818.35"/>
<polygon fill="#9a32cd" stroke="#9a32cd" points="58.93,-843.42 49.83,-848.86 60.33,-850.28 58.93,-843.42"/>
<text text-anchor="middle" x="110" y="-844.43" font-family="Helvetica,sans-Serif" font-size="8.00"> S_MAX_LENGTH</text>
</g>
<!-- Node21&#45;&gt;Node32 -->
<g id="edge30" class="edge">
<title>Node21&#45;&gt;Node32</title>
<path fill="none" stroke="#9a32cd" stroke-dasharray="5,2" d="M41.01,-870.38C60.4,-900.99 105,-963.58 161,-991.83 284.3,-1054.02 335.52,-1039.59 471,-1012.83 494.2,-1008.25 518.94,-997.61 536.6,-988.91"/>
<polygon fill="#9a32cd" stroke="#9a32cd" points="43.85,-868.32 35.61,-861.65 37.89,-872 43.85,-868.32"/>
<text text-anchor="middle" x="241" y="-1037.43" font-family="Helvetica,sans-Serif" font-size="8.00"> S_MAX_META_BLOB_LENGTH</text>
</g>
<!-- Node9 -->
<g id="node13" class="node">
<title>Node9</title>
<g id="a_node13"><a xlink:title=" ">
<polygon fill="white" stroke="red" points="0,-794.33 0,-811.33 59,-811.33 59,-794.33 0,-794.33"/>
<text text-anchor="middle" x="29.5" y="-800.93" font-family="Helvetica,sans-Serif" font-size="8.00">std::string</text>
</a>
</g>
</g>
<!-- Node9&#45;&gt;Node20 -->
<g id="edge13" class="edge">
<title>Node9&#45;&gt;Node20</title>
<path fill="none" stroke="#9a32cd" stroke-dasharray="5,2" d="M69.29,-804.13C102.05,-805.22 149.33,-806.8 185.83,-808.02"/>
<polygon fill="#9a32cd" stroke="#9a32cd" points="69.3,-800.62 59.19,-803.79 69.07,-807.62 69.3,-800.62"/>
<text text-anchor="middle" x="110" y="-808.43" font-family="Helvetica,sans-Serif" font-size="8.00"> m_raw_name</text>
</g>
<!-- Node28 -->
<g id="node19" class="node">
<title>Node28</title>
<g id="a_node19"><a xlink:href="classipc_1_1transport_1_1Protocol__negotiator.html" target="_top" xlink:title="A simple state machine that, assuming the opposide side of a comm pathway uses an equivalent state ma...">
<polygon fill="white" stroke="black" points="506.5,-677.83 506.5,-703.83 617.5,-703.83 617.5,-677.83 506.5,-677.83"/>
<text text-anchor="start" x="514.5" y="-693.43" font-family="Helvetica,sans-Serif" font-size="8.00">ipc::transport::Protocol</text>
<text text-anchor="middle" x="562" y="-684.43" font-family="Helvetica,sans-Serif" font-size="8.00">_negotiator</text>
</a>
</g>
</g>
<!-- Node9&#45;&gt;Node28 -->
<g id="edge23" class="edge">
<title>Node9&#45;&gt;Node28</title>
<path fill="none" stroke="#9a32cd" stroke-dasharray="5,2" d="M69.4,-796.49C95.31,-792.36 130.15,-786.98 161,-782.83 229.73,-773.58 413.51,-785.62 471,-746.83 484.85,-737.49 476.12,-724.47 489,-713.83 494.16,-709.57 500.12,-706.09 506.36,-703.26"/>
<polygon fill="#9a32cd" stroke="#9a32cd" points="68.55,-793.08 59.23,-798.12 69.65,-799.99 68.55,-793.08"/>
<text text-anchor="middle" x="241" y="-785.43" font-family="Helvetica,sans-Serif" font-size="8.00"> m_nickname</text>
</g>
<!-- Node23 -->
<g id="node14" class="node">
<title>Node23</title>
<g id="a_node14"><a xlink:title=" ">
<polygon fill="white" stroke="#bfbfbf" points="205.5,-203.33 205.5,-220.33 276.5,-220.33 276.5,-203.33 205.5,-203.33"/>
<text text-anchor="middle" x="241" y="-209.93" font-family="Helvetica,sans-Serif" font-size="8.00">Task_asio_err</text>
</a>
</g>
</g>
<!-- Node23&#45;&gt;Node3 -->
<g id="edge26" class="edge">
<title>Node23&#45;&gt;Node3</title>
<path fill="none" stroke="#9a32cd" stroke-dasharray="5,2" d="M286.66,-209.51C332.94,-207.74 407.27,-206.67 471,-213.83 579.75,-226.06 702.6,-255.47 781.66,-276.49"/>
<polygon fill="#9a32cd" stroke="#9a32cd" points="286.51,-206.01 276.66,-209.92 286.8,-213 286.51,-206.01"/>
<text text-anchor="middle" x="562" y="-243.43" font-family="Helvetica,sans-Serif" font-size="8.00"> m_log_in_on_done_func</text>
</g>
<!-- Node23&#45;&gt;Node4 -->
<g id="edge14" class="edge">
<title>Node23&#45;&gt;Node4</title>
<path fill="none" stroke="#9a32cd" stroke-dasharray="5,2" d="M286.79,-210.37C336.16,-210.93 415.88,-218.49 471,-256.83 515.59,-287.84 542.19,-348.77 553.9,-381.61"/>
<polygon fill="#9a32cd" stroke="#9a32cd" points="286.75,-206.87 276.74,-210.34 286.73,-213.87 286.75,-206.87"/>
<text text-anchor="middle" x="405" y="-259.43" font-family="Helvetica,sans-Serif" font-size="8.00"> m_on_err_func</text>
</g>
<!-- Node24 -->
<g id="node15" class="node">
<title>Node24</title>
<g id="a_node15"><a xlink:title=" ">
<polygon fill="white" stroke="#bfbfbf" points="161,-287.33 161,-322.33 321,-322.33 321,-287.33 161,-287.33"/>
<text text-anchor="start" x="169" y="-311.93" font-family="Helvetica,sans-Serif" font-size="8.00">Function&lt; void(Channel</text>
<text text-anchor="start" x="169" y="-302.93" font-family="Helvetica,sans-Serif" font-size="8.00">_obj &amp;&amp;new_channel, Mdt</text>
<text text-anchor="middle" x="241" y="-293.93" font-family="Helvetica,sans-Serif" font-size="8.00">_reader_ptr &amp;&amp;new_channel_mdt)&gt;</text>
</a>
</g>
</g>
<!-- Node24&#45;&gt;Node4 -->
<g id="edge15" class="edge">
<title>Node24&#45;&gt;Node4</title>
<path fill="none" stroke="#9a32cd" stroke-dasharray="5,2" d="M331.19,-315.03C374.39,-321.8 426.44,-332.69 471,-349.83 491.92,-357.88 513.51,-370.66 530.3,-381.76"/>
<polygon fill="#9a32cd" stroke="#9a32cd" points="331.67,-311.56 321.26,-313.52 330.62,-318.48 331.67,-311.56"/>
<text text-anchor="start" x="344.5" y="-361.43" font-family="Helvetica,sans-Serif" font-size="8.00"> m_on_passive_open_channel</text>
<text text-anchor="middle" x="405" y="-352.43" font-family="Helvetica,sans-Serif" font-size="8.00">_func_or_empty</text>
</g>
<!-- Node25 -->
<g id="node16" class="node">
<title>Node25</title>
<g id="a_node16"><a xlink:title=" ">
<polygon fill="white" stroke="#bfbfbf" points="211,-249.33 211,-266.33 271,-266.33 271,-249.33 211,-249.33"/>
<text text-anchor="middle" x="241" y="-255.93" font-family="Helvetica,sans-Serif" font-size="8.00">Error_code</text>
</a>
</g>
</g>
<!-- Node25&#45;&gt;Node3 -->
<g id="edge32" class="edge">
<title>Node25&#45;&gt;Node3</title>
<path fill="none" stroke="#9a32cd" stroke-dasharray="5,2" d="M281.35,-259.86C326.99,-262.26 404.46,-266.49 471,-270.83 578.49,-277.84 702.4,-287.18 782,-293.34"/>
<polygon fill="#9a32cd" stroke="#9a32cd" points="281.46,-256.36 271.29,-259.33 281.09,-263.35 281.46,-256.36"/>
<text text-anchor="middle" x="562" y="-284.43" font-family="Helvetica,sans-Serif" font-size="8.00"> m_pre_init_err_code</text>
</g>
<!-- Node25&#45;&gt;Node4 -->
<g id="edge16" class="edge">
<title>Node25&#45;&gt;Node4</title>
<path fill="none" stroke="#9a32cd" stroke-dasharray="5,2" d="M281.07,-262.62C342.1,-270.32 454.81,-285.55 471,-294.83 506.98,-315.45 534.68,-356.35 549.35,-381.76"/>
<polygon fill="#9a32cd" stroke="#9a32cd" points="281.38,-259.13 271.02,-261.36 280.51,-266.07 281.38,-259.13"/>
<text text-anchor="start" x="356.5" y="-306.43" font-family="Helvetica,sans-Serif" font-size="8.00"> m_peer_state_err_code</text>
<text text-anchor="middle" x="405" y="-297.43" font-family="Helvetica,sans-Serif" font-size="8.00">_or_ok</text>
</g>
<!-- Node26 -->
<g id="node17" class="node">
<title>Node26</title>
<g id="a_node17"><a xlink:title=" ">
<polygon fill="white" stroke="#bfbfbf" points="187.5,-665.33 187.5,-682.33 294.5,-682.33 294.5,-665.33 187.5,-665.33"/>
<text text-anchor="middle" x="241" y="-671.93" font-family="Helvetica,sans-Serif" font-size="8.00">flow::log::Log_context</text>
</a>
</g>
</g>
<!-- Node26&#45;&gt;Node3 -->
<g id="edge17" class="edge">
<title>Node26&#45;&gt;Node3</title>
<path fill="none" stroke="midnightblue" d="M304.88,-668.17C351.57,-662.76 416.36,-652.7 471,-634.83 548.45,-609.49 568.8,-600.35 635,-552.83 722.44,-490.06 801.25,-389.13 839.72,-335.69"/>
<polygon fill="midnightblue" stroke="midnightblue" points="304.45,-664.7 294.9,-669.29 305.23,-671.65 304.45,-664.7"/>
</g>
<!-- Node26&#45;&gt;Node28 -->
<g id="edge21" class="edge">
<title>Node26&#45;&gt;Node28</title>
<path fill="none" stroke="midnightblue" d="M304.94,-677.18C363.69,-680.32 450.47,-684.94 506.37,-687.92"/>
<polygon fill="midnightblue" stroke="midnightblue" points="304.85,-673.67 294.68,-676.64 304.48,-680.66 304.85,-673.67"/>
</g>
<!-- Node26&#45;&gt;Node41 -->
<g id="edge41" class="edge">
<title>Node26&#45;&gt;Node41</title>
<path fill="none" stroke="midnightblue" d="M304.64,-681.14C368.04,-689.07 458.48,-702.03 471,-712.83 490.48,-729.63 470.75,-749.71 489,-767.83 496.36,-775.13 506.03,-780.12 515.89,-783.52"/>
<polygon fill="midnightblue" stroke="midnightblue" points="305.07,-677.67 294.72,-679.91 304.21,-684.61 305.07,-677.67"/>
</g>
<!-- Node27 -->
<g id="node18" class="node">
<title>Node27</title>
<g id="a_node18"><a xlink:title=" ">
<polygon fill="white" stroke="#bfbfbf" points="535.5,-158.33 535.5,-175.33 588.5,-175.33 588.5,-158.33 535.5,-158.33"/>
<text text-anchor="middle" x="562" y="-164.93" font-family="Helvetica,sans-Serif" font-size="8.00">ShmType</text>
</a>
</g>
</g>
<!-- Node27&#45;&gt;Node3 -->
<g id="edge18" class="edge">
<title>Node27&#45;&gt;Node3</title>
<path fill="none" stroke="#9a32cd" stroke-dasharray="5,2" d="M599.06,-169.36C653.52,-173.5 751.73,-182.31 764,-192.83 785.79,-211.5 764.02,-232.46 782,-254.83 784.66,-258.14 787.63,-261.24 790.82,-264.13"/>
<polygon fill="#9a32cd" stroke="#9a32cd" points="599.02,-165.85 588.79,-168.6 598.5,-172.83 599.02,-165.85"/>
<text text-anchor="middle" x="708.5" y="-195.43" font-family="Helvetica,sans-Serif" font-size="8.00"> S_SHM_TYPE</text>
</g>
<!-- Node28&#45;&gt;Node3 -->
<g id="edge20" class="edge">
<title>Node28&#45;&gt;Node3</title>
<path fill="none" stroke="#9a32cd" stroke-dasharray="5,2" d="M628.06,-698.88C671.56,-700.54 727.32,-694.97 764,-662.83 813.73,-619.25 847.61,-417.96 859.65,-335.35"/>
<polygon fill="#9a32cd" stroke="#9a32cd" points="628.02,-695.37 617.85,-698.35 627.65,-702.36 628.02,-695.37"/>
<text text-anchor="middle" x="708.5" y="-710.43" font-family="Helvetica,sans-Serif" font-size="8.00"> m_protocol_negotiator</text>
<text text-anchor="middle" x="708.5" y="-701.43" font-family="Helvetica,sans-Serif" font-size="8.00">m_protocol_negotiator_aux</text>
</g>
<!-- Node29 -->
<g id="node20" class="node">
<title>Node29</title>
<g id="a_node20"><a xlink:title=" ">
<polygon fill="white" stroke="#bfbfbf" points="188.5,-602.83 188.5,-628.83 293.5,-628.83 293.5,-602.83 188.5,-602.83"/>
<text text-anchor="start" x="196.5" y="-618.43" font-family="Helvetica,sans-Serif" font-size="8.00">static constexpr proto</text>
<text text-anchor="middle" x="241" y="-609.43" font-family="Helvetica,sans-Serif" font-size="8.00">_ver_t</text>
</a>
</g>
</g>
<!-- Node29&#45;&gt;Node28 -->
<g id="edge22" class="edge">
<title>Node29&#45;&gt;Node28</title>
<path fill="none" stroke="#9a32cd" stroke-dasharray="5,2" d="M303.46,-623.7C349.96,-630.4 415.14,-641.42 471,-656.83 491.29,-662.43 513.41,-670.75 530.64,-677.76"/>
<polygon fill="#9a32cd" stroke="#9a32cd" points="303.93,-620.23 293.54,-622.29 302.95,-627.16 303.93,-620.23"/>
<text text-anchor="middle" x="405" y="-668.43" font-family="Helvetica,sans-Serif" font-size="8.00"> S_VER_UNKNOWN</text>
<text text-anchor="middle" x="405" y="-659.43" font-family="Helvetica,sans-Serif" font-size="8.00">S_VER_UNSUPPORTED</text>
</g>
<!-- Node30 -->
<g id="node21" class="node">
<title>Node30</title>
<g id="a_node21"><a xlink:title=" ">
<polygon fill="white" stroke="#bfbfbf" points="219,-720.33 219,-737.33 263,-737.33 263,-720.33 219,-720.33"/>
<text text-anchor="middle" x="241" y="-726.93" font-family="Helvetica,sans-Serif" font-size="8.00">int16_t</text>
</a>
</g>
</g>
<!-- Node30&#45;&gt;Node28 -->
<g id="edge24" class="edge">
<title>Node30&#45;&gt;Node28</title>
<path fill="none" stroke="#9a32cd" stroke-dasharray="5,2" d="M273.19,-725.11C327.26,-718.67 439.04,-705.36 506.28,-697.35"/>
<polygon fill="#9a32cd" stroke="#9a32cd" points="272.69,-721.65 263.18,-726.31 273.52,-728.6 272.69,-721.65"/>
<text text-anchor="middle" x="405" y="-736.43" font-family="Helvetica,sans-Serif" font-size="8.00"> m_local_max_proto_ver</text>
<text text-anchor="middle" x="405" y="-727.43" font-family="Helvetica,sans-Serif" font-size="8.00">m_local_min_proto_ver</text>
<text text-anchor="middle" x="405" y="-718.43" font-family="Helvetica,sans-Serif" font-size="8.00">m_negotiated_proto_ver</text>
</g>
<!-- Node31 -->
<g id="node22" class="node">
<title>Node31</title>
<g id="a_node22"><a xlink:title=" ">
<polygon fill="white" stroke="#bfbfbf" points="223.5,-965.33 223.5,-982.33 258.5,-982.33 258.5,-965.33 223.5,-965.33"/>
<text text-anchor="middle" x="241" y="-971.93" font-family="Helvetica,sans-Serif" font-size="8.00">bool</text>
</a>
</g>
</g>
<!-- Node31&#45;&gt;Node28 -->
<g id="edge25" class="edge">
<title>Node31&#45;&gt;Node28</title>
<path fill="none" stroke="#9a32cd" stroke-dasharray="5,2" d="M268.88,-969.54C326.47,-960.1 457.66,-937.13 471,-921.83 501.48,-886.86 460.05,-750.08 489,-713.83 493.59,-708.09 499.61,-703.76 506.23,-700.5"/>
<polygon fill="#9a32cd" stroke="#9a32cd" points="268.02,-966.13 258.71,-971.19 269.14,-973.04 268.02,-966.13"/>
<text text-anchor="middle" x="405" y="-958.43" font-family="Helvetica,sans-Serif" font-size="8.00"> m_local_max_proto_ver_sent</text>
</g>
<!-- Node31&#45;&gt;Node32 -->
<g id="edge29" class="edge">
<title>Node31&#45;&gt;Node32</title>
<path fill="none" stroke="#9a32cd" stroke-dasharray="5,2" d="M268.85,-974C319.58,-974.32 430.63,-975.01 500.26,-975.45"/>
<polygon fill="#9a32cd" stroke="#9a32cd" points="268.72,-970.5 258.7,-973.93 268.68,-977.5 268.72,-970.5"/>
<text text-anchor="middle" x="405" y="-1004.43" font-family="Helvetica,sans-Serif" font-size="8.00"> S_BLOB_UNDERFLOW_ALLOWED</text>
<text text-anchor="start" x="339" y="-995.43" font-family="Helvetica,sans-Serif" font-size="8.00">S_META_BLOB_UNDERFLOW</text>
<text text-anchor="middle" x="405" y="-986.43" font-family="Helvetica,sans-Serif" font-size="8.00">_ALLOWED</text>
<text text-anchor="middle" x="405" y="-977.43" font-family="Helvetica,sans-Serif" font-size="8.00">S_TRANSMIT_NATIVE_HANDLES</text>
</g>
<!-- Node32&#45;&gt;Node3 -->
<g id="edge27" class="edge">
<title>Node32&#45;&gt;Node3</title>
<path fill="none" stroke="#9a32cd" stroke-dasharray="5,2" d="M588.94,-956.6C632.42,-922.88 719.61,-848.66 764,-764.83 841.4,-618.66 859.2,-416.64 863.29,-335.59"/>
<polygon fill="#9a32cd" stroke="#9a32cd" points="586.66,-953.93 580.85,-962.79 590.92,-959.49 586.66,-953.93"/>
<text text-anchor="middle" x="708.5" y="-900.43" font-family="Helvetica,sans-Serif" font-size="8.00"> m_master_sock_stm</text>
</g>
<!-- Node33 -->
<g id="node24" class="node">
<title>Node33</title>
<g id="a_node24"><a xlink:title=" ">
<polygon fill="white" stroke="#bfbfbf" points="182,-1054.33 182,-1089.33 300,-1089.33 300,-1054.33 182,-1054.33"/>
<text text-anchor="start" x="190" y="-1078.93" font-family="Helvetica,sans-Serif" font-size="8.00">propagate_const&lt; boost</text>
<text text-anchor="start" x="190" y="-1069.93" font-family="Helvetica,sans-Serif" font-size="8.00">::movelib::unique_ptr</text>
<text text-anchor="middle" x="241" y="-1060.93" font-family="Helvetica,sans-Serif" font-size="8.00">&lt; Impl &gt; &gt;</text>
</a>
</g>
</g>
<!-- Node33&#45;&gt;Node32 -->
<g id="edge31" class="edge">
<title>Node33&#45;&gt;Node32</title>
<path fill="none" stroke="#9a32cd" stroke-dasharray="5,2" d="M310.46,-1071.23C357.16,-1068.76 419.63,-1061.35 471,-1040.83 501.25,-1028.75 530.78,-1004.29 547.36,-989.06"/>
<polygon fill="#9a32cd" stroke="#9a32cd" points="310.27,-1067.73 300.44,-1071.69 310.59,-1074.72 310.27,-1067.73"/>
<text text-anchor="middle" x="405" y="-1070.43" font-family="Helvetica,sans-Serif" font-size="8.00"> m_impl</text>
</g>
<!-- Node34 -->
<g id="node25" class="node">
<title>Node34</title>
<g id="a_node25"><a xlink:title=" ">
<polygon fill="white" stroke="#bfbfbf" points="528,-119.33 528,-136.33 596,-136.33 596,-119.33 528,-119.33"/>
<text text-anchor="middle" x="562" y="-125.93" font-family="Helvetica,sans-Serif" font-size="8.00">unsigned int</text>
</a>
</g>
</g>
<!-- Node34&#45;&gt;Node3 -->
<g id="edge33" class="edge">
<title>Node34&#45;&gt;Node3</title>
<path fill="none" stroke="#9a32cd" stroke-dasharray="5,2" d="M605.96,-121.02C657.92,-113.85 741.29,-106.07 764,-125.83 807.67,-163.83 749.07,-207.22 782,-254.83 784.32,-258.18 786.97,-261.31 789.87,-264.23"/>
<polygon fill="#9a32cd" stroke="#9a32cd" points="605.41,-117.57 596.01,-122.44 606.4,-124.5 605.41,-117.57"/>
<text text-anchor="start" x="656.5" y="-164.43" font-family="Helvetica,sans-Serif" font-size="8.00"> m_last_actively_opened</text>
<text text-anchor="middle" x="708.5" y="-155.43" font-family="Helvetica,sans-Serif" font-size="8.00">_channel_id</text>
<text text-anchor="middle" x="708.5" y="-146.43" font-family="Helvetica,sans-Serif" font-size="8.00">m_last_channel_mq_id</text>
<text text-anchor="start" x="656.5" y="-137.43" font-family="Helvetica,sans-Serif" font-size="8.00">m_last_passively_opened</text>
<text text-anchor="middle" x="708.5" y="-128.43" font-family="Helvetica,sans-Serif" font-size="8.00">_channel_id</text>
</g>
<!-- Node35 -->
<g id="node26" class="node">
<title>Node35</title>
<g id="a_node26"><a xlink:title=" ">
<polygon fill="white" stroke="#bfbfbf" points="504,-83.33 504,-100.33 620,-100.33 620,-83.33 504,-83.33"/>
<text text-anchor="middle" x="562" y="-89.93" font-family="Helvetica,sans-Serif" font-size="8.00">Single_thread_task_loop</text>
</a>
</g>
</g>
<!-- Node35&#45;&gt;Node3 -->
<g id="edge34" class="edge">
<title>Node35&#45;&gt;Node3</title>
<path fill="none" stroke="#9a32cd" stroke-dasharray="5,2" d="M600.17,-80.72C645.14,-69.81 720.24,-60.09 764,-100.83 789.22,-124.31 762.72,-226.27 782,-254.83 784.28,-258.21 786.91,-261.36 789.78,-264.29"/>
<polygon fill="#9a32cd" stroke="#9a32cd" points="599.06,-77.39 590.24,-83.27 600.8,-84.17 599.06,-77.39"/>
<text text-anchor="middle" x="708.5" y="-103.43" font-family="Helvetica,sans-Serif" font-size="8.00"> m_async_worker</text>
</g>
<!-- Node36 -->
<g id="node27" class="node">
<title>Node36</title>
<g id="a_node27"><a xlink:title=" ">
<polygon fill="white" stroke="#bfbfbf" points="491,-47.33 491,-64.33 633,-64.33 633,-47.33 491,-47.33"/>
<text text-anchor="middle" x="562" y="-53.93" font-family="Helvetica,sans-Serif" font-size="8.00">Master_structured_channel_ptr</text>
</a>
</g>
</g>
<!-- Node36&#45;&gt;Node3 -->
<g id="edge35" class="edge">
<title>Node36&#45;&gt;Node3</title>
<path fill="none" stroke="#9a32cd" stroke-dasharray="5,2" d="M643.28,-46.51C691.46,-42.86 746.67,-42.78 764,-58.83 796.09,-88.55 757.97,-218.28 782,-254.83 784.15,-258.1 786.62,-261.16 789.34,-264"/>
<polygon fill="#9a32cd" stroke="#9a32cd" points="642.81,-43.04 633.13,-47.34 643.38,-50.01 642.81,-43.04"/>
<text text-anchor="middle" x="708.5" y="-61.43" font-family="Helvetica,sans-Serif" font-size="8.00"> m_master_channel</text>
</g>
<!-- Node37 -->
<g id="node28" class="node">
<title>Node37</title>
<g id="a_node28"><a xlink:href="classFunction_3_01void_07_08_4.html" target="_top" xlink:title=" ">
<polygon fill="white" stroke="#bfbfbf" points="516.5,-11.33 516.5,-28.33 607.5,-28.33 607.5,-11.33 516.5,-11.33"/>
<text text-anchor="middle" x="562" y="-17.93" font-family="Helvetica,sans-Serif" font-size="8.00">Function&lt; void()&gt;</text>
</a>
</g>
</g>
<!-- Node37&#45;&gt;Node3 -->
<g id="edge36" class="edge">
<title>Node37&#45;&gt;Node3</title>
<path fill="none" stroke="#9a32cd" stroke-dasharray="5,2" d="M601.33,-8.93C646.72,1.39 721.51,9.78 764,-31.83 799.52,-66.62 754.92,-213.13 782,-254.83 784.13,-258.11 786.59,-261.18 789.29,-264.03"/>
<polygon fill="#9a32cd" stroke="#9a32cd" points="600.46,-5.54 591.56,-11.28 602.1,-12.34 600.46,-5.54"/>
<text text-anchor="middle" x="708.5" y="-34.43" font-family="Helvetica,sans-Serif" font-size="8.00"> m_deinit_func_or_empty</text>
</g>
<!-- Node38 -->
<g id="node29" class="node">
<title>Node38</title>
<g id="a_node29"><a xlink:title=" ">
<polygon fill="white" stroke="#bfbfbf" points="499.5,-723.33 499.5,-758.33 624.5,-758.33 624.5,-723.33 499.5,-723.33"/>
<text text-anchor="start" x="507.5" y="-747.93" font-family="Helvetica,sans-Serif" font-size="8.00">optional&lt; typename</text>
<text text-anchor="start" x="507.5" y="-738.93" font-family="Helvetica,sans-Serif" font-size="8.00"> ipc::session::Session</text>
<text text-anchor="middle" x="562" y="-729.93" font-family="Helvetica,sans-Serif" font-size="8.00">_base::Graceful_finisher &gt;</text>
</a>
</g>
</g>
<!-- Node38&#45;&gt;Node3 -->
<g id="edge37" class="edge">
<title>Node38&#45;&gt;Node3</title>
<path fill="none" stroke="#9a32cd" stroke-dasharray="5,2" d="M634.84,-751.93C677.3,-754.31 729.37,-749.34 764,-718.83 821.89,-667.83 851.73,-427.04 861.15,-335.37"/>
<polygon fill="#9a32cd" stroke="#9a32cd" points="635.05,-748.44 624.83,-751.23 634.56,-755.42 635.05,-748.44"/>
<text text-anchor="middle" x="708.5" y="-754.43" font-family="Helvetica,sans-Serif" font-size="8.00"> m_graceful_finisher</text>
</g>
<!-- Node39 -->
<g id="node30" class="node">
<title>Node39</title>
<g id="a_node30"><a xlink:title=" ">
<polygon fill="white" stroke="#bfbfbf" points="802.5,-228.33 802.5,-245.33 928.5,-245.33 928.5,-228.33 802.5,-228.33"/>
<text text-anchor="middle" x="865.5" y="-234.93" font-family="Helvetica,sans-Serif" font-size="8.00">static constexpr scope_id_t</text>
</a>
</g>
</g>
<!-- Node39&#45;&gt;Node2 -->
<g id="edge38" class="edge">
<title>Node39&#45;&gt;Node2</title>
<path fill="none" stroke="#9a32cd" stroke-dasharray="5,2" d="M938.74,-242.16C973.61,-244.95 1016.02,-248.65 1054,-252.83 1059.8,-253.47 1065.76,-254.16 1071.77,-254.89"/>
<polygon fill="#9a32cd" stroke="#9a32cd" points="938.89,-238.66 928.65,-241.36 938.34,-245.64 938.89,-238.66"/>
<text text-anchor="middle" x="1010.5" y="-264.43" font-family="Helvetica,sans-Serif" font-size="8.00"> S_SCOPE_ID_APP</text>
<text text-anchor="middle" x="1010.5" y="-255.43" font-family="Helvetica,sans-Serif" font-size="8.00">S_SCOPE_ID_SESSION</text>
</g>
<!-- Node40 -->
<g id="node31" class="node">
<title>Node40</title>
<g id="a_node31"><a xlink:title=" ">
<polygon fill="white" stroke="#bfbfbf" points="814.5,-192.33 814.5,-209.33 916.5,-209.33 916.5,-192.33 814.5,-192.33"/>
<text text-anchor="middle" x="865.5" y="-198.93" font-family="Helvetica,sans-Serif" font-size="8.00">unique_ptr&lt; Arena &gt;</text>
</a>
</g>
</g>
<!-- Node40&#45;&gt;Node2 -->
<g id="edge39" class="edge">
<title>Node40&#45;&gt;Node2</title>
<path fill="none" stroke="#9a32cd" stroke-dasharray="5,2" d="M926.77,-208.45C963.77,-213.71 1011.95,-221.6 1054,-231.83 1059.81,-233.24 1065.75,-234.81 1071.72,-236.47"/>
<polygon fill="#9a32cd" stroke="#9a32cd" points="927.04,-204.96 916.65,-207.04 926.07,-211.89 927.04,-204.96"/>
<text text-anchor="middle" x="1010.5" y="-234.43" font-family="Helvetica,sans-Serif" font-size="8.00"> m_session_shm</text>
</g>
<!-- Node41&#45;&gt;Node2 -->
<g id="edge40" class="edge">
<title>Node41&#45;&gt;Node2</title>
<path fill="none" stroke="#9a32cd" stroke-dasharray="5,2" d="M618.5,-787.96C669.2,-784.52 739.81,-777.43 764,-763.83 957.28,-655.15 1093.55,-413 1143.73,-312.69"/>
<polygon fill="#9a32cd" stroke="#9a32cd" points="618.08,-784.48 608.33,-788.62 618.54,-791.46 618.08,-784.48"/>
<text text-anchor="middle" x="865.5" y="-751.43" font-family="Helvetica,sans-Serif" font-size="8.00"> m_app_shm</text>
</g>
<!-- Node42 -->
<g id="node33" class="node">
<title>Node42</title>
<g id="a_node33"><a xlink:title=" ">
<polygon fill="white" stroke="#bfbfbf" points="193.5,-927.33 193.5,-944.33 288.5,-944.33 288.5,-927.33 193.5,-927.33"/>
<text text-anchor="middle" x="241" y="-933.93" font-family="Helvetica,sans-Serif" font-size="8.00">unique_ptr&lt; Pool &gt;</text>
</a>
</g>
</g>
<!-- Node42&#45;&gt;Node41 -->
<g id="edge44" class="edge">
<title>Node42&#45;&gt;Node41</title>
<path fill="none" stroke="#9a32cd" stroke-dasharray="5,2" d="M290.87,-925.07C300.86,-922.77 311.28,-920.29 321,-917.83 329.05,-915.8 330.9,-914.66 339,-912.83 397.09,-899.73 418.82,-918.52 471,-889.83 509.06,-868.9 539.54,-825.72 553.21,-803.97"/>
<polygon fill="#9a32cd" stroke="#9a32cd" points="290.03,-921.67 281.06,-927.31 291.59,-928.5 290.03,-921.67"/>
<text text-anchor="middle" x="405" y="-915.43" font-family="Helvetica,sans-Serif" font-size="8.00"> m_pool</text>
</g>
</g>
</svg>
