<?xml version="1.0" encoding="UTF-8" standalone="no"?>
<!DOCTYPE svg PUBLIC "-//W3C//DTD SVG 1.1//EN"
 "http://www.w3.org/Graphics/SVG/1.1/DTD/svg11.dtd">
<!-- Generated by graphviz version 2.43.0 (0)
 -->
<!-- Title: ipc::util::Shared_name::str Pages: 1 -->
<svg width="640pt" height="900pt"
 viewBox="0.00 0.00 640.00 899.50" xmlns="http://www.w3.org/2000/svg" xmlns:xlink="http://www.w3.org/1999/xlink">
<g id="graph0" class="graph" transform="scale(1 1) rotate(0) translate(4 895.5)">
<title>ipc::util::Shared_name::str</title>
<polygon fill="white" stroke="transparent" points="-4,4 -4,-895.5 636,-895.5 636,4 -4,4"/>
<!-- Node1 -->
<g id="node1" class="node">
<title>Node1</title>
<g id="a_node1"><a xlink:title="Returns (sans copying) ref to immutable entire wrapped name string, suitable to pass into sys calls w...">
<polygon fill="#bfbfbf" stroke="black" points="506,-435 506,-452 632,-452 632,-435 506,-435"/>
<text text-anchor="middle" x="569" y="-441.6" font-family="Helvetica,sans-Serif" font-size="8.00">ipc::util::Shared_name::str</text>
</a>
</g>
</g>
<!-- Node2 -->
<g id="node2" class="node">
<title>Node2</title>
<g id="a_node2"><a xlink:href="classipc_1_1session_1_1Server__session__impl.html#aee35d521d9997d48f6b5565730e60e93" target="_top" xlink:title="For use by internal user Session_server: See Server_session_mv counterpart.">
<polygon fill="white" stroke="black" points="347,-856 347,-891 450,-891 450,-856 347,-856"/>
<text text-anchor="start" x="355" y="-880.6" font-family="Helvetica,sans-Serif" font-size="8.00">ipc::session::Server</text>
<text text-anchor="start" x="355" y="-871.6" font-family="Helvetica,sans-Serif" font-size="8.00">_session_impl::async</text>
<text text-anchor="middle" x="398.5" y="-862.6" font-family="Helvetica,sans-Serif" font-size="8.00">_accept_log_in</text>
</a>
</g>
</g>
<!-- Node1&#45;&gt;Node2 -->
<g id="edge1" class="edge">
<title>Node1&#45;&gt;Node2</title>
<path fill="none" stroke="midnightblue" d="M565.55,-462.46C556.05,-533.32 519.74,-781.61 470,-841.5 464.59,-848.01 457.57,-853.26 450.07,-857.47"/>
<polygon fill="midnightblue" stroke="midnightblue" points="569.04,-462.71 566.88,-452.34 562.1,-461.79 569.04,-462.71"/>
</g>
<!-- Node3 -->
<g id="node3" class="node">
<title>Node3</title>
<g id="a_node3"><a xlink:href="classipc_1_1session_1_1shm_1_1arena__lend_1_1jemalloc_1_1Client__session__impl.html#a697e64450297808bb9ca5c6a870c1fe9" target="_top" xlink:title="Invoked on m_async_cleanup_worker, performs a round of the SHM&#45;pool cleanup algorithm and schedules s...">
<polygon fill="white" stroke="black" points="163.5,-798.5 163.5,-842.5 266.5,-842.5 266.5,-798.5 163.5,-798.5"/>
<text text-anchor="start" x="171.5" y="-832.1" font-family="Helvetica,sans-Serif" font-size="8.00">ipc::session::shm::</text>
<text text-anchor="start" x="171.5" y="-823.1" font-family="Helvetica,sans-Serif" font-size="8.00">arena_lend::jemalloc</text>
<text text-anchor="start" x="171.5" y="-814.1" font-family="Helvetica,sans-Serif" font-size="8.00">::Client_session_impl</text>
<text text-anchor="middle" x="215" y="-805.1" font-family="Helvetica,sans-Serif" font-size="8.00">::cleanup</text>
</a>
</g>
</g>
<!-- Node1&#45;&gt;Node3 -->
<g id="edge2" class="edge">
<title>Node1&#45;&gt;Node3</title>
<path fill="none" stroke="midnightblue" d="M565.83,-462.37C557.57,-530.73 525.68,-763.67 470,-808.5 412.83,-854.53 322.79,-845.83 266.69,-834.08"/>
<polygon fill="midnightblue" stroke="midnightblue" points="569.33,-462.57 567.03,-452.23 562.38,-461.75 569.33,-462.57"/>
</g>
<!-- Node5 -->
<g id="node5" class="node">
<title>Node5</title>
<g id="a_node5"><a xlink:href="classipc_1_1session_1_1shm_1_1arena__lend_1_1jemalloc_1_1Session__server.html#aafb28832358d6f75f363b932c291884f" target="_top" xlink:title="Invoked on m_async_cleanup_worker, performs a round of the SHM&#45;pool cleanup algorithm and schedules s...">
<polygon fill="white" stroke="black" points="153.5,-732 153.5,-767 276.5,-767 276.5,-732 153.5,-732"/>
<text text-anchor="start" x="161.5" y="-756.6" font-family="Helvetica,sans-Serif" font-size="8.00">ipc::session::shm::</text>
<text text-anchor="start" x="161.5" y="-747.6" font-family="Helvetica,sans-Serif" font-size="8.00">arena_lend::jemalloc</text>
<text text-anchor="middle" x="215" y="-738.6" font-family="Helvetica,sans-Serif" font-size="8.00">::Session_server::cleanup</text>
</a>
</g>
</g>
<!-- Node1&#45;&gt;Node5 -->
<g id="edge4" class="edge">
<title>Node1&#45;&gt;Node5</title>
<path fill="none" stroke="midnightblue" d="M567.87,-462.24C566.39,-513.73 554.56,-657.97 470,-724.5 440.97,-747.34 341.99,-751.04 276.5,-750.83"/>
<polygon fill="midnightblue" stroke="midnightblue" points="571.37,-462.28 568.05,-452.22 564.37,-462.15 571.37,-462.28"/>
</g>
<!-- Node6 -->
<g id="node6" class="node">
<title>Node6</title>
<g id="a_node6"><a xlink:href="namespaceipc_1_1session.html#ac970e7d7b97c1a9737bd836a6a7f77ec" target="_top" xlink:title="Decomposes a Shared_name built as&#45;if by build_conventional_shared_name() overload 1 (non&#45;global&#45;scope...">
<polygon fill="white" stroke="black" points="332,-772.5 332,-798.5 465,-798.5 465,-772.5 332,-772.5"/>
<text text-anchor="start" x="340" y="-788.1" font-family="Helvetica,sans-Serif" font-size="8.00">ipc::session::decompose</text>
<text text-anchor="middle" x="398.5" y="-779.1" font-family="Helvetica,sans-Serif" font-size="8.00">_conventional_shared_name</text>
</a>
</g>
</g>
<!-- Node1&#45;&gt;Node6 -->
<g id="edge5" class="edge">
<title>Node1&#45;&gt;Node6</title>
<path fill="none" stroke="midnightblue" d="M567.52,-462.38C565.14,-515.81 551.22,-669.9 470,-757.5 464.18,-763.78 456.77,-768.67 448.95,-772.48"/>
<polygon fill="midnightblue" stroke="midnightblue" points="571.02,-462.17 567.88,-452.05 564.03,-461.92 571.02,-462.17"/>
</g>
<!-- Node7 -->
<g id="node7" class="node">
<title>Node7</title>
<g id="a_node7"><a xlink:href="namespaceipc_1_1transport_1_1asio__local__stream__socket.html#af872520154fc00afaa59c7eec607a225" target="_top" xlink:title="Returns an Endpoint corresponding to the given absolute Shared_name, so that an Acceptor or Peer_sock...">
<polygon fill="white" stroke="black" points="333,-662 333,-697 464,-697 464,-662 333,-662"/>
<text text-anchor="start" x="341" y="-686.6" font-family="Helvetica,sans-Serif" font-size="8.00">ipc::transport::asio</text>
<text text-anchor="start" x="341" y="-677.6" font-family="Helvetica,sans-Serif" font-size="8.00">_local_stream_socket</text>
<text text-anchor="middle" x="398.5" y="-668.6" font-family="Helvetica,sans-Serif" font-size="8.00">::endpoint_at_shared_name</text>
</a>
</g>
</g>
<!-- Node1&#45;&gt;Node7 -->
<g id="edge8" class="edge">
<title>Node1&#45;&gt;Node7</title>
<path fill="none" stroke="midnightblue" d="M564.25,-461.99C555.18,-502.18 528.36,-598.24 470,-652.5 466.16,-656.07 461.8,-659.18 457.17,-661.9"/>
<polygon fill="midnightblue" stroke="midnightblue" points="567.72,-462.53 566.39,-452.02 560.87,-461.06 567.72,-462.53"/>
</g>
<!-- Node10 -->
<g id="node10" class="node">
<title>Node10</title>
<g id="a_node10"><a xlink:href="classipc_1_1util_1_1Shared__name.html#aba4ae811264cbb7e664ce126b591cbc7" target="_top" xlink:title="Hasher of Shared_name for boost.unordered et al.">
<polygon fill="white" stroke="black" points="343.5,-616.5 343.5,-642.5 453.5,-642.5 453.5,-616.5 343.5,-616.5"/>
<text text-anchor="start" x="351.5" y="-632.1" font-family="Helvetica,sans-Serif" font-size="8.00">ipc::util::Shared_name</text>
<text text-anchor="middle" x="398.5" y="-623.1" font-family="Helvetica,sans-Serif" font-size="8.00">::hash_value</text>
</a>
</g>
</g>
<!-- Node1&#45;&gt;Node10 -->
<g id="edge12" class="edge">
<title>Node1&#45;&gt;Node10</title>
<path fill="none" stroke="midnightblue" d="M561.87,-461.9C549.72,-495.54 519.43,-567.14 470,-606.5 465.06,-610.43 459.44,-613.7 453.56,-616.41"/>
<polygon fill="midnightblue" stroke="midnightblue" points="565.31,-462.64 565.29,-452.04 558.7,-460.34 565.31,-462.64"/>
</g>
<!-- Node11 -->
<g id="node11" class="node">
<title>Node11</title>
<g id="a_node11"><a xlink:href="classipc_1_1session_1_1shm_1_1arena__lend_1_1jemalloc_1_1Session__impl.html#a46155078d8764c71a8d75db64345074b" target="_top" xlink:title="To be invoked at most once, synchronously sets up nearly&#45;all aspects of this arena&#45;lending&#45;SHM&#45;capabl...">
<polygon fill="white" stroke="black" points="340.5,-562 340.5,-597 456.5,-597 456.5,-562 340.5,-562"/>
<text text-anchor="start" x="348.5" y="-586.6" font-family="Helvetica,sans-Serif" font-size="8.00">ipc::session::shm::</text>
<text text-anchor="start" x="348.5" y="-577.6" font-family="Helvetica,sans-Serif" font-size="8.00">arena_lend::jemalloc</text>
<text text-anchor="middle" x="398.5" y="-568.6" font-family="Helvetica,sans-Serif" font-size="8.00">::Session_impl::init_shm</text>
</a>
</g>
</g>
<!-- Node1&#45;&gt;Node11 -->
<g id="edge13" class="edge">
<title>Node1&#45;&gt;Node11</title>
<path fill="none" stroke="midnightblue" d="M556.74,-460.42C540.25,-484.01 507.4,-526.8 470,-552.5 464.92,-555.99 459.33,-559.11 453.59,-561.87"/>
<polygon fill="midnightblue" stroke="midnightblue" points="559.66,-462.35 562.41,-452.12 553.88,-458.4 559.66,-462.35"/>
</g>
<!-- Node12 -->
<g id="node12" class="node">
<title>Node12</title>
<g id="a_node12"><a xlink:href="classipc_1_1session_1_1Server__session__impl.html#a138956765a655240080491157f316167" target="_top" xlink:title="See Server_session_mv counterpart.">
<polygon fill="white" stroke="black" points="335,-516.5 335,-542.5 462,-542.5 462,-516.5 335,-516.5"/>
<text text-anchor="start" x="343" y="-532.1" font-family="Helvetica,sans-Serif" font-size="8.00">ipc::session::Server</text>
<text text-anchor="middle" x="398.5" y="-523.1" font-family="Helvetica,sans-Serif" font-size="8.00">_session_impl::mdt_builder</text>
</a>
</g>
</g>
<!-- Node1&#45;&gt;Node12 -->
<g id="edge14" class="edge">
<title>Node1&#45;&gt;Node12</title>
<path fill="none" stroke="midnightblue" d="M548.6,-458.11C529.42,-472.01 498.86,-492.79 470,-506.5 462.21,-510.2 453.67,-513.54 445.3,-516.45"/>
<polygon fill="midnightblue" stroke="midnightblue" points="550.81,-460.82 556.79,-452.07 546.67,-455.18 550.81,-460.82"/>
</g>
<!-- Node13 -->
<g id="node13" class="node">
<title>Node13</title>
<g id="a_node13"><a xlink:href="classipc_1_1session_1_1Server__session__impl.html#a804c629b2da8898376f071db499a2173" target="_top" xlink:title="In thread W, handler for m_master_channel receiving a passive&#45;open (a/k/a open&#45;channel&#45;to&#45;server) req...">
<polygon fill="white" stroke="black" points="332.5,-462 332.5,-497 464.5,-497 464.5,-462 332.5,-462"/>
<text text-anchor="start" x="340.5" y="-486.6" font-family="Helvetica,sans-Serif" font-size="8.00">ipc::session::Server</text>
<text text-anchor="start" x="340.5" y="-477.6" font-family="Helvetica,sans-Serif" font-size="8.00">_session_impl::on_master</text>
<text text-anchor="middle" x="398.5" y="-468.6" font-family="Helvetica,sans-Serif" font-size="8.00">_channel_open_channel_req</text>
</a>
</g>
</g>
<!-- Node1&#45;&gt;Node13 -->
<g id="edge15" class="edge">
<title>Node1&#45;&gt;Node13</title>
<path fill="none" stroke="midnightblue" d="M517.94,-454.2C501.18,-457.78 482.24,-461.82 464.5,-465.61"/>
<polygon fill="midnightblue" stroke="midnightblue" points="519.02,-457.54 528.07,-452.03 517.56,-450.7 519.02,-457.54"/>
</g>
<!-- Node14 -->
<g id="node14" class="node">
<title>Node14</title>
<g id="a_node14"><a xlink:href="classipc_1_1transport_1_1Native__socket__stream__acceptor.html#af52346c8df9efc457efaec35bc6c0807" target="_top" xlink:title="Handler for incoming connection on m_acceptor.">
<polygon fill="white" stroke="black" points="327,-390 327,-425 470,-425 470,-390 327,-390"/>
<text text-anchor="start" x="335" y="-414.6" font-family="Helvetica,sans-Serif" font-size="8.00">ipc::transport::Native</text>
<text text-anchor="start" x="335" y="-405.6" font-family="Helvetica,sans-Serif" font-size="8.00">_socket_stream_acceptor</text>
<text text-anchor="middle" x="398.5" y="-396.6" font-family="Helvetica,sans-Serif" font-size="8.00">::on_next_peer_socket_or_error</text>
</a>
</g>
</g>
<!-- Node1&#45;&gt;Node14 -->
<g id="edge16" class="edge">
<title>Node1&#45;&gt;Node14</title>
<path fill="none" stroke="midnightblue" d="M517.98,-432.81C502.97,-429.61 486.22,-426.03 470.14,-422.59"/>
<polygon fill="midnightblue" stroke="midnightblue" points="517.56,-436.3 528.07,-434.97 519.02,-429.46 517.56,-436.3"/>
</g>
<!-- Node15 -->
<g id="node15" class="node">
<title>Node15</title>
<g id="a_node15"><a xlink:href="classipc_1_1util_1_1Shared__name.html#a54dc5077333284fda9e8d2df8b0e9b91" target="_top" xlink:title="Returns new object equal to Shared_name(src1) += src2.">
<polygon fill="white" stroke="black" points="343.5,-344.5 343.5,-370.5 453.5,-370.5 453.5,-344.5 343.5,-344.5"/>
<text text-anchor="start" x="351.5" y="-360.1" font-family="Helvetica,sans-Serif" font-size="8.00">ipc::util::Shared_name</text>
<text text-anchor="middle" x="398.5" y="-351.1" font-family="Helvetica,sans-Serif" font-size="8.00">::operator+</text>
</a>
</g>
</g>
<!-- Node1&#45;&gt;Node15 -->
<g id="edge19" class="edge">
<title>Node1&#45;&gt;Node15</title>
<path fill="none" stroke="midnightblue" d="M548.6,-428.89C529.42,-414.99 498.86,-394.21 470,-380.5 462.21,-376.8 453.67,-373.46 445.3,-370.55"/>
<polygon fill="midnightblue" stroke="midnightblue" points="546.67,-431.82 556.79,-434.93 550.81,-426.18 546.67,-431.82"/>
</g>
<!-- Node16 -->
<g id="node16" class="node">
<title>Node16</title>
<g id="a_node16"><a xlink:href="classipc_1_1util_1_1Shared__name.html#a1bcac1c10e01ba11dcc437b3c32bbe6c" target="_top" xlink:title="Appends the given other Shared_name.">
<polygon fill="white" stroke="black" points="343.5,-281.5 343.5,-307.5 453.5,-307.5 453.5,-281.5 343.5,-281.5"/>
<text text-anchor="start" x="351.5" y="-297.1" font-family="Helvetica,sans-Serif" font-size="8.00">ipc::util::Shared_name</text>
<text text-anchor="middle" x="398.5" y="-288.1" font-family="Helvetica,sans-Serif" font-size="8.00">::operator+=</text>
</a>
</g>
</g>
<!-- Node1&#45;&gt;Node16 -->
<g id="edge20" class="edge">
<title>Node1&#45;&gt;Node16</title>
<path fill="none" stroke="midnightblue" d="M555.35,-426.58C537.89,-403.97 504.6,-363.5 470,-335.5 456.57,-324.63 439.93,-314.81 426.19,-307.51"/>
<polygon fill="midnightblue" stroke="midnightblue" points="552.79,-428.99 561.63,-434.83 558.36,-424.75 552.79,-428.99"/>
</g>
<!-- Node18 -->
<g id="node18" class="node">
<title>Node18</title>
<g id="a_node18"><a xlink:href="classipc_1_1util_1_1Shared__name.html#a956fdac1bb4cfab414b30091bec43f70" target="_top" xlink:title="Appends a folder separator followed by the given other Shared_name.">
<polygon fill="white" stroke="black" points="343.5,-236.5 343.5,-262.5 453.5,-262.5 453.5,-236.5 343.5,-236.5"/>
<text text-anchor="start" x="351.5" y="-252.1" font-family="Helvetica,sans-Serif" font-size="8.00">ipc::util::Shared_name</text>
<text text-anchor="middle" x="398.5" y="-243.1" font-family="Helvetica,sans-Serif" font-size="8.00">::operator/=</text>
</a>
</g>
</g>
<!-- Node1&#45;&gt;Node18 -->
<g id="edge23" class="edge">
<title>Node1&#45;&gt;Node18</title>
<path fill="none" stroke="midnightblue" d="M562.52,-424.99C551.16,-389.81 521.7,-313.11 470,-271.5 465.11,-267.56 459.5,-264.32 453.64,-261.66"/>
<polygon fill="midnightblue" stroke="midnightblue" points="559.28,-426.34 565.58,-434.85 565.96,-424.27 559.28,-426.34"/>
</g>
<!-- Node20 -->
<g id="node20" class="node">
<title>Node20</title>
<g id="a_node20"><a xlink:href="namespaceipc_1_1util.html#aea456ff91117633e731804a894aa94da" target="_top" xlink:title="Returns true if and only if val1.str() &lt; val2.str().">
<polygon fill="white" stroke="black" points="351,-200 351,-217 446,-217 446,-200 351,-200"/>
<text text-anchor="middle" x="398.5" y="-206.6" font-family="Helvetica,sans-Serif" font-size="8.00">ipc::util::operator&lt;</text>
</a>
</g>
</g>
<!-- Node1&#45;&gt;Node20 -->
<g id="edge25" class="edge">
<title>Node1&#45;&gt;Node20</title>
<path fill="none" stroke="midnightblue" d="M565.14,-424.91C557.67,-382.82 533.52,-279.81 470,-226.5 463.23,-220.82 454.89,-216.89 446.34,-214.2"/>
<polygon fill="midnightblue" stroke="midnightblue" points="561.7,-425.57 566.8,-434.86 568.61,-424.42 561.7,-425.57"/>
</g>
<!-- Node21 -->
<g id="node21" class="node">
<title>Node21</title>
<g id="a_node21"><a xlink:href="classipc_1_1util_1_1Shared__name.html#af7728c93fdf29479bbb2482e02f05cbf" target="_top" xlink:title="Prints embellished string representation of the given Shared_name to the given ostream.">
<polygon fill="white" stroke="black" points="343.5,-154.5 343.5,-180.5 453.5,-180.5 453.5,-154.5 343.5,-154.5"/>
<text text-anchor="start" x="351.5" y="-170.1" font-family="Helvetica,sans-Serif" font-size="8.00">ipc::util::Shared_name</text>
<text text-anchor="middle" x="398.5" y="-161.1" font-family="Helvetica,sans-Serif" font-size="8.00">::operator&lt;&lt;</text>
</a>
</g>
</g>
<!-- Node1&#45;&gt;Node21 -->
<g id="edge26" class="edge">
<title>Node1&#45;&gt;Node21</title>
<path fill="none" stroke="midnightblue" d="M566.13,-424.42C560.52,-377.69 539.67,-256.49 470,-190.5 465.23,-185.98 459.57,-182.36 453.55,-179.44"/>
<polygon fill="midnightblue" stroke="midnightblue" points="562.67,-425.06 567.24,-434.62 569.63,-424.3 562.67,-425.06"/>
</g>
<!-- Node22 -->
<g id="node22" class="node">
<title>Node22</title>
<g id="a_node22"><a xlink:href="namespaceipc_1_1util.html#adad98b6935e58bdc92dfcf57bf60345e" target="_top" xlink:title="Returns true if and only if val1.str() == val2.str().">
<polygon fill="white" stroke="black" points="347.5,-118 347.5,-135 449.5,-135 449.5,-118 347.5,-118"/>
<text text-anchor="middle" x="398.5" y="-124.6" font-family="Helvetica,sans-Serif" font-size="8.00">ipc::util::operator==</text>
</a>
</g>
</g>
<!-- Node1&#45;&gt;Node22 -->
<g id="edge27" class="edge">
<title>Node1&#45;&gt;Node22</title>
<path fill="none" stroke="midnightblue" d="M567.73,-424.64C565.9,-372.02 553.27,-222.39 470,-144.5 464.28,-139.15 457.2,-135.34 449.74,-132.63"/>
<polygon fill="midnightblue" stroke="midnightblue" points="564.23,-424.93 567.98,-434.84 571.23,-424.75 564.23,-424.93"/>
</g>
<!-- Node23 -->
<g id="node23" class="node">
<title>Node23</title>
<g id="a_node23"><a xlink:href="namespaceipc_1_1util.html#ad6be904bf1b0fe6659a11dec0fabbf6b" target="_top" xlink:title="Utility that invokes remove_each_persistent_if() with the filter that returns true (yes,...">
<polygon fill="white" stroke="black" points="343.5,-64 343.5,-99 453.5,-99 453.5,-64 343.5,-64"/>
<text text-anchor="start" x="351.5" y="-88.6" font-family="Helvetica,sans-Serif" font-size="8.00">ipc::util::remove_each</text>
<text text-anchor="start" x="351.5" y="-79.6" font-family="Helvetica,sans-Serif" font-size="8.00">_persistent_with_name</text>
<text text-anchor="middle" x="398.5" y="-70.6" font-family="Helvetica,sans-Serif" font-size="8.00">_prefix</text>
</a>
</g>
</g>
<!-- Node1&#45;&gt;Node23 -->
<g id="edge28" class="edge">
<title>Node1&#45;&gt;Node23</title>
<path fill="none" stroke="midnightblue" d="M568.01,-424.79C567.04,-369.11 556.67,-202.5 470,-108.5 465.38,-103.49 459.73,-99.4 453.65,-96.06"/>
<polygon fill="midnightblue" stroke="midnightblue" points="564.52,-424.96 568.1,-434.92 571.52,-424.89 564.52,-424.96"/>
</g>
<!-- Node24 -->
<g id="node24" class="node">
<title>Node24</title>
<g id="a_node24"><a xlink:href="classipc_1_1transport_1_1Native__socket__stream__acceptor.html#a71e907b904bcc8aff0042ca7efcc783b" target="_top" xlink:title="Destroys this acceptor which will stop listening in the background and cancel any pending completion ...">
<polygon fill="white" stroke="black" points="339,-0.5 339,-44.5 458,-44.5 458,-0.5 339,-0.5"/>
<text text-anchor="start" x="347" y="-34.1" font-family="Helvetica,sans-Serif" font-size="8.00">ipc::transport::Native</text>
<text text-anchor="start" x="347" y="-25.1" font-family="Helvetica,sans-Serif" font-size="8.00">_socket_stream_acceptor</text>
<text text-anchor="start" x="347" y="-16.1" font-family="Helvetica,sans-Serif" font-size="8.00">::~Native_socket_stream</text>
<text text-anchor="middle" x="398.5" y="-7.1" font-family="Helvetica,sans-Serif" font-size="8.00">_acceptor</text>
</a>
</g>
</g>
<!-- Node1&#45;&gt;Node24 -->
<g id="edge29" class="edge">
<title>Node1&#45;&gt;Node24</title>
<path fill="none" stroke="midnightblue" d="M568.66,-424.93C569.83,-364.22 565.62,-169 470,-54.5 466.55,-50.37 462.46,-46.75 458.01,-43.59"/>
<polygon fill="midnightblue" stroke="midnightblue" points="565.16,-424.84 568.39,-434.93 572.16,-425.03 565.16,-424.84"/>
</g>
<!-- Node4 -->
<g id="node4" class="node">
<title>Node4</title>
<g id="a_node4"><a xlink:href="classipc_1_1session_1_1shm_1_1arena__lend_1_1jemalloc_1_1Client__session__impl.html#a2b5cecc4850a58fd597542df2fc4c890" target="_top" xlink:title="See session::Client_session_impl::Client_session_impl() counterpart.">
<polygon fill="white" stroke="black" points="0,-798.5 0,-842.5 103,-842.5 103,-798.5 0,-798.5"/>
<text text-anchor="start" x="8" y="-832.1" font-family="Helvetica,sans-Serif" font-size="8.00">ipc::session::shm::</text>
<text text-anchor="start" x="8" y="-823.1" font-family="Helvetica,sans-Serif" font-size="8.00">arena_lend::jemalloc</text>
<text text-anchor="start" x="8" y="-814.1" font-family="Helvetica,sans-Serif" font-size="8.00">::Client_session_impl</text>
<text text-anchor="middle" x="51.5" y="-805.1" font-family="Helvetica,sans-Serif" font-size="8.00">::Client_session_impl</text>
</a>
</g>
</g>
<!-- Node3&#45;&gt;Node4 -->
<g id="edge3" class="edge">
<title>Node3&#45;&gt;Node4</title>
<path fill="none" stroke="midnightblue" d="M153.26,-820.5C136.78,-820.5 119.12,-820.5 103.25,-820.5"/>
<polygon fill="midnightblue" stroke="midnightblue" points="153.34,-824 163.34,-820.5 153.34,-817 153.34,-824"/>
</g>
<!-- Node6&#45;&gt;Node3 -->
<g id="edge6" class="edge">
<title>Node6&#45;&gt;Node3</title>
<path fill="none" stroke="midnightblue" d="M322.01,-800.06C303.34,-803.66 283.78,-807.43 266.62,-810.74"/>
<polygon fill="midnightblue" stroke="midnightblue" points="322.82,-803.47 331.97,-798.14 321.49,-796.59 322.82,-803.47"/>
</g>
<!-- Node6&#45;&gt;Node5 -->
<g id="edge7" class="edge">
<title>Node6&#45;&gt;Node5</title>
<path fill="none" stroke="midnightblue" d="M322.11,-770.55C306.94,-767.54 291.18,-764.41 276.59,-761.52"/>
<polygon fill="midnightblue" stroke="midnightblue" points="321.48,-773.99 331.97,-772.5 322.85,-767.12 321.48,-773.99"/>
</g>
<!-- Node7&#45;&gt;Node7 -->
<g id="edge10" class="edge">
<title>Node7&#45;&gt;Node7</title>
<path fill="none" stroke="midnightblue" d="M428.11,-707.6C423.95,-712.27 414.08,-715.5 398.5,-715.5 372.93,-715.5 362.75,-706.81 367.94,-697.28"/>
<polygon fill="midnightblue" stroke="midnightblue" points="431.62,-707.56 429.06,-697.28 424.65,-706.92 431.62,-707.56"/>
</g>
<!-- Node8 -->
<g id="node8" class="node">
<title>Node8</title>
<g id="a_node8"><a xlink:href="classipc_1_1transport_1_1sync__io_1_1Native__socket__stream_1_1Impl.html#ad6443fb49be059dbe76c75d86a18197e" target="_top" xlink:title="The core of sync_connect(), written in the sync_io&#45;pattern style.">
<polygon fill="white" stroke="black" points="153.5,-662 153.5,-697 276.5,-697 276.5,-662 153.5,-662"/>
<text text-anchor="start" x="161.5" y="-686.6" font-family="Helvetica,sans-Serif" font-size="8.00">ipc::transport::sync</text>
<text text-anchor="start" x="161.5" y="-677.6" font-family="Helvetica,sans-Serif" font-size="8.00">_io::Native_socket_stream</text>
<text text-anchor="middle" x="215" y="-668.6" font-family="Helvetica,sans-Serif" font-size="8.00">::Impl::async_connect</text>
</a>
</g>
</g>
<!-- Node7&#45;&gt;Node8 -->
<g id="edge9" class="edge">
<title>Node7&#45;&gt;Node8</title>
<path fill="none" stroke="midnightblue" d="M322.98,-679.5C307.56,-679.5 291.5,-679.5 276.65,-679.5"/>
<polygon fill="midnightblue" stroke="midnightblue" points="323,-683 333,-679.5 323,-676 323,-683"/>
</g>
<!-- Node9 -->
<g id="node9" class="node">
<title>Node9</title>
<g id="a_node9"><a xlink:href="classipc_1_1transport_1_1Native__socket__stream__acceptor.html#a77795acb028a95a4804f9b3ef18d99b0" target="_top" xlink:title="Creates the Native_socket_stream_acceptor and immediately begins listening in the background,...">
<polygon fill="white" stroke="black" points="139,-499 139,-534 291,-534 291,-499 139,-499"/>
<text text-anchor="start" x="147" y="-523.6" font-family="Helvetica,sans-Serif" font-size="8.00">ipc::transport::Native</text>
<text text-anchor="start" x="147" y="-514.6" font-family="Helvetica,sans-Serif" font-size="8.00">_socket_stream_acceptor</text>
<text text-anchor="middle" x="215" y="-505.6" font-family="Helvetica,sans-Serif" font-size="8.00">::Native_socket_stream_acceptor</text>
</a>
</g>
</g>
<!-- Node7&#45;&gt;Node9 -->
<g id="edge11" class="edge">
<title>Node7&#45;&gt;Node9</title>
<path fill="none" stroke="midnightblue" d="M333.68,-656.91C331.37,-655.51 329.14,-654.05 327,-652.5 281.31,-619.46 243.69,-563.15 226.33,-534.46"/>
<polygon fill="midnightblue" stroke="midnightblue" points="332.42,-660.21 342.87,-661.93 335.78,-654.07 332.42,-660.21"/>
</g>
<!-- Node14&#45;&gt;Node9 -->
<g id="edge17" class="edge">
<title>Node14&#45;&gt;Node9</title>
<path fill="none" stroke="midnightblue" d="M359.62,-430.25C325.64,-450.66 276.48,-480.18 245.39,-498.85"/>
<polygon fill="midnightblue" stroke="midnightblue" points="361.57,-433.16 368.34,-425.01 357.96,-427.16 361.57,-433.16"/>
</g>
<!-- Node14&#45;&gt;Node14 -->
<g id="edge18" class="edge">
<title>Node14&#45;&gt;Node14</title>
<path fill="none" stroke="midnightblue" d="M428.11,-435.6C423.95,-440.27 414.08,-443.5 398.5,-443.5 372.93,-443.5 362.75,-434.81 367.94,-425.28"/>
<polygon fill="midnightblue" stroke="midnightblue" points="431.62,-435.56 429.06,-425.28 424.65,-434.92 431.62,-435.56"/>
</g>
<!-- Node16&#45;&gt;Node16 -->
<g id="edge21" class="edge">
<title>Node16&#45;&gt;Node16</title>
<path fill="none" stroke="midnightblue" d="M429.35,-317.58C426.21,-322.47 415.93,-326 398.5,-326 370.61,-326 361.02,-316.96 369.74,-307.77"/>
<polygon fill="midnightblue" stroke="midnightblue" points="432.76,-316.82 427.26,-307.77 425.92,-318.28 432.76,-316.82"/>
</g>
<!-- Node17 -->
<g id="node17" class="node">
<title>Node17</title>
<g id="a_node17"><a xlink:href="classipc_1_1util_1_1Shared__name.html#a762bda2d73b31c9427c05c7c1a7abbcb" target="_top" xlink:title="Simply appends a folder separator followed by raw_name_to_append to the current value of str().">
<polygon fill="white" stroke="black" points="160,-281.5 160,-307.5 270,-307.5 270,-281.5 160,-281.5"/>
<text text-anchor="start" x="168" y="-297.1" font-family="Helvetica,sans-Serif" font-size="8.00">ipc::util::Shared_name</text>
<text text-anchor="middle" x="215" y="-288.1" font-family="Helvetica,sans-Serif" font-size="8.00">::operator/=</text>
</a>
</g>
</g>
<!-- Node16&#45;&gt;Node17 -->
<g id="edge22" class="edge">
<title>Node16&#45;&gt;Node17</title>
<path fill="none" stroke="midnightblue" d="M332.83,-294.5C312.29,-294.5 289.81,-294.5 270.1,-294.5"/>
<polygon fill="midnightblue" stroke="midnightblue" points="333.04,-298 343.04,-294.5 333.04,-291 333.04,-298"/>
</g>
<!-- Node19 -->
<g id="node19" class="node">
<title>Node19</title>
<g id="a_node19"><a xlink:href="classipc_1_1util_1_1Shared__name.html#a99c77008fb2c507e32e05272812c4782" target="_top" xlink:title="Similar to the overload that takes const Source&amp;, but takes NUL&#45;terminated string instead.">
<polygon fill="white" stroke="black" points="160,-236.5 160,-262.5 270,-262.5 270,-236.5 160,-236.5"/>
<text text-anchor="start" x="168" y="-252.1" font-family="Helvetica,sans-Serif" font-size="8.00">ipc::util::Shared_name</text>
<text text-anchor="middle" x="215" y="-243.1" font-family="Helvetica,sans-Serif" font-size="8.00">::operator/=</text>
</a>
</g>
</g>
<!-- Node18&#45;&gt;Node19 -->
<g id="edge24" class="edge">
<title>Node18&#45;&gt;Node19</title>
<path fill="none" stroke="midnightblue" d="M332.83,-249.5C312.29,-249.5 289.81,-249.5 270.1,-249.5"/>
<polygon fill="midnightblue" stroke="midnightblue" points="333.04,-253 343.04,-249.5 333.04,-246 333.04,-253"/>
</g>
</g>
</svg>
