<?xml version="1.0" encoding="UTF-8" standalone="no"?>
<!DOCTYPE svg PUBLIC "-//W3C//DTD SVG 1.1//EN"
 "http://www.w3.org/Graphics/SVG/1.1/DTD/svg11.dtd">
<!-- Generated by graphviz version 2.43.0 (0)
 -->
<!-- Title: ipc::transport::struc::shm::error::Category Pages: 1 -->
<svg width="189pt" height="99pt"
 viewBox="0.00 0.00 189.00 99.00" xmlns="http://www.w3.org/2000/svg" xmlns:xlink="http://www.w3.org/1999/xlink">
<g id="graph0" class="graph" transform="scale(1 1) rotate(0) translate(4 95)">
<title>ipc::transport::struc::shm::error::Category</title>
<polygon fill="white" stroke="transparent" points="-4,4 -4,-95 185,-95 185,4 -4,4"/>
<!-- Node1 -->
<g id="node1" class="node">
<title>Node1</title>
<g id="a_node1"><a xlink:title="The boost.system category for errors returned by the ipc::transport::struc::shm module.">
<polygon fill="#bfbfbf" stroke="black" points="0,-0.5 0,-26.5 108,-26.5 108,-0.5 0,-0.5"/>
<text text-anchor="start" x="8" y="-16.1" font-family="Helvetica,sans-Serif" font-size="8.00">ipc::transport::struc</text>
<text text-anchor="middle" x="54" y="-7.1" font-family="Helvetica,sans-Serif" font-size="8.00">::shm::error::Category</text>
</a>
</g>
</g>
<!-- Node1&#45;&gt;Node1 -->
<g id="edge2" class="edge">
<title>Node1&#45;&gt;Node1</title>
<path fill="none" stroke="#9a32cd" stroke-dasharray="5,2" d="M117.96,-18.03C122.93,-17.03 126,-15.52 126,-13.5 126,-10.34 118.53,-8.43 108.01,-7.77"/>
<polygon fill="#9a32cd" stroke="#9a32cd" points="117.52,-14.56 108.01,-19.23 118.35,-21.51 117.52,-14.56"/>
<text text-anchor="middle" x="153.5" y="-11.6" font-family="Helvetica,sans-Serif" font-size="8.00"> S_CATEGORY</text>
</g>
<!-- Node2 -->
<g id="node2" class="node">
<title>Node2</title>
<g id="a_node2"><a xlink:href="classboost_1_1system_1_1error__category.html" target="_top" xlink:title=" ">
<polygon fill="white" stroke="#bfbfbf" points="3.5,-64.5 3.5,-90.5 104.5,-90.5 104.5,-64.5 3.5,-64.5"/>
<text text-anchor="start" x="11.5" y="-80.1" font-family="Helvetica,sans-Serif" font-size="8.00">boost::system::error</text>
<text text-anchor="middle" x="54" y="-71.1" font-family="Helvetica,sans-Serif" font-size="8.00">_category</text>
</a>
</g>
</g>
<!-- Node2&#45;&gt;Node1 -->
<g id="edge1" class="edge">
<title>Node2&#45;&gt;Node1</title>
<path fill="none" stroke="midnightblue" d="M54,-54.13C54,-44.89 54,-34.53 54,-26.72"/>
<polygon fill="midnightblue" stroke="midnightblue" points="50.5,-54.25 54,-64.25 57.5,-54.25 50.5,-54.25"/>
</g>
</g>
</svg>
