<?xml version="1.0" encoding="UTF-8" standalone="no"?>
<!DOCTYPE svg PUBLIC "-//W3C//DTD SVG 1.1//EN"
 "http://www.w3.org/Graphics/SVG/1.1/DTD/svg11.dtd">
<!-- Generated by graphviz version 2.43.0 (0)
 -->
<!-- Title: ipc::shm::classic::error::Category Pages: 1 -->
<svg width="178pt" height="99pt"
 viewBox="0.00 0.00 177.50 99.00" xmlns="http://www.w3.org/2000/svg" xmlns:xlink="http://www.w3.org/1999/xlink">
<g id="graph0" class="graph" transform="scale(1 1) rotate(0) translate(4 95)">
<title>ipc::shm::classic::error::Category</title>
<polygon fill="white" stroke="transparent" points="-4,4 -4,-95 173.5,-95 173.5,4 -4,4"/>
<!-- Node1 -->
<g id="node1" class="node">
<title>Node1</title>
<g id="a_node1"><a xlink:title="The boost.system category for errors returned by the ipc::shm module.">
<polygon fill="#bfbfbf" stroke="black" points="4.5,-0.5 4.5,-26.5 96.5,-26.5 96.5,-0.5 4.5,-0.5"/>
<text text-anchor="start" x="12.5" y="-16.1" font-family="Helvetica,sans-Serif" font-size="8.00">ipc::shm::classic::</text>
<text text-anchor="middle" x="50.5" y="-7.1" font-family="Helvetica,sans-Serif" font-size="8.00">error::Category</text>
</a>
</g>
</g>
<!-- Node1&#45;&gt;Node1 -->
<g id="edge2" class="edge">
<title>Node1&#45;&gt;Node1</title>
<path fill="none" stroke="#9a32cd" stroke-dasharray="5,2" d="M106.77,-18.16C111.53,-17.16 114.5,-15.61 114.5,-13.5 114.5,-10.12 106.91,-8.17 96.52,-7.65"/>
<polygon fill="#9a32cd" stroke="#9a32cd" points="106.05,-14.72 96.52,-19.35 106.86,-21.67 106.05,-14.72"/>
<text text-anchor="middle" x="142" y="-11.6" font-family="Helvetica,sans-Serif" font-size="8.00"> S_CATEGORY</text>
</g>
<!-- Node2 -->
<g id="node2" class="node">
<title>Node2</title>
<g id="a_node2"><a xlink:href="classboost_1_1system_1_1error__category.html" target="_top" xlink:title=" ">
<polygon fill="white" stroke="#bfbfbf" points="0,-64.5 0,-90.5 101,-90.5 101,-64.5 0,-64.5"/>
<text text-anchor="start" x="8" y="-80.1" font-family="Helvetica,sans-Serif" font-size="8.00">boost::system::error</text>
<text text-anchor="middle" x="50.5" y="-71.1" font-family="Helvetica,sans-Serif" font-size="8.00">_category</text>
</a>
</g>
</g>
<!-- Node2&#45;&gt;Node1 -->
<g id="edge1" class="edge">
<title>Node2&#45;&gt;Node1</title>
<path fill="none" stroke="midnightblue" d="M50.5,-54.13C50.5,-44.89 50.5,-34.53 50.5,-26.72"/>
<polygon fill="midnightblue" stroke="midnightblue" points="47,-54.25 50.5,-64.25 54,-54.25 47,-54.25"/>
</g>
</g>
</svg>
