<?xml version="1.0" encoding="UTF-8" standalone="no"?>
<!DOCTYPE svg PUBLIC "-//W3C//DTD SVG 1.1//EN"
 "http://www.w3.org/Graphics/SVG/1.1/DTD/svg11.dtd">
<!-- Generated by graphviz version 2.43.0 (0)
 -->
<!-- Title: ipc::transport::Bipc_mq_handle::send Pages: 1 -->
<svg width="280pt" height="144pt"
 viewBox="0.00 0.00 280.00 143.50" xmlns="http://www.w3.org/2000/svg" xmlns:xlink="http://www.w3.org/1999/xlink">
<g id="graph0" class="graph" transform="scale(1 1) rotate(0) translate(4 139.5)">
<title>ipc::transport::Bipc_mq_handle::send</title>
<polygon fill="white" stroke="transparent" points="-4,4 -4,-139.5 276,-139.5 276,4 -4,4"/>
<!-- Node1 -->
<g id="node1" class="node">
<title>Node1</title>
<g id="a_node1"><a xlink:title="Implements Persistent_mq_handle API: Blocking send: pushes copy of message to queue; if queue is full...">
<polygon fill="#bfbfbf" stroke="black" points="0,-50.5 0,-76.5 95,-76.5 95,-50.5 0,-50.5"/>
<text text-anchor="start" x="8" y="-66.1" font-family="Helvetica,sans-Serif" font-size="8.00">ipc::transport::Bipc</text>
<text text-anchor="middle" x="47.5" y="-57.1" font-family="Helvetica,sans-Serif" font-size="8.00">_mq_handle::send</text>
</a>
</g>
</g>
<!-- Node1&#45;&gt;Node1 -->
<g id="edge4" class="edge">
<title>Node1&#45;&gt;Node1</title>
<path fill="none" stroke="midnightblue" d="M21.44,-76.77C13.55,-85.96 22.23,-95 47.5,-95 62.9,-95 72.14,-91.64 75.22,-86.94"/>
<polygon fill="midnightblue" stroke="midnightblue" points="78.62,-86.07 73.56,-76.77 71.71,-87.2 78.62,-86.07"/>
</g>
<!-- Node2 -->
<g id="node2" class="node">
<title>Node2</title>
<g id="a_node2"><a xlink:href="namespaceipc_1_1util.html#a2bb38cee29dacbe56de5182221b45941" target="_top" xlink:title="Syntactic&#45;sugary helper that returns pointer to first byte in an immutable buffer,...">
<polygon fill="white" stroke="black" points="154.5,-118 154.5,-135 248.5,-135 248.5,-118 154.5,-118"/>
<text text-anchor="middle" x="201.5" y="-124.6" font-family="Helvetica,sans-Serif" font-size="8.00">ipc::util::blob_data</text>
</a>
</g>
</g>
<!-- Node1&#45;&gt;Node2 -->
<g id="edge1" class="edge">
<title>Node1&#45;&gt;Node2</title>
<path fill="none" stroke="midnightblue" d="M69.17,-76.64C85.45,-86.52 109,-99.8 131,-108.5 137.31,-110.99 144.08,-113.24 150.82,-115.23"/>
<polygon fill="midnightblue" stroke="midnightblue" points="150.06,-118.65 160.63,-117.97 151.94,-111.91 150.06,-118.65"/>
</g>
<!-- Node3 -->
<g id="node3" class="node">
<title>Node3</title>
<g id="a_node3"><a xlink:href="classipc_1_1transport_1_1Bipc__mq__handle.html#a9948742d87298d5842d298de9c946c7c" target="_top" xlink:title="Error helper: Run func() which will perform a bipc::message_queue API that might throw; if it does em...">
<polygon fill="white" stroke="black" points="131,-46 131,-81 272,-81 272,-46 131,-46"/>
<text text-anchor="start" x="139" y="-70.6" font-family="Helvetica,sans-Serif" font-size="8.00">ipc::transport::Bipc</text>
<text text-anchor="start" x="139" y="-61.6" font-family="Helvetica,sans-Serif" font-size="8.00">_mq_handle::op_with_possible</text>
<text text-anchor="middle" x="201.5" y="-52.6" font-family="Helvetica,sans-Serif" font-size="8.00">_bipc_mq_exception</text>
</a>
</g>
</g>
<!-- Node1&#45;&gt;Node3 -->
<g id="edge2" class="edge">
<title>Node1&#45;&gt;Node3</title>
<path fill="none" stroke="midnightblue" d="M95.35,-63.5C103.43,-63.5 112.04,-63.5 120.71,-63.5"/>
<polygon fill="midnightblue" stroke="midnightblue" points="120.9,-67 130.9,-63.5 120.9,-60 120.9,-67"/>
</g>
<!-- Node4 -->
<g id="node4" class="node">
<title>Node4</title>
<g id="a_node4"><a xlink:href="classipc_1_1transport_1_1Bipc__mq__handle.html#ad81eec3af613f32444785f8b5426ec50" target="_top" xlink:title="Implements Persistent_mq_handle API: Like send() but without the actual pushing of a message.">
<polygon fill="white" stroke="black" points="136,-0.5 136,-26.5 267,-26.5 267,-0.5 136,-0.5"/>
<text text-anchor="start" x="144" y="-16.1" font-family="Helvetica,sans-Serif" font-size="8.00">ipc::transport::Bipc</text>
<text text-anchor="middle" x="201.5" y="-7.1" font-family="Helvetica,sans-Serif" font-size="8.00">_mq_handle::wait_sendable</text>
</a>
</g>
</g>
<!-- Node1&#45;&gt;Node4 -->
<g id="edge5" class="edge">
<title>Node1&#45;&gt;Node4</title>
<path fill="none" stroke="midnightblue" d="M88.04,-50.49C107.32,-44.15 130.69,-36.46 151.13,-29.74"/>
<polygon fill="midnightblue" stroke="midnightblue" points="152.49,-32.98 160.89,-26.53 150.3,-26.33 152.49,-32.98"/>
</g>
<!-- Node3&#45;&gt;Node3 -->
<g id="edge3" class="edge">
<title>Node3&#45;&gt;Node3</title>
<path fill="none" stroke="midnightblue" d="M173.82,-81.28C169.11,-90.81 178.34,-99.5 201.5,-99.5 215.61,-99.5 224.55,-96.27 228.32,-91.6"/>
<polygon fill="midnightblue" stroke="midnightblue" points="231.84,-91.54 229.18,-81.28 224.86,-90.95 231.84,-91.54"/>
</g>
</g>
</svg>
