<?xml version="1.0" encoding="UTF-8" standalone="no"?>
<!DOCTYPE svg PUBLIC "-//W3C//DTD SVG 1.1//EN"
 "http://www.w3.org/Graphics/SVG/1.1/DTD/svg11.dtd">
<!-- Generated by graphviz version 2.43.0 (0)
 -->
<!-- Title: ipc::session::shm::arena_lend::jemalloc::Client_session_impl&lt; S_MQ_TYPE_OR_NONE, S_TRANSMIT_NATIVE_HANDLES, Mdt_payload &gt; Pages: 1 -->
<svg width="1552pt" height="751pt"
 viewBox="0.00 0.00 1552.00 750.61" xmlns="http://www.w3.org/2000/svg" xmlns:xlink="http://www.w3.org/1999/xlink">
<g id="graph0" class="graph" transform="scale(1 1) rotate(0) translate(4 746.61)">
<title>ipc::session::shm::arena_lend::jemalloc::Client_session_impl&lt; S_MQ_TYPE_OR_NONE, S_TRANSMIT_NATIVE_HANDLES, Mdt_payload &gt;</title>
<polygon fill="white" stroke="transparent" points="-4,4 -4,-746.61 1548,-746.61 1548,4 -4,4"/>
<!-- Node1 -->
<g id="node1" class="node">
<title>Node1</title>
<g id="a_node1"><a xlink:title="Core internally&#45;used implementation of shm::arena_lend::jemalloc::Client_session: it is to the latter...">
<polygon fill="#bfbfbf" stroke="black" points="1406,-117.73 1406,-179.73 1544,-179.73 1544,-117.73 1406,-117.73"/>
<text text-anchor="start" x="1414" y="-169.33" font-family="Helvetica,sans-Serif" font-size="8.00">ipc::session::shm::</text>
<text text-anchor="start" x="1414" y="-160.33" font-family="Helvetica,sans-Serif" font-size="8.00">arena_lend::jemalloc</text>
<text text-anchor="start" x="1414" y="-151.33" font-family="Helvetica,sans-Serif" font-size="8.00">::Client_session_impl</text>
<text text-anchor="start" x="1414" y="-142.33" font-family="Helvetica,sans-Serif" font-size="8.00">&lt; S_MQ_TYPE_OR_NONE, S</text>
<text text-anchor="start" x="1414" y="-133.33" font-family="Helvetica,sans-Serif" font-size="8.00">_TRANSMIT_NATIVE_HANDLES,</text>
<text text-anchor="middle" x="1475" y="-124.33" font-family="Helvetica,sans-Serif" font-size="8.00"> Mdt_payload &gt;</text>
</a>
</g>
</g>
<!-- Node2 -->
<g id="node2" class="node">
<title>Node2</title>
<g id="a_node2"><a xlink:href="classipc_1_1session_1_1shm_1_1arena__lend_1_1jemalloc_1_1Session__impl.html" target="_top" xlink:title=" ">
<polygon fill="white" stroke="black" points="1076,-108.73 1076,-188.73 1255,-188.73 1255,-108.73 1076,-108.73"/>
<text text-anchor="start" x="1084" y="-178.33" font-family="Helvetica,sans-Serif" font-size="8.00">ipc::session::shm::</text>
<text text-anchor="start" x="1084" y="-169.33" font-family="Helvetica,sans-Serif" font-size="8.00">arena_lend::jemalloc</text>
<text text-anchor="start" x="1084" y="-160.33" font-family="Helvetica,sans-Serif" font-size="8.00">::Session_impl&lt; session</text>
<text text-anchor="start" x="1084" y="-151.33" font-family="Helvetica,sans-Serif" font-size="8.00">::Client_session_impl&lt;</text>
<text text-anchor="start" x="1084" y="-142.33" font-family="Helvetica,sans-Serif" font-size="8.00"> S_MQ_TYPE_OR_NONE, S_TRANSMIT</text>
<text text-anchor="start" x="1084" y="-133.33" font-family="Helvetica,sans-Serif" font-size="8.00">_NATIVE_HANDLES, Mdt_payload,</text>
<text text-anchor="start" x="1084" y="-124.33" font-family="Helvetica,sans-Serif" font-size="8.00"> session::schema::ShmType::JEMALLOC,</text>
<text text-anchor="middle" x="1165.5" y="-115.33" font-family="Helvetica,sans-Serif" font-size="8.00"> true &gt; &gt;</text>
</a>
</g>
</g>
<!-- Node2&#45;&gt;Node1 -->
<g id="edge1" class="edge">
<title>Node2&#45;&gt;Node1</title>
<path fill="none" stroke="midnightblue" d="M1265.28,-148.73C1311.06,-148.73 1364.33,-148.73 1405.59,-148.73"/>
<polygon fill="midnightblue" stroke="midnightblue" points="1265.03,-145.23 1255.03,-148.73 1265.03,-152.23 1265.03,-145.23"/>
</g>
<!-- Node3 -->
<g id="node3" class="node">
<title>Node3</title>
<g id="a_node3"><a xlink:href="classipc_1_1session_1_1Client__session__impl.html" target="_top" xlink:title=" ">
<polygon fill="white" stroke="black" points="761,-245.23 761,-298.23 934,-298.23 934,-245.23 761,-245.23"/>
<text text-anchor="start" x="769" y="-287.83" font-family="Helvetica,sans-Serif" font-size="8.00">ipc::session::Client</text>
<text text-anchor="start" x="769" y="-278.83" font-family="Helvetica,sans-Serif" font-size="8.00">_session_impl&lt; S_MQ_TYPE</text>
<text text-anchor="start" x="769" y="-269.83" font-family="Helvetica,sans-Serif" font-size="8.00">_OR_NONE, S_TRANSMIT_NATIVE</text>
<text text-anchor="start" x="769" y="-260.83" font-family="Helvetica,sans-Serif" font-size="8.00">_HANDLES, Mdt_payload, session</text>
<text text-anchor="middle" x="847.5" y="-251.83" font-family="Helvetica,sans-Serif" font-size="8.00">::schema::ShmType::JEMALLOC, true &gt;</text>
</a>
</g>
</g>
<!-- Node3&#45;&gt;Node2 -->
<g id="edge2" class="edge">
<title>Node3&#45;&gt;Node2</title>
<path fill="none" stroke="midnightblue" d="M926.15,-241.51C971.41,-223.89 1028.67,-201.6 1075.72,-183.29"/>
<polygon fill="midnightblue" stroke="midnightblue" points="924.73,-238.3 916.68,-245.19 927.27,-244.83 924.73,-238.3"/>
</g>
<!-- Node4 -->
<g id="node4" class="node">
<title>Node4</title>
<g id="a_node4"><a xlink:href="classipc_1_1session_1_1Session__base.html" target="_top" xlink:title="Internal type containing data and types common to internal types Server_session_impl and Client_sessi...">
<polygon fill="white" stroke="black" points="468,-402.73 468,-446.73 614,-446.73 614,-402.73 468,-402.73"/>
<text text-anchor="start" x="476" y="-436.33" font-family="Helvetica,sans-Serif" font-size="8.00">ipc::session::Session</text>
<text text-anchor="start" x="476" y="-427.33" font-family="Helvetica,sans-Serif" font-size="8.00">_base&lt; S_MQ_TYPE_OR_NONE,</text>
<text text-anchor="start" x="476" y="-418.33" font-family="Helvetica,sans-Serif" font-size="8.00"> S_TRANSMIT_NATIVE_HANDLES,</text>
<text text-anchor="middle" x="541" y="-409.33" font-family="Helvetica,sans-Serif" font-size="8.00"> Mdt_payload &gt;</text>
</a>
</g>
</g>
<!-- Node4&#45;&gt;Node3 -->
<g id="edge3" class="edge">
<title>Node4&#45;&gt;Node3</title>
<path fill="none" stroke="midnightblue" d="M594.96,-398.12C650.69,-370.12 737.9,-326.3 793.6,-298.31"/>
<polygon fill="midnightblue" stroke="midnightblue" points="593.32,-395.03 585.95,-402.65 596.46,-401.28 593.32,-395.03"/>
</g>
<!-- Node5 -->
<g id="node5" class="node">
<title>Node5</title>
<g id="a_node5"><a xlink:title=" ">
<polygon fill="white" stroke="#bfbfbf" points="181.5,-335.23 181.5,-352.23 280.5,-352.23 280.5,-335.23 181.5,-335.23"/>
<text text-anchor="middle" x="231" y="-341.83" font-family="Helvetica,sans-Serif" font-size="8.00">boost::noncopyable</text>
</a>
</g>
</g>
<!-- Node5&#45;&gt;Node4 -->
<g id="edge4" class="edge">
<title>Node5&#45;&gt;Node4</title>
<path fill="none" stroke="#8b1a1a" d="M290.68,-352.94C334.97,-360.59 396.95,-372.78 450,-388.73 462.89,-392.61 476.52,-397.58 489.16,-402.58"/>
<polygon fill="#8b1a1a" stroke="#8b1a1a" points="291.11,-349.46 280.67,-351.24 289.94,-356.36 291.11,-349.46"/>
</g>
<!-- Node6 -->
<g id="node6" class="node">
<title>Node6</title>
<g id="a_node6"><a xlink:title=" ">
<polygon fill="white" stroke="#bfbfbf" points="180.5,-713.23 180.5,-730.23 281.5,-730.23 281.5,-713.23 180.5,-713.23"/>
<text text-anchor="middle" x="231" y="-719.83" font-family="Helvetica,sans-Serif" font-size="8.00">static constexpr bool</text>
</a>
</g>
</g>
<!-- Node6&#45;&gt;Node3 -->
<g id="edge18" class="edge">
<title>Node6&#45;&gt;Node3</title>
<path fill="none" stroke="#9a32cd" stroke-dasharray="5,2" d="M270.57,-732.63C319.45,-743.84 402.98,-753.84 450,-707.73 484.23,-674.16 436.88,-529.21 468,-492.73 511.38,-441.89 553.34,-484.78 614,-456.73 678.15,-427.06 687.85,-407.93 743,-363.73 769.26,-342.68 797.76,-317.14 818.18,-298.31"/>
<polygon fill="#9a32cd" stroke="#9a32cd" points="271.23,-729.19 260.69,-730.24 269.58,-736 271.23,-729.19"/>
<text text-anchor="middle" x="541" y="-522.33" font-family="Helvetica,sans-Serif" font-size="8.00"> S_GRACEFUL_FINISH_REQUIRED</text>
<text text-anchor="middle" x="541" y="-513.33" font-family="Helvetica,sans-Serif" font-size="8.00">S_MQS_ENABLED</text>
<text text-anchor="middle" x="541" y="-504.33" font-family="Helvetica,sans-Serif" font-size="8.00">S_SHM_ENABLED</text>
<text text-anchor="middle" x="541" y="-495.33" font-family="Helvetica,sans-Serif" font-size="8.00">S_SOCKET_STREAM_ENABLED</text>
</g>
<!-- Node6&#45;&gt;Node4 -->
<g id="edge5" class="edge">
<title>Node6&#45;&gt;Node4</title>
<path fill="none" stroke="#9a32cd" stroke-dasharray="5,2" d="M291.47,-711.17C298.2,-709.1 304.85,-706.64 311,-703.73 320.16,-699.39 319.76,-693.9 329,-689.73 378.88,-667.19 413.28,-707.33 450,-666.73 480.68,-632.81 442.49,-499.68 468,-461.73 471.84,-456.02 476.85,-451.13 482.44,-446.97"/>
<polygon fill="#9a32cd" stroke="#9a32cd" points="290.28,-707.86 281.58,-713.92 292.16,-714.61 290.28,-707.86"/>
<text text-anchor="middle" x="389.5" y="-701.33" font-family="Helvetica,sans-Serif" font-size="8.00"> S_MQS_ENABLED</text>
<text text-anchor="middle" x="389.5" y="-692.33" font-family="Helvetica,sans-Serif" font-size="8.00">S_SOCKET_STREAM_ENABLED</text>
</g>
<!-- Node7 -->
<g id="node7" class="node">
<title>Node7</title>
<g id="a_node7"><a xlink:href="structipc_1_1session_1_1Server__app.html" target="_top" xlink:title="An App that is used as a server in at least one client&#45;server IPC split.">
<polygon fill="white" stroke="red" points="172,-677.23 172,-694.23 290,-694.23 290,-677.23 172,-677.23"/>
<text text-anchor="middle" x="231" y="-683.83" font-family="Helvetica,sans-Serif" font-size="8.00">ipc::session::Server_app</text>
</a>
</g>
</g>
<!-- Node7&#45;&gt;Node4 -->
<g id="edge6" class="edge">
<title>Node7&#45;&gt;Node4</title>
<path fill="none" stroke="#9a32cd" stroke-dasharray="5,2" d="M289.18,-674.73C296.62,-672.71 304.06,-670.39 311,-667.73 319.55,-664.46 320.4,-660.85 329,-657.73 380.47,-639.09 412.96,-675.03 450,-634.73 476.16,-606.27 446.18,-493.63 468,-461.73 471.97,-455.93 477.13,-450.98 482.87,-446.78"/>
<polygon fill="#9a32cd" stroke="#9a32cd" points="288.26,-671.36 279.44,-677.22 289.99,-678.14 288.26,-671.36"/>
<text text-anchor="middle" x="389.5" y="-660.33" font-family="Helvetica,sans-Serif" font-size="8.00"> m_srv_app_ref</text>
</g>
<!-- Node16 -->
<g id="node8" class="node">
<title>Node16</title>
<g id="a_node8"><a xlink:title=" ">
<polygon fill="white" stroke="#bfbfbf" points="195.5,-641.23 195.5,-658.23 266.5,-658.23 266.5,-641.23 195.5,-641.23"/>
<text text-anchor="middle" x="231" y="-647.83" font-family="Helvetica,sans-Serif" font-size="8.00">Fine_duration</text>
</a>
</g>
</g>
<!-- Node16&#45;&gt;Node4 -->
<g id="edge7" class="edge">
<title>Node16&#45;&gt;Node4</title>
<path fill="none" stroke="#9a32cd" stroke-dasharray="5,2" d="M276.83,-640.32C288.04,-637.74 300.01,-634.81 311,-631.73 319.12,-629.46 320.84,-627.86 329,-625.73 381.97,-611.93 412.49,-642.6 450,-602.73 493.29,-556.72 431.73,-513.46 468,-461.73 472.03,-455.98 477.24,-451.06 483,-446.87"/>
<polygon fill="#9a32cd" stroke="#9a32cd" points="275.78,-636.96 266.79,-642.57 277.32,-643.79 275.78,-636.96"/>
<text text-anchor="middle" x="389.5" y="-628.33" font-family="Helvetica,sans-Serif" font-size="8.00"> S_OPEN_CHANNEL_TIMEOUT</text>
</g>
<!-- Node17 -->
<g id="node9" class="node">
<title>Node17</title>
<g id="a_node9"><a xlink:title=" ">
<polygon fill="white" stroke="#bfbfbf" points="177.5,-605.23 177.5,-622.23 284.5,-622.23 284.5,-605.23 177.5,-605.23"/>
<text text-anchor="middle" x="231" y="-611.83" font-family="Helvetica,sans-Serif" font-size="8.00">static constexpr size_t</text>
</a>
</g>
</g>
<!-- Node17&#45;&gt;Node4 -->
<g id="edge8" class="edge">
<title>Node17&#45;&gt;Node4</title>
<path fill="none" stroke="#9a32cd" stroke-dasharray="5,2" d="M285.36,-602.96C342.63,-590.3 428.33,-567.8 450,-542.73 474.11,-514.83 445.47,-490.92 468,-461.73 472.47,-455.95 478.09,-450.98 484.21,-446.75"/>
<polygon fill="#9a32cd" stroke="#9a32cd" points="284.4,-599.59 275.37,-605.13 285.88,-606.43 284.4,-599.59"/>
<text text-anchor="middle" x="389.5" y="-593.33" font-family="Helvetica,sans-Serif" font-size="8.00"> S_MQS_MAX_MSG_SZ</text>
</g>
<!-- Node18 -->
<g id="node10" class="node">
<title>Node18</title>
<g id="a_node10"><a xlink:title=" ">
<polygon fill="white" stroke="orangered" points="182,-551.23 182,-586.23 280,-586.23 280,-551.23 182,-551.23"/>
<text text-anchor="start" x="190" y="-575.83" font-family="Helvetica,sans-Serif" font-size="8.00">std::atomic&lt; const</text>
<text text-anchor="start" x="190" y="-566.83" font-family="Helvetica,sans-Serif" font-size="8.00"> ipc::session::Client</text>
<text text-anchor="middle" x="231" y="-557.83" font-family="Helvetica,sans-Serif" font-size="8.00">_app * &gt;</text>
</a>
</g>
</g>
<!-- Node18&#45;&gt;Node4 -->
<g id="edge9" class="edge">
<title>Node18&#45;&gt;Node4</title>
<path fill="none" stroke="#9a32cd" stroke-dasharray="5,2" d="M289.8,-550.05C297,-547.41 304.21,-544.61 311,-541.73 315.73,-539.73 431.96,-480.16 496.97,-446.81"/>
<polygon fill="#9a32cd" stroke="#9a32cd" points="288.28,-546.88 280.04,-553.54 290.63,-553.47 288.28,-546.88"/>
<text text-anchor="middle" x="389.5" y="-532.33" font-family="Helvetica,sans-Serif" font-size="8.00"> m_cli_app_ptr</text>
</g>
<!-- Node20 -->
<g id="node11" class="node">
<title>Node20</title>
<g id="a_node11"><a xlink:href="classipc_1_1util_1_1Shared__name.html" target="_top" xlink:title="String&#45;wrapping abstraction representing a name uniquely distinguishing a kernel&#45;persistent entity fr...">
<polygon fill="white" stroke="red" points="176,-425.23 176,-442.23 286,-442.23 286,-425.23 176,-425.23"/>
<text text-anchor="middle" x="231" y="-431.83" font-family="Helvetica,sans-Serif" font-size="8.00">ipc::util::Shared_name</text>
</a>
</g>
</g>
<!-- Node20&#45;&gt;Node4 -->
<g id="edge10" class="edge">
<title>Node20&#45;&gt;Node4</title>
<path fill="none" stroke="#9a32cd" stroke-dasharray="5,2" d="M296.06,-431.86C346.14,-430.39 415.75,-428.36 467.8,-426.84"/>
<polygon fill="#9a32cd" stroke="#9a32cd" points="295.9,-428.36 286,-432.15 296.1,-435.36 295.9,-428.36"/>
<text text-anchor="middle" x="389.5" y="-442.33" font-family="Helvetica,sans-Serif" font-size="8.00"> m_cli_namespace</text>
<text text-anchor="middle" x="389.5" y="-433.33" font-family="Helvetica,sans-Serif" font-size="8.00">m_srv_namespace</text>
</g>
<!-- Node20&#45;&gt;Node20 -->
<g id="edge11" class="edge">
<title>Node20&#45;&gt;Node20</title>
<path fill="none" stroke="#9a32cd" stroke-dasharray="5,2" d="M207.41,-451.21C207.95,-456.55 215.82,-460.73 231,-460.73 254.13,-460.73 260.28,-451.02 249.43,-442.3"/>
<polygon fill="#9a32cd" stroke="#9a32cd" points="210.58,-452.71 212.57,-442.3 204.53,-449.2 210.58,-452.71"/>
<text text-anchor="middle" x="231" y="-526.33" font-family="Helvetica,sans-Serif" font-size="8.00"> S_1ST_OR_ONLY</text>
<text text-anchor="middle" x="231" y="-517.33" font-family="Helvetica,sans-Serif" font-size="8.00">S_EMPTY</text>
<text text-anchor="start" x="192.5" y="-508.33" font-family="Helvetica,sans-Serif" font-size="8.00">S_RESOURCE_TYPE</text>
<text text-anchor="middle" x="231" y="-499.33" font-family="Helvetica,sans-Serif" font-size="8.00">_ID_MUTEX</text>
<text text-anchor="start" x="192.5" y="-490.33" font-family="Helvetica,sans-Serif" font-size="8.00">S_RESOURCE_TYPE</text>
<text text-anchor="middle" x="231" y="-481.33" font-family="Helvetica,sans-Serif" font-size="8.00">_ID_SHM</text>
<text text-anchor="middle" x="231" y="-472.33" font-family="Helvetica,sans-Serif" font-size="8.00">S_ROOT_MAGIC</text>
<text text-anchor="middle" x="231" y="-463.33" font-family="Helvetica,sans-Serif" font-size="8.00">S_SENTINEL</text>
</g>
<!-- Node9 -->
<g id="node12" class="node">
<title>Node9</title>
<g id="a_node12"><a xlink:title=" ">
<polygon fill="white" stroke="red" points="0,-82.23 0,-99.23 59,-99.23 59,-82.23 0,-82.23"/>
<text text-anchor="middle" x="29.5" y="-88.83" font-family="Helvetica,sans-Serif" font-size="8.00">std::string</text>
</a>
</g>
</g>
<!-- Node9&#45;&gt;Node20 -->
<g id="edge12" class="edge">
<title>Node9&#45;&gt;Node20</title>
<path fill="none" stroke="#9a32cd" stroke-dasharray="5,2" d="M31.51,-109.57C35.58,-165.53 55.53,-332.02 151,-415.73 158.09,-421.94 166.87,-426.14 175.99,-428.94"/>
<polygon fill="#9a32cd" stroke="#9a32cd" points="34.99,-109.14 30.86,-99.38 28.01,-109.58 34.99,-109.14"/>
<text text-anchor="middle" x="105" y="-398.33" font-family="Helvetica,sans-Serif" font-size="8.00"> m_raw_name</text>
</g>
<!-- Node29 -->
<g id="node19" class="node">
<title>Node29</title>
<g id="a_node19"><a xlink:href="classipc_1_1transport_1_1Protocol__negotiator.html" target="_top" xlink:title="A simple state machine that, assuming the opposide side of a comm pathway uses an equivalent state ma...">
<polygon fill="white" stroke="black" points="485.5,-193.73 485.5,-219.73 596.5,-219.73 596.5,-193.73 485.5,-193.73"/>
<text text-anchor="start" x="493.5" y="-209.33" font-family="Helvetica,sans-Serif" font-size="8.00">ipc::transport::Protocol</text>
<text text-anchor="middle" x="541" y="-200.33" font-family="Helvetica,sans-Serif" font-size="8.00">_negotiator</text>
</a>
</g>
</g>
<!-- Node9&#45;&gt;Node29 -->
<g id="edge23" class="edge">
<title>Node9&#45;&gt;Node29</title>
<path fill="none" stroke="#9a32cd" stroke-dasharray="5,2" d="M62.31,-78.64C139.58,-51.56 338.9,4.23 450,-93.73 480.6,-120.71 440.81,-153.32 468,-183.73 472.81,-189.11 478.88,-193.24 485.44,-196.41"/>
<polygon fill="#9a32cd" stroke="#9a32cd" points="60.9,-75.43 52.67,-82.09 63.26,-82.02 60.9,-75.43"/>
<text text-anchor="middle" x="231" y="-55.33" font-family="Helvetica,sans-Serif" font-size="8.00"> m_nickname</text>
</g>
<!-- Node23 -->
<g id="node13" class="node">
<title>Node23</title>
<g id="a_node13"><a xlink:title=" ">
<polygon fill="white" stroke="#bfbfbf" points="195.5,-263.23 195.5,-280.23 266.5,-280.23 266.5,-263.23 195.5,-263.23"/>
<text text-anchor="middle" x="231" y="-269.83" font-family="Helvetica,sans-Serif" font-size="8.00">Task_asio_err</text>
</a>
</g>
</g>
<!-- Node23&#45;&gt;Node3 -->
<g id="edge26" class="edge">
<title>Node23&#45;&gt;Node3</title>
<path fill="none" stroke="#9a32cd" stroke-dasharray="5,2" d="M277.05,-271.73C378.93,-271.73 628.45,-271.73 760.81,-271.73"/>
<polygon fill="#9a32cd" stroke="#9a32cd" points="276.8,-268.23 266.8,-271.73 276.8,-275.23 276.8,-268.23"/>
<text text-anchor="start" x="493.5" y="-283.33" font-family="Helvetica,sans-Serif" font-size="8.00"> m_conn_on_done_func</text>
<text text-anchor="middle" x="541" y="-274.33" font-family="Helvetica,sans-Serif" font-size="8.00">_or_empty</text>
</g>
<!-- Node23&#45;&gt;Node4 -->
<g id="edge13" class="edge">
<title>Node23&#45;&gt;Node4</title>
<path fill="none" stroke="#9a32cd" stroke-dasharray="5,2" d="M277.16,-278.32C338.83,-287.45 442.63,-303.32 450,-307.73 487.82,-330.37 515.45,-375.4 529.51,-402.52"/>
<polygon fill="#9a32cd" stroke="#9a32cd" points="277.31,-274.81 266.91,-276.81 276.29,-281.73 277.31,-274.81"/>
<text text-anchor="middle" x="389.5" y="-310.33" font-family="Helvetica,sans-Serif" font-size="8.00"> m_on_err_func</text>
</g>
<!-- Node24 -->
<g id="node14" class="node">
<title>Node24</title>
<g id="a_node14"><a xlink:title=" ">
<polygon fill="white" stroke="#bfbfbf" points="151,-371.23 151,-406.23 311,-406.23 311,-371.23 151,-371.23"/>
<text text-anchor="start" x="159" y="-395.83" font-family="Helvetica,sans-Serif" font-size="8.00">Function&lt; void(Channel</text>
<text text-anchor="start" x="159" y="-386.83" font-family="Helvetica,sans-Serif" font-size="8.00">_obj &amp;&amp;new_channel, Mdt</text>
<text text-anchor="middle" x="231" y="-377.83" font-family="Helvetica,sans-Serif" font-size="8.00">_reader_ptr &amp;&amp;new_channel_mdt)&gt;</text>
</a>
</g>
</g>
<!-- Node24&#45;&gt;Node4 -->
<g id="edge14" class="edge">
<title>Node24&#45;&gt;Node4</title>
<path fill="none" stroke="#9a32cd" stroke-dasharray="5,2" d="M321.17,-392.34C360.77,-394.7 407.86,-398.54 450,-404.73 455.86,-405.59 461.9,-406.62 467.96,-407.75"/>
<polygon fill="#9a32cd" stroke="#9a32cd" points="321.19,-388.84 311.01,-391.76 320.79,-395.82 321.19,-388.84"/>
<text text-anchor="start" x="329" y="-416.33" font-family="Helvetica,sans-Serif" font-size="8.00"> m_on_passive_open_channel</text>
<text text-anchor="middle" x="389.5" y="-407.33" font-family="Helvetica,sans-Serif" font-size="8.00">_func_or_empty</text>
</g>
<!-- Node25 -->
<g id="node15" class="node">
<title>Node25</title>
<g id="a_node15"><a xlink:title=" ">
<polygon fill="white" stroke="#bfbfbf" points="201,-299.23 201,-316.23 261,-316.23 261,-299.23 201,-299.23"/>
<text text-anchor="middle" x="231" y="-305.83" font-family="Helvetica,sans-Serif" font-size="8.00">Error_code</text>
</a>
</g>
</g>
<!-- Node25&#45;&gt;Node4 -->
<g id="edge15" class="edge">
<title>Node25&#45;&gt;Node4</title>
<path fill="none" stroke="#9a32cd" stroke-dasharray="5,2" d="M271.22,-311.79C329.62,-318.04 434.28,-330.09 450,-337.73 480.68,-352.65 507.58,-381.99 523.8,-402.45"/>
<polygon fill="#9a32cd" stroke="#9a32cd" points="271.55,-308.31 261.23,-310.73 270.81,-315.27 271.55,-308.31"/>
<text text-anchor="start" x="341" y="-349.33" font-family="Helvetica,sans-Serif" font-size="8.00"> m_peer_state_err_code</text>
<text text-anchor="middle" x="389.5" y="-340.33" font-family="Helvetica,sans-Serif" font-size="8.00">_or_ok</text>
</g>
<!-- Node26 -->
<g id="node16" class="node">
<title>Node26</title>
<g id="a_node16"><a xlink:title=" ">
<polygon fill="white" stroke="#bfbfbf" points="177.5,-227.23 177.5,-244.23 284.5,-244.23 284.5,-227.23 177.5,-227.23"/>
<text text-anchor="middle" x="231" y="-233.83" font-family="Helvetica,sans-Serif" font-size="8.00">flow::log::Log_context</text>
</a>
</g>
</g>
<!-- Node26&#45;&gt;Node3 -->
<g id="edge16" class="edge">
<title>Node26&#45;&gt;Node3</title>
<path fill="none" stroke="midnightblue" d="M294.67,-239.4C405.38,-245.89 635.69,-259.38 760.92,-266.72"/>
<polygon fill="midnightblue" stroke="midnightblue" points="294.85,-235.91 284.66,-238.82 294.44,-242.89 294.85,-235.91"/>
</g>
<!-- Node26&#45;&gt;Node29 -->
<g id="edge21" class="edge">
<title>Node26&#45;&gt;Node29</title>
<path fill="none" stroke="midnightblue" d="M294.75,-229.82C350.73,-224.55 431.89,-216.91 485.29,-211.88"/>
<polygon fill="midnightblue" stroke="midnightblue" points="294.22,-226.36 284.6,-230.78 294.88,-233.32 294.22,-226.36"/>
</g>
<!-- Node27 -->
<g id="node17" class="node">
<title>Node27</title>
<g id="a_node17"><a xlink:title=" ">
<polygon fill="white" stroke="#bfbfbf" points="514.5,-157.23 514.5,-174.23 567.5,-174.23 567.5,-157.23 514.5,-157.23"/>
<text text-anchor="middle" x="541" y="-163.83" font-family="Helvetica,sans-Serif" font-size="8.00">ShmType</text>
</a>
</g>
</g>
<!-- Node27&#45;&gt;Node3 -->
<g id="edge17" class="edge">
<title>Node27&#45;&gt;Node3</title>
<path fill="none" stroke="#9a32cd" stroke-dasharray="5,2" d="M577.69,-164.24C619.06,-163.8 688.53,-167.06 743,-189.73 773.05,-202.24 801.61,-226.1 821.09,-244.87"/>
<polygon fill="#9a32cd" stroke="#9a32cd" points="577.48,-160.75 567.55,-164.43 577.61,-167.75 577.48,-160.75"/>
<text text-anchor="middle" x="687.5" y="-192.33" font-family="Helvetica,sans-Serif" font-size="8.00"> S_SHM_TYPE</text>
</g>
<!-- Node28 -->
<g id="node18" class="node">
<title>Node28</title>
<g id="a_node18"><a xlink:title=" ">
<polygon fill="white" stroke="#bfbfbf" points="522,-121.23 522,-138.23 560,-138.23 560,-121.23 522,-121.23"/>
<text text-anchor="middle" x="541" y="-127.83" font-family="Helvetica,sans-Serif" font-size="8.00">State</text>
</a>
</g>
</g>
<!-- Node28&#45;&gt;Node3 -->
<g id="edge19" class="edge">
<title>Node28&#45;&gt;Node3</title>
<path fill="none" stroke="#9a32cd" stroke-dasharray="5,2" d="M570.27,-130.46C618.34,-132.12 713.67,-137.29 743,-152.73 745.68,-154.14 794.13,-210.49 823.78,-245.13"/>
<polygon fill="#9a32cd" stroke="#9a32cd" points="570.33,-126.96 560.22,-130.14 570.11,-133.96 570.33,-126.96"/>
<text text-anchor="middle" x="687.5" y="-155.33" font-family="Helvetica,sans-Serif" font-size="8.00"> m_state</text>
</g>
<!-- Node29&#45;&gt;Node3 -->
<g id="edge20" class="edge">
<title>Node29&#45;&gt;Node3</title>
<path fill="none" stroke="#9a32cd" stroke-dasharray="5,2" d="M606.91,-202.86C646.85,-202.21 698.69,-204.51 743,-216.73 765.17,-222.84 787.93,-234.28 806.44,-245.14"/>
<polygon fill="#9a32cd" stroke="#9a32cd" points="606.68,-199.36 596.76,-203.09 606.84,-206.36 606.68,-199.36"/>
<text text-anchor="middle" x="687.5" y="-228.33" font-family="Helvetica,sans-Serif" font-size="8.00"> m_protocol_negotiator</text>
<text text-anchor="middle" x="687.5" y="-219.33" font-family="Helvetica,sans-Serif" font-size="8.00">m_protocol_negotiator_aux</text>
</g>
<!-- Node30 -->
<g id="node20" class="node">
<title>Node30</title>
<g id="a_node20"><a xlink:title=" ">
<polygon fill="white" stroke="#bfbfbf" points="178.5,-145.73 178.5,-171.73 283.5,-171.73 283.5,-145.73 178.5,-145.73"/>
<text text-anchor="start" x="186.5" y="-161.33" font-family="Helvetica,sans-Serif" font-size="8.00">static constexpr proto</text>
<text text-anchor="middle" x="231" y="-152.33" font-family="Helvetica,sans-Serif" font-size="8.00">_ver_t</text>
</a>
</g>
</g>
<!-- Node30&#45;&gt;Node29 -->
<g id="edge22" class="edge">
<title>Node30&#45;&gt;Node29</title>
<path fill="none" stroke="#9a32cd" stroke-dasharray="5,2" d="M294,-159.12C338.03,-160.53 398.27,-164.8 450,-176.73 458.36,-178.66 459.91,-180.87 468,-183.73 477.53,-187.1 487.83,-190.52 497.59,-193.66"/>
<polygon fill="#9a32cd" stroke="#9a32cd" points="293.83,-155.61 283.74,-158.83 293.63,-162.61 293.83,-155.61"/>
<text text-anchor="middle" x="389.5" y="-188.33" font-family="Helvetica,sans-Serif" font-size="8.00"> S_VER_UNKNOWN</text>
<text text-anchor="middle" x="389.5" y="-179.33" font-family="Helvetica,sans-Serif" font-size="8.00">S_VER_UNSUPPORTED</text>
</g>
<!-- Node31 -->
<g id="node21" class="node">
<title>Node31</title>
<g id="a_node21"><a xlink:title=" ">
<polygon fill="white" stroke="#bfbfbf" points="209,-102.23 209,-119.23 253,-119.23 253,-102.23 209,-102.23"/>
<text text-anchor="middle" x="231" y="-108.83" font-family="Helvetica,sans-Serif" font-size="8.00">int16_t</text>
</a>
</g>
</g>
<!-- Node31&#45;&gt;Node29 -->
<g id="edge24" class="edge">
<title>Node31&#45;&gt;Node29</title>
<path fill="none" stroke="#9a32cd" stroke-dasharray="5,2" d="M263.33,-103.9C309.45,-95.78 396,-88.17 450,-130.73 469.54,-146.13 450.25,-166.3 468,-183.73 472.96,-188.6 478.96,-192.44 485.34,-195.47"/>
<polygon fill="#9a32cd" stroke="#9a32cd" points="262.5,-100.49 253.32,-105.78 263.79,-107.37 262.5,-100.49"/>
<text text-anchor="middle" x="389.5" y="-151.33" font-family="Helvetica,sans-Serif" font-size="8.00"> m_local_max_proto_ver</text>
<text text-anchor="middle" x="389.5" y="-142.33" font-family="Helvetica,sans-Serif" font-size="8.00">m_local_min_proto_ver</text>
<text text-anchor="middle" x="389.5" y="-133.33" font-family="Helvetica,sans-Serif" font-size="8.00">m_negotiated_proto_ver</text>
</g>
<!-- Node32 -->
<g id="node22" class="node">
<title>Node32</title>
<g id="a_node22"><a xlink:title=" ">
<polygon fill="white" stroke="#bfbfbf" points="213.5,-191.23 213.5,-208.23 248.5,-208.23 248.5,-191.23 213.5,-191.23"/>
<text text-anchor="middle" x="231" y="-197.83" font-family="Helvetica,sans-Serif" font-size="8.00">bool</text>
</a>
</g>
</g>
<!-- Node32&#45;&gt;Node29 -->
<g id="edge25" class="edge">
<title>Node32&#45;&gt;Node29</title>
<path fill="none" stroke="#9a32cd" stroke-dasharray="5,2" d="M258.71,-199.32C299.82,-198.81 381.08,-198.28 450,-200.73 461.42,-201.14 473.65,-201.8 485.29,-202.54"/>
<polygon fill="#9a32cd" stroke="#9a32cd" points="258.64,-195.82 248.69,-199.45 258.74,-202.82 258.64,-195.82"/>
<text text-anchor="middle" x="389.5" y="-203.33" font-family="Helvetica,sans-Serif" font-size="8.00"> m_local_max_proto_ver_sent</text>
</g>
<!-- Node33 -->
<g id="node23" class="node">
<title>Node33</title>
<g id="a_node23"><a xlink:title=" ">
<polygon fill="white" stroke="#bfbfbf" points="507,-84.23 507,-101.23 575,-101.23 575,-84.23 507,-84.23"/>
<text text-anchor="middle" x="541" y="-90.83" font-family="Helvetica,sans-Serif" font-size="8.00">unsigned int</text>
</a>
</g>
</g>
<!-- Node33&#45;&gt;Node3 -->
<g id="edge27" class="edge">
<title>Node33&#45;&gt;Node3</title>
<path fill="none" stroke="#9a32cd" stroke-dasharray="5,2" d="M585.45,-87.14C637.21,-81.49 719.62,-76 743,-94.73 770.43,-116.71 745.13,-140.37 761,-171.73 775.13,-199.65 798.62,-226.33 817.41,-245.09"/>
<polygon fill="#9a32cd" stroke="#9a32cd" points="584.76,-83.7 575.22,-88.3 585.55,-90.65 584.76,-83.7"/>
<text text-anchor="start" x="635.5" y="-124.33" font-family="Helvetica,sans-Serif" font-size="8.00"> m_last_actively_opened</text>
<text text-anchor="middle" x="687.5" y="-115.33" font-family="Helvetica,sans-Serif" font-size="8.00">_channel_id</text>
<text text-anchor="start" x="635.5" y="-106.33" font-family="Helvetica,sans-Serif" font-size="8.00">m_last_passively_opened</text>
<text text-anchor="middle" x="687.5" y="-97.33" font-family="Helvetica,sans-Serif" font-size="8.00">_channel_id</text>
</g>
<!-- Node34 -->
<g id="node24" class="node">
<title>Node34</title>
<g id="a_node24"><a xlink:title=" ">
<polygon fill="white" stroke="#bfbfbf" points="483,-628.23 483,-645.23 599,-645.23 599,-628.23 483,-628.23"/>
<text text-anchor="middle" x="541" y="-634.83" font-family="Helvetica,sans-Serif" font-size="8.00">Single_thread_task_loop</text>
</a>
</g>
</g>
<!-- Node34&#45;&gt;Node1 -->
<g id="edge37" class="edge">
<title>Node34&#45;&gt;Node1</title>
<path fill="none" stroke="#9a32cd" stroke-dasharray="5,2" d="M609.49,-640.37C649.3,-640.48 700.12,-637.06 743,-622.73 1043.55,-522.33 1341.74,-268.81 1440.16,-180.03"/>
<polygon fill="#9a32cd" stroke="#9a32cd" points="609.39,-636.87 599.36,-640.26 609.32,-643.87 609.39,-636.87"/>
<text text-anchor="middle" x="1005" y="-528.33" font-family="Helvetica,sans-Serif" font-size="8.00"> m_async_cleanup_worker</text>
</g>
<!-- Node34&#45;&gt;Node3 -->
<g id="edge28" class="edge">
<title>Node34&#45;&gt;Node3</title>
<path fill="none" stroke="#9a32cd" stroke-dasharray="5,2" d="M586.8,-625.72C595.82,-623.45 605.22,-621.05 614,-618.73 622.03,-616.61 623.93,-615.68 632,-613.73 680.97,-601.87 705.48,-624.35 743,-590.73 830.37,-512.43 844.32,-359.76 846.3,-298.3"/>
<polygon fill="#9a32cd" stroke="#9a32cd" points="585.69,-622.39 576.84,-628.21 587.39,-629.18 585.69,-622.39"/>
<text text-anchor="middle" x="687.5" y="-616.33" font-family="Helvetica,sans-Serif" font-size="8.00"> m_async_worker</text>
</g>
<!-- Node35 -->
<g id="node25" class="node">
<title>Node35</title>
<g id="a_node25"><a xlink:title=" ">
<polygon fill="white" stroke="#bfbfbf" points="470,-538.23 470,-555.23 612,-555.23 612,-538.23 470,-538.23"/>
<text text-anchor="middle" x="541" y="-544.83" font-family="Helvetica,sans-Serif" font-size="8.00">Master_structured_channel_ptr</text>
</a>
</g>
</g>
<!-- Node35&#45;&gt;Node3 -->
<g id="edge29" class="edge">
<title>Node35&#45;&gt;Node3</title>
<path fill="none" stroke="#9a32cd" stroke-dasharray="5,2" d="M622.1,-543.4C662.22,-538 709.3,-525.56 743,-497.73 806.39,-445.39 832.75,-345.8 842.09,-298.26"/>
<polygon fill="#9a32cd" stroke="#9a32cd" points="621.56,-539.94 612.06,-544.63 622.41,-546.89 621.56,-539.94"/>
<text text-anchor="middle" x="687.5" y="-543.33" font-family="Helvetica,sans-Serif" font-size="8.00"> m_master_channel</text>
</g>
<!-- Node36 -->
<g id="node26" class="node">
<title>Node36</title>
<g id="a_node26"><a xlink:title=" ">
<polygon fill="white" stroke="#bfbfbf" points="478.5,-574.23 478.5,-609.23 603.5,-609.23 603.5,-574.23 478.5,-574.23"/>
<text text-anchor="start" x="486.5" y="-598.83" font-family="Helvetica,sans-Serif" font-size="8.00">optional&lt; typename</text>
<text text-anchor="start" x="486.5" y="-589.83" font-family="Helvetica,sans-Serif" font-size="8.00"> ipc::session::Session</text>
<text text-anchor="middle" x="541" y="-580.83" font-family="Helvetica,sans-Serif" font-size="8.00">_base::Graceful_finisher &gt;</text>
</a>
</g>
</g>
<!-- Node36&#45;&gt;Node3 -->
<g id="edge30" class="edge">
<title>Node36&#45;&gt;Node3</title>
<path fill="none" stroke="#9a32cd" stroke-dasharray="5,2" d="M613.82,-581.68C667.39,-573.59 732.98,-562.22 743,-553.73 821.78,-486.98 840.61,-354.79 845.1,-298.32"/>
<polygon fill="#9a32cd" stroke="#9a32cd" points="613.01,-578.26 603.63,-583.2 614.04,-585.18 613.01,-578.26"/>
<text text-anchor="middle" x="687.5" y="-580.33" font-family="Helvetica,sans-Serif" font-size="8.00"> m_graceful_finisher</text>
</g>
<!-- Node37 -->
<g id="node27" class="node">
<title>Node37</title>
<g id="a_node27"><a xlink:title=" ">
<polygon fill="white" stroke="black" points="787,-99.23 787,-116.23 908,-116.23 908,-99.23 787,-99.23"/>
<text text-anchor="middle" x="847.5" y="-105.83" font-family="Helvetica,sans-Serif" font-size="8.00">std::shared_ptr&lt; Arena &gt;</text>
</a>
</g>
</g>
<!-- Node37&#45;&gt;Node2 -->
<g id="edge31" class="edge">
<title>Node37&#45;&gt;Node2</title>
<path fill="none" stroke="#9a32cd" stroke-dasharray="5,2" d="M918.28,-116.78C964.71,-122.81 1026.09,-130.77 1075.96,-137.24"/>
<polygon fill="#9a32cd" stroke="#9a32cd" points="918.68,-113.31 908.31,-115.49 917.78,-120.25 918.68,-113.31"/>
<text text-anchor="middle" x="1005" y="-137.33" font-family="Helvetica,sans-Serif" font-size="8.00"> m_session_shm</text>
</g>
<!-- Node38 -->
<g id="node28" class="node">
<title>Node38</title>
<g id="a_node28"><a xlink:title=" ">
<polygon fill="white" stroke="#bfbfbf" points="520.5,-12.23 520.5,-29.23 561.5,-29.23 561.5,-12.23 520.5,-12.23"/>
<text text-anchor="middle" x="541" y="-18.83" font-family="Helvetica,sans-Serif" font-size="8.00">Arena</text>
</a>
</g>
</g>
<!-- Node38&#45;&gt;Node37 -->
<g id="edge32" class="edge">
<title>Node38&#45;&gt;Node37</title>
<path fill="none" stroke="#9a32cd" stroke-dasharray="5,2" d="M571.39,-11.65C614,-0.45 693.27,12.76 743,-25.73 766.03,-43.55 739.8,-68.76 761,-88.73 768.19,-95.51 777.25,-100.07 786.75,-103.1"/>
<polygon fill="#9a32cd" stroke="#9a32cd" points="570.33,-8.31 561.63,-14.35 572.2,-15.06 570.33,-8.31"/>
<text text-anchor="middle" x="687.5" y="-28.33" font-family="Helvetica,sans-Serif" font-size="8.00"> ptr</text>
</g>
<!-- Node39 -->
<g id="node29" class="node">
<title>Node39</title>
<g id="a_node29"><a xlink:title=" ">
<polygon fill="white" stroke="#bfbfbf" points="776.5,-53.73 776.5,-79.73 918.5,-79.73 918.5,-53.73 776.5,-53.73"/>
<text text-anchor="start" x="784.5" y="-69.33" font-family="Helvetica,sans-Serif" font-size="8.00">optional&lt; typename</text>
<text text-anchor="middle" x="847.5" y="-60.33" font-family="Helvetica,sans-Serif" font-size="8.00"> Shm_session::Shm_channel &gt;</text>
</a>
</g>
</g>
<!-- Node39&#45;&gt;Node2 -->
<g id="edge33" class="edge">
<title>Node39&#45;&gt;Node2</title>
<path fill="none" stroke="#9a32cd" stroke-dasharray="5,2" d="M929.01,-80.36C968.25,-87.73 1015.94,-97.79 1058,-109.73 1063.87,-111.4 1069.88,-113.23 1075.91,-115.17"/>
<polygon fill="#9a32cd" stroke="#9a32cd" points="929.43,-76.88 918.96,-78.49 928.16,-83.76 929.43,-76.88"/>
<text text-anchor="middle" x="1005" y="-112.33" font-family="Helvetica,sans-Serif" font-size="8.00"> m_shm_channel</text>
</g>
<!-- Node40 -->
<g id="node30" class="node">
<title>Node40</title>
<g id="a_node30"><a xlink:title=" ">
<polygon fill="white" stroke="black" points="794.5,-135.73 794.5,-161.73 900.5,-161.73 900.5,-135.73 794.5,-135.73"/>
<text text-anchor="start" x="802.5" y="-151.33" font-family="Helvetica,sans-Serif" font-size="8.00">std::shared_ptr&lt; Shm</text>
<text text-anchor="middle" x="847.5" y="-142.33" font-family="Helvetica,sans-Serif" font-size="8.00">_session &gt;</text>
</a>
</g>
</g>
<!-- Node40&#45;&gt;Node2 -->
<g id="edge34" class="edge">
<title>Node40&#45;&gt;Node2</title>
<path fill="none" stroke="#9a32cd" stroke-dasharray="5,2" d="M910.74,-148.73C957.84,-148.73 1023.17,-148.73 1075.75,-148.73"/>
<polygon fill="#9a32cd" stroke="#9a32cd" points="910.68,-145.23 900.68,-148.73 910.68,-152.23 910.68,-145.23"/>
<text text-anchor="middle" x="1005" y="-151.33" font-family="Helvetica,sans-Serif" font-size="8.00"> m_shm_session</text>
</g>
<!-- Node41 -->
<g id="node31" class="node">
<title>Node41</title>
<g id="a_node31"><a xlink:title=" ">
<polygon fill="white" stroke="#bfbfbf" points="506,-48.23 506,-65.23 576,-65.23 576,-48.23 506,-48.23"/>
<text text-anchor="middle" x="541" y="-54.83" font-family="Helvetica,sans-Serif" font-size="8.00">Shm_session</text>
</a>
</g>
</g>
<!-- Node41&#45;&gt;Node40 -->
<g id="edge35" class="edge">
<title>Node41&#45;&gt;Node40</title>
<path fill="none" stroke="#9a32cd" stroke-dasharray="5,2" d="M579.12,-45.67C623.08,-35.03 696.21,-25.36 743,-61.73 766.33,-79.86 739.99,-104.96 761,-125.73 769.96,-134.59 781.96,-140.14 794.12,-143.58"/>
<polygon fill="#9a32cd" stroke="#9a32cd" points="578.23,-42.29 569.41,-48.15 579.96,-49.07 578.23,-42.29"/>
<text text-anchor="middle" x="687.5" y="-64.33" font-family="Helvetica,sans-Serif" font-size="8.00"> ptr</text>
</g>
<!-- Node42 -->
<g id="node32" class="node">
<title>Node42</title>
<g id="a_node32"><a xlink:title=" ">
<polygon fill="white" stroke="#bfbfbf" points="1105.5,-63.73 1105.5,-89.73 1225.5,-89.73 1225.5,-63.73 1105.5,-63.73"/>
<text text-anchor="start" x="1113.5" y="-79.33" font-family="Helvetica,sans-Serif" font-size="8.00">Owner_shm_pool_listener</text>
<text text-anchor="middle" x="1165.5" y="-70.33" font-family="Helvetica,sans-Serif" font-size="8.00">_for_repository</text>
</a>
</g>
</g>
<!-- Node42&#45;&gt;Node1 -->
<g id="edge36" class="edge">
<title>Node42&#45;&gt;Node1</title>
<path fill="none" stroke="#9a32cd" stroke-dasharray="5,2" d="M1232.14,-92.1C1283.28,-104.07 1354.06,-120.65 1405.83,-132.77"/>
<polygon fill="#9a32cd" stroke="#9a32cd" points="1232.72,-88.64 1222.19,-89.77 1231.12,-95.46 1232.72,-88.64"/>
<text text-anchor="middle" x="1330.5" y="-130.33" font-family="Helvetica,sans-Serif" font-size="8.00"> m_shm_arena_pool_listener</text>
</g>
</g>
</svg>
