<?xml version="1.0" encoding="UTF-8" standalone="no"?>
<!DOCTYPE svg PUBLIC "-//W3C//DTD SVG 1.1//EN"
 "http://www.w3.org/Graphics/SVG/1.1/DTD/svg11.dtd">
<!-- Generated by graphviz version 2.43.0 (0)
 -->
<!-- Title: ipc::transport::Posix_mq_handle::wait_receivable Pages: 1 -->
<svg width="437pt" height="53pt"
 viewBox="0.00 0.00 437.00 53.00" xmlns="http://www.w3.org/2000/svg" xmlns:xlink="http://www.w3.org/1999/xlink">
<g id="graph0" class="graph" transform="scale(1 1) rotate(0) translate(4 49)">
<title>ipc::transport::Posix_mq_handle::wait_receivable</title>
<polygon fill="white" stroke="transparent" points="-4,4 -4,-49 433,-49 433,4 -4,4"/>
<!-- Node1 -->
<g id="node1" class="node">
<title>Node1</title>
<g id="a_node1"><a xlink:title="Implements Persistent_mq_handle API: Like receive() but without the actual popping of a message.">
<polygon fill="#bfbfbf" stroke="black" points="0,-0.5 0,-26.5 135,-26.5 135,-0.5 0,-0.5"/>
<text text-anchor="start" x="8" y="-16.1" font-family="Helvetica,sans-Serif" font-size="8.00">ipc::transport::Posix</text>
<text text-anchor="middle" x="67.5" y="-7.1" font-family="Helvetica,sans-Serif" font-size="8.00">_mq_handle::wait_receivable</text>
</a>
</g>
</g>
<!-- Node2 -->
<g id="node2" class="node">
<title>Node2</title>
<g id="a_node2"><a xlink:href="classipc_1_1transport_1_1Posix__mq__handle.html#a64e44dd9a0e2ba1f870a231ffcf02fb9" target="_top" xlink:title="Impl body for *_sendable() and *_receivable().">
<polygon fill="white" stroke="black" points="171,-0.5 171,-26.5 281,-26.5 281,-0.5 171,-0.5"/>
<text text-anchor="start" x="179" y="-16.1" font-family="Helvetica,sans-Serif" font-size="8.00">ipc::transport::Posix</text>
<text text-anchor="middle" x="226" y="-7.1" font-family="Helvetica,sans-Serif" font-size="8.00">_mq_handle::wait_impl</text>
</a>
</g>
</g>
<!-- Node1&#45;&gt;Node2 -->
<g id="edge1" class="edge">
<title>Node1&#45;&gt;Node2</title>
<path fill="none" stroke="midnightblue" d="M135.32,-13.5C143.71,-13.5 152.28,-13.5 160.63,-13.5"/>
<polygon fill="midnightblue" stroke="midnightblue" points="160.67,-17 170.67,-13.5 160.67,-10 160.67,-17"/>
</g>
<!-- Node2&#45;&gt;Node2 -->
<g id="edge3" class="edge">
<title>Node2&#45;&gt;Node2</title>
<path fill="none" stroke="midnightblue" d="M201.3,-26.77C193.81,-35.96 202.05,-45 226,-45 240.6,-45 249.36,-41.64 252.28,-36.94"/>
<polygon fill="midnightblue" stroke="midnightblue" points="255.69,-36.12 250.7,-26.77 248.77,-37.19 255.69,-36.12"/>
</g>
<!-- Node3 -->
<g id="node3" class="node">
<title>Node3</title>
<g id="a_node3"><a xlink:href="structipc_1_1util_1_1Native__handle.html#a11bd62ce0a7bef4bdfe666201c26d4dc" target="_top" xlink:title="Returns true if and only if m_native_handle equals S_NULL_HANDLE.">
<polygon fill="white" stroke="black" points="317,-0.5 317,-26.5 429,-26.5 429,-0.5 317,-0.5"/>
<text text-anchor="start" x="325" y="-16.1" font-family="Helvetica,sans-Serif" font-size="8.00">ipc::util::Native_handle</text>
<text text-anchor="middle" x="373" y="-7.1" font-family="Helvetica,sans-Serif" font-size="8.00">::null</text>
</a>
</g>
</g>
<!-- Node2&#45;&gt;Node3 -->
<g id="edge2" class="edge">
<title>Node2&#45;&gt;Node3</title>
<path fill="none" stroke="midnightblue" d="M281.41,-13.5C289.63,-13.5 298.19,-13.5 306.62,-13.5"/>
<polygon fill="midnightblue" stroke="midnightblue" points="306.81,-17 316.81,-13.5 306.81,-10 306.81,-17"/>
</g>
</g>
</svg>
