<?xml version="1.0" encoding="UTF-8" standalone="no"?>
<!DOCTYPE svg PUBLIC "-//W3C//DTD SVG 1.1//EN"
 "http://www.w3.org/Graphics/SVG/1.1/DTD/svg11.dtd">
<!-- Generated by graphviz version 2.43.0 (0)
 -->
<!-- Title: ipc::transport::sync_io::Native_socket_stream::Impl::snd_nb_write_low_lvl_payload Pages: 1 -->
<svg width="483pt" height="171pt"
 viewBox="0.00 0.00 483.00 170.50" xmlns="http://www.w3.org/2000/svg" xmlns:xlink="http://www.w3.org/1999/xlink">
<g id="graph0" class="graph" transform="scale(1 1) rotate(0) translate(4 166.5)">
<title>ipc::transport::sync_io::Native_socket_stream::Impl::snd_nb_write_low_lvl_payload</title>
<polygon fill="white" stroke="transparent" points="-4,4 -4,-166.5 479,-166.5 479,4 -4,4"/>
<!-- Node1 -->
<g id="node1" class="node">
<title>Node1</title>
<g id="a_node1"><a xlink:title="Utility that sends non&#45;empty blob, and (unless null) hndl_or_null associated with its 1st byte,...">
<polygon fill="#bfbfbf" stroke="black" points="0,-45.5 0,-89.5 123,-89.5 123,-45.5 0,-45.5"/>
<text text-anchor="start" x="8" y="-79.1" font-family="Helvetica,sans-Serif" font-size="8.00">ipc::transport::sync</text>
<text text-anchor="start" x="8" y="-70.1" font-family="Helvetica,sans-Serif" font-size="8.00">_io::Native_socket_stream</text>
<text text-anchor="start" x="8" y="-61.1" font-family="Helvetica,sans-Serif" font-size="8.00">::Impl::snd_nb_write_low</text>
<text text-anchor="middle" x="61.5" y="-52.1" font-family="Helvetica,sans-Serif" font-size="8.00">_lvl_payload</text>
</a>
</g>
</g>
<!-- Node2 -->
<g id="node2" class="node">
<title>Node2</title>
<g id="a_node2"><a xlink:href="classipc_1_1transport_1_1sync__io_1_1Native__socket__stream.html#aac68d14f4ef33505399df4fd04cd4669" target="_top" xlink:title="Returns logger (possibly null).">
<polygon fill="white" stroke="black" points="164.5,-127 164.5,-162 287.5,-162 287.5,-127 164.5,-127"/>
<text text-anchor="start" x="172.5" y="-151.6" font-family="Helvetica,sans-Serif" font-size="8.00">ipc::transport::sync</text>
<text text-anchor="start" x="172.5" y="-142.6" font-family="Helvetica,sans-Serif" font-size="8.00">_io::Native_socket_stream</text>
<text text-anchor="middle" x="226" y="-133.6" font-family="Helvetica,sans-Serif" font-size="8.00">::get_logger</text>
</a>
</g>
</g>
<!-- Node1&#45;&gt;Node2 -->
<g id="edge1" class="edge">
<title>Node1&#45;&gt;Node2</title>
<path fill="none" stroke="midnightblue" d="M103.42,-89.73C120.44,-98.71 140.5,-108.95 159,-117.5 162.86,-119.28 166.86,-121.07 170.91,-122.84"/>
<polygon fill="midnightblue" stroke="midnightblue" points="169.82,-126.17 180.39,-126.89 172.57,-119.74 169.82,-126.17"/>
</g>
<!-- Node4 -->
<g id="node4" class="node">
<title>Node4</title>
<g id="a_node4"><a xlink:href="namespaceipc_1_1transport_1_1asio__local__stream__socket.html#a1022dfd42e9a0d6eab8384b0352decb0" target="_top" xlink:title="boost.asio extension similar to peer_socket&#45;&gt;non_blocking(true); auto n = peer_socket&#45;&gt;write_some(pay...">
<polygon fill="white" stroke="black" points="159,-45.5 159,-89.5 293,-89.5 293,-45.5 159,-45.5"/>
<text text-anchor="start" x="167" y="-79.1" font-family="Helvetica,sans-Serif" font-size="8.00">ipc::transport::asio</text>
<text text-anchor="start" x="167" y="-70.1" font-family="Helvetica,sans-Serif" font-size="8.00">_local_stream_socket</text>
<text text-anchor="start" x="167" y="-61.1" font-family="Helvetica,sans-Serif" font-size="8.00">::nb_write_some_with_native</text>
<text text-anchor="middle" x="226" y="-52.1" font-family="Helvetica,sans-Serif" font-size="8.00">_handle</text>
</a>
</g>
</g>
<!-- Node1&#45;&gt;Node4 -->
<g id="edge3" class="edge">
<title>Node1&#45;&gt;Node4</title>
<path fill="none" stroke="midnightblue" d="M123.01,-67.5C131.44,-67.5 140.19,-67.5 148.86,-67.5"/>
<polygon fill="midnightblue" stroke="midnightblue" points="148.99,-71 158.99,-67.5 148.99,-64 148.99,-71"/>
</g>
<!-- Node5 -->
<g id="node5" class="node">
<title>Node5</title>
<g id="a_node5"><a xlink:href="structipc_1_1util_1_1Native__handle.html#a11bd62ce0a7bef4bdfe666201c26d4dc" target="_top" xlink:title="Returns true if and only if m_native_handle equals S_NULL_HANDLE.">
<polygon fill="white" stroke="black" points="170,-0.5 170,-26.5 282,-26.5 282,-0.5 170,-0.5"/>
<text text-anchor="start" x="178" y="-16.1" font-family="Helvetica,sans-Serif" font-size="8.00">ipc::util::Native_handle</text>
<text text-anchor="middle" x="226" y="-7.1" font-family="Helvetica,sans-Serif" font-size="8.00">::null</text>
</a>
</g>
</g>
<!-- Node1&#45;&gt;Node5 -->
<g id="edge5" class="edge">
<title>Node1&#45;&gt;Node5</title>
<path fill="none" stroke="midnightblue" d="M123.01,-47.39C140.51,-41.58 159.39,-35.3 176.08,-29.76"/>
<polygon fill="midnightblue" stroke="midnightblue" points="177.25,-33.06 185.64,-26.58 175.04,-26.41 177.25,-33.06"/>
</g>
<!-- Node3 -->
<g id="node3" class="node">
<title>Node3</title>
<g id="a_node3"><a xlink:href="classipc_1_1transport_1_1sync__io_1_1Native__socket__stream.html#a8e3703d5c8bac62f828a372691249c85" target="_top" xlink:title="Helper that simply returns m_impl while guaranteeing that m_impl is non&#45;null upon return.">
<polygon fill="white" stroke="black" points="329,-131.5 329,-157.5 475,-157.5 475,-131.5 329,-131.5"/>
<text text-anchor="start" x="337" y="-147.1" font-family="Helvetica,sans-Serif" font-size="8.00">ipc::transport::sync</text>
<text text-anchor="middle" x="402" y="-138.1" font-family="Helvetica,sans-Serif" font-size="8.00">_io::Native_socket_stream::impl</text>
</a>
</g>
</g>
<!-- Node2&#45;&gt;Node3 -->
<g id="edge2" class="edge">
<title>Node2&#45;&gt;Node3</title>
<path fill="none" stroke="midnightblue" d="M287.86,-144.5C297.78,-144.5 308.2,-144.5 318.54,-144.5"/>
<polygon fill="midnightblue" stroke="midnightblue" points="318.83,-148 328.83,-144.5 318.83,-141 318.83,-148"/>
</g>
<!-- Node4&#45;&gt;Node4 -->
<g id="edge4" class="edge">
<title>Node4&#45;&gt;Node4</title>
<path fill="none" stroke="midnightblue" d="M195.73,-89.58C192.85,-99.46 202.94,-108 226,-108 240.41,-108 249.76,-104.66 254.04,-99.75"/>
<polygon fill="midnightblue" stroke="midnightblue" points="257.55,-100.1 256.27,-89.58 250.71,-98.6 257.55,-100.1"/>
</g>
</g>
</svg>
