<?xml version="1.0" encoding="UTF-8" standalone="no"?>
<!DOCTYPE svg PUBLIC "-//W3C//DTD SVG 1.1//EN"
 "http://www.w3.org/Graphics/SVG/1.1/DTD/svg11.dtd">
<!-- Generated by graphviz version 2.43.0 (0)
 -->
<!-- Title: ipc::session::sync_io::Client_session_adapter&lt; Session &gt; Pages: 1 -->
<svg width="750pt" height="604pt"
 viewBox="0.00 0.00 750.00 604.00" xmlns="http://www.w3.org/2000/svg" xmlns:xlink="http://www.w3.org/1999/xlink">
<g id="graph0" class="graph" transform="scale(1 1) rotate(0) translate(4 600)">
<title>ipc::session::sync_io::Client_session_adapter&lt; Session &gt;</title>
<polygon fill="white" stroke="transparent" points="-4,4 -4,-600 746,-600 746,4 -4,4"/>
<!-- Node1 -->
<g id="node1" class="node">
<title>Node1</title>
<g id="a_node1"><a xlink:title="sync_io&#45;pattern counterpart to async&#45;I/O&#45;pattern session::Client_session types and all their SHM&#45;awar...">
<polygon fill="#bfbfbf" stroke="black" points="639,-207.5 639,-242.5 742,-242.5 742,-207.5 639,-207.5"/>
<text text-anchor="start" x="647" y="-232.1" font-family="Helvetica,sans-Serif" font-size="8.00">ipc::session::sync</text>
<text text-anchor="start" x="647" y="-223.1" font-family="Helvetica,sans-Serif" font-size="8.00">_io::Client_session</text>
<text text-anchor="middle" x="690.5" y="-214.1" font-family="Helvetica,sans-Serif" font-size="8.00">_adapter&lt; Session &gt;</text>
</a>
</g>
</g>
<!-- Node2 -->
<g id="node2" class="node">
<title>Node2</title>
<g id="a_node2"><a xlink:href="classipc_1_1session_1_1sync__io_1_1Session__adapter.html" target="_top" xlink:title="Internal&#45;use workhorse containing common elements of Client_session_adapter and Server_session_adapte...">
<polygon fill="white" stroke="black" points="495,-281.5 495,-316.5 597,-316.5 597,-281.5 495,-281.5"/>
<text text-anchor="start" x="503" y="-306.1" font-family="Helvetica,sans-Serif" font-size="8.00">ipc::session::sync</text>
<text text-anchor="start" x="503" y="-297.1" font-family="Helvetica,sans-Serif" font-size="8.00">_io::Session_adapter</text>
<text text-anchor="middle" x="546" y="-288.1" font-family="Helvetica,sans-Serif" font-size="8.00">&lt; Session &gt;</text>
</a>
</g>
</g>
<!-- Node2&#45;&gt;Node1 -->
<g id="edge1" class="edge">
<title>Node2&#45;&gt;Node1</title>
<path fill="none" stroke="#8b1a1a" d="M589.81,-276.77C610.83,-265.86 635.79,-252.89 655.48,-242.67"/>
<polygon fill="#8b1a1a" stroke="#8b1a1a" points="588.03,-273.75 580.77,-281.46 591.26,-279.96 588.03,-273.75"/>
</g>
<!-- Node3 -->
<g id="node3" class="node">
<title>Node3</title>
<g id="a_node3"><a xlink:href="classipc_1_1session_1_1Session.html" target="_top" xlink:title="A documentation&#45;only concept defining the local side of an IPC conversation (session) with another en...">
<polygon fill="white" stroke="black" points="224.5,-340 224.5,-366 328.5,-366 328.5,-340 224.5,-340"/>
<text text-anchor="start" x="232.5" y="-355.6" font-family="Helvetica,sans-Serif" font-size="8.00">ipc::session::Session</text>
<text text-anchor="middle" x="276.5" y="-346.6" font-family="Helvetica,sans-Serif" font-size="8.00">&lt; Mdt_payload &gt;</text>
</a>
</g>
</g>
<!-- Node3&#45;&gt;Node2 -->
<g id="edge2" class="edge">
<title>Node3&#45;&gt;Node2</title>
<path fill="none" stroke="midnightblue" d="M338.96,-348.48C377.58,-344.74 428.21,-338.16 472,-327 482.65,-324.28 493.87,-320.48 504.24,-316.56"/>
<polygon fill="midnightblue" stroke="midnightblue" points="338.53,-345.01 328.9,-349.42 339.18,-351.98 338.53,-345.01"/>
</g>
<!-- Node4 -->
<g id="node4" class="node">
<title>Node4</title>
<g id="a_node4"><a xlink:title=" ">
<polygon fill="white" stroke="#bfbfbf" points="24,-362.5 24,-379.5 77,-379.5 77,-362.5 24,-362.5"/>
<text text-anchor="middle" x="50.5" y="-369.1" font-family="Helvetica,sans-Serif" font-size="8.00">ShmType</text>
</a>
</g>
</g>
<!-- Node4&#45;&gt;Node3 -->
<g id="edge3" class="edge">
<title>Node4&#45;&gt;Node3</title>
<path fill="none" stroke="#9a32cd" stroke-dasharray="5,2" d="M87.51,-368.11C124.54,-365.13 182.55,-360.47 224.33,-357.11"/>
<polygon fill="#9a32cd" stroke="#9a32cd" points="86.88,-364.65 77.2,-368.94 87.44,-371.62 86.88,-364.65"/>
<text text-anchor="middle" x="154.5" y="-367.6" font-family="Helvetica,sans-Serif" font-size="8.00"> S_SHM_TYPE</text>
</g>
<!-- Node5 -->
<g id="node5" class="node">
<title>Node5</title>
<g id="a_node5"><a xlink:title=" ">
<polygon fill="white" stroke="#bfbfbf" points="0,-326.5 0,-343.5 101,-343.5 101,-326.5 0,-326.5"/>
<text text-anchor="middle" x="50.5" y="-333.1" font-family="Helvetica,sans-Serif" font-size="8.00">static constexpr bool</text>
</a>
</g>
</g>
<!-- Node5&#45;&gt;Node3 -->
<g id="edge4" class="edge">
<title>Node5&#45;&gt;Node3</title>
<path fill="none" stroke="#9a32cd" stroke-dasharray="5,2" d="M111.38,-339.81C146.63,-342.64 190.76,-346.19 224.37,-348.89"/>
<polygon fill="#9a32cd" stroke="#9a32cd" points="111.46,-336.31 101.21,-338.99 110.9,-343.28 111.46,-336.31"/>
<text text-anchor="middle" x="154.5" y="-347.6" font-family="Helvetica,sans-Serif" font-size="8.00"> S_SHM_ENABLED</text>
</g>
<!-- Node6 -->
<g id="node6" class="node">
<title>Node6</title>
<g id="a_node6"><a xlink:title=" ">
<polygon fill="white" stroke="#bfbfbf" points="243,-558.5 243,-575.5 310,-575.5 310,-558.5 243,-558.5"/>
<text text-anchor="middle" x="276.5" y="-565.1" font-family="Helvetica,sans-Serif" font-size="8.00">Task_engine</text>
</a>
</g>
</g>
<!-- Node6&#45;&gt;Node1 -->
<g id="edge18" class="edge">
<title>Node6&#45;&gt;Node1</title>
<path fill="none" stroke="#9a32cd" stroke-dasharray="5,2" d="M320.05,-574.33C390.98,-583.82 532.45,-590.56 602,-509 671.63,-427.35 685.88,-290.9 688.77,-242.6"/>
<polygon fill="#9a32cd" stroke="#9a32cd" points="320.51,-570.86 310.11,-572.92 319.52,-577.79 320.51,-570.86"/>
<text text-anchor="start" x="496.5" y="-589.6" font-family="Helvetica,sans-Serif" font-size="8.00"> m_ev_hndl_task_engine</text>
<text text-anchor="middle" x="546" y="-580.6" font-family="Helvetica,sans-Serif" font-size="8.00">_unused</text>
<text text-anchor="middle" x="546" y="-571.6" font-family="Helvetica,sans-Serif" font-size="8.00">m_nb_task_engine</text>
</g>
<!-- Node6&#45;&gt;Node2 -->
<g id="edge5" class="edge">
<title>Node6&#45;&gt;Node2</title>
<path fill="none" stroke="#9a32cd" stroke-dasharray="5,2" d="M318.53,-555.6C372.39,-540.3 461.4,-513.67 472,-502 495.92,-475.67 478.79,-457.76 490,-424 503.08,-384.62 523.98,-340.67 535.89,-316.8"/>
<polygon fill="#9a32cd" stroke="#9a32cd" points="317.25,-552.33 308.58,-558.42 319.16,-559.06 317.25,-552.33"/>
<text text-anchor="start" x="368" y="-562.6" font-family="Helvetica,sans-Serif" font-size="8.00"> m_ev_hndl_task_engine</text>
<text text-anchor="middle" x="417.5" y="-553.6" font-family="Helvetica,sans-Serif" font-size="8.00">_unused</text>
<text text-anchor="middle" x="417.5" y="-544.6" font-family="Helvetica,sans-Serif" font-size="8.00">m_nb_task_engine</text>
</g>
<!-- Node7 -->
<g id="node7" class="node">
<title>Node7</title>
<g id="a_node7"><a xlink:title=" ">
<polygon fill="white" stroke="#bfbfbf" points="239,-502.5 239,-519.5 314,-519.5 314,-502.5 239,-502.5"/>
<text text-anchor="middle" x="276.5" y="-509.1" font-family="Helvetica,sans-Serif" font-size="8.00">readable_pipe</text>
</a>
</g>
</g>
<!-- Node7&#45;&gt;Node1 -->
<g id="edge19" class="edge">
<title>Node7&#45;&gt;Node1</title>
<path fill="none" stroke="#9a32cd" stroke-dasharray="5,2" d="M324.18,-514.62C395.12,-517.34 529.49,-511.07 602,-434 655.77,-376.84 678.87,-281.84 686.45,-242.7"/>
<polygon fill="#9a32cd" stroke="#9a32cd" points="324.33,-511.13 314.18,-514.16 324.01,-518.12 324.33,-511.13"/>
<text text-anchor="middle" x="546" y="-498.6" font-family="Helvetica,sans-Serif" font-size="8.00"> m_ready_reader_conn</text>
</g>
<!-- Node7&#45;&gt;Node2 -->
<g id="edge6" class="edge">
<title>Node7&#45;&gt;Node2</title>
<path fill="none" stroke="#9a32cd" stroke-dasharray="5,2" d="M323.87,-501.04C331.11,-498.81 338.37,-496.15 345,-493 353.92,-488.77 354.36,-484.77 363,-480 408.73,-454.74 433.16,-470.93 472,-436 509.27,-402.48 530.92,-345.35 539.97,-316.61"/>
<polygon fill="#9a32cd" stroke="#9a32cd" points="322.76,-497.72 314.1,-503.83 324.67,-504.46 322.76,-497.72"/>
<text text-anchor="middle" x="417.5" y="-491.6" font-family="Helvetica,sans-Serif" font-size="8.00"> m_ready_reader_chan</text>
<text text-anchor="middle" x="417.5" y="-482.6" font-family="Helvetica,sans-Serif" font-size="8.00">m_ready_reader_err</text>
</g>
<!-- Node8 -->
<g id="node8" class="node">
<title>Node8</title>
<g id="a_node8"><a xlink:title=" ">
<polygon fill="white" stroke="#bfbfbf" points="241,-466.5 241,-483.5 312,-483.5 312,-466.5 241,-466.5"/>
<text text-anchor="middle" x="276.5" y="-473.1" font-family="Helvetica,sans-Serif" font-size="8.00">writable_pipe</text>
</a>
</g>
</g>
<!-- Node8&#45;&gt;Node1 -->
<g id="edge20" class="edge">
<title>Node8&#45;&gt;Node1</title>
<path fill="none" stroke="#9a32cd" stroke-dasharray="5,2" d="M321.9,-466.31C375.04,-455.74 458.58,-438.49 472,-432 566.78,-386.12 647.4,-283.76 677.2,-242.62"/>
<polygon fill="#9a32cd" stroke="#9a32cd" points="321.16,-462.89 312.03,-468.27 322.52,-469.76 321.16,-462.89"/>
<text text-anchor="middle" x="546" y="-423.6" font-family="Helvetica,sans-Serif" font-size="8.00"> m_ready_writer_conn</text>
</g>
<!-- Node8&#45;&gt;Node2 -->
<g id="edge7" class="edge">
<title>Node8&#45;&gt;Node2</title>
<path fill="none" stroke="#9a32cd" stroke-dasharray="5,2" d="M322.08,-469.27C330.39,-466.58 338.5,-462.67 345,-457 360.61,-443.38 347.04,-427.21 363,-414 401.15,-382.44 429.89,-417.05 472,-391 501.65,-372.66 524.26,-337.77 536.01,-316.63"/>
<polygon fill="#9a32cd" stroke="#9a32cd" points="321.06,-465.92 312.32,-471.9 322.88,-472.68 321.06,-465.92"/>
<text text-anchor="middle" x="417.5" y="-425.6" font-family="Helvetica,sans-Serif" font-size="8.00"> m_ready_writer_chan</text>
<text text-anchor="middle" x="417.5" y="-416.6" font-family="Helvetica,sans-Serif" font-size="8.00">m_ready_writer_err</text>
</g>
<!-- Node9 -->
<g id="node9" class="node">
<title>Node9</title>
<g id="a_node9"><a xlink:href="classipc_1_1util_1_1sync__io_1_1Asio__waitable__native__handle.html" target="_top" xlink:title="Useful if using the sync_io pattern within a user event loop built on boost.asio (optionally with flo...">
<polygon fill="white" stroke="black" points="222.5,-150.5 222.5,-185.5 330.5,-185.5 330.5,-150.5 222.5,-150.5"/>
<text text-anchor="start" x="230.5" y="-175.1" font-family="Helvetica,sans-Serif" font-size="8.00">ipc::util::sync_io</text>
<text text-anchor="start" x="230.5" y="-166.1" font-family="Helvetica,sans-Serif" font-size="8.00">::Asio_waitable_native</text>
<text text-anchor="middle" x="276.5" y="-157.1" font-family="Helvetica,sans-Serif" font-size="8.00">_handle</text>
</a>
</g>
</g>
<!-- Node9&#45;&gt;Node1 -->
<g id="edge21" class="edge">
<title>Node9&#45;&gt;Node1</title>
<path fill="none" stroke="#9a32cd" stroke-dasharray="5,2" d="M340.95,-170.59C379.06,-172.63 428.45,-176.15 472,-182 529.6,-189.74 594.93,-203.31 638.82,-213.14"/>
<polygon fill="#9a32cd" stroke="#9a32cd" points="340.68,-167.07 330.51,-170.05 340.32,-174.06 340.68,-167.07"/>
<text text-anchor="middle" x="546" y="-206.6" font-family="Helvetica,sans-Serif" font-size="8.00"> m_ev_wait_hndl_conn</text>
</g>
<!-- Node9&#45;&gt;Node2 -->
<g id="edge8" class="edge">
<title>Node9&#45;&gt;Node2</title>
<path fill="none" stroke="#9a32cd" stroke-dasharray="5,2" d="M340.71,-176.9C395.3,-184.76 466.31,-195.52 472,-199 504.09,-218.63 526.42,-258.15 537.34,-281.2"/>
<polygon fill="#9a32cd" stroke="#9a32cd" points="341.12,-173.42 330.72,-175.46 340.12,-180.35 341.12,-173.42"/>
<text text-anchor="middle" x="417.5" y="-210.6" font-family="Helvetica,sans-Serif" font-size="8.00"> m_ev_wait_hndl_chan</text>
<text text-anchor="middle" x="417.5" y="-201.6" font-family="Helvetica,sans-Serif" font-size="8.00">m_ev_wait_hndl_err</text>
</g>
<!-- Node10 -->
<g id="node10" class="node">
<title>Node10</title>
<g id="a_node10"><a xlink:title=" ">
<polygon fill="white" stroke="#bfbfbf" points="5,-155 5,-181 96,-181 96,-155 5,-155"/>
<text text-anchor="start" x="13" y="-170.6" font-family="Helvetica,sans-Serif" font-size="8.00">boost::asio::posix</text>
<text text-anchor="middle" x="50.5" y="-161.6" font-family="Helvetica,sans-Serif" font-size="8.00">::descriptor</text>
</a>
</g>
</g>
<!-- Node10&#45;&gt;Node9 -->
<g id="edge9" class="edge">
<title>Node10&#45;&gt;Node9</title>
<path fill="none" stroke="darkgreen" d="M106.17,-168C141.53,-168 187.34,-168 222.39,-168"/>
<polygon fill="darkgreen" stroke="darkgreen" points="106.02,-164.5 96.02,-168 106.02,-171.5 106.02,-164.5"/>
</g>
<!-- Node11 -->
<g id="node11" class="node">
<title>Node11</title>
<g id="a_node11"><a xlink:title=" ">
<polygon fill="white" stroke="#bfbfbf" points="215,-385 215,-447 338,-447 338,-385 215,-385"/>
<text text-anchor="start" x="223" y="-436.6" font-family="Helvetica,sans-Serif" font-size="8.00">Function&lt; void(Asio</text>
<text text-anchor="start" x="223" y="-427.6" font-family="Helvetica,sans-Serif" font-size="8.00">_waitable_native_handle</text>
<text text-anchor="start" x="223" y="-418.6" font-family="Helvetica,sans-Serif" font-size="8.00"> *hndl_of_interest, bool</text>
<text text-anchor="start" x="223" y="-409.6" font-family="Helvetica,sans-Serif" font-size="8.00"> ev_of_interest_snd_else</text>
<text text-anchor="start" x="223" y="-400.6" font-family="Helvetica,sans-Serif" font-size="8.00">_rcv, Task_ptr &amp;&amp;on_active</text>
<text text-anchor="middle" x="276.5" y="-391.6" font-family="Helvetica,sans-Serif" font-size="8.00">_ev_func)&gt;</text>
</a>
</g>
</g>
<!-- Node11&#45;&gt;Node2 -->
<g id="edge10" class="edge">
<title>Node11&#45;&gt;Node2</title>
<path fill="none" stroke="#9a32cd" stroke-dasharray="5,2" d="M348.09,-387.34C353.11,-385.48 358.12,-383.68 363,-382 410.73,-365.54 426.49,-371.86 472,-350 490.68,-341.03 509.8,-327.48 523.79,-316.6"/>
<polygon fill="#9a32cd" stroke="#9a32cd" points="346.55,-384.18 338.42,-390.97 349.02,-390.73 346.55,-384.18"/>
<text text-anchor="middle" x="417.5" y="-384.6" font-family="Helvetica,sans-Serif" font-size="8.00"> m_ev_wait_func</text>
</g>
<!-- Node12 -->
<g id="node12" class="node">
<title>Node12</title>
<g id="a_node12"><a xlink:title=" ">
<polygon fill="white" stroke="#bfbfbf" points="241,-108.5 241,-125.5 312,-125.5 312,-108.5 241,-108.5"/>
<text text-anchor="middle" x="276.5" y="-115.1" font-family="Helvetica,sans-Serif" font-size="8.00">Task_asio_err</text>
</a>
</g>
</g>
<!-- Node12&#45;&gt;Node1 -->
<g id="edge22" class="edge">
<title>Node12&#45;&gt;Node1</title>
<path fill="none" stroke="#9a32cd" stroke-dasharray="5,2" d="M322.45,-115.08C362.15,-114.27 421.43,-115.24 472,-125 532.18,-136.61 546.72,-144.53 602,-171 623.9,-181.48 647.22,-196.07 664.28,-207.44"/>
<polygon fill="#9a32cd" stroke="#9a32cd" points="322.2,-111.58 312.29,-115.33 322.38,-118.58 322.2,-111.58"/>
<text text-anchor="middle" x="546" y="-173.6" font-family="Helvetica,sans-Serif" font-size="8.00"> m_on_conn_func_or_empty</text>
</g>
<!-- Node12&#45;&gt;Node2 -->
<g id="edge11" class="edge">
<title>Node12&#45;&gt;Node2</title>
<path fill="none" stroke="#9a32cd" stroke-dasharray="5,2" d="M322.43,-118.58C364.95,-122.21 428.57,-133.39 472,-167 510.52,-196.81 531.6,-252.99 540.25,-281.48"/>
<polygon fill="#9a32cd" stroke="#9a32cd" points="322.6,-115.09 312.36,-117.83 322.07,-122.07 322.6,-115.09"/>
<text text-anchor="middle" x="417.5" y="-169.6" font-family="Helvetica,sans-Serif" font-size="8.00"> m_on_err_func</text>
</g>
<!-- Node13 -->
<g id="node13" class="node">
<title>Node13</title>
<g id="a_node13"><a xlink:title=" ">
<polygon fill="white" stroke="#bfbfbf" points="208,-295 208,-321 345,-321 345,-295 208,-295"/>
<text text-anchor="start" x="216" y="-310.6" font-family="Helvetica,sans-Serif" font-size="8.00">Function&lt; void(Channel</text>
<text text-anchor="middle" x="276.5" y="-301.6" font-family="Helvetica,sans-Serif" font-size="8.00">_obj &amp;&amp;, Mdt_reader_ptr &amp;&amp;)&gt;</text>
</a>
</g>
</g>
<!-- Node13&#45;&gt;Node2 -->
<g id="edge12" class="edge">
<title>Node13&#45;&gt;Node2</title>
<path fill="none" stroke="#9a32cd" stroke-dasharray="5,2" d="M355.03,-305.39C400.07,-303.88 455.5,-302.01 494.83,-300.69"/>
<polygon fill="#9a32cd" stroke="#9a32cd" points="354.88,-301.89 345,-305.73 355.11,-308.89 354.88,-301.89"/>
<text text-anchor="start" x="370" y="-316.6" font-family="Helvetica,sans-Serif" font-size="8.00"> m_on_channel_func_or</text>
<text text-anchor="middle" x="417.5" y="-307.6" font-family="Helvetica,sans-Serif" font-size="8.00">_empty</text>
</g>
<!-- Node14 -->
<g id="node14" class="node">
<title>Node14</title>
<g id="a_node14"><a xlink:title=" ">
<polygon fill="white" stroke="#bfbfbf" points="246.5,-62.5 246.5,-79.5 306.5,-79.5 306.5,-62.5 246.5,-62.5"/>
<text text-anchor="middle" x="276.5" y="-69.1" font-family="Helvetica,sans-Serif" font-size="8.00">Error_code</text>
</a>
</g>
</g>
<!-- Node14&#45;&gt;Node1 -->
<g id="edge23" class="edge">
<title>Node14&#45;&gt;Node1</title>
<path fill="none" stroke="#9a32cd" stroke-dasharray="5,2" d="M317.11,-65.46C382.88,-58.47 515.87,-53.98 602,-116 636.86,-141.1 665.34,-183.6 679.6,-207.44"/>
<polygon fill="#9a32cd" stroke="#9a32cd" points="316.31,-62.03 306.77,-66.64 317.11,-68.98 316.31,-62.03"/>
<text text-anchor="middle" x="546" y="-118.6" font-family="Helvetica,sans-Serif" font-size="8.00"> m_target_err_code_conn</text>
</g>
<!-- Node14&#45;&gt;Node2 -->
<g id="edge13" class="edge">
<title>Node14&#45;&gt;Node2</title>
<path fill="none" stroke="#9a32cd" stroke-dasharray="5,2" d="M316.75,-67.99C360.44,-66.91 430.36,-72.29 472,-112 494.94,-133.87 479.26,-151.18 490,-181 503.25,-217.79 523.71,-258.74 535.58,-281.43"/>
<polygon fill="#9a32cd" stroke="#9a32cd" points="316.37,-64.51 306.51,-68.38 316.64,-71.5 316.37,-64.51"/>
<text text-anchor="middle" x="417.5" y="-114.6" font-family="Helvetica,sans-Serif" font-size="8.00"> m_target_err_code_err</text>
</g>
<!-- Node15 -->
<g id="node15" class="node">
<title>Node15</title>
<g id="a_node15"><a xlink:title=" ">
<polygon fill="white" stroke="black" points="220.5,-240.5 220.5,-275.5 332.5,-275.5 332.5,-240.5 220.5,-240.5"/>
<text text-anchor="start" x="228.5" y="-265.1" font-family="Helvetica,sans-Serif" font-size="8.00">std::queue&lt; typename</text>
<text text-anchor="start" x="228.5" y="-256.1" font-family="Helvetica,sans-Serif" font-size="8.00"> Channel_open_result</text>
<text text-anchor="middle" x="276.5" y="-247.1" font-family="Helvetica,sans-Serif" font-size="8.00">::Ptr &gt;</text>
</a>
</g>
</g>
<!-- Node15&#45;&gt;Node2 -->
<g id="edge14" class="edge">
<title>Node15&#45;&gt;Node2</title>
<path fill="none" stroke="#9a32cd" stroke-dasharray="5,2" d="M342.66,-267.99C389.57,-275.18 451.91,-284.73 494.94,-291.33"/>
<polygon fill="#9a32cd" stroke="#9a32cd" points="343.02,-264.5 332.6,-266.45 341.96,-271.42 343.02,-264.5"/>
<text text-anchor="middle" x="417.5" y="-288.6" font-family="Helvetica,sans-Serif" font-size="8.00"> m_target_channel_open_q</text>
</g>
<!-- Node16 -->
<g id="node16" class="node">
<title>Node16</title>
<g id="a_node16"><a xlink:title=" ">
<polygon fill="white" stroke="#bfbfbf" points="36,-249.5 36,-266.5 65,-266.5 65,-249.5 36,-249.5"/>
<text text-anchor="middle" x="50.5" y="-256.1" font-family="Helvetica,sans-Serif" font-size="8.00">Ptr</text>
</a>
</g>
</g>
<!-- Node16&#45;&gt;Node15 -->
<g id="edge15" class="edge">
<title>Node16&#45;&gt;Node15</title>
<path fill="none" stroke="#9a32cd" stroke-dasharray="5,2" d="M75.18,-258C109.42,-258 173.77,-258 220.32,-258"/>
<polygon fill="#9a32cd" stroke="#9a32cd" points="75.18,-254.5 65.18,-258 75.17,-261.5 75.18,-254.5"/>
<text text-anchor="middle" x="154.5" y="-260.6" font-family="Helvetica,sans-Serif" font-size="8.00"> elements</text>
</g>
<!-- Node17 -->
<g id="node17" class="node">
<title>Node17</title>
<g id="a_node17"><a xlink:title=" ">
<polygon fill="white" stroke="#bfbfbf" points="226,-204.5 226,-221.5 327,-221.5 327,-204.5 226,-204.5"/>
<text text-anchor="middle" x="276.5" y="-211.1" font-family="Helvetica,sans-Serif" font-size="8.00">Mutex_non_recursive</text>
</a>
</g>
</g>
<!-- Node17&#45;&gt;Node2 -->
<g id="edge16" class="edge">
<title>Node17&#45;&gt;Node2</title>
<path fill="none" stroke="#9a32cd" stroke-dasharray="5,2" d="M337.06,-217.54C376.53,-222.1 428.79,-231.15 472,-249 491.17,-256.92 510.42,-270.39 524.34,-281.36"/>
<polygon fill="#9a32cd" stroke="#9a32cd" points="337.38,-214.06 327.06,-216.45 336.62,-221.02 337.38,-214.06"/>
<text text-anchor="start" x="367.5" y="-260.6" font-family="Helvetica,sans-Serif" font-size="8.00"> m_target_channel_open</text>
<text text-anchor="middle" x="417.5" y="-251.6" font-family="Helvetica,sans-Serif" font-size="8.00">_q_mutex</text>
</g>
<!-- Node18 -->
<g id="node18" class="node">
<title>Node18</title>
<g id="a_node18"><a xlink:title=" ">
<polygon fill="white" stroke="#bfbfbf" points="496.5,-0.5 496.5,-17.5 595.5,-17.5 595.5,-0.5 496.5,-0.5"/>
<text text-anchor="middle" x="546" y="-7.1" font-family="Helvetica,sans-Serif" font-size="8.00">boost::noncopyable</text>
</a>
</g>
</g>
<!-- Node18&#45;&gt;Node1 -->
<g id="edge17" class="edge">
<title>Node18&#45;&gt;Node1</title>
<path fill="none" stroke="#8b1a1a" d="M592.76,-21.33C603.08,-25.84 613.26,-31.91 621,-40 667.41,-88.5 682.91,-171.18 687.62,-207.27"/>
<polygon fill="#8b1a1a" stroke="#8b1a1a" points="593.9,-18.01 583.31,-17.6 591.33,-24.53 593.9,-18.01"/>
</g>
</g>
</svg>
