<?xml version="1.0" encoding="UTF-8" standalone="no"?>
<!DOCTYPE svg PUBLIC "-//W3C//DTD SVG 1.1//EN"
 "http://www.w3.org/Graphics/SVG/1.1/DTD/svg11.dtd">
<!-- Generated by graphviz version 2.43.0 (0)
 -->
<!-- Title: ipc::transport::asio_local_stream_socket::Opt_peer_process_credentials::size Pages: 1 -->
<svg width="356pt" height="53pt"
 viewBox="0.00 0.00 356.00 53.00" xmlns="http://www.w3.org/2000/svg" xmlns:xlink="http://www.w3.org/1999/xlink">
<g id="graph0" class="graph" transform="scale(1 1) rotate(0) translate(4 49)">
<title>ipc::transport::asio_local_stream_socket::Opt_peer_process_credentials::size</title>
<polygon fill="white" stroke="transparent" points="-4,4 -4,-49 352,-49 352,4 -4,4"/>
<!-- Node1 -->
<g id="node1" class="node">
<title>Node1</title>
<g id="a_node1"><a xlink:title="For internal boost.asio use, to enable Peer_socket::get_option(Opt_peer_process_credentials&amp;) to work...">
<polygon fill="#bfbfbf" stroke="black" points="181,-5 181,-40 348,-40 348,-5 181,-5"/>
<text text-anchor="start" x="189" y="-29.6" font-family="Helvetica,sans-Serif" font-size="8.00">ipc::transport::asio</text>
<text text-anchor="start" x="189" y="-20.6" font-family="Helvetica,sans-Serif" font-size="8.00">_local_stream_socket</text>
<text text-anchor="middle" x="264.5" y="-11.6" font-family="Helvetica,sans-Serif" font-size="8.00">::Opt_peer_process_credentials::size</text>
</a>
</g>
</g>
<!-- Node2 -->
<g id="node2" class="node">
<title>Node2</title>
<g id="a_node2"><a xlink:href="classipc_1_1transport_1_1asio__local__stream__socket_1_1Opt__peer__process__credentials.html#aba66a960ea9efda481692f64cdf22466" target="_top" xlink:title="For internal boost.asio use, to enable Peer_socket::get_option(Opt_peer_process_credentials&amp;) to work...">
<polygon fill="white" stroke="black" points="0,-0.5 0,-44.5 145,-44.5 145,-0.5 0,-0.5"/>
<text text-anchor="start" x="8" y="-34.1" font-family="Helvetica,sans-Serif" font-size="8.00">ipc::transport::asio</text>
<text text-anchor="start" x="8" y="-25.1" font-family="Helvetica,sans-Serif" font-size="8.00">_local_stream_socket</text>
<text text-anchor="start" x="8" y="-16.1" font-family="Helvetica,sans-Serif" font-size="8.00">::Opt_peer_process_credentials</text>
<text text-anchor="middle" x="72.5" y="-7.1" font-family="Helvetica,sans-Serif" font-size="8.00">::resize</text>
</a>
</g>
</g>
<!-- Node1&#45;&gt;Node2 -->
<g id="edge1" class="edge">
<title>Node1&#45;&gt;Node2</title>
<path fill="none" stroke="midnightblue" d="M170.89,-22.5C162.26,-22.5 153.6,-22.5 145.21,-22.5"/>
<polygon fill="midnightblue" stroke="midnightblue" points="170.99,-26 180.99,-22.5 170.99,-19 170.99,-26"/>
</g>
</g>
</svg>
