<?xml version="1.0" encoding="UTF-8" standalone="no"?>
<!DOCTYPE svg PUBLIC "-//W3C//DTD SVG 1.1//EN"
 "http://www.w3.org/Graphics/SVG/1.1/DTD/svg11.dtd">
<!-- Generated by graphviz version 2.43.0 (0)
 -->
<!-- Title: ipc::util::Use_counted_object Pages: 1 -->
<svg width="118pt" height="98pt"
 viewBox="0.00 0.00 117.50 98.00" xmlns="http://www.w3.org/2000/svg" xmlns:xlink="http://www.w3.org/1999/xlink">
<g id="graph0" class="graph" transform="scale(1 1) rotate(0) translate(4 94)">
<title>ipc::util::Use_counted_object</title>
<polygon fill="white" stroke="transparent" points="-4,4 -4,-94 113.5,-94 113.5,4 -4,4"/>
<!-- Node1 -->
<g id="node1" class="node">
<title>Node1</title>
<g id="a_node1"><a xlink:title="Simple counter that manually tracks utilization. It is not thread&#45;safe.">
<polygon fill="#bfbfbf" stroke="black" points="0,-0.5 0,-26.5 107,-26.5 107,-0.5 0,-0.5"/>
<text text-anchor="start" x="8" y="-16.1" font-family="Helvetica,sans-Serif" font-size="8.00">ipc::util::Use_counted</text>
<text text-anchor="middle" x="53.5" y="-7.1" font-family="Helvetica,sans-Serif" font-size="8.00">_object</text>
</a>
</g>
</g>
<!-- Node2 -->
<g id="node2" class="node">
<title>Node2</title>
<g id="a_node2"><a xlink:title=" ">
<polygon fill="white" stroke="#bfbfbf" points="39,-72.5 39,-89.5 68,-89.5 68,-72.5 39,-72.5"/>
<text text-anchor="middle" x="53.5" y="-79.1" font-family="Helvetica,sans-Serif" font-size="8.00">int</text>
</a>
</g>
</g>
<!-- Node2&#45;&gt;Node1 -->
<g id="edge1" class="edge">
<title>Node2&#45;&gt;Node1</title>
<path fill="none" stroke="#9a32cd" stroke-dasharray="5,2" d="M53.5,-62.18C53.5,-50.97 53.5,-36.8 53.5,-26.82"/>
<polygon fill="#9a32cd" stroke="#9a32cd" points="50,-62.49 53.5,-72.49 57,-62.49 50,-62.49"/>
<text text-anchor="middle" x="81.5" y="-47.6" font-family="Helvetica,sans-Serif" font-size="8.00"> m_use_count</text>
</g>
</g>
</svg>
