<?xml version="1.0" encoding="UTF-8" standalone="no"?>
<!DOCTYPE svg PUBLIC "-//W3C//DTD SVG 1.1//EN"
 "http://www.w3.org/Graphics/SVG/1.1/DTD/svg11.dtd">
<!-- Generated by graphviz version 2.43.0 (0)
 -->
<!-- Title: Session_impl_t Pages: 1 -->
<svg width="238pt" height="108pt"
 viewBox="0.00 0.00 238.00 107.50" xmlns="http://www.w3.org/2000/svg" xmlns:xlink="http://www.w3.org/1999/xlink">
<g id="graph0" class="graph" transform="scale(1 1) rotate(0) translate(4 103.5)">
<title>Session_impl_t</title>
<polygon fill="white" stroke="transparent" points="-4,4 -4,-103.5 234,-103.5 234,4 -4,4"/>
<!-- Node1 -->
<g id="node1" class="node">
<title>Node1</title>
<g id="a_node1"><a xlink:title=" ">
<polygon fill="#bfbfbf" stroke="black" points="0,-38.5 0,-55.5 77,-55.5 77,-38.5 0,-38.5"/>
<text text-anchor="middle" x="38.5" y="-45.1" font-family="Helvetica,sans-Serif" font-size="8.00">Session_impl_t</text>
</a>
</g>
</g>
<!-- Node2 -->
<g id="node2" class="node">
<title>Node2</title>
<g id="a_node2"><a xlink:href="classipc_1_1session_1_1shm_1_1arena__lend_1_1jemalloc_1_1Session__impl.html" target="_top" xlink:title="Common data and logic for shm::arena_lend::jemalloc::Server_session_impl and shm::arena_lend::jemallo...">
<polygon fill="white" stroke="black" points="113,-55 113,-99 230,-99 230,-55 113,-55"/>
<text text-anchor="start" x="121" y="-88.6" font-family="Helvetica,sans-Serif" font-size="8.00">ipc::session::shm::</text>
<text text-anchor="start" x="121" y="-79.6" font-family="Helvetica,sans-Serif" font-size="8.00">arena_lend::jemalloc</text>
<text text-anchor="start" x="121" y="-70.6" font-family="Helvetica,sans-Serif" font-size="8.00">::Session_impl&lt; Session</text>
<text text-anchor="middle" x="171.5" y="-61.6" font-family="Helvetica,sans-Serif" font-size="8.00">_impl_t &gt;</text>
</a>
</g>
</g>
<!-- Node1&#45;&gt;Node2 -->
<g id="edge1" class="edge">
<title>Node1&#45;&gt;Node2</title>
<path fill="none" stroke="midnightblue" d="M86.7,-57.81C95.12,-59.74 103.97,-61.76 112.65,-63.75"/>
<polygon fill="midnightblue" stroke="midnightblue" points="87.22,-54.34 76.69,-55.52 85.66,-61.16 87.22,-54.34"/>
</g>
<!-- Node3 -->
<g id="node3" class="node">
<title>Node3</title>
<g id="a_node3"><a xlink:href="classipc_1_1session_1_1shm_1_1classic_1_1Session__impl.html" target="_top" xlink:title="Common data and logic for shm::classic::Server_session_impl and shm::classic::Client_session_impl.">
<polygon fill="white" stroke="black" points="119.5,-0.5 119.5,-35.5 223.5,-35.5 223.5,-0.5 119.5,-0.5"/>
<text text-anchor="start" x="127.5" y="-25.1" font-family="Helvetica,sans-Serif" font-size="8.00">ipc::session::shm::</text>
<text text-anchor="start" x="127.5" y="-16.1" font-family="Helvetica,sans-Serif" font-size="8.00">classic::Session_impl</text>
<text text-anchor="middle" x="171.5" y="-7.1" font-family="Helvetica,sans-Serif" font-size="8.00">&lt; Session_impl_t &gt;</text>
</a>
</g>
</g>
<!-- Node1&#45;&gt;Node3 -->
<g id="edge2" class="edge">
<title>Node1&#45;&gt;Node3</title>
<path fill="none" stroke="midnightblue" d="M86.88,-36.51C97.41,-34.18 108.61,-31.7 119.28,-29.34"/>
<polygon fill="midnightblue" stroke="midnightblue" points="86.05,-33.11 77.04,-38.69 87.56,-39.95 86.05,-33.11"/>
</g>
</g>
</svg>
