<?xml version="1.0" encoding="UTF-8" standalone="no"?>
<!DOCTYPE svg PUBLIC "-//W3C//DTD SVG 1.1//EN"
 "http://www.w3.org/Graphics/SVG/1.1/DTD/svg11.dtd">
<!-- Generated by graphviz version 2.43.0 (0)
 -->
<!-- Title: ipc::transport::sync_io::Native_socket_stream::Impl::start_send_blob_ops Pages: 1 -->
<svg width="664pt" height="53pt"
 viewBox="0.00 0.00 664.00 53.00" xmlns="http://www.w3.org/2000/svg" xmlns:xlink="http://www.w3.org/1999/xlink">
<g id="graph0" class="graph" transform="scale(1 1) rotate(0) translate(4 49)">
<title>ipc::transport::sync_io::Native_socket_stream::Impl::start_send_blob_ops</title>
<polygon fill="white" stroke="transparent" points="-4,4 -4,-49 660,-49 660,4 -4,4"/>
<!-- Node1 -->
<g id="node1" class="node">
<title>Node1</title>
<g id="a_node1"><a xlink:title="See Native_socket_stream counterpart.">
<polygon fill="#bfbfbf" stroke="black" points="0,-5 0,-40 129,-40 129,-5 0,-5"/>
<text text-anchor="start" x="8" y="-29.6" font-family="Helvetica,sans-Serif" font-size="8.00">ipc::transport::sync</text>
<text text-anchor="start" x="8" y="-20.6" font-family="Helvetica,sans-Serif" font-size="8.00">_io::Native_socket_stream</text>
<text text-anchor="middle" x="64.5" y="-11.6" font-family="Helvetica,sans-Serif" font-size="8.00">::Impl::start_send_blob_ops</text>
</a>
</g>
</g>
<!-- Node2 -->
<g id="node2" class="node">
<title>Node2</title>
<g id="a_node2"><a xlink:href="classipc_1_1transport_1_1sync__io_1_1Native__socket__stream.html#a2bd0b6a8badd0b770917bb9df9ad6093" target="_top" xlink:title="Implements Native_handle_sender API per contract.">
<polygon fill="white" stroke="black" points="165,-5 165,-40 311,-40 311,-5 165,-5"/>
<text text-anchor="start" x="173" y="-29.6" font-family="Helvetica,sans-Serif" font-size="8.00">ipc::transport::sync</text>
<text text-anchor="start" x="173" y="-20.6" font-family="Helvetica,sans-Serif" font-size="8.00">_io::Native_socket_stream</text>
<text text-anchor="middle" x="238" y="-11.6" font-family="Helvetica,sans-Serif" font-size="8.00">::start_send_native_handle_ops</text>
</a>
</g>
</g>
<!-- Node1&#45;&gt;Node2 -->
<g id="edge1" class="edge">
<title>Node1&#45;&gt;Node2</title>
<path fill="none" stroke="midnightblue" d="M129.36,-22.5C137.55,-22.5 146.03,-22.5 154.47,-22.5"/>
<polygon fill="midnightblue" stroke="midnightblue" points="154.72,-26 164.72,-22.5 154.72,-19 154.72,-26"/>
</g>
<!-- Node3 -->
<g id="node3" class="node">
<title>Node3</title>
<g id="a_node3"><a xlink:href="classipc_1_1transport_1_1sync__io_1_1Native__socket__stream.html#aa4cc1d2afc33e2c713ce585689c8f745" target="_top" xlink:title="Template&#45;free version of start_send_native_handle_ops() as required by pImpl idiom.">
<polygon fill="white" stroke="black" points="347,-0.5 347,-44.5 474,-44.5 474,-0.5 347,-0.5"/>
<text text-anchor="start" x="355" y="-34.1" font-family="Helvetica,sans-Serif" font-size="8.00">ipc::transport::sync</text>
<text text-anchor="start" x="355" y="-25.1" font-family="Helvetica,sans-Serif" font-size="8.00">_io::Native_socket_stream</text>
<text text-anchor="start" x="355" y="-16.1" font-family="Helvetica,sans-Serif" font-size="8.00">::start_send_native_handle</text>
<text text-anchor="middle" x="410.5" y="-7.1" font-family="Helvetica,sans-Serif" font-size="8.00">_ops_fwd</text>
</a>
</g>
</g>
<!-- Node2&#45;&gt;Node3 -->
<g id="edge2" class="edge">
<title>Node2&#45;&gt;Node3</title>
<path fill="none" stroke="midnightblue" d="M311.31,-22.5C319.7,-22.5 328.26,-22.5 336.65,-22.5"/>
<polygon fill="midnightblue" stroke="midnightblue" points="336.79,-26 346.79,-22.5 336.79,-19 336.79,-26"/>
</g>
<!-- Node4 -->
<g id="node4" class="node">
<title>Node4</title>
<g id="a_node4"><a xlink:href="classipc_1_1transport_1_1sync__io_1_1Native__socket__stream.html#a8e3703d5c8bac62f828a372691249c85" target="_top" xlink:title="Helper that simply returns m_impl while guaranteeing that m_impl is non&#45;null upon return.">
<polygon fill="white" stroke="black" points="510,-9.5 510,-35.5 656,-35.5 656,-9.5 510,-9.5"/>
<text text-anchor="start" x="518" y="-25.1" font-family="Helvetica,sans-Serif" font-size="8.00">ipc::transport::sync</text>
<text text-anchor="middle" x="583" y="-16.1" font-family="Helvetica,sans-Serif" font-size="8.00">_io::Native_socket_stream::impl</text>
</a>
</g>
</g>
<!-- Node3&#45;&gt;Node4 -->
<g id="edge3" class="edge">
<title>Node3&#45;&gt;Node4</title>
<path fill="none" stroke="midnightblue" d="M474.02,-22.5C482.42,-22.5 491.14,-22.5 499.82,-22.5"/>
<polygon fill="midnightblue" stroke="midnightblue" points="499.96,-26 509.96,-22.5 499.96,-19 499.96,-26"/>
</g>
</g>
</svg>
