<?xml version="1.0" encoding="UTF-8" standalone="no"?>
<!DOCTYPE svg PUBLIC "-//W3C//DTD SVG 1.1//EN"
 "http://www.w3.org/Graphics/SVG/1.1/DTD/svg11.dtd">
<!-- Generated by graphviz version 2.43.0 (0)
 -->
<!-- Title: ipc::session::shm::classic::Session_server::Session_server Pages: 1 -->
<svg width="738pt" height="145pt"
 viewBox="0.00 0.00 738.00 144.50" xmlns="http://www.w3.org/2000/svg" xmlns:xlink="http://www.w3.org/1999/xlink">
<g id="graph0" class="graph" transform="scale(1 1) rotate(0) translate(4 140.5)">
<title>ipc::session::shm::classic::Session_server::Session_server</title>
<polygon fill="white" stroke="transparent" points="-4,4 -4,-140.5 734,-140.5 734,4 -4,4"/>
<!-- Node1 -->
<g id="node1" class="node">
<title>Node1</title>
<g id="a_node1"><a xlink:title="Constructor: identical to session::Session_server ctor.">
<polygon fill="#bfbfbf" stroke="black" points="0,-37 0,-72 112,-72 112,-37 0,-37"/>
<text text-anchor="start" x="8" y="-61.6" font-family="Helvetica,sans-Serif" font-size="8.00">ipc::session::shm::</text>
<text text-anchor="start" x="8" y="-52.6" font-family="Helvetica,sans-Serif" font-size="8.00">classic::Session_server</text>
<text text-anchor="middle" x="56" y="-43.6" font-family="Helvetica,sans-Serif" font-size="8.00">::Session_server</text>
</a>
</g>
</g>
<!-- Node2 -->
<g id="node2" class="node">
<title>Node2</title>
<g id="a_node2"><a xlink:href="classipc_1_1session_1_1shm_1_1classic_1_1Session__server.html#a406e3860e68d2e863e64215aae43812e" target="_top" xlink:title="Implementation of our per_app_setup_func() customization point used in the ctor impl: invoked from an...">
<polygon fill="white" stroke="black" points="148,-37 148,-72 273,-72 273,-37 148,-37"/>
<text text-anchor="start" x="156" y="-61.6" font-family="Helvetica,sans-Serif" font-size="8.00">ipc::session::shm::</text>
<text text-anchor="start" x="156" y="-52.6" font-family="Helvetica,sans-Serif" font-size="8.00">classic::Session_server</text>
<text text-anchor="middle" x="210.5" y="-43.6" font-family="Helvetica,sans-Serif" font-size="8.00">::init_app_shm_as_needed</text>
</a>
</g>
</g>
<!-- Node1&#45;&gt;Node2 -->
<g id="edge1" class="edge">
<title>Node1&#45;&gt;Node2</title>
<path fill="none" stroke="midnightblue" d="M112.06,-54.5C120.4,-54.5 129.1,-54.5 137.73,-54.5"/>
<polygon fill="midnightblue" stroke="midnightblue" points="137.8,-58 147.8,-54.5 137.8,-51 137.8,-58"/>
</g>
<!-- Node3 -->
<g id="node3" class="node">
<title>Node3</title>
<g id="a_node3"><a xlink:href="namespaceipc_1_1session.html#a365d2d63f77b738e67e206af6b702634" target="_top" xlink:title="Builds an absolute name according to the path convention explained in Shared_name class doc header; t...">
<polygon fill="white" stroke="black" points="309,-82.5 309,-108.5 442,-108.5 442,-82.5 309,-82.5"/>
<text text-anchor="start" x="317" y="-98.1" font-family="Helvetica,sans-Serif" font-size="8.00">ipc::session::build</text>
<text text-anchor="middle" x="375.5" y="-89.1" font-family="Helvetica,sans-Serif" font-size="8.00">_conventional_shared_name</text>
</a>
</g>
</g>
<!-- Node2&#45;&gt;Node3 -->
<g id="edge2" class="edge">
<title>Node2&#45;&gt;Node3</title>
<path fill="none" stroke="midnightblue" d="M273.12,-70C286.13,-73.27 299.85,-76.72 312.85,-79.99"/>
<polygon fill="midnightblue" stroke="midnightblue" points="312.08,-83.41 322.63,-82.45 313.79,-76.62 312.08,-83.41"/>
</g>
<!-- Node6 -->
<g id="node6" class="node">
<title>Node6</title>
<g id="a_node6"><a xlink:href="classipc_1_1util_1_1Shared__name.html#a48f20b7b54490aa10dc64081d34c55b2" target="_top" xlink:title="Copy&#45;constructs from a char&#45;sequence container (including string, util::String_view,...">
<polygon fill="white" stroke="black" points="314,-46 314,-63 437,-63 437,-46 314,-46"/>
<text text-anchor="middle" x="375.5" y="-52.6" font-family="Helvetica,sans-Serif" font-size="8.00">ipc::util::Shared_name::ct</text>
</a>
</g>
</g>
<!-- Node2&#45;&gt;Node6 -->
<g id="edge6" class="edge">
<title>Node2&#45;&gt;Node6</title>
<path fill="none" stroke="midnightblue" d="M273.12,-54.5C283.13,-54.5 293.56,-54.5 303.77,-54.5"/>
<polygon fill="midnightblue" stroke="midnightblue" points="303.87,-58 313.87,-54.5 303.87,-51 303.87,-58"/>
</g>
<!-- Node7 -->
<g id="node7" class="node">
<title>Node7</title>
<g id="a_node7"><a xlink:href="namespaceipc_1_1util.html#abda2ce5bcdbc26ca63d667b87818439c" target="_top" xlink:title="Maps general Permissions_level specifier to low&#45;level Permissions value, when the underlying resource...">
<polygon fill="white" stroke="black" points="314.5,-0.5 314.5,-26.5 436.5,-26.5 436.5,-0.5 314.5,-0.5"/>
<text text-anchor="start" x="322.5" y="-16.1" font-family="Helvetica,sans-Serif" font-size="8.00">ipc::util::shared_resource</text>
<text text-anchor="middle" x="375.5" y="-7.1" font-family="Helvetica,sans-Serif" font-size="8.00">_permissions</text>
</a>
</g>
</g>
<!-- Node2&#45;&gt;Node7 -->
<g id="edge7" class="edge">
<title>Node2&#45;&gt;Node7</title>
<path fill="none" stroke="midnightblue" d="M273.12,-39C286.13,-35.73 299.85,-32.28 312.85,-29.01"/>
<polygon fill="midnightblue" stroke="midnightblue" points="313.79,-32.38 322.63,-26.55 312.08,-25.59 313.79,-32.38"/>
</g>
<!-- Node4 -->
<g id="node4" class="node">
<title>Node4</title>
<g id="a_node4"><a xlink:href="namespaceipc_1_1session.html#a5216d618bb573e68276d2933ce3f4010" target="_top" xlink:title="Return the prefix common to all calls to either build_conventional_shared_name() overload with the ar...">
<polygon fill="white" stroke="black" points="478,-101 478,-136 584,-136 584,-101 478,-101"/>
<text text-anchor="start" x="486" y="-125.6" font-family="Helvetica,sans-Serif" font-size="8.00">ipc::session::build</text>
<text text-anchor="start" x="486" y="-116.6" font-family="Helvetica,sans-Serif" font-size="8.00">_conventional_shared</text>
<text text-anchor="middle" x="531" y="-107.6" font-family="Helvetica,sans-Serif" font-size="8.00">_name_prefix</text>
</a>
</g>
</g>
<!-- Node3&#45;&gt;Node4 -->
<g id="edge3" class="edge">
<title>Node3&#45;&gt;Node4</title>
<path fill="none" stroke="midnightblue" d="M442.04,-105.32C450.5,-106.59 459.14,-107.88 467.55,-109.14"/>
<polygon fill="midnightblue" stroke="midnightblue" points="467.25,-112.64 477.66,-110.66 468.29,-105.71 467.25,-112.64"/>
</g>
<!-- Node5 -->
<g id="node5" class="node">
<title>Node5</title>
<g id="a_node5"><a xlink:href="classipc_1_1util_1_1Shared__name.html#a861ea6c9ad6672e83bab5c7747b66f7b" target="_top" xlink:title="Returns true if and only if str().empty() == true.">
<polygon fill="white" stroke="black" points="620,-82.5 620,-108.5 730,-108.5 730,-82.5 620,-82.5"/>
<text text-anchor="start" x="628" y="-98.1" font-family="Helvetica,sans-Serif" font-size="8.00">ipc::util::Shared_name</text>
<text text-anchor="middle" x="675" y="-89.1" font-family="Helvetica,sans-Serif" font-size="8.00">::empty</text>
</a>
</g>
</g>
<!-- Node3&#45;&gt;Node5 -->
<g id="edge5" class="edge">
<title>Node3&#45;&gt;Node5</title>
<path fill="none" stroke="midnightblue" d="M442.01,-92.54C453.98,-92.11 466.36,-91.73 478,-91.5 525.1,-90.57 536.9,-90.45 584,-91.5 592.32,-91.68 601.06,-91.97 609.7,-92.29"/>
<polygon fill="midnightblue" stroke="midnightblue" points="609.63,-95.79 619.76,-92.7 609.91,-88.8 609.63,-95.79"/>
</g>
<!-- Node4&#45;&gt;Node5 -->
<g id="edge4" class="edge">
<title>Node4&#45;&gt;Node5</title>
<path fill="none" stroke="midnightblue" d="M584.07,-110.07C592.38,-108.72 601.05,-107.32 609.6,-105.93"/>
<polygon fill="midnightblue" stroke="midnightblue" points="610.24,-109.37 619.55,-104.32 609.12,-102.46 610.24,-109.37"/>
</g>
</g>
</svg>
