<?xml version="1.0" encoding="UTF-8" standalone="no"?>
<!DOCTYPE svg PUBLIC "-//W3C//DTD SVG 1.1//EN"
 "http://www.w3.org/Graphics/SVG/1.1/DTD/svg11.dtd">
<!-- Generated by graphviz version 2.43.0 (0)
 -->
<!-- Title: ipc::transport::sync_io::Async_adapter_receiver&lt; Core_t &gt; Pages: 1 -->
<svg width="593pt" height="298pt"
 viewBox="0.00 0.00 593.00 298.00" xmlns="http://www.w3.org/2000/svg" xmlns:xlink="http://www.w3.org/1999/xlink">
<g id="graph0" class="graph" transform="scale(1 1) rotate(0) translate(4 294)">
<title>ipc::transport::sync_io::Async_adapter_receiver&lt; Core_t &gt;</title>
<polygon fill="white" stroke="transparent" points="-4,4 -4,-294 589,-294 589,4 -4,4"/>
<!-- Node1 -->
<g id="node1" class="node">
<title>Node1</title>
<g id="a_node1"><a xlink:title="Internal&#45;use type that adapts a given PEER&#45;state sync_io::Native_handle_receiver or sync_io::Blob_rec...">
<polygon fill="#bfbfbf" stroke="black" points="454,-138.5 454,-173.5 585,-173.5 585,-138.5 454,-138.5"/>
<text text-anchor="start" x="462" y="-163.1" font-family="Helvetica,sans-Serif" font-size="8.00">ipc::transport::sync</text>
<text text-anchor="start" x="462" y="-154.1" font-family="Helvetica,sans-Serif" font-size="8.00">_io::Async_adapter_receiver</text>
<text text-anchor="middle" x="519.5" y="-145.1" font-family="Helvetica,sans-Serif" font-size="8.00">&lt; Core_t &gt;</text>
</a>
</g>
</g>
<!-- Node2 -->
<g id="node2" class="node">
<title>Node2</title>
<g id="a_node2"><a xlink:title=" ">
<polygon fill="white" stroke="#bfbfbf" points="180.5,-272.5 180.5,-289.5 287.5,-289.5 287.5,-272.5 180.5,-272.5"/>
<text text-anchor="middle" x="234" y="-279.1" font-family="Helvetica,sans-Serif" font-size="8.00">flow::log::Log_context</text>
</a>
</g>
</g>
<!-- Node2&#45;&gt;Node1 -->
<g id="edge1" class="edge">
<title>Node2&#45;&gt;Node1</title>
<path fill="none" stroke="midnightblue" d="M297.76,-277.24C339.11,-272.57 393.3,-262.17 436,-239 465.64,-222.91 491.53,-192.79 506.07,-173.6"/>
<polygon fill="midnightblue" stroke="midnightblue" points="297.39,-273.76 287.81,-278.28 298.12,-280.72 297.39,-273.76"/>
</g>
<!-- Node3 -->
<g id="node3" class="node">
<title>Node3</title>
<g id="a_node3"><a xlink:title=" ">
<polygon fill="white" stroke="#bfbfbf" points="184.5,-236.5 184.5,-253.5 283.5,-253.5 283.5,-236.5 184.5,-236.5"/>
<text text-anchor="middle" x="234" y="-243.1" font-family="Helvetica,sans-Serif" font-size="8.00">boost::noncopyable</text>
</a>
</g>
</g>
<!-- Node3&#45;&gt;Node1 -->
<g id="edge2" class="edge">
<title>Node3&#45;&gt;Node1</title>
<path fill="none" stroke="#8b1a1a" d="M293.79,-242.05C334.85,-238.4 390.28,-230.24 436,-212 458.99,-202.83 482.04,-186.43 497.91,-173.74"/>
<polygon fill="#8b1a1a" stroke="#8b1a1a" points="293.35,-238.57 283.67,-242.88 293.93,-245.55 293.35,-238.57"/>
</g>
<!-- Node4 -->
<g id="node4" class="node">
<title>Node4</title>
<g id="a_node4"><a xlink:title=" ">
<polygon fill="white" stroke="black" points="204.5,-200.5 204.5,-217.5 263.5,-217.5 263.5,-200.5 204.5,-200.5"/>
<text text-anchor="middle" x="234" y="-207.1" font-family="Helvetica,sans-Serif" font-size="8.00">std::string</text>
</a>
</g>
</g>
<!-- Node4&#45;&gt;Node1 -->
<g id="edge3" class="edge">
<title>Node4&#45;&gt;Node1</title>
<path fill="none" stroke="#9a32cd" stroke-dasharray="5,2" d="M273.54,-205.06C314.22,-200.53 380.05,-192.11 436,-180 444.46,-178.17 453.31,-175.94 461.96,-173.58"/>
<polygon fill="#9a32cd" stroke="#9a32cd" points="273.08,-201.59 263.52,-206.16 273.84,-208.55 273.08,-201.59"/>
<text text-anchor="middle" x="377" y="-201.6" font-family="Helvetica,sans-Serif" font-size="8.00"> m_log_pfx</text>
</g>
<!-- Node5 -->
<g id="node5" class="node">
<title>Node5</title>
<g id="a_node5"><a xlink:title=" ">
<polygon fill="white" stroke="black" points="0,-196 0,-222 91,-222 91,-196 0,-196"/>
<text text-anchor="start" x="8" y="-211.6" font-family="Helvetica,sans-Serif" font-size="8.00">std::basic_string&lt;</text>
<text text-anchor="middle" x="45.5" y="-202.6" font-family="Helvetica,sans-Serif" font-size="8.00"> Char &gt;</text>
</a>
</g>
</g>
<!-- Node5&#45;&gt;Node4 -->
<g id="edge4" class="edge">
<title>Node5&#45;&gt;Node4</title>
<path fill="none" stroke="midnightblue" d="M101.36,-209C135.13,-209 177.02,-209 204.36,-209"/>
<polygon fill="midnightblue" stroke="midnightblue" points="101.17,-205.5 91.17,-209 101.17,-212.5 101.17,-205.5"/>
</g>
<!-- Node6 -->
<g id="node6" class="node">
<title>Node6</title>
<g id="a_node6"><a xlink:title=" ">
<polygon fill="white" stroke="#bfbfbf" points="168,-164.5 168,-181.5 300,-181.5 300,-164.5 168,-164.5"/>
<text text-anchor="middle" x="234" y="-171.1" font-family="Helvetica,sans-Serif" font-size="8.00">unique_ptr&lt; User_request &gt;</text>
</a>
</g>
</g>
<!-- Node6&#45;&gt;Node1 -->
<g id="edge5" class="edge">
<title>Node6&#45;&gt;Node1</title>
<path fill="none" stroke="#9a32cd" stroke-dasharray="5,2" d="M310.27,-168.49C354.96,-165.81 411.06,-162.44 453.76,-159.88"/>
<polygon fill="#9a32cd" stroke="#9a32cd" points="309.81,-165.01 300.04,-169.1 310.23,-171.99 309.81,-165.01"/>
<text text-anchor="middle" x="377" y="-169.6" font-family="Helvetica,sans-Serif" font-size="8.00"> m_user_request</text>
</g>
<!-- Node7 -->
<g id="node7" class="node">
<title>Node7</title>
<g id="a_node7"><a xlink:title=" ">
<polygon fill="white" stroke="black" points="178,-119 178,-145 290,-145 290,-119 178,-119"/>
<text text-anchor="start" x="186" y="-134.6" font-family="Helvetica,sans-Serif" font-size="8.00">std::queue&lt; typename</text>
<text text-anchor="middle" x="234" y="-125.6" font-family="Helvetica,sans-Serif" font-size="8.00"> User_request::Ptr &gt;</text>
</a>
</g>
</g>
<!-- Node7&#45;&gt;Node1 -->
<g id="edge6" class="edge">
<title>Node7&#45;&gt;Node1</title>
<path fill="none" stroke="#9a32cd" stroke-dasharray="5,2" d="M300.05,-136.89C339.41,-139.92 390.61,-143.99 436,-148 441.73,-148.51 447.69,-149.05 453.66,-149.61"/>
<polygon fill="#9a32cd" stroke="#9a32cd" points="300.29,-133.4 290.05,-136.12 299.75,-140.38 300.29,-133.4"/>
<text text-anchor="middle" x="377" y="-150.6" font-family="Helvetica,sans-Serif" font-size="8.00"> m_pending_user_requests_q</text>
</g>
<!-- Node8 -->
<g id="node8" class="node">
<title>Node8</title>
<g id="a_node8"><a xlink:title=" ">
<polygon fill="white" stroke="#bfbfbf" points="31,-123.5 31,-140.5 60,-140.5 60,-123.5 31,-123.5"/>
<text text-anchor="middle" x="45.5" y="-130.1" font-family="Helvetica,sans-Serif" font-size="8.00">Ptr</text>
</a>
</g>
</g>
<!-- Node8&#45;&gt;Node7 -->
<g id="edge7" class="edge">
<title>Node8&#45;&gt;Node7</title>
<path fill="none" stroke="#9a32cd" stroke-dasharray="5,2" d="M70.27,-132C97.23,-132 142.09,-132 177.9,-132"/>
<polygon fill="#9a32cd" stroke="#9a32cd" points="70.21,-128.5 60.21,-132 70.21,-135.5 70.21,-128.5"/>
<text text-anchor="middle" x="129.5" y="-134.6" font-family="Helvetica,sans-Serif" font-size="8.00"> elements</text>
</g>
<!-- Node9 -->
<g id="node9" class="node">
<title>Node9</title>
<g id="a_node9"><a xlink:title=" ">
<polygon fill="white" stroke="#bfbfbf" points="183.5,-82.5 183.5,-99.5 284.5,-99.5 284.5,-82.5 183.5,-82.5"/>
<text text-anchor="middle" x="234" y="-89.1" font-family="Helvetica,sans-Serif" font-size="8.00">Mutex_non_recursive</text>
</a>
</g>
</g>
<!-- Node9&#45;&gt;Node1 -->
<g id="edge8" class="edge">
<title>Node9&#45;&gt;Node1</title>
<path fill="none" stroke="#9a32cd" stroke-dasharray="5,2" d="M294.66,-98.04C334.99,-103.53 389.22,-112.38 436,-125 449.44,-128.63 463.75,-133.59 476.62,-138.49"/>
<polygon fill="#9a32cd" stroke="#9a32cd" points="295.1,-94.56 284.72,-96.71 294.17,-101.5 295.1,-94.56"/>
<text text-anchor="middle" x="377" y="-127.6" font-family="Helvetica,sans-Serif" font-size="8.00"> m_mutex</text>
</g>
<!-- Node10 -->
<g id="node10" class="node">
<title>Node10</title>
<g id="a_node10"><a xlink:title=" ">
<polygon fill="white" stroke="#bfbfbf" points="187,-37 187,-63 281,-63 281,-37 187,-37"/>
<text text-anchor="start" x="195" y="-52.6" font-family="Helvetica,sans-Serif" font-size="8.00">Single_thread_task</text>
<text text-anchor="middle" x="234" y="-43.6" font-family="Helvetica,sans-Serif" font-size="8.00">_loop &amp;</text>
</a>
</g>
</g>
<!-- Node10&#45;&gt;Node1 -->
<g id="edge9" class="edge">
<title>Node10&#45;&gt;Node1</title>
<path fill="none" stroke="#9a32cd" stroke-dasharray="5,2" d="M291.19,-53.98C332.77,-58.6 389.96,-68.57 436,-90 461.44,-101.84 485.94,-123.1 501.54,-138.3"/>
<polygon fill="#9a32cd" stroke="#9a32cd" points="291.54,-50.5 281.23,-52.94 290.82,-57.46 291.54,-50.5"/>
<text text-anchor="middle" x="377" y="-92.6" font-family="Helvetica,sans-Serif" font-size="8.00"> m_worker</text>
</g>
<!-- Node11 -->
<g id="node11" class="node">
<title>Node11</title>
<g id="a_node11"><a xlink:title=" ">
<polygon fill="white" stroke="#bfbfbf" points="212,-0.5 212,-17.5 256,-17.5 256,-0.5 212,-0.5"/>
<text text-anchor="middle" x="234" y="-7.1" font-family="Helvetica,sans-Serif" font-size="8.00">Core &amp;</text>
</a>
</g>
</g>
<!-- Node11&#45;&gt;Node1 -->
<g id="edge10" class="edge">
<title>Node11&#45;&gt;Node1</title>
<path fill="none" stroke="#9a32cd" stroke-dasharray="5,2" d="M266.29,-7.72C308.09,-7.47 383.04,-12.21 436,-45 472.74,-67.75 498.6,-113.39 510.72,-138.48"/>
<polygon fill="#9a32cd" stroke="#9a32cd" points="266.1,-4.23 256.16,-7.89 266.22,-11.23 266.1,-4.23"/>
<text text-anchor="middle" x="377" y="-47.6" font-family="Helvetica,sans-Serif" font-size="8.00"> m_sync_io</text>
</g>
</g>
</svg>
