<?xml version="1.0" encoding="UTF-8" standalone="no"?>
<!DOCTYPE svg PUBLIC "-//W3C//DTD SVG 1.1//EN"
 "http://www.w3.org/Graphics/SVG/1.1/DTD/svg11.dtd">
<!-- Generated by graphviz version 2.43.0 (0)
 -->
<!-- Title: ipc::transport::Posix_mq_handle Pages: 1 -->
<svg width="696pt" height="368pt"
 viewBox="0.00 0.00 696.00 368.00" xmlns="http://www.w3.org/2000/svg" xmlns:xlink="http://www.w3.org/1999/xlink">
<g id="graph0" class="graph" transform="scale(1 1) rotate(0) translate(4 364)">
<title>ipc::transport::Posix_mq_handle</title>
<polygon fill="white" stroke="transparent" points="-4,4 -4,-364 692,-364 692,4 -4,4"/>
<!-- Node1 -->
<g id="node1" class="node">
<title>Node1</title>
<g id="a_node1"><a xlink:title="Implements the Persistent_mq_handle concept by wrapping the POSIX message queue API (see man mq_overv...">
<polygon fill="#bfbfbf" stroke="black" points="589,-119 589,-145 688,-145 688,-119 589,-119"/>
<text text-anchor="start" x="597" y="-134.6" font-family="Helvetica,sans-Serif" font-size="8.00">ipc::transport::Posix</text>
<text text-anchor="middle" x="638.5" y="-125.6" font-family="Helvetica,sans-Serif" font-size="8.00">_mq_handle</text>
</a>
</g>
</g>
<!-- Node2 -->
<g id="node2" class="node">
<title>Node2</title>
<g id="a_node2"><a xlink:title=" ">
<polygon fill="white" stroke="#bfbfbf" points="339.5,-342.5 339.5,-359.5 446.5,-359.5 446.5,-342.5 339.5,-342.5"/>
<text text-anchor="middle" x="393" y="-349.1" font-family="Helvetica,sans-Serif" font-size="8.00">flow::log::Log_context</text>
</a>
</g>
</g>
<!-- Node2&#45;&gt;Node1 -->
<g id="edge1" class="edge">
<title>Node2&#45;&gt;Node1</title>
<path fill="none" stroke="midnightblue" d="M434.59,-339.14C439.52,-337.28 444.43,-335.23 449,-333 507.71,-304.35 526.74,-299.06 571,-251 601.46,-217.92 623.34,-168.4 632.59,-145.06"/>
<polygon fill="midnightblue" stroke="midnightblue" points="433.41,-335.84 425.14,-342.46 435.73,-342.44 433.41,-335.84"/>
</g>
<!-- Node3 -->
<g id="node3" class="node">
<title>Node3</title>
<g id="a_node3"><a xlink:href="classipc_1_1util_1_1Shared__name.html" target="_top" xlink:title="String&#45;wrapping abstraction representing a name uniquely distinguishing a kernel&#45;persistent entity fr...">
<polygon fill="white" stroke="black" points="338,-216.5 338,-233.5 448,-233.5 448,-216.5 338,-216.5"/>
<text text-anchor="middle" x="393" y="-223.1" font-family="Helvetica,sans-Serif" font-size="8.00">ipc::util::Shared_name</text>
</a>
</g>
</g>
<!-- Node3&#45;&gt;Node1 -->
<g id="edge2" class="edge">
<title>Node3&#45;&gt;Node1</title>
<path fill="none" stroke="#9a32cd" stroke-dasharray="5,2" d="M458.51,-230.03C493.56,-230.08 536.62,-225.63 571,-208 598.61,-193.84 619.83,-162.93 630.3,-145.2"/>
<polygon fill="#9a32cd" stroke="#9a32cd" points="458.43,-226.53 448.39,-229.9 458.34,-233.53 458.43,-226.53"/>
<text text-anchor="middle" x="519" y="-240.6" font-family="Helvetica,sans-Serif" font-size="8.00"> S_RESOURCE_TYPE_ID</text>
<text text-anchor="middle" x="519" y="-231.6" font-family="Helvetica,sans-Serif" font-size="8.00">m_absolute_name</text>
</g>
<!-- Node3&#45;&gt;Node3 -->
<g id="edge3" class="edge">
<title>Node3&#45;&gt;Node3</title>
<path fill="none" stroke="#9a32cd" stroke-dasharray="5,2" d="M372.45,-242.86C373.21,-248.02 380.06,-252 393,-252 413.2,-252 418.56,-242.29 409.09,-233.57"/>
<polygon fill="#9a32cd" stroke="#9a32cd" points="375.73,-244.1 376.91,-233.57 369.42,-241.07 375.73,-244.1"/>
<text text-anchor="middle" x="393" y="-317.6" font-family="Helvetica,sans-Serif" font-size="8.00"> S_1ST_OR_ONLY</text>
<text text-anchor="middle" x="393" y="-308.6" font-family="Helvetica,sans-Serif" font-size="8.00">S_EMPTY</text>
<text text-anchor="start" x="354.5" y="-299.6" font-family="Helvetica,sans-Serif" font-size="8.00">S_RESOURCE_TYPE</text>
<text text-anchor="middle" x="393" y="-290.6" font-family="Helvetica,sans-Serif" font-size="8.00">_ID_MUTEX</text>
<text text-anchor="start" x="354.5" y="-281.6" font-family="Helvetica,sans-Serif" font-size="8.00">S_RESOURCE_TYPE</text>
<text text-anchor="middle" x="393" y="-272.6" font-family="Helvetica,sans-Serif" font-size="8.00">_ID_SHM</text>
<text text-anchor="middle" x="393" y="-263.6" font-family="Helvetica,sans-Serif" font-size="8.00">S_ROOT_MAGIC</text>
<text text-anchor="middle" x="393" y="-254.6" font-family="Helvetica,sans-Serif" font-size="8.00">S_SENTINEL</text>
</g>
<!-- Node4 -->
<g id="node4" class="node">
<title>Node4</title>
<g id="a_node4"><a xlink:title=" ">
<polygon fill="white" stroke="#bfbfbf" points="158.5,-252.5 158.5,-269.5 198.5,-269.5 198.5,-252.5 158.5,-252.5"/>
<text text-anchor="middle" x="178.5" y="-259.1" font-family="Helvetica,sans-Serif" font-size="8.00">size_t</text>
</a>
</g>
</g>
<!-- Node4&#45;&gt;Node3 -->
<g id="edge4" class="edge">
<title>Node4&#45;&gt;Node3</title>
<path fill="none" stroke="#9a32cd" stroke-dasharray="5,2" d="M208.94,-256.26C237.18,-251.68 281.03,-244.51 319,-238 327.25,-236.59 336.01,-235.05 344.5,-233.55"/>
<polygon fill="#9a32cd" stroke="#9a32cd" points="208.23,-252.83 198.92,-257.88 209.35,-259.74 208.23,-252.83"/>
<text text-anchor="middle" x="283" y="-251.6" font-family="Helvetica,sans-Serif" font-size="8.00"> S_MAX_LENGTH</text>
</g>
<!-- Node5 -->
<g id="node5" class="node">
<title>Node5</title>
<g id="a_node5"><a xlink:title=" ">
<polygon fill="white" stroke="#bfbfbf" points="136.5,-216.5 136.5,-233.5 220.5,-233.5 220.5,-216.5 136.5,-216.5"/>
<text text-anchor="middle" x="178.5" y="-223.1" font-family="Helvetica,sans-Serif" font-size="8.00">static const char</text>
</a>
</g>
</g>
<!-- Node5&#45;&gt;Node3 -->
<g id="edge5" class="edge">
<title>Node5&#45;&gt;Node3</title>
<path fill="none" stroke="#9a32cd" stroke-dasharray="5,2" d="M230.86,-225C263.15,-225 304.76,-225 337.61,-225"/>
<polygon fill="#9a32cd" stroke="#9a32cd" points="230.72,-221.5 220.72,-225 230.72,-228.5 230.72,-221.5"/>
<text text-anchor="middle" x="283" y="-227.6" font-family="Helvetica,sans-Serif" font-size="8.00"> S_SEPARATOR</text>
</g>
<!-- Node6 -->
<g id="node6" class="node">
<title>Node6</title>
<g id="a_node6"><a xlink:title=" ">
<polygon fill="white" stroke="black" points="149,-180.5 149,-197.5 208,-197.5 208,-180.5 149,-180.5"/>
<text text-anchor="middle" x="178.5" y="-187.1" font-family="Helvetica,sans-Serif" font-size="8.00">std::string</text>
</a>
</g>
</g>
<!-- Node6&#45;&gt;Node3 -->
<g id="edge6" class="edge">
<title>Node6&#45;&gt;Node3</title>
<path fill="none" stroke="#9a32cd" stroke-dasharray="5,2" d="M218.28,-195.26C246.28,-199.81 285,-206.17 319,-212 327.25,-213.41 336.01,-214.95 344.5,-216.45"/>
<polygon fill="#9a32cd" stroke="#9a32cd" points="218.54,-191.75 208.11,-193.61 217.42,-198.66 218.54,-191.75"/>
<text text-anchor="middle" x="283" y="-214.6" font-family="Helvetica,sans-Serif" font-size="8.00"> m_raw_name</text>
</g>
<!-- Node7 -->
<g id="node7" class="node">
<title>Node7</title>
<g id="a_node7"><a xlink:title=" ">
<polygon fill="white" stroke="black" points="0,-176 0,-202 91,-202 91,-176 0,-176"/>
<text text-anchor="start" x="8" y="-191.6" font-family="Helvetica,sans-Serif" font-size="8.00">std::basic_string&lt;</text>
<text text-anchor="middle" x="45.5" y="-182.6" font-family="Helvetica,sans-Serif" font-size="8.00"> Char &gt;</text>
</a>
</g>
</g>
<!-- Node7&#45;&gt;Node6 -->
<g id="edge7" class="edge">
<title>Node7&#45;&gt;Node6</title>
<path fill="none" stroke="midnightblue" d="M101.27,-189C117.68,-189 135,-189 148.98,-189"/>
<polygon fill="midnightblue" stroke="midnightblue" points="101.22,-185.5 91.22,-189 101.22,-192.5 101.22,-185.5"/>
</g>
<!-- Node8 -->
<g id="node8" class="node">
<title>Node8</title>
<g id="a_node8"><a xlink:title=" ">
<polygon fill="white" stroke="#bfbfbf" points="375.5,-173.5 375.5,-190.5 410.5,-190.5 410.5,-173.5 375.5,-173.5"/>
<text text-anchor="middle" x="393" y="-180.1" font-family="Helvetica,sans-Serif" font-size="8.00">bool</text>
</a>
</g>
</g>
<!-- Node8&#45;&gt;Node1 -->
<g id="edge8" class="edge">
<title>Node8&#45;&gt;Node1</title>
<path fill="none" stroke="#9a32cd" stroke-dasharray="5,2" d="M421.28,-180.93C456.43,-179.03 519.17,-173.85 571,-160 584.68,-156.35 599.23,-150.46 611.23,-145.03"/>
<polygon fill="#9a32cd" stroke="#9a32cd" points="420.7,-177.45 410.89,-181.44 421.05,-184.45 420.7,-177.45"/>
<text text-anchor="middle" x="519" y="-197.6" font-family="Helvetica,sans-Serif" font-size="8.00"> S_HAS_NATIVE_HANDLE</text>
<text text-anchor="middle" x="519" y="-188.6" font-family="Helvetica,sans-Serif" font-size="8.00">m_interrupting_rcv</text>
<text text-anchor="middle" x="519" y="-179.6" font-family="Helvetica,sans-Serif" font-size="8.00">m_interrupting_snd</text>
</g>
<!-- Node9 -->
<g id="node9" class="node">
<title>Node9</title>
<g id="a_node9"><a xlink:href="structipc_1_1util_1_1Native__handle.html" target="_top" xlink:title="A monolayer&#45;thin wrapper around a native handle, a/k/a descriptor a/k/a FD.">
<polygon fill="white" stroke="black" points="337,-127.5 337,-144.5 449,-144.5 449,-127.5 337,-127.5"/>
<text text-anchor="middle" x="393" y="-134.1" font-family="Helvetica,sans-Serif" font-size="8.00">ipc::util::Native_handle</text>
</a>
</g>
</g>
<!-- Node9&#45;&gt;Node1 -->
<g id="edge9" class="edge">
<title>Node9&#45;&gt;Node1</title>
<path fill="none" stroke="#9a32cd" stroke-dasharray="5,2" d="M459.22,-133.21C461.85,-133.13 464.45,-133.06 467,-133 508.13,-132.03 554.87,-131.82 588.99,-131.83"/>
<polygon fill="#9a32cd" stroke="#9a32cd" points="458.88,-129.71 449,-133.53 459.11,-136.71 458.88,-129.71"/>
<text text-anchor="middle" x="519" y="-153.6" font-family="Helvetica,sans-Serif" font-size="8.00"> m_epoll_hndl_rcv</text>
<text text-anchor="middle" x="519" y="-144.6" font-family="Helvetica,sans-Serif" font-size="8.00">m_epoll_hndl_snd</text>
<text text-anchor="middle" x="519" y="-135.6" font-family="Helvetica,sans-Serif" font-size="8.00">m_mq</text>
</g>
<!-- Node10 -->
<g id="node10" class="node">
<title>Node10</title>
<g id="a_node10"><a xlink:title=" ">
<polygon fill="white" stroke="#bfbfbf" points="128,-135.5 128,-152.5 229,-152.5 229,-135.5 128,-135.5"/>
<text text-anchor="middle" x="178.5" y="-142.1" font-family="Helvetica,sans-Serif" font-size="8.00">static const handle_t</text>
</a>
</g>
</g>
<!-- Node10&#45;&gt;Node9 -->
<g id="edge10" class="edge">
<title>Node10&#45;&gt;Node9</title>
<path fill="none" stroke="#9a32cd" stroke-dasharray="5,2" d="M239.17,-141.75C269.77,-140.6 306.81,-139.21 336.75,-138.08"/>
<polygon fill="#9a32cd" stroke="#9a32cd" points="238.91,-138.26 229.05,-142.13 239.18,-145.26 238.91,-138.26"/>
<text text-anchor="middle" x="283" y="-143.6" font-family="Helvetica,sans-Serif" font-size="8.00"> S_NULL_HANDLE</text>
</g>
<!-- Node11 -->
<g id="node11" class="node">
<title>Node11</title>
<g id="a_node11"><a xlink:title=" ">
<polygon fill="white" stroke="#bfbfbf" points="164,-99.5 164,-116.5 193,-116.5 193,-99.5 164,-99.5"/>
<text text-anchor="middle" x="178.5" y="-106.1" font-family="Helvetica,sans-Serif" font-size="8.00">int</text>
</a>
</g>
</g>
<!-- Node11&#45;&gt;Node9 -->
<g id="edge11" class="edge">
<title>Node11&#45;&gt;Node9</title>
<path fill="none" stroke="#9a32cd" stroke-dasharray="5,2" d="M203.35,-110.7C231.15,-113.89 278.45,-119.48 319,-125 324.71,-125.78 330.68,-126.62 336.62,-127.49"/>
<polygon fill="#9a32cd" stroke="#9a32cd" points="203.71,-107.22 193.38,-109.56 202.91,-114.17 203.71,-107.22"/>
<text text-anchor="middle" x="283" y="-127.6" font-family="Helvetica,sans-Serif" font-size="8.00"> m_native_handle</text>
</g>
<!-- Node12 -->
<g id="node12" class="node">
<title>Node12</title>
<g id="a_node12"><a xlink:title=" ">
<polygon fill="white" stroke="#bfbfbf" points="359.5,-91.5 359.5,-108.5 426.5,-108.5 426.5,-91.5 359.5,-91.5"/>
<text text-anchor="middle" x="393" y="-98.1" font-family="Helvetica,sans-Serif" font-size="8.00">Task_engine</text>
</a>
</g>
</g>
<!-- Node12&#45;&gt;Node1 -->
<g id="edge12" class="edge">
<title>Node12&#45;&gt;Node1</title>
<path fill="none" stroke="#9a32cd" stroke-dasharray="5,2" d="M436.89,-103.08C472.84,-105.97 525.44,-110.91 571,-118 576.83,-118.91 582.92,-119.99 588.94,-121.16"/>
<polygon fill="#9a32cd" stroke="#9a32cd" points="437,-99.58 426.76,-102.28 436.45,-106.56 437,-99.58"/>
<text text-anchor="middle" x="519" y="-120.6" font-family="Helvetica,sans-Serif" font-size="8.00"> m_nb_task_engine</text>
</g>
<!-- Node13 -->
<g id="node13" class="node">
<title>Node13</title>
<g id="a_node13"><a xlink:title=" ">
<polygon fill="white" stroke="#bfbfbf" points="362.5,-50.5 362.5,-67.5 423.5,-67.5 423.5,-50.5 362.5,-50.5"/>
<text text-anchor="middle" x="393" y="-57.1" font-family="Helvetica,sans-Serif" font-size="8.00">Pipe_writer</text>
</a>
</g>
</g>
<!-- Node13&#45;&gt;Node1 -->
<g id="edge13" class="edge">
<title>Node13&#45;&gt;Node1</title>
<path fill="none" stroke="#9a32cd" stroke-dasharray="5,2" d="M433.98,-58.83C470.83,-59.95 526.4,-64.93 571,-83 591.47,-91.29 611.38,-107.34 623.99,-118.81"/>
<polygon fill="#9a32cd" stroke="#9a32cd" points="433.72,-55.32 423.64,-58.6 433.56,-62.32 433.72,-55.32"/>
<text text-anchor="middle" x="519" y="-94.6" font-family="Helvetica,sans-Serif" font-size="8.00"> m_interrupter_rcv</text>
<text text-anchor="middle" x="519" y="-85.6" font-family="Helvetica,sans-Serif" font-size="8.00">m_interrupter_snd</text>
</g>
<!-- Node14 -->
<g id="node14" class="node">
<title>Node14</title>
<g id="a_node14"><a xlink:title=" ">
<polygon fill="white" stroke="#bfbfbf" points="360.5,-0.5 360.5,-17.5 425.5,-17.5 425.5,-0.5 360.5,-0.5"/>
<text text-anchor="middle" x="393" y="-7.1" font-family="Helvetica,sans-Serif" font-size="8.00">Pipe_reader</text>
</a>
</g>
</g>
<!-- Node14&#45;&gt;Node1 -->
<g id="edge14" class="edge">
<title>Node14&#45;&gt;Node1</title>
<path fill="none" stroke="#9a32cd" stroke-dasharray="5,2" d="M435.93,-4.41C474.01,-2.34 530.27,-4.71 571,-30 604.76,-50.96 624.8,-96.14 633.06,-118.67"/>
<polygon fill="#9a32cd" stroke="#9a32cd" points="435.45,-0.94 425.7,-5.1 435.92,-7.92 435.45,-0.94"/>
<text text-anchor="start" x="467" y="-50.6" font-family="Helvetica,sans-Serif" font-size="8.00"> m_interrupt_detector</text>
<text text-anchor="middle" x="519" y="-41.6" font-family="Helvetica,sans-Serif" font-size="8.00">_rcv</text>
<text text-anchor="middle" x="519" y="-32.6" font-family="Helvetica,sans-Serif" font-size="8.00">m_interrupt_detector_snd</text>
</g>
</g>
</svg>
