<?xml version="1.0" encoding="UTF-8" standalone="no"?>
<!DOCTYPE svg PUBLIC "-//W3C//DTD SVG 1.1//EN"
 "http://www.w3.org/Graphics/SVG/1.1/DTD/svg11.dtd">
<!-- Generated by graphviz version 2.43.0 (0)
 -->
<!-- Title: ipc::transport::Native_socket_stream::end_sending Pages: 1 -->
<svg width="286pt" height="35pt"
 viewBox="0.00 0.00 286.00 35.00" xmlns="http://www.w3.org/2000/svg" xmlns:xlink="http://www.w3.org/1999/xlink">
<g id="graph0" class="graph" transform="scale(1 1) rotate(0) translate(4 31)">
<title>ipc::transport::Native_socket_stream::end_sending</title>
<polygon fill="white" stroke="transparent" points="-4,4 -4,-31 282,-31 282,4 -4,4"/>
<!-- Node1 -->
<g id="node1" class="node">
<title>Node1</title>
<g id="a_node1"><a xlink:title="Implements Native_handle_sender, Blob_sender API per contract.">
<polygon fill="#bfbfbf" stroke="black" points="0,-0.5 0,-26.5 138,-26.5 138,-0.5 0,-0.5"/>
<text text-anchor="start" x="8" y="-16.1" font-family="Helvetica,sans-Serif" font-size="8.00">ipc::transport::Native</text>
<text text-anchor="middle" x="69" y="-7.1" font-family="Helvetica,sans-Serif" font-size="8.00">_socket_stream::end_sending</text>
</a>
</g>
</g>
<!-- Node2 -->
<g id="node2" class="node">
<title>Node2</title>
<g id="a_node2"><a xlink:href="classipc_1_1transport_1_1Native__socket__stream.html#a0d0416ffe729877dad845e88c3609974" target="_top" xlink:title="Helper that simply returns m_impl while guaranteeing that m_impl is non&#45;null upon return.">
<polygon fill="white" stroke="black" points="174,-0.5 174,-26.5 278,-26.5 278,-0.5 174,-0.5"/>
<text text-anchor="start" x="182" y="-16.1" font-family="Helvetica,sans-Serif" font-size="8.00">ipc::transport::Native</text>
<text text-anchor="middle" x="226" y="-7.1" font-family="Helvetica,sans-Serif" font-size="8.00">_socket_stream::impl</text>
</a>
</g>
</g>
<!-- Node1&#45;&gt;Node2 -->
<g id="edge1" class="edge">
<title>Node1&#45;&gt;Node2</title>
<path fill="none" stroke="midnightblue" d="M138.44,-13.5C146.76,-13.5 155.23,-13.5 163.45,-13.5"/>
<polygon fill="midnightblue" stroke="midnightblue" points="163.69,-17 173.69,-13.5 163.69,-10 163.69,-17"/>
</g>
</g>
</svg>
