<?xml version="1.0" encoding="UTF-8" standalone="no"?>
<!DOCTYPE svg PUBLIC "-//W3C//DTD SVG 1.1//EN"
 "http://www.w3.org/Graphics/SVG/1.1/DTD/svg11.dtd">
<!-- Generated by graphviz version 2.43.0 (0)
 -->
<!-- Title: ipc::session::sync_io::Server_session_adapter&lt; Session &gt; Pages: 1 -->
<svg width="740pt" height="513pt"
 viewBox="0.00 0.00 740.00 513.16" xmlns="http://www.w3.org/2000/svg" xmlns:xlink="http://www.w3.org/1999/xlink">
<g id="graph0" class="graph" transform="scale(1 1) rotate(0) translate(4 509.16)">
<title>ipc::session::sync_io::Server_session_adapter&lt; Session &gt;</title>
<polygon fill="white" stroke="transparent" points="-4,4 -4,-509.16 736,-509.16 736,4 -4,4"/>
<!-- Node1 -->
<g id="node1" class="node">
<title>Node1</title>
<g id="a_node1"><a xlink:title="sync_io&#45;pattern counterpart to async&#45;I/O&#45;pattern session::Server_session types and all their SHM&#45;awar...">
<polygon fill="#bfbfbf" stroke="black" points="629,-198.66 629,-233.66 732,-233.66 732,-198.66 629,-198.66"/>
<text text-anchor="start" x="637" y="-223.26" font-family="Helvetica,sans-Serif" font-size="8.00">ipc::session::sync</text>
<text text-anchor="start" x="637" y="-214.26" font-family="Helvetica,sans-Serif" font-size="8.00">_io::Server_session</text>
<text text-anchor="middle" x="680.5" y="-205.26" font-family="Helvetica,sans-Serif" font-size="8.00">_adapter&lt; Session &gt;</text>
</a>
</g>
</g>
<!-- Node2 -->
<g id="node2" class="node">
<title>Node2</title>
<g id="a_node2"><a xlink:href="classipc_1_1session_1_1sync__io_1_1Session__adapter.html" target="_top" xlink:title="Internal&#45;use workhorse containing common elements of Client_session_adapter and Server_session_adapte...">
<polygon fill="white" stroke="black" points="490,-231.66 490,-266.66 592,-266.66 592,-231.66 490,-231.66"/>
<text text-anchor="start" x="498" y="-256.26" font-family="Helvetica,sans-Serif" font-size="8.00">ipc::session::sync</text>
<text text-anchor="start" x="498" y="-247.26" font-family="Helvetica,sans-Serif" font-size="8.00">_io::Session_adapter</text>
<text text-anchor="middle" x="541" y="-238.26" font-family="Helvetica,sans-Serif" font-size="8.00">&lt; Session &gt;</text>
</a>
</g>
</g>
<!-- Node2&#45;&gt;Node1 -->
<g id="edge1" class="edge">
<title>Node2&#45;&gt;Node1</title>
<path fill="none" stroke="#8b1a1a" d="M602.01,-234.76C610.95,-232.61 620.09,-230.42 628.82,-228.33"/>
<polygon fill="#8b1a1a" stroke="#8b1a1a" points="600.94,-231.42 592.03,-237.16 602.57,-238.22 600.94,-231.42"/>
</g>
<!-- Node3 -->
<g id="node3" class="node">
<title>Node3</title>
<g id="a_node3"><a xlink:href="classipc_1_1session_1_1Session.html" target="_top" xlink:title="A documentation&#45;only concept defining the local side of an IPC conversation (session) with another en...">
<polygon fill="white" stroke="black" points="224.5,-465.16 224.5,-491.16 328.5,-491.16 328.5,-465.16 224.5,-465.16"/>
<text text-anchor="start" x="232.5" y="-480.76" font-family="Helvetica,sans-Serif" font-size="8.00">ipc::session::Session</text>
<text text-anchor="middle" x="276.5" y="-471.76" font-family="Helvetica,sans-Serif" font-size="8.00">&lt; Mdt_payload &gt;</text>
</a>
</g>
</g>
<!-- Node3&#45;&gt;Node2 -->
<g id="edge2" class="edge">
<title>Node3&#45;&gt;Node2</title>
<path fill="none" stroke="midnightblue" d="M338.65,-490.28C380.51,-494.95 434.93,-493.42 472,-464.16 534.23,-415.05 540.56,-309.11 540.49,-266.97"/>
<polygon fill="midnightblue" stroke="midnightblue" points="338.93,-486.79 328.57,-489.01 338.05,-493.73 338.93,-486.79"/>
</g>
<!-- Node4 -->
<g id="node4" class="node">
<title>Node4</title>
<g id="a_node4"><a xlink:title=" ">
<polygon fill="white" stroke="#bfbfbf" points="24,-487.66 24,-504.66 77,-504.66 77,-487.66 24,-487.66"/>
<text text-anchor="middle" x="50.5" y="-494.26" font-family="Helvetica,sans-Serif" font-size="8.00">ShmType</text>
</a>
</g>
</g>
<!-- Node4&#45;&gt;Node3 -->
<g id="edge3" class="edge">
<title>Node4&#45;&gt;Node3</title>
<path fill="none" stroke="#9a32cd" stroke-dasharray="5,2" d="M87.51,-493.27C124.54,-490.29 182.55,-485.63 224.33,-482.27"/>
<polygon fill="#9a32cd" stroke="#9a32cd" points="86.88,-489.81 77.2,-494.1 87.44,-496.79 86.88,-489.81"/>
<text text-anchor="middle" x="154.5" y="-492.76" font-family="Helvetica,sans-Serif" font-size="8.00"> S_SHM_TYPE</text>
</g>
<!-- Node5 -->
<g id="node5" class="node">
<title>Node5</title>
<g id="a_node5"><a xlink:title=" ">
<polygon fill="white" stroke="#bfbfbf" points="0,-451.66 0,-468.66 101,-468.66 101,-451.66 0,-451.66"/>
<text text-anchor="middle" x="50.5" y="-458.26" font-family="Helvetica,sans-Serif" font-size="8.00">static constexpr bool</text>
</a>
</g>
</g>
<!-- Node5&#45;&gt;Node3 -->
<g id="edge4" class="edge">
<title>Node5&#45;&gt;Node3</title>
<path fill="none" stroke="#9a32cd" stroke-dasharray="5,2" d="M111.38,-464.97C146.63,-467.81 190.76,-471.35 224.37,-474.05"/>
<polygon fill="#9a32cd" stroke="#9a32cd" points="111.46,-461.47 101.21,-464.16 110.9,-468.45 111.46,-461.47"/>
<text text-anchor="middle" x="154.5" y="-472.76" font-family="Helvetica,sans-Serif" font-size="8.00"> S_SHM_ENABLED</text>
</g>
<!-- Node6 -->
<g id="node6" class="node">
<title>Node6</title>
<g id="a_node6"><a xlink:title=" ">
<polygon fill="white" stroke="#bfbfbf" points="243,-427.66 243,-444.66 310,-444.66 310,-427.66 243,-427.66"/>
<text text-anchor="middle" x="276.5" y="-434.26" font-family="Helvetica,sans-Serif" font-size="8.00">Task_engine</text>
</a>
</g>
</g>
<!-- Node6&#45;&gt;Node2 -->
<g id="edge5" class="edge">
<title>Node6&#45;&gt;Node2</title>
<path fill="none" stroke="#9a32cd" stroke-dasharray="5,2" d="M320.46,-436.28C370.39,-435.57 448.89,-431.6 472,-414.16 520.11,-377.87 534.37,-301.48 538.44,-266.87"/>
<polygon fill="#9a32cd" stroke="#9a32cd" points="320.23,-432.78 310.27,-436.38 320.31,-439.78 320.23,-432.78"/>
<text text-anchor="start" x="368" y="-454.76" font-family="Helvetica,sans-Serif" font-size="8.00"> m_ev_hndl_task_engine</text>
<text text-anchor="middle" x="417.5" y="-445.76" font-family="Helvetica,sans-Serif" font-size="8.00">_unused</text>
<text text-anchor="middle" x="417.5" y="-436.76" font-family="Helvetica,sans-Serif" font-size="8.00">m_nb_task_engine</text>
</g>
<!-- Node7 -->
<g id="node7" class="node">
<title>Node7</title>
<g id="a_node7"><a xlink:title=" ">
<polygon fill="white" stroke="#bfbfbf" points="239,-389.66 239,-406.66 314,-406.66 314,-389.66 239,-389.66"/>
<text text-anchor="middle" x="276.5" y="-396.26" font-family="Helvetica,sans-Serif" font-size="8.00">readable_pipe</text>
</a>
</g>
</g>
<!-- Node7&#45;&gt;Node2 -->
<g id="edge6" class="edge">
<title>Node7&#45;&gt;Node2</title>
<path fill="none" stroke="#9a32cd" stroke-dasharray="5,2" d="M324.32,-396.96C374.06,-394.85 448.69,-389.06 472,-373.16 509.32,-347.71 528.12,-294.79 535.75,-267.03"/>
<polygon fill="#9a32cd" stroke="#9a32cd" points="323.96,-393.47 314.11,-397.35 324.24,-400.46 323.96,-393.47"/>
<text text-anchor="middle" x="417.5" y="-405.76" font-family="Helvetica,sans-Serif" font-size="8.00"> m_ready_reader_chan</text>
<text text-anchor="middle" x="417.5" y="-396.76" font-family="Helvetica,sans-Serif" font-size="8.00">m_ready_reader_err</text>
</g>
<!-- Node8 -->
<g id="node8" class="node">
<title>Node8</title>
<g id="a_node8"><a xlink:title=" ">
<polygon fill="white" stroke="#bfbfbf" points="241,-353.66 241,-370.66 312,-370.66 312,-353.66 241,-353.66"/>
<text text-anchor="middle" x="276.5" y="-360.26" font-family="Helvetica,sans-Serif" font-size="8.00">writable_pipe</text>
</a>
</g>
</g>
<!-- Node8&#45;&gt;Node2 -->
<g id="edge7" class="edge">
<title>Node8&#45;&gt;Node2</title>
<path fill="none" stroke="#9a32cd" stroke-dasharray="5,2" d="M322.15,-358.16C363.22,-352.95 424.74,-341.21 472,-315.16 494.04,-303.01 514.03,-281.81 526.54,-266.72"/>
<polygon fill="#9a32cd" stroke="#9a32cd" points="321.68,-354.69 312.17,-359.35 322.51,-361.64 321.68,-354.69"/>
<text text-anchor="middle" x="417.5" y="-362.76" font-family="Helvetica,sans-Serif" font-size="8.00"> m_ready_writer_chan</text>
<text text-anchor="middle" x="417.5" y="-353.76" font-family="Helvetica,sans-Serif" font-size="8.00">m_ready_writer_err</text>
</g>
<!-- Node9 -->
<g id="node9" class="node">
<title>Node9</title>
<g id="a_node9"><a xlink:href="classipc_1_1util_1_1sync__io_1_1Asio__waitable__native__handle.html" target="_top" xlink:title="Useful if using the sync_io pattern within a user event loop built on boost.asio (optionally with flo...">
<polygon fill="white" stroke="black" points="222.5,-299.66 222.5,-334.66 330.5,-334.66 330.5,-299.66 222.5,-299.66"/>
<text text-anchor="start" x="230.5" y="-324.26" font-family="Helvetica,sans-Serif" font-size="8.00">ipc::util::sync_io</text>
<text text-anchor="start" x="230.5" y="-315.26" font-family="Helvetica,sans-Serif" font-size="8.00">::Asio_waitable_native</text>
<text text-anchor="middle" x="276.5" y="-306.26" font-family="Helvetica,sans-Serif" font-size="8.00">_handle</text>
</a>
</g>
</g>
<!-- Node9&#45;&gt;Node2 -->
<g id="edge8" class="edge">
<title>Node9&#45;&gt;Node2</title>
<path fill="none" stroke="#9a32cd" stroke-dasharray="5,2" d="M340.42,-300.86C386.12,-289.03 447.14,-273.22 489.63,-262.21"/>
<polygon fill="#9a32cd" stroke="#9a32cd" points="339.42,-297.51 330.62,-303.4 341.18,-304.28 339.42,-297.51"/>
<text text-anchor="middle" x="417.5" y="-304.76" font-family="Helvetica,sans-Serif" font-size="8.00"> m_ev_wait_hndl_chan</text>
<text text-anchor="middle" x="417.5" y="-295.76" font-family="Helvetica,sans-Serif" font-size="8.00">m_ev_wait_hndl_err</text>
</g>
<!-- Node10 -->
<g id="node10" class="node">
<title>Node10</title>
<g id="a_node10"><a xlink:title=" ">
<polygon fill="white" stroke="#bfbfbf" points="5,-304.16 5,-330.16 96,-330.16 96,-304.16 5,-304.16"/>
<text text-anchor="start" x="13" y="-319.76" font-family="Helvetica,sans-Serif" font-size="8.00">boost::asio::posix</text>
<text text-anchor="middle" x="50.5" y="-310.76" font-family="Helvetica,sans-Serif" font-size="8.00">::descriptor</text>
</a>
</g>
</g>
<!-- Node10&#45;&gt;Node9 -->
<g id="edge9" class="edge">
<title>Node10&#45;&gt;Node9</title>
<path fill="none" stroke="darkgreen" d="M106.17,-317.16C141.53,-317.16 187.34,-317.16 222.39,-317.16"/>
<polygon fill="darkgreen" stroke="darkgreen" points="106.02,-313.66 96.02,-317.16 106.02,-320.66 106.02,-313.66"/>
</g>
<!-- Node11 -->
<g id="node11" class="node">
<title>Node11</title>
<g id="a_node11"><a xlink:title=" ">
<polygon fill="white" stroke="#bfbfbf" points="215,-218.16 215,-280.16 338,-280.16 338,-218.16 215,-218.16"/>
<text text-anchor="start" x="223" y="-269.76" font-family="Helvetica,sans-Serif" font-size="8.00">Function&lt; void(Asio</text>
<text text-anchor="start" x="223" y="-260.76" font-family="Helvetica,sans-Serif" font-size="8.00">_waitable_native_handle</text>
<text text-anchor="start" x="223" y="-251.76" font-family="Helvetica,sans-Serif" font-size="8.00"> *hndl_of_interest, bool</text>
<text text-anchor="start" x="223" y="-242.76" font-family="Helvetica,sans-Serif" font-size="8.00"> ev_of_interest_snd_else</text>
<text text-anchor="start" x="223" y="-233.76" font-family="Helvetica,sans-Serif" font-size="8.00">_rcv, Task_ptr &amp;&amp;on_active</text>
<text text-anchor="middle" x="276.5" y="-224.76" font-family="Helvetica,sans-Serif" font-size="8.00">_ev_func)&gt;</text>
</a>
</g>
</g>
<!-- Node11&#45;&gt;Node2 -->
<g id="edge10" class="edge">
<title>Node11&#45;&gt;Node2</title>
<path fill="none" stroke="#9a32cd" stroke-dasharray="5,2" d="M348.28,-249.16C393.02,-249.16 449.77,-249.16 489.88,-249.16"/>
<polygon fill="#9a32cd" stroke="#9a32cd" points="348.05,-245.66 338.05,-249.16 348.05,-252.66 348.05,-245.66"/>
<text text-anchor="middle" x="417.5" y="-251.76" font-family="Helvetica,sans-Serif" font-size="8.00"> m_ev_wait_func</text>
</g>
<!-- Node12 -->
<g id="node12" class="node">
<title>Node12</title>
<g id="a_node12"><a xlink:title=" ">
<polygon fill="white" stroke="#bfbfbf" points="241,-181.66 241,-198.66 312,-198.66 312,-181.66 241,-181.66"/>
<text text-anchor="middle" x="276.5" y="-188.26" font-family="Helvetica,sans-Serif" font-size="8.00">Task_asio_err</text>
</a>
</g>
</g>
<!-- Node12&#45;&gt;Node2 -->
<g id="edge11" class="edge">
<title>Node12&#45;&gt;Node2</title>
<path fill="none" stroke="#9a32cd" stroke-dasharray="5,2" d="M321.86,-200.13C368.28,-210.57 441.02,-226.92 489.59,-237.83"/>
<polygon fill="#9a32cd" stroke="#9a32cd" points="322.61,-196.71 312.09,-197.94 321.08,-203.54 322.61,-196.71"/>
<text text-anchor="middle" x="417.5" y="-236.76" font-family="Helvetica,sans-Serif" font-size="8.00"> m_on_err_func</text>
</g>
<!-- Node13 -->
<g id="node13" class="node">
<title>Node13</title>
<g id="a_node13"><a xlink:title=" ">
<polygon fill="white" stroke="#bfbfbf" points="208,-136.16 208,-162.16 345,-162.16 345,-136.16 208,-136.16"/>
<text text-anchor="start" x="216" y="-151.76" font-family="Helvetica,sans-Serif" font-size="8.00">Function&lt; void(Channel</text>
<text text-anchor="middle" x="276.5" y="-142.76" font-family="Helvetica,sans-Serif" font-size="8.00">_obj &amp;&amp;, Mdt_reader_ptr &amp;&amp;)&gt;</text>
</a>
</g>
</g>
<!-- Node13&#45;&gt;Node2 -->
<g id="edge12" class="edge">
<title>Node13&#45;&gt;Node2</title>
<path fill="none" stroke="#9a32cd" stroke-dasharray="5,2" d="M355.46,-150.17C393.74,-154.18 438.68,-164.5 472,-189.16 485.43,-199.1 478.16,-210.37 490,-222.16 493.5,-225.64 497.53,-228.79 501.77,-231.61"/>
<polygon fill="#9a32cd" stroke="#9a32cd" points="355.65,-146.67 345.37,-149.24 355,-153.65 355.65,-146.67"/>
<text text-anchor="start" x="370" y="-200.76" font-family="Helvetica,sans-Serif" font-size="8.00"> m_on_channel_func_or</text>
<text text-anchor="middle" x="417.5" y="-191.76" font-family="Helvetica,sans-Serif" font-size="8.00">_empty</text>
</g>
<!-- Node14 -->
<g id="node14" class="node">
<title>Node14</title>
<g id="a_node14"><a xlink:title=" ">
<polygon fill="white" stroke="#bfbfbf" points="246.5,-99.66 246.5,-116.66 306.5,-116.66 306.5,-99.66 246.5,-99.66"/>
<text text-anchor="middle" x="276.5" y="-106.26" font-family="Helvetica,sans-Serif" font-size="8.00">Error_code</text>
</a>
</g>
</g>
<!-- Node14&#45;&gt;Node2 -->
<g id="edge13" class="edge">
<title>Node14&#45;&gt;Node2</title>
<path fill="none" stroke="#9a32cd" stroke-dasharray="5,2" d="M316.56,-102.58C360.3,-98.68 430.49,-99.9 472,-139.16 499.42,-165.1 467.32,-191.99 490,-222.16 492.61,-225.63 495.8,-228.71 499.29,-231.42"/>
<polygon fill="#9a32cd" stroke="#9a32cd" points="316.17,-99.1 306.57,-103.59 316.88,-106.06 316.17,-99.1"/>
<text text-anchor="middle" x="417.5" y="-141.76" font-family="Helvetica,sans-Serif" font-size="8.00"> m_target_err_code_err</text>
</g>
<!-- Node15 -->
<g id="node15" class="node">
<title>Node15</title>
<g id="a_node15"><a xlink:title=" ">
<polygon fill="white" stroke="black" points="220.5,-45.66 220.5,-80.66 332.5,-80.66 332.5,-45.66 220.5,-45.66"/>
<text text-anchor="start" x="228.5" y="-70.26" font-family="Helvetica,sans-Serif" font-size="8.00">std::queue&lt; typename</text>
<text text-anchor="start" x="228.5" y="-61.26" font-family="Helvetica,sans-Serif" font-size="8.00"> Channel_open_result</text>
<text text-anchor="middle" x="276.5" y="-52.26" font-family="Helvetica,sans-Serif" font-size="8.00">::Ptr &gt;</text>
</a>
</g>
</g>
<!-- Node15&#45;&gt;Node2 -->
<g id="edge14" class="edge">
<title>Node15&#45;&gt;Node2</title>
<path fill="none" stroke="#9a32cd" stroke-dasharray="5,2" d="M342.65,-53.44C385.22,-51.02 438.86,-56.07 472,-89.16 514.21,-131.31 456.07,-173.1 490,-222.16 492.47,-225.73 495.57,-228.87 499,-231.63"/>
<polygon fill="#9a32cd" stroke="#9a32cd" points="342.37,-49.95 332.65,-54.16 342.87,-56.94 342.37,-49.95"/>
<text text-anchor="middle" x="417.5" y="-91.76" font-family="Helvetica,sans-Serif" font-size="8.00"> m_target_channel_open_q</text>
</g>
<!-- Node16 -->
<g id="node16" class="node">
<title>Node16</title>
<g id="a_node16"><a xlink:title=" ">
<polygon fill="white" stroke="#bfbfbf" points="36,-54.66 36,-71.66 65,-71.66 65,-54.66 36,-54.66"/>
<text text-anchor="middle" x="50.5" y="-61.26" font-family="Helvetica,sans-Serif" font-size="8.00">Ptr</text>
</a>
</g>
</g>
<!-- Node16&#45;&gt;Node15 -->
<g id="edge15" class="edge">
<title>Node16&#45;&gt;Node15</title>
<path fill="none" stroke="#9a32cd" stroke-dasharray="5,2" d="M75.18,-63.16C109.42,-63.16 173.77,-63.16 220.32,-63.16"/>
<polygon fill="#9a32cd" stroke="#9a32cd" points="75.18,-59.66 65.18,-63.16 75.17,-66.66 75.18,-59.66"/>
<text text-anchor="middle" x="154.5" y="-65.76" font-family="Helvetica,sans-Serif" font-size="8.00"> elements</text>
</g>
<!-- Node17 -->
<g id="node17" class="node">
<title>Node17</title>
<g id="a_node17"><a xlink:title=" ">
<polygon fill="white" stroke="#bfbfbf" points="226,-9.66 226,-26.66 327,-26.66 327,-9.66 226,-9.66"/>
<text text-anchor="middle" x="276.5" y="-16.26" font-family="Helvetica,sans-Serif" font-size="8.00">Mutex_non_recursive</text>
</a>
</g>
</g>
<!-- Node17&#45;&gt;Node2 -->
<g id="edge16" class="edge">
<title>Node17&#45;&gt;Node2</title>
<path fill="none" stroke="#9a32cd" stroke-dasharray="5,2" d="M317.37,-7.41C361.46,1.81 431.61,8.14 472,-31.16 502.55,-60.89 466.46,-186.61 490,-222.16 492.29,-225.62 495.17,-228.67 498.39,-231.35"/>
<polygon fill="#9a32cd" stroke="#9a32cd" points="316.56,-4.01 307.56,-9.6 318.08,-10.84 316.56,-4.01"/>
<text text-anchor="start" x="367.5" y="-42.76" font-family="Helvetica,sans-Serif" font-size="8.00"> m_target_channel_open</text>
<text text-anchor="middle" x="417.5" y="-33.76" font-family="Helvetica,sans-Serif" font-size="8.00">_q_mutex</text>
</g>
<!-- Node18 -->
<g id="node18" class="node">
<title>Node18</title>
<g id="a_node18"><a xlink:title=" ">
<polygon fill="white" stroke="#bfbfbf" points="491.5,-195.66 491.5,-212.66 590.5,-212.66 590.5,-195.66 491.5,-195.66"/>
<text text-anchor="middle" x="541" y="-202.26" font-family="Helvetica,sans-Serif" font-size="8.00">boost::noncopyable</text>
</a>
</g>
</g>
<!-- Node18&#45;&gt;Node1 -->
<g id="edge17" class="edge">
<title>Node18&#45;&gt;Node1</title>
<path fill="none" stroke="#8b1a1a" d="M600.87,-209.3C610.21,-210.12 619.8,-210.95 628.93,-211.75"/>
<polygon fill="#8b1a1a" stroke="#8b1a1a" points="601.13,-205.81 590.86,-208.43 600.52,-212.78 601.13,-205.81"/>
</g>
</g>
</svg>
