<?xml version="1.0" encoding="UTF-8" standalone="no"?>
<!DOCTYPE svg PUBLIC "-//W3C//DTD SVG 1.1//EN"
 "http://www.w3.org/Graphics/SVG/1.1/DTD/svg11.dtd">
<!-- Generated by graphviz version 2.43.0 (0)
 -->
<!-- Title: ipc::session::shm::arena_lend::jemalloc::Session_impl&lt; Session_impl_t &gt; Pages: 1 -->
<svg width="491pt" height="153pt"
 viewBox="0.00 0.00 491.00 152.50" xmlns="http://www.w3.org/2000/svg" xmlns:xlink="http://www.w3.org/1999/xlink">
<g id="graph0" class="graph" transform="scale(1 1) rotate(0) translate(4 148.5)">
<title>ipc::session::shm::arena_lend::jemalloc::Session_impl&lt; Session_impl_t &gt;</title>
<polygon fill="white" stroke="transparent" points="-4,4 -4,-148.5 487,-148.5 487,4 -4,4"/>
<!-- Node1 -->
<g id="node1" class="node">
<title>Node1</title>
<g id="a_node1"><a xlink:title="Common data and logic for shm::arena_lend::jemalloc::Server_session_impl and shm::arena_lend::jemallo...">
<polygon fill="#bfbfbf" stroke="black" points="366,-56.5 366,-100.5 483,-100.5 483,-56.5 366,-56.5"/>
<text text-anchor="start" x="374" y="-90.1" font-family="Helvetica,sans-Serif" font-size="8.00">ipc::session::shm::</text>
<text text-anchor="start" x="374" y="-81.1" font-family="Helvetica,sans-Serif" font-size="8.00">arena_lend::jemalloc</text>
<text text-anchor="start" x="374" y="-72.1" font-family="Helvetica,sans-Serif" font-size="8.00">::Session_impl&lt; Session</text>
<text text-anchor="middle" x="424.5" y="-63.1" font-family="Helvetica,sans-Serif" font-size="8.00">_impl_t &gt;</text>
</a>
</g>
</g>
<!-- Node2 -->
<g id="node2" class="node">
<title>Node2</title>
<g id="a_node2"><a xlink:href="classSession__impl__t.html" target="_top" xlink:title=" ">
<polygon fill="white" stroke="#bfbfbf" points="152.5,-127 152.5,-144 229.5,-144 229.5,-127 152.5,-127"/>
<text text-anchor="middle" x="191" y="-133.6" font-family="Helvetica,sans-Serif" font-size="8.00">Session_impl_t</text>
</a>
</g>
</g>
<!-- Node2&#45;&gt;Node1 -->
<g id="edge1" class="edge">
<title>Node2&#45;&gt;Node1</title>
<path fill="none" stroke="midnightblue" d="M239.91,-127.18C270.95,-121.42 312.12,-113.08 348,-103.5 353.74,-101.97 359.68,-100.24 365.59,-98.44"/>
<polygon fill="midnightblue" stroke="midnightblue" points="239.01,-123.79 229.8,-129.03 240.27,-130.67 239.01,-123.79"/>
</g>
<!-- Node3 -->
<g id="node3" class="node">
<title>Node3</title>
<g id="a_node3"><a xlink:title=" ">
<polygon fill="white" stroke="black" points="130.5,-91 130.5,-108 251.5,-108 251.5,-91 130.5,-91"/>
<text text-anchor="middle" x="191" y="-97.6" font-family="Helvetica,sans-Serif" font-size="8.00">std::shared_ptr&lt; Arena &gt;</text>
</a>
</g>
</g>
<!-- Node3&#45;&gt;Node1 -->
<g id="edge2" class="edge">
<title>Node3&#45;&gt;Node1</title>
<path fill="none" stroke="#9a32cd" stroke-dasharray="5,2" d="M261.71,-93.18C294.92,-90.16 334.16,-86.6 365.68,-83.74"/>
<polygon fill="#9a32cd" stroke="#9a32cd" points="261.26,-89.7 251.62,-94.09 261.89,-96.67 261.26,-89.7"/>
<text text-anchor="middle" x="314" y="-93.1" font-family="Helvetica,sans-Serif" font-size="8.00"> m_session_shm</text>
</g>
<!-- Node4 -->
<g id="node4" class="node">
<title>Node4</title>
<g id="a_node4"><a xlink:title=" ">
<polygon fill="white" stroke="#bfbfbf" points="14.5,-91 14.5,-108 55.5,-108 55.5,-91 14.5,-91"/>
<text text-anchor="middle" x="35" y="-97.6" font-family="Helvetica,sans-Serif" font-size="8.00">Arena</text>
</a>
</g>
</g>
<!-- Node4&#45;&gt;Node3 -->
<g id="edge3" class="edge">
<title>Node4&#45;&gt;Node3</title>
<path fill="none" stroke="#9a32cd" stroke-dasharray="5,2" d="M65.54,-99.5C83.84,-99.5 108.01,-99.5 130.17,-99.5"/>
<polygon fill="#9a32cd" stroke="#9a32cd" points="65.5,-96 55.5,-99.5 65.5,-103 65.5,-96"/>
<text text-anchor="middle" x="95" y="-102.1" font-family="Helvetica,sans-Serif" font-size="8.00"> ptr</text>
</g>
<!-- Node5 -->
<g id="node5" class="node">
<title>Node5</title>
<g id="a_node5"><a xlink:title=" ">
<polygon fill="white" stroke="#bfbfbf" points="120,-45.5 120,-71.5 262,-71.5 262,-45.5 120,-45.5"/>
<text text-anchor="start" x="128" y="-61.1" font-family="Helvetica,sans-Serif" font-size="8.00">optional&lt; typename</text>
<text text-anchor="middle" x="191" y="-52.1" font-family="Helvetica,sans-Serif" font-size="8.00"> Shm_session::Shm_channel &gt;</text>
</a>
</g>
</g>
<!-- Node5&#45;&gt;Node1 -->
<g id="edge4" class="edge">
<title>Node5&#45;&gt;Node1</title>
<path fill="none" stroke="#9a32cd" stroke-dasharray="5,2" d="M272.33,-59.36C296.69,-60.22 323.49,-61.77 348,-64.5 353.83,-65.15 359.89,-65.99 365.92,-66.93"/>
<polygon fill="#9a32cd" stroke="#9a32cd" points="272.16,-55.86 262.05,-59.03 271.94,-62.85 272.16,-55.86"/>
<text text-anchor="middle" x="314" y="-67.1" font-family="Helvetica,sans-Serif" font-size="8.00"> m_shm_channel</text>
</g>
<!-- Node6 -->
<g id="node6" class="node">
<title>Node6</title>
<g id="a_node6"><a xlink:title=" ">
<polygon fill="white" stroke="black" points="138,-0.5 138,-26.5 244,-26.5 244,-0.5 138,-0.5"/>
<text text-anchor="start" x="146" y="-16.1" font-family="Helvetica,sans-Serif" font-size="8.00">std::shared_ptr&lt; Shm</text>
<text text-anchor="middle" x="191" y="-7.1" font-family="Helvetica,sans-Serif" font-size="8.00">_session &gt;</text>
</a>
</g>
</g>
<!-- Node6&#45;&gt;Node1 -->
<g id="edge5" class="edge">
<title>Node6&#45;&gt;Node1</title>
<path fill="none" stroke="#9a32cd" stroke-dasharray="5,2" d="M254.24,-23.82C283.1,-29.33 317.65,-36.95 348,-46.5 356.96,-49.32 366.32,-52.81 375.28,-56.44"/>
<polygon fill="#9a32cd" stroke="#9a32cd" points="254.76,-20.36 244.29,-21.96 253.48,-27.24 254.76,-20.36"/>
<text text-anchor="middle" x="314" y="-49.1" font-family="Helvetica,sans-Serif" font-size="8.00"> m_shm_session</text>
</g>
<!-- Node7 -->
<g id="node7" class="node">
<title>Node7</title>
<g id="a_node7"><a xlink:title=" ">
<polygon fill="white" stroke="#bfbfbf" points="0,-5 0,-22 70,-22 70,-5 0,-5"/>
<text text-anchor="middle" x="35" y="-11.6" font-family="Helvetica,sans-Serif" font-size="8.00">Shm_session</text>
</a>
</g>
</g>
<!-- Node7&#45;&gt;Node6 -->
<g id="edge6" class="edge">
<title>Node7&#45;&gt;Node6</title>
<path fill="none" stroke="#9a32cd" stroke-dasharray="5,2" d="M80.36,-13.5C98.28,-13.5 119.1,-13.5 137.76,-13.5"/>
<polygon fill="#9a32cd" stroke="#9a32cd" points="80.18,-10 70.18,-13.5 80.18,-17 80.18,-10"/>
<text text-anchor="middle" x="95" y="-16.1" font-family="Helvetica,sans-Serif" font-size="8.00"> ptr</text>
</g>
</g>
</svg>
