<?xml version="1.0" encoding="UTF-8" standalone="no"?>
<!DOCTYPE svg PUBLIC "-//W3C//DTD SVG 1.1//EN"
 "http://www.w3.org/Graphics/SVG/1.1/DTD/svg11.dtd">
<!-- Generated by graphviz version 2.43.0 (0)
 -->
<!-- Title: ipc::shm::stl::Arena_activator&lt; Arena &gt; Pages: 1 -->
<svg width="206pt" height="116pt"
 viewBox="0.00 0.00 206.00 116.00" xmlns="http://www.w3.org/2000/svg" xmlns:xlink="http://www.w3.org/1999/xlink">
<g id="graph0" class="graph" transform="scale(1 1) rotate(0) translate(4 112)">
<title>ipc::shm::stl::Arena_activator&lt; Arena &gt;</title>
<polygon fill="white" stroke="transparent" points="-4,4 -4,-112 202,-112 202,4 -4,4"/>
<!-- Node1 -->
<g id="node1" class="node">
<title>Node1</title>
<g id="a_node1"><a xlink:title="RAII&#45;style class operating a stack&#45;like notion of a the given thread&#39;s currently active SHM&#45;aware Are...">
<polygon fill="#bfbfbf" stroke="black" points="39,-0.5 39,-26.5 137,-26.5 137,-0.5 39,-0.5"/>
<text text-anchor="start" x="47" y="-16.1" font-family="Helvetica,sans-Serif" font-size="8.00">ipc::shm::stl::Arena</text>
<text text-anchor="middle" x="88" y="-7.1" font-family="Helvetica,sans-Serif" font-size="8.00">_activator&lt; Arena &gt;</text>
</a>
</g>
</g>
<!-- Node2 -->
<g id="node2" class="node">
<title>Node2</title>
<g id="a_node2"><a xlink:href="classflow_1_1util_1_1Scoped__setter.html" target="_top" xlink:title=" ">
<polygon fill="white" stroke="#bfbfbf" points="0,-81.5 0,-107.5 92,-107.5 92,-81.5 0,-81.5"/>
<text text-anchor="start" x="8" y="-97.1" font-family="Helvetica,sans-Serif" font-size="8.00">flow::util::Scoped</text>
<text text-anchor="middle" x="46" y="-88.1" font-family="Helvetica,sans-Serif" font-size="8.00">_setter&lt; Arena * &gt;</text>
</a>
</g>
</g>
<!-- Node2&#45;&gt;Node1 -->
<g id="edge1" class="edge">
<title>Node2&#45;&gt;Node1</title>
<path fill="none" stroke="#8b1a1a" d="M57.27,-72.31C65.01,-57.74 75.03,-38.9 81.48,-26.76"/>
<polygon fill="#8b1a1a" stroke="#8b1a1a" points="54.17,-70.68 52.56,-81.16 60.35,-73.97 54.17,-70.68"/>
</g>
<!-- Node3 -->
<g id="node3" class="node">
<title>Node3</title>
<g id="a_node3"><a xlink:title=" ">
<polygon fill="white" stroke="#bfbfbf" points="110.5,-86 110.5,-103 151.5,-103 151.5,-86 110.5,-86"/>
<text text-anchor="middle" x="131" y="-92.6" font-family="Helvetica,sans-Serif" font-size="8.00">Arena</text>
</a>
</g>
</g>
<!-- Node3&#45;&gt;Node1 -->
<g id="edge2" class="edge">
<title>Node3&#45;&gt;Node1</title>
<path fill="none" stroke="#9a32cd" stroke-dasharray="5,2" d="M121.88,-76.75C113.68,-61.69 101.84,-39.92 94.54,-26.52"/>
<polygon fill="#9a32cd" stroke="#9a32cd" points="119.02,-78.82 126.88,-85.93 125.17,-75.47 119.02,-78.82"/>
<text text-anchor="start" x="113" y="-56.6" font-family="Helvetica,sans-Serif" font-size="8.00"> s_this_thread_active</text>
<text text-anchor="middle" x="155.5" y="-47.6" font-family="Helvetica,sans-Serif" font-size="8.00">_arena</text>
</g>
</g>
</svg>
