<?xml version="1.0" encoding="UTF-8" standalone="no"?>
<!DOCTYPE svg PUBLIC "-//W3C//DTD SVG 1.1//EN"
 "http://www.w3.org/Graphics/SVG/1.1/DTD/svg11.dtd">
<!-- Generated by graphviz version 2.43.0 (0)
 -->
<!-- Title: ipc::util::sync_io::Asio_waitable_native_handle::assign Pages: 1 -->
<svg width="264pt" height="44pt"
 viewBox="0.00 0.00 264.00 44.00" xmlns="http://www.w3.org/2000/svg" xmlns:xlink="http://www.w3.org/1999/xlink">
<g id="graph0" class="graph" transform="scale(1 1) rotate(0) translate(4 40)">
<title>ipc::util::sync_io::Asio_waitable_native_handle::assign</title>
<polygon fill="white" stroke="transparent" points="-4,4 -4,-40 260,-40 260,4 -4,4"/>
<!-- Node1 -->
<g id="node1" class="node">
<title>Node1</title>
<g id="a_node1"><a xlink:title="Loads value to be returned by native_handle().">
<polygon fill="#bfbfbf" stroke="black" points="0,-0.5 0,-35.5 108,-35.5 108,-0.5 0,-0.5"/>
<text text-anchor="start" x="8" y="-25.1" font-family="Helvetica,sans-Serif" font-size="8.00">ipc::util::sync_io</text>
<text text-anchor="start" x="8" y="-16.1" font-family="Helvetica,sans-Serif" font-size="8.00">::Asio_waitable_native</text>
<text text-anchor="middle" x="54" y="-7.1" font-family="Helvetica,sans-Serif" font-size="8.00">_handle::assign</text>
</a>
</g>
</g>
<!-- Node2 -->
<g id="node2" class="node">
<title>Node2</title>
<g id="a_node2"><a xlink:href="structipc_1_1util_1_1Native__handle.html#a11bd62ce0a7bef4bdfe666201c26d4dc" target="_top" xlink:title="Returns true if and only if m_native_handle equals S_NULL_HANDLE.">
<polygon fill="white" stroke="black" points="144,-5 144,-31 256,-31 256,-5 144,-5"/>
<text text-anchor="start" x="152" y="-20.6" font-family="Helvetica,sans-Serif" font-size="8.00">ipc::util::Native_handle</text>
<text text-anchor="middle" x="200" y="-11.6" font-family="Helvetica,sans-Serif" font-size="8.00">::null</text>
</a>
</g>
</g>
<!-- Node1&#45;&gt;Node2 -->
<g id="edge1" class="edge">
<title>Node1&#45;&gt;Node2</title>
<path fill="none" stroke="midnightblue" d="M108.21,-18C116.41,-18 124.97,-18 133.4,-18"/>
<polygon fill="midnightblue" stroke="midnightblue" points="133.6,-21.5 143.6,-18 133.6,-14.5 133.6,-21.5"/>
</g>
</g>
</svg>
