<?xml version="1.0" encoding="UTF-8" standalone="no"?>
<!DOCTYPE svg PUBLIC "-//W3C//DTD SVG 1.1//EN"
 "http://www.w3.org/Graphics/SVG/1.1/DTD/svg11.dtd">
<!-- Generated by graphviz version 2.43.0 (0)
 -->
<!-- Title: ipc::transport::sync_io::Native_socket_stream_acceptor Pages: 1 -->
<svg width="1006pt" height="614pt"
 viewBox="0.00 0.00 1006.00 614.00" xmlns="http://www.w3.org/2000/svg" xmlns:xlink="http://www.w3.org/1999/xlink">
<g id="graph0" class="graph" transform="scale(1 1) rotate(0) translate(4 610)">
<title>ipc::transport::sync_io::Native_socket_stream_acceptor</title>
<polygon fill="white" stroke="transparent" points="-4,4 -4,-610 1002,-610 1002,4 -4,4"/>
<!-- Node1 -->
<g id="node1" class="node">
<title>Node1</title>
<g id="a_node1"><a xlink:title="sync_io&#45;pattern counterpart to async&#45;I/O&#45;pattern transport::Native_socket_stream_acceptor.">
<polygon fill="#bfbfbf" stroke="black" points="875,-235.5 875,-270.5 998,-270.5 998,-235.5 875,-235.5"/>
<text text-anchor="start" x="883" y="-260.1" font-family="Helvetica,sans-Serif" font-size="8.00">ipc::transport::sync</text>
<text text-anchor="start" x="883" y="-251.1" font-family="Helvetica,sans-Serif" font-size="8.00">_io::Native_socket_stream</text>
<text text-anchor="middle" x="936.5" y="-242.1" font-family="Helvetica,sans-Serif" font-size="8.00">_acceptor</text>
</a>
</g>
</g>
<!-- Node2 -->
<g id="node2" class="node">
<title>Node2</title>
<g id="a_node2"><a xlink:title=" ">
<polygon fill="white" stroke="#bfbfbf" points="331,-588.5 331,-605.5 438,-605.5 438,-588.5 331,-588.5"/>
<text text-anchor="middle" x="384.5" y="-595.1" font-family="Helvetica,sans-Serif" font-size="8.00">flow::log::Log_context</text>
</a>
</g>
</g>
<!-- Node2&#45;&gt;Node1 -->
<g id="edge1" class="edge">
<title>Node2&#45;&gt;Node1</title>
<path fill="none" stroke="midnightblue" d="M448.19,-600.35C550.3,-602.08 751.68,-589.25 857,-472 911.25,-411.61 928.7,-311.04 933.7,-270.62"/>
<polygon fill="midnightblue" stroke="midnightblue" points="448.11,-596.85 438.03,-600.13 447.95,-603.85 448.11,-596.85"/>
</g>
<!-- Node17 -->
<g id="node17" class="node">
<title>Node17</title>
<g id="a_node17"><a xlink:href="classipc_1_1transport_1_1Native__socket__stream__acceptor.html" target="_top" xlink:title="A server object that binds to a Shared_name and listens for incoming Native_socket_stream connect att...">
<polygon fill="white" stroke="black" points="606,-427 606,-453 725,-453 725,-427 606,-427"/>
<text text-anchor="start" x="614" y="-442.6" font-family="Helvetica,sans-Serif" font-size="8.00">ipc::transport::Native</text>
<text text-anchor="middle" x="665.5" y="-433.6" font-family="Helvetica,sans-Serif" font-size="8.00">_socket_stream_acceptor</text>
</a>
</g>
</g>
<!-- Node2&#45;&gt;Node17 -->
<g id="edge18" class="edge">
<title>Node2&#45;&gt;Node17</title>
<path fill="none" stroke="midnightblue" d="M448.37,-589.87C490.21,-582.73 544.83,-568.64 586,-541 620.48,-517.85 646.47,-474.63 657.98,-453.01"/>
<polygon fill="midnightblue" stroke="midnightblue" points="447.61,-586.44 438.3,-591.49 448.73,-593.36 447.61,-586.44"/>
</g>
<!-- Node3 -->
<g id="node3" class="node">
<title>Node3</title>
<g id="a_node3"><a xlink:title=" ">
<polygon fill="white" stroke="#bfbfbf" points="335,-545.5 335,-562.5 434,-562.5 434,-545.5 335,-545.5"/>
<text text-anchor="middle" x="384.5" y="-552.1" font-family="Helvetica,sans-Serif" font-size="8.00">boost::noncopyable</text>
</a>
</g>
</g>
<!-- Node3&#45;&gt;Node1 -->
<g id="edge2" class="edge">
<title>Node3&#45;&gt;Node1</title>
<path fill="none" stroke="#8b1a1a" d="M444.38,-554.58C543.22,-552.27 742.85,-533.08 857,-422 901.75,-378.46 923.64,-304.51 931.71,-270.76"/>
<polygon fill="#8b1a1a" stroke="#8b1a1a" points="444.21,-551.08 434.27,-554.76 444.34,-558.08 444.21,-551.08"/>
</g>
<!-- Node3&#45;&gt;Node17 -->
<g id="edge19" class="edge">
<title>Node3&#45;&gt;Node17</title>
<path fill="none" stroke="#8b1a1a" d="M444.14,-545.61C494.15,-537.8 561.69,-525.51 586,-513 614.79,-498.18 640.71,-469.78 654.36,-453.11"/>
<polygon fill="#8b1a1a" stroke="#8b1a1a" points="443.43,-542.18 434.07,-547.16 444.49,-549.1 443.43,-542.18"/>
</g>
<!-- Node4 -->
<g id="node4" class="node">
<title>Node4</title>
<g id="a_node4"><a xlink:href="classipc_1_1util_1_1Shared__name.html" target="_top" xlink:title="String&#45;wrapping abstraction representing a name uniquely distinguishing a kernel&#45;persistent entity fr...">
<polygon fill="white" stroke="black" points="329.5,-246.5 329.5,-263.5 439.5,-263.5 439.5,-246.5 329.5,-246.5"/>
<text text-anchor="middle" x="384.5" y="-253.1" font-family="Helvetica,sans-Serif" font-size="8.00">ipc::util::Shared_name</text>
</a>
</g>
</g>
<!-- Node4&#45;&gt;Node1 -->
<g id="edge3" class="edge">
<title>Node4&#45;&gt;Node1</title>
<path fill="none" stroke="#9a32cd" stroke-dasharray="5,2" d="M399.95,-271.51C415.07,-287.42 440.42,-310.44 468,-320 526.42,-340.25 766.44,-341.27 857,-310 880.56,-301.86 903.12,-284.08 917.95,-270.53"/>
<polygon fill="#9a32cd" stroke="#9a32cd" points="402.35,-268.95 393.01,-263.95 397.19,-273.68 402.35,-268.95"/>
<text text-anchor="middle" x="665.5" y="-336.6" font-family="Helvetica,sans-Serif" font-size="8.00"> S_RESOURCE_TYPE_ID</text>
</g>
<!-- Node4&#45;&gt;Node4 -->
<g id="edge4" class="edge">
<title>Node4&#45;&gt;Node4</title>
<path fill="none" stroke="#9a32cd" stroke-dasharray="5,2" d="M362.78,-272.48C363.28,-277.82 370.52,-282 384.5,-282 405.8,-282 411.45,-272.29 401.47,-263.57"/>
<polygon fill="#9a32cd" stroke="#9a32cd" points="365.91,-274.04 367.53,-263.57 359.74,-270.75 365.91,-274.04"/>
<text text-anchor="middle" x="384.5" y="-347.6" font-family="Helvetica,sans-Serif" font-size="8.00"> S_1ST_OR_ONLY</text>
<text text-anchor="middle" x="384.5" y="-338.6" font-family="Helvetica,sans-Serif" font-size="8.00">S_EMPTY</text>
<text text-anchor="start" x="346" y="-329.6" font-family="Helvetica,sans-Serif" font-size="8.00">S_RESOURCE_TYPE</text>
<text text-anchor="middle" x="384.5" y="-320.6" font-family="Helvetica,sans-Serif" font-size="8.00">_ID_MUTEX</text>
<text text-anchor="start" x="346" y="-311.6" font-family="Helvetica,sans-Serif" font-size="8.00">S_RESOURCE_TYPE</text>
<text text-anchor="middle" x="384.5" y="-302.6" font-family="Helvetica,sans-Serif" font-size="8.00">_ID_SHM</text>
<text text-anchor="middle" x="384.5" y="-293.6" font-family="Helvetica,sans-Serif" font-size="8.00">S_ROOT_MAGIC</text>
<text text-anchor="middle" x="384.5" y="-284.6" font-family="Helvetica,sans-Serif" font-size="8.00">S_SENTINEL</text>
</g>
<!-- Node4&#45;&gt;Node17 -->
<g id="edge20" class="edge">
<title>Node4&#45;&gt;Node17</title>
<path fill="none" stroke="#9a32cd" stroke-dasharray="5,2" d="M396.55,-272C410.68,-292.39 437.07,-326.17 468,-345 514.41,-373.26 537.57,-352.36 586,-377 611.86,-390.15 637.19,-412.74 651.8,-426.99"/>
<polygon fill="#9a32cd" stroke="#9a32cd" points="399.43,-270.02 390.94,-263.68 393.62,-273.93 399.43,-270.02"/>
<text text-anchor="middle" x="527" y="-388.6" font-family="Helvetica,sans-Serif" font-size="8.00"> S_RESOURCE_TYPE_ID</text>
<text text-anchor="middle" x="527" y="-379.6" font-family="Helvetica,sans-Serif" font-size="8.00">m_absolute_name</text>
</g>
<!-- Node5 -->
<g id="node5" class="node">
<title>Node5</title>
<g id="a_node5"><a xlink:title=" ">
<polygon fill="white" stroke="#bfbfbf" points="152.5,-282.5 152.5,-299.5 192.5,-299.5 192.5,-282.5 152.5,-282.5"/>
<text text-anchor="middle" x="172.5" y="-289.1" font-family="Helvetica,sans-Serif" font-size="8.00">size_t</text>
</a>
</g>
</g>
<!-- Node5&#45;&gt;Node4 -->
<g id="edge5" class="edge">
<title>Node5&#45;&gt;Node4</title>
<path fill="none" stroke="#9a32cd" stroke-dasharray="5,2" d="M202.65,-286C236.49,-280.2 292.87,-270.54 333.69,-263.54"/>
<polygon fill="#9a32cd" stroke="#9a32cd" points="201.77,-282.6 192.51,-287.74 202.95,-289.5 201.77,-282.6"/>
<text text-anchor="middle" x="268" y="-282.6" font-family="Helvetica,sans-Serif" font-size="8.00"> S_MAX_LENGTH</text>
</g>
<!-- Node6 -->
<g id="node6" class="node">
<title>Node6</title>
<g id="a_node6"><a xlink:title=" ">
<polygon fill="white" stroke="#bfbfbf" points="130.5,-246.5 130.5,-263.5 214.5,-263.5 214.5,-246.5 130.5,-246.5"/>
<text text-anchor="middle" x="172.5" y="-253.1" font-family="Helvetica,sans-Serif" font-size="8.00">static const char</text>
</a>
</g>
</g>
<!-- Node6&#45;&gt;Node4 -->
<g id="edge6" class="edge">
<title>Node6&#45;&gt;Node4</title>
<path fill="none" stroke="#9a32cd" stroke-dasharray="5,2" d="M225.1,-255C256.71,-255 297.13,-255 329.22,-255"/>
<polygon fill="#9a32cd" stroke="#9a32cd" points="224.74,-251.5 214.74,-255 224.74,-258.5 224.74,-251.5"/>
<text text-anchor="middle" x="268" y="-257.6" font-family="Helvetica,sans-Serif" font-size="8.00"> S_SEPARATOR</text>
</g>
<!-- Node7 -->
<g id="node7" class="node">
<title>Node7</title>
<g id="a_node7"><a xlink:title=" ">
<polygon fill="white" stroke="black" points="143,-210.5 143,-227.5 202,-227.5 202,-210.5 143,-210.5"/>
<text text-anchor="middle" x="172.5" y="-217.1" font-family="Helvetica,sans-Serif" font-size="8.00">std::string</text>
</a>
</g>
</g>
<!-- Node7&#45;&gt;Node4 -->
<g id="edge7" class="edge">
<title>Node7&#45;&gt;Node4</title>
<path fill="none" stroke="#9a32cd" stroke-dasharray="5,2" d="M212.34,-225.66C246.56,-231.53 296.61,-240.1 333.75,-246.47"/>
<polygon fill="#9a32cd" stroke="#9a32cd" points="212.71,-222.17 202.26,-223.93 211.52,-229.07 212.71,-222.17"/>
<text text-anchor="middle" x="268" y="-242.6" font-family="Helvetica,sans-Serif" font-size="8.00"> m_raw_name</text>
</g>
<!-- Node8 -->
<g id="node8" class="node">
<title>Node8</title>
<g id="a_node8"><a xlink:title=" ">
<polygon fill="white" stroke="black" points="0,-206 0,-232 91,-232 91,-206 0,-206"/>
<text text-anchor="start" x="8" y="-221.6" font-family="Helvetica,sans-Serif" font-size="8.00">std::basic_string&lt;</text>
<text text-anchor="middle" x="45.5" y="-212.6" font-family="Helvetica,sans-Serif" font-size="8.00"> Char &gt;</text>
</a>
</g>
</g>
<!-- Node8&#45;&gt;Node7 -->
<g id="edge8" class="edge">
<title>Node8&#45;&gt;Node7</title>
<path fill="none" stroke="midnightblue" d="M101.55,-219C115.86,-219 130.69,-219 142.99,-219"/>
<polygon fill="midnightblue" stroke="midnightblue" points="101.27,-215.5 91.27,-219 101.27,-222.5 101.27,-215.5"/>
</g>
<!-- Node9 -->
<g id="node9" class="node">
<title>Node9</title>
<g id="a_node9"><a xlink:title=" ">
<polygon fill="white" stroke="#bfbfbf" points="632,-280.5 632,-297.5 699,-297.5 699,-280.5 632,-280.5"/>
<text text-anchor="middle" x="665.5" y="-287.1" font-family="Helvetica,sans-Serif" font-size="8.00">Task_engine</text>
</a>
</g>
</g>
<!-- Node9&#45;&gt;Node1 -->
<g id="edge9" class="edge">
<title>Node9&#45;&gt;Node1</title>
<path fill="none" stroke="#9a32cd" stroke-dasharray="5,2" d="M709.62,-284.34C748.27,-280.03 806.51,-273.23 857,-266 862.74,-265.18 868.72,-264.28 874.69,-263.34"/>
<polygon fill="#9a32cd" stroke="#9a32cd" points="708.81,-280.91 699.26,-285.49 709.58,-287.87 708.81,-280.91"/>
<text text-anchor="start" x="751.5" y="-299.6" font-family="Helvetica,sans-Serif" font-size="8.00"> m_ev_hndl_task_engine</text>
<text text-anchor="middle" x="801" y="-290.6" font-family="Helvetica,sans-Serif" font-size="8.00">_unused</text>
<text text-anchor="middle" x="801" y="-281.6" font-family="Helvetica,sans-Serif" font-size="8.00">m_nb_task_engine</text>
</g>
<!-- Node10 -->
<g id="node10" class="node">
<title>Node10</title>
<g id="a_node10"><a xlink:title=" ">
<polygon fill="white" stroke="#bfbfbf" points="628,-244.5 628,-261.5 703,-261.5 703,-244.5 628,-244.5"/>
<text text-anchor="middle" x="665.5" y="-251.1" font-family="Helvetica,sans-Serif" font-size="8.00">readable_pipe</text>
</a>
</g>
</g>
<!-- Node10&#45;&gt;Node1 -->
<g id="edge10" class="edge">
<title>Node10&#45;&gt;Node1</title>
<path fill="none" stroke="#9a32cd" stroke-dasharray="5,2" d="M713.08,-253C757.85,-253 825.76,-253 874.76,-253"/>
<polygon fill="#9a32cd" stroke="#9a32cd" points="713.06,-249.5 703.06,-253 713.06,-256.5 713.06,-249.5"/>
<text text-anchor="middle" x="801" y="-255.6" font-family="Helvetica,sans-Serif" font-size="8.00"> m_ready_reader</text>
</g>
<!-- Node11 -->
<g id="node11" class="node">
<title>Node11</title>
<g id="a_node11"><a xlink:title=" ">
<polygon fill="white" stroke="#bfbfbf" points="630,-208.5 630,-225.5 701,-225.5 701,-208.5 630,-208.5"/>
<text text-anchor="middle" x="665.5" y="-215.1" font-family="Helvetica,sans-Serif" font-size="8.00">writable_pipe</text>
</a>
</g>
</g>
<!-- Node11&#45;&gt;Node1 -->
<g id="edge11" class="edge">
<title>Node11&#45;&gt;Node1</title>
<path fill="none" stroke="#9a32cd" stroke-dasharray="5,2" d="M711.71,-221.89C750.36,-226.21 807.41,-232.9 857,-240 862.74,-240.82 868.72,-241.72 874.69,-242.66"/>
<polygon fill="#9a32cd" stroke="#9a32cd" points="711.65,-218.36 701.32,-220.74 710.88,-225.32 711.65,-218.36"/>
<text text-anchor="middle" x="801" y="-242.6" font-family="Helvetica,sans-Serif" font-size="8.00"> m_ready_writer</text>
</g>
<!-- Node12 -->
<g id="node12" class="node">
<title>Node12</title>
<g id="a_node12"><a xlink:href="classipc_1_1util_1_1sync__io_1_1Asio__waitable__native__handle.html" target="_top" xlink:title="Useful if using the sync_io pattern within a user event loop built on boost.asio (optionally with flo...">
<polygon fill="white" stroke="black" points="611.5,-154.5 611.5,-189.5 719.5,-189.5 719.5,-154.5 611.5,-154.5"/>
<text text-anchor="start" x="619.5" y="-179.1" font-family="Helvetica,sans-Serif" font-size="8.00">ipc::util::sync_io</text>
<text text-anchor="start" x="619.5" y="-170.1" font-family="Helvetica,sans-Serif" font-size="8.00">::Asio_waitable_native</text>
<text text-anchor="middle" x="665.5" y="-161.1" font-family="Helvetica,sans-Serif" font-size="8.00">_handle</text>
</a>
</g>
</g>
<!-- Node12&#45;&gt;Node1 -->
<g id="edge12" class="edge">
<title>Node12&#45;&gt;Node1</title>
<path fill="none" stroke="#9a32cd" stroke-dasharray="5,2" d="M729.98,-181.41C767.58,-188.03 815.77,-198.34 857,-213 873.57,-218.89 891.1,-227.56 905.37,-235.33"/>
<polygon fill="#9a32cd" stroke="#9a32cd" points="730.12,-177.89 719.67,-179.64 728.93,-184.78 730.12,-177.89"/>
<text text-anchor="middle" x="801" y="-215.6" font-family="Helvetica,sans-Serif" font-size="8.00"> m_ev_wait_hndl</text>
</g>
<!-- Node13 -->
<g id="node13" class="node">
<title>Node13</title>
<g id="a_node13"><a xlink:title=" ">
<polygon fill="white" stroke="#bfbfbf" points="339,-159 339,-185 430,-185 430,-159 339,-159"/>
<text text-anchor="start" x="347" y="-174.6" font-family="Helvetica,sans-Serif" font-size="8.00">boost::asio::posix</text>
<text text-anchor="middle" x="384.5" y="-165.6" font-family="Helvetica,sans-Serif" font-size="8.00">::descriptor</text>
</a>
</g>
</g>
<!-- Node13&#45;&gt;Node12 -->
<g id="edge13" class="edge">
<title>Node13&#45;&gt;Node12</title>
<path fill="none" stroke="darkgreen" d="M440.21,-172C489.66,-172 562.02,-172 611.08,-172"/>
<polygon fill="darkgreen" stroke="darkgreen" points="440.02,-168.5 430.02,-172 440.02,-175.5 440.02,-168.5"/>
</g>
<!-- Node14 -->
<g id="node14" class="node">
<title>Node14</title>
<g id="a_node14"><a xlink:title=" ">
<polygon fill="white" stroke="#bfbfbf" points="604,-73 604,-135 727,-135 727,-73 604,-73"/>
<text text-anchor="start" x="612" y="-124.6" font-family="Helvetica,sans-Serif" font-size="8.00">Function&lt; void(Asio</text>
<text text-anchor="start" x="612" y="-115.6" font-family="Helvetica,sans-Serif" font-size="8.00">_waitable_native_handle</text>
<text text-anchor="start" x="612" y="-106.6" font-family="Helvetica,sans-Serif" font-size="8.00"> *hndl_of_interest, bool</text>
<text text-anchor="start" x="612" y="-97.6" font-family="Helvetica,sans-Serif" font-size="8.00"> ev_of_interest_snd_else</text>
<text text-anchor="start" x="612" y="-88.6" font-family="Helvetica,sans-Serif" font-size="8.00">_rcv, Task_ptr &amp;&amp;on_active</text>
<text text-anchor="middle" x="665.5" y="-79.6" font-family="Helvetica,sans-Serif" font-size="8.00">_ev_func)&gt;</text>
</a>
</g>
</g>
<!-- Node14&#45;&gt;Node1 -->
<g id="edge14" class="edge">
<title>Node14&#45;&gt;Node1</title>
<path fill="none" stroke="#9a32cd" stroke-dasharray="5,2" d="M737.14,-120.3C774.68,-131.01 820.49,-147.46 857,-171 884,-188.41 908.44,-216.89 922.64,-235.29"/>
<polygon fill="#9a32cd" stroke="#9a32cd" points="737.86,-116.87 727.28,-117.57 735.99,-123.61 737.86,-116.87"/>
<text text-anchor="middle" x="801" y="-173.6" font-family="Helvetica,sans-Serif" font-size="8.00"> m_ev_wait_func</text>
</g>
<!-- Node15 -->
<g id="node15" class="node">
<title>Node15</title>
<g id="a_node15"><a xlink:title=" ">
<polygon fill="white" stroke="#bfbfbf" points="630,-36.5 630,-53.5 701,-53.5 701,-36.5 630,-36.5"/>
<text text-anchor="middle" x="665.5" y="-43.1" font-family="Helvetica,sans-Serif" font-size="8.00">Task_asio_err</text>
</a>
</g>
</g>
<!-- Node15&#45;&gt;Node1 -->
<g id="edge15" class="edge">
<title>Node15&#45;&gt;Node1</title>
<path fill="none" stroke="#9a32cd" stroke-dasharray="5,2" d="M711.19,-50.63C753.07,-57.95 815.3,-74.32 857,-110 897.45,-144.62 920.83,-205.51 930.39,-235.42"/>
<polygon fill="#9a32cd" stroke="#9a32cd" points="711.71,-47.17 701.27,-49 710.57,-54.08 711.71,-47.17"/>
<text text-anchor="middle" x="801" y="-112.6" font-family="Helvetica,sans-Serif" font-size="8.00"> m_on_done_func_or_empty</text>
</g>
<!-- Node16 -->
<g id="node16" class="node">
<title>Node16</title>
<g id="a_node16"><a xlink:title=" ">
<polygon fill="white" stroke="#bfbfbf" points="635.5,-0.5 635.5,-17.5 695.5,-17.5 695.5,-0.5 635.5,-0.5"/>
<text text-anchor="middle" x="665.5" y="-7.1" font-family="Helvetica,sans-Serif" font-size="8.00">Error_code</text>
</a>
</g>
</g>
<!-- Node16&#45;&gt;Node1 -->
<g id="edge16" class="edge">
<title>Node16&#45;&gt;Node1</title>
<path fill="none" stroke="#9a32cd" stroke-dasharray="5,2" d="M705.82,-5.87C747.98,-4.68 814.58,-9.39 857,-45 916.42,-94.88 930.92,-194.66 934.41,-235.23"/>
<polygon fill="#9a32cd" stroke="#9a32cd" points="705.5,-2.38 695.65,-6.28 705.79,-9.37 705.5,-2.38"/>
<text text-anchor="middle" x="801" y="-47.6" font-family="Helvetica,sans-Serif" font-size="8.00"> m_target_err_code</text>
</g>
<!-- Node17&#45;&gt;Node1 -->
<g id="edge17" class="edge">
<title>Node17&#45;&gt;Node1</title>
<path fill="none" stroke="#9a32cd" stroke-dasharray="5,2" d="M714.78,-423.36C755.36,-407.89 813.52,-382.1 857,-348 885.45,-325.69 910.55,-291.43 924.32,-270.73"/>
<polygon fill="#9a32cd" stroke="#9a32cd" points="713.52,-420.1 705.38,-426.89 715.97,-426.66 713.52,-420.1"/>
<text text-anchor="middle" x="801" y="-411.6" font-family="Helvetica,sans-Serif" font-size="8.00"> m_async_io</text>
</g>
<!-- Node18 -->
<g id="node18" class="node">
<title>Node18</title>
<g id="a_node18"><a xlink:title=" ">
<polygon fill="white" stroke="black" points="322,-373 322,-399 447,-399 447,-373 322,-373"/>
<text text-anchor="start" x="330" y="-388.6" font-family="Helvetica,sans-Serif" font-size="8.00">std::queue&lt; User_request</text>
<text text-anchor="middle" x="384.5" y="-379.6" font-family="Helvetica,sans-Serif" font-size="8.00">::Ptr &gt;</text>
</a>
</g>
</g>
<!-- Node18&#45;&gt;Node17 -->
<g id="edge21" class="edge">
<title>Node18&#45;&gt;Node17</title>
<path fill="none" stroke="#9a32cd" stroke-dasharray="5,2" d="M457.21,-396.71C495.57,-402.8 543.51,-411 586,-420 595.63,-422.04 605.86,-424.46 615.65,-426.9"/>
<polygon fill="#9a32cd" stroke="#9a32cd" points="457.59,-393.23 447.17,-395.13 456.51,-400.14 457.59,-393.23"/>
<text text-anchor="middle" x="527" y="-422.6" font-family="Helvetica,sans-Serif" font-size="8.00"> m_pending_user_requests_q</text>
</g>
<!-- Node19 -->
<g id="node19" class="node">
<title>Node19</title>
<g id="a_node19"><a xlink:title=" ">
<polygon fill="white" stroke="#bfbfbf" points="158,-377.5 158,-394.5 187,-394.5 187,-377.5 158,-377.5"/>
<text text-anchor="middle" x="172.5" y="-384.1" font-family="Helvetica,sans-Serif" font-size="8.00">Ptr</text>
</a>
</g>
</g>
<!-- Node19&#45;&gt;Node18 -->
<g id="edge22" class="edge">
<title>Node19&#45;&gt;Node18</title>
<path fill="none" stroke="#9a32cd" stroke-dasharray="5,2" d="M197.63,-386C227.68,-386 280.13,-386 321.66,-386"/>
<polygon fill="#9a32cd" stroke="#9a32cd" points="197.28,-382.5 187.28,-386 197.28,-389.5 197.28,-382.5"/>
<text text-anchor="middle" x="268" y="-388.6" font-family="Helvetica,sans-Serif" font-size="8.00"> elements</text>
</g>
<!-- Node20 -->
<g id="node20" class="node">
<title>Node20</title>
<g id="a_node20"><a xlink:title=" ">
<polygon fill="white" stroke="black" points="322,-418 322,-444 447,-444 447,-418 322,-418"/>
<text text-anchor="start" x="330" y="-433.6" font-family="Helvetica,sans-Serif" font-size="8.00">std::queue&lt; std::variant</text>
<text text-anchor="middle" x="384.5" y="-424.6" font-family="Helvetica,sans-Serif" font-size="8.00">&lt; Peer_ptr, Error_code &gt; &gt;</text>
</a>
</g>
</g>
<!-- Node20&#45;&gt;Node17 -->
<g id="edge23" class="edge">
<title>Node20&#45;&gt;Node17</title>
<path fill="none" stroke="#9a32cd" stroke-dasharray="5,2" d="M457.31,-433.32C503.46,-434.81 562.66,-436.71 605.95,-438.11"/>
<polygon fill="#9a32cd" stroke="#9a32cd" points="457.18,-429.81 447.07,-432.99 456.96,-436.81 457.18,-429.81"/>
<text text-anchor="middle" x="527" y="-439.6" font-family="Helvetica,sans-Serif" font-size="8.00"> m_pending_results_q</text>
</g>
<!-- Node21 -->
<g id="node21" class="node">
<title>Node21</title>
<g id="a_node21"><a xlink:title=" ">
<polygon fill="white" stroke="#bfbfbf" points="128,-418 128,-444 217,-444 217,-418 128,-418"/>
<text text-anchor="start" x="136" y="-433.6" font-family="Helvetica,sans-Serif" font-size="8.00">variant&lt; Peer_ptr,</text>
<text text-anchor="middle" x="172.5" y="-424.6" font-family="Helvetica,sans-Serif" font-size="8.00"> Error_code &gt;</text>
</a>
</g>
</g>
<!-- Node21&#45;&gt;Node20 -->
<g id="edge24" class="edge">
<title>Node21&#45;&gt;Node20</title>
<path fill="none" stroke="#9a32cd" stroke-dasharray="5,2" d="M227.3,-431C256.13,-431 291.77,-431 321.73,-431"/>
<polygon fill="#9a32cd" stroke="#9a32cd" points="227.01,-427.5 217.01,-431 227.01,-434.5 227.01,-427.5"/>
<text text-anchor="middle" x="268" y="-433.6" font-family="Helvetica,sans-Serif" font-size="8.00"> elements</text>
</g>
<!-- Node22 -->
<g id="node22" class="node">
<title>Node22</title>
<g id="a_node22"><a xlink:title=" ">
<polygon fill="white" stroke="#bfbfbf" points="326.5,-210.5 326.5,-227.5 442.5,-227.5 442.5,-210.5 326.5,-210.5"/>
<text text-anchor="middle" x="384.5" y="-217.1" font-family="Helvetica,sans-Serif" font-size="8.00">Single_thread_task_loop</text>
</a>
</g>
</g>
<!-- Node22&#45;&gt;Node17 -->
<g id="edge25" class="edge">
<title>Node22&#45;&gt;Node17</title>
<path fill="none" stroke="#9a32cd" stroke-dasharray="5,2" d="M434.22,-230.68C439.64,-232.54 445.01,-234.64 450,-237 516.68,-268.47 533.38,-280.36 586,-332 616.77,-362.2 644.27,-405.53 657,-426.96"/>
<polygon fill="#9a32cd" stroke="#9a32cd" points="435.06,-227.27 424.47,-227.59 432.95,-233.95 435.06,-227.27"/>
<text text-anchor="middle" x="527" y="-334.6" font-family="Helvetica,sans-Serif" font-size="8.00"> m_worker</text>
</g>
<!-- Node23 -->
<g id="node23" class="node">
<title>Node23</title>
<g id="a_node23"><a xlink:title=" ">
<polygon fill="white" stroke="#bfbfbf" points="319,-500 319,-526 450,-526 450,-500 319,-500"/>
<text text-anchor="start" x="327" y="-515.6" font-family="Helvetica,sans-Serif" font-size="8.00">unique_ptr&lt; asio_local</text>
<text text-anchor="middle" x="384.5" y="-506.6" font-family="Helvetica,sans-Serif" font-size="8.00">_stream_socket::Acceptor &gt;</text>
</a>
</g>
</g>
<!-- Node23&#45;&gt;Node17 -->
<g id="edge26" class="edge">
<title>Node23&#45;&gt;Node17</title>
<path fill="none" stroke="#9a32cd" stroke-dasharray="5,2" d="M460.11,-503.08C498.28,-496.95 545.19,-487.78 586,-475 604.37,-469.25 624.16,-460.41 639.27,-453.05"/>
<polygon fill="#9a32cd" stroke="#9a32cd" points="459.43,-499.65 450.09,-504.65 460.51,-506.56 459.43,-499.65"/>
<text text-anchor="middle" x="527" y="-502.6" font-family="Helvetica,sans-Serif" font-size="8.00"> m_acceptor</text>
</g>
<!-- Node24 -->
<g id="node24" class="node">
<title>Node24</title>
<g id="a_node24"><a xlink:title=" ">
<polygon fill="white" stroke="#bfbfbf" points="362.5,-463.5 362.5,-480.5 406.5,-480.5 406.5,-463.5 362.5,-463.5"/>
<text text-anchor="middle" x="384.5" y="-470.1" font-family="Helvetica,sans-Serif" font-size="8.00">socket</text>
</a>
</g>
</g>
<!-- Node24&#45;&gt;Node17 -->
<g id="edge27" class="edge">
<title>Node24&#45;&gt;Node17</title>
<path fill="none" stroke="#9a32cd" stroke-dasharray="5,2" d="M416.63,-468.75C456.07,-464.6 526.11,-457.1 586,-450 592.41,-449.24 599.12,-448.42 605.79,-447.59"/>
<polygon fill="#9a32cd" stroke="#9a32cd" points="416.17,-465.28 406.59,-469.81 416.9,-472.25 416.17,-465.28"/>
<text text-anchor="middle" x="527" y="-464.6" font-family="Helvetica,sans-Serif" font-size="8.00"> m_next_peer_socket</text>
</g>
</g>
</svg>
