<?xml version="1.0" encoding="UTF-8" standalone="no"?>
<!DOCTYPE svg PUBLIC "-//W3C//DTD SVG 1.1//EN"
 "http://www.w3.org/Graphics/SVG/1.1/DTD/svg11.dtd">
<!-- Generated by graphviz version 2.43.0 (0)
 -->
<!-- Title: ipc::transport::sync_io::Native_socket_stream::start_receive_native_handle_ops Pages: 1 -->
<svg width="338pt" height="44pt"
 viewBox="0.00 0.00 338.00 44.00" xmlns="http://www.w3.org/2000/svg" xmlns:xlink="http://www.w3.org/1999/xlink">
<g id="graph0" class="graph" transform="scale(1 1) rotate(0) translate(4 40)">
<title>ipc::transport::sync_io::Native_socket_stream::start_receive_native_handle_ops</title>
<polygon fill="white" stroke="transparent" points="-4,4 -4,-40 334,-40 334,4 -4,4"/>
<!-- Node1 -->
<g id="node1" class="node">
<title>Node1</title>
<g id="a_node1"><a xlink:title="Implements Native_handle_receiver API per contract.">
<polygon fill="#bfbfbf" stroke="black" points="175,-0.5 175,-35.5 330,-35.5 330,-0.5 175,-0.5"/>
<text text-anchor="start" x="183" y="-25.1" font-family="Helvetica,sans-Serif" font-size="8.00">ipc::transport::sync</text>
<text text-anchor="start" x="183" y="-16.1" font-family="Helvetica,sans-Serif" font-size="8.00">_io::Native_socket_stream</text>
<text text-anchor="middle" x="252.5" y="-7.1" font-family="Helvetica,sans-Serif" font-size="8.00">::start_receive_native_handle_ops</text>
</a>
</g>
</g>
<!-- Node2 -->
<g id="node2" class="node">
<title>Node2</title>
<g id="a_node2"><a xlink:href="classipc_1_1transport_1_1sync__io_1_1Native__socket__stream_1_1Impl.html#a12e99a2479fbf08b2fa32a2f17ed1ca7" target="_top" xlink:title="See Native_socket_stream counterpart.">
<polygon fill="white" stroke="black" points="0,-0.5 0,-35.5 139,-35.5 139,-0.5 0,-0.5"/>
<text text-anchor="start" x="8" y="-25.1" font-family="Helvetica,sans-Serif" font-size="8.00">ipc::transport::sync</text>
<text text-anchor="start" x="8" y="-16.1" font-family="Helvetica,sans-Serif" font-size="8.00">_io::Native_socket_stream</text>
<text text-anchor="middle" x="69.5" y="-7.1" font-family="Helvetica,sans-Serif" font-size="8.00">::Impl::start_receive_blob_ops</text>
</a>
</g>
</g>
<!-- Node1&#45;&gt;Node2 -->
<g id="edge1" class="edge">
<title>Node1&#45;&gt;Node2</title>
<path fill="none" stroke="midnightblue" d="M164.68,-18C156.08,-18 147.44,-18 139.06,-18"/>
<polygon fill="midnightblue" stroke="midnightblue" points="164.74,-21.5 174.74,-18 164.74,-14.5 164.74,-21.5"/>
</g>
</g>
</svg>
