<?xml version="1.0" encoding="UTF-8" standalone="no"?>
<!DOCTYPE svg PUBLIC "-//W3C//DTD SVG 1.1//EN"
 "http://www.w3.org/Graphics/SVG/1.1/DTD/svg11.dtd">
<!-- Generated by graphviz version 2.43.0 (0)
 -->
<!-- Title: ipc::util::Shared_name::native_str Pages: 1 -->
<svg width="684pt" height="211pt"
 viewBox="0.00 0.00 684.00 211.00" xmlns="http://www.w3.org/2000/svg" xmlns:xlink="http://www.w3.org/1999/xlink">
<g id="graph0" class="graph" transform="scale(1 1) rotate(0) translate(4 207)">
<title>ipc::util::Shared_name::native_str</title>
<polygon fill="white" stroke="transparent" points="-4,4 -4,-207 680,-207 680,4 -4,4"/>
<!-- Node1 -->
<g id="node1" class="node">
<title>Node1</title>
<g id="a_node1"><a xlink:title="Returns (sans copying) pointer to NUL&#45;terminated wrapped name string, suitable to pass into sys calls...">
<polygon fill="#bfbfbf" stroke="black" points="566,-113.5 566,-139.5 676,-139.5 676,-113.5 566,-113.5"/>
<text text-anchor="start" x="574" y="-129.1" font-family="Helvetica,sans-Serif" font-size="8.00">ipc::util::Shared_name</text>
<text text-anchor="middle" x="621" y="-120.1" font-family="Helvetica,sans-Serif" font-size="8.00">::native_str</text>
</a>
</g>
</g>
<!-- Node2 -->
<g id="node2" class="node">
<title>Node2</title>
<g id="a_node2"><a xlink:href="classipc_1_1shm_1_1classic_1_1Pool__arena.html#ac6e915353952b74b4c4aa38dc95f8c51" target="_top" xlink:title="Helper ctor delegated by the 2 public ctors that take Open_or_create or Create_only mode.">
<polygon fill="white" stroke="black" points="400,-176.5 400,-202.5 513,-202.5 513,-176.5 400,-176.5"/>
<text text-anchor="start" x="408" y="-192.1" font-family="Helvetica,sans-Serif" font-size="8.00">ipc::shm::classic::</text>
<text text-anchor="middle" x="456.5" y="-183.1" font-family="Helvetica,sans-Serif" font-size="8.00">Pool_arena::Pool_arena</text>
</a>
</g>
</g>
<!-- Node1&#45;&gt;Node2 -->
<g id="edge1" class="edge">
<title>Node1&#45;&gt;Node2</title>
<path fill="none" stroke="midnightblue" d="M584.41,-144.03C568.05,-151.75 548.26,-160.6 530,-167.5 521.63,-170.66 512.59,-173.69 503.83,-176.44"/>
<polygon fill="midnightblue" stroke="midnightblue" points="586.09,-147.11 593.61,-139.64 583.08,-140.79 586.09,-147.11"/>
</g>
<!-- Node3 -->
<g id="node3" class="node">
<title>Node3</title>
<g id="a_node3"><a xlink:href="classipc_1_1transport_1_1Bipc__mq__handle.html#a982a83871b89211f073dfafa49bb4c27" target="_top" xlink:title="Implements Persistent_mq_handle API: Removes the named persistent MQ.">
<polygon fill="white" stroke="black" points="383,-113.5 383,-139.5 530,-139.5 530,-113.5 383,-113.5"/>
<text text-anchor="start" x="391" y="-129.1" font-family="Helvetica,sans-Serif" font-size="8.00">ipc::transport::Bipc</text>
<text text-anchor="middle" x="456.5" y="-120.1" font-family="Helvetica,sans-Serif" font-size="8.00">_mq_handle::remove_persistent</text>
</a>
</g>
</g>
<!-- Node1&#45;&gt;Node3 -->
<g id="edge2" class="edge">
<title>Node1&#45;&gt;Node3</title>
<path fill="none" stroke="midnightblue" d="M555.78,-126.5C547.37,-126.5 538.71,-126.5 530.17,-126.5"/>
<polygon fill="midnightblue" stroke="midnightblue" points="555.89,-130 565.89,-126.5 555.89,-123 555.89,-130"/>
</g>
<!-- Node4 -->
<g id="node4" class="node">
<title>Node4</title>
<g id="a_node4"><a xlink:href="namespaceipc_1_1util.html#a1cdc0a8d761170faa844c49d37c522ff" target="_top" xlink:title="Equivalent to shm::classic::Pool_arena::remove_persistent().">
<polygon fill="white" stroke="black" points="392,-50.5 392,-76.5 521,-76.5 521,-50.5 392,-50.5"/>
<text text-anchor="start" x="400" y="-66.1" font-family="Helvetica,sans-Serif" font-size="8.00">ipc::util::remove_persistent</text>
<text text-anchor="middle" x="456.5" y="-57.1" font-family="Helvetica,sans-Serif" font-size="8.00">_shm_pool</text>
</a>
</g>
</g>
<!-- Node1&#45;&gt;Node4 -->
<g id="edge4" class="edge">
<title>Node1&#45;&gt;Node4</title>
<path fill="none" stroke="midnightblue" d="M576.79,-109.75C549.95,-99.34 515.96,-86.16 491.13,-76.54"/>
<polygon fill="midnightblue" stroke="midnightblue" points="575.74,-113.09 586.33,-113.45 578.27,-106.57 575.74,-113.09"/>
</g>
<!-- Node3&#45;&gt;Node3 -->
<g id="edge3" class="edge">
<title>Node3&#45;&gt;Node3</title>
<path fill="none" stroke="midnightblue" d="M486.26,-149.58C483.24,-154.47 473.32,-158 456.5,-158 429.59,-158 420.34,-148.96 428.75,-139.77"/>
<polygon fill="midnightblue" stroke="midnightblue" points="489.68,-148.86 484.25,-139.77 482.83,-150.27 489.68,-148.86"/>
</g>
<!-- Node4&#45;&gt;Node4 -->
<g id="edge11" class="edge">
<title>Node4&#45;&gt;Node4</title>
<path fill="none" stroke="midnightblue" d="M486.26,-86.58C483.24,-91.47 473.32,-95 456.5,-95 429.59,-95 420.34,-85.96 428.75,-76.77"/>
<polygon fill="midnightblue" stroke="midnightblue" points="489.68,-85.86 484.25,-76.77 482.83,-87.27 489.68,-85.86"/>
</g>
<!-- Node5 -->
<g id="node5" class="node">
<title>Node5</title>
<g id="a_node5"><a xlink:href="classipc_1_1transport_1_1Blob__stream__mq__base__impl.html#a4776b5f569ccac03eccb3fc2f360fcc9" target="_top" xlink:title="Internal helper for Blob_stream_mq_sender and Blob_stream_mq_receiver that operates both the start an...">
<polygon fill="white" stroke="black" points="220.5,-100 220.5,-135 330.5,-135 330.5,-100 220.5,-100"/>
<text text-anchor="start" x="228.5" y="-124.6" font-family="Helvetica,sans-Serif" font-size="8.00">ipc::transport::Blob</text>
<text text-anchor="start" x="228.5" y="-115.6" font-family="Helvetica,sans-Serif" font-size="8.00">_stream_mq_base_impl</text>
<text text-anchor="middle" x="275.5" y="-106.6" font-family="Helvetica,sans-Serif" font-size="8.00">::ensure_unique_peer</text>
</a>
</g>
</g>
<!-- Node4&#45;&gt;Node5 -->
<g id="edge5" class="edge">
<title>Node4&#45;&gt;Node5</title>
<path fill="none" stroke="midnightblue" d="M402.39,-79.52C379.76,-86.35 353.39,-94.3 330.65,-101.16"/>
<polygon fill="midnightblue" stroke="midnightblue" points="403.61,-82.81 412.17,-76.57 401.58,-76.11 403.61,-82.81"/>
</g>
<!-- Node8 -->
<g id="node8" class="node">
<title>Node8</title>
<g id="a_node8"><a xlink:href="classipc_1_1transport_1_1Blob__stream__mq__base__impl.html#a8877f75af055ab927a4b4c993f0873a2" target="_top" xlink:title="See Blob_stream_mq_base counterpart.">
<polygon fill="white" stroke="black" points="220.5,-46 220.5,-81 330.5,-81 330.5,-46 220.5,-46"/>
<text text-anchor="start" x="228.5" y="-70.6" font-family="Helvetica,sans-Serif" font-size="8.00">ipc::transport::Blob</text>
<text text-anchor="start" x="228.5" y="-61.6" font-family="Helvetica,sans-Serif" font-size="8.00">_stream_mq_base_impl</text>
<text text-anchor="middle" x="275.5" y="-52.6" font-family="Helvetica,sans-Serif" font-size="8.00">::remove_persistent</text>
</a>
</g>
</g>
<!-- Node4&#45;&gt;Node8 -->
<g id="edge8" class="edge">
<title>Node4&#45;&gt;Node8</title>
<path fill="none" stroke="midnightblue" d="M381.43,-63.5C364.44,-63.5 346.69,-63.5 330.72,-63.5"/>
<polygon fill="midnightblue" stroke="midnightblue" points="381.89,-67 391.89,-63.5 381.89,-60 381.89,-67"/>
</g>
<!-- Node10 -->
<g id="node10" class="node">
<title>Node10</title>
<g id="a_node10"><a xlink:href="classipc_1_1shm_1_1classic_1_1Pool__arena.html#aff2327ce7339c1c732ddd4fcd4861ee4" target="_top" xlink:title="Removes the named SHM pool object.">
<polygon fill="white" stroke="black" points="204,-0.5 204,-26.5 347,-26.5 347,-0.5 204,-0.5"/>
<text text-anchor="start" x="212" y="-16.1" font-family="Helvetica,sans-Serif" font-size="8.00">ipc::shm::classic::</text>
<text text-anchor="middle" x="275.5" y="-7.1" font-family="Helvetica,sans-Serif" font-size="8.00">Pool_arena::remove_persistent</text>
</a>
</g>
</g>
<!-- Node4&#45;&gt;Node10 -->
<g id="edge10" class="edge">
<title>Node4&#45;&gt;Node10</title>
<path fill="none" stroke="midnightblue" d="M399.08,-47.74C374.64,-40.91 346.37,-33.02 323.14,-26.53"/>
<polygon fill="midnightblue" stroke="midnightblue" points="398.36,-51.17 408.94,-50.49 400.25,-44.43 398.36,-51.17"/>
</g>
<!-- Node6 -->
<g id="node6" class="node">
<title>Node6</title>
<g id="a_node6"><a xlink:href="classipc_1_1transport_1_1sync__io_1_1Blob__stream__mq__receiver__impl.html#a3e1c13dc986985621ab05de16f9e811c" target="_top" xlink:title="See Blob_stream_mq_receiver counterpart.">
<polygon fill="white" stroke="black" points="0,-154 0,-189 168,-189 168,-154 0,-154"/>
<text text-anchor="start" x="8" y="-178.6" font-family="Helvetica,sans-Serif" font-size="8.00">ipc::transport::sync</text>
<text text-anchor="start" x="8" y="-169.6" font-family="Helvetica,sans-Serif" font-size="8.00">_io::Blob_stream_mq_receiver</text>
<text text-anchor="middle" x="84" y="-160.6" font-family="Helvetica,sans-Serif" font-size="8.00">_impl::Blob_stream_mq_receiver_impl</text>
</a>
</g>
</g>
<!-- Node5&#45;&gt;Node6 -->
<g id="edge6" class="edge">
<title>Node5&#45;&gt;Node6</title>
<path fill="none" stroke="midnightblue" d="M210.78,-135.66C190.03,-141.57 167.05,-148.12 146.47,-153.98"/>
<polygon fill="midnightblue" stroke="midnightblue" points="211.79,-139.01 220.45,-132.9 209.87,-132.28 211.79,-139.01"/>
</g>
<!-- Node7 -->
<g id="node7" class="node">
<title>Node7</title>
<g id="a_node7"><a xlink:href="classipc_1_1transport_1_1sync__io_1_1Blob__stream__mq__sender__impl.html#a71caa7f5002886b2c0717645945d7144" target="_top" xlink:title="See Blob_stream_mq_sender counterpart.">
<polygon fill="white" stroke="black" points="2,-100 2,-135 166,-135 166,-100 2,-100"/>
<text text-anchor="start" x="10" y="-124.6" font-family="Helvetica,sans-Serif" font-size="8.00">ipc::transport::sync</text>
<text text-anchor="start" x="10" y="-115.6" font-family="Helvetica,sans-Serif" font-size="8.00">_io::Blob_stream_mq_sender</text>
<text text-anchor="middle" x="84" y="-106.6" font-family="Helvetica,sans-Serif" font-size="8.00">_impl::Blob_stream_mq_sender_impl</text>
</a>
</g>
</g>
<!-- Node5&#45;&gt;Node7 -->
<g id="edge7" class="edge">
<title>Node5&#45;&gt;Node7</title>
<path fill="none" stroke="midnightblue" d="M210.36,-117.5C196.22,-117.5 181.07,-117.5 166.35,-117.5"/>
<polygon fill="midnightblue" stroke="midnightblue" points="210.45,-121 220.45,-117.5 210.45,-114 210.45,-121"/>
</g>
<!-- Node9 -->
<g id="node9" class="node">
<title>Node9</title>
<g id="a_node9"><a xlink:href="classipc_1_1transport_1_1Blob__stream__mq__base.html#ac1230ff7e73783da730b8639c30511e2" target="_top" xlink:title="Removes the Blob_stream_mq_sender and/or Blob_stream_mq_receiver persistent resources associated with...">
<polygon fill="white" stroke="black" points="21,-46 21,-81 147,-81 147,-46 21,-46"/>
<text text-anchor="start" x="29" y="-70.6" font-family="Helvetica,sans-Serif" font-size="8.00">ipc::transport::Blob</text>
<text text-anchor="start" x="29" y="-61.6" font-family="Helvetica,sans-Serif" font-size="8.00">_stream_mq_base::remove</text>
<text text-anchor="middle" x="84" y="-52.6" font-family="Helvetica,sans-Serif" font-size="8.00">_persistent</text>
</a>
</g>
</g>
<!-- Node8&#45;&gt;Node9 -->
<g id="edge9" class="edge">
<title>Node8&#45;&gt;Node9</title>
<path fill="none" stroke="midnightblue" d="M210.31,-63.5C189.91,-63.5 167.4,-63.5 147.14,-63.5"/>
<polygon fill="midnightblue" stroke="midnightblue" points="210.45,-67 220.45,-63.5 210.45,-60 210.45,-67"/>
</g>
</g>
</svg>
