<?xml version="1.0" encoding="UTF-8" standalone="no"?>
<!DOCTYPE svg PUBLIC "-//W3C//DTD SVG 1.1//EN"
 "http://www.w3.org/Graphics/SVG/1.1/DTD/svg11.dtd">
<!-- Generated by graphviz version 2.43.0 (0)
 -->
<!-- Title: ipc::util::sync_io::Asio_waitable_native_handle::native_handle Pages: 1 -->
<svg width="428pt" height="44pt"
 viewBox="0.00 0.00 428.00 44.00" xmlns="http://www.w3.org/2000/svg" xmlns:xlink="http://www.w3.org/1999/xlink">
<g id="graph0" class="graph" transform="scale(1 1) rotate(0) translate(4 40)">
<title>ipc::util::sync_io::Asio_waitable_native_handle::native_handle</title>
<polygon fill="white" stroke="transparent" points="-4,4 -4,-40 424,-40 424,4 -4,4"/>
<!-- Node1 -->
<g id="node1" class="node">
<title>Node1</title>
<g id="a_node1"><a xlink:title="Returns the same Native_handle as passed to original handle&#45;loading ctor or assign(),...">
<polygon fill="#bfbfbf" stroke="black" points="307,-0.5 307,-35.5 420,-35.5 420,-0.5 307,-0.5"/>
<text text-anchor="start" x="315" y="-25.1" font-family="Helvetica,sans-Serif" font-size="8.00">ipc::util::sync_io</text>
<text text-anchor="start" x="315" y="-16.1" font-family="Helvetica,sans-Serif" font-size="8.00">::Asio_waitable_native</text>
<text text-anchor="middle" x="363.5" y="-7.1" font-family="Helvetica,sans-Serif" font-size="8.00">_handle::native_handle</text>
</a>
</g>
</g>
<!-- Node2 -->
<g id="node2" class="node">
<title>Node2</title>
<g id="a_node2"><a xlink:href="classipc_1_1transport_1_1Native__socket__stream_1_1Impl.html#af5da84616f99cee2b97d25cb1397ad8f" target="_top" xlink:title="Executes a connect&#45;ops&#45;related async&#45;wait as requested by m_sync_io (the sync_io core).">
<polygon fill="white" stroke="black" points="162,-0.5 162,-35.5 271,-35.5 271,-0.5 162,-0.5"/>
<text text-anchor="start" x="170" y="-25.1" font-family="Helvetica,sans-Serif" font-size="8.00">ipc::transport::Native</text>
<text text-anchor="start" x="170" y="-16.1" font-family="Helvetica,sans-Serif" font-size="8.00">_socket_stream::Impl::</text>
<text text-anchor="middle" x="216.5" y="-7.1" font-family="Helvetica,sans-Serif" font-size="8.00">conn_sync_io_ev_wait</text>
</a>
</g>
</g>
<!-- Node1&#45;&gt;Node2 -->
<g id="edge1" class="edge">
<title>Node1&#45;&gt;Node2</title>
<path fill="none" stroke="midnightblue" d="M296.62,-18C288.15,-18 279.57,-18 271.33,-18"/>
<polygon fill="midnightblue" stroke="midnightblue" points="296.85,-21.5 306.85,-18 296.85,-14.5 296.85,-21.5"/>
</g>
<!-- Node3 -->
<g id="node3" class="node">
<title>Node3</title>
<g id="a_node3"><a xlink:href="classipc_1_1transport_1_1Native__socket__stream_1_1Impl.html#ad7c2d6c843935c5413d3dd8fbc39d272" target="_top" xlink:title="See Native_socket_stream counterpart.">
<polygon fill="white" stroke="black" points="0,-5 0,-31 126,-31 126,-5 0,-5"/>
<text text-anchor="start" x="8" y="-20.6" font-family="Helvetica,sans-Serif" font-size="8.00">ipc::transport::Native</text>
<text text-anchor="middle" x="63" y="-11.6" font-family="Helvetica,sans-Serif" font-size="8.00">_socket_stream::Impl::Impl</text>
</a>
</g>
</g>
<!-- Node2&#45;&gt;Node3 -->
<g id="edge2" class="edge">
<title>Node2&#45;&gt;Node3</title>
<path fill="none" stroke="midnightblue" d="M151.55,-18C143.15,-18 134.56,-18 126.2,-18"/>
<polygon fill="midnightblue" stroke="midnightblue" points="151.66,-21.5 161.66,-18 151.66,-14.5 151.66,-21.5"/>
</g>
</g>
</svg>
