<?xml version="1.0" encoding="UTF-8" standalone="no"?>
<!DOCTYPE svg PUBLIC "-//W3C//DTD SVG 1.1//EN"
 "http://www.w3.org/Graphics/SVG/1.1/DTD/svg11.dtd">
<!-- Generated by graphviz version 2.43.0 (0)
 -->
<!-- Title: ipc::session::shm::arena_lend::jemalloc::Client_session_impl&lt; S_MQ_TYPE_OR_NONE, S_TRANSMIT_NATIVE_HANDLES, Mdt_payload &gt; Pages: 1 -->
<svg width="882pt" height="91pt"
 viewBox="0.00 0.00 882.00 91.50" xmlns="http://www.w3.org/2000/svg" xmlns:xlink="http://www.w3.org/1999/xlink">
<g id="graph0" class="graph" transform="scale(1 1) rotate(0) translate(4 87.5)">
<title>ipc::session::shm::arena_lend::jemalloc::Client_session_impl&lt; S_MQ_TYPE_OR_NONE, S_TRANSMIT_NATIVE_HANDLES, Mdt_payload &gt;</title>
<polygon fill="white" stroke="transparent" points="-4,4 -4,-87.5 878,-87.5 878,4 -4,4"/>
<!-- Node1 -->
<g id="node1" class="node">
<title>Node1</title>
<g id="a_node1"><a xlink:title="Core internally&#45;used implementation of shm::arena_lend::jemalloc::Client_session: it is to the latter...">
<polygon fill="#bfbfbf" stroke="black" points="736,-5 736,-67 874,-67 874,-5 736,-5"/>
<text text-anchor="start" x="744" y="-56.6" font-family="Helvetica,sans-Serif" font-size="8.00">ipc::session::shm::</text>
<text text-anchor="start" x="744" y="-47.6" font-family="Helvetica,sans-Serif" font-size="8.00">arena_lend::jemalloc</text>
<text text-anchor="start" x="744" y="-38.6" font-family="Helvetica,sans-Serif" font-size="8.00">::Client_session_impl</text>
<text text-anchor="start" x="744" y="-29.6" font-family="Helvetica,sans-Serif" font-size="8.00">&lt; S_MQ_TYPE_OR_NONE, S</text>
<text text-anchor="start" x="744" y="-20.6" font-family="Helvetica,sans-Serif" font-size="8.00">_TRANSMIT_NATIVE_HANDLES,</text>
<text text-anchor="middle" x="805" y="-11.6" font-family="Helvetica,sans-Serif" font-size="8.00"> Mdt_payload &gt;</text>
</a>
</g>
</g>
<!-- Node2 -->
<g id="node2" class="node">
<title>Node2</title>
<g id="a_node2"><a xlink:href="classipc_1_1session_1_1shm_1_1arena__lend_1_1jemalloc_1_1Session__impl.html" target="_top" xlink:title=" ">
<polygon fill="white" stroke="black" points="505,-0.5 505,-71.5 700,-71.5 700,-0.5 505,-0.5"/>
<text text-anchor="start" x="513" y="-61.1" font-family="Helvetica,sans-Serif" font-size="8.00">ipc::session::shm::</text>
<text text-anchor="start" x="513" y="-52.1" font-family="Helvetica,sans-Serif" font-size="8.00">arena_lend::jemalloc</text>
<text text-anchor="start" x="513" y="-43.1" font-family="Helvetica,sans-Serif" font-size="8.00">::Session_impl&lt; session</text>
<text text-anchor="start" x="513" y="-34.1" font-family="Helvetica,sans-Serif" font-size="8.00">::Client_session_impl&lt;</text>
<text text-anchor="start" x="513" y="-25.1" font-family="Helvetica,sans-Serif" font-size="8.00"> S_MQ_TYPE_OR_NONE, S_TRANSMIT</text>
<text text-anchor="start" x="513" y="-16.1" font-family="Helvetica,sans-Serif" font-size="8.00">_NATIVE_HANDLES, Mdt_payload,</text>
<text text-anchor="middle" x="602.5" y="-7.1" font-family="Helvetica,sans-Serif" font-size="8.00"> session::schema::ShmType::JEMALLOC &gt; &gt;</text>
</a>
</g>
</g>
<!-- Node2&#45;&gt;Node1 -->
<g id="edge1" class="edge">
<title>Node2&#45;&gt;Node1</title>
<path fill="none" stroke="midnightblue" d="M710.37,-36C718.99,-36 727.55,-36 735.79,-36"/>
<polygon fill="midnightblue" stroke="midnightblue" points="710.23,-32.5 700.23,-36 710.23,-39.5 710.23,-32.5"/>
</g>
<!-- Node3 -->
<g id="node3" class="node">
<title>Node3</title>
<g id="a_node3"><a xlink:href="classipc_1_1session_1_1Client__session__impl.html" target="_top" xlink:title=" ">
<polygon fill="white" stroke="black" points="317,-9.5 317,-62.5 469,-62.5 469,-9.5 317,-9.5"/>
<text text-anchor="start" x="325" y="-52.1" font-family="Helvetica,sans-Serif" font-size="8.00">ipc::session::Client</text>
<text text-anchor="start" x="325" y="-43.1" font-family="Helvetica,sans-Serif" font-size="8.00">_session_impl&lt; S_MQ_TYPE</text>
<text text-anchor="start" x="325" y="-34.1" font-family="Helvetica,sans-Serif" font-size="8.00">_OR_NONE, S_TRANSMIT_NATIVE</text>
<text text-anchor="start" x="325" y="-25.1" font-family="Helvetica,sans-Serif" font-size="8.00">_HANDLES, Mdt_payload, session</text>
<text text-anchor="middle" x="393" y="-16.1" font-family="Helvetica,sans-Serif" font-size="8.00">::schema::ShmType::JEMALLOC &gt;</text>
</a>
</g>
</g>
<!-- Node3&#45;&gt;Node2 -->
<g id="edge2" class="edge">
<title>Node3&#45;&gt;Node2</title>
<path fill="none" stroke="midnightblue" d="M479.38,-36C487.8,-36 496.38,-36 504.9,-36"/>
<polygon fill="midnightblue" stroke="midnightblue" points="479.21,-32.5 469.21,-36 479.21,-39.5 479.21,-32.5"/>
</g>
<!-- Node4 -->
<g id="node4" class="node">
<title>Node4</title>
<g id="a_node4"><a xlink:href="classipc_1_1session_1_1Session__base.html" target="_top" xlink:title="Internal type containing data and types common to internal types Server_session_impl and Client_sessi...">
<polygon fill="white" stroke="black" points="135,-39 135,-83 281,-83 281,-39 135,-39"/>
<text text-anchor="start" x="143" y="-72.6" font-family="Helvetica,sans-Serif" font-size="8.00">ipc::session::Session</text>
<text text-anchor="start" x="143" y="-63.6" font-family="Helvetica,sans-Serif" font-size="8.00">_base&lt; S_MQ_TYPE_OR_NONE,</text>
<text text-anchor="start" x="143" y="-54.6" font-family="Helvetica,sans-Serif" font-size="8.00"> S_TRANSMIT_NATIVE_HANDLES,</text>
<text text-anchor="middle" x="208" y="-45.6" font-family="Helvetica,sans-Serif" font-size="8.00"> Mdt_payload &gt;</text>
</a>
</g>
</g>
<!-- Node4&#45;&gt;Node3 -->
<g id="edge3" class="edge">
<title>Node4&#45;&gt;Node3</title>
<path fill="none" stroke="midnightblue" d="M291.11,-49.78C299.73,-48.61 308.46,-47.41 316.99,-46.25"/>
<polygon fill="midnightblue" stroke="midnightblue" points="290.5,-46.33 281.06,-51.16 291.45,-53.27 290.5,-46.33"/>
</g>
<!-- Node5 -->
<g id="node5" class="node">
<title>Node5</title>
<g id="a_node5"><a xlink:title=" ">
<polygon fill="white" stroke="#bfbfbf" points="0,-52.5 0,-69.5 99,-69.5 99,-52.5 0,-52.5"/>
<text text-anchor="middle" x="49.5" y="-59.1" font-family="Helvetica,sans-Serif" font-size="8.00">boost::noncopyable</text>
</a>
</g>
</g>
<!-- Node5&#45;&gt;Node4 -->
<g id="edge4" class="edge">
<title>Node5&#45;&gt;Node4</title>
<path fill="none" stroke="#8b1a1a" d="M109.18,-61C117.54,-61 126.23,-61 134.82,-61"/>
<polygon fill="#8b1a1a" stroke="#8b1a1a" points="109.16,-57.5 99.16,-61 109.16,-64.5 109.16,-57.5"/>
</g>
<!-- Node6 -->
<g id="node6" class="node">
<title>Node6</title>
<g id="a_node6"><a xlink:title=" ">
<polygon fill="white" stroke="#bfbfbf" points="154.5,-2.5 154.5,-19.5 261.5,-19.5 261.5,-2.5 154.5,-2.5"/>
<text text-anchor="middle" x="208" y="-9.1" font-family="Helvetica,sans-Serif" font-size="8.00">flow::log::Log_context</text>
</a>
</g>
</g>
<!-- Node6&#45;&gt;Node3 -->
<g id="edge5" class="edge">
<title>Node6&#45;&gt;Node3</title>
<path fill="none" stroke="midnightblue" d="M272.18,-19.63C286.54,-21.59 301.93,-23.69 316.73,-25.72"/>
<polygon fill="midnightblue" stroke="midnightblue" points="272.31,-16.12 261.93,-18.23 271.37,-23.05 272.31,-16.12"/>
</g>
</g>
</svg>
