<?xml version="1.0" encoding="UTF-8" standalone="no"?>
<!DOCTYPE svg PUBLIC "-//W3C//DTD SVG 1.1//EN"
 "http://www.w3.org/Graphics/SVG/1.1/DTD/svg11.dtd">
<!-- Generated by graphviz version 2.43.0 (0)
 -->
<!-- Title: ipc::session::sync_io::Session_adapter::start_ops Pages: 1 -->
<svg width="259pt" height="44pt"
 viewBox="0.00 0.00 259.00 44.00" xmlns="http://www.w3.org/2000/svg" xmlns:xlink="http://www.w3.org/1999/xlink">
<g id="graph0" class="graph" transform="scale(1 1) rotate(0) translate(4 40)">
<title>ipc::session::sync_io::Session_adapter::start_ops</title>
<polygon fill="white" stroke="transparent" points="-4,4 -4,-40 255,-40 255,4 -4,4"/>
<!-- Node1 -->
<g id="node1" class="node">
<title>Node1</title>
<g id="a_node1"><a xlink:title="See, e.g., Client_session_adapter.">
<polygon fill="#bfbfbf" stroke="black" points="0,-0.5 0,-35.5 102,-35.5 102,-0.5 0,-0.5"/>
<text text-anchor="start" x="8" y="-25.1" font-family="Helvetica,sans-Serif" font-size="8.00">ipc::session::sync</text>
<text text-anchor="start" x="8" y="-16.1" font-family="Helvetica,sans-Serif" font-size="8.00">_io::Session_adapter</text>
<text text-anchor="middle" x="51" y="-7.1" font-family="Helvetica,sans-Serif" font-size="8.00">::start_ops</text>
</a>
</g>
</g>
<!-- Node2 -->
<g id="node2" class="node">
<title>Node2</title>
<g id="a_node2"><a xlink:href="namespaceipc_1_1util.html#a814272e555c0592b0caf92b7bc3d64b3" target="_top" xlink:title="Reads a byte via the given pipe reader.">
<polygon fill="white" stroke="black" points="138,-9.5 138,-26.5 251,-26.5 251,-9.5 138,-9.5"/>
<text text-anchor="middle" x="194.5" y="-16.1" font-family="Helvetica,sans-Serif" font-size="8.00">ipc::util::pipe_consume</text>
</a>
</g>
</g>
<!-- Node1&#45;&gt;Node2 -->
<g id="edge1" class="edge">
<title>Node1&#45;&gt;Node2</title>
<path fill="none" stroke="midnightblue" d="M102.29,-18C110.42,-18 118.95,-18 127.38,-18"/>
<polygon fill="midnightblue" stroke="midnightblue" points="127.6,-21.5 137.6,-18 127.6,-14.5 127.6,-21.5"/>
</g>
</g>
</svg>
