<?xml version="1.0" encoding="UTF-8" standalone="no"?>
<!DOCTYPE svg PUBLIC "-//W3C//DTD SVG 1.1//EN"
 "http://www.w3.org/Graphics/SVG/1.1/DTD/svg11.dtd">
<!-- Generated by graphviz version 2.43.0 (0)
 -->
<!-- Title: ipc::transport::struc::Heap_fixed_builder_capnp_message_builder Pages: 1 -->
<svg width="145pt" height="98pt"
 viewBox="0.00 0.00 145.00 98.00" xmlns="http://www.w3.org/2000/svg" xmlns:xlink="http://www.w3.org/1999/xlink">
<g id="graph0" class="graph" transform="scale(1 1) rotate(0) translate(4 94)">
<title>ipc::transport::struc::Heap_fixed_builder_capnp_message_builder</title>
<polygon fill="white" stroke="transparent" points="-4,4 -4,-94 141,-94 141,4 -4,4"/>
<!-- Node1 -->
<g id="node1" class="node">
<title>Node1</title>
<g id="a_node1"><a xlink:title="A capnp::MessageBuilder used by Heap_fixed_builder: similar to a capnp::MallocMessageBuilder with the...">
<polygon fill="#bfbfbf" stroke="black" points="9,-0.5 9,-35.5 128,-35.5 128,-0.5 9,-0.5"/>
<text text-anchor="start" x="17" y="-25.1" font-family="Helvetica,sans-Serif" font-size="8.00">ipc::transport::struc</text>
<text text-anchor="start" x="17" y="-16.1" font-family="Helvetica,sans-Serif" font-size="8.00">::Heap_fixed_builder</text>
<text text-anchor="middle" x="68.5" y="-7.1" font-family="Helvetica,sans-Serif" font-size="8.00">_capnp_message_builder</text>
</a>
</g>
</g>
<!-- Node2 -->
<g id="node2" class="node">
<title>Node2</title>
<g id="a_node2"><a xlink:href="classCapnp__msg__builder__interface.html" target="_top" xlink:title=" ">
<polygon fill="white" stroke="#bfbfbf" points="0,-72.5 0,-89.5 137,-89.5 137,-72.5 0,-72.5"/>
<text text-anchor="middle" x="68.5" y="-79.1" font-family="Helvetica,sans-Serif" font-size="8.00">Capnp_msg_builder_interface</text>
</a>
</g>
</g>
<!-- Node2&#45;&gt;Node1 -->
<g id="edge1" class="edge">
<title>Node2&#45;&gt;Node1</title>
<path fill="none" stroke="midnightblue" d="M68.5,-62.11C68.5,-53.74 68.5,-43.83 68.5,-35.62"/>
<polygon fill="midnightblue" stroke="midnightblue" points="65,-62.27 68.5,-72.27 72,-62.27 65,-62.27"/>
</g>
</g>
</svg>
