<?xml version="1.0" encoding="UTF-8" standalone="no"?>
<!DOCTYPE svg PUBLIC "-//W3C//DTD SVG 1.1//EN"
 "http://www.w3.org/Graphics/SVG/1.1/DTD/svg11.dtd">
<!-- Generated by graphviz version 2.43.0 (0)
 -->
<!-- Title: ipc::util::Shared_name Pages: 1 -->
<svg width="267pt" height="207pt"
 viewBox="0.00 0.00 267.00 207.00" xmlns="http://www.w3.org/2000/svg" xmlns:xlink="http://www.w3.org/1999/xlink">
<g id="graph0" class="graph" transform="scale(1 1) rotate(0) translate(4 203)">
<title>ipc::util::Shared_name</title>
<polygon fill="white" stroke="transparent" points="-4,4 -4,-203 263,-203 263,4 -4,4"/>
<!-- Node1 -->
<g id="node1" class="node">
<title>Node1</title>
<g id="a_node1"><a xlink:title="String&#45;wrapping abstraction representing a name uniquely distinguishing a kernel&#45;persistent entity fr...">
<polygon fill="#bfbfbf" stroke="black" points="54,-27.5 54,-44.5 164,-44.5 164,-27.5 54,-27.5"/>
<text text-anchor="middle" x="109" y="-34.1" font-family="Helvetica,sans-Serif" font-size="8.00">ipc::util::Shared_name</text>
</a>
</g>
</g>
<!-- Node1&#45;&gt;Node1 -->
<g id="edge1" class="edge">
<title>Node1&#45;&gt;Node1</title>
<path fill="none" stroke="#9a32cd" stroke-dasharray="5,2" d="M142.52,-46.17C162.82,-48.49 182,-45.1 182,-36 182,-25.41 156.03,-22.55 132.55,-27.44"/>
<polygon fill="#9a32cd" stroke="#9a32cd" points="142.98,-42.69 132.55,-44.56 141.87,-49.6 142.98,-42.69"/>
<text text-anchor="middle" x="220.5" y="-65.6" font-family="Helvetica,sans-Serif" font-size="8.00"> S_1ST_OR_ONLY</text>
<text text-anchor="middle" x="220.5" y="-56.6" font-family="Helvetica,sans-Serif" font-size="8.00">S_EMPTY</text>
<text text-anchor="start" x="182" y="-47.6" font-family="Helvetica,sans-Serif" font-size="8.00">S_RESOURCE_TYPE</text>
<text text-anchor="middle" x="220.5" y="-38.6" font-family="Helvetica,sans-Serif" font-size="8.00">_ID_MUTEX</text>
<text text-anchor="start" x="182" y="-29.6" font-family="Helvetica,sans-Serif" font-size="8.00">S_RESOURCE_TYPE</text>
<text text-anchor="middle" x="220.5" y="-20.6" font-family="Helvetica,sans-Serif" font-size="8.00">_ID_SHM</text>
<text text-anchor="middle" x="220.5" y="-11.6" font-family="Helvetica,sans-Serif" font-size="8.00">S_ROOT_MAGIC</text>
<text text-anchor="middle" x="220.5" y="-2.6" font-family="Helvetica,sans-Serif" font-size="8.00">S_SENTINEL</text>
</g>
<!-- Node2 -->
<g id="node2" class="node">
<title>Node2</title>
<g id="a_node2"><a xlink:title=" ">
<polygon fill="white" stroke="#bfbfbf" points="0,-117.5 0,-134.5 40,-134.5 40,-117.5 0,-117.5"/>
<text text-anchor="middle" x="20" y="-124.1" font-family="Helvetica,sans-Serif" font-size="8.00">size_t</text>
</a>
</g>
</g>
<!-- Node2&#45;&gt;Node1 -->
<g id="edge2" class="edge">
<title>Node2&#45;&gt;Node1</title>
<path fill="none" stroke="#9a32cd" stroke-dasharray="5,2" d="M27.32,-108.14C30.41,-102.06 34.38,-95.37 39,-90 55.69,-70.58 80.62,-53.82 95.79,-44.6"/>
<polygon fill="#9a32cd" stroke="#9a32cd" points="24.02,-106.92 22.97,-117.46 30.37,-109.88 24.02,-106.92"/>
<text text-anchor="middle" x="72" y="-92.6" font-family="Helvetica,sans-Serif" font-size="8.00"> S_MAX_LENGTH</text>
</g>
<!-- Node3 -->
<g id="node3" class="node">
<title>Node3</title>
<g id="a_node3"><a xlink:title=" ">
<polygon fill="white" stroke="#bfbfbf" points="67,-117.5 67,-134.5 151,-134.5 151,-117.5 67,-117.5"/>
<text text-anchor="middle" x="109" y="-124.1" font-family="Helvetica,sans-Serif" font-size="8.00">static const char</text>
</a>
</g>
</g>
<!-- Node3&#45;&gt;Node1 -->
<g id="edge3" class="edge">
<title>Node3&#45;&gt;Node1</title>
<path fill="none" stroke="#9a32cd" stroke-dasharray="5,2" d="M109,-107.44C109,-88.34 109,-58.67 109,-44.73"/>
<polygon fill="#9a32cd" stroke="#9a32cd" points="105.5,-107.5 109,-117.5 112.5,-107.5 105.5,-107.5"/>
<text text-anchor="middle" x="138" y="-92.6" font-family="Helvetica,sans-Serif" font-size="8.00"> S_SEPARATOR</text>
</g>
<!-- Node4 -->
<g id="node4" class="node">
<title>Node4</title>
<g id="a_node4"><a xlink:title=" ">
<polygon fill="white" stroke="black" points="169.5,-117.5 169.5,-134.5 228.5,-134.5 228.5,-117.5 169.5,-117.5"/>
<text text-anchor="middle" x="199" y="-124.1" font-family="Helvetica,sans-Serif" font-size="8.00">std::string</text>
</a>
</g>
</g>
<!-- Node4&#45;&gt;Node1 -->
<g id="edge4" class="edge">
<title>Node4&#45;&gt;Node1</title>
<path fill="none" stroke="#9a32cd" stroke-dasharray="5,2" d="M187.36,-109.16C182.54,-102.97 176.75,-95.94 171,-90 154.06,-72.5 131.9,-54.59 119.17,-44.72"/>
<polygon fill="#9a32cd" stroke="#9a32cd" points="184.77,-111.55 193.59,-117.42 190.36,-107.33 184.77,-111.55"/>
<text text-anchor="middle" x="207" y="-92.6" font-family="Helvetica,sans-Serif" font-size="8.00"> m_raw_name</text>
</g>
<!-- Node5 -->
<g id="node5" class="node">
<title>Node5</title>
<g id="a_node5"><a xlink:title=" ">
<polygon fill="white" stroke="black" points="153.5,-172.5 153.5,-198.5 244.5,-198.5 244.5,-172.5 153.5,-172.5"/>
<text text-anchor="start" x="161.5" y="-188.1" font-family="Helvetica,sans-Serif" font-size="8.00">std::basic_string&lt;</text>
<text text-anchor="middle" x="199" y="-179.1" font-family="Helvetica,sans-Serif" font-size="8.00"> Char &gt;</text>
</a>
</g>
</g>
<!-- Node5&#45;&gt;Node4 -->
<g id="edge5" class="edge">
<title>Node5&#45;&gt;Node4</title>
<path fill="none" stroke="midnightblue" d="M199,-162.08C199,-152.43 199,-141.78 199,-134.77"/>
<polygon fill="midnightblue" stroke="midnightblue" points="195.5,-162.31 199,-172.31 202.5,-162.31 195.5,-162.31"/>
</g>
</g>
</svg>
