<?xml version="1.0" encoding="UTF-8" standalone="no"?>
<!DOCTYPE svg PUBLIC "-//W3C//DTD SVG 1.1//EN"
 "http://www.w3.org/Graphics/SVG/1.1/DTD/svg11.dtd">
<!-- Generated by graphviz version 2.43.0 (0)
 -->
<!-- Title: ipc::transport::struc::Msg_out::Msg_out Pages: 1 -->
<svg width="246pt" height="35pt"
 viewBox="0.00 0.00 246.00 35.00" xmlns="http://www.w3.org/2000/svg" xmlns:xlink="http://www.w3.org/1999/xlink">
<g id="graph0" class="graph" transform="scale(1 1) rotate(0) translate(4 31)">
<title>ipc::transport::struc::Msg_out::Msg_out</title>
<polygon fill="white" stroke="transparent" points="-4,4 -4,-31 242,-31 242,4 -4,4"/>
<!-- Node1 -->
<g id="node1" class="node">
<title>Node1</title>
<g id="a_node1"><a xlink:title="Move ctor: Make *this equal to src, while src becomes as&#45;if default&#45;cted (in that any operation excep...">
<polygon fill="#bfbfbf" stroke="black" points="0,-0.5 0,-26.5 98,-26.5 98,-0.5 0,-0.5"/>
<text text-anchor="start" x="8" y="-16.1" font-family="Helvetica,sans-Serif" font-size="8.00">ipc::transport::struc</text>
<text text-anchor="middle" x="49" y="-7.1" font-family="Helvetica,sans-Serif" font-size="8.00">::Msg_out::Msg_out</text>
</a>
</g>
</g>
<!-- Node2 -->
<g id="node2" class="node">
<title>Node2</title>
<g id="a_node2"><a xlink:href="classipc_1_1transport_1_1struc_1_1Msg__out.html#a6a9b086eedafe0a5fc71695812677cdb" target="_top" xlink:title="Move assignment: Destroy *this contents; make *this equal to src, while src becomes as&#45;if default&#45;cte...">
<polygon fill="white" stroke="black" points="134,-0.5 134,-26.5 238,-26.5 238,-0.5 134,-0.5"/>
<text text-anchor="start" x="142" y="-16.1" font-family="Helvetica,sans-Serif" font-size="8.00">ipc::transport::struc</text>
<text text-anchor="middle" x="186" y="-7.1" font-family="Helvetica,sans-Serif" font-size="8.00">::Msg_out::operator=</text>
</a>
</g>
</g>
<!-- Node1&#45;&gt;Node2 -->
<g id="edge1" class="edge">
<title>Node1&#45;&gt;Node2</title>
<path fill="none" stroke="midnightblue" d="M98.36,-13.5C106.53,-13.5 115.12,-13.5 123.57,-13.5"/>
<polygon fill="midnightblue" stroke="midnightblue" points="123.79,-17 133.79,-13.5 123.79,-10 123.79,-17"/>
</g>
</g>
</svg>
