<?xml version="1.0" encoding="UTF-8" standalone="no"?>
<!DOCTYPE svg PUBLIC "-//W3C//DTD SVG 1.1//EN"
 "http://www.w3.org/Graphics/SVG/1.1/DTD/svg11.dtd">
<!-- Generated by graphviz version 2.43.0 (0)
 -->
<!-- Title: Allocator Pages: 1 -->
<svg width="97pt" height="98pt"
 viewBox="0.00 0.00 97.00 98.00" xmlns="http://www.w3.org/2000/svg" xmlns:xlink="http://www.w3.org/1999/xlink">
<g id="graph0" class="graph" transform="scale(1 1) rotate(0) translate(4 94)">
<title>Allocator</title>
<polygon fill="white" stroke="transparent" points="-4,4 -4,-94 93,-94 93,4 -4,4"/>
<!-- Node1 -->
<g id="node1" class="node">
<title>Node1</title>
<g id="a_node1"><a xlink:title=" ">
<polygon fill="#bfbfbf" stroke="black" points="18,-72.5 18,-89.5 71,-89.5 71,-72.5 18,-72.5"/>
<text text-anchor="middle" x="44.5" y="-79.1" font-family="Helvetica,sans-Serif" font-size="8.00">Allocator</text>
</a>
</g>
</g>
<!-- Node2 -->
<g id="node2" class="node">
<title>Node2</title>
<g id="a_node2"><a xlink:href="classipc_1_1util_1_1Default__init__allocator.html" target="_top" xlink:title="Allocator adaptor (useful for, e.g., vector that skips zero&#45;filling) that turns a value&#45;initializatio...">
<polygon fill="white" stroke="black" points="0,-0.5 0,-35.5 89,-35.5 89,-0.5 0,-0.5"/>
<text text-anchor="start" x="8" y="-25.1" font-family="Helvetica,sans-Serif" font-size="8.00">ipc::util::Default</text>
<text text-anchor="start" x="8" y="-16.1" font-family="Helvetica,sans-Serif" font-size="8.00">_init_allocator&lt; T,</text>
<text text-anchor="middle" x="44.5" y="-7.1" font-family="Helvetica,sans-Serif" font-size="8.00"> Allocator &gt;</text>
</a>
</g>
</g>
<!-- Node1&#45;&gt;Node2 -->
<g id="edge1" class="edge">
<title>Node1&#45;&gt;Node2</title>
<path fill="none" stroke="midnightblue" d="M44.5,-62.11C44.5,-53.74 44.5,-43.83 44.5,-35.62"/>
<polygon fill="midnightblue" stroke="midnightblue" points="41,-62.27 44.5,-72.27 48,-62.27 41,-62.27"/>
</g>
</g>
</svg>
