<?xml version="1.0" encoding="UTF-8" standalone="no"?>
<!DOCTYPE svg PUBLIC "-//W3C//DTD SVG 1.1//EN"
 "http://www.w3.org/Graphics/SVG/1.1/DTD/svg11.dtd">
<!-- Generated by graphviz version 2.43.0 (0)
 -->
<!-- Title: ipc::session::sync_io::Server_session_adapter&lt; Session &gt; Pages: 1 -->
<svg width="700pt" height="523pt"
 viewBox="0.00 0.00 700.00 523.48" xmlns="http://www.w3.org/2000/svg" xmlns:xlink="http://www.w3.org/1999/xlink">
<g id="graph0" class="graph" transform="scale(1 1) rotate(0) translate(4 519.48)">
<title>ipc::session::sync_io::Server_session_adapter&lt; Session &gt;</title>
<polygon fill="white" stroke="transparent" points="-4,4 -4,-519.48 696,-519.48 696,4 -4,4"/>
<!-- Node1 -->
<g id="node1" class="node">
<title>Node1</title>
<g id="a_node1"><a xlink:title="sync_io&#45;pattern counterpart to async&#45;I/O&#45;pattern session::Server_session types and all their SHM&#45;awar...">
<polygon fill="#bfbfbf" stroke="black" points="589,-178.98 589,-213.98 692,-213.98 692,-178.98 589,-178.98"/>
<text text-anchor="start" x="597" y="-203.58" font-family="Helvetica,sans-Serif" font-size="8.00">ipc::session::sync</text>
<text text-anchor="start" x="597" y="-194.58" font-family="Helvetica,sans-Serif" font-size="8.00">_io::Server_session</text>
<text text-anchor="middle" x="640.5" y="-185.58" font-family="Helvetica,sans-Serif" font-size="8.00">_adapter&lt; Session &gt;</text>
</a>
</g>
</g>
<!-- Node2 -->
<g id="node2" class="node">
<title>Node2</title>
<g id="a_node2"><a xlink:href="classipc_1_1session_1_1sync__io_1_1Session__adapter.html" target="_top" xlink:title="Internal&#45;use workhorse containing common elements of Client_session_adapter and Server_session_adapte...">
<polygon fill="white" stroke="black" points="450,-211.98 450,-246.98 552,-246.98 552,-211.98 450,-211.98"/>
<text text-anchor="start" x="458" y="-236.58" font-family="Helvetica,sans-Serif" font-size="8.00">ipc::session::sync</text>
<text text-anchor="start" x="458" y="-227.58" font-family="Helvetica,sans-Serif" font-size="8.00">_io::Session_adapter</text>
<text text-anchor="middle" x="501" y="-218.58" font-family="Helvetica,sans-Serif" font-size="8.00">&lt; Session &gt;</text>
</a>
</g>
</g>
<!-- Node2&#45;&gt;Node1 -->
<g id="edge1" class="edge">
<title>Node2&#45;&gt;Node1</title>
<path fill="none" stroke="#8b1a1a" d="M562.01,-215.07C570.95,-212.93 580.09,-210.73 588.82,-208.64"/>
<polygon fill="#8b1a1a" stroke="#8b1a1a" points="560.94,-211.73 552.03,-217.47 562.57,-218.54 560.94,-211.73"/>
</g>
<!-- Node3 -->
<g id="node3" class="node">
<title>Node3</title>
<g id="a_node3"><a xlink:title=" ">
<polygon fill="white" stroke="#bfbfbf" points="203,-469.98 203,-486.98 270,-486.98 270,-469.98 203,-469.98"/>
<text text-anchor="middle" x="236.5" y="-476.58" font-family="Helvetica,sans-Serif" font-size="8.00">Task_engine</text>
</a>
</g>
</g>
<!-- Node3&#45;&gt;Node2 -->
<g id="edge2" class="edge">
<title>Node3&#45;&gt;Node2</title>
<path fill="none" stroke="#9a32cd" stroke-dasharray="5,2" d="M280.19,-486.08C323.46,-491.22 389.88,-491.68 432,-456.48 496.4,-402.65 501.34,-290.46 500.69,-247.11"/>
<polygon fill="#9a32cd" stroke="#9a32cd" points="280.62,-482.61 270.25,-484.77 279.71,-489.55 280.62,-482.61"/>
<text text-anchor="start" x="328" y="-509.08" font-family="Helvetica,sans-Serif" font-size="8.00"> m_ev_hndl_task_engine</text>
<text text-anchor="middle" x="377.5" y="-500.08" font-family="Helvetica,sans-Serif" font-size="8.00">_unused</text>
<text text-anchor="middle" x="377.5" y="-491.08" font-family="Helvetica,sans-Serif" font-size="8.00">m_nb_task_engine</text>
</g>
<!-- Node4 -->
<g id="node4" class="node">
<title>Node4</title>
<g id="a_node4"><a xlink:title=" ">
<polygon fill="white" stroke="#bfbfbf" points="199,-428.98 199,-445.98 274,-445.98 274,-428.98 199,-428.98"/>
<text text-anchor="middle" x="236.5" y="-435.58" font-family="Helvetica,sans-Serif" font-size="8.00">readable_pipe</text>
</a>
</g>
</g>
<!-- Node4&#45;&gt;Node2 -->
<g id="edge3" class="edge">
<title>Node4&#45;&gt;Node2</title>
<path fill="none" stroke="#9a32cd" stroke-dasharray="5,2" d="M284.34,-437.43C334.48,-436.45 409.82,-431.98 432,-414.48 485.19,-372.5 496.78,-284.79 499.3,-247.2"/>
<polygon fill="#9a32cd" stroke="#9a32cd" points="283.99,-433.94 274.05,-437.59 284.1,-440.94 283.99,-433.94"/>
<text text-anchor="middle" x="377.5" y="-447.08" font-family="Helvetica,sans-Serif" font-size="8.00"> m_ready_reader_chan</text>
<text text-anchor="middle" x="377.5" y="-438.08" font-family="Helvetica,sans-Serif" font-size="8.00">m_ready_reader_err</text>
</g>
<!-- Node5 -->
<g id="node5" class="node">
<title>Node5</title>
<g id="a_node5"><a xlink:title=" ">
<polygon fill="white" stroke="#bfbfbf" points="201,-392.98 201,-409.98 272,-409.98 272,-392.98 201,-392.98"/>
<text text-anchor="middle" x="236.5" y="-399.58" font-family="Helvetica,sans-Serif" font-size="8.00">writable_pipe</text>
</a>
</g>
</g>
<!-- Node5&#45;&gt;Node2 -->
<g id="edge4" class="edge">
<title>Node5&#45;&gt;Node2</title>
<path fill="none" stroke="#9a32cd" stroke-dasharray="5,2" d="M282.39,-399.56C324.88,-395.64 388.48,-384.08 432,-350.48 466.71,-323.67 486.44,-273.82 494.94,-247.24"/>
<polygon fill="#9a32cd" stroke="#9a32cd" points="282.01,-396.08 272.33,-400.38 282.58,-403.06 282.01,-396.08"/>
<text text-anchor="middle" x="377.5" y="-404.08" font-family="Helvetica,sans-Serif" font-size="8.00"> m_ready_writer_chan</text>
<text text-anchor="middle" x="377.5" y="-395.08" font-family="Helvetica,sans-Serif" font-size="8.00">m_ready_writer_err</text>
</g>
<!-- Node6 -->
<g id="node6" class="node">
<title>Node6</title>
<g id="a_node6"><a xlink:href="classipc_1_1util_1_1sync__io_1_1Asio__waitable__native__handle.html" target="_top" xlink:title="Useful if using the sync_io pattern within a user event loop built on boost.asio (optionally with flo...">
<polygon fill="white" stroke="black" points="182.5,-338.98 182.5,-373.98 290.5,-373.98 290.5,-338.98 182.5,-338.98"/>
<text text-anchor="start" x="190.5" y="-363.58" font-family="Helvetica,sans-Serif" font-size="8.00">ipc::util::sync_io</text>
<text text-anchor="start" x="190.5" y="-354.58" font-family="Helvetica,sans-Serif" font-size="8.00">::Asio_waitable_native</text>
<text text-anchor="middle" x="236.5" y="-345.58" font-family="Helvetica,sans-Serif" font-size="8.00">_handle</text>
</a>
</g>
</g>
<!-- Node6&#45;&gt;Node2 -->
<g id="edge5" class="edge">
<title>Node6&#45;&gt;Node2</title>
<path fill="none" stroke="#9a32cd" stroke-dasharray="5,2" d="M300.51,-336.73C339.56,-323.32 390.1,-303.8 432,-280.48 449.02,-271 466.57,-257.74 479.57,-247.11"/>
<polygon fill="#9a32cd" stroke="#9a32cd" points="299.19,-333.48 290.84,-340.01 301.43,-340.11 299.19,-333.48"/>
<text text-anchor="middle" x="377.5" y="-340.08" font-family="Helvetica,sans-Serif" font-size="8.00"> m_ev_wait_hndl_chan</text>
<text text-anchor="middle" x="377.5" y="-331.08" font-family="Helvetica,sans-Serif" font-size="8.00">m_ev_wait_hndl_err</text>
</g>
<!-- Node7 -->
<g id="node7" class="node">
<title>Node7</title>
<g id="a_node7"><a xlink:title=" ">
<polygon fill="white" stroke="#bfbfbf" points="0,-343.48 0,-369.48 91,-369.48 91,-343.48 0,-343.48"/>
<text text-anchor="start" x="8" y="-359.08" font-family="Helvetica,sans-Serif" font-size="8.00">boost::asio::posix</text>
<text text-anchor="middle" x="45.5" y="-350.08" font-family="Helvetica,sans-Serif" font-size="8.00">::descriptor</text>
</a>
</g>
</g>
<!-- Node7&#45;&gt;Node6 -->
<g id="edge6" class="edge">
<title>Node7&#45;&gt;Node6</title>
<path fill="none" stroke="darkgreen" d="M101.52,-356.48C126.97,-356.48 157.08,-356.48 182.3,-356.48"/>
<polygon fill="darkgreen" stroke="darkgreen" points="101.29,-352.98 91.29,-356.48 101.29,-359.98 101.29,-352.98"/>
</g>
<!-- Node8 -->
<g id="node8" class="node">
<title>Node8</title>
<g id="a_node8"><a xlink:title=" ">
<polygon fill="white" stroke="#bfbfbf" points="175,-257.48 175,-319.48 298,-319.48 298,-257.48 175,-257.48"/>
<text text-anchor="start" x="183" y="-309.08" font-family="Helvetica,sans-Serif" font-size="8.00">Function&lt; void(Asio</text>
<text text-anchor="start" x="183" y="-300.08" font-family="Helvetica,sans-Serif" font-size="8.00">_waitable_native_handle</text>
<text text-anchor="start" x="183" y="-291.08" font-family="Helvetica,sans-Serif" font-size="8.00"> *hndl_of_interest, bool</text>
<text text-anchor="start" x="183" y="-282.08" font-family="Helvetica,sans-Serif" font-size="8.00"> ev_of_interest_snd_else</text>
<text text-anchor="start" x="183" y="-273.08" font-family="Helvetica,sans-Serif" font-size="8.00">_rcv, Task_ptr &amp;&amp;on_active</text>
<text text-anchor="middle" x="236.5" y="-264.08" font-family="Helvetica,sans-Serif" font-size="8.00">_ev_func)&gt;</text>
</a>
</g>
</g>
<!-- Node8&#45;&gt;Node2 -->
<g id="edge7" class="edge">
<title>Node8&#45;&gt;Node2</title>
<path fill="none" stroke="#9a32cd" stroke-dasharray="5,2" d="M307.99,-272.63C352.78,-262.56 409.69,-249.77 449.88,-240.74"/>
<polygon fill="#9a32cd" stroke="#9a32cd" points="307.04,-269.26 298.05,-274.87 308.58,-276.09 307.04,-269.26"/>
<text text-anchor="middle" x="377.5" y="-270.08" font-family="Helvetica,sans-Serif" font-size="8.00"> m_ev_wait_func</text>
</g>
<!-- Node9 -->
<g id="node9" class="node">
<title>Node9</title>
<g id="a_node9"><a xlink:title=" ">
<polygon fill="white" stroke="#bfbfbf" points="201,-220.98 201,-237.98 272,-237.98 272,-220.98 201,-220.98"/>
<text text-anchor="middle" x="236.5" y="-227.58" font-family="Helvetica,sans-Serif" font-size="8.00">Task_asio_err</text>
</a>
</g>
</g>
<!-- Node9&#45;&gt;Node2 -->
<g id="edge8" class="edge">
<title>Node9&#45;&gt;Node2</title>
<path fill="none" stroke="#9a32cd" stroke-dasharray="5,2" d="M282.15,-229.48C328.58,-229.48 401.13,-229.48 449.59,-229.48"/>
<polygon fill="#9a32cd" stroke="#9a32cd" points="282.09,-225.98 272.09,-229.48 282.09,-232.98 282.09,-225.98"/>
<text text-anchor="middle" x="377.5" y="-232.08" font-family="Helvetica,sans-Serif" font-size="8.00"> m_on_err_func</text>
</g>
<!-- Node10 -->
<g id="node10" class="node">
<title>Node10</title>
<g id="a_node10"><a xlink:title=" ">
<polygon fill="white" stroke="#bfbfbf" points="168,-175.48 168,-201.48 305,-201.48 305,-175.48 168,-175.48"/>
<text text-anchor="start" x="176" y="-191.08" font-family="Helvetica,sans-Serif" font-size="8.00">Function&lt; void(Channel</text>
<text text-anchor="middle" x="236.5" y="-182.08" font-family="Helvetica,sans-Serif" font-size="8.00">_obj &amp;&amp;, Mdt_reader_ptr &amp;&amp;)&gt;</text>
</a>
</g>
</g>
<!-- Node10&#45;&gt;Node2 -->
<g id="edge9" class="edge">
<title>Node10&#45;&gt;Node2</title>
<path fill="none" stroke="#9a32cd" stroke-dasharray="5,2" d="M315.48,-192.24C351.25,-194.95 394.06,-199.58 432,-207.48 437.83,-208.69 443.87,-210.22 449.82,-211.91"/>
<polygon fill="#9a32cd" stroke="#9a32cd" points="315.33,-188.72 305.1,-191.49 314.82,-195.7 315.33,-188.72"/>
<text text-anchor="start" x="330" y="-219.08" font-family="Helvetica,sans-Serif" font-size="8.00"> m_on_channel_func_or</text>
<text text-anchor="middle" x="377.5" y="-210.08" font-family="Helvetica,sans-Serif" font-size="8.00">_empty</text>
</g>
<!-- Node11 -->
<g id="node11" class="node">
<title>Node11</title>
<g id="a_node11"><a xlink:title=" ">
<polygon fill="white" stroke="#bfbfbf" points="206.5,-138.98 206.5,-155.98 266.5,-155.98 266.5,-138.98 206.5,-138.98"/>
<text text-anchor="middle" x="236.5" y="-145.58" font-family="Helvetica,sans-Serif" font-size="8.00">Error_code</text>
</a>
</g>
</g>
<!-- Node11&#45;&gt;Node2 -->
<g id="edge10" class="edge">
<title>Node11&#45;&gt;Node2</title>
<path fill="none" stroke="#9a32cd" stroke-dasharray="5,2" d="M276.88,-146.27C318.22,-146.72 383.79,-152.45 432,-180.48 442.92,-186.82 440.26,-194.43 450,-202.48 454.11,-205.87 458.71,-209.03 463.41,-211.91"/>
<polygon fill="#9a32cd" stroke="#9a32cd" points="276.67,-142.77 266.66,-146.26 276.66,-149.77 276.67,-142.77"/>
<text text-anchor="middle" x="377.5" y="-183.08" font-family="Helvetica,sans-Serif" font-size="8.00"> m_target_err_code_err</text>
</g>
<!-- Node12 -->
<g id="node12" class="node">
<title>Node12</title>
<g id="a_node12"><a xlink:title=" ">
<polygon fill="white" stroke="black" points="180.5,-84.98 180.5,-119.98 292.5,-119.98 292.5,-84.98 180.5,-84.98"/>
<text text-anchor="start" x="188.5" y="-109.58" font-family="Helvetica,sans-Serif" font-size="8.00">std::queue&lt; typename</text>
<text text-anchor="start" x="188.5" y="-100.58" font-family="Helvetica,sans-Serif" font-size="8.00"> Channel_open_result</text>
<text text-anchor="middle" x="236.5" y="-91.58" font-family="Helvetica,sans-Serif" font-size="8.00">::Ptr &gt;</text>
</a>
</g>
</g>
<!-- Node12&#45;&gt;Node2 -->
<g id="edge11" class="edge">
<title>Node12&#45;&gt;Node2</title>
<path fill="none" stroke="#9a32cd" stroke-dasharray="5,2" d="M302.68,-97.19C344.59,-97.42 397.47,-105.02 432,-136.48 454.48,-156.95 431.1,-178.66 450,-202.48 452.82,-206.03 456.24,-209.18 459.96,-211.95"/>
<polygon fill="#9a32cd" stroke="#9a32cd" points="302.53,-93.69 292.56,-97.27 302.58,-100.69 302.53,-93.69"/>
<text text-anchor="middle" x="377.5" y="-139.08" font-family="Helvetica,sans-Serif" font-size="8.00"> m_target_channel_open_q</text>
</g>
<!-- Node13 -->
<g id="node13" class="node">
<title>Node13</title>
<g id="a_node13"><a xlink:title=" ">
<polygon fill="white" stroke="#bfbfbf" points="31,-93.98 31,-110.98 60,-110.98 60,-93.98 31,-93.98"/>
<text text-anchor="middle" x="45.5" y="-100.58" font-family="Helvetica,sans-Serif" font-size="8.00">Ptr</text>
</a>
</g>
</g>
<!-- Node13&#45;&gt;Node12 -->
<g id="edge12" class="edge">
<title>Node13&#45;&gt;Node12</title>
<path fill="none" stroke="#9a32cd" stroke-dasharray="5,2" d="M70.31,-102.48C97.76,-102.48 143.78,-102.48 180.29,-102.48"/>
<polygon fill="#9a32cd" stroke="#9a32cd" points="70.09,-98.98 60.09,-102.48 70.09,-105.98 70.09,-98.98"/>
<text text-anchor="middle" x="129.5" y="-105.08" font-family="Helvetica,sans-Serif" font-size="8.00"> elements</text>
</g>
<!-- Node14 -->
<g id="node14" class="node">
<title>Node14</title>
<g id="a_node14"><a xlink:title=" ">
<polygon fill="white" stroke="#bfbfbf" points="186,-48.98 186,-65.98 287,-65.98 287,-48.98 186,-48.98"/>
<text text-anchor="middle" x="236.5" y="-55.58" font-family="Helvetica,sans-Serif" font-size="8.00">Mutex_non_recursive</text>
</a>
</g>
</g>
<!-- Node14&#45;&gt;Node2 -->
<g id="edge13" class="edge">
<title>Node14&#45;&gt;Node2</title>
<path fill="none" stroke="#9a32cd" stroke-dasharray="5,2" d="M284.39,-47.37C328.49,-40.86 393.33,-39.49 432,-76.48 472.88,-115.58 417.65,-156.07 450,-202.48 452.48,-206.04 455.59,-209.17 459.03,-211.92"/>
<polygon fill="#9a32cd" stroke="#9a32cd" points="283.81,-43.92 274.49,-48.97 284.92,-50.83 283.81,-43.92"/>
<text text-anchor="start" x="327.5" y="-88.08" font-family="Helvetica,sans-Serif" font-size="8.00"> m_target_channel_open</text>
<text text-anchor="middle" x="377.5" y="-79.08" font-family="Helvetica,sans-Serif" font-size="8.00">_q_mutex</text>
</g>
<!-- Node15 -->
<g id="node15" class="node">
<title>Node15</title>
<g id="a_node15"><a xlink:title=" ">
<polygon fill="white" stroke="#bfbfbf" points="182,-3.48 182,-29.48 291,-29.48 291,-3.48 182,-3.48"/>
<text text-anchor="start" x="190" y="-19.08" font-family="Helvetica,sans-Serif" font-size="8.00">optional&lt; ipc::session</text>
<text text-anchor="middle" x="236.5" y="-10.08" font-family="Helvetica,sans-Serif" font-size="8.00">::Session &gt;</text>
</a>
</g>
</g>
<!-- Node15&#45;&gt;Node2 -->
<g id="edge14" class="edge">
<title>Node15&#45;&gt;Node2</title>
<path fill="none" stroke="#9a32cd" stroke-dasharray="5,2" d="M301.22,-2.43C343.91,2.94 398.28,1.31 432,-31.48 459.39,-58.11 428.73,-170.73 450,-202.48 452.31,-205.92 455.2,-208.96 458.43,-211.63"/>
<polygon fill="#9a32cd" stroke="#9a32cd" points="300.61,1.02 291.19,-3.84 301.58,-5.91 300.61,1.02"/>
<text text-anchor="middle" x="377.5" y="-34.08" font-family="Helvetica,sans-Serif" font-size="8.00"> m_async_io</text>
</g>
<!-- Node16 -->
<g id="node16" class="node">
<title>Node16</title>
<g id="a_node16"><a xlink:title=" ">
<polygon fill="white" stroke="#bfbfbf" points="451.5,-175.98 451.5,-192.98 550.5,-192.98 550.5,-175.98 451.5,-175.98"/>
<text text-anchor="middle" x="501" y="-182.58" font-family="Helvetica,sans-Serif" font-size="8.00">boost::noncopyable</text>
</a>
</g>
</g>
<!-- Node16&#45;&gt;Node1 -->
<g id="edge15" class="edge">
<title>Node16&#45;&gt;Node1</title>
<path fill="none" stroke="#8b1a1a" d="M560.87,-189.61C570.21,-190.43 579.8,-191.27 588.93,-192.06"/>
<polygon fill="#8b1a1a" stroke="#8b1a1a" points="561.13,-186.12 550.86,-188.74 560.52,-193.1 561.13,-186.12"/>
</g>
</g>
</svg>
