<?xml version="1.0" encoding="UTF-8" standalone="no"?>
<!DOCTYPE svg PUBLIC "-//W3C//DTD SVG 1.1//EN"
 "http://www.w3.org/Graphics/SVG/1.1/DTD/svg11.dtd">
<!-- Generated by graphviz version 2.43.0 (0)
 -->
<!-- Title: ipc::util::Process_credentials::own_process_credentials Pages: 1 -->
<svg width="306pt" height="180pt"
 viewBox="0.00 0.00 306.00 179.50" xmlns="http://www.w3.org/2000/svg" xmlns:xlink="http://www.w3.org/1999/xlink">
<g id="graph0" class="graph" transform="scale(1 1) rotate(0) translate(4 175.5)">
<title>ipc::util::Process_credentials::own_process_credentials</title>
<polygon fill="white" stroke="transparent" points="-4,4 -4,-175.5 302,-175.5 302,4 -4,4"/>
<!-- Node1 -->
<g id="node1" class="node">
<title>Node1</title>
<g id="a_node1"><a xlink:title="Constructs and returns Process_credentials containing values pertaining to the calling process at thi...">
<polygon fill="#bfbfbf" stroke="black" points="0,-72.5 0,-107.5 125,-107.5 125,-72.5 0,-72.5"/>
<text text-anchor="start" x="8" y="-97.1" font-family="Helvetica,sans-Serif" font-size="8.00">ipc::util::Process</text>
<text text-anchor="start" x="8" y="-88.1" font-family="Helvetica,sans-Serif" font-size="8.00">_credentials::own_process</text>
<text text-anchor="middle" x="62.5" y="-79.1" font-family="Helvetica,sans-Serif" font-size="8.00">_credentials</text>
</a>
</g>
</g>
<!-- Node2 -->
<g id="node2" class="node">
<title>Node2</title>
<g id="a_node2"><a xlink:href="classipc_1_1util_1_1Process__credentials.html#a9c4074f11192a1193afb019d04753cd2" target="_top" xlink:title="Obtains the calling process&#39;s effective group_id().">
<polygon fill="white" stroke="black" points="165.5,-145 165.5,-171 293.5,-171 293.5,-145 165.5,-145"/>
<text text-anchor="start" x="173.5" y="-160.6" font-family="Helvetica,sans-Serif" font-size="8.00">ipc::util::Process</text>
<text text-anchor="middle" x="229.5" y="-151.6" font-family="Helvetica,sans-Serif" font-size="8.00">_credentials::own_group_id</text>
</a>
</g>
</g>
<!-- Node1&#45;&gt;Node2 -->
<g id="edge1" class="edge">
<title>Node1&#45;&gt;Node2</title>
<path fill="none" stroke="midnightblue" d="M98.23,-107.69C116.64,-116.73 139.78,-127.57 161,-136 165.82,-137.91 170.87,-139.79 175.96,-141.59"/>
<polygon fill="midnightblue" stroke="midnightblue" points="175.13,-145.01 185.72,-144.96 177.41,-138.39 175.13,-145.01"/>
</g>
<!-- Node3 -->
<g id="node3" class="node">
<title>Node3</title>
<g id="a_node3"><a xlink:href="classipc_1_1util_1_1Process__credentials.html#a18c901aeeed11c91afcc6379260f02a5" target="_top" xlink:title="Obtains the calling process&#39;s process_id().">
<polygon fill="white" stroke="black" points="161,-100 161,-126 298,-126 298,-100 161,-100"/>
<text text-anchor="start" x="169" y="-115.6" font-family="Helvetica,sans-Serif" font-size="8.00">ipc::util::Process</text>
<text text-anchor="middle" x="229.5" y="-106.6" font-family="Helvetica,sans-Serif" font-size="8.00">_credentials::own_process_id</text>
</a>
</g>
</g>
<!-- Node1&#45;&gt;Node3 -->
<g id="edge2" class="edge">
<title>Node1&#45;&gt;Node3</title>
<path fill="none" stroke="midnightblue" d="M125.41,-98.63C133.76,-99.79 142.4,-101 150.98,-102.19"/>
<polygon fill="midnightblue" stroke="midnightblue" points="150.6,-105.68 160.99,-103.59 151.57,-98.74 150.6,-105.68"/>
</g>
<!-- Node4 -->
<g id="node4" class="node">
<title>Node4</title>
<g id="a_node4"><a xlink:href="classipc_1_1util_1_1Process__credentials.html#a9a14d2788f0aaf91042206d5f6e5cabd" target="_top" xlink:title="Obtains the calling process&#39;s effective user_id().">
<polygon fill="white" stroke="black" points="168.5,-55 168.5,-81 290.5,-81 290.5,-55 168.5,-55"/>
<text text-anchor="start" x="176.5" y="-70.6" font-family="Helvetica,sans-Serif" font-size="8.00">ipc::util::Process</text>
<text text-anchor="middle" x="229.5" y="-61.6" font-family="Helvetica,sans-Serif" font-size="8.00">_credentials::own_user_id</text>
</a>
</g>
</g>
<!-- Node1&#45;&gt;Node4 -->
<g id="edge3" class="edge">
<title>Node1&#45;&gt;Node4</title>
<path fill="none" stroke="midnightblue" d="M125.41,-81.75C136.19,-80.31 147.47,-78.8 158.46,-77.34"/>
<polygon fill="midnightblue" stroke="midnightblue" points="158.98,-80.8 168.43,-76.01 158.06,-73.86 158.98,-80.8"/>
</g>
<!-- Node5 -->
<g id="node5" class="node">
<title>Node5</title>
<g id="a_node5"><a xlink:href="classipc_1_1util_1_1Process__credentials.html#a3840b767894abdd17cf9a7b5b2dfbf3c" target="_top" xlink:title="Default ctor: each value is initialized to zero or equivalent.">
<polygon fill="white" stroke="black" points="177.5,-0.5 177.5,-35.5 281.5,-35.5 281.5,-0.5 177.5,-0.5"/>
<text text-anchor="start" x="185.5" y="-25.1" font-family="Helvetica,sans-Serif" font-size="8.00">ipc::util::Process</text>
<text text-anchor="start" x="185.5" y="-16.1" font-family="Helvetica,sans-Serif" font-size="8.00">_credentials::Process</text>
<text text-anchor="middle" x="229.5" y="-7.1" font-family="Helvetica,sans-Serif" font-size="8.00">_credentials</text>
</a>
</g>
</g>
<!-- Node1&#45;&gt;Node5 -->
<g id="edge4" class="edge">
<title>Node1&#45;&gt;Node5</title>
<path fill="none" stroke="midnightblue" d="M101.81,-72.38C119.74,-64.23 141.4,-54.48 161,-46 165.95,-43.86 171.11,-41.66 176.29,-39.47"/>
<polygon fill="midnightblue" stroke="midnightblue" points="177.7,-42.67 185.57,-35.58 174.99,-36.22 177.7,-42.67"/>
</g>
</g>
</svg>
