<?xml version="1.0" encoding="UTF-8" standalone="no"?>
<!DOCTYPE svg PUBLIC "-//W3C//DTD SVG 1.1//EN"
 "http://www.w3.org/Graphics/SVG/1.1/DTD/svg11.dtd">
<!-- Generated by graphviz version 2.43.0 (0)
 -->
<!-- Title: ipc::transport::Channel::init_native_handle_pipe Pages: 1 -->
<svg width="275pt" height="35pt"
 viewBox="0.00 0.00 275.00 35.00" xmlns="http://www.w3.org/2000/svg" xmlns:xlink="http://www.w3.org/1999/xlink">
<g id="graph0" class="graph" transform="scale(1 1) rotate(0) translate(4 31)">
<title>ipc::transport::Channel::init_native_handle_pipe</title>
<polygon fill="white" stroke="transparent" points="-4,4 -4,-31 271,-31 271,4 -4,4"/>
<!-- Node1 -->
<g id="node1" class="node">
<title>Node1</title>
<g id="a_node1"><a xlink:title="Analogous to 1&#45;arg init_blob_pipe() but as applied to the handles pipe.">
<polygon fill="#bfbfbf" stroke="black" points="148,-0.5 148,-26.5 267,-26.5 267,-0.5 148,-0.5"/>
<text text-anchor="start" x="156" y="-16.1" font-family="Helvetica,sans-Serif" font-size="8.00">ipc::transport::Channel</text>
<text text-anchor="middle" x="207.5" y="-7.1" font-family="Helvetica,sans-Serif" font-size="8.00">::init_native_handle_pipe</text>
</a>
</g>
</g>
<!-- Node2 -->
<g id="node2" class="node">
<title>Node2</title>
<g id="a_node2"><a xlink:href="classipc_1_1transport_1_1Channel.html#add016cbac936d3da6c861755ac88b7a2" target="_top" xlink:title="Converts a sync_io&#45;peer&#45;bearing *this to a returned async&#45;I/O&#45;peer&#45;bearing new Channel,...">
<polygon fill="white" stroke="black" points="0,-0.5 0,-26.5 112,-26.5 112,-0.5 0,-0.5"/>
<text text-anchor="start" x="8" y="-16.1" font-family="Helvetica,sans-Serif" font-size="8.00">ipc::transport::Channel</text>
<text text-anchor="middle" x="56" y="-7.1" font-family="Helvetica,sans-Serif" font-size="8.00">::async_io_obj</text>
</a>
</g>
</g>
<!-- Node1&#45;&gt;Node2 -->
<g id="edge1" class="edge">
<title>Node1&#45;&gt;Node2</title>
<path fill="none" stroke="midnightblue" d="M137.8,-13.5C129.18,-13.5 120.45,-13.5 112.07,-13.5"/>
<polygon fill="midnightblue" stroke="midnightblue" points="137.84,-17 147.84,-13.5 137.84,-10 137.84,-17"/>
</g>
</g>
</svg>
