<?xml version="1.0" encoding="UTF-8" standalone="no"?>
<!DOCTYPE svg PUBLIC "-//W3C//DTD SVG 1.1//EN"
 "http://www.w3.org/Graphics/SVG/1.1/DTD/svg11.dtd">
<!-- Generated by graphviz version 2.43.0 (0)
 -->
<!-- Title: ipc::session::shm::classic::Session_mv&lt; Session_t &gt; Pages: 1 -->
<svg width="372pt" height="62pt"
 viewBox="0.00 0.00 372.00 62.00" xmlns="http://www.w3.org/2000/svg" xmlns:xlink="http://www.w3.org/1999/xlink">
<g id="graph0" class="graph" transform="scale(1 1) rotate(0) translate(4 58)">
<title>ipc::session::shm::classic::Session_mv&lt; Session_t &gt;</title>
<polygon fill="white" stroke="transparent" points="-4,4 -4,-58 368,-58 368,4 -4,4"/>
<!-- Node1 -->
<g id="node1" class="node">
<title>Node1</title>
<g id="a_node1"><a xlink:title="Implements the SHM&#45;related API common to shm::classic::Server_session and shm::classic::Client_sessio...">
<polygon fill="#bfbfbf" stroke="black" points="92,-9.5 92,-44.5 190,-44.5 190,-9.5 92,-9.5"/>
<text text-anchor="start" x="100" y="-34.1" font-family="Helvetica,sans-Serif" font-size="8.00">ipc::session::shm::</text>
<text text-anchor="start" x="100" y="-25.1" font-family="Helvetica,sans-Serif" font-size="8.00">classic::Session_mv</text>
<text text-anchor="middle" x="141" y="-16.1" font-family="Helvetica,sans-Serif" font-size="8.00">&lt; Session_t &gt;</text>
</a>
</g>
</g>
<!-- Node3 -->
<g id="node3" class="node">
<title>Node3</title>
<g id="a_node3"><a xlink:href="classipc_1_1session_1_1shm_1_1classic_1_1Server__session.html" target="_top" xlink:title="Identical to session::Server_session in every way, except that it makes available two SHM arenas,...">
<polygon fill="white" stroke="black" points="226,-0.5 226,-53.5 364,-53.5 364,-0.5 226,-0.5"/>
<text text-anchor="start" x="234" y="-43.1" font-family="Helvetica,sans-Serif" font-size="8.00">ipc::session::shm::</text>
<text text-anchor="start" x="234" y="-34.1" font-family="Helvetica,sans-Serif" font-size="8.00">classic::Server_session</text>
<text text-anchor="start" x="234" y="-25.1" font-family="Helvetica,sans-Serif" font-size="8.00">&lt; S_MQ_TYPE_OR_NONE, S</text>
<text text-anchor="start" x="234" y="-16.1" font-family="Helvetica,sans-Serif" font-size="8.00">_TRANSMIT_NATIVE_HANDLES,</text>
<text text-anchor="middle" x="295" y="-7.1" font-family="Helvetica,sans-Serif" font-size="8.00"> Mdt_payload &gt;</text>
</a>
</g>
</g>
<!-- Node1&#45;&gt;Node3 -->
<g id="edge2" class="edge">
<title>Node1&#45;&gt;Node3</title>
<path fill="none" stroke="midnightblue" d="M200.19,-27C208.61,-27 217.35,-27 225.95,-27"/>
<polygon fill="midnightblue" stroke="midnightblue" points="200.09,-23.5 190.09,-27 200.09,-30.5 200.09,-23.5"/>
</g>
<!-- Node2 -->
<g id="node2" class="node">
<title>Node2</title>
<g id="a_node2"><a xlink:href="classSession__t.html" target="_top" xlink:title=" ">
<polygon fill="white" stroke="#bfbfbf" points="0,-18.5 0,-35.5 56,-35.5 56,-18.5 0,-18.5"/>
<text text-anchor="middle" x="28" y="-25.1" font-family="Helvetica,sans-Serif" font-size="8.00">Session_t</text>
</a>
</g>
</g>
<!-- Node2&#45;&gt;Node1 -->
<g id="edge1" class="edge">
<title>Node2&#45;&gt;Node1</title>
<path fill="none" stroke="midnightblue" d="M66.21,-27C74.45,-27 83.31,-27 91.91,-27"/>
<polygon fill="midnightblue" stroke="midnightblue" points="66.15,-23.5 56.15,-27 66.15,-30.5 66.15,-23.5"/>
</g>
</g>
</svg>
