<?xml version="1.0" encoding="UTF-8" standalone="no"?>
<!DOCTYPE svg PUBLIC "-//W3C//DTD SVG 1.1//EN"
 "http://www.w3.org/Graphics/SVG/1.1/DTD/svg11.dtd">
<!-- Generated by graphviz version 2.43.0 (0)
 -->
<!-- Title: ipc::session::shm::classic::Session_mv&lt; Session_t &gt; Pages: 1 -->
<svg width="106pt" height="98pt"
 viewBox="0.00 0.00 106.00 98.00" xmlns="http://www.w3.org/2000/svg" xmlns:xlink="http://www.w3.org/1999/xlink">
<g id="graph0" class="graph" transform="scale(1 1) rotate(0) translate(4 94)">
<title>ipc::session::shm::classic::Session_mv&lt; Session_t &gt;</title>
<polygon fill="white" stroke="transparent" points="-4,4 -4,-94 102,-94 102,4 -4,4"/>
<!-- Node1 -->
<g id="node1" class="node">
<title>Node1</title>
<g id="a_node1"><a xlink:title="Implements the SHM&#45;related API common to shm::classic::Server_session and shm::classic::Client_sessio...">
<polygon fill="#bfbfbf" stroke="black" points="0,-0.5 0,-35.5 98,-35.5 98,-0.5 0,-0.5"/>
<text text-anchor="start" x="8" y="-25.1" font-family="Helvetica,sans-Serif" font-size="8.00">ipc::session::shm::</text>
<text text-anchor="start" x="8" y="-16.1" font-family="Helvetica,sans-Serif" font-size="8.00">classic::Session_mv</text>
<text text-anchor="middle" x="49" y="-7.1" font-family="Helvetica,sans-Serif" font-size="8.00">&lt; Session_t &gt;</text>
</a>
</g>
</g>
<!-- Node2 -->
<g id="node2" class="node">
<title>Node2</title>
<g id="a_node2"><a xlink:href="classSession__t.html" target="_top" xlink:title=" ">
<polygon fill="white" stroke="#bfbfbf" points="21,-72.5 21,-89.5 77,-89.5 77,-72.5 21,-72.5"/>
<text text-anchor="middle" x="49" y="-79.1" font-family="Helvetica,sans-Serif" font-size="8.00">Session_t</text>
</a>
</g>
</g>
<!-- Node2&#45;&gt;Node1 -->
<g id="edge1" class="edge">
<title>Node2&#45;&gt;Node1</title>
<path fill="none" stroke="midnightblue" d="M49,-62.11C49,-53.74 49,-43.83 49,-35.62"/>
<polygon fill="midnightblue" stroke="midnightblue" points="45.5,-62.27 49,-72.27 52.5,-62.27 45.5,-62.27"/>
</g>
</g>
</svg>
