<?xml version="1.0" encoding="UTF-8" standalone="no"?>
<!DOCTYPE svg PUBLIC "-//W3C//DTD SVG 1.1//EN"
 "http://www.w3.org/Graphics/SVG/1.1/DTD/svg11.dtd">
<!-- Generated by graphviz version 2.43.0 (0)
 -->
<!-- Title: ipc::transport::struc::Heap_fixed_builder_capnp_message_builder::n_segments Pages: 1 -->
<svg width="282pt" height="53pt"
 viewBox="0.00 0.00 282.00 53.00" xmlns="http://www.w3.org/2000/svg" xmlns:xlink="http://www.w3.org/1999/xlink">
<g id="graph0" class="graph" transform="scale(1 1) rotate(0) translate(4 49)">
<title>ipc::transport::struc::Heap_fixed_builder_capnp_message_builder::n_segments</title>
<polygon fill="white" stroke="transparent" points="-4,4 -4,-49 278,-49 278,4 -4,4"/>
<!-- Node1 -->
<g id="node1" class="node">
<title>Node1</title>
<g id="a_node1"><a xlink:title="Returns what target_blob_ptrs.size() would return after calling emit_segment_blobs(&amp;target_blob_ptrs)...">
<polygon fill="#bfbfbf" stroke="black" points="155,-0.5 155,-44.5 274,-44.5 274,-0.5 155,-0.5"/>
<text text-anchor="start" x="163" y="-34.1" font-family="Helvetica,sans-Serif" font-size="8.00">ipc::transport::struc</text>
<text text-anchor="start" x="163" y="-25.1" font-family="Helvetica,sans-Serif" font-size="8.00">::Heap_fixed_builder</text>
<text text-anchor="start" x="163" y="-16.1" font-family="Helvetica,sans-Serif" font-size="8.00">_capnp_message_builder</text>
<text text-anchor="middle" x="214.5" y="-7.1" font-family="Helvetica,sans-Serif" font-size="8.00">::n_segments</text>
</a>
</g>
</g>
<!-- Node2 -->
<g id="node2" class="node">
<title>Node2</title>
<g id="a_node2"><a xlink:href="classipc_1_1transport_1_1struc_1_1Heap__fixed__builder__capnp__message__builder.html#a478c109e008dd33b04b605278c1b2a54" target="_top" xlink:title="Returns pointers to Blobs which are the serialization segments at this time.">
<polygon fill="white" stroke="black" points="0,-0.5 0,-44.5 119,-44.5 119,-0.5 0,-0.5"/>
<text text-anchor="start" x="8" y="-34.1" font-family="Helvetica,sans-Serif" font-size="8.00">ipc::transport::struc</text>
<text text-anchor="start" x="8" y="-25.1" font-family="Helvetica,sans-Serif" font-size="8.00">::Heap_fixed_builder</text>
<text text-anchor="start" x="8" y="-16.1" font-family="Helvetica,sans-Serif" font-size="8.00">_capnp_message_builder</text>
<text text-anchor="middle" x="59.5" y="-7.1" font-family="Helvetica,sans-Serif" font-size="8.00">::emit_segment_blobs</text>
</a>
</g>
</g>
<!-- Node1&#45;&gt;Node2 -->
<g id="edge1" class="edge">
<title>Node1&#45;&gt;Node2</title>
<path fill="none" stroke="midnightblue" d="M144.51,-22.5C136.01,-22.5 127.38,-22.5 119.06,-22.5"/>
<polygon fill="midnightblue" stroke="midnightblue" points="144.78,-26 154.78,-22.5 144.78,-19 144.78,-26"/>
</g>
</g>
</svg>
