<?xml version="1.0" encoding="UTF-8" standalone="no"?>
<!DOCTYPE svg PUBLIC "-//W3C//DTD SVG 1.1//EN"
 "http://www.w3.org/Graphics/SVG/1.1/DTD/svg11.dtd">
<!-- Generated by graphviz version 2.43.0 (0)
 -->
<!-- Title: ipc::transport::Native_socket_stream::Impl::receive_meta_blob_max_size Pages: 1 -->
<svg width="434pt" height="44pt"
 viewBox="0.00 0.00 434.00 44.00" xmlns="http://www.w3.org/2000/svg" xmlns:xlink="http://www.w3.org/1999/xlink">
<g id="graph0" class="graph" transform="scale(1 1) rotate(0) translate(4 40)">
<title>ipc::transport::Native_socket_stream::Impl::receive_meta_blob_max_size</title>
<polygon fill="white" stroke="transparent" points="-4,4 -4,-40 430,-40 430,4 -4,4"/>
<!-- Node1 -->
<g id="node1" class="node">
<title>Node1</title>
<g id="a_node1"><a xlink:title="See Native_socket_stream counterpart.">
<polygon fill="#bfbfbf" stroke="black" points="0,-0.5 0,-35.5 134,-35.5 134,-0.5 0,-0.5"/>
<text text-anchor="start" x="8" y="-25.1" font-family="Helvetica,sans-Serif" font-size="8.00">ipc::transport::Native</text>
<text text-anchor="start" x="8" y="-16.1" font-family="Helvetica,sans-Serif" font-size="8.00">_socket_stream::Impl::</text>
<text text-anchor="middle" x="67" y="-7.1" font-family="Helvetica,sans-Serif" font-size="8.00">receive_meta_blob_max_size</text>
</a>
</g>
</g>
<!-- Node2 -->
<g id="node2" class="node">
<title>Node2</title>
<g id="a_node2"><a xlink:href="classipc_1_1transport_1_1Native__socket__stream.html#adb667160fd0ab3951d93d219d7bdc3be" target="_top" xlink:title="Implements Blob_receiver API per contract.">
<polygon fill="white" stroke="black" points="170,-0.5 170,-35.5 286,-35.5 286,-0.5 170,-0.5"/>
<text text-anchor="start" x="178" y="-25.1" font-family="Helvetica,sans-Serif" font-size="8.00">ipc::transport::Native</text>
<text text-anchor="start" x="178" y="-16.1" font-family="Helvetica,sans-Serif" font-size="8.00">_socket_stream::receive</text>
<text text-anchor="middle" x="228" y="-7.1" font-family="Helvetica,sans-Serif" font-size="8.00">_blob_max_size</text>
</a>
</g>
</g>
<!-- Node1&#45;&gt;Node2 -->
<g id="edge1" class="edge">
<title>Node1&#45;&gt;Node2</title>
<path fill="none" stroke="midnightblue" d="M134.05,-18C142.48,-18 151.12,-18 159.57,-18"/>
<polygon fill="midnightblue" stroke="midnightblue" points="159.77,-21.5 169.76,-18 159.76,-14.5 159.77,-21.5"/>
</g>
<!-- Node3 -->
<g id="node3" class="node">
<title>Node3</title>
<g id="a_node3"><a xlink:href="classipc_1_1transport_1_1Native__socket__stream.html#a0d0416ffe729877dad845e88c3609974" target="_top" xlink:title="Helper that simply returns m_impl while guaranteeing that m_impl is non&#45;null upon return.">
<polygon fill="white" stroke="black" points="322,-5 322,-31 426,-31 426,-5 322,-5"/>
<text text-anchor="start" x="330" y="-20.6" font-family="Helvetica,sans-Serif" font-size="8.00">ipc::transport::Native</text>
<text text-anchor="middle" x="374" y="-11.6" font-family="Helvetica,sans-Serif" font-size="8.00">_socket_stream::impl</text>
</a>
</g>
</g>
<!-- Node2&#45;&gt;Node3 -->
<g id="edge2" class="edge">
<title>Node2&#45;&gt;Node3</title>
<path fill="none" stroke="midnightblue" d="M286.33,-18C294.69,-18 303.33,-18 311.77,-18"/>
<polygon fill="midnightblue" stroke="midnightblue" points="311.93,-21.5 321.93,-18 311.93,-14.5 311.93,-21.5"/>
</g>
</g>
</svg>
