<?xml version="1.0" encoding="UTF-8" standalone="no"?>
<!DOCTYPE svg PUBLIC "-//W3C//DTD SVG 1.1//EN"
 "http://www.w3.org/Graphics/SVG/1.1/DTD/svg11.dtd">
<!-- Generated by graphviz version 2.43.0 (0)
 -->
<!-- Title: ipc::transport::Posix_mq_handle::max_msg_size Pages: 1 -->
<svg width="290pt" height="90pt"
 viewBox="0.00 0.00 290.00 89.50" xmlns="http://www.w3.org/2000/svg" xmlns:xlink="http://www.w3.org/1999/xlink">
<g id="graph0" class="graph" transform="scale(1 1) rotate(0) translate(4 85.5)">
<title>ipc::transport::Posix_mq_handle::max_msg_size</title>
<polygon fill="white" stroke="transparent" points="-4,4 -4,-85.5 286,-85.5 286,4 -4,4"/>
<!-- Node1 -->
<g id="node1" class="node">
<title>Node1</title>
<g id="a_node1"><a xlink:title="Implements Persistent_mq_handle API: Returns the max message size of the underlying queue.">
<polygon fill="#bfbfbf" stroke="black" points="0,-25.5 0,-51.5 130,-51.5 130,-25.5 0,-25.5"/>
<text text-anchor="start" x="8" y="-41.1" font-family="Helvetica,sans-Serif" font-size="8.00">ipc::transport::Posix</text>
<text text-anchor="middle" x="65" y="-32.1" font-family="Helvetica,sans-Serif" font-size="8.00">_mq_handle::max_msg_size</text>
</a>
</g>
</g>
<!-- Node2 -->
<g id="node2" class="node">
<title>Node2</title>
<g id="a_node2"><a xlink:href="classipc_1_1transport_1_1Posix__mq__handle.html#a244ee5da96550553edca346d77c2a825" target="_top" xlink:title="Helper that handles the result of an mq_*() call by logging WARNING(s) on error; setting *err_code on...">
<polygon fill="white" stroke="black" points="166,-46 166,-81 282,-81 282,-46 166,-46"/>
<text text-anchor="start" x="174" y="-70.6" font-family="Helvetica,sans-Serif" font-size="8.00">ipc::transport::Posix</text>
<text text-anchor="start" x="174" y="-61.6" font-family="Helvetica,sans-Serif" font-size="8.00">_mq_handle::handle_mq</text>
<text text-anchor="middle" x="224" y="-52.6" font-family="Helvetica,sans-Serif" font-size="8.00">_api_result</text>
</a>
</g>
</g>
<!-- Node1&#45;&gt;Node2 -->
<g id="edge1" class="edge">
<title>Node1&#45;&gt;Node2</title>
<path fill="none" stroke="midnightblue" d="M130.31,-48.74C138.62,-50.06 147.15,-51.42 155.5,-52.75"/>
<polygon fill="midnightblue" stroke="midnightblue" points="155.16,-56.24 165.59,-54.36 156.26,-49.33 155.16,-56.24"/>
</g>
<!-- Node3 -->
<g id="node3" class="node">
<title>Node3</title>
<g id="a_node3"><a xlink:href="structipc_1_1util_1_1Native__handle.html#a11bd62ce0a7bef4bdfe666201c26d4dc" target="_top" xlink:title="Returns true if and only if m_native_handle equals S_NULL_HANDLE.">
<polygon fill="white" stroke="black" points="168,-0.5 168,-26.5 280,-26.5 280,-0.5 168,-0.5"/>
<text text-anchor="start" x="176" y="-16.1" font-family="Helvetica,sans-Serif" font-size="8.00">ipc::util::Native_handle</text>
<text text-anchor="middle" x="224" y="-7.1" font-family="Helvetica,sans-Serif" font-size="8.00">::null</text>
</a>
</g>
</g>
<!-- Node1&#45;&gt;Node3 -->
<g id="edge2" class="edge">
<title>Node1&#45;&gt;Node3</title>
<path fill="none" stroke="midnightblue" d="M130.31,-28.26C139.29,-26.83 148.53,-25.36 157.54,-23.92"/>
<polygon fill="midnightblue" stroke="midnightblue" points="158.25,-27.35 167.58,-22.33 157.15,-20.44 158.25,-27.35"/>
</g>
</g>
</svg>
