<?xml version="1.0" encoding="UTF-8" standalone="no"?>
<!DOCTYPE svg PUBLIC "-//W3C//DTD SVG 1.1//EN"
 "http://www.w3.org/Graphics/SVG/1.1/DTD/svg11.dtd">
<!-- Generated by graphviz version 2.43.0 (0)
 -->
<!-- Title: ipc::session::Session_base&lt; S_MQ_TYPE_OR_NONE, S_TRANSMIT_NATIVE_HANDLES, Mdt_payload &gt; Pages: 1 -->
<svg width="958pt" height="498pt"
 viewBox="0.00 0.00 958.00 498.00" xmlns="http://www.w3.org/2000/svg" xmlns:xlink="http://www.w3.org/1999/xlink">
<g id="graph0" class="graph" transform="scale(1 1) rotate(0) translate(4 494)">
<title>ipc::session::Session_base&lt; S_MQ_TYPE_OR_NONE, S_TRANSMIT_NATIVE_HANDLES, Mdt_payload &gt;</title>
<polygon fill="white" stroke="transparent" points="-4,4 -4,-494 954,-494 954,4 -4,4"/>
<!-- Node1 -->
<g id="node1" class="node">
<title>Node1</title>
<g id="a_node1"><a xlink:title="Internal type containing data and types common to internal types Server_session_impl and Client_sessi...">
<polygon fill="#bfbfbf" stroke="black" points="135,-203 135,-247 281,-247 281,-203 135,-203"/>
<text text-anchor="start" x="143" y="-236.6" font-family="Helvetica,sans-Serif" font-size="8.00">ipc::session::Session</text>
<text text-anchor="start" x="143" y="-227.6" font-family="Helvetica,sans-Serif" font-size="8.00">_base&lt; S_MQ_TYPE_OR_NONE,</text>
<text text-anchor="start" x="143" y="-218.6" font-family="Helvetica,sans-Serif" font-size="8.00"> S_TRANSMIT_NATIVE_HANDLES,</text>
<text text-anchor="middle" x="208" y="-209.6" font-family="Helvetica,sans-Serif" font-size="8.00"> Mdt_payload &gt;</text>
</a>
</g>
</g>
<!-- Node3 -->
<g id="node3" class="node">
<title>Node3</title>
<g id="a_node3"><a xlink:href="classipc_1_1session_1_1Client__session__impl.html" target="_top" xlink:title=" ">
<polygon fill="white" stroke="black" points="351,-418.5 351,-471.5 503,-471.5 503,-418.5 351,-418.5"/>
<text text-anchor="start" x="359" y="-461.1" font-family="Helvetica,sans-Serif" font-size="8.00">ipc::session::Client</text>
<text text-anchor="start" x="359" y="-452.1" font-family="Helvetica,sans-Serif" font-size="8.00">_session_impl&lt; S_MQ_TYPE</text>
<text text-anchor="start" x="359" y="-443.1" font-family="Helvetica,sans-Serif" font-size="8.00">_OR_NONE, S_TRANSMIT_NATIVE</text>
<text text-anchor="start" x="359" y="-434.1" font-family="Helvetica,sans-Serif" font-size="8.00">_HANDLES, Mdt_payload, session</text>
<text text-anchor="middle" x="427" y="-425.1" font-family="Helvetica,sans-Serif" font-size="8.00">::schema::ShmType::JEMALLOC &gt;</text>
</a>
</g>
</g>
<!-- Node1&#45;&gt;Node3 -->
<g id="edge2" class="edge">
<title>Node1&#45;&gt;Node3</title>
<path fill="none" stroke="midnightblue" d="M222.03,-256.49C238.98,-294.09 271.85,-356.8 317,-396 327.11,-404.77 339.04,-412.24 351.24,-418.49"/>
<polygon fill="midnightblue" stroke="midnightblue" points="225.11,-254.79 217.87,-247.05 218.7,-257.61 225.11,-254.79"/>
</g>
<!-- Node6 -->
<g id="node6" class="node">
<title>Node6</title>
<g id="a_node6"><a xlink:href="classipc_1_1session_1_1Client__session__impl.html" target="_top" xlink:title=" ">
<polygon fill="white" stroke="black" points="351,-333.5 351,-386.5 503,-386.5 503,-333.5 351,-333.5"/>
<text text-anchor="start" x="359" y="-376.1" font-family="Helvetica,sans-Serif" font-size="8.00">ipc::session::Client</text>
<text text-anchor="start" x="359" y="-367.1" font-family="Helvetica,sans-Serif" font-size="8.00">_session_impl&lt; S_MQ_TYPE</text>
<text text-anchor="start" x="359" y="-358.1" font-family="Helvetica,sans-Serif" font-size="8.00">_OR_NONE, S_TRANSMIT_NATIVE</text>
<text text-anchor="start" x="359" y="-349.1" font-family="Helvetica,sans-Serif" font-size="8.00">_HANDLES, Mdt_payload, schema</text>
<text text-anchor="middle" x="427" y="-340.1" font-family="Helvetica,sans-Serif" font-size="8.00">::ShmType::CLASSIC &gt;</text>
</a>
</g>
</g>
<!-- Node1&#45;&gt;Node6 -->
<g id="edge5" class="edge">
<title>Node1&#45;&gt;Node6</title>
<path fill="none" stroke="midnightblue" d="M238.96,-254.25C259.64,-273.32 288.47,-297.77 317,-315 328.22,-321.77 340.64,-327.97 352.96,-333.46"/>
<polygon fill="midnightblue" stroke="midnightblue" points="241.14,-251.5 231.45,-247.23 236.36,-256.61 241.14,-251.5"/>
</g>
<!-- Node9 -->
<g id="node9" class="node">
<title>Node9</title>
<g id="a_node9"><a xlink:href="classipc_1_1session_1_1Server__session__impl.html" target="_top" xlink:title=" ">
<polygon fill="white" stroke="black" points="317,-234.5 317,-305.5 537,-305.5 537,-234.5 317,-234.5"/>
<text text-anchor="start" x="325" y="-295.1" font-family="Helvetica,sans-Serif" font-size="8.00">ipc::session::Server</text>
<text text-anchor="start" x="325" y="-286.1" font-family="Helvetica,sans-Serif" font-size="8.00">_session_impl&lt; S_MQ_TYPE</text>
<text text-anchor="start" x="325" y="-277.1" font-family="Helvetica,sans-Serif" font-size="8.00">_OR_NONE, S_TRANSMIT_NATIVE</text>
<text text-anchor="start" x="325" y="-268.1" font-family="Helvetica,sans-Serif" font-size="8.00">_HANDLES, Mdt_payload, session</text>
<text text-anchor="start" x="325" y="-259.1" font-family="Helvetica,sans-Serif" font-size="8.00">::schema::ShmType::JEMALLOC, transport</text>
<text text-anchor="start" x="325" y="-250.1" font-family="Helvetica,sans-Serif" font-size="8.00">::struc::shm::Builder_base::S_MAX_SERIALIZATION</text>
<text text-anchor="middle" x="427" y="-241.1" font-family="Helvetica,sans-Serif" font-size="8.00">_SEGMENT_SZ &gt;</text>
</a>
</g>
</g>
<!-- Node1&#45;&gt;Node9 -->
<g id="edge8" class="edge">
<title>Node1&#45;&gt;Node9</title>
<path fill="none" stroke="midnightblue" d="M291.06,-242.02C299.52,-243.77 308.2,-245.57 316.89,-247.37"/>
<polygon fill="midnightblue" stroke="midnightblue" points="291.76,-238.59 281.26,-239.98 290.34,-245.44 291.76,-238.59"/>
</g>
<!-- Node12 -->
<g id="node12" class="node">
<title>Node12</title>
<g id="a_node12"><a xlink:href="classipc_1_1session_1_1Server__session__impl.html" target="_top" xlink:title=" ">
<polygon fill="white" stroke="black" points="343.5,-144.5 343.5,-215.5 510.5,-215.5 510.5,-144.5 343.5,-144.5"/>
<text text-anchor="start" x="351.5" y="-205.1" font-family="Helvetica,sans-Serif" font-size="8.00">ipc::session::Server</text>
<text text-anchor="start" x="351.5" y="-196.1" font-family="Helvetica,sans-Serif" font-size="8.00">_session_impl&lt; S_MQ_TYPE</text>
<text text-anchor="start" x="351.5" y="-187.1" font-family="Helvetica,sans-Serif" font-size="8.00">_OR_NONE, S_TRANSMIT_NATIVE</text>
<text text-anchor="start" x="351.5" y="-178.1" font-family="Helvetica,sans-Serif" font-size="8.00">_HANDLES, Mdt_payload, schema</text>
<text text-anchor="start" x="351.5" y="-169.1" font-family="Helvetica,sans-Serif" font-size="8.00">::ShmType::CLASSIC, transport</text>
<text text-anchor="start" x="351.5" y="-160.1" font-family="Helvetica,sans-Serif" font-size="8.00">::struc::shm::Builder_base::S</text>
<text text-anchor="middle" x="427" y="-151.1" font-family="Helvetica,sans-Serif" font-size="8.00">_MAX_SERIALIZATION_SEGMENT_SZ &gt;</text>
</a>
</g>
</g>
<!-- Node1&#45;&gt;Node12 -->
<g id="edge11" class="edge">
<title>Node1&#45;&gt;Node12</title>
<path fill="none" stroke="midnightblue" d="M291.16,-207.96C308.19,-204.43 326.13,-200.71 343.18,-197.17"/>
<polygon fill="midnightblue" stroke="midnightblue" points="290.34,-204.56 281.26,-210.02 291.76,-211.41 290.34,-204.56"/>
</g>
<!-- Node15 -->
<g id="node15" class="node">
<title>Node15</title>
<g id="a_node15"><a xlink:href="classipc_1_1session_1_1Client__session__impl.html" target="_top" xlink:title="Internal, non&#45;movable pImpl&#45;lite implementation of Client_session_mv class template.">
<polygon fill="white" stroke="black" points="354,-72.5 354,-125.5 500,-125.5 500,-72.5 354,-72.5"/>
<text text-anchor="start" x="362" y="-115.1" font-family="Helvetica,sans-Serif" font-size="8.00">ipc::session::Client</text>
<text text-anchor="start" x="362" y="-106.1" font-family="Helvetica,sans-Serif" font-size="8.00">_session_impl&lt; S_MQ_TYPE</text>
<text text-anchor="start" x="362" y="-97.1" font-family="Helvetica,sans-Serif" font-size="8.00">_OR_NONE, S_TRANSMIT_NATIVE</text>
<text text-anchor="start" x="362" y="-88.1" font-family="Helvetica,sans-Serif" font-size="8.00">_HANDLES, Mdt_payload, S_SHM</text>
<text text-anchor="middle" x="427" y="-79.1" font-family="Helvetica,sans-Serif" font-size="8.00">_TYPE_OR_NONE &gt;</text>
</a>
</g>
</g>
<!-- Node1&#45;&gt;Node15 -->
<g id="edge14" class="edge">
<title>Node1&#45;&gt;Node15</title>
<path fill="none" stroke="midnightblue" d="M237.77,-195.82C258.33,-176.34 287.48,-151.39 317,-135 328.41,-128.66 341.12,-123.21 353.71,-118.61"/>
<polygon fill="midnightblue" stroke="midnightblue" points="235.1,-193.53 230.33,-202.99 239.96,-198.58 235.1,-193.53"/>
</g>
<!-- Node16 -->
<g id="node16" class="node">
<title>Node16</title>
<g id="a_node16"><a xlink:href="classipc_1_1session_1_1Server__session__impl.html" target="_top" xlink:title="Internal, non&#45;movable pImpl&#45;lite implementation of Server_session_mv class template.">
<polygon fill="white" stroke="black" points="334.5,-0.5 334.5,-53.5 519.5,-53.5 519.5,-0.5 334.5,-0.5"/>
<text text-anchor="start" x="342.5" y="-43.1" font-family="Helvetica,sans-Serif" font-size="8.00">ipc::session::Server</text>
<text text-anchor="start" x="342.5" y="-34.1" font-family="Helvetica,sans-Serif" font-size="8.00">_session_impl&lt; S_MQ_TYPE</text>
<text text-anchor="start" x="342.5" y="-25.1" font-family="Helvetica,sans-Serif" font-size="8.00">_OR_NONE, S_TRANSMIT_NATIVE</text>
<text text-anchor="start" x="342.5" y="-16.1" font-family="Helvetica,sans-Serif" font-size="8.00">_HANDLES, Mdt_payload, S_SHM</text>
<text text-anchor="middle" x="427" y="-7.1" font-family="Helvetica,sans-Serif" font-size="8.00">_TYPE_OR_NONE, S_SHM_MAX_HNDL_SZ &gt;</text>
</a>
</g>
</g>
<!-- Node1&#45;&gt;Node16 -->
<g id="edge15" class="edge">
<title>Node1&#45;&gt;Node16</title>
<path fill="none" stroke="midnightblue" d="M222.09,-193.82C238.9,-157.38 271.46,-97.69 317,-63 322.39,-58.89 328.27,-55.24 334.42,-52"/>
<polygon fill="midnightblue" stroke="midnightblue" points="218.87,-192.44 217.96,-202.99 225.25,-195.31 218.87,-192.44"/>
</g>
<!-- Node2 -->
<g id="node2" class="node">
<title>Node2</title>
<g id="a_node2"><a xlink:title=" ">
<polygon fill="white" stroke="#bfbfbf" points="0,-216.5 0,-233.5 99,-233.5 99,-216.5 0,-216.5"/>
<text text-anchor="middle" x="49.5" y="-223.1" font-family="Helvetica,sans-Serif" font-size="8.00">boost::noncopyable</text>
</a>
</g>
</g>
<!-- Node2&#45;&gt;Node1 -->
<g id="edge1" class="edge">
<title>Node2&#45;&gt;Node1</title>
<path fill="none" stroke="#8b1a1a" d="M109.18,-225C117.54,-225 126.23,-225 134.82,-225"/>
<polygon fill="#8b1a1a" stroke="#8b1a1a" points="109.16,-221.5 99.16,-225 109.16,-228.5 109.16,-221.5"/>
</g>
<!-- Node4 -->
<g id="node4" class="node">
<title>Node4</title>
<g id="a_node4"><a xlink:href="classipc_1_1session_1_1shm_1_1arena__lend_1_1jemalloc_1_1Session__impl.html" target="_top" xlink:title=" ">
<polygon fill="white" stroke="black" points="573,-418.5 573,-489.5 768,-489.5 768,-418.5 573,-418.5"/>
<text text-anchor="start" x="581" y="-479.1" font-family="Helvetica,sans-Serif" font-size="8.00">ipc::session::shm::</text>
<text text-anchor="start" x="581" y="-470.1" font-family="Helvetica,sans-Serif" font-size="8.00">arena_lend::jemalloc</text>
<text text-anchor="start" x="581" y="-461.1" font-family="Helvetica,sans-Serif" font-size="8.00">::Session_impl&lt; session</text>
<text text-anchor="start" x="581" y="-452.1" font-family="Helvetica,sans-Serif" font-size="8.00">::Client_session_impl&lt;</text>
<text text-anchor="start" x="581" y="-443.1" font-family="Helvetica,sans-Serif" font-size="8.00"> S_MQ_TYPE_OR_NONE, S_TRANSMIT</text>
<text text-anchor="start" x="581" y="-434.1" font-family="Helvetica,sans-Serif" font-size="8.00">_NATIVE_HANDLES, Mdt_payload,</text>
<text text-anchor="middle" x="670.5" y="-425.1" font-family="Helvetica,sans-Serif" font-size="8.00"> session::schema::ShmType::JEMALLOC &gt; &gt;</text>
</a>
</g>
</g>
<!-- Node3&#45;&gt;Node4 -->
<g id="edge3" class="edge">
<title>Node3&#45;&gt;Node4</title>
<path fill="none" stroke="midnightblue" d="M513.3,-448.18C532.51,-448.89 553.02,-449.66 572.66,-450.39"/>
<polygon fill="midnightblue" stroke="midnightblue" points="513.21,-444.67 503.09,-447.8 512.95,-451.67 513.21,-444.67"/>
</g>
<!-- Node5 -->
<g id="node5" class="node">
<title>Node5</title>
<g id="a_node5"><a xlink:href="classipc_1_1session_1_1shm_1_1arena__lend_1_1jemalloc_1_1Client__session__impl.html" target="_top" xlink:title="Core internally&#45;used implementation of shm::arena_lend::jemalloc::Client_session: it is to the latter...">
<polygon fill="white" stroke="black" points="808,-423 808,-485 946,-485 946,-423 808,-423"/>
<text text-anchor="start" x="816" y="-474.6" font-family="Helvetica,sans-Serif" font-size="8.00">ipc::session::shm::</text>
<text text-anchor="start" x="816" y="-465.6" font-family="Helvetica,sans-Serif" font-size="8.00">arena_lend::jemalloc</text>
<text text-anchor="start" x="816" y="-456.6" font-family="Helvetica,sans-Serif" font-size="8.00">::Client_session_impl</text>
<text text-anchor="start" x="816" y="-447.6" font-family="Helvetica,sans-Serif" font-size="8.00">&lt; S_MQ_TYPE_OR_NONE, S</text>
<text text-anchor="start" x="816" y="-438.6" font-family="Helvetica,sans-Serif" font-size="8.00">_TRANSMIT_NATIVE_HANDLES,</text>
<text text-anchor="middle" x="877" y="-429.6" font-family="Helvetica,sans-Serif" font-size="8.00"> Mdt_payload &gt;</text>
</a>
</g>
</g>
<!-- Node4&#45;&gt;Node5 -->
<g id="edge4" class="edge">
<title>Node4&#45;&gt;Node5</title>
<path fill="none" stroke="midnightblue" d="M778.15,-454C788.24,-454 798.27,-454 807.85,-454"/>
<polygon fill="midnightblue" stroke="midnightblue" points="778.06,-450.5 768.06,-454 778.06,-457.5 778.06,-450.5"/>
</g>
<!-- Node7 -->
<g id="node7" class="node">
<title>Node7</title>
<g id="a_node7"><a xlink:href="classipc_1_1session_1_1shm_1_1classic_1_1Session__impl.html" target="_top" xlink:title=" ">
<polygon fill="white" stroke="black" points="595.5,-328.5 595.5,-399.5 745.5,-399.5 745.5,-328.5 595.5,-328.5"/>
<text text-anchor="start" x="603.5" y="-389.1" font-family="Helvetica,sans-Serif" font-size="8.00">ipc::session::shm::</text>
<text text-anchor="start" x="603.5" y="-380.1" font-family="Helvetica,sans-Serif" font-size="8.00">classic::Session_impl</text>
<text text-anchor="start" x="603.5" y="-371.1" font-family="Helvetica,sans-Serif" font-size="8.00">&lt; session::Client_session</text>
<text text-anchor="start" x="603.5" y="-362.1" font-family="Helvetica,sans-Serif" font-size="8.00">_impl&lt; S_MQ_TYPE_OR_NONE,</text>
<text text-anchor="start" x="603.5" y="-353.1" font-family="Helvetica,sans-Serif" font-size="8.00"> S_TRANSMIT_NATIVE_HANDLES,</text>
<text text-anchor="start" x="603.5" y="-344.1" font-family="Helvetica,sans-Serif" font-size="8.00"> Mdt_payload, schema::ShmType</text>
<text text-anchor="middle" x="670.5" y="-335.1" font-family="Helvetica,sans-Serif" font-size="8.00">::CLASSIC &gt; &gt;</text>
</a>
</g>
</g>
<!-- Node6&#45;&gt;Node7 -->
<g id="edge6" class="edge">
<title>Node6&#45;&gt;Node7</title>
<path fill="none" stroke="midnightblue" d="M513.21,-361.41C539.99,-361.85 569.33,-362.34 595.29,-362.77"/>
<polygon fill="midnightblue" stroke="midnightblue" points="513.14,-357.91 503.09,-361.24 513.03,-364.91 513.14,-357.91"/>
</g>
<!-- Node8 -->
<g id="node8" class="node">
<title>Node8</title>
<g id="a_node8"><a xlink:href="classipc_1_1session_1_1shm_1_1classic_1_1Client__session__impl.html" target="_top" xlink:title="Core internally&#45;used implementation of shm::classic::Client_session: it is to the latter what its pub...">
<polygon fill="white" stroke="black" points="804,-337.5 804,-390.5 950,-390.5 950,-337.5 804,-337.5"/>
<text text-anchor="start" x="812" y="-380.1" font-family="Helvetica,sans-Serif" font-size="8.00">ipc::session::shm::</text>
<text text-anchor="start" x="812" y="-371.1" font-family="Helvetica,sans-Serif" font-size="8.00">classic::Client_session</text>
<text text-anchor="start" x="812" y="-362.1" font-family="Helvetica,sans-Serif" font-size="8.00">_impl&lt; S_MQ_TYPE_OR_NONE,</text>
<text text-anchor="start" x="812" y="-353.1" font-family="Helvetica,sans-Serif" font-size="8.00"> S_TRANSMIT_NATIVE_HANDLES,</text>
<text text-anchor="middle" x="877" y="-344.1" font-family="Helvetica,sans-Serif" font-size="8.00"> Mdt_payload &gt;</text>
</a>
</g>
</g>
<!-- Node7&#45;&gt;Node8 -->
<g id="edge7" class="edge">
<title>Node7&#45;&gt;Node8</title>
<path fill="none" stroke="midnightblue" d="M755.97,-364C771.87,-364 788.36,-364 803.84,-364"/>
<polygon fill="midnightblue" stroke="midnightblue" points="755.62,-360.5 745.62,-364 755.62,-367.5 755.62,-360.5"/>
</g>
<!-- Node10 -->
<g id="node10" class="node">
<title>Node10</title>
<g id="a_node10"><a xlink:href="classipc_1_1session_1_1shm_1_1arena__lend_1_1jemalloc_1_1Session__impl.html" target="_top" xlink:title=" ">
<polygon fill="white" stroke="black" points="576.5,-220.5 576.5,-309.5 764.5,-309.5 764.5,-220.5 576.5,-220.5"/>
<text text-anchor="start" x="584.5" y="-299.1" font-family="Helvetica,sans-Serif" font-size="8.00">ipc::session::shm::</text>
<text text-anchor="start" x="584.5" y="-290.1" font-family="Helvetica,sans-Serif" font-size="8.00">arena_lend::jemalloc</text>
<text text-anchor="start" x="584.5" y="-281.1" font-family="Helvetica,sans-Serif" font-size="8.00">::Session_impl&lt; session</text>
<text text-anchor="start" x="584.5" y="-272.1" font-family="Helvetica,sans-Serif" font-size="8.00">::Server_session_impl&lt;</text>
<text text-anchor="start" x="584.5" y="-263.1" font-family="Helvetica,sans-Serif" font-size="8.00"> S_MQ_TYPE_OR_NONE, S_TRANSMIT</text>
<text text-anchor="start" x="584.5" y="-254.1" font-family="Helvetica,sans-Serif" font-size="8.00">_NATIVE_HANDLES, Mdt_payload,</text>
<text text-anchor="start" x="584.5" y="-245.1" font-family="Helvetica,sans-Serif" font-size="8.00"> session::schema::ShmType::JEMALLOC,</text>
<text text-anchor="start" x="584.5" y="-236.1" font-family="Helvetica,sans-Serif" font-size="8.00"> transport::struc::shm::Builder_base</text>
<text text-anchor="middle" x="670.5" y="-227.1" font-family="Helvetica,sans-Serif" font-size="8.00">::S_MAX_SERIALIZATION_SEGMENT_SZ &gt; &gt;</text>
</a>
</g>
</g>
<!-- Node9&#45;&gt;Node10 -->
<g id="edge9" class="edge">
<title>Node9&#45;&gt;Node10</title>
<path fill="none" stroke="midnightblue" d="M547.27,-267.53C557.05,-267.33 566.84,-267.13 576.39,-266.93"/>
<polygon fill="midnightblue" stroke="midnightblue" points="547.02,-264.04 537.09,-267.74 547.16,-271.03 547.02,-264.04"/>
</g>
<!-- Node11 -->
<g id="node11" class="node">
<title>Node11</title>
<g id="a_node11"><a xlink:href="classipc_1_1session_1_1shm_1_1arena__lend_1_1jemalloc_1_1Server__session__impl.html" target="_top" xlink:title="Core internally&#45;used implementation of shm::arena_lend::jemalloc::Server_session: it is to the latter...">
<polygon fill="white" stroke="black" points="808,-234 808,-296 946,-296 946,-234 808,-234"/>
<text text-anchor="start" x="816" y="-285.6" font-family="Helvetica,sans-Serif" font-size="8.00">ipc::session::shm::</text>
<text text-anchor="start" x="816" y="-276.6" font-family="Helvetica,sans-Serif" font-size="8.00">arena_lend::jemalloc</text>
<text text-anchor="start" x="816" y="-267.6" font-family="Helvetica,sans-Serif" font-size="8.00">::Server_session_impl</text>
<text text-anchor="start" x="816" y="-258.6" font-family="Helvetica,sans-Serif" font-size="8.00">&lt; S_MQ_TYPE_OR_NONE, S</text>
<text text-anchor="start" x="816" y="-249.6" font-family="Helvetica,sans-Serif" font-size="8.00">_TRANSMIT_NATIVE_HANDLES,</text>
<text text-anchor="middle" x="877" y="-240.6" font-family="Helvetica,sans-Serif" font-size="8.00"> Mdt_payload &gt;</text>
</a>
</g>
</g>
<!-- Node10&#45;&gt;Node11 -->
<g id="edge10" class="edge">
<title>Node10&#45;&gt;Node11</title>
<path fill="none" stroke="midnightblue" d="M775.02,-265C786.19,-265 797.33,-265 807.93,-265"/>
<polygon fill="midnightblue" stroke="midnightblue" points="774.77,-261.5 764.77,-265 774.77,-268.5 774.77,-261.5"/>
</g>
<!-- Node13 -->
<g id="node13" class="node">
<title>Node13</title>
<g id="a_node13"><a xlink:href="classipc_1_1session_1_1shm_1_1classic_1_1Session__impl.html" target="_top" xlink:title=" ">
<polygon fill="white" stroke="black" points="576.5,-112.5 576.5,-201.5 764.5,-201.5 764.5,-112.5 576.5,-112.5"/>
<text text-anchor="start" x="584.5" y="-191.1" font-family="Helvetica,sans-Serif" font-size="8.00">ipc::session::shm::</text>
<text text-anchor="start" x="584.5" y="-182.1" font-family="Helvetica,sans-Serif" font-size="8.00">classic::Session_impl</text>
<text text-anchor="start" x="584.5" y="-173.1" font-family="Helvetica,sans-Serif" font-size="8.00">&lt; session::Server_session</text>
<text text-anchor="start" x="584.5" y="-164.1" font-family="Helvetica,sans-Serif" font-size="8.00">_impl&lt; S_MQ_TYPE_OR_NONE,</text>
<text text-anchor="start" x="584.5" y="-155.1" font-family="Helvetica,sans-Serif" font-size="8.00"> S_TRANSMIT_NATIVE_HANDLES,</text>
<text text-anchor="start" x="584.5" y="-146.1" font-family="Helvetica,sans-Serif" font-size="8.00"> Mdt_payload, schema::ShmType</text>
<text text-anchor="start" x="584.5" y="-137.1" font-family="Helvetica,sans-Serif" font-size="8.00">::CLASSIC, transport::struc::</text>
<text text-anchor="start" x="584.5" y="-128.1" font-family="Helvetica,sans-Serif" font-size="8.00">shm::Builder_base::S_MAX_SERIALIZATION</text>
<text text-anchor="middle" x="670.5" y="-119.1" font-family="Helvetica,sans-Serif" font-size="8.00">_SEGMENT_SZ &gt; &gt;</text>
</a>
</g>
</g>
<!-- Node12&#45;&gt;Node13 -->
<g id="edge12" class="edge">
<title>Node12&#45;&gt;Node13</title>
<path fill="none" stroke="midnightblue" d="M520.81,-171.16C539.06,-169.42 558.22,-167.6 576.47,-165.86"/>
<polygon fill="midnightblue" stroke="midnightblue" points="520.4,-167.68 510.77,-172.12 521.06,-174.65 520.4,-167.68"/>
</g>
<!-- Node14 -->
<g id="node14" class="node">
<title>Node14</title>
<g id="a_node14"><a xlink:href="classipc_1_1session_1_1shm_1_1classic_1_1Server__session__impl.html" target="_top" xlink:title="Core internally&#45;used implementation of shm::classic::Server_session: it is to the latter what its pub...">
<polygon fill="white" stroke="black" points="804,-130.5 804,-183.5 950,-183.5 950,-130.5 804,-130.5"/>
<text text-anchor="start" x="812" y="-173.1" font-family="Helvetica,sans-Serif" font-size="8.00">ipc::session::shm::</text>
<text text-anchor="start" x="812" y="-164.1" font-family="Helvetica,sans-Serif" font-size="8.00">classic::Server_session</text>
<text text-anchor="start" x="812" y="-155.1" font-family="Helvetica,sans-Serif" font-size="8.00">_impl&lt; S_MQ_TYPE_OR_NONE,</text>
<text text-anchor="start" x="812" y="-146.1" font-family="Helvetica,sans-Serif" font-size="8.00"> S_TRANSMIT_NATIVE_HANDLES,</text>
<text text-anchor="middle" x="877" y="-137.1" font-family="Helvetica,sans-Serif" font-size="8.00"> Mdt_payload &gt;</text>
</a>
</g>
</g>
<!-- Node13&#45;&gt;Node14 -->
<g id="edge13" class="edge">
<title>Node13&#45;&gt;Node14</title>
<path fill="none" stroke="midnightblue" d="M774.98,-157C784.79,-157 794.58,-157 803.99,-157"/>
<polygon fill="midnightblue" stroke="midnightblue" points="774.77,-153.5 764.77,-157 774.77,-160.5 774.77,-153.5"/>
</g>
</g>
</svg>
