<?xml version="1.0" encoding="UTF-8" standalone="no"?>
<!DOCTYPE svg PUBLIC "-//W3C//DTD SVG 1.1//EN"
 "http://www.w3.org/Graphics/SVG/1.1/DTD/svg11.dtd">
<!-- Generated by graphviz version 2.43.0 (0)
 -->
<!-- Title: ipc::transport::Blob_stream_mq_receiver_impl::Blob_stream_mq_receiver_impl Pages: 1 -->
<svg width="329pt" height="44pt"
 viewBox="0.00 0.00 329.00 44.00" xmlns="http://www.w3.org/2000/svg" xmlns:xlink="http://www.w3.org/1999/xlink">
<g id="graph0" class="graph" transform="scale(1 1) rotate(0) translate(4 40)">
<title>ipc::transport::Blob_stream_mq_receiver_impl::Blob_stream_mq_receiver_impl</title>
<polygon fill="white" stroke="transparent" points="-4,4 -4,-40 325,-40 325,4 -4,4"/>
<!-- Node1 -->
<g id="node1" class="node">
<title>Node1</title>
<g id="a_node1"><a xlink:title="See Blob_stream_mq_receiver counterpart.">
<polygon fill="#bfbfbf" stroke="black" points="0,-0.5 0,-35.5 147,-35.5 147,-0.5 0,-0.5"/>
<text text-anchor="start" x="8" y="-25.1" font-family="Helvetica,sans-Serif" font-size="8.00">ipc::transport::Blob</text>
<text text-anchor="start" x="8" y="-16.1" font-family="Helvetica,sans-Serif" font-size="8.00">_stream_mq_receiver_impl</text>
<text text-anchor="middle" x="73.5" y="-7.1" font-family="Helvetica,sans-Serif" font-size="8.00">::Blob_stream_mq_receiver_impl</text>
</a>
</g>
</g>
<!-- Node2 -->
<g id="node2" class="node">
<title>Node2</title>
<g id="a_node2"><a xlink:href="classipc_1_1transport_1_1sync__io_1_1Blob__stream__mq__receiver.html#a4723fb00e3e94b132a8b3ba5ce4e7405" target="_top" xlink:title="Implements Blob_receiver API per contract.">
<polygon fill="white" stroke="black" points="183,-0.5 183,-35.5 321,-35.5 321,-0.5 183,-0.5"/>
<text text-anchor="start" x="191" y="-25.1" font-family="Helvetica,sans-Serif" font-size="8.00">ipc::transport::sync</text>
<text text-anchor="start" x="191" y="-16.1" font-family="Helvetica,sans-Serif" font-size="8.00">_io::Blob_stream_mq_receiver</text>
<text text-anchor="middle" x="252" y="-7.1" font-family="Helvetica,sans-Serif" font-size="8.00">::replace_event_wait_handles</text>
</a>
</g>
</g>
<!-- Node1&#45;&gt;Node2 -->
<g id="edge1" class="edge">
<title>Node1&#45;&gt;Node2</title>
<path fill="none" stroke="midnightblue" d="M147.05,-18C155.6,-18 164.34,-18 172.95,-18"/>
<polygon fill="midnightblue" stroke="midnightblue" points="172.99,-21.5 182.99,-18 172.99,-14.5 172.99,-21.5"/>
</g>
</g>
</svg>
