<?xml version="1.0" encoding="UTF-8" standalone="no"?>
<!DOCTYPE svg PUBLIC "-//W3C//DTD SVG 1.1//EN"
 "http://www.w3.org/Graphics/SVG/1.1/DTD/svg11.dtd">
<!-- Generated by graphviz version 2.43.0 (0)
 -->
<!-- Title: ipc::transport::sync_io::Native_socket_stream::get_logger Pages: 1 -->
<svg width="290pt" height="289pt"
 viewBox="0.00 0.00 290.00 288.50" xmlns="http://www.w3.org/2000/svg" xmlns:xlink="http://www.w3.org/1999/xlink">
<g id="graph0" class="graph" transform="scale(1 1) rotate(0) translate(4 284.5)">
<title>ipc::transport::sync_io::Native_socket_stream::get_logger</title>
<polygon fill="white" stroke="transparent" points="-4,4 -4,-284.5 286,-284.5 286,4 -4,4"/>
<!-- Node1 -->
<g id="node1" class="node">
<title>Node1</title>
<g id="a_node1"><a xlink:title="Returns logger (possibly null).">
<polygon fill="#bfbfbf" stroke="black" points="159,-127 159,-162 282,-162 282,-127 159,-127"/>
<text text-anchor="start" x="167" y="-151.6" font-family="Helvetica,sans-Serif" font-size="8.00">ipc::transport::sync</text>
<text text-anchor="start" x="167" y="-142.6" font-family="Helvetica,sans-Serif" font-size="8.00">_io::Native_socket_stream</text>
<text text-anchor="middle" x="220.5" y="-133.6" font-family="Helvetica,sans-Serif" font-size="8.00">::get_logger</text>
</a>
</g>
</g>
<!-- Node2 -->
<g id="node2" class="node">
<title>Node2</title>
<g id="a_node2"><a xlink:href="classipc_1_1transport_1_1sync__io_1_1Native__socket__stream_1_1Impl.html#af0278d57dd7654b6e611ae8d190b51fa" target="_top" xlink:title="See Native_socket_stream counterpart.">
<polygon fill="white" stroke="black" points="0,-245 0,-280 123,-280 123,-245 0,-245"/>
<text text-anchor="start" x="8" y="-269.6" font-family="Helvetica,sans-Serif" font-size="8.00">ipc::transport::sync</text>
<text text-anchor="start" x="8" y="-260.6" font-family="Helvetica,sans-Serif" font-size="8.00">_io::Native_socket_stream</text>
<text text-anchor="middle" x="61.5" y="-251.6" font-family="Helvetica,sans-Serif" font-size="8.00">::Impl::async_connect</text>
</a>
</g>
</g>
<!-- Node1&#45;&gt;Node2 -->
<g id="edge1" class="edge">
<title>Node1&#45;&gt;Node2</title>
<path fill="none" stroke="midnightblue" d="M197.39,-169.56C178.97,-189.35 151.25,-216.67 123,-235.5 117.93,-238.88 112.36,-242.02 106.73,-244.87"/>
<polygon fill="midnightblue" stroke="midnightblue" points="200.04,-171.85 204.22,-162.11 194.88,-167.12 200.04,-171.85"/>
</g>
<!-- Node3 -->
<g id="node3" class="node">
<title>Node3</title>
<g id="a_node3"><a xlink:href="classipc_1_1transport_1_1sync__io_1_1Native__socket__stream_1_1Impl.html#a25e051170a8eb568745f809bb186f980" target="_top" xlink:title="Utility that synchronously, non&#45;blockingly attempts to read over m_peer_socket into the target blob a...">
<polygon fill="white" stroke="black" points="0,-181.5 0,-225.5 123,-225.5 123,-181.5 0,-181.5"/>
<text text-anchor="start" x="8" y="-215.1" font-family="Helvetica,sans-Serif" font-size="8.00">ipc::transport::sync</text>
<text text-anchor="start" x="8" y="-206.1" font-family="Helvetica,sans-Serif" font-size="8.00">_io::Native_socket_stream</text>
<text text-anchor="start" x="8" y="-197.1" font-family="Helvetica,sans-Serif" font-size="8.00">::Impl::rcv_nb_read_low</text>
<text text-anchor="middle" x="61.5" y="-188.1" font-family="Helvetica,sans-Serif" font-size="8.00">_lvl_payload</text>
</a>
</g>
</g>
<!-- Node1&#45;&gt;Node3 -->
<g id="edge2" class="edge">
<title>Node1&#45;&gt;Node3</title>
<path fill="none" stroke="midnightblue" d="M163.12,-165.69C149.52,-170.8 134.96,-176.27 121.26,-181.42"/>
<polygon fill="midnightblue" stroke="midnightblue" points="164.69,-168.84 172.82,-162.04 162.23,-162.28 164.69,-168.84"/>
</g>
<!-- Node4 -->
<g id="node4" class="node">
<title>Node4</title>
<g id="a_node4"><a xlink:href="classipc_1_1transport_1_1sync__io_1_1Native__socket__stream_1_1Impl.html#a628983e793cbfb8f167ea1d34a876a70" target="_top" xlink:title="See Native_socket_stream counterpart.">
<polygon fill="white" stroke="black" points="0,-127 0,-162 123,-162 123,-127 0,-127"/>
<text text-anchor="start" x="8" y="-151.6" font-family="Helvetica,sans-Serif" font-size="8.00">ipc::transport::sync</text>
<text text-anchor="start" x="8" y="-142.6" font-family="Helvetica,sans-Serif" font-size="8.00">_io::Native_socket_stream</text>
<text text-anchor="middle" x="61.5" y="-133.6" font-family="Helvetica,sans-Serif" font-size="8.00">::Impl::release</text>
</a>
</g>
</g>
<!-- Node1&#45;&gt;Node4 -->
<g id="edge3" class="edge">
<title>Node1&#45;&gt;Node4</title>
<path fill="none" stroke="midnightblue" d="M148.79,-144.5C140.19,-144.5 131.47,-144.5 123.04,-144.5"/>
<polygon fill="midnightblue" stroke="midnightblue" points="148.8,-148 158.8,-144.5 148.8,-141 148.8,-148"/>
</g>
<!-- Node5 -->
<g id="node5" class="node">
<title>Node5</title>
<g id="a_node5"><a xlink:href="classipc_1_1transport_1_1sync__io_1_1Native__socket__stream_1_1Impl.html#af321a9b3ed8dc21f23988bf79c7c33f0" target="_top" xlink:title="Utility that sends non&#45;empty blob, and (unless null) hndl_or_null associated with its 1st byte,...">
<polygon fill="white" stroke="black" points="0,-63.5 0,-107.5 123,-107.5 123,-63.5 0,-63.5"/>
<text text-anchor="start" x="8" y="-97.1" font-family="Helvetica,sans-Serif" font-size="8.00">ipc::transport::sync</text>
<text text-anchor="start" x="8" y="-88.1" font-family="Helvetica,sans-Serif" font-size="8.00">_io::Native_socket_stream</text>
<text text-anchor="start" x="8" y="-79.1" font-family="Helvetica,sans-Serif" font-size="8.00">::Impl::snd_nb_write_low</text>
<text text-anchor="middle" x="61.5" y="-70.1" font-family="Helvetica,sans-Serif" font-size="8.00">_lvl_payload</text>
</a>
</g>
</g>
<!-- Node1&#45;&gt;Node5 -->
<g id="edge4" class="edge">
<title>Node1&#45;&gt;Node5</title>
<path fill="none" stroke="midnightblue" d="M163.12,-123.31C149.52,-118.2 134.96,-112.73 121.26,-107.58"/>
<polygon fill="midnightblue" stroke="midnightblue" points="162.23,-126.72 172.82,-126.96 164.69,-120.16 162.23,-126.72"/>
</g>
<!-- Node6 -->
<g id="node6" class="node">
<title>Node6</title>
<g id="a_node6"><a xlink:href="classipc_1_1transport_1_1sync__io_1_1Native__socket__stream_1_1Impl.html#a69971b4ce6cb1a297c86ae73e3ddfc69" target="_top" xlink:title="Either synchronously sends hndl_or_null handle (if any) and orig_blob low&#45;level blob over m_peer_sock...">
<polygon fill="white" stroke="black" points="0,-0.5 0,-44.5 123,-44.5 123,-0.5 0,-0.5"/>
<text text-anchor="start" x="8" y="-34.1" font-family="Helvetica,sans-Serif" font-size="8.00">ipc::transport::sync</text>
<text text-anchor="start" x="8" y="-25.1" font-family="Helvetica,sans-Serif" font-size="8.00">_io::Native_socket_stream</text>
<text text-anchor="start" x="8" y="-16.1" font-family="Helvetica,sans-Serif" font-size="8.00">::Impl::snd_sync_write_or</text>
<text text-anchor="middle" x="61.5" y="-7.1" font-family="Helvetica,sans-Serif" font-size="8.00">_q_payload</text>
</a>
</g>
</g>
<!-- Node1&#45;&gt;Node6 -->
<g id="edge5" class="edge">
<title>Node1&#45;&gt;Node6</title>
<path fill="none" stroke="midnightblue" d="M196.33,-119.54C177.68,-100.32 150.19,-73.85 123,-54.5 118.16,-51.06 112.9,-47.74 107.58,-44.62"/>
<polygon fill="midnightblue" stroke="midnightblue" points="193.82,-121.98 203.26,-126.78 198.87,-117.14 193.82,-121.98"/>
</g>
</g>
</svg>
