<?xml version="1.0" encoding="UTF-8" standalone="no"?>
<!DOCTYPE svg PUBLIC "-//W3C//DTD SVG 1.1//EN"
 "http://www.w3.org/Graphics/SVG/1.1/DTD/svg11.dtd">
<!-- Generated by graphviz version 2.43.0 (0)
 -->
<!-- Title: ipc::session::sync_io::Session_server_adapter&lt; Session_server &gt; Pages: 1 -->
<svg width="632pt" height="89pt"
 viewBox="0.00 0.00 632.00 89.00" xmlns="http://www.w3.org/2000/svg" xmlns:xlink="http://www.w3.org/1999/xlink">
<g id="graph0" class="graph" transform="scale(1 1) rotate(0) translate(4 85)">
<title>ipc::session::sync_io::Session_server_adapter&lt; Session_server &gt;</title>
<polygon fill="white" stroke="transparent" points="-4,4 -4,-85 628,-85 628,4 -4,4"/>
<!-- Node1 -->
<g id="node1" class="node">
<title>Node1</title>
<g id="a_node1"><a xlink:title="sync_io&#45;pattern counterpart to async&#45;I/O&#45;pattern session::Session_server types and all their SHM&#45;awar...">
<polygon fill="#bfbfbf" stroke="black" points="492,-23 492,-58 624,-58 624,-23 492,-23"/>
<text text-anchor="start" x="500" y="-47.6" font-family="Helvetica,sans-Serif" font-size="8.00">ipc::session::sync</text>
<text text-anchor="start" x="500" y="-38.6" font-family="Helvetica,sans-Serif" font-size="8.00">_io::Session_server</text>
<text text-anchor="middle" x="558" y="-29.6" font-family="Helvetica,sans-Serif" font-size="8.00">_adapter&lt; Session_server &gt;</text>
</a>
</g>
</g>
<!-- Node2 -->
<g id="node2" class="node">
<title>Node2</title>
<g id="a_node2"><a xlink:href="classipc_1_1session_1_1Session__server.html" target="_top" xlink:title="To be instantiated typically once in a given process, an object of this type asynchronously listens f...">
<polygon fill="white" stroke="black" points="325,-18.5 325,-62.5 456,-62.5 456,-18.5 325,-18.5"/>
<text text-anchor="start" x="333" y="-52.1" font-family="Helvetica,sans-Serif" font-size="8.00">ipc::session::Session</text>
<text text-anchor="start" x="333" y="-43.1" font-family="Helvetica,sans-Serif" font-size="8.00">_server&lt; S_MQ_TYPE_OR</text>
<text text-anchor="start" x="333" y="-34.1" font-family="Helvetica,sans-Serif" font-size="8.00">_NONE, S_TRANSMIT_NATIVE</text>
<text text-anchor="middle" x="390.5" y="-25.1" font-family="Helvetica,sans-Serif" font-size="8.00">_HANDLES, Mdt_payload &gt;</text>
</a>
</g>
</g>
<!-- Node2&#45;&gt;Node1 -->
<g id="edge1" class="edge">
<title>Node2&#45;&gt;Node1</title>
<path fill="none" stroke="#8b1a1a" d="M466.67,-40.5C475.12,-40.5 483.67,-40.5 491.98,-40.5"/>
<polygon fill="#8b1a1a" stroke="#8b1a1a" points="466.44,-37 456.43,-40.5 466.43,-44 466.44,-37"/>
</g>
<!-- Node3 -->
<g id="node3" class="node">
<title>Node3</title>
<g id="a_node3"><a xlink:href="classipc_1_1session_1_1Session__server__impl.html" target="_top" xlink:title=" ">
<polygon fill="white" stroke="black" points="143,-0.5 143,-80.5 289,-80.5 289,-0.5 143,-0.5"/>
<text text-anchor="start" x="151" y="-70.1" font-family="Helvetica,sans-Serif" font-size="8.00">ipc::session::Session</text>
<text text-anchor="start" x="151" y="-61.1" font-family="Helvetica,sans-Serif" font-size="8.00">_server_impl&lt; Session</text>
<text text-anchor="start" x="151" y="-52.1" font-family="Helvetica,sans-Serif" font-size="8.00">_server&lt; S_MQ_TYPE_OR</text>
<text text-anchor="start" x="151" y="-43.1" font-family="Helvetica,sans-Serif" font-size="8.00">_NONE, S_TRANSMIT_NATIVE</text>
<text text-anchor="start" x="151" y="-34.1" font-family="Helvetica,sans-Serif" font-size="8.00">_HANDLES, Mdt_payload &gt;,</text>
<text text-anchor="start" x="151" y="-25.1" font-family="Helvetica,sans-Serif" font-size="8.00"> Server_session&lt; S_MQ_TYPE</text>
<text text-anchor="start" x="151" y="-16.1" font-family="Helvetica,sans-Serif" font-size="8.00">_OR_NONE, S_TRANSMIT_NATIVE</text>
<text text-anchor="middle" x="216" y="-7.1" font-family="Helvetica,sans-Serif" font-size="8.00">_HANDLES, Mdt_payload &gt; &gt;</text>
</a>
</g>
</g>
<!-- Node3&#45;&gt;Node2 -->
<g id="edge2" class="edge">
<title>Node3&#45;&gt;Node2</title>
<path fill="none" stroke="#8b1a1a" d="M299.19,-40.5C307.78,-40.5 316.42,-40.5 324.78,-40.5"/>
<polygon fill="#8b1a1a" stroke="#8b1a1a" points="299.16,-37 289.16,-40.5 299.16,-44 299.16,-37"/>
</g>
<!-- Node4 -->
<g id="node4" class="node">
<title>Node4</title>
<g id="a_node4"><a xlink:title=" ">
<polygon fill="white" stroke="#bfbfbf" points="0,-50 0,-67 107,-67 107,-50 0,-50"/>
<text text-anchor="middle" x="53.5" y="-56.6" font-family="Helvetica,sans-Serif" font-size="8.00">flow::log::Log_context</text>
</a>
</g>
</g>
<!-- Node4&#45;&gt;Node3 -->
<g id="edge3" class="edge">
<title>Node4&#45;&gt;Node3</title>
<path fill="none" stroke="midnightblue" d="M117.15,-51.47C125.56,-50.53 134.24,-49.56 142.8,-48.6"/>
<polygon fill="midnightblue" stroke="midnightblue" points="116.6,-48.01 107.05,-52.61 117.38,-54.97 116.6,-48.01"/>
</g>
<!-- Node5 -->
<g id="node5" class="node">
<title>Node5</title>
<g id="a_node5"><a xlink:title=" ">
<polygon fill="white" stroke="#bfbfbf" points="4,-14 4,-31 103,-31 103,-14 4,-14"/>
<text text-anchor="middle" x="53.5" y="-20.6" font-family="Helvetica,sans-Serif" font-size="8.00">boost::noncopyable</text>
</a>
</g>
</g>
<!-- Node5&#45;&gt;Node3 -->
<g id="edge4" class="edge">
<title>Node5&#45;&gt;Node3</title>
<path fill="none" stroke="#8b1a1a" d="M113.32,-29.1C122.94,-30.18 132.99,-31.3 142.89,-32.41"/>
<polygon fill="#8b1a1a" stroke="#8b1a1a" points="113.42,-25.59 103.09,-27.95 112.64,-32.54 113.42,-25.59"/>
</g>
</g>
</svg>
