<?xml version="1.0" encoding="UTF-8" standalone="no"?>
<!DOCTYPE svg PUBLIC "-//W3C//DTD SVG 1.1//EN"
 "http://www.w3.org/Graphics/SVG/1.1/DTD/svg11.dtd">
<!-- Generated by graphviz version 2.43.0 (0)
 -->
<!-- Title: ipc::transport::Socket_stream_channel&lt; SIO &gt; Pages: 1 -->
<svg width="686pt" height="334pt"
 viewBox="0.00 0.00 686.00 333.50" xmlns="http://www.w3.org/2000/svg" xmlns:xlink="http://www.w3.org/1999/xlink">
<g id="graph0" class="graph" transform="scale(1 1) rotate(0) translate(4 329.5)">
<title>ipc::transport::Socket_stream_channel&lt; SIO &gt;</title>
<polygon fill="white" stroke="transparent" points="-4,4 -4,-329.5 682,-329.5 682,4 -4,4"/>
<!-- Node1 -->
<g id="node1" class="node">
<title>Node1</title>
<g id="a_node1"><a xlink:title="A Channel with a handles pipe only (no blobs pipe) that uses a Unix domain socket connection as the u...">
<polygon fill="#bfbfbf" stroke="black" points="561,-135.5 561,-161.5 678,-161.5 678,-135.5 561,-135.5"/>
<text text-anchor="start" x="569" y="-151.1" font-family="Helvetica,sans-Serif" font-size="8.00">ipc::transport::Socket</text>
<text text-anchor="middle" x="619.5" y="-142.1" font-family="Helvetica,sans-Serif" font-size="8.00">_stream_channel&lt; SIO &gt;</text>
</a>
</g>
</g>
<!-- Node2 -->
<g id="node2" class="node">
<title>Node2</title>
<g id="a_node2"><a xlink:href="classipc_1_1transport_1_1Channel.html" target="_top" xlink:title=" ">
<polygon fill="white" stroke="black" points="378,-108.5 378,-188.5 524,-188.5 524,-108.5 378,-108.5"/>
<text text-anchor="start" x="386" y="-178.1" font-family="Helvetica,sans-Serif" font-size="8.00">ipc::transport::Channel</text>
<text text-anchor="start" x="386" y="-169.1" font-family="Helvetica,sans-Serif" font-size="8.00">&lt; Null_peer, Null_peer,</text>
<text text-anchor="start" x="386" y="-160.1" font-family="Helvetica,sans-Serif" font-size="8.00"> std::conditional_t&lt; SIO,</text>
<text text-anchor="start" x="386" y="-151.1" font-family="Helvetica,sans-Serif" font-size="8.00"> sync_io::Native_socket_stream,</text>
<text text-anchor="start" x="386" y="-142.1" font-family="Helvetica,sans-Serif" font-size="8.00"> Native_socket_stream &gt;, std</text>
<text text-anchor="start" x="386" y="-133.1" font-family="Helvetica,sans-Serif" font-size="8.00">::conditional_t&lt; SIO, sync_io</text>
<text text-anchor="start" x="386" y="-124.1" font-family="Helvetica,sans-Serif" font-size="8.00">::Native_socket_stream, Native</text>
<text text-anchor="middle" x="451" y="-115.1" font-family="Helvetica,sans-Serif" font-size="8.00">_socket_stream &gt; &gt;</text>
</a>
</g>
</g>
<!-- Node2&#45;&gt;Node1 -->
<g id="edge1" class="edge">
<title>Node2&#45;&gt;Node1</title>
<path fill="none" stroke="midnightblue" d="M534.21,-148.5C543.22,-148.5 552.25,-148.5 560.87,-148.5"/>
<polygon fill="midnightblue" stroke="midnightblue" points="534.06,-145 524.06,-148.5 534.06,-152 534.06,-145"/>
</g>
<!-- Node3 -->
<g id="node3" class="node">
<title>Node3</title>
<g id="a_node3"><a xlink:title=" ">
<polygon fill="white" stroke="#bfbfbf" points="133.5,-308 133.5,-325 240.5,-325 240.5,-308 133.5,-308"/>
<text text-anchor="middle" x="187" y="-314.6" font-family="Helvetica,sans-Serif" font-size="8.00">flow::log::Log_context</text>
</a>
</g>
</g>
<!-- Node3&#45;&gt;Node2 -->
<g id="edge2" class="edge">
<title>Node3&#45;&gt;Node2</title>
<path fill="none" stroke="midnightblue" d="M250.55,-322.54C285.29,-322.88 327.86,-318.04 360,-297.5 399.21,-272.44 423.82,-223.61 437.2,-188.68"/>
<polygon fill="midnightblue" stroke="midnightblue" points="250.58,-319.04 240.5,-322.3 250.41,-326.04 250.58,-319.04"/>
</g>
<!-- Node4 -->
<g id="node4" class="node">
<title>Node4</title>
<g id="a_node4"><a xlink:title=" ">
<polygon fill="white" stroke="#bfbfbf" points="136.5,-217 136.5,-234 237.5,-234 237.5,-217 136.5,-217"/>
<text text-anchor="middle" x="187" y="-223.6" font-family="Helvetica,sans-Serif" font-size="8.00">static constexpr bool</text>
</a>
</g>
</g>
<!-- Node4&#45;&gt;Node2 -->
<g id="edge3" class="edge">
<title>Node4&#45;&gt;Node2</title>
<path fill="none" stroke="#9a32cd" stroke-dasharray="5,2" d="M247.78,-216.34C281.26,-210.38 323.48,-201.48 360,-189.5 365.87,-187.57 371.87,-185.38 377.85,-183.03"/>
<polygon fill="#9a32cd" stroke="#9a32cd" points="246.94,-212.93 237.69,-218.1 248.14,-219.83 246.94,-212.93"/>
<text text-anchor="middle" x="312" y="-287.1" font-family="Helvetica,sans-Serif" font-size="8.00"> S_HAS_2_PIPES</text>
<text text-anchor="middle" x="312" y="-278.1" font-family="Helvetica,sans-Serif" font-size="8.00">S_HAS_BLOB_PIPE</text>
<text text-anchor="middle" x="312" y="-269.1" font-family="Helvetica,sans-Serif" font-size="8.00">S_HAS_BLOB_PIPE_ONLY</text>
<text text-anchor="start" x="264" y="-260.1" font-family="Helvetica,sans-Serif" font-size="8.00">S_HAS_NATIVE_HANDLE</text>
<text text-anchor="middle" x="312" y="-251.1" font-family="Helvetica,sans-Serif" font-size="8.00">_PIPE</text>
<text text-anchor="start" x="264" y="-242.1" font-family="Helvetica,sans-Serif" font-size="8.00">S_HAS_NATIVE_HANDLE</text>
<text text-anchor="middle" x="312" y="-233.1" font-family="Helvetica,sans-Serif" font-size="8.00">_PIPE_ONLY</text>
<text text-anchor="middle" x="312" y="-224.1" font-family="Helvetica,sans-Serif" font-size="8.00">S_IS_ASYNC_IO_OBJ</text>
<text text-anchor="middle" x="312" y="-215.1" font-family="Helvetica,sans-Serif" font-size="8.00">S_IS_SYNC_IO_OBJ</text>
</g>
<!-- Node5 -->
<g id="node5" class="node">
<title>Node5</title>
<g id="a_node5"><a xlink:title=" ">
<polygon fill="white" stroke="black" points="157.5,-181 157.5,-198 216.5,-198 216.5,-181 157.5,-181"/>
<text text-anchor="middle" x="187" y="-187.6" font-family="Helvetica,sans-Serif" font-size="8.00">std::string</text>
</a>
</g>
</g>
<!-- Node5&#45;&gt;Node2 -->
<g id="edge4" class="edge">
<title>Node5&#45;&gt;Node2</title>
<path fill="none" stroke="#9a32cd" stroke-dasharray="5,2" d="M226.59,-183.46C266.24,-177.26 328.92,-167.45 377.8,-159.8"/>
<polygon fill="#9a32cd" stroke="#9a32cd" points="225.88,-180.03 216.54,-185.03 226.96,-186.95 225.88,-180.03"/>
<text text-anchor="middle" x="312" y="-179.1" font-family="Helvetica,sans-Serif" font-size="8.00"> m_nickname</text>
</g>
<!-- Node6 -->
<g id="node6" class="node">
<title>Node6</title>
<g id="a_node6"><a xlink:title=" ">
<polygon fill="white" stroke="black" points="0,-176.5 0,-202.5 91,-202.5 91,-176.5 0,-176.5"/>
<text text-anchor="start" x="8" y="-192.1" font-family="Helvetica,sans-Serif" font-size="8.00">std::basic_string&lt;</text>
<text text-anchor="middle" x="45.5" y="-183.1" font-family="Helvetica,sans-Serif" font-size="8.00"> Char &gt;</text>
</a>
</g>
</g>
<!-- Node6&#45;&gt;Node5 -->
<g id="edge5" class="edge">
<title>Node6&#45;&gt;Node5</title>
<path fill="none" stroke="midnightblue" d="M101.16,-189.5C120.32,-189.5 141.07,-189.5 157.25,-189.5"/>
<polygon fill="midnightblue" stroke="midnightblue" points="101.02,-186 91.02,-189.5 101.02,-193 101.02,-186"/>
</g>
<!-- Node7 -->
<g id="node7" class="node">
<title>Node7</title>
<g id="a_node7"><a xlink:title=" ">
<polygon fill="white" stroke="#bfbfbf" points="132,-135.5 132,-161.5 242,-161.5 242,-135.5 132,-135.5"/>
<text text-anchor="start" x="140" y="-151.1" font-family="Helvetica,sans-Serif" font-size="8.00">optional&lt; Blob_sender</text>
<text text-anchor="middle" x="187" y="-142.1" font-family="Helvetica,sans-Serif" font-size="8.00">_obj &gt;</text>
</a>
</g>
</g>
<!-- Node7&#45;&gt;Node2 -->
<g id="edge6" class="edge">
<title>Node7&#45;&gt;Node2</title>
<path fill="none" stroke="#9a32cd" stroke-dasharray="5,2" d="M252.71,-148.5C290.67,-148.5 338.71,-148.5 377.88,-148.5"/>
<polygon fill="#9a32cd" stroke="#9a32cd" points="252.29,-145 242.29,-148.5 252.29,-152 252.29,-145"/>
<text text-anchor="middle" x="312" y="-151.1" font-family="Helvetica,sans-Serif" font-size="8.00"> m_blob_snd</text>
</g>
<!-- Node8 -->
<g id="node8" class="node">
<title>Node8</title>
<g id="a_node8"><a xlink:title=" ">
<polygon fill="white" stroke="#bfbfbf" points="130,-90.5 130,-116.5 244,-116.5 244,-90.5 130,-90.5"/>
<text text-anchor="start" x="138" y="-106.1" font-family="Helvetica,sans-Serif" font-size="8.00">optional&lt; Blob_receiver</text>
<text text-anchor="middle" x="187" y="-97.1" font-family="Helvetica,sans-Serif" font-size="8.00">_obj &gt;</text>
</a>
</g>
</g>
<!-- Node8&#45;&gt;Node2 -->
<g id="edge7" class="edge">
<title>Node8&#45;&gt;Node2</title>
<path fill="none" stroke="#9a32cd" stroke-dasharray="5,2" d="M254.08,-114.85C291.84,-121.33 339.22,-129.47 377.93,-136.12"/>
<polygon fill="#9a32cd" stroke="#9a32cd" points="254.65,-111.4 244.21,-113.15 253.47,-118.3 254.65,-111.4"/>
<text text-anchor="middle" x="312" y="-135.1" font-family="Helvetica,sans-Serif" font-size="8.00"> m_blob_rcv</text>
</g>
<!-- Node9 -->
<g id="node9" class="node">
<title>Node9</title>
<g id="a_node9"><a xlink:title=" ">
<polygon fill="white" stroke="#bfbfbf" points="128,-45.5 128,-71.5 246,-71.5 246,-45.5 128,-45.5"/>
<text text-anchor="start" x="136" y="-61.1" font-family="Helvetica,sans-Serif" font-size="8.00">optional&lt; Native_handle</text>
<text text-anchor="middle" x="187" y="-52.1" font-family="Helvetica,sans-Serif" font-size="8.00">_sender_obj &gt;</text>
</a>
</g>
</g>
<!-- Node9&#45;&gt;Node2 -->
<g id="edge8" class="edge">
<title>Node9&#45;&gt;Node2</title>
<path fill="none" stroke="#9a32cd" stroke-dasharray="5,2" d="M256.41,-72.94C288.36,-80.56 326.63,-90.95 360,-103.5 365.89,-105.71 371.9,-108.2 377.88,-110.82"/>
<polygon fill="#9a32cd" stroke="#9a32cd" points="256.8,-69.44 246.27,-70.57 255.2,-76.26 256.8,-69.44"/>
<text text-anchor="middle" x="312" y="-106.1" font-family="Helvetica,sans-Serif" font-size="8.00"> m_hndl_snd</text>
</g>
<!-- Node10 -->
<g id="node10" class="node">
<title>Node10</title>
<g id="a_node10"><a xlink:title=" ">
<polygon fill="white" stroke="#bfbfbf" points="128,-0.5 128,-26.5 246,-26.5 246,-0.5 128,-0.5"/>
<text text-anchor="start" x="136" y="-16.1" font-family="Helvetica,sans-Serif" font-size="8.00">optional&lt; Native_handle</text>
<text text-anchor="middle" x="187" y="-7.1" font-family="Helvetica,sans-Serif" font-size="8.00">_receiver_obj &gt;</text>
</a>
</g>
</g>
<!-- Node10&#45;&gt;Node2 -->
<g id="edge9" class="edge">
<title>Node10&#45;&gt;Node2</title>
<path fill="none" stroke="#9a32cd" stroke-dasharray="5,2" d="M256.12,-24.94C289,-32.41 328.14,-44.25 360,-62.5 380.82,-74.42 400.5,-92.17 416.12,-108.46"/>
<polygon fill="#9a32cd" stroke="#9a32cd" points="256.65,-21.47 246.13,-22.76 255.15,-28.31 256.65,-21.47"/>
<text text-anchor="middle" x="312" y="-65.1" font-family="Helvetica,sans-Serif" font-size="8.00"> m_hndl_rcv</text>
</g>
</g>
</svg>
