<?xml version="1.0" encoding="UTF-8" standalone="no"?>
<!DOCTYPE svg PUBLIC "-//W3C//DTD SVG 1.1//EN"
 "http://www.w3.org/Graphics/SVG/1.1/DTD/svg11.dtd">
<!-- Generated by graphviz version 2.43.0 (0)
 -->
<!-- Title: ipc::util::Process_credentials::group_id Pages: 1 -->
<svg width="272pt" height="80pt"
 viewBox="0.00 0.00 272.00 80.00" xmlns="http://www.w3.org/2000/svg" xmlns:xlink="http://www.w3.org/1999/xlink">
<g id="graph0" class="graph" transform="scale(1 1) rotate(0) translate(4 76)">
<title>ipc::util::Process_credentials::group_id</title>
<polygon fill="white" stroke="transparent" points="-4,4 -4,-76 268,-76 268,4 -4,4"/>
<!-- Node1 -->
<g id="node1" class="node">
<title>Node1</title>
<g id="a_node1"><a xlink:title="The group user ID (GID).">
<polygon fill="#bfbfbf" stroke="black" points="157,-22.5 157,-48.5 264,-48.5 264,-22.5 157,-22.5"/>
<text text-anchor="start" x="165" y="-38.1" font-family="Helvetica,sans-Serif" font-size="8.00">ipc::util::Process</text>
<text text-anchor="middle" x="210.5" y="-29.1" font-family="Helvetica,sans-Serif" font-size="8.00">_credentials::group_id</text>
</a>
</g>
</g>
<!-- Node2 -->
<g id="node2" class="node">
<title>Node2</title>
<g id="a_node2"><a xlink:href="classipc_1_1util_1_1Process__credentials.html#a9da92514406dc1fc61f5a561c9b5aee9" target="_top" xlink:title="Prints string representation of the given util::Process_credentials to the given ostream.">
<polygon fill="white" stroke="black" points="0,-45.5 0,-71.5 121,-71.5 121,-45.5 0,-45.5"/>
<text text-anchor="start" x="8" y="-61.1" font-family="Helvetica,sans-Serif" font-size="8.00">ipc::util::Process</text>
<text text-anchor="middle" x="60.5" y="-52.1" font-family="Helvetica,sans-Serif" font-size="8.00">_credentials::operator&lt;&lt;</text>
</a>
</g>
</g>
<!-- Node1&#45;&gt;Node2 -->
<g id="edge1" class="edge">
<title>Node1&#45;&gt;Node2</title>
<path fill="none" stroke="midnightblue" d="M147.01,-45.21C138.47,-46.54 129.72,-47.9 121.24,-49.22"/>
<polygon fill="midnightblue" stroke="midnightblue" points="147.56,-48.67 156.9,-43.67 146.49,-41.75 147.56,-48.67"/>
</g>
<!-- Node3 -->
<g id="node3" class="node">
<title>Node3</title>
<g id="a_node3"><a xlink:href="classipc_1_1util_1_1Process__credentials.html#a4ccdab04a79159f82d7ade8136a2eeb2" target="_top" xlink:title="Checks for by&#45;value equality between two Process_credentials objects.">
<polygon fill="white" stroke="black" points="0,-0.5 0,-26.5 121,-26.5 121,-0.5 0,-0.5"/>
<text text-anchor="start" x="8" y="-16.1" font-family="Helvetica,sans-Serif" font-size="8.00">ipc::util::Process</text>
<text text-anchor="middle" x="60.5" y="-7.1" font-family="Helvetica,sans-Serif" font-size="8.00">_credentials::operator==</text>
</a>
</g>
</g>
<!-- Node1&#45;&gt;Node3 -->
<g id="edge2" class="edge">
<title>Node1&#45;&gt;Node3</title>
<path fill="none" stroke="midnightblue" d="M147.01,-26.21C138.47,-24.94 129.72,-23.64 121.24,-22.38"/>
<polygon fill="midnightblue" stroke="midnightblue" points="146.5,-29.67 156.9,-27.68 147.53,-22.75 146.5,-29.67"/>
</g>
</g>
</svg>
