<?xml version="1.0" encoding="UTF-8" standalone="no"?>
<!DOCTYPE svg PUBLIC "-//W3C//DTD SVG 1.1//EN"
 "http://www.w3.org/Graphics/SVG/1.1/DTD/svg11.dtd">
<!-- Generated by graphviz version 2.43.0 (0)
 -->
<!-- Title: ipc::transport::struc::sync_io::Channel::create_msg Pages: 1 -->
<svg width="444pt" height="53pt"
 viewBox="0.00 0.00 444.00 53.00" xmlns="http://www.w3.org/2000/svg" xmlns:xlink="http://www.w3.org/1999/xlink">
<g id="graph0" class="graph" transform="scale(1 1) rotate(0) translate(4 49)">
<title>ipc::transport::struc::sync_io::Channel::create_msg</title>
<polygon fill="white" stroke="transparent" points="-4,4 -4,-49 440,-49 440,4 -4,4"/>
<!-- Node1 -->
<g id="node1" class="node">
<title>Node1</title>
<g id="a_node1"><a xlink:title="See Async_io_obj counterpart.">
<polygon fill="#bfbfbf" stroke="black" points="0,-9.5 0,-35.5 146,-35.5 146,-9.5 0,-9.5"/>
<text text-anchor="start" x="8" y="-25.1" font-family="Helvetica,sans-Serif" font-size="8.00">ipc::transport::struc</text>
<text text-anchor="middle" x="73" y="-16.1" font-family="Helvetica,sans-Serif" font-size="8.00">::sync_io::Channel::create_msg</text>
</a>
</g>
</g>
<!-- Node2 -->
<g id="node2" class="node">
<title>Node2</title>
<g id="a_node2"><a xlink:href="classipc_1_1transport_1_1struc_1_1Msg__out.html#aced8ef8237617c74aaf06832d1385fed" target="_top" xlink:title="Store the Native_handle (potentially .null(), meaning none) in this out&#45;message; no&#45;ops if the same ....">
<polygon fill="white" stroke="black" points="182,-5 182,-40 295,-40 295,-5 182,-5"/>
<text text-anchor="start" x="190" y="-29.6" font-family="Helvetica,sans-Serif" font-size="8.00">ipc::transport::struc</text>
<text text-anchor="start" x="190" y="-20.6" font-family="Helvetica,sans-Serif" font-size="8.00">::Msg_out::store_native</text>
<text text-anchor="middle" x="238.5" y="-11.6" font-family="Helvetica,sans-Serif" font-size="8.00">_handle_or_null</text>
</a>
</g>
</g>
<!-- Node1&#45;&gt;Node2 -->
<g id="edge1" class="edge">
<title>Node1&#45;&gt;Node2</title>
<path fill="none" stroke="midnightblue" d="M146.19,-22.5C154.7,-22.5 163.36,-22.5 171.78,-22.5"/>
<polygon fill="midnightblue" stroke="midnightblue" points="171.9,-26 181.9,-22.5 171.9,-19 171.9,-26"/>
</g>
<!-- Node3 -->
<g id="node3" class="node">
<title>Node3</title>
<g id="a_node3"><a xlink:href="namespaceipc_1_1transport_1_1asio__local__stream__socket.html#af0833f160dffd7f1c6921d27883a186b" target="_top" xlink:title="Little utility that returns the raw Native_handle suitable for Peer_socket to the OS.">
<polygon fill="white" stroke="black" points="331,-0.5 331,-44.5 436,-44.5 436,-0.5 331,-0.5"/>
<text text-anchor="start" x="339" y="-34.1" font-family="Helvetica,sans-Serif" font-size="8.00">ipc::transport::asio</text>
<text text-anchor="start" x="339" y="-25.1" font-family="Helvetica,sans-Serif" font-size="8.00">_local_stream_socket</text>
<text text-anchor="start" x="339" y="-16.1" font-family="Helvetica,sans-Serif" font-size="8.00">::release_native_peer</text>
<text text-anchor="middle" x="383.5" y="-7.1" font-family="Helvetica,sans-Serif" font-size="8.00">_socket</text>
</a>
</g>
</g>
<!-- Node2&#45;&gt;Node3 -->
<g id="edge2" class="edge">
<title>Node2&#45;&gt;Node3</title>
<path fill="none" stroke="midnightblue" d="M295.2,-22.5C303.56,-22.5 312.23,-22.5 320.71,-22.5"/>
<polygon fill="midnightblue" stroke="midnightblue" points="320.93,-26 330.93,-22.5 320.93,-19 320.93,-26"/>
</g>
</g>
</svg>
