<?xml version="1.0" encoding="UTF-8" standalone="no"?>
<!DOCTYPE svg PUBLIC "-//W3C//DTD SVG 1.1//EN"
 "http://www.w3.org/Graphics/SVG/1.1/DTD/svg11.dtd">
<!-- Generated by graphviz version 2.43.0 (0)
 -->
<!-- Title: ipc::util::Shared_name::empty Pages: 1 -->
<svg width="836pt" height="557pt"
 viewBox="0.00 0.00 836.00 557.00" xmlns="http://www.w3.org/2000/svg" xmlns:xlink="http://www.w3.org/1999/xlink">
<g id="graph0" class="graph" transform="scale(1 1) rotate(0) translate(4 553)">
<title>ipc::util::Shared_name::empty</title>
<polygon fill="white" stroke="transparent" points="-4,4 -4,-553 832,-553 832,4 -4,4"/>
<!-- Node1 -->
<g id="node1" class="node">
<title>Node1</title>
<g id="a_node1"><a xlink:title="Returns true if and only if str().empty() == true.">
<polygon fill="#bfbfbf" stroke="black" points="718,-173.5 718,-199.5 828,-199.5 828,-173.5 718,-173.5"/>
<text text-anchor="start" x="726" y="-189.1" font-family="Helvetica,sans-Serif" font-size="8.00">ipc::util::Shared_name</text>
<text text-anchor="middle" x="773" y="-180.1" font-family="Helvetica,sans-Serif" font-size="8.00">::empty</text>
</a>
</g>
</g>
<!-- Node2 -->
<g id="node2" class="node">
<title>Node2</title>
<g id="a_node2"><a xlink:href="namespaceipc_1_1util.html#a71fa0c2bd2c45109a9fbab4b048c666d" target="_top" xlink:title="Builds an absolute name according to the path convention explained in Shared_name class doc header; t...">
<polygon fill="white" stroke="black" points="522,-337.5 522,-363.5 682,-363.5 682,-337.5 522,-337.5"/>
<text text-anchor="start" x="530" y="-353.1" font-family="Helvetica,sans-Serif" font-size="8.00">ipc::util::build_conventional</text>
<text text-anchor="middle" x="602" y="-344.1" font-family="Helvetica,sans-Serif" font-size="8.00">_non_session_based_shared_name</text>
</a>
</g>
</g>
<!-- Node1&#45;&gt;Node2 -->
<g id="edge1" class="edge">
<title>Node1&#45;&gt;Node2</title>
<path fill="none" stroke="midnightblue" d="M761.57,-209.12C747.3,-237.85 719.17,-287.31 682,-317.5 671.73,-325.84 659.06,-332.37 646.89,-337.34"/>
<polygon fill="midnightblue" stroke="midnightblue" points="764.83,-210.42 766.03,-199.89 758.53,-207.37 764.83,-210.42"/>
</g>
<!-- Node4 -->
<g id="node4" class="node">
<title>Node4</title>
<g id="a_node4"><a xlink:href="namespaceipc_1_1session.html#a365d2d63f77b738e67e206af6b702634" target="_top" xlink:title="Builds an absolute name according to the path convention explained in Shared_name class doc header; t...">
<polygon fill="white" stroke="black" points="353,-292.5 353,-318.5 486,-318.5 486,-292.5 353,-292.5"/>
<text text-anchor="start" x="361" y="-308.1" font-family="Helvetica,sans-Serif" font-size="8.00">ipc::session::build</text>
<text text-anchor="middle" x="419.5" y="-299.1" font-family="Helvetica,sans-Serif" font-size="8.00">_conventional_shared_name</text>
</a>
</g>
</g>
<!-- Node1&#45;&gt;Node4 -->
<g id="edge3" class="edge">
<title>Node1&#45;&gt;Node4</title>
<path fill="none" stroke="midnightblue" d="M758.84,-207.98C743.52,-230.86 715.92,-266 682,-282.5 620.52,-312.4 541.31,-315.16 486.25,-312.31"/>
<polygon fill="midnightblue" stroke="midnightblue" points="761.78,-209.89 764.28,-199.59 755.91,-206.08 761.78,-209.89"/>
</g>
<!-- Node12 -->
<g id="node12" class="node">
<title>Node12</title>
<g id="a_node12"><a xlink:href="classipc_1_1session_1_1shm_1_1arena__lend_1_1jemalloc_1_1Session__impl.html#a46155078d8764c71a8d75db64345074b" target="_top" xlink:title="To be invoked at most once, synchronously sets up nearly&#45;all aspects of this arena&#45;lending&#45;SHM&#45;capabl...">
<polygon fill="white" stroke="black" points="179.5,-125 179.5,-160 295.5,-160 295.5,-125 179.5,-125"/>
<text text-anchor="start" x="187.5" y="-149.6" font-family="Helvetica,sans-Serif" font-size="8.00">ipc::session::shm::</text>
<text text-anchor="start" x="187.5" y="-140.6" font-family="Helvetica,sans-Serif" font-size="8.00">arena_lend::jemalloc</text>
<text text-anchor="middle" x="237.5" y="-131.6" font-family="Helvetica,sans-Serif" font-size="8.00">::Session_impl::init_shm</text>
</a>
</g>
</g>
<!-- Node1&#45;&gt;Node12 -->
<g id="edge19" class="edge">
<title>Node1&#45;&gt;Node12</title>
<path fill="none" stroke="midnightblue" d="M707.7,-189.71C699.06,-190.03 690.32,-190.32 682,-190.5 610.91,-192.08 592.86,-196.46 522,-190.5 442.91,-183.85 352.7,-166.95 295.7,-155.09"/>
<polygon fill="midnightblue" stroke="midnightblue" points="707.91,-193.2 717.76,-189.3 707.63,-186.21 707.91,-193.2"/>
</g>
<!-- Node15 -->
<g id="node15" class="node">
<title>Node15</title>
<g id="a_node15"><a xlink:href="namespaceipc_1_1session.html#a5216d618bb573e68276d2933ce3f4010" target="_top" xlink:title="Return the prefix common to all calls to either build_conventional_shared_name() overload with the ar...">
<polygon fill="white" stroke="black" points="549,-238 549,-273 655,-273 655,-238 549,-238"/>
<text text-anchor="start" x="557" y="-262.6" font-family="Helvetica,sans-Serif" font-size="8.00">ipc::session::build</text>
<text text-anchor="start" x="557" y="-253.6" font-family="Helvetica,sans-Serif" font-size="8.00">_conventional_shared</text>
<text text-anchor="middle" x="602" y="-244.6" font-family="Helvetica,sans-Serif" font-size="8.00">_name_prefix</text>
</a>
</g>
</g>
<!-- Node1&#45;&gt;Node15 -->
<g id="edge14" class="edge">
<title>Node1&#45;&gt;Node15</title>
<path fill="none" stroke="midnightblue" d="M731.11,-203.36C715.72,-209.7 698.06,-216.95 682,-223.5 670.49,-228.2 658.03,-233.26 646.48,-237.94"/>
<polygon fill="midnightblue" stroke="midnightblue" points="732.45,-206.6 740.36,-199.55 729.78,-200.12 732.45,-206.6"/>
</g>
<!-- Node17 -->
<g id="node17" class="node">
<title>Node17</title>
<g id="a_node17"><a xlink:href="classipc_1_1session_1_1Client__session__impl.html#a224dd90df35537680e649f74e427d47d" target="_top" xlink:title="In thread W, based on resources acquired on server side, creates local Channel_obj to emit to the use...">
<polygon fill="white" stroke="black" points="549.5,-146 549.5,-181 654.5,-181 654.5,-146 549.5,-146"/>
<text text-anchor="start" x="557.5" y="-170.6" font-family="Helvetica,sans-Serif" font-size="8.00">ipc::session::Client</text>
<text text-anchor="start" x="557.5" y="-161.6" font-family="Helvetica,sans-Serif" font-size="8.00">_session_impl::create</text>
<text text-anchor="middle" x="602" y="-152.6" font-family="Helvetica,sans-Serif" font-size="8.00">_channel_obj</text>
</a>
</g>
</g>
<!-- Node1&#45;&gt;Node17 -->
<g id="edge17" class="edge">
<title>Node1&#45;&gt;Node17</title>
<path fill="none" stroke="midnightblue" d="M707.48,-177.72C690.03,-175.34 671.36,-172.8 654.71,-170.54"/>
<polygon fill="midnightblue" stroke="midnightblue" points="707.22,-181.22 717.6,-179.1 708.16,-174.28 707.22,-181.22"/>
</g>
<!-- Node18 -->
<g id="node18" class="node">
<title>Node18</title>
<g id="a_node18"><a xlink:href="classipc_1_1util_1_1Shared__name.html#a774e872b51100b728e0780b39f563ed9" target="_top" xlink:title="Returns true if and only if !this&#45;&gt;empty(), and str() ends with the S_SEPARATOR character.">
<polygon fill="white" stroke="black" points="545.5,-100.5 545.5,-126.5 658.5,-126.5 658.5,-100.5 545.5,-100.5"/>
<text text-anchor="start" x="553.5" y="-116.1" font-family="Helvetica,sans-Serif" font-size="8.00">ipc::util::Shared_name</text>
<text text-anchor="middle" x="602" y="-107.1" font-family="Helvetica,sans-Serif" font-size="8.00">::has_trailing_separator</text>
</a>
</g>
</g>
<!-- Node1&#45;&gt;Node18 -->
<g id="edge18" class="edge">
<title>Node1&#45;&gt;Node18</title>
<path fill="none" stroke="midnightblue" d="M742.6,-167.96C725.41,-157.69 703.02,-145.27 682,-136.5 673.17,-132.82 663.55,-129.48 654.16,-126.57"/>
<polygon fill="midnightblue" stroke="midnightblue" points="741.21,-171.21 751.57,-173.41 744.84,-165.23 741.21,-171.21"/>
</g>
<!-- Node19 -->
<g id="node19" class="node">
<title>Node19</title>
<g id="a_node19"><a xlink:href="classipc_1_1session_1_1Server__session__impl.html#a997978ea3e1703ff561a4e0f0b7bd359" target="_top" xlink:title="In thread W, handler for m_master_channel receiving a passive&#45;open (a/k/a open&#45;channel&#45;to&#45;server) req...">
<polygon fill="white" stroke="black" points="536,-46 536,-81 668,-81 668,-46 536,-46"/>
<text text-anchor="start" x="544" y="-70.6" font-family="Helvetica,sans-Serif" font-size="8.00">ipc::session::Server</text>
<text text-anchor="start" x="544" y="-61.6" font-family="Helvetica,sans-Serif" font-size="8.00">_session_impl::on_master</text>
<text text-anchor="middle" x="602" y="-52.6" font-family="Helvetica,sans-Serif" font-size="8.00">_channel_open_channel_req</text>
</a>
</g>
</g>
<!-- Node1&#45;&gt;Node19 -->
<g id="edge20" class="edge">
<title>Node1&#45;&gt;Node19</title>
<path fill="none" stroke="midnightblue" d="M757,-165.18C740.77,-143.57 713.03,-110.55 682,-90.5 676.52,-86.96 670.53,-83.83 664.37,-81.08"/>
<polygon fill="midnightblue" stroke="midnightblue" points="754.29,-167.41 763.03,-173.4 759.93,-163.27 754.29,-167.41"/>
</g>
<!-- Node20 -->
<g id="node20" class="node">
<title>Node20</title>
<g id="a_node20"><a xlink:href="classipc_1_1util_1_1Shared__name.html#add4ed045e03f786427a236a5dfa5a1b0" target="_top" xlink:title="Best&#45;effort attempt to turn sanitized() from false to true, unless it is already true; returns the fi...">
<polygon fill="white" stroke="black" points="547,-0.5 547,-26.5 657,-26.5 657,-0.5 547,-0.5"/>
<text text-anchor="start" x="555" y="-16.1" font-family="Helvetica,sans-Serif" font-size="8.00">ipc::util::Shared_name</text>
<text text-anchor="middle" x="602" y="-7.1" font-family="Helvetica,sans-Serif" font-size="8.00">::sanitize</text>
</a>
</g>
</g>
<!-- Node1&#45;&gt;Node20 -->
<g id="edge21" class="edge">
<title>Node1&#45;&gt;Node20</title>
<path fill="none" stroke="midnightblue" d="M764.45,-163.77C752.34,-130.79 725.4,-69.97 682,-36.5 674.65,-30.83 665.93,-26.56 657.03,-23.34"/>
<polygon fill="midnightblue" stroke="midnightblue" points="761.24,-165.17 767.87,-173.43 767.84,-162.84 761.24,-165.17"/>
</g>
<!-- Node3 -->
<g id="node3" class="node">
<title>Node3</title>
<g id="a_node3"><a xlink:href="classipc_1_1transport_1_1Blob__stream__mq__base__impl.html#ad64ef04f561dcb09e473be433df81074" target="_top" xlink:title="Name of sentinel SHM pool created by ensure_unique_peer() and potentially cleaned up by remove_persis...">
<polygon fill="white" stroke="black" points="364.5,-338 364.5,-373 474.5,-373 474.5,-338 364.5,-338"/>
<text text-anchor="start" x="372.5" y="-362.6" font-family="Helvetica,sans-Serif" font-size="8.00">ipc::transport::Blob</text>
<text text-anchor="start" x="372.5" y="-353.6" font-family="Helvetica,sans-Serif" font-size="8.00">_stream_mq_base_impl</text>
<text text-anchor="middle" x="419.5" y="-344.6" font-family="Helvetica,sans-Serif" font-size="8.00">::mq_sentinel_name</text>
</a>
</g>
</g>
<!-- Node2&#45;&gt;Node3 -->
<g id="edge2" class="edge">
<title>Node2&#45;&gt;Node3</title>
<path fill="none" stroke="midnightblue" d="M511.72,-352.97C499.08,-353.32 486.41,-353.67 474.71,-354"/>
<polygon fill="midnightblue" stroke="midnightblue" points="511.93,-356.47 521.83,-352.69 511.74,-349.47 511.93,-356.47"/>
</g>
<!-- Node5 -->
<g id="node5" class="node">
<title>Node5</title>
<g id="a_node5"><a xlink:href="classipc_1_1session_1_1shm_1_1classic_1_1Server__session__impl.html#a9c78b2c35b853e1702a06ec451545945" target="_top" xlink:title="For use by internal user Session_server: See Server_session_mv counterpart.">
<polygon fill="white" stroke="black" points="174,-450 174,-485 301,-485 301,-450 174,-450"/>
<text text-anchor="start" x="182" y="-474.6" font-family="Helvetica,sans-Serif" font-size="8.00">ipc::session::shm::</text>
<text text-anchor="start" x="182" y="-465.6" font-family="Helvetica,sans-Serif" font-size="8.00">classic::Server_session</text>
<text text-anchor="middle" x="237.5" y="-456.6" font-family="Helvetica,sans-Serif" font-size="8.00">_impl::async_accept_log_in</text>
</a>
</g>
</g>
<!-- Node4&#45;&gt;Node5 -->
<g id="edge4" class="edge">
<title>Node4&#45;&gt;Node5</title>
<path fill="none" stroke="midnightblue" d="M357.64,-324.31C356,-325.62 354.45,-327.01 353,-328.5 316.52,-365.96 353.6,-403.16 317,-440.5 312.46,-445.13 307.09,-448.97 301.33,-452.15"/>
<polygon fill="midnightblue" stroke="midnightblue" points="359.98,-326.96 366.39,-318.52 356.12,-321.12 359.98,-326.96"/>
</g>
<!-- Node6 -->
<g id="node6" class="node">
<title>Node6</title>
<g id="a_node6"><a xlink:href="classipc_1_1session_1_1shm_1_1classic_1_1Client__session__impl.html#a2e6f245648bff51b17a45a16178d62dc" target="_top" xlink:title="See session::Client_session_impl counterpart.">
<polygon fill="white" stroke="black" points="183,-396 183,-431 292,-431 292,-396 183,-396"/>
<text text-anchor="start" x="191" y="-420.6" font-family="Helvetica,sans-Serif" font-size="8.00">ipc::session::shm::</text>
<text text-anchor="start" x="191" y="-411.6" font-family="Helvetica,sans-Serif" font-size="8.00">classic::Client_session</text>
<text text-anchor="middle" x="237.5" y="-402.6" font-family="Helvetica,sans-Serif" font-size="8.00">_impl::async_connect</text>
</a>
</g>
</g>
<!-- Node4&#45;&gt;Node6 -->
<g id="edge5" class="edge">
<title>Node4&#45;&gt;Node6</title>
<path fill="none" stroke="midnightblue" d="M360.29,-323.4C357.74,-324.96 355.29,-326.66 353,-328.5 329.34,-347.49 340.72,-367.58 317,-386.5 309.68,-392.34 301.01,-396.96 292.16,-400.59"/>
<polygon fill="midnightblue" stroke="midnightblue" points="362.16,-326.37 369.32,-318.56 358.85,-320.2 362.16,-326.37"/>
</g>
<!-- Node7 -->
<g id="node7" class="node">
<title>Node7</title>
<g id="a_node7"><a xlink:href="classipc_1_1session_1_1Session__base.html#a09cbe99083616bae00928f8e37c8373b" target="_top" xlink:title="Computes the name of the interprocess named&#45;mutex used to control reading/writing to the file storing...">
<polygon fill="white" stroke="black" points="174.5,-342 174.5,-377 300.5,-377 300.5,-342 174.5,-342"/>
<text text-anchor="start" x="182.5" y="-366.6" font-family="Helvetica,sans-Serif" font-size="8.00">ipc::session::Session</text>
<text text-anchor="start" x="182.5" y="-357.6" font-family="Helvetica,sans-Serif" font-size="8.00">_base::cur_ns_store_mutex</text>
<text text-anchor="middle" x="237.5" y="-348.6" font-family="Helvetica,sans-Serif" font-size="8.00">_absolute_name</text>
</a>
</g>
</g>
<!-- Node4&#45;&gt;Node7 -->
<g id="edge6" class="edge">
<title>Node4&#45;&gt;Node7</title>
<path fill="none" stroke="midnightblue" d="M365.32,-321.46C343.83,-327.9 318.97,-335.36 296.98,-341.96"/>
<polygon fill="midnightblue" stroke="midnightblue" points="366.35,-324.8 374.93,-318.57 364.34,-318.09 366.35,-324.8"/>
</g>
<!-- Node8 -->
<g id="node8" class="node">
<title>Node8</title>
<g id="a_node8"><a xlink:href="classipc_1_1session_1_1shm_1_1classic_1_1Session__server.html#a406e3860e68d2e863e64215aae43812e" target="_top" xlink:title="Implementation of our per_app_setup_func() customization point used in the ctor impl: invoked from an...">
<polygon fill="white" stroke="black" points="175,-288 175,-323 300,-323 300,-288 175,-288"/>
<text text-anchor="start" x="183" y="-312.6" font-family="Helvetica,sans-Serif" font-size="8.00">ipc::session::shm::</text>
<text text-anchor="start" x="183" y="-303.6" font-family="Helvetica,sans-Serif" font-size="8.00">classic::Session_server</text>
<text text-anchor="middle" x="237.5" y="-294.6" font-family="Helvetica,sans-Serif" font-size="8.00">::init_app_shm_as_needed</text>
</a>
</g>
</g>
<!-- Node4&#45;&gt;Node8 -->
<g id="edge7" class="edge">
<title>Node4&#45;&gt;Node8</title>
<path fill="none" stroke="midnightblue" d="M342.56,-305.5C328.43,-305.5 313.82,-305.5 300.18,-305.5"/>
<polygon fill="midnightblue" stroke="midnightblue" points="342.75,-309 352.75,-305.5 342.75,-302 342.75,-309"/>
</g>
<!-- Node10 -->
<g id="node10" class="node">
<title>Node10</title>
<g id="a_node10"><a xlink:href="classipc_1_1session_1_1shm_1_1arena__lend_1_1jemalloc_1_1Session__server.html#ae5b53f9881efc8eccb5f93dc7d820c70" target="_top" xlink:title="Analogous to classic::Session_server::init_app_shm_as_needed().">
<polygon fill="white" stroke="black" points="184.5,-224.5 184.5,-268.5 290.5,-268.5 290.5,-224.5 184.5,-224.5"/>
<text text-anchor="start" x="192.5" y="-258.1" font-family="Helvetica,sans-Serif" font-size="8.00">ipc::session::shm::</text>
<text text-anchor="start" x="192.5" y="-249.1" font-family="Helvetica,sans-Serif" font-size="8.00">arena_lend::jemalloc</text>
<text text-anchor="start" x="192.5" y="-240.1" font-family="Helvetica,sans-Serif" font-size="8.00">::Session_server::init</text>
<text text-anchor="middle" x="237.5" y="-231.1" font-family="Helvetica,sans-Serif" font-size="8.00">_app_shm_as_needed</text>
</a>
</g>
</g>
<!-- Node4&#45;&gt;Node10 -->
<g id="edge9" class="edge">
<title>Node4&#45;&gt;Node10</title>
<path fill="none" stroke="midnightblue" d="M368.81,-289.21C344.51,-281.25 315.27,-271.66 290.65,-263.59"/>
<polygon fill="midnightblue" stroke="midnightblue" points="367.96,-292.62 378.55,-292.41 370.14,-285.97 367.96,-292.62"/>
</g>
<!-- Node4&#45;&gt;Node12 -->
<g id="edge11" class="edge">
<title>Node4&#45;&gt;Node12</title>
<path fill="none" stroke="midnightblue" d="M357.63,-286.69C356,-285.39 354.45,-283.99 353,-282.5 316.28,-244.69 353.84,-207.19 317,-169.5 311.06,-163.42 303.68,-158.71 295.85,-155.06"/>
<polygon fill="midnightblue" stroke="midnightblue" points="356.11,-289.88 366.38,-292.49 359.98,-284.05 356.11,-289.88"/>
</g>
<!-- Node13 -->
<g id="node13" class="node">
<title>Node13</title>
<g id="a_node13"><a xlink:href="classipc_1_1session_1_1Server__session__impl.html#a37d0b0fdbe58ecb22e19c8bebfe976cd" target="_top" xlink:title="Helper for create_channel_and_resources(), invoked and compiled if and only if S_MQS_ENABLED,...">
<polygon fill="white" stroke="black" points="158,-179.5 158,-205.5 317,-205.5 317,-179.5 158,-179.5"/>
<text text-anchor="start" x="166" y="-195.1" font-family="Helvetica,sans-Serif" font-size="8.00">ipc::session::Server</text>
<text text-anchor="middle" x="237.5" y="-186.1" font-family="Helvetica,sans-Serif" font-size="8.00">_session_impl::make_channel_mqs</text>
</a>
</g>
</g>
<!-- Node4&#45;&gt;Node13 -->
<g id="edge12" class="edge">
<title>Node4&#45;&gt;Node13</title>
<path fill="none" stroke="midnightblue" d="M359.37,-287.29C357.13,-285.81 355,-284.22 353,-282.5 327.08,-260.19 343.62,-235.96 317,-214.5 312.7,-211.04 307.89,-208.12 302.83,-205.66"/>
<polygon fill="midnightblue" stroke="midnightblue" points="357.97,-290.52 368.39,-292.43 361.43,-284.44 357.97,-290.52"/>
</g>
<!-- Node14 -->
<g id="node14" class="node">
<title>Node14</title>
<g id="a_node14"><a xlink:href="classipc_1_1session_1_1Session__base.html#a3d34c5a9c283a6b7c8ab943f344cdd28" target="_top" xlink:title="Computes the absolute name at which the server shall set up a transport::Native_socket_stream_accepto...">
<polygon fill="white" stroke="black" points="178,-504.5 178,-548.5 297,-548.5 297,-504.5 178,-504.5"/>
<text text-anchor="start" x="186" y="-538.1" font-family="Helvetica,sans-Serif" font-size="8.00">ipc::session::Session</text>
<text text-anchor="start" x="186" y="-529.1" font-family="Helvetica,sans-Serif" font-size="8.00">_base::session_master</text>
<text text-anchor="start" x="186" y="-520.1" font-family="Helvetica,sans-Serif" font-size="8.00">_socket_stream_acceptor</text>
<text text-anchor="middle" x="237.5" y="-511.1" font-family="Helvetica,sans-Serif" font-size="8.00">_absolute_name</text>
</a>
</g>
</g>
<!-- Node4&#45;&gt;Node14 -->
<g id="edge13" class="edge">
<title>Node4&#45;&gt;Node14</title>
<path fill="none" stroke="midnightblue" d="M356.86,-324.64C355.5,-325.85 354.21,-327.13 353,-328.5 303.03,-385.09 365.56,-436.69 317,-494.5 311.6,-500.92 304.72,-506.07 297.28,-510.2"/>
<polygon fill="midnightblue" stroke="midnightblue" points="359.29,-327.2 365.36,-318.52 355.2,-321.52 359.29,-327.2"/>
</g>
<!-- Node9 -->
<g id="node9" class="node">
<title>Node9</title>
<g id="a_node9"><a xlink:href="classipc_1_1session_1_1shm_1_1classic_1_1Session__server.html#af10bb97219c59c34fce50be09eaacf0c" target="_top" xlink:title="Constructor: identical to session::Session_server ctor.">
<polygon fill="white" stroke="black" points="5,-288 5,-323 117,-323 117,-288 5,-288"/>
<text text-anchor="start" x="13" y="-312.6" font-family="Helvetica,sans-Serif" font-size="8.00">ipc::session::shm::</text>
<text text-anchor="start" x="13" y="-303.6" font-family="Helvetica,sans-Serif" font-size="8.00">classic::Session_server</text>
<text text-anchor="middle" x="61" y="-294.6" font-family="Helvetica,sans-Serif" font-size="8.00">::Session_server</text>
</a>
</g>
</g>
<!-- Node8&#45;&gt;Node9 -->
<g id="edge8" class="edge">
<title>Node8&#45;&gt;Node9</title>
<path fill="none" stroke="midnightblue" d="M164.67,-305.5C148.81,-305.5 132.24,-305.5 117.15,-305.5"/>
<polygon fill="midnightblue" stroke="midnightblue" points="164.98,-309 174.98,-305.5 164.98,-302 164.98,-309"/>
</g>
<!-- Node11 -->
<g id="node11" class="node">
<title>Node11</title>
<g id="a_node11"><a xlink:href="classipc_1_1session_1_1shm_1_1arena__lend_1_1jemalloc_1_1Session__server.html#a5cfd3651a06380b877738c6b5fc353a9" target="_top" xlink:title="Constructor: identical to session::Session_server ctor.">
<polygon fill="white" stroke="black" points="0,-224.5 0,-268.5 122,-268.5 122,-224.5 0,-224.5"/>
<text text-anchor="start" x="8" y="-258.1" font-family="Helvetica,sans-Serif" font-size="8.00">ipc::session::shm::</text>
<text text-anchor="start" x="8" y="-249.1" font-family="Helvetica,sans-Serif" font-size="8.00">arena_lend::jemalloc</text>
<text text-anchor="start" x="8" y="-240.1" font-family="Helvetica,sans-Serif" font-size="8.00">::Session_server::Session</text>
<text text-anchor="middle" x="61" y="-231.1" font-family="Helvetica,sans-Serif" font-size="8.00">_server</text>
</a>
</g>
</g>
<!-- Node10&#45;&gt;Node11 -->
<g id="edge10" class="edge">
<title>Node10&#45;&gt;Node11</title>
<path fill="none" stroke="midnightblue" d="M173.88,-246.5C157.08,-246.5 138.96,-246.5 122.29,-246.5"/>
<polygon fill="midnightblue" stroke="midnightblue" points="174.14,-250 184.14,-246.5 174.14,-243 174.14,-250"/>
</g>
<!-- Node15&#45;&gt;Node4 -->
<g id="edge15" class="edge">
<title>Node15&#45;&gt;Node4</title>
<path fill="none" stroke="midnightblue" d="M538.97,-272.68C515.61,-279.15 489.45,-286.4 467.66,-292.44"/>
<polygon fill="midnightblue" stroke="midnightblue" points="540.09,-276 548.79,-269.96 538.22,-269.26 540.09,-276"/>
</g>
<!-- Node16 -->
<g id="node16" class="node">
<title>Node16</title>
<g id="a_node16"><a xlink:href="classipc_1_1session_1_1Session__server__impl.html#a9bf4d5502b41c98a98fee4cc3c2f2530" target="_top" xlink:title="See Session_server ctor; it does that.">
<polygon fill="white" stroke="black" points="367,-238 367,-273 472,-273 472,-238 367,-238"/>
<text text-anchor="start" x="375" y="-262.6" font-family="Helvetica,sans-Serif" font-size="8.00">ipc::session::Session</text>
<text text-anchor="start" x="375" y="-253.6" font-family="Helvetica,sans-Serif" font-size="8.00">_server_impl::Session</text>
<text text-anchor="middle" x="419.5" y="-244.6" font-family="Helvetica,sans-Serif" font-size="8.00">_server_impl</text>
</a>
</g>
</g>
<!-- Node15&#45;&gt;Node16 -->
<g id="edge16" class="edge">
<title>Node15&#45;&gt;Node16</title>
<path fill="none" stroke="midnightblue" d="M538.7,-255.5C517.04,-255.5 493,-255.5 472.28,-255.5"/>
<polygon fill="midnightblue" stroke="midnightblue" points="538.79,-259 548.79,-255.5 538.79,-252 538.79,-259"/>
</g>
</g>
</svg>
