<?xml version="1.0" encoding="UTF-8" standalone="no"?>
<!DOCTYPE svg PUBLIC "-//W3C//DTD SVG 1.1//EN"
 "http://www.w3.org/Graphics/SVG/1.1/DTD/svg11.dtd">
<!-- Generated by graphviz version 2.43.0 (0)
 -->
<!-- Title: ipc::session::shm::classic::Server_session_impl&lt; S_MQ_TYPE_OR_NONE, S_TRANSMIT_NATIVE_HANDLES, Mdt_payload &gt; Pages: 1 -->
<svg width="1425pt" height="876pt"
 viewBox="0.00 0.00 1425.00 876.38" xmlns="http://www.w3.org/2000/svg" xmlns:xlink="http://www.w3.org/1999/xlink">
<g id="graph0" class="graph" transform="scale(1 1) rotate(0) translate(4 872.38)">
<title>ipc::session::shm::classic::Server_session_impl&lt; S_MQ_TYPE_OR_NONE, S_TRANSMIT_NATIVE_HANDLES, Mdt_payload &gt;</title>
<polygon fill="white" stroke="transparent" points="-4,4 -4,-872.38 1421,-872.38 1421,4 -4,4"/>
<!-- Node1 -->
<g id="node1" class="node">
<title>Node1</title>
<g id="a_node1"><a xlink:title="Core internally&#45;used implementation of shm::classic::Server_session: it is to the latter what its pub...">
<polygon fill="#bfbfbf" stroke="black" points="1271,-210.88 1271,-263.88 1417,-263.88 1417,-210.88 1271,-210.88"/>
<text text-anchor="start" x="1279" y="-253.48" font-family="Helvetica,sans-Serif" font-size="8.00">ipc::session::shm::</text>
<text text-anchor="start" x="1279" y="-244.48" font-family="Helvetica,sans-Serif" font-size="8.00">classic::Server_session</text>
<text text-anchor="start" x="1279" y="-235.48" font-family="Helvetica,sans-Serif" font-size="8.00">_impl&lt; S_MQ_TYPE_OR_NONE,</text>
<text text-anchor="start" x="1279" y="-226.48" font-family="Helvetica,sans-Serif" font-size="8.00"> S_TRANSMIT_NATIVE_HANDLES,</text>
<text text-anchor="middle" x="1344" y="-217.48" font-family="Helvetica,sans-Serif" font-size="8.00"> Mdt_payload &gt;</text>
</a>
</g>
</g>
<!-- Node2 -->
<g id="node2" class="node">
<title>Node2</title>
<g id="a_node2"><a xlink:href="classipc_1_1session_1_1shm_1_1classic_1_1Session__impl.html" target="_top" xlink:title=" ">
<polygon fill="white" stroke="black" points="1046,-192.88 1046,-281.88 1234,-281.88 1234,-192.88 1046,-192.88"/>
<text text-anchor="start" x="1054" y="-271.48" font-family="Helvetica,sans-Serif" font-size="8.00">ipc::session::shm::</text>
<text text-anchor="start" x="1054" y="-262.48" font-family="Helvetica,sans-Serif" font-size="8.00">classic::Session_impl</text>
<text text-anchor="start" x="1054" y="-253.48" font-family="Helvetica,sans-Serif" font-size="8.00">&lt; session::Server_session</text>
<text text-anchor="start" x="1054" y="-244.48" font-family="Helvetica,sans-Serif" font-size="8.00">_impl&lt; S_MQ_TYPE_OR_NONE,</text>
<text text-anchor="start" x="1054" y="-235.48" font-family="Helvetica,sans-Serif" font-size="8.00"> S_TRANSMIT_NATIVE_HANDLES,</text>
<text text-anchor="start" x="1054" y="-226.48" font-family="Helvetica,sans-Serif" font-size="8.00"> Mdt_payload, schema::ShmType</text>
<text text-anchor="start" x="1054" y="-217.48" font-family="Helvetica,sans-Serif" font-size="8.00">::CLASSIC, transport::struc::</text>
<text text-anchor="start" x="1054" y="-208.48" font-family="Helvetica,sans-Serif" font-size="8.00">shm::Builder_base::S_MAX_SERIALIZATION</text>
<text text-anchor="middle" x="1140" y="-199.48" font-family="Helvetica,sans-Serif" font-size="8.00">_SEGMENT_SZ &gt; &gt;</text>
</a>
</g>
</g>
<!-- Node2&#45;&gt;Node1 -->
<g id="edge1" class="edge">
<title>Node2&#45;&gt;Node1</title>
<path fill="none" stroke="midnightblue" d="M1244.15,-237.38C1253.12,-237.38 1262.08,-237.38 1270.72,-237.38"/>
<polygon fill="midnightblue" stroke="midnightblue" points="1244.02,-233.88 1234.02,-237.38 1244.02,-240.88 1244.02,-233.88"/>
</g>
<!-- Node3 -->
<g id="node3" class="node">
<title>Node3</title>
<g id="a_node3"><a xlink:href="classipc_1_1session_1_1Server__session__impl.html" target="_top" xlink:title=" ">
<polygon fill="white" stroke="black" points="756,-233.88 756,-304.88 923,-304.88 923,-233.88 756,-233.88"/>
<text text-anchor="start" x="764" y="-294.48" font-family="Helvetica,sans-Serif" font-size="8.00">ipc::session::Server</text>
<text text-anchor="start" x="764" y="-285.48" font-family="Helvetica,sans-Serif" font-size="8.00">_session_impl&lt; S_MQ_TYPE</text>
<text text-anchor="start" x="764" y="-276.48" font-family="Helvetica,sans-Serif" font-size="8.00">_OR_NONE, S_TRANSMIT_NATIVE</text>
<text text-anchor="start" x="764" y="-267.48" font-family="Helvetica,sans-Serif" font-size="8.00">_HANDLES, Mdt_payload, schema</text>
<text text-anchor="start" x="764" y="-258.48" font-family="Helvetica,sans-Serif" font-size="8.00">::ShmType::CLASSIC, transport</text>
<text text-anchor="start" x="764" y="-249.48" font-family="Helvetica,sans-Serif" font-size="8.00">::struc::shm::Builder_base::S</text>
<text text-anchor="middle" x="839.5" y="-240.48" font-family="Helvetica,sans-Serif" font-size="8.00">_MAX_SERIALIZATION_SEGMENT_SZ &gt;</text>
</a>
</g>
</g>
<!-- Node3&#45;&gt;Node2 -->
<g id="edge2" class="edge">
<title>Node3&#45;&gt;Node2</title>
<path fill="none" stroke="midnightblue" d="M933.21,-259.44C969.04,-255.6 1009.96,-251.22 1045.83,-247.37"/>
<polygon fill="midnightblue" stroke="midnightblue" points="932.82,-255.97 923.25,-260.51 933.57,-262.93 932.82,-255.97"/>
</g>
<!-- Node4 -->
<g id="node4" class="node">
<title>Node4</title>
<g id="a_node4"><a xlink:href="classipc_1_1session_1_1Session__base.html" target="_top" xlink:title="Internal type containing data and types common to internal types Server_session_impl and Client_sessi...">
<polygon fill="white" stroke="black" points="470,-337.38 470,-381.38 616,-381.38 616,-337.38 470,-337.38"/>
<text text-anchor="start" x="478" y="-370.98" font-family="Helvetica,sans-Serif" font-size="8.00">ipc::session::Session</text>
<text text-anchor="start" x="478" y="-361.98" font-family="Helvetica,sans-Serif" font-size="8.00">_base&lt; S_MQ_TYPE_OR_NONE,</text>
<text text-anchor="start" x="478" y="-352.98" font-family="Helvetica,sans-Serif" font-size="8.00"> S_TRANSMIT_NATIVE_HANDLES,</text>
<text text-anchor="middle" x="543" y="-343.98" font-family="Helvetica,sans-Serif" font-size="8.00"> Mdt_payload &gt;</text>
</a>
</g>
</g>
<!-- Node4&#45;&gt;Node3 -->
<g id="edge3" class="edge">
<title>Node4&#45;&gt;Node3</title>
<path fill="none" stroke="midnightblue" d="M625.62,-334.44C666.16,-322.05 715.05,-307.11 755.74,-294.67"/>
<polygon fill="midnightblue" stroke="midnightblue" points="624.58,-331.1 616.04,-337.37 626.63,-337.79 624.58,-331.1"/>
</g>
<!-- Node5 -->
<g id="node5" class="node">
<title>Node5</title>
<g id="a_node5"><a xlink:title=" ">
<polygon fill="white" stroke="#bfbfbf" points="172.5,-724.88 172.5,-741.88 271.5,-741.88 271.5,-724.88 172.5,-724.88"/>
<text text-anchor="middle" x="222" y="-731.48" font-family="Helvetica,sans-Serif" font-size="8.00">boost::noncopyable</text>
</a>
</g>
</g>
<!-- Node5&#45;&gt;Node4 -->
<g id="edge4" class="edge">
<title>Node5&#45;&gt;Node4</title>
<path fill="none" stroke="#8b1a1a" d="M281.68,-727.86C341.96,-720.87 429.99,-706.61 452,-681.38 482.21,-646.76 455.49,-518.98 470,-475.38 481.83,-439.85 506.48,-403.99 523.62,-381.74"/>
<polygon fill="#8b1a1a" stroke="#8b1a1a" points="281.06,-724.4 271.52,-729 281.84,-731.36 281.06,-724.4"/>
</g>
<!-- Node37 -->
<g id="node27" class="node">
<title>Node37</title>
<g id="a_node27"><a xlink:href="classipc_1_1shm_1_1classic_1_1Pool__arena.html" target="_top" xlink:title="A SHM&#45;classic interface around a single SHM pool with allocation&#45;algorithm services by boost....">
<polygon fill="white" stroke="black" points="497,-732.38 497,-758.38 589,-758.38 589,-732.38 497,-732.38"/>
<text text-anchor="start" x="505" y="-747.98" font-family="Helvetica,sans-Serif" font-size="8.00">ipc::shm::classic::</text>
<text text-anchor="middle" x="543" y="-738.98" font-family="Helvetica,sans-Serif" font-size="8.00">Pool_arena</text>
</a>
</g>
</g>
<!-- Node5&#45;&gt;Node37 -->
<g id="edge34" class="edge">
<title>Node5&#45;&gt;Node37</title>
<path fill="none" stroke="#8b1a1a" d="M281.83,-735.6C343.93,-737.93 440.45,-741.56 496.82,-743.68"/>
<polygon fill="#8b1a1a" stroke="#8b1a1a" points="281.92,-732.1 271.8,-735.22 281.66,-739.09 281.92,-732.1"/>
</g>
<!-- Node6 -->
<g id="node6" class="node">
<title>Node6</title>
<g id="a_node6"><a xlink:title=" ">
<polygon fill="white" stroke="#bfbfbf" points="171.5,-481.88 171.5,-498.88 272.5,-498.88 272.5,-481.88 171.5,-481.88"/>
<text text-anchor="middle" x="222" y="-488.48" font-family="Helvetica,sans-Serif" font-size="8.00">static constexpr bool</text>
</a>
</g>
</g>
<!-- Node6&#45;&gt;Node3 -->
<g id="edge18" class="edge">
<title>Node6&#45;&gt;Node3</title>
<path fill="none" stroke="#9a32cd" stroke-dasharray="5,2" d="M282.63,-495.97C329.5,-498.6 395.99,-498.42 452,-483.38 585.52,-447.54 722.63,-356.08 792.08,-305.09"/>
<polygon fill="#9a32cd" stroke="#9a32cd" points="282.84,-492.47 272.64,-495.35 282.41,-499.46 282.84,-492.47"/>
<text text-anchor="middle" x="543" y="-497.98" font-family="Helvetica,sans-Serif" font-size="8.00"> S_MQS_ENABLED</text>
<text text-anchor="middle" x="543" y="-488.98" font-family="Helvetica,sans-Serif" font-size="8.00">S_SHM_ENABLED</text>
<text text-anchor="middle" x="543" y="-479.98" font-family="Helvetica,sans-Serif" font-size="8.00">S_SOCKET_STREAM_ENABLED</text>
</g>
<!-- Node6&#45;&gt;Node4 -->
<g id="edge5" class="edge">
<title>Node6&#45;&gt;Node4</title>
<path fill="none" stroke="#9a32cd" stroke-dasharray="5,2" d="M275.77,-479.49C284.59,-477.35 293.6,-474.96 302,-472.38 310.21,-469.87 311.73,-467.69 320,-465.38 377.37,-449.4 398.61,-468.75 452,-442.38 481.35,-427.89 507.96,-400.8 524.5,-381.51"/>
<polygon fill="#9a32cd" stroke="#9a32cd" points="274.88,-476.11 265.94,-481.8 276.48,-482.92 274.88,-476.11"/>
<text text-anchor="middle" x="386" y="-476.98" font-family="Helvetica,sans-Serif" font-size="8.00"> S_MQS_ENABLED</text>
<text text-anchor="middle" x="386" y="-467.98" font-family="Helvetica,sans-Serif" font-size="8.00">S_SOCKET_STREAM_ENABLED</text>
</g>
<!-- Node7 -->
<g id="node7" class="node">
<title>Node7</title>
<g id="a_node7"><a xlink:href="structipc_1_1session_1_1Server__app.html" target="_top" xlink:title="An App that is used as a server in at least one client&#45;server IPC split.">
<polygon fill="white" stroke="red" points="163,-337.88 163,-354.88 281,-354.88 281,-337.88 163,-337.88"/>
<text text-anchor="middle" x="222" y="-344.48" font-family="Helvetica,sans-Serif" font-size="8.00">ipc::session::Server_app</text>
</a>
</g>
</g>
<!-- Node7&#45;&gt;Node4 -->
<g id="edge6" class="edge">
<title>Node7&#45;&gt;Node4</title>
<path fill="none" stroke="#9a32cd" stroke-dasharray="5,2" d="M291.37,-349.17C343.88,-351.31 416.24,-354.26 469.71,-356.44"/>
<polygon fill="#9a32cd" stroke="#9a32cd" points="291.27,-345.66 281.14,-348.75 290.99,-352.66 291.27,-345.66"/>
<text text-anchor="middle" x="386" y="-357.98" font-family="Helvetica,sans-Serif" font-size="8.00"> m_srv_app_ref</text>
</g>
<!-- Node16 -->
<g id="node8" class="node">
<title>Node16</title>
<g id="a_node8"><a xlink:title=" ">
<polygon fill="white" stroke="#bfbfbf" points="186.5,-301.88 186.5,-318.88 257.5,-318.88 257.5,-301.88 186.5,-301.88"/>
<text text-anchor="middle" x="222" y="-308.48" font-family="Helvetica,sans-Serif" font-size="8.00">Fine_duration</text>
</a>
</g>
</g>
<!-- Node16&#45;&gt;Node4 -->
<g id="edge7" class="edge">
<title>Node16&#45;&gt;Node4</title>
<path fill="none" stroke="#9a32cd" stroke-dasharray="5,2" d="M267.74,-314.03C314.07,-318.18 388.45,-325.92 452,-337.38 457.86,-338.44 463.9,-339.65 469.96,-340.95"/>
<polygon fill="#9a32cd" stroke="#9a32cd" points="267.99,-310.54 257.72,-313.15 267.38,-317.51 267.99,-310.54"/>
<text text-anchor="middle" x="386" y="-339.98" font-family="Helvetica,sans-Serif" font-size="8.00"> S_OPEN_CHANNEL_TIMEOUT</text>
</g>
<!-- Node17 -->
<g id="node9" class="node">
<title>Node17</title>
<g id="a_node9"><a xlink:title=" ">
<polygon fill="white" stroke="#bfbfbf" points="168.5,-265.88 168.5,-282.88 275.5,-282.88 275.5,-265.88 168.5,-265.88"/>
<text text-anchor="middle" x="222" y="-272.48" font-family="Helvetica,sans-Serif" font-size="8.00">static constexpr size_t</text>
</a>
</g>
</g>
<!-- Node17&#45;&gt;Node4 -->
<g id="edge8" class="edge">
<title>Node17&#45;&gt;Node4</title>
<path fill="none" stroke="#9a32cd" stroke-dasharray="5,2" d="M285.82,-276.07C332.75,-278.94 397.86,-286.39 452,-305.38 473.49,-312.93 495.45,-325.98 512.3,-337.36"/>
<polygon fill="#9a32cd" stroke="#9a32cd" points="285.97,-272.57 275.79,-275.51 285.58,-279.56 285.97,-272.57"/>
<text text-anchor="middle" x="386" y="-307.98" font-family="Helvetica,sans-Serif" font-size="8.00"> S_MQS_MAX_MSG_SZ</text>
</g>
<!-- Node18 -->
<g id="node10" class="node">
<title>Node18</title>
<g id="a_node10"><a xlink:title=" ">
<polygon fill="white" stroke="orangered" points="173,-427.88 173,-462.88 271,-462.88 271,-427.88 173,-427.88"/>
<text text-anchor="start" x="181" y="-452.48" font-family="Helvetica,sans-Serif" font-size="8.00">std::atomic&lt; const</text>
<text text-anchor="start" x="181" y="-443.48" font-family="Helvetica,sans-Serif" font-size="8.00"> ipc::session::Client</text>
<text text-anchor="middle" x="222" y="-434.48" font-family="Helvetica,sans-Serif" font-size="8.00">_app * &gt;</text>
</a>
</g>
</g>
<!-- Node18&#45;&gt;Node4 -->
<g id="edge9" class="edge">
<title>Node18&#45;&gt;Node4</title>
<path fill="none" stroke="#9a32cd" stroke-dasharray="5,2" d="M281.26,-438.7C328.18,-432.31 395.4,-420.87 452,-402.38 468.79,-396.9 486.49,-388.96 501.71,-381.39"/>
<polygon fill="#9a32cd" stroke="#9a32cd" points="280.73,-435.24 271.27,-440.03 281.65,-442.18 280.73,-435.24"/>
<text text-anchor="middle" x="386" y="-434.98" font-family="Helvetica,sans-Serif" font-size="8.00"> m_cli_app_ptr</text>
</g>
<!-- Node20 -->
<g id="node11" class="node">
<title>Node20</title>
<g id="a_node11"><a xlink:href="classipc_1_1util_1_1Shared__name.html" target="_top" xlink:title="String&#45;wrapping abstraction representing a name uniquely distinguishing a kernel&#45;persistent entity fr...">
<polygon fill="white" stroke="red" points="167,-517.88 167,-534.88 277,-534.88 277,-517.88 167,-517.88"/>
<text text-anchor="middle" x="222" y="-524.48" font-family="Helvetica,sans-Serif" font-size="8.00">ipc::util::Shared_name</text>
</a>
</g>
</g>
<!-- Node20&#45;&gt;Node4 -->
<g id="edge10" class="edge">
<title>Node20&#45;&gt;Node4</title>
<path fill="none" stroke="#9a32cd" stroke-dasharray="5,2" d="M287.23,-528.35C335.93,-526.94 402.66,-518.55 452,-487.38 492.42,-461.85 519.8,-410.93 532.97,-381.59"/>
<polygon fill="#9a32cd" stroke="#9a32cd" points="287.06,-524.85 277.13,-528.55 287.2,-531.85 287.06,-524.85"/>
<text text-anchor="middle" x="386" y="-536.98" font-family="Helvetica,sans-Serif" font-size="8.00"> m_cli_namespace</text>
<text text-anchor="middle" x="386" y="-527.98" font-family="Helvetica,sans-Serif" font-size="8.00">m_srv_namespace</text>
</g>
<!-- Node20&#45;&gt;Node20 -->
<g id="edge11" class="edge">
<title>Node20&#45;&gt;Node20</title>
<path fill="none" stroke="#9a32cd" stroke-dasharray="5,2" d="M197.63,-543.48C197.84,-549 205.96,-553.38 222,-553.38 245.87,-553.38 252.21,-543.68 241.02,-534.95"/>
<polygon fill="#9a32cd" stroke="#9a32cd" points="200.63,-545.29 202.98,-534.95 194.7,-541.56 200.63,-545.29"/>
<text text-anchor="middle" x="222" y="-618.98" font-family="Helvetica,sans-Serif" font-size="8.00"> S_1ST_OR_ONLY</text>
<text text-anchor="middle" x="222" y="-609.98" font-family="Helvetica,sans-Serif" font-size="8.00">S_EMPTY</text>
<text text-anchor="start" x="183.5" y="-600.98" font-family="Helvetica,sans-Serif" font-size="8.00">S_RESOURCE_TYPE</text>
<text text-anchor="middle" x="222" y="-591.98" font-family="Helvetica,sans-Serif" font-size="8.00">_ID_MUTEX</text>
<text text-anchor="start" x="183.5" y="-582.98" font-family="Helvetica,sans-Serif" font-size="8.00">S_RESOURCE_TYPE</text>
<text text-anchor="middle" x="222" y="-573.98" font-family="Helvetica,sans-Serif" font-size="8.00">_ID_SHM</text>
<text text-anchor="middle" x="222" y="-564.98" font-family="Helvetica,sans-Serif" font-size="8.00">S_ROOT_MAGIC</text>
<text text-anchor="middle" x="222" y="-555.98" font-family="Helvetica,sans-Serif" font-size="8.00">S_SENTINEL</text>
</g>
<!-- Node28 -->
<g id="node18" class="node">
<title>Node28</title>
<g id="a_node18"><a xlink:href="classipc_1_1transport_1_1sync__io_1_1Native__socket__stream.html" target="_top" xlink:title="Implements both sync_io::Native_handle_sender and sync_io::Native_handle_receiver concepts by using a...">
<polygon fill="white" stroke="black" points="481.5,-587.38 481.5,-613.38 604.5,-613.38 604.5,-587.38 481.5,-587.38"/>
<text text-anchor="start" x="489.5" y="-602.98" font-family="Helvetica,sans-Serif" font-size="8.00">ipc::transport::sync</text>
<text text-anchor="middle" x="543" y="-593.98" font-family="Helvetica,sans-Serif" font-size="8.00">_io::Native_socket_stream</text>
</a>
</g>
</g>
<!-- Node20&#45;&gt;Node28 -->
<g id="edge21" class="edge">
<title>Node20&#45;&gt;Node28</title>
<path fill="none" stroke="#9a32cd" stroke-dasharray="5,2" d="M262.89,-537.66C280.36,-542.44 301.13,-547.93 320,-552.38 378.28,-566.14 393.5,-566.58 452,-579.38 463.44,-581.89 475.68,-584.67 487.32,-587.37"/>
<polygon fill="#9a32cd" stroke="#9a32cd" points="263.6,-534.22 253.03,-534.93 261.74,-540.97 263.6,-534.22"/>
<text text-anchor="middle" x="386" y="-581.98" font-family="Helvetica,sans-Serif" font-size="8.00"> S_RESOURCE_TYPE_ID</text>
</g>
<!-- Node20&#45;&gt;Node37 -->
<g id="edge35" class="edge">
<title>Node20&#45;&gt;Node37</title>
<path fill="none" stroke="#9a32cd" stroke-dasharray="5,2" d="M241.22,-541.19C259.87,-555.56 290.25,-576.82 320,-588.38 375.51,-609.95 406.16,-573.37 452,-611.38 469.54,-625.93 458.52,-639.7 470,-659.38 486.58,-687.81 512.64,-716.19 528.45,-732.19"/>
<polygon fill="#9a32cd" stroke="#9a32cd" points="243.31,-538.39 233.29,-534.96 238.99,-543.89 243.31,-538.39"/>
<text text-anchor="middle" x="386" y="-613.98" font-family="Helvetica,sans-Serif" font-size="8.00"> m_pool_name</text>
</g>
<!-- Node21 -->
<g id="node12" class="node">
<title>Node21</title>
<g id="a_node12"><a xlink:title=" ">
<polygon fill="white" stroke="#bfbfbf" points="0,-603.88 0,-620.88 40,-620.88 40,-603.88 0,-603.88"/>
<text text-anchor="middle" x="20" y="-610.48" font-family="Helvetica,sans-Serif" font-size="8.00">size_t</text>
</a>
</g>
</g>
<!-- Node21&#45;&gt;Node20 -->
<g id="edge12" class="edge">
<title>Node21&#45;&gt;Node20</title>
<path fill="none" stroke="#9a32cd" stroke-dasharray="5,2" d="M49.61,-600.08C90.69,-582.42 165.33,-550.32 200.99,-534.99"/>
<polygon fill="#9a32cd" stroke="#9a32cd" points="47.98,-596.97 40.18,-604.14 50.75,-603.4 47.98,-596.97"/>
<text text-anchor="middle" x="91" y="-597.98" font-family="Helvetica,sans-Serif" font-size="8.00"> S_MAX_LENGTH</text>
</g>
<!-- Node21&#45;&gt;Node28 -->
<g id="edge23" class="edge">
<title>Node21&#45;&gt;Node28</title>
<path fill="none" stroke="#9a32cd" stroke-dasharray="5,2" d="M43.31,-626.33C66.86,-640.26 105.54,-660.9 142,-670.38 208.71,-687.73 396.5,-722.27 452,-681.38 473.73,-665.38 450.99,-642.55 470,-623.38 473.88,-619.47 478.43,-616.22 483.31,-613.53"/>
<polygon fill="#9a32cd" stroke="#9a32cd" points="44.86,-623.18 34.49,-621.01 41.24,-629.17 44.86,-623.18"/>
<text text-anchor="middle" x="222" y="-699.98" font-family="Helvetica,sans-Serif" font-size="8.00"> S_MAX_META_BLOB_LENGTH</text>
</g>
<!-- Node23 -->
<g id="node13" class="node">
<title>Node23</title>
<g id="a_node13"><a xlink:title=" ">
<polygon fill="white" stroke="#bfbfbf" points="186.5,-225.88 186.5,-242.88 257.5,-242.88 257.5,-225.88 186.5,-225.88"/>
<text text-anchor="middle" x="222" y="-232.48" font-family="Helvetica,sans-Serif" font-size="8.00">Task_asio_err</text>
</a>
</g>
</g>
<!-- Node23&#45;&gt;Node3 -->
<g id="edge19" class="edge">
<title>Node23&#45;&gt;Node3</title>
<path fill="none" stroke="#9a32cd" stroke-dasharray="5,2" d="M267.8,-236.06C313.98,-237.86 388.04,-240.92 452,-244.38 556.91,-250.07 677.74,-258.13 755.97,-263.54"/>
<polygon fill="#9a32cd" stroke="#9a32cd" points="267.67,-232.55 257.54,-235.67 267.4,-239.55 267.67,-232.55"/>
<text text-anchor="middle" x="543" y="-255.98" font-family="Helvetica,sans-Serif" font-size="8.00"> m_log_in_on_done_func</text>
</g>
<!-- Node23&#45;&gt;Node4 -->
<g id="edge13" class="edge">
<title>Node23&#45;&gt;Node4</title>
<path fill="none" stroke="#9a32cd" stroke-dasharray="5,2" d="M268.2,-238.89C330.25,-245.31 435.99,-257.23 452,-265.38 484.42,-281.89 511.66,-314.81 527.41,-336.97"/>
<polygon fill="#9a32cd" stroke="#9a32cd" points="268.21,-235.37 257.9,-237.83 267.49,-242.33 268.21,-235.37"/>
<text text-anchor="middle" x="386" y="-267.98" font-family="Helvetica,sans-Serif" font-size="8.00"> m_on_err_func</text>
</g>
<!-- Node24 -->
<g id="node14" class="node">
<title>Node24</title>
<g id="a_node14"><a xlink:title=" ">
<polygon fill="white" stroke="#bfbfbf" points="142,-373.88 142,-408.88 302,-408.88 302,-373.88 142,-373.88"/>
<text text-anchor="start" x="150" y="-398.48" font-family="Helvetica,sans-Serif" font-size="8.00">Function&lt; void(Channel</text>
<text text-anchor="start" x="150" y="-389.48" font-family="Helvetica,sans-Serif" font-size="8.00">_obj &amp;&amp;new_channel, Mdt</text>
<text text-anchor="middle" x="222" y="-380.48" font-family="Helvetica,sans-Serif" font-size="8.00">_reader_ptr &amp;&amp;new_channel_mdt)&gt;</text>
</a>
</g>
</g>
<!-- Node24&#45;&gt;Node4 -->
<g id="edge14" class="edge">
<title>Node24&#45;&gt;Node4</title>
<path fill="none" stroke="#9a32cd" stroke-dasharray="5,2" d="M312.38,-382.42C362.15,-377.43 423.28,-371.29 469.96,-366.61"/>
<polygon fill="#9a32cd" stroke="#9a32cd" points="311.86,-378.95 302.26,-383.43 312.56,-385.92 311.86,-378.95"/>
<text text-anchor="start" x="325.5" y="-391.98" font-family="Helvetica,sans-Serif" font-size="8.00"> m_on_passive_open_channel</text>
<text text-anchor="middle" x="386" y="-382.98" font-family="Helvetica,sans-Serif" font-size="8.00">_func_or_empty</text>
</g>
<!-- Node25 -->
<g id="node15" class="node">
<title>Node25</title>
<g id="a_node15"><a xlink:title=" ">
<polygon fill="white" stroke="#bfbfbf" points="192,-174.88 192,-191.88 252,-191.88 252,-174.88 192,-174.88"/>
<text text-anchor="middle" x="222" y="-181.48" font-family="Helvetica,sans-Serif" font-size="8.00">Error_code</text>
</a>
</g>
</g>
<!-- Node25&#45;&gt;Node3 -->
<g id="edge25" class="edge">
<title>Node25&#45;&gt;Node3</title>
<path fill="none" stroke="#9a32cd" stroke-dasharray="5,2" d="M262.73,-181.38C280.28,-180.58 301.16,-179.77 320,-179.38 378.65,-178.18 393.72,-172.69 452,-179.38 558.43,-191.61 678.17,-222.19 755.78,-244.32"/>
<polygon fill="#9a32cd" stroke="#9a32cd" points="262.11,-177.9 252.28,-181.86 262.43,-184.89 262.11,-177.9"/>
<text text-anchor="middle" x="543" y="-209.98" font-family="Helvetica,sans-Serif" font-size="8.00"> m_pre_init_err_code</text>
</g>
<!-- Node25&#45;&gt;Node4 -->
<g id="edge15" class="edge">
<title>Node25&#45;&gt;Node4</title>
<path fill="none" stroke="#9a32cd" stroke-dasharray="5,2" d="M262.13,-180.96C310.64,-179.87 393.98,-184.44 452,-222.38 463.22,-229.72 506.72,-300.53 528.87,-337.36"/>
<polygon fill="#9a32cd" stroke="#9a32cd" points="261.92,-177.47 252.04,-181.28 262.14,-184.46 261.92,-177.47"/>
<text text-anchor="start" x="337.5" y="-233.98" font-family="Helvetica,sans-Serif" font-size="8.00"> m_peer_state_err_code</text>
<text text-anchor="middle" x="386" y="-224.98" font-family="Helvetica,sans-Serif" font-size="8.00">_or_ok</text>
</g>
<!-- Node26 -->
<g id="node16" class="node">
<title>Node26</title>
<g id="a_node16"><a xlink:title=" ">
<polygon fill="white" stroke="#bfbfbf" points="168.5,-850.88 168.5,-867.88 275.5,-867.88 275.5,-850.88 168.5,-850.88"/>
<text text-anchor="middle" x="222" y="-857.48" font-family="Helvetica,sans-Serif" font-size="8.00">flow::log::Log_context</text>
</a>
</g>
</g>
<!-- Node26&#45;&gt;Node3 -->
<g id="edge16" class="edge">
<title>Node26&#45;&gt;Node3</title>
<path fill="none" stroke="midnightblue" d="M285.95,-861.85C332.51,-862.16 397.1,-859.4 452,-845.38 530.02,-825.46 550.1,-814.66 616,-768.38 678.76,-724.32 704.85,-715.53 738,-646.38 769.89,-579.86 738.47,-553.04 756,-481.38 771.67,-417.32 802,-346.62 821.2,-305.21"/>
<polygon fill="midnightblue" stroke="midnightblue" points="285.75,-858.35 275.71,-861.73 285.66,-865.35 285.75,-858.35"/>
</g>
<!-- Node26&#45;&gt;Node37 -->
<g id="edge33" class="edge">
<title>Node26&#45;&gt;Node37</title>
<path fill="none" stroke="midnightblue" d="M285.76,-852.41C343.08,-845.38 423.15,-833.68 452,-820.38 484.51,-805.41 514.86,-775.57 530.65,-758.39"/>
<polygon fill="midnightblue" stroke="midnightblue" points="285.21,-848.95 275.7,-853.63 286.05,-855.9 285.21,-848.95"/>
</g>
<!-- Node27 -->
<g id="node17" class="node">
<title>Node27</title>
<g id="a_node17"><a xlink:title=" ">
<polygon fill="white" stroke="#bfbfbf" points="516.5,-131.88 516.5,-148.88 569.5,-148.88 569.5,-131.88 516.5,-131.88"/>
<text text-anchor="middle" x="543" y="-138.48" font-family="Helvetica,sans-Serif" font-size="8.00">ShmType</text>
</a>
</g>
</g>
<!-- Node27&#45;&gt;Node3 -->
<g id="edge17" class="edge">
<title>Node27&#45;&gt;Node3</title>
<path fill="none" stroke="#9a32cd" stroke-dasharray="5,2" d="M579.9,-139.85C629.32,-139.87 714.82,-142.84 738,-162.38 759.94,-180.88 738.02,-202.02 756,-224.38 758.66,-227.69 761.63,-230.79 764.82,-233.69"/>
<polygon fill="#9a32cd" stroke="#9a32cd" points="579.63,-136.35 569.65,-139.89 579.66,-143.35 579.63,-136.35"/>
<text text-anchor="middle" x="686" y="-164.98" font-family="Helvetica,sans-Serif" font-size="8.00"> S_SHM_TYPE</text>
</g>
<!-- Node28&#45;&gt;Node3 -->
<g id="edge20" class="edge">
<title>Node28&#45;&gt;Node3</title>
<path fill="none" stroke="#9a32cd" stroke-dasharray="5,2" d="M607.93,-584.26C649.67,-570.85 702.76,-547.93 738,-511.38 794.84,-452.43 821.43,-356.74 832.21,-305.12"/>
<polygon fill="#9a32cd" stroke="#9a32cd" points="606.64,-581 598.13,-587.31 608.71,-587.69 606.64,-581"/>
<text text-anchor="middle" x="686" y="-575.98" font-family="Helvetica,sans-Serif" font-size="8.00"> m_master_sock_stm</text>
</g>
<!-- Node29 -->
<g id="node19" class="node">
<title>Node29</title>
<g id="a_node19"><a xlink:title=" ">
<polygon fill="white" stroke="#bfbfbf" points="204.5,-643.88 204.5,-660.88 239.5,-660.88 239.5,-643.88 204.5,-643.88"/>
<text text-anchor="middle" x="222" y="-650.48" font-family="Helvetica,sans-Serif" font-size="8.00">bool</text>
</a>
</g>
</g>
<!-- Node29&#45;&gt;Node28 -->
<g id="edge22" class="edge">
<title>Node29&#45;&gt;Node28</title>
<path fill="none" stroke="#9a32cd" stroke-dasharray="5,2" d="M249.96,-649.82C292.92,-645.51 379.49,-635.95 452,-622.38 465.28,-619.9 479.54,-616.68 492.7,-613.47"/>
<polygon fill="#9a32cd" stroke="#9a32cd" points="249.37,-646.36 239.76,-650.82 250.06,-653.33 249.37,-646.36"/>
<text text-anchor="middle" x="386" y="-670.98" font-family="Helvetica,sans-Serif" font-size="8.00"> S_BLOB_UNDERFLOW_ALLOWED</text>
<text text-anchor="start" x="320" y="-661.98" font-family="Helvetica,sans-Serif" font-size="8.00">S_META_BLOB_UNDERFLOW</text>
<text text-anchor="middle" x="386" y="-652.98" font-family="Helvetica,sans-Serif" font-size="8.00">_ALLOWED</text>
<text text-anchor="middle" x="386" y="-643.98" font-family="Helvetica,sans-Serif" font-size="8.00">S_TRANSMIT_NATIVE_HANDLES</text>
</g>
<!-- Node30 -->
<g id="node20" class="node">
<title>Node30</title>
<g id="a_node20"><a xlink:title=" ">
<polygon fill="white" stroke="#bfbfbf" points="163,-760.88 163,-795.88 281,-795.88 281,-760.88 163,-760.88"/>
<text text-anchor="start" x="171" y="-785.48" font-family="Helvetica,sans-Serif" font-size="8.00">propagate_const&lt; boost</text>
<text text-anchor="start" x="171" y="-776.48" font-family="Helvetica,sans-Serif" font-size="8.00">::movelib::unique_ptr</text>
<text text-anchor="middle" x="222" y="-767.48" font-family="Helvetica,sans-Serif" font-size="8.00">&lt; Impl &gt; &gt;</text>
</a>
</g>
</g>
<!-- Node30&#45;&gt;Node28 -->
<g id="edge24" class="edge">
<title>Node30&#45;&gt;Node28</title>
<path fill="none" stroke="#9a32cd" stroke-dasharray="5,2" d="M291.29,-773.78C350.53,-768.31 430.1,-756.93 452,-734.38 486.82,-698.53 437.38,-661.25 470,-623.38 473.34,-619.51 477.33,-616.28 481.7,-613.59"/>
<polygon fill="#9a32cd" stroke="#9a32cd" points="290.89,-770.3 281.23,-774.67 291.5,-777.27 290.89,-770.3"/>
<text text-anchor="middle" x="386" y="-771.98" font-family="Helvetica,sans-Serif" font-size="8.00"> m_impl</text>
</g>
<!-- Node31 -->
<g id="node21" class="node">
<title>Node31</title>
<g id="a_node21"><a xlink:title=" ">
<polygon fill="white" stroke="#bfbfbf" points="509,-86.88 509,-103.88 577,-103.88 577,-86.88 509,-86.88"/>
<text text-anchor="middle" x="543" y="-93.48" font-family="Helvetica,sans-Serif" font-size="8.00">unsigned int</text>
</a>
</g>
</g>
<!-- Node31&#45;&gt;Node3 -->
<g id="edge26" class="edge">
<title>Node31&#45;&gt;Node3</title>
<path fill="none" stroke="#9a32cd" stroke-dasharray="5,2" d="M587.01,-88.58C637.27,-81.69 716.33,-74.49 738,-93.38 782.29,-132.01 722.62,-176.01 756,-224.38 758.32,-227.74 760.97,-230.87 763.87,-233.79"/>
<polygon fill="#9a32cd" stroke="#9a32cd" points="586.47,-85.12 577.06,-89.99 587.46,-92.05 586.47,-85.12"/>
<text text-anchor="start" x="634" y="-131.98" font-family="Helvetica,sans-Serif" font-size="8.00"> m_last_actively_opened</text>
<text text-anchor="middle" x="686" y="-122.98" font-family="Helvetica,sans-Serif" font-size="8.00">_channel_id</text>
<text text-anchor="middle" x="686" y="-113.98" font-family="Helvetica,sans-Serif" font-size="8.00">m_last_channel_mq_id</text>
<text text-anchor="start" x="634" y="-104.98" font-family="Helvetica,sans-Serif" font-size="8.00">m_last_passively_opened</text>
<text text-anchor="middle" x="686" y="-95.98" font-family="Helvetica,sans-Serif" font-size="8.00">_channel_id</text>
</g>
<!-- Node32 -->
<g id="node22" class="node">
<title>Node32</title>
<g id="a_node22"><a xlink:title=" ">
<polygon fill="white" stroke="#bfbfbf" points="485,-50.88 485,-67.88 601,-67.88 601,-50.88 485,-50.88"/>
<text text-anchor="middle" x="543" y="-57.48" font-family="Helvetica,sans-Serif" font-size="8.00">Single_thread_task_loop</text>
</a>
</g>
</g>
<!-- Node32&#45;&gt;Node3 -->
<g id="edge27" class="edge">
<title>Node32&#45;&gt;Node3</title>
<path fill="none" stroke="#9a32cd" stroke-dasharray="5,2" d="M581.59,-48.31C625.18,-38.03 696.36,-29.51 738,-68.38 763.51,-92.2 736.49,-195.45 756,-224.38 758.28,-227.77 760.9,-230.92 763.78,-233.85"/>
<polygon fill="#9a32cd" stroke="#9a32cd" points="580.52,-44.97 571.67,-50.8 582.22,-51.76 580.52,-44.97"/>
<text text-anchor="middle" x="686" y="-70.98" font-family="Helvetica,sans-Serif" font-size="8.00"> m_async_worker</text>
</g>
<!-- Node33 -->
<g id="node23" class="node">
<title>Node33</title>
<g id="a_node23"><a xlink:title=" ">
<polygon fill="white" stroke="#bfbfbf" points="472,-14.88 472,-31.88 614,-31.88 614,-14.88 472,-14.88"/>
<text text-anchor="middle" x="543" y="-21.48" font-family="Helvetica,sans-Serif" font-size="8.00">Master_structured_channel_ptr</text>
</a>
</g>
</g>
<!-- Node33&#45;&gt;Node3 -->
<g id="edge28" class="edge">
<title>Node33&#45;&gt;Node3</title>
<path fill="none" stroke="#9a32cd" stroke-dasharray="5,2" d="M578.07,-11.97C621.26,0.12 695.22,12.48 738,-27.38 770.16,-57.35 731.86,-187.64 756,-224.38 758.15,-227.66 760.62,-230.71 763.34,-233.56"/>
<polygon fill="#9a32cd" stroke="#9a32cd" points="576.91,-8.66 568.31,-14.84 578.89,-15.37 576.91,-8.66"/>
<text text-anchor="middle" x="686" y="-29.98" font-family="Helvetica,sans-Serif" font-size="8.00"> m_master_channel</text>
</g>
<!-- Node34 -->
<g id="node24" class="node">
<title>Node34</title>
<g id="a_node24"><a xlink:href="classFunction_3_01void_07_08_4.html" target="_top" xlink:title=" ">
<polygon fill="white" stroke="#bfbfbf" points="497.5,-632.88 497.5,-649.88 588.5,-649.88 588.5,-632.88 497.5,-632.88"/>
<text text-anchor="middle" x="543" y="-639.48" font-family="Helvetica,sans-Serif" font-size="8.00">Function&lt; void()&gt;</text>
</a>
</g>
</g>
<!-- Node34&#45;&gt;Node3 -->
<g id="edge29" class="edge">
<title>Node34&#45;&gt;Node3</title>
<path fill="none" stroke="#9a32cd" stroke-dasharray="5,2" d="M598.66,-639.73C641.95,-635.51 701.1,-622.82 738,-586.38 816.56,-508.8 833.83,-370.21 837.54,-305.07"/>
<polygon fill="#9a32cd" stroke="#9a32cd" points="598.24,-636.25 588.57,-640.59 598.83,-643.22 598.24,-636.25"/>
<text text-anchor="middle" x="686" y="-635.98" font-family="Helvetica,sans-Serif" font-size="8.00"> m_deinit_func_or_empty</text>
</g>
<!-- Node35 -->
<g id="node25" class="node">
<title>Node35</title>
<g id="a_node25"><a xlink:title=" ">
<polygon fill="white" stroke="#bfbfbf" points="776.5,-197.88 776.5,-214.88 902.5,-214.88 902.5,-197.88 776.5,-197.88"/>
<text text-anchor="middle" x="839.5" y="-204.48" font-family="Helvetica,sans-Serif" font-size="8.00">static constexpr scope_id_t</text>
</a>
</g>
</g>
<!-- Node35&#45;&gt;Node2 -->
<g id="edge30" class="edge">
<title>Node35&#45;&gt;Node2</title>
<path fill="none" stroke="#9a32cd" stroke-dasharray="5,2" d="M912.74,-211.71C947.61,-214.5 990.02,-218.2 1028,-222.38 1033.8,-223.02 1039.76,-223.72 1045.77,-224.45"/>
<polygon fill="#9a32cd" stroke="#9a32cd" points="912.89,-208.21 902.65,-210.92 912.34,-215.19 912.89,-208.21"/>
<text text-anchor="middle" x="984.5" y="-233.98" font-family="Helvetica,sans-Serif" font-size="8.00"> S_SCOPE_ID_APP</text>
<text text-anchor="middle" x="984.5" y="-224.98" font-family="Helvetica,sans-Serif" font-size="8.00">S_SCOPE_ID_SESSION</text>
</g>
<!-- Node36 -->
<g id="node26" class="node">
<title>Node36</title>
<g id="a_node26"><a xlink:title=" ">
<polygon fill="white" stroke="#bfbfbf" points="788.5,-161.88 788.5,-178.88 890.5,-178.88 890.5,-161.88 788.5,-161.88"/>
<text text-anchor="middle" x="839.5" y="-168.48" font-family="Helvetica,sans-Serif" font-size="8.00">unique_ptr&lt; Arena &gt;</text>
</a>
</g>
</g>
<!-- Node36&#45;&gt;Node2 -->
<g id="edge31" class="edge">
<title>Node36&#45;&gt;Node2</title>
<path fill="none" stroke="#9a32cd" stroke-dasharray="5,2" d="M900.77,-178.01C937.77,-183.26 985.95,-191.15 1028,-201.38 1033.81,-202.8 1039.75,-204.36 1045.72,-206.03"/>
<polygon fill="#9a32cd" stroke="#9a32cd" points="901.04,-174.51 890.65,-176.6 900.07,-181.44 901.04,-174.51"/>
<text text-anchor="middle" x="984.5" y="-203.98" font-family="Helvetica,sans-Serif" font-size="8.00"> m_session_shm</text>
</g>
<!-- Node37&#45;&gt;Node2 -->
<g id="edge32" class="edge">
<title>Node37&#45;&gt;Node2</title>
<path fill="none" stroke="#9a32cd" stroke-dasharray="5,2" d="M586.83,-728.31C627.73,-710.95 690.04,-681.62 738,-646.38 890.67,-534.23 1038.18,-362.51 1103.66,-281.98"/>
<polygon fill="#9a32cd" stroke="#9a32cd" points="585.3,-725.16 577.43,-732.26 588.01,-731.62 585.3,-725.16"/>
<text text-anchor="middle" x="839.5" y="-632.98" font-family="Helvetica,sans-Serif" font-size="8.00"> m_app_shm</text>
</g>
<!-- Node38 -->
<g id="node28" class="node">
<title>Node38</title>
<g id="a_node28"><a xlink:title=" ">
<polygon fill="white" stroke="#bfbfbf" points="174.5,-814.88 174.5,-831.88 269.5,-831.88 269.5,-814.88 174.5,-814.88"/>
<text text-anchor="middle" x="222" y="-821.48" font-family="Helvetica,sans-Serif" font-size="8.00">unique_ptr&lt; Pool &gt;</text>
</a>
</g>
</g>
<!-- Node38&#45;&gt;Node37 -->
<g id="edge36" class="edge">
<title>Node38&#45;&gt;Node37</title>
<path fill="none" stroke="#9a32cd" stroke-dasharray="5,2" d="M279.7,-815.6C342.12,-806.9 435.84,-793.36 452,-788.38 476,-781 501.68,-768.18 519.45,-758.46"/>
<polygon fill="#9a32cd" stroke="#9a32cd" points="279,-812.17 269.58,-817.01 279.97,-819.1 279,-812.17"/>
<text text-anchor="middle" x="386" y="-811.98" font-family="Helvetica,sans-Serif" font-size="8.00"> m_pool</text>
</g>
</g>
</svg>
