<?xml version="1.0" encoding="UTF-8" standalone="no"?>
<!DOCTYPE svg PUBLIC "-//W3C//DTD SVG 1.1//EN"
 "http://www.w3.org/Graphics/SVG/1.1/DTD/svg11.dtd">
<!-- Generated by graphviz version 2.43.0 (0)
 -->
<!-- Title: ipc::session::Client_session_impl&lt; S_MQ_TYPE_OR_NONE, S_TRANSMIT_NATIVE_HANDLES, Mdt_payload, S_SHM_TYPE_OR_NONE &gt; Pages: 1 -->
<svg width="1423pt" height="763pt"
 viewBox="0.00 0.00 1423.00 763.07" xmlns="http://www.w3.org/2000/svg" xmlns:xlink="http://www.w3.org/1999/xlink">
<g id="graph0" class="graph" transform="scale(1 1) rotate(0) translate(4 759.07)">
<title>ipc::session::Client_session_impl&lt; S_MQ_TYPE_OR_NONE, S_TRANSMIT_NATIVE_HANDLES, Mdt_payload, S_SHM_TYPE_OR_NONE &gt;</title>
<polygon fill="white" stroke="transparent" points="-4,4 -4,-759.07 1419,-759.07 1419,4 -4,4"/>
<!-- Node1 -->
<g id="node1" class="node">
<title>Node1</title>
<g id="a_node1"><a xlink:title="Internal, non&#45;movable pImpl&#45;lite implementation of Client_session_mv class template.">
<polygon fill="#bfbfbf" stroke="black" points="1269,-163.12 1269,-216.12 1415,-216.12 1415,-163.12 1269,-163.12"/>
<text text-anchor="start" x="1277" y="-205.72" font-family="Helvetica,sans-Serif" font-size="8.00">ipc::session::Client</text>
<text text-anchor="start" x="1277" y="-196.72" font-family="Helvetica,sans-Serif" font-size="8.00">_session_impl&lt; S_MQ_TYPE</text>
<text text-anchor="start" x="1277" y="-187.72" font-family="Helvetica,sans-Serif" font-size="8.00">_OR_NONE, S_TRANSMIT_NATIVE</text>
<text text-anchor="start" x="1277" y="-178.72" font-family="Helvetica,sans-Serif" font-size="8.00">_HANDLES, Mdt_payload, S_SHM</text>
<text text-anchor="middle" x="1342" y="-169.72" font-family="Helvetica,sans-Serif" font-size="8.00">_TYPE_OR_NONE &gt;</text>
</a>
</g>
</g>
<!-- Node2 -->
<g id="node2" class="node">
<title>Node2</title>
<g id="a_node2"><a xlink:href="classipc_1_1session_1_1Session__base.html" target="_top" xlink:title="Internal type containing data and types common to internal types Server_session_impl and Client_sessi...">
<polygon fill="white" stroke="black" points="976,-483.62 976,-527.62 1122,-527.62 1122,-483.62 976,-483.62"/>
<text text-anchor="start" x="984" y="-517.22" font-family="Helvetica,sans-Serif" font-size="8.00">ipc::session::Session</text>
<text text-anchor="start" x="984" y="-508.22" font-family="Helvetica,sans-Serif" font-size="8.00">_base&lt; S_MQ_TYPE_OR_NONE,</text>
<text text-anchor="start" x="984" y="-499.22" font-family="Helvetica,sans-Serif" font-size="8.00"> S_TRANSMIT_NATIVE_HANDLES,</text>
<text text-anchor="middle" x="1049" y="-490.22" font-family="Helvetica,sans-Serif" font-size="8.00"> Mdt_payload &gt;</text>
</a>
</g>
</g>
<!-- Node2&#45;&gt;Node1 -->
<g id="edge1" class="edge">
<title>Node2&#45;&gt;Node1</title>
<path fill="none" stroke="midnightblue" d="M1095.41,-478.01C1139.17,-449.77 1205.3,-402.62 1251,-349.62 1286.9,-307.99 1315.28,-249.81 1329.98,-216.3"/>
<polygon fill="midnightblue" stroke="midnightblue" points="1093.52,-475.07 1086.97,-483.41 1097.28,-480.97 1093.52,-475.07"/>
</g>
<!-- Node3 -->
<g id="node3" class="node">
<title>Node3</title>
<g id="a_node3"><a xlink:title=" ">
<polygon fill="white" stroke="#bfbfbf" points="689.5,-416.12 689.5,-433.12 788.5,-433.12 788.5,-416.12 689.5,-416.12"/>
<text text-anchor="middle" x="739" y="-422.72" font-family="Helvetica,sans-Serif" font-size="8.00">boost::noncopyable</text>
</a>
</g>
</g>
<!-- Node3&#45;&gt;Node2 -->
<g id="edge2" class="edge">
<title>Node3&#45;&gt;Node2</title>
<path fill="none" stroke="#8b1a1a" d="M798.98,-430.96C843.42,-436.74 905.46,-446.98 958,-463.62 974.27,-468.78 991.42,-476.23 1006.33,-483.42"/>
<polygon fill="#8b1a1a" stroke="#8b1a1a" points="799.29,-427.47 788.93,-429.69 798.41,-434.42 799.29,-427.47"/>
</g>
<!-- Node4 -->
<g id="node4" class="node">
<title>Node4</title>
<g id="a_node4"><a xlink:title=" ">
<polygon fill="white" stroke="#bfbfbf" points="688.5,-728.12 688.5,-745.12 789.5,-745.12 789.5,-728.12 688.5,-728.12"/>
<text text-anchor="middle" x="739" y="-734.72" font-family="Helvetica,sans-Serif" font-size="8.00">static constexpr bool</text>
</a>
</g>
</g>
<!-- Node4&#45;&gt;Node1 -->
<g id="edge28" class="edge">
<title>Node4&#45;&gt;Node1</title>
<path fill="none" stroke="#9a32cd" stroke-dasharray="5,2" d="M784.15,-747.08C829.8,-755.61 902.1,-762.59 958,-737.62 1188.24,-634.78 1303.53,-311.83 1333.16,-216.42"/>
<polygon fill="#9a32cd" stroke="#9a32cd" points="784.75,-743.63 774.26,-745.13 783.4,-750.5 784.75,-743.63"/>
<text text-anchor="middle" x="1049" y="-744.22" font-family="Helvetica,sans-Serif" font-size="8.00"> S_MQS_ENABLED</text>
<text text-anchor="middle" x="1049" y="-735.22" font-family="Helvetica,sans-Serif" font-size="8.00">S_SHM_ENABLED</text>
<text text-anchor="middle" x="1049" y="-726.22" font-family="Helvetica,sans-Serif" font-size="8.00">S_SOCKET_STREAM_ENABLED</text>
</g>
<!-- Node4&#45;&gt;Node2 -->
<g id="edge3" class="edge">
<title>Node4&#45;&gt;Node2</title>
<path fill="none" stroke="#9a32cd" stroke-dasharray="5,2" d="M797.91,-726.32C861.94,-714.89 956.39,-697.86 958,-696.62 1013.63,-653.81 1036.39,-568.17 1044.33,-527.73"/>
<polygon fill="#9a32cd" stroke="#9a32cd" points="797.14,-722.91 787.91,-728.11 798.37,-729.8 797.14,-722.91"/>
<text text-anchor="middle" x="897.5" y="-729.22" font-family="Helvetica,sans-Serif" font-size="8.00"> S_MQS_ENABLED</text>
<text text-anchor="middle" x="897.5" y="-720.22" font-family="Helvetica,sans-Serif" font-size="8.00">S_SOCKET_STREAM_ENABLED</text>
</g>
<!-- Node5 -->
<g id="node5" class="node">
<title>Node5</title>
<g id="a_node5"><a xlink:href="structipc_1_1session_1_1Server__app.html" target="_top" xlink:title="An App that is used as a server in at least one client&#45;server IPC split.">
<polygon fill="white" stroke="black" points="429,-609.12 429,-626.12 547,-626.12 547,-609.12 429,-609.12"/>
<text text-anchor="middle" x="488" y="-615.72" font-family="Helvetica,sans-Serif" font-size="8.00">ipc::session::Server_app</text>
</a>
</g>
</g>
<!-- Node5&#45;&gt;Node2 -->
<g id="edge4" class="edge">
<title>Node5&#45;&gt;Node2</title>
<path fill="none" stroke="#9a32cd" stroke-dasharray="5,2" d="M517.81,-630.12C595.42,-661.72 812.83,-736.33 958,-649.62 1004.06,-622.11 1030.12,-560.93 1041.33,-527.87"/>
<polygon fill="#9a32cd" stroke="#9a32cd" points="518.8,-626.74 508.22,-626.14 516.11,-633.21 518.8,-626.74"/>
<text text-anchor="middle" x="739" y="-692.22" font-family="Helvetica,sans-Serif" font-size="8.00"> m_srv_app_ref</text>
</g>
<!-- Node6 -->
<g id="node6" class="node">
<title>Node6</title>
<g id="a_node6"><a xlink:href="structipc_1_1session_1_1App.html" target="_top" xlink:title="A description of an application in this ipc::session inter&#45;process communication universe.">
<polygon fill="white" stroke="black" points="197,-562.12 197,-579.12 285,-579.12 285,-562.12 197,-562.12"/>
<text text-anchor="middle" x="241" y="-568.72" font-family="Helvetica,sans-Serif" font-size="8.00">ipc::session::App</text>
</a>
</g>
</g>
<!-- Node6&#45;&gt;Node5 -->
<g id="edge5" class="edge">
<title>Node6&#45;&gt;Node5</title>
<path fill="none" stroke="midnightblue" d="M295.19,-580.83C339.23,-589.27 401.1,-601.14 442.54,-609.09"/>
<polygon fill="midnightblue" stroke="midnightblue" points="295.72,-577.36 285.24,-578.92 294.4,-584.24 295.72,-577.36"/>
</g>
<!-- Node17 -->
<g id="node16" class="node">
<title>Node17</title>
<g id="a_node16"><a xlink:href="structipc_1_1session_1_1Client__app.html" target="_top" xlink:title="An App that is used as a client in at least one client&#45;server IPC split.">
<polygon fill="white" stroke="black" points="430.5,-551.12 430.5,-568.12 545.5,-568.12 545.5,-551.12 430.5,-551.12"/>
<text text-anchor="middle" x="488" y="-557.72" font-family="Helvetica,sans-Serif" font-size="8.00">ipc::session::Client_app</text>
</a>
</g>
</g>
<!-- Node6&#45;&gt;Node17 -->
<g id="edge17" class="edge">
<title>Node6&#45;&gt;Node17</title>
<path fill="none" stroke="midnightblue" d="M295.31,-568.23C335.21,-566.44 389.7,-563.99 430.38,-562.16"/>
<polygon fill="midnightblue" stroke="midnightblue" points="295.07,-564.74 285.24,-568.68 295.38,-571.73 295.07,-564.74"/>
</g>
<!-- Node7 -->
<g id="node7" class="node">
<title>Node7</title>
<g id="a_node7"><a xlink:title=" ">
<polygon fill="white" stroke="red" points="12.5,-404.12 12.5,-421.12 71.5,-421.12 71.5,-404.12 12.5,-404.12"/>
<text text-anchor="middle" x="42" y="-410.72" font-family="Helvetica,sans-Serif" font-size="8.00">std::string</text>
</a>
</g>
</g>
<!-- Node7&#45;&gt;Node6 -->
<g id="edge6" class="edge">
<title>Node7&#45;&gt;Node6</title>
<path fill="none" stroke="#9a32cd" stroke-dasharray="5,2" d="M59.31,-428.53C85.09,-453.28 137.32,-501.87 186,-537.62 198.4,-546.73 213.39,-555.74 224.42,-562.04"/>
<polygon fill="#9a32cd" stroke="#9a32cd" points="61.54,-425.81 51.91,-421.38 56.67,-430.85 61.54,-425.81"/>
<text text-anchor="middle" x="135" y="-524.22" font-family="Helvetica,sans-Serif" font-size="8.00"> m_name</text>
</g>
<!-- Node18 -->
<g id="node17" class="node">
<title>Node18</title>
<g id="a_node17"><a xlink:href="classipc_1_1util_1_1Shared__name.html" target="_top" xlink:title="String&#45;wrapping abstraction representing a name uniquely distinguishing a kernel&#45;persistent entity fr...">
<polygon fill="white" stroke="black" points="186,-277.12 186,-294.12 296,-294.12 296,-277.12 186,-277.12"/>
<text text-anchor="middle" x="241" y="-283.72" font-family="Helvetica,sans-Serif" font-size="8.00">ipc::util::Shared_name</text>
</a>
</g>
</g>
<!-- Node7&#45;&gt;Node18 -->
<g id="edge22" class="edge">
<title>Node7&#45;&gt;Node18</title>
<path fill="none" stroke="#9a32cd" stroke-dasharray="5,2" d="M64.67,-398.65C105.58,-372.28 193.06,-315.88 226.57,-294.28"/>
<polygon fill="#9a32cd" stroke="#9a32cd" points="62.74,-395.73 56.23,-404.09 66.53,-401.62 62.74,-395.73"/>
<text text-anchor="middle" x="135" y="-373.22" font-family="Helvetica,sans-Serif" font-size="8.00"> m_raw_name</text>
</g>
<!-- Node27 -->
<g id="node26" class="node">
<title>Node27</title>
<g id="a_node26"><a xlink:href="classipc_1_1transport_1_1Protocol__negotiator.html" target="_top" xlink:title="A simple state machine that, assuming the opposide side of a comm pathway uses an equivalent state ma...">
<polygon fill="white" stroke="black" points="993.5,-235.62 993.5,-261.62 1104.5,-261.62 1104.5,-235.62 993.5,-235.62"/>
<text text-anchor="start" x="1001.5" y="-251.22" font-family="Helvetica,sans-Serif" font-size="8.00">ipc::transport::Protocol</text>
<text text-anchor="middle" x="1049" y="-242.22" font-family="Helvetica,sans-Serif" font-size="8.00">_negotiator</text>
</a>
</g>
</g>
<!-- Node7&#45;&gt;Node27 -->
<g id="edge33" class="edge">
<title>Node7&#45;&gt;Node27</title>
<path fill="none" stroke="#9a32cd" stroke-dasharray="5,2" d="M81.53,-410.83C131.22,-408.26 220.27,-402.81 296,-393.62 458.4,-373.92 497.61,-359.41 659,-332.62 791.84,-310.57 828.1,-319.11 958,-283.62 978.86,-277.92 1001.55,-269.08 1018.93,-261.71"/>
<polygon fill="#9a32cd" stroke="#9a32cd" points="81.35,-407.33 71.54,-411.33 81.7,-414.32 81.35,-407.33"/>
<text text-anchor="middle" x="488" y="-376.22" font-family="Helvetica,sans-Serif" font-size="8.00"> m_nickname</text>
</g>
<!-- Node9 -->
<g id="node8" class="node">
<title>Node9</title>
<g id="a_node8"><a xlink:title=" ">
<polygon fill="white" stroke="#bfbfbf" points="24.5,-522.12 24.5,-539.12 59.5,-539.12 59.5,-522.12 24.5,-522.12"/>
<text text-anchor="middle" x="42" y="-528.72" font-family="Helvetica,sans-Serif" font-size="8.00">path</text>
</a>
</g>
</g>
<!-- Node9&#45;&gt;Node5 -->
<g id="edge11" class="edge">
<title>Node9&#45;&gt;Node5</title>
<path fill="none" stroke="#9a32cd" stroke-dasharray="5,2" d="M69.97,-527.94C116.58,-523.99 215,-518.67 296,-534.62 349.85,-545.22 360.85,-557.33 411,-579.62 432.03,-588.97 455.65,-601.04 470.9,-609.04"/>
<polygon fill="#9a32cd" stroke="#9a32cd" points="69.44,-524.47 59.79,-528.85 70.06,-531.44 69.44,-524.47"/>
<text text-anchor="start" x="198.5" y="-546.22" font-family="Helvetica,sans-Serif" font-size="8.00"> m_kernel_persistent</text>
<text text-anchor="middle" x="241" y="-537.22" font-family="Helvetica,sans-Serif" font-size="8.00">_run_dir_override</text>
</g>
<!-- Node9&#45;&gt;Node6 -->
<g id="edge7" class="edge">
<title>Node9&#45;&gt;Node6</title>
<path fill="none" stroke="#9a32cd" stroke-dasharray="5,2" d="M69.62,-536.03C102.57,-542.72 159.1,-554.19 197.94,-562.08"/>
<polygon fill="#9a32cd" stroke="#9a32cd" points="70.29,-532.59 59.8,-534.03 68.9,-539.45 70.29,-532.59"/>
<text text-anchor="middle" x="135" y="-557.22" font-family="Helvetica,sans-Serif" font-size="8.00"> m_exec_path</text>
</g>
<!-- Node10 -->
<g id="node9" class="node">
<title>Node10</title>
<g id="a_node9"><a xlink:title=" ">
<polygon fill="white" stroke="#bfbfbf" points="24,-608.12 24,-625.12 60,-625.12 60,-608.12 24,-608.12"/>
<text text-anchor="middle" x="42" y="-614.72" font-family="Helvetica,sans-Serif" font-size="8.00">uid_t</text>
</a>
</g>
</g>
<!-- Node10&#45;&gt;Node6 -->
<g id="edge8" class="edge">
<title>Node10&#45;&gt;Node6</title>
<path fill="none" stroke="#9a32cd" stroke-dasharray="5,2" d="M70.02,-611.15C95.4,-605.93 134.37,-597.69 168,-589.62 181.45,-586.4 196.24,-582.55 208.89,-579.16"/>
<polygon fill="#9a32cd" stroke="#9a32cd" points="69.13,-607.76 60.04,-613.2 70.54,-614.62 69.13,-607.76"/>
<text text-anchor="middle" x="135" y="-606.22" font-family="Helvetica,sans-Serif" font-size="8.00"> m_user_id</text>
</g>
<!-- Node11 -->
<g id="node10" class="node">
<title>Node11</title>
<g id="a_node10"><a xlink:title=" ">
<polygon fill="white" stroke="#bfbfbf" points="24,-572.12 24,-589.12 60,-589.12 60,-572.12 24,-572.12"/>
<text text-anchor="middle" x="42" y="-578.72" font-family="Helvetica,sans-Serif" font-size="8.00">gid_t</text>
</a>
</g>
</g>
<!-- Node11&#45;&gt;Node6 -->
<g id="edge9" class="edge">
<title>Node11&#45;&gt;Node6</title>
<path fill="none" stroke="#9a32cd" stroke-dasharray="5,2" d="M70.33,-579.23C103.09,-577.57 158.4,-574.76 196.93,-572.81"/>
<polygon fill="#9a32cd" stroke="#9a32cd" points="69.95,-575.75 60.14,-579.75 70.3,-582.74 69.95,-575.75"/>
<text text-anchor="middle" x="135" y="-579.22" font-family="Helvetica,sans-Serif" font-size="8.00"> m_group_id</text>
</g>
<!-- Node12 -->
<g id="node11" class="node">
<title>Node12</title>
<g id="a_node11"><a xlink:title=" ">
<polygon fill="white" stroke="#bfbfbf" points="192,-645.62 192,-671.62 290,-671.62 290,-645.62 192,-645.62"/>
<text text-anchor="start" x="200" y="-661.22" font-family="Helvetica,sans-Serif" font-size="8.00">unordered_set&lt; std</text>
<text text-anchor="middle" x="241" y="-652.22" font-family="Helvetica,sans-Serif" font-size="8.00">::string &gt;</text>
</a>
</g>
</g>
<!-- Node12&#45;&gt;Node5 -->
<g id="edge10" class="edge">
<title>Node12&#45;&gt;Node5</title>
<path fill="none" stroke="#9a32cd" stroke-dasharray="5,2" d="M300.59,-652.68C333.24,-648.95 374.54,-643.53 411,-636.62 425.97,-633.79 442.38,-629.8 456.12,-626.2"/>
<polygon fill="#9a32cd" stroke="#9a32cd" points="299.86,-649.24 290.31,-653.83 300.64,-656.2 299.86,-649.24"/>
<text text-anchor="middle" x="362.5" y="-653.22" font-family="Helvetica,sans-Serif" font-size="8.00"> m_allowed_client_apps</text>
</g>
<!-- Node13 -->
<g id="node12" class="node">
<title>Node13</title>
<g id="a_node12"><a xlink:title=" ">
<polygon fill="white" stroke="#bfbfbf" points="196.5,-609.12 196.5,-626.12 285.5,-626.12 285.5,-609.12 196.5,-609.12"/>
<text text-anchor="middle" x="241" y="-615.72" font-family="Helvetica,sans-Serif" font-size="8.00">Permissions_level</text>
</a>
</g>
</g>
<!-- Node13&#45;&gt;Node5 -->
<g id="edge12" class="edge">
<title>Node13&#45;&gt;Node5</title>
<path fill="none" stroke="#9a32cd" stroke-dasharray="5,2" d="M295.71,-617.62C335.03,-617.62 388.34,-617.62 428.7,-617.62"/>
<polygon fill="#9a32cd" stroke="#9a32cd" points="295.52,-614.12 285.52,-617.62 295.52,-621.12 295.52,-614.12"/>
<text text-anchor="start" x="319" y="-629.22" font-family="Helvetica,sans-Serif" font-size="8.00"> m_permissions_level</text>
<text text-anchor="middle" x="362.5" y="-620.22" font-family="Helvetica,sans-Serif" font-size="8.00">_for_client_apps</text>
</g>
<!-- Node14 -->
<g id="node13" class="node">
<title>Node14</title>
<g id="a_node13"><a xlink:title=" ">
<polygon fill="white" stroke="#bfbfbf" points="703.5,-632.12 703.5,-649.12 774.5,-649.12 774.5,-632.12 703.5,-632.12"/>
<text text-anchor="middle" x="739" y="-638.72" font-family="Helvetica,sans-Serif" font-size="8.00">Fine_duration</text>
</a>
</g>
</g>
<!-- Node14&#45;&gt;Node2 -->
<g id="edge13" class="edge">
<title>Node14&#45;&gt;Node2</title>
<path fill="none" stroke="#9a32cd" stroke-dasharray="5,2" d="M784.98,-641.32C831.09,-640.21 903.56,-633.22 958,-603.62 991.08,-585.64 1018.52,-550.82 1034.09,-527.9"/>
<polygon fill="#9a32cd" stroke="#9a32cd" points="784.65,-637.83 774.71,-641.49 784.76,-644.83 784.65,-637.83"/>
<text text-anchor="middle" x="897.5" y="-639.22" font-family="Helvetica,sans-Serif" font-size="8.00"> S_OPEN_CHANNEL_TIMEOUT</text>
</g>
<!-- Node15 -->
<g id="node14" class="node">
<title>Node15</title>
<g id="a_node14"><a xlink:title=" ">
<polygon fill="white" stroke="#bfbfbf" points="685.5,-596.12 685.5,-613.12 792.5,-613.12 792.5,-596.12 685.5,-596.12"/>
<text text-anchor="middle" x="739" y="-602.72" font-family="Helvetica,sans-Serif" font-size="8.00">static constexpr size_t</text>
</a>
</g>
</g>
<!-- Node15&#45;&gt;Node2 -->
<g id="edge14" class="edge">
<title>Node15&#45;&gt;Node2</title>
<path fill="none" stroke="#9a32cd" stroke-dasharray="5,2" d="M802.59,-597.4C847.05,-590.92 907.57,-579.3 958,-559.62 978.71,-551.54 1000.12,-538.9 1016.86,-527.88"/>
<polygon fill="#9a32cd" stroke="#9a32cd" points="801.91,-593.96 792.5,-598.83 802.89,-600.89 801.91,-593.96"/>
<text text-anchor="middle" x="897.5" y="-593.22" font-family="Helvetica,sans-Serif" font-size="8.00"> S_MQS_MAX_MSG_SZ</text>
</g>
<!-- Node16 -->
<g id="node15" class="node">
<title>Node16</title>
<g id="a_node15"><a xlink:title=" ">
<polygon fill="white" stroke="black" points="690,-542.12 690,-577.12 788,-577.12 788,-542.12 690,-542.12"/>
<text text-anchor="start" x="698" y="-566.72" font-family="Helvetica,sans-Serif" font-size="8.00">std::atomic&lt; const</text>
<text text-anchor="start" x="698" y="-557.72" font-family="Helvetica,sans-Serif" font-size="8.00"> ipc::session::Client</text>
<text text-anchor="middle" x="739" y="-548.72" font-family="Helvetica,sans-Serif" font-size="8.00">_app * &gt;</text>
</a>
</g>
</g>
<!-- Node16&#45;&gt;Node2 -->
<g id="edge15" class="edge">
<title>Node16&#45;&gt;Node2</title>
<path fill="none" stroke="#9a32cd" stroke-dasharray="5,2" d="M798.24,-552.59C842.29,-546.9 904.19,-538.12 958,-527.62 963.84,-526.48 969.87,-525.21 975.92,-523.87"/>
<polygon fill="#9a32cd" stroke="#9a32cd" points="797.75,-549.12 788.28,-553.86 798.64,-556.06 797.75,-549.12"/>
<text text-anchor="middle" x="897.5" y="-549.22" font-family="Helvetica,sans-Serif" font-size="8.00"> m_cli_app_ptr</text>
</g>
<!-- Node17&#45;&gt;Node16 -->
<g id="edge16" class="edge">
<title>Node17&#45;&gt;Node16</title>
<path fill="none" stroke="#9a32cd" stroke-dasharray="5,2" d="M555.7,-559.62C597.93,-559.62 651.56,-559.62 689.69,-559.62"/>
<polygon fill="#9a32cd" stroke="#9a32cd" points="555.5,-556.12 545.5,-559.62 555.5,-563.12 555.5,-556.12"/>
<text text-anchor="middle" x="603" y="-562.22" font-family="Helvetica,sans-Serif" font-size="8.00"> ptr</text>
</g>
<!-- Node18&#45;&gt;Node2 -->
<g id="edge18" class="edge">
<title>Node18&#45;&gt;Node2</title>
<path fill="none" stroke="#9a32cd" stroke-dasharray="5,2" d="M270.34,-298.33C306.45,-313.98 371.13,-340.27 429,-354.62 659.67,-411.81 742.3,-332.86 958,-432.62 984.66,-444.95 1010.18,-466.96 1027.2,-483.6"/>
<polygon fill="#9a32cd" stroke="#9a32cd" points="271.51,-295.02 260.94,-294.21 268.7,-301.43 271.51,-295.02"/>
<text text-anchor="middle" x="603" y="-389.22" font-family="Helvetica,sans-Serif" font-size="8.00"> m_cli_namespace</text>
<text text-anchor="middle" x="603" y="-380.22" font-family="Helvetica,sans-Serif" font-size="8.00">m_srv_namespace</text>
</g>
<!-- Node18&#45;&gt;Node18 -->
<g id="edge19" class="edge">
<title>Node18&#45;&gt;Node18</title>
<path fill="none" stroke="#9a32cd" stroke-dasharray="5,2" d="M221.19,-303.48C221.93,-308.64 228.53,-312.62 241,-312.62 260.46,-312.62 265.63,-302.91 256.51,-294.19"/>
<polygon fill="#9a32cd" stroke="#9a32cd" points="224.47,-304.74 225.49,-294.19 218.12,-301.8 224.47,-304.74"/>
<text text-anchor="middle" x="241" y="-378.22" font-family="Helvetica,sans-Serif" font-size="8.00"> S_1ST_OR_ONLY</text>
<text text-anchor="middle" x="241" y="-369.22" font-family="Helvetica,sans-Serif" font-size="8.00">S_EMPTY</text>
<text text-anchor="start" x="202.5" y="-360.22" font-family="Helvetica,sans-Serif" font-size="8.00">S_RESOURCE_TYPE</text>
<text text-anchor="middle" x="241" y="-351.22" font-family="Helvetica,sans-Serif" font-size="8.00">_ID_MUTEX</text>
<text text-anchor="start" x="202.5" y="-342.22" font-family="Helvetica,sans-Serif" font-size="8.00">S_RESOURCE_TYPE</text>
<text text-anchor="middle" x="241" y="-333.22" font-family="Helvetica,sans-Serif" font-size="8.00">_ID_SHM</text>
<text text-anchor="middle" x="241" y="-324.22" font-family="Helvetica,sans-Serif" font-size="8.00">S_ROOT_MAGIC</text>
<text text-anchor="middle" x="241" y="-315.22" font-family="Helvetica,sans-Serif" font-size="8.00">S_SENTINEL</text>
</g>
<!-- Node19 -->
<g id="node18" class="node">
<title>Node19</title>
<g id="a_node18"><a xlink:title=" ">
<polygon fill="white" stroke="#bfbfbf" points="22,-295.12 22,-312.12 62,-312.12 62,-295.12 22,-295.12"/>
<text text-anchor="middle" x="42" y="-301.72" font-family="Helvetica,sans-Serif" font-size="8.00">size_t</text>
</a>
</g>
</g>
<!-- Node19&#45;&gt;Node18 -->
<g id="edge20" class="edge">
<title>Node19&#45;&gt;Node18</title>
<path fill="none" stroke="#9a32cd" stroke-dasharray="5,2" d="M72.43,-300.93C102.3,-298.2 149.22,-293.92 185.83,-290.57"/>
<polygon fill="#9a32cd" stroke="#9a32cd" points="71.89,-297.47 62.25,-301.86 72.52,-304.44 71.89,-297.47"/>
<text text-anchor="middle" x="135" y="-300.22" font-family="Helvetica,sans-Serif" font-size="8.00"> S_MAX_LENGTH</text>
</g>
<!-- Node20 -->
<g id="node19" class="node">
<title>Node20</title>
<g id="a_node19"><a xlink:title=" ">
<polygon fill="white" stroke="#bfbfbf" points="0,-259.12 0,-276.12 84,-276.12 84,-259.12 0,-259.12"/>
<text text-anchor="middle" x="42" y="-265.72" font-family="Helvetica,sans-Serif" font-size="8.00">static const char</text>
</a>
</g>
</g>
<!-- Node20&#45;&gt;Node18 -->
<g id="edge21" class="edge">
<title>Node20&#45;&gt;Node18</title>
<path fill="none" stroke="#9a32cd" stroke-dasharray="5,2" d="M94.18,-272.02C116.81,-273.99 143.73,-276.37 168,-278.62 173.75,-279.15 179.76,-279.72 185.75,-280.29"/>
<polygon fill="#9a32cd" stroke="#9a32cd" points="94.37,-268.52 84.11,-271.14 93.77,-275.5 94.37,-268.52"/>
<text text-anchor="middle" x="135" y="-281.22" font-family="Helvetica,sans-Serif" font-size="8.00"> S_SEPARATOR</text>
</g>
<!-- Node21 -->
<g id="node20" class="node">
<title>Node21</title>
<g id="a_node20"><a xlink:title=" ">
<polygon fill="white" stroke="#bfbfbf" points="703.5,-342.12 703.5,-359.12 774.5,-359.12 774.5,-342.12 703.5,-342.12"/>
<text text-anchor="middle" x="739" y="-348.72" font-family="Helvetica,sans-Serif" font-size="8.00">Task_asio_err</text>
</a>
</g>
</g>
<!-- Node21&#45;&gt;Node1 -->
<g id="edge36" class="edge">
<title>Node21&#45;&gt;Node1</title>
<path fill="none" stroke="#9a32cd" stroke-dasharray="5,2" d="M784.63,-349.67C876.21,-346.2 1090.27,-330.16 1251,-256.62 1273.14,-246.49 1295.12,-230.28 1311.81,-216.34"/>
<polygon fill="#9a32cd" stroke="#9a32cd" points="784.47,-346.17 774.6,-350.02 784.71,-353.17 784.47,-346.17"/>
<text text-anchor="start" x="1001.5" y="-342.22" font-family="Helvetica,sans-Serif" font-size="8.00"> m_conn_on_done_func</text>
<text text-anchor="middle" x="1049" y="-333.22" font-family="Helvetica,sans-Serif" font-size="8.00">_or_empty</text>
</g>
<!-- Node21&#45;&gt;Node2 -->
<g id="edge23" class="edge">
<title>Node21&#45;&gt;Node2</title>
<path fill="none" stroke="#9a32cd" stroke-dasharray="5,2" d="M785.12,-350.02C840.27,-350.06 929.78,-352.84 958,-369.62 1001.68,-395.6 1028.35,-452.01 1040.39,-483.41"/>
<polygon fill="#9a32cd" stroke="#9a32cd" points="784.9,-346.52 774.9,-350.05 784.91,-353.52 784.9,-346.52"/>
<text text-anchor="middle" x="897.5" y="-372.22" font-family="Helvetica,sans-Serif" font-size="8.00"> m_on_err_func</text>
</g>
<!-- Node22 -->
<g id="node21" class="node">
<title>Node22</title>
<g id="a_node21"><a xlink:title=" ">
<polygon fill="white" stroke="#bfbfbf" points="659,-488.12 659,-523.12 819,-523.12 819,-488.12 659,-488.12"/>
<text text-anchor="start" x="667" y="-512.72" font-family="Helvetica,sans-Serif" font-size="8.00">Function&lt; void(Channel</text>
<text text-anchor="start" x="667" y="-503.72" font-family="Helvetica,sans-Serif" font-size="8.00">_obj &amp;&amp;new_channel, Mdt</text>
<text text-anchor="middle" x="739" y="-494.72" font-family="Helvetica,sans-Serif" font-size="8.00">_reader_ptr &amp;&amp;new_channel_mdt)&gt;</text>
</a>
</g>
</g>
<!-- Node22&#45;&gt;Node2 -->
<g id="edge24" class="edge">
<title>Node22&#45;&gt;Node2</title>
<path fill="none" stroke="#9a32cd" stroke-dasharray="5,2" d="M829.4,-505.62C875.93,-505.62 932.07,-505.62 975.8,-505.62"/>
<polygon fill="#9a32cd" stroke="#9a32cd" points="829.32,-502.12 819.32,-505.62 829.32,-509.12 829.32,-502.12"/>
<text text-anchor="start" x="837" y="-517.22" font-family="Helvetica,sans-Serif" font-size="8.00"> m_on_passive_open_channel</text>
<text text-anchor="middle" x="897.5" y="-508.22" font-family="Helvetica,sans-Serif" font-size="8.00">_func_or_empty</text>
</g>
<!-- Node23 -->
<g id="node22" class="node">
<title>Node23</title>
<g id="a_node22"><a xlink:title=" ">
<polygon fill="white" stroke="#bfbfbf" points="709,-452.12 709,-469.12 769,-469.12 769,-452.12 709,-452.12"/>
<text text-anchor="middle" x="739" y="-458.72" font-family="Helvetica,sans-Serif" font-size="8.00">Error_code</text>
</a>
</g>
</g>
<!-- Node23&#45;&gt;Node2 -->
<g id="edge25" class="edge">
<title>Node23&#45;&gt;Node2</title>
<path fill="none" stroke="#9a32cd" stroke-dasharray="5,2" d="M779.31,-463.17C823.14,-466.38 896,-472.82 958,-483.62 963.86,-484.64 969.91,-485.83 975.97,-487.11"/>
<polygon fill="#9a32cd" stroke="#9a32cd" points="779.31,-459.66 769.09,-462.44 778.81,-466.64 779.31,-459.66"/>
<text text-anchor="start" x="849" y="-495.22" font-family="Helvetica,sans-Serif" font-size="8.00"> m_peer_state_err_code</text>
<text text-anchor="middle" x="897.5" y="-486.22" font-family="Helvetica,sans-Serif" font-size="8.00">_or_ok</text>
</g>
<!-- Node24 -->
<g id="node23" class="node">
<title>Node24</title>
<g id="a_node23"><a xlink:title=" ">
<polygon fill="white" stroke="#bfbfbf" points="685.5,-137.12 685.5,-154.12 792.5,-154.12 792.5,-137.12 685.5,-137.12"/>
<text text-anchor="middle" x="739" y="-143.72" font-family="Helvetica,sans-Serif" font-size="8.00">flow::log::Log_context</text>
</a>
</g>
</g>
<!-- Node24&#45;&gt;Node1 -->
<g id="edge26" class="edge">
<title>Node24&#45;&gt;Node1</title>
<path fill="none" stroke="midnightblue" d="M803.02,-146.21C846.56,-146.69 905.8,-147.47 958,-148.62 1088.56,-151.51 1122.28,-148.59 1251,-170.62 1256.82,-171.62 1262.84,-172.72 1268.88,-173.89"/>
<polygon fill="midnightblue" stroke="midnightblue" points="802.9,-142.71 792.87,-146.1 802.83,-149.71 802.9,-142.71"/>
</g>
<!-- Node24&#45;&gt;Node27 -->
<g id="edge31" class="edge">
<title>Node24&#45;&gt;Node27</title>
<path fill="none" stroke="midnightblue" d="M802.82,-148.9C858.54,-153 934.61,-161.91 958,-180.62 974.82,-194.08 960.24,-210.94 976,-225.62 980.99,-230.27 986.93,-233.98 993.22,-236.94"/>
<polygon fill="midnightblue" stroke="midnightblue" points="802.9,-145.4 792.68,-148.19 802.41,-152.38 802.9,-145.4"/>
</g>
<!-- Node25 -->
<g id="node24" class="node">
<title>Node25</title>
<g id="a_node24"><a xlink:title=" ">
<polygon fill="white" stroke="#bfbfbf" points="1022.5,-199.12 1022.5,-216.12 1075.5,-216.12 1075.5,-199.12 1022.5,-199.12"/>
<text text-anchor="middle" x="1049" y="-205.72" font-family="Helvetica,sans-Serif" font-size="8.00">ShmType</text>
</a>
</g>
</g>
<!-- Node25&#45;&gt;Node1 -->
<g id="edge27" class="edge">
<title>Node25&#45;&gt;Node1</title>
<path fill="none" stroke="#9a32cd" stroke-dasharray="5,2" d="M1085.81,-205.41C1131.22,-202.6 1210.61,-197.69 1268.82,-194.09"/>
<polygon fill="#9a32cd" stroke="#9a32cd" points="1085.33,-201.93 1075.57,-206.04 1085.77,-208.92 1085.33,-201.93"/>
<text text-anchor="middle" x="1195.5" y="-204.22" font-family="Helvetica,sans-Serif" font-size="8.00"> S_SHM_TYPE</text>
</g>
<!-- Node26 -->
<g id="node25" class="node">
<title>Node26</title>
<g id="a_node25"><a xlink:title=" ">
<polygon fill="white" stroke="#bfbfbf" points="1030,-163.12 1030,-180.12 1068,-180.12 1068,-163.12 1030,-163.12"/>
<text text-anchor="middle" x="1049" y="-169.72" font-family="Helvetica,sans-Serif" font-size="8.00">State</text>
</a>
</g>
</g>
<!-- Node26&#45;&gt;Node1 -->
<g id="edge29" class="edge">
<title>Node26&#45;&gt;Node1</title>
<path fill="none" stroke="#9a32cd" stroke-dasharray="5,2" d="M1078.07,-172.67C1116.94,-174.21 1189.35,-177.35 1251,-181.62 1256.79,-182.02 1262.79,-182.48 1268.81,-182.96"/>
<polygon fill="#9a32cd" stroke="#9a32cd" points="1078.16,-169.17 1068.03,-172.28 1077.89,-176.17 1078.16,-169.17"/>
<text text-anchor="middle" x="1195.5" y="-184.22" font-family="Helvetica,sans-Serif" font-size="8.00"> m_state</text>
</g>
<!-- Node27&#45;&gt;Node1 -->
<g id="edge30" class="edge">
<title>Node27&#45;&gt;Node1</title>
<path fill="none" stroke="#9a32cd" stroke-dasharray="5,2" d="M1114.94,-239.38C1154.47,-233.32 1205.88,-224.68 1251,-214.62 1256.86,-213.32 1262.9,-211.87 1268.95,-210.34"/>
<polygon fill="#9a32cd" stroke="#9a32cd" points="1114.26,-235.94 1104.9,-240.9 1115.31,-242.86 1114.26,-235.94"/>
<text text-anchor="middle" x="1195.5" y="-246.22" font-family="Helvetica,sans-Serif" font-size="8.00"> m_protocol_negotiator</text>
<text text-anchor="middle" x="1195.5" y="-237.22" font-family="Helvetica,sans-Serif" font-size="8.00">m_protocol_negotiator_aux</text>
</g>
<!-- Node28 -->
<g id="node27" class="node">
<title>Node28</title>
<g id="a_node27"><a xlink:title=" ">
<polygon fill="white" stroke="#bfbfbf" points="686.5,-222.62 686.5,-248.62 791.5,-248.62 791.5,-222.62 686.5,-222.62"/>
<text text-anchor="start" x="694.5" y="-238.22" font-family="Helvetica,sans-Serif" font-size="8.00">static constexpr proto</text>
<text text-anchor="middle" x="739" y="-229.22" font-family="Helvetica,sans-Serif" font-size="8.00">_ver_t</text>
</a>
</g>
</g>
<!-- Node28&#45;&gt;Node27 -->
<g id="edge32" class="edge">
<title>Node28&#45;&gt;Node27</title>
<path fill="none" stroke="#9a32cd" stroke-dasharray="5,2" d="M801.72,-237.58C845.38,-239.04 905.29,-241.19 958,-243.62 969.41,-244.15 981.63,-244.78 993.28,-245.42"/>
<polygon fill="#9a32cd" stroke="#9a32cd" points="801.66,-234.07 791.55,-237.24 801.42,-241.07 801.66,-234.07"/>
<text text-anchor="middle" x="897.5" y="-255.22" font-family="Helvetica,sans-Serif" font-size="8.00"> S_VER_UNKNOWN</text>
<text text-anchor="middle" x="897.5" y="-246.22" font-family="Helvetica,sans-Serif" font-size="8.00">S_VER_UNSUPPORTED</text>
</g>
<!-- Node29 -->
<g id="node28" class="node">
<title>Node29</title>
<g id="a_node28"><a xlink:title=" ">
<polygon fill="white" stroke="#bfbfbf" points="717,-184.12 717,-201.12 761,-201.12 761,-184.12 717,-184.12"/>
<text text-anchor="middle" x="739" y="-190.72" font-family="Helvetica,sans-Serif" font-size="8.00">int16_t</text>
</a>
</g>
</g>
<!-- Node29&#45;&gt;Node27 -->
<g id="edge34" class="edge">
<title>Node29&#45;&gt;Node27</title>
<path fill="none" stroke="#9a32cd" stroke-dasharray="5,2" d="M771.04,-188.19C814.88,-183.34 896.43,-179.61 958,-207.62 968.3,-212.31 966.34,-219.73 976,-225.62 982.39,-229.51 989.5,-232.81 996.7,-235.59"/>
<polygon fill="#9a32cd" stroke="#9a32cd" points="770.51,-184.72 761,-189.39 771.35,-191.67 770.51,-184.72"/>
<text text-anchor="middle" x="897.5" y="-228.22" font-family="Helvetica,sans-Serif" font-size="8.00"> m_local_max_proto_ver</text>
<text text-anchor="middle" x="897.5" y="-219.22" font-family="Helvetica,sans-Serif" font-size="8.00">m_local_min_proto_ver</text>
<text text-anchor="middle" x="897.5" y="-210.22" font-family="Helvetica,sans-Serif" font-size="8.00">m_negotiated_proto_ver</text>
</g>
<!-- Node30 -->
<g id="node29" class="node">
<title>Node30</title>
<g id="a_node29"><a xlink:title=" ">
<polygon fill="white" stroke="#bfbfbf" points="721.5,-268.12 721.5,-285.12 756.5,-285.12 756.5,-268.12 721.5,-268.12"/>
<text text-anchor="middle" x="739" y="-274.72" font-family="Helvetica,sans-Serif" font-size="8.00">bool</text>
</a>
</g>
</g>
<!-- Node30&#45;&gt;Node27 -->
<g id="edge35" class="edge">
<title>Node30&#45;&gt;Node27</title>
<path fill="none" stroke="#9a32cd" stroke-dasharray="5,2" d="M766.76,-275.43C807.93,-273.44 889.26,-268.94 958,-261.62 969.46,-260.4 981.7,-258.82 993.35,-257.18"/>
<polygon fill="#9a32cd" stroke="#9a32cd" points="766.54,-271.93 756.72,-275.9 766.87,-278.92 766.54,-271.93"/>
<text text-anchor="middle" x="897.5" y="-273.22" font-family="Helvetica,sans-Serif" font-size="8.00"> m_local_max_proto_ver_sent</text>
</g>
<!-- Node31 -->
<g id="node30" class="node">
<title>Node31</title>
<g id="a_node30"><a xlink:title=" ">
<polygon fill="white" stroke="#bfbfbf" points="1015,-79.12 1015,-96.12 1083,-96.12 1083,-79.12 1015,-79.12"/>
<text text-anchor="middle" x="1049" y="-85.72" font-family="Helvetica,sans-Serif" font-size="8.00">unsigned int</text>
</a>
</g>
</g>
<!-- Node31&#45;&gt;Node1 -->
<g id="edge37" class="edge">
<title>Node31&#45;&gt;Node1</title>
<path fill="none" stroke="#9a32cd" stroke-dasharray="5,2" d="M1093.03,-77.4C1135.26,-69.61 1200.51,-63.69 1251,-86.62 1285.16,-102.14 1311.44,-137.74 1326.55,-162.72"/>
<polygon fill="#9a32cd" stroke="#9a32cd" points="1092.21,-74 1083.07,-79.35 1093.56,-80.87 1092.21,-74"/>
<text text-anchor="start" x="1143.5" y="-116.22" font-family="Helvetica,sans-Serif" font-size="8.00"> m_last_actively_opened</text>
<text text-anchor="middle" x="1195.5" y="-107.22" font-family="Helvetica,sans-Serif" font-size="8.00">_channel_id</text>
<text text-anchor="start" x="1143.5" y="-98.22" font-family="Helvetica,sans-Serif" font-size="8.00">m_last_passively_opened</text>
<text text-anchor="middle" x="1195.5" y="-89.22" font-family="Helvetica,sans-Serif" font-size="8.00">_channel_id</text>
</g>
<!-- Node32 -->
<g id="node31" class="node">
<title>Node32</title>
<g id="a_node31"><a xlink:title=" ">
<polygon fill="white" stroke="#bfbfbf" points="991,-43.12 991,-60.12 1107,-60.12 1107,-43.12 991,-43.12"/>
<text text-anchor="middle" x="1049" y="-49.72" font-family="Helvetica,sans-Serif" font-size="8.00">Single_thread_task_loop</text>
</a>
</g>
</g>
<!-- Node32&#45;&gt;Node1 -->
<g id="edge38" class="edge">
<title>Node32&#45;&gt;Node1</title>
<path fill="none" stroke="#9a32cd" stroke-dasharray="5,2" d="M1096.18,-41.35C1139.04,-34.35 1203.22,-30.5 1251,-56.62 1292.83,-79.49 1318.93,-131.15 1331.66,-162.94"/>
<polygon fill="#9a32cd" stroke="#9a32cd" points="1095.55,-37.91 1086.31,-43.09 1096.76,-44.81 1095.55,-37.91"/>
<text text-anchor="middle" x="1195.5" y="-59.22" font-family="Helvetica,sans-Serif" font-size="8.00"> m_async_worker</text>
</g>
<!-- Node33 -->
<g id="node32" class="node">
<title>Node33</title>
<g id="a_node32"><a xlink:title=" ">
<polygon fill="white" stroke="#bfbfbf" points="978,-7.12 978,-24.12 1120,-24.12 1120,-7.12 978,-7.12"/>
<text text-anchor="middle" x="1049" y="-13.72" font-family="Helvetica,sans-Serif" font-size="8.00">Master_structured_channel_ptr</text>
</a>
</g>
</g>
<!-- Node33&#45;&gt;Node1 -->
<g id="edge39" class="edge">
<title>Node33&#45;&gt;Node1</title>
<path fill="none" stroke="#9a32cd" stroke-dasharray="5,2" d="M1095.73,-5.34C1139.08,1.78 1204.34,5.43 1251,-23.62 1301.23,-54.9 1325.37,-124.59 1335.24,-162.98"/>
<polygon fill="#9a32cd" stroke="#9a32cd" points="1094.99,-1.91 1085.75,-7.1 1096.2,-8.81 1094.99,-1.91"/>
<text text-anchor="middle" x="1195.5" y="-26.22" font-family="Helvetica,sans-Serif" font-size="8.00"> m_master_channel</text>
</g>
</g>
</svg>
