<?xml version="1.0" encoding="UTF-8" standalone="no"?>
<!DOCTYPE svg PUBLIC "-//W3C//DTD SVG 1.1//EN"
 "http://www.w3.org/Graphics/SVG/1.1/DTD/svg11.dtd">
<!-- Generated by graphviz version 2.43.0 (0)
 -->
<!-- Title: ipc::transport::Native_socket_stream::impl Pages: 1 -->
<svg width="606pt" height="753pt"
 viewBox="0.00 0.00 606.00 753.00" xmlns="http://www.w3.org/2000/svg" xmlns:xlink="http://www.w3.org/1999/xlink">
<g id="graph0" class="graph" transform="scale(1 1) rotate(0) translate(4 749)">
<title>ipc::transport::Native_socket_stream::impl</title>
<polygon fill="white" stroke="transparent" points="-4,4 -4,-749 602,-749 602,4 -4,4"/>
<!-- Node1 -->
<g id="node1" class="node">
<title>Node1</title>
<g id="a_node1"><a xlink:title="Helper that simply returns m_impl while guaranteeing that m_impl is non&#45;null upon return.">
<polygon fill="#bfbfbf" stroke="black" points="494,-371 494,-397 598,-397 598,-371 494,-371"/>
<text text-anchor="start" x="502" y="-386.6" font-family="Helvetica,sans-Serif" font-size="8.00">ipc::transport::Native</text>
<text text-anchor="middle" x="546" y="-377.6" font-family="Helvetica,sans-Serif" font-size="8.00">_socket_stream::impl</text>
</a>
</g>
</g>
<!-- Node2 -->
<g id="node2" class="node">
<title>Node2</title>
<g id="a_node2"><a xlink:href="classipc_1_1transport_1_1Native__socket__stream.html#a949ab3296e29230518095d1f00f57a93" target="_top" xlink:title="Template&#45;free version of async_end_sending() as required by pImpl idiom.">
<polygon fill="white" stroke="black" points="331.5,-709.5 331.5,-744.5 441.5,-744.5 441.5,-709.5 331.5,-709.5"/>
<text text-anchor="start" x="339.5" y="-734.1" font-family="Helvetica,sans-Serif" font-size="8.00">ipc::transport::Native</text>
<text text-anchor="start" x="339.5" y="-725.1" font-family="Helvetica,sans-Serif" font-size="8.00">_socket_stream::async</text>
<text text-anchor="middle" x="386.5" y="-716.1" font-family="Helvetica,sans-Serif" font-size="8.00">_end_sending_fwd</text>
</a>
</g>
</g>
<!-- Node1&#45;&gt;Node2 -->
<g id="edge1" class="edge">
<title>Node1&#45;&gt;Node2</title>
<path fill="none" stroke="midnightblue" d="M545.34,-407.26C544.93,-464.55 535.97,-614.07 458,-700 453.42,-705.05 447.79,-709.16 441.73,-712.5"/>
<polygon fill="midnightblue" stroke="midnightblue" points="548.84,-407.07 545.33,-397.07 541.84,-407.08 548.84,-407.07"/>
</g>
<!-- Node5 -->
<g id="node5" class="node">
<title>Node5</title>
<g id="a_node5"><a xlink:href="classipc_1_1transport_1_1Native__socket__stream.html#a5a134afa6a1f07f956e13fc0835873ee" target="_top" xlink:title="Template&#45;free version of async_receive_blob() as required by pImpl idiom.">
<polygon fill="white" stroke="black" points="331.5,-655.5 331.5,-690.5 441.5,-690.5 441.5,-655.5 331.5,-655.5"/>
<text text-anchor="start" x="339.5" y="-680.1" font-family="Helvetica,sans-Serif" font-size="8.00">ipc::transport::Native</text>
<text text-anchor="start" x="339.5" y="-671.1" font-family="Helvetica,sans-Serif" font-size="8.00">_socket_stream::async</text>
<text text-anchor="middle" x="386.5" y="-662.1" font-family="Helvetica,sans-Serif" font-size="8.00">_receive_blob_fwd</text>
</a>
</g>
</g>
<!-- Node1&#45;&gt;Node5 -->
<g id="edge4" class="edge">
<title>Node1&#45;&gt;Node5</title>
<path fill="none" stroke="midnightblue" d="M543.75,-407.32C539.84,-457.6 523.73,-577.23 458,-646 453.38,-650.83 447.8,-654.81 441.84,-658.08"/>
<polygon fill="midnightblue" stroke="midnightblue" points="547.26,-407.37 544.45,-397.15 540.27,-406.89 547.26,-407.37"/>
</g>
<!-- Node7 -->
<g id="node7" class="node">
<title>Node7</title>
<g id="a_node7"><a xlink:href="classipc_1_1transport_1_1Native__socket__stream.html#ab6df246711fd2ca98c10ed1235e0aa1c" target="_top" xlink:title="Template&#45;free version of async_receive_native_handle() as required by pImpl idiom.">
<polygon fill="white" stroke="black" points="321,-601.5 321,-636.5 452,-636.5 452,-601.5 321,-601.5"/>
<text text-anchor="start" x="329" y="-626.1" font-family="Helvetica,sans-Serif" font-size="8.00">ipc::transport::Native</text>
<text text-anchor="start" x="329" y="-617.1" font-family="Helvetica,sans-Serif" font-size="8.00">_socket_stream::async</text>
<text text-anchor="middle" x="386.5" y="-608.1" font-family="Helvetica,sans-Serif" font-size="8.00">_receive_native_handle_fwd</text>
</a>
</g>
</g>
<!-- Node1&#45;&gt;Node7 -->
<g id="edge6" class="edge">
<title>Node1&#45;&gt;Node7</title>
<path fill="none" stroke="midnightblue" d="M541.44,-407.12C533.76,-449.46 511.76,-539.85 458,-592 454.33,-595.56 450.14,-598.66 445.68,-601.36"/>
<polygon fill="midnightblue" stroke="midnightblue" points="544.9,-407.66 543.13,-397.22 538,-406.48 544.9,-407.66"/>
</g>
<!-- Node9 -->
<g id="node9" class="node">
<title>Node9</title>
<g id="a_node9"><a xlink:href="classipc_1_1transport_1_1Native__socket__stream.html#aa5e699d5eead4220bf8b5604f629a970" target="_top" xlink:title="Implements Native_handle_sender, Blob_sender API per contract.">
<polygon fill="white" stroke="black" points="323.5,-556 323.5,-582 449.5,-582 449.5,-556 323.5,-556"/>
<text text-anchor="start" x="331.5" y="-571.6" font-family="Helvetica,sans-Serif" font-size="8.00">ipc::transport::Native</text>
<text text-anchor="middle" x="386.5" y="-562.6" font-family="Helvetica,sans-Serif" font-size="8.00">_socket_stream::auto_ping</text>
</a>
</g>
</g>
<!-- Node1&#45;&gt;Node9 -->
<g id="edge8" class="edge">
<title>Node1&#45;&gt;Node9</title>
<path fill="none" stroke="midnightblue" d="M538.85,-407.04C528.26,-442.31 503.23,-509.55 458,-547 453.75,-550.52 448.94,-553.47 443.88,-555.96"/>
<polygon fill="midnightblue" stroke="midnightblue" points="542.29,-407.76 541.68,-397.18 535.56,-405.83 542.29,-407.76"/>
</g>
<!-- Node10 -->
<g id="node10" class="node">
<title>Node10</title>
<g id="a_node10"><a xlink:href="classipc_1_1transport_1_1Native__socket__stream.html#ace134e4a6e4918212f256b60c3ed77e4" target="_top" xlink:title="Implements Native_handle_sender, Blob_sender API per contract.">
<polygon fill="white" stroke="black" points="317.5,-511 317.5,-537 455.5,-537 455.5,-511 317.5,-511"/>
<text text-anchor="start" x="325.5" y="-526.6" font-family="Helvetica,sans-Serif" font-size="8.00">ipc::transport::Native</text>
<text text-anchor="middle" x="386.5" y="-517.6" font-family="Helvetica,sans-Serif" font-size="8.00">_socket_stream::end_sending</text>
</a>
</g>
</g>
<!-- Node1&#45;&gt;Node10 -->
<g id="edge9" class="edge">
<title>Node1&#45;&gt;Node10</title>
<path fill="none" stroke="midnightblue" d="M534.32,-406.04C520.36,-432.58 493.45,-476.75 458,-502 453.09,-505.5 447.61,-508.45 441.93,-510.94"/>
<polygon fill="midnightblue" stroke="midnightblue" points="537.44,-407.62 538.87,-397.12 531.21,-404.44 537.44,-407.62"/>
</g>
<!-- Node11 -->
<g id="node11" class="node">
<title>Node11</title>
<g id="a_node11"><a xlink:href="classipc_1_1transport_1_1Native__socket__stream.html#a1b4ce3ddee39f21e752ec9114ac17bbd" target="_top" xlink:title="Implements Native_handle_receiver, Blob_receiver API per contract.">
<polygon fill="white" stroke="black" points="315,-466 315,-492 458,-492 458,-466 315,-466"/>
<text text-anchor="start" x="323" y="-481.6" font-family="Helvetica,sans-Serif" font-size="8.00">ipc::transport::Native</text>
<text text-anchor="middle" x="386.5" y="-472.6" font-family="Helvetica,sans-Serif" font-size="8.00">_socket_stream::idle_timer_run</text>
</a>
</g>
</g>
<!-- Node1&#45;&gt;Node11 -->
<g id="edge10" class="edge">
<title>Node1&#45;&gt;Node11</title>
<path fill="none" stroke="midnightblue" d="M525.22,-404.6C508.62,-420.85 483.57,-443.02 458,-457 451.81,-460.38 445.03,-463.33 438.19,-465.87"/>
<polygon fill="midnightblue" stroke="midnightblue" points="528.06,-406.71 532.66,-397.17 523.11,-401.76 528.06,-406.71"/>
</g>
<!-- Node12 -->
<g id="node12" class="node">
<title>Node12</title>
<g id="a_node12"><a xlink:href="classipc_1_1transport_1_1Native__socket__stream.html#a25d9c0e12a03a3b68f7f266c23466f71" target="_top" xlink:title="Returns nickname, a brief string suitable for logging.">
<polygon fill="white" stroke="black" points="324,-421 324,-447 449,-447 449,-421 324,-421"/>
<text text-anchor="start" x="332" y="-436.6" font-family="Helvetica,sans-Serif" font-size="8.00">ipc::transport::Native</text>
<text text-anchor="middle" x="386.5" y="-427.6" font-family="Helvetica,sans-Serif" font-size="8.00">_socket_stream::nickname</text>
</a>
</g>
</g>
<!-- Node1&#45;&gt;Node12 -->
<g id="edge11" class="edge">
<title>Node1&#45;&gt;Node12</title>
<path fill="none" stroke="midnightblue" d="M494.49,-400.03C473.19,-406.8 448.7,-414.57 428.54,-420.97"/>
<polygon fill="midnightblue" stroke="midnightblue" points="495.56,-403.37 504.03,-397.01 493.44,-396.7 495.56,-403.37"/>
</g>
<!-- Node14 -->
<g id="node14" class="node">
<title>Node14</title>
<g id="a_node14"><a xlink:href="classipc_1_1transport_1_1Native__socket__stream.html#adb667160fd0ab3951d93d219d7bdc3be" target="_top" xlink:title="Implements Blob_receiver API per contract.">
<polygon fill="white" stroke="black" points="328.5,-366.5 328.5,-401.5 444.5,-401.5 444.5,-366.5 328.5,-366.5"/>
<text text-anchor="start" x="336.5" y="-391.1" font-family="Helvetica,sans-Serif" font-size="8.00">ipc::transport::Native</text>
<text text-anchor="start" x="336.5" y="-382.1" font-family="Helvetica,sans-Serif" font-size="8.00">_socket_stream::receive</text>
<text text-anchor="middle" x="386.5" y="-373.1" font-family="Helvetica,sans-Serif" font-size="8.00">_blob_max_size</text>
</a>
</g>
</g>
<!-- Node1&#45;&gt;Node14 -->
<g id="edge13" class="edge">
<title>Node1&#45;&gt;Node14</title>
<path fill="none" stroke="midnightblue" d="M483.72,-384C470.86,-384 457.35,-384 444.65,-384"/>
<polygon fill="midnightblue" stroke="midnightblue" points="483.86,-387.5 493.86,-384 483.86,-380.5 483.86,-387.5"/>
</g>
<!-- Node16 -->
<g id="node16" class="node">
<title>Node16</title>
<g id="a_node16"><a xlink:href="classipc_1_1transport_1_1Native__socket__stream.html#ac7659af6812efca67c410af286f0cb34" target="_top" xlink:title="Implements Native_handle_receiver API per contract.">
<polygon fill="white" stroke="black" points="328.5,-312.5 328.5,-347.5 444.5,-347.5 444.5,-312.5 328.5,-312.5"/>
<text text-anchor="start" x="336.5" y="-337.1" font-family="Helvetica,sans-Serif" font-size="8.00">ipc::transport::Native</text>
<text text-anchor="start" x="336.5" y="-328.1" font-family="Helvetica,sans-Serif" font-size="8.00">_socket_stream::receive</text>
<text text-anchor="middle" x="386.5" y="-319.1" font-family="Helvetica,sans-Serif" font-size="8.00">_meta_blob_max_size</text>
</a>
</g>
</g>
<!-- Node1&#45;&gt;Node16 -->
<g id="edge15" class="edge">
<title>Node1&#45;&gt;Node16</title>
<path fill="none" stroke="midnightblue" d="M497.19,-367.61C478.69,-361.26 457.48,-353.99 438.67,-347.54"/>
<polygon fill="midnightblue" stroke="midnightblue" points="496.28,-371 506.87,-370.93 498.55,-364.37 496.28,-371"/>
</g>
<!-- Node17 -->
<g id="node17" class="node">
<title>Node17</title>
<g id="a_node17"><a xlink:href="classipc_1_1transport_1_1Native__socket__stream.html#af63671c0e30d39d3460331c4dd3742b2" target="_top" xlink:title="OS&#45;reported process credential (PID, etc.) info about the other connected peer&#39;s process,...">
<polygon fill="white" stroke="black" points="324,-258.5 324,-293.5 449,-293.5 449,-258.5 324,-258.5"/>
<text text-anchor="start" x="332" y="-283.1" font-family="Helvetica,sans-Serif" font-size="8.00">ipc::transport::Native</text>
<text text-anchor="start" x="332" y="-274.1" font-family="Helvetica,sans-Serif" font-size="8.00">_socket_stream::remote</text>
<text text-anchor="middle" x="386.5" y="-265.1" font-family="Helvetica,sans-Serif" font-size="8.00">_peer_process_credentials</text>
</a>
</g>
</g>
<!-- Node1&#45;&gt;Node17 -->
<g id="edge16" class="edge">
<title>Node1&#45;&gt;Node17</title>
<path fill="none" stroke="midnightblue" d="M526.97,-363.2C510.51,-345.25 484.72,-319.67 458,-303 452.44,-299.53 446.36,-296.39 440.18,-293.57"/>
<polygon fill="midnightblue" stroke="midnightblue" points="524.56,-365.75 533.85,-370.85 529.76,-361.07 524.56,-365.75"/>
</g>
<!-- Node18 -->
<g id="node18" class="node">
<title>Node18</title>
<g id="a_node18"><a xlink:href="classipc_1_1transport_1_1Native__socket__stream.html#a415febd76ee222c81d59d2bcfa9c01bc" target="_top" xlink:title="Implements Blob_sender API per contract.">
<polygon fill="white" stroke="black" points="322.5,-213 322.5,-239 450.5,-239 450.5,-213 322.5,-213"/>
<text text-anchor="start" x="330.5" y="-228.6" font-family="Helvetica,sans-Serif" font-size="8.00">ipc::transport::Native</text>
<text text-anchor="middle" x="386.5" y="-219.6" font-family="Helvetica,sans-Serif" font-size="8.00">_socket_stream::send_blob</text>
</a>
</g>
</g>
<!-- Node1&#45;&gt;Node18 -->
<g id="edge17" class="edge">
<title>Node1&#45;&gt;Node18</title>
<path fill="none" stroke="midnightblue" d="M536.06,-361.12C523.21,-331.14 496.71,-278.85 458,-249 452.9,-245.07 447.11,-241.8 441.08,-239.07"/>
<polygon fill="midnightblue" stroke="midnightblue" points="532.98,-362.83 540.04,-370.73 539.44,-360.15 532.98,-362.83"/>
</g>
<!-- Node19 -->
<g id="node19" class="node">
<title>Node19</title>
<g id="a_node19"><a xlink:href="classipc_1_1transport_1_1Native__socket__stream.html#a127a462a4aaf6e5cf1e42bdd33f51693" target="_top" xlink:title="Implements Blob_sender API per contract.">
<polygon fill="white" stroke="black" points="322.5,-158.5 322.5,-193.5 450.5,-193.5 450.5,-158.5 322.5,-158.5"/>
<text text-anchor="start" x="330.5" y="-183.1" font-family="Helvetica,sans-Serif" font-size="8.00">ipc::transport::Native</text>
<text text-anchor="start" x="330.5" y="-174.1" font-family="Helvetica,sans-Serif" font-size="8.00">_socket_stream::send_blob</text>
<text text-anchor="middle" x="386.5" y="-165.1" font-family="Helvetica,sans-Serif" font-size="8.00">_max_size</text>
</a>
</g>
</g>
<!-- Node1&#45;&gt;Node19 -->
<g id="edge18" class="edge">
<title>Node1&#45;&gt;Node19</title>
<path fill="none" stroke="midnightblue" d="M539.59,-360.65C529.69,-322.8 505.18,-247.9 458,-204 453.76,-200.05 448.89,-196.64 443.74,-193.68"/>
<polygon fill="midnightblue" stroke="midnightblue" points="536.29,-361.85 542.11,-370.71 543.08,-360.16 536.29,-361.85"/>
</g>
<!-- Node21 -->
<g id="node21" class="node">
<title>Node21</title>
<g id="a_node21"><a xlink:href="classipc_1_1transport_1_1Native__socket__stream.html#a844b8245c9341da8006f979c6b005893" target="_top" xlink:title="Implements Native_handle_sender API per contract.">
<polygon fill="white" stroke="black" points="321,-104.5 321,-139.5 452,-139.5 452,-104.5 321,-104.5"/>
<text text-anchor="start" x="329" y="-129.1" font-family="Helvetica,sans-Serif" font-size="8.00">ipc::transport::Native</text>
<text text-anchor="start" x="329" y="-120.1" font-family="Helvetica,sans-Serif" font-size="8.00">_socket_stream::send_meta</text>
<text text-anchor="middle" x="386.5" y="-111.1" font-family="Helvetica,sans-Serif" font-size="8.00">_blob_max_size</text>
</a>
</g>
</g>
<!-- Node1&#45;&gt;Node21 -->
<g id="edge20" class="edge">
<title>Node1&#45;&gt;Node21</title>
<path fill="none" stroke="midnightblue" d="M542.73,-360.85C536.97,-314.46 517.75,-209.43 458,-149 454.5,-145.46 450.48,-142.37 446.18,-139.69"/>
<polygon fill="midnightblue" stroke="midnightblue" points="539.25,-361.28 543.86,-370.82 546.21,-360.49 539.25,-361.28"/>
</g>
<!-- Node22 -->
<g id="node22" class="node">
<title>Node22</title>
<g id="a_node22"><a xlink:href="classipc_1_1transport_1_1Native__socket__stream.html#a555df6a81654160285ea35b545cfd23d" target="_top" xlink:title="Implements Native_handle_sender API per contract.">
<polygon fill="white" stroke="black" points="319,-50.5 319,-85.5 454,-85.5 454,-50.5 319,-50.5"/>
<text text-anchor="start" x="327" y="-75.1" font-family="Helvetica,sans-Serif" font-size="8.00">ipc::transport::Native</text>
<text text-anchor="start" x="327" y="-66.1" font-family="Helvetica,sans-Serif" font-size="8.00">_socket_stream::send_native</text>
<text text-anchor="middle" x="386.5" y="-57.1" font-family="Helvetica,sans-Serif" font-size="8.00">_handle</text>
</a>
</g>
</g>
<!-- Node1&#45;&gt;Node22 -->
<g id="edge21" class="edge">
<title>Node1&#45;&gt;Node22</title>
<path fill="none" stroke="midnightblue" d="M544.61,-360.55C542.46,-306.56 529.76,-172.23 458,-95 454.7,-91.45 450.88,-88.36 446.76,-85.67"/>
<polygon fill="midnightblue" stroke="midnightblue" points="541.12,-360.91 544.93,-370.8 548.12,-360.7 541.12,-360.91"/>
</g>
<!-- Node23 -->
<g id="node23" class="node">
<title>Node23</title>
<g id="a_node23"><a xlink:href="classipc_1_1transport_1_1Native__socket__stream.html#a89d591db714e83dcb55a52738fed1ebb" target="_top" xlink:title="To be invoked in NULL state only, it synchronously and non&#45;blockingly attempts to connect to an oppos...">
<polygon fill="white" stroke="black" points="316,-5 316,-31 457,-31 457,-5 316,-5"/>
<text text-anchor="start" x="324" y="-20.6" font-family="Helvetica,sans-Serif" font-size="8.00">ipc::transport::Native</text>
<text text-anchor="middle" x="386.5" y="-11.6" font-family="Helvetica,sans-Serif" font-size="8.00">_socket_stream::sync_connect</text>
</a>
</g>
</g>
<!-- Node1&#45;&gt;Node23 -->
<g id="edge22" class="edge">
<title>Node1&#45;&gt;Node23</title>
<path fill="none" stroke="midnightblue" d="M542.02,-360.56C532.74,-291.12 502.32,-88.39 458,-41 454.31,-37.05 449.93,-33.78 445.19,-31.07"/>
<polygon fill="midnightblue" stroke="midnightblue" points="538.6,-361.4 543.37,-370.86 545.54,-360.49 538.6,-361.4"/>
</g>
<!-- Node3 -->
<g id="node3" class="node">
<title>Node3</title>
<g id="a_node3"><a xlink:href="classipc_1_1transport_1_1Native__socket__stream.html#ac3cd00ddd2e0502677630320708277a3" target="_top" xlink:title="Implements Native_handle_sender, Blob_sender API per contract.">
<polygon fill="white" stroke="black" points="157,-709.5 157,-744.5 267,-744.5 267,-709.5 157,-709.5"/>
<text text-anchor="start" x="165" y="-734.1" font-family="Helvetica,sans-Serif" font-size="8.00">ipc::transport::Native</text>
<text text-anchor="start" x="165" y="-725.1" font-family="Helvetica,sans-Serif" font-size="8.00">_socket_stream::async</text>
<text text-anchor="middle" x="212" y="-716.1" font-family="Helvetica,sans-Serif" font-size="8.00">_end_sending</text>
</a>
</g>
</g>
<!-- Node2&#45;&gt;Node3 -->
<g id="edge2" class="edge">
<title>Node2&#45;&gt;Node3</title>
<path fill="none" stroke="midnightblue" d="M321.12,-727C303.38,-727 284.32,-727 267.21,-727"/>
<polygon fill="midnightblue" stroke="midnightblue" points="321.39,-730.5 331.39,-727 321.39,-723.5 321.39,-730.5"/>
</g>
<!-- Node4 -->
<g id="node4" class="node">
<title>Node4</title>
<g id="a_node4"><a xlink:href="classipc_1_1transport_1_1Native__socket__stream_1_1Impl.html#a39c3a466e4f61e20dfaa8d9b66266f61" target="_top" xlink:title="See Native_socket_stream counterpart.">
<polygon fill="white" stroke="black" points="0,-709.5 0,-744.5 109,-744.5 109,-709.5 0,-709.5"/>
<text text-anchor="start" x="8" y="-734.1" font-family="Helvetica,sans-Serif" font-size="8.00">ipc::transport::Native</text>
<text text-anchor="start" x="8" y="-725.1" font-family="Helvetica,sans-Serif" font-size="8.00">_socket_stream::Impl::</text>
<text text-anchor="middle" x="54.5" y="-716.1" font-family="Helvetica,sans-Serif" font-size="8.00">end_sending</text>
</a>
</g>
</g>
<!-- Node3&#45;&gt;Node4 -->
<g id="edge3" class="edge">
<title>Node3&#45;&gt;Node4</title>
<path fill="none" stroke="midnightblue" d="M146.33,-727C133.93,-727 121.07,-727 109.07,-727"/>
<polygon fill="midnightblue" stroke="midnightblue" points="146.61,-730.5 156.61,-727 146.61,-723.5 146.61,-730.5"/>
</g>
<!-- Node6 -->
<g id="node6" class="node">
<title>Node6</title>
<g id="a_node6"><a xlink:href="classipc_1_1transport_1_1Native__socket__stream.html#ac5572c8165e25f106f18d327c07d1c3f" target="_top" xlink:title="Implements Blob_receiver API per contract.">
<polygon fill="white" stroke="black" points="157,-655.5 157,-690.5 267,-690.5 267,-655.5 157,-655.5"/>
<text text-anchor="start" x="165" y="-680.1" font-family="Helvetica,sans-Serif" font-size="8.00">ipc::transport::Native</text>
<text text-anchor="start" x="165" y="-671.1" font-family="Helvetica,sans-Serif" font-size="8.00">_socket_stream::async</text>
<text text-anchor="middle" x="212" y="-662.1" font-family="Helvetica,sans-Serif" font-size="8.00">_receive_blob</text>
</a>
</g>
</g>
<!-- Node5&#45;&gt;Node6 -->
<g id="edge5" class="edge">
<title>Node5&#45;&gt;Node6</title>
<path fill="none" stroke="midnightblue" d="M321.12,-673C303.38,-673 284.32,-673 267.21,-673"/>
<polygon fill="midnightblue" stroke="midnightblue" points="321.39,-676.5 331.39,-673 321.39,-669.5 321.39,-676.5"/>
</g>
<!-- Node8 -->
<g id="node8" class="node">
<title>Node8</title>
<g id="a_node8"><a xlink:href="classipc_1_1transport_1_1Native__socket__stream.html#a266b52821557f2a4fa8f81058290dee2" target="_top" xlink:title="Implements Native_handle_receiver API per contract.">
<polygon fill="white" stroke="black" points="156,-601.5 156,-636.5 268,-636.5 268,-601.5 156,-601.5"/>
<text text-anchor="start" x="164" y="-626.1" font-family="Helvetica,sans-Serif" font-size="8.00">ipc::transport::Native</text>
<text text-anchor="start" x="164" y="-617.1" font-family="Helvetica,sans-Serif" font-size="8.00">_socket_stream::async</text>
<text text-anchor="middle" x="212" y="-608.1" font-family="Helvetica,sans-Serif" font-size="8.00">_receive_native_handle</text>
</a>
</g>
</g>
<!-- Node7&#45;&gt;Node8 -->
<g id="edge7" class="edge">
<title>Node7&#45;&gt;Node8</title>
<path fill="none" stroke="midnightblue" d="M310.52,-619C296.3,-619 281.67,-619 268.2,-619"/>
<polygon fill="midnightblue" stroke="midnightblue" points="310.78,-622.5 320.78,-619 310.78,-615.5 310.78,-622.5"/>
</g>
<!-- Node13 -->
<g id="node13" class="node">
<title>Node13</title>
<g id="a_node13"><a xlink:href="classipc_1_1transport_1_1Native__socket__stream_1_1Impl.html#a0bc4f6f4dfa20d1c1902f1da85f637b3" target="_top" xlink:title="See Native_socket_stream counterpart.">
<polygon fill="white" stroke="black" points="145.5,-421 145.5,-447 278.5,-447 278.5,-421 145.5,-421"/>
<text text-anchor="start" x="153.5" y="-436.6" font-family="Helvetica,sans-Serif" font-size="8.00">ipc::transport::Native</text>
<text text-anchor="middle" x="212" y="-427.6" font-family="Helvetica,sans-Serif" font-size="8.00">_socket_stream::Impl::~Impl</text>
</a>
</g>
</g>
<!-- Node12&#45;&gt;Node13 -->
<g id="edge12" class="edge">
<title>Node12&#45;&gt;Node13</title>
<path fill="none" stroke="midnightblue" d="M313.65,-434C302.08,-434 290.15,-434 278.73,-434"/>
<polygon fill="midnightblue" stroke="midnightblue" points="313.71,-437.5 323.71,-434 313.71,-430.5 313.71,-437.5"/>
</g>
<!-- Node15 -->
<g id="node15" class="node">
<title>Node15</title>
<g id="a_node15"><a xlink:href="classipc_1_1transport_1_1Native__socket__stream_1_1Impl.html#ae599fae31c48348f10341c6c70e343e7" target="_top" xlink:title="See Native_socket_stream counterpart.">
<polygon fill="white" stroke="black" points="145,-366.5 145,-401.5 279,-401.5 279,-366.5 145,-366.5"/>
<text text-anchor="start" x="153" y="-391.1" font-family="Helvetica,sans-Serif" font-size="8.00">ipc::transport::Native</text>
<text text-anchor="start" x="153" y="-382.1" font-family="Helvetica,sans-Serif" font-size="8.00">_socket_stream::Impl::</text>
<text text-anchor="middle" x="212" y="-373.1" font-family="Helvetica,sans-Serif" font-size="8.00">receive_meta_blob_max_size</text>
</a>
</g>
</g>
<!-- Node14&#45;&gt;Node15 -->
<g id="edge14" class="edge">
<title>Node14&#45;&gt;Node15</title>
<path fill="none" stroke="midnightblue" d="M317.97,-384C305.2,-384 291.86,-384 279.14,-384"/>
<polygon fill="midnightblue" stroke="midnightblue" points="318.06,-387.5 328.06,-384 318.06,-380.5 318.06,-387.5"/>
</g>
<!-- Node20 -->
<g id="node20" class="node">
<title>Node20</title>
<g id="a_node20"><a xlink:href="classipc_1_1transport_1_1Native__socket__stream_1_1Impl.html#a356082fb50487830a83301cf12836ede" target="_top" xlink:title="See Native_socket_stream counterpart.">
<polygon fill="white" stroke="black" points="149.5,-158.5 149.5,-193.5 274.5,-193.5 274.5,-158.5 149.5,-158.5"/>
<text text-anchor="start" x="157.5" y="-183.1" font-family="Helvetica,sans-Serif" font-size="8.00">ipc::transport::Native</text>
<text text-anchor="start" x="157.5" y="-174.1" font-family="Helvetica,sans-Serif" font-size="8.00">_socket_stream::Impl::</text>
<text text-anchor="middle" x="212" y="-165.1" font-family="Helvetica,sans-Serif" font-size="8.00">send_meta_blob_max_size</text>
</a>
</g>
</g>
<!-- Node19&#45;&gt;Node20 -->
<g id="edge19" class="edge">
<title>Node19&#45;&gt;Node20</title>
<path fill="none" stroke="midnightblue" d="M311.89,-176C299.44,-176 286.62,-176 274.52,-176"/>
<polygon fill="midnightblue" stroke="midnightblue" points="312.25,-179.5 322.25,-176 312.25,-172.5 312.25,-179.5"/>
</g>
<!-- Node24 -->
<g id="node24" class="node">
<title>Node24</title>
<g id="a_node24"><a xlink:href="classipc_1_1transport_1_1Native__socket__stream_1_1Impl.html#a4706d150ea840300dd23edbf71ed64b4" target="_top" xlink:title="See Native_socket_stream counterpart.">
<polygon fill="white" stroke="black" points="157.5,-0.5 157.5,-35.5 266.5,-35.5 266.5,-0.5 157.5,-0.5"/>
<text text-anchor="start" x="165.5" y="-25.1" font-family="Helvetica,sans-Serif" font-size="8.00">ipc::transport::Native</text>
<text text-anchor="start" x="165.5" y="-16.1" font-family="Helvetica,sans-Serif" font-size="8.00">_socket_stream::Impl::</text>
<text text-anchor="middle" x="212" y="-7.1" font-family="Helvetica,sans-Serif" font-size="8.00">sync_connect</text>
</a>
</g>
</g>
<!-- Node23&#45;&gt;Node24 -->
<g id="edge23" class="edge">
<title>Node23&#45;&gt;Node24</title>
<path fill="none" stroke="midnightblue" d="M305.78,-18C292.56,-18 279.12,-18 266.74,-18"/>
<polygon fill="midnightblue" stroke="midnightblue" points="305.83,-21.5 315.83,-18 305.83,-14.5 305.83,-21.5"/>
</g>
</g>
</svg>
