<?xml version="1.0" encoding="UTF-8" standalone="no"?>
<!DOCTYPE svg PUBLIC "-//W3C//DTD SVG 1.1//EN"
 "http://www.w3.org/Graphics/SVG/1.1/DTD/svg11.dtd">
<!-- Generated by graphviz version 2.43.0 (0)
 -->
<!-- Title: ipc::session::shm::arena_lend::jemalloc::Session_server::cleanup Pages: 1 -->
<svg width="462pt" height="164pt"
 viewBox="0.00 0.00 462.00 164.00" xmlns="http://www.w3.org/2000/svg" xmlns:xlink="http://www.w3.org/1999/xlink">
<g id="graph0" class="graph" transform="scale(1 1) rotate(0) translate(4 160)">
<title>ipc::session::shm::arena_lend::jemalloc::Session_server::cleanup</title>
<polygon fill="white" stroke="transparent" points="-4,4 -4,-160 458,-160 458,4 -4,4"/>
<!-- Node1 -->
<g id="node1" class="node">
<title>Node1</title>
<g id="a_node1"><a xlink:title="Invoked on m_async_cleanup_worker, performs a round of the SHM&#45;pool cleanup algorithm and schedules s...">
<polygon fill="#bfbfbf" stroke="black" points="0,-62 0,-97 123,-97 123,-62 0,-62"/>
<text text-anchor="start" x="8" y="-86.6" font-family="Helvetica,sans-Serif" font-size="8.00">ipc::session::shm::</text>
<text text-anchor="start" x="8" y="-77.6" font-family="Helvetica,sans-Serif" font-size="8.00">arena_lend::jemalloc</text>
<text text-anchor="middle" x="61.5" y="-68.6" font-family="Helvetica,sans-Serif" font-size="8.00">::Session_server::cleanup</text>
</a>
</g>
</g>
<!-- Node2 -->
<g id="node2" class="node">
<title>Node2</title>
<g id="a_node2"><a xlink:href="namespaceipc_1_1session.html#ac970e7d7b97c1a9737bd836a6a7f77ec" target="_top" xlink:title="Decomposes a Shared_name built as&#45;if by build_conventional_shared_name() overload 1 (non&#45;global&#45;scope...">
<polygon fill="white" stroke="black" points="159,-129.5 159,-155.5 292,-155.5 292,-129.5 159,-129.5"/>
<text text-anchor="start" x="167" y="-145.1" font-family="Helvetica,sans-Serif" font-size="8.00">ipc::session::decompose</text>
<text text-anchor="middle" x="225.5" y="-136.1" font-family="Helvetica,sans-Serif" font-size="8.00">_conventional_shared_name</text>
</a>
</g>
</g>
<!-- Node1&#45;&gt;Node2 -->
<g id="edge1" class="edge">
<title>Node1&#45;&gt;Node2</title>
<path fill="none" stroke="midnightblue" d="M107.63,-97.05C130.73,-106.03 158.71,-116.91 181.5,-125.78"/>
<polygon fill="midnightblue" stroke="midnightblue" points="180.33,-129.08 190.92,-129.44 182.87,-122.55 180.33,-129.08"/>
</g>
<!-- Node4 -->
<g id="node4" class="node">
<title>Node4</title>
<g id="a_node4"><a xlink:href="classipc_1_1util_1_1Shared__name.html#ae89e1e061f87ffe0288514e254837595" target="_top" xlink:title="Returns (sans copying) ref to immutable entire wrapped name string, suitable to pass into sys calls w...">
<polygon fill="white" stroke="black" points="328,-95 328,-112 454,-112 454,-95 328,-95"/>
<text text-anchor="middle" x="391" y="-101.6" font-family="Helvetica,sans-Serif" font-size="8.00">ipc::util::Shared_name::str</text>
</a>
</g>
</g>
<!-- Node1&#45;&gt;Node4 -->
<g id="edge6" class="edge">
<title>Node1&#45;&gt;Node4</title>
<path fill="none" stroke="midnightblue" d="M123.33,-83.96C178.3,-87.99 259.29,-93.92 317.58,-98.19"/>
<polygon fill="midnightblue" stroke="midnightblue" points="317.59,-101.7 327.82,-98.94 318.11,-94.72 317.59,-101.7"/>
</g>
<!-- Node5 -->
<g id="node5" class="node">
<title>Node5</title>
<g id="a_node5"><a xlink:href="namespaceipc_1_1util.html#a924cd56daf7eeaa0b07edb352367f9ec" target="_top" xlink:title="Returns true if and only if the given process (by PID) is reported as running by the OS.">
<polygon fill="white" stroke="black" points="182.5,-45.5 182.5,-71.5 268.5,-71.5 268.5,-45.5 182.5,-45.5"/>
<text text-anchor="start" x="190.5" y="-61.1" font-family="Helvetica,sans-Serif" font-size="8.00">ipc::util::process</text>
<text text-anchor="middle" x="225.5" y="-52.1" font-family="Helvetica,sans-Serif" font-size="8.00">_running</text>
</a>
</g>
</g>
<!-- Node1&#45;&gt;Node5 -->
<g id="edge4" class="edge">
<title>Node1&#45;&gt;Node5</title>
<path fill="none" stroke="midnightblue" d="M123.28,-71.62C139.34,-69.54 156.53,-67.31 172.1,-65.29"/>
<polygon fill="midnightblue" stroke="midnightblue" points="172.6,-68.76 182.07,-64 171.7,-61.82 172.6,-68.76"/>
</g>
<!-- Node6 -->
<g id="node6" class="node">
<title>Node6</title>
<g id="a_node6"><a xlink:href="classipc_1_1util_1_1Shared__name.html#af34db2934e116f8a4fdd403fd04695af" target="_top" xlink:title="Returns str().size().">
<polygon fill="white" stroke="black" points="170.5,-0.5 170.5,-26.5 280.5,-26.5 280.5,-0.5 170.5,-0.5"/>
<text text-anchor="start" x="178.5" y="-16.1" font-family="Helvetica,sans-Serif" font-size="8.00">ipc::util::Shared_name</text>
<text text-anchor="middle" x="225.5" y="-7.1" font-family="Helvetica,sans-Serif" font-size="8.00">::size</text>
</a>
</g>
</g>
<!-- Node1&#45;&gt;Node6 -->
<g id="edge5" class="edge">
<title>Node1&#45;&gt;Node6</title>
<path fill="none" stroke="midnightblue" d="M98.77,-61.88C116.71,-53.45 138.79,-43.48 159,-35.5 163.76,-33.62 168.75,-31.76 173.77,-29.96"/>
<polygon fill="midnightblue" stroke="midnightblue" points="175.11,-33.2 183.38,-26.58 172.79,-26.59 175.11,-33.2"/>
</g>
<!-- Node3 -->
<g id="node3" class="node">
<title>Node3</title>
<g id="a_node3"><a xlink:href="classipc_1_1util_1_1Shared__name.html#a48f20b7b54490aa10dc64081d34c55b2" target="_top" xlink:title="Copy&#45;constructs from a char&#45;sequence container (including string, util::String_view,...">
<polygon fill="white" stroke="black" points="329.5,-134 329.5,-151 452.5,-151 452.5,-134 329.5,-134"/>
<text text-anchor="middle" x="391" y="-140.6" font-family="Helvetica,sans-Serif" font-size="8.00">ipc::util::Shared_name::ct</text>
</a>
</g>
</g>
<!-- Node2&#45;&gt;Node3 -->
<g id="edge2" class="edge">
<title>Node2&#45;&gt;Node3</title>
<path fill="none" stroke="midnightblue" d="M292.06,-142.5C301.03,-142.5 310.28,-142.5 319.33,-142.5"/>
<polygon fill="midnightblue" stroke="midnightblue" points="319.46,-146 329.46,-142.5 319.46,-139 319.46,-146"/>
</g>
<!-- Node2&#45;&gt;Node4 -->
<g id="edge3" class="edge">
<title>Node2&#45;&gt;Node4</title>
<path fill="none" stroke="midnightblue" d="M281.4,-129.41C301.78,-124.54 324.67,-119.08 344.16,-114.44"/>
<polygon fill="midnightblue" stroke="midnightblue" points="345.09,-117.81 354.01,-112.09 343.47,-111 345.09,-117.81"/>
</g>
</g>
</svg>
