<?xml version="1.0" encoding="UTF-8" standalone="no"?>
<!DOCTYPE svg PUBLIC "-//W3C//DTD SVG 1.1//EN"
 "http://www.w3.org/Graphics/SVG/1.1/DTD/svg11.dtd">
<!-- Generated by graphviz version 2.43.0 (0)
 -->
<!-- Title: ipc::transport::struc::shm::error::Category Pages: 1 -->
<svg width="116pt" height="98pt"
 viewBox="0.00 0.00 116.00 98.00" xmlns="http://www.w3.org/2000/svg" xmlns:xlink="http://www.w3.org/1999/xlink">
<g id="graph0" class="graph" transform="scale(1 1) rotate(0) translate(4 94)">
<title>ipc::transport::struc::shm::error::Category</title>
<polygon fill="white" stroke="transparent" points="-4,4 -4,-94 112,-94 112,4 -4,4"/>
<!-- Node1 -->
<g id="node1" class="node">
<title>Node1</title>
<g id="a_node1"><a xlink:title="The boost.system category for errors returned by the ipc::transport::struc::shm module.">
<polygon fill="#bfbfbf" stroke="black" points="0,-0.5 0,-26.5 108,-26.5 108,-0.5 0,-0.5"/>
<text text-anchor="start" x="8" y="-16.1" font-family="Helvetica,sans-Serif" font-size="8.00">ipc::transport::struc</text>
<text text-anchor="middle" x="54" y="-7.1" font-family="Helvetica,sans-Serif" font-size="8.00">::shm::error::Category</text>
</a>
</g>
</g>
<!-- Node2 -->
<g id="node2" class="node">
<title>Node2</title>
<g id="a_node2"><a xlink:href="classboost_1_1system_1_1error__category.html" target="_top" xlink:title=" ">
<polygon fill="white" stroke="#bfbfbf" points="3.5,-63.5 3.5,-89.5 104.5,-89.5 104.5,-63.5 3.5,-63.5"/>
<text text-anchor="start" x="11.5" y="-79.1" font-family="Helvetica,sans-Serif" font-size="8.00">boost::system::error</text>
<text text-anchor="middle" x="54" y="-70.1" font-family="Helvetica,sans-Serif" font-size="8.00">_category</text>
</a>
</g>
</g>
<!-- Node2&#45;&gt;Node1 -->
<g id="edge1" class="edge">
<title>Node2&#45;&gt;Node1</title>
<path fill="none" stroke="midnightblue" d="M54,-53.19C54,-44.18 54,-34.12 54,-26.53"/>
<polygon fill="midnightblue" stroke="midnightblue" points="50.5,-53.45 54,-63.45 57.5,-53.45 50.5,-53.45"/>
</g>
</g>
</svg>
