<?xml version="1.0" encoding="UTF-8" standalone="no"?>
<!DOCTYPE svg PUBLIC "-//W3C//DTD SVG 1.1//EN"
 "http://www.w3.org/Graphics/SVG/1.1/DTD/svg11.dtd">
<!-- Generated by graphviz version 2.43.0 (0)
 -->
<!-- Title: ipc::transport::struc::Heap_fixed_builder Pages: 1 -->
<svg width="336pt" height="116pt"
 viewBox="0.00 0.00 336.00 116.00" xmlns="http://www.w3.org/2000/svg" xmlns:xlink="http://www.w3.org/1999/xlink">
<g id="graph0" class="graph" transform="scale(1 1) rotate(0) translate(4 112)">
<title>ipc::transport::struc::Heap_fixed_builder</title>
<polygon fill="white" stroke="transparent" points="-4,4 -4,-112 332,-112 332,4 -4,4"/>
<!-- Node1 -->
<g id="node1" class="node">
<title>Node1</title>
<g id="a_node1"><a xlink:title="Implements Struct_builder concept by straightforwardly allocating fixed&#45;size segments on&#45;demand in th...">
<polygon fill="#bfbfbf" stroke="black" points="227,-50 227,-76 328,-76 328,-50 227,-50"/>
<text text-anchor="start" x="235" y="-65.6" font-family="Helvetica,sans-Serif" font-size="8.00">ipc::transport::struc</text>
<text text-anchor="middle" x="277.5" y="-56.6" font-family="Helvetica,sans-Serif" font-size="8.00">::Heap_fixed_builder</text>
</a>
</g>
</g>
<!-- Node2 -->
<g id="node2" class="node">
<title>Node2</title>
<g id="a_node2"><a xlink:title=" ">
<polygon fill="white" stroke="#bfbfbf" points="10.5,-90.5 10.5,-107.5 117.5,-107.5 117.5,-90.5 10.5,-90.5"/>
<text text-anchor="middle" x="64" y="-97.1" font-family="Helvetica,sans-Serif" font-size="8.00">flow::log::Log_context</text>
</a>
</g>
</g>
<!-- Node2&#45;&gt;Node1 -->
<g id="edge1" class="edge">
<title>Node2&#45;&gt;Node1</title>
<path fill="none" stroke="midnightblue" d="M127.91,-89.4C153.15,-85.43 182.48,-80.67 209,-76 214.76,-74.99 220.79,-73.88 226.77,-72.76"/>
<polygon fill="midnightblue" stroke="midnightblue" points="127.07,-85.99 117.73,-90.99 128.15,-92.9 127.07,-85.99"/>
</g>
<!-- Node3 -->
<g id="node3" class="node">
<title>Node3</title>
<g id="a_node3"><a xlink:title=" ">
<polygon fill="white" stroke="#bfbfbf" points="44,-54.5 44,-71.5 84,-71.5 84,-54.5 44,-54.5"/>
<text text-anchor="middle" x="64" y="-61.1" font-family="Helvetica,sans-Serif" font-size="8.00">size_t</text>
</a>
</g>
</g>
<!-- Node3&#45;&gt;Node1 -->
<g id="edge2" class="edge">
<title>Node3&#45;&gt;Node1</title>
<path fill="none" stroke="#9a32cd" stroke-dasharray="5,2" d="M94.4,-63C128.6,-63 185.64,-63 226.77,-63"/>
<polygon fill="#9a32cd" stroke="#9a32cd" points="94.14,-59.5 84.14,-63 94.14,-66.5 94.14,-59.5"/>
<text text-anchor="middle" x="177.5" y="-65.6" font-family="Helvetica,sans-Serif" font-size="8.00"> m_segment_sz</text>
</g>
<!-- Node4 -->
<g id="node4" class="node">
<title>Node4</title>
<g id="a_node4"><a xlink:title=" ">
<polygon fill="white" stroke="#bfbfbf" points="0,-0.5 0,-35.5 128,-35.5 128,-0.5 0,-0.5"/>
<text text-anchor="start" x="8" y="-25.1" font-family="Helvetica,sans-Serif" font-size="8.00">unique_ptr&lt; ipc::transport</text>
<text text-anchor="start" x="8" y="-16.1" font-family="Helvetica,sans-Serif" font-size="8.00">::struc::Heap_fixed_builder</text>
<text text-anchor="middle" x="64" y="-7.1" font-family="Helvetica,sans-Serif" font-size="8.00">_capnp_message_builder &gt;</text>
</a>
</g>
</g>
<!-- Node4&#45;&gt;Node1 -->
<g id="edge3" class="edge">
<title>Node4&#45;&gt;Node1</title>
<path fill="none" stroke="#9a32cd" stroke-dasharray="5,2" d="M138.33,-33.6C167.53,-39.82 200.39,-46.81 226.73,-52.41"/>
<polygon fill="#9a32cd" stroke="#9a32cd" points="138.68,-30.1 128.17,-31.44 137.22,-36.95 138.68,-30.1"/>
<text text-anchor="middle" x="177.5" y="-50.6" font-family="Helvetica,sans-Serif" font-size="8.00"> m_engine</text>
</g>
</g>
</svg>
