<?xml version="1.0" encoding="UTF-8" standalone="no"?>
<!DOCTYPE svg PUBLIC "-//W3C//DTD SVG 1.1//EN"
 "http://www.w3.org/Graphics/SVG/1.1/DTD/svg11.dtd">
<!-- Generated by graphviz version 2.43.0 (0)
 -->
<!-- Title: ipc::transport::struc::sync_io::Channel::send_core Pages: 1 -->
<svg width="338pt" height="288pt"
 viewBox="0.00 0.00 338.00 287.50" xmlns="http://www.w3.org/2000/svg" xmlns:xlink="http://www.w3.org/1999/xlink">
<g id="graph0" class="graph" transform="scale(1 1) rotate(0) translate(4 283.5)">
<title>ipc::transport::struc::sync_io::Channel::send_core</title>
<polygon fill="white" stroke="transparent" points="-4,4 -4,-283.5 334,-283.5 334,4 -4,4"/>
<!-- Node1 -->
<g id="node1" class="node">
<title>Node1</title>
<g id="a_node1"><a xlink:title="Core of send() or internal&#45;message&#45;send: Serializes the given structured out&#45;messages (metadata out&#45;m...">
<polygon fill="#bfbfbf" stroke="black" points="0,-138 0,-164 140,-164 140,-138 0,-138"/>
<text text-anchor="start" x="8" y="-153.6" font-family="Helvetica,sans-Serif" font-size="8.00">ipc::transport::struc</text>
<text text-anchor="middle" x="70" y="-144.6" font-family="Helvetica,sans-Serif" font-size="8.00">::sync_io::Channel::send_core</text>
</a>
</g>
</g>
<!-- Node2 -->
<g id="node2" class="node">
<title>Node2</title>
<g id="a_node2"><a xlink:href="classipc_1_1transport_1_1struc_1_1Msg__out.html#a9894ad7ec2a46641c4b9b86664d0d465" target="_top" xlink:title="The Body root capnp&#45;generated mutator object.">
<polygon fill="white" stroke="black" points="201.5,-253 201.5,-279 304.5,-279 304.5,-253 201.5,-253"/>
<text text-anchor="start" x="209.5" y="-268.6" font-family="Helvetica,sans-Serif" font-size="8.00">ipc::transport::struc</text>
<text text-anchor="middle" x="253" y="-259.6" font-family="Helvetica,sans-Serif" font-size="8.00">::Msg_out::body_root</text>
</a>
</g>
</g>
<!-- Node1&#45;&gt;Node2 -->
<g id="edge1" class="edge">
<title>Node1&#45;&gt;Node2</title>
<path fill="none" stroke="midnightblue" d="M82.22,-164.13C100.08,-184.22 136.96,-222.51 176,-244 180.89,-246.69 186.14,-249.08 191.51,-251.2"/>
<polygon fill="midnightblue" stroke="midnightblue" points="190.68,-254.62 201.27,-254.73 193.06,-248.04 190.68,-254.62"/>
</g>
<!-- Node3 -->
<g id="node3" class="node">
<title>Node3</title>
<g id="a_node3"><a xlink:href="classipc_1_1transport_1_1struc_1_1Msg__mdt__out.html#a4dae089f324bbdf98d838ddc70abdc9e" target="_top" xlink:title="Forwards to Msg_out::body_root() (const overload).">
<polygon fill="white" stroke="black" points="192,-208 192,-234 314,-234 314,-208 192,-208"/>
<text text-anchor="start" x="200" y="-223.6" font-family="Helvetica,sans-Serif" font-size="8.00">ipc::transport::struc</text>
<text text-anchor="middle" x="253" y="-214.6" font-family="Helvetica,sans-Serif" font-size="8.00">::Msg_mdt_out::body_root</text>
</a>
</g>
</g>
<!-- Node1&#45;&gt;Node3 -->
<g id="edge2" class="edge">
<title>Node1&#45;&gt;Node3</title>
<path fill="none" stroke="midnightblue" d="M96.87,-164.12C117.85,-174.45 148.38,-188.75 176,-199 181.53,-201.05 187.34,-203.03 193.18,-204.91"/>
<polygon fill="midnightblue" stroke="midnightblue" points="192.41,-208.34 203,-207.97 194.49,-201.65 192.41,-208.34"/>
</g>
<!-- Node4 -->
<g id="node4" class="node">
<title>Node4</title>
<g id="a_node4"><a xlink:href="classipc_1_1transport_1_1struc_1_1Msg__mdt__out.html#a267d8cad7e43fa969c09ae44cf7bafec" target="_top" xlink:title="Returns the serialization in the form of a sequence of 1 Blob.">
<polygon fill="white" stroke="black" points="176,-163 176,-189 330,-189 330,-163 176,-163"/>
<text text-anchor="start" x="184" y="-178.6" font-family="Helvetica,sans-Serif" font-size="8.00">ipc::transport::struc</text>
<text text-anchor="middle" x="253" y="-169.6" font-family="Helvetica,sans-Serif" font-size="8.00">::Msg_mdt_out::emit_serialization</text>
</a>
</g>
</g>
<!-- Node1&#45;&gt;Node4 -->
<g id="edge3" class="edge">
<title>Node1&#45;&gt;Node4</title>
<path fill="none" stroke="midnightblue" d="M140.2,-160.56C148.6,-161.72 157.25,-162.91 165.85,-164.1"/>
<polygon fill="midnightblue" stroke="midnightblue" points="165.51,-167.59 175.9,-165.49 166.47,-160.65 165.51,-167.59"/>
</g>
<!-- Node5 -->
<g id="node5" class="node">
<title>Node5</title>
<g id="a_node5"><a xlink:href="classipc_1_1transport_1_1struc_1_1Msg__out__impl.html#a80de3b0b3783c53d06f0fac44248405c" target="_top" xlink:title="See super&#45;class.">
<polygon fill="white" stroke="black" points="202.5,-108.5 202.5,-143.5 303.5,-143.5 303.5,-108.5 202.5,-108.5"/>
<text text-anchor="start" x="210.5" y="-133.1" font-family="Helvetica,sans-Serif" font-size="8.00">ipc::transport::struc</text>
<text text-anchor="start" x="210.5" y="-124.1" font-family="Helvetica,sans-Serif" font-size="8.00">::Msg_out_impl::emit</text>
<text text-anchor="middle" x="253" y="-115.1" font-family="Helvetica,sans-Serif" font-size="8.00">_serialization</text>
</a>
</g>
</g>
<!-- Node1&#45;&gt;Node5 -->
<g id="edge4" class="edge">
<title>Node1&#45;&gt;Node5</title>
<path fill="none" stroke="midnightblue" d="M140.2,-141.44C157.31,-139.08 175.49,-136.57 192.12,-134.27"/>
<polygon fill="midnightblue" stroke="midnightblue" points="192.81,-137.71 202.24,-132.87 191.86,-130.77 192.81,-137.71"/>
</g>
<!-- Node6 -->
<g id="node6" class="node">
<title>Node6</title>
<g id="a_node6"><a xlink:href="classipc_1_1transport_1_1struc_1_1Msg__out__impl.html#a98fdfc10c77d95b8d9817403168a6282" target="_top" xlink:title="See super&#45;class.">
<polygon fill="white" stroke="black" points="181.5,-54.5 181.5,-89.5 324.5,-89.5 324.5,-54.5 181.5,-54.5"/>
<text text-anchor="start" x="189.5" y="-79.1" font-family="Helvetica,sans-Serif" font-size="8.00">ipc::transport::struc</text>
<text text-anchor="start" x="189.5" y="-70.1" font-family="Helvetica,sans-Serif" font-size="8.00">::Msg_out_impl::n_serialization</text>
<text text-anchor="middle" x="253" y="-61.1" font-family="Helvetica,sans-Serif" font-size="8.00">_segments</text>
</a>
</g>
</g>
<!-- Node1&#45;&gt;Node6 -->
<g id="edge5" class="edge">
<title>Node1&#45;&gt;Node6</title>
<path fill="none" stroke="midnightblue" d="M95.23,-137.98C116.27,-126.92 147.72,-110.98 176,-99 180.64,-97.04 185.47,-95.09 190.35,-93.2"/>
<polygon fill="midnightblue" stroke="midnightblue" points="191.65,-96.45 199.76,-89.64 189.17,-89.9 191.65,-96.45"/>
</g>
<!-- Node7 -->
<g id="node7" class="node">
<title>Node7</title>
<g id="a_node7"><a xlink:href="classipc_1_1transport_1_1struc_1_1Msg__out.html#ae033461f1404be60262033bafcfaccba" target="_top" xlink:title="Returns whatever was the last word according to store_native_handle_or_null().">
<polygon fill="white" stroke="black" points="193,-0.5 193,-35.5 313,-35.5 313,-0.5 193,-0.5"/>
<text text-anchor="start" x="201" y="-25.1" font-family="Helvetica,sans-Serif" font-size="8.00">ipc::transport::struc</text>
<text text-anchor="start" x="201" y="-16.1" font-family="Helvetica,sans-Serif" font-size="8.00">::Msg_out::native_handle</text>
<text text-anchor="middle" x="253" y="-7.1" font-family="Helvetica,sans-Serif" font-size="8.00">_or_null</text>
</a>
</g>
</g>
<!-- Node1&#45;&gt;Node7 -->
<g id="edge6" class="edge">
<title>Node1&#45;&gt;Node7</title>
<path fill="none" stroke="midnightblue" d="M80.86,-137.71C97.93,-115.56 135.11,-70.97 176,-45 178.78,-43.24 181.69,-41.57 184.68,-39.99"/>
<polygon fill="midnightblue" stroke="midnightblue" points="186.38,-43.06 193.85,-35.55 183.33,-36.76 186.38,-43.06"/>
</g>
</g>
</svg>
