<?xml version="1.0" encoding="UTF-8" standalone="no"?>
<!DOCTYPE svg PUBLIC "-//W3C//DTD SVG 1.1//EN"
 "http://www.w3.org/Graphics/SVG/1.1/DTD/svg11.dtd">
<!-- Generated by graphviz version 2.43.0 (0)
 -->
<!-- Title: ipc::transport::sync_io::Blob_stream_mq_receiver_impl::read_msg Pages: 1 -->
<svg width="294pt" height="62pt"
 viewBox="0.00 0.00 294.00 62.00" xmlns="http://www.w3.org/2000/svg" xmlns:xlink="http://www.w3.org/1999/xlink">
<g id="graph0" class="graph" transform="scale(1 1) rotate(0) translate(4 58)">
<title>ipc::transport::sync_io::Blob_stream_mq_receiver_impl::read_msg</title>
<polygon fill="white" stroke="transparent" points="-4,4 -4,-58 290,-58 290,4 -4,4"/>
<!-- Node1 -->
<g id="node1" class="node">
<title>Node1</title>
<g id="a_node1"><a xlink:title="Begins read chain (completing it as synchronously as possible, async&#45;completing the rest) for the nex...">
<polygon fill="#bfbfbf" stroke="black" points="0,-9.5 0,-44.5 137,-44.5 137,-9.5 0,-9.5"/>
<text text-anchor="start" x="8" y="-34.1" font-family="Helvetica,sans-Serif" font-size="8.00">ipc::transport::sync</text>
<text text-anchor="start" x="8" y="-25.1" font-family="Helvetica,sans-Serif" font-size="8.00">_io::Blob_stream_mq_receiver</text>
<text text-anchor="middle" x="68.5" y="-16.1" font-family="Helvetica,sans-Serif" font-size="8.00">_impl::read_msg</text>
</a>
</g>
</g>
<!-- Node2 -->
<g id="node2" class="node">
<title>Node2</title>
<g id="a_node2"><a xlink:href="namespaceipc_1_1util.html#a814272e555c0592b0caf92b7bc3d64b3" target="_top" xlink:title="Reads a byte via the given pipe reader.">
<polygon fill="white" stroke="black" points="173,-36.5 173,-53.5 286,-53.5 286,-36.5 173,-36.5"/>
<text text-anchor="middle" x="229.5" y="-43.1" font-family="Helvetica,sans-Serif" font-size="8.00">ipc::util::pipe_consume</text>
</a>
</g>
</g>
<!-- Node1&#45;&gt;Node2 -->
<g id="edge1" class="edge">
<title>Node1&#45;&gt;Node2</title>
<path fill="none" stroke="midnightblue" d="M137.39,-34.69C145.79,-35.64 154.37,-36.61 162.74,-37.56"/>
<polygon fill="midnightblue" stroke="midnightblue" points="162.49,-41.05 172.82,-38.7 163.27,-34.09 162.49,-41.05"/>
</g>
<!-- Node3 -->
<g id="node3" class="node">
<title>Node3</title>
<g id="a_node3"><a xlink:href="namespaceipc_1_1util.html#a5429c6225cc9a271ad8c0041d99c236b" target="_top" xlink:title="Writes a byte to the given pipe writer.">
<polygon fill="white" stroke="black" points="175,-0.5 175,-17.5 284,-17.5 284,-0.5 175,-0.5"/>
<text text-anchor="middle" x="229.5" y="-7.1" font-family="Helvetica,sans-Serif" font-size="8.00">ipc::util::pipe_produce</text>
</a>
</g>
</g>
<!-- Node1&#45;&gt;Node3 -->
<g id="edge2" class="edge">
<title>Node1&#45;&gt;Node3</title>
<path fill="none" stroke="midnightblue" d="M137.39,-19.31C146.47,-18.29 155.75,-17.24 164.75,-16.22"/>
<polygon fill="midnightblue" stroke="midnightblue" points="165.23,-19.69 174.77,-15.08 164.44,-12.73 165.23,-19.69"/>
</g>
</g>
</svg>
