<?xml version="1.0" encoding="UTF-8" standalone="no"?>
<!DOCTYPE svg PUBLIC "-//W3C//DTD SVG 1.1//EN"
 "http://www.w3.org/Graphics/SVG/1.1/DTD/svg11.dtd">
<!-- Generated by graphviz version 2.43.0 (0)
 -->
<!-- Title: ipc::transport::struc::Channel&lt; Channel_obj, Message_body, Struct_builder_config, Struct_reader_config &gt; Pages: 1 -->
<svg width="232pt" height="107pt"
 viewBox="0.00 0.00 232.00 107.00" xmlns="http://www.w3.org/2000/svg" xmlns:xlink="http://www.w3.org/1999/xlink">
<g id="graph0" class="graph" transform="scale(1 1) rotate(0) translate(4 103)">
<title>ipc::transport::struc::Channel&lt; Channel_obj, Message_body, Struct_builder_config, Struct_reader_config &gt;</title>
<polygon fill="white" stroke="transparent" points="-4,4 -4,-103 228,-103 228,4 -4,4"/>
<!-- Node1 -->
<g id="node1" class="node">
<title>Node1</title>
<g id="a_node1"><a xlink:title="Owning and wrapping a pre&#45;connected transport::Channel peer (an endpoint of an established channel ov...">
<polygon fill="#bfbfbf" stroke="black" points="38,-0.5 38,-44.5 181,-44.5 181,-0.5 38,-0.5"/>
<text text-anchor="start" x="46" y="-34.1" font-family="Helvetica,sans-Serif" font-size="8.00">ipc::transport::struc</text>
<text text-anchor="start" x="46" y="-25.1" font-family="Helvetica,sans-Serif" font-size="8.00">::Channel&lt; Channel_obj,</text>
<text text-anchor="start" x="46" y="-16.1" font-family="Helvetica,sans-Serif" font-size="8.00"> Message_body, Struct_builder</text>
<text text-anchor="middle" x="109.5" y="-7.1" font-family="Helvetica,sans-Serif" font-size="8.00">_config, Struct_reader_config &gt;</text>
</a>
</g>
</g>
<!-- Node2 -->
<g id="node2" class="node">
<title>Node2</title>
<g id="a_node2"><a xlink:title=" ">
<polygon fill="white" stroke="#bfbfbf" points="0,-81.5 0,-98.5 99,-98.5 99,-81.5 0,-81.5"/>
<text text-anchor="middle" x="49.5" y="-88.1" font-family="Helvetica,sans-Serif" font-size="8.00">boost::noncopyable</text>
</a>
</g>
</g>
<!-- Node2&#45;&gt;Node1 -->
<g id="edge1" class="edge">
<title>Node2&#45;&gt;Node1</title>
<path fill="none" stroke="#8b1a1a" d="M63.24,-74C71.22,-65.29 81.39,-54.18 90.17,-44.6"/>
<polygon fill="#8b1a1a" stroke="#8b1a1a" points="60.56,-71.75 56.38,-81.49 65.72,-76.48 60.56,-71.75"/>
</g>
<!-- Node3 -->
<g id="node3" class="node">
<title>Node3</title>
<g id="a_node3"><a xlink:title=" ">
<polygon fill="white" stroke="#bfbfbf" points="117,-81.5 117,-98.5 224,-98.5 224,-81.5 117,-81.5"/>
<text text-anchor="middle" x="170.5" y="-88.1" font-family="Helvetica,sans-Serif" font-size="8.00">flow::log::Log_context</text>
</a>
</g>
</g>
<!-- Node3&#45;&gt;Node1 -->
<g id="edge2" class="edge">
<title>Node3&#45;&gt;Node1</title>
<path fill="none" stroke="midnightblue" d="M156.53,-74C148.42,-65.29 138.08,-54.18 129.15,-44.6"/>
<polygon fill="midnightblue" stroke="midnightblue" points="154.13,-76.55 163.5,-81.49 159.25,-71.78 154.13,-76.55"/>
</g>
</g>
</svg>
