<?xml version="1.0" encoding="UTF-8" standalone="no"?>
<!DOCTYPE svg PUBLIC "-//W3C//DTD SVG 1.1//EN"
 "http://www.w3.org/Graphics/SVG/1.1/DTD/svg11.dtd">
<!-- Generated by graphviz version 2.43.0 (0)
 -->
<!-- Title: ipc::transport::sync_io::Blob_stream_mq_sender_impl::absolute_name Pages: 1 -->
<svg width="310pt" height="44pt"
 viewBox="0.00 0.00 310.00 44.00" xmlns="http://www.w3.org/2000/svg" xmlns:xlink="http://www.w3.org/1999/xlink">
<g id="graph0" class="graph" transform="scale(1 1) rotate(0) translate(4 40)">
<title>ipc::transport::sync_io::Blob_stream_mq_sender_impl::absolute_name</title>
<polygon fill="white" stroke="transparent" points="-4,4 -4,-40 306,-40 306,4 -4,4"/>
<!-- Node1 -->
<g id="node1" class="node">
<title>Node1</title>
<g id="a_node1"><a xlink:title="See Blob_stream_mq_sender counterpart, but assuming PEER state.">
<polygon fill="#bfbfbf" stroke="black" points="169,-0.5 169,-35.5 302,-35.5 302,-0.5 169,-0.5"/>
<text text-anchor="start" x="177" y="-25.1" font-family="Helvetica,sans-Serif" font-size="8.00">ipc::transport::sync</text>
<text text-anchor="start" x="177" y="-16.1" font-family="Helvetica,sans-Serif" font-size="8.00">_io::Blob_stream_mq_sender</text>
<text text-anchor="middle" x="235.5" y="-7.1" font-family="Helvetica,sans-Serif" font-size="8.00">_impl::absolute_name</text>
</a>
</g>
</g>
<!-- Node2 -->
<g id="node2" class="node">
<title>Node2</title>
<g id="a_node2"><a xlink:href="classipc_1_1transport_1_1sync__io_1_1Blob__stream__mq__sender__impl.html#a8bc3464c81b40649e99da6ce2ee5f87c" target="_top" xlink:title="Prints string representation of the given Blob_stream_mq_sender to the given ostream.">
<polygon fill="white" stroke="black" points="0,-0.5 0,-35.5 133,-35.5 133,-0.5 0,-0.5"/>
<text text-anchor="start" x="8" y="-25.1" font-family="Helvetica,sans-Serif" font-size="8.00">ipc::transport::sync</text>
<text text-anchor="start" x="8" y="-16.1" font-family="Helvetica,sans-Serif" font-size="8.00">_io::Blob_stream_mq_sender</text>
<text text-anchor="middle" x="66.5" y="-7.1" font-family="Helvetica,sans-Serif" font-size="8.00">_impl::operator&lt;&lt;</text>
</a>
</g>
</g>
<!-- Node1&#45;&gt;Node2 -->
<g id="edge1" class="edge">
<title>Node1&#45;&gt;Node2</title>
<path fill="none" stroke="midnightblue" d="M158.93,-18C150.32,-18 141.58,-18 133.11,-18"/>
<polygon fill="midnightblue" stroke="midnightblue" points="158.98,-21.5 168.98,-18 158.98,-14.5 158.98,-21.5"/>
</g>
</g>
</svg>
