<?xml version="1.0" encoding="UTF-8" standalone="no"?>
<!DOCTYPE svg PUBLIC "-//W3C//DTD SVG 1.1//EN"
 "http://www.w3.org/Graphics/SVG/1.1/DTD/svg11.dtd">
<!-- Generated by graphviz version 2.43.0 (0)
 -->
<!-- Title: ipc::transport::Blob_stream_mq_sender_impl::operator&lt;&lt; Pages: 1 -->
<svg width="282pt" height="98pt"
 viewBox="0.00 0.00 282.00 98.00" xmlns="http://www.w3.org/2000/svg" xmlns:xlink="http://www.w3.org/1999/xlink">
<g id="graph0" class="graph" transform="scale(1 1) rotate(0) translate(4 94)">
<title>ipc::transport::Blob_stream_mq_sender_impl::operator&lt;&lt;</title>
<polygon fill="white" stroke="transparent" points="-4,4 -4,-94 278,-94 278,4 -4,4"/>
<!-- Node1 -->
<g id="node1" class="node">
<title>Node1</title>
<g id="a_node1"><a xlink:title="Prints string representation of the given Blob_stream_mq_sender to the given ostream.">
<polygon fill="#bfbfbf" stroke="black" points="0,-27.5 0,-62.5 119,-62.5 119,-27.5 0,-27.5"/>
<text text-anchor="start" x="8" y="-52.1" font-family="Helvetica,sans-Serif" font-size="8.00">ipc::transport::Blob</text>
<text text-anchor="start" x="8" y="-43.1" font-family="Helvetica,sans-Serif" font-size="8.00">_stream_mq_sender_impl</text>
<text text-anchor="middle" x="59.5" y="-34.1" font-family="Helvetica,sans-Serif" font-size="8.00">::operator&lt;&lt;</text>
</a>
</g>
</g>
<!-- Node2 -->
<g id="node2" class="node">
<title>Node2</title>
<g id="a_node2"><a xlink:href="classipc_1_1transport_1_1Blob__stream__mq__sender__impl.html#a6cf65965010b3d9dc82a4e1a0e51269a" target="_top" xlink:title="See Blob_stream_mq_sender counterpart, but assuming PEER state.">
<polygon fill="white" stroke="black" points="155,-54.5 155,-89.5 274,-89.5 274,-54.5 155,-54.5"/>
<text text-anchor="start" x="163" y="-79.1" font-family="Helvetica,sans-Serif" font-size="8.00">ipc::transport::Blob</text>
<text text-anchor="start" x="163" y="-70.1" font-family="Helvetica,sans-Serif" font-size="8.00">_stream_mq_sender_impl</text>
<text text-anchor="middle" x="214.5" y="-61.1" font-family="Helvetica,sans-Serif" font-size="8.00">::absolute_name</text>
</a>
</g>
</g>
<!-- Node1&#45;&gt;Node2 -->
<g id="edge1" class="edge">
<title>Node1&#45;&gt;Node2</title>
<path fill="none" stroke="midnightblue" d="M119.22,-55.36C127.64,-56.85 136.36,-58.39 144.95,-59.9"/>
<polygon fill="midnightblue" stroke="midnightblue" points="144.48,-63.37 154.94,-61.67 145.7,-56.48 144.48,-63.37"/>
</g>
<!-- Node3 -->
<g id="node3" class="node">
<title>Node3</title>
<g id="a_node3"><a xlink:href="classipc_1_1transport_1_1Blob__stream__mq__sender__impl.html#a63ec0904508b7691bf37cbc15911b853" target="_top" xlink:title="See Blob_stream_mq_sender counterpart, but assuming PEER state.">
<polygon fill="white" stroke="black" points="155,-0.5 155,-35.5 274,-35.5 274,-0.5 155,-0.5"/>
<text text-anchor="start" x="163" y="-25.1" font-family="Helvetica,sans-Serif" font-size="8.00">ipc::transport::Blob</text>
<text text-anchor="start" x="163" y="-16.1" font-family="Helvetica,sans-Serif" font-size="8.00">_stream_mq_sender_impl</text>
<text text-anchor="middle" x="214.5" y="-7.1" font-family="Helvetica,sans-Serif" font-size="8.00">::nickname</text>
</a>
</g>
</g>
<!-- Node1&#45;&gt;Node3 -->
<g id="edge2" class="edge">
<title>Node1&#45;&gt;Node3</title>
<path fill="none" stroke="midnightblue" d="M119.22,-34.64C127.64,-33.15 136.36,-31.61 144.95,-30.1"/>
<polygon fill="midnightblue" stroke="midnightblue" points="145.7,-33.52 154.94,-28.33 144.48,-26.63 145.7,-33.52"/>
</g>
</g>
</svg>
