<?xml version="1.0" encoding="UTF-8" standalone="no"?>
<!DOCTYPE svg PUBLIC "-//W3C//DTD SVG 1.1//EN"
 "http://www.w3.org/Graphics/SVG/1.1/DTD/svg11.dtd">
<!-- Generated by graphviz version 2.43.0 (0)
 -->
<!-- Title: ipc::transport::sync_io::Native_socket_stream::receive_meta_blob_max_size Pages: 1 -->
<svg width="323pt" height="44pt"
 viewBox="0.00 0.00 323.00 44.00" xmlns="http://www.w3.org/2000/svg" xmlns:xlink="http://www.w3.org/1999/xlink">
<g id="graph0" class="graph" transform="scale(1 1) rotate(0) translate(4 40)">
<title>ipc::transport::sync_io::Native_socket_stream::receive_meta_blob_max_size</title>
<polygon fill="white" stroke="transparent" points="-4,4 -4,-40 319,-40 319,4 -4,4"/>
<!-- Node1 -->
<g id="node1" class="node">
<title>Node1</title>
<g id="a_node1"><a xlink:title="Implements Native_handle_receiver API per contract.">
<polygon fill="#bfbfbf" stroke="black" points="175,-0.5 175,-35.5 315,-35.5 315,-0.5 175,-0.5"/>
<text text-anchor="start" x="183" y="-25.1" font-family="Helvetica,sans-Serif" font-size="8.00">ipc::transport::sync</text>
<text text-anchor="start" x="183" y="-16.1" font-family="Helvetica,sans-Serif" font-size="8.00">_io::Native_socket_stream</text>
<text text-anchor="middle" x="245" y="-7.1" font-family="Helvetica,sans-Serif" font-size="8.00">::receive_meta_blob_max_size</text>
</a>
</g>
</g>
<!-- Node2 -->
<g id="node2" class="node">
<title>Node2</title>
<g id="a_node2"><a xlink:href="classipc_1_1transport_1_1sync__io_1_1Native__socket__stream_1_1Impl.html#ace12ebbb258f933e517255294f372795" target="_top" xlink:title="See Native_socket_stream counterpart.">
<polygon fill="white" stroke="black" points="0,-0.5 0,-35.5 139,-35.5 139,-0.5 0,-0.5"/>
<text text-anchor="start" x="8" y="-25.1" font-family="Helvetica,sans-Serif" font-size="8.00">ipc::transport::sync</text>
<text text-anchor="start" x="8" y="-16.1" font-family="Helvetica,sans-Serif" font-size="8.00">_io::Native_socket_stream</text>
<text text-anchor="middle" x="69.5" y="-7.1" font-family="Helvetica,sans-Serif" font-size="8.00">::Impl::receive_blob_max_size</text>
</a>
</g>
</g>
<!-- Node1&#45;&gt;Node2 -->
<g id="edge1" class="edge">
<title>Node1&#45;&gt;Node2</title>
<path fill="none" stroke="midnightblue" d="M164.88,-18C156.25,-18 147.53,-18 139.05,-18"/>
<polygon fill="midnightblue" stroke="midnightblue" points="164.93,-21.5 174.93,-18 164.93,-14.5 164.93,-21.5"/>
</g>
</g>
</svg>
