<?xml version="1.0" encoding="UTF-8" standalone="no"?>
<!DOCTYPE svg PUBLIC "-//W3C//DTD SVG 1.1//EN"
 "http://www.w3.org/Graphics/SVG/1.1/DTD/svg11.dtd">
<!-- Generated by graphviz version 2.43.0 (0)
 -->
<!-- Title: ipc::session::shm::arena_lend::jemalloc::Server_session_impl&lt; S_MQ_TYPE_OR_NONE, S_TRANSMIT_NATIVE_HANDLES, Mdt_payload &gt; Pages: 1 -->
<svg width="1477pt" height="1137pt"
 viewBox="0.00 0.00 1477.00 1136.50" xmlns="http://www.w3.org/2000/svg" xmlns:xlink="http://www.w3.org/1999/xlink">
<g id="graph0" class="graph" transform="scale(1 1) rotate(0) translate(4 1132.5)">
<title>ipc::session::shm::arena_lend::jemalloc::Server_session_impl&lt; S_MQ_TYPE_OR_NONE, S_TRANSMIT_NATIVE_HANDLES, Mdt_payload &gt;</title>
<polygon fill="white" stroke="transparent" points="-4,4 -4,-1132.5 1473,-1132.5 1473,4 -4,4"/>
<!-- Node1 -->
<g id="node1" class="node">
<title>Node1</title>
<g id="a_node1"><a xlink:title="Core internally&#45;used implementation of shm::arena_lend::jemalloc::Server_session: it is to the latter...">
<polygon fill="#bfbfbf" stroke="black" points="1331,-67.5 1331,-129.5 1469,-129.5 1469,-67.5 1331,-67.5"/>
<text text-anchor="start" x="1339" y="-119.1" font-family="Helvetica,sans-Serif" font-size="8.00">ipc::session::shm::</text>
<text text-anchor="start" x="1339" y="-110.1" font-family="Helvetica,sans-Serif" font-size="8.00">arena_lend::jemalloc</text>
<text text-anchor="start" x="1339" y="-101.1" font-family="Helvetica,sans-Serif" font-size="8.00">::Server_session_impl</text>
<text text-anchor="start" x="1339" y="-92.1" font-family="Helvetica,sans-Serif" font-size="8.00">&lt; S_MQ_TYPE_OR_NONE, S</text>
<text text-anchor="start" x="1339" y="-83.1" font-family="Helvetica,sans-Serif" font-size="8.00">_TRANSMIT_NATIVE_HANDLES,</text>
<text text-anchor="middle" x="1400" y="-74.1" font-family="Helvetica,sans-Serif" font-size="8.00"> Mdt_payload &gt;</text>
</a>
</g>
</g>
<!-- Node2 -->
<g id="node2" class="node">
<title>Node2</title>
<g id="a_node2"><a xlink:href="classipc_1_1session_1_1shm_1_1arena__lend_1_1jemalloc_1_1Session__impl.html" target="_top" xlink:title=" ">
<polygon fill="white" stroke="black" points="1106,-14 1106,-103 1294,-103 1294,-14 1106,-14"/>
<text text-anchor="start" x="1114" y="-92.6" font-family="Helvetica,sans-Serif" font-size="8.00">ipc::session::shm::</text>
<text text-anchor="start" x="1114" y="-83.6" font-family="Helvetica,sans-Serif" font-size="8.00">arena_lend::jemalloc</text>
<text text-anchor="start" x="1114" y="-74.6" font-family="Helvetica,sans-Serif" font-size="8.00">::Session_impl&lt; session</text>
<text text-anchor="start" x="1114" y="-65.6" font-family="Helvetica,sans-Serif" font-size="8.00">::Server_session_impl&lt;</text>
<text text-anchor="start" x="1114" y="-56.6" font-family="Helvetica,sans-Serif" font-size="8.00"> S_MQ_TYPE_OR_NONE, S_TRANSMIT</text>
<text text-anchor="start" x="1114" y="-47.6" font-family="Helvetica,sans-Serif" font-size="8.00">_NATIVE_HANDLES, Mdt_payload,</text>
<text text-anchor="start" x="1114" y="-38.6" font-family="Helvetica,sans-Serif" font-size="8.00"> session::schema::ShmType::JEMALLOC,</text>
<text text-anchor="start" x="1114" y="-29.6" font-family="Helvetica,sans-Serif" font-size="8.00"> transport::struc::shm::Builder_base</text>
<text text-anchor="middle" x="1200" y="-20.6" font-family="Helvetica,sans-Serif" font-size="8.00">::S_MAX_SERIALIZATION_SEGMENT_SZ &gt; &gt;</text>
</a>
</g>
</g>
<!-- Node2&#45;&gt;Node1 -->
<g id="edge1" class="edge">
<title>Node2&#45;&gt;Node1</title>
<path fill="none" stroke="midnightblue" d="M1304.04,-79.32C1313.11,-81.15 1322.13,-82.97 1330.81,-84.72"/>
<polygon fill="midnightblue" stroke="midnightblue" points="1304.7,-75.88 1294.2,-77.33 1303.31,-82.74 1304.7,-75.88"/>
</g>
<!-- Node3 -->
<g id="node3" class="node">
<title>Node3</title>
<g id="a_node3"><a xlink:href="classipc_1_1session_1_1Server__session__impl.html" target="_top" xlink:title=" ">
<polygon fill="white" stroke="black" points="782,-697 782,-768 1002,-768 1002,-697 782,-697"/>
<text text-anchor="start" x="790" y="-757.6" font-family="Helvetica,sans-Serif" font-size="8.00">ipc::session::Server</text>
<text text-anchor="start" x="790" y="-748.6" font-family="Helvetica,sans-Serif" font-size="8.00">_session_impl&lt; S_MQ_TYPE</text>
<text text-anchor="start" x="790" y="-739.6" font-family="Helvetica,sans-Serif" font-size="8.00">_OR_NONE, S_TRANSMIT_NATIVE</text>
<text text-anchor="start" x="790" y="-730.6" font-family="Helvetica,sans-Serif" font-size="8.00">_HANDLES, Mdt_payload, session</text>
<text text-anchor="start" x="790" y="-721.6" font-family="Helvetica,sans-Serif" font-size="8.00">::schema::ShmType::JEMALLOC, transport</text>
<text text-anchor="start" x="790" y="-712.6" font-family="Helvetica,sans-Serif" font-size="8.00">::struc::shm::Builder_base::S_MAX_SERIALIZATION</text>
<text text-anchor="middle" x="892" y="-703.6" font-family="Helvetica,sans-Serif" font-size="8.00">_SEGMENT_SZ &gt;</text>
</a>
</g>
</g>
<!-- Node3&#45;&gt;Node2 -->
<g id="edge2" class="edge">
<title>Node3&#45;&gt;Node2</title>
<path fill="none" stroke="midnightblue" d="M898.42,-686.61C913.39,-577.22 964.03,-296.9 1106,-117.5 1110.03,-112.4 1114.64,-107.62 1119.59,-103.15"/>
<polygon fill="midnightblue" stroke="midnightblue" points="894.94,-686.27 897.08,-696.65 901.87,-687.2 894.94,-686.27"/>
</g>
<!-- Node4 -->
<g id="node4" class="node">
<title>Node4</title>
<g id="a_node4"><a xlink:href="classipc_1_1session_1_1Session__base.html" target="_top" xlink:title="Internal type containing data and types common to internal types Server_session_impl and Client_sessi...">
<polygon fill="white" stroke="black" points="489,-710.5 489,-754.5 635,-754.5 635,-710.5 489,-710.5"/>
<text text-anchor="start" x="497" y="-744.1" font-family="Helvetica,sans-Serif" font-size="8.00">ipc::session::Session</text>
<text text-anchor="start" x="497" y="-735.1" font-family="Helvetica,sans-Serif" font-size="8.00">_base&lt; S_MQ_TYPE_OR_NONE,</text>
<text text-anchor="start" x="497" y="-726.1" font-family="Helvetica,sans-Serif" font-size="8.00"> S_TRANSMIT_NATIVE_HANDLES,</text>
<text text-anchor="middle" x="562" y="-717.1" font-family="Helvetica,sans-Serif" font-size="8.00"> Mdt_payload &gt;</text>
</a>
</g>
</g>
<!-- Node4&#45;&gt;Node3 -->
<g id="edge3" class="edge">
<title>Node4&#45;&gt;Node3</title>
<path fill="none" stroke="midnightblue" d="M645.4,-732.5C686.68,-732.5 737.22,-732.5 781.69,-732.5"/>
<polygon fill="midnightblue" stroke="midnightblue" points="645.39,-729 635.39,-732.5 645.39,-736 645.39,-729"/>
</g>
<!-- Node5 -->
<g id="node5" class="node">
<title>Node5</title>
<g id="a_node5"><a xlink:title=" ">
<polygon fill="white" stroke="#bfbfbf" points="191.5,-780 191.5,-797 290.5,-797 290.5,-780 191.5,-780"/>
<text text-anchor="middle" x="241" y="-786.6" font-family="Helvetica,sans-Serif" font-size="8.00">boost::noncopyable</text>
</a>
</g>
</g>
<!-- Node5&#45;&gt;Node4 -->
<g id="edge4" class="edge">
<title>Node5&#45;&gt;Node4</title>
<path fill="none" stroke="#8b1a1a" d="M300.8,-783.26C347.3,-778.53 413.71,-770.46 471,-758.5 476.73,-757.3 482.63,-755.93 488.54,-754.45"/>
<polygon fill="#8b1a1a" stroke="#8b1a1a" points="300.21,-779.81 290.61,-784.28 300.9,-786.77 300.21,-779.81"/>
</g>
<!-- Node6 -->
<g id="node6" class="node">
<title>Node6</title>
<g id="a_node6"><a xlink:title=" ">
<polygon fill="white" stroke="#bfbfbf" points="190.5,-917 190.5,-934 291.5,-934 291.5,-917 190.5,-917"/>
<text text-anchor="middle" x="241" y="-923.6" font-family="Helvetica,sans-Serif" font-size="8.00">static constexpr bool</text>
</a>
</g>
</g>
<!-- Node6&#45;&gt;Node3 -->
<g id="edge19" class="edge">
<title>Node6&#45;&gt;Node3</title>
<path fill="none" stroke="#9a32cd" stroke-dasharray="5,2" d="M301.76,-929.5C348.25,-931.4 414.19,-931.44 471,-921.5 610.8,-897.03 758.65,-815.63 836.18,-768.01"/>
<polygon fill="#9a32cd" stroke="#9a32cd" points="301.71,-925.99 291.56,-929.04 301.39,-932.99 301.71,-925.99"/>
<text text-anchor="middle" x="562" y="-938.1" font-family="Helvetica,sans-Serif" font-size="8.00"> S_MQS_ENABLED</text>
<text text-anchor="middle" x="562" y="-929.1" font-family="Helvetica,sans-Serif" font-size="8.00">S_SHM_ENABLED</text>
<text text-anchor="middle" x="562" y="-920.1" font-family="Helvetica,sans-Serif" font-size="8.00">S_SOCKET_STREAM_ENABLED</text>
</g>
<!-- Node6&#45;&gt;Node4 -->
<g id="edge5" class="edge">
<title>Node6&#45;&gt;Node4</title>
<path fill="none" stroke="#9a32cd" stroke-dasharray="5,2" d="M287.07,-914.43C349.37,-898.87 455.88,-871.23 471,-860.5 509.77,-832.98 537.59,-783.27 551.31,-754.57"/>
<polygon fill="#9a32cd" stroke="#9a32cd" points="285.96,-911.1 277.1,-916.91 287.65,-917.9 285.96,-911.1"/>
<text text-anchor="middle" x="405" y="-911.1" font-family="Helvetica,sans-Serif" font-size="8.00"> S_MQS_ENABLED</text>
<text text-anchor="middle" x="405" y="-902.1" font-family="Helvetica,sans-Serif" font-size="8.00">S_SOCKET_STREAM_ENABLED</text>
</g>
<!-- Node7 -->
<g id="node7" class="node">
<title>Node7</title>
<g id="a_node7"><a xlink:href="structipc_1_1session_1_1Server__app.html" target="_top" xlink:title="An App that is used as a server in at least one client&#45;server IPC split.">
<polygon fill="white" stroke="red" points="182,-744 182,-761 300,-761 300,-744 182,-744"/>
<text text-anchor="middle" x="241" y="-750.6" font-family="Helvetica,sans-Serif" font-size="8.00">ipc::session::Server_app</text>
</a>
</g>
</g>
<!-- Node7&#45;&gt;Node4 -->
<g id="edge6" class="edge">
<title>Node7&#45;&gt;Node4</title>
<path fill="none" stroke="#9a32cd" stroke-dasharray="5,2" d="M310.37,-748.21C362.88,-744.92 435.24,-740.38 488.71,-737.03"/>
<polygon fill="#9a32cd" stroke="#9a32cd" points="309.9,-744.74 300.14,-748.85 310.34,-751.72 309.9,-744.74"/>
<text text-anchor="middle" x="405" y="-748.1" font-family="Helvetica,sans-Serif" font-size="8.00"> m_srv_app_ref</text>
</g>
<!-- Node16 -->
<g id="node8" class="node">
<title>Node16</title>
<g id="a_node8"><a xlink:title=" ">
<polygon fill="white" stroke="#bfbfbf" points="205.5,-708 205.5,-725 276.5,-725 276.5,-708 205.5,-708"/>
<text text-anchor="middle" x="241" y="-714.6" font-family="Helvetica,sans-Serif" font-size="8.00">Fine_duration</text>
</a>
</g>
</g>
<!-- Node16&#45;&gt;Node4 -->
<g id="edge7" class="edge">
<title>Node16&#45;&gt;Node4</title>
<path fill="none" stroke="#9a32cd" stroke-dasharray="5,2" d="M286.89,-714.57C333.12,-713.08 407.24,-712.08 471,-717.5 476.84,-718 482.87,-718.66 488.92,-719.44"/>
<polygon fill="#9a32cd" stroke="#9a32cd" points="286.48,-711.08 276.61,-714.93 286.72,-718.08 286.48,-711.08"/>
<text text-anchor="middle" x="405" y="-720.1" font-family="Helvetica,sans-Serif" font-size="8.00"> S_OPEN_CHANNEL_TIMEOUT</text>
</g>
<!-- Node17 -->
<g id="node9" class="node">
<title>Node17</title>
<g id="a_node9"><a xlink:title=" ">
<polygon fill="white" stroke="#bfbfbf" points="187.5,-672 187.5,-689 294.5,-689 294.5,-672 187.5,-672"/>
<text text-anchor="middle" x="241" y="-678.6" font-family="Helvetica,sans-Serif" font-size="8.00">static constexpr size_t</text>
</a>
</g>
</g>
<!-- Node17&#45;&gt;Node4 -->
<g id="edge8" class="edge">
<title>Node17&#45;&gt;Node4</title>
<path fill="none" stroke="#9a32cd" stroke-dasharray="5,2" d="M305.1,-681.2C351.48,-682.8 415.77,-687.32 471,-699.5 483.19,-702.19 495.96,-706.13 507.93,-710.37"/>
<polygon fill="#9a32cd" stroke="#9a32cd" points="305,-677.69 294.89,-680.88 304.78,-684.69 305,-677.69"/>
<text text-anchor="middle" x="405" y="-702.1" font-family="Helvetica,sans-Serif" font-size="8.00"> S_MQS_MAX_MSG_SZ</text>
</g>
<!-- Node18 -->
<g id="node10" class="node">
<title>Node18</title>
<g id="a_node10"><a xlink:title=" ">
<polygon fill="white" stroke="orangered" points="192,-618 192,-653 290,-653 290,-618 192,-618"/>
<text text-anchor="start" x="200" y="-642.6" font-family="Helvetica,sans-Serif" font-size="8.00">std::atomic&lt; const</text>
<text text-anchor="start" x="200" y="-633.6" font-family="Helvetica,sans-Serif" font-size="8.00"> ipc::session::Client</text>
<text text-anchor="middle" x="241" y="-624.6" font-family="Helvetica,sans-Serif" font-size="8.00">_app * &gt;</text>
</a>
</g>
</g>
<!-- Node18&#45;&gt;Node4 -->
<g id="edge9" class="edge">
<title>Node18&#45;&gt;Node4</title>
<path fill="none" stroke="#9a32cd" stroke-dasharray="5,2" d="M300.25,-636.79C347.71,-639.55 415.69,-647.47 471,-669.5 495.1,-679.1 518.99,-696.28 536.1,-710.28"/>
<polygon fill="#9a32cd" stroke="#9a32cd" points="300.32,-633.29 290.15,-636.26 299.95,-640.28 300.32,-633.29"/>
<text text-anchor="middle" x="405" y="-672.1" font-family="Helvetica,sans-Serif" font-size="8.00"> m_cli_app_ptr</text>
</g>
<!-- Node20 -->
<g id="node11" class="node">
<title>Node20</title>
<g id="a_node11"><a xlink:href="classipc_1_1util_1_1Shared__name.html" target="_top" xlink:title="String&#45;wrapping abstraction representing a name uniquely distinguishing a kernel&#45;persistent entity fr...">
<polygon fill="white" stroke="red" points="186,-411 186,-428 296,-428 296,-411 186,-411"/>
<text text-anchor="middle" x="241" y="-417.6" font-family="Helvetica,sans-Serif" font-size="8.00">ipc::util::Shared_name</text>
</a>
</g>
</g>
<!-- Node20&#45;&gt;Node4 -->
<g id="edge10" class="edge">
<title>Node20&#45;&gt;Node4</title>
<path fill="none" stroke="#9a32cd" stroke-dasharray="5,2" d="M269.56,-432.49C315.87,-455.4 410.18,-506.84 471,-572.5 510.2,-614.82 538.96,-677.28 552.45,-710.25"/>
<polygon fill="#9a32cd" stroke="#9a32cd" points="270.96,-429.28 260.44,-428.04 267.89,-435.57 270.96,-429.28"/>
<text text-anchor="middle" x="405" y="-584.1" font-family="Helvetica,sans-Serif" font-size="8.00"> m_cli_namespace</text>
<text text-anchor="middle" x="405" y="-575.1" font-family="Helvetica,sans-Serif" font-size="8.00">m_srv_namespace</text>
</g>
<!-- Node20&#45;&gt;Node20 -->
<g id="edge11" class="edge">
<title>Node20&#45;&gt;Node20</title>
<path fill="none" stroke="#9a32cd" stroke-dasharray="5,2" d="M216.63,-436.6C216.84,-442.12 224.96,-446.5 241,-446.5 264.87,-446.5 271.21,-436.79 260.02,-428.07"/>
<polygon fill="#9a32cd" stroke="#9a32cd" points="219.63,-438.4 221.98,-428.07 213.7,-434.68 219.63,-438.4"/>
<text text-anchor="middle" x="241" y="-512.1" font-family="Helvetica,sans-Serif" font-size="8.00"> S_1ST_OR_ONLY</text>
<text text-anchor="middle" x="241" y="-503.1" font-family="Helvetica,sans-Serif" font-size="8.00">S_EMPTY</text>
<text text-anchor="start" x="202.5" y="-494.1" font-family="Helvetica,sans-Serif" font-size="8.00">S_RESOURCE_TYPE</text>
<text text-anchor="middle" x="241" y="-485.1" font-family="Helvetica,sans-Serif" font-size="8.00">_ID_MUTEX</text>
<text text-anchor="start" x="202.5" y="-476.1" font-family="Helvetica,sans-Serif" font-size="8.00">S_RESOURCE_TYPE</text>
<text text-anchor="middle" x="241" y="-467.1" font-family="Helvetica,sans-Serif" font-size="8.00">_ID_SHM</text>
<text text-anchor="middle" x="241" y="-458.1" font-family="Helvetica,sans-Serif" font-size="8.00">S_ROOT_MAGIC</text>
<text text-anchor="middle" x="241" y="-449.1" font-family="Helvetica,sans-Serif" font-size="8.00">S_SENTINEL</text>
</g>
<!-- Node32 -->
<g id="node23" class="node">
<title>Node32</title>
<g id="a_node23"><a xlink:href="classipc_1_1transport_1_1sync__io_1_1Native__socket__stream.html" target="_top" xlink:title="Implements both sync_io::Native_handle_sender and sync_io::Native_handle_receiver concepts by using a...">
<polygon fill="white" stroke="black" points="500.5,-431.5 500.5,-457.5 623.5,-457.5 623.5,-431.5 500.5,-431.5"/>
<text text-anchor="start" x="508.5" y="-447.1" font-family="Helvetica,sans-Serif" font-size="8.00">ipc::transport::sync</text>
<text text-anchor="middle" x="562" y="-438.1" font-family="Helvetica,sans-Serif" font-size="8.00">_io::Native_socket_stream</text>
</a>
</g>
</g>
<!-- Node20&#45;&gt;Node32 -->
<g id="edge28" class="edge">
<title>Node20&#45;&gt;Node32</title>
<path fill="none" stroke="#9a32cd" stroke-dasharray="5,2" d="M306.38,-424.55C363.02,-428.98 444.86,-435.4 500.35,-439.75"/>
<polygon fill="#9a32cd" stroke="#9a32cd" points="306.36,-421.03 296.11,-423.74 305.81,-428.01 306.36,-421.03"/>
<text text-anchor="middle" x="405" y="-439.1" font-family="Helvetica,sans-Serif" font-size="8.00"> S_RESOURCE_TYPE_ID</text>
</g>
<!-- Node21 -->
<g id="node12" class="node">
<title>Node21</title>
<g id="a_node12"><a xlink:title=" ">
<polygon fill="white" stroke="#bfbfbf" points="9.5,-463 9.5,-480 49.5,-480 49.5,-463 9.5,-463"/>
<text text-anchor="middle" x="29.5" y="-469.6" font-family="Helvetica,sans-Serif" font-size="8.00">size_t</text>
</a>
</g>
</g>
<!-- Node21&#45;&gt;Node20 -->
<g id="edge12" class="edge">
<title>Node21&#45;&gt;Node20</title>
<path fill="none" stroke="#9a32cd" stroke-dasharray="5,2" d="M59.82,-464.22C98.09,-454.72 164.95,-438.13 205.58,-428.04"/>
<polygon fill="#9a32cd" stroke="#9a32cd" points="58.7,-460.9 49.83,-466.7 60.38,-467.69 58.7,-460.9"/>
<text text-anchor="middle" x="110" y="-461.1" font-family="Helvetica,sans-Serif" font-size="8.00"> S_MAX_LENGTH</text>
</g>
<!-- Node21&#45;&gt;Node32 -->
<g id="edge30" class="edge">
<title>Node21&#45;&gt;Node32</title>
<path fill="none" stroke="#9a32cd" stroke-dasharray="5,2" d="M56.26,-484.83C126.08,-519.02 323.64,-602.88 471,-539.5 510.03,-522.71 540.06,-479.76 553.42,-457.83"/>
<polygon fill="#9a32cd" stroke="#9a32cd" points="57.41,-481.49 46.9,-480.16 54.29,-487.76 57.41,-481.49"/>
<text text-anchor="middle" x="241" y="-563.1" font-family="Helvetica,sans-Serif" font-size="8.00"> S_MAX_META_BLOB_LENGTH</text>
</g>
<!-- Node9 -->
<g id="node13" class="node">
<title>Node9</title>
<g id="a_node13"><a xlink:title=" ">
<polygon fill="white" stroke="red" points="0,-359 0,-376 59,-376 59,-359 0,-359"/>
<text text-anchor="middle" x="29.5" y="-365.6" font-family="Helvetica,sans-Serif" font-size="8.00">std::string</text>
</a>
</g>
</g>
<!-- Node9&#45;&gt;Node20 -->
<g id="edge13" class="edge">
<title>Node9&#45;&gt;Node20</title>
<path fill="none" stroke="#9a32cd" stroke-dasharray="5,2" d="M69.03,-377.87C94.97,-384.77 129.98,-393.93 161,-401.5 174.12,-404.7 188.51,-408.03 201.37,-410.95"/>
<polygon fill="#9a32cd" stroke="#9a32cd" points="69.77,-374.45 59.2,-375.25 67.96,-381.21 69.77,-374.45"/>
<text text-anchor="middle" x="110" y="-398.1" font-family="Helvetica,sans-Serif" font-size="8.00"> m_raw_name</text>
</g>
<!-- Node28 -->
<g id="node19" class="node">
<title>Node28</title>
<g id="a_node19"><a xlink:href="classipc_1_1transport_1_1Protocol__negotiator.html" target="_top" xlink:title="A simple state machine that, assuming the opposide side of a comm pathway uses an equivalent state ma...">
<polygon fill="white" stroke="black" points="506.5,-250.5 506.5,-276.5 617.5,-276.5 617.5,-250.5 506.5,-250.5"/>
<text text-anchor="start" x="514.5" y="-266.1" font-family="Helvetica,sans-Serif" font-size="8.00">ipc::transport::Protocol</text>
<text text-anchor="middle" x="562" y="-257.1" font-family="Helvetica,sans-Serif" font-size="8.00">_negotiator</text>
</a>
</g>
</g>
<!-- Node9&#45;&gt;Node28 -->
<g id="edge23" class="edge">
<title>Node9&#45;&gt;Node28</title>
<path fill="none" stroke="#9a32cd" stroke-dasharray="5,2" d="M43.41,-350.84C64.64,-324.99 109.71,-276.23 161,-257.5 222.73,-234.95 411.79,-249.02 506.19,-257.89"/>
<polygon fill="#9a32cd" stroke="#9a32cd" points="40.45,-348.95 36.93,-358.95 45.91,-353.33 40.45,-348.95"/>
<text text-anchor="middle" x="241" y="-260.1" font-family="Helvetica,sans-Serif" font-size="8.00"> m_nickname</text>
</g>
<!-- Node23 -->
<g id="node14" class="node">
<title>Node23</title>
<g id="a_node14"><a xlink:title=" ">
<polygon fill="white" stroke="#bfbfbf" points="205.5,-870 205.5,-887 276.5,-887 276.5,-870 205.5,-870"/>
<text text-anchor="middle" x="241" y="-876.6" font-family="Helvetica,sans-Serif" font-size="8.00">Task_asio_err</text>
</a>
</g>
</g>
<!-- Node23&#45;&gt;Node3 -->
<g id="edge26" class="edge">
<title>Node23&#45;&gt;Node3</title>
<path fill="none" stroke="#9a32cd" stroke-dasharray="5,2" d="M286.86,-876.73C333.29,-874.3 407.75,-868.76 471,-856.5 582.21,-834.95 706.25,-796.48 790.5,-768.08"/>
<polygon fill="#9a32cd" stroke="#9a32cd" points="286.64,-873.23 276.82,-877.23 286.99,-880.23 286.64,-873.23"/>
<text text-anchor="middle" x="562" y="-855.1" font-family="Helvetica,sans-Serif" font-size="8.00"> m_log_in_on_done_func</text>
</g>
<!-- Node23&#45;&gt;Node4 -->
<g id="edge14" class="edge">
<title>Node23&#45;&gt;Node4</title>
<path fill="none" stroke="#9a32cd" stroke-dasharray="5,2" d="M286.68,-871.59C298.16,-868.94 310.29,-865.34 321,-860.5 329.99,-856.43 329.91,-851.33 339,-847.5 393.87,-824.36 418.3,-852.23 471,-824.5 502.64,-807.85 529.88,-776.08 545.87,-754.59"/>
<polygon fill="#9a32cd" stroke="#9a32cd" points="285.86,-868.19 276.8,-873.69 287.31,-875.04 285.86,-868.19"/>
<text text-anchor="middle" x="405" y="-850.1" font-family="Helvetica,sans-Serif" font-size="8.00"> m_on_err_func</text>
</g>
<!-- Node24 -->
<g id="node15" class="node">
<title>Node24</title>
<g id="a_node15"><a xlink:title=" ">
<polygon fill="white" stroke="#bfbfbf" points="161,-816 161,-851 321,-851 321,-816 161,-816"/>
<text text-anchor="start" x="169" y="-840.6" font-family="Helvetica,sans-Serif" font-size="8.00">Function&lt; void(Channel</text>
<text text-anchor="start" x="169" y="-831.6" font-family="Helvetica,sans-Serif" font-size="8.00">_obj &amp;&amp;new_channel, Mdt</text>
<text text-anchor="middle" x="241" y="-822.6" font-family="Helvetica,sans-Serif" font-size="8.00">_reader_ptr &amp;&amp;new_channel_mdt)&gt;</text>
</a>
</g>
</g>
<!-- Node24&#45;&gt;Node4 -->
<g id="edge15" class="edge">
<title>Node24&#45;&gt;Node4</title>
<path fill="none" stroke="#9a32cd" stroke-dasharray="5,2" d="M311.47,-813.33C320.7,-810.9 330.05,-808.55 339,-806.5 397.12,-793.16 414.85,-802.58 471,-782.5 490.52,-775.52 510.83,-764.6 527.21,-754.74"/>
<polygon fill="#9a32cd" stroke="#9a32cd" points="310.3,-810.03 301.54,-816 312.11,-816.79 310.3,-810.03"/>
<text text-anchor="start" x="344.5" y="-818.1" font-family="Helvetica,sans-Serif" font-size="8.00"> m_on_passive_open_channel</text>
<text text-anchor="middle" x="405" y="-809.1" font-family="Helvetica,sans-Serif" font-size="8.00">_func_or_empty</text>
</g>
<!-- Node25 -->
<g id="node16" class="node">
<title>Node25</title>
<g id="a_node16"><a xlink:title=" ">
<polygon fill="white" stroke="#bfbfbf" points="211,-582 211,-599 271,-599 271,-582 211,-582"/>
<text text-anchor="middle" x="241" y="-588.6" font-family="Helvetica,sans-Serif" font-size="8.00">Error_code</text>
</a>
</g>
</g>
<!-- Node25&#45;&gt;Node3 -->
<g id="edge32" class="edge">
<title>Node25&#45;&gt;Node3</title>
<path fill="none" stroke="#9a32cd" stroke-dasharray="5,2" d="M281.29,-587.15C327.16,-584.08 405.15,-581.52 471,-592.5 592.49,-612.76 726.46,-662.51 809.67,-696.9"/>
<polygon fill="#9a32cd" stroke="#9a32cd" points="280.9,-583.67 271.17,-587.87 281.39,-590.65 280.9,-583.67"/>
<text text-anchor="middle" x="562" y="-635.1" font-family="Helvetica,sans-Serif" font-size="8.00"> m_pre_init_err_code</text>
</g>
<!-- Node25&#45;&gt;Node4 -->
<g id="edge16" class="edge">
<title>Node25&#45;&gt;Node4</title>
<path fill="none" stroke="#9a32cd" stroke-dasharray="5,2" d="M281.11,-591.52C337.77,-593.59 439.38,-599.73 471,-617.5 509.01,-638.87 536.57,-683.43 550.57,-710.38"/>
<polygon fill="#9a32cd" stroke="#9a32cd" points="281.19,-588.02 271.08,-591.17 280.95,-595.01 281.19,-588.02"/>
<text text-anchor="start" x="356.5" y="-629.1" font-family="Helvetica,sans-Serif" font-size="8.00"> m_peer_state_err_code</text>
<text text-anchor="middle" x="405" y="-620.1" font-family="Helvetica,sans-Serif" font-size="8.00">_or_ok</text>
</g>
<!-- Node26 -->
<g id="node17" class="node">
<title>Node26</title>
<g id="a_node17"><a xlink:title=" ">
<polygon fill="white" stroke="#bfbfbf" points="187.5,-148 187.5,-165 294.5,-165 294.5,-148 187.5,-148"/>
<text text-anchor="middle" x="241" y="-154.6" font-family="Helvetica,sans-Serif" font-size="8.00">flow::log::Log_context</text>
</a>
</g>
</g>
<!-- Node26&#45;&gt;Node3 -->
<g id="edge17" class="edge">
<title>Node26&#45;&gt;Node3</title>
<path fill="none" stroke="midnightblue" d="M304.9,-150.69C351.45,-148.11 416.03,-148.17 471,-161.5 618.86,-197.34 675.73,-214.58 764,-338.5 845.83,-453.38 876.83,-623.67 886.85,-696.9"/>
<polygon fill="midnightblue" stroke="midnightblue" points="304.43,-147.21 294.67,-151.32 304.86,-154.2 304.43,-147.21"/>
</g>
<!-- Node26&#45;&gt;Node28 -->
<g id="edge21" class="edge">
<title>Node26&#45;&gt;Node28</title>
<path fill="none" stroke="midnightblue" d="M304.75,-161.04C362.06,-165.89 442.12,-174.67 471,-187.5 504.08,-202.19 534.44,-232.9 550.03,-250.45"/>
<polygon fill="midnightblue" stroke="midnightblue" points="304.94,-157.54 294.69,-160.21 304.37,-164.52 304.94,-157.54"/>
</g>
<!-- Node27 -->
<g id="node18" class="node">
<title>Node27</title>
<g id="a_node18"><a xlink:title=" ">
<polygon fill="white" stroke="#bfbfbf" points="535.5,-102 535.5,-119 588.5,-119 588.5,-102 535.5,-102"/>
<text text-anchor="middle" x="562" y="-108.6" font-family="Helvetica,sans-Serif" font-size="8.00">ShmType</text>
</a>
</g>
</g>
<!-- Node27&#45;&gt;Node3 -->
<g id="edge18" class="edge">
<title>Node27&#45;&gt;Node3</title>
<path fill="none" stroke="#9a32cd" stroke-dasharray="5,2" d="M598.57,-101.36C642.93,-92.28 718.48,-84.8 764,-124.5 851.46,-200.78 881.63,-578.63 889.02,-696.99"/>
<polygon fill="#9a32cd" stroke="#9a32cd" points="597.55,-98 588.53,-103.55 599.04,-104.84 597.55,-98"/>
<text text-anchor="middle" x="708.5" y="-127.1" font-family="Helvetica,sans-Serif" font-size="8.00"> S_SHM_TYPE</text>
</g>
<!-- Node28&#45;&gt;Node3 -->
<g id="edge20" class="edge">
<title>Node28&#45;&gt;Node3</title>
<path fill="none" stroke="#9a32cd" stroke-dasharray="5,2" d="M587.64,-282.79C628.55,-315.81 711.21,-386.86 764,-461.5 818.45,-538.49 859.53,-642.53 878.83,-696.57"/>
<polygon fill="#9a32cd" stroke="#9a32cd" points="589.8,-280.03 579.8,-276.52 585.43,-285.5 589.8,-280.03"/>
<text text-anchor="middle" x="708.5" y="-473.1" font-family="Helvetica,sans-Serif" font-size="8.00"> m_protocol_negotiator</text>
<text text-anchor="middle" x="708.5" y="-464.1" font-family="Helvetica,sans-Serif" font-size="8.00">m_protocol_negotiator_aux</text>
</g>
<!-- Node29 -->
<g id="node20" class="node">
<title>Node29</title>
<g id="a_node20"><a xlink:title=" ">
<polygon fill="white" stroke="#bfbfbf" points="188.5,-275.5 188.5,-301.5 293.5,-301.5 293.5,-275.5 188.5,-275.5"/>
<text text-anchor="start" x="196.5" y="-291.1" font-family="Helvetica,sans-Serif" font-size="8.00">static constexpr proto</text>
<text text-anchor="middle" x="241" y="-282.1" font-family="Helvetica,sans-Serif" font-size="8.00">_ver_t</text>
</a>
</g>
</g>
<!-- Node29&#45;&gt;Node28 -->
<g id="edge22" class="edge">
<title>Node29&#45;&gt;Node28</title>
<path fill="none" stroke="#9a32cd" stroke-dasharray="5,2" d="M303.86,-283.65C362.58,-279.05 450.01,-272.2 506.26,-267.79"/>
<polygon fill="#9a32cd" stroke="#9a32cd" points="303.3,-280.18 293.61,-284.46 303.85,-287.16 303.3,-280.18"/>
<text text-anchor="middle" x="405" y="-291.1" font-family="Helvetica,sans-Serif" font-size="8.00"> S_VER_UNKNOWN</text>
<text text-anchor="middle" x="405" y="-282.1" font-family="Helvetica,sans-Serif" font-size="8.00">S_VER_UNSUPPORTED</text>
</g>
<!-- Node30 -->
<g id="node21" class="node">
<title>Node30</title>
<g id="a_node21"><a xlink:title=" ">
<polygon fill="white" stroke="#bfbfbf" points="219,-194 219,-211 263,-211 263,-194 219,-194"/>
<text text-anchor="middle" x="241" y="-200.6" font-family="Helvetica,sans-Serif" font-size="8.00">int16_t</text>
</a>
</g>
</g>
<!-- Node30&#45;&gt;Node28 -->
<g id="edge24" class="edge">
<title>Node30&#45;&gt;Node28</title>
<path fill="none" stroke="#9a32cd" stroke-dasharray="5,2" d="M273.08,-197.84C317.89,-192.27 402.76,-186.06 471,-206.5 500.23,-215.26 529.17,-236.4 546.05,-250.33"/>
<polygon fill="#9a32cd" stroke="#9a32cd" points="272.56,-194.38 263.1,-199.15 273.48,-201.32 272.56,-194.38"/>
<text text-anchor="middle" x="405" y="-227.1" font-family="Helvetica,sans-Serif" font-size="8.00"> m_local_max_proto_ver</text>
<text text-anchor="middle" x="405" y="-218.1" font-family="Helvetica,sans-Serif" font-size="8.00">m_local_min_proto_ver</text>
<text text-anchor="middle" x="405" y="-209.1" font-family="Helvetica,sans-Serif" font-size="8.00">m_negotiated_proto_ver</text>
</g>
<!-- Node31 -->
<g id="node22" class="node">
<title>Node31</title>
<g id="a_node22"><a xlink:title=" ">
<polygon fill="white" stroke="#bfbfbf" points="223.5,-321 223.5,-338 258.5,-338 258.5,-321 223.5,-321"/>
<text text-anchor="middle" x="241" y="-327.6" font-family="Helvetica,sans-Serif" font-size="8.00">bool</text>
</a>
</g>
</g>
<!-- Node31&#45;&gt;Node28 -->
<g id="edge25" class="edge">
<title>Node31&#45;&gt;Node28</title>
<path fill="none" stroke="#9a32cd" stroke-dasharray="5,2" d="M268.9,-328.16C312.12,-325.52 399.44,-318.18 471,-299.5 492.66,-293.85 516.1,-284.35 533.63,-276.53"/>
<polygon fill="#9a32cd" stroke="#9a32cd" points="268.44,-324.68 258.65,-328.74 268.84,-331.67 268.44,-324.68"/>
<text text-anchor="middle" x="405" y="-324.1" font-family="Helvetica,sans-Serif" font-size="8.00"> m_local_max_proto_ver_sent</text>
</g>
<!-- Node31&#45;&gt;Node32 -->
<g id="edge29" class="edge">
<title>Node31&#45;&gt;Node32</title>
<path fill="none" stroke="#9a32cd" stroke-dasharray="5,2" d="M268.74,-329.63C321.28,-330.25 435.92,-333.58 471,-350.5 508.85,-368.75 539.21,-410.1 552.98,-431.35"/>
<polygon fill="#9a32cd" stroke="#9a32cd" points="268.55,-326.13 258.52,-329.53 268.49,-333.13 268.55,-326.13"/>
<text text-anchor="middle" x="405" y="-380.1" font-family="Helvetica,sans-Serif" font-size="8.00"> S_BLOB_UNDERFLOW_ALLOWED</text>
<text text-anchor="start" x="339" y="-371.1" font-family="Helvetica,sans-Serif" font-size="8.00">S_META_BLOB_UNDERFLOW</text>
<text text-anchor="middle" x="405" y="-362.1" font-family="Helvetica,sans-Serif" font-size="8.00">_ALLOWED</text>
<text text-anchor="middle" x="405" y="-353.1" font-family="Helvetica,sans-Serif" font-size="8.00">S_TRANSMIT_NATIVE_HANDLES</text>
</g>
<!-- Node32&#45;&gt;Node3 -->
<g id="edge27" class="edge">
<title>Node32&#45;&gt;Node3</title>
<path fill="none" stroke="#9a32cd" stroke-dasharray="5,2" d="M606.18,-461.62C649.42,-480.21 716.21,-513.04 764,-555.5 810.51,-596.83 849.68,-658.13 871.75,-696.67"/>
<polygon fill="#9a32cd" stroke="#9a32cd" points="607.37,-458.32 596.8,-457.65 604.64,-464.77 607.37,-458.32"/>
<text text-anchor="middle" x="708.5" y="-558.1" font-family="Helvetica,sans-Serif" font-size="8.00"> m_master_sock_stm</text>
</g>
<!-- Node33 -->
<g id="node24" class="node">
<title>Node33</title>
<g id="a_node24"><a xlink:title=" ">
<polygon fill="white" stroke="#bfbfbf" points="182,-357 182,-392 300,-392 300,-357 182,-357"/>
<text text-anchor="start" x="190" y="-381.6" font-family="Helvetica,sans-Serif" font-size="8.00">propagate_const&lt; boost</text>
<text text-anchor="start" x="190" y="-372.6" font-family="Helvetica,sans-Serif" font-size="8.00">::movelib::unique_ptr</text>
<text text-anchor="middle" x="241" y="-363.6" font-family="Helvetica,sans-Serif" font-size="8.00">&lt; Impl &gt; &gt;</text>
</a>
</g>
</g>
<!-- Node33&#45;&gt;Node32 -->
<g id="edge31" class="edge">
<title>Node33&#45;&gt;Node32</title>
<path fill="none" stroke="#9a32cd" stroke-dasharray="5,2" d="M310.24,-385.89C371.98,-396.28 455.55,-410.6 471,-414.5 489.36,-419.14 509.39,-425.66 525.88,-431.44"/>
<polygon fill="#9a32cd" stroke="#9a32cd" points="310.59,-382.4 300.15,-384.19 309.43,-389.3 310.59,-382.4"/>
<text text-anchor="middle" x="405" y="-417.1" font-family="Helvetica,sans-Serif" font-size="8.00"> m_impl</text>
</g>
<!-- Node34 -->
<g id="node25" class="node">
<title>Node34</title>
<g id="a_node25"><a xlink:title=" ">
<polygon fill="white" stroke="#bfbfbf" points="528,-1069 528,-1086 596,-1086 596,-1069 528,-1069"/>
<text text-anchor="middle" x="562" y="-1075.6" font-family="Helvetica,sans-Serif" font-size="8.00">unsigned int</text>
</a>
</g>
</g>
<!-- Node34&#45;&gt;Node3 -->
<g id="edge33" class="edge">
<title>Node34&#45;&gt;Node3</title>
<path fill="none" stroke="#9a32cd" stroke-dasharray="5,2" d="M606.21,-1083.18C650.49,-1086.55 719.05,-1084.68 764,-1049.5 853.99,-979.07 880.46,-834.99 888.05,-768.09"/>
<polygon fill="#9a32cd" stroke="#9a32cd" points="606.32,-1079.67 596.05,-1082.28 605.7,-1086.64 606.32,-1079.67"/>
<text text-anchor="start" x="656.5" y="-1122.1" font-family="Helvetica,sans-Serif" font-size="8.00"> m_last_actively_opened</text>
<text text-anchor="middle" x="708.5" y="-1113.1" font-family="Helvetica,sans-Serif" font-size="8.00">_channel_id</text>
<text text-anchor="middle" x="708.5" y="-1104.1" font-family="Helvetica,sans-Serif" font-size="8.00">m_last_channel_mq_id</text>
<text text-anchor="start" x="656.5" y="-1095.1" font-family="Helvetica,sans-Serif" font-size="8.00">m_last_passively_opened</text>
<text text-anchor="middle" x="708.5" y="-1086.1" font-family="Helvetica,sans-Serif" font-size="8.00">_channel_id</text>
</g>
<!-- Node35 -->
<g id="node26" class="node">
<title>Node35</title>
<g id="a_node26"><a xlink:title=" ">
<polygon fill="white" stroke="#bfbfbf" points="504,-1033 504,-1050 620,-1050 620,-1033 504,-1033"/>
<text text-anchor="middle" x="562" y="-1039.6" font-family="Helvetica,sans-Serif" font-size="8.00">Single_thread_task_loop</text>
</a>
</g>
</g>
<!-- Node35&#45;&gt;Node3 -->
<g id="edge34" class="edge">
<title>Node35&#45;&gt;Node3</title>
<path fill="none" stroke="#9a32cd" stroke-dasharray="5,2" d="M630.61,-1038.99C680.57,-1035.89 743.35,-1028.95 764,-1013.5 844.8,-953.04 875.47,-829.27 886.02,-768.2"/>
<polygon fill="#9a32cd" stroke="#9a32cd" points="630.26,-1035.51 620.49,-1039.58 630.67,-1042.5 630.26,-1035.51"/>
<text text-anchor="middle" x="708.5" y="-1039.1" font-family="Helvetica,sans-Serif" font-size="8.00"> m_async_worker</text>
</g>
<!-- Node36 -->
<g id="node27" class="node">
<title>Node36</title>
<g id="a_node27"><a xlink:title=" ">
<polygon fill="white" stroke="#bfbfbf" points="491,-997 491,-1014 633,-1014 633,-997 491,-997"/>
<text text-anchor="middle" x="562" y="-1003.6" font-family="Helvetica,sans-Serif" font-size="8.00">Master_structured_channel_ptr</text>
</a>
</g>
</g>
<!-- Node36&#45;&gt;Node3 -->
<g id="edge35" class="edge">
<title>Node36&#45;&gt;Node3</title>
<path fill="none" stroke="#9a32cd" stroke-dasharray="5,2" d="M643.38,-1002.2C690.61,-998.84 744.73,-992.08 764,-978.5 836.09,-927.69 870.09,-823.33 883.56,-768.29"/>
<polygon fill="#9a32cd" stroke="#9a32cd" points="642.86,-998.73 633.11,-1002.89 643.32,-1005.71 642.86,-998.73"/>
<text text-anchor="middle" x="708.5" y="-1003.1" font-family="Helvetica,sans-Serif" font-size="8.00"> m_master_channel</text>
</g>
<!-- Node37 -->
<g id="node28" class="node">
<title>Node37</title>
<g id="a_node28"><a xlink:href="classFunction_3_01void_07_08_4.html" target="_top" xlink:title=" ">
<polygon fill="white" stroke="#bfbfbf" points="516.5,-961 516.5,-978 607.5,-978 607.5,-961 516.5,-961"/>
<text text-anchor="middle" x="562" y="-967.6" font-family="Helvetica,sans-Serif" font-size="8.00">Function&lt; void()&gt;</text>
</a>
</g>
</g>
<!-- Node37&#45;&gt;Node3 -->
<g id="edge36" class="edge">
<title>Node37&#45;&gt;Node3</title>
<path fill="none" stroke="#9a32cd" stroke-dasharray="5,2" d="M617.59,-969.93C660.74,-967.76 720.69,-958.96 764,-929.5 822.38,-889.79 859.96,-813.42 878.12,-768.32"/>
<polygon fill="#9a32cd" stroke="#9a32cd" points="617.41,-966.43 607.56,-970.33 617.69,-973.43 617.41,-966.43"/>
<text text-anchor="middle" x="708.5" y="-968.1" font-family="Helvetica,sans-Serif" font-size="8.00"> m_deinit_func_or_empty</text>
</g>
<!-- Node38 -->
<g id="node29" class="node">
<title>Node38</title>
<g id="a_node29"><a xlink:title=" ">
<polygon fill="white" stroke="black" points="831.5,-91 831.5,-108 952.5,-108 952.5,-91 831.5,-91"/>
<text text-anchor="middle" x="892" y="-97.6" font-family="Helvetica,sans-Serif" font-size="8.00">std::shared_ptr&lt; Arena &gt;</text>
</a>
</g>
</g>
<!-- Node38&#45;&gt;Node1 -->
<g id="edge42" class="edge">
<title>Node38&#45;&gt;Node1</title>
<path fill="none" stroke="#9a32cd" stroke-dasharray="5,2" d="M962.96,-105.94C1043.03,-112.35 1178.1,-120.19 1294,-112.5 1305.93,-111.71 1318.57,-110.42 1330.79,-108.93"/>
<polygon fill="#9a32cd" stroke="#9a32cd" points="962.76,-102.41 952.51,-105.09 962.19,-109.39 962.76,-102.41"/>
<text text-anchor="middle" x="1200" y="-118.1" font-family="Helvetica,sans-Serif" font-size="8.00"> m_app_shm</text>
</g>
<!-- Node38&#45;&gt;Node2 -->
<g id="edge37" class="edge">
<title>Node38&#45;&gt;Node2</title>
<path fill="none" stroke="#9a32cd" stroke-dasharray="5,2" d="M962.69,-90.16C1005.13,-84.48 1059.88,-77.14 1105.99,-70.96"/>
<polygon fill="#9a32cd" stroke="#9a32cd" points="962.17,-86.7 952.73,-91.5 963.1,-93.64 962.17,-86.7"/>
<text text-anchor="middle" x="1054" y="-83.1" font-family="Helvetica,sans-Serif" font-size="8.00"> m_session_shm</text>
</g>
<!-- Node39 -->
<g id="node30" class="node">
<title>Node39</title>
<g id="a_node30"><a xlink:title=" ">
<polygon fill="white" stroke="#bfbfbf" points="541.5,-66 541.5,-83 582.5,-83 582.5,-66 541.5,-66"/>
<text text-anchor="middle" x="562" y="-72.6" font-family="Helvetica,sans-Serif" font-size="8.00">Arena</text>
</a>
</g>
</g>
<!-- Node39&#45;&gt;Node38 -->
<g id="edge38" class="edge">
<title>Node39&#45;&gt;Node38</title>
<path fill="none" stroke="#9a32cd" stroke-dasharray="5,2" d="M592.95,-74.02C632.29,-73.67 703.47,-74 764,-79.5 778.73,-80.84 812.23,-86.15 841.13,-90.96"/>
<polygon fill="#9a32cd" stroke="#9a32cd" points="592.7,-70.52 582.74,-74.13 592.77,-77.52 592.7,-70.52"/>
<text text-anchor="middle" x="708.5" y="-82.1" font-family="Helvetica,sans-Serif" font-size="8.00"> ptr</text>
</g>
<!-- Node40 -->
<g id="node31" class="node">
<title>Node40</title>
<g id="a_node31"><a xlink:title=" ">
<polygon fill="white" stroke="#bfbfbf" points="821,-45.5 821,-71.5 963,-71.5 963,-45.5 821,-45.5"/>
<text text-anchor="start" x="829" y="-61.1" font-family="Helvetica,sans-Serif" font-size="8.00">optional&lt; typename</text>
<text text-anchor="middle" x="892" y="-52.1" font-family="Helvetica,sans-Serif" font-size="8.00"> Shm_session::Shm_channel &gt;</text>
</a>
</g>
</g>
<!-- Node40&#45;&gt;Node2 -->
<g id="edge39" class="edge">
<title>Node40&#45;&gt;Node2</title>
<path fill="none" stroke="#9a32cd" stroke-dasharray="5,2" d="M973.34,-58.5C1014.01,-58.5 1063.59,-58.5 1105.92,-58.5"/>
<polygon fill="#9a32cd" stroke="#9a32cd" points="973.2,-55 963.2,-58.5 973.2,-62 973.2,-55"/>
<text text-anchor="middle" x="1054" y="-61.1" font-family="Helvetica,sans-Serif" font-size="8.00"> m_shm_channel</text>
</g>
<!-- Node41 -->
<g id="node32" class="node">
<title>Node41</title>
<g id="a_node32"><a xlink:title=" ">
<polygon fill="white" stroke="black" points="839,-0.5 839,-26.5 945,-26.5 945,-0.5 839,-0.5"/>
<text text-anchor="start" x="847" y="-16.1" font-family="Helvetica,sans-Serif" font-size="8.00">std::shared_ptr&lt; Shm</text>
<text text-anchor="middle" x="892" y="-7.1" font-family="Helvetica,sans-Serif" font-size="8.00">_session &gt;</text>
</a>
</g>
</g>
<!-- Node41&#45;&gt;Node2 -->
<g id="edge40" class="edge">
<title>Node41&#45;&gt;Node2</title>
<path fill="none" stroke="#9a32cd" stroke-dasharray="5,2" d="M955.36,-22.67C998.64,-29.03 1057.04,-37.62 1105.82,-44.8"/>
<polygon fill="#9a32cd" stroke="#9a32cd" points="955.66,-19.18 945.26,-21.18 954.64,-26.1 955.66,-19.18"/>
<text text-anchor="middle" x="1054" y="-44.1" font-family="Helvetica,sans-Serif" font-size="8.00"> m_shm_session</text>
</g>
<!-- Node42 -->
<g id="node33" class="node">
<title>Node42</title>
<g id="a_node33"><a xlink:title=" ">
<polygon fill="white" stroke="#bfbfbf" points="527,-5 527,-22 597,-22 597,-5 527,-5"/>
<text text-anchor="middle" x="562" y="-11.6" font-family="Helvetica,sans-Serif" font-size="8.00">Shm_session</text>
</a>
</g>
</g>
<!-- Node42&#45;&gt;Node41 -->
<g id="edge41" class="edge">
<title>Node42&#45;&gt;Node41</title>
<path fill="none" stroke="#9a32cd" stroke-dasharray="5,2" d="M607.49,-13.5C667.72,-13.5 774.99,-13.5 838.91,-13.5"/>
<polygon fill="#9a32cd" stroke="#9a32cd" points="607.17,-10 597.17,-13.5 607.17,-17 607.17,-10"/>
<text text-anchor="middle" x="708.5" y="-16.1" font-family="Helvetica,sans-Serif" font-size="8.00"> ptr</text>
</g>
</g>
</svg>
