<?xml version="1.0" encoding="UTF-8" standalone="no"?>
<!DOCTYPE svg PUBLIC "-//W3C//DTD SVG 1.1//EN"
 "http://www.w3.org/Graphics/SVG/1.1/DTD/svg11.dtd">
<!-- Generated by graphviz version 2.43.0 (0)
 -->
<!-- Title: ipc::transport::Bipc_mq_handle::op_with_possible_bipc_mq_exception Pages: 1 -->
<svg width="322pt" height="458pt"
 viewBox="0.00 0.00 322.00 458.00" xmlns="http://www.w3.org/2000/svg" xmlns:xlink="http://www.w3.org/1999/xlink">
<g id="graph0" class="graph" transform="scale(1 1) rotate(0) translate(4 454)">
<title>ipc::transport::Bipc_mq_handle::op_with_possible_bipc_mq_exception</title>
<polygon fill="white" stroke="transparent" points="-4,4 -4,-454 318,-454 318,4 -4,4"/>
<!-- Node1 -->
<g id="node1" class="node">
<title>Node1</title>
<g id="a_node1"><a xlink:title="Error helper: Run func() which will perform a bipc::message_queue API that might throw; if it does em...">
<polygon fill="#bfbfbf" stroke="black" points="173,-198 173,-233 314,-233 314,-198 173,-198"/>
<text text-anchor="start" x="181" y="-222.6" font-family="Helvetica,sans-Serif" font-size="8.00">ipc::transport::Bipc</text>
<text text-anchor="start" x="181" y="-213.6" font-family="Helvetica,sans-Serif" font-size="8.00">_mq_handle::op_with_possible</text>
<text text-anchor="middle" x="243.5" y="-204.6" font-family="Helvetica,sans-Serif" font-size="8.00">_bipc_mq_exception</text>
</a>
</g>
</g>
<!-- Node1&#45;&gt;Node1 -->
<g id="edge2" class="edge">
<title>Node1&#45;&gt;Node1</title>
<path fill="none" stroke="midnightblue" d="M273.8,-243.6C269.55,-248.27 259.45,-251.5 243.5,-251.5 217.33,-251.5 206.91,-242.81 212.22,-233.28"/>
<polygon fill="midnightblue" stroke="midnightblue" points="277.32,-243.57 274.78,-233.28 270.35,-242.91 277.32,-243.57"/>
</g>
<!-- Node2 -->
<g id="node2" class="node">
<title>Node2</title>
<g id="a_node2"><a xlink:href="classipc_1_1transport_1_1Bipc__mq__handle.html#a09f47c6b083179259b7a21b1a6f3c6d0" target="_top" xlink:title="Helper ctor delegated by the 2 public ctors that take Open_or_create or Create_only mode.">
<polygon fill="white" stroke="black" points="0,-423.5 0,-449.5 137,-449.5 137,-423.5 0,-423.5"/>
<text text-anchor="start" x="8" y="-439.1" font-family="Helvetica,sans-Serif" font-size="8.00">ipc::transport::Bipc</text>
<text text-anchor="middle" x="68.5" y="-430.1" font-family="Helvetica,sans-Serif" font-size="8.00">_mq_handle::Bipc_mq_handle</text>
</a>
</g>
</g>
<!-- Node1&#45;&gt;Node2 -->
<g id="edge1" class="edge">
<title>Node1&#45;&gt;Node2</title>
<path fill="none" stroke="midnightblue" d="M235.19,-242.99C222.42,-285.79 192.02,-368.23 137,-414.5 132.85,-417.99 128.13,-420.93 123.16,-423.41"/>
<polygon fill="midnightblue" stroke="midnightblue" points="238.59,-243.83 238,-233.25 231.87,-241.9 238.59,-243.83"/>
</g>
<!-- Node3 -->
<g id="node3" class="node">
<title>Node3</title>
<g id="a_node3"><a xlink:href="classipc_1_1transport_1_1Bipc__mq__handle.html#a9d1aaf82f6396f4d975a77a70433698d" target="_top" xlink:title="Implements Persistent_mq_handle API: Blocking receive: pops copy of message from queue into buffer; i...">
<polygon fill="white" stroke="black" points="18,-360.5 18,-386.5 119,-386.5 119,-360.5 18,-360.5"/>
<text text-anchor="start" x="26" y="-376.1" font-family="Helvetica,sans-Serif" font-size="8.00">ipc::transport::Bipc</text>
<text text-anchor="middle" x="68.5" y="-367.1" font-family="Helvetica,sans-Serif" font-size="8.00">_mq_handle::receive</text>
</a>
</g>
</g>
<!-- Node1&#45;&gt;Node3 -->
<g id="edge3" class="edge">
<title>Node1&#45;&gt;Node3</title>
<path fill="none" stroke="midnightblue" d="M228.4,-242.12C210.88,-272.74 178.2,-322.52 137,-351.5 131.56,-355.33 125.41,-358.52 119.09,-361.18"/>
<polygon fill="midnightblue" stroke="midnightblue" points="231.52,-243.71 233.35,-233.27 225.41,-240.29 231.52,-243.71"/>
</g>
<!-- Node4 -->
<g id="node4" class="node">
<title>Node4</title>
<g id="a_node4"><a xlink:href="classipc_1_1transport_1_1Bipc__mq__handle.html#a45e952a67d6568f6ef4834a3523a2ca4" target="_top" xlink:title="Implements Persistent_mq_handle API: Blocking send: pushes copy of message to queue; if queue is full...">
<polygon fill="white" stroke="black" points="21,-297.5 21,-323.5 116,-323.5 116,-297.5 21,-297.5"/>
<text text-anchor="start" x="29" y="-313.1" font-family="Helvetica,sans-Serif" font-size="8.00">ipc::transport::Bipc</text>
<text text-anchor="middle" x="68.5" y="-304.1" font-family="Helvetica,sans-Serif" font-size="8.00">_mq_handle::send</text>
</a>
</g>
</g>
<!-- Node1&#45;&gt;Node4 -->
<g id="edge5" class="edge">
<title>Node1&#45;&gt;Node4</title>
<path fill="none" stroke="midnightblue" d="M213.08,-239.33C192.68,-254.96 164.36,-274.94 137,-288.5 130.26,-291.84 122.91,-294.84 115.6,-297.46"/>
<polygon fill="midnightblue" stroke="midnightblue" points="215.29,-242.05 221.03,-233.15 210.99,-236.52 215.29,-242.05"/>
</g>
<!-- Node5 -->
<g id="node5" class="node">
<title>Node5</title>
<g id="a_node5"><a xlink:href="classipc_1_1transport_1_1Bipc__mq__handle.html#a67be05bc1749981e0863d18681d006ac" target="_top" xlink:title="Implements Persistent_mq_handle API: Blocking timed receive: pops copy of message from queue into buf...">
<polygon fill="white" stroke="black" points="4.5,-234.5 4.5,-260.5 132.5,-260.5 132.5,-234.5 4.5,-234.5"/>
<text text-anchor="start" x="12.5" y="-250.1" font-family="Helvetica,sans-Serif" font-size="8.00">ipc::transport::Bipc</text>
<text text-anchor="middle" x="68.5" y="-241.1" font-family="Helvetica,sans-Serif" font-size="8.00">_mq_handle::timed_receive</text>
</a>
</g>
</g>
<!-- Node1&#45;&gt;Node5 -->
<g id="edge7" class="edge">
<title>Node1&#45;&gt;Node5</title>
<path fill="none" stroke="midnightblue" d="M162.64,-230.27C152.58,-232.13 142.4,-234.02 132.65,-235.82"/>
<polygon fill="midnightblue" stroke="midnightblue" points="163.44,-233.68 172.63,-228.42 162.16,-226.8 163.44,-233.68"/>
</g>
<!-- Node6 -->
<g id="node6" class="node">
<title>Node6</title>
<g id="a_node6"><a xlink:href="classipc_1_1transport_1_1Bipc__mq__handle.html#a8e486336f1dfffa1c397b725b95b175b" target="_top" xlink:title="Implements Persistent_mq_handle API: Blocking timed send: pushes copy of message to queue; if queue i...">
<polygon fill="white" stroke="black" points="9,-171.5 9,-197.5 128,-197.5 128,-171.5 9,-171.5"/>
<text text-anchor="start" x="17" y="-187.1" font-family="Helvetica,sans-Serif" font-size="8.00">ipc::transport::Bipc</text>
<text text-anchor="middle" x="68.5" y="-178.1" font-family="Helvetica,sans-Serif" font-size="8.00">_mq_handle::timed_send</text>
</a>
</g>
</g>
<!-- Node1&#45;&gt;Node6 -->
<g id="edge9" class="edge">
<title>Node1&#45;&gt;Node6</title>
<path fill="none" stroke="midnightblue" d="M162.54,-201.17C150.99,-199.1 139.29,-197.01 128.25,-195.03"/>
<polygon fill="midnightblue" stroke="midnightblue" points="162.17,-204.66 172.63,-202.98 163.41,-197.77 162.17,-204.66"/>
</g>
<!-- Node7 -->
<g id="node7" class="node">
<title>Node7</title>
<g id="a_node7"><a xlink:href="classipc_1_1transport_1_1Bipc__mq__handle.html#a7a974f3cfbb095f0b67e773f4f2fb1a9" target="_top" xlink:title="Implements Persistent_mq_handle API: Non&#45;blocking receive: pops copy of message from queue into buffe...">
<polygon fill="white" stroke="black" points="10.5,-108.5 10.5,-134.5 126.5,-134.5 126.5,-108.5 10.5,-108.5"/>
<text text-anchor="start" x="18.5" y="-124.1" font-family="Helvetica,sans-Serif" font-size="8.00">ipc::transport::Bipc</text>
<text text-anchor="middle" x="68.5" y="-115.1" font-family="Helvetica,sans-Serif" font-size="8.00">_mq_handle::try_receive</text>
</a>
</g>
</g>
<!-- Node1&#45;&gt;Node7 -->
<g id="edge11" class="edge">
<title>Node1&#45;&gt;Node7</title>
<path fill="none" stroke="midnightblue" d="M200.85,-192.87C167.28,-174.63 121.25,-149.62 93.54,-134.56"/>
<polygon fill="midnightblue" stroke="midnightblue" points="199.5,-196.12 209.96,-197.82 202.84,-189.97 199.5,-196.12"/>
</g>
<!-- Node8 -->
<g id="node8" class="node">
<title>Node8</title>
<g id="a_node8"><a xlink:href="classipc_1_1transport_1_1Bipc__mq__handle.html#a4c3406cf8759017342ed295fcc833704" target="_top" xlink:title="Implements Persistent_mq_handle API: Non&#45;blocking send: pushes copy of message to queue and returns t...">
<polygon fill="white" stroke="black" points="15.5,-45.5 15.5,-71.5 121.5,-71.5 121.5,-45.5 15.5,-45.5"/>
<text text-anchor="start" x="23.5" y="-61.1" font-family="Helvetica,sans-Serif" font-size="8.00">ipc::transport::Bipc</text>
<text text-anchor="middle" x="68.5" y="-52.1" font-family="Helvetica,sans-Serif" font-size="8.00">_mq_handle::try_send</text>
</a>
</g>
</g>
<!-- Node1&#45;&gt;Node8 -->
<g id="edge13" class="edge">
<title>Node1&#45;&gt;Node8</title>
<path fill="none" stroke="midnightblue" d="M222.93,-190.03C203.02,-165.12 170.41,-127.03 137,-99.5 123.99,-88.77 107.89,-78.89 94.69,-71.52"/>
<polygon fill="midnightblue" stroke="midnightblue" points="220.24,-192.26 229.18,-197.93 225.73,-187.92 220.24,-192.26"/>
</g>
<!-- Node9 -->
<g id="node9" class="node">
<title>Node9</title>
<g id="a_node9"><a xlink:href="classipc_1_1transport_1_1Bipc__mq__handle.html#ada9cf828123f98f5bb66236e5446d37d" target="_top" xlink:title="Impl body for *_sendable() and *_receivable().">
<polygon fill="white" stroke="black" points="13.5,-0.5 13.5,-26.5 123.5,-26.5 123.5,-0.5 13.5,-0.5"/>
<text text-anchor="start" x="21.5" y="-16.1" font-family="Helvetica,sans-Serif" font-size="8.00">ipc::transport::Bipc</text>
<text text-anchor="middle" x="68.5" y="-7.1" font-family="Helvetica,sans-Serif" font-size="8.00">_mq_handle::wait_impl</text>
</a>
</g>
</g>
<!-- Node1&#45;&gt;Node9 -->
<g id="edge15" class="edge">
<title>Node1&#45;&gt;Node9</title>
<path fill="none" stroke="midnightblue" d="M233.42,-188.33C219.03,-149.27 187.33,-77.48 137,-36.5 132.2,-32.59 126.7,-29.33 120.96,-26.62"/>
<polygon fill="midnightblue" stroke="midnightblue" points="230.2,-189.73 236.87,-197.97 236.8,-187.37 230.2,-189.73"/>
</g>
<!-- Node3&#45;&gt;Node3 -->
<g id="edge4" class="edge">
<title>Node3&#45;&gt;Node3</title>
<path fill="none" stroke="midnightblue" d="M100.07,-396.58C96.87,-401.47 86.34,-405 68.5,-405 39.95,-405 30.14,-395.96 39.06,-386.77"/>
<polygon fill="midnightblue" stroke="midnightblue" points="103.48,-395.8 97.94,-386.77 96.64,-397.29 103.48,-395.8"/>
</g>
<!-- Node4&#45;&gt;Node4 -->
<g id="edge6" class="edge">
<title>Node4&#45;&gt;Node4</title>
<path fill="none" stroke="midnightblue" d="M100.07,-333.58C96.87,-338.47 86.34,-342 68.5,-342 39.95,-342 30.14,-332.96 39.06,-323.77"/>
<polygon fill="midnightblue" stroke="midnightblue" points="103.48,-332.8 97.94,-323.77 96.64,-334.29 103.48,-332.8"/>
</g>
<!-- Node5&#45;&gt;Node5 -->
<g id="edge8" class="edge">
<title>Node5&#45;&gt;Node5</title>
<path fill="none" stroke="midnightblue" d="M100.07,-270.58C96.87,-275.47 86.34,-279 68.5,-279 39.95,-279 30.14,-269.96 39.06,-260.77"/>
<polygon fill="midnightblue" stroke="midnightblue" points="103.48,-269.8 97.94,-260.77 96.64,-271.29 103.48,-269.8"/>
</g>
<!-- Node6&#45;&gt;Node6 -->
<g id="edge10" class="edge">
<title>Node6&#45;&gt;Node6</title>
<path fill="none" stroke="midnightblue" d="M100.07,-207.58C96.87,-212.47 86.34,-216 68.5,-216 39.95,-216 30.14,-206.96 39.06,-197.77"/>
<polygon fill="midnightblue" stroke="midnightblue" points="103.48,-206.8 97.94,-197.77 96.64,-208.29 103.48,-206.8"/>
</g>
<!-- Node7&#45;&gt;Node7 -->
<g id="edge12" class="edge">
<title>Node7&#45;&gt;Node7</title>
<path fill="none" stroke="midnightblue" d="M100.07,-144.58C96.87,-149.47 86.34,-153 68.5,-153 39.95,-153 30.14,-143.96 39.06,-134.77"/>
<polygon fill="midnightblue" stroke="midnightblue" points="103.48,-143.8 97.94,-134.77 96.64,-145.29 103.48,-143.8"/>
</g>
<!-- Node8&#45;&gt;Node8 -->
<g id="edge14" class="edge">
<title>Node8&#45;&gt;Node8</title>
<path fill="none" stroke="midnightblue" d="M100.07,-81.58C96.87,-86.47 86.34,-90 68.5,-90 39.95,-90 30.14,-80.96 39.06,-71.77"/>
<polygon fill="midnightblue" stroke="midnightblue" points="103.48,-80.8 97.94,-71.77 96.64,-82.29 103.48,-80.8"/>
</g>
</g>
</svg>
