<?xml version="1.0" encoding="UTF-8" standalone="no"?>
<!DOCTYPE svg PUBLIC "-//W3C//DTD SVG 1.1//EN"
 "http://www.w3.org/Graphics/SVG/1.1/DTD/svg11.dtd">
<!-- Generated by graphviz version 2.43.0 (0)
 -->
<!-- Title: ipc::util::Process_credentials::Process_credentials Pages: 1 -->
<svg width="273pt" height="44pt"
 viewBox="0.00 0.00 273.00 44.00" xmlns="http://www.w3.org/2000/svg" xmlns:xlink="http://www.w3.org/1999/xlink">
<g id="graph0" class="graph" transform="scale(1 1) rotate(0) translate(4 40)">
<title>ipc::util::Process_credentials::Process_credentials</title>
<polygon fill="white" stroke="transparent" points="-4,4 -4,-40 269,-40 269,4 -4,4"/>
<!-- Node1 -->
<g id="node1" class="node">
<title>Node1</title>
<g id="a_node1"><a xlink:title="Default ctor: each value is initialized to zero or equivalent.">
<polygon fill="#bfbfbf" stroke="black" points="161,-0.5 161,-35.5 265,-35.5 265,-0.5 161,-0.5"/>
<text text-anchor="start" x="169" y="-25.1" font-family="Helvetica,sans-Serif" font-size="8.00">ipc::util::Process</text>
<text text-anchor="start" x="169" y="-16.1" font-family="Helvetica,sans-Serif" font-size="8.00">_credentials::Process</text>
<text text-anchor="middle" x="213" y="-7.1" font-family="Helvetica,sans-Serif" font-size="8.00">_credentials</text>
</a>
</g>
</g>
<!-- Node2 -->
<g id="node2" class="node">
<title>Node2</title>
<g id="a_node2"><a xlink:href="classipc_1_1util_1_1Process__credentials.html#a573d6de2f257144562fd55e0772991f1" target="_top" xlink:title="Constructs and returns Process_credentials containing values pertaining to the calling process at thi...">
<polygon fill="white" stroke="black" points="0,-0.5 0,-35.5 125,-35.5 125,-0.5 0,-0.5"/>
<text text-anchor="start" x="8" y="-25.1" font-family="Helvetica,sans-Serif" font-size="8.00">ipc::util::Process</text>
<text text-anchor="start" x="8" y="-16.1" font-family="Helvetica,sans-Serif" font-size="8.00">_credentials::own_process</text>
<text text-anchor="middle" x="62.5" y="-7.1" font-family="Helvetica,sans-Serif" font-size="8.00">_credentials</text>
</a>
</g>
</g>
<!-- Node1&#45;&gt;Node2 -->
<g id="edge1" class="edge">
<title>Node1&#45;&gt;Node2</title>
<path fill="none" stroke="midnightblue" d="M150.75,-18C142.32,-18 133.65,-18 125.21,-18"/>
<polygon fill="midnightblue" stroke="midnightblue" points="150.89,-21.5 160.89,-18 150.89,-14.5 150.89,-21.5"/>
</g>
</g>
</svg>
