<?xml version="1.0" encoding="UTF-8" standalone="no"?>
<!DOCTYPE svg PUBLIC "-//W3C//DTD SVG 1.1//EN"
 "http://www.w3.org/Graphics/SVG/1.1/DTD/svg11.dtd">
<!-- Generated by graphviz version 2.43.0 (0)
 -->
<!-- Title: ipc::session::Client_session_impl::async_connect Pages: 1 -->
<svg width="466pt" height="379pt"
 viewBox="0.00 0.00 466.00 379.00" xmlns="http://www.w3.org/2000/svg" xmlns:xlink="http://www.w3.org/1999/xlink">
<g id="graph0" class="graph" transform="scale(1 1) rotate(0) translate(4 375)">
<title>ipc::session::Client_session_impl::async_connect</title>
<polygon fill="white" stroke="transparent" points="-4,4 -4,-375 462,-375 462,4 -4,4"/>
<!-- Node1 -->
<g id="node1" class="node">
<title>Node1</title>
<g id="a_node1"><a xlink:title="Core implementation of sync_connect().">
<polygon fill="#bfbfbf" stroke="black" points="0,-172.5 0,-207.5 103,-207.5 103,-172.5 0,-172.5"/>
<text text-anchor="start" x="8" y="-197.1" font-family="Helvetica,sans-Serif" font-size="8.00">ipc::session::Client</text>
<text text-anchor="start" x="8" y="-188.1" font-family="Helvetica,sans-Serif" font-size="8.00">_session_impl::async</text>
<text text-anchor="middle" x="51.5" y="-179.1" font-family="Helvetica,sans-Serif" font-size="8.00">_connect</text>
</a>
</g>
</g>
<!-- Node2 -->
<g id="node2" class="node">
<title>Node2</title>
<g id="a_node2"><a xlink:href="classipc_1_1util_1_1Shared__name.html#a48f20b7b54490aa10dc64081d34c55b2" target="_top" xlink:title="Copy&#45;constructs from a char&#45;sequence container (including string, util::String_view,...">
<polygon fill="white" stroke="black" points="146,-353.5 146,-370.5 269,-370.5 269,-353.5 146,-353.5"/>
<text text-anchor="middle" x="207.5" y="-360.1" font-family="Helvetica,sans-Serif" font-size="8.00">ipc::util::Shared_name::ct</text>
</a>
</g>
</g>
<!-- Node1&#45;&gt;Node2 -->
<g id="edge1" class="edge">
<title>Node1&#45;&gt;Node2</title>
<path fill="none" stroke="midnightblue" d="M57.37,-207.55C67.22,-239.69 92.6,-308 139,-344 141.46,-345.91 144.11,-347.62 146.87,-349.14"/>
<polygon fill="midnightblue" stroke="midnightblue" points="145.52,-352.37 156.06,-353.43 148.48,-346.03 145.52,-352.37"/>
</g>
<!-- Node3 -->
<g id="node3" class="node">
<title>Node3</title>
<g id="a_node3"><a xlink:href="namespaceipc_1_1util.html#abd43da87aa17031604c7906757c07d46" target="_top" xlink:title="Internal (to ipc) utility that invokes the given function that invokes a boost.interprocess operation...">
<polygon fill="white" stroke="black" points="148,-290 148,-316 267,-316 267,-290 148,-290"/>
<text text-anchor="start" x="156" y="-305.6" font-family="Helvetica,sans-Serif" font-size="8.00">ipc::util::op_with</text>
<text text-anchor="middle" x="207.5" y="-296.6" font-family="Helvetica,sans-Serif" font-size="8.00">_possible_bipc_exception</text>
</a>
</g>
</g>
<!-- Node1&#45;&gt;Node3 -->
<g id="edge2" class="edge">
<title>Node1&#45;&gt;Node3</title>
<path fill="none" stroke="midnightblue" d="M64.89,-207.58C80.13,-227.98 107.85,-261.34 139,-281 141.63,-282.66 144.39,-284.2 147.23,-285.64"/>
<polygon fill="midnightblue" stroke="midnightblue" points="146,-288.92 156.55,-289.87 148.89,-282.55 146,-288.92"/>
</g>
<!-- Node4 -->
<g id="node4" class="node">
<title>Node4</title>
<g id="a_node4"><a xlink:href="classipc_1_1util_1_1Process__credentials.html#a9c4074f11192a1193afb019d04753cd2" target="_top" xlink:title="Obtains the calling process&#39;s effective group_id().">
<polygon fill="white" stroke="black" points="143.5,-245 143.5,-271 271.5,-271 271.5,-245 143.5,-245"/>
<text text-anchor="start" x="151.5" y="-260.6" font-family="Helvetica,sans-Serif" font-size="8.00">ipc::util::Process</text>
<text text-anchor="middle" x="207.5" y="-251.6" font-family="Helvetica,sans-Serif" font-size="8.00">_credentials::own_group_id</text>
</a>
</g>
</g>
<!-- Node1&#45;&gt;Node4 -->
<g id="edge4" class="edge">
<title>Node1&#45;&gt;Node4</title>
<path fill="none" stroke="midnightblue" d="M82.69,-207.72C99.03,-216.88 119.75,-227.82 139,-236 143.45,-237.89 148.11,-239.72 152.83,-241.45"/>
<polygon fill="midnightblue" stroke="midnightblue" points="151.92,-244.85 162.52,-244.89 154.26,-238.25 151.92,-244.85"/>
</g>
<!-- Node5 -->
<g id="node5" class="node">
<title>Node5</title>
<g id="a_node5"><a xlink:href="classipc_1_1util_1_1Process__credentials.html#a18c901aeeed11c91afcc6379260f02a5" target="_top" xlink:title="Obtains the calling process&#39;s process_id().">
<polygon fill="white" stroke="black" points="139,-200 139,-226 276,-226 276,-200 139,-200"/>
<text text-anchor="start" x="147" y="-215.6" font-family="Helvetica,sans-Serif" font-size="8.00">ipc::util::Process</text>
<text text-anchor="middle" x="207.5" y="-206.6" font-family="Helvetica,sans-Serif" font-size="8.00">_credentials::own_process_id</text>
</a>
</g>
</g>
<!-- Node1&#45;&gt;Node5 -->
<g id="edge5" class="edge">
<title>Node1&#45;&gt;Node5</title>
<path fill="none" stroke="midnightblue" d="M103.35,-197.59C111.54,-198.82 120.17,-200.11 128.82,-201.4"/>
<polygon fill="midnightblue" stroke="midnightblue" points="128.54,-204.89 138.94,-202.91 129.57,-197.97 128.54,-204.89"/>
</g>
<!-- Node6 -->
<g id="node6" class="node">
<title>Node6</title>
<g id="a_node6"><a xlink:href="classipc_1_1util_1_1Process__credentials.html#a9a14d2788f0aaf91042206d5f6e5cabd" target="_top" xlink:title="Obtains the calling process&#39;s effective user_id().">
<polygon fill="white" stroke="black" points="146.5,-155 146.5,-181 268.5,-181 268.5,-155 146.5,-155"/>
<text text-anchor="start" x="154.5" y="-170.6" font-family="Helvetica,sans-Serif" font-size="8.00">ipc::util::Process</text>
<text text-anchor="middle" x="207.5" y="-161.6" font-family="Helvetica,sans-Serif" font-size="8.00">_credentials::own_user_id</text>
</a>
</g>
</g>
<!-- Node1&#45;&gt;Node6 -->
<g id="edge6" class="edge">
<title>Node1&#45;&gt;Node6</title>
<path fill="none" stroke="midnightblue" d="M103.35,-182.74C113.88,-181.23 125.15,-179.62 136.24,-178.04"/>
<polygon fill="midnightblue" stroke="midnightblue" points="136.93,-181.47 146.34,-176.59 135.94,-174.54 136.93,-181.47"/>
</g>
<!-- Node7 -->
<g id="node7" class="node">
<title>Node7</title>
<g id="a_node7"><a xlink:href="classipc_1_1transport_1_1Socket__stream__channel.html#acad7936d9a7db817bc46ee4fe479d838" target="_top" xlink:title="Identical to Native_socket_stream::remote_peer_process_credentials(): OS&#45;reported process credential ...">
<polygon fill="white" stroke="black" points="145,-100.5 145,-135.5 270,-135.5 270,-100.5 145,-100.5"/>
<text text-anchor="start" x="153" y="-125.1" font-family="Helvetica,sans-Serif" font-size="8.00">ipc::transport::Socket</text>
<text text-anchor="start" x="153" y="-116.1" font-family="Helvetica,sans-Serif" font-size="8.00">_stream_channel::remote</text>
<text text-anchor="middle" x="207.5" y="-107.1" font-family="Helvetica,sans-Serif" font-size="8.00">_peer_process_credentials</text>
</a>
</g>
</g>
<!-- Node1&#45;&gt;Node7 -->
<g id="edge7" class="edge">
<title>Node1&#45;&gt;Node7</title>
<path fill="none" stroke="midnightblue" d="M85.48,-172.47C101.49,-164.15 121.1,-154.25 139,-146 143.63,-143.86 148.48,-141.71 153.35,-139.59"/>
<polygon fill="midnightblue" stroke="midnightblue" points="154.9,-142.74 162.71,-135.58 152.14,-136.3 154.9,-142.74"/>
</g>
<!-- Node8 -->
<g id="node8" class="node">
<title>Node8</title>
<g id="a_node8"><a xlink:href="namespaceipc_1_1util.html#abda2ce5bcdbc26ca63d667b87818439c" target="_top" xlink:title="Maps general Permissions_level specifier to low&#45;level Permissions value, when the underlying resource...">
<polygon fill="white" stroke="black" points="146.5,-55 146.5,-81 268.5,-81 268.5,-55 146.5,-55"/>
<text text-anchor="start" x="154.5" y="-70.6" font-family="Helvetica,sans-Serif" font-size="8.00">ipc::util::shared_resource</text>
<text text-anchor="middle" x="207.5" y="-61.6" font-family="Helvetica,sans-Serif" font-size="8.00">_permissions</text>
</a>
</g>
</g>
<!-- Node1&#45;&gt;Node8 -->
<g id="edge8" class="edge">
<title>Node1&#45;&gt;Node8</title>
<path fill="none" stroke="midnightblue" d="M63.54,-172.46C78.23,-150.47 106.2,-112.99 139,-91 142.06,-88.95 145.32,-87.06 148.69,-85.33"/>
<polygon fill="midnightblue" stroke="midnightblue" points="150.22,-88.49 157.82,-81.11 147.28,-82.13 150.22,-88.49"/>
</g>
<!-- Node9 -->
<g id="node9" class="node">
<title>Node9</title>
<g id="a_node9"><a xlink:href="classipc_1_1transport_1_1sync__io_1_1Native__socket__stream.html#a2e22d55369f5bd67a4e0d277b73f2823" target="_top" xlink:title="Identical to Async_io_obj counterpart.">
<polygon fill="white" stroke="black" points="146,-0.5 146,-35.5 269,-35.5 269,-0.5 146,-0.5"/>
<text text-anchor="start" x="154" y="-25.1" font-family="Helvetica,sans-Serif" font-size="8.00">ipc::transport::sync</text>
<text text-anchor="start" x="154" y="-16.1" font-family="Helvetica,sans-Serif" font-size="8.00">_io::Native_socket_stream</text>
<text text-anchor="middle" x="207.5" y="-7.1" font-family="Helvetica,sans-Serif" font-size="8.00">::sync_connect</text>
</a>
</g>
</g>
<!-- Node1&#45;&gt;Node9 -->
<g id="edge9" class="edge">
<title>Node1&#45;&gt;Node9</title>
<path fill="none" stroke="midnightblue" d="M58.78,-172.5C70.29,-142.68 97.48,-81.8 139,-46 141.02,-44.26 143.16,-42.62 145.39,-41.07"/>
<polygon fill="midnightblue" stroke="midnightblue" points="147.68,-43.76 154.36,-35.54 144.01,-37.8 147.68,-43.76"/>
</g>
<!-- Node3&#45;&gt;Node3 -->
<g id="edge3" class="edge">
<title>Node3&#45;&gt;Node3</title>
<path fill="none" stroke="midnightblue" d="M181.11,-316.27C173.11,-325.46 181.91,-334.5 207.5,-334.5 223.1,-334.5 232.46,-331.14 235.58,-326.44"/>
<polygon fill="midnightblue" stroke="midnightblue" points="238.98,-325.56 233.89,-316.27 232.07,-326.71 238.98,-325.56"/>
</g>
<!-- Node10 -->
<g id="node10" class="node">
<title>Node10</title>
<g id="a_node10"><a xlink:href="classipc_1_1transport_1_1sync__io_1_1Native__socket__stream.html#a8e3703d5c8bac62f828a372691249c85" target="_top" xlink:title="Helper that simply returns m_impl while guaranteeing that m_impl is non&#45;null upon return.">
<polygon fill="white" stroke="black" points="312,-5 312,-31 458,-31 458,-5 312,-5"/>
<text text-anchor="start" x="320" y="-20.6" font-family="Helvetica,sans-Serif" font-size="8.00">ipc::transport::sync</text>
<text text-anchor="middle" x="385" y="-11.6" font-family="Helvetica,sans-Serif" font-size="8.00">_io::Native_socket_stream::impl</text>
</a>
</g>
</g>
<!-- Node9&#45;&gt;Node10 -->
<g id="edge10" class="edge">
<title>Node9&#45;&gt;Node10</title>
<path fill="none" stroke="midnightblue" d="M269.39,-18C279.74,-18 290.65,-18 301.45,-18"/>
<polygon fill="midnightblue" stroke="midnightblue" points="301.75,-21.5 311.75,-18 301.75,-14.5 301.75,-21.5"/>
</g>
</g>
</svg>
