<?xml version="1.0" encoding="UTF-8" standalone="no"?>
<!DOCTYPE svg PUBLIC "-//W3C//DTD SVG 1.1//EN"
 "http://www.w3.org/Graphics/SVG/1.1/DTD/svg11.dtd">
<!-- Generated by graphviz version 2.43.0 (0)
 -->
<!-- Title: ipc::transport::struc::Msg_out::store_native_handle_or_null Pages: 1 -->
<svg width="303pt" height="44pt"
 viewBox="0.00 0.00 303.00 44.00" xmlns="http://www.w3.org/2000/svg" xmlns:xlink="http://www.w3.org/1999/xlink">
<g id="graph0" class="graph" transform="scale(1 1) rotate(0) translate(4 40)">
<title>ipc::transport::struc::Msg_out::store_native_handle_or_null</title>
<polygon fill="white" stroke="transparent" points="-4,4 -4,-40 299,-40 299,4 -4,4"/>
<!-- Node1 -->
<g id="node1" class="node">
<title>Node1</title>
<g id="a_node1"><a xlink:title="Store the Native_handle (potentially .null(), meaning none) in this out&#45;message; no&#45;ops if the same ....">
<polygon fill="#bfbfbf" stroke="black" points="182,-0.5 182,-35.5 295,-35.5 295,-0.5 182,-0.5"/>
<text text-anchor="start" x="190" y="-25.1" font-family="Helvetica,sans-Serif" font-size="8.00">ipc::transport::struc</text>
<text text-anchor="start" x="190" y="-16.1" font-family="Helvetica,sans-Serif" font-size="8.00">::Msg_out::store_native</text>
<text text-anchor="middle" x="238.5" y="-7.1" font-family="Helvetica,sans-Serif" font-size="8.00">_handle_or_null</text>
</a>
</g>
</g>
<!-- Node2 -->
<g id="node2" class="node">
<title>Node2</title>
<g id="a_node2"><a xlink:href="classipc_1_1transport_1_1struc_1_1sync__io_1_1Channel.html#a426ecae27b4ea5cf7e666e56bad6afe5" target="_top" xlink:title="See Async_io_obj counterpart.">
<polygon fill="white" stroke="black" points="0,-5 0,-31 146,-31 146,-5 0,-5"/>
<text text-anchor="start" x="8" y="-20.6" font-family="Helvetica,sans-Serif" font-size="8.00">ipc::transport::struc</text>
<text text-anchor="middle" x="73" y="-11.6" font-family="Helvetica,sans-Serif" font-size="8.00">::sync_io::Channel::create_msg</text>
</a>
</g>
</g>
<!-- Node1&#45;&gt;Node2 -->
<g id="edge1" class="edge">
<title>Node1&#45;&gt;Node2</title>
<path fill="none" stroke="midnightblue" d="M171.58,-18C163.17,-18 154.53,-18 146.04,-18"/>
<polygon fill="midnightblue" stroke="midnightblue" points="171.69,-21.5 181.69,-18 171.69,-14.5 171.69,-21.5"/>
</g>
</g>
</svg>
