<?xml version="1.0" encoding="UTF-8" standalone="no"?>
<!DOCTYPE svg PUBLIC "-//W3C//DTD SVG 1.1//EN"
 "http://www.w3.org/Graphics/SVG/1.1/DTD/svg11.dtd">
<!-- Generated by graphviz version 2.43.0 (0)
 -->
<!-- Title: ipc::transport::Blob_stream_mq_sender_impl&lt; Persistent_mq_handle &gt; Pages: 1 -->
<svg width="292pt" height="116pt"
 viewBox="0.00 0.00 292.00 116.00" xmlns="http://www.w3.org/2000/svg" xmlns:xlink="http://www.w3.org/1999/xlink">
<g id="graph0" class="graph" transform="scale(1 1) rotate(0) translate(4 112)">
<title>ipc::transport::Blob_stream_mq_sender_impl&lt; Persistent_mq_handle &gt;</title>
<polygon fill="white" stroke="transparent" points="-4,4 -4,-112 288,-112 288,4 -4,4"/>
<!-- Node1 -->
<g id="node1" class="node">
<title>Node1</title>
<g id="a_node1"><a xlink:title="Internal, non&#45;movable pImpl&#45;lite implementation of Blob_stream_mq_sender class template.">
<polygon fill="#bfbfbf" stroke="black" points="160,-27.5 160,-62.5 284,-62.5 284,-27.5 160,-27.5"/>
<text text-anchor="start" x="168" y="-52.1" font-family="Helvetica,sans-Serif" font-size="8.00">ipc::transport::Blob</text>
<text text-anchor="start" x="168" y="-43.1" font-family="Helvetica,sans-Serif" font-size="8.00">_stream_mq_sender_impl</text>
<text text-anchor="middle" x="222" y="-34.1" font-family="Helvetica,sans-Serif" font-size="8.00">&lt; Persistent_mq_handle &gt;</text>
</a>
</g>
</g>
<!-- Node2 -->
<g id="node2" class="node">
<title>Node2</title>
<g id="a_node2"><a xlink:href="classipc_1_1transport_1_1Blob__stream__mq__base__impl.html" target="_top" xlink:title="Internal implementation of Blob_stream_mq_base class template; and common utilities used by Blob_stre...">
<polygon fill="white" stroke="black" points="0,-72.5 0,-107.5 124,-107.5 124,-72.5 0,-72.5"/>
<text text-anchor="start" x="8" y="-97.1" font-family="Helvetica,sans-Serif" font-size="8.00">ipc::transport::Blob</text>
<text text-anchor="start" x="8" y="-88.1" font-family="Helvetica,sans-Serif" font-size="8.00">_stream_mq_base_impl</text>
<text text-anchor="middle" x="62" y="-79.1" font-family="Helvetica,sans-Serif" font-size="8.00">&lt; Persistent_mq_handle &gt;</text>
</a>
</g>
</g>
<!-- Node2&#45;&gt;Node1 -->
<g id="edge1" class="edge">
<title>Node2&#45;&gt;Node1</title>
<path fill="none" stroke="midnightblue" d="M133.81,-69.83C142.48,-67.36 151.3,-64.85 159.82,-62.43"/>
<polygon fill="midnightblue" stroke="midnightblue" points="132.75,-66.5 124.09,-72.6 134.66,-73.23 132.75,-66.5"/>
</g>
<!-- Node3 -->
<g id="node3" class="node">
<title>Node3</title>
<g id="a_node3"><a xlink:title=" ">
<polygon fill="white" stroke="#bfbfbf" points="8.5,-36.5 8.5,-53.5 115.5,-53.5 115.5,-36.5 8.5,-36.5"/>
<text text-anchor="middle" x="62" y="-43.1" font-family="Helvetica,sans-Serif" font-size="8.00">flow::log::Log_context</text>
</a>
</g>
</g>
<!-- Node3&#45;&gt;Node1 -->
<g id="edge2" class="edge">
<title>Node3&#45;&gt;Node1</title>
<path fill="none" stroke="midnightblue" d="M125.77,-45C137,-45 148.68,-45 159.87,-45"/>
<polygon fill="midnightblue" stroke="midnightblue" points="125.61,-41.5 115.61,-45 125.61,-48.5 125.61,-41.5"/>
</g>
<!-- Node4 -->
<g id="node4" class="node">
<title>Node4</title>
<g id="a_node4"><a xlink:title=" ">
<polygon fill="white" stroke="#bfbfbf" points="12.5,-0.5 12.5,-17.5 111.5,-17.5 111.5,-0.5 12.5,-0.5"/>
<text text-anchor="middle" x="62" y="-7.1" font-family="Helvetica,sans-Serif" font-size="8.00">boost::noncopyable</text>
</a>
</g>
</g>
<!-- Node4&#45;&gt;Node1 -->
<g id="edge3" class="edge">
<title>Node4&#45;&gt;Node1</title>
<path fill="none" stroke="#8b1a1a" d="M110.33,-19.78C125.86,-23.32 143.34,-27.3 159.74,-31.04"/>
<polygon fill="#8b1a1a" stroke="#8b1a1a" points="110.97,-16.34 100.44,-17.53 109.42,-23.17 110.97,-16.34"/>
</g>
</g>
</svg>
