<?xml version="1.0" encoding="UTF-8" standalone="no"?>
<!DOCTYPE svg PUBLIC "-//W3C//DTD SVG 1.1//EN"
 "http://www.w3.org/Graphics/SVG/1.1/DTD/svg11.dtd">
<!-- Generated by graphviz version 2.43.0 (0)
 -->
<!-- Title: ipc::util::Shared_name::ct Pages: 1 -->
<svg width="628pt" height="1021pt"
 viewBox="0.00 0.00 628.00 1020.50" xmlns="http://www.w3.org/2000/svg" xmlns:xlink="http://www.w3.org/1999/xlink">
<g id="graph0" class="graph" transform="scale(1 1) rotate(0) translate(4 1016.5)">
<title>ipc::util::Shared_name::ct</title>
<polygon fill="white" stroke="transparent" points="-4,4 -4,-1016.5 624,-1016.5 624,4 -4,4"/>
<!-- Node1 -->
<g id="node1" class="node">
<title>Node1</title>
<g id="a_node1"><a xlink:title="Copy&#45;constructs from a char&#45;sequence container (including string, util::String_view,...">
<polygon fill="#bfbfbf" stroke="black" points="497,-490.5 497,-507.5 620,-507.5 620,-490.5 497,-490.5"/>
<text text-anchor="middle" x="558.5" y="-497.1" font-family="Helvetica,sans-Serif" font-size="8.00">ipc::util::Shared_name::ct</text>
</a>
</g>
</g>
<!-- Node2 -->
<g id="node2" class="node">
<title>Node2</title>
<g id="a_node2"><a xlink:href="classipc_1_1session_1_1Session__server__impl.html#a60ec88b23d73c354959a1e11636dc717" target="_top" xlink:title="See Session_server method.">
<polygon fill="white" stroke="black" points="317.5,-986 317.5,-1012 445.5,-1012 445.5,-986 317.5,-986"/>
<text text-anchor="start" x="325.5" y="-1001.6" font-family="Helvetica,sans-Serif" font-size="8.00">ipc::session::Session</text>
<text text-anchor="middle" x="381.5" y="-992.6" font-family="Helvetica,sans-Serif" font-size="8.00">_server_impl::async_accept</text>
</a>
</g>
</g>
<!-- Node1&#45;&gt;Node2 -->
<g id="edge1" class="edge">
<title>Node1&#45;&gt;Node2</title>
<path fill="none" stroke="midnightblue" d="M556.24,-517.75C550.55,-597.4 524.58,-906.74 461,-976 456.68,-980.71 451.45,-984.47 445.77,-987.48"/>
<polygon fill="midnightblue" stroke="midnightblue" points="559.74,-517.94 556.94,-507.72 552.76,-517.46 559.74,-517.94"/>
</g>
<!-- Node3 -->
<g id="node3" class="node">
<title>Node3</title>
<g id="a_node3"><a xlink:href="classipc_1_1session_1_1shm_1_1classic_1_1Server__session__impl.html#a9c78b2c35b853e1702a06ec451545945" target="_top" xlink:title="For use by internal user Session_server: See Server_session_mv counterpart.">
<polygon fill="white" stroke="black" points="318,-931.5 318,-966.5 445,-966.5 445,-931.5 318,-931.5"/>
<text text-anchor="start" x="326" y="-956.1" font-family="Helvetica,sans-Serif" font-size="8.00">ipc::session::shm::</text>
<text text-anchor="start" x="326" y="-947.1" font-family="Helvetica,sans-Serif" font-size="8.00">classic::Server_session</text>
<text text-anchor="middle" x="381.5" y="-938.1" font-family="Helvetica,sans-Serif" font-size="8.00">_impl::async_accept_log_in</text>
</a>
</g>
</g>
<!-- Node1&#45;&gt;Node3 -->
<g id="edge2" class="edge">
<title>Node1&#45;&gt;Node3</title>
<path fill="none" stroke="midnightblue" d="M555.62,-517.86C547.9,-591.73 516.43,-860.3 461,-922 456.57,-926.93 451.2,-930.96 445.36,-934.26"/>
<polygon fill="midnightblue" stroke="midnightblue" points="559.12,-518.05 556.65,-507.74 552.16,-517.33 559.12,-518.05"/>
</g>
<!-- Node4 -->
<g id="node4" class="node">
<title>Node4</title>
<g id="a_node4"><a xlink:href="classipc_1_1session_1_1Client__session__impl.html#a56c0d2b0ff082d1f7b0738e2528b4a92" target="_top" xlink:title="Core implementation of sync_connect().">
<polygon fill="white" stroke="black" points="330,-877.5 330,-912.5 433,-912.5 433,-877.5 330,-877.5"/>
<text text-anchor="start" x="338" y="-902.1" font-family="Helvetica,sans-Serif" font-size="8.00">ipc::session::Client</text>
<text text-anchor="start" x="338" y="-893.1" font-family="Helvetica,sans-Serif" font-size="8.00">_session_impl::async</text>
<text text-anchor="middle" x="381.5" y="-884.1" font-family="Helvetica,sans-Serif" font-size="8.00">_connect</text>
</a>
</g>
</g>
<!-- Node1&#45;&gt;Node4 -->
<g id="edge3" class="edge">
<title>Node1&#45;&gt;Node4</title>
<path fill="none" stroke="midnightblue" d="M554.98,-517.58C545.51,-584.93 510.05,-815.1 461,-868 453.55,-876.03 443.61,-881.67 433.31,-885.64"/>
<polygon fill="midnightblue" stroke="midnightblue" points="558.46,-517.97 556.36,-507.59 551.53,-517.02 558.46,-517.97"/>
</g>
<!-- Node5 -->
<g id="node5" class="node">
<title>Node5</title>
<g id="a_node5"><a xlink:href="classipc_1_1session_1_1shm_1_1classic_1_1Client__session__impl.html#a2e6f245648bff51b17a45a16178d62dc" target="_top" xlink:title="See session::Client_session_impl counterpart.">
<polygon fill="white" stroke="black" points="327,-823.5 327,-858.5 436,-858.5 436,-823.5 327,-823.5"/>
<text text-anchor="start" x="335" y="-848.1" font-family="Helvetica,sans-Serif" font-size="8.00">ipc::session::shm::</text>
<text text-anchor="start" x="335" y="-839.1" font-family="Helvetica,sans-Serif" font-size="8.00">classic::Client_session</text>
<text text-anchor="middle" x="381.5" y="-830.1" font-family="Helvetica,sans-Serif" font-size="8.00">_impl::async_connect</text>
</a>
</g>
</g>
<!-- Node1&#45;&gt;Node5 -->
<g id="edge4" class="edge">
<title>Node1&#45;&gt;Node5</title>
<path fill="none" stroke="midnightblue" d="M557.35,-517.78C555.89,-571.56 544.32,-727.79 461,-814 454.19,-821.05 445.46,-826.25 436.31,-830.1"/>
<polygon fill="midnightblue" stroke="midnightblue" points="560.85,-517.73 557.53,-507.67 553.85,-517.6 560.85,-517.73"/>
</g>
<!-- Node6 -->
<g id="node6" class="node">
<title>Node6</title>
<g id="a_node6"><a xlink:href="classipc_1_1session_1_1Session__base.html#a09cbe99083616bae00928f8e37c8373b" target="_top" xlink:title="Computes the name of the interprocess named&#45;mutex used to control reading/writing to the file storing...">
<polygon fill="white" stroke="black" points="318.5,-769.5 318.5,-804.5 444.5,-804.5 444.5,-769.5 318.5,-769.5"/>
<text text-anchor="start" x="326.5" y="-794.1" font-family="Helvetica,sans-Serif" font-size="8.00">ipc::session::Session</text>
<text text-anchor="start" x="326.5" y="-785.1" font-family="Helvetica,sans-Serif" font-size="8.00">_base::cur_ns_store_mutex</text>
<text text-anchor="middle" x="381.5" y="-776.1" font-family="Helvetica,sans-Serif" font-size="8.00">_absolute_name</text>
</a>
</g>
</g>
<!-- Node1&#45;&gt;Node6 -->
<g id="edge5" class="edge">
<title>Node1&#45;&gt;Node6</title>
<path fill="none" stroke="midnightblue" d="M555.98,-517.64C551.12,-564.94 531.86,-690.75 461,-760 456.26,-764.63 450.69,-768.47 444.74,-771.66"/>
<polygon fill="midnightblue" stroke="midnightblue" points="559.47,-517.9 556.9,-507.62 552.5,-517.26 559.47,-517.9"/>
</g>
<!-- Node7 -->
<g id="node7" class="node">
<title>Node7</title>
<g id="a_node7"><a xlink:href="namespaceipc_1_1session.html#ac970e7d7b97c1a9737bd836a6a7f77ec" target="_top" xlink:title="Decomposes a Shared_name built as&#45;if by build_conventional_shared_name() overload 1 (non&#45;global&#45;scope...">
<polygon fill="white" stroke="black" points="315,-724 315,-750 448,-750 448,-724 315,-724"/>
<text text-anchor="start" x="323" y="-739.6" font-family="Helvetica,sans-Serif" font-size="8.00">ipc::session::decompose</text>
<text text-anchor="middle" x="381.5" y="-730.6" font-family="Helvetica,sans-Serif" font-size="8.00">_conventional_shared_name</text>
</a>
</g>
</g>
<!-- Node1&#45;&gt;Node7 -->
<g id="edge6" class="edge">
<title>Node1&#45;&gt;Node7</title>
<path fill="none" stroke="midnightblue" d="M554.62,-517.67C547.15,-559.5 523.25,-661.29 461,-715 456.93,-718.51 452.34,-721.47 447.47,-723.95"/>
<polygon fill="midnightblue" stroke="midnightblue" points="558.11,-517.99 556.3,-507.55 551.21,-516.84 558.11,-517.99"/>
</g>
<!-- Node11 -->
<g id="node11" class="node">
<title>Node11</title>
<g id="a_node11"><a xlink:href="namespaceipc_1_1util.html#a49b39ceb74614b5f2d26dd86fd71bcb3" target="_top" xlink:title="Implementation of Persistent_object::for_each_persistent(); for example see shm::classic::Pool_arena:...">
<polygon fill="white" stroke="black" points="337,-679 337,-705 426,-705 426,-679 337,-679"/>
<text text-anchor="start" x="345" y="-694.6" font-family="Helvetica,sans-Serif" font-size="8.00">ipc::util::for_each</text>
<text text-anchor="middle" x="381.5" y="-685.6" font-family="Helvetica,sans-Serif" font-size="8.00">_persistent_impl</text>
</a>
</g>
</g>
<!-- Node1&#45;&gt;Node11 -->
<g id="edge10" class="edge">
<title>Node1&#45;&gt;Node11</title>
<path fill="none" stroke="midnightblue" d="M552.19,-517.38C541.15,-552.28 512.38,-628.32 461,-669 450.98,-676.93 438.3,-682.13 426.08,-685.54"/>
<polygon fill="midnightblue" stroke="midnightblue" points="555.61,-518.17 555.16,-507.59 548.91,-516.14 555.61,-518.17"/>
</g>
<!-- Node16 -->
<g id="node16" class="node">
<title>Node16</title>
<g id="a_node16"><a xlink:href="classipc_1_1session_1_1shm_1_1classic_1_1Session__server.html#a406e3860e68d2e863e64215aae43812e" target="_top" xlink:title="Implementation of our per_app_setup_func() customization point used in the ctor impl: invoked from an...">
<polygon fill="white" stroke="black" points="319,-624.5 319,-659.5 444,-659.5 444,-624.5 319,-624.5"/>
<text text-anchor="start" x="327" y="-649.1" font-family="Helvetica,sans-Serif" font-size="8.00">ipc::session::shm::</text>
<text text-anchor="start" x="327" y="-640.1" font-family="Helvetica,sans-Serif" font-size="8.00">classic::Session_server</text>
<text text-anchor="middle" x="381.5" y="-631.1" font-family="Helvetica,sans-Serif" font-size="8.00">::init_app_shm_as_needed</text>
</a>
</g>
</g>
<!-- Node1&#45;&gt;Node16 -->
<g id="edge15" class="edge">
<title>Node1&#45;&gt;Node16</title>
<path fill="none" stroke="midnightblue" d="M547.24,-516.27C531.61,-541.19 499.54,-587.2 461,-614 455.3,-617.97 448.97,-621.43 442.46,-624.44"/>
<polygon fill="midnightblue" stroke="midnightblue" points="550.34,-517.91 552.58,-507.55 544.37,-514.25 550.34,-517.91"/>
</g>
<!-- Node18 -->
<g id="node18" class="node">
<title>Node18</title>
<g id="a_node18"><a xlink:href="classipc_1_1session_1_1shm_1_1arena__lend_1_1jemalloc_1_1Session__server.html#ae5b53f9881efc8eccb5f93dc7d820c70" target="_top" xlink:title="Analogous to classic::Session_server::init_app_shm_as_needed().">
<polygon fill="white" stroke="black" points="328.5,-561 328.5,-605 434.5,-605 434.5,-561 328.5,-561"/>
<text text-anchor="start" x="336.5" y="-594.6" font-family="Helvetica,sans-Serif" font-size="8.00">ipc::session::shm::</text>
<text text-anchor="start" x="336.5" y="-585.6" font-family="Helvetica,sans-Serif" font-size="8.00">arena_lend::jemalloc</text>
<text text-anchor="start" x="336.5" y="-576.6" font-family="Helvetica,sans-Serif" font-size="8.00">::Session_server::init</text>
<text text-anchor="middle" x="381.5" y="-567.6" font-family="Helvetica,sans-Serif" font-size="8.00">_app_shm_as_needed</text>
</a>
</g>
</g>
<!-- Node1&#45;&gt;Node18 -->
<g id="edge17" class="edge">
<title>Node1&#45;&gt;Node18</title>
<path fill="none" stroke="midnightblue" d="M534,-512.58C514.68,-523.52 486.44,-539 461,-551 452.61,-554.95 443.6,-558.9 434.78,-562.6"/>
<polygon fill="midnightblue" stroke="midnightblue" points="535.76,-515.61 542.71,-507.61 532.29,-509.53 535.76,-515.61"/>
</g>
<!-- Node20 -->
<g id="node20" class="node">
<title>Node20</title>
<g id="a_node20"><a xlink:href="classipc_1_1session_1_1shm_1_1arena__lend_1_1jemalloc_1_1Session__impl.html#a46155078d8764c71a8d75db64345074b" target="_top" xlink:title="To be invoked at most once, synchronously sets up nearly&#45;all aspects of this arena&#45;lending&#45;SHM&#45;capabl...">
<polygon fill="white" stroke="black" points="323.5,-506.5 323.5,-541.5 439.5,-541.5 439.5,-506.5 323.5,-506.5"/>
<text text-anchor="start" x="331.5" y="-531.1" font-family="Helvetica,sans-Serif" font-size="8.00">ipc::session::shm::</text>
<text text-anchor="start" x="331.5" y="-522.1" font-family="Helvetica,sans-Serif" font-size="8.00">arena_lend::jemalloc</text>
<text text-anchor="middle" x="381.5" y="-513.1" font-family="Helvetica,sans-Serif" font-size="8.00">::Session_impl::init_shm</text>
</a>
</g>
</g>
<!-- Node1&#45;&gt;Node20 -->
<g id="edge19" class="edge">
<title>Node1&#45;&gt;Node20</title>
<path fill="none" stroke="midnightblue" d="M487.46,-509.01C471.57,-511.28 454.88,-513.66 439.6,-515.84"/>
<polygon fill="midnightblue" stroke="midnightblue" points="488.36,-512.41 497.76,-507.53 487.37,-505.48 488.36,-512.41"/>
</g>
<!-- Node21 -->
<g id="node21" class="node">
<title>Node21</title>
<g id="a_node21"><a xlink:href="classipc_1_1session_1_1Server__session__impl.html#a84d54a57d3e06c064cde737d1f4be472" target="_top" xlink:title="Helper for create_channel_and_resources(), invoked and compiled if and only if S_MQS_ENABLED,...">
<polygon fill="white" stroke="black" points="302,-461 302,-487 461,-487 461,-461 302,-461"/>
<text text-anchor="start" x="310" y="-476.6" font-family="Helvetica,sans-Serif" font-size="8.00">ipc::session::Server</text>
<text text-anchor="middle" x="381.5" y="-467.6" font-family="Helvetica,sans-Serif" font-size="8.00">_session_impl::make_channel_mqs</text>
</a>
</g>
</g>
<!-- Node1&#45;&gt;Node21 -->
<g id="edge20" class="edge">
<title>Node1&#45;&gt;Node21</title>
<path fill="none" stroke="midnightblue" d="M487.67,-489.02C478.95,-487.78 469.99,-486.5 461.15,-485.24"/>
<polygon fill="midnightblue" stroke="midnightblue" points="487.37,-492.52 497.76,-490.47 488.36,-485.59 487.37,-492.52"/>
</g>
<!-- Node22 -->
<g id="node22" class="node">
<title>Node22</title>
<g id="a_node22"><a xlink:href="classipc_1_1session_1_1Client__session__impl.html#ac983066e433f143cf02cd730260e6e65" target="_top" xlink:title="In thread W, handler for m_master_channel receiving a init&#45;channel&#45;open message.">
<polygon fill="white" stroke="black" points="316,-406.5 316,-441.5 447,-441.5 447,-406.5 316,-406.5"/>
<text text-anchor="start" x="324" y="-431.1" font-family="Helvetica,sans-Serif" font-size="8.00">ipc::session::Client</text>
<text text-anchor="start" x="324" y="-422.1" font-family="Helvetica,sans-Serif" font-size="8.00">_session_impl::on_master</text>
<text text-anchor="middle" x="381.5" y="-413.1" font-family="Helvetica,sans-Serif" font-size="8.00">_channel_init_open_channel</text>
</a>
</g>
</g>
<!-- Node1&#45;&gt;Node22 -->
<g id="edge21" class="edge">
<title>Node1&#45;&gt;Node22</title>
<path fill="none" stroke="midnightblue" d="M532.75,-485.57C513.5,-475.4 485.95,-461.45 461,-451 453.16,-447.72 444.76,-444.51 436.48,-441.53"/>
<polygon fill="midnightblue" stroke="midnightblue" points="531.28,-488.75 541.75,-490.37 534.57,-482.57 531.28,-488.75"/>
</g>
<!-- Node23 -->
<g id="node23" class="node">
<title>Node23</title>
<g id="a_node23"><a xlink:href="classipc_1_1session_1_1Client__session__impl.html#a139fde1cf8dc2c64276b9eb25b35bcee" target="_top" xlink:title="In thread W, handler for the successful receipt of log&#45;in response (upon send()ing the log&#45;in request...">
<polygon fill="white" stroke="black" points="320.5,-352.5 320.5,-387.5 442.5,-387.5 442.5,-352.5 320.5,-352.5"/>
<text text-anchor="start" x="328.5" y="-377.1" font-family="Helvetica,sans-Serif" font-size="8.00">ipc::session::Client</text>
<text text-anchor="start" x="328.5" y="-368.1" font-family="Helvetica,sans-Serif" font-size="8.00">_session_impl::on_master</text>
<text text-anchor="middle" x="381.5" y="-359.1" font-family="Helvetica,sans-Serif" font-size="8.00">_channel_log_in_rsp</text>
</a>
</g>
</g>
<!-- Node1&#45;&gt;Node23 -->
<g id="edge22" class="edge">
<title>Node1&#45;&gt;Node23</title>
<path fill="none" stroke="midnightblue" d="M545.62,-482.07C529.08,-459.63 497.03,-420.2 461,-397 455.31,-393.33 449.06,-390.1 442.65,-387.27"/>
<polygon fill="midnightblue" stroke="midnightblue" points="542.86,-484.22 551.55,-490.28 548.54,-480.12 542.86,-484.22"/>
</g>
<!-- Node24 -->
<g id="node24" class="node">
<title>Node24</title>
<g id="a_node24"><a xlink:href="classipc_1_1session_1_1Client__session__impl.html#a84bcd253bb1cd89fcf94233c2f771142" target="_top" xlink:title="In thread W, handler for m_master_channel receiving a passive&#45;open (a/k/a open&#45;channel&#45;to&#45;client) req...">
<polygon fill="white" stroke="black" points="315.5,-298.5 315.5,-333.5 447.5,-333.5 447.5,-298.5 315.5,-298.5"/>
<text text-anchor="start" x="323.5" y="-323.1" font-family="Helvetica,sans-Serif" font-size="8.00">ipc::session::Client</text>
<text text-anchor="start" x="323.5" y="-314.1" font-family="Helvetica,sans-Serif" font-size="8.00">_session_impl::on_master</text>
<text text-anchor="middle" x="381.5" y="-305.1" font-family="Helvetica,sans-Serif" font-size="8.00">_channel_open_channel_req</text>
</a>
</g>
</g>
<!-- Node1&#45;&gt;Node24 -->
<g id="edge23" class="edge">
<title>Node1&#45;&gt;Node24</title>
<path fill="none" stroke="midnightblue" d="M551.08,-481.01C538.68,-448.74 508.39,-380.86 461,-343 456.5,-339.4 451.48,-336.27 446.23,-333.54"/>
<polygon fill="midnightblue" stroke="midnightblue" points="547.84,-482.34 554.6,-490.49 554.41,-479.9 547.84,-482.34"/>
</g>
<!-- Node25 -->
<g id="node25" class="node">
<title>Node25</title>
<g id="a_node25"><a xlink:href="classipc_1_1session_1_1Client__session__impl.html#a4a377590fbf55b6d312f24d888d2a1bd" target="_top" xlink:title="See Client_session_mv counterpart.">
<polygon fill="white" stroke="black" points="313,-253 313,-279 450,-279 450,-253 313,-253"/>
<text text-anchor="start" x="321" y="-268.6" font-family="Helvetica,sans-Serif" font-size="8.00">ipc::session::Client</text>
<text text-anchor="middle" x="381.5" y="-259.6" font-family="Helvetica,sans-Serif" font-size="8.00">_session_impl::open_channel</text>
</a>
</g>
</g>
<!-- Node1&#45;&gt;Node25 -->
<g id="edge24" class="edge">
<title>Node1&#45;&gt;Node25</title>
<path fill="none" stroke="midnightblue" d="M554.3,-480.33C546.28,-439.4 521.5,-341.27 461,-289 456.49,-285.1 451.34,-281.86 445.89,-279.17"/>
<polygon fill="midnightblue" stroke="midnightblue" points="550.87,-481.07 556.13,-490.27 557.76,-479.8 550.87,-481.07"/>
</g>
<!-- Node26 -->
<g id="node26" class="node">
<title>Node26</title>
<g id="a_node26"><a xlink:href="classipc_1_1util_1_1Shared__name.html#a1f1a40877cc08b287f8f3c7e7f663782" target="_top" xlink:title="Returns new object equal to Shared_name(src2) with raw_src1 pre&#45;pended to it.">
<polygon fill="white" stroke="black" points="326.5,-208 326.5,-234 436.5,-234 436.5,-208 326.5,-208"/>
<text text-anchor="start" x="334.5" y="-223.6" font-family="Helvetica,sans-Serif" font-size="8.00">ipc::util::Shared_name</text>
<text text-anchor="middle" x="381.5" y="-214.6" font-family="Helvetica,sans-Serif" font-size="8.00">::operator+</text>
</a>
</g>
</g>
<!-- Node1&#45;&gt;Node26 -->
<g id="edge25" class="edge">
<title>Node1&#45;&gt;Node26</title>
<path fill="none" stroke="midnightblue" d="M556.06,-480.16C551.42,-432.95 532.67,-308.67 461,-243 454.11,-236.69 445.56,-232.17 436.66,-228.94"/>
<polygon fill="midnightblue" stroke="midnightblue" points="552.6,-480.77 556.96,-490.42 559.57,-480.15 552.6,-480.77"/>
</g>
<!-- Node27 -->
<g id="node27" class="node">
<title>Node27</title>
<g id="a_node27"><a xlink:href="classipc_1_1util_1_1Shared__name.html#a462b81d34ba23c968f63d9805fa74538" target="_top" xlink:title="Returns new object equal to Shared_name(raw_src1) /= src2.">
<polygon fill="white" stroke="black" points="326.5,-163 326.5,-189 436.5,-189 436.5,-163 326.5,-163"/>
<text text-anchor="start" x="334.5" y="-178.6" font-family="Helvetica,sans-Serif" font-size="8.00">ipc::util::Shared_name</text>
<text text-anchor="middle" x="381.5" y="-169.6" font-family="Helvetica,sans-Serif" font-size="8.00">::operator/</text>
</a>
</g>
</g>
<!-- Node1&#45;&gt;Node27 -->
<g id="edge26" class="edge">
<title>Node1&#45;&gt;Node27</title>
<path fill="none" stroke="midnightblue" d="M557.28,-480.12C555.61,-427.44 543.47,-277.48 461,-198 454.17,-191.42 445.54,-186.78 436.52,-183.51"/>
<polygon fill="midnightblue" stroke="midnightblue" points="553.79,-480.41 557.51,-490.33 560.78,-480.26 553.79,-480.41"/>
</g>
<!-- Node28 -->
<g id="node28" class="node">
<title>Node28</title>
<g id="a_node28"><a xlink:href="classipc_1_1util_1_1Shared__name.html#adfd8805e0d37556102cad7b191fee9a3" target="_top" xlink:title="Reads Shared_name from the given istream; equivalent to reading string into Shared_name::str().">
<polygon fill="white" stroke="black" points="326.5,-118 326.5,-144 436.5,-144 436.5,-118 326.5,-118"/>
<text text-anchor="start" x="334.5" y="-133.6" font-family="Helvetica,sans-Serif" font-size="8.00">ipc::util::Shared_name</text>
<text text-anchor="middle" x="381.5" y="-124.6" font-family="Helvetica,sans-Serif" font-size="8.00">::operator&gt;&gt;</text>
</a>
</g>
</g>
<!-- Node1&#45;&gt;Node28 -->
<g id="edge27" class="edge">
<title>Node1&#45;&gt;Node28</title>
<path fill="none" stroke="midnightblue" d="M558.21,-480.06C559.29,-422.28 554.38,-246.5 461,-153 454.3,-146.29 445.73,-141.59 436.73,-138.3"/>
<polygon fill="midnightblue" stroke="midnightblue" points="554.7,-480.16 557.93,-490.26 561.7,-480.36 554.7,-480.16"/>
</g>
<!-- Node29 -->
<g id="node29" class="node">
<title>Node29</title>
<g id="a_node29"><a xlink:href="classipc_1_1session_1_1Session__base.html#a3d34c5a9c283a6b7c8ab943f344cdd28" target="_top" xlink:title="Computes the absolute name at which the server shall set up a transport::Native_socket_stream_accepto...">
<polygon fill="white" stroke="black" points="322,-55 322,-99 441,-99 441,-55 322,-55"/>
<text text-anchor="start" x="330" y="-88.6" font-family="Helvetica,sans-Serif" font-size="8.00">ipc::session::Session</text>
<text text-anchor="start" x="330" y="-79.6" font-family="Helvetica,sans-Serif" font-size="8.00">_base::session_master</text>
<text text-anchor="start" x="330" y="-70.6" font-family="Helvetica,sans-Serif" font-size="8.00">_socket_stream_acceptor</text>
<text text-anchor="middle" x="381.5" y="-61.6" font-family="Helvetica,sans-Serif" font-size="8.00">_absolute_name</text>
</a>
</g>
</g>
<!-- Node1&#45;&gt;Node29 -->
<g id="edge28" class="edge">
<title>Node1&#45;&gt;Node29</title>
<path fill="none" stroke="midnightblue" d="M555.17,-480.3C546.13,-410.4 511.35,-165.6 461,-108 455.5,-101.71 448.56,-96.69 441.09,-92.67"/>
<polygon fill="midnightblue" stroke="midnightblue" points="551.71,-480.8 556.44,-490.28 558.65,-479.92 551.71,-480.8"/>
</g>
<!-- Node30 -->
<g id="node30" class="node">
<title>Node30</title>
<g id="a_node30"><a xlink:href="classipc_1_1session_1_1Session__server__impl.html#a9bf4d5502b41c98a98fee4cc3c2f2530" target="_top" xlink:title="See Session_server ctor; it does that.">
<polygon fill="white" stroke="black" points="329,-0.5 329,-35.5 434,-35.5 434,-0.5 329,-0.5"/>
<text text-anchor="start" x="337" y="-25.1" font-family="Helvetica,sans-Serif" font-size="8.00">ipc::session::Session</text>
<text text-anchor="start" x="337" y="-16.1" font-family="Helvetica,sans-Serif" font-size="8.00">_server_impl::Session</text>
<text text-anchor="middle" x="381.5" y="-7.1" font-family="Helvetica,sans-Serif" font-size="8.00">_server_impl</text>
</a>
</g>
</g>
<!-- Node1&#45;&gt;Node30 -->
<g id="edge29" class="edge">
<title>Node1&#45;&gt;Node30</title>
<path fill="none" stroke="midnightblue" d="M555.95,-480.26C549.22,-403.21 520.18,-111.87 461,-45 453.93,-37.01 444.39,-31.39 434.4,-27.43"/>
<polygon fill="midnightblue" stroke="midnightblue" points="552.47,-480.7 556.81,-490.37 559.45,-480.11 552.47,-480.7"/>
</g>
<!-- Node8 -->
<g id="node8" class="node">
<title>Node8</title>
<g id="a_node8"><a xlink:href="classipc_1_1session_1_1shm_1_1arena__lend_1_1jemalloc_1_1Client__session__impl.html#a697e64450297808bb9ca5c6a870c1fe9" target="_top" xlink:title="Invoked on m_async_cleanup_worker, performs a round of the SHM&#45;pool cleanup algorithm and schedules s...">
<polygon fill="white" stroke="black" points="153,-808 153,-852 256,-852 256,-808 153,-808"/>
<text text-anchor="start" x="161" y="-841.6" font-family="Helvetica,sans-Serif" font-size="8.00">ipc::session::shm::</text>
<text text-anchor="start" x="161" y="-832.6" font-family="Helvetica,sans-Serif" font-size="8.00">arena_lend::jemalloc</text>
<text text-anchor="start" x="161" y="-823.6" font-family="Helvetica,sans-Serif" font-size="8.00">::Client_session_impl</text>
<text text-anchor="middle" x="204.5" y="-814.6" font-family="Helvetica,sans-Serif" font-size="8.00">::cleanup</text>
</a>
</g>
</g>
<!-- Node7&#45;&gt;Node8 -->
<g id="edge7" class="edge">
<title>Node7&#45;&gt;Node8</title>
<path fill="none" stroke="midnightblue" d="M313.41,-753.97C309.45,-755.79 305.61,-757.79 302,-760 282.15,-772.13 284.53,-783.93 266,-798 261.36,-801.52 256.28,-804.87 251.1,-807.97"/>
<polygon fill="midnightblue" stroke="midnightblue" points="314.93,-757.12 322.81,-750.04 312.24,-750.66 314.93,-757.12"/>
</g>
<!-- Node10 -->
<g id="node10" class="node">
<title>Node10</title>
<g id="a_node10"><a xlink:href="classipc_1_1session_1_1shm_1_1arena__lend_1_1jemalloc_1_1Session__server.html#aafb28832358d6f75f363b932c291884f" target="_top" xlink:title="Invoked on m_async_cleanup_worker, performs a round of the SHM&#45;pool cleanup algorithm and schedules s...">
<polygon fill="white" stroke="black" points="143,-753.5 143,-788.5 266,-788.5 266,-753.5 143,-753.5"/>
<text text-anchor="start" x="151" y="-778.1" font-family="Helvetica,sans-Serif" font-size="8.00">ipc::session::shm::</text>
<text text-anchor="start" x="151" y="-769.1" font-family="Helvetica,sans-Serif" font-size="8.00">arena_lend::jemalloc</text>
<text text-anchor="middle" x="204.5" y="-760.1" font-family="Helvetica,sans-Serif" font-size="8.00">::Session_server::cleanup</text>
</a>
</g>
</g>
<!-- Node7&#45;&gt;Node10 -->
<g id="edge9" class="edge">
<title>Node7&#45;&gt;Node10</title>
<path fill="none" stroke="midnightblue" d="M304.98,-751.67C291.97,-754.2 278.59,-756.8 266.04,-759.24"/>
<polygon fill="midnightblue" stroke="midnightblue" points="305.69,-755.1 314.84,-749.76 304.35,-748.23 305.69,-755.1"/>
</g>
<!-- Node9 -->
<g id="node9" class="node">
<title>Node9</title>
<g id="a_node9"><a xlink:href="classipc_1_1session_1_1shm_1_1arena__lend_1_1jemalloc_1_1Client__session__impl.html#a2b5cecc4850a58fd597542df2fc4c890" target="_top" xlink:title="See session::Client_session_impl::Client_session_impl() counterpart.">
<polygon fill="white" stroke="black" points="2,-808 2,-852 105,-852 105,-808 2,-808"/>
<text text-anchor="start" x="10" y="-841.6" font-family="Helvetica,sans-Serif" font-size="8.00">ipc::session::shm::</text>
<text text-anchor="start" x="10" y="-832.6" font-family="Helvetica,sans-Serif" font-size="8.00">arena_lend::jemalloc</text>
<text text-anchor="start" x="10" y="-823.6" font-family="Helvetica,sans-Serif" font-size="8.00">::Client_session_impl</text>
<text text-anchor="middle" x="53.5" y="-814.6" font-family="Helvetica,sans-Serif" font-size="8.00">::Client_session_impl</text>
</a>
</g>
</g>
<!-- Node8&#45;&gt;Node9 -->
<g id="edge8" class="edge">
<title>Node8&#45;&gt;Node9</title>
<path fill="none" stroke="midnightblue" d="M142.39,-830C130,-830 117.11,-830 105.13,-830"/>
<polygon fill="midnightblue" stroke="midnightblue" points="142.64,-833.5 152.64,-830 142.64,-826.5 142.64,-833.5"/>
</g>
<!-- Node12 -->
<g id="node12" class="node">
<title>Node12</title>
<g id="a_node12"><a xlink:href="classipc_1_1transport_1_1Posix__mq__handle.html#a1df87fc56734cb902a71340eab6c0303" target="_top" xlink:title="Implements Persistent_mq_handle API.">
<polygon fill="white" stroke="black" points="151,-699.5 151,-734.5 258,-734.5 258,-699.5 151,-699.5"/>
<text text-anchor="start" x="159" y="-724.1" font-family="Helvetica,sans-Serif" font-size="8.00">ipc::transport::Posix</text>
<text text-anchor="start" x="159" y="-715.1" font-family="Helvetica,sans-Serif" font-size="8.00">_mq_handle::for_each</text>
<text text-anchor="middle" x="204.5" y="-706.1" font-family="Helvetica,sans-Serif" font-size="8.00">_persistent</text>
</a>
</g>
</g>
<!-- Node11&#45;&gt;Node12 -->
<g id="edge11" class="edge">
<title>Node11&#45;&gt;Node12</title>
<path fill="none" stroke="midnightblue" d="M326.73,-699.68C304.99,-702.79 279.96,-706.36 258.31,-709.46"/>
<polygon fill="midnightblue" stroke="midnightblue" points="327.39,-703.12 336.79,-698.24 326.4,-696.19 327.39,-703.12"/>
</g>
<!-- Node13 -->
<g id="node13" class="node">
<title>Node13</title>
<g id="a_node13"><a xlink:href="namespaceipc_1_1util.html#a74135195ff6c2f840092c21e522f964a" target="_top" xlink:title="Equivalent to shm::classic::Pool_arena::for_each_persistent().">
<polygon fill="white" stroke="black" points="152.5,-654 152.5,-680 256.5,-680 256.5,-654 152.5,-654"/>
<text text-anchor="start" x="160.5" y="-669.6" font-family="Helvetica,sans-Serif" font-size="8.00">ipc::util::for_each</text>
<text text-anchor="middle" x="204.5" y="-660.6" font-family="Helvetica,sans-Serif" font-size="8.00">_persistent_shm_pool</text>
</a>
</g>
</g>
<!-- Node11&#45;&gt;Node13 -->
<g id="edge12" class="edge">
<title>Node11&#45;&gt;Node13</title>
<path fill="none" stroke="midnightblue" d="M326.82,-684.33C304.52,-681.15 278.75,-677.46 256.72,-674.32"/>
<polygon fill="midnightblue" stroke="midnightblue" points="326.4,-687.81 336.79,-685.76 327.39,-680.88 326.4,-687.81"/>
</g>
<!-- Node14 -->
<g id="node14" class="node">
<title>Node14</title>
<g id="a_node14"><a xlink:href="classipc_1_1transport_1_1Bipc__mq__handle.html#a3d6fa3398edb4db10a933f9731924255" target="_top" xlink:title="Implements Persistent_mq_handle API.">
<polygon fill="white" stroke="black" points="0,-676.5 0,-711.5 107,-711.5 107,-676.5 0,-676.5"/>
<text text-anchor="start" x="8" y="-701.1" font-family="Helvetica,sans-Serif" font-size="8.00">ipc::transport::Bipc</text>
<text text-anchor="start" x="8" y="-692.1" font-family="Helvetica,sans-Serif" font-size="8.00">_mq_handle::for_each</text>
<text text-anchor="middle" x="53.5" y="-683.1" font-family="Helvetica,sans-Serif" font-size="8.00">_persistent</text>
</a>
</g>
</g>
<!-- Node13&#45;&gt;Node14 -->
<g id="edge13" class="edge">
<title>Node13&#45;&gt;Node14</title>
<path fill="none" stroke="midnightblue" d="M142.15,-678.12C130.53,-680.22 118.46,-682.41 107.14,-684.46"/>
<polygon fill="midnightblue" stroke="midnightblue" points="143.01,-681.52 152.22,-676.29 141.76,-674.63 143.01,-681.52"/>
</g>
<!-- Node15 -->
<g id="node15" class="node">
<title>Node15</title>
<g id="a_node15"><a xlink:href="classipc_1_1shm_1_1classic_1_1Pool__arena.html#a9e720283945eefe3d941b185e95d2ce1" target="_top" xlink:title="Lists all named SHM pool objects currently persisting, invoking the given handler synchronously on ea...">
<polygon fill="white" stroke="black" points="2,-622.5 2,-657.5 105,-657.5 105,-622.5 2,-622.5"/>
<text text-anchor="start" x="10" y="-647.1" font-family="Helvetica,sans-Serif" font-size="8.00">ipc::shm::classic::</text>
<text text-anchor="start" x="10" y="-638.1" font-family="Helvetica,sans-Serif" font-size="8.00">Pool_arena::for_each</text>
<text text-anchor="middle" x="53.5" y="-629.1" font-family="Helvetica,sans-Serif" font-size="8.00">_persistent</text>
</a>
</g>
</g>
<!-- Node13&#45;&gt;Node15 -->
<g id="edge14" class="edge">
<title>Node13&#45;&gt;Node15</title>
<path fill="none" stroke="midnightblue" d="M142.05,-655.86C129.76,-653.64 116.99,-651.32 105.12,-649.17"/>
<polygon fill="midnightblue" stroke="midnightblue" points="141.76,-659.37 152.22,-657.71 143.01,-652.48 141.76,-659.37"/>
</g>
<!-- Node17 -->
<g id="node17" class="node">
<title>Node17</title>
<g id="a_node17"><a xlink:href="classipc_1_1session_1_1shm_1_1classic_1_1Session__server.html#af10bb97219c59c34fce50be09eaacf0c" target="_top" xlink:title="Constructor: identical to session::Session_server ctor.">
<polygon fill="white" stroke="black" points="148.5,-599.5 148.5,-634.5 260.5,-634.5 260.5,-599.5 148.5,-599.5"/>
<text text-anchor="start" x="156.5" y="-624.1" font-family="Helvetica,sans-Serif" font-size="8.00">ipc::session::shm::</text>
<text text-anchor="start" x="156.5" y="-615.1" font-family="Helvetica,sans-Serif" font-size="8.00">classic::Session_server</text>
<text text-anchor="middle" x="204.5" y="-606.1" font-family="Helvetica,sans-Serif" font-size="8.00">::Session_server</text>
</a>
</g>
</g>
<!-- Node16&#45;&gt;Node17 -->
<g id="edge16" class="edge">
<title>Node16&#45;&gt;Node17</title>
<path fill="none" stroke="midnightblue" d="M308.87,-631.77C292.74,-629.46 275.85,-627.05 260.52,-624.86"/>
<polygon fill="midnightblue" stroke="midnightblue" points="308.41,-635.24 318.8,-633.19 309.4,-628.31 308.41,-635.24"/>
</g>
<!-- Node19 -->
<g id="node19" class="node">
<title>Node19</title>
<g id="a_node19"><a xlink:href="classipc_1_1session_1_1shm_1_1arena__lend_1_1jemalloc_1_1Session__server.html#a5cfd3651a06380b877738c6b5fc353a9" target="_top" xlink:title="Constructor: identical to session::Session_server ctor.">
<polygon fill="white" stroke="black" points="143.5,-536 143.5,-580 265.5,-580 265.5,-536 143.5,-536"/>
<text text-anchor="start" x="151.5" y="-569.6" font-family="Helvetica,sans-Serif" font-size="8.00">ipc::session::shm::</text>
<text text-anchor="start" x="151.5" y="-560.6" font-family="Helvetica,sans-Serif" font-size="8.00">arena_lend::jemalloc</text>
<text text-anchor="start" x="151.5" y="-551.6" font-family="Helvetica,sans-Serif" font-size="8.00">::Session_server::Session</text>
<text text-anchor="middle" x="204.5" y="-542.6" font-family="Helvetica,sans-Serif" font-size="8.00">_server</text>
</a>
</g>
</g>
<!-- Node18&#45;&gt;Node19 -->
<g id="edge18" class="edge">
<title>Node18&#45;&gt;Node19</title>
<path fill="none" stroke="midnightblue" d="M318.54,-574.15C301.35,-571.69 282.72,-569.03 265.64,-566.59"/>
<polygon fill="midnightblue" stroke="midnightblue" points="318.07,-577.62 328.47,-575.57 319.06,-570.69 318.07,-577.62"/>
</g>
</g>
</svg>
