<?xml version="1.0" encoding="UTF-8" standalone="no"?>
<!DOCTYPE svg PUBLIC "-//W3C//DTD SVG 1.1//EN"
 "http://www.w3.org/Graphics/SVG/1.1/DTD/svg11.dtd">
<!-- Generated by graphviz version 2.43.0 (0)
 -->
<!-- Title: ipc::transport::Posix_mq_handle::receive Pages: 1 -->
<svg width="574pt" height="146pt"
 viewBox="0.00 0.00 574.00 145.50" xmlns="http://www.w3.org/2000/svg" xmlns:xlink="http://www.w3.org/1999/xlink">
<g id="graph0" class="graph" transform="scale(1 1) rotate(0) translate(4 141.5)">
<title>ipc::transport::Posix_mq_handle::receive</title>
<polygon fill="white" stroke="transparent" points="-4,4 -4,-141.5 570,-141.5 570,4 -4,4"/>
<!-- Node1 -->
<g id="node1" class="node">
<title>Node1</title>
<g id="a_node1"><a xlink:title="Implements Persistent_mq_handle API: Blocking receive: pops copy of message from queue into buffer; i...">
<polygon fill="#bfbfbf" stroke="black" points="0,-60.5 0,-86.5 101,-86.5 101,-60.5 0,-60.5"/>
<text text-anchor="start" x="8" y="-76.1" font-family="Helvetica,sans-Serif" font-size="8.00">ipc::transport::Posix</text>
<text text-anchor="middle" x="50.5" y="-67.1" font-family="Helvetica,sans-Serif" font-size="8.00">_mq_handle::receive</text>
</a>
</g>
</g>
<!-- Node1&#45;&gt;Node1 -->
<g id="edge3" class="edge">
<title>Node1&#45;&gt;Node1</title>
<path fill="none" stroke="midnightblue" d="M24.44,-86.77C16.55,-95.96 25.23,-105 50.5,-105 65.9,-105 75.14,-101.64 78.22,-96.94"/>
<polygon fill="midnightblue" stroke="midnightblue" points="81.62,-96.07 76.56,-86.77 74.71,-97.2 81.62,-96.07"/>
</g>
<!-- Node2 -->
<g id="node2" class="node">
<title>Node2</title>
<g id="a_node2"><a xlink:href="classipc_1_1transport_1_1Posix__mq__handle.html#a244ee5da96550553edca346d77c2a825" target="_top" xlink:title="Helper that handles the result of an mq_*() call by logging WARNING(s) on error; setting *err_code on...">
<polygon fill="white" stroke="black" points="146.5,-102 146.5,-137 262.5,-137 262.5,-102 146.5,-102"/>
<text text-anchor="start" x="154.5" y="-126.6" font-family="Helvetica,sans-Serif" font-size="8.00">ipc::transport::Posix</text>
<text text-anchor="start" x="154.5" y="-117.6" font-family="Helvetica,sans-Serif" font-size="8.00">_mq_handle::handle_mq</text>
<text text-anchor="middle" x="204.5" y="-108.6" font-family="Helvetica,sans-Serif" font-size="8.00">_api_result</text>
</a>
</g>
</g>
<!-- Node1&#45;&gt;Node2 -->
<g id="edge1" class="edge">
<title>Node1&#45;&gt;Node2</title>
<path fill="none" stroke="midnightblue" d="M94.65,-86.56C107.7,-90.51 122.35,-94.94 136.57,-99.25"/>
<polygon fill="midnightblue" stroke="midnightblue" points="135.74,-102.65 146.32,-102.2 137.77,-95.95 135.74,-102.65"/>
</g>
<!-- Node3 -->
<g id="node3" class="node">
<title>Node3</title>
<g id="a_node3"><a xlink:href="structipc_1_1util_1_1Native__handle.html#a11bd62ce0a7bef4bdfe666201c26d4dc" target="_top" xlink:title="Returns true if and only if m_native_handle equals S_NULL_HANDLE.">
<polygon fill="white" stroke="black" points="454,-30.5 454,-56.5 566,-56.5 566,-30.5 454,-30.5"/>
<text text-anchor="start" x="462" y="-46.1" font-family="Helvetica,sans-Serif" font-size="8.00">ipc::util::Native_handle</text>
<text text-anchor="middle" x="510" y="-37.1" font-family="Helvetica,sans-Serif" font-size="8.00">::null</text>
</a>
</g>
</g>
<!-- Node1&#45;&gt;Node3 -->
<g id="edge2" class="edge">
<title>Node1&#45;&gt;Node3</title>
<path fill="none" stroke="midnightblue" d="M101.06,-71.66C171.55,-68.85 304.8,-62.8 418,-53.5 426.31,-52.82 435.04,-51.99 443.66,-51.12"/>
<polygon fill="midnightblue" stroke="midnightblue" points="444.12,-54.59 453.71,-50.07 443.4,-47.63 444.12,-54.59"/>
</g>
<!-- Node4 -->
<g id="node4" class="node">
<title>Node4</title>
<g id="a_node4"><a xlink:href="classipc_1_1transport_1_1Posix__mq__handle.html#a0f93df71d0c476e17b32ca4d6bf82b9b" target="_top" xlink:title="Implements Persistent_mq_handle API: Like receive() but without the actual popping of a message.">
<polygon fill="white" stroke="black" points="137,-9.5 137,-35.5 272,-35.5 272,-9.5 137,-9.5"/>
<text text-anchor="start" x="145" y="-25.1" font-family="Helvetica,sans-Serif" font-size="8.00">ipc::transport::Posix</text>
<text text-anchor="middle" x="204.5" y="-16.1" font-family="Helvetica,sans-Serif" font-size="8.00">_mq_handle::wait_receivable</text>
</a>
</g>
</g>
<!-- Node1&#45;&gt;Node4 -->
<g id="edge4" class="edge">
<title>Node1&#45;&gt;Node4</title>
<path fill="none" stroke="midnightblue" d="M90.25,-60.5C109.92,-53.9 134,-45.82 154.9,-38.81"/>
<polygon fill="midnightblue" stroke="midnightblue" points="156.19,-42.07 164.56,-35.57 153.96,-35.43 156.19,-42.07"/>
</g>
<!-- Node5 -->
<g id="node5" class="node">
<title>Node5</title>
<g id="a_node5"><a xlink:href="classipc_1_1transport_1_1Posix__mq__handle.html#a64e44dd9a0e2ba1f870a231ffcf02fb9" target="_top" xlink:title="Impl body for *_sendable() and *_receivable().">
<polygon fill="white" stroke="black" points="308,-0.5 308,-26.5 418,-26.5 418,-0.5 308,-0.5"/>
<text text-anchor="start" x="316" y="-16.1" font-family="Helvetica,sans-Serif" font-size="8.00">ipc::transport::Posix</text>
<text text-anchor="middle" x="363" y="-7.1" font-family="Helvetica,sans-Serif" font-size="8.00">_mq_handle::wait_impl</text>
</a>
</g>
</g>
<!-- Node4&#45;&gt;Node5 -->
<g id="edge5" class="edge">
<title>Node4&#45;&gt;Node5</title>
<path fill="none" stroke="midnightblue" d="M272.32,-18.66C280.71,-18.17 289.28,-17.68 297.63,-17.2"/>
<polygon fill="midnightblue" stroke="midnightblue" points="297.89,-20.69 307.67,-16.62 297.49,-13.7 297.89,-20.69"/>
</g>
<!-- Node5&#45;&gt;Node3 -->
<g id="edge6" class="edge">
<title>Node5&#45;&gt;Node3</title>
<path fill="none" stroke="midnightblue" d="M418.41,-24.76C426.72,-26.48 435.38,-28.27 443.9,-30.03"/>
<polygon fill="midnightblue" stroke="midnightblue" points="443.31,-33.48 453.81,-32.08 444.72,-26.63 443.31,-33.48"/>
</g>
<!-- Node5&#45;&gt;Node5 -->
<g id="edge7" class="edge">
<title>Node5&#45;&gt;Node5</title>
<path fill="none" stroke="midnightblue" d="M338.3,-26.77C330.81,-35.96 339.05,-45 363,-45 377.6,-45 386.36,-41.64 389.28,-36.94"/>
<polygon fill="midnightblue" stroke="midnightblue" points="392.69,-36.12 387.7,-26.77 385.77,-37.19 392.69,-36.12"/>
</g>
</g>
</svg>
