<?xml version="1.0" encoding="UTF-8" standalone="no"?>
<!DOCTYPE svg PUBLIC "-//W3C//DTD SVG 1.1//EN"
 "http://www.w3.org/Graphics/SVG/1.1/DTD/svg11.dtd">
<!-- Generated by graphviz version 2.43.0 (0)
 -->
<!-- Title: ipc::transport::sync_io::Blob_stream_mq_sender&lt; Persistent_mq_handle &gt; Pages: 1 -->
<svg width="147pt" height="116pt"
 viewBox="0.00 0.00 147.00 116.00" xmlns="http://www.w3.org/2000/svg" xmlns:xlink="http://www.w3.org/1999/xlink">
<g id="graph0" class="graph" transform="scale(1 1) rotate(0) translate(4 112)">
<title>ipc::transport::sync_io::Blob_stream_mq_sender&lt; Persistent_mq_handle &gt;</title>
<polygon fill="white" stroke="transparent" points="-4,4 -4,-112 143,-112 143,4 -4,4"/>
<!-- Node1 -->
<g id="node1" class="node">
<title>Node1</title>
<g id="a_node1"><a xlink:title="Implements sync_io::Blob_sender concept by using an adopted Persistent_mq_handle MQ handle to an MQ (...">
<polygon fill="#bfbfbf" stroke="black" points="3,-0.5 3,-35.5 136,-35.5 136,-0.5 3,-0.5"/>
<text text-anchor="start" x="11" y="-25.1" font-family="Helvetica,sans-Serif" font-size="8.00">ipc::transport::sync</text>
<text text-anchor="start" x="11" y="-16.1" font-family="Helvetica,sans-Serif" font-size="8.00">_io::Blob_stream_mq_sender</text>
<text text-anchor="middle" x="69.5" y="-7.1" font-family="Helvetica,sans-Serif" font-size="8.00">&lt; Persistent_mq_handle &gt;</text>
</a>
</g>
</g>
<!-- Node2 -->
<g id="node2" class="node">
<title>Node2</title>
<g id="a_node2"><a xlink:href="classipc_1_1transport_1_1Blob__stream__mq__base.html" target="_top" xlink:title="Base of Blob_stream_mq_sender and Blob_stream_mq_receiver containing certain static facilities,...">
<polygon fill="white" stroke="black" points="0,-72.5 0,-107.5 139,-107.5 139,-72.5 0,-72.5"/>
<text text-anchor="start" x="8" y="-97.1" font-family="Helvetica,sans-Serif" font-size="8.00">ipc::transport::Blob</text>
<text text-anchor="start" x="8" y="-88.1" font-family="Helvetica,sans-Serif" font-size="8.00">_stream_mq_base&lt; Persistent</text>
<text text-anchor="middle" x="69.5" y="-79.1" font-family="Helvetica,sans-Serif" font-size="8.00">_mq_handle &gt;</text>
</a>
</g>
</g>
<!-- Node2&#45;&gt;Node1 -->
<g id="edge1" class="edge">
<title>Node2&#45;&gt;Node1</title>
<path fill="none" stroke="midnightblue" d="M69.5,-62.19C69.5,-53.37 69.5,-43.83 69.5,-35.96"/>
<polygon fill="midnightblue" stroke="midnightblue" points="66,-62.41 69.5,-72.41 73,-62.41 66,-62.41"/>
</g>
</g>
</svg>
