<?xml version="1.0" encoding="UTF-8" standalone="no"?>
<!DOCTYPE svg PUBLIC "-//W3C//DTD SVG 1.1//EN"
 "http://www.w3.org/Graphics/SVG/1.1/DTD/svg11.dtd">
<!-- Generated by graphviz version 2.43.0 (0)
 -->
<!-- Title: ipc::session::Client_session_impl::on_master_channel_log_in_rsp Pages: 1 -->
<svg width="289pt" height="44pt"
 viewBox="0.00 0.00 289.00 44.00" xmlns="http://www.w3.org/2000/svg" xmlns:xlink="http://www.w3.org/1999/xlink">
<g id="graph0" class="graph" transform="scale(1 1) rotate(0) translate(4 40)">
<title>ipc::session::Client_session_impl::on_master_channel_log_in_rsp</title>
<polygon fill="white" stroke="transparent" points="-4,4 -4,-40 285,-40 285,4 -4,4"/>
<!-- Node1 -->
<g id="node1" class="node">
<title>Node1</title>
<g id="a_node1"><a xlink:title="In thread W, handler for the successful receipt of log&#45;in response (upon send()ing the log&#45;in request...">
<polygon fill="#bfbfbf" stroke="black" points="0,-0.5 0,-35.5 122,-35.5 122,-0.5 0,-0.5"/>
<text text-anchor="start" x="8" y="-25.1" font-family="Helvetica,sans-Serif" font-size="8.00">ipc::session::Client</text>
<text text-anchor="start" x="8" y="-16.1" font-family="Helvetica,sans-Serif" font-size="8.00">_session_impl::on_master</text>
<text text-anchor="middle" x="61" y="-7.1" font-family="Helvetica,sans-Serif" font-size="8.00">_channel_log_in_rsp</text>
</a>
</g>
</g>
<!-- Node2 -->
<g id="node2" class="node">
<title>Node2</title>
<g id="a_node2"><a xlink:href="classipc_1_1util_1_1Shared__name.html#a48f20b7b54490aa10dc64081d34c55b2" target="_top" xlink:title="Copy&#45;constructs from a char&#45;sequence container (including string, util::String_view,...">
<polygon fill="white" stroke="black" points="158,-9.5 158,-26.5 281,-26.5 281,-9.5 158,-9.5"/>
<text text-anchor="middle" x="219.5" y="-16.1" font-family="Helvetica,sans-Serif" font-size="8.00">ipc::util::Shared_name::ct</text>
</a>
</g>
</g>
<!-- Node1&#45;&gt;Node2 -->
<g id="edge1" class="edge">
<title>Node1&#45;&gt;Node2</title>
<path fill="none" stroke="midnightblue" d="M122.06,-18C130.49,-18 139.21,-18 147.81,-18"/>
<polygon fill="midnightblue" stroke="midnightblue" points="147.83,-21.5 157.83,-18 147.82,-14.5 147.83,-21.5"/>
</g>
</g>
</svg>
