<?xml version="1.0" encoding="UTF-8" standalone="no"?>
<!DOCTYPE svg PUBLIC "-//W3C//DTD SVG 1.1//EN"
 "http://www.w3.org/Graphics/SVG/1.1/DTD/svg11.dtd">
<!-- Generated by graphviz version 2.43.0 (0)
 -->
<!-- Title: ipc::util::Shared_name::clear Pages: 1 -->
<svg width="412pt" height="44pt"
 viewBox="0.00 0.00 412.00 44.00" xmlns="http://www.w3.org/2000/svg" xmlns:xlink="http://www.w3.org/1999/xlink">
<g id="graph0" class="graph" transform="scale(1 1) rotate(0) translate(4 40)">
<title>ipc::util::Shared_name::clear</title>
<polygon fill="white" stroke="transparent" points="-4,4 -4,-40 408,-40 408,4 -4,4"/>
<!-- Node1 -->
<g id="node1" class="node">
<title>Node1</title>
<g id="a_node1"><a xlink:title="Makes it so empty() == true.">
<polygon fill="#bfbfbf" stroke="black" points="294,-5 294,-31 404,-31 404,-5 294,-5"/>
<text text-anchor="start" x="302" y="-20.6" font-family="Helvetica,sans-Serif" font-size="8.00">ipc::util::Shared_name</text>
<text text-anchor="middle" x="349" y="-11.6" font-family="Helvetica,sans-Serif" font-size="8.00">::clear</text>
</a>
</g>
</g>
<!-- Node2 -->
<g id="node2" class="node">
<title>Node2</title>
<g id="a_node2"><a xlink:href="classipc_1_1transport_1_1Posix__mq__handle.html#aeec1f1528e8d51e85f0cbb784ea23e4b" target="_top" xlink:title="Implements Persistent_mq_handle API: Replaces handle with the source handle while making the latter i...">
<polygon fill="white" stroke="black" points="145,-5 145,-31 258,-31 258,-5 145,-5"/>
<text text-anchor="start" x="153" y="-20.6" font-family="Helvetica,sans-Serif" font-size="8.00">ipc::transport::Posix</text>
<text text-anchor="middle" x="201.5" y="-11.6" font-family="Helvetica,sans-Serif" font-size="8.00">_mq_handle::operator=</text>
</a>
</g>
</g>
<!-- Node1&#45;&gt;Node2 -->
<g id="edge1" class="edge">
<title>Node1&#45;&gt;Node2</title>
<path fill="none" stroke="midnightblue" d="M283.59,-18C275.12,-18 266.49,-18 258.18,-18"/>
<polygon fill="midnightblue" stroke="midnightblue" points="283.82,-21.5 293.82,-18 283.82,-14.5 283.82,-21.5"/>
</g>
<!-- Node3 -->
<g id="node3" class="node">
<title>Node3</title>
<g id="a_node3"><a xlink:href="classipc_1_1transport_1_1Posix__mq__handle.html#ab52cab86bdc869577e8f0722c6eb3097" target="_top" xlink:title="Implements Persistent_mq_handle API: Constructs handle from the source handle while making the latter...">
<polygon fill="white" stroke="black" points="0,-0.5 0,-35.5 109,-35.5 109,-0.5 0,-0.5"/>
<text text-anchor="start" x="8" y="-25.1" font-family="Helvetica,sans-Serif" font-size="8.00">ipc::transport::Posix</text>
<text text-anchor="start" x="8" y="-16.1" font-family="Helvetica,sans-Serif" font-size="8.00">_mq_handle::Posix_mq</text>
<text text-anchor="middle" x="54.5" y="-7.1" font-family="Helvetica,sans-Serif" font-size="8.00">_handle</text>
</a>
</g>
</g>
<!-- Node2&#45;&gt;Node3 -->
<g id="edge2" class="edge">
<title>Node2&#45;&gt;Node3</title>
<path fill="none" stroke="midnightblue" d="M134.62,-18C126.15,-18 117.57,-18 109.33,-18"/>
<polygon fill="midnightblue" stroke="midnightblue" points="134.85,-21.5 144.85,-18 134.85,-14.5 134.85,-21.5"/>
</g>
</g>
</svg>
