<?xml version="1.0" encoding="UTF-8" standalone="no"?>
<!DOCTYPE svg PUBLIC "-//W3C//DTD SVG 1.1//EN"
 "http://www.w3.org/Graphics/SVG/1.1/DTD/svg11.dtd">
<!-- Generated by graphviz version 2.43.0 (0)
 -->
<!-- Title: ipc::transport::Posix_mq_handle::timed_send Pages: 1 -->
<svg width="573pt" height="182pt"
 viewBox="0.00 0.00 573.00 181.50" xmlns="http://www.w3.org/2000/svg" xmlns:xlink="http://www.w3.org/1999/xlink">
<g id="graph0" class="graph" transform="scale(1 1) rotate(0) translate(4 177.5)">
<title>ipc::transport::Posix_mq_handle::timed_send</title>
<polygon fill="white" stroke="transparent" points="-4,4 -4,-177.5 569,-177.5 569,4 -4,4"/>
<!-- Node1 -->
<g id="node1" class="node">
<title>Node1</title>
<g id="a_node1"><a xlink:title="Implements Persistent_mq_handle API: Blocking timed send: pushes copy of message to queue; if queue i...">
<polygon fill="#bfbfbf" stroke="black" points="0,-83.5 0,-109.5 119,-109.5 119,-83.5 0,-83.5"/>
<text text-anchor="start" x="8" y="-99.1" font-family="Helvetica,sans-Serif" font-size="8.00">ipc::transport::Posix</text>
<text text-anchor="middle" x="59.5" y="-90.1" font-family="Helvetica,sans-Serif" font-size="8.00">_mq_handle::timed_send</text>
</a>
</g>
</g>
<!-- Node1&#45;&gt;Node1 -->
<g id="edge4" class="edge">
<title>Node1&#45;&gt;Node1</title>
<path fill="none" stroke="midnightblue" d="M33.78,-109.77C25.99,-118.96 34.56,-128 59.5,-128 74.7,-128 83.82,-124.64 86.86,-119.94"/>
<polygon fill="midnightblue" stroke="midnightblue" points="90.27,-119.09 85.22,-109.77 83.35,-120.2 90.27,-119.09"/>
</g>
<!-- Node2 -->
<g id="node2" class="node">
<title>Node2</title>
<g id="a_node2"><a xlink:href="namespaceipc_1_1util.html#a2bb38cee29dacbe56de5182221b45941" target="_top" xlink:title="Syntactic&#45;sugary helper that returns pointer to first byte in an immutable buffer,...">
<polygon fill="white" stroke="black" points="166,-156 166,-173 260,-173 260,-156 166,-156"/>
<text text-anchor="middle" x="213" y="-162.6" font-family="Helvetica,sans-Serif" font-size="8.00">ipc::util::blob_data</text>
</a>
</g>
</g>
<!-- Node1&#45;&gt;Node2 -->
<g id="edge1" class="edge">
<title>Node1&#45;&gt;Node2</title>
<path fill="none" stroke="midnightblue" d="M82.48,-109.59C101.29,-120.43 129.32,-135.75 155,-146.5 160.4,-148.76 166.18,-150.89 171.92,-152.85"/>
<polygon fill="midnightblue" stroke="midnightblue" points="170.87,-156.19 181.46,-155.97 173.04,-149.54 170.87,-156.19"/>
</g>
<!-- Node3 -->
<g id="node3" class="node">
<title>Node3</title>
<g id="a_node3"><a xlink:href="classipc_1_1transport_1_1Posix__mq__handle.html#a244ee5da96550553edca346d77c2a825" target="_top" xlink:title="Helper that handles the result of an mq_*() call by logging WARNING(s) on error; setting *err_code on...">
<polygon fill="white" stroke="black" points="155,-102 155,-137 271,-137 271,-102 155,-102"/>
<text text-anchor="start" x="163" y="-126.6" font-family="Helvetica,sans-Serif" font-size="8.00">ipc::transport::Posix</text>
<text text-anchor="start" x="163" y="-117.6" font-family="Helvetica,sans-Serif" font-size="8.00">_mq_handle::handle_mq</text>
<text text-anchor="middle" x="213" y="-108.6" font-family="Helvetica,sans-Serif" font-size="8.00">_api_result</text>
</a>
</g>
</g>
<!-- Node1&#45;&gt;Node3 -->
<g id="edge2" class="edge">
<title>Node1&#45;&gt;Node3</title>
<path fill="none" stroke="midnightblue" d="M119.07,-105.39C127.45,-106.66 136.13,-107.98 144.66,-109.28"/>
<polygon fill="midnightblue" stroke="midnightblue" points="144.17,-112.74 154.58,-110.78 145.22,-105.82 144.17,-112.74"/>
</g>
<!-- Node4 -->
<g id="node4" class="node">
<title>Node4</title>
<g id="a_node4"><a xlink:href="structipc_1_1util_1_1Native__handle.html#a11bd62ce0a7bef4bdfe666201c26d4dc" target="_top" xlink:title="Returns true if and only if m_native_handle equals S_NULL_HANDLE.">
<polygon fill="white" stroke="black" points="453,-30.5 453,-56.5 565,-56.5 565,-30.5 453,-30.5"/>
<text text-anchor="start" x="461" y="-46.1" font-family="Helvetica,sans-Serif" font-size="8.00">ipc::util::Native_handle</text>
<text text-anchor="middle" x="509" y="-37.1" font-family="Helvetica,sans-Serif" font-size="8.00">::null</text>
</a>
</g>
</g>
<!-- Node1&#45;&gt;Node4 -->
<g id="edge3" class="edge">
<title>Node1&#45;&gt;Node4</title>
<path fill="none" stroke="midnightblue" d="M119,-89.57C202.64,-79.67 355.87,-61.52 442.97,-51.2"/>
<polygon fill="midnightblue" stroke="midnightblue" points="443.48,-54.67 452.99,-50.01 442.65,-47.72 443.48,-54.67"/>
</g>
<!-- Node5 -->
<g id="node5" class="node">
<title>Node5</title>
<g id="a_node5"><a xlink:href="classipc_1_1transport_1_1Posix__mq__handle.html#aa46ffcc8019c998313c18ed05b7c6ad3" target="_top" xlink:title="Implements Persistent_mq_handle API: Like timed_send() but without the actual pushing of a message.">
<polygon fill="white" stroke="black" points="155,-3 155,-38 271,-38 271,-3 155,-3"/>
<text text-anchor="start" x="163" y="-27.6" font-family="Helvetica,sans-Serif" font-size="8.00">ipc::transport::Posix</text>
<text text-anchor="start" x="163" y="-18.6" font-family="Helvetica,sans-Serif" font-size="8.00">_mq_handle::timed_wait</text>
<text text-anchor="middle" x="213" y="-9.6" font-family="Helvetica,sans-Serif" font-size="8.00">_sendable</text>
</a>
</g>
</g>
<!-- Node1&#45;&gt;Node5 -->
<g id="edge5" class="edge">
<title>Node1&#45;&gt;Node5</title>
<path fill="none" stroke="midnightblue" d="M86.54,-83.44C108.87,-72.24 141.51,-55.86 167.9,-42.62"/>
<polygon fill="midnightblue" stroke="midnightblue" points="169.58,-45.7 176.94,-38.09 166.44,-39.44 169.58,-45.7"/>
</g>
<!-- Node6 -->
<g id="node6" class="node">
<title>Node6</title>
<g id="a_node6"><a xlink:href="classipc_1_1transport_1_1Posix__mq__handle.html#a64e44dd9a0e2ba1f870a231ffcf02fb9" target="_top" xlink:title="Impl body for *_sendable() and *_receivable().">
<polygon fill="white" stroke="black" points="307,-0.5 307,-26.5 417,-26.5 417,-0.5 307,-0.5"/>
<text text-anchor="start" x="315" y="-16.1" font-family="Helvetica,sans-Serif" font-size="8.00">ipc::transport::Posix</text>
<text text-anchor="middle" x="362" y="-7.1" font-family="Helvetica,sans-Serif" font-size="8.00">_mq_handle::wait_impl</text>
</a>
</g>
</g>
<!-- Node5&#45;&gt;Node6 -->
<g id="edge6" class="edge">
<title>Node5&#45;&gt;Node6</title>
<path fill="none" stroke="midnightblue" d="M271.25,-17.77C279.51,-17.38 288.05,-16.97 296.43,-16.57"/>
<polygon fill="midnightblue" stroke="midnightblue" points="296.73,-20.06 306.55,-16.09 296.39,-13.07 296.73,-20.06"/>
</g>
<!-- Node6&#45;&gt;Node4 -->
<g id="edge7" class="edge">
<title>Node6&#45;&gt;Node4</title>
<path fill="none" stroke="midnightblue" d="M417.41,-24.76C425.72,-26.48 434.38,-28.27 442.9,-30.03"/>
<polygon fill="midnightblue" stroke="midnightblue" points="442.31,-33.48 452.81,-32.08 443.72,-26.63 442.31,-33.48"/>
</g>
<!-- Node6&#45;&gt;Node6 -->
<g id="edge8" class="edge">
<title>Node6&#45;&gt;Node6</title>
<path fill="none" stroke="midnightblue" d="M337.3,-26.77C329.81,-35.96 338.05,-45 362,-45 376.6,-45 385.36,-41.64 388.28,-36.94"/>
<polygon fill="midnightblue" stroke="midnightblue" points="391.69,-36.12 386.7,-26.77 384.77,-37.19 391.69,-36.12"/>
</g>
</g>
</svg>
