<?xml version="1.0" encoding="UTF-8" standalone="no"?>
<!DOCTYPE svg PUBLIC "-//W3C//DTD SVG 1.1//EN"
 "http://www.w3.org/Graphics/SVG/1.1/DTD/svg11.dtd">
<!-- Generated by graphviz version 2.43.0 (0)
 -->
<!-- Title: Capnp_msg_builder_interface Pages: 1 -->
<svg width="300pt" height="98pt"
 viewBox="0.00 0.00 300.00 98.00" xmlns="http://www.w3.org/2000/svg" xmlns:xlink="http://www.w3.org/1999/xlink">
<g id="graph0" class="graph" transform="scale(1 1) rotate(0) translate(4 94)">
<title>Capnp_msg_builder_interface</title>
<polygon fill="white" stroke="transparent" points="-4,4 -4,-94 296,-94 296,4 -4,4"/>
<!-- Node1 -->
<g id="node1" class="node">
<title>Node1</title>
<g id="a_node1"><a xlink:title=" ">
<polygon fill="#bfbfbf" stroke="black" points="0,-36.5 0,-53.5 137,-53.5 137,-36.5 0,-36.5"/>
<text text-anchor="middle" x="68.5" y="-43.1" font-family="Helvetica,sans-Serif" font-size="8.00">Capnp_msg_builder_interface</text>
</a>
</g>
</g>
<!-- Node2 -->
<g id="node2" class="node">
<title>Node2</title>
<g id="a_node2"><a xlink:href="classipc_1_1transport_1_1struc_1_1Heap__fixed__builder__capnp__message__builder.html" target="_top" xlink:title="A capnp::MessageBuilder used by Heap_fixed_builder: similar to a capnp::MallocMessageBuilder with the...">
<polygon fill="white" stroke="black" points="173,-54.5 173,-89.5 292,-89.5 292,-54.5 173,-54.5"/>
<text text-anchor="start" x="181" y="-79.1" font-family="Helvetica,sans-Serif" font-size="8.00">ipc::transport::struc</text>
<text text-anchor="start" x="181" y="-70.1" font-family="Helvetica,sans-Serif" font-size="8.00">::Heap_fixed_builder</text>
<text text-anchor="middle" x="232.5" y="-61.1" font-family="Helvetica,sans-Serif" font-size="8.00">_capnp_message_builder</text>
</a>
</g>
</g>
<!-- Node1&#45;&gt;Node2 -->
<g id="edge1" class="edge">
<title>Node1&#45;&gt;Node2</title>
<path fill="none" stroke="midnightblue" d="M130.68,-55.2C144.53,-57.51 159.21,-59.95 172.96,-62.24"/>
<polygon fill="midnightblue" stroke="midnightblue" points="131.2,-51.73 120.76,-53.54 130.05,-58.64 131.2,-51.73"/>
</g>
<!-- Node3 -->
<g id="node3" class="node">
<title>Node3</title>
<g id="a_node3"><a xlink:href="classipc_1_1transport_1_1struc_1_1shm_1_1Capnp__message__builder.html" target="_top" xlink:title="A capnp::MessageBuilder used by shm::Builder: similar to a MallocMessageBuilder with the GROW_HEURIST...">
<polygon fill="white" stroke="black" points="176,-0.5 176,-35.5 289,-35.5 289,-0.5 176,-0.5"/>
<text text-anchor="start" x="184" y="-25.1" font-family="Helvetica,sans-Serif" font-size="8.00">ipc::transport::struc</text>
<text text-anchor="start" x="184" y="-16.1" font-family="Helvetica,sans-Serif" font-size="8.00">::shm::Capnp_message</text>
<text text-anchor="middle" x="232.5" y="-7.1" font-family="Helvetica,sans-Serif" font-size="8.00">_builder&lt; Shm_arena &gt;</text>
</a>
</g>
</g>
<!-- Node1&#45;&gt;Node3 -->
<g id="edge2" class="edge">
<title>Node1&#45;&gt;Node3</title>
<path fill="none" stroke="midnightblue" d="M130.81,-34.78C145.59,-32.32 161.3,-29.7 175.81,-27.28"/>
<polygon fill="midnightblue" stroke="midnightblue" points="130.05,-31.36 120.76,-36.46 131.2,-38.27 130.05,-31.36"/>
</g>
</g>
</svg>
