<?xml version="1.0" encoding="UTF-8" standalone="no"?>
<!DOCTYPE svg PUBLIC "-//W3C//DTD SVG 1.1//EN"
 "http://www.w3.org/Graphics/SVG/1.1/DTD/svg11.dtd">
<!-- Generated by graphviz version 2.43.0 (0)
 -->
<!-- Title: ipc::transport::Posix_mq_handle::wait_sendable Pages: 1 -->
<svg width="274pt" height="53pt"
 viewBox="0.00 0.00 274.00 53.00" xmlns="http://www.w3.org/2000/svg" xmlns:xlink="http://www.w3.org/1999/xlink">
<g id="graph0" class="graph" transform="scale(1 1) rotate(0) translate(4 49)">
<title>ipc::transport::Posix_mq_handle::wait_sendable</title>
<polygon fill="white" stroke="transparent" points="-4,4 -4,-49 270,-49 270,4 -4,4"/>
<!-- Node1 -->
<g id="node1" class="node">
<title>Node1</title>
<g id="a_node1"><a xlink:title="Implements Persistent_mq_handle API: Like send() but without the actual pushing of a message.">
<polygon fill="#bfbfbf" stroke="black" points="135,-0.5 135,-26.5 266,-26.5 266,-0.5 135,-0.5"/>
<text text-anchor="start" x="143" y="-16.1" font-family="Helvetica,sans-Serif" font-size="8.00">ipc::transport::Posix</text>
<text text-anchor="middle" x="200.5" y="-7.1" font-family="Helvetica,sans-Serif" font-size="8.00">_mq_handle::wait_sendable</text>
</a>
</g>
</g>
<!-- Node2 -->
<g id="node2" class="node">
<title>Node2</title>
<g id="a_node2"><a xlink:href="classipc_1_1transport_1_1Posix__mq__handle.html#a6e9b11537c7c83f43728aca7af348a42" target="_top" xlink:title="Implements Persistent_mq_handle API: Blocking send: pushes copy of message to queue; if queue is full...">
<polygon fill="white" stroke="black" points="0,-0.5 0,-26.5 99,-26.5 99,-0.5 0,-0.5"/>
<text text-anchor="start" x="8" y="-16.1" font-family="Helvetica,sans-Serif" font-size="8.00">ipc::transport::Posix</text>
<text text-anchor="middle" x="49.5" y="-7.1" font-family="Helvetica,sans-Serif" font-size="8.00">_mq_handle::send</text>
</a>
</g>
</g>
<!-- Node1&#45;&gt;Node2 -->
<g id="edge1" class="edge">
<title>Node1&#45;&gt;Node2</title>
<path fill="none" stroke="midnightblue" d="M124.47,-13.5C115.84,-13.5 107.22,-13.5 99.07,-13.5"/>
<polygon fill="midnightblue" stroke="midnightblue" points="124.58,-17 134.58,-13.5 124.58,-10 124.58,-17"/>
</g>
<!-- Node2&#45;&gt;Node2 -->
<g id="edge2" class="edge">
<title>Node2&#45;&gt;Node2</title>
<path fill="none" stroke="midnightblue" d="M76.5,-36.94C73.5,-41.64 64.5,-45 49.5,-45 24.89,-45 16.43,-35.96 24.12,-26.77"/>
<polygon fill="midnightblue" stroke="midnightblue" points="79.91,-36.1 74.88,-26.77 72.99,-37.2 79.91,-36.1"/>
</g>
</g>
</svg>
