<?xml version="1.0" encoding="UTF-8" standalone="no"?>
<!DOCTYPE svg PUBLIC "-//W3C//DTD SVG 1.1//EN"
 "http://www.w3.org/Graphics/SVG/1.1/DTD/svg11.dtd">
<!-- Generated by graphviz version 2.43.0 (0)
 -->
<!-- Title: ipc::transport::Mqs_socket_stream_channel&lt; SIO, Persistent_mq_handle &gt; Pages: 1 -->
<svg width="754pt" height="134pt"
 viewBox="0.00 0.00 754.00 134.00" xmlns="http://www.w3.org/2000/svg" xmlns:xlink="http://www.w3.org/1999/xlink">
<g id="graph0" class="graph" transform="scale(1 1) rotate(0) translate(4 130)">
<title>ipc::transport::Mqs_socket_stream_channel&lt; SIO, Persistent_mq_handle &gt;</title>
<polygon fill="white" stroke="transparent" points="-4,4 -4,-130 750,-130 750,4 -4,4"/>
<!-- Node1 -->
<g id="node1" class="node">
<title>Node1</title>
<g id="a_node1"><a xlink:title="A Channel with a blobs pipe consisting of 2 MQs of type Persistent_mq_handle (template arg); and a ha...">
<polygon fill="#bfbfbf" stroke="black" points="604,-45.5 604,-80.5 746,-80.5 746,-45.5 604,-45.5"/>
<text text-anchor="start" x="612" y="-70.1" font-family="Helvetica,sans-Serif" font-size="8.00">ipc::transport::Mqs</text>
<text text-anchor="start" x="612" y="-61.1" font-family="Helvetica,sans-Serif" font-size="8.00">_socket_stream_channel</text>
<text text-anchor="middle" x="675" y="-52.1" font-family="Helvetica,sans-Serif" font-size="8.00">&lt; SIO, Persistent_mq_handle &gt;</text>
</a>
</g>
</g>
<!-- Node2 -->
<g id="node2" class="node">
<title>Node2</title>
<g id="a_node2"><a xlink:href="classipc_1_1transport_1_1Mqs__channel.html" target="_top" xlink:title=" ">
<polygon fill="white" stroke="black" points="414,-23 414,-103 568,-103 568,-23 414,-23"/>
<text text-anchor="start" x="422" y="-92.6" font-family="Helvetica,sans-Serif" font-size="8.00">ipc::transport::Mqs</text>
<text text-anchor="start" x="422" y="-83.6" font-family="Helvetica,sans-Serif" font-size="8.00">_channel&lt; SIO, Persistent</text>
<text text-anchor="start" x="422" y="-74.6" font-family="Helvetica,sans-Serif" font-size="8.00">_mq_handle, std::conditional</text>
<text text-anchor="start" x="422" y="-65.6" font-family="Helvetica,sans-Serif" font-size="8.00">_t&lt; SIO, sync_io::Native_socket</text>
<text text-anchor="start" x="422" y="-56.6" font-family="Helvetica,sans-Serif" font-size="8.00">_stream, Native_socket_stream</text>
<text text-anchor="start" x="422" y="-47.6" font-family="Helvetica,sans-Serif" font-size="8.00"> &gt;, std::conditional_t&lt; SIO, sync</text>
<text text-anchor="start" x="422" y="-38.6" font-family="Helvetica,sans-Serif" font-size="8.00">_io::Native_socket_stream, Native</text>
<text text-anchor="middle" x="491" y="-29.6" font-family="Helvetica,sans-Serif" font-size="8.00">_socket_stream &gt; &gt;</text>
</a>
</g>
</g>
<!-- Node2&#45;&gt;Node1 -->
<g id="edge1" class="edge">
<title>Node2&#45;&gt;Node1</title>
<path fill="none" stroke="midnightblue" d="M578.22,-63C586.85,-63 595.55,-63 603.98,-63"/>
<polygon fill="midnightblue" stroke="midnightblue" points="578.13,-59.5 568.13,-63 578.13,-66.5 578.13,-59.5"/>
</g>
<!-- Node3 -->
<g id="node3" class="node">
<title>Node3</title>
<g id="a_node3"><a xlink:href="classipc_1_1transport_1_1Channel.html" target="_top" xlink:title=" ">
<polygon fill="white" stroke="black" points="143,-0.5 143,-125.5 378,-125.5 378,-0.5 143,-0.5"/>
<text text-anchor="start" x="151" y="-115.1" font-family="Helvetica,sans-Serif" font-size="8.00">ipc::transport::Channel</text>
<text text-anchor="start" x="151" y="-106.1" font-family="Helvetica,sans-Serif" font-size="8.00">&lt; std::conditional_t&lt;</text>
<text text-anchor="start" x="151" y="-97.1" font-family="Helvetica,sans-Serif" font-size="8.00"> SIO, sync_io::Blob_stream</text>
<text text-anchor="start" x="151" y="-88.1" font-family="Helvetica,sans-Serif" font-size="8.00">_mq_sender&lt; Persistent_mq</text>
<text text-anchor="start" x="151" y="-79.1" font-family="Helvetica,sans-Serif" font-size="8.00">_handle &gt;, Blob_stream_mq_sender</text>
<text text-anchor="start" x="151" y="-70.1" font-family="Helvetica,sans-Serif" font-size="8.00">&lt; Persistent_mq_handle &gt; &gt;, std</text>
<text text-anchor="start" x="151" y="-61.1" font-family="Helvetica,sans-Serif" font-size="8.00">::conditional_t&lt; SIO, sync_io::Blob</text>
<text text-anchor="start" x="151" y="-52.1" font-family="Helvetica,sans-Serif" font-size="8.00">_stream_mq_receiver&lt; Persistent_mq</text>
<text text-anchor="start" x="151" y="-43.1" font-family="Helvetica,sans-Serif" font-size="8.00">_handle &gt;, Blob_stream_mq_receiver&lt;</text>
<text text-anchor="start" x="151" y="-34.1" font-family="Helvetica,sans-Serif" font-size="8.00"> Persistent_mq_handle &gt; &gt;, std::conditional</text>
<text text-anchor="start" x="151" y="-25.1" font-family="Helvetica,sans-Serif" font-size="8.00">_t&lt; SIO, sync_io::Native_socket_stream, Native</text>
<text text-anchor="start" x="151" y="-16.1" font-family="Helvetica,sans-Serif" font-size="8.00">_socket_stream &gt;, std::conditional_t&lt; SIO, sync</text>
<text text-anchor="middle" x="260.5" y="-7.1" font-family="Helvetica,sans-Serif" font-size="8.00">_io::Native_socket_stream, Native_socket_stream &gt; &gt;</text>
</a>
</g>
</g>
<!-- Node3&#45;&gt;Node2 -->
<g id="edge2" class="edge">
<title>Node3&#45;&gt;Node2</title>
<path fill="none" stroke="midnightblue" d="M388.28,-63C396.94,-63 405.49,-63 413.75,-63"/>
<polygon fill="midnightblue" stroke="midnightblue" points="388.09,-59.5 378.09,-63 388.09,-66.5 388.09,-59.5"/>
</g>
<!-- Node4 -->
<g id="node4" class="node">
<title>Node4</title>
<g id="a_node4"><a xlink:title=" ">
<polygon fill="white" stroke="#bfbfbf" points="0,-54.5 0,-71.5 107,-71.5 107,-54.5 0,-54.5"/>
<text text-anchor="middle" x="53.5" y="-61.1" font-family="Helvetica,sans-Serif" font-size="8.00">flow::log::Log_context</text>
</a>
</g>
</g>
<!-- Node4&#45;&gt;Node3 -->
<g id="edge3" class="edge">
<title>Node4&#45;&gt;Node3</title>
<path fill="none" stroke="midnightblue" d="M117.21,-63C125.44,-63 134.08,-63 142.85,-63"/>
<polygon fill="midnightblue" stroke="midnightblue" points="117.03,-59.5 107.03,-63 117.03,-66.5 117.03,-59.5"/>
</g>
</g>
</svg>
