<?xml version="1.0" encoding="UTF-8" standalone="no"?>
<!DOCTYPE svg PUBLIC "-//W3C//DTD SVG 1.1//EN"
 "http://www.w3.org/Graphics/SVG/1.1/DTD/svg11.dtd">
<!-- Generated by graphviz version 2.43.0 (0)
 -->
<!-- Title: ipc::util::Process_credentials::own_process_id Pages: 1 -->
<svg width="306pt" height="98pt"
 viewBox="0.00 0.00 306.00 98.00" xmlns="http://www.w3.org/2000/svg" xmlns:xlink="http://www.w3.org/1999/xlink">
<g id="graph0" class="graph" transform="scale(1 1) rotate(0) translate(4 94)">
<title>ipc::util::Process_credentials::own_process_id</title>
<polygon fill="white" stroke="transparent" points="-4,4 -4,-94 302,-94 302,4 -4,4"/>
<!-- Node1 -->
<g id="node1" class="node">
<title>Node1</title>
<g id="a_node1"><a xlink:title="Obtains the calling process&#39;s process_id().">
<polygon fill="#bfbfbf" stroke="black" points="161,-32 161,-58 298,-58 298,-32 161,-32"/>
<text text-anchor="start" x="169" y="-47.6" font-family="Helvetica,sans-Serif" font-size="8.00">ipc::util::Process</text>
<text text-anchor="middle" x="229.5" y="-38.6" font-family="Helvetica,sans-Serif" font-size="8.00">_credentials::own_process_id</text>
</a>
</g>
</g>
<!-- Node2 -->
<g id="node2" class="node">
<title>Node2</title>
<g id="a_node2"><a xlink:href="classipc_1_1session_1_1Client__session__impl.html#a56c0d2b0ff082d1f7b0738e2528b4a92" target="_top" xlink:title="Core implementation of sync_connect().">
<polygon fill="white" stroke="black" points="11,-54.5 11,-89.5 114,-89.5 114,-54.5 11,-54.5"/>
<text text-anchor="start" x="19" y="-79.1" font-family="Helvetica,sans-Serif" font-size="8.00">ipc::session::Client</text>
<text text-anchor="start" x="19" y="-70.1" font-family="Helvetica,sans-Serif" font-size="8.00">_session_impl::async</text>
<text text-anchor="middle" x="62.5" y="-61.1" font-family="Helvetica,sans-Serif" font-size="8.00">_connect</text>
</a>
</g>
</g>
<!-- Node1&#45;&gt;Node2 -->
<g id="edge1" class="edge">
<title>Node1&#45;&gt;Node2</title>
<path fill="none" stroke="midnightblue" d="M150.92,-57.69C138.4,-59.74 125.72,-61.82 114.06,-63.73"/>
<polygon fill="midnightblue" stroke="midnightblue" points="151.61,-61.13 160.91,-56.06 150.48,-54.22 151.61,-61.13"/>
</g>
<!-- Node3 -->
<g id="node3" class="node">
<title>Node3</title>
<g id="a_node3"><a xlink:href="classipc_1_1util_1_1Process__credentials.html#a573d6de2f257144562fd55e0772991f1" target="_top" xlink:title="Constructs and returns Process_credentials containing values pertaining to the calling process at thi...">
<polygon fill="white" stroke="black" points="0,-0.5 0,-35.5 125,-35.5 125,-0.5 0,-0.5"/>
<text text-anchor="start" x="8" y="-25.1" font-family="Helvetica,sans-Serif" font-size="8.00">ipc::util::Process</text>
<text text-anchor="start" x="8" y="-16.1" font-family="Helvetica,sans-Serif" font-size="8.00">_credentials::own_process</text>
<text text-anchor="middle" x="62.5" y="-7.1" font-family="Helvetica,sans-Serif" font-size="8.00">_credentials</text>
</a>
</g>
</g>
<!-- Node1&#45;&gt;Node3 -->
<g id="edge2" class="edge">
<title>Node1&#45;&gt;Node3</title>
<path fill="none" stroke="midnightblue" d="M150.85,-32.29C142.23,-30.88 133.53,-29.46 125.15,-28.09"/>
<polygon fill="midnightblue" stroke="midnightblue" points="150.48,-35.78 160.91,-33.94 151.61,-28.87 150.48,-35.78"/>
</g>
</g>
</svg>
