<?xml version="1.0" encoding="UTF-8" standalone="no"?>
<!DOCTYPE svg PUBLIC "-//W3C//DTD SVG 1.1//EN"
 "http://www.w3.org/Graphics/SVG/1.1/DTD/svg11.dtd">
<!-- Generated by graphviz version 2.43.0 (0)
 -->
<!-- Title: ipc::transport::Protocol_negotiator::operator= Pages: 1 -->
<svg width="304pt" height="80pt"
 viewBox="0.00 0.00 304.00 80.00" xmlns="http://www.w3.org/2000/svg" xmlns:xlink="http://www.w3.org/1999/xlink">
<g id="graph0" class="graph" transform="scale(1 1) rotate(0) translate(4 76)">
<title>ipc::transport::Protocol_negotiator::operator=</title>
<polygon fill="white" stroke="transparent" points="-4,4 -4,-76 300,-76 300,4 -4,4"/>
<!-- Node1 -->
<g id="node1" class="node">
<title>Node1</title>
<g id="a_node1"><a xlink:title="Copy&#45;assigns *this to be equal to src.">
<polygon fill="#bfbfbf" stroke="black" points="185,-22.5 185,-48.5 296,-48.5 296,-22.5 185,-22.5"/>
<text text-anchor="start" x="193" y="-38.1" font-family="Helvetica,sans-Serif" font-size="8.00">ipc::transport::Protocol</text>
<text text-anchor="middle" x="240.5" y="-29.1" font-family="Helvetica,sans-Serif" font-size="8.00">_negotiator::operator=</text>
</a>
</g>
</g>
<!-- Node2 -->
<g id="node2" class="node">
<title>Node2</title>
<g id="a_node2"><a xlink:href="classipc_1_1transport_1_1Protocol__negotiator.html#a3d141a0758b4d0fb51f43cefb76234a6" target="_top" xlink:title="Move&#45;assigns *this to be equal to src, while src becomes as&#45;if just constructed; or no&#45;op if &amp;src == ...">
<polygon fill="white" stroke="black" points="19,-45.5 19,-71.5 130,-71.5 130,-45.5 19,-45.5"/>
<text text-anchor="start" x="27" y="-61.1" font-family="Helvetica,sans-Serif" font-size="8.00">ipc::transport::Protocol</text>
<text text-anchor="middle" x="74.5" y="-52.1" font-family="Helvetica,sans-Serif" font-size="8.00">_negotiator::operator=</text>
</a>
</g>
</g>
<!-- Node1&#45;&gt;Node2 -->
<g id="edge1" class="edge">
<title>Node1&#45;&gt;Node2</title>
<path fill="none" stroke="midnightblue" d="M174.81,-44.57C160.03,-46.65 144.46,-48.83 130.15,-50.84"/>
<polygon fill="midnightblue" stroke="midnightblue" points="175.47,-48.01 184.89,-43.16 174.5,-41.08 175.47,-48.01"/>
</g>
<!-- Node3 -->
<g id="node3" class="node">
<title>Node3</title>
<g id="a_node3"><a xlink:href="classipc_1_1transport_1_1Protocol__negotiator.html#aeb1b9e12cdfaa702c8a81b7ff81f1801" target="_top" xlink:title="Move&#45;constructs *this to be equal to src, while src becomes as&#45;if defaulted&#45;cted.">
<polygon fill="white" stroke="black" points="0,-0.5 0,-26.5 149,-26.5 149,-0.5 0,-0.5"/>
<text text-anchor="start" x="8" y="-16.1" font-family="Helvetica,sans-Serif" font-size="8.00">ipc::transport::Protocol</text>
<text text-anchor="middle" x="74.5" y="-7.1" font-family="Helvetica,sans-Serif" font-size="8.00">_negotiator::Protocol_negotiator</text>
</a>
</g>
</g>
<!-- Node1&#45;&gt;Node3 -->
<g id="edge2" class="edge">
<title>Node1&#45;&gt;Node3</title>
<path fill="none" stroke="midnightblue" d="M174.77,-26.82C166.36,-25.69 157.69,-24.52 149.14,-23.38"/>
<polygon fill="midnightblue" stroke="midnightblue" points="174.51,-30.31 184.89,-28.17 175.44,-23.38 174.51,-30.31"/>
</g>
</g>
</svg>
