<?xml version="1.0" encoding="UTF-8" standalone="no"?>
<!DOCTYPE svg PUBLIC "-//W3C//DTD SVG 1.1//EN"
 "http://www.w3.org/Graphics/SVG/1.1/DTD/svg11.dtd">
<!-- Generated by graphviz version 2.43.0 (0)
 -->
<!-- Title: ipc::util::sync_io::Timer_event_emitter::timer_async_wait Pages: 1 -->
<svg width="258pt" height="44pt"
 viewBox="0.00 0.00 258.00 44.00" xmlns="http://www.w3.org/2000/svg" xmlns:xlink="http://www.w3.org/1999/xlink">
<g id="graph0" class="graph" transform="scale(1 1) rotate(0) translate(4 40)">
<title>ipc::util::sync_io::Timer_event_emitter::timer_async_wait</title>
<polygon fill="white" stroke="transparent" points="-4,4 -4,-40 254,-40 254,4 -4,4"/>
<!-- Node1 -->
<g id="node1" class="node">
<title>Node1</title>
<g id="a_node1"><a xlink:title="To be used on a timer T returned by create_timer(), this is the replacement for the usual T....">
<polygon fill="#bfbfbf" stroke="black" points="0,-0.5 0,-35.5 105,-35.5 105,-0.5 0,-0.5"/>
<text text-anchor="start" x="8" y="-25.1" font-family="Helvetica,sans-Serif" font-size="8.00">ipc::util::sync_io</text>
<text text-anchor="start" x="8" y="-16.1" font-family="Helvetica,sans-Serif" font-size="8.00">::Timer_event_emitter</text>
<text text-anchor="middle" x="52.5" y="-7.1" font-family="Helvetica,sans-Serif" font-size="8.00">::timer_async_wait</text>
</a>
</g>
</g>
<!-- Node2 -->
<g id="node2" class="node">
<title>Node2</title>
<g id="a_node2"><a xlink:href="namespaceipc_1_1util.html#a5429c6225cc9a271ad8c0041d99c236b" target="_top" xlink:title="Writes a byte to the given pipe writer.">
<polygon fill="white" stroke="black" points="141,-9.5 141,-26.5 250,-26.5 250,-9.5 141,-9.5"/>
<text text-anchor="middle" x="195.5" y="-16.1" font-family="Helvetica,sans-Serif" font-size="8.00">ipc::util::pipe_produce</text>
</a>
</g>
</g>
<!-- Node1&#45;&gt;Node2 -->
<g id="edge1" class="edge">
<title>Node1&#45;&gt;Node2</title>
<path fill="none" stroke="midnightblue" d="M105.2,-18C113.56,-18 122.3,-18 130.91,-18"/>
<polygon fill="midnightblue" stroke="midnightblue" points="130.91,-21.5 140.91,-18 130.91,-14.5 130.91,-21.5"/>
</g>
</g>
</svg>
