<?xml version="1.0" encoding="UTF-8" standalone="no"?>
<!DOCTYPE svg PUBLIC "-//W3C//DTD SVG 1.1//EN"
 "http://www.w3.org/Graphics/SVG/1.1/DTD/svg11.dtd">
<!-- Generated by graphviz version 2.43.0 (0)
 -->
<!-- Title: ipc::transport::Native_socket_stream::Impl::Impl Pages: 1 -->
<svg width="683pt" height="44pt"
 viewBox="0.00 0.00 683.00 44.00" xmlns="http://www.w3.org/2000/svg" xmlns:xlink="http://www.w3.org/1999/xlink">
<g id="graph0" class="graph" transform="scale(1 1) rotate(0) translate(4 40)">
<title>ipc::transport::Native_socket_stream::Impl::Impl</title>
<polygon fill="white" stroke="transparent" points="-4,4 -4,-40 679,-40 679,4 -4,4"/>
<!-- Node1 -->
<g id="node1" class="node">
<title>Node1</title>
<g id="a_node1"><a xlink:title="Core delegated&#45;to ctor: does everything except m_sync_io.start_*_ops().">
<polygon fill="#bfbfbf" stroke="black" points="0,-5 0,-31 126,-31 126,-5 0,-5"/>
<text text-anchor="start" x="8" y="-20.6" font-family="Helvetica,sans-Serif" font-size="8.00">ipc::transport::Native</text>
<text text-anchor="middle" x="63" y="-11.6" font-family="Helvetica,sans-Serif" font-size="8.00">_socket_stream::Impl::Impl</text>
</a>
</g>
</g>
<!-- Node2 -->
<g id="node2" class="node">
<title>Node2</title>
<g id="a_node2"><a xlink:href="classipc_1_1transport_1_1sync__io_1_1Native__socket__stream.html#af5e6e5ccf19782cb698017e9dcf85b34" target="_top" xlink:title="Implements Native_handle_sender and Native_handle_receiver APIs at the same time, per their concept c...">
<polygon fill="white" stroke="black" points="162,-0.5 162,-35.5 300,-35.5 300,-0.5 162,-0.5"/>
<text text-anchor="start" x="170" y="-25.1" font-family="Helvetica,sans-Serif" font-size="8.00">ipc::transport::sync</text>
<text text-anchor="start" x="170" y="-16.1" font-family="Helvetica,sans-Serif" font-size="8.00">_io::Native_socket_stream</text>
<text text-anchor="middle" x="231" y="-7.1" font-family="Helvetica,sans-Serif" font-size="8.00">::replace_event_wait_handles</text>
</a>
</g>
</g>
<!-- Node1&#45;&gt;Node2 -->
<g id="edge1" class="edge">
<title>Node1&#45;&gt;Node2</title>
<path fill="none" stroke="midnightblue" d="M126.28,-18C134.53,-18 143.06,-18 151.53,-18"/>
<polygon fill="midnightblue" stroke="midnightblue" points="151.8,-21.5 161.8,-18 151.8,-14.5 151.8,-21.5"/>
</g>
<!-- Node3 -->
<g id="node3" class="node">
<title>Node3</title>
<g id="a_node3"><a xlink:href="classipc_1_1transport_1_1sync__io_1_1Native__socket__stream.html#a7488c933bc6734ff20222aef6f841995" target="_top" xlink:title="Template&#45;free version of replace_event_wait_handles() as required by pImpl idiom.">
<polygon fill="white" stroke="black" points="336,-0.5 336,-35.5 493,-35.5 493,-0.5 336,-0.5"/>
<text text-anchor="start" x="344" y="-25.1" font-family="Helvetica,sans-Serif" font-size="8.00">ipc::transport::sync</text>
<text text-anchor="start" x="344" y="-16.1" font-family="Helvetica,sans-Serif" font-size="8.00">_io::Native_socket_stream</text>
<text text-anchor="middle" x="414.5" y="-7.1" font-family="Helvetica,sans-Serif" font-size="8.00">::replace_event_wait_handles_fwd</text>
</a>
</g>
</g>
<!-- Node2&#45;&gt;Node3 -->
<g id="edge2" class="edge">
<title>Node2&#45;&gt;Node3</title>
<path fill="none" stroke="midnightblue" d="M300.1,-18C308.49,-18 317.15,-18 325.77,-18"/>
<polygon fill="midnightblue" stroke="midnightblue" points="325.87,-21.5 335.87,-18 325.87,-14.5 325.87,-21.5"/>
</g>
<!-- Node4 -->
<g id="node4" class="node">
<title>Node4</title>
<g id="a_node4"><a xlink:href="classipc_1_1transport_1_1sync__io_1_1Native__socket__stream.html#a8e3703d5c8bac62f828a372691249c85" target="_top" xlink:title="Helper that simply returns m_impl while guaranteeing that m_impl is non&#45;null upon return.">
<polygon fill="white" stroke="black" points="529,-5 529,-31 675,-31 675,-5 529,-5"/>
<text text-anchor="start" x="537" y="-20.6" font-family="Helvetica,sans-Serif" font-size="8.00">ipc::transport::sync</text>
<text text-anchor="middle" x="602" y="-11.6" font-family="Helvetica,sans-Serif" font-size="8.00">_io::Native_socket_stream::impl</text>
</a>
</g>
</g>
<!-- Node3&#45;&gt;Node4 -->
<g id="edge3" class="edge">
<title>Node3&#45;&gt;Node4</title>
<path fill="none" stroke="midnightblue" d="M493.09,-18C501.49,-18 510.06,-18 518.52,-18"/>
<polygon fill="midnightblue" stroke="midnightblue" points="518.75,-21.5 528.75,-18 518.75,-14.5 518.75,-21.5"/>
</g>
</g>
</svg>
