<?xml version="1.0" encoding="UTF-8" standalone="no"?>
<!DOCTYPE svg PUBLIC "-//W3C//DTD SVG 1.1//EN"
 "http://www.w3.org/Graphics/SVG/1.1/DTD/svg11.dtd">
<!-- Generated by graphviz version 2.43.0 (0)
 -->
<!-- Title: ipc::transport::struc::Channel&lt; Channel_obj, Message_body, Struct_builder_config, Struct_reader_config &gt; Pages: 1 -->
<svg width="403pt" height="324pt"
 viewBox="0.00 0.00 403.00 323.50" xmlns="http://www.w3.org/2000/svg" xmlns:xlink="http://www.w3.org/1999/xlink">
<g id="graph0" class="graph" transform="scale(1 1) rotate(0) translate(4 319.5)">
<title>ipc::transport::struc::Channel&lt; Channel_obj, Message_body, Struct_builder_config, Struct_reader_config &gt;</title>
<polygon fill="white" stroke="transparent" points="-4,4 -4,-319.5 399,-319.5 399,4 -4,4"/>
<!-- Node1 -->
<g id="node1" class="node">
<title>Node1</title>
<g id="a_node1"><a xlink:title="Owning and wrapping a pre&#45;connected transport::Channel peer (an endpoint of an established channel ov...">
<polygon fill="#bfbfbf" stroke="black" points="252,-147.5 252,-191.5 395,-191.5 395,-147.5 252,-147.5"/>
<text text-anchor="start" x="260" y="-181.1" font-family="Helvetica,sans-Serif" font-size="8.00">ipc::transport::struc</text>
<text text-anchor="start" x="260" y="-172.1" font-family="Helvetica,sans-Serif" font-size="8.00">::Channel&lt; Channel_obj,</text>
<text text-anchor="start" x="260" y="-163.1" font-family="Helvetica,sans-Serif" font-size="8.00"> Message_body, Struct_builder</text>
<text text-anchor="middle" x="323.5" y="-154.1" font-family="Helvetica,sans-Serif" font-size="8.00">_config, Struct_reader_config &gt;</text>
</a>
</g>
</g>
<!-- Node2 -->
<g id="node2" class="node">
<title>Node2</title>
<g id="a_node2"><a xlink:title=" ">
<polygon fill="white" stroke="#bfbfbf" points="8.5,-298 8.5,-315 107.5,-315 107.5,-298 8.5,-298"/>
<text text-anchor="middle" x="58" y="-304.6" font-family="Helvetica,sans-Serif" font-size="8.00">boost::noncopyable</text>
</a>
</g>
</g>
<!-- Node2&#45;&gt;Node1 -->
<g id="edge1" class="edge">
<title>Node2&#45;&gt;Node1</title>
<path fill="none" stroke="#8b1a1a" d="M117.78,-301.97C153.38,-297.14 198.59,-287.15 234,-266.5 265.9,-247.9 292.87,-213.99 308.37,-191.61"/>
<polygon fill="#8b1a1a" stroke="#8b1a1a" points="117.02,-298.54 107.54,-303.26 117.89,-305.48 117.02,-298.54"/>
</g>
<!-- Node3 -->
<g id="node3" class="node">
<title>Node3</title>
<g id="a_node3"><a xlink:title=" ">
<polygon fill="white" stroke="#bfbfbf" points="4.5,-262 4.5,-279 111.5,-279 111.5,-262 4.5,-262"/>
<text text-anchor="middle" x="58" y="-268.6" font-family="Helvetica,sans-Serif" font-size="8.00">flow::log::Log_context</text>
</a>
</g>
</g>
<!-- Node3&#45;&gt;Node1 -->
<g id="edge2" class="edge">
<title>Node3&#45;&gt;Node1</title>
<path fill="none" stroke="midnightblue" d="M121.92,-267.4C156.27,-263.85 198.85,-256.32 234,-240.5 259.87,-228.86 284.63,-207.85 301.36,-191.69"/>
<polygon fill="midnightblue" stroke="midnightblue" points="121.17,-263.96 111.54,-268.38 121.83,-270.93 121.17,-263.96"/>
</g>
<!-- Node4 -->
<g id="node4" class="node">
<title>Node4</title>
<g id="a_node4"><a xlink:title=" ">
<polygon fill="white" stroke="#bfbfbf" points="7.5,-226 7.5,-243 108.5,-243 108.5,-226 7.5,-226"/>
<text text-anchor="middle" x="58" y="-232.6" font-family="Helvetica,sans-Serif" font-size="8.00">Mutex_non_recursive</text>
</a>
</g>
</g>
<!-- Node4&#45;&gt;Node1 -->
<g id="edge3" class="edge">
<title>Node4&#45;&gt;Node1</title>
<path fill="none" stroke="#9a32cd" stroke-dasharray="5,2" d="M113.05,-223.96C147.77,-216.9 193.75,-206.99 234,-196.5 239.91,-194.96 246.01,-193.28 252.12,-191.54"/>
<polygon fill="#9a32cd" stroke="#9a32cd" points="112.22,-220.56 103.11,-225.97 113.6,-227.42 112.22,-220.56"/>
<text text-anchor="middle" x="184" y="-230.1" font-family="Helvetica,sans-Serif" font-size="8.00"> m_mutex</text>
<text text-anchor="middle" x="184" y="-221.1" font-family="Helvetica,sans-Serif" font-size="8.00">m_sync_op_mutex</text>
</g>
<!-- Node5 -->
<g id="node5" class="node">
<title>Node5</title>
<g id="a_node5"><a xlink:title=" ">
<polygon fill="white" stroke="#bfbfbf" points="0.5,-172 0.5,-207 115.5,-207 115.5,-172 0.5,-172"/>
<text text-anchor="start" x="8.5" y="-196.6" font-family="Helvetica,sans-Serif" font-size="8.00">optional&lt; ipc::transport</text>
<text text-anchor="start" x="8.5" y="-187.6" font-family="Helvetica,sans-Serif" font-size="8.00">::struc::Channel::Sync</text>
<text text-anchor="middle" x="58" y="-178.6" font-family="Helvetica,sans-Serif" font-size="8.00">_op_state &gt;</text>
</a>
</g>
</g>
<!-- Node5&#45;&gt;Node1 -->
<g id="edge4" class="edge">
<title>Node5&#45;&gt;Node1</title>
<path fill="none" stroke="#9a32cd" stroke-dasharray="5,2" d="M125.62,-184.44C164.2,-181.52 212.74,-177.83 251.96,-174.85"/>
<polygon fill="#9a32cd" stroke="#9a32cd" points="125.23,-180.96 115.53,-185.21 125.76,-187.94 125.23,-180.96"/>
<text text-anchor="middle" x="184" y="-186.1" font-family="Helvetica,sans-Serif" font-size="8.00"> m_sync_op_state</text>
</g>
<!-- Node6 -->
<g id="node6" class="node">
<title>Node6</title>
<g id="a_node6"><a xlink:title=" ">
<polygon fill="white" stroke="#bfbfbf" points="24,-136 24,-153 92,-153 92,-136 24,-136"/>
<text text-anchor="middle" x="58" y="-142.6" font-family="Helvetica,sans-Serif" font-size="8.00">unsigned int</text>
</a>
</g>
</g>
<!-- Node6&#45;&gt;Node1 -->
<g id="edge5" class="edge">
<title>Node6&#45;&gt;Node1</title>
<path fill="none" stroke="#9a32cd" stroke-dasharray="5,2" d="M102.21,-148.6C142.78,-152.45 204.22,-158.28 251.92,-162.8"/>
<polygon fill="#9a32cd" stroke="#9a32cd" points="102.39,-145.1 92.11,-147.64 101.73,-152.07 102.39,-145.1"/>
<text text-anchor="middle" x="184" y="-163.1" font-family="Helvetica,sans-Serif" font-size="8.00"> m_sync_op_state_id</text>
</g>
<!-- Node7 -->
<g id="node7" class="node">
<title>Node7</title>
<g id="a_node7"><a xlink:title=" ">
<polygon fill="white" stroke="#bfbfbf" points="22.5,-100 22.5,-117 93.5,-117 93.5,-100 22.5,-100"/>
<text text-anchor="middle" x="58" y="-106.6" font-family="Helvetica,sans-Serif" font-size="8.00">Task_asio_err</text>
</a>
</g>
</g>
<!-- Node7&#45;&gt;Node1 -->
<g id="edge6" class="edge">
<title>Node7&#45;&gt;Node1</title>
<path fill="none" stroke="#9a32cd" stroke-dasharray="5,2" d="M103.94,-110.13C139.72,-112.32 190.81,-117.46 234,-129.5 249.75,-133.89 266.28,-140.7 280.72,-147.46"/>
<polygon fill="#9a32cd" stroke="#9a32cd" points="103.99,-106.63 93.81,-109.56 103.6,-113.61 103.99,-106.63"/>
<text text-anchor="start" x="134" y="-141.1" font-family="Helvetica,sans-Serif" font-size="8.00"> m_snd_end_sending_on</text>
<text text-anchor="middle" x="184" y="-132.1" font-family="Helvetica,sans-Serif" font-size="8.00">_done_func_or_empty</text>
</g>
<!-- Node8 -->
<g id="node8" class="node">
<title>Node8</title>
<g id="a_node8"><a xlink:title=" ">
<polygon fill="white" stroke="#bfbfbf" points="0,-64 0,-81 116,-81 116,-64 0,-64"/>
<text text-anchor="middle" x="58" y="-70.6" font-family="Helvetica,sans-Serif" font-size="8.00">Single_thread_task_loop</text>
</a>
</g>
</g>
<!-- Node8&#45;&gt;Node1 -->
<g id="edge7" class="edge">
<title>Node8&#45;&gt;Node1</title>
<path fill="none" stroke="#9a32cd" stroke-dasharray="5,2" d="M126.38,-74.81C159.87,-77.95 200.29,-84.8 234,-99.5 259.68,-110.7 284.28,-131.23 301,-147.17"/>
<polygon fill="#9a32cd" stroke="#9a32cd" points="126.48,-71.31 116.22,-73.95 125.89,-78.28 126.48,-71.31"/>
<text text-anchor="middle" x="184" y="-102.1" font-family="Helvetica,sans-Serif" font-size="8.00"> m_worker</text>
</g>
<!-- Node9 -->
<g id="node9" class="node">
<title>Node9</title>
<g id="a_node9"><a xlink:title=" ">
<polygon fill="white" stroke="#bfbfbf" points="2,-0.5 2,-44.5 114,-44.5 114,-0.5 2,-0.5"/>
<text text-anchor="start" x="10" y="-34.1" font-family="Helvetica,sans-Serif" font-size="8.00">Channel&lt; Channel_obj,</text>
<text text-anchor="start" x="10" y="-25.1" font-family="Helvetica,sans-Serif" font-size="8.00"> Message_body, Struct</text>
<text text-anchor="start" x="10" y="-16.1" font-family="Helvetica,sans-Serif" font-size="8.00">_builder_config, Struct</text>
<text text-anchor="middle" x="58" y="-7.1" font-family="Helvetica,sans-Serif" font-size="8.00">_reader_config &gt;</text>
</a>
</g>
</g>
<!-- Node9&#45;&gt;Node1 -->
<g id="edge8" class="edge">
<title>Node9&#45;&gt;Node1</title>
<path fill="none" stroke="#9a32cd" stroke-dasharray="5,2" d="M124.16,-27.24C158.85,-32.17 201.04,-42.19 234,-62.5 268.27,-83.62 295.49,-122.72 310.28,-147.35"/>
<polygon fill="#9a32cd" stroke="#9a32cd" points="124.49,-23.75 114.12,-25.92 123.58,-30.69 124.49,-23.75"/>
<text text-anchor="middle" x="184" y="-65.1" font-family="Helvetica,sans-Serif" font-size="8.00"> m_sync_io</text>
</g>
</g>
</svg>
