<?xml version="1.0" encoding="UTF-8" standalone="no"?>
<!DOCTYPE svg PUBLIC "-//W3C//DTD SVG 1.1//EN"
 "http://www.w3.org/Graphics/SVG/1.1/DTD/svg11.dtd">
<!-- Generated by graphviz version 2.43.0 (0)
 -->
<!-- Title: session/detail Pages: 1 -->
<svg width="452pt" height="173pt"
 viewBox="0.00 0.00 452.00 173.00" xmlns="http://www.w3.org/2000/svg" xmlns:xlink="http://www.w3.org/1999/xlink">
<g id="graph0" class="graph" transform="scale(1 1) rotate(0) translate(4 169)">
<title>session/detail</title>
<polygon fill="white" stroke="transparent" points="-4,4 -4,-169 448,-169 448,4 -4,4"/>
<g id="clust1" class="cluster">
<title>clusterdir_23fbec4e7c966aae2efbb90aeb47f596</title>
<g id="a_clust1"><a xlink:href="dir_23fbec4e7c966aae2efbb90aeb47f596.html" target="_top" xlink:title="session">
<polygon fill="#edf0f7" stroke="#404040" stroke-dasharray="5,2" points="8,-8 8,-157 166,-157 166,-8 8,-8"/>
<text text-anchor="middle" x="87" y="-146.6" font-family="Helvetica,sans-Serif" font-size="8.00">session</text>
</a>
</g>
</g>
<g id="clust2" class="cluster">
<title>clusterdir_f0dcdbcdad5dc990ffed47548b79989b</title>
<g id="a_clust2"><a xlink:href="dir_f0dcdbcdad5dc990ffed47548b79989b.html" target="_top">
<polygon fill="#edf0f7" stroke="#404040" stroke-width="2" points="16,-80 16,-132 158,-132 158,-80 16,-80"/>
</a>
</g>
</g>
<!-- dir_49621dcf2e58f6d541462f9bec53bd7e -->
<g id="node1" class="node">
<title>dir_49621dcf2e58f6d541462f9bec53bd7e</title>
<g id="a_node1"><a xlink:href="dir_49621dcf2e58f6d541462f9bec53bd7e.html" target="_top" xlink:title="shm">
<polygon fill="#a2b4d6" stroke="red" points="78,-52 24,-52 24,-16 78,-16 78,-52"/>
<text text-anchor="middle" x="51" y="-32.1" font-family="Helvetica,sans-Serif" font-size="8.00">shm</text>
</a>
</g>
</g>
<!-- dir_f0dcdbcdad5dc990ffed47548b79989b -->
<g id="node2" class="node">
<title>dir_f0dcdbcdad5dc990ffed47548b79989b</title>
<text text-anchor="middle" x="123" y="-104.1" font-family="Helvetica,sans-Serif" font-size="8.00">detail</text>
</g>
<!-- dir_13fb761781f259689dae367412ad59fa -->
<g id="node3" class="node">
<title>dir_13fb761781f259689dae367412ad59fa</title>
<g id="a_node3"><a xlink:href="dir_13fb761781f259689dae367412ad59fa.html" target="_top" xlink:title="shm">
<polygon fill="#a2b4d6" stroke="#404040" points="78,-124 24,-124 24,-88 78,-88 78,-124"/>
<text text-anchor="middle" x="51" y="-104.1" font-family="Helvetica,sans-Serif" font-size="8.00">shm</text>
</a>
</g>
</g>
<!-- dir_13fb761781f259689dae367412ad59fa&#45;&gt;dir_49621dcf2e58f6d541462f9bec53bd7e -->
<g id="edge2" class="edge">
<title>dir_13fb761781f259689dae367412ad59fa&#45;&gt;dir_49621dcf2e58f6d541462f9bec53bd7e</title>
<path fill="none" stroke="black" d="M51,-87.7C51,-79.98 51,-70.71 51,-62.11"/>
<polygon fill="black" stroke="black" points="54.5,-62.1 51,-52.1 47.5,-62.1 54.5,-62.1"/>
<g id="a_edge2&#45;headlabel"><a xlink:href="dir_000024_000025.html" target="_top" xlink:title="1">
<text text-anchor="middle" x="57.34" y="-63.8" font-family="Helvetica,sans-Serif" font-size="8.00">1</text>
</a>
</g>
</g>
<!-- dir_330ec51ed7bfaf381355aaef7c1667ec -->
<g id="node4" class="node">
<title>dir_330ec51ed7bfaf381355aaef7c1667ec</title>
<g id="a_node4"><a xlink:href="dir_330ec51ed7bfaf381355aaef7c1667ec.html" target="_top" xlink:title="transport">
<polygon fill="none" stroke="red" points="228,-52 174,-52 174,-16 228,-16 228,-52"/>
<text text-anchor="middle" x="201" y="-32.1" font-family="Helvetica,sans-Serif" font-size="8.00">transport</text>
</a>
</g>
</g>
<!-- dir_13fb761781f259689dae367412ad59fa&#45;&gt;dir_330ec51ed7bfaf381355aaef7c1667ec -->
<g id="edge1" class="edge">
<title>dir_13fb761781f259689dae367412ad59fa&#45;&gt;dir_330ec51ed7bfaf381355aaef7c1667ec</title>
<path fill="none" stroke="black" d="M73.64,-87.86C77.95,-85.01 82.51,-82.26 87,-80 118.79,-64.01 132.02,-66.93 164.15,-54.29"/>
<polygon fill="black" stroke="black" points="165.87,-57.37 173.75,-50.28 163.17,-50.91 165.87,-57.37"/>
<g id="a_edge1&#45;headlabel"><a xlink:href="dir_000024_000040.html" target="_top" xlink:title="2">
<text text-anchor="middle" x="163.64" y="-59.47" font-family="Helvetica,sans-Serif" font-size="8.00">2</text>
</a>
</g>
</g>
<!-- dir_938858dd290fe54e59e3500689c41d32 -->
<g id="node5" class="node">
<title>dir_938858dd290fe54e59e3500689c41d32</title>
<g id="a_node5"><a xlink:href="dir_938858dd290fe54e59e3500689c41d32.html" target="_top" xlink:title="session">
<polygon fill="none" stroke="red" points="300,-52 246,-52 246,-16 300,-16 300,-52"/>
<text text-anchor="middle" x="273" y="-32.1" font-family="Helvetica,sans-Serif" font-size="8.00">session</text>
</a>
</g>
</g>
<!-- dir_13fb761781f259689dae367412ad59fa&#45;&gt;dir_938858dd290fe54e59e3500689c41d32 -->
<g id="edge3" class="edge">
<title>dir_13fb761781f259689dae367412ad59fa&#45;&gt;dir_938858dd290fe54e59e3500689c41d32</title>
<path fill="none" stroke="black" d="M72.61,-87.84C77.17,-84.85 82.09,-82.05 87,-80 146.76,-55.03 170.34,-71.26 236.2,-51.74"/>
<polygon fill="black" stroke="black" points="237.28,-55.07 245.78,-48.74 235.19,-48.39 237.28,-55.07"/>
<g id="a_edge3&#45;headlabel"><a xlink:href="dir_000024_000021.html" target="_top" xlink:title="3">
<text text-anchor="middle" x="234.7" y="-56.95" font-family="Helvetica,sans-Serif" font-size="8.00">3</text>
</a>
</g>
</g>
<!-- dir_a762a7cb84c76c9561dbc78c61068184 -->
<g id="node6" class="node">
<title>dir_a762a7cb84c76c9561dbc78c61068184</title>
<g id="a_node6"><a xlink:href="dir_a762a7cb84c76c9561dbc78c61068184.html" target="_top" xlink:title="util">
<polygon fill="none" stroke="red" points="372,-52 318,-52 318,-16 372,-16 372,-52"/>
<text text-anchor="middle" x="345" y="-32.1" font-family="Helvetica,sans-Serif" font-size="8.00">util</text>
</a>
</g>
</g>
<!-- dir_13fb761781f259689dae367412ad59fa&#45;&gt;dir_a762a7cb84c76c9561dbc78c61068184 -->
<g id="edge4" class="edge">
<title>dir_13fb761781f259689dae367412ad59fa&#45;&gt;dir_a762a7cb84c76c9561dbc78c61068184</title>
<path fill="none" stroke="black" d="M72.13,-87.86C76.8,-84.8 81.88,-81.96 87,-80 176.86,-45.54 211.29,-77.59 307.96,-51.7"/>
<polygon fill="black" stroke="black" points="309.16,-55 317.83,-48.92 307.26,-48.26 309.16,-55"/>
<g id="a_edge4&#45;headlabel"><a xlink:href="dir_000024_000043.html" target="_top" xlink:title="1">
<text text-anchor="middle" x="306.47" y="-56.81" font-family="Helvetica,sans-Serif" font-size="8.00">1</text>
</a>
</g>
</g>
<!-- dir_ddb0f12d0722949f40b2818843b69123 -->
<g id="node7" class="node">
<title>dir_ddb0f12d0722949f40b2818843b69123</title>
<g id="a_node7"><a xlink:href="dir_ddb0f12d0722949f40b2818843b69123.html" target="_top" xlink:title="shm">
<polygon fill="none" stroke="red" points="444,-52 390,-52 390,-16 444,-16 444,-52"/>
<text text-anchor="middle" x="417" y="-32.1" font-family="Helvetica,sans-Serif" font-size="8.00">shm</text>
</a>
</g>
</g>
<!-- dir_13fb761781f259689dae367412ad59fa&#45;&gt;dir_ddb0f12d0722949f40b2818843b69123 -->
<g id="edge5" class="edge">
<title>dir_13fb761781f259689dae367412ad59fa&#45;&gt;dir_ddb0f12d0722949f40b2818843b69123</title>
<path fill="none" stroke="black" d="M71.7,-87.99C76.47,-84.84 81.71,-81.94 87,-80 207.25,-35.97 252.23,-84.29 380.1,-51.62"/>
<polygon fill="black" stroke="black" points="381.1,-54.97 389.86,-49.01 379.29,-48.21 381.1,-54.97"/>
<g id="a_edge5&#45;headlabel"><a xlink:href="dir_000024_000026.html" target="_top" xlink:title="2">
<text text-anchor="middle" x="378.36" y="-56.74" font-family="Helvetica,sans-Serif" font-size="8.00">2</text>
</a>
</g>
</g>
</g>
</svg>
