<?xml version="1.0" encoding="UTF-8" standalone="no"?>
<!DOCTYPE svg PUBLIC "-//W3C//DTD SVG 1.1//EN"
 "http://www.w3.org/Graphics/SVG/1.1/DTD/svg11.dtd">
<!-- Generated by graphviz version 2.43.0 (0)
 -->
<!-- Title: session/sync_io Pages: 1 -->
<svg width="110pt" height="229pt"
 viewBox="0.00 0.00 110.00 229.00" xmlns="http://www.w3.org/2000/svg" xmlns:xlink="http://www.w3.org/1999/xlink">
<g id="graph0" class="graph" transform="scale(1 1) rotate(0) translate(4 225)">
<title>session/sync_io</title>
<polygon fill="white" stroke="transparent" points="-4,4 -4,-225 106,-225 106,4 -4,4"/>
<g id="clust1" class="cluster">
<title>clusterdir_938858dd290fe54e59e3500689c41d32</title>
<g id="a_clust1"><a xlink:href="dir_938858dd290fe54e59e3500689c41d32.html" target="_top" xlink:title="session">
<polygon fill="#edf0f7" stroke="#404040" stroke-dasharray="5,2" points="8,-56 8,-213 94,-213 94,-56 8,-56"/>
<text text-anchor="middle" x="51" y="-202.6" font-family="Helvetica,sans-Serif" font-size="8.00">session</text>
</a>
</g>
</g>
<g id="clust2" class="cluster">
<title>clusterdir_c7ea703034e45a505e1ea635ef215d07</title>
<g id="a_clust2"><a xlink:href="dir_c7ea703034e45a505e1ea635ef215d07.html" target="_top">
<polygon fill="#edf0f7" stroke="#404040" stroke-width="2" points="16,-64 16,-188 86,-188 86,-64 16,-64"/>
</a>
</g>
</g>
<!-- dir_c7ea703034e45a505e1ea635ef215d07 -->
<g id="node1" class="node">
<title>dir_c7ea703034e45a505e1ea635ef215d07</title>
<text text-anchor="middle" x="51" y="-160.1" font-family="Helvetica,sans-Serif" font-size="8.00">sync_io</text>
</g>
<!-- dir_5f6beb94f407c5622d999c27bb1c02fe -->
<g id="node2" class="node">
<title>dir_5f6beb94f407c5622d999c27bb1c02fe</title>
<g id="a_node2"><a xlink:href="dir_5f6beb94f407c5622d999c27bb1c02fe.html" target="_top" xlink:title="detail">
<polygon fill="#a2b4d6" stroke="#404040" points="78,-108 24,-108 24,-72 78,-72 78,-108"/>
<text text-anchor="middle" x="51" y="-88.1" font-family="Helvetica,sans-Serif" font-size="8.00">detail</text>
</a>
</g>
</g>
<!-- dir_c7ea703034e45a505e1ea635ef215d07&#45;&gt;dir_5f6beb94f407c5622d999c27bb1c02fe -->
<g id="edge1" class="edge">
<title>dir_c7ea703034e45a505e1ea635ef215d07&#45;&gt;dir_5f6beb94f407c5622d999c27bb1c02fe</title>
<path fill="none" stroke="black" d="M51,-143.7C51,-135.98 51,-126.71 51,-118.11"/>
<polygon fill="black" stroke="black" points="54.5,-118.1 51,-108.1 47.5,-118.1 54.5,-118.1"/>
<g id="a_edge1&#45;headlabel"><a xlink:href="dir_000037_000013.html" target="_top" xlink:title="2">
<text text-anchor="middle" x="57.34" y="-119.8" font-family="Helvetica,sans-Serif" font-size="8.00">2</text>
</a>
</g>
</g>
<!-- dir_a762a7cb84c76c9561dbc78c61068184 -->
<g id="node3" class="node">
<title>dir_a762a7cb84c76c9561dbc78c61068184</title>
<g id="a_node3"><a xlink:href="dir_a762a7cb84c76c9561dbc78c61068184.html" target="_top" xlink:title="util">
<polygon fill="none" stroke="red" points="78,-36 24,-36 24,0 78,0 78,-36"/>
<text text-anchor="middle" x="51" y="-16.1" font-family="Helvetica,sans-Serif" font-size="8.00">util</text>
</a>
</g>
</g>
<!-- dir_5f6beb94f407c5622d999c27bb1c02fe&#45;&gt;dir_a762a7cb84c76c9561dbc78c61068184 -->
<g id="edge2" class="edge">
<title>dir_5f6beb94f407c5622d999c27bb1c02fe&#45;&gt;dir_a762a7cb84c76c9561dbc78c61068184</title>
<path fill="none" stroke="black" d="M51,-71.7C51,-63.98 51,-54.71 51,-46.11"/>
<polygon fill="black" stroke="black" points="54.5,-46.1 51,-36.1 47.5,-46.1 54.5,-46.1"/>
<g id="a_edge2&#45;headlabel"><a xlink:href="dir_000013_000043.html" target="_top" xlink:title="2">
<text text-anchor="middle" x="57.34" y="-47.8" font-family="Helvetica,sans-Serif" font-size="8.00">2</text>
</a>
</g>
</g>
</g>
</svg>
