<?xml version="1.0" encoding="UTF-8" standalone="no"?>
<!DOCTYPE svg PUBLIC "-//W3C//DTD SVG 1.1//EN"
 "http://www.w3.org/Graphics/SVG/1.1/DTD/svg11.dtd">
<!-- Generated by graphviz version 2.43.0 (0)
 -->
<!-- Title: session/shm Pages: 1 -->
<svg width="308pt" height="173pt"
 viewBox="0.00 0.00 308.00 173.00" xmlns="http://www.w3.org/2000/svg" xmlns:xlink="http://www.w3.org/1999/xlink">
<g id="graph0" class="graph" transform="scale(1 1) rotate(0) translate(4 169)">
<title>session/shm</title>
<polygon fill="white" stroke="transparent" points="-4,4 -4,-169 304,-169 304,4 -4,4"/>
<g id="clust1" class="cluster">
<title>clusterdir_23fbec4e7c966aae2efbb90aeb47f596</title>
<g id="a_clust1"><a xlink:href="dir_23fbec4e7c966aae2efbb90aeb47f596.html" target="_top" xlink:title="session">
<polygon fill="#edf0f7" stroke="#404040" stroke-dasharray="5,2" points="8,-8 8,-157 166,-157 166,-8 8,-8"/>
<text text-anchor="middle" x="87" y="-146.6" font-family="Helvetica,sans-Serif" font-size="8.00">session</text>
</a>
</g>
</g>
<g id="clust2" class="cluster">
<title>clusterdir_49621dcf2e58f6d541462f9bec53bd7e</title>
<g id="a_clust2"><a xlink:href="dir_49621dcf2e58f6d541462f9bec53bd7e.html" target="_top">
<polygon fill="#edf0f7" stroke="#404040" stroke-width="2" points="16,-80 16,-132 158,-132 158,-80 16,-80"/>
</a>
</g>
</g>
<!-- dir_f0dcdbcdad5dc990ffed47548b79989b -->
<g id="node1" class="node">
<title>dir_f0dcdbcdad5dc990ffed47548b79989b</title>
<g id="a_node1"><a xlink:href="dir_f0dcdbcdad5dc990ffed47548b79989b.html" target="_top" xlink:title="detail">
<polygon fill="#a2b4d6" stroke="red" points="78,-52 24,-52 24,-16 78,-16 78,-52"/>
<text text-anchor="middle" x="51" y="-32.1" font-family="Helvetica,sans-Serif" font-size="8.00">detail</text>
</a>
</g>
</g>
<!-- dir_49621dcf2e58f6d541462f9bec53bd7e -->
<g id="node2" class="node">
<title>dir_49621dcf2e58f6d541462f9bec53bd7e</title>
<text text-anchor="middle" x="123" y="-104.1" font-family="Helvetica,sans-Serif" font-size="8.00">shm</text>
</g>
<!-- dir_aa9b1de9a811fc0081d5a436dbc37c19 -->
<g id="node3" class="node">
<title>dir_aa9b1de9a811fc0081d5a436dbc37c19</title>
<g id="a_node3"><a xlink:href="dir_aa9b1de9a811fc0081d5a436dbc37c19.html" target="_top" xlink:title="classic">
<polygon fill="#a2b4d6" stroke="#404040" points="78,-124 24,-124 24,-88 78,-88 78,-124"/>
<text text-anchor="middle" x="51" y="-104.1" font-family="Helvetica,sans-Serif" font-size="8.00">classic</text>
</a>
</g>
</g>
<!-- dir_aa9b1de9a811fc0081d5a436dbc37c19&#45;&gt;dir_f0dcdbcdad5dc990ffed47548b79989b -->
<g id="edge3" class="edge">
<title>dir_aa9b1de9a811fc0081d5a436dbc37c19&#45;&gt;dir_f0dcdbcdad5dc990ffed47548b79989b</title>
<path fill="none" stroke="black" d="M51,-87.7C51,-79.98 51,-70.71 51,-62.11"/>
<polygon fill="black" stroke="black" points="54.5,-62.1 51,-52.1 47.5,-62.1 54.5,-62.1"/>
<g id="a_edge3&#45;headlabel"><a xlink:href="dir_000004_000014.html" target="_top" xlink:title="3">
<text text-anchor="middle" x="57.34" y="-63.8" font-family="Helvetica,sans-Serif" font-size="8.00">3</text>
</a>
</g>
</g>
<!-- dir_938858dd290fe54e59e3500689c41d32 -->
<g id="node4" class="node">
<title>dir_938858dd290fe54e59e3500689c41d32</title>
<g id="a_node4"><a xlink:href="dir_938858dd290fe54e59e3500689c41d32.html" target="_top" xlink:title="session">
<polygon fill="none" stroke="red" points="228,-52 174,-52 174,-16 228,-16 228,-52"/>
<text text-anchor="middle" x="201" y="-32.1" font-family="Helvetica,sans-Serif" font-size="8.00">session</text>
</a>
</g>
</g>
<!-- dir_aa9b1de9a811fc0081d5a436dbc37c19&#45;&gt;dir_938858dd290fe54e59e3500689c41d32 -->
<g id="edge1" class="edge">
<title>dir_aa9b1de9a811fc0081d5a436dbc37c19&#45;&gt;dir_938858dd290fe54e59e3500689c41d32</title>
<path fill="none" stroke="black" d="M73.64,-87.86C77.95,-85.01 82.51,-82.26 87,-80 118.79,-64.01 132.02,-66.93 164.15,-54.29"/>
<polygon fill="black" stroke="black" points="165.87,-57.37 173.75,-50.28 163.17,-50.91 165.87,-57.37"/>
<g id="a_edge1&#45;headlabel"><a xlink:href="dir_000004_000021.html" target="_top" xlink:title="3">
<text text-anchor="middle" x="163.64" y="-59.47" font-family="Helvetica,sans-Serif" font-size="8.00">3</text>
</a>
</g>
</g>
<!-- dir_ddb0f12d0722949f40b2818843b69123 -->
<g id="node5" class="node">
<title>dir_ddb0f12d0722949f40b2818843b69123</title>
<g id="a_node5"><a xlink:href="dir_ddb0f12d0722949f40b2818843b69123.html" target="_top" xlink:title="shm">
<polygon fill="none" stroke="red" points="300,-52 246,-52 246,-16 300,-16 300,-52"/>
<text text-anchor="middle" x="273" y="-32.1" font-family="Helvetica,sans-Serif" font-size="8.00">shm</text>
</a>
</g>
</g>
<!-- dir_aa9b1de9a811fc0081d5a436dbc37c19&#45;&gt;dir_ddb0f12d0722949f40b2818843b69123 -->
<g id="edge2" class="edge">
<title>dir_aa9b1de9a811fc0081d5a436dbc37c19&#45;&gt;dir_ddb0f12d0722949f40b2818843b69123</title>
<path fill="none" stroke="black" d="M72.61,-87.84C77.17,-84.85 82.09,-82.05 87,-80 146.76,-55.03 170.34,-71.26 236.2,-51.74"/>
<polygon fill="black" stroke="black" points="237.28,-55.07 245.78,-48.74 235.19,-48.39 237.28,-55.07"/>
<g id="a_edge2&#45;headlabel"><a xlink:href="dir_000004_000026.html" target="_top" xlink:title="6">
<text text-anchor="middle" x="234.7" y="-56.95" font-family="Helvetica,sans-Serif" font-size="8.00">6</text>
</a>
</g>
</g>
</g>
</svg>
