<?xml version="1.0" encoding="UTF-8" standalone="no"?>
<!DOCTYPE svg PUBLIC "-//W3C//DTD SVG 1.1//EN"
 "http://www.w3.org/Graphics/SVG/1.1/DTD/svg11.dtd">
<!-- Generated by graphviz version 2.43.0 (0)
 -->
<!-- Title: util/sync_io Pages: 1 -->
<svg width="182pt" height="173pt"
 viewBox="0.00 0.00 182.00 173.00" xmlns="http://www.w3.org/2000/svg" xmlns:xlink="http://www.w3.org/1999/xlink">
<g id="graph0" class="graph" transform="scale(1 1) rotate(0) translate(4 169)">
<title>util/sync_io</title>
<polygon fill="white" stroke="transparent" points="-4,4 -4,-169 178,-169 178,4 -4,4"/>
<g id="clust1" class="cluster">
<title>clusterdir_a762a7cb84c76c9561dbc78c61068184</title>
<g id="a_clust1"><a xlink:href="dir_a762a7cb84c76c9561dbc78c61068184.html" target="_top" xlink:title="util">
<polygon fill="#edf0f7" stroke="#404040" stroke-dasharray="5,2" points="8,-8 8,-157 166,-157 166,-8 8,-8"/>
<text text-anchor="middle" x="87" y="-146.6" font-family="Helvetica,sans-Serif" font-size="8.00">util</text>
</a>
</g>
</g>
<g id="clust2" class="cluster">
<title>clusterdir_ff5224d8270264443126f24ce9d073a6</title>
<g id="a_clust2"><a xlink:href="dir_ff5224d8270264443126f24ce9d073a6.html" target="_top">
<polygon fill="#edf0f7" stroke="#404040" stroke-width="2" points="16,-80 16,-132 158,-132 158,-80 16,-80"/>
</a>
</g>
</g>
<!-- dir_b5fa8338842f1288129dabc4bfd9a8d3 -->
<g id="node1" class="node">
<title>dir_b5fa8338842f1288129dabc4bfd9a8d3</title>
<g id="a_node1"><a xlink:href="dir_b5fa8338842f1288129dabc4bfd9a8d3.html" target="_top" xlink:title="detail">
<polygon fill="#a2b4d6" stroke="#404040" points="78,-52 24,-52 24,-16 78,-16 78,-52"/>
<text text-anchor="middle" x="51" y="-32.1" font-family="Helvetica,sans-Serif" font-size="8.00">detail</text>
</a>
</g>
</g>
<!-- dir_ff5224d8270264443126f24ce9d073a6 -->
<g id="node2" class="node">
<title>dir_ff5224d8270264443126f24ce9d073a6</title>
<text text-anchor="middle" x="123" y="-104.1" font-family="Helvetica,sans-Serif" font-size="8.00">sync_io</text>
</g>
<!-- dir_a420192279ad82031659f8871fdc90c6 -->
<g id="node3" class="node">
<title>dir_a420192279ad82031659f8871fdc90c6</title>
<g id="a_node3"><a xlink:href="dir_a420192279ad82031659f8871fdc90c6.html" target="_top" xlink:title="detail">
<polygon fill="#a2b4d6" stroke="#404040" points="78,-124 24,-124 24,-88 78,-88 78,-124"/>
<text text-anchor="middle" x="51" y="-104.1" font-family="Helvetica,sans-Serif" font-size="8.00">detail</text>
</a>
</g>
</g>
<!-- dir_a420192279ad82031659f8871fdc90c6&#45;&gt;dir_b5fa8338842f1288129dabc4bfd9a8d3 -->
<g id="edge1" class="edge">
<title>dir_a420192279ad82031659f8871fdc90c6&#45;&gt;dir_b5fa8338842f1288129dabc4bfd9a8d3</title>
<path fill="none" stroke="black" d="M51,-87.7C51,-79.98 51,-70.71 51,-62.11"/>
<polygon fill="black" stroke="black" points="54.5,-62.1 51,-52.1 47.5,-62.1 54.5,-62.1"/>
<g id="a_edge1&#45;headlabel"><a xlink:href="dir_000011_000010.html" target="_top" xlink:title="1">
<text text-anchor="middle" x="57.34" y="-63.8" font-family="Helvetica,sans-Serif" font-size="8.00">1</text>
</a>
</g>
</g>
</g>
</svg>
