<?xml version="1.0" encoding="UTF-8" standalone="no"?>
<!DOCTYPE svg PUBLIC "-//W3C//DTD SVG 1.1//EN"
 "http://www.w3.org/Graphics/SVG/1.1/DTD/svg11.dtd">
<!-- Generated by graphviz version 2.43.0 (0)
 -->
<!-- Title: session/detail/shm Pages: 1 -->
<svg width="350pt" height="157pt"
 viewBox="0.00 0.00 350.00 157.00" xmlns="http://www.w3.org/2000/svg" xmlns:xlink="http://www.w3.org/1999/xlink">
<g id="graph0" class="graph" transform="scale(1 1) rotate(0) translate(4 153)">
<title>session/detail/shm</title>
<polygon fill="white" stroke="transparent" points="-4,4 -4,-153 346,-153 346,4 -4,4"/>
<g id="clust1" class="cluster">
<title>clusterdir_f0dcdbcdad5dc990ffed47548b79989b</title>
<g id="a_clust1"><a xlink:href="dir_f0dcdbcdad5dc990ffed47548b79989b.html" target="_top" xlink:title="detail">
<polygon fill="#edf0f7" stroke="#7f7f7f" stroke-dasharray="5,2" points="128,-56 128,-141 286,-141 286,-56 128,-56"/>
<text text-anchor="middle" x="207" y="-130.6" font-family="Helvetica,sans-Serif" font-size="8.00">detail</text>
</a>
</g>
</g>
<g id="clust2" class="cluster">
<title>clusterdir_13fb761781f259689dae367412ad59fa</title>
<g id="a_clust2"><a xlink:href="dir_13fb761781f259689dae367412ad59fa.html" target="_top">
<polygon fill="#edf0f7" stroke="#404040" stroke-width="2" points="136,-64 136,-116 278,-116 278,-64 136,-64"/>
</a>
</g>
</g>
<!-- dir_13fb761781f259689dae367412ad59fa -->
<g id="node1" class="node">
<title>dir_13fb761781f259689dae367412ad59fa</title>
<text text-anchor="middle" x="243" y="-88.1" font-family="Helvetica,sans-Serif" font-size="8.00">shm</text>
</g>
<!-- dir_68d5b84e2d7fbdf92eb777d1101c0079 -->
<g id="node2" class="node">
<title>dir_68d5b84e2d7fbdf92eb777d1101c0079</title>
<g id="a_node2"><a xlink:href="dir_68d5b84e2d7fbdf92eb777d1101c0079.html" target="_top" xlink:title="classic">
<polygon fill="#a2b4d6" stroke="#404040" points="198,-108 144,-108 144,-72 198,-72 198,-108"/>
<text text-anchor="middle" x="171" y="-88.1" font-family="Helvetica,sans-Serif" font-size="8.00">classic</text>
</a>
</g>
</g>
<!-- dir_330ec51ed7bfaf381355aaef7c1667ec -->
<g id="node3" class="node">
<title>dir_330ec51ed7bfaf381355aaef7c1667ec</title>
<g id="a_node3"><a xlink:href="dir_330ec51ed7bfaf381355aaef7c1667ec.html" target="_top" xlink:title="transport">
<polygon fill="none" stroke="red" points="54,-36 0,-36 0,0 54,0 54,-36"/>
<text text-anchor="middle" x="27" y="-16.1" font-family="Helvetica,sans-Serif" font-size="8.00">transport</text>
</a>
</g>
</g>
<!-- dir_68d5b84e2d7fbdf92eb777d1101c0079&#45;&gt;dir_330ec51ed7bfaf381355aaef7c1667ec -->
<g id="edge1" class="edge">
<title>dir_68d5b84e2d7fbdf92eb777d1101c0079&#45;&gt;dir_330ec51ed7bfaf381355aaef7c1667ec</title>
<path fill="none" stroke="black" d="M143.91,-75.83C121.23,-64.81 88.64,-48.97 63.63,-36.81"/>
<polygon fill="black" stroke="black" points="64.98,-33.57 54.45,-32.35 61.92,-39.87 64.98,-33.57"/>
<g id="a_edge1&#45;headlabel"><a xlink:href="dir_000003_000040.html" target="_top" xlink:title="2">
<text text-anchor="middle" x="69.45" y="-30.69" font-family="Helvetica,sans-Serif" font-size="8.00">2</text>
</a>
</g>
</g>
<!-- dir_49621dcf2e58f6d541462f9bec53bd7e -->
<g id="node4" class="node">
<title>dir_49621dcf2e58f6d541462f9bec53bd7e</title>
<g id="a_node4"><a xlink:href="dir_49621dcf2e58f6d541462f9bec53bd7e.html" target="_top" xlink:title="shm">
<polygon fill="none" stroke="red" stroke-dasharray="5,2" points="126,-36 72,-36 72,0 126,0 126,-36"/>
<text text-anchor="middle" x="99" y="-16.1" font-family="Helvetica,sans-Serif" font-size="8.00">shm</text>
</a>
</g>
</g>
<!-- dir_68d5b84e2d7fbdf92eb777d1101c0079&#45;&gt;dir_49621dcf2e58f6d541462f9bec53bd7e -->
<g id="edge2" class="edge">
<title>dir_68d5b84e2d7fbdf92eb777d1101c0079&#45;&gt;dir_49621dcf2e58f6d541462f9bec53bd7e</title>
<path fill="none" stroke="black" d="M153.2,-71.7C144.4,-63.14 133.62,-52.66 124,-43.3"/>
<polygon fill="black" stroke="black" points="126.2,-40.57 116.59,-36.1 121.32,-45.58 126.2,-40.57"/>
<g id="a_edge2&#45;headlabel"><a xlink:href="dir_000003_000025.html" target="_top" xlink:title="1">
<text text-anchor="middle" x="130.76" y="-39.14" font-family="Helvetica,sans-Serif" font-size="8.00">1</text>
</a>
</g>
</g>
<!-- dir_938858dd290fe54e59e3500689c41d32 -->
<g id="node5" class="node">
<title>dir_938858dd290fe54e59e3500689c41d32</title>
<g id="a_node5"><a xlink:href="dir_938858dd290fe54e59e3500689c41d32.html" target="_top" xlink:title="session">
<polygon fill="none" stroke="red" points="198,-36 144,-36 144,0 198,0 198,-36"/>
<text text-anchor="middle" x="171" y="-16.1" font-family="Helvetica,sans-Serif" font-size="8.00">session</text>
</a>
</g>
</g>
<!-- dir_68d5b84e2d7fbdf92eb777d1101c0079&#45;&gt;dir_938858dd290fe54e59e3500689c41d32 -->
<g id="edge3" class="edge">
<title>dir_68d5b84e2d7fbdf92eb777d1101c0079&#45;&gt;dir_938858dd290fe54e59e3500689c41d32</title>
<path fill="none" stroke="black" d="M171,-71.7C171,-63.98 171,-54.71 171,-46.11"/>
<polygon fill="black" stroke="black" points="174.5,-46.1 171,-36.1 167.5,-46.1 174.5,-46.1"/>
<g id="a_edge3&#45;headlabel"><a xlink:href="dir_000003_000021.html" target="_top" xlink:title="3">
<text text-anchor="middle" x="177.34" y="-47.8" font-family="Helvetica,sans-Serif" font-size="8.00">3</text>
</a>
</g>
</g>
<!-- dir_a762a7cb84c76c9561dbc78c61068184 -->
<g id="node6" class="node">
<title>dir_a762a7cb84c76c9561dbc78c61068184</title>
<g id="a_node6"><a xlink:href="dir_a762a7cb84c76c9561dbc78c61068184.html" target="_top" xlink:title="util">
<polygon fill="none" stroke="red" points="270,-36 216,-36 216,0 270,0 270,-36"/>
<text text-anchor="middle" x="243" y="-16.1" font-family="Helvetica,sans-Serif" font-size="8.00">util</text>
</a>
</g>
</g>
<!-- dir_68d5b84e2d7fbdf92eb777d1101c0079&#45;&gt;dir_a762a7cb84c76c9561dbc78c61068184 -->
<g id="edge4" class="edge">
<title>dir_68d5b84e2d7fbdf92eb777d1101c0079&#45;&gt;dir_a762a7cb84c76c9561dbc78c61068184</title>
<path fill="none" stroke="black" d="M188.8,-71.7C197.6,-63.14 208.38,-52.66 218,-43.3"/>
<polygon fill="black" stroke="black" points="220.68,-45.58 225.41,-36.1 215.8,-40.57 220.68,-45.58"/>
<g id="a_edge4&#45;headlabel"><a xlink:href="dir_000003_000043.html" target="_top" xlink:title="1">
<text text-anchor="middle" x="220.08" y="-48.23" font-family="Helvetica,sans-Serif" font-size="8.00">1</text>
</a>
</g>
</g>
<!-- dir_ddb0f12d0722949f40b2818843b69123 -->
<g id="node7" class="node">
<title>dir_ddb0f12d0722949f40b2818843b69123</title>
<g id="a_node7"><a xlink:href="dir_ddb0f12d0722949f40b2818843b69123.html" target="_top" xlink:title="shm">
<polygon fill="none" stroke="red" points="342,-36 288,-36 288,0 342,0 342,-36"/>
<text text-anchor="middle" x="315" y="-16.1" font-family="Helvetica,sans-Serif" font-size="8.00">shm</text>
</a>
</g>
</g>
<!-- dir_68d5b84e2d7fbdf92eb777d1101c0079&#45;&gt;dir_ddb0f12d0722949f40b2818843b69123 -->
<g id="edge5" class="edge">
<title>dir_68d5b84e2d7fbdf92eb777d1101c0079&#45;&gt;dir_ddb0f12d0722949f40b2818843b69123</title>
<path fill="none" stroke="black" d="M186.55,-71.75C192.47,-66.05 199.59,-60.11 207,-56 233.55,-41.27 245.71,-46.43 278.02,-35.9"/>
<polygon fill="black" stroke="black" points="279.43,-39.11 287.69,-32.48 277.09,-32.51 279.43,-39.11"/>
<g id="a_edge5&#45;headlabel"><a xlink:href="dir_000003_000026.html" target="_top" xlink:title="2">
<text text-anchor="middle" x="276.98" y="-41.09" font-family="Helvetica,sans-Serif" font-size="8.00">2</text>
</a>
</g>
</g>
</g>
</svg>
