<?xml version="1.0" encoding="UTF-8" standalone="no"?>
<!DOCTYPE svg PUBLIC "-//W3C//DTD SVG 1.1//EN"
 "http://www.w3.org/Graphics/SVG/1.1/DTD/svg11.dtd">
<!-- Generated by graphviz version 2.43.0 (0)
 -->
<!-- Title: session Pages: 1 -->
<svg width="371pt" height="204pt"
 viewBox="0.00 0.00 371.00 204.00" xmlns="http://www.w3.org/2000/svg" xmlns:xlink="http://www.w3.org/1999/xlink">
<g id="graph0" class="graph" transform="scale(1 1) rotate(0) translate(4 200)">
<title>session</title>
<polygon fill="white" stroke="transparent" points="-4,4 -4,-200 367,-200 367,4 -4,4"/>
<g id="clust1" class="cluster">
<title>clusterdir_b574b0807182fd54d29cf48452072c45</title>
<g id="a_clust1"><a xlink:href="dir_b574b0807182fd54d29cf48452072c45.html" target="_top">
<polygon fill="#edf0f7" stroke="#404040" stroke-width="2" points="81,-64 81,-188 223,-188 223,-64 81,-64"/>
</a>
</g>
</g>
<!-- dir_b574b0807182fd54d29cf48452072c45 -->
<g id="node1" class="node">
<title>dir_b574b0807182fd54d29cf48452072c45</title>
<text text-anchor="middle" x="188" y="-160.1" font-family="Helvetica,sans-Serif" font-size="8.00">session</text>
</g>
<!-- dir_e8a6be6454742763ef88d859db4d5829 -->
<g id="node2" class="node">
<title>dir_e8a6be6454742763ef88d859db4d5829</title>
<g id="a_node2"><a xlink:href="dir_e8a6be6454742763ef88d859db4d5829.html" target="_top" xlink:title="detail">
<polygon fill="#a2b4d6" stroke="#404040" points="143,-180 89,-180 89,-144 143,-144 143,-180"/>
<text text-anchor="middle" x="116" y="-160.1" font-family="Helvetica,sans-Serif" font-size="8.00">detail</text>
</a>
</g>
</g>
<!-- dir_df5b0ac3fc1820ebfc25c1160f1f4b3a -->
<g id="node3" class="node">
<title>dir_df5b0ac3fc1820ebfc25c1160f1f4b3a</title>
<g id="a_node3"><a xlink:href="dir_df5b0ac3fc1820ebfc25c1160f1f4b3a.html" target="_top" xlink:title="shm">
<polygon fill="#a2b4d6" stroke="#404040" points="143,-108 89,-108 89,-72 143,-72 143,-108"/>
<text text-anchor="middle" x="116" y="-88.1" font-family="Helvetica,sans-Serif" font-size="8.00">shm</text>
</a>
</g>
</g>
<!-- dir_e8a6be6454742763ef88d859db4d5829&#45;&gt;dir_df5b0ac3fc1820ebfc25c1160f1f4b3a -->
<g id="edge3" class="edge">
<title>dir_e8a6be6454742763ef88d859db4d5829&#45;&gt;dir_df5b0ac3fc1820ebfc25c1160f1f4b3a</title>
<path fill="none" stroke="black" d="M110.08,-143.7C109.29,-135.98 109.06,-126.71 109.4,-118.11"/>
<polygon fill="black" stroke="black" points="112.9,-118.32 110.1,-108.1 105.92,-117.84 112.9,-118.32"/>
<g id="a_edge3&#45;headlabel"><a xlink:href="dir_000015_000029.html" target="_top" xlink:title="2">
<text text-anchor="middle" x="115.48" y="-120.21" font-family="Helvetica,sans-Serif" font-size="8.00">2</text>
</a>
</g>
</g>
<!-- dir_18de54d40c020a62dfebd12c68fa56ae -->
<g id="node4" class="node">
<title>dir_18de54d40c020a62dfebd12c68fa56ae</title>
<g id="a_node4"><a xlink:href="dir_18de54d40c020a62dfebd12c68fa56ae.html" target="_top" xlink:title="transport">
<polygon fill="none" stroke="red" points="291,-108 237,-108 237,-72 291,-72 291,-108"/>
<text text-anchor="middle" x="264" y="-88.1" font-family="Helvetica,sans-Serif" font-size="8.00">transport</text>
</a>
</g>
</g>
<!-- dir_e8a6be6454742763ef88d859db4d5829&#45;&gt;dir_18de54d40c020a62dfebd12c68fa56ae -->
<g id="edge5" class="edge">
<title>dir_e8a6be6454742763ef88d859db4d5829&#45;&gt;dir_18de54d40c020a62dfebd12c68fa56ae</title>
<path fill="none" stroke="black" d="M143.15,-148.16C166.85,-136.95 201.46,-120.58 227.58,-108.23"/>
<polygon fill="black" stroke="black" points="229.23,-111.32 236.78,-103.88 226.24,-104.99 229.23,-111.32"/>
<g id="a_edge5&#45;headlabel"><a xlink:href="dir_000015_000041.html" target="_top" xlink:title="2">
<text text-anchor="middle" x="227.2" y="-113.52" font-family="Helvetica,sans-Serif" font-size="8.00">2</text>
</a>
</g>
</g>
<!-- dir_58e412aa7ace8e71fc01678dc8765e7c -->
<g id="node6" class="node">
<title>dir_58e412aa7ace8e71fc01678dc8765e7c</title>
<g id="a_node6"><a xlink:href="dir_58e412aa7ace8e71fc01678dc8765e7c.html" target="_top" xlink:title="transport">
<polygon fill="none" stroke="red" points="363,-108 309,-108 309,-72 363,-72 363,-108"/>
<text text-anchor="middle" x="336" y="-88.1" font-family="Helvetica,sans-Serif" font-size="8.00">transport</text>
</a>
</g>
</g>
<!-- dir_e8a6be6454742763ef88d859db4d5829&#45;&gt;dir_58e412aa7ace8e71fc01678dc8765e7c -->
<g id="edge4" class="edge">
<title>dir_e8a6be6454742763ef88d859db4d5829&#45;&gt;dir_58e412aa7ace8e71fc01678dc8765e7c</title>
<path fill="none" stroke="black" d="M143.28,-147.42C146.19,-146.18 149.13,-145.01 152,-144 212.96,-122.44 234.26,-129.81 299.25,-107.88"/>
<polygon fill="black" stroke="black" points="300.43,-111.17 308.72,-104.58 298.13,-104.56 300.43,-111.17"/>
<g id="a_edge4&#45;headlabel"><a xlink:href="dir_000015_000042.html" target="_top" xlink:title="1">
<text text-anchor="middle" x="297.97" y="-113.14" font-family="Helvetica,sans-Serif" font-size="8.00">1</text>
</a>
</g>
</g>
<!-- dir_938858dd290fe54e59e3500689c41d32 -->
<g id="node7" class="node">
<title>dir_938858dd290fe54e59e3500689c41d32</title>
<g id="a_node7"><a xlink:href="dir_938858dd290fe54e59e3500689c41d32.html" target="_top" xlink:title="session">
<polygon fill="none" stroke="red" points="54,-36 0,-36 0,0 54,0 54,-36"/>
<text text-anchor="middle" x="27" y="-16.1" font-family="Helvetica,sans-Serif" font-size="8.00">session</text>
</a>
</g>
</g>
<!-- dir_e8a6be6454742763ef88d859db4d5829&#45;&gt;dir_938858dd290fe54e59e3500689c41d32 -->
<g id="edge2" class="edge">
<title>dir_e8a6be6454742763ef88d859db4d5829&#45;&gt;dir_938858dd290fe54e59e3500689c41d32</title>
<path fill="none" stroke="black" d="M104.07,-143.99C96.93,-133.68 87.77,-120.2 80,-108 66.68,-87.07 52.32,-62.85 41.92,-44.97"/>
<polygon fill="black" stroke="black" points="44.9,-43.14 36.86,-36.25 38.85,-46.65 44.9,-43.14"/>
<g id="a_edge2&#45;headlabel"><a xlink:href="dir_000015_000021.html" target="_top" xlink:title="6">
<text text-anchor="middle" x="49.16" y="-42.93" font-family="Helvetica,sans-Serif" font-size="8.00">6</text>
</a>
</g>
</g>
<!-- dir_a762a7cb84c76c9561dbc78c61068184 -->
<g id="node8" class="node">
<title>dir_a762a7cb84c76c9561dbc78c61068184</title>
<g id="a_node8"><a xlink:href="dir_a762a7cb84c76c9561dbc78c61068184.html" target="_top" xlink:title="util">
<polygon fill="none" stroke="red" points="198,-36 144,-36 144,0 198,0 198,-36"/>
<text text-anchor="middle" x="171" y="-16.1" font-family="Helvetica,sans-Serif" font-size="8.00">util</text>
</a>
</g>
</g>
<!-- dir_e8a6be6454742763ef88d859db4d5829&#45;&gt;dir_a762a7cb84c76c9561dbc78c61068184 -->
<g id="edge6" class="edge">
<title>dir_e8a6be6454742763ef88d859db4d5829&#45;&gt;dir_a762a7cb84c76c9561dbc78c61068184</title>
<path fill="none" stroke="black" d="M130.16,-143.85C137.69,-133.93 146.5,-120.89 152,-108 160.41,-88.29 165.24,-64.49 167.93,-46.46"/>
<polygon fill="black" stroke="black" points="171.43,-46.71 169.3,-36.33 164.49,-45.76 171.43,-46.71"/>
<g id="a_edge6&#45;headlabel"><a xlink:href="dir_000015_000043.html" target="_top" xlink:title="1">
<text text-anchor="middle" x="173.76" y="-48.75" font-family="Helvetica,sans-Serif" font-size="8.00">1</text>
</a>
</g>
</g>
<!-- dir_ddb0f12d0722949f40b2818843b69123 -->
<g id="node9" class="node">
<title>dir_ddb0f12d0722949f40b2818843b69123</title>
<g id="a_node9"><a xlink:href="dir_ddb0f12d0722949f40b2818843b69123.html" target="_top" xlink:title="shm">
<polygon fill="none" stroke="red" points="270,-36 216,-36 216,0 270,0 270,-36"/>
<text text-anchor="middle" x="243" y="-16.1" font-family="Helvetica,sans-Serif" font-size="8.00">shm</text>
</a>
</g>
</g>
<!-- dir_e8a6be6454742763ef88d859db4d5829&#45;&gt;dir_ddb0f12d0722949f40b2818843b69123 -->
<g id="edge1" class="edge">
<title>dir_e8a6be6454742763ef88d859db4d5829&#45;&gt;dir_ddb0f12d0722949f40b2818843b69123</title>
<path fill="none" stroke="black" d="M135.98,-143.81C147.26,-133.77 161.38,-120.63 173,-108 191.77,-87.62 211.08,-62.7 224.66,-44.42"/>
<polygon fill="black" stroke="black" points="227.73,-46.16 230.84,-36.03 222.09,-42.01 227.73,-46.16"/>
<g id="a_edge1&#45;headlabel"><a xlink:href="dir_000015_000026.html" target="_top" xlink:title="1">
<text text-anchor="middle" x="227.88" y="-48.84" font-family="Helvetica,sans-Serif" font-size="8.00">1</text>
</a>
</g>
</g>
<!-- dir_df5b0ac3fc1820ebfc25c1160f1f4b3a&#45;&gt;dir_e8a6be6454742763ef88d859db4d5829 -->
<g id="edge11" class="edge">
<title>dir_df5b0ac3fc1820ebfc25c1160f1f4b3a&#45;&gt;dir_e8a6be6454742763ef88d859db4d5829</title>
<path fill="none" stroke="black" d="M121.9,-108.1C122.7,-115.79 122.94,-125.05 122.6,-133.67"/>
<polygon fill="black" stroke="black" points="119.11,-133.48 121.92,-143.7 126.09,-133.96 119.11,-133.48"/>
<g id="a_edge11&#45;headlabel"><a xlink:href="dir_000029_000015.html" target="_top" xlink:title="3">
<text text-anchor="middle" x="116.52" y="-127.8" font-family="Helvetica,sans-Serif" font-size="8.00">3</text>
</a>
</g>
</g>
<!-- dir_23fbec4e7c966aae2efbb90aeb47f596 -->
<g id="node5" class="node">
<title>dir_23fbec4e7c966aae2efbb90aeb47f596</title>
<g id="a_node5"><a xlink:href="dir_23fbec4e7c966aae2efbb90aeb47f596.html" target="_top" xlink:title="session">
<polygon fill="none" stroke="red" points="126,-36 72,-36 72,0 126,0 126,-36"/>
<text text-anchor="middle" x="99" y="-16.1" font-family="Helvetica,sans-Serif" font-size="8.00">session</text>
</a>
</g>
</g>
<!-- dir_df5b0ac3fc1820ebfc25c1160f1f4b3a&#45;&gt;dir_23fbec4e7c966aae2efbb90aeb47f596 -->
<g id="edge7" class="edge">
<title>dir_df5b0ac3fc1820ebfc25c1160f1f4b3a&#45;&gt;dir_23fbec4e7c966aae2efbb90aeb47f596</title>
<path fill="none" stroke="black" d="M111.8,-71.7C109.9,-63.9 107.62,-54.51 105.52,-45.83"/>
<polygon fill="black" stroke="black" points="108.92,-45 103.15,-36.1 102.11,-46.65 108.92,-45"/>
<g id="a_edge7&#45;headlabel"><a xlink:href="dir_000029_000022.html" target="_top" xlink:title="1">
<text text-anchor="middle" x="112.52" y="-45.92" font-family="Helvetica,sans-Serif" font-size="8.00">1</text>
</a>
</g>
</g>
<!-- dir_df5b0ac3fc1820ebfc25c1160f1f4b3a&#45;&gt;dir_938858dd290fe54e59e3500689c41d32 -->
<g id="edge8" class="edge">
<title>dir_df5b0ac3fc1820ebfc25c1160f1f4b3a&#45;&gt;dir_938858dd290fe54e59e3500689c41d32</title>
<path fill="none" stroke="black" d="M94,-71.7C82.79,-62.88 69,-52.03 56.85,-42.47"/>
<polygon fill="black" stroke="black" points="58.77,-39.54 48.75,-36.1 54.44,-45.04 58.77,-39.54"/>
<g id="a_edge8&#45;headlabel"><a xlink:href="dir_000029_000021.html" target="_top" xlink:title="3">
<text text-anchor="middle" x="63.35" y="-37.63" font-family="Helvetica,sans-Serif" font-size="8.00">3</text>
</a>
</g>
</g>
<!-- dir_df5b0ac3fc1820ebfc25c1160f1f4b3a&#45;&gt;dir_a762a7cb84c76c9561dbc78c61068184 -->
<g id="edge9" class="edge">
<title>dir_df5b0ac3fc1820ebfc25c1160f1f4b3a&#45;&gt;dir_a762a7cb84c76c9561dbc78c61068184</title>
<path fill="none" stroke="black" d="M129.6,-71.7C136.12,-63.39 144.07,-53.28 151.25,-44.14"/>
<polygon fill="black" stroke="black" points="154.13,-46.13 157.56,-36.1 148.63,-41.81 154.13,-46.13"/>
<g id="a_edge9&#45;headlabel"><a xlink:href="dir_000029_000043.html" target="_top" xlink:title="1">
<text text-anchor="middle" x="154.15" y="-48.81" font-family="Helvetica,sans-Serif" font-size="8.00">1</text>
</a>
</g>
</g>
<!-- dir_df5b0ac3fc1820ebfc25c1160f1f4b3a&#45;&gt;dir_ddb0f12d0722949f40b2818843b69123 -->
<g id="edge10" class="edge">
<title>dir_df5b0ac3fc1820ebfc25c1160f1f4b3a&#45;&gt;dir_ddb0f12d0722949f40b2818843b69123</title>
<path fill="none" stroke="black" d="M143.24,-73.98C161.83,-63.74 186.64,-50.07 206.87,-38.92"/>
<polygon fill="black" stroke="black" points="208.73,-41.88 215.8,-33.99 205.35,-35.75 208.73,-41.88"/>
<g id="a_edge10&#45;headlabel"><a xlink:href="dir_000029_000026.html" target="_top" xlink:title="2">
<text text-anchor="middle" x="206.95" y="-44.21" font-family="Helvetica,sans-Serif" font-size="8.00">2</text>
</a>
</g>
</g>
</g>
</svg>
