<?xml version="1.0" encoding="UTF-8" standalone="no"?>
<!DOCTYPE svg PUBLIC "-//W3C//DTD SVG 1.1//EN"
 "http://www.w3.org/Graphics/SVG/1.1/DTD/svg11.dtd">
<!-- Generated by graphviz version 2.43.0 (0)
 -->
<!-- Title: transport/struc Pages: 1 -->
<svg width="196pt" height="253pt"
 viewBox="0.00 0.00 196.00 253.00" xmlns="http://www.w3.org/2000/svg" xmlns:xlink="http://www.w3.org/1999/xlink">
<g id="graph0" class="graph" transform="scale(1 1) rotate(0) translate(4 249)">
<title>transport/struc</title>
<polygon fill="white" stroke="transparent" points="-4,4 -4,-249 192,-249 192,4 -4,4"/>
<g id="clust1" class="cluster">
<title>clusterdir_58e412aa7ace8e71fc01678dc8765e7c</title>
<g id="a_clust1"><a xlink:href="dir_58e412aa7ace8e71fc01678dc8765e7c.html" target="_top" xlink:title="transport">
<polygon fill="#edf0f7" stroke="#404040" stroke-dasharray="5,2" points="8,-8 8,-237 94,-237 94,-8 8,-8"/>
<text text-anchor="middle" x="51" y="-226.6" font-family="Helvetica,sans-Serif" font-size="8.00">transport</text>
</a>
</g>
</g>
<g id="clust2" class="cluster">
<title>clusterdir_a98fddea045b8b2df4350ebb1d483bf8</title>
<g id="a_clust2"><a xlink:href="dir_a98fddea045b8b2df4350ebb1d483bf8.html" target="_top">
<polygon fill="#edf0f7" stroke="#404040" stroke-width="2" points="16,-16 16,-212 86,-212 86,-16 16,-16"/>
</a>
</g>
</g>
<!-- dir_a98fddea045b8b2df4350ebb1d483bf8 -->
<g id="node1" class="node">
<title>dir_a98fddea045b8b2df4350ebb1d483bf8</title>
<text text-anchor="middle" x="51" y="-184.1" font-family="Helvetica,sans-Serif" font-size="8.00">struc</text>
</g>
<!-- dir_29eca46078f73b220c63d096b03a57e8 -->
<g id="node3" class="node">
<title>dir_29eca46078f73b220c63d096b03a57e8</title>
<g id="a_node3"><a xlink:href="dir_29eca46078f73b220c63d096b03a57e8.html" target="_top" xlink:title="sync_io">
<polygon fill="#a2b4d6" stroke="#404040" points="78,-132 24,-132 24,-96 78,-96 78,-132"/>
<text text-anchor="middle" x="51" y="-112.1" font-family="Helvetica,sans-Serif" font-size="8.00">sync_io</text>
</a>
</g>
</g>
<!-- dir_a98fddea045b8b2df4350ebb1d483bf8&#45;&gt;dir_29eca46078f73b220c63d096b03a57e8 -->
<g id="edge2" class="edge">
<title>dir_a98fddea045b8b2df4350ebb1d483bf8&#45;&gt;dir_29eca46078f73b220c63d096b03a57e8</title>
<path fill="none" stroke="black" d="M51,-167.7C51,-159.98 51,-150.71 51,-142.11"/>
<polygon fill="black" stroke="black" points="54.5,-142.1 51,-132.1 47.5,-142.1 54.5,-142.1"/>
<g id="a_edge2&#45;headlabel"><a xlink:href="dir_000034_000038.html" target="_top" xlink:title="1">
<text text-anchor="middle" x="57.34" y="-143.8" font-family="Helvetica,sans-Serif" font-size="8.00">1</text>
</a>
</g>
</g>
<!-- dir_0c017496b493ff066fbbe686970307ba -->
<g id="node4" class="node">
<title>dir_0c017496b493ff066fbbe686970307ba</title>
<g id="a_node4"><a xlink:href="dir_0c017496b493ff066fbbe686970307ba.html" target="_top" xlink:title="transport">
<polygon fill="none" stroke="red" points="156,-60 102,-60 102,-24 156,-24 156,-60"/>
<text text-anchor="middle" x="129" y="-40.1" font-family="Helvetica,sans-Serif" font-size="8.00">transport</text>
</a>
</g>
</g>
<!-- dir_a98fddea045b8b2df4350ebb1d483bf8&#45;&gt;dir_0c017496b493ff066fbbe686970307ba -->
<g id="edge1" class="edge">
<title>dir_a98fddea045b8b2df4350ebb1d483bf8&#45;&gt;dir_0c017496b493ff066fbbe686970307ba</title>
<path fill="none" stroke="black" d="M63.71,-167.77C70.94,-157.61 79.94,-144.36 87,-132 98.65,-111.59 109.91,-87.43 117.83,-69.43"/>
<polygon fill="black" stroke="black" points="121.09,-70.69 121.87,-60.13 114.67,-67.91 121.09,-70.69"/>
<g id="a_edge1&#45;headlabel"><a xlink:href="dir_000034_000039.html" target="_top" xlink:title="5">
<text text-anchor="middle" x="122.27" y="-73.22" font-family="Helvetica,sans-Serif" font-size="8.00">5</text>
</a>
</g>
</g>
<!-- dir_a762a7cb84c76c9561dbc78c61068184 -->
<g id="node5" class="node">
<title>dir_a762a7cb84c76c9561dbc78c61068184</title>
<g id="a_node5"><a xlink:href="dir_a762a7cb84c76c9561dbc78c61068184.html" target="_top" xlink:title="util">
<polygon fill="none" stroke="red" points="188,-132 134,-132 134,-96 188,-96 188,-132"/>
<text text-anchor="middle" x="161" y="-112.1" font-family="Helvetica,sans-Serif" font-size="8.00">util</text>
</a>
</g>
</g>
<!-- dir_a98fddea045b8b2df4350ebb1d483bf8&#45;&gt;dir_a762a7cb84c76c9561dbc78c61068184 -->
<g id="edge3" class="edge">
<title>dir_a98fddea045b8b2df4350ebb1d483bf8&#45;&gt;dir_a762a7cb84c76c9561dbc78c61068184</title>
<path fill="none" stroke="black" d="M77.91,-167.88C92.16,-158.81 109.85,-147.55 125.24,-137.76"/>
<polygon fill="black" stroke="black" points="127.43,-140.51 133.99,-132.19 123.67,-134.61 127.43,-140.51"/>
<g id="a_edge3&#45;headlabel"><a xlink:href="dir_000034_000043.html" target="_top" xlink:title="3">
<text text-anchor="middle" x="125.92" y="-142.94" font-family="Helvetica,sans-Serif" font-size="8.00">3</text>
</a>
</g>
</g>
<!-- dir_aecdbd335f54ba819e11c976e79836b9 -->
<g id="node2" class="node">
<title>dir_aecdbd335f54ba819e11c976e79836b9</title>
<g id="a_node2"><a xlink:href="dir_aecdbd335f54ba819e11c976e79836b9.html" target="_top" xlink:title="detail">
<polygon fill="#a2b4d6" stroke="#404040" points="78,-60 24,-60 24,-24 78,-24 78,-60"/>
<text text-anchor="middle" x="51" y="-40.1" font-family="Helvetica,sans-Serif" font-size="8.00">detail</text>
</a>
</g>
</g>
<!-- dir_29eca46078f73b220c63d096b03a57e8&#45;&gt;dir_aecdbd335f54ba819e11c976e79836b9 -->
<g id="edge5" class="edge">
<title>dir_29eca46078f73b220c63d096b03a57e8&#45;&gt;dir_aecdbd335f54ba819e11c976e79836b9</title>
<path fill="none" stroke="black" d="M51,-95.7C51,-87.98 51,-78.71 51,-70.11"/>
<polygon fill="black" stroke="black" points="54.5,-70.1 51,-60.1 47.5,-70.1 54.5,-70.1"/>
<g id="a_edge5&#45;headlabel"><a xlink:href="dir_000038_000016.html" target="_top" xlink:title="2">
<text text-anchor="middle" x="57.34" y="-71.8" font-family="Helvetica,sans-Serif" font-size="8.00">2</text>
</a>
</g>
</g>
<!-- dir_29eca46078f73b220c63d096b03a57e8&#45;&gt;dir_0c017496b493ff066fbbe686970307ba -->
<g id="edge4" class="edge">
<title>dir_29eca46078f73b220c63d096b03a57e8&#45;&gt;dir_0c017496b493ff066fbbe686970307ba</title>
<path fill="none" stroke="black" d="M70.28,-95.7C79.92,-87.05 91.73,-76.45 102.23,-67.03"/>
<polygon fill="black" stroke="black" points="104.84,-69.39 109.94,-60.1 100.16,-64.18 104.84,-69.39"/>
<g id="a_edge4&#45;headlabel"><a xlink:href="dir_000038_000039.html" target="_top" xlink:title="2">
<text text-anchor="middle" x="104.06" y="-72" font-family="Helvetica,sans-Serif" font-size="8.00">2</text>
</a>
</g>
</g>
</g>
</svg>
