<?xml version="1.0" encoding="UTF-8" standalone="no"?>
<!DOCTYPE svg PUBLIC "-//W3C//DTD SVG 1.1//EN"
 "http://www.w3.org/Graphics/SVG/1.1/DTD/svg11.dtd">
<!-- Generated by graphviz version 2.43.0 (0)
 -->
<!-- Title: transport/struc/sync_io Pages: 1 -->
<svg width="150pt" height="165pt"
 viewBox="0.00 0.00 150.00 165.00" xmlns="http://www.w3.org/2000/svg" xmlns:xlink="http://www.w3.org/1999/xlink">
<g id="graph0" class="graph" transform="scale(1 1) rotate(0) translate(4 161)">
<title>transport/struc/sync_io</title>
<polygon fill="white" stroke="transparent" points="-4,4 -4,-161 146,-161 146,4 -4,4"/>
<g id="clust1" class="cluster">
<title>clusterdir_a98fddea045b8b2df4350ebb1d483bf8</title>
<g id="a_clust1"><a xlink:href="dir_a98fddea045b8b2df4350ebb1d483bf8.html" target="_top" xlink:title="struc">
<polygon fill="#edf0f7" stroke="#7f7f7f" stroke-dasharray="5,2" points="8,-8 8,-149 78,-149 78,-8 8,-8"/>
<text text-anchor="middle" x="43" y="-138.6" font-family="Helvetica,sans-Serif" font-size="8.00">struc</text>
</a>
</g>
</g>
<!-- dir_aecdbd335f54ba819e11c976e79836b9 -->
<g id="node1" class="node">
<title>dir_aecdbd335f54ba819e11c976e79836b9</title>
<g id="a_node1"><a xlink:href="dir_aecdbd335f54ba819e11c976e79836b9.html" target="_top" xlink:title="detail">
<polygon fill="#a2b4d6" stroke="#404040" points="70,-52 16,-52 16,-16 70,-16 70,-52"/>
<text text-anchor="middle" x="43" y="-32.1" font-family="Helvetica,sans-Serif" font-size="8.00">detail</text>
</a>
</g>
</g>
<!-- dir_29eca46078f73b220c63d096b03a57e8 -->
<g id="node2" class="node">
<title>dir_29eca46078f73b220c63d096b03a57e8</title>
<g id="a_node2"><a xlink:href="dir_29eca46078f73b220c63d096b03a57e8.html" target="_top" xlink:title="sync_io">
<polygon fill="#edf0f7" stroke="#404040" stroke-width="2" points="70,-124 16,-124 16,-88 70,-88 70,-124"/>
<text text-anchor="middle" x="43" y="-104.1" font-family="Helvetica,sans-Serif" font-size="8.00">sync_io</text>
</a>
</g>
</g>
<!-- dir_29eca46078f73b220c63d096b03a57e8&#45;&gt;dir_aecdbd335f54ba819e11c976e79836b9 -->
<g id="edge2" class="edge">
<title>dir_29eca46078f73b220c63d096b03a57e8&#45;&gt;dir_aecdbd335f54ba819e11c976e79836b9</title>
<path fill="none" stroke="black" d="M43,-87.7C43,-79.98 43,-70.71 43,-62.11"/>
<polygon fill="black" stroke="black" points="46.5,-62.1 43,-52.1 39.5,-62.1 46.5,-62.1"/>
<g id="a_edge2&#45;headlabel"><a xlink:href="dir_000038_000016.html" target="_top" xlink:title="2">
<text text-anchor="middle" x="49.34" y="-63.8" font-family="Helvetica,sans-Serif" font-size="8.00">2</text>
</a>
</g>
</g>
<!-- dir_0c017496b493ff066fbbe686970307ba -->
<g id="node3" class="node">
<title>dir_0c017496b493ff066fbbe686970307ba</title>
<g id="a_node3"><a xlink:href="dir_0c017496b493ff066fbbe686970307ba.html" target="_top" xlink:title="transport">
<polygon fill="none" stroke="red" points="142,-52 88,-52 88,-16 142,-16 142,-52"/>
<text text-anchor="middle" x="115" y="-32.1" font-family="Helvetica,sans-Serif" font-size="8.00">transport</text>
</a>
</g>
</g>
<!-- dir_29eca46078f73b220c63d096b03a57e8&#45;&gt;dir_0c017496b493ff066fbbe686970307ba -->
<g id="edge1" class="edge">
<title>dir_29eca46078f73b220c63d096b03a57e8&#45;&gt;dir_0c017496b493ff066fbbe686970307ba</title>
<path fill="none" stroke="black" d="M60.8,-87.7C69.6,-79.14 80.38,-68.66 90,-59.3"/>
<polygon fill="black" stroke="black" points="92.68,-61.58 97.41,-52.1 87.8,-56.57 92.68,-61.58"/>
<g id="a_edge1&#45;headlabel"><a xlink:href="dir_000038_000039.html" target="_top" xlink:title="2">
<text text-anchor="middle" x="92.08" y="-64.23" font-family="Helvetica,sans-Serif" font-size="8.00">2</text>
</a>
</g>
</g>
</g>
</svg>
