<?xml version="1.0" encoding="UTF-8" standalone="no"?>
<!DOCTYPE svg PUBLIC "-//W3C//DTD SVG 1.1//EN"
 "http://www.w3.org/Graphics/SVG/1.1/DTD/svg11.dtd">
<!-- Generated by graphviz version 2.43.0 (0)
 -->
<!-- Title: session Pages: 1 -->
<svg width="308pt" height="204pt"
 viewBox="0.00 0.00 307.97 204.00" xmlns="http://www.w3.org/2000/svg" xmlns:xlink="http://www.w3.org/1999/xlink">
<g id="graph0" class="graph" transform="scale(1 1) rotate(0) translate(4 200)">
<title>session</title>
<polygon fill="white" stroke="transparent" points="-4,4 -4,-200 303.97,-200 303.97,4 -4,4"/>
<g id="clust1" class="cluster">
<title>clusterdir_23fbec4e7c966aae2efbb90aeb47f596</title>
<g id="a_clust1"><a xlink:href="dir_23fbec4e7c966aae2efbb90aeb47f596.html" target="_top">
<polygon fill="#edf0f7" stroke="#404040" stroke-width="2" points="78.19,-64 78.19,-188 220.19,-188 220.19,-64 78.19,-64"/>
</a>
</g>
</g>
<!-- dir_23fbec4e7c966aae2efbb90aeb47f596 -->
<g id="node1" class="node">
<title>dir_23fbec4e7c966aae2efbb90aeb47f596</title>
<text text-anchor="middle" x="185.19" y="-160.1" font-family="Helvetica,sans-Serif" font-size="8.00">session</text>
</g>
<!-- dir_f0dcdbcdad5dc990ffed47548b79989b -->
<g id="node2" class="node">
<title>dir_f0dcdbcdad5dc990ffed47548b79989b</title>
<g id="a_node2"><a xlink:href="dir_f0dcdbcdad5dc990ffed47548b79989b.html" target="_top" xlink:title="detail">
<polygon fill="#a2b4d6" stroke="#404040" points="140.19,-180 86.19,-180 86.19,-144 140.19,-144 140.19,-180"/>
<text text-anchor="middle" x="113.19" y="-160.1" font-family="Helvetica,sans-Serif" font-size="8.00">detail</text>
</a>
</g>
</g>
<!-- dir_49621dcf2e58f6d541462f9bec53bd7e -->
<g id="node3" class="node">
<title>dir_49621dcf2e58f6d541462f9bec53bd7e</title>
<g id="a_node3"><a xlink:href="dir_49621dcf2e58f6d541462f9bec53bd7e.html" target="_top" xlink:title="shm">
<polygon fill="#a2b4d6" stroke="#404040" points="142.19,-108 88.19,-108 88.19,-72 142.19,-72 142.19,-108"/>
<text text-anchor="middle" x="115.19" y="-88.1" font-family="Helvetica,sans-Serif" font-size="8.00">shm</text>
</a>
</g>
</g>
<!-- dir_f0dcdbcdad5dc990ffed47548b79989b&#45;&gt;dir_49621dcf2e58f6d541462f9bec53bd7e -->
<g id="edge2" class="edge">
<title>dir_f0dcdbcdad5dc990ffed47548b79989b&#45;&gt;dir_49621dcf2e58f6d541462f9bec53bd7e</title>
<path fill="none" stroke="black" d="M107.76,-143.7C107.19,-135.98 107.23,-126.71 107.82,-118.11"/>
<polygon fill="black" stroke="black" points="111.3,-118.4 108.8,-108.1 104.34,-117.71 111.3,-118.4"/>
<g id="a_edge2&#45;headlabel"><a xlink:href="dir_000014_000025.html" target="_top" xlink:title="1">
<text text-anchor="middle" x="113.78" y="-120.36" font-family="Helvetica,sans-Serif" font-size="8.00">1</text>
</a>
</g>
</g>
<!-- dir_330ec51ed7bfaf381355aaef7c1667ec -->
<g id="node4" class="node">
<title>dir_330ec51ed7bfaf381355aaef7c1667ec</title>
<g id="a_node4"><a xlink:href="dir_330ec51ed7bfaf381355aaef7c1667ec.html" target="_top" xlink:title="transport">
<polygon fill="none" stroke="red" points="70.19,-108 16.19,-108 16.19,-72 70.19,-72 70.19,-108"/>
<text text-anchor="middle" x="43.19" y="-88.1" font-family="Helvetica,sans-Serif" font-size="8.00">transport</text>
</a>
</g>
</g>
<!-- dir_f0dcdbcdad5dc990ffed47548b79989b&#45;&gt;dir_330ec51ed7bfaf381355aaef7c1667ec -->
<g id="edge1" class="edge">
<title>dir_f0dcdbcdad5dc990ffed47548b79989b&#45;&gt;dir_330ec51ed7bfaf381355aaef7c1667ec</title>
<path fill="none" stroke="black" d="M95.88,-143.7C87.32,-135.14 76.84,-124.66 67.49,-115.3"/>
<polygon fill="black" stroke="black" points="69.84,-112.7 60.29,-108.1 64.89,-117.65 69.84,-112.7"/>
<g id="a_edge1&#45;headlabel"><a xlink:href="dir_000014_000040.html" target="_top" xlink:title="2">
<text text-anchor="middle" x="74.39" y="-111.33" font-family="Helvetica,sans-Serif" font-size="8.00">2</text>
</a>
</g>
</g>
<!-- dir_938858dd290fe54e59e3500689c41d32 -->
<g id="node5" class="node">
<title>dir_938858dd290fe54e59e3500689c41d32</title>
<g id="a_node5"><a xlink:href="dir_938858dd290fe54e59e3500689c41d32.html" target="_top" xlink:title="session">
<polygon fill="none" stroke="red" points="92.19,-36 38.19,-36 38.19,0 92.19,0 92.19,-36"/>
<text text-anchor="middle" x="65.19" y="-16.1" font-family="Helvetica,sans-Serif" font-size="8.00">session</text>
</a>
</g>
</g>
<!-- dir_f0dcdbcdad5dc990ffed47548b79989b&#45;&gt;dir_938858dd290fe54e59e3500689c41d32 -->
<g id="edge3" class="edge">
<title>dir_f0dcdbcdad5dc990ffed47548b79989b&#45;&gt;dir_938858dd290fe54e59e3500689c41d32</title>
<path fill="none" stroke="black" d="M85.99,-155.8C60.65,-149.36 24.28,-135.65 7.19,-108 -3.09,-91.37 -1.42,-81.56 7.19,-64 12.17,-53.83 20.67,-45.31 29.66,-38.5"/>
<polygon fill="black" stroke="black" points="31.74,-41.32 37.95,-32.74 27.74,-35.57 31.74,-41.32"/>
<g id="a_edge3&#45;headlabel"><a xlink:href="dir_000014_000021.html" target="_top" xlink:title="3">
<text text-anchor="middle" x="30.4" y="-43.8" font-family="Helvetica,sans-Serif" font-size="8.00">3</text>
</a>
</g>
</g>
<!-- dir_a762a7cb84c76c9561dbc78c61068184 -->
<g id="node6" class="node">
<title>dir_a762a7cb84c76c9561dbc78c61068184</title>
<g id="a_node6"><a xlink:href="dir_a762a7cb84c76c9561dbc78c61068184.html" target="_top" xlink:title="util">
<polygon fill="none" stroke="red" points="282.19,-108 228.19,-108 228.19,-72 282.19,-72 282.19,-108"/>
<text text-anchor="middle" x="255.19" y="-88.1" font-family="Helvetica,sans-Serif" font-size="8.00">util</text>
</a>
</g>
</g>
<!-- dir_f0dcdbcdad5dc990ffed47548b79989b&#45;&gt;dir_a762a7cb84c76c9561dbc78c61068184 -->
<g id="edge4" class="edge">
<title>dir_f0dcdbcdad5dc990ffed47548b79989b&#45;&gt;dir_a762a7cb84c76c9561dbc78c61068184</title>
<path fill="none" stroke="black" d="M140.42,-148.1C165.32,-136.28 200.64,-119.49 219.01,-110.49"/>
<polygon fill="black" stroke="black" points="220.79,-113.52 228.18,-105.92 217.67,-107.25 220.79,-113.52"/>
<g id="a_edge4&#45;headlabel"><a xlink:href="dir_000014_000043.html" target="_top" xlink:title="1">
<text text-anchor="middle" x="218.84" y="-115.76" font-family="Helvetica,sans-Serif" font-size="8.00">1</text>
</a>
</g>
</g>
<!-- dir_ddb0f12d0722949f40b2818843b69123 -->
<g id="node7" class="node">
<title>dir_ddb0f12d0722949f40b2818843b69123</title>
<g id="a_node7"><a xlink:href="dir_ddb0f12d0722949f40b2818843b69123.html" target="_top" xlink:title="shm">
<polygon fill="none" stroke="red" points="191.19,-36 137.19,-36 137.19,0 191.19,0 191.19,-36"/>
<text text-anchor="middle" x="164.19" y="-16.1" font-family="Helvetica,sans-Serif" font-size="8.00">shm</text>
</a>
</g>
</g>
<!-- dir_f0dcdbcdad5dc990ffed47548b79989b&#45;&gt;dir_ddb0f12d0722949f40b2818843b69123 -->
<g id="edge5" class="edge">
<title>dir_f0dcdbcdad5dc990ffed47548b79989b&#45;&gt;dir_ddb0f12d0722949f40b2818843b69123</title>
<path fill="none" stroke="black" d="M140.47,-147.45C143.38,-146.2 146.32,-145.03 149.19,-144 210.46,-122 251.2,-159.38 291.19,-108 303.2,-92.57 302.47,-79.97 291.19,-64 271.02,-35.46 231.14,-24.91 201.43,-21.06"/>
<polygon fill="black" stroke="black" points="201.71,-17.57 191.39,-19.97 200.95,-24.53 201.71,-17.57"/>
<g id="a_edge5&#45;headlabel"><a xlink:href="dir_000014_000026.html" target="_top" xlink:title="2">
<text text-anchor="middle" x="205.59" y="-13.24" font-family="Helvetica,sans-Serif" font-size="8.00">2</text>
</a>
</g>
</g>
<!-- dir_49621dcf2e58f6d541462f9bec53bd7e&#45;&gt;dir_f0dcdbcdad5dc990ffed47548b79989b -->
<g id="edge8" class="edge">
<title>dir_49621dcf2e58f6d541462f9bec53bd7e&#45;&gt;dir_f0dcdbcdad5dc990ffed47548b79989b</title>
<path fill="none" stroke="black" d="M120.59,-108.1C121.18,-115.79 121.15,-125.05 120.57,-133.67"/>
<polygon fill="black" stroke="black" points="117.08,-133.4 119.6,-143.7 124.05,-134.08 117.08,-133.4"/>
<g id="a_edge8&#45;headlabel"><a xlink:href="dir_000025_000014.html" target="_top" xlink:title="3">
<text text-anchor="middle" x="114.6" y="-127.65" font-family="Helvetica,sans-Serif" font-size="8.00">3</text>
</a>
</g>
</g>
<!-- dir_49621dcf2e58f6d541462f9bec53bd7e&#45;&gt;dir_938858dd290fe54e59e3500689c41d32 -->
<g id="edge6" class="edge">
<title>dir_49621dcf2e58f6d541462f9bec53bd7e&#45;&gt;dir_938858dd290fe54e59e3500689c41d32</title>
<path fill="none" stroke="black" d="M102.83,-71.7C96.95,-63.47 89.82,-53.48 83.34,-44.42"/>
<polygon fill="black" stroke="black" points="86.06,-42.21 77.4,-36.1 80.37,-46.28 86.06,-42.21"/>
<g id="a_edge6&#45;headlabel"><a xlink:href="dir_000025_000021.html" target="_top" xlink:title="3">
<text text-anchor="middle" x="90.46" y="-41.58" font-family="Helvetica,sans-Serif" font-size="8.00">3</text>
</a>
</g>
</g>
<!-- dir_49621dcf2e58f6d541462f9bec53bd7e&#45;&gt;dir_ddb0f12d0722949f40b2818843b69123 -->
<g id="edge7" class="edge">
<title>dir_49621dcf2e58f6d541462f9bec53bd7e&#45;&gt;dir_ddb0f12d0722949f40b2818843b69123</title>
<path fill="none" stroke="black" d="M127.3,-71.7C133.05,-63.47 140.05,-53.48 146.39,-44.42"/>
<polygon fill="black" stroke="black" points="149.35,-46.3 152.21,-36.1 143.61,-42.29 149.35,-46.3"/>
<g id="a_edge7&#45;headlabel"><a xlink:href="dir_000025_000026.html" target="_top" xlink:title="6">
<text text-anchor="middle" x="149.61" y="-48.98" font-family="Helvetica,sans-Serif" font-size="8.00">6</text>
</a>
</g>
</g>
</g>
</svg>
