<?xml version="1.0" encoding="UTF-8" standalone="no"?>
<!DOCTYPE svg PUBLIC "-//W3C//DTD SVG 1.1//EN"
 "http://www.w3.org/Graphics/SVG/1.1/DTD/svg11.dtd">
<!-- Generated by graphviz version 2.43.0 (0)
 -->
<!-- Title: transport/struc Pages: 1 -->
<svg width="182pt" height="157pt"
 viewBox="0.00 0.00 182.00 157.00" xmlns="http://www.w3.org/2000/svg" xmlns:xlink="http://www.w3.org/1999/xlink">
<g id="graph0" class="graph" transform="scale(1 1) rotate(0) translate(4 153)">
<title>transport/struc</title>
<polygon fill="white" stroke="transparent" points="-4,4 -4,-153 178,-153 178,4 -4,4"/>
<g id="clust1" class="cluster">
<title>clusterdir_18de54d40c020a62dfebd12c68fa56ae</title>
<g id="a_clust1"><a xlink:href="dir_18de54d40c020a62dfebd12c68fa56ae.html" target="_top" xlink:title="transport">
<polygon fill="#edf0f7" stroke="#404040" stroke-dasharray="5,2" points="8,-56 8,-141 166,-141 166,-56 8,-56"/>
<text text-anchor="middle" x="87" y="-130.6" font-family="Helvetica,sans-Serif" font-size="8.00">transport</text>
</a>
</g>
</g>
<g id="clust2" class="cluster">
<title>clusterdir_b8aa7e2e9741fa9cbe830a8616b13cfd</title>
<g id="a_clust2"><a xlink:href="dir_b8aa7e2e9741fa9cbe830a8616b13cfd.html" target="_top">
<polygon fill="#edf0f7" stroke="#404040" stroke-width="2" points="16,-64 16,-116 158,-116 158,-64 16,-64"/>
</a>
</g>
</g>
<!-- dir_b8aa7e2e9741fa9cbe830a8616b13cfd -->
<g id="node1" class="node">
<title>dir_b8aa7e2e9741fa9cbe830a8616b13cfd</title>
<text text-anchor="middle" x="123" y="-88.1" font-family="Helvetica,sans-Serif" font-size="8.00">struc</text>
</g>
<!-- dir_e51dab5e9c0cdbd0180a6b7afdbe8a41 -->
<g id="node2" class="node">
<title>dir_e51dab5e9c0cdbd0180a6b7afdbe8a41</title>
<g id="a_node2"><a xlink:href="dir_e51dab5e9c0cdbd0180a6b7afdbe8a41.html" target="_top" xlink:title="shm">
<polygon fill="#a2b4d6" stroke="#404040" points="78,-108 24,-108 24,-72 78,-72 78,-108"/>
<text text-anchor="middle" x="51" y="-88.1" font-family="Helvetica,sans-Serif" font-size="8.00">shm</text>
</a>
</g>
</g>
<!-- dir_330ec51ed7bfaf381355aaef7c1667ec -->
<g id="node3" class="node">
<title>dir_330ec51ed7bfaf381355aaef7c1667ec</title>
<g id="a_node3"><a xlink:href="dir_330ec51ed7bfaf381355aaef7c1667ec.html" target="_top" xlink:title="transport">
<polygon fill="none" stroke="red" points="78,-36 24,-36 24,0 78,0 78,-36"/>
<text text-anchor="middle" x="51" y="-16.1" font-family="Helvetica,sans-Serif" font-size="8.00">transport</text>
</a>
</g>
</g>
<!-- dir_e51dab5e9c0cdbd0180a6b7afdbe8a41&#45;&gt;dir_330ec51ed7bfaf381355aaef7c1667ec -->
<g id="edge1" class="edge">
<title>dir_e51dab5e9c0cdbd0180a6b7afdbe8a41&#45;&gt;dir_330ec51ed7bfaf381355aaef7c1667ec</title>
<path fill="none" stroke="black" d="M51,-71.7C51,-63.98 51,-54.71 51,-46.11"/>
<polygon fill="black" stroke="black" points="54.5,-46.1 51,-36.1 47.5,-46.1 54.5,-46.1"/>
<g id="a_edge1&#45;headlabel"><a xlink:href="dir_000030_000040.html" target="_top" xlink:title="2">
<text text-anchor="middle" x="57.34" y="-47.8" font-family="Helvetica,sans-Serif" font-size="8.00">2</text>
</a>
</g>
</g>
</g>
</svg>
