<?xml version="1.0" encoding="UTF-8" standalone="no"?>
<!DOCTYPE svg PUBLIC "-//W3C//DTD SVG 1.1//EN"
 "http://www.w3.org/Graphics/SVG/1.1/DTD/svg11.dtd">
<!-- Generated by graphviz version 2.43.0 (0)
 -->
<!-- Title: session Pages: 1 -->
<svg width="242pt" height="204pt"
 viewBox="0.00 0.00 242.00 204.00" xmlns="http://www.w3.org/2000/svg" xmlns:xlink="http://www.w3.org/1999/xlink">
<g id="graph0" class="graph" transform="scale(1 1) rotate(0) translate(4 200)">
<title>session</title>
<polygon fill="white" stroke="transparent" points="-4,4 -4,-200 238,-200 238,4 -4,4"/>
<g id="clust1" class="cluster">
<title>clusterdir_938858dd290fe54e59e3500689c41d32</title>
<g id="a_clust1"><a xlink:href="dir_938858dd290fe54e59e3500689c41d32.html" target="_top">
<polygon fill="#edf0f7" stroke="#404040" stroke-width="2" points="84,-64 84,-188 226,-188 226,-64 84,-64"/>
</a>
</g>
</g>
<!-- dir_938858dd290fe54e59e3500689c41d32 -->
<g id="node1" class="node">
<title>dir_938858dd290fe54e59e3500689c41d32</title>
<text text-anchor="middle" x="119" y="-160.1" font-family="Helvetica,sans-Serif" font-size="8.00">session</text>
</g>
<!-- dir_b920fd4362476866a1b4325a80ed2bf5 -->
<g id="node2" class="node">
<title>dir_b920fd4362476866a1b4325a80ed2bf5</title>
<g id="a_node2"><a xlink:href="dir_b920fd4362476866a1b4325a80ed2bf5.html" target="_top" xlink:title="detail">
<polygon fill="#a2b4d6" stroke="#404040" points="146,-108 92,-108 92,-72 146,-72 146,-108"/>
<text text-anchor="middle" x="119" y="-88.1" font-family="Helvetica,sans-Serif" font-size="8.00">detail</text>
</a>
</g>
</g>
<!-- dir_938858dd290fe54e59e3500689c41d32&#45;&gt;dir_b920fd4362476866a1b4325a80ed2bf5 -->
<g id="edge4" class="edge">
<title>dir_938858dd290fe54e59e3500689c41d32&#45;&gt;dir_b920fd4362476866a1b4325a80ed2bf5</title>
<path fill="none" stroke="black" d="M119,-143.7C119,-135.98 119,-126.71 119,-118.11"/>
<polygon fill="black" stroke="black" points="122.5,-118.1 119,-108.1 115.5,-118.1 122.5,-118.1"/>
<g id="a_edge4&#45;headlabel"><a xlink:href="dir_000021_000012.html" target="_top" xlink:title="4">
<text text-anchor="middle" x="125.34" y="-119.8" font-family="Helvetica,sans-Serif" font-size="8.00">4</text>
</a>
</g>
</g>
<!-- dir_0c017496b493ff066fbbe686970307ba -->
<g id="node4" class="node">
<title>dir_0c017496b493ff066fbbe686970307ba</title>
<g id="a_node4"><a xlink:href="dir_0c017496b493ff066fbbe686970307ba.html" target="_top" xlink:title="transport">
<polygon fill="none" stroke="red" points="128,-36 74,-36 74,0 128,0 128,-36"/>
<text text-anchor="middle" x="101" y="-16.1" font-family="Helvetica,sans-Serif" font-size="8.00">transport</text>
</a>
</g>
</g>
<!-- dir_938858dd290fe54e59e3500689c41d32&#45;&gt;dir_0c017496b493ff066fbbe686970307ba -->
<g id="edge1" class="edge">
<title>dir_938858dd290fe54e59e3500689c41d32&#45;&gt;dir_0c017496b493ff066fbbe686970307ba</title>
<path fill="none" stroke="black" d="M103.39,-143.77C95.63,-134.03 87.05,-121.18 83,-108 77.25,-89.31 79.3,-83.2 83,-64 84.18,-57.86 86.2,-51.49 88.46,-45.55"/>
<polygon fill="black" stroke="black" points="91.8,-46.63 92.39,-36.06 85.33,-43.95 91.8,-46.63"/>
<g id="a_edge1&#45;headlabel"><a xlink:href="dir_000021_000039.html" target="_top" xlink:title="9">
<text text-anchor="middle" x="93.04" y="-49.14" font-family="Helvetica,sans-Serif" font-size="8.00">9</text>
</a>
</g>
</g>
<!-- dir_58e412aa7ace8e71fc01678dc8765e7c -->
<g id="node5" class="node">
<title>dir_58e412aa7ace8e71fc01678dc8765e7c</title>
<g id="a_node5"><a xlink:href="dir_58e412aa7ace8e71fc01678dc8765e7c.html" target="_top" xlink:title="transport">
<polygon fill="none" stroke="red" points="54,-36 0,-36 0,0 54,0 54,-36"/>
<text text-anchor="middle" x="27" y="-16.1" font-family="Helvetica,sans-Serif" font-size="8.00">transport</text>
</a>
</g>
</g>
<!-- dir_938858dd290fe54e59e3500689c41d32&#45;&gt;dir_58e412aa7ace8e71fc01678dc8765e7c -->
<g id="edge2" class="edge">
<title>dir_938858dd290fe54e59e3500689c41d32&#45;&gt;dir_58e412aa7ace8e71fc01678dc8765e7c</title>
<path fill="none" stroke="black" d="M103.85,-143.94C95.22,-133.83 84.47,-120.58 76,-108 62.45,-87.88 49.32,-63.69 40.07,-45.61"/>
<polygon fill="black" stroke="black" points="42.98,-43.61 35.35,-36.26 36.73,-46.76 42.98,-43.61"/>
<g id="a_edge2&#45;headlabel"><a xlink:href="dir_000021_000042.html" target="_top" xlink:title="3">
<text text-anchor="middle" x="47.13" y="-43.64" font-family="Helvetica,sans-Serif" font-size="8.00">3</text>
</a>
</g>
</g>
<!-- dir_a762a7cb84c76c9561dbc78c61068184 -->
<g id="node6" class="node">
<title>dir_a762a7cb84c76c9561dbc78c61068184</title>
<g id="a_node6"><a xlink:href="dir_a762a7cb84c76c9561dbc78c61068184.html" target="_top" xlink:title="util">
<polygon fill="none" stroke="red" points="201,-36 147,-36 147,0 201,0 201,-36"/>
<text text-anchor="middle" x="174" y="-16.1" font-family="Helvetica,sans-Serif" font-size="8.00">util</text>
</a>
</g>
</g>
<!-- dir_938858dd290fe54e59e3500689c41d32&#45;&gt;dir_a762a7cb84c76c9561dbc78c61068184 -->
<g id="edge3" class="edge">
<title>dir_938858dd290fe54e59e3500689c41d32&#45;&gt;dir_a762a7cb84c76c9561dbc78c61068184</title>
<path fill="none" stroke="black" d="M133.16,-143.85C140.69,-133.93 149.5,-120.89 155,-108 163.41,-88.29 168.24,-64.49 170.93,-46.46"/>
<polygon fill="black" stroke="black" points="174.43,-46.71 172.3,-36.33 167.49,-45.76 174.43,-46.71"/>
<g id="a_edge3&#45;headlabel"><a xlink:href="dir_000021_000043.html" target="_top" xlink:title="10">
<text text-anchor="middle" x="176.76" y="-48.75" font-family="Helvetica,sans-Serif" font-size="8.00">10</text>
</a>
</g>
</g>
<!-- dir_b920fd4362476866a1b4325a80ed2bf5&#45;&gt;dir_0c017496b493ff066fbbe686970307ba -->
<g id="edge5" class="edge">
<title>dir_b920fd4362476866a1b4325a80ed2bf5&#45;&gt;dir_0c017496b493ff066fbbe686970307ba</title>
<path fill="none" stroke="black" d="M114.55,-71.7C112.55,-63.9 110.13,-54.51 107.9,-45.83"/>
<polygon fill="black" stroke="black" points="111.28,-44.92 105.4,-36.1 104.5,-46.66 111.28,-44.92"/>
<g id="a_edge5&#45;headlabel"><a xlink:href="dir_000012_000039.html" target="_top" xlink:title="8">
<text text-anchor="middle" x="114.92" y="-45.79" font-family="Helvetica,sans-Serif" font-size="8.00">8</text>
</a>
</g>
</g>
<!-- dir_b920fd4362476866a1b4325a80ed2bf5&#45;&gt;dir_58e412aa7ace8e71fc01678dc8765e7c -->
<g id="edge6" class="edge">
<title>dir_b920fd4362476866a1b4325a80ed2bf5&#45;&gt;dir_58e412aa7ace8e71fc01678dc8765e7c</title>
<path fill="none" stroke="black" d="M96.26,-71.7C84.56,-62.8 70.14,-51.82 57.49,-42.2"/>
<polygon fill="black" stroke="black" points="59.56,-39.37 49.48,-36.1 55.32,-44.94 59.56,-39.37"/>
<g id="a_edge6&#45;headlabel"><a xlink:href="dir_000012_000042.html" target="_top" xlink:title="1">
<text text-anchor="middle" x="64.14" y="-37.39" font-family="Helvetica,sans-Serif" font-size="8.00">1</text>
</a>
</g>
</g>
<!-- dir_b920fd4362476866a1b4325a80ed2bf5&#45;&gt;dir_a762a7cb84c76c9561dbc78c61068184 -->
<g id="edge7" class="edge">
<title>dir_b920fd4362476866a1b4325a80ed2bf5&#45;&gt;dir_a762a7cb84c76c9561dbc78c61068184</title>
<path fill="none" stroke="black" d="M132.6,-71.7C139.12,-63.39 147.07,-53.28 154.25,-44.14"/>
<polygon fill="black" stroke="black" points="157.13,-46.13 160.56,-36.1 151.63,-41.81 157.13,-46.13"/>
<g id="a_edge7&#45;headlabel"><a xlink:href="dir_000012_000043.html" target="_top" xlink:title="3">
<text text-anchor="middle" x="157.15" y="-48.81" font-family="Helvetica,sans-Serif" font-size="8.00">3</text>
</a>
</g>
</g>
<!-- dir_c7ea703034e45a505e1ea635ef215d07 -->
<g id="node3" class="node">
<title>dir_c7ea703034e45a505e1ea635ef215d07</title>
<g id="a_node3"><a xlink:href="dir_c7ea703034e45a505e1ea635ef215d07.html" target="_top" xlink:title="sync_io">
<polygon fill="#a2b4d6" stroke="#404040" points="218,-180 164,-180 164,-144 218,-144 218,-180"/>
<text text-anchor="middle" x="191" y="-160.1" font-family="Helvetica,sans-Serif" font-size="8.00">sync_io</text>
</a>
</g>
</g>
<!-- dir_c7ea703034e45a505e1ea635ef215d07&#45;&gt;dir_a762a7cb84c76c9561dbc78c61068184 -->
<g id="edge8" class="edge">
<title>dir_c7ea703034e45a505e1ea635ef215d07&#45;&gt;dir_a762a7cb84c76c9561dbc78c61068184</title>
<path fill="none" stroke="black" d="M191.86,-143.69C192.52,-124.18 192.63,-91.58 188,-64 187.02,-58.15 185.47,-52 183.75,-46.2"/>
<polygon fill="black" stroke="black" points="186.95,-44.71 180.57,-36.26 180.29,-46.85 186.95,-44.71"/>
<g id="a_edge8&#45;headlabel"><a xlink:href="dir_000037_000043.html" target="_top" xlink:title="2">
<text text-anchor="middle" x="190.75" y="-45.37" font-family="Helvetica,sans-Serif" font-size="8.00">2</text>
</a>
</g>
</g>
</g>
</svg>
