<?xml version="1.0" encoding="UTF-8" standalone="no"?>
<!DOCTYPE svg PUBLIC "-//W3C//DTD SVG 1.1//EN"
 "http://www.w3.org/Graphics/SVG/1.1/DTD/svg11.dtd">
<!-- Generated by graphviz version 2.43.0 (0)
 -->
<!-- Title: session/shm/classic Pages: 1 -->
<svg width="206pt" height="149pt"
 viewBox="0.00 0.00 206.00 149.00" xmlns="http://www.w3.org/2000/svg" xmlns:xlink="http://www.w3.org/1999/xlink">
<g id="graph0" class="graph" transform="scale(1 1) rotate(0) translate(4 145)">
<title>session/shm/classic</title>
<polygon fill="white" stroke="transparent" points="-4,4 -4,-145 202,-145 202,4 -4,4"/>
<g id="clust1" class="cluster">
<title>clusterdir_49621dcf2e58f6d541462f9bec53bd7e</title>
<g id="a_clust1"><a xlink:href="dir_49621dcf2e58f6d541462f9bec53bd7e.html" target="_top" xlink:title="shm">
<polygon fill="#edf0f7" stroke="#7f7f7f" stroke-dasharray="5,2" points="64,-64 64,-133 134,-133 134,-64 64,-64"/>
<text text-anchor="middle" x="99" y="-122.6" font-family="Helvetica,sans-Serif" font-size="8.00">shm</text>
</a>
</g>
</g>
<!-- dir_aa9b1de9a811fc0081d5a436dbc37c19 -->
<g id="node1" class="node">
<title>dir_aa9b1de9a811fc0081d5a436dbc37c19</title>
<g id="a_node1"><a xlink:href="dir_aa9b1de9a811fc0081d5a436dbc37c19.html" target="_top" xlink:title="classic">
<polygon fill="#edf0f7" stroke="#404040" stroke-width="2" points="126,-108 72,-108 72,-72 126,-72 126,-108"/>
<text text-anchor="middle" x="99" y="-88.1" font-family="Helvetica,sans-Serif" font-size="8.00">classic</text>
</a>
</g>
</g>
<!-- dir_938858dd290fe54e59e3500689c41d32 -->
<g id="node2" class="node">
<title>dir_938858dd290fe54e59e3500689c41d32</title>
<g id="a_node2"><a xlink:href="dir_938858dd290fe54e59e3500689c41d32.html" target="_top" xlink:title="session">
<polygon fill="none" stroke="red" points="54,-36 0,-36 0,0 54,0 54,-36"/>
<text text-anchor="middle" x="27" y="-16.1" font-family="Helvetica,sans-Serif" font-size="8.00">session</text>
</a>
</g>
</g>
<!-- dir_aa9b1de9a811fc0081d5a436dbc37c19&#45;&gt;dir_938858dd290fe54e59e3500689c41d32 -->
<g id="edge1" class="edge">
<title>dir_aa9b1de9a811fc0081d5a436dbc37c19&#45;&gt;dir_938858dd290fe54e59e3500689c41d32</title>
<path fill="none" stroke="black" d="M81.2,-71.7C72.4,-63.14 61.62,-52.66 52,-43.3"/>
<polygon fill="black" stroke="black" points="54.2,-40.57 44.59,-36.1 49.32,-45.58 54.2,-40.57"/>
<g id="a_edge1&#45;headlabel"><a xlink:href="dir_000004_000021.html" target="_top" xlink:title="3">
<text text-anchor="middle" x="58.76" y="-39.14" font-family="Helvetica,sans-Serif" font-size="8.00">3</text>
</a>
</g>
</g>
<!-- dir_ddb0f12d0722949f40b2818843b69123 -->
<g id="node3" class="node">
<title>dir_ddb0f12d0722949f40b2818843b69123</title>
<g id="a_node3"><a xlink:href="dir_ddb0f12d0722949f40b2818843b69123.html" target="_top" xlink:title="shm">
<polygon fill="none" stroke="red" points="126,-36 72,-36 72,0 126,0 126,-36"/>
<text text-anchor="middle" x="99" y="-16.1" font-family="Helvetica,sans-Serif" font-size="8.00">shm</text>
</a>
</g>
</g>
<!-- dir_aa9b1de9a811fc0081d5a436dbc37c19&#45;&gt;dir_ddb0f12d0722949f40b2818843b69123 -->
<g id="edge2" class="edge">
<title>dir_aa9b1de9a811fc0081d5a436dbc37c19&#45;&gt;dir_ddb0f12d0722949f40b2818843b69123</title>
<path fill="none" stroke="black" d="M99,-71.7C99,-63.98 99,-54.71 99,-46.11"/>
<polygon fill="black" stroke="black" points="102.5,-46.1 99,-36.1 95.5,-46.1 102.5,-46.1"/>
<g id="a_edge2&#45;headlabel"><a xlink:href="dir_000004_000026.html" target="_top" xlink:title="6">
<text text-anchor="middle" x="105.34" y="-47.8" font-family="Helvetica,sans-Serif" font-size="8.00">6</text>
</a>
</g>
</g>
<!-- dir_f0dcdbcdad5dc990ffed47548b79989b -->
<g id="node4" class="node">
<title>dir_f0dcdbcdad5dc990ffed47548b79989b</title>
<g id="a_node4"><a xlink:href="dir_f0dcdbcdad5dc990ffed47548b79989b.html" target="_top" xlink:title="detail">
<polygon fill="none" stroke="red" stroke-dasharray="5,2" points="198,-36 144,-36 144,0 198,0 198,-36"/>
<text text-anchor="middle" x="171" y="-16.1" font-family="Helvetica,sans-Serif" font-size="8.00">detail</text>
</a>
</g>
</g>
<!-- dir_aa9b1de9a811fc0081d5a436dbc37c19&#45;&gt;dir_f0dcdbcdad5dc990ffed47548b79989b -->
<g id="edge3" class="edge">
<title>dir_aa9b1de9a811fc0081d5a436dbc37c19&#45;&gt;dir_f0dcdbcdad5dc990ffed47548b79989b</title>
<path fill="none" stroke="black" d="M116.8,-71.7C125.6,-63.14 136.38,-52.66 146,-43.3"/>
<polygon fill="black" stroke="black" points="148.68,-45.58 153.41,-36.1 143.8,-40.57 148.68,-45.58"/>
<g id="a_edge3&#45;headlabel"><a xlink:href="dir_000004_000014.html" target="_top" xlink:title="3">
<text text-anchor="middle" x="148.08" y="-48.23" font-family="Helvetica,sans-Serif" font-size="8.00">3</text>
</a>
</g>
</g>
</g>
</svg>
