<?xml version="1.0" encoding="UTF-8" standalone="no"?>
<!DOCTYPE svg PUBLIC "-//W3C//DTD SVG 1.1//EN"
 "http://www.w3.org/Graphics/SVG/1.1/DTD/svg11.dtd">
<!-- Generated by graphviz version 2.43.0 (0)
 -->
<!-- Title: session/shm/arena_lend/jemalloc Pages: 1 -->
<svg width="350pt" height="149pt"
 viewBox="0.00 0.00 350.00 149.00" xmlns="http://www.w3.org/2000/svg" xmlns:xlink="http://www.w3.org/1999/xlink">
<g id="graph0" class="graph" transform="scale(1 1) rotate(0) translate(4 145)">
<title>session/shm/arena_lend/jemalloc</title>
<polygon fill="white" stroke="transparent" points="-4,4 -4,-145 346,-145 346,4 -4,4"/>
<g id="clust1" class="cluster">
<title>clusterdir_d1a5353b5ceb9e8de9acee201f2ed2e4</title>
<g id="a_clust1"><a xlink:href="dir_d1a5353b5ceb9e8de9acee201f2ed2e4.html" target="_top" xlink:title="arena_lend">
<polygon fill="#edf0f7" stroke="#7f7f7f" stroke-dasharray="5,2" points="136,-64 136,-133 206,-133 206,-64 136,-64"/>
<text text-anchor="middle" x="171" y="-122.6" font-family="Helvetica,sans-Serif" font-size="8.00">arena_lend</text>
</a>
</g>
</g>
<!-- dir_d618e329fbb069400f9c6c11fc37efe1 -->
<g id="node1" class="node">
<title>dir_d618e329fbb069400f9c6c11fc37efe1</title>
<g id="a_node1"><a xlink:href="dir_d618e329fbb069400f9c6c11fc37efe1.html" target="_top" xlink:title="jemalloc">
<polygon fill="#edf0f7" stroke="#404040" stroke-width="2" points="198,-108 144,-108 144,-72 198,-72 198,-108"/>
<text text-anchor="middle" x="171" y="-88.1" font-family="Helvetica,sans-Serif" font-size="8.00">jemalloc</text>
</a>
</g>
</g>
<!-- dir_23fbec4e7c966aae2efbb90aeb47f596 -->
<g id="node2" class="node">
<title>dir_23fbec4e7c966aae2efbb90aeb47f596</title>
<g id="a_node2"><a xlink:href="dir_23fbec4e7c966aae2efbb90aeb47f596.html" target="_top" xlink:title="session">
<polygon fill="none" stroke="red" points="54,-36 0,-36 0,0 54,0 54,-36"/>
<text text-anchor="middle" x="27" y="-16.1" font-family="Helvetica,sans-Serif" font-size="8.00">session</text>
</a>
</g>
</g>
<!-- dir_d618e329fbb069400f9c6c11fc37efe1&#45;&gt;dir_23fbec4e7c966aae2efbb90aeb47f596 -->
<g id="edge1" class="edge">
<title>dir_d618e329fbb069400f9c6c11fc37efe1&#45;&gt;dir_23fbec4e7c966aae2efbb90aeb47f596</title>
<path fill="none" stroke="black" d="M143.91,-75.83C121.23,-64.81 88.64,-48.97 63.63,-36.81"/>
<polygon fill="black" stroke="black" points="64.98,-33.57 54.45,-32.35 61.92,-39.87 64.98,-33.57"/>
<g id="a_edge1&#45;headlabel"><a xlink:href="dir_000018_000022.html" target="_top" xlink:title="1">
<text text-anchor="middle" x="69.45" y="-30.69" font-family="Helvetica,sans-Serif" font-size="8.00">1</text>
</a>
</g>
</g>
<!-- dir_938858dd290fe54e59e3500689c41d32 -->
<g id="node3" class="node">
<title>dir_938858dd290fe54e59e3500689c41d32</title>
<g id="a_node3"><a xlink:href="dir_938858dd290fe54e59e3500689c41d32.html" target="_top" xlink:title="session">
<polygon fill="none" stroke="red" points="126,-36 72,-36 72,0 126,0 126,-36"/>
<text text-anchor="middle" x="99" y="-16.1" font-family="Helvetica,sans-Serif" font-size="8.00">session</text>
</a>
</g>
</g>
<!-- dir_d618e329fbb069400f9c6c11fc37efe1&#45;&gt;dir_938858dd290fe54e59e3500689c41d32 -->
<g id="edge2" class="edge">
<title>dir_d618e329fbb069400f9c6c11fc37efe1&#45;&gt;dir_938858dd290fe54e59e3500689c41d32</title>
<path fill="none" stroke="black" d="M153.2,-71.7C144.4,-63.14 133.62,-52.66 124,-43.3"/>
<polygon fill="black" stroke="black" points="126.2,-40.57 116.59,-36.1 121.32,-45.58 126.2,-40.57"/>
<g id="a_edge2&#45;headlabel"><a xlink:href="dir_000018_000021.html" target="_top" xlink:title="3">
<text text-anchor="middle" x="130.76" y="-39.14" font-family="Helvetica,sans-Serif" font-size="8.00">3</text>
</a>
</g>
</g>
<!-- dir_a762a7cb84c76c9561dbc78c61068184 -->
<g id="node4" class="node">
<title>dir_a762a7cb84c76c9561dbc78c61068184</title>
<g id="a_node4"><a xlink:href="dir_a762a7cb84c76c9561dbc78c61068184.html" target="_top" xlink:title="util">
<polygon fill="none" stroke="red" points="198,-36 144,-36 144,0 198,0 198,-36"/>
<text text-anchor="middle" x="171" y="-16.1" font-family="Helvetica,sans-Serif" font-size="8.00">util</text>
</a>
</g>
</g>
<!-- dir_d618e329fbb069400f9c6c11fc37efe1&#45;&gt;dir_a762a7cb84c76c9561dbc78c61068184 -->
<g id="edge3" class="edge">
<title>dir_d618e329fbb069400f9c6c11fc37efe1&#45;&gt;dir_a762a7cb84c76c9561dbc78c61068184</title>
<path fill="none" stroke="black" d="M171,-71.7C171,-63.98 171,-54.71 171,-46.11"/>
<polygon fill="black" stroke="black" points="174.5,-46.1 171,-36.1 167.5,-46.1 174.5,-46.1"/>
<g id="a_edge3&#45;headlabel"><a xlink:href="dir_000018_000043.html" target="_top" xlink:title="1">
<text text-anchor="middle" x="177.34" y="-47.8" font-family="Helvetica,sans-Serif" font-size="8.00">1</text>
</a>
</g>
</g>
<!-- dir_ddb0f12d0722949f40b2818843b69123 -->
<g id="node5" class="node">
<title>dir_ddb0f12d0722949f40b2818843b69123</title>
<g id="a_node5"><a xlink:href="dir_ddb0f12d0722949f40b2818843b69123.html" target="_top" xlink:title="shm">
<polygon fill="none" stroke="red" points="270,-36 216,-36 216,0 270,0 270,-36"/>
<text text-anchor="middle" x="243" y="-16.1" font-family="Helvetica,sans-Serif" font-size="8.00">shm</text>
</a>
</g>
</g>
<!-- dir_d618e329fbb069400f9c6c11fc37efe1&#45;&gt;dir_ddb0f12d0722949f40b2818843b69123 -->
<g id="edge4" class="edge">
<title>dir_d618e329fbb069400f9c6c11fc37efe1&#45;&gt;dir_ddb0f12d0722949f40b2818843b69123</title>
<path fill="none" stroke="black" d="M188.8,-71.7C197.6,-63.14 208.38,-52.66 218,-43.3"/>
<polygon fill="black" stroke="black" points="220.68,-45.58 225.41,-36.1 215.8,-40.57 220.68,-45.58"/>
<g id="a_edge4&#45;headlabel"><a xlink:href="dir_000018_000026.html" target="_top" xlink:title="2">
<text text-anchor="middle" x="220.08" y="-48.23" font-family="Helvetica,sans-Serif" font-size="8.00">2</text>
</a>
</g>
</g>
<!-- dir_e8a6be6454742763ef88d859db4d5829 -->
<g id="node6" class="node">
<title>dir_e8a6be6454742763ef88d859db4d5829</title>
<g id="a_node6"><a xlink:href="dir_e8a6be6454742763ef88d859db4d5829.html" target="_top" xlink:title="detail">
<polygon fill="none" stroke="red" stroke-dasharray="5,2" points="342,-36 288,-36 288,0 342,0 342,-36"/>
<text text-anchor="middle" x="315" y="-16.1" font-family="Helvetica,sans-Serif" font-size="8.00">detail</text>
</a>
</g>
</g>
<!-- dir_d618e329fbb069400f9c6c11fc37efe1&#45;&gt;dir_e8a6be6454742763ef88d859db4d5829 -->
<g id="edge5" class="edge">
<title>dir_d618e329fbb069400f9c6c11fc37efe1&#45;&gt;dir_e8a6be6454742763ef88d859db4d5829</title>
<path fill="none" stroke="black" d="M198.09,-75.83C220.77,-64.81 253.36,-48.97 278.37,-36.81"/>
<polygon fill="black" stroke="black" points="280.08,-39.87 287.55,-32.35 277.02,-33.57 280.08,-39.87"/>
<g id="a_edge5&#45;headlabel"><a xlink:href="dir_000018_000015.html" target="_top" xlink:title="3">
<text text-anchor="middle" x="278.09" y="-42.09" font-family="Helvetica,sans-Serif" font-size="8.00">3</text>
</a>
</g>
</g>
</g>
</svg>
