<?xml version="1.0" encoding="UTF-8" standalone="no"?>
<!DOCTYPE svg PUBLIC "-//W3C//DTD SVG 1.1//EN"
 "http://www.w3.org/Graphics/SVG/1.1/DTD/svg11.dtd">
<!-- Generated by graphviz version 2.43.0 (0)
 -->
<!-- Title: transport Pages: 1 -->
<svg width="133pt" height="276pt"
 viewBox="0.00 0.00 133.00 276.00" xmlns="http://www.w3.org/2000/svg" xmlns:xlink="http://www.w3.org/1999/xlink">
<g id="graph0" class="graph" transform="scale(1 1) rotate(0) translate(4 272)">
<title>transport</title>
<polygon fill="white" stroke="transparent" points="-4,4 -4,-272 129,-272 129,4 -4,4"/>
<g id="clust1" class="cluster">
<title>clusterdir_0c017496b493ff066fbbe686970307ba</title>
<g id="a_clust1"><a xlink:href="dir_0c017496b493ff066fbbe686970307ba.html" target="_top">
<polygon fill="#edf0f7" stroke="#404040" stroke-width="2" points="8,-64 8,-260 98,-260 98,-64 8,-64"/>
</a>
</g>
</g>
<!-- dir_0c017496b493ff066fbbe686970307ba -->
<g id="node1" class="node">
<title>dir_0c017496b493ff066fbbe686970307ba</title>
<text text-anchor="middle" x="63" y="-232.1" font-family="Helvetica,sans-Serif" font-size="8.00">transport</text>
</g>
<!-- dir_e82f953eb2d89bcd842ae00e323ae1e5 -->
<g id="node2" class="node">
<title>dir_e82f953eb2d89bcd842ae00e323ae1e5</title>
<g id="a_node2"><a xlink:href="dir_e82f953eb2d89bcd842ae00e323ae1e5.html" target="_top" xlink:title="detail">
<polygon fill="#a2b4d6" stroke="#404040" points="90,-180 36,-180 36,-144 90,-144 90,-180"/>
<text text-anchor="middle" x="63" y="-160.1" font-family="Helvetica,sans-Serif" font-size="8.00">detail</text>
</a>
</g>
</g>
<!-- dir_0c017496b493ff066fbbe686970307ba&#45;&gt;dir_e82f953eb2d89bcd842ae00e323ae1e5 -->
<g id="edge3" class="edge">
<title>dir_0c017496b493ff066fbbe686970307ba&#45;&gt;dir_e82f953eb2d89bcd842ae00e323ae1e5</title>
<path fill="none" stroke="black" d="M63,-215.7C63,-207.98 63,-198.71 63,-190.11"/>
<polygon fill="black" stroke="black" points="66.5,-190.1 63,-180.1 59.5,-190.1 66.5,-190.1"/>
<g id="a_edge3&#45;headlabel"><a xlink:href="dir_000039_000008.html" target="_top" xlink:title="11">
<text text-anchor="middle" x="69.34" y="-191.8" font-family="Helvetica,sans-Serif" font-size="8.00">11</text>
</a>
</g>
</g>
<!-- dir_00580eb0cf40d799755587f5d56ed1cf -->
<g id="node3" class="node">
<title>dir_00580eb0cf40d799755587f5d56ed1cf</title>
<g id="a_node3"><a xlink:href="dir_00580eb0cf40d799755587f5d56ed1cf.html" target="_top" xlink:title="sync_io">
<polygon fill="#a2b4d6" stroke="#404040" points="70,-108 16,-108 16,-72 70,-72 70,-108"/>
<text text-anchor="middle" x="43" y="-88.1" font-family="Helvetica,sans-Serif" font-size="8.00">sync_io</text>
</a>
</g>
</g>
<!-- dir_0c017496b493ff066fbbe686970307ba&#45;&gt;dir_00580eb0cf40d799755587f5d56ed1cf -->
<g id="edge1" class="edge">
<title>dir_0c017496b493ff066fbbe686970307ba&#45;&gt;dir_00580eb0cf40d799755587f5d56ed1cf</title>
<path fill="none" stroke="black" d="M47.39,-215.77C39.63,-206.03 31.05,-193.18 27,-180 20.68,-159.46 25.7,-135.44 31.73,-117.53"/>
<polygon fill="black" stroke="black" points="35.06,-118.61 35.22,-108.02 28.49,-116.2 35.06,-118.61"/>
<g id="a_edge1&#45;headlabel"><a xlink:href="dir_000039_000035.html" target="_top" xlink:title="16">
<text text-anchor="middle" x="36.49" y="-121.07" font-family="Helvetica,sans-Serif" font-size="8.00">16</text>
</a>
</g>
</g>
<!-- dir_a762a7cb84c76c9561dbc78c61068184 -->
<g id="node4" class="node">
<title>dir_a762a7cb84c76c9561dbc78c61068184</title>
<g id="a_node4"><a xlink:href="dir_a762a7cb84c76c9561dbc78c61068184.html" target="_top" xlink:title="util">
<polygon fill="none" stroke="red" points="125,-36 71,-36 71,0 125,0 125,-36"/>
<text text-anchor="middle" x="98" y="-16.1" font-family="Helvetica,sans-Serif" font-size="8.00">util</text>
</a>
</g>
</g>
<!-- dir_0c017496b493ff066fbbe686970307ba&#45;&gt;dir_a762a7cb84c76c9561dbc78c61068184 -->
<g id="edge2" class="edge">
<title>dir_0c017496b493ff066fbbe686970307ba&#45;&gt;dir_a762a7cb84c76c9561dbc78c61068184</title>
<path fill="none" stroke="black" d="M78.61,-215.77C86.37,-206.03 94.95,-193.18 99,-180 112.88,-134.87 108.01,-79.21 103.09,-46.56"/>
<polygon fill="black" stroke="black" points="106.5,-45.72 101.44,-36.41 99.59,-46.84 106.5,-45.72"/>
<g id="a_edge2&#45;headlabel"><a xlink:href="dir_000039_000043.html" target="_top" xlink:title="44">
<text text-anchor="middle" x="109.88" y="-46.92" font-family="Helvetica,sans-Serif" font-size="8.00">44</text>
</a>
</g>
</g>
<!-- dir_e82f953eb2d89bcd842ae00e323ae1e5&#45;&gt;dir_00580eb0cf40d799755587f5d56ed1cf -->
<g id="edge4" class="edge">
<title>dir_e82f953eb2d89bcd842ae00e323ae1e5&#45;&gt;dir_00580eb0cf40d799755587f5d56ed1cf</title>
<path fill="none" stroke="black" d="M52.14,-143.7C49.14,-135.98 46.27,-126.71 44.15,-118.11"/>
<polygon fill="black" stroke="black" points="47.52,-117.14 41.99,-108.1 40.68,-118.62 47.52,-117.14"/>
<g id="a_edge4&#45;headlabel"><a xlink:href="dir_000008_000035.html" target="_top" xlink:title="7">
<text text-anchor="middle" x="51.06" y="-118.16" font-family="Helvetica,sans-Serif" font-size="8.00">7</text>
</a>
</g>
</g>
<!-- dir_e82f953eb2d89bcd842ae00e323ae1e5&#45;&gt;dir_a762a7cb84c76c9561dbc78c61068184 -->
<g id="edge5" class="edge">
<title>dir_e82f953eb2d89bcd842ae00e323ae1e5&#45;&gt;dir_a762a7cb84c76c9561dbc78c61068184</title>
<path fill="none" stroke="black" d="M68.55,-143.92C71.81,-133.58 75.89,-120.1 79,-108 84.28,-87.47 89.24,-64.02 92.77,-46.34"/>
<polygon fill="black" stroke="black" points="96.28,-46.65 94.78,-36.16 89.41,-45.3 96.28,-46.65"/>
<g id="a_edge5&#45;headlabel"><a xlink:href="dir_000008_000043.html" target="_top" xlink:title="7">
<text text-anchor="middle" x="98.37" y="-48.82" font-family="Helvetica,sans-Serif" font-size="8.00">7</text>
</a>
</g>
</g>
<!-- dir_00580eb0cf40d799755587f5d56ed1cf&#45;&gt;dir_e82f953eb2d89bcd842ae00e323ae1e5 -->
<g id="edge7" class="edge">
<title>dir_00580eb0cf40d799755587f5d56ed1cf&#45;&gt;dir_e82f953eb2d89bcd842ae00e323ae1e5</title>
<path fill="none" stroke="black" d="M53.78,-108.1C56.78,-115.79 59.67,-125.05 61.79,-133.67"/>
<polygon fill="black" stroke="black" points="58.43,-134.67 63.97,-143.7 65.27,-133.18 58.43,-134.67"/>
<g id="a_edge7&#45;headlabel"><a xlink:href="dir_000035_000008.html" target="_top" xlink:title="6">
<text text-anchor="middle" x="54.89" y="-129.86" font-family="Helvetica,sans-Serif" font-size="8.00">6</text>
</a>
</g>
</g>
<!-- dir_00580eb0cf40d799755587f5d56ed1cf&#45;&gt;dir_a762a7cb84c76c9561dbc78c61068184 -->
<g id="edge6" class="edge">
<title>dir_00580eb0cf40d799755587f5d56ed1cf&#45;&gt;dir_a762a7cb84c76c9561dbc78c61068184</title>
<path fill="none" stroke="black" d="M56.6,-71.7C63.12,-63.39 71.07,-53.28 78.25,-44.14"/>
<polygon fill="black" stroke="black" points="81.13,-46.13 84.56,-36.1 75.63,-41.81 81.13,-46.13"/>
<g id="a_edge6&#45;headlabel"><a xlink:href="dir_000035_000043.html" target="_top" xlink:title="17">
<text text-anchor="middle" x="81.15" y="-48.81" font-family="Helvetica,sans-Serif" font-size="8.00">17</text>
</a>
</g>
</g>
</g>
</svg>
