<?xml version="1.0" encoding="UTF-8" standalone="no"?>
<!DOCTYPE svg PUBLIC "-//W3C//DTD SVG 1.1//EN"
 "http://www.w3.org/Graphics/SVG/1.1/DTD/svg11.dtd">
<!-- Generated by graphviz version 2.43.0 (0)
 -->
<!-- Title: transport/sync_io Pages: 1 -->
<svg width="176pt" height="245pt"
 viewBox="0.00 0.00 176.00 245.00" xmlns="http://www.w3.org/2000/svg" xmlns:xlink="http://www.w3.org/1999/xlink">
<g id="graph0" class="graph" transform="scale(1 1) rotate(0) translate(4 241)">
<title>transport/sync_io</title>
<polygon fill="white" stroke="transparent" points="-4,4 -4,-241 172,-241 172,4 -4,4"/>
<g id="clust1" class="cluster">
<title>clusterdir_0c017496b493ff066fbbe686970307ba</title>
<g id="a_clust1"><a xlink:href="dir_0c017496b493ff066fbbe686970307ba.html" target="_top" xlink:title="transport">
<polygon fill="#edf0f7" stroke="#404040" stroke-dasharray="5,2" points="8,-8 8,-229 106,-229 106,-8 8,-8"/>
<text text-anchor="middle" x="57" y="-218.6" font-family="Helvetica,sans-Serif" font-size="8.00">transport</text>
</a>
</g>
</g>
<g id="clust2" class="cluster">
<title>clusterdir_00580eb0cf40d799755587f5d56ed1cf</title>
<g id="a_clust2"><a xlink:href="dir_00580eb0cf40d799755587f5d56ed1cf.html" target="_top">
<polygon fill="#edf0f7" stroke="#404040" stroke-width="2" points="28,-80 28,-204 98,-204 98,-80 28,-80"/>
</a>
</g>
</g>
<!-- dir_e82f953eb2d89bcd842ae00e323ae1e5 -->
<g id="node1" class="node">
<title>dir_e82f953eb2d89bcd842ae00e323ae1e5</title>
<g id="a_node1"><a xlink:href="dir_e82f953eb2d89bcd842ae00e323ae1e5.html" target="_top" xlink:title="detail">
<polygon fill="#a2b4d6" stroke="#404040" points="80,-52 26,-52 26,-16 80,-16 80,-52"/>
<text text-anchor="middle" x="53" y="-32.1" font-family="Helvetica,sans-Serif" font-size="8.00">detail</text>
</a>
</g>
</g>
<!-- dir_00580eb0cf40d799755587f5d56ed1cf -->
<g id="node2" class="node">
<title>dir_00580eb0cf40d799755587f5d56ed1cf</title>
<text text-anchor="middle" x="63" y="-176.1" font-family="Helvetica,sans-Serif" font-size="8.00">sync_io</text>
</g>
<!-- dir_00580eb0cf40d799755587f5d56ed1cf&#45;&gt;dir_e82f953eb2d89bcd842ae00e323ae1e5 -->
<g id="edge3" class="edge">
<title>dir_00580eb0cf40d799755587f5d56ed1cf&#45;&gt;dir_e82f953eb2d89bcd842ae00e323ae1e5</title>
<path fill="none" stroke="black" d="M47.39,-159.77C39.63,-150.03 31.05,-137.18 27,-124 21.25,-105.31 21.94,-98.89 27,-80 28.75,-73.48 31.69,-66.93 34.99,-60.92"/>
<polygon fill="black" stroke="black" points="38.19,-62.38 40.33,-52.01 32.19,-58.78 38.19,-62.38"/>
<g id="a_edge3&#45;headlabel"><a xlink:href="dir_000035_000008.html" target="_top" xlink:title="6">
<text text-anchor="middle" x="38.78" y="-65.03" font-family="Helvetica,sans-Serif" font-size="8.00">6</text>
</a>
</g>
</g>
<!-- dir_51213d4cdf375ab846ee07ea55bdba59 -->
<g id="node3" class="node">
<title>dir_51213d4cdf375ab846ee07ea55bdba59</title>
<g id="a_node3"><a xlink:href="dir_51213d4cdf375ab846ee07ea55bdba59.html" target="_top" xlink:title="detail">
<polygon fill="#a2b4d6" stroke="#404040" points="90,-124 36,-124 36,-88 90,-88 90,-124"/>
<text text-anchor="middle" x="63" y="-104.1" font-family="Helvetica,sans-Serif" font-size="8.00">detail</text>
</a>
</g>
</g>
<!-- dir_00580eb0cf40d799755587f5d56ed1cf&#45;&gt;dir_51213d4cdf375ab846ee07ea55bdba59 -->
<g id="edge1" class="edge">
<title>dir_00580eb0cf40d799755587f5d56ed1cf&#45;&gt;dir_51213d4cdf375ab846ee07ea55bdba59</title>
<path fill="none" stroke="black" d="M63,-159.7C63,-151.98 63,-142.71 63,-134.11"/>
<polygon fill="black" stroke="black" points="66.5,-134.1 63,-124.1 59.5,-134.1 66.5,-134.1"/>
<g id="a_edge1&#45;headlabel"><a xlink:href="dir_000035_000009.html" target="_top" xlink:title="3">
<text text-anchor="middle" x="69.34" y="-135.8" font-family="Helvetica,sans-Serif" font-size="8.00">3</text>
</a>
</g>
</g>
<!-- dir_a762a7cb84c76c9561dbc78c61068184 -->
<g id="node4" class="node">
<title>dir_a762a7cb84c76c9561dbc78c61068184</title>
<g id="a_node4"><a xlink:href="dir_a762a7cb84c76c9561dbc78c61068184.html" target="_top" xlink:title="util">
<polygon fill="none" stroke="red" points="168,-52 114,-52 114,-16 168,-16 168,-52"/>
<text text-anchor="middle" x="141" y="-32.1" font-family="Helvetica,sans-Serif" font-size="8.00">util</text>
</a>
</g>
</g>
<!-- dir_00580eb0cf40d799755587f5d56ed1cf&#45;&gt;dir_a762a7cb84c76c9561dbc78c61068184 -->
<g id="edge2" class="edge">
<title>dir_00580eb0cf40d799755587f5d56ed1cf&#45;&gt;dir_a762a7cb84c76c9561dbc78c61068184</title>
<path fill="none" stroke="black" d="M75.71,-159.77C82.94,-149.61 91.94,-136.36 99,-124 110.65,-103.59 121.91,-79.43 129.83,-61.43"/>
<polygon fill="black" stroke="black" points="133.09,-62.69 133.87,-52.13 126.67,-59.91 133.09,-62.69"/>
<g id="a_edge2&#45;headlabel"><a xlink:href="dir_000035_000043.html" target="_top" xlink:title="17">
<text text-anchor="middle" x="134.27" y="-65.22" font-family="Helvetica,sans-Serif" font-size="8.00">17</text>
</a>
</g>
</g>
<!-- dir_51213d4cdf375ab846ee07ea55bdba59&#45;&gt;dir_e82f953eb2d89bcd842ae00e323ae1e5 -->
<g id="edge5" class="edge">
<title>dir_51213d4cdf375ab846ee07ea55bdba59&#45;&gt;dir_e82f953eb2d89bcd842ae00e323ae1e5</title>
<path fill="none" stroke="black" d="M60.53,-87.7C59.43,-79.98 58.1,-70.71 56.87,-62.11"/>
<polygon fill="black" stroke="black" points="60.32,-61.51 55.44,-52.1 53.39,-62.5 60.32,-61.51"/>
<g id="a_edge5&#45;headlabel"><a xlink:href="dir_000009_000008.html" target="_top" xlink:title="5">
<text text-anchor="middle" x="63.64" y="-62.77" font-family="Helvetica,sans-Serif" font-size="8.00">5</text>
</a>
</g>
</g>
<!-- dir_51213d4cdf375ab846ee07ea55bdba59&#45;&gt;dir_a762a7cb84c76c9561dbc78c61068184 -->
<g id="edge4" class="edge">
<title>dir_51213d4cdf375ab846ee07ea55bdba59&#45;&gt;dir_a762a7cb84c76c9561dbc78c61068184</title>
<path fill="none" stroke="black" d="M82.28,-87.7C91.92,-79.05 103.73,-68.45 114.23,-59.03"/>
<polygon fill="black" stroke="black" points="116.84,-61.39 121.94,-52.1 112.16,-56.18 116.84,-61.39"/>
<g id="a_edge4&#45;headlabel"><a xlink:href="dir_000009_000043.html" target="_top" xlink:title="11">
<text text-anchor="middle" x="116.06" y="-64" font-family="Helvetica,sans-Serif" font-size="8.00">11</text>
</a>
</g>
</g>
</g>
</svg>
