<?xml version="1.0" encoding="UTF-8" standalone="no"?>
<!DOCTYPE svg PUBLIC "-//W3C//DTD SVG 1.1//EN"
 "http://www.w3.org/Graphics/SVG/1.1/DTD/svg11.dtd">
<!-- Generated by graphviz version 2.43.0 (0)
 -->
<!-- Title: session/detail/shm Pages: 1 -->
<svg width="422pt" height="157pt"
 viewBox="0.00 0.00 422.00 157.00" xmlns="http://www.w3.org/2000/svg" xmlns:xlink="http://www.w3.org/1999/xlink">
<g id="graph0" class="graph" transform="scale(1 1) rotate(0) translate(4 153)">
<title>session/detail/shm</title>
<polygon fill="white" stroke="transparent" points="-4,4 -4,-153 418,-153 418,4 -4,4"/>
<g id="clust1" class="cluster">
<title>clusterdir_e8a6be6454742763ef88d859db4d5829</title>
<g id="a_clust1"><a xlink:href="dir_e8a6be6454742763ef88d859db4d5829.html" target="_top" xlink:title="detail">
<polygon fill="#edf0f7" stroke="#7f7f7f" stroke-dasharray="5,2" points="160,-56 160,-141 326,-141 326,-56 160,-56"/>
<text text-anchor="middle" x="243" y="-130.6" font-family="Helvetica,sans-Serif" font-size="8.00">detail</text>
</a>
</g>
</g>
<g id="clust2" class="cluster">
<title>clusterdir_0ec06e8c7fb5f28b16ad5cd684ffbafc</title>
<g id="a_clust2"><a xlink:href="dir_0ec06e8c7fb5f28b16ad5cd684ffbafc.html" target="_top">
<polygon fill="#edf0f7" stroke="#404040" stroke-width="2" points="168,-64 168,-116 318,-116 318,-64 168,-64"/>
</a>
</g>
</g>
<!-- dir_0ec06e8c7fb5f28b16ad5cd684ffbafc -->
<g id="node1" class="node">
<title>dir_0ec06e8c7fb5f28b16ad5cd684ffbafc</title>
<text text-anchor="middle" x="283" y="-88.1" font-family="Helvetica,sans-Serif" font-size="8.00">shm</text>
</g>
<!-- dir_227cbe559f4164f1c4cf4abf7bafbe8c -->
<g id="node2" class="node">
<title>dir_227cbe559f4164f1c4cf4abf7bafbe8c</title>
<g id="a_node2"><a xlink:href="dir_227cbe559f4164f1c4cf4abf7bafbe8c.html" target="_top" xlink:title="arena_lend">
<polygon fill="#a2b4d6" stroke="#404040" points="238,-108 176,-108 176,-72 238,-72 238,-108"/>
<text text-anchor="middle" x="207" y="-88.1" font-family="Helvetica,sans-Serif" font-size="8.00">arena_lend</text>
</a>
</g>
</g>
<!-- dir_18de54d40c020a62dfebd12c68fa56ae -->
<g id="node3" class="node">
<title>dir_18de54d40c020a62dfebd12c68fa56ae</title>
<g id="a_node3"><a xlink:href="dir_18de54d40c020a62dfebd12c68fa56ae.html" target="_top" xlink:title="transport">
<polygon fill="none" stroke="red" points="54,-36 0,-36 0,0 54,0 54,-36"/>
<text text-anchor="middle" x="27" y="-16.1" font-family="Helvetica,sans-Serif" font-size="8.00">transport</text>
</a>
</g>
</g>
<!-- dir_227cbe559f4164f1c4cf4abf7bafbe8c&#45;&gt;dir_18de54d40c020a62dfebd12c68fa56ae -->
<g id="edge5" class="edge">
<title>dir_227cbe559f4164f1c4cf4abf7bafbe8c&#45;&gt;dir_18de54d40c020a62dfebd12c68fa56ae</title>
<path fill="none" stroke="black" d="M175.79,-78.41C148.37,-68.91 107.25,-54.19 63.4,-36"/>
<polygon fill="black" stroke="black" points="64.59,-32.7 54.01,-32.07 61.88,-39.16 64.59,-32.7"/>
<g id="a_edge5&#45;headlabel"><a xlink:href="dir_000000_000041.html" target="_top" xlink:title="2">
<text text-anchor="middle" x="69" y="-29.57" font-family="Helvetica,sans-Serif" font-size="8.00">2</text>
</a>
</g>
</g>
<!-- dir_58e412aa7ace8e71fc01678dc8765e7c -->
<g id="node4" class="node">
<title>dir_58e412aa7ace8e71fc01678dc8765e7c</title>
<g id="a_node4"><a xlink:href="dir_58e412aa7ace8e71fc01678dc8765e7c.html" target="_top" xlink:title="transport">
<polygon fill="none" stroke="red" points="126,-36 72,-36 72,0 126,0 126,-36"/>
<text text-anchor="middle" x="99" y="-16.1" font-family="Helvetica,sans-Serif" font-size="8.00">transport</text>
</a>
</g>
</g>
<!-- dir_227cbe559f4164f1c4cf4abf7bafbe8c&#45;&gt;dir_58e412aa7ace8e71fc01678dc8765e7c -->
<g id="edge4" class="edge">
<title>dir_227cbe559f4164f1c4cf4abf7bafbe8c&#45;&gt;dir_58e412aa7ace8e71fc01678dc8765e7c</title>
<path fill="none" stroke="black" d="M180.58,-71.88C166.59,-62.81 149.22,-51.55 134.11,-41.76"/>
<polygon fill="black" stroke="black" points="135.82,-38.69 125.52,-36.19 132.01,-44.57 135.82,-38.69"/>
<g id="a_edge4&#45;headlabel"><a xlink:href="dir_000000_000042.html" target="_top" xlink:title="1">
<text text-anchor="middle" x="140.38" y="-36.36" font-family="Helvetica,sans-Serif" font-size="8.00">1</text>
</a>
</g>
</g>
<!-- dir_938858dd290fe54e59e3500689c41d32 -->
<g id="node5" class="node">
<title>dir_938858dd290fe54e59e3500689c41d32</title>
<g id="a_node5"><a xlink:href="dir_938858dd290fe54e59e3500689c41d32.html" target="_top" xlink:title="session">
<polygon fill="none" stroke="red" points="198,-36 144,-36 144,0 198,0 198,-36"/>
<text text-anchor="middle" x="171" y="-16.1" font-family="Helvetica,sans-Serif" font-size="8.00">session</text>
</a>
</g>
</g>
<!-- dir_227cbe559f4164f1c4cf4abf7bafbe8c&#45;&gt;dir_938858dd290fe54e59e3500689c41d32 -->
<g id="edge2" class="edge">
<title>dir_227cbe559f4164f1c4cf4abf7bafbe8c&#45;&gt;dir_938858dd290fe54e59e3500689c41d32</title>
<path fill="none" stroke="black" d="M198.1,-71.7C194,-63.73 189.05,-54.1 184.51,-45.26"/>
<polygon fill="black" stroke="black" points="187.48,-43.4 179.8,-36.1 181.26,-46.6 187.48,-43.4"/>
<g id="a_edge2&#45;headlabel"><a xlink:href="dir_000000_000021.html" target="_top" xlink:title="6">
<text text-anchor="middle" x="191.65" y="-43.39" font-family="Helvetica,sans-Serif" font-size="8.00">6</text>
</a>
</g>
</g>
<!-- dir_a762a7cb84c76c9561dbc78c61068184 -->
<g id="node6" class="node">
<title>dir_a762a7cb84c76c9561dbc78c61068184</title>
<g id="a_node6"><a xlink:href="dir_a762a7cb84c76c9561dbc78c61068184.html" target="_top" xlink:title="util">
<polygon fill="none" stroke="red" points="270,-36 216,-36 216,0 270,0 270,-36"/>
<text text-anchor="middle" x="243" y="-16.1" font-family="Helvetica,sans-Serif" font-size="8.00">util</text>
</a>
</g>
</g>
<!-- dir_227cbe559f4164f1c4cf4abf7bafbe8c&#45;&gt;dir_a762a7cb84c76c9561dbc78c61068184 -->
<g id="edge6" class="edge">
<title>dir_227cbe559f4164f1c4cf4abf7bafbe8c&#45;&gt;dir_a762a7cb84c76c9561dbc78c61068184</title>
<path fill="none" stroke="black" d="M215.9,-71.7C220,-63.73 224.95,-54.1 229.49,-45.26"/>
<polygon fill="black" stroke="black" points="232.74,-46.6 234.2,-36.1 226.52,-43.4 232.74,-46.6"/>
<g id="a_edge6&#45;headlabel"><a xlink:href="dir_000000_000043.html" target="_top" xlink:title="1">
<text text-anchor="middle" x="233.62" y="-49.19" font-family="Helvetica,sans-Serif" font-size="8.00">1</text>
</a>
</g>
</g>
<!-- dir_ddb0f12d0722949f40b2818843b69123 -->
<g id="node7" class="node">
<title>dir_ddb0f12d0722949f40b2818843b69123</title>
<g id="a_node7"><a xlink:href="dir_ddb0f12d0722949f40b2818843b69123.html" target="_top" xlink:title="shm">
<polygon fill="none" stroke="red" points="342,-36 288,-36 288,0 342,0 342,-36"/>
<text text-anchor="middle" x="315" y="-16.1" font-family="Helvetica,sans-Serif" font-size="8.00">shm</text>
</a>
</g>
</g>
<!-- dir_227cbe559f4164f1c4cf4abf7bafbe8c&#45;&gt;dir_ddb0f12d0722949f40b2818843b69123 -->
<g id="edge1" class="edge">
<title>dir_227cbe559f4164f1c4cf4abf7bafbe8c&#45;&gt;dir_ddb0f12d0722949f40b2818843b69123</title>
<path fill="none" stroke="black" d="M226.36,-71.77C232.73,-66.44 239.99,-60.74 247,-56 256.99,-49.25 268.33,-42.69 278.85,-37.01"/>
<polygon fill="black" stroke="black" points="280.62,-40.03 287.82,-32.26 277.35,-33.84 280.62,-40.03"/>
<g id="a_edge1&#45;headlabel"><a xlink:href="dir_000000_000026.html" target="_top" xlink:title="1">
<text text-anchor="middle" x="278.77" y="-42.32" font-family="Helvetica,sans-Serif" font-size="8.00">1</text>
</a>
</g>
</g>
<!-- dir_df5b0ac3fc1820ebfc25c1160f1f4b3a -->
<g id="node8" class="node">
<title>dir_df5b0ac3fc1820ebfc25c1160f1f4b3a</title>
<g id="a_node8"><a xlink:href="dir_df5b0ac3fc1820ebfc25c1160f1f4b3a.html" target="_top" xlink:title="shm">
<polygon fill="none" stroke="red" stroke-dasharray="5,2" points="414,-36 360,-36 360,0 414,0 414,-36"/>
<text text-anchor="middle" x="387" y="-16.1" font-family="Helvetica,sans-Serif" font-size="8.00">shm</text>
</a>
</g>
</g>
<!-- dir_227cbe559f4164f1c4cf4abf7bafbe8c&#45;&gt;dir_df5b0ac3fc1820ebfc25c1160f1f4b3a -->
<g id="edge3" class="edge">
<title>dir_227cbe559f4164f1c4cf4abf7bafbe8c&#45;&gt;dir_df5b0ac3fc1820ebfc25c1160f1f4b3a</title>
<path fill="none" stroke="black" d="M223.99,-71.79C230.65,-65.94 238.69,-59.91 247,-56 286.93,-37.21 304.07,-48.91 350.15,-35.71"/>
<polygon fill="black" stroke="black" points="351.26,-39.03 359.77,-32.72 349.18,-32.35 351.26,-39.03"/>
<g id="a_edge3&#45;headlabel"><a xlink:href="dir_000000_000029.html" target="_top" xlink:title="2">
<text text-anchor="middle" x="348.67" y="-40.91" font-family="Helvetica,sans-Serif" font-size="8.00">2</text>
</a>
</g>
</g>
</g>
</svg>
