<?xml version="1.0" encoding="UTF-8" standalone="no"?>
<!DOCTYPE svg PUBLIC "-//W3C//DTD SVG 1.1//EN"
 "http://www.w3.org/Graphics/SVG/1.1/DTD/svg11.dtd">
<!-- Generated by graphviz version 2.43.0 (0)
 -->
<!-- Title: session/detail/shm/arena_lend/jemalloc Pages: 1 -->
<svg width="422pt" height="149pt"
 viewBox="0.00 0.00 422.00 149.00" xmlns="http://www.w3.org/2000/svg" xmlns:xlink="http://www.w3.org/1999/xlink">
<g id="graph0" class="graph" transform="scale(1 1) rotate(0) translate(4 145)">
<title>session/detail/shm/arena_lend/jemalloc</title>
<polygon fill="white" stroke="transparent" points="-4,4 -4,-145 418,-145 418,4 -4,4"/>
<g id="clust1" class="cluster">
<title>clusterdir_227cbe559f4164f1c4cf4abf7bafbe8c</title>
<g id="a_clust1"><a xlink:href="dir_227cbe559f4164f1c4cf4abf7bafbe8c.html" target="_top" xlink:title="arena_lend">
<polygon fill="#edf0f7" stroke="#7f7f7f" stroke-dasharray="5,2" points="172,-64 172,-133 242,-133 242,-64 172,-64"/>
<text text-anchor="middle" x="207" y="-122.6" font-family="Helvetica,sans-Serif" font-size="8.00">arena_lend</text>
</a>
</g>
</g>
<!-- dir_2274bd8bf2aa5079c91aaa407be30e38 -->
<g id="node1" class="node">
<title>dir_2274bd8bf2aa5079c91aaa407be30e38</title>
<g id="a_node1"><a xlink:href="dir_2274bd8bf2aa5079c91aaa407be30e38.html" target="_top" xlink:title="jemalloc">
<polygon fill="#edf0f7" stroke="#404040" stroke-width="2" points="234,-108 180,-108 180,-72 234,-72 234,-108"/>
<text text-anchor="middle" x="207" y="-88.1" font-family="Helvetica,sans-Serif" font-size="8.00">jemalloc</text>
</a>
</g>
</g>
<!-- dir_18de54d40c020a62dfebd12c68fa56ae -->
<g id="node2" class="node">
<title>dir_18de54d40c020a62dfebd12c68fa56ae</title>
<g id="a_node2"><a xlink:href="dir_18de54d40c020a62dfebd12c68fa56ae.html" target="_top" xlink:title="transport">
<polygon fill="none" stroke="red" points="54,-36 0,-36 0,0 54,0 54,-36"/>
<text text-anchor="middle" x="27" y="-16.1" font-family="Helvetica,sans-Serif" font-size="8.00">transport</text>
</a>
</g>
</g>
<!-- dir_2274bd8bf2aa5079c91aaa407be30e38&#45;&gt;dir_18de54d40c020a62dfebd12c68fa56ae -->
<g id="edge1" class="edge">
<title>dir_2274bd8bf2aa5079c91aaa407be30e38&#45;&gt;dir_18de54d40c020a62dfebd12c68fa56ae</title>
<path fill="none" stroke="black" d="M179.92,-79.84C152.65,-70.43 109.23,-54.99 63.49,-36.04"/>
<polygon fill="black" stroke="black" points="64.59,-32.7 54.01,-32.07 61.89,-39.16 64.59,-32.7"/>
<g id="a_edge1&#45;headlabel"><a xlink:href="dir_000017_000041.html" target="_top" xlink:title="2">
<text text-anchor="middle" x="69" y="-29.57" font-family="Helvetica,sans-Serif" font-size="8.00">2</text>
</a>
</g>
</g>
<!-- dir_58e412aa7ace8e71fc01678dc8765e7c -->
<g id="node3" class="node">
<title>dir_58e412aa7ace8e71fc01678dc8765e7c</title>
<g id="a_node3"><a xlink:href="dir_58e412aa7ace8e71fc01678dc8765e7c.html" target="_top" xlink:title="transport">
<polygon fill="none" stroke="red" points="126,-36 72,-36 72,0 126,0 126,-36"/>
<text text-anchor="middle" x="99" y="-16.1" font-family="Helvetica,sans-Serif" font-size="8.00">transport</text>
</a>
</g>
</g>
<!-- dir_2274bd8bf2aa5079c91aaa407be30e38&#45;&gt;dir_58e412aa7ace8e71fc01678dc8765e7c -->
<g id="edge2" class="edge">
<title>dir_2274bd8bf2aa5079c91aaa407be30e38&#45;&gt;dir_58e412aa7ace8e71fc01678dc8765e7c</title>
<path fill="none" stroke="black" d="M180.58,-71.88C166.59,-62.81 149.22,-51.55 134.11,-41.76"/>
<polygon fill="black" stroke="black" points="135.82,-38.69 125.52,-36.19 132.01,-44.57 135.82,-38.69"/>
<g id="a_edge2&#45;headlabel"><a xlink:href="dir_000017_000042.html" target="_top" xlink:title="1">
<text text-anchor="middle" x="140.38" y="-36.36" font-family="Helvetica,sans-Serif" font-size="8.00">1</text>
</a>
</g>
</g>
<!-- dir_938858dd290fe54e59e3500689c41d32 -->
<g id="node4" class="node">
<title>dir_938858dd290fe54e59e3500689c41d32</title>
<g id="a_node4"><a xlink:href="dir_938858dd290fe54e59e3500689c41d32.html" target="_top" xlink:title="session">
<polygon fill="none" stroke="red" points="198,-36 144,-36 144,0 198,0 198,-36"/>
<text text-anchor="middle" x="171" y="-16.1" font-family="Helvetica,sans-Serif" font-size="8.00">session</text>
</a>
</g>
</g>
<!-- dir_2274bd8bf2aa5079c91aaa407be30e38&#45;&gt;dir_938858dd290fe54e59e3500689c41d32 -->
<g id="edge3" class="edge">
<title>dir_2274bd8bf2aa5079c91aaa407be30e38&#45;&gt;dir_938858dd290fe54e59e3500689c41d32</title>
<path fill="none" stroke="black" d="M198.1,-71.7C194,-63.73 189.05,-54.1 184.51,-45.26"/>
<polygon fill="black" stroke="black" points="187.48,-43.4 179.8,-36.1 181.26,-46.6 187.48,-43.4"/>
<g id="a_edge3&#45;headlabel"><a xlink:href="dir_000017_000021.html" target="_top" xlink:title="6">
<text text-anchor="middle" x="191.65" y="-43.39" font-family="Helvetica,sans-Serif" font-size="8.00">6</text>
</a>
</g>
</g>
<!-- dir_a762a7cb84c76c9561dbc78c61068184 -->
<g id="node5" class="node">
<title>dir_a762a7cb84c76c9561dbc78c61068184</title>
<g id="a_node5"><a xlink:href="dir_a762a7cb84c76c9561dbc78c61068184.html" target="_top" xlink:title="util">
<polygon fill="none" stroke="red" points="270,-36 216,-36 216,0 270,0 270,-36"/>
<text text-anchor="middle" x="243" y="-16.1" font-family="Helvetica,sans-Serif" font-size="8.00">util</text>
</a>
</g>
</g>
<!-- dir_2274bd8bf2aa5079c91aaa407be30e38&#45;&gt;dir_a762a7cb84c76c9561dbc78c61068184 -->
<g id="edge4" class="edge">
<title>dir_2274bd8bf2aa5079c91aaa407be30e38&#45;&gt;dir_a762a7cb84c76c9561dbc78c61068184</title>
<path fill="none" stroke="black" d="M215.9,-71.7C220,-63.73 224.95,-54.1 229.49,-45.26"/>
<polygon fill="black" stroke="black" points="232.74,-46.6 234.2,-36.1 226.52,-43.4 232.74,-46.6"/>
<g id="a_edge4&#45;headlabel"><a xlink:href="dir_000017_000043.html" target="_top" xlink:title="1">
<text text-anchor="middle" x="233.62" y="-49.19" font-family="Helvetica,sans-Serif" font-size="8.00">1</text>
</a>
</g>
</g>
<!-- dir_ddb0f12d0722949f40b2818843b69123 -->
<g id="node6" class="node">
<title>dir_ddb0f12d0722949f40b2818843b69123</title>
<g id="a_node6"><a xlink:href="dir_ddb0f12d0722949f40b2818843b69123.html" target="_top" xlink:title="shm">
<polygon fill="none" stroke="red" points="342,-36 288,-36 288,0 342,0 342,-36"/>
<text text-anchor="middle" x="315" y="-16.1" font-family="Helvetica,sans-Serif" font-size="8.00">shm</text>
</a>
</g>
</g>
<!-- dir_2274bd8bf2aa5079c91aaa407be30e38&#45;&gt;dir_ddb0f12d0722949f40b2818843b69123 -->
<g id="edge5" class="edge">
<title>dir_2274bd8bf2aa5079c91aaa407be30e38&#45;&gt;dir_ddb0f12d0722949f40b2818843b69123</title>
<path fill="none" stroke="black" d="M233.42,-71.88C247.41,-62.81 264.78,-51.55 279.89,-41.76"/>
<polygon fill="black" stroke="black" points="281.99,-44.57 288.48,-36.19 278.18,-38.69 281.99,-44.57"/>
<g id="a_edge5&#45;headlabel"><a xlink:href="dir_000017_000026.html" target="_top" xlink:title="1">
<text text-anchor="middle" x="280.52" y="-47" font-family="Helvetica,sans-Serif" font-size="8.00">1</text>
</a>
</g>
</g>
<!-- dir_df5b0ac3fc1820ebfc25c1160f1f4b3a -->
<g id="node7" class="node">
<title>dir_df5b0ac3fc1820ebfc25c1160f1f4b3a</title>
<g id="a_node7"><a xlink:href="dir_df5b0ac3fc1820ebfc25c1160f1f4b3a.html" target="_top" xlink:title="shm">
<polygon fill="none" stroke="red" stroke-dasharray="5,2" points="414,-36 360,-36 360,0 414,0 414,-36"/>
<text text-anchor="middle" x="387" y="-16.1" font-family="Helvetica,sans-Serif" font-size="8.00">shm</text>
</a>
</g>
</g>
<!-- dir_2274bd8bf2aa5079c91aaa407be30e38&#45;&gt;dir_df5b0ac3fc1820ebfc25c1160f1f4b3a -->
<g id="edge6" class="edge">
<title>dir_2274bd8bf2aa5079c91aaa407be30e38&#45;&gt;dir_df5b0ac3fc1820ebfc25c1160f1f4b3a</title>
<path fill="none" stroke="black" d="M234.08,-79.84C261.35,-70.43 304.77,-54.99 350.51,-36.04"/>
<polygon fill="black" stroke="black" points="352.11,-39.16 359.99,-32.07 349.41,-32.7 352.11,-39.16"/>
<g id="a_edge6&#45;headlabel"><a xlink:href="dir_000017_000029.html" target="_top" xlink:title="2">
<text text-anchor="middle" x="349.89" y="-41.26" font-family="Helvetica,sans-Serif" font-size="8.00">2</text>
</a>
</g>
</g>
</g>
</svg>
