<?xml version="1.0" encoding="UTF-8" standalone="no"?>
<!DOCTYPE svg PUBLIC "-//W3C//DTD SVG 1.1//EN"
 "http://www.w3.org/Graphics/SVG/1.1/DTD/svg11.dtd">
<!-- Generated by graphviz version 2.43.0 (0)
 -->
<!-- Title: util Pages: 1 -->
<svg width="166pt" height="148pt"
 viewBox="0.00 0.00 166.00 148.00" xmlns="http://www.w3.org/2000/svg" xmlns:xlink="http://www.w3.org/1999/xlink">
<g id="graph0" class="graph" transform="scale(1 1) rotate(0) translate(4 144)">
<title>util</title>
<polygon fill="white" stroke="transparent" points="-4,4 -4,-144 162,-144 162,4 -4,4"/>
<g id="clust1" class="cluster">
<title>clusterdir_a762a7cb84c76c9561dbc78c61068184</title>
<g id="a_clust1"><a xlink:href="dir_a762a7cb84c76c9561dbc78c61068184.html" target="_top">
<polygon fill="#edf0f7" stroke="#404040" stroke-width="2" points="8,-8 8,-132 150,-132 150,-8 8,-8"/>
</a>
</g>
</g>
<!-- dir_a762a7cb84c76c9561dbc78c61068184 -->
<g id="node1" class="node">
<title>dir_a762a7cb84c76c9561dbc78c61068184</title>
<text text-anchor="middle" x="115" y="-104.1" font-family="Helvetica,sans-Serif" font-size="8.00">util</text>
</g>
<!-- dir_b5fa8338842f1288129dabc4bfd9a8d3 -->
<g id="node2" class="node">
<title>dir_b5fa8338842f1288129dabc4bfd9a8d3</title>
<g id="a_node2"><a xlink:href="dir_b5fa8338842f1288129dabc4bfd9a8d3.html" target="_top" xlink:title="detail">
<polygon fill="#a2b4d6" stroke="#404040" points="106,-52 52,-52 52,-16 106,-16 106,-52"/>
<text text-anchor="middle" x="79" y="-32.1" font-family="Helvetica,sans-Serif" font-size="8.00">detail</text>
</a>
</g>
</g>
<!-- dir_a762a7cb84c76c9561dbc78c61068184&#45;&gt;dir_b5fa8338842f1288129dabc4bfd9a8d3 -->
<g id="edge1" class="edge">
<title>dir_a762a7cb84c76c9561dbc78c61068184&#45;&gt;dir_b5fa8338842f1288129dabc4bfd9a8d3</title>
<path fill="none" stroke="black" d="M106.1,-87.7C102,-79.73 97.05,-70.1 92.51,-61.26"/>
<polygon fill="black" stroke="black" points="95.48,-59.4 87.8,-52.1 89.26,-62.6 95.48,-59.4"/>
<g id="a_edge1&#45;headlabel"><a xlink:href="dir_000043_000010.html" target="_top" xlink:title="2">
<text text-anchor="middle" x="99.65" y="-59.39" font-family="Helvetica,sans-Serif" font-size="8.00">2</text>
</a>
</g>
</g>
<!-- dir_ff5224d8270264443126f24ce9d073a6 -->
<g id="node3" class="node">
<title>dir_ff5224d8270264443126f24ce9d073a6</title>
<g id="a_node3"><a xlink:href="dir_ff5224d8270264443126f24ce9d073a6.html" target="_top" xlink:title="sync_io">
<polygon fill="#a2b4d6" stroke="#404040" points="70,-124 16,-124 16,-88 70,-88 70,-124"/>
<text text-anchor="middle" x="43" y="-104.1" font-family="Helvetica,sans-Serif" font-size="8.00">sync_io</text>
</a>
</g>
</g>
<!-- dir_ff5224d8270264443126f24ce9d073a6&#45;&gt;dir_b5fa8338842f1288129dabc4bfd9a8d3 -->
<g id="edge2" class="edge">
<title>dir_ff5224d8270264443126f24ce9d073a6&#45;&gt;dir_b5fa8338842f1288129dabc4bfd9a8d3</title>
<path fill="none" stroke="black" d="M51.9,-87.7C56,-79.73 60.95,-70.1 65.49,-61.26"/>
<polygon fill="black" stroke="black" points="68.74,-62.6 70.2,-52.1 62.52,-59.4 68.74,-62.6"/>
<g id="a_edge2&#45;headlabel"><a xlink:href="dir_000036_000010.html" target="_top" xlink:title="1">
<text text-anchor="middle" x="69.62" y="-65.19" font-family="Helvetica,sans-Serif" font-size="8.00">1</text>
</a>
</g>
</g>
</g>
</svg>
