<?xml version="1.0" encoding="UTF-8" standalone="no"?>
<!DOCTYPE svg PUBLIC "-//W3C//DTD SVG 1.1//EN"
 "http://www.w3.org/Graphics/SVG/1.1/DTD/svg11.dtd">
<!-- Generated by graphviz version 2.43.0 (0)
 -->
<!-- Title: session/shm Pages: 1 -->
<svg width="460pt" height="173pt"
 viewBox="0.00 0.00 460.00 173.00" xmlns="http://www.w3.org/2000/svg" xmlns:xlink="http://www.w3.org/1999/xlink">
<g id="graph0" class="graph" transform="scale(1 1) rotate(0) translate(4 169)">
<title>session/shm</title>
<polygon fill="white" stroke="transparent" points="-4,4 -4,-169 456,-169 456,4 -4,4"/>
<g id="clust1" class="cluster">
<title>clusterdir_b574b0807182fd54d29cf48452072c45</title>
<g id="a_clust1"><a xlink:href="dir_b574b0807182fd54d29cf48452072c45.html" target="_top" xlink:title="session">
<polygon fill="#edf0f7" stroke="#404040" stroke-dasharray="5,2" points="8,-8 8,-157 174,-157 174,-8 8,-8"/>
<text text-anchor="middle" x="91" y="-146.6" font-family="Helvetica,sans-Serif" font-size="8.00">session</text>
</a>
</g>
</g>
<g id="clust2" class="cluster">
<title>clusterdir_df5b0ac3fc1820ebfc25c1160f1f4b3a</title>
<g id="a_clust2"><a xlink:href="dir_df5b0ac3fc1820ebfc25c1160f1f4b3a.html" target="_top">
<polygon fill="#edf0f7" stroke="#404040" stroke-width="2" points="16,-80 16,-132 166,-132 166,-80 16,-80"/>
</a>
</g>
</g>
<!-- dir_e8a6be6454742763ef88d859db4d5829 -->
<g id="node1" class="node">
<title>dir_e8a6be6454742763ef88d859db4d5829</title>
<g id="a_node1"><a xlink:href="dir_e8a6be6454742763ef88d859db4d5829.html" target="_top" xlink:title="detail">
<polygon fill="#a2b4d6" stroke="red" points="82,-52 28,-52 28,-16 82,-16 82,-52"/>
<text text-anchor="middle" x="55" y="-32.1" font-family="Helvetica,sans-Serif" font-size="8.00">detail</text>
</a>
</g>
</g>
<!-- dir_df5b0ac3fc1820ebfc25c1160f1f4b3a -->
<g id="node2" class="node">
<title>dir_df5b0ac3fc1820ebfc25c1160f1f4b3a</title>
<text text-anchor="middle" x="131" y="-104.1" font-family="Helvetica,sans-Serif" font-size="8.00">shm</text>
</g>
<!-- dir_d1a5353b5ceb9e8de9acee201f2ed2e4 -->
<g id="node3" class="node">
<title>dir_d1a5353b5ceb9e8de9acee201f2ed2e4</title>
<g id="a_node3"><a xlink:href="dir_d1a5353b5ceb9e8de9acee201f2ed2e4.html" target="_top" xlink:title="arena_lend">
<polygon fill="#a2b4d6" stroke="#404040" points="86,-124 24,-124 24,-88 86,-88 86,-124"/>
<text text-anchor="middle" x="55" y="-104.1" font-family="Helvetica,sans-Serif" font-size="8.00">arena_lend</text>
</a>
</g>
</g>
<!-- dir_d1a5353b5ceb9e8de9acee201f2ed2e4&#45;&gt;dir_e8a6be6454742763ef88d859db4d5829 -->
<g id="edge1" class="edge">
<title>dir_d1a5353b5ceb9e8de9acee201f2ed2e4&#45;&gt;dir_e8a6be6454742763ef88d859db4d5829</title>
<path fill="none" stroke="black" d="M55,-87.7C55,-79.98 55,-70.71 55,-62.11"/>
<polygon fill="black" stroke="black" points="58.5,-62.1 55,-52.1 51.5,-62.1 58.5,-62.1"/>
<g id="a_edge1&#45;headlabel"><a xlink:href="dir_000001_000015.html" target="_top" xlink:title="3">
<text text-anchor="middle" x="61.34" y="-63.8" font-family="Helvetica,sans-Serif" font-size="8.00">3</text>
</a>
</g>
</g>
<!-- dir_23fbec4e7c966aae2efbb90aeb47f596 -->
<g id="node4" class="node">
<title>dir_23fbec4e7c966aae2efbb90aeb47f596</title>
<g id="a_node4"><a xlink:href="dir_23fbec4e7c966aae2efbb90aeb47f596.html" target="_top" xlink:title="session">
<polygon fill="none" stroke="red" points="236,-52 182,-52 182,-16 236,-16 236,-52"/>
<text text-anchor="middle" x="209" y="-32.1" font-family="Helvetica,sans-Serif" font-size="8.00">session</text>
</a>
</g>
</g>
<!-- dir_d1a5353b5ceb9e8de9acee201f2ed2e4&#45;&gt;dir_23fbec4e7c966aae2efbb90aeb47f596 -->
<g id="edge4" class="edge">
<title>dir_d1a5353b5ceb9e8de9acee201f2ed2e4&#45;&gt;dir_23fbec4e7c966aae2efbb90aeb47f596</title>
<path fill="none" stroke="black" d="M80.32,-87.95C85.09,-85.09 90.11,-82.31 95,-80 127.17,-64.78 140.09,-67.06 172.16,-54.31"/>
<polygon fill="black" stroke="black" points="173.88,-57.38 181.75,-50.28 171.17,-50.93 173.88,-57.38"/>
<g id="a_edge4&#45;headlabel"><a xlink:href="dir_000001_000022.html" target="_top" xlink:title="1">
<text text-anchor="middle" x="171.66" y="-59.49" font-family="Helvetica,sans-Serif" font-size="8.00">1</text>
</a>
</g>
</g>
<!-- dir_938858dd290fe54e59e3500689c41d32 -->
<g id="node5" class="node">
<title>dir_938858dd290fe54e59e3500689c41d32</title>
<g id="a_node5"><a xlink:href="dir_938858dd290fe54e59e3500689c41d32.html" target="_top" xlink:title="session">
<polygon fill="none" stroke="red" points="308,-52 254,-52 254,-16 308,-16 308,-52"/>
<text text-anchor="middle" x="281" y="-32.1" font-family="Helvetica,sans-Serif" font-size="8.00">session</text>
</a>
</g>
</g>
<!-- dir_d1a5353b5ceb9e8de9acee201f2ed2e4&#45;&gt;dir_938858dd290fe54e59e3500689c41d32 -->
<g id="edge2" class="edge">
<title>dir_d1a5353b5ceb9e8de9acee201f2ed2e4&#45;&gt;dir_938858dd290fe54e59e3500689c41d32</title>
<path fill="none" stroke="black" d="M79.2,-87.88C84.25,-84.89 89.66,-82.08 95,-80 155.35,-56.48 178.39,-71.39 244.2,-51.75"/>
<polygon fill="black" stroke="black" points="245.29,-55.08 253.78,-48.74 243.19,-48.4 245.29,-55.08"/>
<g id="a_edge2&#45;headlabel"><a xlink:href="dir_000001_000021.html" target="_top" xlink:title="3">
<text text-anchor="middle" x="242.71" y="-56.96" font-family="Helvetica,sans-Serif" font-size="8.00">3</text>
</a>
</g>
</g>
<!-- dir_a762a7cb84c76c9561dbc78c61068184 -->
<g id="node6" class="node">
<title>dir_a762a7cb84c76c9561dbc78c61068184</title>
<g id="a_node6"><a xlink:href="dir_a762a7cb84c76c9561dbc78c61068184.html" target="_top" xlink:title="util">
<polygon fill="none" stroke="red" points="380,-52 326,-52 326,-16 380,-16 380,-52"/>
<text text-anchor="middle" x="353" y="-32.1" font-family="Helvetica,sans-Serif" font-size="8.00">util</text>
</a>
</g>
</g>
<!-- dir_d1a5353b5ceb9e8de9acee201f2ed2e4&#45;&gt;dir_a762a7cb84c76c9561dbc78c61068184 -->
<g id="edge3" class="edge">
<title>dir_d1a5353b5ceb9e8de9acee201f2ed2e4&#45;&gt;dir_a762a7cb84c76c9561dbc78c61068184</title>
<path fill="none" stroke="black" d="M78.68,-87.89C83.85,-84.82 89.45,-81.98 95,-80 185.67,-47.72 219.34,-77.73 315.97,-51.71"/>
<polygon fill="black" stroke="black" points="317.16,-55.01 325.83,-48.92 315.26,-48.27 317.16,-55.01"/>
<g id="a_edge3&#45;headlabel"><a xlink:href="dir_000001_000043.html" target="_top" xlink:title="1">
<text text-anchor="middle" x="314.48" y="-56.82" font-family="Helvetica,sans-Serif" font-size="8.00">1</text>
</a>
</g>
</g>
<!-- dir_ddb0f12d0722949f40b2818843b69123 -->
<g id="node7" class="node">
<title>dir_ddb0f12d0722949f40b2818843b69123</title>
<g id="a_node7"><a xlink:href="dir_ddb0f12d0722949f40b2818843b69123.html" target="_top" xlink:title="shm">
<polygon fill="none" stroke="red" points="452,-52 398,-52 398,-16 452,-16 452,-52"/>
<text text-anchor="middle" x="425" y="-32.1" font-family="Helvetica,sans-Serif" font-size="8.00">shm</text>
</a>
</g>
</g>
<!-- dir_d1a5353b5ceb9e8de9acee201f2ed2e4&#45;&gt;dir_ddb0f12d0722949f40b2818843b69123 -->
<g id="edge5" class="edge">
<title>dir_d1a5353b5ceb9e8de9acee201f2ed2e4&#45;&gt;dir_ddb0f12d0722949f40b2818843b69123</title>
<path fill="none" stroke="black" d="M78.63,-87.75C83.81,-84.7 89.42,-81.89 95,-80 216.28,-38.9 260.28,-84.43 388.1,-51.62"/>
<polygon fill="black" stroke="black" points="389.1,-54.98 397.86,-49.01 387.29,-48.22 389.1,-54.98"/>
<g id="a_edge5&#45;headlabel"><a xlink:href="dir_000001_000026.html" target="_top" xlink:title="2">
<text text-anchor="middle" x="386.37" y="-56.75" font-family="Helvetica,sans-Serif" font-size="8.00">2</text>
</a>
</g>
</g>
</g>
</svg>
