<?xml version="1.0" encoding="UTF-8" standalone="no"?>
<!DOCTYPE svg PUBLIC "-//W3C//DTD SVG 1.1//EN"
 "http://www.w3.org/Graphics/SVG/1.1/DTD/svg11.dtd">
<!-- Generated by graphviz version 2.43.0 (0)
 -->
<!-- Title: Graphical Class Hierarchy Pages: 1 -->
<svg width="231pt" height="35pt"
 viewBox="0.00 0.00 231.00 35.00" xmlns="http://www.w3.org/2000/svg" xmlns:xlink="http://www.w3.org/1999/xlink">
<g id="graph0" class="graph" transform="scale(1 1) rotate(0) translate(4 31)">
<title>Graphical Class Hierarchy</title>
<polygon fill="white" stroke="transparent" points="-4,4 -4,-31 227,-31 227,4 -4,4"/>
<!-- Node0 -->
<g id="node1" class="node">
<title>Node0</title>
<g id="a_node1"><a xlink:href="classflow_1_1util_1_1Scoped__setter.html" target="_top" xlink:title=" ">
<polygon fill="white" stroke="black" points="0,-0.5 0,-26.5 89,-26.5 89,-0.5 0,-0.5"/>
<text text-anchor="start" x="8" y="-16.1" font-family="Helvetica,sans-Serif" font-size="8.00">flow::util::Scoped</text>
<text text-anchor="middle" x="44.5" y="-7.1" font-family="Helvetica,sans-Serif" font-size="8.00">_setter</text>
</a>
</g>
</g>
<!-- Node1 -->
<g id="node2" class="node">
<title>Node1</title>
<g id="a_node2"><a xlink:href="classipc_1_1shm_1_1stl_1_1Arena__activator.html" target="_top" xlink:title="RAII&#45;style class operating a stack&#45;like notion of a the given thread&#39;s currently active SHM&#45;aware Are...">
<polygon fill="white" stroke="black" points="125,-0.5 125,-26.5 223,-26.5 223,-0.5 125,-0.5"/>
<text text-anchor="start" x="133" y="-16.1" font-family="Helvetica,sans-Serif" font-size="8.00">ipc::shm::stl::Arena</text>
<text text-anchor="middle" x="174" y="-7.1" font-family="Helvetica,sans-Serif" font-size="8.00">_activator&lt; Arena &gt;</text>
</a>
</g>
</g>
<!-- Node0&#45;&gt;Node1 -->
<g id="edge1" class="edge">
<title>Node0&#45;&gt;Node1</title>
<path fill="none" stroke="#8b1a1a" d="M99.24,-13.5C107.74,-13.5 116.5,-13.5 124.87,-13.5"/>
<polygon fill="#8b1a1a" stroke="#8b1a1a" points="99.02,-10 89.02,-13.5 99.02,-17 99.02,-10"/>
</g>
</g>
</svg>
