<?xml version="1.0" encoding="UTF-8" standalone="no"?>
<!DOCTYPE svg PUBLIC "-//W3C//DTD SVG 1.1//EN"
 "http://www.w3.org/Graphics/SVG/1.1/DTD/svg11.dtd">
<!-- Generated by graphviz version 2.43.0 (0)
 -->
<!-- Title: Graphical Class Hierarchy Pages: 1 -->
<svg width="248pt" height="225pt"
 viewBox="0.00 0.00 248.00 225.00" xmlns="http://www.w3.org/2000/svg" xmlns:xlink="http://www.w3.org/1999/xlink">
<g id="graph0" class="graph" transform="scale(1 1) rotate(0) translate(4 221)">
<title>Graphical Class Hierarchy</title>
<polygon fill="white" stroke="transparent" points="-4,4 -4,-221 244,-221 244,4 -4,4"/>
<!-- Node0 -->
<g id="node1" class="node">
<title>Node0</title>
<g id="a_node1"><a xlink:href="classboost_1_1system_1_1error__category.html" target="_top" xlink:title=" ">
<polygon fill="white" stroke="black" points="0,-90.5 0,-116.5 101,-116.5 101,-90.5 0,-90.5"/>
<text text-anchor="start" x="8" y="-106.1" font-family="Helvetica,sans-Serif" font-size="8.00">boost::system::error</text>
<text text-anchor="middle" x="50.5" y="-97.1" font-family="Helvetica,sans-Serif" font-size="8.00">_category</text>
</a>
</g>
</g>
<!-- Node1 -->
<g id="node2" class="node">
<title>Node1</title>
<g id="a_node2"><a xlink:href="classipc_1_1session_1_1error_1_1Category.html" target="_top" xlink:title="The boost.system category for errors returned by the ipc::session module.">
<polygon fill="white" stroke="black" points="142.5,-190.5 142.5,-216.5 234.5,-216.5 234.5,-190.5 142.5,-190.5"/>
<text text-anchor="start" x="150.5" y="-206.1" font-family="Helvetica,sans-Serif" font-size="8.00">ipc::session::error</text>
<text text-anchor="middle" x="188.5" y="-197.1" font-family="Helvetica,sans-Serif" font-size="8.00">::Category</text>
</a>
</g>
</g>
<!-- Node0&#45;&gt;Node1 -->
<g id="edge1" class="edge">
<title>Node0&#45;&gt;Node1</title>
<path fill="none" stroke="midnightblue" d="M70.89,-124.17C87.34,-140.88 112.16,-164.22 137,-180.5 142.56,-184.14 148.79,-187.5 154.93,-190.45"/>
<polygon fill="midnightblue" stroke="midnightblue" points="72.99,-121.31 63.52,-116.56 67.96,-126.18 72.99,-121.31"/>
</g>
<!-- Node2 -->
<g id="node3" class="node">
<title>Node2</title>
<g id="a_node3"><a xlink:href="classipc_1_1session_1_1shm_1_1arena__lend_1_1jemalloc_1_1error_1_1Category.html" target="_top" xlink:title="The boost.system category for errors returned by the ipc::session module.">
<polygon fill="white" stroke="black" points="137,-136 137,-171 240,-171 240,-136 137,-136"/>
<text text-anchor="start" x="145" y="-160.6" font-family="Helvetica,sans-Serif" font-size="8.00">ipc::session::shm::</text>
<text text-anchor="start" x="145" y="-151.6" font-family="Helvetica,sans-Serif" font-size="8.00">arena_lend::jemalloc</text>
<text text-anchor="middle" x="188.5" y="-142.6" font-family="Helvetica,sans-Serif" font-size="8.00">::error::Category</text>
</a>
</g>
</g>
<!-- Node0&#45;&gt;Node2 -->
<g id="edge2" class="edge">
<title>Node0&#45;&gt;Node2</title>
<path fill="none" stroke="midnightblue" d="M96.66,-120.1C110.49,-125.19 125.76,-130.8 139.76,-135.95"/>
<polygon fill="midnightblue" stroke="midnightblue" points="97.47,-116.67 86.88,-116.51 95.06,-123.24 97.47,-116.67"/>
</g>
<!-- Node3 -->
<g id="node4" class="node">
<title>Node3</title>
<g id="a_node4"><a xlink:href="classipc_1_1shm_1_1classic_1_1error_1_1Category.html" target="_top" xlink:title="The boost.system category for errors returned by the ipc::shm module.">
<polygon fill="white" stroke="black" points="142.5,-90.5 142.5,-116.5 234.5,-116.5 234.5,-90.5 142.5,-90.5"/>
<text text-anchor="start" x="150.5" y="-106.1" font-family="Helvetica,sans-Serif" font-size="8.00">ipc::shm::classic::</text>
<text text-anchor="middle" x="188.5" y="-97.1" font-family="Helvetica,sans-Serif" font-size="8.00">error::Category</text>
</a>
</g>
</g>
<!-- Node0&#45;&gt;Node3 -->
<g id="edge3" class="edge">
<title>Node0&#45;&gt;Node3</title>
<path fill="none" stroke="midnightblue" d="M111.53,-103.5C121.81,-103.5 132.33,-103.5 142.14,-103.5"/>
<polygon fill="midnightblue" stroke="midnightblue" points="111.37,-100 101.37,-103.5 111.37,-107 111.37,-100"/>
</g>
<!-- Node4 -->
<g id="node5" class="node">
<title>Node4</title>
<g id="a_node5"><a xlink:href="classipc_1_1transport_1_1error_1_1Category.html" target="_top" xlink:title="The boost.system category for errors returned by the ipc::transport module.">
<polygon fill="white" stroke="black" points="139.5,-45.5 139.5,-71.5 237.5,-71.5 237.5,-45.5 139.5,-45.5"/>
<text text-anchor="start" x="147.5" y="-61.1" font-family="Helvetica,sans-Serif" font-size="8.00">ipc::transport::error</text>
<text text-anchor="middle" x="188.5" y="-52.1" font-family="Helvetica,sans-Serif" font-size="8.00">::Category</text>
</a>
</g>
</g>
<!-- Node0&#45;&gt;Node4 -->
<g id="edge4" class="edge">
<title>Node0&#45;&gt;Node4</title>
<path fill="none" stroke="midnightblue" d="M100.76,-87.2C116.21,-82.09 133.07,-76.51 147.78,-71.64"/>
<polygon fill="midnightblue" stroke="midnightblue" points="99.23,-84.02 90.84,-90.48 101.43,-90.67 99.23,-84.02"/>
</g>
<!-- Node5 -->
<g id="node6" class="node">
<title>Node5</title>
<g id="a_node6"><a xlink:href="classipc_1_1transport_1_1struc_1_1error_1_1Category.html" target="_top" xlink:title="The boost.system category for errors returned by the ipc::transport::struc module.">
<polygon fill="white" stroke="black" points="139.5,-0.5 139.5,-26.5 237.5,-26.5 237.5,-0.5 139.5,-0.5"/>
<text text-anchor="start" x="147.5" y="-16.1" font-family="Helvetica,sans-Serif" font-size="8.00">ipc::transport::struc</text>
<text text-anchor="middle" x="188.5" y="-7.1" font-family="Helvetica,sans-Serif" font-size="8.00">::error::Category</text>
</a>
</g>
</g>
<!-- Node0&#45;&gt;Node5 -->
<g id="edge5" class="edge">
<title>Node0&#45;&gt;Node5</title>
<path fill="none" stroke="midnightblue" d="M73.72,-83.69C90.38,-69.44 114.15,-50.39 137,-36.5 142.85,-32.95 149.33,-29.6 155.66,-26.61"/>
<polygon fill="midnightblue" stroke="midnightblue" points="71.42,-81.05 66.15,-90.25 76,-86.34 71.42,-81.05"/>
</g>
</g>
</svg>
