<?xml version="1.0" encoding="UTF-8" standalone="no"?>
<!DOCTYPE svg PUBLIC "-//W3C//DTD SVG 1.1//EN"
 "http://www.w3.org/Graphics/SVG/1.1/DTD/svg11.dtd">
<!-- Generated by graphviz version 2.43.0 (0)
 -->
<!-- Title: Graphical Class Hierarchy Pages: 1 -->
<svg width="330pt" height="80pt"
 viewBox="0.00 0.00 330.00 80.00" xmlns="http://www.w3.org/2000/svg" xmlns:xlink="http://www.w3.org/1999/xlink">
<g id="graph0" class="graph" transform="scale(1 1) rotate(0) translate(4 76)">
<title>Graphical Class Hierarchy</title>
<polygon fill="white" stroke="transparent" points="-4,4 -4,-76 326,-76 326,4 -4,4"/>
<!-- Node0 -->
<g id="node1" class="node">
<title>Node0</title>
<g id="a_node1"><a xlink:href="classipc_1_1transport_1_1Blob__stream__mq__base.html" target="_top" xlink:title=" ">
<polygon fill="white" stroke="black" points="0,-22.5 0,-48.5 119,-48.5 119,-22.5 0,-22.5"/>
<text text-anchor="start" x="8" y="-38.1" font-family="Helvetica,sans-Serif" font-size="8.00">ipc::transport::Blob</text>
<text text-anchor="middle" x="59.5" y="-29.1" font-family="Helvetica,sans-Serif" font-size="8.00">_stream_mq_base&lt; Mq &gt;</text>
</a>
</g>
</g>
<!-- Node1 -->
<g id="node2" class="node">
<title>Node1</title>
<g id="a_node2"><a xlink:href="classipc_1_1transport_1_1sync__io_1_1Blob__stream__mq__receiver.html" target="_top" xlink:title=" ">
<polygon fill="white" stroke="black" points="155,-45.5 155,-71.5 322,-71.5 322,-45.5 155,-45.5"/>
<text text-anchor="start" x="163" y="-61.1" font-family="Helvetica,sans-Serif" font-size="8.00">ipc::transport::sync</text>
<text text-anchor="middle" x="238.5" y="-52.1" font-family="Helvetica,sans-Serif" font-size="8.00">_io::Blob_stream_mq_receiver&lt; Mq &gt;</text>
</a>
</g>
</g>
<!-- Node0&#45;&gt;Node1 -->
<g id="edge1" class="edge">
<title>Node0&#45;&gt;Node1</title>
<path fill="none" stroke="midnightblue" d="M129.46,-44.46C137.78,-45.54 146.36,-46.66 154.86,-47.76"/>
<polygon fill="midnightblue" stroke="midnightblue" points="129.81,-40.98 119.44,-43.16 128.9,-47.92 129.81,-40.98"/>
</g>
<!-- Node2 -->
<g id="node3" class="node">
<title>Node2</title>
<g id="a_node3"><a xlink:href="classipc_1_1transport_1_1sync__io_1_1Blob__stream__mq__sender.html" target="_top" xlink:title=" ">
<polygon fill="white" stroke="black" points="157,-0.5 157,-26.5 320,-26.5 320,-0.5 157,-0.5"/>
<text text-anchor="start" x="165" y="-16.1" font-family="Helvetica,sans-Serif" font-size="8.00">ipc::transport::sync</text>
<text text-anchor="middle" x="238.5" y="-7.1" font-family="Helvetica,sans-Serif" font-size="8.00">_io::Blob_stream_mq_sender&lt; Mq &gt;</text>
</a>
</g>
</g>
<!-- Node0&#45;&gt;Node2 -->
<g id="edge2" class="edge">
<title>Node0&#45;&gt;Node2</title>
<path fill="none" stroke="midnightblue" d="M129.42,-26.93C138.38,-25.82 147.63,-24.67 156.76,-23.54"/>
<polygon fill="midnightblue" stroke="midnightblue" points="128.93,-23.47 119.44,-28.17 129.79,-30.41 128.93,-23.47"/>
</g>
</g>
</svg>
