<?xml version="1.0" encoding="UTF-8" standalone="no"?>
<!DOCTYPE svg PUBLIC "-//W3C//DTD SVG 1.1//EN"
 "http://www.w3.org/Graphics/SVG/1.1/DTD/svg11.dtd">
<!-- Generated by graphviz version 2.43.0 (0)
 -->
<!-- Title: Graphical Class Hierarchy Pages: 1 -->
<svg width="330pt" height="206pt"
 viewBox="0.00 0.00 330.00 206.00" xmlns="http://www.w3.org/2000/svg" xmlns:xlink="http://www.w3.org/1999/xlink">
<g id="graph0" class="graph" transform="scale(1 1) rotate(0) translate(4 202)">
<title>Graphical Class Hierarchy</title>
<polygon fill="white" stroke="transparent" points="-4,4 -4,-202 326,-202 326,4 -4,4"/>
<!-- Node0 -->
<g id="node1" class="node">
<title>Node0</title>
<g id="a_node1"><a xlink:href="classipc_1_1transport_1_1Blob__stream__mq__base.html" target="_top" xlink:title="Base of Blob_stream_mq_sender and Blob_stream_mq_receiver containing certain static facilities,...">
<polygon fill="white" stroke="black" points="0,-81.5 0,-116.5 139,-116.5 139,-81.5 0,-81.5"/>
<text text-anchor="start" x="8" y="-106.1" font-family="Helvetica,sans-Serif" font-size="8.00">ipc::transport::Blob</text>
<text text-anchor="start" x="8" y="-97.1" font-family="Helvetica,sans-Serif" font-size="8.00">_stream_mq_base&lt; Persistent</text>
<text text-anchor="middle" x="69.5" y="-88.1" font-family="Helvetica,sans-Serif" font-size="8.00">_mq_handle &gt;</text>
</a>
</g>
</g>
<!-- Node1 -->
<g id="node2" class="node">
<title>Node1</title>
<g id="a_node2"><a xlink:href="classipc_1_1transport_1_1Blob__stream__mq__receiver.html" target="_top" xlink:title="Implements Blob_receiver concept by using an adopted Persistent_mq_handle MQ handle to an MQ (message...">
<polygon fill="white" stroke="black" points="190,-162.5 190,-197.5 307,-197.5 307,-162.5 190,-162.5"/>
<text text-anchor="start" x="198" y="-187.1" font-family="Helvetica,sans-Serif" font-size="8.00">ipc::transport::Blob</text>
<text text-anchor="start" x="198" y="-178.1" font-family="Helvetica,sans-Serif" font-size="8.00">_stream_mq_receiver&lt;</text>
<text text-anchor="middle" x="248.5" y="-169.1" font-family="Helvetica,sans-Serif" font-size="8.00"> Persistent_mq_handle &gt;</text>
</a>
</g>
</g>
<!-- Node0&#45;&gt;Node1 -->
<g id="edge1" class="edge">
<title>Node0&#45;&gt;Node1</title>
<path fill="none" stroke="midnightblue" d="M111.06,-121.41C130.19,-131.6 153.5,-143.48 175,-153 182.37,-156.26 190.27,-159.48 198.04,-162.49"/>
<polygon fill="midnightblue" stroke="midnightblue" points="112.5,-118.2 102.03,-116.56 109.18,-124.37 112.5,-118.2"/>
</g>
<!-- Node2 -->
<g id="node3" class="node">
<title>Node2</title>
<g id="a_node3"><a xlink:href="classipc_1_1transport_1_1Blob__stream__mq__sender.html" target="_top" xlink:title="Implements Blob_sender concept by using an adopted Persistent_mq_handle MQ handle to an MQ (message q...">
<polygon fill="white" stroke="black" points="175,-108.5 175,-143.5 322,-143.5 322,-108.5 175,-108.5"/>
<text text-anchor="start" x="183" y="-133.1" font-family="Helvetica,sans-Serif" font-size="8.00">ipc::transport::Blob</text>
<text text-anchor="start" x="183" y="-124.1" font-family="Helvetica,sans-Serif" font-size="8.00">_stream_mq_sender&lt; Persistent</text>
<text text-anchor="middle" x="248.5" y="-115.1" font-family="Helvetica,sans-Serif" font-size="8.00">_mq_handle &gt;</text>
</a>
</g>
</g>
<!-- Node0&#45;&gt;Node2 -->
<g id="edge2" class="edge">
<title>Node0&#45;&gt;Node2</title>
<path fill="none" stroke="midnightblue" d="M149.12,-110.99C157.65,-112.29 166.3,-113.61 174.75,-114.9"/>
<polygon fill="midnightblue" stroke="midnightblue" points="149.6,-107.53 139.19,-109.48 148.54,-114.45 149.6,-107.53"/>
</g>
<!-- Node3 -->
<g id="node4" class="node">
<title>Node3</title>
<g id="a_node4"><a xlink:href="classipc_1_1transport_1_1sync__io_1_1Blob__stream__mq__receiver.html" target="_top" xlink:title="Implements sync_io::Blob_receiver concept by using an adopted Persistent_mq_handle MQ handle to an MQ...">
<polygon fill="white" stroke="black" points="180,-54.5 180,-89.5 317,-89.5 317,-54.5 180,-54.5"/>
<text text-anchor="start" x="188" y="-79.1" font-family="Helvetica,sans-Serif" font-size="8.00">ipc::transport::sync</text>
<text text-anchor="start" x="188" y="-70.1" font-family="Helvetica,sans-Serif" font-size="8.00">_io::Blob_stream_mq_receiver</text>
<text text-anchor="middle" x="248.5" y="-61.1" font-family="Helvetica,sans-Serif" font-size="8.00">&lt; Persistent_mq_handle &gt;</text>
</a>
</g>
</g>
<!-- Node0&#45;&gt;Node3 -->
<g id="edge3" class="edge">
<title>Node0&#45;&gt;Node3</title>
<path fill="none" stroke="midnightblue" d="M149.27,-86.98C159.43,-85.43 169.76,-83.86 179.73,-82.34"/>
<polygon fill="midnightblue" stroke="midnightblue" points="148.54,-83.55 139.19,-88.52 149.6,-90.47 148.54,-83.55"/>
</g>
<!-- Node4 -->
<g id="node5" class="node">
<title>Node4</title>
<g id="a_node5"><a xlink:href="classipc_1_1transport_1_1sync__io_1_1Blob__stream__mq__sender.html" target="_top" xlink:title="Implements sync_io::Blob_sender concept by using an adopted Persistent_mq_handle MQ handle to an MQ (...">
<polygon fill="white" stroke="black" points="182,-0.5 182,-35.5 315,-35.5 315,-0.5 182,-0.5"/>
<text text-anchor="start" x="190" y="-25.1" font-family="Helvetica,sans-Serif" font-size="8.00">ipc::transport::sync</text>
<text text-anchor="start" x="190" y="-16.1" font-family="Helvetica,sans-Serif" font-size="8.00">_io::Blob_stream_mq_sender</text>
<text text-anchor="middle" x="248.5" y="-7.1" font-family="Helvetica,sans-Serif" font-size="8.00">&lt; Persistent_mq_handle &gt;</text>
</a>
</g>
</g>
<!-- Node0&#45;&gt;Node4 -->
<g id="edge4" class="edge">
<title>Node0&#45;&gt;Node4</title>
<path fill="none" stroke="midnightblue" d="M111.06,-76.59C130.19,-66.4 153.5,-54.52 175,-45 182.37,-41.74 190.27,-38.52 198.04,-35.51"/>
<polygon fill="midnightblue" stroke="midnightblue" points="109.18,-73.63 102.03,-81.44 112.5,-79.8 109.18,-73.63"/>
</g>
</g>
</svg>
