<?xml version="1.0" encoding="UTF-8" standalone="no"?>
<!DOCTYPE svg PUBLIC "-//W3C//DTD SVG 1.1//EN"
 "http://www.w3.org/Graphics/SVG/1.1/DTD/svg11.dtd">
<!-- Generated by graphviz version 2.43.0 (0)
 -->
<!-- Title: Graphical Class Hierarchy Pages: 1 -->
<svg width="253pt" height="270pt"
 viewBox="0.00 0.00 253.00 270.00" xmlns="http://www.w3.org/2000/svg" xmlns:xlink="http://www.w3.org/1999/xlink">
<g id="graph0" class="graph" transform="scale(1 1) rotate(0) translate(4 266)">
<title>Graphical Class Hierarchy</title>
<polygon fill="white" stroke="transparent" points="-4,4 -4,-266 249,-266 249,4 -4,4"/>
<!-- Node0 -->
<g id="node1" class="node">
<title>Node0</title>
<g id="a_node1"><a xlink:href="classboost_1_1system_1_1error__category.html" target="_top" xlink:title=" ">
<polygon fill="white" stroke="black" points="0,-112.5 0,-138.5 101,-138.5 101,-112.5 0,-112.5"/>
<text text-anchor="start" x="8" y="-128.1" font-family="Helvetica,sans-Serif" font-size="8.00">boost::system::error</text>
<text text-anchor="middle" x="50.5" y="-119.1" font-family="Helvetica,sans-Serif" font-size="8.00">_category</text>
</a>
</g>
</g>
<!-- Node1 -->
<g id="node2" class="node">
<title>Node1</title>
<g id="a_node2"><a xlink:href="classipc_1_1session_1_1error_1_1Category.html" target="_top" xlink:title="The boost.system category for errors returned by the ipc::session module.">
<polygon fill="white" stroke="black" points="145,-235.5 145,-261.5 237,-261.5 237,-235.5 145,-235.5"/>
<text text-anchor="start" x="153" y="-251.1" font-family="Helvetica,sans-Serif" font-size="8.00">ipc::session::error</text>
<text text-anchor="middle" x="191" y="-242.1" font-family="Helvetica,sans-Serif" font-size="8.00">::Category</text>
</a>
</g>
</g>
<!-- Node0&#45;&gt;Node1 -->
<g id="edge1" class="edge">
<title>Node0&#45;&gt;Node1</title>
<path fill="none" stroke="midnightblue" d="M65.41,-146.91C80.71,-169.05 107.13,-203.43 137,-225.5 142.08,-229.26 147.87,-232.56 153.72,-235.4"/>
<polygon fill="midnightblue" stroke="midnightblue" points="68.24,-144.84 59.74,-138.51 62.44,-148.76 68.24,-144.84"/>
</g>
<!-- Node2 -->
<g id="node3" class="node">
<title>Node2</title>
<g id="a_node3"><a xlink:href="classipc_1_1session_1_1shm_1_1arena__lend_1_1jemalloc_1_1error_1_1Category.html" target="_top" xlink:title="The boost.system category for errors returned by the ipc::session module.">
<polygon fill="white" stroke="black" points="139.5,-181 139.5,-216 242.5,-216 242.5,-181 139.5,-181"/>
<text text-anchor="start" x="147.5" y="-205.6" font-family="Helvetica,sans-Serif" font-size="8.00">ipc::session::shm::</text>
<text text-anchor="start" x="147.5" y="-196.6" font-family="Helvetica,sans-Serif" font-size="8.00">arena_lend::jemalloc</text>
<text text-anchor="middle" x="191" y="-187.6" font-family="Helvetica,sans-Serif" font-size="8.00">::error::Category</text>
</a>
</g>
</g>
<!-- Node0&#45;&gt;Node2 -->
<g id="edge2" class="edge">
<title>Node0&#45;&gt;Node2</title>
<path fill="none" stroke="midnightblue" d="M84.28,-143.36C100.16,-151.95 119.52,-162.35 137,-171.5 142.85,-174.57 149.09,-177.79 155.16,-180.89"/>
<polygon fill="midnightblue" stroke="midnightblue" points="85.84,-140.22 75.38,-138.53 82.5,-146.38 85.84,-140.22"/>
</g>
<!-- Node3 -->
<g id="node4" class="node">
<title>Node3</title>
<g id="a_node4"><a xlink:href="classipc_1_1shm_1_1classic_1_1error_1_1Category.html" target="_top" xlink:title="The boost.system category for errors returned by the ipc::shm module.">
<polygon fill="white" stroke="black" points="145,-135.5 145,-161.5 237,-161.5 237,-135.5 145,-135.5"/>
<text text-anchor="start" x="153" y="-151.1" font-family="Helvetica,sans-Serif" font-size="8.00">ipc::shm::classic::</text>
<text text-anchor="middle" x="191" y="-142.1" font-family="Helvetica,sans-Serif" font-size="8.00">error::Category</text>
</a>
</g>
</g>
<!-- Node0&#45;&gt;Node3 -->
<g id="edge3" class="edge">
<title>Node0&#45;&gt;Node3</title>
<path fill="none" stroke="midnightblue" d="M111.32,-135.43C122.57,-137.3 134.17,-139.23 144.88,-141.01"/>
<polygon fill="midnightblue" stroke="midnightblue" points="111.55,-131.92 101.11,-133.74 110.4,-138.83 111.55,-131.92"/>
</g>
<!-- Node4 -->
<g id="node5" class="node">
<title>Node4</title>
<g id="a_node5"><a xlink:href="classipc_1_1transport_1_1error_1_1Category.html" target="_top" xlink:title="The boost.system category for errors returned by the ipc::transport module.">
<polygon fill="white" stroke="black" points="142,-90.5 142,-116.5 240,-116.5 240,-90.5 142,-90.5"/>
<text text-anchor="start" x="150" y="-106.1" font-family="Helvetica,sans-Serif" font-size="8.00">ipc::transport::error</text>
<text text-anchor="middle" x="191" y="-97.1" font-family="Helvetica,sans-Serif" font-size="8.00">::Category</text>
</a>
</g>
</g>
<!-- Node0&#45;&gt;Node4 -->
<g id="edge4" class="edge">
<title>Node0&#45;&gt;Node4</title>
<path fill="none" stroke="midnightblue" d="M111.17,-116.02C121.35,-114.4 131.82,-112.74 141.66,-111.18"/>
<polygon fill="midnightblue" stroke="midnightblue" points="110.44,-112.59 101.11,-117.62 111.54,-119.51 110.44,-112.59"/>
</g>
<!-- Node5 -->
<g id="node6" class="node">
<title>Node5</title>
<g id="a_node6"><a xlink:href="classipc_1_1transport_1_1struc_1_1error_1_1Category.html" target="_top" xlink:title="The boost.system category for errors returned by the ipc::transport::struc module.">
<polygon fill="white" stroke="black" points="142,-45.5 142,-71.5 240,-71.5 240,-45.5 142,-45.5"/>
<text text-anchor="start" x="150" y="-61.1" font-family="Helvetica,sans-Serif" font-size="8.00">ipc::transport::struc</text>
<text text-anchor="middle" x="191" y="-52.1" font-family="Helvetica,sans-Serif" font-size="8.00">::error::Category</text>
</a>
</g>
</g>
<!-- Node0&#45;&gt;Node5 -->
<g id="edge5" class="edge">
<title>Node0&#45;&gt;Node5</title>
<path fill="none" stroke="midnightblue" d="M85.24,-107.49C100.87,-99.31 119.76,-89.67 137,-81.5 144.07,-78.15 151.75,-74.71 159.02,-71.54"/>
<polygon fill="midnightblue" stroke="midnightblue" points="83.2,-104.61 75.98,-112.36 86.46,-110.8 83.2,-104.61"/>
</g>
<!-- Node6 -->
<g id="node7" class="node">
<title>Node6</title>
<g id="a_node7"><a xlink:href="classipc_1_1transport_1_1struc_1_1shm_1_1error_1_1Category.html" target="_top" xlink:title="The boost.system category for errors returned by the ipc::transport::struc::shm module.">
<polygon fill="white" stroke="black" points="137,-0.5 137,-26.5 245,-26.5 245,-0.5 137,-0.5"/>
<text text-anchor="start" x="145" y="-16.1" font-family="Helvetica,sans-Serif" font-size="8.00">ipc::transport::struc</text>
<text text-anchor="middle" x="191" y="-7.1" font-family="Helvetica,sans-Serif" font-size="8.00">::shm::error::Category</text>
</a>
</g>
</g>
<!-- Node0&#45;&gt;Node6 -->
<g id="edge6" class="edge">
<title>Node0&#45;&gt;Node6</title>
<path fill="none" stroke="midnightblue" d="M67.64,-104.4C83.55,-84.75 109.41,-55.68 137,-36.5 142.35,-32.78 148.41,-29.46 154.46,-26.59"/>
<polygon fill="midnightblue" stroke="midnightblue" points="64.73,-102.44 61.26,-112.45 70.22,-106.79 64.73,-102.44"/>
</g>
</g>
</svg>
