<?xml version="1.0" encoding="UTF-8" standalone="no"?>
<!DOCTYPE svg PUBLIC "-//W3C//DTD SVG 1.1//EN"
 "http://www.w3.org/Graphics/SVG/1.1/DTD/svg11.dtd">
<!-- Generated by graphviz version 2.43.0 (0)
 -->
<!-- Title: Graphical Class Hierarchy Pages: 1 -->
<svg width="322pt" height="44pt"
 viewBox="0.00 0.00 322.00 44.00" xmlns="http://www.w3.org/2000/svg" xmlns:xlink="http://www.w3.org/1999/xlink">
<g id="graph0" class="graph" transform="scale(1 1) rotate(0) translate(4 40)">
<title>Graphical Class Hierarchy</title>
<polygon fill="white" stroke="transparent" points="-4,4 -4,-40 318,-40 318,4 -4,4"/>
<!-- Node0 -->
<g id="node1" class="node">
<title>Node0</title>
<g id="a_node1"><a xlink:href="classipc_1_1session_1_1Session__mv.html" target="_top" xlink:title=" ">
<polygon fill="white" stroke="black" points="0,-5 0,-31 140,-31 140,-5 0,-5"/>
<text text-anchor="start" x="8" y="-20.6" font-family="Helvetica,sans-Serif" font-size="8.00">ipc::session::Session</text>
<text text-anchor="middle" x="70" y="-11.6" font-family="Helvetica,sans-Serif" font-size="8.00">_mv&lt; Server_session_impl_t &gt;</text>
</a>
</g>
</g>
<!-- Node1 -->
<g id="node2" class="node">
<title>Node1</title>
<g id="a_node2"><a xlink:href="classipc_1_1session_1_1Server__session__mv.html" target="_top" xlink:title="Implements Session concept on the Server_app end: a Session that is emitted in almost&#45;PEER state by l...">
<polygon fill="white" stroke="black" points="176,-0.5 176,-35.5 314,-35.5 314,-0.5 176,-0.5"/>
<text text-anchor="start" x="184" y="-25.1" font-family="Helvetica,sans-Serif" font-size="8.00">ipc::session::Server</text>
<text text-anchor="start" x="184" y="-16.1" font-family="Helvetica,sans-Serif" font-size="8.00">_session_mv&lt; Server_session</text>
<text text-anchor="middle" x="245" y="-7.1" font-family="Helvetica,sans-Serif" font-size="8.00">_impl_t &gt;</text>
</a>
</g>
</g>
<!-- Node0&#45;&gt;Node1 -->
<g id="edge1" class="edge">
<title>Node0&#45;&gt;Node1</title>
<path fill="none" stroke="midnightblue" d="M150.56,-18C158.98,-18 167.48,-18 175.74,-18"/>
<polygon fill="midnightblue" stroke="midnightblue" points="150.37,-14.5 140.37,-18 150.37,-21.5 150.37,-14.5"/>
</g>
</g>
</svg>
