<?xml version="1.0" encoding="UTF-8" standalone="no"?>
<!DOCTYPE svg PUBLIC "-//W3C//DTD SVG 1.1//EN"
 "http://www.w3.org/Graphics/SVG/1.1/DTD/svg11.dtd">
<!-- Generated by graphviz version 2.43.0 (0)
 -->
<!-- Title: Graphical Class Hierarchy Pages: 1 -->
<svg width="316pt" height="44pt"
 viewBox="0.00 0.00 316.00 44.00" xmlns="http://www.w3.org/2000/svg" xmlns:xlink="http://www.w3.org/1999/xlink">
<g id="graph0" class="graph" transform="scale(1 1) rotate(0) translate(4 40)">
<title>Graphical Class Hierarchy</title>
<polygon fill="white" stroke="transparent" points="-4,4 -4,-40 312,-40 312,4 -4,4"/>
<!-- Node0 -->
<g id="node1" class="node">
<title>Node0</title>
<g id="a_node1"><a xlink:href="classipc_1_1session_1_1Session__mv.html" target="_top" xlink:title=" ">
<polygon fill="white" stroke="black" points="0,-5 0,-31 137,-31 137,-5 0,-5"/>
<text text-anchor="start" x="8" y="-20.6" font-family="Helvetica,sans-Serif" font-size="8.00">ipc::session::Session</text>
<text text-anchor="middle" x="68.5" y="-11.6" font-family="Helvetica,sans-Serif" font-size="8.00">_mv&lt; Client_session_impl_t &gt;</text>
</a>
</g>
</g>
<!-- Node1 -->
<g id="node2" class="node">
<title>Node1</title>
<g id="a_node2"><a xlink:href="classipc_1_1session_1_1Client__session__mv.html" target="_top" xlink:title="Implements Session concept on the Client_app end: a Session_mv that first achieves PEER state by conn...">
<polygon fill="white" stroke="black" points="173,-0.5 173,-35.5 308,-35.5 308,-0.5 173,-0.5"/>
<text text-anchor="start" x="181" y="-25.1" font-family="Helvetica,sans-Serif" font-size="8.00">ipc::session::Client</text>
<text text-anchor="start" x="181" y="-16.1" font-family="Helvetica,sans-Serif" font-size="8.00">_session_mv&lt; Client_session</text>
<text text-anchor="middle" x="240.5" y="-7.1" font-family="Helvetica,sans-Serif" font-size="8.00">_impl_t &gt;</text>
</a>
</g>
</g>
<!-- Node0&#45;&gt;Node1 -->
<g id="edge1" class="edge">
<title>Node0&#45;&gt;Node1</title>
<path fill="none" stroke="midnightblue" d="M147.19,-18C155.77,-18 164.46,-18 172.89,-18"/>
<polygon fill="midnightblue" stroke="midnightblue" points="147.18,-14.5 137.18,-18 147.18,-21.5 147.18,-14.5"/>
</g>
</g>
</svg>
