<?xml version="1.0" encoding="UTF-8" standalone="no"?>
<!DOCTYPE svg PUBLIC "-//W3C//DTD SVG 1.1//EN"
 "http://www.w3.org/Graphics/SVG/1.1/DTD/svg11.dtd">
<!-- Generated by graphviz version 2.43.0 (0)
 -->
<!-- Title: Graphical Class Hierarchy Pages: 1 -->
<svg width="295pt" height="44pt"
 viewBox="0.00 0.00 295.00 44.00" xmlns="http://www.w3.org/2000/svg" xmlns:xlink="http://www.w3.org/1999/xlink">
<g id="graph0" class="graph" transform="scale(1 1) rotate(0) translate(4 40)">
<title>Graphical Class Hierarchy</title>
<polygon fill="white" stroke="transparent" points="-4,4 -4,-40 291,-40 291,4 -4,4"/>
<!-- Node0 -->
<g id="node1" class="node">
<title>Node0</title>
<g id="a_node1"><a xlink:href="classipc_1_1transport_1_1struc_1_1Msg__out.html" target="_top" xlink:title=" ">
<polygon fill="white" stroke="black" points="0,-0.5 0,-35.5 128,-35.5 128,-0.5 0,-0.5"/>
<text text-anchor="start" x="8" y="-25.1" font-family="Helvetica,sans-Serif" font-size="8.00">ipc::transport::struc</text>
<text text-anchor="start" x="8" y="-16.1" font-family="Helvetica,sans-Serif" font-size="8.00">::Msg_out&lt; Message_body,</text>
<text text-anchor="middle" x="64" y="-7.1" font-family="Helvetica,sans-Serif" font-size="8.00"> Struct_builder &gt;</text>
</a>
</g>
</g>
<!-- Node1 -->
<g id="node2" class="node">
<title>Node1</title>
<g id="a_node2"><a xlink:href="classipc_1_1transport_1_1struc_1_1Msg__out__impl.html" target="_top" xlink:title="Internally used (data&#45;free) addendum on&#45;top of Msg_out which makes the protected API public instead.">
<polygon fill="white" stroke="black" points="164,-0.5 164,-35.5 287,-35.5 287,-0.5 164,-0.5"/>
<text text-anchor="start" x="172" y="-25.1" font-family="Helvetica,sans-Serif" font-size="8.00">ipc::transport::struc</text>
<text text-anchor="start" x="172" y="-16.1" font-family="Helvetica,sans-Serif" font-size="8.00">::Msg_out_impl&lt; Message</text>
<text text-anchor="middle" x="225.5" y="-7.1" font-family="Helvetica,sans-Serif" font-size="8.00">_body, Struct_builder &gt;</text>
</a>
</g>
</g>
<!-- Node0&#45;&gt;Node1 -->
<g id="edge1" class="edge">
<title>Node0&#45;&gt;Node1</title>
<path fill="none" stroke="midnightblue" d="M138.05,-18C146.65,-18 155.34,-18 163.74,-18"/>
<polygon fill="midnightblue" stroke="midnightblue" points="138.04,-14.5 128.04,-18 138.04,-21.5 138.04,-14.5"/>
</g>
</g>
</svg>
