<?xml version="1.0" encoding="UTF-8" standalone="no"?>
<!DOCTYPE svg PUBLIC "-//W3C//DTD SVG 1.1//EN"
 "http://www.w3.org/Graphics/SVG/1.1/DTD/svg11.dtd">
<!-- Generated by graphviz version 2.43.0 (0)
 -->
<!-- Title: Graphical Class Hierarchy Pages: 1 -->
<svg width="284pt" height="53pt"
 viewBox="0.00 0.00 284.00 53.00" xmlns="http://www.w3.org/2000/svg" xmlns:xlink="http://www.w3.org/1999/xlink">
<g id="graph0" class="graph" transform="scale(1 1) rotate(0) translate(4 49)">
<title>Graphical Class Hierarchy</title>
<polygon fill="white" stroke="transparent" points="-4,4 -4,-49 280,-49 280,4 -4,4"/>
<!-- Node0 -->
<g id="node1" class="node">
<title>Node0</title>
<g id="a_node1"><a xlink:href="classipc_1_1transport_1_1struc_1_1Msg__out.html" target="_top" xlink:title=" ">
<polygon fill="white" stroke="black" points="0,-0.5 0,-44.5 131,-44.5 131,-0.5 0,-0.5"/>
<text text-anchor="start" x="8" y="-34.1" font-family="Helvetica,sans-Serif" font-size="8.00">ipc::transport::struc</text>
<text text-anchor="start" x="8" y="-25.1" font-family="Helvetica,sans-Serif" font-size="8.00">::Msg_out&lt; schema::detail</text>
<text text-anchor="start" x="8" y="-16.1" font-family="Helvetica,sans-Serif" font-size="8.00">::StructuredMessage, Struct</text>
<text text-anchor="middle" x="65.5" y="-7.1" font-family="Helvetica,sans-Serif" font-size="8.00">_builder_config::Builder &gt;</text>
</a>
</g>
</g>
<!-- Node1 -->
<g id="node2" class="node">
<title>Node1</title>
<g id="a_node2"><a xlink:href="classipc_1_1transport_1_1struc_1_1Msg__mdt__out.html" target="_top" xlink:title="Internally used (data&#45;free) addendum on&#45;top of Msg_out; really an alias to Msg_out&lt;schema::detail::St...">
<polygon fill="white" stroke="black" points="167,-5 167,-40 276,-40 276,-5 167,-5"/>
<text text-anchor="start" x="175" y="-29.6" font-family="Helvetica,sans-Serif" font-size="8.00">ipc::transport::struc</text>
<text text-anchor="start" x="175" y="-20.6" font-family="Helvetica,sans-Serif" font-size="8.00">::Msg_mdt_out&lt; Struct</text>
<text text-anchor="middle" x="221.5" y="-11.6" font-family="Helvetica,sans-Serif" font-size="8.00">_builder_config &gt;</text>
</a>
</g>
</g>
<!-- Node0&#45;&gt;Node1 -->
<g id="edge1" class="edge">
<title>Node0&#45;&gt;Node1</title>
<path fill="none" stroke="#8b1a1a" d="M141.42,-22.5C150.02,-22.5 158.65,-22.5 166.89,-22.5"/>
<polygon fill="#8b1a1a" stroke="#8b1a1a" points="141.36,-19 131.36,-22.5 141.36,-26 141.36,-19"/>
</g>
</g>
</svg>
