<?xml version="1.0" encoding="UTF-8" standalone="no"?>
<!DOCTYPE svg PUBLIC "-//W3C//DTD SVG 1.1//EN"
 "http://www.w3.org/Graphics/SVG/1.1/DTD/svg11.dtd">
<!-- Generated by graphviz version 2.43.0 (0)
 -->
<!-- Title: Graphical Class Hierarchy Pages: 1 -->
<svg width="186pt" height="44pt"
 viewBox="0.00 0.00 186.00 44.00" xmlns="http://www.w3.org/2000/svg" xmlns:xlink="http://www.w3.org/1999/xlink">
<g id="graph0" class="graph" transform="scale(1 1) rotate(0) translate(4 40)">
<title>Graphical Class Hierarchy</title>
<polygon fill="white" stroke="transparent" points="-4,4 -4,-40 182,-40 182,4 -4,4"/>
<!-- Node0 -->
<g id="node1" class="node">
<title>Node0</title>
<g id="a_node1"><a xlink:href="classAllocator.html" target="_top" xlink:title=" ">
<polygon fill="white" stroke="black" points="0,-9.5 0,-26.5 53,-26.5 53,-9.5 0,-9.5"/>
<text text-anchor="middle" x="26.5" y="-16.1" font-family="Helvetica,sans-Serif" font-size="8.00">Allocator</text>
</a>
</g>
</g>
<!-- Node1 -->
<g id="node2" class="node">
<title>Node1</title>
<g id="a_node2"><a xlink:href="classipc_1_1util_1_1Default__init__allocator.html" target="_top" xlink:title="Allocator adaptor (useful for, e.g., vector that skips zero&#45;filling) that turns a value&#45;initializatio...">
<polygon fill="white" stroke="black" points="89,-0.5 89,-35.5 178,-35.5 178,-0.5 89,-0.5"/>
<text text-anchor="start" x="97" y="-25.1" font-family="Helvetica,sans-Serif" font-size="8.00">ipc::util::Default</text>
<text text-anchor="start" x="97" y="-16.1" font-family="Helvetica,sans-Serif" font-size="8.00">_init_allocator&lt; T,</text>
<text text-anchor="middle" x="133.5" y="-7.1" font-family="Helvetica,sans-Serif" font-size="8.00"> Allocator &gt;</text>
</a>
</g>
</g>
<!-- Node0&#45;&gt;Node1 -->
<g id="edge1" class="edge">
<title>Node0&#45;&gt;Node1</title>
<path fill="none" stroke="midnightblue" d="M63.44,-18C71.56,-18 80.26,-18 88.66,-18"/>
<polygon fill="midnightblue" stroke="midnightblue" points="63.19,-14.5 53.19,-18 63.19,-21.5 63.19,-14.5"/>
</g>
</g>
</svg>
