<?xml version="1.0" encoding="UTF-8" standalone="no"?>
<!DOCTYPE svg PUBLIC "-//W3C//DTD SVG 1.1//EN"
 "http://www.w3.org/Graphics/SVG/1.1/DTD/svg11.dtd">
<!-- Generated by graphviz version 2.43.0 (0)
 -->
<!-- Title: Graphical Class Hierarchy Pages: 1 -->
<svg width="230pt" height="44pt"
 viewBox="0.00 0.00 230.00 44.00" xmlns="http://www.w3.org/2000/svg" xmlns:xlink="http://www.w3.org/1999/xlink">
<g id="graph0" class="graph" transform="scale(1 1) rotate(0) translate(4 40)">
<title>Graphical Class Hierarchy</title>
<polygon fill="white" stroke="transparent" points="-4,4 -4,-40 226,-40 226,4 -4,4"/>
<!-- Node0 -->
<g id="node1" class="node">
<title>Node0</title>
<g id="a_node1"><a xlink:href="classServer__session__t.html" target="_top" xlink:title=" ">
<polygon fill="white" stroke="black" points="0,-9.5 0,-26.5 85,-26.5 85,-9.5 0,-9.5"/>
<text text-anchor="middle" x="42.5" y="-16.1" font-family="Helvetica,sans-Serif" font-size="8.00">Server_session_t</text>
</a>
</g>
</g>
<!-- Node1 -->
<g id="node2" class="node">
<title>Node1</title>
<g id="a_node2"><a xlink:href="classipc_1_1session_1_1Server__session__dtl.html" target="_top" xlink:title="This is the data&#45;less sub&#45;class of Server_session or any more&#45;advanced (e.g., SHM&#45;capable) variant th...">
<polygon fill="white" stroke="black" points="121,-0.5 121,-35.5 222,-35.5 222,-0.5 121,-0.5"/>
<text text-anchor="start" x="129" y="-25.1" font-family="Helvetica,sans-Serif" font-size="8.00">ipc::session::Server</text>
<text text-anchor="start" x="129" y="-16.1" font-family="Helvetica,sans-Serif" font-size="8.00">_session_dtl&lt; Server</text>
<text text-anchor="middle" x="171.5" y="-7.1" font-family="Helvetica,sans-Serif" font-size="8.00">_session_t &gt;</text>
</a>
</g>
</g>
<!-- Node0&#45;&gt;Node1 -->
<g id="edge1" class="edge">
<title>Node0&#45;&gt;Node1</title>
<path fill="none" stroke="midnightblue" d="M95.22,-18C103.69,-18 112.44,-18 120.86,-18"/>
<polygon fill="midnightblue" stroke="midnightblue" points="95.08,-14.5 85.08,-18 95.08,-21.5 95.08,-14.5"/>
</g>
</g>
</svg>
