<?xml version="1.0" encoding="UTF-8" standalone="no"?>
<!DOCTYPE svg PUBLIC "-//W3C//DTD SVG 1.1//EN"
 "http://www.w3.org/Graphics/SVG/1.1/DTD/svg11.dtd">
<!-- Generated by graphviz version 2.43.0 (0)
 -->
<!-- Title: ipc::util::for_each_persistent_impl Pages: 1 -->
<svg width="383pt" height="121pt"
 viewBox="0.00 0.00 383.00 121.00" xmlns="http://www.w3.org/2000/svg" xmlns:xlink="http://www.w3.org/1999/xlink">
<g id="graph0" class="graph" transform="scale(1 1) rotate(0) translate(4 117)">
<title>ipc::util::for_each_persistent_impl</title>
<polygon fill="white" stroke="transparent" points="-4,4 -4,-117 379,-117 379,4 -4,4"/>
<!-- Node1 -->
<g id="node1" class="node">
<title>Node1</title>
<g id="a_node1"><a xlink:title="Implementation of Persistent_object::for_each_persistent(); for example see shm::classic::Pool_arena:...">
<polygon fill="#bfbfbf" stroke="black" points="286,-57 286,-83 375,-83 375,-57 286,-57"/>
<text text-anchor="start" x="294" y="-72.6" font-family="Helvetica,sans-Serif" font-size="8.00">ipc::util::for_each</text>
<text text-anchor="middle" x="330.5" y="-63.6" font-family="Helvetica,sans-Serif" font-size="8.00">_persistent_impl</text>
</a>
</g>
</g>
<!-- Node2 -->
<g id="node2" class="node">
<title>Node2</title>
<g id="a_node2"><a xlink:href="classipc_1_1transport_1_1Posix__mq__handle.html#a1df87fc56734cb902a71340eab6c0303" target="_top" xlink:title="Implements Persistent_mq_handle API.">
<polygon fill="white" stroke="black" points="143,-77.5 143,-112.5 250,-112.5 250,-77.5 143,-77.5"/>
<text text-anchor="start" x="151" y="-102.1" font-family="Helvetica,sans-Serif" font-size="8.00">ipc::transport::Posix</text>
<text text-anchor="start" x="151" y="-93.1" font-family="Helvetica,sans-Serif" font-size="8.00">_mq_handle::for_each</text>
<text text-anchor="middle" x="196.5" y="-84.1" font-family="Helvetica,sans-Serif" font-size="8.00">_persistent</text>
</a>
</g>
</g>
<!-- Node1&#45;&gt;Node2 -->
<g id="edge1" class="edge">
<title>Node1&#45;&gt;Node2</title>
<path fill="none" stroke="midnightblue" d="M276.08,-80.12C267.55,-81.73 258.74,-83.4 250.23,-85.01"/>
<polygon fill="midnightblue" stroke="midnightblue" points="276.74,-83.56 285.91,-78.26 275.44,-76.68 276.74,-83.56"/>
</g>
<!-- Node3 -->
<g id="node3" class="node">
<title>Node3</title>
<g id="a_node3"><a xlink:href="namespaceipc_1_1util.html#a74135195ff6c2f840092c21e522f964a" target="_top" xlink:title="Equivalent to shm::classic::Pool_arena::for_each_persistent().">
<polygon fill="white" stroke="black" points="144.5,-32 144.5,-58 248.5,-58 248.5,-32 144.5,-32"/>
<text text-anchor="start" x="152.5" y="-47.6" font-family="Helvetica,sans-Serif" font-size="8.00">ipc::util::for_each</text>
<text text-anchor="middle" x="196.5" y="-38.6" font-family="Helvetica,sans-Serif" font-size="8.00">_persistent_shm_pool</text>
</a>
</g>
</g>
<!-- Node1&#45;&gt;Node3 -->
<g id="edge2" class="edge">
<title>Node1&#45;&gt;Node3</title>
<path fill="none" stroke="midnightblue" d="M275.97,-59.86C267.01,-58.17 257.74,-56.41 248.83,-54.72"/>
<polygon fill="midnightblue" stroke="midnightblue" points="275.44,-63.32 285.91,-61.74 276.74,-56.44 275.44,-63.32"/>
</g>
<!-- Node4 -->
<g id="node4" class="node">
<title>Node4</title>
<g id="a_node4"><a xlink:href="classipc_1_1transport_1_1Bipc__mq__handle.html#a3d6fa3398edb4db10a933f9731924255" target="_top" xlink:title="Implements Persistent_mq_handle API.">
<polygon fill="white" stroke="black" points="0,-54.5 0,-89.5 107,-89.5 107,-54.5 0,-54.5"/>
<text text-anchor="start" x="8" y="-79.1" font-family="Helvetica,sans-Serif" font-size="8.00">ipc::transport::Bipc</text>
<text text-anchor="start" x="8" y="-70.1" font-family="Helvetica,sans-Serif" font-size="8.00">_mq_handle::for_each</text>
<text text-anchor="middle" x="53.5" y="-61.1" font-family="Helvetica,sans-Serif" font-size="8.00">_persistent</text>
</a>
</g>
</g>
<!-- Node3&#45;&gt;Node4 -->
<g id="edge3" class="edge">
<title>Node3&#45;&gt;Node4</title>
<path fill="none" stroke="midnightblue" d="M134.23,-56.73C125.3,-58.44 116.17,-60.19 107.42,-61.87"/>
<polygon fill="midnightblue" stroke="midnightblue" points="135.03,-60.14 144.2,-54.82 133.72,-53.27 135.03,-60.14"/>
</g>
<!-- Node5 -->
<g id="node5" class="node">
<title>Node5</title>
<g id="a_node5"><a xlink:href="classipc_1_1shm_1_1classic_1_1Pool__arena.html#a9e720283945eefe3d941b185e95d2ce1" target="_top" xlink:title="Lists all named SHM pool objects currently persisting, invoking the given handler synchronously on ea...">
<polygon fill="white" stroke="black" points="2,-0.5 2,-35.5 105,-35.5 105,-0.5 2,-0.5"/>
<text text-anchor="start" x="10" y="-25.1" font-family="Helvetica,sans-Serif" font-size="8.00">ipc::shm::classic::</text>
<text text-anchor="start" x="10" y="-16.1" font-family="Helvetica,sans-Serif" font-size="8.00">Pool_arena::for_each</text>
<text text-anchor="middle" x="53.5" y="-7.1" font-family="Helvetica,sans-Serif" font-size="8.00">_persistent</text>
</a>
</g>
</g>
<!-- Node3&#45;&gt;Node5 -->
<g id="edge4" class="edge">
<title>Node3&#45;&gt;Node5</title>
<path fill="none" stroke="midnightblue" d="M134.18,-33.26C124.46,-31.4 114.5,-29.49 105.06,-27.68"/>
<polygon fill="midnightblue" stroke="midnightblue" points="133.72,-36.73 144.2,-35.18 135.03,-29.86 133.72,-36.73"/>
</g>
</g>
</svg>
