<?xml version="1.0" encoding="UTF-8" standalone="no"?>
<!DOCTYPE svg PUBLIC "-//W3C//DTD SVG 1.1//EN"
 "http://www.w3.org/Graphics/SVG/1.1/DTD/svg11.dtd">
<!-- Generated by graphviz version 2.43.0 (0)
 -->
<!-- Title: ipc::transport::asio_local_stream_socket::endpoint_at_shared_name Pages: 1 -->
<svg width="327pt" height="98pt"
 viewBox="0.00 0.00 327.00 98.00" xmlns="http://www.w3.org/2000/svg" xmlns:xlink="http://www.w3.org/1999/xlink">
<g id="graph0" class="graph" transform="scale(1 1) rotate(0) translate(4 94)">
<title>ipc::transport::asio_local_stream_socket::endpoint_at_shared_name</title>
<polygon fill="white" stroke="transparent" points="-4,4 -4,-94 323,-94 323,4 -4,4"/>
<!-- Node1 -->
<g id="node1" class="node">
<title>Node1</title>
<g id="a_node1"><a xlink:title="Returns an Endpoint corresponding to the given absolute Shared_name, so that an Acceptor or Peer_sock...">
<polygon fill="#bfbfbf" stroke="black" points="188,-27.5 188,-62.5 319,-62.5 319,-27.5 188,-27.5"/>
<text text-anchor="start" x="196" y="-52.1" font-family="Helvetica,sans-Serif" font-size="8.00">ipc::transport::asio</text>
<text text-anchor="start" x="196" y="-43.1" font-family="Helvetica,sans-Serif" font-size="8.00">_local_stream_socket</text>
<text text-anchor="middle" x="253.5" y="-34.1" font-family="Helvetica,sans-Serif" font-size="8.00">::endpoint_at_shared_name</text>
</a>
</g>
</g>
<!-- Node1&#45;&gt;Node1 -->
<g id="edge2" class="edge">
<title>Node1&#45;&gt;Node1</title>
<path fill="none" stroke="midnightblue" d="M284.15,-73.1C279.85,-77.77 269.63,-81 253.5,-81 227.03,-81 216.49,-72.31 221.86,-62.78"/>
<polygon fill="midnightblue" stroke="midnightblue" points="287.67,-73.07 285.14,-62.78 280.7,-72.4 287.67,-73.07"/>
</g>
<!-- Node2 -->
<g id="node2" class="node">
<title>Node2</title>
<g id="a_node2"><a xlink:href="classipc_1_1transport_1_1sync__io_1_1Native__socket__stream_1_1Impl.html#ad6443fb49be059dbe76c75d86a18197e" target="_top" xlink:title="The core of sync_connect(), written in the sync_io&#45;pattern style.">
<polygon fill="white" stroke="black" points="14.5,-54.5 14.5,-89.5 137.5,-89.5 137.5,-54.5 14.5,-54.5"/>
<text text-anchor="start" x="22.5" y="-79.1" font-family="Helvetica,sans-Serif" font-size="8.00">ipc::transport::sync</text>
<text text-anchor="start" x="22.5" y="-70.1" font-family="Helvetica,sans-Serif" font-size="8.00">_io::Native_socket_stream</text>
<text text-anchor="middle" x="76" y="-61.1" font-family="Helvetica,sans-Serif" font-size="8.00">::Impl::async_connect</text>
</a>
</g>
</g>
<!-- Node1&#45;&gt;Node2 -->
<g id="edge1" class="edge">
<title>Node1&#45;&gt;Node2</title>
<path fill="none" stroke="midnightblue" d="M177.53,-56.53C164.17,-58.59 150.41,-60.71 137.51,-62.69"/>
<polygon fill="midnightblue" stroke="midnightblue" points="178.3,-59.96 187.65,-54.98 177.23,-53.04 178.3,-59.96"/>
</g>
<!-- Node3 -->
<g id="node3" class="node">
<title>Node3</title>
<g id="a_node3"><a xlink:href="classipc_1_1transport_1_1Native__socket__stream__acceptor.html#a77795acb028a95a4804f9b3ef18d99b0" target="_top" xlink:title="Creates the Native_socket_stream_acceptor and immediately begins listening in the background,...">
<polygon fill="white" stroke="black" points="0,-0.5 0,-35.5 152,-35.5 152,-0.5 0,-0.5"/>
<text text-anchor="start" x="8" y="-25.1" font-family="Helvetica,sans-Serif" font-size="8.00">ipc::transport::Native</text>
<text text-anchor="start" x="8" y="-16.1" font-family="Helvetica,sans-Serif" font-size="8.00">_socket_stream_acceptor</text>
<text text-anchor="middle" x="76" y="-7.1" font-family="Helvetica,sans-Serif" font-size="8.00">::Native_socket_stream_acceptor</text>
</a>
</g>
</g>
<!-- Node1&#45;&gt;Node3 -->
<g id="edge3" class="edge">
<title>Node1&#45;&gt;Node3</title>
<path fill="none" stroke="midnightblue" d="M177.54,-33.47C169.16,-32.18 160.63,-30.87 152.26,-29.58"/>
<polygon fill="midnightblue" stroke="midnightblue" points="177.23,-36.96 187.65,-35.02 178.3,-30.04 177.23,-36.96"/>
</g>
</g>
</svg>
