<?xml version="1.0" encoding="UTF-8" standalone="no"?>
<!DOCTYPE svg PUBLIC "-//W3C//DTD SVG 1.1//EN"
 "http://www.w3.org/Graphics/SVG/1.1/DTD/svg11.dtd">
<!-- Generated by graphviz version 2.43.0 (0)
 -->
<!-- Title: ipc::session::decompose_conventional_shared_name Pages: 1 -->
<svg width="303pt" height="62pt"
 viewBox="0.00 0.00 303.00 62.00" xmlns="http://www.w3.org/2000/svg" xmlns:xlink="http://www.w3.org/1999/xlink">
<g id="graph0" class="graph" transform="scale(1 1) rotate(0) translate(4 58)">
<title>ipc::session::decompose_conventional_shared_name</title>
<polygon fill="white" stroke="transparent" points="-4,4 -4,-58 299,-58 299,4 -4,4"/>
<!-- Node1 -->
<g id="node1" class="node">
<title>Node1</title>
<g id="a_node1"><a xlink:title="Decomposes a Shared_name built as&#45;if by build_conventional_shared_name() overload 2 (global&#45;scope); s...">
<polygon fill="#bfbfbf" stroke="black" points="0,-14 0,-40 133,-40 133,-14 0,-14"/>
<text text-anchor="start" x="8" y="-29.6" font-family="Helvetica,sans-Serif" font-size="8.00">ipc::session::decompose</text>
<text text-anchor="middle" x="66.5" y="-20.6" font-family="Helvetica,sans-Serif" font-size="8.00">_conventional_shared_name</text>
</a>
</g>
</g>
<!-- Node2 -->
<g id="node2" class="node">
<title>Node2</title>
<g id="a_node2"><a xlink:href="classipc_1_1util_1_1Shared__name.html#a48f20b7b54490aa10dc64081d34c55b2" target="_top" xlink:title="Copy&#45;constructs from a char&#45;sequence container (including string, util::String_view,...">
<polygon fill="white" stroke="black" points="170.5,-36.5 170.5,-53.5 293.5,-53.5 293.5,-36.5 170.5,-36.5"/>
<text text-anchor="middle" x="232" y="-43.1" font-family="Helvetica,sans-Serif" font-size="8.00">ipc::util::Shared_name::ct</text>
</a>
</g>
</g>
<!-- Node1&#45;&gt;Node2 -->
<g id="edge1" class="edge">
<title>Node1&#45;&gt;Node2</title>
<path fill="none" stroke="midnightblue" d="M133.06,-34.22C142.03,-35.21 151.28,-36.22 160.33,-37.22"/>
<polygon fill="midnightblue" stroke="midnightblue" points="160.14,-40.72 170.46,-38.33 160.9,-33.76 160.14,-40.72"/>
</g>
<!-- Node3 -->
<g id="node3" class="node">
<title>Node3</title>
<g id="a_node3"><a xlink:href="classipc_1_1util_1_1Shared__name.html#ae89e1e061f87ffe0288514e254837595" target="_top" xlink:title="Returns (sans copying) ref to immutable entire wrapped name string, suitable to pass into sys calls w...">
<polygon fill="white" stroke="black" points="169,-0.5 169,-17.5 295,-17.5 295,-0.5 169,-0.5"/>
<text text-anchor="middle" x="232" y="-7.1" font-family="Helvetica,sans-Serif" font-size="8.00">ipc::util::Shared_name::str</text>
</a>
</g>
</g>
<!-- Node1&#45;&gt;Node3 -->
<g id="edge2" class="edge">
<title>Node1&#45;&gt;Node3</title>
<path fill="none" stroke="midnightblue" d="M133.06,-19.78C141.55,-18.85 150.29,-17.89 158.88,-16.94"/>
<polygon fill="midnightblue" stroke="midnightblue" points="159.32,-20.41 168.88,-15.84 158.55,-13.45 159.32,-20.41"/>
</g>
</g>
</svg>
