<?xml version="1.0" encoding="UTF-8" standalone="no"?>
<!DOCTYPE svg PUBLIC "-//W3C//DTD SVG 1.1//EN"
 "http://www.w3.org/Graphics/SVG/1.1/DTD/svg11.dtd">
<!-- Generated by graphviz version 2.43.0 (0)
 -->
<!-- Title: ipc::session::ensure_resource_owner_is_app Pages: 1 -->
<svg width="265pt" height="58pt"
 viewBox="0.00 0.00 265.00 57.50" xmlns="http://www.w3.org/2000/svg" xmlns:xlink="http://www.w3.org/1999/xlink">
<g id="graph0" class="graph" transform="scale(1 1) rotate(0) translate(4 53.5)">
<title>ipc::session::ensure_resource_owner_is_app</title>
<polygon fill="white" stroke="transparent" points="-4,4 -4,-53.5 261,-53.5 261,4 -4,4"/>
<!-- Node1 -->
<g id="node1" class="node">
<title>Node1</title>
<g id="a_node1"><a xlink:title="Utility, used internally but exposed in public API in case it is of general use, that checks that the...">
<polygon fill="#bfbfbf" stroke="black" points="141,-5 141,-31 257,-31 257,-5 141,-5"/>
<text text-anchor="start" x="149" y="-20.6" font-family="Helvetica,sans-Serif" font-size="8.00">ipc::session::ensure</text>
<text text-anchor="middle" x="199" y="-11.6" font-family="Helvetica,sans-Serif" font-size="8.00">_resource_owner_is_app</text>
</a>
</g>
</g>
<!-- Node1&#45;&gt;Node1 -->
<g id="edge1" class="edge">
<title>Node1&#45;&gt;Node1</title>
<path fill="none" stroke="midnightblue" d="M225.28,-41.44C222.36,-46.14 213.6,-49.5 199,-49.5 175.05,-49.5 166.81,-40.46 174.3,-31.27"/>
<polygon fill="midnightblue" stroke="midnightblue" points="228.69,-40.62 223.7,-31.27 221.77,-41.69 228.69,-40.62"/>
</g>
<!-- Node2 -->
<g id="node2" class="node">
<title>Node2</title>
<g id="a_node2"><a xlink:href="classipc_1_1session_1_1Session__server__impl.html#a9bf4d5502b41c98a98fee4cc3c2f2530" target="_top" xlink:title="See Session_server ctor; it does that.">
<polygon fill="white" stroke="black" points="0,-0.5 0,-35.5 105,-35.5 105,-0.5 0,-0.5"/>
<text text-anchor="start" x="8" y="-25.1" font-family="Helvetica,sans-Serif" font-size="8.00">ipc::session::Session</text>
<text text-anchor="start" x="8" y="-16.1" font-family="Helvetica,sans-Serif" font-size="8.00">_server_impl::Session</text>
<text text-anchor="middle" x="52.5" y="-7.1" font-family="Helvetica,sans-Serif" font-size="8.00">_server_impl</text>
</a>
</g>
</g>
<!-- Node1&#45;&gt;Node2 -->
<g id="edge2" class="edge">
<title>Node1&#45;&gt;Node2</title>
<path fill="none" stroke="midnightblue" d="M130.8,-18C122.14,-18 113.39,-18 105.04,-18"/>
<polygon fill="midnightblue" stroke="midnightblue" points="130.89,-21.5 140.89,-18 130.89,-14.5 130.89,-21.5"/>
</g>
</g>
</svg>
