<?xml version="1.0" encoding="UTF-8" standalone="no"?>
<!DOCTYPE svg PUBLIC "-//W3C//DTD SVG 1.1//EN"
 "http://www.w3.org/Graphics/SVG/1.1/DTD/svg11.dtd">
<!-- Generated by graphviz version 2.43.0 (0)
 -->
<!-- Title: ipc::transport::struc::shm::capnp_get_shm_handle_to_borrow Pages: 1 -->
<svg width="296pt" height="44pt"
 viewBox="0.00 0.00 296.00 44.00" xmlns="http://www.w3.org/2000/svg" xmlns:xlink="http://www.w3.org/1999/xlink">
<g id="graph0" class="graph" transform="scale(1 1) rotate(0) translate(4 40)">
<title>ipc::transport::struc::shm::capnp_get_shm_handle_to_borrow</title>
<polygon fill="white" stroke="transparent" points="-4,4 -4,-40 292,-40 292,4 -4,4"/>
<!-- Node1 -->
<g id="node1" class="node">
<title>Node1</title>
<g id="a_node1"><a xlink:title="Utility that&#39;s the reverse of capnp_set_lent_shm_handle() to be invoked on the deserializing side.">
<polygon fill="#bfbfbf" stroke="black" points="178,-0.5 178,-35.5 288,-35.5 288,-0.5 178,-0.5"/>
<text text-anchor="start" x="186" y="-25.1" font-family="Helvetica,sans-Serif" font-size="8.00">ipc::transport::struc</text>
<text text-anchor="start" x="186" y="-16.1" font-family="Helvetica,sans-Serif" font-size="8.00">::shm::capnp_get_shm</text>
<text text-anchor="middle" x="233" y="-7.1" font-family="Helvetica,sans-Serif" font-size="8.00">_handle_to_borrow</text>
</a>
</g>
</g>
<!-- Node2 -->
<g id="node2" class="node">
<title>Node2</title>
<g id="a_node2"><a xlink:href="classipc_1_1transport_1_1struc_1_1shm_1_1Reader.html#aceb5816f4e9f312a8ce2ef17feb81223" target="_top" xlink:title="Implements concept API.">
<polygon fill="white" stroke="black" points="0,-5 0,-31 142,-31 142,-5 0,-5"/>
<text text-anchor="start" x="8" y="-20.6" font-family="Helvetica,sans-Serif" font-size="8.00">ipc::transport::struc</text>
<text text-anchor="middle" x="71" y="-11.6" font-family="Helvetica,sans-Serif" font-size="8.00">::shm::Reader::deserialization</text>
</a>
</g>
</g>
<!-- Node1&#45;&gt;Node2 -->
<g id="edge1" class="edge">
<title>Node1&#45;&gt;Node2</title>
<path fill="none" stroke="midnightblue" d="M167.75,-18C159.37,-18 150.75,-18 142.28,-18"/>
<polygon fill="midnightblue" stroke="midnightblue" points="167.83,-21.5 177.83,-18 167.83,-14.5 167.83,-21.5"/>
</g>
</g>
</svg>
