<?xml version="1.0" encoding="UTF-8" standalone="no"?>
<!DOCTYPE svg PUBLIC "-//W3C//DTD SVG 1.1//EN"
 "http://www.w3.org/Graphics/SVG/1.1/DTD/svg11.dtd">
<!-- Generated by graphviz version 2.43.0 (0)
 -->
<!-- Title: ipc::util::for_each_persistent_shm_pool Pages: 1 -->
<svg width="396pt" height="35pt"
 viewBox="0.00 0.00 396.00 35.00" xmlns="http://www.w3.org/2000/svg" xmlns:xlink="http://www.w3.org/1999/xlink">
<g id="graph0" class="graph" transform="scale(1 1) rotate(0) translate(4 31)">
<title>ipc::util::for_each_persistent_shm_pool</title>
<polygon fill="white" stroke="transparent" points="-4,4 -4,-31 392,-31 392,4 -4,4"/>
<!-- Node1 -->
<g id="node1" class="node">
<title>Node1</title>
<g id="a_node1"><a xlink:title="Equivalent to shm::classic::Pool_arena::for_each_persistent().">
<polygon fill="#bfbfbf" stroke="black" points="0,-0.5 0,-26.5 104,-26.5 104,-0.5 0,-0.5"/>
<text text-anchor="start" x="8" y="-16.1" font-family="Helvetica,sans-Serif" font-size="8.00">ipc::util::for_each</text>
<text text-anchor="middle" x="52" y="-7.1" font-family="Helvetica,sans-Serif" font-size="8.00">_persistent_shm_pool</text>
</a>
</g>
</g>
<!-- Node2 -->
<g id="node2" class="node">
<title>Node2</title>
<g id="a_node2"><a xlink:href="namespaceipc_1_1util.html#a49b39ceb74614b5f2d26dd86fd71bcb3" target="_top" xlink:title="Implementation of Persistent_object::for_each_persistent(); for example see shm::classic::Pool_arena:...">
<polygon fill="white" stroke="black" points="140,-0.5 140,-26.5 229,-26.5 229,-0.5 140,-0.5"/>
<text text-anchor="start" x="148" y="-16.1" font-family="Helvetica,sans-Serif" font-size="8.00">ipc::util::for_each</text>
<text text-anchor="middle" x="184.5" y="-7.1" font-family="Helvetica,sans-Serif" font-size="8.00">_persistent_impl</text>
</a>
</g>
</g>
<!-- Node1&#45;&gt;Node2 -->
<g id="edge1" class="edge">
<title>Node1&#45;&gt;Node2</title>
<path fill="none" stroke="midnightblue" d="M104.2,-13.5C112.53,-13.5 121.17,-13.5 129.56,-13.5"/>
<polygon fill="midnightblue" stroke="midnightblue" points="129.63,-17 139.63,-13.5 129.63,-10 129.63,-17"/>
</g>
<!-- Node3 -->
<g id="node3" class="node">
<title>Node3</title>
<g id="a_node3"><a xlink:href="classipc_1_1util_1_1Shared__name.html#a48f20b7b54490aa10dc64081d34c55b2" target="_top" xlink:title="Copy&#45;constructs from a char&#45;sequence container (including string, util::String_view,...">
<polygon fill="white" stroke="black" points="265,-5 265,-22 388,-22 388,-5 265,-5"/>
<text text-anchor="middle" x="326.5" y="-11.6" font-family="Helvetica,sans-Serif" font-size="8.00">ipc::util::Shared_name::ct</text>
</a>
</g>
</g>
<!-- Node2&#45;&gt;Node3 -->
<g id="edge2" class="edge">
<title>Node2&#45;&gt;Node3</title>
<path fill="none" stroke="midnightblue" d="M229.03,-13.5C237.16,-13.5 245.86,-13.5 254.57,-13.5"/>
<polygon fill="midnightblue" stroke="midnightblue" points="254.78,-17 264.78,-13.5 254.78,-10 254.78,-17"/>
</g>
</g>
</svg>
