<?xml version="1.0" encoding="UTF-8" standalone="no"?>
<!DOCTYPE svg PUBLIC "-//W3C//DTD SVG 1.1//EN"
 "http://www.w3.org/Graphics/SVG/1.1/DTD/svg11.dtd">
<!-- Generated by graphviz version 2.43.0 (0)
 -->
<!-- Title: ipc::transport::asio_local_stream_socket::endpoint_at_shared_name Pages: 1 -->
<svg width="301pt" height="73pt"
 viewBox="0.00 0.00 301.00 73.00" xmlns="http://www.w3.org/2000/svg" xmlns:xlink="http://www.w3.org/1999/xlink">
<g id="graph0" class="graph" transform="scale(1 1) rotate(0) translate(4 69)">
<title>ipc::transport::asio_local_stream_socket::endpoint_at_shared_name</title>
<polygon fill="white" stroke="transparent" points="-4,4 -4,-69 297,-69 297,4 -4,4"/>
<!-- Node1 -->
<g id="node1" class="node">
<title>Node1</title>
<g id="a_node1"><a xlink:title="Returns an Endpoint corresponding to the given absolute Shared_name, so that an Acceptor or Peer_sock...">
<polygon fill="#bfbfbf" stroke="black" points="0,-11.5 0,-46.5 131,-46.5 131,-11.5 0,-11.5"/>
<text text-anchor="start" x="8" y="-36.1" font-family="Helvetica,sans-Serif" font-size="8.00">ipc::transport::asio</text>
<text text-anchor="start" x="8" y="-27.1" font-family="Helvetica,sans-Serif" font-size="8.00">_local_stream_socket</text>
<text text-anchor="middle" x="65.5" y="-18.1" font-family="Helvetica,sans-Serif" font-size="8.00">::endpoint_at_shared_name</text>
</a>
</g>
</g>
<!-- Node1&#45;&gt;Node1 -->
<g id="edge1" class="edge">
<title>Node1&#45;&gt;Node1</title>
<path fill="none" stroke="midnightblue" d="M36.02,-46.78C31.01,-56.31 40.84,-65 65.5,-65 80.53,-65 90.05,-61.77 94.06,-57.1"/>
<polygon fill="midnightblue" stroke="midnightblue" points="97.58,-57.05 94.98,-46.78 90.61,-56.43 97.58,-57.05"/>
</g>
<!-- Node2 -->
<g id="node2" class="node">
<title>Node2</title>
<g id="a_node2"><a xlink:href="classipc_1_1util_1_1Shared__name.html#af34db2934e116f8a4fdd403fd04695af" target="_top" xlink:title="Returns str().size().">
<polygon fill="white" stroke="black" points="175,-37 175,-63 285,-63 285,-37 175,-37"/>
<text text-anchor="start" x="183" y="-52.6" font-family="Helvetica,sans-Serif" font-size="8.00">ipc::util::Shared_name</text>
<text text-anchor="middle" x="230" y="-43.6" font-family="Helvetica,sans-Serif" font-size="8.00">::size</text>
</a>
</g>
</g>
<!-- Node1&#45;&gt;Node2 -->
<g id="edge2" class="edge">
<title>Node1&#45;&gt;Node2</title>
<path fill="none" stroke="midnightblue" d="M131.19,-37.36C142.3,-38.8 153.85,-40.29 164.95,-41.72"/>
<polygon fill="midnightblue" stroke="midnightblue" points="164.62,-45.21 174.99,-43.02 165.52,-38.27 164.62,-45.21"/>
</g>
<!-- Node3 -->
<g id="node3" class="node">
<title>Node3</title>
<g id="a_node3"><a xlink:href="classipc_1_1util_1_1Shared__name.html#ae89e1e061f87ffe0288514e254837595" target="_top" xlink:title="Returns (sans copying) ref to immutable entire wrapped name string, suitable to pass into sys calls w...">
<polygon fill="white" stroke="black" points="167,-0.5 167,-17.5 293,-17.5 293,-0.5 167,-0.5"/>
<text text-anchor="middle" x="230" y="-7.1" font-family="Helvetica,sans-Serif" font-size="8.00">ipc::util::Shared_name::str</text>
</a>
</g>
</g>
<!-- Node1&#45;&gt;Node3 -->
<g id="edge3" class="edge">
<title>Node1&#45;&gt;Node3</title>
<path fill="none" stroke="midnightblue" d="M131.19,-21.04C139.65,-20 148.36,-18.92 156.94,-17.87"/>
<polygon fill="midnightblue" stroke="midnightblue" points="157.42,-21.34 166.91,-16.64 156.56,-14.39 157.42,-21.34"/>
</g>
</g>
</svg>
