<?xml version="1.0" encoding="UTF-8" standalone="no"?>
<!DOCTYPE svg PUBLIC "-//W3C//DTD SVG 1.1//EN"
 "http://www.w3.org/Graphics/SVG/1.1/DTD/svg11.dtd">
<!-- Generated by graphviz version 2.43.0 (0)
 -->
<!-- Title: ipc::transport::asio_local_stream_socket::on_wait_writable_or_error Pages: 1 -->
<svg width="450pt" height="67pt"
 viewBox="0.00 0.00 450.00 66.50" xmlns="http://www.w3.org/2000/svg" xmlns:xlink="http://www.w3.org/1999/xlink">
<g id="graph0" class="graph" transform="scale(1 1) rotate(0) translate(4 62.5)">
<title>ipc::transport::asio_local_stream_socket::on_wait_writable_or_error</title>
<polygon fill="white" stroke="transparent" points="-4,4 -4,-62.5 446,-62.5 446,4 -4,4"/>
<!-- Node1 -->
<g id="node1" class="node">
<title>Node1</title>
<g id="a_node1"><a xlink:title="Helper of async_write_with_native_handle() used as the callback executed when waiting for writability...">
<polygon fill="#bfbfbf" stroke="black" points="316,-5 316,-40 442,-40 442,-5 316,-5"/>
<text text-anchor="start" x="324" y="-29.6" font-family="Helvetica,sans-Serif" font-size="8.00">ipc::transport::asio</text>
<text text-anchor="start" x="324" y="-20.6" font-family="Helvetica,sans-Serif" font-size="8.00">_local_stream_socket</text>
<text text-anchor="middle" x="379" y="-11.6" font-family="Helvetica,sans-Serif" font-size="8.00">::on_wait_writable_or_error</text>
</a>
</g>
</g>
<!-- Node1&#45;&gt;Node1 -->
<g id="edge3" class="edge">
<title>Node1&#45;&gt;Node1</title>
<path fill="none" stroke="midnightblue" d="M406.52,-50.6C402.65,-55.27 393.48,-58.5 379,-58.5 355.24,-58.5 345.77,-49.81 350.6,-40.28"/>
<polygon fill="midnightblue" stroke="midnightblue" points="410.03,-50.54 407.4,-40.28 403.06,-49.95 410.03,-50.54"/>
</g>
<!-- Node2 -->
<g id="node2" class="node">
<title>Node2</title>
<g id="a_node2"><a xlink:href="namespaceipc_1_1transport_1_1asio__local__stream__socket.html#a68071e53f4a048084f8ad26ff3ac6711" target="_top" xlink:title="boost.asio extension similar to boost::asio::async_write(Peer_socket&amp;, Blob_const,...">
<polygon fill="white" stroke="black" points="159,-0.5 159,-44.5 280,-44.5 280,-0.5 159,-0.5"/>
<text text-anchor="start" x="167" y="-34.1" font-family="Helvetica,sans-Serif" font-size="8.00">ipc::transport::asio</text>
<text text-anchor="start" x="167" y="-25.1" font-family="Helvetica,sans-Serif" font-size="8.00">_local_stream_socket</text>
<text text-anchor="start" x="167" y="-16.1" font-family="Helvetica,sans-Serif" font-size="8.00">::async_write_with_native</text>
<text text-anchor="middle" x="219.5" y="-7.1" font-family="Helvetica,sans-Serif" font-size="8.00">_handle</text>
</a>
</g>
</g>
<!-- Node1&#45;&gt;Node2 -->
<g id="edge1" class="edge">
<title>Node1&#45;&gt;Node2</title>
<path fill="none" stroke="midnightblue" d="M305.51,-22.5C297.05,-22.5 288.5,-22.5 280.24,-22.5"/>
<polygon fill="midnightblue" stroke="midnightblue" points="305.75,-26 315.75,-22.5 305.75,-19 305.75,-26"/>
</g>
<!-- Node3 -->
<g id="node3" class="node">
<title>Node3</title>
<g id="a_node3"><a xlink:href="classipc_1_1transport_1_1sync__io_1_1Native__socket__stream_1_1Impl.html#a88ee235dd3a607a64d96cfba4f924782" target="_top" xlink:title="Initiates async&#45;write over m_peer_socket of the low&#45;level payload at the head of out&#45;queue m_snd_pend...">
<polygon fill="white" stroke="black" points="0,-0.5 0,-44.5 123,-44.5 123,-0.5 0,-0.5"/>
<text text-anchor="start" x="8" y="-34.1" font-family="Helvetica,sans-Serif" font-size="8.00">ipc::transport::sync</text>
<text text-anchor="start" x="8" y="-25.1" font-family="Helvetica,sans-Serif" font-size="8.00">_io::Native_socket_stream</text>
<text text-anchor="start" x="8" y="-16.1" font-family="Helvetica,sans-Serif" font-size="8.00">::Impl::snd_async_write</text>
<text text-anchor="middle" x="61.5" y="-7.1" font-family="Helvetica,sans-Serif" font-size="8.00">_q_head_payload</text>
</a>
</g>
</g>
<!-- Node2&#45;&gt;Node3 -->
<g id="edge2" class="edge">
<title>Node2&#45;&gt;Node3</title>
<path fill="none" stroke="midnightblue" d="M148.46,-22.5C140.04,-22.5 131.51,-22.5 123.24,-22.5"/>
<polygon fill="midnightblue" stroke="midnightblue" points="148.63,-26 158.63,-22.5 148.63,-19 148.63,-26"/>
</g>
</g>
</svg>
