<?xml version="1.0" encoding="UTF-8" standalone="no"?>
<!DOCTYPE svg PUBLIC "-//W3C//DTD SVG 1.1//EN"
 "http://www.w3.org/Graphics/SVG/1.1/DTD/svg11.dtd">
<!-- Generated by graphviz version 2.43.0 (0)
 -->
<!-- Title: ipc::util::build_conventional_non_session_based_shared_name Pages: 1 -->
<svg width="314pt" height="35pt"
 viewBox="0.00 0.00 314.00 35.00" xmlns="http://www.w3.org/2000/svg" xmlns:xlink="http://www.w3.org/1999/xlink">
<g id="graph0" class="graph" transform="scale(1 1) rotate(0) translate(4 31)">
<title>ipc::util::build_conventional_non_session_based_shared_name</title>
<polygon fill="white" stroke="transparent" points="-4,4 -4,-31 310,-31 310,4 -4,4"/>
<!-- Node1 -->
<g id="node1" class="node">
<title>Node1</title>
<g id="a_node1"><a xlink:title="Builds an absolute name according to the path convention explained in Shared_name class doc header; t...">
<polygon fill="#bfbfbf" stroke="black" points="0,-0.5 0,-26.5 160,-26.5 160,-0.5 0,-0.5"/>
<text text-anchor="start" x="8" y="-16.1" font-family="Helvetica,sans-Serif" font-size="8.00">ipc::util::build_conventional</text>
<text text-anchor="middle" x="80" y="-7.1" font-family="Helvetica,sans-Serif" font-size="8.00">_non_session_based_shared_name</text>
</a>
</g>
</g>
<!-- Node2 -->
<g id="node2" class="node">
<title>Node2</title>
<g id="a_node2"><a xlink:href="classipc_1_1util_1_1Shared__name.html#a861ea6c9ad6672e83bab5c7747b66f7b" target="_top" xlink:title="Returns true if and only if str().empty() == true.">
<polygon fill="white" stroke="black" points="196,-0.5 196,-26.5 306,-26.5 306,-0.5 196,-0.5"/>
<text text-anchor="start" x="204" y="-16.1" font-family="Helvetica,sans-Serif" font-size="8.00">ipc::util::Shared_name</text>
<text text-anchor="middle" x="251" y="-7.1" font-family="Helvetica,sans-Serif" font-size="8.00">::empty</text>
</a>
</g>
</g>
<!-- Node1&#45;&gt;Node2 -->
<g id="edge1" class="edge">
<title>Node1&#45;&gt;Node2</title>
<path fill="none" stroke="midnightblue" d="M160.06,-13.5C168.61,-13.5 177.23,-13.5 185.58,-13.5"/>
<polygon fill="midnightblue" stroke="midnightblue" points="185.6,-17 195.6,-13.5 185.6,-10 185.6,-17"/>
</g>
</g>
</svg>
