<?xml version="1.0" encoding="UTF-8" standalone="no"?>
<!DOCTYPE svg PUBLIC "-//W3C//DTD SVG 1.1//EN"
 "http://www.w3.org/Graphics/SVG/1.1/DTD/svg11.dtd">
<!-- Generated by graphviz version 2.43.0 (0)
 -->
<!-- Title: ipc::util::build_conventional_non_session_based_shared_name Pages: 1 -->
<svg width="314pt" height="44pt"
 viewBox="0.00 0.00 314.00 44.00" xmlns="http://www.w3.org/2000/svg" xmlns:xlink="http://www.w3.org/1999/xlink">
<g id="graph0" class="graph" transform="scale(1 1) rotate(0) translate(4 40)">
<title>ipc::util::build_conventional_non_session_based_shared_name</title>
<polygon fill="white" stroke="transparent" points="-4,4 -4,-40 310,-40 310,4 -4,4"/>
<!-- Node1 -->
<g id="node1" class="node">
<title>Node1</title>
<g id="a_node1"><a xlink:title="Builds an absolute name according to the path convention explained in Shared_name class doc header; t...">
<polygon fill="#bfbfbf" stroke="black" points="146,-5 146,-31 306,-31 306,-5 146,-5"/>
<text text-anchor="start" x="154" y="-20.6" font-family="Helvetica,sans-Serif" font-size="8.00">ipc::util::build_conventional</text>
<text text-anchor="middle" x="226" y="-11.6" font-family="Helvetica,sans-Serif" font-size="8.00">_non_session_based_shared_name</text>
</a>
</g>
</g>
<!-- Node2 -->
<g id="node2" class="node">
<title>Node2</title>
<g id="a_node2"><a xlink:href="classipc_1_1transport_1_1Blob__stream__mq__base__impl.html#ad64ef04f561dcb09e473be433df81074" target="_top" xlink:title="Name of sentinel SHM pool created by ensure_unique_peer() and potentially cleaned up by remove_persis...">
<polygon fill="white" stroke="black" points="0,-0.5 0,-35.5 110,-35.5 110,-0.5 0,-0.5"/>
<text text-anchor="start" x="8" y="-25.1" font-family="Helvetica,sans-Serif" font-size="8.00">ipc::transport::Blob</text>
<text text-anchor="start" x="8" y="-16.1" font-family="Helvetica,sans-Serif" font-size="8.00">_stream_mq_base_impl</text>
<text text-anchor="middle" x="55" y="-7.1" font-family="Helvetica,sans-Serif" font-size="8.00">::mq_sentinel_name</text>
</a>
</g>
</g>
<!-- Node1&#45;&gt;Node2 -->
<g id="edge1" class="edge">
<title>Node1&#45;&gt;Node2</title>
<path fill="none" stroke="midnightblue" d="M135.78,-18C127.13,-18 118.55,-18 110.4,-18"/>
<polygon fill="midnightblue" stroke="midnightblue" points="135.94,-21.5 145.94,-18 135.94,-14.5 135.94,-21.5"/>
</g>
</g>
</svg>
