<?xml version="1.0" encoding="UTF-8" standalone="no"?>
<!DOCTYPE svg PUBLIC "-//W3C//DTD SVG 1.1//EN"
 "http://www.w3.org/Graphics/SVG/1.1/DTD/svg11.dtd">
<!-- Generated by graphviz version 2.43.0 (0)
 -->
<!-- Title: ipc::session::ensure_resource_owner_is_app Pages: 1 -->
<svg width="276pt" height="98pt"
 viewBox="0.00 0.00 276.00 98.00" xmlns="http://www.w3.org/2000/svg" xmlns:xlink="http://www.w3.org/1999/xlink">
<g id="graph0" class="graph" transform="scale(1 1) rotate(0) translate(4 94)">
<title>ipc::session::ensure_resource_owner_is_app</title>
<polygon fill="white" stroke="transparent" points="-4,4 -4,-94 272,-94 272,4 -4,4"/>
<!-- Node1 -->
<g id="node1" class="node">
<title>Node1</title>
<g id="a_node1"><a xlink:title="Identical to the other ensure_resource_owner_is_app() overload but operates on a pre&#45;opened Native_ha...">
<polygon fill="#bfbfbf" stroke="black" points="0,-22.5 0,-48.5 116,-48.5 116,-22.5 0,-22.5"/>
<text text-anchor="start" x="8" y="-38.1" font-family="Helvetica,sans-Serif" font-size="8.00">ipc::session::ensure</text>
<text text-anchor="middle" x="58" y="-29.1" font-family="Helvetica,sans-Serif" font-size="8.00">_resource_owner_is_app</text>
</a>
</g>
</g>
<!-- Node2 -->
<g id="node2" class="node">
<title>Node2</title>
<g id="a_node2"><a xlink:href="namespaceipc_1_1session.html#a0eac87b284d50832334d819a8877cbaa" target="_top" xlink:title="Utility, used internally but exposed in public API in case it is of general use, that checks that the...">
<polygon fill="white" stroke="black" points="152,-45.5 152,-71.5 268,-71.5 268,-45.5 152,-45.5"/>
<text text-anchor="start" x="160" y="-61.1" font-family="Helvetica,sans-Serif" font-size="8.00">ipc::session::ensure</text>
<text text-anchor="middle" x="210" y="-52.1" font-family="Helvetica,sans-Serif" font-size="8.00">_resource_owner_is_app</text>
</a>
</g>
</g>
<!-- Node1&#45;&gt;Node2 -->
<g id="edge1" class="edge">
<title>Node1&#45;&gt;Node2</title>
<path fill="none" stroke="midnightblue" d="M116.14,-44.26C124.47,-45.54 133.11,-46.86 141.62,-48.17"/>
<polygon fill="midnightblue" stroke="midnightblue" points="141.11,-51.63 151.53,-49.69 142.17,-44.71 141.11,-51.63"/>
</g>
<!-- Node3 -->
<g id="node3" class="node">
<title>Node3</title>
<g id="a_node3"><a xlink:href="structipc_1_1util_1_1Native__handle.html#a11bd62ce0a7bef4bdfe666201c26d4dc" target="_top" xlink:title="Returns true if and only if m_native_handle equals S_NULL_HANDLE.">
<polygon fill="white" stroke="black" points="154,-0.5 154,-26.5 266,-26.5 266,-0.5 154,-0.5"/>
<text text-anchor="start" x="162" y="-16.1" font-family="Helvetica,sans-Serif" font-size="8.00">ipc::util::Native_handle</text>
<text text-anchor="middle" x="210" y="-7.1" font-family="Helvetica,sans-Serif" font-size="8.00">::null</text>
</a>
</g>
</g>
<!-- Node1&#45;&gt;Node3 -->
<g id="edge3" class="edge">
<title>Node1&#45;&gt;Node3</title>
<path fill="none" stroke="midnightblue" d="M116.14,-27.12C125.04,-25.81 134.3,-24.46 143.37,-23.13"/>
<polygon fill="midnightblue" stroke="midnightblue" points="144.12,-26.55 153.51,-21.64 143.11,-19.63 144.12,-26.55"/>
</g>
<!-- Node2&#45;&gt;Node2 -->
<g id="edge2" class="edge">
<title>Node2&#45;&gt;Node2</title>
<path fill="none" stroke="midnightblue" d="M184.28,-71.77C176.49,-80.96 185.06,-90 210,-90 225.2,-90 234.32,-86.64 237.36,-81.94"/>
<polygon fill="midnightblue" stroke="midnightblue" points="240.77,-81.09 235.72,-71.77 233.85,-82.2 240.77,-81.09"/>
</g>
</g>
</svg>
