<?xml version="1.0" encoding="UTF-8" standalone="no"?>
<!DOCTYPE svg PUBLIC "-//W3C//DTD SVG 1.1//EN"
 "http://www.w3.org/Graphics/SVG/1.1/DTD/svg11.dtd">
<!-- Generated by graphviz version 2.43.0 (0)
 -->
<!-- Title: ipc::transport::asio_local_stream_socket::on_wait_writable_or_error Pages: 1 -->
<svg width="304pt" height="108pt"
 viewBox="0.00 0.00 304.00 107.50" xmlns="http://www.w3.org/2000/svg" xmlns:xlink="http://www.w3.org/1999/xlink">
<g id="graph0" class="graph" transform="scale(1 1) rotate(0) translate(4 103.5)">
<title>ipc::transport::asio_local_stream_socket::on_wait_writable_or_error</title>
<polygon fill="white" stroke="transparent" points="-4,4 -4,-103.5 300,-103.5 300,4 -4,4"/>
<!-- Node1 -->
<g id="node1" class="node">
<title>Node1</title>
<g id="a_node1"><a xlink:title="Helper of async_write_with_native_handle() used as the callback executed when waiting for writability...">
<polygon fill="#bfbfbf" stroke="black" points="0,-39 0,-74 126,-74 126,-39 0,-39"/>
<text text-anchor="start" x="8" y="-63.6" font-family="Helvetica,sans-Serif" font-size="8.00">ipc::transport::asio</text>
<text text-anchor="start" x="8" y="-54.6" font-family="Helvetica,sans-Serif" font-size="8.00">_local_stream_socket</text>
<text text-anchor="middle" x="63" y="-45.6" font-family="Helvetica,sans-Serif" font-size="8.00">::on_wait_writable_or_error</text>
</a>
</g>
</g>
<!-- Node1&#45;&gt;Node1 -->
<g id="edge4" class="edge">
<title>Node1&#45;&gt;Node1</title>
<path fill="none" stroke="midnightblue" d="M33.16,-74.28C28.09,-83.81 38.04,-92.5 63,-92.5 78.21,-92.5 87.85,-89.27 91.91,-84.6"/>
<polygon fill="midnightblue" stroke="midnightblue" points="95.43,-84.56 92.84,-74.28 88.46,-83.93 95.43,-84.56"/>
</g>
<!-- Node2 -->
<g id="node2" class="node">
<title>Node2</title>
<g id="a_node2"><a xlink:href="namespaceipc_1_1util.html#a2bb38cee29dacbe56de5182221b45941" target="_top" xlink:title="Syntactic&#45;sugary helper that returns pointer to first byte in an immutable buffer,...">
<polygon fill="white" stroke="black" points="182,-82 182,-99 276,-99 276,-82 182,-82"/>
<text text-anchor="middle" x="229" y="-88.6" font-family="Helvetica,sans-Serif" font-size="8.00">ipc::util::blob_data</text>
</a>
</g>
</g>
<!-- Node1&#45;&gt;Node2 -->
<g id="edge1" class="edge">
<title>Node1&#45;&gt;Node2</title>
<path fill="none" stroke="midnightblue" d="M126,-69.35C142.67,-72.81 160.51,-76.51 176.54,-79.83"/>
<polygon fill="midnightblue" stroke="midnightblue" points="176.27,-83.35 186.77,-81.95 177.69,-76.5 176.27,-83.35"/>
</g>
<!-- Node3 -->
<g id="node3" class="node">
<title>Node3</title>
<g id="a_node3"><a xlink:href="namespaceipc_1_1transport_1_1asio__local__stream__socket.html#a1022dfd42e9a0d6eab8384b0352decb0" target="_top" xlink:title="boost.asio extension similar to peer_socket&#45;&gt;non_blocking(true); auto n = peer_socket&#45;&gt;write_some(pay...">
<polygon fill="white" stroke="black" points="162,-0.5 162,-44.5 296,-44.5 296,-0.5 162,-0.5"/>
<text text-anchor="start" x="170" y="-34.1" font-family="Helvetica,sans-Serif" font-size="8.00">ipc::transport::asio</text>
<text text-anchor="start" x="170" y="-25.1" font-family="Helvetica,sans-Serif" font-size="8.00">_local_stream_socket</text>
<text text-anchor="start" x="170" y="-16.1" font-family="Helvetica,sans-Serif" font-size="8.00">::nb_write_some_with_native</text>
<text text-anchor="middle" x="229" y="-7.1" font-family="Helvetica,sans-Serif" font-size="8.00">_handle</text>
</a>
</g>
</g>
<!-- Node1&#45;&gt;Node3 -->
<g id="edge2" class="edge">
<title>Node1&#45;&gt;Node3</title>
<path fill="none" stroke="midnightblue" d="M126,-43.65C134.41,-41.9 143.12,-40.1 151.74,-38.31"/>
<polygon fill="midnightblue" stroke="midnightblue" points="152.73,-41.68 161.81,-36.22 151.3,-34.83 152.73,-41.68"/>
</g>
<!-- Node3&#45;&gt;Node3 -->
<g id="edge3" class="edge">
<title>Node3&#45;&gt;Node3</title>
<path fill="none" stroke="midnightblue" d="M198.36,-44.58C195.44,-54.46 205.66,-63 229,-63 243.59,-63 253.05,-59.66 257.38,-54.75"/>
<polygon fill="midnightblue" stroke="midnightblue" points="260.89,-55.1 259.64,-44.58 254.06,-53.58 260.89,-55.1"/>
</g>
</g>
</svg>
