<?xml version="1.0" encoding="UTF-8" standalone="no"?>
<!DOCTYPE svg PUBLIC "-//W3C//DTD SVG 1.1//EN"
 "http://www.w3.org/Graphics/SVG/1.1/DTD/svg11.dtd">
<!-- Generated by graphviz version 2.43.0 (0)
 -->
<!-- Title: ipc::util::op_with_possible_bipc_exception Pages: 1 -->
<svg width="276pt" height="144pt"
 viewBox="0.00 0.00 276.00 144.00" xmlns="http://www.w3.org/2000/svg" xmlns:xlink="http://www.w3.org/1999/xlink">
<g id="graph0" class="graph" transform="scale(1 1) rotate(0) translate(4 140)">
<title>ipc::util::op_with_possible_bipc_exception</title>
<polygon fill="white" stroke="transparent" points="-4,4 -4,-140 272,-140 272,4 -4,4"/>
<!-- Node1 -->
<g id="node1" class="node">
<title>Node1</title>
<g id="a_node1"><a xlink:title="Internal (to ipc) utility that invokes the given function that invokes a boost.interprocess operation...">
<polygon fill="#bfbfbf" stroke="black" points="149,-55 149,-81 268,-81 268,-55 149,-55"/>
<text text-anchor="start" x="157" y="-70.6" font-family="Helvetica,sans-Serif" font-size="8.00">ipc::util::op_with</text>
<text text-anchor="middle" x="208.5" y="-61.6" font-family="Helvetica,sans-Serif" font-size="8.00">_possible_bipc_exception</text>
</a>
</g>
</g>
<!-- Node1&#45;&gt;Node1 -->
<g id="edge2" class="edge">
<title>Node1&#45;&gt;Node1</title>
<path fill="none" stroke="midnightblue" d="M235.86,-91.44C232.82,-96.14 223.7,-99.5 208.5,-99.5 183.56,-99.5 174.99,-90.46 182.78,-81.27"/>
<polygon fill="midnightblue" stroke="midnightblue" points="239.27,-90.59 234.22,-81.27 232.35,-91.7 239.27,-90.59"/>
</g>
<!-- Node2 -->
<g id="node2" class="node">
<title>Node2</title>
<g id="a_node2"><a xlink:href="classipc_1_1session_1_1Client__session__impl.html#adebedf1cbe09067a8f785a524e146b2f" target="_top" xlink:title="See Client_session_mv counterpart.">
<polygon fill="white" stroke="black" points="5,-100.5 5,-135.5 108,-135.5 108,-100.5 5,-100.5"/>
<text text-anchor="start" x="13" y="-125.1" font-family="Helvetica,sans-Serif" font-size="8.00">ipc::session::Client</text>
<text text-anchor="start" x="13" y="-116.1" font-family="Helvetica,sans-Serif" font-size="8.00">_session_impl::async</text>
<text text-anchor="middle" x="56.5" y="-107.1" font-family="Helvetica,sans-Serif" font-size="8.00">_connect</text>
</a>
</g>
</g>
<!-- Node1&#45;&gt;Node2 -->
<g id="edge1" class="edge">
<title>Node1&#45;&gt;Node2</title>
<path fill="none" stroke="midnightblue" d="M158.69,-84.27C142.52,-89.66 124.5,-95.67 108.2,-101.1"/>
<polygon fill="midnightblue" stroke="midnightblue" points="160.1,-87.49 168.48,-81.01 157.89,-80.85 160.1,-87.49"/>
</g>
<!-- Node3 -->
<g id="node3" class="node">
<title>Node3</title>
<g id="a_node3"><a xlink:href="classipc_1_1shm_1_1classic_1_1Pool__arena.html#ac6e915353952b74b4c4aa38dc95f8c51" target="_top" xlink:title="Helper ctor delegated by the 2 public ctors that take Open_or_create or Create_only mode.">
<polygon fill="white" stroke="black" points="0,-55 0,-81 113,-81 113,-55 0,-55"/>
<text text-anchor="start" x="8" y="-70.6" font-family="Helvetica,sans-Serif" font-size="8.00">ipc::shm::classic::</text>
<text text-anchor="middle" x="56.5" y="-61.6" font-family="Helvetica,sans-Serif" font-size="8.00">Pool_arena::Pool_arena</text>
</a>
</g>
</g>
<!-- Node1&#45;&gt;Node3 -->
<g id="edge3" class="edge">
<title>Node1&#45;&gt;Node3</title>
<path fill="none" stroke="midnightblue" d="M138.43,-68C129.99,-68 121.45,-68 113.24,-68"/>
<polygon fill="midnightblue" stroke="midnightblue" points="138.65,-71.5 148.65,-68 138.65,-64.5 138.65,-71.5"/>
</g>
<!-- Node4 -->
<g id="node4" class="node">
<title>Node4</title>
<g id="a_node4"><a xlink:href="classipc_1_1session_1_1Session__server__impl.html#a9bf4d5502b41c98a98fee4cc3c2f2530" target="_top" xlink:title="See Session_server ctor; it does that.">
<polygon fill="white" stroke="black" points="4,-0.5 4,-35.5 109,-35.5 109,-0.5 4,-0.5"/>
<text text-anchor="start" x="12" y="-25.1" font-family="Helvetica,sans-Serif" font-size="8.00">ipc::session::Session</text>
<text text-anchor="start" x="12" y="-16.1" font-family="Helvetica,sans-Serif" font-size="8.00">_server_impl::Session</text>
<text text-anchor="middle" x="56.5" y="-7.1" font-family="Helvetica,sans-Serif" font-size="8.00">_server_impl</text>
</a>
</g>
</g>
<!-- Node1&#45;&gt;Node4 -->
<g id="edge4" class="edge">
<title>Node1&#45;&gt;Node4</title>
<path fill="none" stroke="midnightblue" d="M158.83,-51.78C142.91,-46.47 125.17,-40.56 109.04,-35.18"/>
<polygon fill="midnightblue" stroke="midnightblue" points="157.89,-55.15 168.48,-54.99 160.1,-48.51 157.89,-55.15"/>
</g>
</g>
</svg>
