<?xml version="1.0" encoding="UTF-8" standalone="no"?>
<!DOCTYPE svg PUBLIC "-//W3C//DTD SVG 1.1//EN"
 "http://www.w3.org/Graphics/SVG/1.1/DTD/svg11.dtd">
<!-- Generated by graphviz version 2.43.0 (0)
 -->
<!-- Title: ipc::util::pipe_produce Pages: 1 -->
<svg width="290pt" height="423pt"
 viewBox="0.00 0.00 290.00 423.00" xmlns="http://www.w3.org/2000/svg" xmlns:xlink="http://www.w3.org/1999/xlink">
<g id="graph0" class="graph" transform="scale(1 1) rotate(0) translate(4 419)">
<title>ipc::util::pipe_produce</title>
<polygon fill="white" stroke="transparent" points="-4,4 -4,-419 286,-419 286,4 -4,4"/>
<!-- Node1 -->
<g id="node1" class="node">
<title>Node1</title>
<g id="a_node1"><a xlink:title="Writes a byte to the given pipe writer.">
<polygon fill="#bfbfbf" stroke="black" points="173,-196.5 173,-213.5 282,-213.5 282,-196.5 173,-196.5"/>
<text text-anchor="middle" x="227.5" y="-203.1" font-family="Helvetica,sans-Serif" font-size="8.00">ipc::util::pipe_produce</text>
</a>
</g>
</g>
<!-- Node2 -->
<g id="node2" class="node">
<title>Node2</title>
<g id="a_node2"><a xlink:href="classipc_1_1session_1_1sync__io_1_1Session__server__adapter.html#a9bdfe592c152cf050994dc95f59f8337" target="_top" xlink:title="The real handler given for on_done_func to Session_server_obj::async_accept(): it records the result ...">
<polygon fill="white" stroke="black" points="13.5,-379.5 13.5,-414.5 123.5,-414.5 123.5,-379.5 13.5,-379.5"/>
<text text-anchor="start" x="21.5" y="-404.1" font-family="Helvetica,sans-Serif" font-size="8.00">ipc::session::sync</text>
<text text-anchor="start" x="21.5" y="-395.1" font-family="Helvetica,sans-Serif" font-size="8.00">_io::Session_server</text>
<text text-anchor="middle" x="68.5" y="-386.1" font-family="Helvetica,sans-Serif" font-size="8.00">_adapter::accept_write</text>
</a>
</g>
</g>
<!-- Node1&#45;&gt;Node2 -->
<g id="edge1" class="edge">
<title>Node1&#45;&gt;Node2</title>
<path fill="none" stroke="midnightblue" d="M221.02,-223.79C210.28,-257.54 183.37,-328.74 137,-370 132.95,-373.61 128.35,-376.77 123.51,-379.52"/>
<polygon fill="midnightblue" stroke="midnightblue" points="224.48,-224.46 224.05,-213.88 217.78,-222.42 224.48,-224.46"/>
</g>
<!-- Node3 -->
<g id="node3" class="node">
<title>Node3</title>
<g id="a_node3"><a xlink:href="classipc_1_1transport_1_1sync__io_1_1Native__socket__stream__acceptor.html#ade5271c427a9ed514555482cc2509ed9" target="_top" xlink:title="Starts background attempt at a peer connection being established, contingent on the user reporting (v...">
<polygon fill="white" stroke="black" points="7,-325.5 7,-360.5 130,-360.5 130,-325.5 7,-325.5"/>
<text text-anchor="start" x="15" y="-350.1" font-family="Helvetica,sans-Serif" font-size="8.00">ipc::transport::sync</text>
<text text-anchor="start" x="15" y="-341.1" font-family="Helvetica,sans-Serif" font-size="8.00">_io::Native_socket_stream</text>
<text text-anchor="middle" x="68.5" y="-332.1" font-family="Helvetica,sans-Serif" font-size="8.00">_acceptor::async_accept</text>
</a>
</g>
</g>
<!-- Node1&#45;&gt;Node3 -->
<g id="edge2" class="edge">
<title>Node1&#45;&gt;Node3</title>
<path fill="none" stroke="midnightblue" d="M216.39,-222.53C201.71,-246.6 172.35,-289.88 137,-316 132.23,-319.53 126.93,-322.67 121.47,-325.45"/>
<polygon fill="midnightblue" stroke="midnightblue" points="219.5,-224.15 221.6,-213.77 213.48,-220.57 219.5,-224.15"/>
</g>
<!-- Node4 -->
<g id="node4" class="node">
<title>Node4</title>
<g id="a_node4"><a xlink:href="classipc_1_1transport_1_1sync__io_1_1Blob__stream__mq__sender__impl.html#a57737a56544ffac3cfd8d130663bb6ce" target="_top" xlink:title="Initiates async&#45;write over m_mq of the low&#45;level payload at the head of out&#45;queue m_pending_payloads_...">
<polygon fill="white" stroke="black" points="2,-262 2,-306 135,-306 135,-262 2,-262"/>
<text text-anchor="start" x="10" y="-295.6" font-family="Helvetica,sans-Serif" font-size="8.00">ipc::transport::sync</text>
<text text-anchor="start" x="10" y="-286.6" font-family="Helvetica,sans-Serif" font-size="8.00">_io::Blob_stream_mq_sender</text>
<text text-anchor="start" x="10" y="-277.6" font-family="Helvetica,sans-Serif" font-size="8.00">_impl::async_write_q_head</text>
<text text-anchor="middle" x="68.5" y="-268.6" font-family="Helvetica,sans-Serif" font-size="8.00">_payload</text>
</a>
</g>
</g>
<!-- Node1&#45;&gt;Node4 -->
<g id="edge3" class="edge">
<title>Node1&#45;&gt;Node4</title>
<path fill="none" stroke="midnightblue" d="M201.99,-218.68C184.12,-228.51 159.25,-241.94 137,-253 131.11,-255.93 124.89,-258.92 118.7,-261.83"/>
<polygon fill="midnightblue" stroke="midnightblue" points="204.07,-221.52 211.13,-213.62 200.68,-215.39 204.07,-221.52"/>
</g>
<!-- Node5 -->
<g id="node5" class="node">
<title>Node5</title>
<g id="a_node5"><a xlink:href="classipc_1_1transport_1_1Posix__mq__handle.html#a98884af2e485268f92b3f5f7c1069291" target="_top" xlink:title="Impl body for interrupt_*().">
<polygon fill="white" stroke="black" points="4.5,-217 4.5,-243 132.5,-243 132.5,-217 4.5,-217"/>
<text text-anchor="start" x="12.5" y="-232.6" font-family="Helvetica,sans-Serif" font-size="8.00">ipc::transport::Posix</text>
<text text-anchor="middle" x="68.5" y="-223.6" font-family="Helvetica,sans-Serif" font-size="8.00">_mq_handle::interrupt_impl</text>
</a>
</g>
</g>
<!-- Node1&#45;&gt;Node5 -->
<g id="edge4" class="edge">
<title>Node1&#45;&gt;Node5</title>
<path fill="none" stroke="midnightblue" d="M163.02,-215.11C152.99,-216.71 142.62,-218.36 132.6,-219.95"/>
<polygon fill="midnightblue" stroke="midnightblue" points="163.58,-218.56 172.91,-213.53 162.48,-211.65 163.58,-218.56"/>
</g>
<!-- Node6 -->
<g id="node6" class="node">
<title>Node6</title>
<g id="a_node6"><a xlink:href="classipc_1_1session_1_1sync__io_1_1Session__adapter.html#a527ef097783127e73184258166a891a3" target="_top" xlink:title="Returns the proper on&#45;passive&#45;channel&#45;open handler to set up on the underlying Session_obj (Client_se...">
<polygon fill="white" stroke="black" points="15,-162.5 15,-197.5 122,-197.5 122,-162.5 15,-162.5"/>
<text text-anchor="start" x="23" y="-187.1" font-family="Helvetica,sans-Serif" font-size="8.00">ipc::session::sync</text>
<text text-anchor="start" x="23" y="-178.1" font-family="Helvetica,sans-Serif" font-size="8.00">_io::Session_adapter</text>
<text text-anchor="middle" x="68.5" y="-169.1" font-family="Helvetica,sans-Serif" font-size="8.00">::on_channel_func_sio</text>
</a>
</g>
</g>
<!-- Node1&#45;&gt;Node6 -->
<g id="edge5" class="edge">
<title>Node1&#45;&gt;Node6</title>
<path fill="none" stroke="midnightblue" d="M162.72,-194.84C149.21,-192.69 135.09,-190.44 122.05,-188.37"/>
<polygon fill="midnightblue" stroke="midnightblue" points="162.48,-198.35 172.91,-196.47 163.58,-191.44 162.48,-198.35"/>
</g>
<!-- Node7 -->
<g id="node7" class="node">
<title>Node7</title>
<g id="a_node7"><a xlink:href="classipc_1_1session_1_1sync__io_1_1Session__adapter.html#a5bbcf8b33bc02ccb371449692d09e642" target="_top" xlink:title="Returns the proper on&#45;error handler to set up on the underlying Session_obj (Client_session: via ctor...">
<polygon fill="white" stroke="black" points="17.5,-108.5 17.5,-143.5 119.5,-143.5 119.5,-108.5 17.5,-108.5"/>
<text text-anchor="start" x="25.5" y="-133.1" font-family="Helvetica,sans-Serif" font-size="8.00">ipc::session::sync</text>
<text text-anchor="start" x="25.5" y="-124.1" font-family="Helvetica,sans-Serif" font-size="8.00">_io::Session_adapter</text>
<text text-anchor="middle" x="68.5" y="-115.1" font-family="Helvetica,sans-Serif" font-size="8.00">::on_err_func_sio</text>
</a>
</g>
</g>
<!-- Node1&#45;&gt;Node7 -->
<g id="edge6" class="edge">
<title>Node1&#45;&gt;Node7</title>
<path fill="none" stroke="midnightblue" d="M204.67,-191.11C186.85,-180.07 160.8,-164.6 137,-153 130.31,-149.74 123.11,-146.55 116,-143.56"/>
<polygon fill="midnightblue" stroke="midnightblue" points="202.86,-194.1 213.19,-196.44 206.57,-188.17 202.86,-194.1"/>
</g>
<!-- Node8 -->
<g id="node8" class="node">
<title>Node8</title>
<g id="a_node8"><a xlink:href="classipc_1_1transport_1_1sync__io_1_1Blob__stream__mq__receiver__impl.html#a6c1e656d4ce90d13b4f2f38fa5ad5cf9" target="_top" xlink:title="Begins read chain (completing it as synchronously as possible, async&#45;completing the rest) for the nex...">
<polygon fill="white" stroke="black" points="0,-54.5 0,-89.5 137,-89.5 137,-54.5 0,-54.5"/>
<text text-anchor="start" x="8" y="-79.1" font-family="Helvetica,sans-Serif" font-size="8.00">ipc::transport::sync</text>
<text text-anchor="start" x="8" y="-70.1" font-family="Helvetica,sans-Serif" font-size="8.00">_io::Blob_stream_mq_receiver</text>
<text text-anchor="middle" x="68.5" y="-61.1" font-family="Helvetica,sans-Serif" font-size="8.00">_impl::read_msg</text>
</a>
</g>
</g>
<!-- Node1&#45;&gt;Node8 -->
<g id="edge7" class="edge">
<title>Node1&#45;&gt;Node8</title>
<path fill="none" stroke="midnightblue" d="M215.78,-187.63C200.75,-164.55 171.35,-123.79 137,-99 132.19,-95.53 126.87,-92.42 121.39,-89.66"/>
<polygon fill="midnightblue" stroke="midnightblue" points="213,-189.78 221.32,-196.35 218.91,-186.03 213,-189.78"/>
</g>
<!-- Node9 -->
<g id="node9" class="node">
<title>Node9</title>
<g id="a_node9"><a xlink:href="classipc_1_1util_1_1sync__io_1_1Timer__event__emitter.html#a838497cd832da97bf1d52a7b8a85734c" target="_top" xlink:title="To be used on a timer T returned by create_timer(), this is the replacement for the usual T....">
<polygon fill="white" stroke="black" points="16,-0.5 16,-35.5 121,-35.5 121,-0.5 16,-0.5"/>
<text text-anchor="start" x="24" y="-25.1" font-family="Helvetica,sans-Serif" font-size="8.00">ipc::util::sync_io</text>
<text text-anchor="start" x="24" y="-16.1" font-family="Helvetica,sans-Serif" font-size="8.00">::Timer_event_emitter</text>
<text text-anchor="middle" x="68.5" y="-7.1" font-family="Helvetica,sans-Serif" font-size="8.00">::timer_async_wait</text>
</a>
</g>
</g>
<!-- Node1&#45;&gt;Node9 -->
<g id="edge8" class="edge">
<title>Node1&#45;&gt;Node9</title>
<path fill="none" stroke="midnightblue" d="M220.86,-186.78C209.86,-154.05 182.55,-85 137,-45 132.26,-40.84 126.79,-37.27 121.07,-34.22"/>
<polygon fill="midnightblue" stroke="midnightblue" points="217.56,-187.95 223.97,-196.39 224.22,-185.8 217.56,-187.95"/>
</g>
</g>
</svg>
