<?xml version="1.0" encoding="UTF-8" standalone="no"?>
<!DOCTYPE svg PUBLIC "-//W3C//DTD SVG 1.1//EN"
 "http://www.w3.org/Graphics/SVG/1.1/DTD/svg11.dtd">
<!-- Generated by graphviz version 2.43.0 (0)
 -->
<!-- Title: ipc::util::set_resource_permissions Pages: 1 -->
<svg width="262pt" height="98pt"
 viewBox="0.00 0.00 262.00 98.00" xmlns="http://www.w3.org/2000/svg" xmlns:xlink="http://www.w3.org/1999/xlink">
<g id="graph0" class="graph" transform="scale(1 1) rotate(0) translate(4 94)">
<title>ipc::util::set_resource_permissions</title>
<polygon fill="white" stroke="transparent" points="-4,4 -4,-94 258,-94 258,4 -4,4"/>
<!-- Node1 -->
<g id="node1" class="node">
<title>Node1</title>
<g id="a_node1"><a xlink:title="Identical to the other set_resource_permissions() overload but operates on a pre&#45;opened Native_handle...">
<polygon fill="#bfbfbf" stroke="black" points="0,-31.5 0,-57.5 106,-57.5 106,-31.5 0,-31.5"/>
<text text-anchor="start" x="8" y="-47.1" font-family="Helvetica,sans-Serif" font-size="8.00">ipc::util::set_resource</text>
<text text-anchor="middle" x="53" y="-38.1" font-family="Helvetica,sans-Serif" font-size="8.00">_permissions</text>
</a>
</g>
</g>
<!-- Node2 -->
<g id="node2" class="node">
<title>Node2</title>
<g id="a_node2"><a xlink:href="structipc_1_1util_1_1Native__handle.html#a11bd62ce0a7bef4bdfe666201c26d4dc" target="_top" xlink:title="Returns true if and only if m_native_handle equals S_NULL_HANDLE.">
<polygon fill="white" stroke="black" points="142,-63.5 142,-89.5 254,-89.5 254,-63.5 142,-63.5"/>
<text text-anchor="start" x="150" y="-79.1" font-family="Helvetica,sans-Serif" font-size="8.00">ipc::util::Native_handle</text>
<text text-anchor="middle" x="198" y="-70.1" font-family="Helvetica,sans-Serif" font-size="8.00">::null</text>
</a>
</g>
</g>
<!-- Node1&#45;&gt;Node2 -->
<g id="edge1" class="edge">
<title>Node1&#45;&gt;Node2</title>
<path fill="none" stroke="midnightblue" d="M106.03,-56.14C114.5,-58.04 123.37,-60.02 132.1,-61.98"/>
<polygon fill="midnightblue" stroke="midnightblue" points="131.35,-65.4 141.88,-64.16 132.88,-58.57 131.35,-65.4"/>
</g>
<!-- Node3 -->
<g id="node3" class="node">
<title>Node3</title>
<g id="a_node3"><a xlink:href="namespaceipc_1_1util.html#abbba79fcaee378f433e7ce3093e5c435" target="_top" xlink:title="Utility that sets the permissions of the given resource (at the supplied file system path) to specifi...">
<polygon fill="white" stroke="black" points="145,-0.5 145,-26.5 251,-26.5 251,-0.5 145,-0.5"/>
<text text-anchor="start" x="153" y="-16.1" font-family="Helvetica,sans-Serif" font-size="8.00">ipc::util::set_resource</text>
<text text-anchor="middle" x="198" y="-7.1" font-family="Helvetica,sans-Serif" font-size="8.00">_permissions</text>
</a>
</g>
</g>
<!-- Node1&#45;&gt;Node3 -->
<g id="edge2" class="edge">
<title>Node1&#45;&gt;Node3</title>
<path fill="none" stroke="midnightblue" d="M106.03,-33.22C115.4,-31.19 125.24,-29.06 134.86,-26.97"/>
<polygon fill="midnightblue" stroke="midnightblue" points="135.74,-30.36 144.77,-24.82 134.25,-23.52 135.74,-30.36"/>
</g>
<!-- Node3&#45;&gt;Node3 -->
<g id="edge3" class="edge">
<title>Node3&#45;&gt;Node3</title>
<path fill="none" stroke="midnightblue" d="M173.64,-26.77C166.25,-35.96 174.38,-45 198,-45 212.4,-45 221.04,-41.64 223.92,-36.94"/>
<polygon fill="midnightblue" stroke="midnightblue" points="227.33,-36.13 222.36,-26.77 220.41,-37.18 227.33,-36.13"/>
</g>
</g>
</svg>
