<?xml version="1.0" encoding="UTF-8" standalone="no"?>
<!DOCTYPE svg PUBLIC "-//W3C//DTD SVG 1.1//EN"
 "http://www.w3.org/Graphics/SVG/1.1/DTD/svg11.dtd">
<!-- Generated by graphviz version 2.43.0 (0)
 -->
<!-- Title: ipc::util::shared_resource_permissions Pages: 1 -->
<svg width="483pt" height="370pt"
 viewBox="0.00 0.00 483.00 370.00" xmlns="http://www.w3.org/2000/svg" xmlns:xlink="http://www.w3.org/1999/xlink">
<g id="graph0" class="graph" transform="scale(1 1) rotate(0) translate(4 366)">
<title>ipc::util::shared_resource_permissions</title>
<polygon fill="white" stroke="transparent" points="-4,4 -4,-366 479,-366 479,4 -4,4"/>
<!-- Node1 -->
<g id="node1" class="node">
<title>Node1</title>
<g id="a_node1"><a xlink:title="Maps general Permissions_level specifier to low&#45;level Permissions value, when the underlying resource...">
<polygon fill="#bfbfbf" stroke="black" points="353,-164 353,-190 475,-190 475,-164 353,-164"/>
<text text-anchor="start" x="361" y="-179.6" font-family="Helvetica,sans-Serif" font-size="8.00">ipc::util::shared_resource</text>
<text text-anchor="middle" x="414" y="-170.6" font-family="Helvetica,sans-Serif" font-size="8.00">_permissions</text>
</a>
</g>
</g>
<!-- Node2 -->
<g id="node2" class="node">
<title>Node2</title>
<g id="a_node2"><a xlink:href="classipc_1_1session_1_1shm_1_1classic_1_1Server__session__impl.html#a9c78b2c35b853e1702a06ec451545945" target="_top" xlink:title="For use by internal user Session_server: See Server_session_mv counterpart.">
<polygon fill="white" stroke="black" points="174,-326.5 174,-361.5 301,-361.5 301,-326.5 174,-326.5"/>
<text text-anchor="start" x="182" y="-351.1" font-family="Helvetica,sans-Serif" font-size="8.00">ipc::session::shm::</text>
<text text-anchor="start" x="182" y="-342.1" font-family="Helvetica,sans-Serif" font-size="8.00">classic::Server_session</text>
<text text-anchor="middle" x="237.5" y="-333.1" font-family="Helvetica,sans-Serif" font-size="8.00">_impl::async_accept_log_in</text>
</a>
</g>
</g>
<!-- Node1&#45;&gt;Node2 -->
<g id="edge1" class="edge">
<title>Node1&#45;&gt;Node2</title>
<path fill="none" stroke="midnightblue" d="M403.07,-199.75C388.51,-230.58 358.51,-285.41 317,-317 312.18,-320.67 306.83,-323.86 301.26,-326.63"/>
<polygon fill="midnightblue" stroke="midnightblue" points="406.43,-200.83 407.42,-190.28 400.07,-197.91 406.43,-200.83"/>
</g>
<!-- Node3 -->
<g id="node3" class="node">
<title>Node3</title>
<g id="a_node3"><a xlink:href="classipc_1_1session_1_1Client__session__impl.html#adebedf1cbe09067a8f785a524e146b2f" target="_top" xlink:title="See Client_session_mv counterpart.">
<polygon fill="white" stroke="black" points="186,-272.5 186,-307.5 289,-307.5 289,-272.5 186,-272.5"/>
<text text-anchor="start" x="194" y="-297.1" font-family="Helvetica,sans-Serif" font-size="8.00">ipc::session::Client</text>
<text text-anchor="start" x="194" y="-288.1" font-family="Helvetica,sans-Serif" font-size="8.00">_session_impl::async</text>
<text text-anchor="middle" x="237.5" y="-279.1" font-family="Helvetica,sans-Serif" font-size="8.00">_connect</text>
</a>
</g>
</g>
<!-- Node1&#45;&gt;Node3 -->
<g id="edge2" class="edge">
<title>Node1&#45;&gt;Node3</title>
<path fill="none" stroke="midnightblue" d="M394.74,-197.54C376.66,-216.78 347.36,-245.18 317,-263 308.42,-268.03 298.77,-272.32 289.24,-275.89"/>
<polygon fill="midnightblue" stroke="midnightblue" points="397.34,-199.88 401.54,-190.16 392.19,-195.14 397.34,-199.88"/>
</g>
<!-- Node4 -->
<g id="node4" class="node">
<title>Node4</title>
<g id="a_node4"><a xlink:href="classipc_1_1session_1_1shm_1_1classic_1_1Session__server.html#a406e3860e68d2e863e64215aae43812e" target="_top" xlink:title="Implementation of our per_app_setup_func() customization point used in the ctor impl: invoked from an...">
<polygon fill="white" stroke="black" points="175,-218.5 175,-253.5 300,-253.5 300,-218.5 175,-218.5"/>
<text text-anchor="start" x="183" y="-243.1" font-family="Helvetica,sans-Serif" font-size="8.00">ipc::session::shm::</text>
<text text-anchor="start" x="183" y="-234.1" font-family="Helvetica,sans-Serif" font-size="8.00">classic::Session_server</text>
<text text-anchor="middle" x="237.5" y="-225.1" font-family="Helvetica,sans-Serif" font-size="8.00">::init_app_shm_as_needed</text>
</a>
</g>
</g>
<!-- Node1&#45;&gt;Node4 -->
<g id="edge3" class="edge">
<title>Node1&#45;&gt;Node4</title>
<path fill="none" stroke="midnightblue" d="M364.68,-193.34C341.58,-201.15 313.9,-210.51 290.36,-218.47"/>
<polygon fill="midnightblue" stroke="midnightblue" points="365.92,-196.61 374.27,-190.09 363.68,-189.98 365.92,-196.61"/>
</g>
<!-- Node6 -->
<g id="node6" class="node">
<title>Node6</title>
<g id="a_node6"><a xlink:href="classipc_1_1session_1_1shm_1_1arena__lend_1_1jemalloc_1_1Session__server.html#ae5b53f9881efc8eccb5f93dc7d820c70" target="_top" xlink:title="Analogous to classic::Session_server::init_app_shm_as_needed().">
<polygon fill="white" stroke="black" points="184.5,-155 184.5,-199 290.5,-199 290.5,-155 184.5,-155"/>
<text text-anchor="start" x="192.5" y="-188.6" font-family="Helvetica,sans-Serif" font-size="8.00">ipc::session::shm::</text>
<text text-anchor="start" x="192.5" y="-179.6" font-family="Helvetica,sans-Serif" font-size="8.00">arena_lend::jemalloc</text>
<text text-anchor="start" x="192.5" y="-170.6" font-family="Helvetica,sans-Serif" font-size="8.00">::Session_server::init</text>
<text text-anchor="middle" x="237.5" y="-161.6" font-family="Helvetica,sans-Serif" font-size="8.00">_app_shm_as_needed</text>
</a>
</g>
</g>
<!-- Node1&#45;&gt;Node6 -->
<g id="edge5" class="edge">
<title>Node1&#45;&gt;Node6</title>
<path fill="none" stroke="midnightblue" d="M342.8,-177C325.33,-177 306.92,-177 290.51,-177"/>
<polygon fill="midnightblue" stroke="midnightblue" points="342.95,-180.5 352.95,-177 342.95,-173.5 342.95,-180.5"/>
</g>
<!-- Node8 -->
<g id="node8" class="node">
<title>Node8</title>
<g id="a_node8"><a xlink:href="classipc_1_1session_1_1shm_1_1arena__lend_1_1jemalloc_1_1Session__impl.html#a46155078d8764c71a8d75db64345074b" target="_top" xlink:title="To be invoked at most once, synchronously sets up nearly&#45;all aspects of this arena&#45;lending&#45;SHM&#45;capabl...">
<polygon fill="white" stroke="black" points="179.5,-100.5 179.5,-135.5 295.5,-135.5 295.5,-100.5 179.5,-100.5"/>
<text text-anchor="start" x="187.5" y="-125.1" font-family="Helvetica,sans-Serif" font-size="8.00">ipc::session::shm::</text>
<text text-anchor="start" x="187.5" y="-116.1" font-family="Helvetica,sans-Serif" font-size="8.00">arena_lend::jemalloc</text>
<text text-anchor="middle" x="237.5" y="-107.1" font-family="Helvetica,sans-Serif" font-size="8.00">::Session_impl::init_shm</text>
</a>
</g>
</g>
<!-- Node1&#45;&gt;Node8 -->
<g id="edge7" class="edge">
<title>Node1&#45;&gt;Node8</title>
<path fill="none" stroke="midnightblue" d="M364.68,-160.66C341.58,-152.85 313.9,-143.49 290.36,-135.53"/>
<polygon fill="midnightblue" stroke="midnightblue" points="363.68,-164.02 374.27,-163.91 365.92,-157.39 363.68,-164.02"/>
</g>
<!-- Node9 -->
<g id="node9" class="node">
<title>Node9</title>
<g id="a_node9"><a xlink:href="classipc_1_1session_1_1Server__session__impl.html#a37d0b0fdbe58ecb22e19c8bebfe976cd" target="_top" xlink:title="Helper for create_channel_and_resources(), invoked and compiled if and only if S_MQS_ENABLED,...">
<polygon fill="white" stroke="black" points="158,-55 158,-81 317,-81 317,-55 158,-55"/>
<text text-anchor="start" x="166" y="-70.6" font-family="Helvetica,sans-Serif" font-size="8.00">ipc::session::Server</text>
<text text-anchor="middle" x="237.5" y="-61.6" font-family="Helvetica,sans-Serif" font-size="8.00">_session_impl::make_channel_mqs</text>
</a>
</g>
</g>
<!-- Node1&#45;&gt;Node9 -->
<g id="edge8" class="edge">
<title>Node1&#45;&gt;Node9</title>
<path fill="none" stroke="midnightblue" d="M395.22,-156.47C377.3,-136.99 347.93,-108.21 317,-91 310.05,-87.13 302.39,-83.86 294.65,-81.1"/>
<polygon fill="midnightblue" stroke="midnightblue" points="392.65,-158.85 401.95,-163.94 397.85,-154.17 392.65,-158.85"/>
</g>
<!-- Node10 -->
<g id="node10" class="node">
<title>Node10</title>
<g id="a_node10"><a xlink:href="classipc_1_1session_1_1Session__server__impl.html#a9bf4d5502b41c98a98fee4cc3c2f2530" target="_top" xlink:title="See Session_server ctor; it does that.">
<polygon fill="white" stroke="black" points="185,-0.5 185,-35.5 290,-35.5 290,-0.5 185,-0.5"/>
<text text-anchor="start" x="193" y="-25.1" font-family="Helvetica,sans-Serif" font-size="8.00">ipc::session::Session</text>
<text text-anchor="start" x="193" y="-16.1" font-family="Helvetica,sans-Serif" font-size="8.00">_server_impl::Session</text>
<text text-anchor="middle" x="237.5" y="-7.1" font-family="Helvetica,sans-Serif" font-size="8.00">_server_impl</text>
</a>
</g>
</g>
<!-- Node1&#45;&gt;Node10 -->
<g id="edge9" class="edge">
<title>Node1&#45;&gt;Node10</title>
<path fill="none" stroke="midnightblue" d="M402.28,-154.67C387.16,-125.45 356.92,-74.51 317,-45 309,-39.09 299.62,-34.4 290.17,-30.71"/>
<polygon fill="midnightblue" stroke="midnightblue" points="399.19,-156.33 406.81,-163.68 405.44,-153.18 399.19,-156.33"/>
</g>
<!-- Node5 -->
<g id="node5" class="node">
<title>Node5</title>
<g id="a_node5"><a xlink:href="classipc_1_1session_1_1shm_1_1classic_1_1Session__server.html#af10bb97219c59c34fce50be09eaacf0c" target="_top" xlink:title="Constructor: identical to session::Session_server ctor.">
<polygon fill="white" stroke="black" points="5,-218.5 5,-253.5 117,-253.5 117,-218.5 5,-218.5"/>
<text text-anchor="start" x="13" y="-243.1" font-family="Helvetica,sans-Serif" font-size="8.00">ipc::session::shm::</text>
<text text-anchor="start" x="13" y="-234.1" font-family="Helvetica,sans-Serif" font-size="8.00">classic::Session_server</text>
<text text-anchor="middle" x="61" y="-225.1" font-family="Helvetica,sans-Serif" font-size="8.00">::Session_server</text>
</a>
</g>
</g>
<!-- Node4&#45;&gt;Node5 -->
<g id="edge4" class="edge">
<title>Node4&#45;&gt;Node5</title>
<path fill="none" stroke="midnightblue" d="M164.67,-236C148.81,-236 132.24,-236 117.15,-236"/>
<polygon fill="midnightblue" stroke="midnightblue" points="164.98,-239.5 174.98,-236 164.98,-232.5 164.98,-239.5"/>
</g>
<!-- Node7 -->
<g id="node7" class="node">
<title>Node7</title>
<g id="a_node7"><a xlink:href="classipc_1_1session_1_1shm_1_1arena__lend_1_1jemalloc_1_1Session__server.html#a5cfd3651a06380b877738c6b5fc353a9" target="_top" xlink:title="Constructor: identical to session::Session_server ctor.">
<polygon fill="white" stroke="black" points="0,-155 0,-199 122,-199 122,-155 0,-155"/>
<text text-anchor="start" x="8" y="-188.6" font-family="Helvetica,sans-Serif" font-size="8.00">ipc::session::shm::</text>
<text text-anchor="start" x="8" y="-179.6" font-family="Helvetica,sans-Serif" font-size="8.00">arena_lend::jemalloc</text>
<text text-anchor="start" x="8" y="-170.6" font-family="Helvetica,sans-Serif" font-size="8.00">::Session_server::Session</text>
<text text-anchor="middle" x="61" y="-161.6" font-family="Helvetica,sans-Serif" font-size="8.00">_server</text>
</a>
</g>
</g>
<!-- Node6&#45;&gt;Node7 -->
<g id="edge6" class="edge">
<title>Node6&#45;&gt;Node7</title>
<path fill="none" stroke="midnightblue" d="M173.88,-177C157.08,-177 138.96,-177 122.29,-177"/>
<polygon fill="midnightblue" stroke="midnightblue" points="174.14,-180.5 184.14,-177 174.14,-173.5 174.14,-180.5"/>
</g>
</g>
</svg>
