<?xml version="1.0" encoding="UTF-8" standalone="no"?>
<!DOCTYPE svg PUBLIC "-//W3C//DTD SVG 1.1//EN"
 "http://www.w3.org/Graphics/SVG/1.1/DTD/svg11.dtd">
<!-- Generated by graphviz version 2.43.0 (0)
 -->
<!-- Title: ipc::util::pipe_produce Pages: 1 -->
<svg width="290pt" height="478pt"
 viewBox="0.00 0.00 290.00 478.00" xmlns="http://www.w3.org/2000/svg" xmlns:xlink="http://www.w3.org/1999/xlink">
<g id="graph0" class="graph" transform="scale(1 1) rotate(0) translate(4 474)">
<title>ipc::util::pipe_produce</title>
<polygon fill="white" stroke="transparent" points="-4,4 -4,-474 286,-474 286,4 -4,4"/>
<!-- Node1 -->
<g id="node1" class="node">
<title>Node1</title>
<g id="a_node1"><a xlink:title="Writes a byte to the given pipe writer.">
<polygon fill="#bfbfbf" stroke="black" points="173,-221.5 173,-238.5 282,-238.5 282,-221.5 173,-221.5"/>
<text text-anchor="middle" x="227.5" y="-228.1" font-family="Helvetica,sans-Serif" font-size="8.00">ipc::util::pipe_produce</text>
</a>
</g>
</g>
<!-- Node2 -->
<g id="node2" class="node">
<title>Node2</title>
<g id="a_node2"><a xlink:href="classipc_1_1session_1_1sync__io_1_1Session__server__adapter.html#a9bdfe592c152cf050994dc95f59f8337" target="_top" xlink:title="The real handler given for on_done_func to Session_server_obj::async_accept(): it records the result ...">
<polygon fill="white" stroke="black" points="13.5,-434.5 13.5,-469.5 123.5,-469.5 123.5,-434.5 13.5,-434.5"/>
<text text-anchor="start" x="21.5" y="-459.1" font-family="Helvetica,sans-Serif" font-size="8.00">ipc::session::sync</text>
<text text-anchor="start" x="21.5" y="-450.1" font-family="Helvetica,sans-Serif" font-size="8.00">_io::Session_server</text>
<text text-anchor="middle" x="68.5" y="-441.1" font-family="Helvetica,sans-Serif" font-size="8.00">_adapter::accept_write</text>
</a>
</g>
</g>
<!-- Node1&#45;&gt;Node2 -->
<g id="edge1" class="edge">
<title>Node1&#45;&gt;Node2</title>
<path fill="none" stroke="midnightblue" d="M222.74,-248.97C214.2,-287.33 189.83,-374.74 137,-425 133.07,-428.74 128.55,-431.99 123.76,-434.8"/>
<polygon fill="midnightblue" stroke="midnightblue" points="226.26,-249.24 224.9,-238.73 219.41,-247.8 226.26,-249.24"/>
</g>
<!-- Node3 -->
<g id="node3" class="node">
<title>Node3</title>
<g id="a_node3"><a xlink:href="classipc_1_1transport_1_1sync__io_1_1Native__socket__stream__acceptor.html#ade5271c427a9ed514555482cc2509ed9" target="_top" xlink:title="Starts background attempt at a peer connection being established, contingent on the user reporting (v...">
<polygon fill="white" stroke="black" points="7,-380.5 7,-415.5 130,-415.5 130,-380.5 7,-380.5"/>
<text text-anchor="start" x="15" y="-405.1" font-family="Helvetica,sans-Serif" font-size="8.00">ipc::transport::sync</text>
<text text-anchor="start" x="15" y="-396.1" font-family="Helvetica,sans-Serif" font-size="8.00">_io::Native_socket_stream</text>
<text text-anchor="middle" x="68.5" y="-387.1" font-family="Helvetica,sans-Serif" font-size="8.00">_acceptor::async_accept</text>
</a>
</g>
</g>
<!-- Node1&#45;&gt;Node3 -->
<g id="edge2" class="edge">
<title>Node1&#45;&gt;Node3</title>
<path fill="none" stroke="midnightblue" d="M219.42,-248.07C206.98,-277.64 178.53,-336.53 137,-371 132.73,-374.55 127.93,-377.67 122.91,-380.42"/>
<polygon fill="midnightblue" stroke="midnightblue" points="222.75,-249.18 223.27,-238.6 216.26,-246.54 222.75,-249.18"/>
</g>
<!-- Node4 -->
<g id="node4" class="node">
<title>Node4</title>
<g id="a_node4"><a xlink:href="classipc_1_1transport_1_1sync__io_1_1Blob__stream__mq__sender__impl.html#a57737a56544ffac3cfd8d130663bb6ce" target="_top" xlink:title="Initiates async&#45;write over m_mq of the low&#45;level payload at the head of out&#45;queue m_pending_payloads_...">
<polygon fill="white" stroke="black" points="2,-317 2,-361 135,-361 135,-317 2,-317"/>
<text text-anchor="start" x="10" y="-350.6" font-family="Helvetica,sans-Serif" font-size="8.00">ipc::transport::sync</text>
<text text-anchor="start" x="10" y="-341.6" font-family="Helvetica,sans-Serif" font-size="8.00">_io::Blob_stream_mq_sender</text>
<text text-anchor="start" x="10" y="-332.6" font-family="Helvetica,sans-Serif" font-size="8.00">_impl::async_write_q_head</text>
<text text-anchor="middle" x="68.5" y="-323.6" font-family="Helvetica,sans-Serif" font-size="8.00">_payload</text>
</a>
</g>
</g>
<!-- Node1&#45;&gt;Node4 -->
<g id="edge3" class="edge">
<title>Node1&#45;&gt;Node4</title>
<path fill="none" stroke="midnightblue" d="M210.28,-246.33C193.13,-263.01 164.76,-288.95 137,-307 131.67,-310.46 125.91,-313.77 120.08,-316.86"/>
<polygon fill="midnightblue" stroke="midnightblue" points="213.09,-248.48 217.75,-238.97 208.17,-243.5 213.09,-248.48"/>
</g>
<!-- Node5 -->
<g id="node5" class="node">
<title>Node5</title>
<g id="a_node5"><a xlink:href="classipc_1_1session_1_1sync__io_1_1Client__session__adapter.html#a59c7a14714e6d1a0697c6b112c843f38" target="_top" xlink:title="The real handler given for on_done_func to Session_obj::async_connect(): it records the result of tha...">
<polygon fill="white" stroke="black" points="17,-262.5 17,-297.5 120,-297.5 120,-262.5 17,-262.5"/>
<text text-anchor="start" x="25" y="-287.1" font-family="Helvetica,sans-Serif" font-size="8.00">ipc::session::sync</text>
<text text-anchor="start" x="25" y="-278.1" font-family="Helvetica,sans-Serif" font-size="8.00">_io::Client_session</text>
<text text-anchor="middle" x="68.5" y="-269.1" font-family="Helvetica,sans-Serif" font-size="8.00">_adapter::conn_write</text>
</a>
</g>
</g>
<!-- Node1&#45;&gt;Node5 -->
<g id="edge4" class="edge">
<title>Node1&#45;&gt;Node5</title>
<path fill="none" stroke="midnightblue" d="M189.82,-241.68C169.09,-248.28 142.88,-256.63 120.21,-263.85"/>
<polygon fill="midnightblue" stroke="midnightblue" points="191.04,-244.96 199.51,-238.6 188.92,-238.29 191.04,-244.96"/>
</g>
<!-- Node6 -->
<g id="node6" class="node">
<title>Node6</title>
<g id="a_node6"><a xlink:href="classipc_1_1transport_1_1Posix__mq__handle.html#a98884af2e485268f92b3f5f7c1069291" target="_top" xlink:title="Impl body for interrupt_*().">
<polygon fill="white" stroke="black" points="4.5,-217 4.5,-243 132.5,-243 132.5,-217 4.5,-217"/>
<text text-anchor="start" x="12.5" y="-232.6" font-family="Helvetica,sans-Serif" font-size="8.00">ipc::transport::Posix</text>
<text text-anchor="middle" x="68.5" y="-223.6" font-family="Helvetica,sans-Serif" font-size="8.00">_mq_handle::interrupt_impl</text>
</a>
</g>
</g>
<!-- Node1&#45;&gt;Node6 -->
<g id="edge5" class="edge">
<title>Node1&#45;&gt;Node6</title>
<path fill="none" stroke="midnightblue" d="M162.7,-230C152.77,-230 142.51,-230 132.6,-230"/>
<polygon fill="midnightblue" stroke="midnightblue" points="162.91,-233.5 172.91,-230 162.91,-226.5 162.91,-233.5"/>
</g>
<!-- Node7 -->
<g id="node7" class="node">
<title>Node7</title>
<g id="a_node7"><a xlink:href="classipc_1_1session_1_1sync__io_1_1Session__adapter.html#a527ef097783127e73184258166a891a3" target="_top" xlink:title="Returns the proper on&#45;passive&#45;channel&#45;open handler to set up on the underlying Session_obj (Client_se...">
<polygon fill="white" stroke="black" points="15,-162.5 15,-197.5 122,-197.5 122,-162.5 15,-162.5"/>
<text text-anchor="start" x="23" y="-187.1" font-family="Helvetica,sans-Serif" font-size="8.00">ipc::session::sync</text>
<text text-anchor="start" x="23" y="-178.1" font-family="Helvetica,sans-Serif" font-size="8.00">_io::Session_adapter</text>
<text text-anchor="middle" x="68.5" y="-169.1" font-family="Helvetica,sans-Serif" font-size="8.00">::on_channel_func_sio</text>
</a>
</g>
</g>
<!-- Node1&#45;&gt;Node7 -->
<g id="edge6" class="edge">
<title>Node1&#45;&gt;Node7</title>
<path fill="none" stroke="midnightblue" d="M189.79,-218.31C169.65,-211.9 144.34,-203.83 122.13,-196.76"/>
<polygon fill="midnightblue" stroke="midnightblue" points="188.92,-221.71 199.51,-221.4 191.04,-215.04 188.92,-221.71"/>
</g>
<!-- Node8 -->
<g id="node8" class="node">
<title>Node8</title>
<g id="a_node8"><a xlink:href="classipc_1_1session_1_1sync__io_1_1Session__adapter.html#a5bbcf8b33bc02ccb371449692d09e642" target="_top" xlink:title="Returns the proper on&#45;error handler to set up on the underlying Session_obj (Client_session: via ctor...">
<polygon fill="white" stroke="black" points="17.5,-108.5 17.5,-143.5 119.5,-143.5 119.5,-108.5 17.5,-108.5"/>
<text text-anchor="start" x="25.5" y="-133.1" font-family="Helvetica,sans-Serif" font-size="8.00">ipc::session::sync</text>
<text text-anchor="start" x="25.5" y="-124.1" font-family="Helvetica,sans-Serif" font-size="8.00">_io::Session_adapter</text>
<text text-anchor="middle" x="68.5" y="-115.1" font-family="Helvetica,sans-Serif" font-size="8.00">::on_err_func_sio</text>
</a>
</g>
</g>
<!-- Node1&#45;&gt;Node8 -->
<g id="edge7" class="edge">
<title>Node1&#45;&gt;Node8</title>
<path fill="none" stroke="midnightblue" d="M211.04,-213.85C194.13,-196.9 165.61,-170.36 137,-153 131.39,-149.59 125.27,-146.46 119.09,-143.62"/>
<polygon fill="midnightblue" stroke="midnightblue" points="208.86,-216.62 218.36,-221.31 213.86,-211.72 208.86,-216.62"/>
</g>
<!-- Node9 -->
<g id="node9" class="node">
<title>Node9</title>
<g id="a_node9"><a xlink:href="classipc_1_1transport_1_1sync__io_1_1Blob__stream__mq__receiver__impl.html#a6c1e656d4ce90d13b4f2f38fa5ad5cf9" target="_top" xlink:title="Begins read chain (completing it as synchronously as possible, async&#45;completing the rest) for the nex...">
<polygon fill="white" stroke="black" points="0,-54.5 0,-89.5 137,-89.5 137,-54.5 0,-54.5"/>
<text text-anchor="start" x="8" y="-79.1" font-family="Helvetica,sans-Serif" font-size="8.00">ipc::transport::sync</text>
<text text-anchor="start" x="8" y="-70.1" font-family="Helvetica,sans-Serif" font-size="8.00">_io::Blob_stream_mq_receiver</text>
<text text-anchor="middle" x="68.5" y="-61.1" font-family="Helvetica,sans-Serif" font-size="8.00">_impl::read_msg</text>
</a>
</g>
</g>
<!-- Node1&#45;&gt;Node9 -->
<g id="edge8" class="edge">
<title>Node1&#45;&gt;Node9</title>
<path fill="none" stroke="midnightblue" d="M218.53,-212.06C205.33,-184.25 176.44,-130.63 137,-99 132.57,-95.45 127.61,-92.31 122.45,-89.55"/>
<polygon fill="midnightblue" stroke="midnightblue" points="215.45,-213.74 222.81,-221.36 221.81,-210.81 215.45,-213.74"/>
</g>
<!-- Node10 -->
<g id="node10" class="node">
<title>Node10</title>
<g id="a_node10"><a xlink:href="classipc_1_1util_1_1sync__io_1_1Timer__event__emitter.html#a838497cd832da97bf1d52a7b8a85734c" target="_top" xlink:title="To be used on a timer T returned by create_timer(), this is the replacement for the usual T....">
<polygon fill="white" stroke="black" points="16,-0.5 16,-35.5 121,-35.5 121,-0.5 16,-0.5"/>
<text text-anchor="start" x="24" y="-25.1" font-family="Helvetica,sans-Serif" font-size="8.00">ipc::util::sync_io</text>
<text text-anchor="start" x="24" y="-16.1" font-family="Helvetica,sans-Serif" font-size="8.00">::Timer_event_emitter</text>
<text text-anchor="middle" x="68.5" y="-7.1" font-family="Helvetica,sans-Serif" font-size="8.00">::timer_async_wait</text>
</a>
</g>
</g>
<!-- Node1&#45;&gt;Node10 -->
<g id="edge9" class="edge">
<title>Node1&#45;&gt;Node10</title>
<path fill="none" stroke="midnightblue" d="M222.32,-211.49C213.14,-174.82 187.85,-92.4 137,-45 132.38,-40.7 127,-37.04 121.31,-33.95"/>
<polygon fill="midnightblue" stroke="midnightblue" points="218.94,-212.39 224.67,-221.31 225.75,-210.77 218.94,-212.39"/>
</g>
</g>
</svg>
