<?xml version="1.0" encoding="UTF-8" standalone="no"?>
<!DOCTYPE svg PUBLIC "-//W3C//DTD SVG 1.1//EN"
 "http://www.w3.org/Graphics/SVG/1.1/DTD/svg11.dtd">
<!-- Generated by graphviz version 2.43.0 (0)
 -->
<!-- Title: ipc::session::error::operator&lt;&lt; Pages: 1 -->
<svg width="255pt" height="35pt"
 viewBox="0.00 0.00 255.00 35.00" xmlns="http://www.w3.org/2000/svg" xmlns:xlink="http://www.w3.org/1999/xlink">
<g id="graph0" class="graph" transform="scale(1 1) rotate(0) translate(4 31)">
<title>ipc::session::error::operator&lt;&lt;</title>
<polygon fill="white" stroke="transparent" points="-4,4 -4,-31 251,-31 251,4 -4,4"/>
<!-- Node1 -->
<g id="node1" class="node">
<title>Node1</title>
<g id="a_node1"><a xlink:title="Analogous to transport::error::operator&lt;&lt;().">
<polygon fill="#bfbfbf" stroke="black" points="0,-0.5 0,-26.5 92,-26.5 92,-0.5 0,-0.5"/>
<text text-anchor="start" x="8" y="-16.1" font-family="Helvetica,sans-Serif" font-size="8.00">ipc::session::error</text>
<text text-anchor="middle" x="46" y="-7.1" font-family="Helvetica,sans-Serif" font-size="8.00">::operator&lt;&lt;</text>
</a>
</g>
</g>
<!-- Node2 -->
<g id="node2" class="node">
<title>Node2</title>
<g id="a_node2"><a xlink:href="classipc_1_1session_1_1error_1_1Category.html#a29c3783e5cc2b9e5df5401fca45949e5" target="_top" xlink:title="Analogous to transport::error::Category::name().">
<polygon fill="white" stroke="black" points="128,-0.5 128,-26.5 247,-26.5 247,-0.5 128,-0.5"/>
<text text-anchor="start" x="136" y="-16.1" font-family="Helvetica,sans-Serif" font-size="8.00">ipc::session::error</text>
<text text-anchor="middle" x="187.5" y="-7.1" font-family="Helvetica,sans-Serif" font-size="8.00">::Category::code_symbol</text>
</a>
</g>
</g>
<!-- Node1&#45;&gt;Node2 -->
<g id="edge1" class="edge">
<title>Node1&#45;&gt;Node2</title>
<path fill="none" stroke="midnightblue" d="M92.29,-13.5C100.47,-13.5 109.16,-13.5 117.83,-13.5"/>
<polygon fill="midnightblue" stroke="midnightblue" points="117.96,-17 127.96,-13.5 117.96,-10 117.96,-17"/>
</g>
</g>
</svg>
