<?xml version="1.0" encoding="UTF-8" standalone="no"?>
<!DOCTYPE svg PUBLIC "-//W3C//DTD SVG 1.1//EN"
 "http://www.w3.org/Graphics/SVG/1.1/DTD/svg11.dtd">
<!-- Generated by graphviz version 2.43.0 (0)
 -->
<!-- Title: ipc::transport::asio_local_stream_socket::release_native_peer_socket Pages: 1 -->
<svg width="447pt" height="98pt"
 viewBox="0.00 0.00 447.00 98.00" xmlns="http://www.w3.org/2000/svg" xmlns:xlink="http://www.w3.org/1999/xlink">
<g id="graph0" class="graph" transform="scale(1 1) rotate(0) translate(4 94)">
<title>ipc::transport::asio_local_stream_socket::release_native_peer_socket</title>
<polygon fill="white" stroke="transparent" points="-4,4 -4,-94 443,-94 443,4 -4,4"/>
<!-- Node1 -->
<g id="node1" class="node">
<title>Node1</title>
<g id="a_node1"><a xlink:title="Little utility that returns the raw Native_handle suitable for Peer_socket to the OS.">
<polygon fill="#bfbfbf" stroke="black" points="334,-23 334,-67 439,-67 439,-23 334,-23"/>
<text text-anchor="start" x="342" y="-56.6" font-family="Helvetica,sans-Serif" font-size="8.00">ipc::transport::asio</text>
<text text-anchor="start" x="342" y="-47.6" font-family="Helvetica,sans-Serif" font-size="8.00">_local_stream_socket</text>
<text text-anchor="start" x="342" y="-38.6" font-family="Helvetica,sans-Serif" font-size="8.00">::release_native_peer</text>
<text text-anchor="middle" x="386.5" y="-29.6" font-family="Helvetica,sans-Serif" font-size="8.00">_socket</text>
</a>
</g>
</g>
<!-- Node2 -->
<g id="node2" class="node">
<title>Node2</title>
<g id="a_node2"><a xlink:href="classipc_1_1session_1_1shm_1_1arena__lend_1_1jemalloc_1_1Session__impl.html#a46155078d8764c71a8d75db64345074b" target="_top" xlink:title="To be invoked at most once, synchronously sets up nearly&#45;all aspects of this arena&#45;lending&#45;SHM&#45;capabl...">
<polygon fill="white" stroke="black" points="182,-54.5 182,-89.5 298,-89.5 298,-54.5 182,-54.5"/>
<text text-anchor="start" x="190" y="-79.1" font-family="Helvetica,sans-Serif" font-size="8.00">ipc::session::shm::</text>
<text text-anchor="start" x="190" y="-70.1" font-family="Helvetica,sans-Serif" font-size="8.00">arena_lend::jemalloc</text>
<text text-anchor="middle" x="240" y="-61.1" font-family="Helvetica,sans-Serif" font-size="8.00">::Session_impl::init_shm</text>
</a>
</g>
</g>
<!-- Node1&#45;&gt;Node2 -->
<g id="edge1" class="edge">
<title>Node1&#45;&gt;Node2</title>
<path fill="none" stroke="midnightblue" d="M323.89,-56.51C315.39,-58.1 306.69,-59.72 298.28,-61.3"/>
<polygon fill="midnightblue" stroke="midnightblue" points="324.55,-59.95 333.74,-54.67 323.27,-53.07 324.55,-59.95"/>
</g>
<!-- Node3 -->
<g id="node3" class="node">
<title>Node3</title>
<g id="a_node3"><a xlink:href="classipc_1_1transport_1_1struc_1_1Msg__out.html#aced8ef8237617c74aaf06832d1385fed" target="_top" xlink:title="Store the Native_handle (potentially .null(), meaning none) in this out&#45;message; no&#45;ops if the same ....">
<polygon fill="white" stroke="black" points="183.5,-0.5 183.5,-35.5 296.5,-35.5 296.5,-0.5 183.5,-0.5"/>
<text text-anchor="start" x="191.5" y="-25.1" font-family="Helvetica,sans-Serif" font-size="8.00">ipc::transport::struc</text>
<text text-anchor="start" x="191.5" y="-16.1" font-family="Helvetica,sans-Serif" font-size="8.00">::Msg_out::store_native</text>
<text text-anchor="middle" x="240" y="-7.1" font-family="Helvetica,sans-Serif" font-size="8.00">_handle_or_null</text>
</a>
</g>
</g>
<!-- Node1&#45;&gt;Node3 -->
<g id="edge2" class="edge">
<title>Node1&#45;&gt;Node3</title>
<path fill="none" stroke="midnightblue" d="M323.75,-33.46C314.8,-31.79 305.63,-30.08 296.8,-28.43"/>
<polygon fill="midnightblue" stroke="midnightblue" points="323.27,-36.93 333.74,-35.33 324.55,-30.05 323.27,-36.93"/>
</g>
<!-- Node4 -->
<g id="node4" class="node">
<title>Node4</title>
<g id="a_node4"><a xlink:href="classipc_1_1transport_1_1struc_1_1sync__io_1_1Channel.html#a426ecae27b4ea5cf7e666e56bad6afe5" target="_top" xlink:title="See Async_io_obj counterpart.">
<polygon fill="white" stroke="black" points="0,-5 0,-31 146,-31 146,-5 0,-5"/>
<text text-anchor="start" x="8" y="-20.6" font-family="Helvetica,sans-Serif" font-size="8.00">ipc::transport::struc</text>
<text text-anchor="middle" x="73" y="-11.6" font-family="Helvetica,sans-Serif" font-size="8.00">::sync_io::Channel::create_msg</text>
</a>
</g>
</g>
<!-- Node3&#45;&gt;Node4 -->
<g id="edge3" class="edge">
<title>Node3&#45;&gt;Node4</title>
<path fill="none" stroke="midnightblue" d="M172.95,-18C164.15,-18 155.08,-18 146.18,-18"/>
<polygon fill="midnightblue" stroke="midnightblue" points="173.14,-21.5 183.14,-18 173.14,-14.5 173.14,-21.5"/>
</g>
</g>
</svg>
