<?xml version="1.0" encoding="UTF-8" standalone="no"?>
<!DOCTYPE svg PUBLIC "-//W3C//DTD SVG 1.1//EN"
 "http://www.w3.org/Graphics/SVG/1.1/DTD/svg11.dtd">
<!-- Generated by graphviz version 2.43.0 (0)
 -->
<!-- Title: ipc::session::build_conventional_shared_name Pages: 1 -->
<svg width="429pt" height="63pt"
 viewBox="0.00 0.00 429.00 62.50" xmlns="http://www.w3.org/2000/svg" xmlns:xlink="http://www.w3.org/1999/xlink">
<g id="graph0" class="graph" transform="scale(1 1) rotate(0) translate(4 58.5)">
<title>ipc::session::build_conventional_shared_name</title>
<polygon fill="white" stroke="transparent" points="-4,4 -4,-58.5 425,-58.5 425,4 -4,4"/>
<!-- Node1 -->
<g id="node1" class="node">
<title>Node1</title>
<g id="a_node1"><a xlink:title="Builds an absolute name according to the path convention explained in Shared_name class doc header; t...">
<polygon fill="#bfbfbf" stroke="black" points="0,-0.5 0,-26.5 133,-26.5 133,-0.5 0,-0.5"/>
<text text-anchor="start" x="8" y="-16.1" font-family="Helvetica,sans-Serif" font-size="8.00">ipc::session::build</text>
<text text-anchor="middle" x="66.5" y="-7.1" font-family="Helvetica,sans-Serif" font-size="8.00">_conventional_shared_name</text>
</a>
</g>
</g>
<!-- Node2 -->
<g id="node2" class="node">
<title>Node2</title>
<g id="a_node2"><a xlink:href="namespaceipc_1_1session.html#a5216d618bb573e68276d2933ce3f4010" target="_top" xlink:title="Return the prefix common to all calls to either build_conventional_shared_name() overload with the ar...">
<polygon fill="white" stroke="black" points="169,-19 169,-54 275,-54 275,-19 169,-19"/>
<text text-anchor="start" x="177" y="-43.6" font-family="Helvetica,sans-Serif" font-size="8.00">ipc::session::build</text>
<text text-anchor="start" x="177" y="-34.6" font-family="Helvetica,sans-Serif" font-size="8.00">_conventional_shared</text>
<text text-anchor="middle" x="222" y="-25.6" font-family="Helvetica,sans-Serif" font-size="8.00">_name_prefix</text>
</a>
</g>
</g>
<!-- Node1&#45;&gt;Node2 -->
<g id="edge1" class="edge">
<title>Node1&#45;&gt;Node2</title>
<path fill="none" stroke="midnightblue" d="M133.04,-23.32C141.5,-24.59 150.14,-25.88 158.55,-27.14"/>
<polygon fill="midnightblue" stroke="midnightblue" points="158.25,-30.64 168.66,-28.66 159.29,-23.71 158.25,-30.64"/>
</g>
<!-- Node3 -->
<g id="node3" class="node">
<title>Node3</title>
<g id="a_node3"><a xlink:href="classipc_1_1util_1_1Shared__name.html#a861ea6c9ad6672e83bab5c7747b66f7b" target="_top" xlink:title="Returns true if and only if str().empty() == true.">
<polygon fill="white" stroke="black" points="311,-0.5 311,-26.5 421,-26.5 421,-0.5 311,-0.5"/>
<text text-anchor="start" x="319" y="-16.1" font-family="Helvetica,sans-Serif" font-size="8.00">ipc::util::Shared_name</text>
<text text-anchor="middle" x="366" y="-7.1" font-family="Helvetica,sans-Serif" font-size="8.00">::empty</text>
</a>
</g>
</g>
<!-- Node1&#45;&gt;Node3 -->
<g id="edge3" class="edge">
<title>Node1&#45;&gt;Node3</title>
<path fill="none" stroke="midnightblue" d="M133.01,-10.54C144.98,-10.11 157.36,-9.73 169,-9.5 216.1,-8.57 227.9,-8.45 275,-9.5 283.32,-9.68 292.06,-9.97 300.7,-10.29"/>
<polygon fill="midnightblue" stroke="midnightblue" points="300.63,-13.79 310.76,-10.7 300.91,-6.8 300.63,-13.79"/>
</g>
<!-- Node2&#45;&gt;Node3 -->
<g id="edge2" class="edge">
<title>Node2&#45;&gt;Node3</title>
<path fill="none" stroke="midnightblue" d="M275.07,-28.07C283.38,-26.72 292.05,-25.32 300.6,-23.93"/>
<polygon fill="midnightblue" stroke="midnightblue" points="301.24,-27.37 310.55,-22.32 300.12,-20.46 301.24,-27.37"/>
</g>
</g>
</svg>
