<?xml version="1.0" encoding="UTF-8" standalone="no"?>
<!DOCTYPE svg PUBLIC "-//W3C//DTD SVG 1.1//EN"
 "http://www.w3.org/Graphics/SVG/1.1/DTD/svg11.dtd">
<!-- Generated by graphviz version 2.43.0 (0)
 -->
<!-- Title: ipc::util::remove_persistent_shm_pool Pages: 1 -->
<svg width="520pt" height="198pt"
 viewBox="0.00 0.00 520.00 197.50" xmlns="http://www.w3.org/2000/svg" xmlns:xlink="http://www.w3.org/1999/xlink">
<g id="graph0" class="graph" transform="scale(1 1) rotate(0) translate(4 193.5)">
<title>ipc::util::remove_persistent_shm_pool</title>
<polygon fill="white" stroke="transparent" points="-4,4 -4,-193.5 516,-193.5 516,4 -4,4"/>
<!-- Node1 -->
<g id="node1" class="node">
<title>Node1</title>
<g id="a_node1"><a xlink:title="Equivalent to shm::classic::Pool_arena::remove_persistent().">
<polygon fill="#bfbfbf" stroke="black" points="383,-50.5 383,-76.5 512,-76.5 512,-50.5 383,-50.5"/>
<text text-anchor="start" x="391" y="-66.1" font-family="Helvetica,sans-Serif" font-size="8.00">ipc::util::remove_persistent</text>
<text text-anchor="middle" x="447.5" y="-57.1" font-family="Helvetica,sans-Serif" font-size="8.00">_shm_pool</text>
</a>
</g>
</g>
<!-- Node1&#45;&gt;Node1 -->
<g id="edge7" class="edge">
<title>Node1&#45;&gt;Node1</title>
<path fill="none" stroke="midnightblue" d="M478.71,-86.58C475.54,-91.47 465.14,-95 447.5,-95 419.28,-95 409.58,-85.96 418.4,-76.77"/>
<polygon fill="midnightblue" stroke="midnightblue" points="482.12,-85.81 476.6,-76.77 475.28,-87.28 482.12,-85.81"/>
</g>
<!-- Node2 -->
<g id="node2" class="node">
<title>Node2</title>
<g id="a_node2"><a xlink:href="classipc_1_1transport_1_1Blob__stream__mq__base__impl.html#a4776b5f569ccac03eccb3fc2f360fcc9" target="_top" xlink:title="Internal helper for Blob_stream_mq_sender and Blob_stream_mq_receiver that operates both the start an...">
<polygon fill="white" stroke="black" points="220.5,-100 220.5,-135 330.5,-135 330.5,-100 220.5,-100"/>
<text text-anchor="start" x="228.5" y="-124.6" font-family="Helvetica,sans-Serif" font-size="8.00">ipc::transport::Blob</text>
<text text-anchor="start" x="228.5" y="-115.6" font-family="Helvetica,sans-Serif" font-size="8.00">_stream_mq_base_impl</text>
<text text-anchor="middle" x="275.5" y="-106.6" font-family="Helvetica,sans-Serif" font-size="8.00">::ensure_unique_peer</text>
</a>
</g>
</g>
<!-- Node1&#45;&gt;Node2 -->
<g id="edge1" class="edge">
<title>Node1&#45;&gt;Node2</title>
<path fill="none" stroke="midnightblue" d="M395.59,-79.67C375.14,-86.17 351.54,-93.66 330.77,-100.26"/>
<polygon fill="midnightblue" stroke="midnightblue" points="396.88,-82.94 405.35,-76.57 394.76,-76.26 396.88,-82.94"/>
</g>
<!-- Node5 -->
<g id="node5" class="node">
<title>Node5</title>
<g id="a_node5"><a xlink:href="classipc_1_1transport_1_1Blob__stream__mq__base__impl.html#a8877f75af055ab927a4b4c993f0873a2" target="_top" xlink:title="See Blob_stream_mq_base counterpart.">
<polygon fill="white" stroke="black" points="220.5,-46 220.5,-81 330.5,-81 330.5,-46 220.5,-46"/>
<text text-anchor="start" x="228.5" y="-70.6" font-family="Helvetica,sans-Serif" font-size="8.00">ipc::transport::Blob</text>
<text text-anchor="start" x="228.5" y="-61.6" font-family="Helvetica,sans-Serif" font-size="8.00">_stream_mq_base_impl</text>
<text text-anchor="middle" x="275.5" y="-52.6" font-family="Helvetica,sans-Serif" font-size="8.00">::remove_persistent</text>
</a>
</g>
</g>
<!-- Node1&#45;&gt;Node5 -->
<g id="edge4" class="edge">
<title>Node1&#45;&gt;Node5</title>
<path fill="none" stroke="midnightblue" d="M372.55,-63.5C358.46,-63.5 343.95,-63.5 330.62,-63.5"/>
<polygon fill="midnightblue" stroke="midnightblue" points="372.71,-67 382.71,-63.5 372.71,-60 372.71,-67"/>
</g>
<!-- Node7 -->
<g id="node7" class="node">
<title>Node7</title>
<g id="a_node7"><a xlink:href="classipc_1_1shm_1_1classic_1_1Pool__arena.html#aff2327ce7339c1c732ddd4fcd4861ee4" target="_top" xlink:title="Removes the named SHM pool object.">
<polygon fill="white" stroke="black" points="204,-0.5 204,-26.5 347,-26.5 347,-0.5 204,-0.5"/>
<text text-anchor="start" x="212" y="-16.1" font-family="Helvetica,sans-Serif" font-size="8.00">ipc::shm::classic::</text>
<text text-anchor="middle" x="275.5" y="-7.1" font-family="Helvetica,sans-Serif" font-size="8.00">Pool_arena::remove_persistent</text>
</a>
</g>
</g>
<!-- Node1&#45;&gt;Node7 -->
<g id="edge6" class="edge">
<title>Node1&#45;&gt;Node7</title>
<path fill="none" stroke="midnightblue" d="M392.6,-47.65C369.46,-40.84 342.76,-32.99 320.8,-26.53"/>
<polygon fill="midnightblue" stroke="midnightblue" points="391.7,-51.03 402.28,-50.49 393.67,-44.31 391.7,-51.03"/>
</g>
<!-- Node3 -->
<g id="node3" class="node">
<title>Node3</title>
<g id="a_node3"><a xlink:href="classipc_1_1transport_1_1sync__io_1_1Blob__stream__mq__receiver__impl.html#a3e1c13dc986985621ab05de16f9e811c" target="_top" xlink:title="See Blob_stream_mq_receiver counterpart.">
<polygon fill="white" stroke="black" points="0,-154 0,-189 168,-189 168,-154 0,-154"/>
<text text-anchor="start" x="8" y="-178.6" font-family="Helvetica,sans-Serif" font-size="8.00">ipc::transport::sync</text>
<text text-anchor="start" x="8" y="-169.6" font-family="Helvetica,sans-Serif" font-size="8.00">_io::Blob_stream_mq_receiver</text>
<text text-anchor="middle" x="84" y="-160.6" font-family="Helvetica,sans-Serif" font-size="8.00">_impl::Blob_stream_mq_receiver_impl</text>
</a>
</g>
</g>
<!-- Node2&#45;&gt;Node3 -->
<g id="edge2" class="edge">
<title>Node2&#45;&gt;Node3</title>
<path fill="none" stroke="midnightblue" d="M210.78,-135.66C190.03,-141.57 167.05,-148.12 146.47,-153.98"/>
<polygon fill="midnightblue" stroke="midnightblue" points="211.79,-139.01 220.45,-132.9 209.87,-132.28 211.79,-139.01"/>
</g>
<!-- Node4 -->
<g id="node4" class="node">
<title>Node4</title>
<g id="a_node4"><a xlink:href="classipc_1_1transport_1_1sync__io_1_1Blob__stream__mq__sender__impl.html#a71caa7f5002886b2c0717645945d7144" target="_top" xlink:title="See Blob_stream_mq_sender counterpart.">
<polygon fill="white" stroke="black" points="2,-100 2,-135 166,-135 166,-100 2,-100"/>
<text text-anchor="start" x="10" y="-124.6" font-family="Helvetica,sans-Serif" font-size="8.00">ipc::transport::sync</text>
<text text-anchor="start" x="10" y="-115.6" font-family="Helvetica,sans-Serif" font-size="8.00">_io::Blob_stream_mq_sender</text>
<text text-anchor="middle" x="84" y="-106.6" font-family="Helvetica,sans-Serif" font-size="8.00">_impl::Blob_stream_mq_sender_impl</text>
</a>
</g>
</g>
<!-- Node2&#45;&gt;Node4 -->
<g id="edge3" class="edge">
<title>Node2&#45;&gt;Node4</title>
<path fill="none" stroke="midnightblue" d="M210.36,-117.5C196.22,-117.5 181.07,-117.5 166.35,-117.5"/>
<polygon fill="midnightblue" stroke="midnightblue" points="210.45,-121 220.45,-117.5 210.45,-114 210.45,-121"/>
</g>
<!-- Node6 -->
<g id="node6" class="node">
<title>Node6</title>
<g id="a_node6"><a xlink:href="classipc_1_1transport_1_1Blob__stream__mq__base.html#ac1230ff7e73783da730b8639c30511e2" target="_top" xlink:title="Removes the Blob_stream_mq_sender and/or Blob_stream_mq_receiver persistent resources associated with...">
<polygon fill="white" stroke="black" points="21,-46 21,-81 147,-81 147,-46 21,-46"/>
<text text-anchor="start" x="29" y="-70.6" font-family="Helvetica,sans-Serif" font-size="8.00">ipc::transport::Blob</text>
<text text-anchor="start" x="29" y="-61.6" font-family="Helvetica,sans-Serif" font-size="8.00">_stream_mq_base::remove</text>
<text text-anchor="middle" x="84" y="-52.6" font-family="Helvetica,sans-Serif" font-size="8.00">_persistent</text>
</a>
</g>
</g>
<!-- Node5&#45;&gt;Node6 -->
<g id="edge5" class="edge">
<title>Node5&#45;&gt;Node6</title>
<path fill="none" stroke="midnightblue" d="M210.31,-63.5C189.91,-63.5 167.4,-63.5 147.14,-63.5"/>
<polygon fill="midnightblue" stroke="midnightblue" points="210.45,-67 220.45,-63.5 210.45,-60 210.45,-67"/>
</g>
</g>
</svg>
