<?xml version="1.0" encoding="UTF-8" standalone="no"?>
<!DOCTYPE svg PUBLIC "-//W3C//DTD SVG 1.1//EN"
 "http://www.w3.org/Graphics/SVG/1.1/DTD/svg11.dtd">
<!-- Generated by graphviz version 2.43.0 (0)
 -->
<!-- Title: ipc::util::operator== Pages: 1 -->
<svg width="410pt" height="62pt"
 viewBox="0.00 0.00 410.00 62.00" xmlns="http://www.w3.org/2000/svg" xmlns:xlink="http://www.w3.org/1999/xlink">
<g id="graph0" class="graph" transform="scale(1 1) rotate(0) translate(4 58)">
<title>ipc::util::operator==</title>
<polygon fill="white" stroke="transparent" points="-4,4 -4,-58 406,-58 406,4 -4,4"/>
<!-- Node1 -->
<g id="node1" class="node">
<title>Node1</title>
<g id="a_node1"><a xlink:title="Returns true if and only if val1.str() == string(val2).">
<polygon fill="#bfbfbf" stroke="black" points="0,-18.5 0,-35.5 102,-35.5 102,-18.5 0,-18.5"/>
<text text-anchor="middle" x="51" y="-25.1" font-family="Helvetica,sans-Serif" font-size="8.00">ipc::util::operator==</text>
</a>
</g>
</g>
<!-- Node2 -->
<g id="node2" class="node">
<title>Node2</title>
<g id="a_node2"><a xlink:href="namespaceipc_1_1util.html#a97a7c8e6330909a1371134a7bdcea788" target="_top" xlink:title="Returns true if and only if string(val1) == val2.str().">
<polygon fill="white" stroke="black" points="150,-36.5 150,-53.5 252,-53.5 252,-36.5 150,-36.5"/>
<text text-anchor="middle" x="201" y="-43.1" font-family="Helvetica,sans-Serif" font-size="8.00">ipc::util::operator==</text>
</a>
</g>
</g>
<!-- Node1&#45;&gt;Node2 -->
<g id="edge1" class="edge">
<title>Node1&#45;&gt;Node2</title>
<path fill="none" stroke="midnightblue" d="M102.11,-33.09C114.28,-34.57 127.42,-36.17 140,-37.7"/>
<polygon fill="midnightblue" stroke="midnightblue" points="139.6,-41.18 149.95,-38.91 140.44,-34.23 139.6,-41.18"/>
</g>
<!-- Node4 -->
<g id="node4" class="node">
<title>Node4</title>
<g id="a_node4"><a xlink:href="classipc_1_1util_1_1Shared__name.html#ae89e1e061f87ffe0288514e254837595" target="_top" xlink:title="Returns (sans copying) ref to immutable entire wrapped name string, suitable to pass into sys calls w...">
<polygon fill="white" stroke="black" points="138,-0.5 138,-17.5 264,-17.5 264,-0.5 138,-0.5"/>
<text text-anchor="middle" x="201" y="-7.1" font-family="Helvetica,sans-Serif" font-size="8.00">ipc::util::Shared_name::str</text>
</a>
</g>
</g>
<!-- Node1&#45;&gt;Node4 -->
<g id="edge3" class="edge">
<title>Node1&#45;&gt;Node4</title>
<path fill="none" stroke="midnightblue" d="M102.11,-20.91C110.36,-19.9 119.07,-18.84 127.74,-17.79"/>
<polygon fill="midnightblue" stroke="midnightblue" points="128.37,-21.24 137.87,-16.56 127.52,-14.29 128.37,-21.24"/>
</g>
<!-- Node3 -->
<g id="node3" class="node">
<title>Node3</title>
<g id="a_node3"><a xlink:href="namespaceipc_1_1util.html#ae4b4126f841ef060cdae15998e48691c" target="_top" xlink:title="Returns true if and only if the two Native_handle objects are the same underlying handle.">
<polygon fill="white" stroke="black" points="300,-36.5 300,-53.5 402,-53.5 402,-36.5 300,-36.5"/>
<text text-anchor="middle" x="351" y="-43.1" font-family="Helvetica,sans-Serif" font-size="8.00">ipc::util::operator==</text>
</a>
</g>
</g>
<!-- Node2&#45;&gt;Node3 -->
<g id="edge2" class="edge">
<title>Node2&#45;&gt;Node3</title>
<path fill="none" stroke="midnightblue" d="M252.11,-45C264.16,-45 277.16,-45 289.63,-45"/>
<polygon fill="midnightblue" stroke="midnightblue" points="289.95,-48.5 299.95,-45 289.95,-41.5 289.95,-48.5"/>
</g>
</g>
</svg>
