<?xml version="1.0" encoding="UTF-8" standalone="no"?>
<!DOCTYPE svg PUBLIC "-//W3C//DTD SVG 1.1//EN"
 "http://www.w3.org/Graphics/SVG/1.1/DTD/svg11.dtd">
<!-- Generated by graphviz version 2.43.0 (0)
 -->
<!-- Title: ipc::transport::asio_local_stream_socket::nb_write_some_with_native_handle Pages: 1 -->
<svg width="620pt" height="126pt"
 viewBox="0.00 0.00 620.00 125.50" xmlns="http://www.w3.org/2000/svg" xmlns:xlink="http://www.w3.org/1999/xlink">
<g id="graph0" class="graph" transform="scale(1 1) rotate(0) translate(4 121.5)">
<title>ipc::transport::asio_local_stream_socket::nb_write_some_with_native_handle</title>
<polygon fill="white" stroke="transparent" points="-4,4 -4,-121.5 616,-121.5 616,4 -4,4"/>
<!-- Node1 -->
<g id="node1" class="node">
<title>Node1</title>
<g id="a_node1"><a xlink:title="boost.asio extension similar to peer_socket&#45;&gt;non_blocking(true); auto n = peer_socket&#45;&gt;write_some(pay...">
<polygon fill="#bfbfbf" stroke="black" points="478,-29.5 478,-73.5 612,-73.5 612,-29.5 478,-29.5"/>
<text text-anchor="start" x="486" y="-63.1" font-family="Helvetica,sans-Serif" font-size="8.00">ipc::transport::asio</text>
<text text-anchor="start" x="486" y="-54.1" font-family="Helvetica,sans-Serif" font-size="8.00">_local_stream_socket</text>
<text text-anchor="start" x="486" y="-45.1" font-family="Helvetica,sans-Serif" font-size="8.00">::nb_write_some_with_native</text>
<text text-anchor="middle" x="545" y="-36.1" font-family="Helvetica,sans-Serif" font-size="8.00">_handle</text>
</a>
</g>
</g>
<!-- Node1&#45;&gt;Node1 -->
<g id="edge1" class="edge">
<title>Node1&#45;&gt;Node1</title>
<path fill="none" stroke="midnightblue" d="M573.38,-83.75C569.05,-88.66 559.59,-92 545,-92 521.66,-92 511.44,-83.46 514.36,-73.58"/>
<polygon fill="midnightblue" stroke="midnightblue" points="576.89,-84.1 575.64,-73.58 570.06,-82.58 576.89,-84.1"/>
</g>
<!-- Node2 -->
<g id="node2" class="node">
<title>Node2</title>
<g id="a_node2"><a xlink:href="namespaceipc_1_1transport_1_1asio__local__stream__socket.html#a677a303f9f81cc5661bd2b34a29309f7" target="_top" xlink:title="Helper of async_write_with_native_handle() used as the callback executed when waiting for writability...">
<polygon fill="white" stroke="black" points="316,-64 316,-99 442,-99 442,-64 316,-64"/>
<text text-anchor="start" x="324" y="-88.6" font-family="Helvetica,sans-Serif" font-size="8.00">ipc::transport::asio</text>
<text text-anchor="start" x="324" y="-79.6" font-family="Helvetica,sans-Serif" font-size="8.00">_local_stream_socket</text>
<text text-anchor="middle" x="379" y="-70.6" font-family="Helvetica,sans-Serif" font-size="8.00">::on_wait_writable_or_error</text>
</a>
</g>
</g>
<!-- Node1&#45;&gt;Node2 -->
<g id="edge2" class="edge">
<title>Node1&#45;&gt;Node2</title>
<path fill="none" stroke="midnightblue" d="M467.78,-65.44C459.23,-67.01 450.58,-68.59 442.23,-70.12"/>
<polygon fill="midnightblue" stroke="midnightblue" points="468.56,-68.86 477.77,-63.62 467.3,-61.97 468.56,-68.86"/>
</g>
<!-- Node5 -->
<g id="node5" class="node">
<title>Node5</title>
<g id="a_node5"><a xlink:href="classipc_1_1transport_1_1sync__io_1_1Native__socket__stream_1_1Impl.html#af321a9b3ed8dc21f23988bf79c7c33f0" target="_top" xlink:title="Utility that sends non&#45;empty blob, and (unless null) hndl_or_null associated with its 1st byte,...">
<polygon fill="white" stroke="black" points="317.5,-0.5 317.5,-44.5 440.5,-44.5 440.5,-0.5 317.5,-0.5"/>
<text text-anchor="start" x="325.5" y="-34.1" font-family="Helvetica,sans-Serif" font-size="8.00">ipc::transport::sync</text>
<text text-anchor="start" x="325.5" y="-25.1" font-family="Helvetica,sans-Serif" font-size="8.00">_io::Native_socket_stream</text>
<text text-anchor="start" x="325.5" y="-16.1" font-family="Helvetica,sans-Serif" font-size="8.00">::Impl::snd_nb_write_low</text>
<text text-anchor="middle" x="379" y="-7.1" font-family="Helvetica,sans-Serif" font-size="8.00">_lvl_payload</text>
</a>
</g>
</g>
<!-- Node1&#45;&gt;Node5 -->
<g id="edge6" class="edge">
<title>Node1&#45;&gt;Node5</title>
<path fill="none" stroke="midnightblue" d="M467.91,-38.05C458.77,-36.43 449.53,-34.8 440.65,-33.22"/>
<polygon fill="midnightblue" stroke="midnightblue" points="467.31,-41.49 477.77,-39.79 468.53,-34.6 467.31,-41.49"/>
</g>
<!-- Node2&#45;&gt;Node2 -->
<g id="edge5" class="edge">
<title>Node2&#45;&gt;Node2</title>
<path fill="none" stroke="midnightblue" d="M406.52,-109.6C402.65,-114.27 393.48,-117.5 379,-117.5 355.24,-117.5 345.77,-108.81 350.6,-99.28"/>
<polygon fill="midnightblue" stroke="midnightblue" points="410.03,-109.54 407.4,-99.28 403.06,-108.95 410.03,-109.54"/>
</g>
<!-- Node3 -->
<g id="node3" class="node">
<title>Node3</title>
<g id="a_node3"><a xlink:href="namespaceipc_1_1transport_1_1asio__local__stream__socket.html#a68071e53f4a048084f8ad26ff3ac6711" target="_top" xlink:title="boost.asio extension similar to boost::asio::async_write(Peer_socket&amp;, Blob_const,...">
<polygon fill="white" stroke="black" points="159,-59.5 159,-103.5 280,-103.5 280,-59.5 159,-59.5"/>
<text text-anchor="start" x="167" y="-93.1" font-family="Helvetica,sans-Serif" font-size="8.00">ipc::transport::asio</text>
<text text-anchor="start" x="167" y="-84.1" font-family="Helvetica,sans-Serif" font-size="8.00">_local_stream_socket</text>
<text text-anchor="start" x="167" y="-75.1" font-family="Helvetica,sans-Serif" font-size="8.00">::async_write_with_native</text>
<text text-anchor="middle" x="219.5" y="-66.1" font-family="Helvetica,sans-Serif" font-size="8.00">_handle</text>
</a>
</g>
</g>
<!-- Node2&#45;&gt;Node3 -->
<g id="edge3" class="edge">
<title>Node2&#45;&gt;Node3</title>
<path fill="none" stroke="midnightblue" d="M305.51,-81.5C297.05,-81.5 288.5,-81.5 280.24,-81.5"/>
<polygon fill="midnightblue" stroke="midnightblue" points="305.75,-85 315.75,-81.5 305.75,-78 305.75,-85"/>
</g>
<!-- Node4 -->
<g id="node4" class="node">
<title>Node4</title>
<g id="a_node4"><a xlink:href="classipc_1_1transport_1_1sync__io_1_1Native__socket__stream_1_1Impl.html#a5e9ed53ef25f4413c8da315f8dbcff2c" target="_top" xlink:title="Initiates async&#45;write over m_peer_socket of the low&#45;level payload at the head of out&#45;queue m_snd_pend...">
<polygon fill="white" stroke="black" points="0,-59.5 0,-103.5 123,-103.5 123,-59.5 0,-59.5"/>
<text text-anchor="start" x="8" y="-93.1" font-family="Helvetica,sans-Serif" font-size="8.00">ipc::transport::sync</text>
<text text-anchor="start" x="8" y="-84.1" font-family="Helvetica,sans-Serif" font-size="8.00">_io::Native_socket_stream</text>
<text text-anchor="start" x="8" y="-75.1" font-family="Helvetica,sans-Serif" font-size="8.00">::Impl::snd_async_write</text>
<text text-anchor="middle" x="61.5" y="-66.1" font-family="Helvetica,sans-Serif" font-size="8.00">_q_head_payload</text>
</a>
</g>
</g>
<!-- Node3&#45;&gt;Node4 -->
<g id="edge4" class="edge">
<title>Node3&#45;&gt;Node4</title>
<path fill="none" stroke="midnightblue" d="M148.46,-81.5C140.04,-81.5 131.51,-81.5 123.24,-81.5"/>
<polygon fill="midnightblue" stroke="midnightblue" points="148.63,-85 158.63,-81.5 148.63,-78 148.63,-85"/>
</g>
</g>
</svg>
