<?xml version="1.0" encoding="UTF-8" standalone="no"?>
<!DOCTYPE svg PUBLIC "-//W3C//DTD SVG 1.1//EN"
 "http://www.w3.org/Graphics/SVG/1.1/DTD/svg11.dtd">
<!-- Generated by graphviz version 2.43.0 (0)
 -->
<!-- Title: ipc::util::pipe_consume Pages: 1 -->
<svg width="294pt" height="433pt"
 viewBox="0.00 0.00 294.00 433.00" xmlns="http://www.w3.org/2000/svg" xmlns:xlink="http://www.w3.org/1999/xlink">
<g id="graph0" class="graph" transform="scale(1 1) rotate(0) translate(4 429)">
<title>ipc::util::pipe_consume</title>
<polygon fill="white" stroke="transparent" points="-4,4 -4,-429 290,-429 290,4 -4,4"/>
<!-- Node1 -->
<g id="node1" class="node">
<title>Node1</title>
<g id="a_node1"><a xlink:title="Reads a byte via the given pipe reader.">
<polygon fill="#bfbfbf" stroke="black" points="173,-207.5 173,-224.5 286,-224.5 286,-207.5 173,-207.5"/>
<text text-anchor="middle" x="229.5" y="-214.1" font-family="Helvetica,sans-Serif" font-size="8.00">ipc::util::pipe_consume</text>
</a>
</g>
</g>
<!-- Node2 -->
<g id="node2" class="node">
<title>Node2</title>
<g id="a_node2"><a xlink:href="classipc_1_1session_1_1sync__io_1_1Session__server__adapter.html#a1fb20ad7f02e87bf93bff1a64e4b23fb" target="_top" xlink:title="Signaled by accept_write(), it returns the IPC&#45;pipe to steady&#45;state (empty, not readable),...">
<polygon fill="white" stroke="black" points="14,-389.5 14,-424.5 123,-424.5 123,-389.5 14,-389.5"/>
<text text-anchor="start" x="22" y="-414.1" font-family="Helvetica,sans-Serif" font-size="8.00">ipc::session::sync</text>
<text text-anchor="start" x="22" y="-405.1" font-family="Helvetica,sans-Serif" font-size="8.00">_io::Session_server</text>
<text text-anchor="middle" x="68.5" y="-396.1" font-family="Helvetica,sans-Serif" font-size="8.00">_adapter::accept_read</text>
</a>
</g>
</g>
<!-- Node1&#45;&gt;Node2 -->
<g id="edge1" class="edge">
<title>Node1&#45;&gt;Node2</title>
<path fill="none" stroke="midnightblue" d="M222.75,-234.68C211.53,-268.22 183.64,-339 137,-380 132.83,-383.67 128.1,-386.87 123.12,-389.66"/>
<polygon fill="midnightblue" stroke="midnightblue" points="226.19,-235.42 225.92,-224.82 219.53,-233.27 226.19,-235.42"/>
</g>
<!-- Node3 -->
<g id="node3" class="node">
<title>Node3</title>
<g id="a_node3"><a xlink:href="classipc_1_1transport_1_1Posix__mq__handle.html#a88e37b4835abbc491df222aebe31f46f" target="_top" xlink:title="Impl body for allow_*().">
<polygon fill="white" stroke="black" points="11.5,-344 11.5,-370 125.5,-370 125.5,-344 11.5,-344"/>
<text text-anchor="start" x="19.5" y="-359.6" font-family="Helvetica,sans-Serif" font-size="8.00">ipc::transport::Posix</text>
<text text-anchor="middle" x="68.5" y="-350.6" font-family="Helvetica,sans-Serif" font-size="8.00">_mq_handle::allow_impl</text>
</a>
</g>
</g>
<!-- Node1&#45;&gt;Node3 -->
<g id="edge2" class="edge">
<title>Node1&#45;&gt;Node3</title>
<path fill="none" stroke="midnightblue" d="M219.37,-233.44C205.11,-259.05 175.19,-306.75 137,-334 131.56,-337.88 125.41,-341.15 119.09,-343.89"/>
<polygon fill="midnightblue" stroke="midnightblue" points="222.52,-234.97 224.2,-224.51 216.37,-231.64 222.52,-234.97"/>
</g>
<!-- Node4 -->
<g id="node4" class="node">
<title>Node4</title>
<g id="a_node4"><a xlink:href="classipc_1_1transport_1_1sync__io_1_1Native__socket__stream__acceptor.html#ade5271c427a9ed514555482cc2509ed9" target="_top" xlink:title="Starts background attempt at a peer connection being established, contingent on the user reporting (v...">
<polygon fill="white" stroke="black" points="7,-289.5 7,-324.5 130,-324.5 130,-289.5 7,-289.5"/>
<text text-anchor="start" x="15" y="-314.1" font-family="Helvetica,sans-Serif" font-size="8.00">ipc::transport::sync</text>
<text text-anchor="start" x="15" y="-305.1" font-family="Helvetica,sans-Serif" font-size="8.00">_io::Native_socket_stream</text>
<text text-anchor="middle" x="68.5" y="-296.1" font-family="Helvetica,sans-Serif" font-size="8.00">_acceptor::async_accept</text>
</a>
</g>
</g>
<!-- Node1&#45;&gt;Node4 -->
<g id="edge3" class="edge">
<title>Node1&#45;&gt;Node4</title>
<path fill="none" stroke="midnightblue" d="M210.14,-230.75C192.22,-244.67 163.82,-265.51 137,-280 130.78,-283.36 124.05,-286.54 117.34,-289.46"/>
<polygon fill="midnightblue" stroke="midnightblue" points="212.34,-233.47 218.04,-224.53 208.01,-227.97 212.34,-233.47"/>
</g>
<!-- Node5 -->
<g id="node5" class="node">
<title>Node5</title>
<g id="a_node5"><a xlink:href="classipc_1_1transport_1_1sync__io_1_1Blob__stream__mq__sender__impl.html#a57737a56544ffac3cfd8d130663bb6ce" target="_top" xlink:title="Initiates async&#45;write over m_mq of the low&#45;level payload at the head of out&#45;queue m_pending_payloads_...">
<polygon fill="white" stroke="black" points="2,-226 2,-270 135,-270 135,-226 2,-226"/>
<text text-anchor="start" x="10" y="-259.6" font-family="Helvetica,sans-Serif" font-size="8.00">ipc::transport::sync</text>
<text text-anchor="start" x="10" y="-250.6" font-family="Helvetica,sans-Serif" font-size="8.00">_io::Blob_stream_mq_sender</text>
<text text-anchor="start" x="10" y="-241.6" font-family="Helvetica,sans-Serif" font-size="8.00">_impl::async_write_q_head</text>
<text text-anchor="middle" x="68.5" y="-232.6" font-family="Helvetica,sans-Serif" font-size="8.00">_payload</text>
</a>
</g>
</g>
<!-- Node1&#45;&gt;Node5 -->
<g id="edge4" class="edge">
<title>Node1&#45;&gt;Node5</title>
<path fill="none" stroke="midnightblue" d="M175.76,-226.61C162.81,-229.22 148.78,-232.05 135.29,-234.76"/>
<polygon fill="midnightblue" stroke="midnightblue" points="176.78,-229.98 185.89,-224.58 175.4,-223.12 176.78,-229.98"/>
</g>
<!-- Node6 -->
<g id="node6" class="node">
<title>Node6</title>
<g id="a_node6"><a xlink:href="classipc_1_1util_1_1sync__io_1_1Timer__event__emitter.html#a80a0549f49fafc358763e9325c31256b" target="_top" xlink:title="Must be called after a timer_async_wait()&#45;triggered timer fired, before invoking that method for the ...">
<polygon fill="white" stroke="black" points="13.5,-163 13.5,-207 123.5,-207 123.5,-163 13.5,-163"/>
<text text-anchor="start" x="21.5" y="-196.6" font-family="Helvetica,sans-Serif" font-size="8.00">ipc::util::sync_io</text>
<text text-anchor="start" x="21.5" y="-187.6" font-family="Helvetica,sans-Serif" font-size="8.00">::Timer_event_emitter</text>
<text text-anchor="start" x="21.5" y="-178.6" font-family="Helvetica,sans-Serif" font-size="8.00">::consume_timer_firing</text>
<text text-anchor="middle" x="68.5" y="-169.6" font-family="Helvetica,sans-Serif" font-size="8.00">_signal</text>
</a>
</g>
</g>
<!-- Node1&#45;&gt;Node6 -->
<g id="edge5" class="edge">
<title>Node1&#45;&gt;Node6</title>
<path fill="none" stroke="midnightblue" d="M174.65,-205.5C158.22,-202.3 140.16,-198.78 123.72,-195.57"/>
<polygon fill="midnightblue" stroke="midnightblue" points="174.15,-208.97 184.63,-207.45 175.49,-202.1 174.15,-208.97"/>
</g>
<!-- Node7 -->
<g id="node7" class="node">
<title>Node7</title>
<g id="a_node7"><a xlink:href="classipc_1_1session_1_1sync__io_1_1Session__adapter.html#a49853cc0cc44d2bb3ee20823d2b02ff5" target="_top" xlink:title="Signaled by the function returned by on_channel_func_sio(), it returns the IPC&#45;pipe to steady&#45;state (...">
<polygon fill="white" stroke="black" points="14.5,-108.5 14.5,-143.5 122.5,-143.5 122.5,-108.5 14.5,-108.5"/>
<text text-anchor="start" x="22.5" y="-133.1" font-family="Helvetica,sans-Serif" font-size="8.00">ipc::session::sync</text>
<text text-anchor="start" x="22.5" y="-124.1" font-family="Helvetica,sans-Serif" font-size="8.00">_io::Session_adapter</text>
<text text-anchor="middle" x="68.5" y="-115.1" font-family="Helvetica,sans-Serif" font-size="8.00">::on_ev_channel_open</text>
</a>
</g>
</g>
<!-- Node1&#45;&gt;Node7 -->
<g id="edge6" class="edge">
<title>Node1&#45;&gt;Node7</title>
<path fill="none" stroke="midnightblue" d="M208.93,-201.03C190.89,-187.64 163.03,-168.03 137,-154 130.19,-150.33 122.79,-146.82 115.47,-143.6"/>
<polygon fill="midnightblue" stroke="midnightblue" points="207.32,-204.19 217.41,-207.4 211.52,-198.59 207.32,-204.19"/>
</g>
<!-- Node8 -->
<g id="node8" class="node">
<title>Node8</title>
<g id="a_node8"><a xlink:href="classipc_1_1transport_1_1sync__io_1_1Blob__stream__mq__receiver__impl.html#a6c1e656d4ce90d13b4f2f38fa5ad5cf9" target="_top" xlink:title="Begins read chain (completing it as synchronously as possible, async&#45;completing the rest) for the nex...">
<polygon fill="white" stroke="black" points="0,-54.5 0,-89.5 137,-89.5 137,-54.5 0,-54.5"/>
<text text-anchor="start" x="8" y="-79.1" font-family="Helvetica,sans-Serif" font-size="8.00">ipc::transport::sync</text>
<text text-anchor="start" x="8" y="-70.1" font-family="Helvetica,sans-Serif" font-size="8.00">_io::Blob_stream_mq_receiver</text>
<text text-anchor="middle" x="68.5" y="-61.1" font-family="Helvetica,sans-Serif" font-size="8.00">_impl::read_msg</text>
</a>
</g>
</g>
<!-- Node1&#45;&gt;Node8 -->
<g id="edge7" class="edge">
<title>Node1&#45;&gt;Node8</title>
<path fill="none" stroke="midnightblue" d="M218.93,-198.59C204.31,-173.43 174.14,-126.88 137,-99 132.36,-95.52 127.2,-92.41 121.87,-89.66"/>
<polygon fill="midnightblue" stroke="midnightblue" points="215.94,-200.41 223.92,-207.39 222.03,-196.96 215.94,-200.41"/>
</g>
<!-- Node9 -->
<g id="node9" class="node">
<title>Node9</title>
<g id="a_node9"><a xlink:href="classipc_1_1session_1_1sync__io_1_1Session__adapter.html#ac9ff4515c84ff66ae8eafbf102c83df0" target="_top" xlink:title="See, e.g., Client_session_adapter.">
<polygon fill="white" stroke="black" points="17.5,-0.5 17.5,-35.5 119.5,-35.5 119.5,-0.5 17.5,-0.5"/>
<text text-anchor="start" x="25.5" y="-25.1" font-family="Helvetica,sans-Serif" font-size="8.00">ipc::session::sync</text>
<text text-anchor="start" x="25.5" y="-16.1" font-family="Helvetica,sans-Serif" font-size="8.00">_io::Session_adapter</text>
<text text-anchor="middle" x="68.5" y="-7.1" font-family="Helvetica,sans-Serif" font-size="8.00">::start_ops</text>
</a>
</g>
</g>
<!-- Node1&#45;&gt;Node9 -->
<g id="edge8" class="edge">
<title>Node1&#45;&gt;Node9</title>
<path fill="none" stroke="midnightblue" d="M223.27,-197.47C212.61,-162.9 185.22,-88.16 137,-45 131.92,-40.45 125.98,-36.63 119.77,-33.41"/>
<polygon fill="midnightblue" stroke="midnightblue" points="219.95,-198.6 226.15,-207.2 226.66,-196.61 219.95,-198.6"/>
</g>
</g>
</svg>
