<?xml version="1.0" encoding="UTF-8" standalone="no"?>
<!DOCTYPE svg PUBLIC "-//W3C//DTD SVG 1.1//EN"
 "http://www.w3.org/Graphics/SVG/1.1/DTD/svg11.dtd">
<!-- Generated by graphviz version 2.43.0 (0)
 -->
<!-- Title: ipc::util::pipe_consume Pages: 1 -->
<svg width="294pt" height="488pt"
 viewBox="0.00 0.00 294.00 488.00" xmlns="http://www.w3.org/2000/svg" xmlns:xlink="http://www.w3.org/1999/xlink">
<g id="graph0" class="graph" transform="scale(1 1) rotate(0) translate(4 484)">
<title>ipc::util::pipe_consume</title>
<polygon fill="white" stroke="transparent" points="-4,4 -4,-484 290,-484 290,4 -4,4"/>
<!-- Node1 -->
<g id="node1" class="node">
<title>Node1</title>
<g id="a_node1"><a xlink:title="Reads a byte via the given pipe reader.">
<polygon fill="#bfbfbf" stroke="black" points="173,-235.5 173,-252.5 286,-252.5 286,-235.5 173,-235.5"/>
<text text-anchor="middle" x="229.5" y="-242.1" font-family="Helvetica,sans-Serif" font-size="8.00">ipc::util::pipe_consume</text>
</a>
</g>
</g>
<!-- Node2 -->
<g id="node2" class="node">
<title>Node2</title>
<g id="a_node2"><a xlink:href="classipc_1_1session_1_1sync__io_1_1Session__server__adapter.html#a1fb20ad7f02e87bf93bff1a64e4b23fb" target="_top" xlink:title="Signaled by accept_write(), it returns the IPC&#45;pipe to steady&#45;state (empty, not readable),...">
<polygon fill="white" stroke="black" points="14,-444.5 14,-479.5 123,-479.5 123,-444.5 14,-444.5"/>
<text text-anchor="start" x="22" y="-469.1" font-family="Helvetica,sans-Serif" font-size="8.00">ipc::session::sync</text>
<text text-anchor="start" x="22" y="-460.1" font-family="Helvetica,sans-Serif" font-size="8.00">_io::Session_server</text>
<text text-anchor="middle" x="68.5" y="-451.1" font-family="Helvetica,sans-Serif" font-size="8.00">_adapter::accept_read</text>
</a>
</g>
</g>
<!-- Node1&#45;&gt;Node2 -->
<g id="edge1" class="edge">
<title>Node1&#45;&gt;Node2</title>
<path fill="none" stroke="midnightblue" d="M224.41,-262.59C215.23,-300.18 189.55,-385.82 137,-435 132.85,-438.88 128.08,-442.23 123.02,-445.12"/>
<polygon fill="midnightblue" stroke="midnightblue" points="227.89,-263.09 226.74,-252.56 221.07,-261.51 227.89,-263.09"/>
</g>
<!-- Node3 -->
<g id="node3" class="node">
<title>Node3</title>
<g id="a_node3"><a xlink:href="classipc_1_1transport_1_1Posix__mq__handle.html#a88e37b4835abbc491df222aebe31f46f" target="_top" xlink:title="Impl body for allow_*().">
<polygon fill="white" stroke="black" points="11.5,-399 11.5,-425 125.5,-425 125.5,-399 11.5,-399"/>
<text text-anchor="start" x="19.5" y="-414.6" font-family="Helvetica,sans-Serif" font-size="8.00">ipc::transport::Posix</text>
<text text-anchor="middle" x="68.5" y="-405.6" font-family="Helvetica,sans-Serif" font-size="8.00">_mq_handle::allow_impl</text>
</a>
</g>
</g>
<!-- Node1&#45;&gt;Node3 -->
<g id="edge2" class="edge">
<title>Node1&#45;&gt;Node3</title>
<path fill="none" stroke="midnightblue" d="M221.83,-261.99C209.64,-292.48 180.89,-354.36 137,-389 132.04,-392.91 126.38,-396.18 120.5,-398.9"/>
<polygon fill="midnightblue" stroke="midnightblue" points="225.12,-263.2 225.45,-252.61 218.59,-260.68 225.12,-263.2"/>
</g>
<!-- Node4 -->
<g id="node4" class="node">
<title>Node4</title>
<g id="a_node4"><a xlink:href="classipc_1_1transport_1_1sync__io_1_1Native__socket__stream__acceptor.html#ade5271c427a9ed514555482cc2509ed9" target="_top" xlink:title="Starts background attempt at a peer connection being established, contingent on the user reporting (v...">
<polygon fill="white" stroke="black" points="7,-344.5 7,-379.5 130,-379.5 130,-344.5 7,-344.5"/>
<text text-anchor="start" x="15" y="-369.1" font-family="Helvetica,sans-Serif" font-size="8.00">ipc::transport::sync</text>
<text text-anchor="start" x="15" y="-360.1" font-family="Helvetica,sans-Serif" font-size="8.00">_io::Native_socket_stream</text>
<text text-anchor="middle" x="68.5" y="-351.1" font-family="Helvetica,sans-Serif" font-size="8.00">_acceptor::async_accept</text>
</a>
</g>
</g>
<!-- Node1&#45;&gt;Node4 -->
<g id="edge3" class="edge">
<title>Node1&#45;&gt;Node4</title>
<path fill="none" stroke="midnightblue" d="M215.45,-260.57C198.99,-280.53 168.96,-313.99 137,-335 131.73,-338.47 125.94,-341.61 120.04,-344.42"/>
<polygon fill="midnightblue" stroke="midnightblue" points="218.26,-262.66 221.82,-252.68 212.82,-258.25 218.26,-262.66"/>
</g>
<!-- Node5 -->
<g id="node5" class="node">
<title>Node5</title>
<g id="a_node5"><a xlink:href="classipc_1_1transport_1_1sync__io_1_1Blob__stream__mq__sender__impl.html#a57737a56544ffac3cfd8d130663bb6ce" target="_top" xlink:title="Initiates async&#45;write over m_mq of the low&#45;level payload at the head of out&#45;queue m_pending_payloads_...">
<polygon fill="white" stroke="black" points="2,-281 2,-325 135,-325 135,-281 2,-281"/>
<text text-anchor="start" x="10" y="-314.6" font-family="Helvetica,sans-Serif" font-size="8.00">ipc::transport::sync</text>
<text text-anchor="start" x="10" y="-305.6" font-family="Helvetica,sans-Serif" font-size="8.00">_io::Blob_stream_mq_sender</text>
<text text-anchor="start" x="10" y="-296.6" font-family="Helvetica,sans-Serif" font-size="8.00">_impl::async_write_q_head</text>
<text text-anchor="middle" x="68.5" y="-287.6" font-family="Helvetica,sans-Serif" font-size="8.00">_payload</text>
</a>
</g>
</g>
<!-- Node1&#45;&gt;Node5 -->
<g id="edge4" class="edge">
<title>Node1&#45;&gt;Node5</title>
<path fill="none" stroke="midnightblue" d="M195.88,-256.11C176.63,-263.25 151.68,-272.51 129.04,-280.91"/>
<polygon fill="midnightblue" stroke="midnightblue" points="197.22,-259.34 205.38,-252.58 194.79,-252.78 197.22,-259.34"/>
</g>
<!-- Node6 -->
<g id="node6" class="node">
<title>Node6</title>
<g id="a_node6"><a xlink:href="classipc_1_1session_1_1sync__io_1_1Client__session__adapter.html#a96e355c01b24c88eb716a99fb591943b" target="_top" xlink:title="Signaled by conn_write(), it returns the IPC&#45;pipe to steady&#45;state (empty, not readable),...">
<polygon fill="white" stroke="black" points="18,-226.5 18,-261.5 119,-261.5 119,-226.5 18,-226.5"/>
<text text-anchor="start" x="26" y="-251.1" font-family="Helvetica,sans-Serif" font-size="8.00">ipc::session::sync</text>
<text text-anchor="start" x="26" y="-242.1" font-family="Helvetica,sans-Serif" font-size="8.00">_io::Client_session</text>
<text text-anchor="middle" x="68.5" y="-233.1" font-family="Helvetica,sans-Serif" font-size="8.00">_adapter::conn_read</text>
</a>
</g>
</g>
<!-- Node1&#45;&gt;Node6 -->
<g id="edge5" class="edge">
<title>Node1&#45;&gt;Node6</title>
<path fill="none" stroke="midnightblue" d="M162.49,-244C148.02,-244 132.94,-244 119.24,-244"/>
<polygon fill="midnightblue" stroke="midnightblue" points="162.89,-247.5 172.89,-244 162.89,-240.5 162.89,-247.5"/>
</g>
<!-- Node7 -->
<g id="node7" class="node">
<title>Node7</title>
<g id="a_node7"><a xlink:href="classipc_1_1util_1_1sync__io_1_1Timer__event__emitter.html#a80a0549f49fafc358763e9325c31256b" target="_top" xlink:title="Must be called after a timer_async_wait()&#45;triggered timer fired, before invoking that method for the ...">
<polygon fill="white" stroke="black" points="13.5,-163 13.5,-207 123.5,-207 123.5,-163 13.5,-163"/>
<text text-anchor="start" x="21.5" y="-196.6" font-family="Helvetica,sans-Serif" font-size="8.00">ipc::util::sync_io</text>
<text text-anchor="start" x="21.5" y="-187.6" font-family="Helvetica,sans-Serif" font-size="8.00">::Timer_event_emitter</text>
<text text-anchor="start" x="21.5" y="-178.6" font-family="Helvetica,sans-Serif" font-size="8.00">::consume_timer_firing</text>
<text text-anchor="middle" x="68.5" y="-169.6" font-family="Helvetica,sans-Serif" font-size="8.00">_signal</text>
</a>
</g>
</g>
<!-- Node1&#45;&gt;Node7 -->
<g id="edge6" class="edge">
<title>Node1&#45;&gt;Node7</title>
<path fill="none" stroke="midnightblue" d="M195.75,-231.85C174.96,-224.13 147.55,-213.96 123.59,-205.07"/>
<polygon fill="midnightblue" stroke="midnightblue" points="194.79,-235.22 205.38,-235.42 197.22,-228.66 194.79,-235.22"/>
</g>
<!-- Node8 -->
<g id="node8" class="node">
<title>Node8</title>
<g id="a_node8"><a xlink:href="classipc_1_1session_1_1sync__io_1_1Session__adapter.html#a49853cc0cc44d2bb3ee20823d2b02ff5" target="_top" xlink:title="Signaled by the function returned by on_channel_func_sio(), it returns the IPC&#45;pipe to steady&#45;state (...">
<polygon fill="white" stroke="black" points="14.5,-108.5 14.5,-143.5 122.5,-143.5 122.5,-108.5 14.5,-108.5"/>
<text text-anchor="start" x="22.5" y="-133.1" font-family="Helvetica,sans-Serif" font-size="8.00">ipc::session::sync</text>
<text text-anchor="start" x="22.5" y="-124.1" font-family="Helvetica,sans-Serif" font-size="8.00">_io::Session_adapter</text>
<text text-anchor="middle" x="68.5" y="-115.1" font-family="Helvetica,sans-Serif" font-size="8.00">::on_ev_channel_open</text>
</a>
</g>
</g>
<!-- Node1&#45;&gt;Node8 -->
<g id="edge7" class="edge">
<title>Node1&#45;&gt;Node8</title>
<path fill="none" stroke="midnightblue" d="M215.36,-227.69C198.82,-208.03 168.71,-175.01 137,-154 131.18,-150.15 124.75,-146.66 118.23,-143.55"/>
<polygon fill="midnightblue" stroke="midnightblue" points="212.71,-229.98 221.78,-235.46 218.11,-225.52 212.71,-229.98"/>
</g>
<!-- Node9 -->
<g id="node9" class="node">
<title>Node9</title>
<g id="a_node9"><a xlink:href="classipc_1_1transport_1_1sync__io_1_1Blob__stream__mq__receiver__impl.html#a6c1e656d4ce90d13b4f2f38fa5ad5cf9" target="_top" xlink:title="Begins read chain (completing it as synchronously as possible, async&#45;completing the rest) for the nex...">
<polygon fill="white" stroke="black" points="0,-54.5 0,-89.5 137,-89.5 137,-54.5 0,-54.5"/>
<text text-anchor="start" x="8" y="-79.1" font-family="Helvetica,sans-Serif" font-size="8.00">ipc::transport::sync</text>
<text text-anchor="start" x="8" y="-70.1" font-family="Helvetica,sans-Serif" font-size="8.00">_io::Blob_stream_mq_receiver</text>
<text text-anchor="middle" x="68.5" y="-61.1" font-family="Helvetica,sans-Serif" font-size="8.00">_impl::read_msg</text>
</a>
</g>
</g>
<!-- Node1&#45;&gt;Node9 -->
<g id="edge8" class="edge">
<title>Node1&#45;&gt;Node9</title>
<path fill="none" stroke="midnightblue" d="M221.46,-225.82C208.87,-195.54 179.77,-134.6 137,-99 132.73,-95.45 127.94,-92.32 122.92,-89.57"/>
<polygon fill="midnightblue" stroke="midnightblue" points="218.23,-227.19 225.22,-235.16 224.73,-224.57 218.23,-227.19"/>
</g>
<!-- Node10 -->
<g id="node10" class="node">
<title>Node10</title>
<g id="a_node10"><a xlink:href="classipc_1_1session_1_1sync__io_1_1Session__adapter.html#ac9ff4515c84ff66ae8eafbf102c83df0" target="_top" xlink:title="See, e.g., Client_session_adapter.">
<polygon fill="white" stroke="black" points="17.5,-0.5 17.5,-35.5 119.5,-35.5 119.5,-0.5 17.5,-0.5"/>
<text text-anchor="start" x="25.5" y="-25.1" font-family="Helvetica,sans-Serif" font-size="8.00">ipc::session::sync</text>
<text text-anchor="start" x="25.5" y="-16.1" font-family="Helvetica,sans-Serif" font-size="8.00">_io::Session_adapter</text>
<text text-anchor="middle" x="68.5" y="-7.1" font-family="Helvetica,sans-Serif" font-size="8.00">::start_ops</text>
</a>
</g>
</g>
<!-- Node1&#45;&gt;Node10 -->
<g id="edge9" class="edge">
<title>Node1&#45;&gt;Node10</title>
<path fill="none" stroke="midnightblue" d="M224.76,-225.15C216.11,-186.26 191.18,-96.51 137,-45 131.97,-40.22 125.98,-36.24 119.69,-32.95"/>
<polygon fill="midnightblue" stroke="midnightblue" points="221.37,-226.03 226.86,-235.09 228.22,-224.58 221.37,-226.03"/>
</g>
</g>
</svg>
