<?xml version="1.0" encoding="UTF-8" standalone="no"?>
<!DOCTYPE svg PUBLIC "-//W3C//DTD SVG 1.1//EN"
 "http://www.w3.org/Graphics/SVG/1.1/DTD/svg11.dtd">
<!-- Generated by graphviz version 2.43.0 (0)
 -->
<!-- Title: ipc::util::blob_data Pages: 1 -->
<svg width="580pt" height="471pt"
 viewBox="0.00 0.00 580.00 471.21" xmlns="http://www.w3.org/2000/svg" xmlns:xlink="http://www.w3.org/1999/xlink">
<g id="graph0" class="graph" transform="scale(1 1) rotate(0) translate(4 467.21)">
<title>ipc::util::blob_data</title>
<polygon fill="white" stroke="transparent" points="-4,4 -4,-467.21 576,-467.21 576,4 -4,4"/>
<!-- Node1 -->
<g id="node1" class="node">
<title>Node1</title>
<g id="a_node1"><a xlink:title="Syntactic&#45;sugary helper that returns pointer to first byte in an immutable buffer,...">
<polygon fill="#bfbfbf" stroke="black" points="478,-225 478,-242 572,-242 572,-225 478,-225"/>
<text text-anchor="middle" x="525" y="-231.6" font-family="Helvetica,sans-Serif" font-size="8.00">ipc::util::blob_data</text>
</a>
</g>
</g>
<!-- Node2 -->
<g id="node2" class="node">
<title>Node2</title>
<g id="a_node2"><a xlink:href="namespaceipc_1_1transport_1_1asio__local__stream__socket.html#a68071e53f4a048084f8ad26ff3ac6711" target="_top" xlink:title="boost.asio extension similar to boost::asio::async_write(Peer_socket&amp;, Blob_const,...">
<polygon fill="white" stroke="black" points="159,-406.5 159,-450.5 280,-450.5 280,-406.5 159,-406.5"/>
<text text-anchor="start" x="167" y="-440.1" font-family="Helvetica,sans-Serif" font-size="8.00">ipc::transport::asio</text>
<text text-anchor="start" x="167" y="-431.1" font-family="Helvetica,sans-Serif" font-size="8.00">_local_stream_socket</text>
<text text-anchor="start" x="167" y="-422.1" font-family="Helvetica,sans-Serif" font-size="8.00">::async_write_with_native</text>
<text text-anchor="middle" x="219.5" y="-413.1" font-family="Helvetica,sans-Serif" font-size="8.00">_handle</text>
</a>
</g>
</g>
<!-- Node1&#45;&gt;Node2 -->
<g id="edge1" class="edge">
<title>Node1&#45;&gt;Node2</title>
<path fill="none" stroke="midnightblue" d="M523.19,-252.35C520.21,-294.81 506.37,-397.68 442,-441.5 394.87,-473.58 328.2,-464.22 280.34,-450.62"/>
<polygon fill="midnightblue" stroke="midnightblue" points="526.68,-252.46 523.76,-242.28 519.7,-252.07 526.68,-252.46"/>
</g>
<!-- Node4 -->
<g id="node4" class="node">
<title>Node4</title>
<g id="a_node4"><a xlink:href="namespaceipc_1_1transport_1_1asio__local__stream__socket.html#a677a303f9f81cc5661bd2b34a29309f7" target="_top" xlink:title="Helper of async_write_with_native_handle() used as the callback executed when waiting for writability...">
<polygon fill="white" stroke="black" points="316,-379 316,-414 442,-414 442,-379 316,-379"/>
<text text-anchor="start" x="324" y="-403.6" font-family="Helvetica,sans-Serif" font-size="8.00">ipc::transport::asio</text>
<text text-anchor="start" x="324" y="-394.6" font-family="Helvetica,sans-Serif" font-size="8.00">_local_stream_socket</text>
<text text-anchor="middle" x="379" y="-385.6" font-family="Helvetica,sans-Serif" font-size="8.00">::on_wait_writable_or_error</text>
</a>
</g>
</g>
<!-- Node1&#45;&gt;Node4 -->
<g id="edge3" class="edge">
<title>Node1&#45;&gt;Node4</title>
<path fill="none" stroke="midnightblue" d="M517.33,-251.59C505.95,-280.17 480.25,-335.99 442,-369.5 437.94,-373.06 433.33,-376.21 428.51,-378.99"/>
<polygon fill="midnightblue" stroke="midnightblue" points="520.66,-252.66 520.98,-242.07 514.13,-250.15 520.66,-252.66"/>
</g>
<!-- Node5 -->
<g id="node5" class="node">
<title>Node5</title>
<g id="a_node5"><a xlink:href="classipc_1_1transport_1_1Bipc__mq__handle.html#a45e952a67d6568f6ef4834a3523a2ca4" target="_top" xlink:title="Implements Persistent_mq_handle API: Blocking send: pushes copy of message to queue; if queue is full...">
<polygon fill="white" stroke="black" points="331.5,-315.5 331.5,-341.5 426.5,-341.5 426.5,-315.5 331.5,-315.5"/>
<text text-anchor="start" x="339.5" y="-331.1" font-family="Helvetica,sans-Serif" font-size="8.00">ipc::transport::Bipc</text>
<text text-anchor="middle" x="379" y="-322.1" font-family="Helvetica,sans-Serif" font-size="8.00">_mq_handle::send</text>
</a>
</g>
</g>
<!-- Node1&#45;&gt;Node5 -->
<g id="edge6" class="edge">
<title>Node1&#45;&gt;Node5</title>
<path fill="none" stroke="midnightblue" d="M509.15,-250.02C493.75,-266.31 468.26,-290.96 442,-306.5 436.3,-309.87 430,-312.85 423.66,-315.43"/>
<polygon fill="midnightblue" stroke="midnightblue" points="512.02,-252.07 516.24,-242.35 506.88,-247.32 512.02,-252.07"/>
</g>
<!-- Node6 -->
<g id="node6" class="node">
<title>Node6</title>
<g id="a_node6"><a xlink:href="classipc_1_1transport_1_1Posix__mq__handle.html#a6e9b11537c7c83f43728aca7af348a42" target="_top" xlink:title="Implements Persistent_mq_handle API: Blocking send: pushes copy of message to queue; if queue is full...">
<polygon fill="white" stroke="black" points="329.5,-252.5 329.5,-278.5 428.5,-278.5 428.5,-252.5 329.5,-252.5"/>
<text text-anchor="start" x="337.5" y="-268.1" font-family="Helvetica,sans-Serif" font-size="8.00">ipc::transport::Posix</text>
<text text-anchor="middle" x="379" y="-259.1" font-family="Helvetica,sans-Serif" font-size="8.00">_mq_handle::send</text>
</a>
</g>
</g>
<!-- Node1&#45;&gt;Node6 -->
<g id="edge8" class="edge">
<title>Node1&#45;&gt;Node6</title>
<path fill="none" stroke="midnightblue" d="M475.3,-244.32C460.29,-247.66 443.77,-251.33 428.76,-254.66"/>
<polygon fill="midnightblue" stroke="midnightblue" points="476.41,-247.66 485.41,-242.08 474.89,-240.83 476.41,-247.66"/>
</g>
<!-- Node7 -->
<g id="node7" class="node">
<title>Node7</title>
<g id="a_node7"><a xlink:href="classipc_1_1transport_1_1Bipc__mq__handle.html#a8e486336f1dfffa1c397b725b95b175b" target="_top" xlink:title="Implements Persistent_mq_handle API: Blocking timed send: pushes copy of message to queue; if queue i...">
<polygon fill="white" stroke="black" points="319.5,-189.5 319.5,-215.5 438.5,-215.5 438.5,-189.5 319.5,-189.5"/>
<text text-anchor="start" x="327.5" y="-205.1" font-family="Helvetica,sans-Serif" font-size="8.00">ipc::transport::Bipc</text>
<text text-anchor="middle" x="379" y="-196.1" font-family="Helvetica,sans-Serif" font-size="8.00">_mq_handle::timed_send</text>
</a>
</g>
</g>
<!-- Node1&#45;&gt;Node7 -->
<g id="edge10" class="edge">
<title>Node1&#45;&gt;Node7</title>
<path fill="none" stroke="midnightblue" d="M474.42,-222.83C462.93,-220.35 450.59,-217.7 438.75,-215.15"/>
<polygon fill="midnightblue" stroke="midnightblue" points="473.76,-226.26 484.27,-224.95 475.23,-219.42 473.76,-226.26"/>
</g>
<!-- Node8 -->
<g id="node8" class="node">
<title>Node8</title>
<g id="a_node8"><a xlink:href="classipc_1_1transport_1_1Posix__mq__handle.html#abe2b3968c60945224ddfce119bcae018" target="_top" xlink:title="Implements Persistent_mq_handle API: Blocking timed send: pushes copy of message to queue; if queue i...">
<polygon fill="white" stroke="black" points="319.5,-126.5 319.5,-152.5 438.5,-152.5 438.5,-126.5 319.5,-126.5"/>
<text text-anchor="start" x="327.5" y="-142.1" font-family="Helvetica,sans-Serif" font-size="8.00">ipc::transport::Posix</text>
<text text-anchor="middle" x="379" y="-133.1" font-family="Helvetica,sans-Serif" font-size="8.00">_mq_handle::timed_send</text>
</a>
</g>
</g>
<!-- Node1&#45;&gt;Node8 -->
<g id="edge12" class="edge">
<title>Node1&#45;&gt;Node8</title>
<path fill="none" stroke="midnightblue" d="M502.41,-219.41C474.74,-201.35 427.15,-170.28 400.19,-152.68"/>
<polygon fill="midnightblue" stroke="midnightblue" points="500.68,-222.46 510.97,-224.99 504.51,-216.6 500.68,-222.46"/>
</g>
<!-- Node9 -->
<g id="node9" class="node">
<title>Node9</title>
<g id="a_node9"><a xlink:href="classipc_1_1transport_1_1Bipc__mq__handle.html#a4c3406cf8759017342ed295fcc833704" target="_top" xlink:title="Implements Persistent_mq_handle API: Non&#45;blocking send: pushes copy of message to queue and returns t...">
<polygon fill="white" stroke="black" points="326,-63.5 326,-89.5 432,-89.5 432,-63.5 326,-63.5"/>
<text text-anchor="start" x="334" y="-79.1" font-family="Helvetica,sans-Serif" font-size="8.00">ipc::transport::Bipc</text>
<text text-anchor="middle" x="379" y="-70.1" font-family="Helvetica,sans-Serif" font-size="8.00">_mq_handle::try_send</text>
</a>
</g>
</g>
<!-- Node1&#45;&gt;Node9 -->
<g id="edge14" class="edge">
<title>Node1&#45;&gt;Node9</title>
<path fill="none" stroke="midnightblue" d="M514.47,-216.08C500.71,-191.97 473.44,-147.98 442,-117.5 430.79,-106.63 416.32,-96.88 404.19,-89.61"/>
<polygon fill="midnightblue" stroke="midnightblue" points="511.43,-217.81 519.37,-224.82 517.54,-214.39 511.43,-217.81"/>
</g>
<!-- Node10 -->
<g id="node10" class="node">
<title>Node10</title>
<g id="a_node10"><a xlink:href="classipc_1_1transport_1_1Posix__mq__handle.html#a5787b3fe1eb2a7f5f6abda8b9536529b" target="_top" xlink:title="Implements Persistent_mq_handle API: Non&#45;blocking send: pushes copy of message to queue and returns t...">
<polygon fill="white" stroke="black" points="326,-0.5 326,-26.5 432,-26.5 432,-0.5 326,-0.5"/>
<text text-anchor="start" x="334" y="-16.1" font-family="Helvetica,sans-Serif" font-size="8.00">ipc::transport::Posix</text>
<text text-anchor="middle" x="379" y="-7.1" font-family="Helvetica,sans-Serif" font-size="8.00">_mq_handle::try_send</text>
</a>
</g>
</g>
<!-- Node1&#45;&gt;Node10 -->
<g id="edge16" class="edge">
<title>Node1&#45;&gt;Node10</title>
<path fill="none" stroke="midnightblue" d="M519.22,-214.99C509.52,-180.27 484.73,-104.41 442,-54.5 432.26,-43.13 418.62,-33.64 406.61,-26.67"/>
<polygon fill="midnightblue" stroke="midnightblue" points="515.86,-215.98 521.84,-224.73 522.62,-214.16 515.86,-215.98"/>
</g>
<!-- Node3 -->
<g id="node3" class="node">
<title>Node3</title>
<g id="a_node3"><a xlink:href="classipc_1_1transport_1_1sync__io_1_1Native__socket__stream_1_1Impl.html#a88ee235dd3a607a64d96cfba4f924782" target="_top" xlink:title="Initiates async&#45;write over m_peer_socket of the low&#45;level payload at the head of out&#45;queue m_snd_pend...">
<polygon fill="white" stroke="black" points="0,-406.5 0,-450.5 123,-450.5 123,-406.5 0,-406.5"/>
<text text-anchor="start" x="8" y="-440.1" font-family="Helvetica,sans-Serif" font-size="8.00">ipc::transport::sync</text>
<text text-anchor="start" x="8" y="-431.1" font-family="Helvetica,sans-Serif" font-size="8.00">_io::Native_socket_stream</text>
<text text-anchor="start" x="8" y="-422.1" font-family="Helvetica,sans-Serif" font-size="8.00">::Impl::snd_async_write</text>
<text text-anchor="middle" x="61.5" y="-413.1" font-family="Helvetica,sans-Serif" font-size="8.00">_q_head_payload</text>
</a>
</g>
</g>
<!-- Node2&#45;&gt;Node3 -->
<g id="edge2" class="edge">
<title>Node2&#45;&gt;Node3</title>
<path fill="none" stroke="midnightblue" d="M148.46,-428.5C140.04,-428.5 131.51,-428.5 123.24,-428.5"/>
<polygon fill="midnightblue" stroke="midnightblue" points="148.63,-432 158.63,-428.5 148.63,-425 148.63,-432"/>
</g>
<!-- Node4&#45;&gt;Node2 -->
<g id="edge4" class="edge">
<title>Node4&#45;&gt;Node2</title>
<path fill="none" stroke="midnightblue" d="M305.79,-411.17C297.24,-412.91 288.59,-414.67 280.24,-416.36"/>
<polygon fill="midnightblue" stroke="midnightblue" points="306.65,-414.57 315.75,-409.15 305.26,-407.71 306.65,-414.57"/>
</g>
<!-- Node4&#45;&gt;Node4 -->
<g id="edge5" class="edge">
<title>Node4&#45;&gt;Node4</title>
<path fill="none" stroke="midnightblue" d="M404.43,-424.6C400.86,-429.27 392.38,-432.5 379,-432.5 357.04,-432.5 348.29,-423.81 352.75,-414.28"/>
<polygon fill="midnightblue" stroke="midnightblue" points="407.94,-424.53 405.25,-414.28 400.96,-423.97 407.94,-424.53"/>
</g>
<!-- Node5&#45;&gt;Node5 -->
<g id="edge7" class="edge">
<title>Node5&#45;&gt;Node5</title>
<path fill="none" stroke="midnightblue" d="M405.28,-351.94C402.36,-356.64 393.6,-360 379,-360 355.05,-360 346.81,-350.96 354.3,-341.77"/>
<polygon fill="midnightblue" stroke="midnightblue" points="408.69,-351.12 403.7,-341.77 401.77,-352.19 408.69,-351.12"/>
</g>
<!-- Node6&#45;&gt;Node6 -->
<g id="edge9" class="edge">
<title>Node6&#45;&gt;Node6</title>
<path fill="none" stroke="midnightblue" d="M405.28,-288.94C402.36,-293.64 393.6,-297 379,-297 355.05,-297 346.81,-287.96 354.3,-278.77"/>
<polygon fill="midnightblue" stroke="midnightblue" points="408.69,-288.12 403.7,-278.77 401.77,-289.19 408.69,-288.12"/>
</g>
<!-- Node7&#45;&gt;Node7 -->
<g id="edge11" class="edge">
<title>Node7&#45;&gt;Node7</title>
<path fill="none" stroke="midnightblue" d="M405.28,-225.94C402.36,-230.64 393.6,-234 379,-234 355.05,-234 346.81,-224.96 354.3,-215.77"/>
<polygon fill="midnightblue" stroke="midnightblue" points="408.69,-225.12 403.7,-215.77 401.77,-226.19 408.69,-225.12"/>
</g>
<!-- Node8&#45;&gt;Node8 -->
<g id="edge13" class="edge">
<title>Node8&#45;&gt;Node8</title>
<path fill="none" stroke="midnightblue" d="M405.28,-162.94C402.36,-167.64 393.6,-171 379,-171 355.05,-171 346.81,-161.96 354.3,-152.77"/>
<polygon fill="midnightblue" stroke="midnightblue" points="408.69,-162.12 403.7,-152.77 401.77,-163.19 408.69,-162.12"/>
</g>
<!-- Node9&#45;&gt;Node9 -->
<g id="edge15" class="edge">
<title>Node9&#45;&gt;Node9</title>
<path fill="none" stroke="midnightblue" d="M405.28,-99.94C402.36,-104.64 393.6,-108 379,-108 355.05,-108 346.81,-98.96 354.3,-89.77"/>
<polygon fill="midnightblue" stroke="midnightblue" points="408.69,-99.12 403.7,-89.77 401.77,-100.19 408.69,-99.12"/>
</g>
<!-- Node10&#45;&gt;Node10 -->
<g id="edge17" class="edge">
<title>Node10&#45;&gt;Node10</title>
<path fill="none" stroke="midnightblue" d="M405.28,-36.94C402.36,-41.64 393.6,-45 379,-45 355.05,-45 346.81,-35.96 354.3,-26.77"/>
<polygon fill="midnightblue" stroke="midnightblue" points="408.69,-36.12 403.7,-26.77 401.77,-37.19 408.69,-36.12"/>
</g>
</g>
</svg>
