<?xml version="1.0" encoding="UTF-8" standalone="no"?>
<!DOCTYPE svg PUBLIC "-//W3C//DTD SVG 1.1//EN"
 "http://www.w3.org/Graphics/SVG/1.1/DTD/svg11.dtd">
<!-- Generated by graphviz version 2.43.0 (0)
 -->
<!-- Title: ipc::util::operator== Pages: 1 -->
<svg width="401pt" height="154pt"
 viewBox="0.00 0.00 401.00 153.50" xmlns="http://www.w3.org/2000/svg" xmlns:xlink="http://www.w3.org/1999/xlink">
<g id="graph0" class="graph" transform="scale(1 1) rotate(0) translate(4 149.5)">
<title>ipc::util::operator==</title>
<polygon fill="white" stroke="transparent" points="-4,4 -4,-149.5 397,-149.5 397,4 -4,4"/>
<!-- Node1 -->
<g id="node1" class="node">
<title>Node1</title>
<g id="a_node1"><a xlink:title="Returns true if and only if the two Native_handle objects are the same underlying handle.">
<polygon fill="#bfbfbf" stroke="black" points="291,-61.5 291,-78.5 393,-78.5 393,-61.5 291,-61.5"/>
<text text-anchor="middle" x="342" y="-68.1" font-family="Helvetica,sans-Serif" font-size="8.00">ipc::util::operator==</text>
</a>
</g>
</g>
<!-- Node2 -->
<g id="node2" class="node">
<title>Node2</title>
<g id="a_node2"><a xlink:href="classipc_1_1util_1_1Process__credentials.html#aaf94b5903f4e0aa2f2699867dd8971ef" target="_top" xlink:title="Checks for by&#45;value inequality between two Process_credentials objects.">
<polygon fill="white" stroke="black" points="138,-119 138,-145 255,-145 255,-119 138,-119"/>
<text text-anchor="start" x="146" y="-134.6" font-family="Helvetica,sans-Serif" font-size="8.00">ipc::util::Process</text>
<text text-anchor="middle" x="196.5" y="-125.6" font-family="Helvetica,sans-Serif" font-size="8.00">_credentials::operator!=</text>
</a>
</g>
</g>
<!-- Node1&#45;&gt;Node2 -->
<g id="edge1" class="edge">
<title>Node1&#45;&gt;Node2</title>
<path fill="none" stroke="midnightblue" d="M313.41,-82.89C296.61,-90.65 274.67,-100.61 255,-109 247.19,-112.33 238.72,-115.8 230.75,-119"/>
<polygon fill="midnightblue" stroke="midnightblue" points="315.05,-85.99 322.65,-78.61 312.11,-79.64 315.05,-85.99"/>
</g>
<!-- Node3 -->
<g id="node3" class="node">
<title>Node3</title>
<g id="a_node3"><a xlink:href="namespaceipc_1_1util.html#aec185fc5e2e88206d1366de8ce42f732" target="_top" xlink:title="Negation of similar ==.">
<polygon fill="white" stroke="black" points="147.5,-82.5 147.5,-99.5 245.5,-99.5 245.5,-82.5 147.5,-82.5"/>
<text text-anchor="middle" x="196.5" y="-89.1" font-family="Helvetica,sans-Serif" font-size="8.00">ipc::util::operator!=</text>
</a>
</g>
</g>
<!-- Node1&#45;&gt;Node3 -->
<g id="edge2" class="edge">
<title>Node1&#45;&gt;Node3</title>
<path fill="none" stroke="midnightblue" d="M280.75,-78.82C269.15,-80.51 257.14,-82.27 245.97,-83.91"/>
<polygon fill="midnightblue" stroke="midnightblue" points="281.42,-82.26 290.81,-77.34 280.41,-75.33 281.42,-82.26"/>
</g>
<!-- Node4 -->
<g id="node4" class="node">
<title>Node4</title>
<g id="a_node4"><a xlink:href="structipc_1_1util_1_1Native__handle.html#aacbd7ee43d4912a8790a228dc7cf682d" target="_top" xlink:title="Negation of similar ==.">
<polygon fill="white" stroke="black" points="140.5,-37 140.5,-63 252.5,-63 252.5,-37 140.5,-37"/>
<text text-anchor="start" x="148.5" y="-52.6" font-family="Helvetica,sans-Serif" font-size="8.00">ipc::util::Native_handle</text>
<text text-anchor="middle" x="196.5" y="-43.6" font-family="Helvetica,sans-Serif" font-size="8.00">::operator!=</text>
</a>
</g>
</g>
<!-- Node1&#45;&gt;Node4 -->
<g id="edge3" class="edge">
<title>Node1&#45;&gt;Node4</title>
<path fill="none" stroke="midnightblue" d="M280.85,-61.62C271.56,-60.32 261.99,-58.99 252.8,-57.71"/>
<polygon fill="midnightblue" stroke="midnightblue" points="280.42,-65.09 290.81,-63 281.39,-58.16 280.42,-65.09"/>
</g>
<!-- Node5 -->
<g id="node5" class="node">
<title>Node5</title>
<g id="a_node5"><a xlink:href="namespaceipc_1_1util.html#a97a7c8e6330909a1371134a7bdcea788" target="_top" xlink:title="Returns true if and only if string(val1) == val2.str().">
<polygon fill="white" stroke="black" points="145.5,-0.5 145.5,-17.5 247.5,-17.5 247.5,-0.5 145.5,-0.5"/>
<text text-anchor="middle" x="196.5" y="-7.1" font-family="Helvetica,sans-Serif" font-size="8.00">ipc::util::operator==</text>
</a>
</g>
</g>
<!-- Node1&#45;&gt;Node5 -->
<g id="edge4" class="edge">
<title>Node1&#45;&gt;Node5</title>
<path fill="none" stroke="midnightblue" d="M315.92,-56.63C298.98,-47.89 275.97,-36.54 255,-28 245.65,-24.19 235.23,-20.57 225.85,-17.53"/>
<polygon fill="midnightblue" stroke="midnightblue" points="314.64,-59.92 325.13,-61.44 317.88,-53.71 314.64,-59.92"/>
</g>
<!-- Node6 -->
<g id="node6" class="node">
<title>Node6</title>
<g id="a_node6"><a xlink:href="namespaceipc_1_1util.html#a5023285f7dd8a117686f0ee986e685cb" target="_top" xlink:title="Returns true if and only if val1.str() == string(val2).">
<polygon fill="white" stroke="black" points="0,-0.5 0,-17.5 102,-17.5 102,-0.5 0,-0.5"/>
<text text-anchor="middle" x="51" y="-7.1" font-family="Helvetica,sans-Serif" font-size="8.00">ipc::util::operator==</text>
</a>
</g>
</g>
<!-- Node5&#45;&gt;Node6 -->
<g id="edge5" class="edge">
<title>Node5&#45;&gt;Node6</title>
<path fill="none" stroke="midnightblue" d="M135.03,-9C124.17,-9 112.95,-9 102.4,-9"/>
<polygon fill="midnightblue" stroke="midnightblue" points="135.31,-12.5 145.31,-9 135.31,-5.5 135.31,-12.5"/>
</g>
</g>
</svg>
