<?xml version="1.0" encoding="UTF-8" standalone="no"?>
<!DOCTYPE svg PUBLIC "-//W3C//DTD SVG 1.1//EN"
 "http://www.w3.org/Graphics/SVG/1.1/DTD/svg11.dtd">
<!-- Generated by graphviz version 2.43.0 (0)
 -->
<!-- Title: ipc::transport::struc::shm::error::operator&lt;&lt; Pages: 1 -->
<svg width="272pt" height="44pt"
 viewBox="0.00 0.00 272.00 44.00" xmlns="http://www.w3.org/2000/svg" xmlns:xlink="http://www.w3.org/1999/xlink">
<g id="graph0" class="graph" transform="scale(1 1) rotate(0) translate(4 40)">
<title>ipc::transport::struc::shm::error::operator&lt;&lt;</title>
<polygon fill="white" stroke="transparent" points="-4,4 -4,-40 268,-40 268,4 -4,4"/>
<!-- Node1 -->
<g id="node1" class="node">
<title>Node1</title>
<g id="a_node1"><a xlink:title="Analogous to transport::error::operator&lt;&lt;().">
<polygon fill="#bfbfbf" stroke="black" points="0,-5 0,-31 120,-31 120,-5 0,-5"/>
<text text-anchor="start" x="8" y="-20.6" font-family="Helvetica,sans-Serif" font-size="8.00">ipc::transport::struc</text>
<text text-anchor="middle" x="60" y="-11.6" font-family="Helvetica,sans-Serif" font-size="8.00">::shm::error::operator&lt;&lt;</text>
</a>
</g>
</g>
<!-- Node2 -->
<g id="node2" class="node">
<title>Node2</title>
<g id="a_node2"><a xlink:href="classipc_1_1transport_1_1struc_1_1shm_1_1error_1_1Category.html#a88c17f7cc9d8c1f1329a48d5179308f6" target="_top" xlink:title="Analogous to transport::error::Category::name().">
<polygon fill="white" stroke="black" points="156,-0.5 156,-35.5 264,-35.5 264,-0.5 156,-0.5"/>
<text text-anchor="start" x="164" y="-25.1" font-family="Helvetica,sans-Serif" font-size="8.00">ipc::transport::struc</text>
<text text-anchor="start" x="164" y="-16.1" font-family="Helvetica,sans-Serif" font-size="8.00">::shm::error::Category</text>
<text text-anchor="middle" x="210" y="-7.1" font-family="Helvetica,sans-Serif" font-size="8.00">::code_symbol</text>
</a>
</g>
</g>
<!-- Node1&#45;&gt;Node2 -->
<g id="edge1" class="edge">
<title>Node1&#45;&gt;Node2</title>
<path fill="none" stroke="midnightblue" d="M120.34,-18C128.69,-18 137.3,-18 145.72,-18"/>
<polygon fill="midnightblue" stroke="midnightblue" points="145.86,-21.5 155.86,-18 145.86,-14.5 145.86,-21.5"/>
</g>
</g>
</svg>
