<?xml version="1.0" encoding="UTF-8" standalone="no"?>
<!DOCTYPE svg PUBLIC "-//W3C//DTD SVG 1.1//EN"
 "http://www.w3.org/Graphics/SVG/1.1/DTD/svg11.dtd">
<!-- Generated by graphviz version 2.43.0 (0)
 -->
<!-- Title: ipc::session::shm::arena_lend::jemalloc::error::operator&lt;&lt; Pages: 1 -->
<svg width="258pt" height="53pt"
 viewBox="0.00 0.00 258.00 53.00" xmlns="http://www.w3.org/2000/svg" xmlns:xlink="http://www.w3.org/1999/xlink">
<g id="graph0" class="graph" transform="scale(1 1) rotate(0) translate(4 49)">
<title>ipc::session::shm::arena_lend::jemalloc::error::operator&lt;&lt;</title>
<polygon fill="white" stroke="transparent" points="-4,4 -4,-49 254,-49 254,4 -4,4"/>
<!-- Node1 -->
<g id="node1" class="node">
<title>Node1</title>
<g id="a_node1"><a xlink:title="Analogous to transport::error::operator&lt;&lt;().">
<polygon fill="#bfbfbf" stroke="black" points="0,-5 0,-40 103,-40 103,-5 0,-5"/>
<text text-anchor="start" x="8" y="-29.6" font-family="Helvetica,sans-Serif" font-size="8.00">ipc::session::shm::</text>
<text text-anchor="start" x="8" y="-20.6" font-family="Helvetica,sans-Serif" font-size="8.00">arena_lend::jemalloc</text>
<text text-anchor="middle" x="51.5" y="-11.6" font-family="Helvetica,sans-Serif" font-size="8.00">::error::operator&lt;&lt;</text>
</a>
</g>
</g>
<!-- Node2 -->
<g id="node2" class="node">
<title>Node2</title>
<g id="a_node2"><a xlink:href="classipc_1_1session_1_1shm_1_1arena__lend_1_1jemalloc_1_1error_1_1Category.html#a1bf4db3255551d4ca55468c5938f9edd" target="_top" xlink:title="Analogous to transport::error::Category::name().">
<polygon fill="white" stroke="black" points="139,-0.5 139,-44.5 250,-44.5 250,-0.5 139,-0.5"/>
<text text-anchor="start" x="147" y="-34.1" font-family="Helvetica,sans-Serif" font-size="8.00">ipc::session::shm::</text>
<text text-anchor="start" x="147" y="-25.1" font-family="Helvetica,sans-Serif" font-size="8.00">arena_lend::jemalloc</text>
<text text-anchor="start" x="147" y="-16.1" font-family="Helvetica,sans-Serif" font-size="8.00">::error::Category::code</text>
<text text-anchor="middle" x="194.5" y="-7.1" font-family="Helvetica,sans-Serif" font-size="8.00">_symbol</text>
</a>
</g>
</g>
<!-- Node1&#45;&gt;Node2 -->
<g id="edge1" class="edge">
<title>Node1&#45;&gt;Node2</title>
<path fill="none" stroke="midnightblue" d="M103.01,-22.5C111.21,-22.5 119.8,-22.5 128.3,-22.5"/>
<polygon fill="midnightblue" stroke="midnightblue" points="128.57,-26 138.57,-22.5 128.57,-19 128.57,-26"/>
</g>
</g>
</svg>
