<?xml version="1.0" encoding="UTF-8" standalone="no"?>
<!DOCTYPE svg PUBLIC "-//W3C//DTD SVG 1.1//EN"
 "http://www.w3.org/Graphics/SVG/1.1/DTD/svg11.dtd">
<!-- Generated by graphviz version 2.43.0 (0)
 -->
<!-- Title: ipc::transport::struc::shm::capnp_set_lent_shm_handle Pages: 1 -->
<svg width="264pt" height="44pt"
 viewBox="0.00 0.00 264.00 44.00" xmlns="http://www.w3.org/2000/svg" xmlns:xlink="http://www.w3.org/1999/xlink">
<g id="graph0" class="graph" transform="scale(1 1) rotate(0) translate(4 40)">
<title>ipc::transport::struc::shm::capnp_set_lent_shm_handle</title>
<polygon fill="white" stroke="transparent" points="-4,4 -4,-40 260,-40 260,4 -4,4"/>
<!-- Node1 -->
<g id="node1" class="node">
<title>Node1</title>
<g id="a_node1"><a xlink:title="Utility that saves the result of a Shm_session1::lend_object&lt;T&gt;(const shared_ptr&lt;T&gt;&amp;) result into the...">
<polygon fill="#bfbfbf" stroke="black" points="149,-0.5 149,-35.5 256,-35.5 256,-0.5 149,-0.5"/>
<text text-anchor="start" x="157" y="-25.1" font-family="Helvetica,sans-Serif" font-size="8.00">ipc::transport::struc</text>
<text text-anchor="start" x="157" y="-16.1" font-family="Helvetica,sans-Serif" font-size="8.00">::shm::capnp_set_lent</text>
<text text-anchor="middle" x="202.5" y="-7.1" font-family="Helvetica,sans-Serif" font-size="8.00">_shm_handle</text>
</a>
</g>
</g>
<!-- Node2 -->
<g id="node2" class="node">
<title>Node2</title>
<g id="a_node2"><a xlink:href="classipc_1_1transport_1_1struc_1_1shm_1_1Capnp__message__builder.html#adde965642bf6f38036dfc31f0b9e75f4" target="_top" xlink:title="To be called after being done mutating underlying structured data, increments owner&#45;process count by ...">
<polygon fill="white" stroke="black" points="0,-0.5 0,-35.5 113,-35.5 113,-0.5 0,-0.5"/>
<text text-anchor="start" x="8" y="-25.1" font-family="Helvetica,sans-Serif" font-size="8.00">ipc::transport::struc</text>
<text text-anchor="start" x="8" y="-16.1" font-family="Helvetica,sans-Serif" font-size="8.00">::shm::Capnp_message</text>
<text text-anchor="middle" x="56.5" y="-7.1" font-family="Helvetica,sans-Serif" font-size="8.00">_builder::lend</text>
</a>
</g>
</g>
<!-- Node1&#45;&gt;Node2 -->
<g id="edge1" class="edge">
<title>Node1&#45;&gt;Node2</title>
<path fill="none" stroke="midnightblue" d="M138.53,-18C130.1,-18 121.5,-18 113.2,-18"/>
<polygon fill="midnightblue" stroke="midnightblue" points="138.7,-21.5 148.7,-18 138.7,-14.5 138.7,-21.5"/>
</g>
</g>
</svg>
