<?xml version="1.0" encoding="UTF-8" standalone="no"?>
<!DOCTYPE svg PUBLIC "-//W3C//DTD SVG 1.1//EN"
 "http://www.w3.org/Graphics/SVG/1.1/DTD/svg11.dtd">
<!-- Generated by graphviz version 2.43.0 (0)
 -->
<!-- Title: ipc::util::set_resource_permissions Pages: 1 -->
<svg width="259pt" height="98pt"
 viewBox="0.00 0.00 259.00 98.00" xmlns="http://www.w3.org/2000/svg" xmlns:xlink="http://www.w3.org/1999/xlink">
<g id="graph0" class="graph" transform="scale(1 1) rotate(0) translate(4 94)">
<title>ipc::util::set_resource_permissions</title>
<polygon fill="white" stroke="transparent" points="-4,4 -4,-94 255,-94 255,4 -4,4"/>
<!-- Node1 -->
<g id="node1" class="node">
<title>Node1</title>
<g id="a_node1"><a xlink:title="Utility that sets the permissions of the given resource (at the supplied file system path) to specifi...">
<polygon fill="#bfbfbf" stroke="black" points="145,-32 145,-58 251,-58 251,-32 145,-32"/>
<text text-anchor="start" x="153" y="-47.6" font-family="Helvetica,sans-Serif" font-size="8.00">ipc::util::set_resource</text>
<text text-anchor="middle" x="198" y="-38.6" font-family="Helvetica,sans-Serif" font-size="8.00">_permissions</text>
</a>
</g>
</g>
<!-- Node1&#45;&gt;Node1 -->
<g id="edge3" class="edge">
<title>Node1&#45;&gt;Node1</title>
<path fill="none" stroke="midnightblue" d="M223.56,-68.44C220.72,-73.14 212.2,-76.5 198,-76.5 174.7,-76.5 166.69,-67.46 173.98,-58.27"/>
<polygon fill="midnightblue" stroke="midnightblue" points="226.98,-67.64 222.02,-58.27 220.05,-68.68 226.98,-67.64"/>
</g>
<!-- Node2 -->
<g id="node2" class="node">
<title>Node2</title>
<g id="a_node2"><a xlink:href="classipc_1_1transport_1_1Posix__mq__handle.html#af5471cf5d7a11cf725e291fad962a636" target="_top" xlink:title="Helper ctor delegated by the 2 public ctors that take Open_or_create or Create_only mode.">
<polygon fill="white" stroke="black" points="0,-54.5 0,-89.5 109,-89.5 109,-54.5 0,-54.5"/>
<text text-anchor="start" x="8" y="-79.1" font-family="Helvetica,sans-Serif" font-size="8.00">ipc::transport::Posix</text>
<text text-anchor="start" x="8" y="-70.1" font-family="Helvetica,sans-Serif" font-size="8.00">_mq_handle::Posix_mq</text>
<text text-anchor="middle" x="54.5" y="-61.1" font-family="Helvetica,sans-Serif" font-size="8.00">_handle</text>
</a>
</g>
</g>
<!-- Node1&#45;&gt;Node2 -->
<g id="edge1" class="edge">
<title>Node1&#45;&gt;Node2</title>
<path fill="none" stroke="midnightblue" d="M134.88,-56.85C126.41,-58.47 117.77,-60.12 109.47,-61.7"/>
<polygon fill="midnightblue" stroke="midnightblue" points="135.55,-60.29 144.71,-54.98 134.23,-53.41 135.55,-60.29"/>
</g>
<!-- Node3 -->
<g id="node3" class="node">
<title>Node3</title>
<g id="a_node3"><a xlink:href="classipc_1_1session_1_1Session__server__impl.html#a9bf4d5502b41c98a98fee4cc3c2f2530" target="_top" xlink:title="See Session_server ctor; it does that.">
<polygon fill="white" stroke="black" points="2,-0.5 2,-35.5 107,-35.5 107,-0.5 2,-0.5"/>
<text text-anchor="start" x="10" y="-25.1" font-family="Helvetica,sans-Serif" font-size="8.00">ipc::session::Session</text>
<text text-anchor="start" x="10" y="-16.1" font-family="Helvetica,sans-Serif" font-size="8.00">_server_impl::Session</text>
<text text-anchor="middle" x="54.5" y="-7.1" font-family="Helvetica,sans-Serif" font-size="8.00">_server_impl</text>
</a>
</g>
</g>
<!-- Node1&#45;&gt;Node3 -->
<g id="edge2" class="edge">
<title>Node1&#45;&gt;Node3</title>
<path fill="none" stroke="midnightblue" d="M134.79,-33.13C125.54,-31.36 116.1,-29.56 107.1,-27.85"/>
<polygon fill="midnightblue" stroke="midnightblue" points="134.23,-36.59 144.71,-35.02 135.55,-29.71 134.23,-36.59"/>
</g>
</g>
</svg>
