<?xml version="1.0" encoding="UTF-8" standalone="no"?>
<!DOCTYPE svg PUBLIC "-//W3C//DTD SVG 1.1//EN"
 "http://www.w3.org/Graphics/SVG/1.1/DTD/svg11.dtd">
<!-- Generated by graphviz version 2.43.0 (0)
 -->
<!-- Title: ipc::session::decompose_conventional_shared_name Pages: 1 -->
<svg width="439pt" height="108pt"
 viewBox="0.00 0.00 439.00 107.50" xmlns="http://www.w3.org/2000/svg" xmlns:xlink="http://www.w3.org/1999/xlink">
<g id="graph0" class="graph" transform="scale(1 1) rotate(0) translate(4 103.5)">
<title>ipc::session::decompose_conventional_shared_name</title>
<polygon fill="white" stroke="transparent" points="-4,4 -4,-103.5 435,-103.5 435,4 -4,4"/>
<!-- Node1 -->
<g id="node1" class="node">
<title>Node1</title>
<g id="a_node1"><a xlink:title="Decomposes a Shared_name built as&#45;if by build_conventional_shared_name() overload 1 (non&#45;global&#45;scope...">
<polygon fill="#bfbfbf" stroke="black" points="298,-34 298,-60 431,-60 431,-34 298,-34"/>
<text text-anchor="start" x="306" y="-49.6" font-family="Helvetica,sans-Serif" font-size="8.00">ipc::session::decompose</text>
<text text-anchor="middle" x="364.5" y="-40.6" font-family="Helvetica,sans-Serif" font-size="8.00">_conventional_shared_name</text>
</a>
</g>
</g>
<!-- Node2 -->
<g id="node2" class="node">
<title>Node2</title>
<g id="a_node2"><a xlink:href="classipc_1_1session_1_1shm_1_1arena__lend_1_1jemalloc_1_1Client__session__impl.html#a697e64450297808bb9ca5c6a870c1fe9" target="_top" xlink:title="Invoked on m_async_cleanup_worker, performs a round of the SHM&#45;pool cleanup algorithm and schedules s...">
<polygon fill="white" stroke="black" points="149,-55 149,-99 252,-99 252,-55 149,-55"/>
<text text-anchor="start" x="157" y="-88.6" font-family="Helvetica,sans-Serif" font-size="8.00">ipc::session::shm::</text>
<text text-anchor="start" x="157" y="-79.6" font-family="Helvetica,sans-Serif" font-size="8.00">arena_lend::jemalloc</text>
<text text-anchor="start" x="157" y="-70.6" font-family="Helvetica,sans-Serif" font-size="8.00">::Client_session_impl</text>
<text text-anchor="middle" x="200.5" y="-61.6" font-family="Helvetica,sans-Serif" font-size="8.00">::cleanup</text>
</a>
</g>
</g>
<!-- Node1&#45;&gt;Node2 -->
<g id="edge1" class="edge">
<title>Node1&#45;&gt;Node2</title>
<path fill="none" stroke="midnightblue" d="M287.64,-61.05C275.7,-63.26 263.62,-65.5 252.42,-67.57"/>
<polygon fill="midnightblue" stroke="midnightblue" points="288.41,-64.46 297.61,-59.2 287.14,-57.58 288.41,-64.46"/>
</g>
<!-- Node4 -->
<g id="node4" class="node">
<title>Node4</title>
<g id="a_node4"><a xlink:href="classipc_1_1session_1_1shm_1_1arena__lend_1_1jemalloc_1_1Session__server.html#aafb28832358d6f75f363b932c291884f" target="_top" xlink:title="Invoked on m_async_cleanup_worker, performs a round of the SHM&#45;pool cleanup algorithm and schedules s...">
<polygon fill="white" stroke="black" points="139,-0.5 139,-35.5 262,-35.5 262,-0.5 139,-0.5"/>
<text text-anchor="start" x="147" y="-25.1" font-family="Helvetica,sans-Serif" font-size="8.00">ipc::session::shm::</text>
<text text-anchor="start" x="147" y="-16.1" font-family="Helvetica,sans-Serif" font-size="8.00">arena_lend::jemalloc</text>
<text text-anchor="middle" x="200.5" y="-7.1" font-family="Helvetica,sans-Serif" font-size="8.00">::Session_server::cleanup</text>
</a>
</g>
</g>
<!-- Node1&#45;&gt;Node4 -->
<g id="edge3" class="edge">
<title>Node1&#45;&gt;Node4</title>
<path fill="none" stroke="midnightblue" d="M287.62,-33.42C279.07,-31.89 270.44,-30.34 262.11,-28.85"/>
<polygon fill="midnightblue" stroke="midnightblue" points="287.15,-36.89 297.61,-35.2 288.38,-30 287.15,-36.89"/>
</g>
<!-- Node3 -->
<g id="node3" class="node">
<title>Node3</title>
<g id="a_node3"><a xlink:href="classipc_1_1session_1_1shm_1_1arena__lend_1_1jemalloc_1_1Client__session__impl.html#a2b5cecc4850a58fd597542df2fc4c890" target="_top" xlink:title="See session::Client_session_impl::Client_session_impl() counterpart.">
<polygon fill="white" stroke="black" points="0,-55 0,-99 103,-99 103,-55 0,-55"/>
<text text-anchor="start" x="8" y="-88.6" font-family="Helvetica,sans-Serif" font-size="8.00">ipc::session::shm::</text>
<text text-anchor="start" x="8" y="-79.6" font-family="Helvetica,sans-Serif" font-size="8.00">arena_lend::jemalloc</text>
<text text-anchor="start" x="8" y="-70.6" font-family="Helvetica,sans-Serif" font-size="8.00">::Client_session_impl</text>
<text text-anchor="middle" x="51.5" y="-61.6" font-family="Helvetica,sans-Serif" font-size="8.00">::Client_session_impl</text>
</a>
</g>
</g>
<!-- Node2&#45;&gt;Node3 -->
<g id="edge2" class="edge">
<title>Node2&#45;&gt;Node3</title>
<path fill="none" stroke="midnightblue" d="M138.68,-77C126.88,-77 114.62,-77 103.18,-77"/>
<polygon fill="midnightblue" stroke="midnightblue" points="138.91,-80.5 148.91,-77 138.91,-73.5 138.91,-80.5"/>
</g>
</g>
</svg>
