<?xml version="1.0" encoding="UTF-8" standalone="no"?>
<!DOCTYPE svg PUBLIC "-//W3C//DTD SVG 1.1//EN"
 "http://www.w3.org/Graphics/SVG/1.1/DTD/svg11.dtd">
<!-- Generated by graphviz version 2.43.0 (0)
 -->
<!-- Title: ipc::session::build_conventional_shared_name Pages: 1 -->
<svg width="494pt" height="433pt"
 viewBox="0.00 0.00 494.00 432.50" xmlns="http://www.w3.org/2000/svg" xmlns:xlink="http://www.w3.org/1999/xlink">
<g id="graph0" class="graph" transform="scale(1 1) rotate(0) translate(4 428.5)">
<title>ipc::session::build_conventional_shared_name</title>
<polygon fill="white" stroke="transparent" points="-4,4 -4,-428.5 490,-428.5 490,4 -4,4"/>
<!-- Node1 -->
<g id="node1" class="node">
<title>Node1</title>
<g id="a_node1"><a xlink:title="Builds an absolute name according to the path convention explained in Shared_name class doc header; t...">
<polygon fill="#bfbfbf" stroke="black" points="353,-201.5 353,-227.5 486,-227.5 486,-201.5 353,-201.5"/>
<text text-anchor="start" x="361" y="-217.1" font-family="Helvetica,sans-Serif" font-size="8.00">ipc::session::build</text>
<text text-anchor="middle" x="419.5" y="-208.1" font-family="Helvetica,sans-Serif" font-size="8.00">_conventional_shared_name</text>
</a>
</g>
</g>
<!-- Node2 -->
<g id="node2" class="node">
<title>Node2</title>
<g id="a_node2"><a xlink:href="classipc_1_1session_1_1shm_1_1classic_1_1Server__session__impl.html#a9c78b2c35b853e1702a06ec451545945" target="_top" xlink:title="For use by internal user Session_server: See Server_session_mv counterpart.">
<polygon fill="white" stroke="black" points="174,-389 174,-424 301,-424 301,-389 174,-389"/>
<text text-anchor="start" x="182" y="-413.6" font-family="Helvetica,sans-Serif" font-size="8.00">ipc::session::shm::</text>
<text text-anchor="start" x="182" y="-404.6" font-family="Helvetica,sans-Serif" font-size="8.00">classic::Server_session</text>
<text text-anchor="middle" x="237.5" y="-395.6" font-family="Helvetica,sans-Serif" font-size="8.00">_impl::async_accept_log_in</text>
</a>
</g>
</g>
<!-- Node1&#45;&gt;Node2 -->
<g id="edge1" class="edge">
<title>Node1&#45;&gt;Node2</title>
<path fill="none" stroke="midnightblue" d="M410.36,-237.22C396.55,-272.61 365.26,-340.85 317,-379.5 312.16,-383.37 306.74,-386.71 301.05,-389.58"/>
<polygon fill="midnightblue" stroke="midnightblue" points="413.67,-238.35 413.93,-227.76 407.12,-235.88 413.67,-238.35"/>
</g>
<!-- Node3 -->
<g id="node3" class="node">
<title>Node3</title>
<g id="a_node3"><a xlink:href="classipc_1_1session_1_1shm_1_1classic_1_1Client__session__impl.html#a2e6f245648bff51b17a45a16178d62dc" target="_top" xlink:title="See session::Client_session_impl counterpart.">
<polygon fill="white" stroke="black" points="183,-335 183,-370 292,-370 292,-335 183,-335"/>
<text text-anchor="start" x="191" y="-359.6" font-family="Helvetica,sans-Serif" font-size="8.00">ipc::session::shm::</text>
<text text-anchor="start" x="191" y="-350.6" font-family="Helvetica,sans-Serif" font-size="8.00">classic::Client_session</text>
<text text-anchor="middle" x="237.5" y="-341.6" font-family="Helvetica,sans-Serif" font-size="8.00">_impl::async_connect</text>
</a>
</g>
</g>
<!-- Node1&#45;&gt;Node3 -->
<g id="edge2" class="edge">
<title>Node1&#45;&gt;Node3</title>
<path fill="none" stroke="midnightblue" d="M403.87,-236.15C386.06,-260.99 353.75,-301.39 317,-325.5 309.41,-330.48 300.8,-334.65 292.13,-338.09"/>
<polygon fill="midnightblue" stroke="midnightblue" points="406.88,-237.96 409.76,-227.77 401.15,-233.94 406.88,-237.96"/>
</g>
<!-- Node4 -->
<g id="node4" class="node">
<title>Node4</title>
<g id="a_node4"><a xlink:href="classipc_1_1session_1_1Session__base.html#a09cbe99083616bae00928f8e37c8373b" target="_top" xlink:title="Computes the name of the interprocess named&#45;mutex used to control reading/writing to the file storing...">
<polygon fill="white" stroke="black" points="174.5,-281 174.5,-316 300.5,-316 300.5,-281 174.5,-281"/>
<text text-anchor="start" x="182.5" y="-305.6" font-family="Helvetica,sans-Serif" font-size="8.00">ipc::session::Session</text>
<text text-anchor="start" x="182.5" y="-296.6" font-family="Helvetica,sans-Serif" font-size="8.00">_base::cur_ns_store_mutex</text>
<text text-anchor="middle" x="237.5" y="-287.6" font-family="Helvetica,sans-Serif" font-size="8.00">_absolute_name</text>
</a>
</g>
</g>
<!-- Node1&#45;&gt;Node4 -->
<g id="edge3" class="edge">
<title>Node1&#45;&gt;Node4</title>
<path fill="none" stroke="midnightblue" d="M389.1,-232.88C369.22,-244.84 342.11,-260.24 317,-271.5 309.64,-274.8 301.74,-277.95 293.89,-280.86"/>
<polygon fill="midnightblue" stroke="midnightblue" points="390.97,-235.84 397.69,-227.66 387.33,-229.86 390.97,-235.84"/>
</g>
<!-- Node5 -->
<g id="node5" class="node">
<title>Node5</title>
<g id="a_node5"><a xlink:href="classipc_1_1session_1_1shm_1_1classic_1_1Session__server.html#a406e3860e68d2e863e64215aae43812e" target="_top" xlink:title="Implementation of our per_app_setup_func() customization point used in the ctor impl: invoked from an...">
<polygon fill="white" stroke="black" points="175,-227 175,-262 300,-262 300,-227 175,-227"/>
<text text-anchor="start" x="183" y="-251.6" font-family="Helvetica,sans-Serif" font-size="8.00">ipc::session::shm::</text>
<text text-anchor="start" x="183" y="-242.6" font-family="Helvetica,sans-Serif" font-size="8.00">classic::Session_server</text>
<text text-anchor="middle" x="237.5" y="-233.6" font-family="Helvetica,sans-Serif" font-size="8.00">::init_app_shm_as_needed</text>
</a>
</g>
</g>
<!-- Node1&#45;&gt;Node5 -->
<g id="edge4" class="edge">
<title>Node1&#45;&gt;Node5</title>
<path fill="none" stroke="midnightblue" d="M342.56,-227.16C328.43,-229.51 313.82,-231.95 300.18,-234.22"/>
<polygon fill="midnightblue" stroke="midnightblue" points="343.46,-230.55 352.75,-225.46 342.31,-223.65 343.46,-230.55"/>
</g>
<!-- Node7 -->
<g id="node7" class="node">
<title>Node7</title>
<g id="a_node7"><a xlink:href="classipc_1_1session_1_1shm_1_1arena__lend_1_1jemalloc_1_1Session__server.html#ae5b53f9881efc8eccb5f93dc7d820c70" target="_top" xlink:title="Analogous to classic::Session_server::init_app_shm_as_needed().">
<polygon fill="white" stroke="black" points="184.5,-163.5 184.5,-207.5 290.5,-207.5 290.5,-163.5 184.5,-163.5"/>
<text text-anchor="start" x="192.5" y="-197.1" font-family="Helvetica,sans-Serif" font-size="8.00">ipc::session::shm::</text>
<text text-anchor="start" x="192.5" y="-188.1" font-family="Helvetica,sans-Serif" font-size="8.00">arena_lend::jemalloc</text>
<text text-anchor="start" x="192.5" y="-179.1" font-family="Helvetica,sans-Serif" font-size="8.00">::Session_server::init</text>
<text text-anchor="middle" x="237.5" y="-170.1" font-family="Helvetica,sans-Serif" font-size="8.00">_app_shm_as_needed</text>
</a>
</g>
</g>
<!-- Node1&#45;&gt;Node7 -->
<g id="edge6" class="edge">
<title>Node1&#45;&gt;Node7</title>
<path fill="none" stroke="midnightblue" d="M342.54,-202.26C325.03,-199.44 306.78,-196.5 290.55,-193.89"/>
<polygon fill="midnightblue" stroke="midnightblue" points="342.32,-205.77 352.75,-203.91 343.44,-198.86 342.32,-205.77"/>
</g>
<!-- Node9 -->
<g id="node9" class="node">
<title>Node9</title>
<g id="a_node9"><a xlink:href="classipc_1_1session_1_1shm_1_1arena__lend_1_1jemalloc_1_1Session__impl.html#a46155078d8764c71a8d75db64345074b" target="_top" xlink:title="To be invoked at most once, synchronously sets up nearly&#45;all aspects of this arena&#45;lending&#45;SHM&#45;capabl...">
<polygon fill="white" stroke="black" points="179.5,-109 179.5,-144 295.5,-144 295.5,-109 179.5,-109"/>
<text text-anchor="start" x="187.5" y="-133.6" font-family="Helvetica,sans-Serif" font-size="8.00">ipc::session::shm::</text>
<text text-anchor="start" x="187.5" y="-124.6" font-family="Helvetica,sans-Serif" font-size="8.00">arena_lend::jemalloc</text>
<text text-anchor="middle" x="237.5" y="-115.6" font-family="Helvetica,sans-Serif" font-size="8.00">::Session_impl::init_shm</text>
</a>
</g>
</g>
<!-- Node1&#45;&gt;Node9 -->
<g id="edge8" class="edge">
<title>Node1&#45;&gt;Node9</title>
<path fill="none" stroke="midnightblue" d="M390.77,-195.66C370.84,-182.67 343.02,-165.63 317,-153.5 309.82,-150.15 302.09,-146.99 294.4,-144.1"/>
<polygon fill="midnightblue" stroke="midnightblue" points="389.06,-198.73 399.34,-201.31 392.92,-192.88 389.06,-198.73"/>
</g>
<!-- Node10 -->
<g id="node10" class="node">
<title>Node10</title>
<g id="a_node10"><a xlink:href="classipc_1_1session_1_1Server__session__impl.html#a37d0b0fdbe58ecb22e19c8bebfe976cd" target="_top" xlink:title="Helper for create_channel_and_resources(), invoked and compiled if and only if S_MQS_ENABLED,...">
<polygon fill="white" stroke="black" points="158,-63.5 158,-89.5 317,-89.5 317,-63.5 158,-63.5"/>
<text text-anchor="start" x="166" y="-79.1" font-family="Helvetica,sans-Serif" font-size="8.00">ipc::session::Server</text>
<text text-anchor="middle" x="237.5" y="-70.1" font-family="Helvetica,sans-Serif" font-size="8.00">_session_impl::make_channel_mqs</text>
</a>
</g>
</g>
<!-- Node1&#45;&gt;Node10 -->
<g id="edge9" class="edge">
<title>Node1&#45;&gt;Node10</title>
<path fill="none" stroke="midnightblue" d="M405.03,-192.9C387.75,-166.96 355.39,-123.91 317,-99.5 310.89,-95.61 304.1,-92.36 297.14,-89.65"/>
<polygon fill="midnightblue" stroke="midnightblue" points="402.11,-194.83 410.49,-201.3 407.97,-191.01 402.11,-194.83"/>
</g>
<!-- Node11 -->
<g id="node11" class="node">
<title>Node11</title>
<g id="a_node11"><a xlink:href="classipc_1_1session_1_1Session__base.html#a3d34c5a9c283a6b7c8ab943f344cdd28" target="_top" xlink:title="Computes the absolute name at which the server shall set up a transport::Native_socket_stream_accepto...">
<polygon fill="white" stroke="black" points="178,-0.5 178,-44.5 297,-44.5 297,-0.5 178,-0.5"/>
<text text-anchor="start" x="186" y="-34.1" font-family="Helvetica,sans-Serif" font-size="8.00">ipc::session::Session</text>
<text text-anchor="start" x="186" y="-25.1" font-family="Helvetica,sans-Serif" font-size="8.00">_base::session_master</text>
<text text-anchor="start" x="186" y="-16.1" font-family="Helvetica,sans-Serif" font-size="8.00">_socket_stream_acceptor</text>
<text text-anchor="middle" x="237.5" y="-7.1" font-family="Helvetica,sans-Serif" font-size="8.00">_absolute_name</text>
</a>
</g>
</g>
<!-- Node1&#45;&gt;Node11 -->
<g id="edge10" class="edge">
<title>Node1&#45;&gt;Node11</title>
<path fill="none" stroke="midnightblue" d="M409.6,-191.63C395.12,-157.18 363.34,-91.91 317,-53.5 311.02,-48.54 304.15,-44.31 297.02,-40.71"/>
<polygon fill="midnightblue" stroke="midnightblue" points="406.52,-193.33 413.54,-201.27 413,-190.69 406.52,-193.33"/>
</g>
<!-- Node6 -->
<g id="node6" class="node">
<title>Node6</title>
<g id="a_node6"><a xlink:href="classipc_1_1session_1_1shm_1_1classic_1_1Session__server.html#af10bb97219c59c34fce50be09eaacf0c" target="_top" xlink:title="Constructor: identical to session::Session_server ctor.">
<polygon fill="white" stroke="black" points="5,-227 5,-262 117,-262 117,-227 5,-227"/>
<text text-anchor="start" x="13" y="-251.6" font-family="Helvetica,sans-Serif" font-size="8.00">ipc::session::shm::</text>
<text text-anchor="start" x="13" y="-242.6" font-family="Helvetica,sans-Serif" font-size="8.00">classic::Session_server</text>
<text text-anchor="middle" x="61" y="-233.6" font-family="Helvetica,sans-Serif" font-size="8.00">::Session_server</text>
</a>
</g>
</g>
<!-- Node5&#45;&gt;Node6 -->
<g id="edge5" class="edge">
<title>Node5&#45;&gt;Node6</title>
<path fill="none" stroke="midnightblue" d="M164.67,-244.5C148.81,-244.5 132.24,-244.5 117.15,-244.5"/>
<polygon fill="midnightblue" stroke="midnightblue" points="164.98,-248 174.98,-244.5 164.98,-241 164.98,-248"/>
</g>
<!-- Node8 -->
<g id="node8" class="node">
<title>Node8</title>
<g id="a_node8"><a xlink:href="classipc_1_1session_1_1shm_1_1arena__lend_1_1jemalloc_1_1Session__server.html#a5cfd3651a06380b877738c6b5fc353a9" target="_top" xlink:title="Constructor: identical to session::Session_server ctor.">
<polygon fill="white" stroke="black" points="0,-163.5 0,-207.5 122,-207.5 122,-163.5 0,-163.5"/>
<text text-anchor="start" x="8" y="-197.1" font-family="Helvetica,sans-Serif" font-size="8.00">ipc::session::shm::</text>
<text text-anchor="start" x="8" y="-188.1" font-family="Helvetica,sans-Serif" font-size="8.00">arena_lend::jemalloc</text>
<text text-anchor="start" x="8" y="-179.1" font-family="Helvetica,sans-Serif" font-size="8.00">::Session_server::Session</text>
<text text-anchor="middle" x="61" y="-170.1" font-family="Helvetica,sans-Serif" font-size="8.00">_server</text>
</a>
</g>
</g>
<!-- Node7&#45;&gt;Node8 -->
<g id="edge7" class="edge">
<title>Node7&#45;&gt;Node8</title>
<path fill="none" stroke="midnightblue" d="M173.88,-185.5C157.08,-185.5 138.96,-185.5 122.29,-185.5"/>
<polygon fill="midnightblue" stroke="midnightblue" points="174.14,-189 184.14,-185.5 174.14,-182 174.14,-189"/>
</g>
</g>
</svg>
