<?xml version="1.0" encoding="UTF-8" standalone="no"?>
<!DOCTYPE svg PUBLIC "-//W3C//DTD SVG 1.1//EN"
 "http://www.w3.org/Graphics/SVG/1.1/DTD/svg11.dtd">
<!-- Generated by graphviz version 2.43.0 (0)
 -->
<!-- Title: ipc::transport::asio_local_stream_socket::async_write_with_native_handle Pages: 1 -->
<svg width="461pt" height="129pt"
 viewBox="0.00 0.00 461.00 128.50" xmlns="http://www.w3.org/2000/svg" xmlns:xlink="http://www.w3.org/1999/xlink">
<g id="graph0" class="graph" transform="scale(1 1) rotate(0) translate(4 124.5)">
<title>ipc::transport::asio_local_stream_socket::async_write_with_native_handle</title>
<polygon fill="white" stroke="transparent" points="-4,4 -4,-124.5 457,-124.5 457,4 -4,4"/>
<!-- Node1 -->
<g id="node1" class="node">
<title>Node1</title>
<g id="a_node1"><a xlink:title="boost.asio extension similar to boost::asio::async_write(Peer_socket&amp;, Blob_const,...">
<polygon fill="#bfbfbf" stroke="black" points="0,-68.5 0,-112.5 121,-112.5 121,-68.5 0,-68.5"/>
<text text-anchor="start" x="8" y="-102.1" font-family="Helvetica,sans-Serif" font-size="8.00">ipc::transport::asio</text>
<text text-anchor="start" x="8" y="-93.1" font-family="Helvetica,sans-Serif" font-size="8.00">_local_stream_socket</text>
<text text-anchor="start" x="8" y="-84.1" font-family="Helvetica,sans-Serif" font-size="8.00">::async_write_with_native</text>
<text text-anchor="middle" x="60.5" y="-75.1" font-family="Helvetica,sans-Serif" font-size="8.00">_handle</text>
</a>
</g>
</g>
<!-- Node2 -->
<g id="node2" class="node">
<title>Node2</title>
<g id="a_node2"><a xlink:href="namespaceipc_1_1util.html#a2bb38cee29dacbe56de5182221b45941" target="_top" xlink:title="Syntactic&#45;sugary helper that returns pointer to first byte in an immutable buffer,...">
<polygon fill="white" stroke="black" points="339,-103 339,-120 433,-120 433,-103 339,-103"/>
<text text-anchor="middle" x="386" y="-109.6" font-family="Helvetica,sans-Serif" font-size="8.00">ipc::util::blob_data</text>
</a>
</g>
</g>
<!-- Node1&#45;&gt;Node2 -->
<g id="edge1" class="edge">
<title>Node1&#45;&gt;Node2</title>
<path fill="none" stroke="midnightblue" d="M121.22,-107.17C132.99,-109.8 145.31,-112.11 157,-113.5 215.29,-120.42 282.55,-118.65 328.83,-115.94"/>
<polygon fill="midnightblue" stroke="midnightblue" points="329.2,-119.42 338.96,-115.31 328.76,-112.44 329.2,-119.42"/>
</g>
<!-- Node3 -->
<g id="node3" class="node">
<title>Node3</title>
<g id="a_node3"><a xlink:href="structipc_1_1util_1_1Native__handle.html#a11bd62ce0a7bef4bdfe666201c26d4dc" target="_top" xlink:title="Returns true if and only if m_native_handle equals S_NULL_HANDLE.">
<polygon fill="white" stroke="black" points="164,-77.5 164,-103.5 276,-103.5 276,-77.5 164,-77.5"/>
<text text-anchor="start" x="172" y="-93.1" font-family="Helvetica,sans-Serif" font-size="8.00">ipc::util::Native_handle</text>
<text text-anchor="middle" x="220" y="-84.1" font-family="Helvetica,sans-Serif" font-size="8.00">::null</text>
</a>
</g>
</g>
<!-- Node1&#45;&gt;Node3 -->
<g id="edge2" class="edge">
<title>Node1&#45;&gt;Node3</title>
<path fill="none" stroke="midnightblue" d="M121.04,-90.5C131.67,-90.5 142.8,-90.5 153.58,-90.5"/>
<polygon fill="midnightblue" stroke="midnightblue" points="153.78,-94 163.78,-90.5 153.78,-87 153.78,-94"/>
</g>
<!-- Node4 -->
<g id="node4" class="node">
<title>Node4</title>
<g id="a_node4"><a xlink:href="namespaceipc_1_1transport_1_1asio__local__stream__socket.html#a677a303f9f81cc5661bd2b34a29309f7" target="_top" xlink:title="Helper of async_write_with_native_handle() used as the callback executed when waiting for writability...">
<polygon fill="white" stroke="black" points="157,-5 157,-40 283,-40 283,-5 157,-5"/>
<text text-anchor="start" x="165" y="-29.6" font-family="Helvetica,sans-Serif" font-size="8.00">ipc::transport::asio</text>
<text text-anchor="start" x="165" y="-20.6" font-family="Helvetica,sans-Serif" font-size="8.00">_local_stream_socket</text>
<text text-anchor="middle" x="220" y="-11.6" font-family="Helvetica,sans-Serif" font-size="8.00">::on_wait_writable_or_error</text>
</a>
</g>
</g>
<!-- Node1&#45;&gt;Node4 -->
<g id="edge3" class="edge">
<title>Node1&#45;&gt;Node4</title>
<path fill="none" stroke="midnightblue" d="M112.64,-68.42C130.76,-60.6 151.13,-51.8 169.15,-44.02"/>
<polygon fill="midnightblue" stroke="midnightblue" points="170.54,-47.24 178.33,-40.06 167.76,-40.81 170.54,-47.24"/>
</g>
<!-- Node4&#45;&gt;Node2 -->
<g id="edge4" class="edge">
<title>Node4&#45;&gt;Node2</title>
<path fill="none" stroke="midnightblue" d="M253.4,-40.08C284.77,-57.11 331.64,-82.54 360.16,-98.02"/>
<polygon fill="midnightblue" stroke="midnightblue" points="358.62,-101.17 369.08,-102.86 361.96,-95.02 358.62,-101.17"/>
</g>
<!-- Node4&#45;&gt;Node4 -->
<g id="edge7" class="edge">
<title>Node4&#45;&gt;Node4</title>
<path fill="none" stroke="midnightblue" d="M191.6,-40.28C186.77,-49.81 196.24,-58.5 220,-58.5 234.48,-58.5 243.65,-55.27 247.52,-50.6"/>
<polygon fill="midnightblue" stroke="midnightblue" points="251.03,-50.54 248.4,-40.28 244.06,-49.95 251.03,-50.54"/>
</g>
<!-- Node5 -->
<g id="node5" class="node">
<title>Node5</title>
<g id="a_node5"><a xlink:href="namespaceipc_1_1transport_1_1asio__local__stream__socket.html#a1022dfd42e9a0d6eab8384b0352decb0" target="_top" xlink:title="boost.asio extension similar to peer_socket&#45;&gt;non_blocking(true); auto n = peer_socket&#45;&gt;write_some(pay...">
<polygon fill="white" stroke="black" points="319,-0.5 319,-44.5 453,-44.5 453,-0.5 319,-0.5"/>
<text text-anchor="start" x="327" y="-34.1" font-family="Helvetica,sans-Serif" font-size="8.00">ipc::transport::asio</text>
<text text-anchor="start" x="327" y="-25.1" font-family="Helvetica,sans-Serif" font-size="8.00">_local_stream_socket</text>
<text text-anchor="start" x="327" y="-16.1" font-family="Helvetica,sans-Serif" font-size="8.00">::nb_write_some_with_native</text>
<text text-anchor="middle" x="386" y="-7.1" font-family="Helvetica,sans-Serif" font-size="8.00">_handle</text>
</a>
</g>
</g>
<!-- Node4&#45;&gt;Node5 -->
<g id="edge5" class="edge">
<title>Node4&#45;&gt;Node5</title>
<path fill="none" stroke="midnightblue" d="M283,-22.5C291.41,-22.5 300.12,-22.5 308.74,-22.5"/>
<polygon fill="midnightblue" stroke="midnightblue" points="308.81,-26 318.81,-22.5 308.81,-19 308.81,-26"/>
</g>
<!-- Node5&#45;&gt;Node5 -->
<g id="edge6" class="edge">
<title>Node5&#45;&gt;Node5</title>
<path fill="none" stroke="midnightblue" d="M355.36,-44.58C352.44,-54.46 362.66,-63 386,-63 400.59,-63 410.05,-59.66 414.38,-54.75"/>
<polygon fill="midnightblue" stroke="midnightblue" points="417.89,-55.1 416.64,-44.58 411.06,-53.58 417.89,-55.1"/>
</g>
</g>
</svg>
