<?xml version="1.0" encoding="UTF-8" standalone="no"?>
<!DOCTYPE svg PUBLIC "-//W3C//DTD SVG 1.1//EN"
 "http://www.w3.org/Graphics/SVG/1.1/DTD/svg11.dtd">
<!-- Generated by graphviz version 2.43.0 (0)
 -->
<!-- Title: ipc::session::build_conventional_shared_name_prefix Pages: 1 -->
<svg width="260pt" height="44pt"
 viewBox="0.00 0.00 260.00 44.00" xmlns="http://www.w3.org/2000/svg" xmlns:xlink="http://www.w3.org/1999/xlink">
<g id="graph0" class="graph" transform="scale(1 1) rotate(0) translate(4 40)">
<title>ipc::session::build_conventional_shared_name_prefix</title>
<polygon fill="white" stroke="transparent" points="-4,4 -4,-40 256,-40 256,4 -4,4"/>
<!-- Node1 -->
<g id="node1" class="node">
<title>Node1</title>
<g id="a_node1"><a xlink:title="Return the prefix common to all calls to either build_conventional_shared_name() overload with the ar...">
<polygon fill="#bfbfbf" stroke="black" points="0,-0.5 0,-35.5 106,-35.5 106,-0.5 0,-0.5"/>
<text text-anchor="start" x="8" y="-25.1" font-family="Helvetica,sans-Serif" font-size="8.00">ipc::session::build</text>
<text text-anchor="start" x="8" y="-16.1" font-family="Helvetica,sans-Serif" font-size="8.00">_conventional_shared</text>
<text text-anchor="middle" x="53" y="-7.1" font-family="Helvetica,sans-Serif" font-size="8.00">_name_prefix</text>
</a>
</g>
</g>
<!-- Node2 -->
<g id="node2" class="node">
<title>Node2</title>
<g id="a_node2"><a xlink:href="classipc_1_1util_1_1Shared__name.html#a861ea6c9ad6672e83bab5c7747b66f7b" target="_top" xlink:title="Returns true if and only if str().empty() == true.">
<polygon fill="white" stroke="black" points="142,-5 142,-31 252,-31 252,-5 142,-5"/>
<text text-anchor="start" x="150" y="-20.6" font-family="Helvetica,sans-Serif" font-size="8.00">ipc::util::Shared_name</text>
<text text-anchor="middle" x="197" y="-11.6" font-family="Helvetica,sans-Serif" font-size="8.00">::empty</text>
</a>
</g>
</g>
<!-- Node1&#45;&gt;Node2 -->
<g id="edge1" class="edge">
<title>Node1&#45;&gt;Node2</title>
<path fill="none" stroke="midnightblue" d="M106.07,-18C114.29,-18 122.87,-18 131.33,-18"/>
<polygon fill="midnightblue" stroke="midnightblue" points="131.55,-21.5 141.55,-18 131.55,-14.5 131.55,-21.5"/>
</g>
</g>
</svg>
