<?xml version="1.0" encoding="UTF-8" standalone="no"?>
<!DOCTYPE svg PUBLIC "-//W3C//DTD SVG 1.1//EN"
 "http://www.w3.org/Graphics/SVG/1.1/DTD/svg11.dtd">
<!-- Generated by graphviz version 2.43.0 (0)
 -->
<!-- Title: ipc::util::remove_each_persistent_with_name_prefix Pages: 1 -->
<svg width="280pt" height="44pt"
 viewBox="0.00 0.00 280.00 44.00" xmlns="http://www.w3.org/2000/svg" xmlns:xlink="http://www.w3.org/1999/xlink">
<g id="graph0" class="graph" transform="scale(1 1) rotate(0) translate(4 40)">
<title>ipc::util::remove_each_persistent_with_name_prefix</title>
<polygon fill="white" stroke="transparent" points="-4,4 -4,-40 276,-40 276,4 -4,4"/>
<!-- Node1 -->
<g id="node1" class="node">
<title>Node1</title>
<g id="a_node1"><a xlink:title="Utility that invokes remove_each_persistent_if() with the filter that returns true (yes,...">
<polygon fill="#bfbfbf" stroke="black" points="0,-0.5 0,-35.5 110,-35.5 110,-0.5 0,-0.5"/>
<text text-anchor="start" x="8" y="-25.1" font-family="Helvetica,sans-Serif" font-size="8.00">ipc::util::remove_each</text>
<text text-anchor="start" x="8" y="-16.1" font-family="Helvetica,sans-Serif" font-size="8.00">_persistent_with_name</text>
<text text-anchor="middle" x="55" y="-7.1" font-family="Helvetica,sans-Serif" font-size="8.00">_prefix</text>
</a>
</g>
</g>
<!-- Node2 -->
<g id="node2" class="node">
<title>Node2</title>
<g id="a_node2"><a xlink:href="classipc_1_1util_1_1Shared__name.html#ae89e1e061f87ffe0288514e254837595" target="_top" xlink:title="Returns (sans copying) ref to immutable entire wrapped name string, suitable to pass into sys calls w...">
<polygon fill="white" stroke="black" points="146,-9.5 146,-26.5 272,-26.5 272,-9.5 146,-9.5"/>
<text text-anchor="middle" x="209" y="-16.1" font-family="Helvetica,sans-Serif" font-size="8.00">ipc::util::Shared_name::str</text>
</a>
</g>
</g>
<!-- Node1&#45;&gt;Node2 -->
<g id="edge1" class="edge">
<title>Node1&#45;&gt;Node2</title>
<path fill="none" stroke="midnightblue" d="M110.02,-18C118.36,-18 127.09,-18 135.75,-18"/>
<polygon fill="midnightblue" stroke="midnightblue" points="135.86,-21.5 145.86,-18 135.86,-14.5 135.86,-21.5"/>
</g>
</g>
</svg>
