<?xml version="1.0" encoding="UTF-8" standalone="no"?>
<!DOCTYPE svg PUBLIC "-//W3C//DTD SVG 1.1//EN"
 "http://www.w3.org/Graphics/SVG/1.1/DTD/svg11.dtd">
<!-- Generated by graphviz version 2.43.0 (0)
 -->
<!-- Title: ipc::util::remove_persistent_shm_pool Pages: 1 -->
<svg width="283pt" height="53pt"
 viewBox="0.00 0.00 283.00 53.00" xmlns="http://www.w3.org/2000/svg" xmlns:xlink="http://www.w3.org/1999/xlink">
<g id="graph0" class="graph" transform="scale(1 1) rotate(0) translate(4 49)">
<title>ipc::util::remove_persistent_shm_pool</title>
<polygon fill="white" stroke="transparent" points="-4,4 -4,-49 279,-49 279,4 -4,4"/>
<!-- Node1 -->
<g id="node1" class="node">
<title>Node1</title>
<g id="a_node1"><a xlink:title="Equivalent to shm::classic::Pool_arena::remove_persistent().">
<polygon fill="#bfbfbf" stroke="black" points="0,-0.5 0,-26.5 129,-26.5 129,-0.5 0,-0.5"/>
<text text-anchor="start" x="8" y="-16.1" font-family="Helvetica,sans-Serif" font-size="8.00">ipc::util::remove_persistent</text>
<text text-anchor="middle" x="64.5" y="-7.1" font-family="Helvetica,sans-Serif" font-size="8.00">_shm_pool</text>
</a>
</g>
</g>
<!-- Node1&#45;&gt;Node1 -->
<g id="edge2" class="edge">
<title>Node1&#45;&gt;Node1</title>
<path fill="none" stroke="midnightblue" d="M38.44,-26.77C30.55,-35.96 39.23,-45 64.5,-45 79.9,-45 89.14,-41.64 92.22,-36.94"/>
<polygon fill="midnightblue" stroke="midnightblue" points="95.62,-36.07 90.56,-26.77 88.71,-37.2 95.62,-36.07"/>
</g>
<!-- Node2 -->
<g id="node2" class="node">
<title>Node2</title>
<g id="a_node2"><a xlink:href="classipc_1_1util_1_1Shared__name.html#a0bccc73c9c5b4f3b784a1e57cdc5c910" target="_top" xlink:title="Returns (sans copying) pointer to NUL&#45;terminated wrapped name string, suitable to pass into sys calls...">
<polygon fill="white" stroke="black" points="165,-0.5 165,-26.5 275,-26.5 275,-0.5 165,-0.5"/>
<text text-anchor="start" x="173" y="-16.1" font-family="Helvetica,sans-Serif" font-size="8.00">ipc::util::Shared_name</text>
<text text-anchor="middle" x="220" y="-7.1" font-family="Helvetica,sans-Serif" font-size="8.00">::native_str</text>
</a>
</g>
</g>
<!-- Node1&#45;&gt;Node2 -->
<g id="edge1" class="edge">
<title>Node1&#45;&gt;Node2</title>
<path fill="none" stroke="midnightblue" d="M129.26,-13.5C137.7,-13.5 146.35,-13.5 154.79,-13.5"/>
<polygon fill="midnightblue" stroke="midnightblue" points="154.95,-17 164.95,-13.5 154.95,-10 154.95,-17"/>
</g>
</g>
</svg>
