<?xml version="1.0" encoding="UTF-8" standalone="no"?>
<!DOCTYPE svg PUBLIC "-//W3C//DTD SVG 1.1//EN"
 "http://www.w3.org/Graphics/SVG/1.1/DTD/svg11.dtd">
<!-- Generated by graphviz version 2.43.0 (0)
 -->
<!-- Title: ipc::util::for_each_persistent_shm_pool Pages: 1 -->
<svg width="255pt" height="98pt"
 viewBox="0.00 0.00 255.00 98.00" xmlns="http://www.w3.org/2000/svg" xmlns:xlink="http://www.w3.org/1999/xlink">
<g id="graph0" class="graph" transform="scale(1 1) rotate(0) translate(4 94)">
<title>ipc::util::for_each_persistent_shm_pool</title>
<polygon fill="white" stroke="transparent" points="-4,4 -4,-94 251,-94 251,4 -4,4"/>
<!-- Node1 -->
<g id="node1" class="node">
<title>Node1</title>
<g id="a_node1"><a xlink:title="Equivalent to shm::classic::Pool_arena::for_each_persistent().">
<polygon fill="#bfbfbf" stroke="black" points="143,-32 143,-58 247,-58 247,-32 143,-32"/>
<text text-anchor="start" x="151" y="-47.6" font-family="Helvetica,sans-Serif" font-size="8.00">ipc::util::for_each</text>
<text text-anchor="middle" x="195" y="-38.6" font-family="Helvetica,sans-Serif" font-size="8.00">_persistent_shm_pool</text>
</a>
</g>
</g>
<!-- Node2 -->
<g id="node2" class="node">
<title>Node2</title>
<g id="a_node2"><a xlink:href="classipc_1_1transport_1_1Bipc__mq__handle.html#a3d6fa3398edb4db10a933f9731924255" target="_top" xlink:title="Implements Persistent_mq_handle API.">
<polygon fill="white" stroke="black" points="0,-54.5 0,-89.5 107,-89.5 107,-54.5 0,-54.5"/>
<text text-anchor="start" x="8" y="-79.1" font-family="Helvetica,sans-Serif" font-size="8.00">ipc::transport::Bipc</text>
<text text-anchor="start" x="8" y="-70.1" font-family="Helvetica,sans-Serif" font-size="8.00">_mq_handle::for_each</text>
<text text-anchor="middle" x="53.5" y="-61.1" font-family="Helvetica,sans-Serif" font-size="8.00">_persistent</text>
</a>
</g>
</g>
<!-- Node1&#45;&gt;Node2 -->
<g id="edge1" class="edge">
<title>Node1&#45;&gt;Node2</title>
<path fill="none" stroke="midnightblue" d="M132.86,-56.83C124.26,-58.5 115.47,-60.2 107.05,-61.83"/>
<polygon fill="midnightblue" stroke="midnightblue" points="133.69,-60.24 142.85,-54.9 132.36,-53.36 133.69,-60.24"/>
</g>
<!-- Node3 -->
<g id="node3" class="node">
<title>Node3</title>
<g id="a_node3"><a xlink:href="classipc_1_1shm_1_1classic_1_1Pool__arena.html#a9e720283945eefe3d941b185e95d2ce1" target="_top" xlink:title="Lists all named SHM pool objects currently persisting, invoking the given handler synchronously on ea...">
<polygon fill="white" stroke="black" points="2,-0.5 2,-35.5 105,-35.5 105,-0.5 2,-0.5"/>
<text text-anchor="start" x="10" y="-25.1" font-family="Helvetica,sans-Serif" font-size="8.00">ipc::shm::classic::</text>
<text text-anchor="start" x="10" y="-16.1" font-family="Helvetica,sans-Serif" font-size="8.00">Pool_arena::for_each</text>
<text text-anchor="middle" x="53.5" y="-7.1" font-family="Helvetica,sans-Serif" font-size="8.00">_persistent</text>
</a>
</g>
</g>
<!-- Node1&#45;&gt;Node3 -->
<g id="edge2" class="edge">
<title>Node1&#45;&gt;Node3</title>
<path fill="none" stroke="midnightblue" d="M132.91,-33.18C123.65,-31.38 114.19,-29.55 105.18,-27.81"/>
<polygon fill="midnightblue" stroke="midnightblue" points="132.36,-36.64 142.85,-35.1 133.69,-29.76 132.36,-36.64"/>
</g>
</g>
</svg>
