<?xml version="1.0" encoding="UTF-8" standalone="no"?>
<!DOCTYPE svg PUBLIC "-//W3C//DTD SVG 1.1//EN"
 "http://www.w3.org/Graphics/SVG/1.1/DTD/svg11.dtd">
<!-- Generated by graphviz version 2.43.0 (0)
 -->
<!-- Title: ipc::transport::struc::sync_io::Channel&lt; Channel_obj, Message_body, Struct_builder_config, Struct_reader_config &gt;::Msg_in_pipe Pages: 1 -->
<svg width="632pt" height="235pt"
 viewBox="0.00 0.00 632.00 234.50" xmlns="http://www.w3.org/2000/svg" xmlns:xlink="http://www.w3.org/1999/xlink">
<g id="graph0" class="graph" transform="scale(1 1) rotate(0) translate(4 230.5)">
<title>ipc::transport::struc::sync_io::Channel&lt; Channel_obj, Message_body, Struct_builder_config, Struct_reader_config &gt;::Msg_in_pipe</title>
<polygon fill="white" stroke="transparent" points="-4,4 -4,-230.5 628,-230.5 628,4 -4,4"/>
<!-- Node1 -->
<g id="node1" class="node">
<title>Node1</title>
<g id="a_node1"><a xlink:title="Data and policy with respect to receipt of the next/currently&#45;incomplete in&#45;message.">
<polygon fill="#bfbfbf" stroke="black" points="487,-88 487,-141 624,-141 624,-88 487,-88"/>
<text text-anchor="start" x="495" y="-130.6" font-family="Helvetica,sans-Serif" font-size="8.00">ipc::transport::struc</text>
<text text-anchor="start" x="495" y="-121.6" font-family="Helvetica,sans-Serif" font-size="8.00">::sync_io::Channel&lt; Channel</text>
<text text-anchor="start" x="495" y="-112.6" font-family="Helvetica,sans-Serif" font-size="8.00">_obj, Message_body, Struct</text>
<text text-anchor="start" x="495" y="-103.6" font-family="Helvetica,sans-Serif" font-size="8.00">_builder_config, Struct_reader</text>
<text text-anchor="middle" x="555.5" y="-94.6" font-family="Helvetica,sans-Serif" font-size="8.00">_config &gt;::Msg_in_pipe</text>
</a>
</g>
</g>
<!-- Node2 -->
<g id="node2" class="node">
<title>Node2</title>
<g id="a_node2"><a xlink:title=" ">
<polygon fill="white" stroke="#bfbfbf" points="209,-209 209,-226 354,-226 354,-209 209,-209"/>
<text text-anchor="middle" x="281.5" y="-215.6" font-family="Helvetica,sans-Serif" font-size="8.00">anonymous:m_lead_msg_mode</text>
</a>
</g>
</g>
<!-- Node2&#45;&gt;Node1 -->
<g id="edge1" class="edge">
<title>Node2&#45;&gt;Node1</title>
<path fill="none" stroke="#9a32cd" stroke-dasharray="5,2" d="M364.57,-215.24C398.19,-211.8 436.7,-204.49 469,-189.5 493.36,-178.19 515.97,-157.73 531.81,-141.04"/>
<polygon fill="#9a32cd" stroke="#9a32cd" points="363.94,-211.79 354.31,-216.19 364.59,-218.76 363.94,-211.79"/>
<text text-anchor="middle" x="420.5" y="-216.1" font-family="Helvetica,sans-Serif" font-size="8.00"> m_lead_msg_mode</text>
</g>
<!-- Node3 -->
<g id="node3" class="node">
<title>Node3</title>
<g id="a_node3"><a xlink:title=" ">
<polygon fill="white" stroke="#bfbfbf" points="261.5,-168 261.5,-185 301.5,-185 301.5,-168 261.5,-168"/>
<text text-anchor="middle" x="281.5" y="-174.6" font-family="Helvetica,sans-Serif" font-size="8.00">size_t</text>
</a>
</g>
</g>
<!-- Node3&#45;&gt;Node1 -->
<g id="edge2" class="edge">
<title>Node3&#45;&gt;Node1</title>
<path fill="none" stroke="#9a32cd" stroke-dasharray="5,2" d="M311.72,-174.49C348.82,-171.44 414.56,-164.34 469,-149.5 477.51,-147.18 486.31,-144.24 494.88,-141.06"/>
<polygon fill="#9a32cd" stroke="#9a32cd" points="311.3,-171.01 301.61,-175.28 311.85,-177.99 311.3,-171.01"/>
<text text-anchor="start" x="379" y="-179.1" font-family="Helvetica,sans-Serif" font-size="8.00"> m_n_segs_left_after</text>
<text text-anchor="middle" x="420.5" y="-170.1" font-family="Helvetica,sans-Serif" font-size="8.00">_this_read</text>
</g>
<!-- Node4 -->
<g id="node4" class="node">
<title>Node4</title>
<g id="a_node4"><a xlink:title=" ">
<polygon fill="white" stroke="#bfbfbf" points="261,-127 261,-144 302,-144 302,-127 261,-127"/>
<text text-anchor="middle" x="281.5" y="-133.6" font-family="Helvetica,sans-Serif" font-size="8.00">Blob *</text>
</a>
</g>
</g>
<!-- Node4&#45;&gt;Node1 -->
<g id="edge3" class="edge">
<title>Node4&#45;&gt;Node1</title>
<path fill="none" stroke="#9a32cd" stroke-dasharray="5,2" d="M312.08,-133.22C353.68,-130 430.65,-124.06 486.73,-119.73"/>
<polygon fill="#9a32cd" stroke="#9a32cd" points="311.76,-129.73 302.06,-133.99 312.3,-136.71 311.76,-129.73"/>
<text text-anchor="middle" x="420.5" y="-139.1" font-family="Helvetica,sans-Serif" font-size="8.00"> m_proto_neg_blob</text>
<text text-anchor="middle" x="420.5" y="-130.1" font-family="Helvetica,sans-Serif" font-size="8.00">m_target_blob</text>
</g>
<!-- Node5 -->
<g id="node5" class="node">
<title>Node5</title>
<g id="a_node5"><a xlink:href="structipc_1_1util_1_1Native__handle.html" target="_top" xlink:title="A monolayer&#45;thin wrapper around a native handle, a/k/a descriptor a/k/a FD.">
<polygon fill="white" stroke="black" points="225.5,-91 225.5,-108 337.5,-108 337.5,-91 225.5,-91"/>
<text text-anchor="middle" x="281.5" y="-97.6" font-family="Helvetica,sans-Serif" font-size="8.00">ipc::util::Native_handle</text>
</a>
</g>
</g>
<!-- Node5&#45;&gt;Node1 -->
<g id="edge4" class="edge">
<title>Node5&#45;&gt;Node1</title>
<path fill="none" stroke="#9a32cd" stroke-dasharray="5,2" d="M348.08,-93.92C383.91,-91.92 429.01,-91.11 469,-95.5 474.74,-96.13 480.67,-96.99 486.59,-98"/>
<polygon fill="#9a32cd" stroke="#9a32cd" points="347.52,-90.45 337.75,-94.55 347.94,-97.44 347.52,-90.45"/>
<text text-anchor="middle" x="420.5" y="-107.1" font-family="Helvetica,sans-Serif" font-size="8.00"> m_proto_neg_hndl</text>
<text text-anchor="middle" x="420.5" y="-98.1" font-family="Helvetica,sans-Serif" font-size="8.00">m_target_hndl</text>
</g>
<!-- Node6 -->
<g id="node6" class="node">
<title>Node6</title>
<g id="a_node6"><a xlink:title=" ">
<polygon fill="white" stroke="#bfbfbf" points="0,-109 0,-126 101,-126 101,-109 0,-109"/>
<text text-anchor="middle" x="50.5" y="-115.6" font-family="Helvetica,sans-Serif" font-size="8.00">static const handle_t</text>
</a>
</g>
</g>
<!-- Node6&#45;&gt;Node5 -->
<g id="edge5" class="edge">
<title>Node6&#45;&gt;Node5</title>
<path fill="none" stroke="#9a32cd" stroke-dasharray="5,2" d="M111.35,-112.8C146.6,-110.03 190.88,-106.54 225.29,-103.84"/>
<polygon fill="#9a32cd" stroke="#9a32cd" points="110.88,-109.32 101.19,-113.59 111.43,-116.3 110.88,-109.32"/>
<text text-anchor="middle" x="155" y="-114.1" font-family="Helvetica,sans-Serif" font-size="8.00"> S_NULL_HANDLE</text>
</g>
<!-- Node7 -->
<g id="node7" class="node">
<title>Node7</title>
<g id="a_node7"><a xlink:title=" ">
<polygon fill="white" stroke="#bfbfbf" points="36,-73 36,-90 65,-90 65,-73 36,-73"/>
<text text-anchor="middle" x="50.5" y="-79.6" font-family="Helvetica,sans-Serif" font-size="8.00">int</text>
</a>
</g>
</g>
<!-- Node7&#45;&gt;Node5 -->
<g id="edge6" class="edge">
<title>Node7&#45;&gt;Node5</title>
<path fill="none" stroke="#9a32cd" stroke-dasharray="5,2" d="M75.41,-83.38C110.65,-86.15 177.55,-91.41 225.36,-95.17"/>
<polygon fill="#9a32cd" stroke="#9a32cd" points="75.38,-79.87 65.14,-82.57 74.83,-86.85 75.38,-79.87"/>
<text text-anchor="middle" x="155" y="-94.1" font-family="Helvetica,sans-Serif" font-size="8.00"> m_native_handle</text>
</g>
<!-- Node8 -->
<g id="node8" class="node">
<title>Node8</title>
<g id="a_node8"><a xlink:title=" ">
<polygon fill="white" stroke="#bfbfbf" points="233,-45.5 233,-71.5 330,-71.5 330,-45.5 233,-45.5"/>
<text text-anchor="start" x="241" y="-61.1" font-family="Helvetica,sans-Serif" font-size="8.00">unique_ptr&lt; Msg_in</text>
<text text-anchor="middle" x="281.5" y="-52.1" font-family="Helvetica,sans-Serif" font-size="8.00">_impl &gt;</text>
</a>
</g>
</g>
<!-- Node8&#45;&gt;Node1 -->
<g id="edge7" class="edge">
<title>Node8&#45;&gt;Node1</title>
<path fill="none" stroke="#9a32cd" stroke-dasharray="5,2" d="M340.49,-60.37C377.7,-62.63 426.78,-67.6 469,-78.5 478.51,-80.96 488.35,-84.29 497.81,-87.93"/>
<polygon fill="#9a32cd" stroke="#9a32cd" points="340.5,-56.86 330.32,-59.8 340.11,-63.85 340.5,-56.86"/>
<text text-anchor="middle" x="420.5" y="-81.1" font-family="Helvetica,sans-Serif" font-size="8.00"> m_incomplete_msg</text>
</g>
<!-- Node9 -->
<g id="node9" class="node">
<title>Node9</title>
<g id="a_node9"><a xlink:title=" ">
<polygon fill="white" stroke="#bfbfbf" points="219,-0.5 219,-26.5 344,-26.5 344,-0.5 219,-0.5"/>
<text text-anchor="start" x="227" y="-16.1" font-family="Helvetica,sans-Serif" font-size="8.00">unique_ptr&lt; ipc::transport</text>
<text text-anchor="middle" x="281.5" y="-7.1" font-family="Helvetica,sans-Serif" font-size="8.00">::struc::Heap_reader &gt;</text>
</a>
</g>
</g>
<!-- Node9&#45;&gt;Node1 -->
<g id="edge8" class="edge">
<title>Node9&#45;&gt;Node1</title>
<path fill="none" stroke="#9a32cd" stroke-dasharray="5,2" d="M354.58,-19.61C390.19,-24.55 433.11,-33.46 469,-49.5 489.94,-58.86 510.49,-74.23 526.2,-87.68"/>
<polygon fill="#9a32cd" stroke="#9a32cd" points="354.63,-16.08 344.26,-18.26 353.73,-23.03 354.63,-16.08"/>
<text text-anchor="middle" x="420.5" y="-52.1" font-family="Helvetica,sans-Serif" font-size="8.00"> m_proto_neg_reader_in</text>
</g>
</g>
</svg>
