<?xml version="1.0" encoding="UTF-8" standalone="no"?>
<!DOCTYPE svg PUBLIC "-//W3C//DTD SVG 1.1//EN"
 "http://www.w3.org/Graphics/SVG/1.1/DTD/svg11.dtd">
<!-- Generated by graphviz version 2.43.0 (0)
 -->
<!-- Title: ipc::session::Client_session_impl&lt; S_MQ_TYPE_OR_NONE, S_TRANSMIT_NATIVE_HANDLES, Mdt_payload, S_SHM_TYPE_OR_NONE &gt;::Master_channel_req Pages: 1 -->
<svg width="187pt" height="125pt"
 viewBox="0.00 0.00 187.00 125.00" xmlns="http://www.w3.org/2000/svg" xmlns:xlink="http://www.w3.org/1999/xlink">
<g id="graph0" class="graph" transform="scale(1 1) rotate(0) translate(4 121)">
<title>ipc::session::Client_session_impl&lt; S_MQ_TYPE_OR_NONE, S_TRANSMIT_NATIVE_HANDLES, Mdt_payload, S_SHM_TYPE_OR_NONE &gt;::Master_channel_req</title>
<polygon fill="white" stroke="transparent" points="-4,4 -4,-121 183,-121 183,4 -4,4"/>
<!-- Node1 -->
<g id="node1" class="node">
<title>Node1</title>
<g id="a_node1"><a xlink:title="An open&#45;channel/log&#45;in request out&#45;message.">
<polygon fill="#bfbfbf" stroke="black" points="0,-0.5 0,-53.5 179,-53.5 179,-0.5 0,-0.5"/>
<text text-anchor="start" x="8" y="-43.1" font-family="Helvetica,sans-Serif" font-size="8.00">ipc::session::Client</text>
<text text-anchor="start" x="8" y="-34.1" font-family="Helvetica,sans-Serif" font-size="8.00">_session_impl&lt; S_MQ_TYPE</text>
<text text-anchor="start" x="8" y="-25.1" font-family="Helvetica,sans-Serif" font-size="8.00">_OR_NONE, S_TRANSMIT_NATIVE</text>
<text text-anchor="start" x="8" y="-16.1" font-family="Helvetica,sans-Serif" font-size="8.00">_HANDLES, Mdt_payload, S_SHM</text>
<text text-anchor="middle" x="89.5" y="-7.1" font-family="Helvetica,sans-Serif" font-size="8.00">_TYPE_OR_NONE &gt;::Master_channel_req</text>
</a>
</g>
</g>
<!-- Node2 -->
<g id="node2" class="node">
<title>Node2</title>
<g id="a_node2"><a xlink:title=" ">
<polygon fill="white" stroke="#bfbfbf" points="11.5,-99.5 11.5,-116.5 83.5,-116.5 83.5,-99.5 11.5,-99.5"/>
<text text-anchor="middle" x="47.5" y="-106.1" font-family="Helvetica,sans-Serif" font-size="8.00">element_type</text>
</a>
</g>
</g>
<!-- Node2&#45;&gt;Node1 -->
<g id="edge1" class="edge">
<title>Node2&#45;&gt;Node1</title>
<path fill="none" stroke="#9a32cd" stroke-dasharray="5,2" d="M45.59,-89.45C45.59,-83.71 46.28,-77.41 48.5,-72 51.2,-65.43 55.35,-59.25 60,-53.71"/>
<polygon fill="#9a32cd" stroke="#9a32cd" points="42.1,-89.69 46.22,-99.45 49.08,-89.24 42.1,-89.69"/>
<text text-anchor="middle" x="79.5" y="-74.6" font-family="Helvetica,sans-Serif" font-size="8.00"> m_mdt_builder</text>
</g>
<!-- Node3 -->
<g id="node3" class="node">
<title>Node3</title>
<g id="a_node3"><a xlink:title=" ">
<polygon fill="white" stroke="#bfbfbf" points="107.5,-99.5 107.5,-116.5 157.5,-116.5 157.5,-99.5 107.5,-99.5"/>
<text text-anchor="middle" x="132.5" y="-106.1" font-family="Helvetica,sans-Serif" font-size="8.00">Msg_out</text>
</a>
</g>
</g>
<!-- Node3&#45;&gt;Node1 -->
<g id="edge2" class="edge">
<title>Node3&#45;&gt;Node1</title>
<path fill="none" stroke="#9a32cd" stroke-dasharray="5,2" d="M123.5,-90.46C117.72,-79.85 110.1,-65.85 103.54,-53.8"/>
<polygon fill="#9a32cd" stroke="#9a32cd" points="120.52,-92.32 128.38,-99.43 126.67,-88.97 120.52,-92.32"/>
<text text-anchor="middle" x="141" y="-74.6" font-family="Helvetica,sans-Serif" font-size="8.00"> m_req_msg</text>
</g>
</g>
</svg>
