<?xml version="1.0" encoding="UTF-8" standalone="no"?>
<!DOCTYPE svg PUBLIC "-//W3C//DTD SVG 1.1//EN"
 "http://www.w3.org/Graphics/SVG/1.1/DTD/svg11.dtd">
<!-- Generated by graphviz version 2.43.0 (0)
 -->
<!-- Title: ipc::transport::Native_socket_stream_acceptor::User_request Pages: 1 -->
<svg width="957pt" height="244pt"
 viewBox="0.00 0.00 957.00 244.00" xmlns="http://www.w3.org/2000/svg" xmlns:xlink="http://www.w3.org/1999/xlink">
<g id="graph0" class="graph" transform="scale(1 1) rotate(0) translate(4 240)">
<title>ipc::transport::Native_socket_stream_acceptor::User_request</title>
<polygon fill="white" stroke="transparent" points="-4,4 -4,-240 953,-240 953,4 -4,4"/>
<!-- Node1 -->
<g id="node1" class="node">
<title>Node1</title>
<g id="a_node1"><a xlink:title="Data store representing a deficit user async&#45;accept request that had to be saved due to lacking surpl...">
<polygon fill="#bfbfbf" stroke="black" points="830,-49.5 830,-84.5 949,-84.5 949,-49.5 830,-49.5"/>
<text text-anchor="start" x="838" y="-74.1" font-family="Helvetica,sans-Serif" font-size="8.00">ipc::transport::Native</text>
<text text-anchor="start" x="838" y="-65.1" font-family="Helvetica,sans-Serif" font-size="8.00">_socket_stream_acceptor</text>
<text text-anchor="middle" x="889.5" y="-56.1" font-family="Helvetica,sans-Serif" font-size="8.00">::User_request</text>
</a>
</g>
</g>
<!-- Node2 -->
<g id="node2" class="node">
<title>Node2</title>
<g id="a_node2"><a xlink:href="classipc_1_1transport_1_1sync__io_1_1Native__socket__stream.html" target="_top" xlink:title="Implements both sync_io::Native_handle_sender and sync_io::Native_handle_receiver concepts by using a...">
<polygon fill="white" stroke="black" points="600,-79 600,-105 723,-105 723,-79 600,-79"/>
<text text-anchor="start" x="608" y="-94.6" font-family="Helvetica,sans-Serif" font-size="8.00">ipc::transport::sync</text>
<text text-anchor="middle" x="661.5" y="-85.6" font-family="Helvetica,sans-Serif" font-size="8.00">_io::Native_socket_stream</text>
</a>
</g>
</g>
<!-- Node2&#45;&gt;Node1 -->
<g id="edge1" class="edge">
<title>Node2&#45;&gt;Node1</title>
<path fill="none" stroke="#9a32cd" stroke-dasharray="5,2" d="M733.36,-84.16C764.35,-80.73 800.26,-76.76 829.72,-73.5"/>
<polygon fill="#9a32cd" stroke="#9a32cd" points="732.62,-80.72 723.06,-85.3 733.39,-87.68 732.62,-80.72"/>
<text text-anchor="middle" x="776.5" y="-86.6" font-family="Helvetica,sans-Serif" font-size="8.00"> m_target_peer</text>
</g>
<!-- Node3 -->
<g id="node3" class="node">
<title>Node3</title>
<g id="a_node3"><a xlink:href="classipc_1_1util_1_1Shared__name.html" target="_top" xlink:title="String&#45;wrapping abstraction representing a name uniquely distinguishing a kernel&#45;persistent entity fr...">
<polygon fill="white" stroke="black" points="318,-101.5 318,-118.5 428,-118.5 428,-101.5 318,-101.5"/>
<text text-anchor="middle" x="373" y="-108.1" font-family="Helvetica,sans-Serif" font-size="8.00">ipc::util::Shared_name</text>
</a>
</g>
</g>
<!-- Node3&#45;&gt;Node2 -->
<g id="edge2" class="edge">
<title>Node3&#45;&gt;Node2</title>
<path fill="none" stroke="#9a32cd" stroke-dasharray="5,2" d="M438.51,-107.79C479.61,-106.16 533.98,-103.6 582,-100 587.74,-99.57 593.71,-99.07 599.67,-98.52"/>
<polygon fill="#9a32cd" stroke="#9a32cd" points="438.21,-104.3 428.35,-108.18 438.48,-111.29 438.21,-104.3"/>
<text text-anchor="middle" x="516" y="-109.6" font-family="Helvetica,sans-Serif" font-size="8.00"> S_RESOURCE_TYPE_ID</text>
</g>
<!-- Node3&#45;&gt;Node3 -->
<g id="edge3" class="edge">
<title>Node3&#45;&gt;Node3</title>
<path fill="none" stroke="#9a32cd" stroke-dasharray="5,2" d="M352.45,-127.86C353.21,-133.02 360.06,-137 373,-137 393.2,-137 398.56,-127.29 389.09,-118.57"/>
<polygon fill="#9a32cd" stroke="#9a32cd" points="355.73,-129.1 356.91,-118.57 349.42,-126.07 355.73,-129.1"/>
<text text-anchor="middle" x="373" y="-202.6" font-family="Helvetica,sans-Serif" font-size="8.00"> S_1ST_OR_ONLY</text>
<text text-anchor="middle" x="373" y="-193.6" font-family="Helvetica,sans-Serif" font-size="8.00">S_EMPTY</text>
<text text-anchor="start" x="334.5" y="-184.6" font-family="Helvetica,sans-Serif" font-size="8.00">S_RESOURCE_TYPE</text>
<text text-anchor="middle" x="373" y="-175.6" font-family="Helvetica,sans-Serif" font-size="8.00">_ID_MUTEX</text>
<text text-anchor="start" x="334.5" y="-166.6" font-family="Helvetica,sans-Serif" font-size="8.00">S_RESOURCE_TYPE</text>
<text text-anchor="middle" x="373" y="-157.6" font-family="Helvetica,sans-Serif" font-size="8.00">_ID_SHM</text>
<text text-anchor="middle" x="373" y="-148.6" font-family="Helvetica,sans-Serif" font-size="8.00">S_ROOT_MAGIC</text>
<text text-anchor="middle" x="373" y="-139.6" font-family="Helvetica,sans-Serif" font-size="8.00">S_SENTINEL</text>
</g>
<!-- Node4 -->
<g id="node4" class="node">
<title>Node4</title>
<g id="a_node4"><a xlink:title=" ">
<polygon fill="white" stroke="#bfbfbf" points="150,-192.5 150,-209.5 190,-209.5 190,-192.5 150,-192.5"/>
<text text-anchor="middle" x="170" y="-199.1" font-family="Helvetica,sans-Serif" font-size="8.00">size_t</text>
</a>
</g>
</g>
<!-- Node4&#45;&gt;Node2 -->
<g id="edge9" class="edge">
<title>Node4&#45;&gt;Node2</title>
<path fill="none" stroke="#9a32cd" stroke-dasharray="5,2" d="M199.9,-208.69C248.63,-220.38 349.86,-239.15 432,-218 518.86,-195.64 608.05,-132.49 644,-105.03"/>
<polygon fill="#9a32cd" stroke="#9a32cd" points="200.6,-205.26 190.05,-206.25 198.92,-212.05 200.6,-205.26"/>
<text text-anchor="middle" x="373" y="-229.6" font-family="Helvetica,sans-Serif" font-size="8.00"> S_MAX_META_BLOB_LENGTH</text>
</g>
<!-- Node4&#45;&gt;Node3 -->
<g id="edge4" class="edge">
<title>Node4&#45;&gt;Node3</title>
<path fill="none" stroke="#9a32cd" stroke-dasharray="5,2" d="M199.19,-188.24C240.78,-169.41 317.45,-134.69 352.99,-118.6"/>
<polygon fill="#9a32cd" stroke="#9a32cd" points="197.58,-185.13 189.91,-192.44 200.46,-191.5 197.58,-185.13"/>
<text text-anchor="middle" x="263" y="-176.6" font-family="Helvetica,sans-Serif" font-size="8.00"> S_MAX_LENGTH</text>
</g>
<!-- Node5 -->
<g id="node5" class="node">
<title>Node5</title>
<g id="a_node5"><a xlink:title=" ">
<polygon fill="white" stroke="#bfbfbf" points="128,-118.5 128,-135.5 212,-135.5 212,-118.5 128,-118.5"/>
<text text-anchor="middle" x="170" y="-125.1" font-family="Helvetica,sans-Serif" font-size="8.00">static const char</text>
</a>
</g>
</g>
<!-- Node5&#45;&gt;Node3 -->
<g id="edge5" class="edge">
<title>Node5&#45;&gt;Node3</title>
<path fill="none" stroke="#9a32cd" stroke-dasharray="5,2" d="M222.18,-122.67C251.46,-120.19 288.17,-117.09 317.92,-114.57"/>
<polygon fill="#9a32cd" stroke="#9a32cd" points="221.83,-119.19 212.16,-123.52 222.42,-126.16 221.83,-119.19"/>
<text text-anchor="middle" x="263" y="-123.6" font-family="Helvetica,sans-Serif" font-size="8.00"> S_SEPARATOR</text>
</g>
<!-- Node6 -->
<g id="node6" class="node">
<title>Node6</title>
<g id="a_node6"><a xlink:title=" ">
<polygon fill="white" stroke="black" points="140.5,-82.5 140.5,-99.5 199.5,-99.5 199.5,-82.5 140.5,-82.5"/>
<text text-anchor="middle" x="170" y="-89.1" font-family="Helvetica,sans-Serif" font-size="8.00">std::string</text>
</a>
</g>
</g>
<!-- Node6&#45;&gt;Node3 -->
<g id="edge6" class="edge">
<title>Node6&#45;&gt;Node3</title>
<path fill="none" stroke="#9a32cd" stroke-dasharray="5,2" d="M210.11,-94.7C240.81,-97.6 283.9,-101.67 317.91,-104.89"/>
<polygon fill="#9a32cd" stroke="#9a32cd" points="210.08,-91.18 199.8,-93.72 209.42,-98.15 210.08,-91.18"/>
<text text-anchor="middle" x="263" y="-104.6" font-family="Helvetica,sans-Serif" font-size="8.00"> m_raw_name</text>
</g>
<!-- Node7 -->
<g id="node7" class="node">
<title>Node7</title>
<g id="a_node7"><a xlink:title=" ">
<polygon fill="white" stroke="black" points="0,-78 0,-104 91,-104 91,-78 0,-78"/>
<text text-anchor="start" x="8" y="-93.6" font-family="Helvetica,sans-Serif" font-size="8.00">std::basic_string&lt;</text>
<text text-anchor="middle" x="45.5" y="-84.6" font-family="Helvetica,sans-Serif" font-size="8.00"> Char &gt;</text>
</a>
</g>
</g>
<!-- Node7&#45;&gt;Node6 -->
<g id="edge7" class="edge">
<title>Node7&#45;&gt;Node6</title>
<path fill="none" stroke="midnightblue" d="M101.25,-91C114.72,-91 128.61,-91 140.29,-91"/>
<polygon fill="midnightblue" stroke="midnightblue" points="101.07,-87.5 91.07,-91 101.07,-94.5 101.07,-87.5"/>
</g>
<!-- Node8 -->
<g id="node8" class="node">
<title>Node8</title>
<g id="a_node8"><a xlink:title=" ">
<polygon fill="white" stroke="#bfbfbf" points="355.5,-54.5 355.5,-71.5 390.5,-71.5 390.5,-54.5 355.5,-54.5"/>
<text text-anchor="middle" x="373" y="-61.1" font-family="Helvetica,sans-Serif" font-size="8.00">bool</text>
</a>
</g>
</g>
<!-- Node8&#45;&gt;Node2 -->
<g id="edge8" class="edge">
<title>Node8&#45;&gt;Node2</title>
<path fill="none" stroke="#9a32cd" stroke-dasharray="5,2" d="M400.77,-58.5C440.82,-52.69 518.41,-44.99 582,-60 590.71,-62.05 591.81,-65.41 600,-69 607.82,-72.43 616.33,-75.85 624.43,-78.97"/>
<polygon fill="#9a32cd" stroke="#9a32cd" points="400.1,-55.06 390.75,-60.03 401.16,-61.98 400.1,-55.06"/>
<text text-anchor="middle" x="516" y="-89.6" font-family="Helvetica,sans-Serif" font-size="8.00"> S_BLOB_UNDERFLOW_ALLOWED</text>
<text text-anchor="start" x="450" y="-80.6" font-family="Helvetica,sans-Serif" font-size="8.00">S_META_BLOB_UNDERFLOW</text>
<text text-anchor="middle" x="516" y="-71.6" font-family="Helvetica,sans-Serif" font-size="8.00">_ALLOWED</text>
<text text-anchor="middle" x="516" y="-62.6" font-family="Helvetica,sans-Serif" font-size="8.00">S_TRANSMIT_NATIVE_HANDLES</text>
</g>
<!-- Node9 -->
<g id="node9" class="node">
<title>Node9</title>
<g id="a_node9"><a xlink:title=" ">
<polygon fill="white" stroke="#bfbfbf" points="314,-0.5 314,-35.5 432,-35.5 432,-0.5 314,-0.5"/>
<text text-anchor="start" x="322" y="-25.1" font-family="Helvetica,sans-Serif" font-size="8.00">propagate_const&lt; boost</text>
<text text-anchor="start" x="322" y="-16.1" font-family="Helvetica,sans-Serif" font-size="8.00">::movelib::unique_ptr</text>
<text text-anchor="middle" x="373" y="-7.1" font-family="Helvetica,sans-Serif" font-size="8.00">&lt; Impl &gt; &gt;</text>
</a>
</g>
</g>
<!-- Node9&#45;&gt;Node2 -->
<g id="edge10" class="edge">
<title>Node9&#45;&gt;Node2</title>
<path fill="none" stroke="#9a32cd" stroke-dasharray="5,2" d="M442.48,-10.01C485.68,-8.39 540.86,-12.89 582,-39 595.13,-47.33 588.08,-59.02 600,-69 604.65,-72.89 610.04,-76.17 615.63,-78.91"/>
<polygon fill="#9a32cd" stroke="#9a32cd" points="442.16,-6.53 432.34,-10.52 442.5,-13.52 442.16,-6.53"/>
<text text-anchor="middle" x="516" y="-41.6" font-family="Helvetica,sans-Serif" font-size="8.00"> m_impl</text>
</g>
<!-- Node10 -->
<g id="node10" class="node">
<title>Node10</title>
<g id="a_node10"><a xlink:title=" ">
<polygon fill="white" stroke="#bfbfbf" points="626,-42.5 626,-59.5 697,-59.5 697,-42.5 626,-42.5"/>
<text text-anchor="middle" x="661.5" y="-49.1" font-family="Helvetica,sans-Serif" font-size="8.00">Task_asio_err</text>
</a>
</g>
</g>
<!-- Node10&#45;&gt;Node1 -->
<g id="edge11" class="edge">
<title>Node10&#45;&gt;Node1</title>
<path fill="none" stroke="#9a32cd" stroke-dasharray="5,2" d="M707.08,-51.22C736.84,-51.68 776.83,-52.89 812,-56 817.75,-56.51 823.72,-57.16 829.69,-57.88"/>
<polygon fill="#9a32cd" stroke="#9a32cd" points="707.05,-47.72 697,-51.09 706.96,-54.72 707.05,-47.72"/>
<text text-anchor="middle" x="776.5" y="-58.6" font-family="Helvetica,sans-Serif" font-size="8.00"> m_on_done_func</text>
</g>
</g>
</svg>
