<?xml version="1.0" encoding="UTF-8" standalone="no"?>
<!DOCTYPE svg PUBLIC "-//W3C//DTD SVG 1.1//EN"
 "http://www.w3.org/Graphics/SVG/1.1/DTD/svg11.dtd">
<!-- Generated by graphviz version 2.43.0 (0)
 -->
<!-- Title: ipc::transport::sync_io::Native_socket_stream::Impl::Rcv_user_request Pages: 1 -->
<svg width="382pt" height="170pt"
 viewBox="0.00 0.00 381.50 170.00" xmlns="http://www.w3.org/2000/svg" xmlns:xlink="http://www.w3.org/1999/xlink">
<g id="graph0" class="graph" transform="scale(1 1) rotate(0) translate(4 166)">
<title>ipc::transport::sync_io::Native_socket_stream::Impl::Rcv_user_request</title>
<polygon fill="white" stroke="transparent" points="-4,4 -4,-166 377.5,-166 377.5,4 -4,4"/>
<!-- Node1 -->
<g id="node1" class="node">
<title>Node1</title>
<g id="a_node1"><a xlink:title="Identical to sync_io::Async_adapter_receiver::User_request, except we only keep at most 1 of these an...">
<polygon fill="#bfbfbf" stroke="black" points="148,-0.5 148,-35.5 271,-35.5 271,-0.5 148,-0.5"/>
<text text-anchor="start" x="156" y="-25.1" font-family="Helvetica,sans-Serif" font-size="8.00">ipc::transport::sync</text>
<text text-anchor="start" x="156" y="-16.1" font-family="Helvetica,sans-Serif" font-size="8.00">_io::Native_socket_stream</text>
<text text-anchor="middle" x="209.5" y="-7.1" font-family="Helvetica,sans-Serif" font-size="8.00">::Impl::Rcv_user_request</text>
</a>
</g>
</g>
<!-- Node2 -->
<g id="node2" class="node">
<title>Node2</title>
<g id="a_node2"><a xlink:href="structipc_1_1util_1_1Native__handle.html" target="_top" xlink:title="A monolayer&#45;thin wrapper around a native handle, a/k/a descriptor a/k/a FD.">
<polygon fill="white" stroke="black" points="40.5,-81.5 40.5,-98.5 152.5,-98.5 152.5,-81.5 40.5,-81.5"/>
<text text-anchor="middle" x="96.5" y="-88.1" font-family="Helvetica,sans-Serif" font-size="8.00">ipc::util::Native_handle</text>
</a>
</g>
</g>
<!-- Node2&#45;&gt;Node1 -->
<g id="edge1" class="edge">
<title>Node2&#45;&gt;Node1</title>
<path fill="none" stroke="#9a32cd" stroke-dasharray="5,2" d="M108.53,-73.68C114.33,-67.01 121.72,-59.48 129.5,-54 139.66,-46.84 151.52,-40.68 162.95,-35.61"/>
<polygon fill="#9a32cd" stroke="#9a32cd" points="105.77,-71.52 102.11,-81.46 111.17,-75.98 105.77,-71.52"/>
<text text-anchor="middle" x="167.5" y="-56.6" font-family="Helvetica,sans-Serif" font-size="8.00"> m_target_hndl_ptr</text>
</g>
<!-- Node3 -->
<g id="node3" class="node">
<title>Node3</title>
<g id="a_node3"><a xlink:title=" ">
<polygon fill="white" stroke="#bfbfbf" points="0,-144.5 0,-161.5 101,-161.5 101,-144.5 0,-144.5"/>
<text text-anchor="middle" x="50.5" y="-151.1" font-family="Helvetica,sans-Serif" font-size="8.00">static const handle_t</text>
</a>
</g>
</g>
<!-- Node3&#45;&gt;Node2 -->
<g id="edge2" class="edge">
<title>Node3&#45;&gt;Node2</title>
<path fill="none" stroke="#9a32cd" stroke-dasharray="5,2" d="M47.68,-134.22C47.6,-128.38 48.46,-122.09 51.5,-117 56.49,-108.63 65.28,-102.7 73.77,-98.63"/>
<polygon fill="#9a32cd" stroke="#9a32cd" points="44.23,-134.85 48.71,-144.45 51.2,-134.15 44.23,-134.85"/>
<text text-anchor="middle" x="86.5" y="-119.6" font-family="Helvetica,sans-Serif" font-size="8.00"> S_NULL_HANDLE</text>
</g>
<!-- Node4 -->
<g id="node4" class="node">
<title>Node4</title>
<g id="a_node4"><a xlink:title=" ">
<polygon fill="white" stroke="#bfbfbf" points="129,-144.5 129,-161.5 158,-161.5 158,-144.5 129,-144.5"/>
<text text-anchor="middle" x="143.5" y="-151.1" font-family="Helvetica,sans-Serif" font-size="8.00">int</text>
</a>
</g>
</g>
<!-- Node4&#45;&gt;Node2 -->
<g id="edge3" class="edge">
<title>Node4&#45;&gt;Node2</title>
<path fill="none" stroke="#9a32cd" stroke-dasharray="5,2" d="M134.27,-135.8C130.56,-129.72 126.08,-122.86 121.5,-117 116.41,-110.49 109.92,-103.78 104.83,-98.81"/>
<polygon fill="#9a32cd" stroke="#9a32cd" points="131.28,-137.62 139.37,-144.47 137.32,-134.07 131.28,-137.62"/>
<text text-anchor="middle" x="162.5" y="-119.6" font-family="Helvetica,sans-Serif" font-size="8.00"> m_native_handle</text>
</g>
<!-- Node5 -->
<g id="node5" class="node">
<title>Node5</title>
<g id="a_node5"><a xlink:title=" ">
<polygon fill="white" stroke="#bfbfbf" points="170.5,-81.5 170.5,-98.5 248.5,-98.5 248.5,-81.5 170.5,-81.5"/>
<text text-anchor="middle" x="209.5" y="-88.1" font-family="Helvetica,sans-Serif" font-size="8.00">mutable_buffer</text>
</a>
</g>
</g>
<!-- Node5&#45;&gt;Node1 -->
<g id="edge4" class="edge">
<title>Node5&#45;&gt;Node1</title>
<path fill="none" stroke="#9a32cd" stroke-dasharray="5,2" d="M209.5,-71.16C209.5,-60.2 209.5,-46.26 209.5,-35.55"/>
<polygon fill="#9a32cd" stroke="#9a32cd" points="206,-71.24 209.5,-81.24 213,-71.24 206,-71.24"/>
<text text-anchor="middle" x="252" y="-56.6" font-family="Helvetica,sans-Serif" font-size="8.00"> m_target_meta_blob</text>
</g>
<!-- Node6 -->
<g id="node6" class="node">
<title>Node6</title>
<g id="a_node6"><a xlink:title=" ">
<polygon fill="white" stroke="#bfbfbf" points="276,-81.5 276,-98.5 359,-98.5 359,-81.5 276,-81.5"/>
<text text-anchor="middle" x="317.5" y="-88.1" font-family="Helvetica,sans-Serif" font-size="8.00">Task_asio_err_sz</text>
</a>
</g>
</g>
<!-- Node6&#45;&gt;Node1 -->
<g id="edge5" class="edge">
<title>Node6&#45;&gt;Node1</title>
<path fill="none" stroke="#9a32cd" stroke-dasharray="5,2" d="M309.73,-72.13C306.13,-65.77 301.35,-58.9 295.5,-54 286.61,-46.54 275.92,-40.51 265.14,-35.69"/>
<polygon fill="#9a32cd" stroke="#9a32cd" points="306.75,-73.99 314.38,-81.33 312.99,-70.83 306.75,-73.99"/>
<text text-anchor="middle" x="338" y="-56.6" font-family="Helvetica,sans-Serif" font-size="8.00"> m_on_done_func</text>
</g>
</g>
</svg>
