<?xml version="1.0" encoding="UTF-8" standalone="no"?>
<!DOCTYPE svg PUBLIC "-//W3C//DTD SVG 1.1//EN"
 "http://www.w3.org/Graphics/SVG/1.1/DTD/svg11.dtd">
<!-- Generated by graphviz version 2.43.0 (0)
 -->
<!-- Title: ipc::session::Session_server_impl&lt; Session_server_t, Server_session_t &gt;::State Pages: 1 -->
<svg width="529pt" height="199pt"
 viewBox="0.00 0.00 529.00 198.50" xmlns="http://www.w3.org/2000/svg" xmlns:xlink="http://www.w3.org/1999/xlink">
<g id="graph0" class="graph" transform="scale(1 1) rotate(0) translate(4 194.5)">
<title>ipc::session::Session_server_impl&lt; Session_server_t, Server_session_t &gt;::State</title>
<polygon fill="white" stroke="transparent" points="-4,4 -4,-194.5 525,-194.5 525,4 -4,4"/>
<!-- Node1 -->
<g id="node1" class="node">
<title>Node1</title>
<g id="a_node1"><a xlink:title="All internal mutable state of Session_server_impl.">
<polygon fill="#bfbfbf" stroke="black" points="402,-73.5 402,-117.5 521,-117.5 521,-73.5 402,-73.5"/>
<text text-anchor="start" x="410" y="-107.1" font-family="Helvetica,sans-Serif" font-size="8.00">ipc::session::Session</text>
<text text-anchor="start" x="410" y="-98.1" font-family="Helvetica,sans-Serif" font-size="8.00">_server_impl&lt; Session</text>
<text text-anchor="start" x="410" y="-89.1" font-family="Helvetica,sans-Serif" font-size="8.00">_server_t, Server_session</text>
<text text-anchor="middle" x="461.5" y="-80.1" font-family="Helvetica,sans-Serif" font-size="8.00">_t &gt;::State</text>
</a>
</g>
</g>
<!-- Node2 -->
<g id="node2" class="node">
<title>Node2</title>
<g id="a_node2"><a xlink:title=" ">
<polygon fill="white" stroke="black" points="123.5,-173 123.5,-190 237.5,-190 237.5,-173 123.5,-173"/>
<text text-anchor="middle" x="180.5" y="-179.6" font-family="Helvetica,sans-Serif" font-size="8.00">std::atomic&lt; uint64_t &gt;</text>
</a>
</g>
</g>
<!-- Node2&#45;&gt;Node1 -->
<g id="edge1" class="edge">
<title>Node2&#45;&gt;Node1</title>
<path fill="none" stroke="#9a32cd" stroke-dasharray="5,2" d="M247.71,-172.07C287.94,-165.13 339.89,-154 384,-137.5 398.05,-132.24 412.67,-124.77 425.33,-117.58"/>
<polygon fill="#9a32cd" stroke="#9a32cd" points="247.02,-168.64 237.74,-173.75 248.18,-175.54 247.02,-168.64"/>
<text text-anchor="middle" x="331.5" y="-168.1" font-family="Helvetica,sans-Serif" font-size="8.00"> m_last_cli_namespace</text>
</g>
<!-- Node3 -->
<g id="node3" class="node">
<title>Node3</title>
<g id="a_node3"><a xlink:title=" ">
<polygon fill="white" stroke="#bfbfbf" points="0,-173 0,-190 50,-190 50,-173 0,-173"/>
<text text-anchor="middle" x="25" y="-179.6" font-family="Helvetica,sans-Serif" font-size="8.00">uint64_t</text>
</a>
</g>
</g>
<!-- Node3&#45;&gt;Node2 -->
<g id="edge2" class="edge">
<title>Node3&#45;&gt;Node2</title>
<path fill="none" stroke="#9a32cd" stroke-dasharray="5,2" d="M60.37,-181.5C78.94,-181.5 102.33,-181.5 123.45,-181.5"/>
<polygon fill="#9a32cd" stroke="#9a32cd" points="60.32,-178 50.32,-181.5 60.32,-185 60.32,-178"/>
<text text-anchor="middle" x="75" y="-184.1" font-family="Helvetica,sans-Serif" font-size="8.00"> ptr</text>
</g>
<!-- Node4 -->
<g id="node4" class="node">
<title>Node4</title>
<g id="a_node4"><a xlink:title=" ">
<polygon fill="white" stroke="#bfbfbf" points="115,-127.5 115,-153.5 246,-153.5 246,-127.5 115,-127.5"/>
<text text-anchor="start" x="123" y="-143.1" font-family="Helvetica,sans-Serif" font-size="8.00">unordered_set&lt; Incomplete</text>
<text text-anchor="middle" x="180.5" y="-134.1" font-family="Helvetica,sans-Serif" font-size="8.00">_session &gt;</text>
</a>
</g>
</g>
<!-- Node4&#45;&gt;Node1 -->
<g id="edge3" class="edge">
<title>Node4&#45;&gt;Node1</title>
<path fill="none" stroke="#9a32cd" stroke-dasharray="5,2" d="M256.3,-128.89C294.52,-122.91 341.76,-115.43 384,-108.5 389.72,-107.56 395.67,-106.57 401.62,-105.58"/>
<polygon fill="#9a32cd" stroke="#9a32cd" points="255.62,-125.46 246.28,-130.46 256.7,-132.37 255.62,-125.46"/>
<text text-anchor="middle" x="331.5" y="-127.1" font-family="Helvetica,sans-Serif" font-size="8.00"> m_incomplete_sessions</text>
</g>
<!-- Node5 -->
<g id="node5" class="node">
<title>Node5</title>
<g id="a_node5"><a xlink:title=" ">
<polygon fill="white" stroke="#bfbfbf" points="100,-82.5 100,-108.5 261,-108.5 261,-82.5 100,-82.5"/>
<text text-anchor="start" x="108" y="-98.1" font-family="Helvetica,sans-Serif" font-size="8.00">unique_ptr&lt; ipc::transport</text>
<text text-anchor="middle" x="180.5" y="-89.1" font-family="Helvetica,sans-Serif" font-size="8.00">::Native_socket_stream_acceptor &gt;</text>
</a>
</g>
</g>
<!-- Node5&#45;&gt;Node1 -->
<g id="edge4" class="edge">
<title>Node5&#45;&gt;Node1</title>
<path fill="none" stroke="#9a32cd" stroke-dasharray="5,2" d="M271.2,-95.5C313.93,-95.5 363.83,-95.5 401.67,-95.5"/>
<polygon fill="#9a32cd" stroke="#9a32cd" points="271.08,-92 261.08,-95.5 271.08,-99 271.08,-92"/>
<text text-anchor="middle" x="331.5" y="-98.1" font-family="Helvetica,sans-Serif" font-size="8.00"> m_master_sock_acceptor</text>
</g>
<!-- Node6 -->
<g id="node6" class="node">
<title>Node6</title>
<g id="a_node6"><a xlink:title=" ">
<polygon fill="white" stroke="#bfbfbf" points="130,-46 130,-63 231,-63 231,-46 130,-46"/>
<text text-anchor="middle" x="180.5" y="-52.6" font-family="Helvetica,sans-Serif" font-size="8.00">Mutex_non_recursive</text>
</a>
</g>
</g>
<!-- Node6&#45;&gt;Node1 -->
<g id="edge5" class="edge">
<title>Node6&#45;&gt;Node1</title>
<path fill="none" stroke="#9a32cd" stroke-dasharray="5,2" d="M241.03,-62.24C281.41,-67.61 335.98,-75.1 384,-82.5 389.73,-83.38 395.69,-84.33 401.64,-85.31"/>
<polygon fill="#9a32cd" stroke="#9a32cd" points="241.45,-58.76 231.08,-60.92 240.53,-65.7 241.45,-58.76"/>
<text text-anchor="middle" x="331.5" y="-85.1" font-family="Helvetica,sans-Serif" font-size="8.00"> m_mutex</text>
</g>
<!-- Node7 -->
<g id="node7" class="node">
<title>Node7</title>
<g id="a_node7"><a xlink:title=" ">
<polygon fill="white" stroke="#bfbfbf" points="115,-0.5 115,-26.5 246,-26.5 246,-0.5 115,-0.5"/>
<text text-anchor="start" x="123" y="-16.1" font-family="Helvetica,sans-Serif" font-size="8.00">unique_ptr&lt; flow::async</text>
<text text-anchor="middle" x="180.5" y="-7.1" font-family="Helvetica,sans-Serif" font-size="8.00">::Single_thread_task_loop &gt;</text>
</a>
</g>
</g>
<!-- Node7&#45;&gt;Node1 -->
<g id="edge6" class="edge">
<title>Node7&#45;&gt;Node1</title>
<path fill="none" stroke="#9a32cd" stroke-dasharray="5,2" d="M256.53,-17.19C295.59,-21.02 343.52,-28.8 384,-44.5 401.86,-51.43 419.78,-63.06 433.79,-73.48"/>
<polygon fill="#9a32cd" stroke="#9a32cd" points="256.55,-13.67 246.28,-16.25 255.92,-20.64 256.55,-13.67"/>
<text text-anchor="start" x="284" y="-56.1" font-family="Helvetica,sans-Serif" font-size="8.00"> m_incomplete_session</text>
<text text-anchor="middle" x="331.5" y="-47.1" font-family="Helvetica,sans-Serif" font-size="8.00">_graveyard</text>
</g>
</g>
</svg>
