<?xml version="1.0" encoding="UTF-8" standalone="no"?>
<!DOCTYPE svg PUBLIC "-//W3C//DTD SVG 1.1//EN"
 "http://www.w3.org/Graphics/SVG/1.1/DTD/svg11.dtd">
<!-- Generated by graphviz version 2.43.0 (0)
 -->
<!-- Title: ipc::transport::struc::Channel&lt; Channel_obj, Message_body, Struct_builder_config, Struct_reader_config &gt;::Sync_op_state::Request_result Pages: 1 -->
<svg width="165pt" height="125pt"
 viewBox="0.00 0.00 165.00 125.00" xmlns="http://www.w3.org/2000/svg" xmlns:xlink="http://www.w3.org/1999/xlink">
<g id="graph0" class="graph" transform="scale(1 1) rotate(0) translate(4 121)">
<title>ipc::transport::struc::Channel&lt; Channel_obj, Message_body, Struct_builder_config, Struct_reader_config &gt;::Sync_op_state::Request_result</title>
<polygon fill="white" stroke="transparent" points="-4,4 -4,-121 161,-121 161,4 -4,4"/>
<!-- Node1 -->
<g id="node1" class="node">
<title>Node1</title>
<g id="a_node1"><a xlink:title="A successul result of sync_request().">
<polygon fill="#bfbfbf" stroke="black" points="0,-0.5 0,-53.5 157,-53.5 157,-0.5 0,-0.5"/>
<text text-anchor="start" x="8" y="-43.1" font-family="Helvetica,sans-Serif" font-size="8.00">ipc::transport::struc</text>
<text text-anchor="start" x="8" y="-34.1" font-family="Helvetica,sans-Serif" font-size="8.00">::Channel&lt; Channel_obj,</text>
<text text-anchor="start" x="8" y="-25.1" font-family="Helvetica,sans-Serif" font-size="8.00"> Message_body, Struct_builder</text>
<text text-anchor="start" x="8" y="-16.1" font-family="Helvetica,sans-Serif" font-size="8.00">_config, Struct_reader_config</text>
<text text-anchor="middle" x="78.5" y="-7.1" font-family="Helvetica,sans-Serif" font-size="8.00"> &gt;::Sync_op_state::Request_result</text>
</a>
</g>
</g>
<!-- Node2 -->
<g id="node2" class="node">
<title>Node2</title>
<g id="a_node2"><a xlink:title=" ">
<polygon fill="white" stroke="#bfbfbf" points="49,-99.5 49,-116.5 108,-116.5 108,-99.5 49,-99.5"/>
<text text-anchor="middle" x="78.5" y="-106.1" font-family="Helvetica,sans-Serif" font-size="8.00">Msg_in_ptr</text>
</a>
</g>
</g>
<!-- Node2&#45;&gt;Node1 -->
<g id="edge1" class="edge">
<title>Node2&#45;&gt;Node1</title>
<path fill="none" stroke="#9a32cd" stroke-dasharray="5,2" d="M78.5,-89.13C78.5,-78.7 78.5,-65.36 78.5,-53.8"/>
<polygon fill="#9a32cd" stroke="#9a32cd" points="75,-89.43 78.5,-99.43 82,-89.43 75,-89.43"/>
<text text-anchor="middle" x="92" y="-74.6" font-family="Helvetica,sans-Serif" font-size="8.00"> m_rsp</text>
</g>
</g>
</svg>
