<?xml version="1.0" encoding="UTF-8" standalone="no"?>
<!DOCTYPE svg PUBLIC "-//W3C//DTD SVG 1.1//EN"
 "http://www.w3.org/Graphics/SVG/1.1/DTD/svg11.dtd">
<!-- Generated by graphviz version 2.43.0 (0)
 -->
<!-- Title: boost::system::is_error_code_enum&lt;::ipc::transport::struc::error::Code &gt; Pages: 1 -->
<svg width="144pt" height="107pt"
 viewBox="0.00 0.00 144.00 107.00" xmlns="http://www.w3.org/2000/svg" xmlns:xlink="http://www.w3.org/1999/xlink">
<g id="graph0" class="graph" transform="scale(1 1) rotate(0) translate(4 103)">
<title>boost::system::is_error_code_enum&lt;::ipc::transport::struc::error::Code &gt;</title>
<polygon fill="white" stroke="transparent" points="-4,4 -4,-103 140,-103 140,4 -4,4"/>
<!-- Node1 -->
<g id="node1" class="node">
<title>Node1</title>
<g id="a_node1"><a xlink:title="Ummm – it specializes this struct to – look – the end result is boost.system uses this as authorizati...">
<polygon fill="#bfbfbf" stroke="black" points="0,-0.5 0,-35.5 136,-35.5 136,-0.5 0,-0.5"/>
<text text-anchor="start" x="8" y="-25.1" font-family="Helvetica,sans-Serif" font-size="8.00">boost::system::is_error</text>
<text text-anchor="start" x="8" y="-16.1" font-family="Helvetica,sans-Serif" font-size="8.00">_code_enum&lt;::ipc::transport</text>
<text text-anchor="middle" x="68" y="-7.1" font-family="Helvetica,sans-Serif" font-size="8.00">::struc::error::Code &gt;</text>
</a>
</g>
</g>
<!-- Node2 -->
<g id="node2" class="node">
<title>Node2</title>
<g id="a_node2"><a xlink:title=" ">
<polygon fill="white" stroke="#bfbfbf" points="26,-81.5 26,-98.5 110,-98.5 110,-81.5 26,-81.5"/>
<text text-anchor="middle" x="68" y="-88.1" font-family="Helvetica,sans-Serif" font-size="8.00">static const bool</text>
</a>
</g>
</g>
<!-- Node2&#45;&gt;Node1 -->
<g id="edge1" class="edge">
<title>Node2&#45;&gt;Node1</title>
<path fill="none" stroke="#9a32cd" stroke-dasharray="5,2" d="M68,-71.16C68,-60.2 68,-46.26 68,-35.55"/>
<polygon fill="#9a32cd" stroke="#9a32cd" points="64.5,-71.24 68,-81.24 71.5,-71.24 64.5,-71.24"/>
<text text-anchor="middle" x="80.5" y="-56.6" font-family="Helvetica,sans-Serif" font-size="8.00"> value</text>
</g>
</g>
</svg>
