<?xml version="1.0" encoding="UTF-8" standalone="no"?>
<!DOCTYPE svg PUBLIC "-//W3C//DTD SVG 1.1//EN"
 "http://www.w3.org/Graphics/SVG/1.1/DTD/svg11.dtd">
<!-- Generated by graphviz version 2.43.0 (0)
 -->
<!-- Title: ipc::util::Native_handle::Native_handle Pages: 1 -->
<svg width="404pt" height="62pt"
 viewBox="0.00 0.00 404.00 62.00" xmlns="http://www.w3.org/2000/svg" xmlns:xlink="http://www.w3.org/1999/xlink">
<g id="graph0" class="graph" transform="scale(1 1) rotate(0) translate(4 58)">
<title>ipc::util::Native_handle::Native_handle</title>
<polygon fill="white" stroke="transparent" points="-4,4 -4,-58 400,-58 400,4 -4,4"/>
<!-- Node1 -->
<g id="node1" class="node">
<title>Node1</title>
<g id="a_node1"><a xlink:title="Constructs object equal to src, while making src == null().">
<polygon fill="#bfbfbf" stroke="black" points="0,-14 0,-40 112,-40 112,-14 0,-14"/>
<text text-anchor="start" x="8" y="-29.6" font-family="Helvetica,sans-Serif" font-size="8.00">ipc::util::Native_handle</text>
<text text-anchor="middle" x="56" y="-20.6" font-family="Helvetica,sans-Serif" font-size="8.00">::Native_handle</text>
</a>
</g>
</g>
<!-- Node2 -->
<g id="node2" class="node">
<title>Node2</title>
<g id="a_node2"><a xlink:href="structipc_1_1util_1_1Native__handle.html#a6e321b8cc4628d56cc903beae13c6438" target="_top" xlink:title="Move assignment; acts similarly to move ctor; but no&#45;op if *this == src.">
<polygon fill="white" stroke="black" points="148,-14 148,-40 260,-40 260,-14 148,-14"/>
<text text-anchor="start" x="156" y="-29.6" font-family="Helvetica,sans-Serif" font-size="8.00">ipc::util::Native_handle</text>
<text text-anchor="middle" x="204" y="-20.6" font-family="Helvetica,sans-Serif" font-size="8.00">::operator=</text>
</a>
</g>
</g>
<!-- Node1&#45;&gt;Node2 -->
<g id="edge1" class="edge">
<title>Node1&#45;&gt;Node2</title>
<path fill="none" stroke="midnightblue" d="M112.2,-27C120.46,-27 129.05,-27 137.51,-27"/>
<polygon fill="midnightblue" stroke="midnightblue" points="137.73,-30.5 147.73,-27 137.73,-23.5 137.73,-30.5"/>
</g>
<!-- Node3 -->
<g id="node3" class="node">
<title>Node3</title>
<g id="a_node3"><a xlink:href="namespaceipc_1_1transport.html#af0610dff5efd418a8ff393f0ad9dd5c2" target="_top" xlink:title="Implements Persistent_mq_handle related concept: Swaps two objects.">
<polygon fill="white" stroke="black" points="296,-36.5 296,-53.5 396,-53.5 396,-36.5 296,-36.5"/>
<text text-anchor="middle" x="346" y="-43.1" font-family="Helvetica,sans-Serif" font-size="8.00">ipc::transport::swap</text>
</a>
</g>
</g>
<!-- Node2&#45;&gt;Node3 -->
<g id="edge2" class="edge">
<title>Node2&#45;&gt;Node3</title>
<path fill="none" stroke="midnightblue" d="M260.33,-34.11C268.7,-35.19 277.36,-36.3 285.81,-37.39"/>
<polygon fill="midnightblue" stroke="midnightblue" points="285.6,-40.89 295.97,-38.7 286.5,-33.95 285.6,-40.89"/>
</g>
<!-- Node4 -->
<g id="node4" class="node">
<title>Node4</title>
<g id="a_node4"><a xlink:href="namespaceipc_1_1util.html#a9ea22a64cfbc6de66181c278ff5f6975" target="_top" xlink:title="Swaps two objects.">
<polygon fill="white" stroke="black" points="308.5,-0.5 308.5,-17.5 383.5,-17.5 383.5,-0.5 308.5,-0.5"/>
<text text-anchor="middle" x="346" y="-7.1" font-family="Helvetica,sans-Serif" font-size="8.00">ipc::util::swap</text>
</a>
</g>
</g>
<!-- Node2&#45;&gt;Node4 -->
<g id="edge3" class="edge">
<title>Node2&#45;&gt;Node4</title>
<path fill="none" stroke="midnightblue" d="M260.33,-19.89C272.75,-18.29 285.8,-16.61 297.85,-15.06"/>
<polygon fill="midnightblue" stroke="midnightblue" points="298.66,-18.49 308.13,-13.74 297.77,-11.54 298.66,-18.49"/>
</g>
</g>
</svg>
