<?xml version="1.0" encoding="UTF-8" standalone="no"?>
<!DOCTYPE svg PUBLIC "-//W3C//DTD SVG 1.1//EN"
 "http://www.w3.org/Graphics/SVG/1.1/DTD/svg11.dtd">
<!-- Generated by graphviz version 2.43.0 (0)
 -->
<!-- Title: ipc::transport::struc::Heap_fixed_builder::Config Pages: 1 -->
<svg width="183pt" height="125pt"
 viewBox="0.00 0.00 182.50 125.00" xmlns="http://www.w3.org/2000/svg" xmlns:xlink="http://www.w3.org/1999/xlink">
<g id="graph0" class="graph" transform="scale(1 1) rotate(0) translate(4 121)">
<title>ipc::transport::struc::Heap_fixed_builder::Config</title>
<polygon fill="white" stroke="transparent" points="-4,4 -4,-121 178.5,-121 178.5,4 -4,4"/>
<!-- Node1 -->
<g id="node1" class="node">
<title>Node1</title>
<g id="a_node1"><a xlink:title="Implements Struct_builder::Config sub&#45;concept.">
<polygon fill="#bfbfbf" stroke="black" points="14,-0.5 14,-35.5 115,-35.5 115,-0.5 14,-0.5"/>
<text text-anchor="start" x="22" y="-25.1" font-family="Helvetica,sans-Serif" font-size="8.00">ipc::transport::struc</text>
<text text-anchor="start" x="22" y="-16.1" font-family="Helvetica,sans-Serif" font-size="8.00">::Heap_fixed_builder</text>
<text text-anchor="middle" x="64.5" y="-7.1" font-family="Helvetica,sans-Serif" font-size="8.00">::Config</text>
</a>
</g>
</g>
<!-- Node2 -->
<g id="node2" class="node">
<title>Node2</title>
<g id="a_node2"><a xlink:title=" ">
<polygon fill="white" stroke="#bfbfbf" points="0,-99.5 0,-116.5 51,-116.5 51,-99.5 0,-99.5"/>
<text text-anchor="middle" x="25.5" y="-106.1" font-family="Helvetica,sans-Serif" font-size="8.00">Logger *</text>
</a>
</g>
</g>
<!-- Node2&#45;&gt;Node1 -->
<g id="edge1" class="edge">
<title>Node2&#45;&gt;Node1</title>
<path fill="none" stroke="#9a32cd" stroke-dasharray="5,2" d="M22.44,-89.23C21.41,-78.56 21.57,-64.97 26.5,-54 29.59,-47.13 34.74,-41 40.27,-35.86"/>
<polygon fill="#9a32cd" stroke="#9a32cd" points="19.01,-89.97 23.85,-99.4 25.94,-89.01 19.01,-89.97"/>
<text text-anchor="middle" x="54" y="-65.6" font-family="Helvetica,sans-Serif" font-size="8.00"> m_logger_ptr</text>
</g>
<!-- Node3 -->
<g id="node3" class="node">
<title>Node3</title>
<g id="a_node3"><a xlink:title=" ">
<polygon fill="white" stroke="#bfbfbf" points="83.5,-99.5 83.5,-116.5 123.5,-116.5 123.5,-99.5 83.5,-99.5"/>
<text text-anchor="middle" x="103.5" y="-106.1" font-family="Helvetica,sans-Serif" font-size="8.00">size_t</text>
</a>
</g>
</g>
<!-- Node3&#45;&gt;Node1 -->
<g id="edge2" class="edge">
<title>Node3&#45;&gt;Node1</title>
<path fill="none" stroke="#9a32cd" stroke-dasharray="5,2" d="M96.68,-89.85C92.46,-79.42 86.84,-65.87 81.5,-54 78.78,-47.96 75.66,-41.42 72.83,-35.64"/>
<polygon fill="#9a32cd" stroke="#9a32cd" points="93.53,-91.41 100.51,-99.39 100.03,-88.81 93.53,-91.41"/>
<text text-anchor="middle" x="133.5" y="-74.6" font-family="Helvetica,sans-Serif" font-size="8.00"> m_frame_postfix_sz</text>
<text text-anchor="middle" x="133.5" y="-65.6" font-family="Helvetica,sans-Serif" font-size="8.00">m_frame_prefix_sz</text>
<text text-anchor="middle" x="133.5" y="-56.6" font-family="Helvetica,sans-Serif" font-size="8.00">m_segment_sz</text>
</g>
</g>
</svg>
