<?xml version="1.0" encoding="UTF-8" standalone="no"?>
<!DOCTYPE svg PUBLIC "-//W3C//DTD SVG 1.1//EN"
 "http://www.w3.org/Graphics/SVG/1.1/DTD/svg11.dtd">
<!-- Generated by graphviz version 2.43.0 (0)
 -->
<!-- Title: ipc::transport::struc::Struct_builder::Config Pages: 1 -->
<svg width="257pt" height="98pt"
 viewBox="0.00 0.00 256.50 98.00" xmlns="http://www.w3.org/2000/svg" xmlns:xlink="http://www.w3.org/1999/xlink">
<g id="graph0" class="graph" transform="scale(1 1) rotate(0) translate(4 94)">
<title>ipc::transport::struc::Struct_builder::Config</title>
<polygon fill="white" stroke="transparent" points="-4,4 -4,-94 252.5,-94 252.5,4 -4,4"/>
<!-- Node1 -->
<g id="node1" class="node">
<title>Node1</title>
<g id="a_node1"><a xlink:title="Copy&#45;ctible, copy&#45;assignable, default&#45;ctible type – informally, cheaply copyable and likely an aggreg...">
<polygon fill="#bfbfbf" stroke="black" points="45,-0.5 45,-26.5 156,-26.5 156,-0.5 45,-0.5"/>
<text text-anchor="start" x="53" y="-16.1" font-family="Helvetica,sans-Serif" font-size="8.00">ipc::transport::struc</text>
<text text-anchor="middle" x="100.5" y="-7.1" font-family="Helvetica,sans-Serif" font-size="8.00">::Struct_builder::Config</text>
</a>
</g>
</g>
<!-- Node2 -->
<g id="node2" class="node">
<title>Node2</title>
<g id="a_node2"><a xlink:title=" ">
<polygon fill="white" stroke="#bfbfbf" points="0,-72.5 0,-89.5 45,-89.5 45,-72.5 0,-72.5"/>
<text text-anchor="middle" x="22.5" y="-79.1" font-family="Helvetica,sans-Serif" font-size="8.00">Logger</text>
</a>
</g>
</g>
<!-- Node2&#45;&gt;Node1 -->
<g id="edge1" class="edge">
<title>Node2&#45;&gt;Node1</title>
<path fill="none" stroke="#9a32cd" stroke-dasharray="5,2" d="M29.23,-62.92C32.28,-56.72 36.38,-50.02 41.5,-45 49.24,-37.41 59.25,-31.29 68.82,-26.57"/>
<polygon fill="#9a32cd" stroke="#9a32cd" points="25.85,-61.91 25.07,-72.48 32.27,-64.71 25.85,-61.91"/>
<text text-anchor="middle" x="69" y="-47.6" font-family="Helvetica,sans-Serif" font-size="8.00"> m_logger_ptr</text>
</g>
<!-- Node3 -->
<g id="node3" class="node">
<title>Node3</title>
<g id="a_node3"><a xlink:title=" ">
<polygon fill="white" stroke="#bfbfbf" points="63.5,-72.5 63.5,-89.5 137.5,-89.5 137.5,-72.5 63.5,-72.5"/>
<text text-anchor="middle" x="100.5" y="-79.1" font-family="Helvetica,sans-Serif" font-size="8.00">Example_type</text>
</a>
</g>
</g>
<!-- Node3&#45;&gt;Node1 -->
<g id="edge2" class="edge">
<title>Node3&#45;&gt;Node1</title>
<path fill="none" stroke="#9a32cd" stroke-dasharray="5,2" d="M100.5,-62.18C100.5,-50.97 100.5,-36.8 100.5,-26.82"/>
<polygon fill="#9a32cd" stroke="#9a32cd" points="97,-62.49 100.5,-72.49 104,-62.49 97,-62.49"/>
<text text-anchor="middle" x="138.5" y="-47.6" font-family="Helvetica,sans-Serif" font-size="8.00"> m_example_struct</text>
</g>
<!-- Node4 -->
<g id="node4" class="node">
<title>Node4</title>
<g id="a_node4"><a xlink:title=" ">
<polygon fill="white" stroke="#bfbfbf" points="170.5,-72.5 170.5,-89.5 228.5,-89.5 228.5,-72.5 170.5,-72.5"/>
<text text-anchor="middle" x="199.5" y="-79.1" font-family="Helvetica,sans-Serif" font-size="8.00">example_t</text>
</a>
</g>
</g>
<!-- Node4&#45;&gt;Node1 -->
<g id="edge3" class="edge">
<title>Node4&#45;&gt;Node1</title>
<path fill="none" stroke="#9a32cd" stroke-dasharray="5,2" d="M191.75,-63.1C188.16,-56.74 183.37,-49.88 177.5,-45 167.99,-37.1 156.18,-31.06 144.69,-26.53"/>
<polygon fill="#9a32cd" stroke="#9a32cd" points="188.77,-64.96 196.4,-72.31 195.02,-61.81 188.77,-64.96"/>
<text text-anchor="middle" x="216.5" y="-47.6" font-family="Helvetica,sans-Serif" font-size="8.00"> m_example_val</text>
</g>
</g>
</svg>
