<?xml version="1.0" encoding="UTF-8" standalone="no"?>
<!DOCTYPE svg PUBLIC "-//W3C//DTD SVG 1.1//EN"
 "http://www.w3.org/Graphics/SVG/1.1/DTD/svg11.dtd">
<!-- Generated by graphviz version 2.43.0 (0)
 -->
<!-- Title: ipc::session::sync_io::Session_adapter&lt; Session &gt;::Channel_open_result Pages: 1 -->
<svg width="192pt" height="116pt"
 viewBox="0.00 0.00 191.50 116.00" xmlns="http://www.w3.org/2000/svg" xmlns:xlink="http://www.w3.org/1999/xlink">
<g id="graph0" class="graph" transform="scale(1 1) rotate(0) translate(4 112)">
<title>ipc::session::sync_io::Session_adapter&lt; Session &gt;::Channel_open_result</title>
<polygon fill="white" stroke="transparent" points="-4,4 -4,-112 187.5,-112 187.5,4 -4,4"/>
<!-- Node1 -->
<g id="node1" class="node">
<title>Node1</title>
<g id="a_node1"><a xlink:title="Set of result arg values from a successful passive&#45;channel&#45;open from a Session_obj invoking On_channe...">
<polygon fill="#bfbfbf" stroke="black" points="25,-0.5 25,-44.5 132,-44.5 132,-0.5 25,-0.5"/>
<text text-anchor="start" x="33" y="-34.1" font-family="Helvetica,sans-Serif" font-size="8.00">ipc::session::sync</text>
<text text-anchor="start" x="33" y="-25.1" font-family="Helvetica,sans-Serif" font-size="8.00">_io::Session_adapter</text>
<text text-anchor="start" x="33" y="-16.1" font-family="Helvetica,sans-Serif" font-size="8.00">&lt; Session &gt;::Channel</text>
<text text-anchor="middle" x="78.5" y="-7.1" font-family="Helvetica,sans-Serif" font-size="8.00">_open_result</text>
</a>
</g>
</g>
<!-- Node2 -->
<g id="node2" class="node">
<title>Node2</title>
<g id="a_node2"><a xlink:title=" ">
<polygon fill="white" stroke="#bfbfbf" points="0,-90.5 0,-107.5 67,-107.5 67,-90.5 0,-90.5"/>
<text text-anchor="middle" x="33.5" y="-97.1" font-family="Helvetica,sans-Serif" font-size="8.00">Channel_obj</text>
</a>
</g>
</g>
<!-- Node2&#45;&gt;Node1 -->
<g id="edge1" class="edge">
<title>Node2&#45;&gt;Node1</title>
<path fill="none" stroke="#9a32cd" stroke-dasharray="5,2" d="M43.32,-81.6C46.84,-75.73 50.84,-69.06 54.5,-63 58.07,-57.09 61.95,-50.7 65.52,-44.81"/>
<polygon fill="#9a32cd" stroke="#9a32cd" points="40.13,-80.11 37.99,-90.48 46.14,-83.7 40.13,-80.11"/>
<text text-anchor="middle" x="78" y="-65.6" font-family="Helvetica,sans-Serif" font-size="8.00"> m_channel</text>
</g>
<!-- Node3 -->
<g id="node3" class="node">
<title>Node3</title>
<g id="a_node3"><a xlink:title=" ">
<polygon fill="white" stroke="#bfbfbf" points="85,-90.5 85,-107.5 162,-107.5 162,-90.5 85,-90.5"/>
<text text-anchor="middle" x="123.5" y="-97.1" font-family="Helvetica,sans-Serif" font-size="8.00">Mdt_reader_ptr</text>
</a>
</g>
</g>
<!-- Node3&#45;&gt;Node1 -->
<g id="edge2" class="edge">
<title>Node3&#45;&gt;Node1</title>
<path fill="none" stroke="#9a32cd" stroke-dasharray="5,2" d="M113.51,-81.46C106.93,-70.57 98.26,-56.22 91.2,-44.53"/>
<polygon fill="#9a32cd" stroke="#9a32cd" points="110.69,-83.56 118.85,-90.31 116.68,-79.94 110.69,-83.56"/>
<text text-anchor="middle" x="145.5" y="-65.6" font-family="Helvetica,sans-Serif" font-size="8.00"> m_mdt_reader_ptr</text>
</g>
</g>
</svg>
