<?xml version="1.0" encoding="UTF-8" standalone="no"?>
<!DOCTYPE svg PUBLIC "-//W3C//DTD SVG 1.1//EN"
 "http://www.w3.org/Graphics/SVG/1.1/DTD/svg11.dtd">
<!-- Generated by graphviz version 2.43.0 (0)
 -->
<!-- Title: ipc::transport::struc::Channel&lt; Channel_obj, Message_body, Struct_builder_config, Struct_reader_config &gt;::Sync_op_state Pages: 1 -->
<svg width="384pt" height="126pt"
 viewBox="0.00 0.00 384.00 126.00" xmlns="http://www.w3.org/2000/svg" xmlns:xlink="http://www.w3.org/1999/xlink">
<g id="graph0" class="graph" transform="scale(1 1) rotate(0) translate(4 122)">
<title>ipc::transport::struc::Channel&lt; Channel_obj, Message_body, Struct_builder_config, Struct_reader_config &gt;::Sync_op_state</title>
<polygon fill="white" stroke="transparent" points="-4,4 -4,-122 380,-122 380,4 -4,4"/>
<!-- Node1 -->
<g id="node1" class="node">
<title>Node1</title>
<g id="a_node1"><a xlink:title="State in m_sync_op_state, when a sync&#45;op is in fact in progress, meaning m_sync_op_state is not null.">
<polygon fill="#bfbfbf" stroke="black" points="236,-32.5 236,-85.5 376,-85.5 376,-32.5 236,-32.5"/>
<text text-anchor="start" x="244" y="-75.1" font-family="Helvetica,sans-Serif" font-size="8.00">ipc::transport::struc</text>
<text text-anchor="start" x="244" y="-66.1" font-family="Helvetica,sans-Serif" font-size="8.00">::Channel&lt; Channel_obj,</text>
<text text-anchor="start" x="244" y="-57.1" font-family="Helvetica,sans-Serif" font-size="8.00"> Message_body, Struct_builder</text>
<text text-anchor="start" x="244" y="-48.1" font-family="Helvetica,sans-Serif" font-size="8.00">_config, Struct_reader_config</text>
<text text-anchor="middle" x="306" y="-39.1" font-family="Helvetica,sans-Serif" font-size="8.00"> &gt;::Sync_op_state</text>
</a>
</g>
</g>
<!-- Node2 -->
<g id="node2" class="node">
<title>Node2</title>
<g id="a_node2"><a xlink:title=" ">
<polygon fill="white" stroke="#bfbfbf" points="27,-100.5 27,-117.5 95,-117.5 95,-100.5 27,-100.5"/>
<text text-anchor="middle" x="61" y="-107.1" font-family="Helvetica,sans-Serif" font-size="8.00">unsigned int</text>
</a>
</g>
</g>
<!-- Node2&#45;&gt;Node1 -->
<g id="edge1" class="edge">
<title>Node2&#45;&gt;Node1</title>
<path fill="none" stroke="#9a32cd" stroke-dasharray="5,2" d="M105.23,-100.1C141.38,-92.67 193.63,-81.92 235.62,-73.28"/>
<polygon fill="#9a32cd" stroke="#9a32cd" points="104.11,-96.76 95.02,-102.2 105.53,-103.62 104.11,-96.76"/>
<text text-anchor="middle" x="179" y="-94.6" font-family="Helvetica,sans-Serif" font-size="8.00"> m_id</text>
</g>
<!-- Node3 -->
<g id="node3" class="node">
<title>Node3</title>
<g id="a_node3"><a xlink:title=" ">
<polygon fill="white" stroke="#bfbfbf" points="0,-37 0,-81 122,-81 122,-37 0,-37"/>
<text text-anchor="start" x="8" y="-70.6" font-family="Helvetica,sans-Serif" font-size="8.00">variant&lt; std::monostate,</text>
<text text-anchor="start" x="8" y="-61.6" font-family="Helvetica,sans-Serif" font-size="8.00"> Error_code, ipc::transport</text>
<text text-anchor="start" x="8" y="-52.6" font-family="Helvetica,sans-Serif" font-size="8.00">::struc::Channel::Sync_op</text>
<text text-anchor="middle" x="61" y="-43.6" font-family="Helvetica,sans-Serif" font-size="8.00">_state::Request_result &gt;</text>
</a>
</g>
</g>
<!-- Node3&#45;&gt;Node1 -->
<g id="edge2" class="edge">
<title>Node3&#45;&gt;Node1</title>
<path fill="none" stroke="#9a32cd" stroke-dasharray="5,2" d="M132.4,-59C164.9,-59 203.37,-59 235.73,-59"/>
<polygon fill="#9a32cd" stroke="#9a32cd" points="132.07,-55.5 122.07,-59 132.07,-62.5 132.07,-55.5"/>
<text text-anchor="middle" x="179" y="-61.6" font-family="Helvetica,sans-Serif" font-size="8.00"> m_result_if_any</text>
</g>
<!-- Node4 -->
<g id="node4" class="node">
<title>Node4</title>
<g id="a_node4"><a xlink:title=" ">
<polygon fill="white" stroke="#bfbfbf" points="18.5,-0.5 18.5,-17.5 103.5,-17.5 103.5,-0.5 18.5,-0.5"/>
<text text-anchor="middle" x="61" y="-7.1" font-family="Helvetica,sans-Serif" font-size="8.00">promise&lt; void &gt;</text>
</a>
</g>
</g>
<!-- Node4&#45;&gt;Node1 -->
<g id="edge3" class="edge">
<title>Node4&#45;&gt;Node1</title>
<path fill="none" stroke="#9a32cd" stroke-dasharray="5,2" d="M113.65,-19.63C149.17,-26.94 196.77,-36.73 235.6,-44.72"/>
<polygon fill="#9a32cd" stroke="#9a32cd" points="114,-16.13 103.5,-17.54 112.59,-22.98 114,-16.13"/>
<text text-anchor="middle" x="179" y="-42.6" font-family="Helvetica,sans-Serif" font-size="8.00"> m_op_done_signal</text>
</g>
</g>
</svg>
