<?xml version="1.0" encoding="UTF-8" standalone="no"?>
<!DOCTYPE svg PUBLIC "-//W3C//DTD SVG 1.1//EN"
 "http://www.w3.org/Graphics/SVG/1.1/DTD/svg11.dtd">
<!-- Generated by graphviz version 2.43.0 (0)
 -->
<!-- Title: ipc::session::Server_session_impl&lt; S_MQ_TYPE_OR_NONE, S_TRANSMIT_NATIVE_HANDLES, Mdt_payload, S_SHM_TYPE_OR_NONE, S_SHM_MAX_HNDL_SZ, S_GRACEFUL_FINISH_REQUIRED_V &gt;::Open_channel_req Pages: 1 -->
<svg width="270pt" height="143pt"
 viewBox="0.00 0.00 270.00 143.00" xmlns="http://www.w3.org/2000/svg" xmlns:xlink="http://www.w3.org/1999/xlink">
<g id="graph0" class="graph" transform="scale(1 1) rotate(0) translate(4 139)">
<title>ipc::session::Server_session_impl&lt; S_MQ_TYPE_OR_NONE, S_TRANSMIT_NATIVE_HANDLES, Mdt_payload, S_SHM_TYPE_OR_NONE, S_SHM_MAX_HNDL_SZ, S_GRACEFUL_FINISH_REQUIRED_V &gt;::Open_channel_req</title>
<polygon fill="white" stroke="transparent" points="-4,4 -4,-139 266,-139 266,4 -4,4"/>
<!-- Node1 -->
<g id="node1" class="node">
<title>Node1</title>
<g id="a_node1"><a xlink:title="An open&#45;channel request out&#45;message.">
<polygon fill="#bfbfbf" stroke="black" points="40.5,-0.5 40.5,-71.5 201.5,-71.5 201.5,-0.5 40.5,-0.5"/>
<text text-anchor="start" x="48.5" y="-61.1" font-family="Helvetica,sans-Serif" font-size="8.00">ipc::session::Server</text>
<text text-anchor="start" x="48.5" y="-52.1" font-family="Helvetica,sans-Serif" font-size="8.00">_session_impl&lt; S_MQ_TYPE</text>
<text text-anchor="start" x="48.5" y="-43.1" font-family="Helvetica,sans-Serif" font-size="8.00">_OR_NONE, S_TRANSMIT_NATIVE</text>
<text text-anchor="start" x="48.5" y="-34.1" font-family="Helvetica,sans-Serif" font-size="8.00">_HANDLES, Mdt_payload, S_SHM</text>
<text text-anchor="start" x="48.5" y="-25.1" font-family="Helvetica,sans-Serif" font-size="8.00">_TYPE_OR_NONE, S_SHM_MAX_HNDL</text>
<text text-anchor="start" x="48.5" y="-16.1" font-family="Helvetica,sans-Serif" font-size="8.00">_SZ, S_GRACEFUL_FINISH_REQUIRED</text>
<text text-anchor="middle" x="121" y="-7.1" font-family="Helvetica,sans-Serif" font-size="8.00">_V &gt;::Open_channel_req</text>
</a>
</g>
</g>
<!-- Node2 -->
<g id="node2" class="node">
<title>Node2</title>
<g id="a_node2"><a xlink:title=" ">
<polygon fill="white" stroke="#bfbfbf" points="0,-117.5 0,-134.5 72,-134.5 72,-117.5 0,-117.5"/>
<text text-anchor="middle" x="36" y="-124.1" font-family="Helvetica,sans-Serif" font-size="8.00">element_type</text>
</a>
</g>
</g>
<!-- Node2&#45;&gt;Node1 -->
<g id="edge1" class="edge">
<title>Node2&#45;&gt;Node1</title>
<path fill="none" stroke="#9a32cd" stroke-dasharray="5,2" d="M43.52,-107.98C46.61,-101.97 50.51,-95.37 55,-90 60.37,-83.57 66.62,-77.38 73.09,-71.63"/>
<polygon fill="#9a32cd" stroke="#9a32cd" points="40.26,-106.69 39.14,-117.23 46.58,-109.68 40.26,-106.69"/>
<text text-anchor="middle" x="86" y="-92.6" font-family="Helvetica,sans-Serif" font-size="8.00"> m_mdt_builder</text>
</g>
<!-- Node3 -->
<g id="node3" class="node">
<title>Node3</title>
<g id="a_node3"><a xlink:title=" ">
<polygon fill="white" stroke="#bfbfbf" points="96,-117.5 96,-134.5 146,-134.5 146,-117.5 96,-117.5"/>
<text text-anchor="middle" x="121" y="-124.1" font-family="Helvetica,sans-Serif" font-size="8.00">Msg_out</text>
</a>
</g>
</g>
<!-- Node3&#45;&gt;Node1 -->
<g id="edge2" class="edge">
<title>Node3&#45;&gt;Node1</title>
<path fill="none" stroke="#9a32cd" stroke-dasharray="5,2" d="M121,-107.46C121,-97.24 121,-83.99 121,-71.74"/>
<polygon fill="#9a32cd" stroke="#9a32cd" points="117.5,-107.5 121,-117.5 124.5,-107.5 117.5,-107.5"/>
<text text-anchor="middle" x="145.5" y="-92.6" font-family="Helvetica,sans-Serif" font-size="8.00"> m_req_msg</text>
</g>
<!-- Node4 -->
<g id="node4" class="node">
<title>Node4</title>
<g id="a_node4"><a xlink:title=" ">
<polygon fill="white" stroke="#bfbfbf" points="164.5,-117.5 164.5,-134.5 231.5,-134.5 231.5,-117.5 164.5,-117.5"/>
<text text-anchor="middle" x="198" y="-124.1" font-family="Helvetica,sans-Serif" font-size="8.00">Channel_obj</text>
</a>
</g>
</g>
<!-- Node4&#45;&gt;Node1 -->
<g id="edge3" class="edge">
<title>Node4&#45;&gt;Node1</title>
<path fill="none" stroke="#9a32cd" stroke-dasharray="5,2" d="M187.81,-108.81C183.75,-102.73 178.88,-95.88 174,-90 168.93,-83.89 163.26,-77.69 157.58,-71.78"/>
<polygon fill="#9a32cd" stroke="#9a32cd" points="185.04,-110.98 193.41,-117.48 190.92,-107.18 185.04,-110.98"/>
<text text-anchor="middle" x="221" y="-92.6" font-family="Helvetica,sans-Serif" font-size="8.00"> m_opened_channel</text>
</g>
</g>
</svg>
