<?xml version="1.0" encoding="UTF-8" standalone="no"?>
<!DOCTYPE svg PUBLIC "-//W3C//DTD SVG 1.1//EN"
 "http://www.w3.org/Graphics/SVG/1.1/DTD/svg11.dtd">
<!-- Generated by graphviz version 2.43.0 (0)
 -->
<!-- Title: ipc::transport::struc::sync_io::Channel&lt; Channel_obj, Message_body, Struct_builder_config, Struct_reader_config &gt;::Expecting_response Pages: 1 -->
<svg width="177pt" height="134pt"
 viewBox="0.00 0.00 177.00 134.00" xmlns="http://www.w3.org/2000/svg" xmlns:xlink="http://www.w3.org/1999/xlink">
<g id="graph0" class="graph" transform="scale(1 1) rotate(0) translate(4 130)">
<title>ipc::transport::struc::sync_io::Channel&lt; Channel_obj, Message_body, Struct_builder_config, Struct_reader_config &gt;::Expecting_response</title>
<polygon fill="white" stroke="transparent" points="-4,4 -4,-130 173,-130 173,4 -4,4"/>
<!-- Node1 -->
<g id="node1" class="node">
<title>Node1</title>
<g id="a_node1"><a xlink:title="Policy for how to act upon receiving a response in&#45;message that indicates its originating out&#45;message...">
<polygon fill="#bfbfbf" stroke="black" points="0,-0.5 0,-53.5 143,-53.5 143,-0.5 0,-0.5"/>
<text text-anchor="start" x="8" y="-43.1" font-family="Helvetica,sans-Serif" font-size="8.00">ipc::transport::struc</text>
<text text-anchor="start" x="8" y="-34.1" font-family="Helvetica,sans-Serif" font-size="8.00">::sync_io::Channel&lt; Channel</text>
<text text-anchor="start" x="8" y="-25.1" font-family="Helvetica,sans-Serif" font-size="8.00">_obj, Message_body, Struct</text>
<text text-anchor="start" x="8" y="-16.1" font-family="Helvetica,sans-Serif" font-size="8.00">_builder_config, Struct_reader</text>
<text text-anchor="middle" x="71.5" y="-7.1" font-family="Helvetica,sans-Serif" font-size="8.00">_config &gt;::Expecting_response</text>
</a>
</g>
</g>
<!-- Node2 -->
<g id="node2" class="node">
<title>Node2</title>
<g id="a_node2"><a xlink:title=" ">
<polygon fill="white" stroke="#bfbfbf" points="7,-104 7,-121 42,-121 42,-104 7,-104"/>
<text text-anchor="middle" x="24.5" y="-110.6" font-family="Helvetica,sans-Serif" font-size="8.00">bool</text>
</a>
</g>
</g>
<!-- Node2&#45;&gt;Node1 -->
<g id="edge1" class="edge">
<title>Node2&#45;&gt;Node1</title>
<path fill="none" stroke="#9a32cd" stroke-dasharray="5,2" d="M22.11,-93.88C21.86,-86.81 22.51,-78.75 25.5,-72 28.45,-65.33 32.94,-59.17 37.97,-53.71"/>
<polygon fill="#9a32cd" stroke="#9a32cd" points="18.62,-94.21 23.03,-103.85 25.59,-93.57 18.62,-94.21"/>
<text text-anchor="middle" x="61" y="-74.6" font-family="Helvetica,sans-Serif" font-size="8.00"> m_one_expected</text>
</g>
<!-- Node3 -->
<g id="node3" class="node">
<title>Node3</title>
<g id="a_node3"><a xlink:title=" ">
<polygon fill="white" stroke="#bfbfbf" points="68,-99.5 68,-125.5 169,-125.5 169,-99.5 68,-99.5"/>
<text text-anchor="start" x="76" y="-115.1" font-family="Helvetica,sans-Serif" font-size="8.00">shared_ptr&lt; On_msg</text>
<text text-anchor="middle" x="118.5" y="-106.1" font-family="Helvetica,sans-Serif" font-size="8.00">_func &gt;</text>
</a>
</g>
</g>
<!-- Node3&#45;&gt;Node1 -->
<g id="edge2" class="edge">
<title>Node3&#45;&gt;Node1</title>
<path fill="none" stroke="#9a32cd" stroke-dasharray="5,2" d="M106.88,-90.56C103.54,-84.56 99.88,-78.02 96.5,-72 93.14,-66.03 89.51,-59.61 86.08,-53.57"/>
<polygon fill="#9a32cd" stroke="#9a32cd" points="103.87,-92.34 111.79,-99.38 109.99,-88.94 103.87,-92.34"/>
<text text-anchor="middle" x="134" y="-74.6" font-family="Helvetica,sans-Serif" font-size="8.00"> m_on_msg_func</text>
</g>
</g>
</svg>
