<?xml version="1.0" encoding="UTF-8" standalone="no"?>
<!DOCTYPE svg PUBLIC "-//W3C//DTD SVG 1.1//EN"
 "http://www.w3.org/Graphics/SVG/1.1/DTD/svg11.dtd">
<!-- Generated by graphviz version 2.43.0 (0)
 -->
<!-- Title: ipc::session::Server_session_impl&lt; S_MQ_TYPE_OR_NONE, S_TRANSMIT_NATIVE_HANDLES, Mdt_payload, S_SHM_TYPE_OR_NONE, S_SHM_MAX_HNDL_SZ &gt;::Open_channel_req Pages: 1 -->
<svg width="270pt" height="134pt"
 viewBox="0.00 0.00 270.00 134.00" xmlns="http://www.w3.org/2000/svg" xmlns:xlink="http://www.w3.org/1999/xlink">
<g id="graph0" class="graph" transform="scale(1 1) rotate(0) translate(4 130)">
<title>ipc::session::Server_session_impl&lt; S_MQ_TYPE_OR_NONE, S_TRANSMIT_NATIVE_HANDLES, Mdt_payload, S_SHM_TYPE_OR_NONE, S_SHM_MAX_HNDL_SZ &gt;::Open_channel_req</title>
<polygon fill="white" stroke="transparent" points="-4,4 -4,-130 266,-130 266,4 -4,4"/>
<!-- Node1 -->
<g id="node1" class="node">
<title>Node1</title>
<g id="a_node1"><a xlink:title="An open&#45;channel request out&#45;message.">
<polygon fill="#bfbfbf" stroke="black" points="40.5,-0.5 40.5,-62.5 201.5,-62.5 201.5,-0.5 40.5,-0.5"/>
<text text-anchor="start" x="48.5" y="-52.1" font-family="Helvetica,sans-Serif" font-size="8.00">ipc::session::Server</text>
<text text-anchor="start" x="48.5" y="-43.1" font-family="Helvetica,sans-Serif" font-size="8.00">_session_impl&lt; S_MQ_TYPE</text>
<text text-anchor="start" x="48.5" y="-34.1" font-family="Helvetica,sans-Serif" font-size="8.00">_OR_NONE, S_TRANSMIT_NATIVE</text>
<text text-anchor="start" x="48.5" y="-25.1" font-family="Helvetica,sans-Serif" font-size="8.00">_HANDLES, Mdt_payload, S_SHM</text>
<text text-anchor="start" x="48.5" y="-16.1" font-family="Helvetica,sans-Serif" font-size="8.00">_TYPE_OR_NONE, S_SHM_MAX_HNDL</text>
<text text-anchor="middle" x="121" y="-7.1" font-family="Helvetica,sans-Serif" font-size="8.00">_SZ &gt;::Open_channel_req</text>
</a>
</g>
</g>
<!-- Node2 -->
<g id="node2" class="node">
<title>Node2</title>
<g id="a_node2"><a xlink:title=" ">
<polygon fill="white" stroke="#bfbfbf" points="0,-108.5 0,-125.5 72,-125.5 72,-108.5 0,-108.5"/>
<text text-anchor="middle" x="36" y="-115.1" font-family="Helvetica,sans-Serif" font-size="8.00">element_type</text>
</a>
</g>
</g>
<!-- Node2&#45;&gt;Node1 -->
<g id="edge1" class="edge">
<title>Node2&#45;&gt;Node1</title>
<path fill="none" stroke="#9a32cd" stroke-dasharray="5,2" d="M43.28,-99.1C46.37,-93.02 50.34,-86.34 55,-81 60.7,-74.46 67.43,-68.29 74.38,-62.67"/>
<polygon fill="#9a32cd" stroke="#9a32cd" points="39.98,-97.9 38.94,-108.44 46.33,-100.84 39.98,-97.9"/>
<text text-anchor="middle" x="86" y="-83.6" font-family="Helvetica,sans-Serif" font-size="8.00"> m_mdt_builder</text>
</g>
<!-- Node3 -->
<g id="node3" class="node">
<title>Node3</title>
<g id="a_node3"><a xlink:title=" ">
<polygon fill="white" stroke="#bfbfbf" points="96,-108.5 96,-125.5 146,-125.5 146,-108.5 96,-108.5"/>
<text text-anchor="middle" x="121" y="-115.1" font-family="Helvetica,sans-Serif" font-size="8.00">Msg_out</text>
</a>
</g>
</g>
<!-- Node3&#45;&gt;Node1 -->
<g id="edge2" class="edge">
<title>Node3&#45;&gt;Node1</title>
<path fill="none" stroke="#9a32cd" stroke-dasharray="5,2" d="M121,-98.11C121,-87.79 121,-74.54 121,-62.65"/>
<polygon fill="#9a32cd" stroke="#9a32cd" points="117.5,-98.29 121,-108.29 124.5,-98.29 117.5,-98.29"/>
<text text-anchor="middle" x="145.5" y="-83.6" font-family="Helvetica,sans-Serif" font-size="8.00"> m_req_msg</text>
</g>
<!-- Node4 -->
<g id="node4" class="node">
<title>Node4</title>
<g id="a_node4"><a xlink:title=" ">
<polygon fill="white" stroke="#bfbfbf" points="164.5,-108.5 164.5,-125.5 231.5,-125.5 231.5,-108.5 164.5,-108.5"/>
<text text-anchor="middle" x="198" y="-115.1" font-family="Helvetica,sans-Serif" font-size="8.00">Channel_obj</text>
</a>
</g>
</g>
<!-- Node4&#45;&gt;Node1 -->
<g id="edge3" class="edge">
<title>Node4&#45;&gt;Node1</title>
<path fill="none" stroke="#9a32cd" stroke-dasharray="5,2" d="M187.94,-99.7C183.9,-93.6 179.01,-86.77 174,-81 168.6,-74.79 162.46,-68.55 156.33,-62.72"/>
<polygon fill="#9a32cd" stroke="#9a32cd" points="185.17,-101.86 193.5,-108.4 191.07,-98.09 185.17,-101.86"/>
<text text-anchor="middle" x="221" y="-83.6" font-family="Helvetica,sans-Serif" font-size="8.00"> m_opened_channel</text>
</g>
</g>
</svg>
