<?xml version="1.0" encoding="UTF-8" standalone="no"?>
<!DOCTYPE svg PUBLIC "-//W3C//DTD SVG 1.1//EN"
 "http://www.w3.org/Graphics/SVG/1.1/DTD/svg11.dtd">
<!-- Generated by graphviz version 2.43.0 (0)
 -->
<!-- Title: boost::system::is_error_code_enum&lt;::ipc::session::shm::arena_lend::jemalloc::error::Code &gt; Pages: 1 -->
<svg width="140pt" height="116pt"
 viewBox="0.00 0.00 140.00 116.00" xmlns="http://www.w3.org/2000/svg" xmlns:xlink="http://www.w3.org/1999/xlink">
<g id="graph0" class="graph" transform="scale(1 1) rotate(0) translate(4 112)">
<title>boost::system::is_error_code_enum&lt;::ipc::session::shm::arena_lend::jemalloc::error::Code &gt;</title>
<polygon fill="white" stroke="transparent" points="-4,4 -4,-112 136,-112 136,4 -4,4"/>
<!-- Node1 -->
<g id="node1" class="node">
<title>Node1</title>
<g id="a_node1"><a xlink:title="Ummm – it specializes this struct to – look – the end result is boost.system uses this as authorizati...">
<polygon fill="#bfbfbf" stroke="black" points="0,-0.5 0,-44.5 132,-44.5 132,-0.5 0,-0.5"/>
<text text-anchor="start" x="8" y="-34.1" font-family="Helvetica,sans-Serif" font-size="8.00">boost::system::is_error</text>
<text text-anchor="start" x="8" y="-25.1" font-family="Helvetica,sans-Serif" font-size="8.00">_code_enum&lt;::ipc::session</text>
<text text-anchor="start" x="8" y="-16.1" font-family="Helvetica,sans-Serif" font-size="8.00">::shm::arena_lend::jemalloc</text>
<text text-anchor="middle" x="66" y="-7.1" font-family="Helvetica,sans-Serif" font-size="8.00">::error::Code &gt;</text>
</a>
</g>
</g>
<!-- Node2 -->
<g id="node2" class="node">
<title>Node2</title>
<g id="a_node2"><a xlink:title=" ">
<polygon fill="white" stroke="#bfbfbf" points="24,-90.5 24,-107.5 108,-107.5 108,-90.5 24,-90.5"/>
<text text-anchor="middle" x="66" y="-97.1" font-family="Helvetica,sans-Serif" font-size="8.00">static const bool</text>
</a>
</g>
</g>
<!-- Node2&#45;&gt;Node1 -->
<g id="edge1" class="edge">
<title>Node2&#45;&gt;Node1</title>
<path fill="none" stroke="#9a32cd" stroke-dasharray="5,2" d="M66,-80.11C66,-69.4 66,-55.74 66,-44.53"/>
<polygon fill="#9a32cd" stroke="#9a32cd" points="62.5,-80.31 66,-90.31 69.5,-80.31 62.5,-80.31"/>
<text text-anchor="middle" x="78.5" y="-65.6" font-family="Helvetica,sans-Serif" font-size="8.00"> value</text>
</g>
</g>
</svg>
