<?xml version="1.0" encoding="UTF-8" standalone="no"?>
<!DOCTYPE svg PUBLIC "-//W3C//DTD SVG 1.1//EN"
 "http://www.w3.org/Graphics/SVG/1.1/DTD/svg11.dtd">
<!-- Generated by graphviz version 2.43.0 (0)
 -->
<!-- Title: ipc::transport::struc::shm::Reader&lt; Shm_arena &gt;::Config Pages: 1 -->
<svg width="143pt" height="107pt"
 viewBox="0.00 0.00 143.00 107.00" xmlns="http://www.w3.org/2000/svg" xmlns:xlink="http://www.w3.org/1999/xlink">
<g id="graph0" class="graph" transform="scale(1 1) rotate(0) translate(4 103)">
<title>ipc::transport::struc::shm::Reader&lt; Shm_arena &gt;::Config</title>
<polygon fill="white" stroke="transparent" points="-4,4 -4,-103 139,-103 139,4 -4,4"/>
<!-- Node1 -->
<g id="node1" class="node">
<title>Node1</title>
<g id="a_node1"><a xlink:title="Implements Struct_reader::Config sub&#45;concept.">
<polygon fill="#bfbfbf" stroke="black" points="0,-0.5 0,-35.5 130,-35.5 130,-0.5 0,-0.5"/>
<text text-anchor="start" x="8" y="-25.1" font-family="Helvetica,sans-Serif" font-size="8.00">ipc::transport::struc</text>
<text text-anchor="start" x="8" y="-16.1" font-family="Helvetica,sans-Serif" font-size="8.00">::shm::Reader&lt; Shm_arena</text>
<text text-anchor="middle" x="65" y="-7.1" font-family="Helvetica,sans-Serif" font-size="8.00"> &gt;::Config</text>
</a>
</g>
</g>
<!-- Node2 -->
<g id="node2" class="node">
<title>Node2</title>
<g id="a_node2"><a xlink:title=" ">
<polygon fill="white" stroke="#bfbfbf" points="0.5,-81.5 0.5,-98.5 51.5,-98.5 51.5,-81.5 0.5,-81.5"/>
<text text-anchor="middle" x="26" y="-88.1" font-family="Helvetica,sans-Serif" font-size="8.00">Logger *</text>
</a>
</g>
</g>
<!-- Node2&#45;&gt;Node1 -->
<g id="edge1" class="edge">
<title>Node2&#45;&gt;Node1</title>
<path fill="none" stroke="#9a32cd" stroke-dasharray="5,2" d="M23.85,-71.35C23.83,-65.6 24.57,-59.33 27,-54 30.2,-46.98 35.54,-40.73 41.21,-35.52"/>
<polygon fill="#9a32cd" stroke="#9a32cd" points="20.36,-71.66 24.58,-81.38 27.34,-71.15 20.36,-71.66"/>
<text text-anchor="middle" x="54.5" y="-56.6" font-family="Helvetica,sans-Serif" font-size="8.00"> m_logger_ptr</text>
</g>
<!-- Node3 -->
<g id="node3" class="node">
<title>Node3</title>
<g id="a_node3"><a xlink:title=" ">
<polygon fill="white" stroke="#bfbfbf" points="79.5,-81.5 79.5,-98.5 128.5,-98.5 128.5,-81.5 79.5,-81.5"/>
<text text-anchor="middle" x="104" y="-88.1" font-family="Helvetica,sans-Serif" font-size="8.00">Session</text>
</a>
</g>
</g>
<!-- Node3&#45;&gt;Node1 -->
<g id="edge2" class="edge">
<title>Node3&#45;&gt;Node1</title>
<path fill="none" stroke="#9a32cd" stroke-dasharray="5,2" d="M94.63,-72.19C88.45,-61.09 80.38,-46.6 74.22,-35.55"/>
<polygon fill="#9a32cd" stroke="#9a32cd" points="91.75,-74.21 99.68,-81.24 97.87,-70.8 91.75,-74.21"/>
<text text-anchor="middle" x="112" y="-56.6" font-family="Helvetica,sans-Serif" font-size="8.00"> m_session</text>
</g>
</g>
</svg>
