<?xml version="1.0" encoding="UTF-8" standalone="no"?>
<!DOCTYPE svg PUBLIC "-//W3C//DTD SVG 1.1//EN"
 "http://www.w3.org/Graphics/SVG/1.1/DTD/svg11.dtd">
<!-- Generated by graphviz version 2.43.0 (0)
 -->
<!-- Title: ipc::util::Native_handle Pages: 1 -->
<svg width="207pt" height="89pt"
 viewBox="0.00 0.00 206.50 89.00" xmlns="http://www.w3.org/2000/svg" xmlns:xlink="http://www.w3.org/1999/xlink">
<g id="graph0" class="graph" transform="scale(1 1) rotate(0) translate(4 85)">
<title>ipc::util::Native_handle</title>
<polygon fill="white" stroke="transparent" points="-4,4 -4,-85 202.5,-85 202.5,4 -4,4"/>
<!-- Node1 -->
<g id="node1" class="node">
<title>Node1</title>
<g id="a_node1"><a xlink:title="A monolayer&#45;thin wrapper around a native handle, a/k/a descriptor a/k/a FD.">
<polygon fill="#bfbfbf" stroke="black" points="40.5,-0.5 40.5,-17.5 152.5,-17.5 152.5,-0.5 40.5,-0.5"/>
<text text-anchor="middle" x="96.5" y="-7.1" font-family="Helvetica,sans-Serif" font-size="8.00">ipc::util::Native_handle</text>
</a>
</g>
</g>
<!-- Node2 -->
<g id="node2" class="node">
<title>Node2</title>
<g id="a_node2"><a xlink:title=" ">
<polygon fill="white" stroke="#bfbfbf" points="0,-63.5 0,-80.5 101,-80.5 101,-63.5 0,-63.5"/>
<text text-anchor="middle" x="50.5" y="-70.1" font-family="Helvetica,sans-Serif" font-size="8.00">static const handle_t</text>
</a>
</g>
</g>
<!-- Node2&#45;&gt;Node1 -->
<g id="edge1" class="edge">
<title>Node2&#45;&gt;Node1</title>
<path fill="none" stroke="#9a32cd" stroke-dasharray="5,2" d="M47.68,-53.22C47.6,-47.38 48.46,-41.09 51.5,-36 56.49,-27.63 65.28,-21.7 73.77,-17.63"/>
<polygon fill="#9a32cd" stroke="#9a32cd" points="44.23,-53.85 48.71,-63.45 51.2,-53.15 44.23,-53.85"/>
<text text-anchor="middle" x="86.5" y="-38.6" font-family="Helvetica,sans-Serif" font-size="8.00"> S_NULL_HANDLE</text>
</g>
<!-- Node3 -->
<g id="node3" class="node">
<title>Node3</title>
<g id="a_node3"><a xlink:title=" ">
<polygon fill="white" stroke="#bfbfbf" points="129,-63.5 129,-80.5 158,-80.5 158,-63.5 129,-63.5"/>
<text text-anchor="middle" x="143.5" y="-70.1" font-family="Helvetica,sans-Serif" font-size="8.00">int</text>
</a>
</g>
</g>
<!-- Node3&#45;&gt;Node1 -->
<g id="edge2" class="edge">
<title>Node3&#45;&gt;Node1</title>
<path fill="none" stroke="#9a32cd" stroke-dasharray="5,2" d="M134.27,-54.8C130.56,-48.72 126.08,-41.86 121.5,-36 116.41,-29.49 109.92,-22.78 104.83,-17.81"/>
<polygon fill="#9a32cd" stroke="#9a32cd" points="131.28,-56.62 139.37,-63.47 137.32,-53.07 131.28,-56.62"/>
<text text-anchor="middle" x="162.5" y="-38.6" font-family="Helvetica,sans-Serif" font-size="8.00"> m_native_handle</text>
</g>
</g>
</svg>
