<?xml version="1.0" encoding="UTF-8" standalone="no"?>
<!DOCTYPE svg PUBLIC "-//W3C//DTD SVG 1.1//EN"
 "http://www.w3.org/Graphics/SVG/1.1/DTD/svg11.dtd">
<!-- Generated by graphviz version 2.43.0 (0)
 -->
<!-- Title: ipc::transport::struc::Heap_reader::Config Pages: 1 -->
<svg width="175pt" height="98pt"
 viewBox="0.00 0.00 174.50 98.00" xmlns="http://www.w3.org/2000/svg" xmlns:xlink="http://www.w3.org/1999/xlink">
<g id="graph0" class="graph" transform="scale(1 1) rotate(0) translate(4 94)">
<title>ipc::transport::struc::Heap_reader::Config</title>
<polygon fill="white" stroke="transparent" points="-4,4 -4,-94 170.5,-94 170.5,4 -4,4"/>
<!-- Node1 -->
<g id="node1" class="node">
<title>Node1</title>
<g id="a_node1"><a xlink:title="Implements Struct_reader::Config sub&#45;concept.">
<polygon fill="#bfbfbf" stroke="black" points="11,-0.5 11,-26.5 118,-26.5 118,-0.5 11,-0.5"/>
<text text-anchor="start" x="19" y="-16.1" font-family="Helvetica,sans-Serif" font-size="8.00">ipc::transport::struc</text>
<text text-anchor="middle" x="64.5" y="-7.1" font-family="Helvetica,sans-Serif" font-size="8.00">::Heap_reader::Config</text>
</a>
</g>
</g>
<!-- Node2 -->
<g id="node2" class="node">
<title>Node2</title>
<g id="a_node2"><a xlink:title=" ">
<polygon fill="white" stroke="#bfbfbf" points="0,-72.5 0,-89.5 51,-89.5 51,-72.5 0,-72.5"/>
<text text-anchor="middle" x="25.5" y="-79.1" font-family="Helvetica,sans-Serif" font-size="8.00">Logger *</text>
</a>
</g>
</g>
<!-- Node2&#45;&gt;Node1 -->
<g id="edge1" class="edge">
<title>Node2&#45;&gt;Node1</title>
<path fill="none" stroke="#9a32cd" stroke-dasharray="5,2" d="M23.14,-62.25C23.11,-56.49 23.89,-50.24 26.5,-45 30.19,-37.58 36.63,-31.37 43.16,-26.53"/>
<polygon fill="#9a32cd" stroke="#9a32cd" points="19.66,-62.63 23.95,-72.32 26.64,-62.07 19.66,-62.63"/>
<text text-anchor="middle" x="54" y="-47.6" font-family="Helvetica,sans-Serif" font-size="8.00"> m_logger_ptr</text>
</g>
<!-- Node3 -->
<g id="node3" class="node">
<title>Node3</title>
<g id="a_node3"><a xlink:title=" ">
<polygon fill="white" stroke="#bfbfbf" points="83.5,-72.5 83.5,-89.5 123.5,-89.5 123.5,-72.5 83.5,-72.5"/>
<text text-anchor="middle" x="103.5" y="-79.1" font-family="Helvetica,sans-Serif" font-size="8.00">size_t</text>
</a>
</g>
</g>
<!-- Node3&#45;&gt;Node1 -->
<g id="edge2" class="edge">
<title>Node3&#45;&gt;Node1</title>
<path fill="none" stroke="#9a32cd" stroke-dasharray="5,2" d="M93.72,-63.58C86.93,-52.17 78.03,-37.22 71.84,-26.82"/>
<polygon fill="#9a32cd" stroke="#9a32cd" points="90.9,-65.68 99.03,-72.49 96.92,-62.1 90.9,-65.68"/>
<text text-anchor="middle" x="126.5" y="-47.6" font-family="Helvetica,sans-Serif" font-size="8.00"> m_n_segments_est</text>
</g>
</g>
</svg>
