<?xml version="1.0" encoding="UTF-8" standalone="no"?>
<!DOCTYPE svg PUBLIC "-//W3C//DTD SVG 1.1//EN"
 "http://www.w3.org/Graphics/SVG/1.1/DTD/svg11.dtd">
<!-- Generated by graphviz version 2.43.0 (0)
 -->
<!-- Title: ipc::transport::sync_io::Blob_stream_mq_receiver_impl&lt; Persistent_mq_handle &gt;::User_request Pages: 1 -->
<svg width="200pt" height="116pt"
 viewBox="0.00 0.00 200.00 116.00" xmlns="http://www.w3.org/2000/svg" xmlns:xlink="http://www.w3.org/1999/xlink">
<g id="graph0" class="graph" transform="scale(1 1) rotate(0) translate(4 112)">
<title>ipc::transport::sync_io::Blob_stream_mq_receiver_impl&lt; Persistent_mq_handle &gt;::User_request</title>
<polygon fill="white" stroke="transparent" points="-4,4 -4,-112 196,-112 196,4 -4,4"/>
<!-- Node1 -->
<g id="node1" class="node">
<title>Node1</title>
<g id="a_node1"><a xlink:title="Identical to sync_io::Async_adapter_receiver::User_request, except we only keep at most 1 of these an...">
<polygon fill="#bfbfbf" stroke="black" points="19.5,-0.5 19.5,-44.5 156.5,-44.5 156.5,-0.5 19.5,-0.5"/>
<text text-anchor="start" x="27.5" y="-34.1" font-family="Helvetica,sans-Serif" font-size="8.00">ipc::transport::sync</text>
<text text-anchor="start" x="27.5" y="-25.1" font-family="Helvetica,sans-Serif" font-size="8.00">_io::Blob_stream_mq_receiver</text>
<text text-anchor="start" x="27.5" y="-16.1" font-family="Helvetica,sans-Serif" font-size="8.00">_impl&lt; Persistent_mq_handle</text>
<text text-anchor="middle" x="88" y="-7.1" font-family="Helvetica,sans-Serif" font-size="8.00"> &gt;::User_request</text>
</a>
</g>
</g>
<!-- Node2 -->
<g id="node2" class="node">
<title>Node2</title>
<g id="a_node2"><a xlink:title=" ">
<polygon fill="white" stroke="#bfbfbf" points="0,-90.5 0,-107.5 78,-107.5 78,-90.5 0,-90.5"/>
<text text-anchor="middle" x="39" y="-97.1" font-family="Helvetica,sans-Serif" font-size="8.00">mutable_buffer</text>
</a>
</g>
</g>
<!-- Node2&#45;&gt;Node1 -->
<g id="edge1" class="edge">
<title>Node2&#45;&gt;Node1</title>
<path fill="none" stroke="#9a32cd" stroke-dasharray="5,2" d="M45.71,-80.92C48.3,-75.06 51.48,-68.58 55,-63 58.91,-56.8 63.7,-50.52 68.4,-44.85"/>
<polygon fill="#9a32cd" stroke="#9a32cd" points="42.35,-79.89 41.76,-90.47 48.82,-82.56 42.35,-79.89"/>
<text text-anchor="middle" x="85.5" y="-65.6" font-family="Helvetica,sans-Serif" font-size="8.00"> m_target_blob</text>
</g>
<!-- Node3 -->
<g id="node3" class="node">
<title>Node3</title>
<g id="a_node3"><a xlink:title=" ">
<polygon fill="white" stroke="#bfbfbf" points="96.5,-90.5 96.5,-107.5 179.5,-107.5 179.5,-90.5 96.5,-90.5"/>
<text text-anchor="middle" x="138" y="-97.1" font-family="Helvetica,sans-Serif" font-size="8.00">Task_asio_err_sz</text>
</a>
</g>
</g>
<!-- Node3&#45;&gt;Node1 -->
<g id="edge2" class="edge">
<title>Node3&#45;&gt;Node1</title>
<path fill="none" stroke="#9a32cd" stroke-dasharray="5,2" d="M127.88,-81.49C124.21,-75.61 119.98,-68.96 116,-63 111.98,-56.99 107.51,-50.56 103.33,-44.67"/>
<polygon fill="#9a32cd" stroke="#9a32cd" points="125.16,-83.75 133.4,-90.41 131.12,-80.07 125.16,-83.75"/>
<text text-anchor="middle" x="156.5" y="-65.6" font-family="Helvetica,sans-Serif" font-size="8.00"> m_on_done_func</text>
</g>
</g>
</svg>
