<?xml version="1.0" encoding="UTF-8" standalone="no"?>
<!DOCTYPE svg PUBLIC "-//W3C//DTD SVG 1.1//EN"
 "http://www.w3.org/Graphics/SVG/1.1/DTD/svg11.dtd">
<!-- Generated by graphviz version 2.43.0 (0)
 -->
<!-- Title: ipc::session::Server_app Pages: 1 -->
<svg width="456pt" height="234pt"
 viewBox="0.00 0.00 455.50 234.00" xmlns="http://www.w3.org/2000/svg" xmlns:xlink="http://www.w3.org/1999/xlink">
<g id="graph0" class="graph" transform="scale(1 1) rotate(0) translate(4 230)">
<title>ipc::session::Server_app</title>
<polygon fill="white" stroke="transparent" points="-4,4 -4,-230 451.5,-230 451.5,4 -4,4"/>
<!-- Node1 -->
<g id="node1" class="node">
<title>Node1</title>
<g id="a_node1"><a xlink:title="An App that is used as a server in at least one client&#45;server IPC split.">
<polygon fill="#bfbfbf" stroke="black" points="167.5,-0.5 167.5,-17.5 285.5,-17.5 285.5,-0.5 167.5,-0.5"/>
<text text-anchor="middle" x="226.5" y="-7.1" font-family="Helvetica,sans-Serif" font-size="8.00">ipc::session::Server_app</text>
</a>
</g>
</g>
<!-- Node2 -->
<g id="node2" class="node">
<title>Node2</title>
<g id="a_node2"><a xlink:href="structipc_1_1session_1_1App.html" target="_top" xlink:title="A description of an application in this ipc::session inter&#45;process communication universe.">
<polygon fill="white" stroke="black" points="103.5,-77 103.5,-94 191.5,-94 191.5,-77 103.5,-77"/>
<text text-anchor="middle" x="147.5" y="-83.6" font-family="Helvetica,sans-Serif" font-size="8.00">ipc::session::App</text>
</a>
</g>
</g>
<!-- Node2&#45;&gt;Node1 -->
<g id="edge1" class="edge">
<title>Node2&#45;&gt;Node1</title>
<path fill="none" stroke="midnightblue" d="M162.97,-69.92C179.54,-54.29 205.21,-30.08 218.27,-17.76"/>
<polygon fill="midnightblue" stroke="midnightblue" points="160.53,-67.4 155.66,-76.81 165.33,-72.49 160.53,-67.4"/>
</g>
<!-- Node3 -->
<g id="node3" class="node">
<title>Node3</title>
<g id="a_node3"><a xlink:title=" ">
<polygon fill="white" stroke="black" points="220,-144.5 220,-161.5 279,-161.5 279,-144.5 220,-144.5"/>
<text text-anchor="middle" x="249.5" y="-151.1" font-family="Helvetica,sans-Serif" font-size="8.00">std::string</text>
</a>
</g>
</g>
<!-- Node3&#45;&gt;Node2 -->
<g id="edge2" class="edge">
<title>Node3&#45;&gt;Node2</title>
<path fill="none" stroke="#9a32cd" stroke-dasharray="5,2" d="M238.01,-136.18C232.65,-129.61 225.83,-122.3 218.5,-117 204.47,-106.86 186.55,-99.2 172.23,-94.09"/>
<polygon fill="#9a32cd" stroke="#9a32cd" points="235.48,-138.62 244.34,-144.42 241.03,-134.36 235.48,-138.62"/>
<text text-anchor="middle" x="246" y="-119.6" font-family="Helvetica,sans-Serif" font-size="8.00"> m_name</text>
</g>
<!-- Node4 -->
<g id="node4" class="node">
<title>Node4</title>
<g id="a_node4"><a xlink:title=" ">
<polygon fill="white" stroke="black" points="204,-199.5 204,-225.5 295,-225.5 295,-199.5 204,-199.5"/>
<text text-anchor="start" x="212" y="-215.1" font-family="Helvetica,sans-Serif" font-size="8.00">std::basic_string&lt;</text>
<text text-anchor="middle" x="249.5" y="-206.1" font-family="Helvetica,sans-Serif" font-size="8.00"> Char &gt;</text>
</a>
</g>
</g>
<!-- Node4&#45;&gt;Node3 -->
<g id="edge3" class="edge">
<title>Node4&#45;&gt;Node3</title>
<path fill="none" stroke="midnightblue" d="M249.5,-189.08C249.5,-179.43 249.5,-168.78 249.5,-161.77"/>
<polygon fill="midnightblue" stroke="midnightblue" points="246,-189.31 249.5,-199.31 253,-189.31 246,-189.31"/>
</g>
<!-- Node5 -->
<g id="node5" class="node">
<title>Node5</title>
<g id="a_node5"><a xlink:title=" ">
<polygon fill="white" stroke="#bfbfbf" points="0,-144.5 0,-161.5 35,-161.5 35,-144.5 0,-144.5"/>
<text text-anchor="middle" x="17.5" y="-151.1" font-family="Helvetica,sans-Serif" font-size="8.00">path</text>
</a>
</g>
</g>
<!-- Node5&#45;&gt;Node1 -->
<g id="edge8" class="edge">
<title>Node5&#45;&gt;Node1</title>
<path fill="none" stroke="#9a32cd" stroke-dasharray="5,2" d="M9.59,-134.97C2.73,-117.4 -4.14,-90.09 9.5,-72 29.38,-45.65 117.1,-27.12 174.74,-17.54"/>
<polygon fill="#9a32cd" stroke="#9a32cd" points="6.51,-136.67 13.67,-144.48 12.94,-133.91 6.51,-136.67"/>
<text text-anchor="start" x="9.5" y="-88.1" font-family="Helvetica,sans-Serif" font-size="8.00"> m_kernel_persistent</text>
<text text-anchor="middle" x="52" y="-79.1" font-family="Helvetica,sans-Serif" font-size="8.00">_run_dir_override</text>
</g>
<!-- Node5&#45;&gt;Node2 -->
<g id="edge4" class="edge">
<title>Node5&#45;&gt;Node2</title>
<path fill="none" stroke="#9a32cd" stroke-dasharray="5,2" d="M30.61,-136.83C37.2,-129.99 45.65,-122.27 54.5,-117 72.31,-106.39 94.27,-98.97 112.37,-94.1"/>
<polygon fill="#9a32cd" stroke="#9a32cd" points="27.98,-134.53 23.82,-144.27 33.15,-139.25 27.98,-134.53"/>
<text text-anchor="middle" x="82" y="-119.6" font-family="Helvetica,sans-Serif" font-size="8.00"> m_exec_path</text>
</g>
<!-- Node6 -->
<g id="node6" class="node">
<title>Node6</title>
<g id="a_node6"><a xlink:title=" ">
<polygon fill="white" stroke="#bfbfbf" points="93.5,-144.5 93.5,-161.5 129.5,-161.5 129.5,-144.5 93.5,-144.5"/>
<text text-anchor="middle" x="111.5" y="-151.1" font-family="Helvetica,sans-Serif" font-size="8.00">uid_t</text>
</a>
</g>
</g>
<!-- Node6&#45;&gt;Node2 -->
<g id="edge5" class="edge">
<title>Node6&#45;&gt;Node2</title>
<path fill="none" stroke="#9a32cd" stroke-dasharray="5,2" d="M111.17,-134.29C111.66,-128.53 112.88,-122.27 115.5,-117 120.15,-107.65 128.89,-99.63 136.06,-94.16"/>
<polygon fill="#9a32cd" stroke="#9a32cd" points="107.67,-134.26 110.92,-144.34 114.66,-134.43 107.67,-134.26"/>
<text text-anchor="middle" x="137" y="-119.6" font-family="Helvetica,sans-Serif" font-size="8.00"> m_user_id</text>
</g>
<!-- Node7 -->
<g id="node7" class="node">
<title>Node7</title>
<g id="a_node7"><a xlink:title=" ">
<polygon fill="white" stroke="#bfbfbf" points="159.5,-144.5 159.5,-161.5 195.5,-161.5 195.5,-144.5 159.5,-144.5"/>
<text text-anchor="middle" x="177.5" y="-151.1" font-family="Helvetica,sans-Serif" font-size="8.00">gid_t</text>
</a>
</g>
</g>
<!-- Node7&#45;&gt;Node2 -->
<g id="edge6" class="edge">
<title>Node7&#45;&gt;Node2</title>
<path fill="none" stroke="#9a32cd" stroke-dasharray="5,2" d="M169.78,-135.15C163.76,-122.01 155.68,-104.36 151.09,-94.33"/>
<polygon fill="#9a32cd" stroke="#9a32cd" points="166.71,-136.85 174.06,-144.49 173.08,-133.94 166.71,-136.85"/>
<text text-anchor="middle" x="190" y="-119.6" font-family="Helvetica,sans-Serif" font-size="8.00"> m_group_id</text>
</g>
<!-- Node8 -->
<g id="node8" class="node">
<title>Node8</title>
<g id="a_node8"><a xlink:title=" ">
<polygon fill="white" stroke="#bfbfbf" points="209.5,-72.5 209.5,-98.5 307.5,-98.5 307.5,-72.5 209.5,-72.5"/>
<text text-anchor="start" x="217.5" y="-88.1" font-family="Helvetica,sans-Serif" font-size="8.00">unordered_set&lt; std</text>
<text text-anchor="middle" x="258.5" y="-79.1" font-family="Helvetica,sans-Serif" font-size="8.00">::string &gt;</text>
</a>
</g>
</g>
<!-- Node8&#45;&gt;Node1 -->
<g id="edge7" class="edge">
<title>Node8&#45;&gt;Node1</title>
<path fill="none" stroke="#9a32cd" stroke-dasharray="5,2" d="M249.23,-62.92C242.67,-47.65 234.27,-28.09 229.74,-17.54"/>
<polygon fill="#9a32cd" stroke="#9a32cd" points="246.05,-64.39 253.22,-72.2 252.49,-61.63 246.05,-64.39"/>
<text text-anchor="middle" x="293" y="-43.1" font-family="Helvetica,sans-Serif" font-size="8.00"> m_allowed_client_apps</text>
</g>
<!-- Node9 -->
<g id="node9" class="node">
<title>Node9</title>
<g id="a_node9"><a xlink:title=" ">
<polygon fill="white" stroke="#bfbfbf" points="330,-77 330,-94 419,-94 419,-77 330,-77"/>
<text text-anchor="middle" x="374.5" y="-83.6" font-family="Helvetica,sans-Serif" font-size="8.00">Permissions_level</text>
</a>
</g>
</g>
<!-- Node9&#45;&gt;Node1 -->
<g id="edge9" class="edge">
<title>Node9&#45;&gt;Node1</title>
<path fill="none" stroke="#9a32cd" stroke-dasharray="5,2" d="M368.39,-67.42C363.73,-56.8 356.25,-43.73 345.5,-36 328.25,-23.59 306.2,-16.92 285.78,-13.39"/>
<polygon fill="#9a32cd" stroke="#9a32cd" points="365.22,-68.92 372.14,-76.94 371.74,-66.35 365.22,-68.92"/>
<text text-anchor="start" x="360.5" y="-47.6" font-family="Helvetica,sans-Serif" font-size="8.00"> m_permissions_level</text>
<text text-anchor="middle" x="404" y="-38.6" font-family="Helvetica,sans-Serif" font-size="8.00">_for_client_apps</text>
</g>
</g>
</svg>
