<?xml version="1.0" encoding="UTF-8" standalone="no"?>
<!DOCTYPE svg PUBLIC "-//W3C//DTD SVG 1.1//EN"
 "http://www.w3.org/Graphics/SVG/1.1/DTD/svg11.dtd">
<!-- Generated by graphviz version 2.43.0 (0)
 -->
<!-- Title: ipc::transport::struc::shm::Builder&lt; Shm_arena &gt;::Config Pages: 1 -->
<svg width="256pt" height="134pt"
 viewBox="0.00 0.00 255.50 134.00" xmlns="http://www.w3.org/2000/svg" xmlns:xlink="http://www.w3.org/1999/xlink">
<g id="graph0" class="graph" transform="scale(1 1) rotate(0) translate(4 130)">
<title>ipc::transport::struc::shm::Builder&lt; Shm_arena &gt;::Config</title>
<polygon fill="white" stroke="transparent" points="-4,4 -4,-130 251.5,-130 251.5,4 -4,4"/>
<!-- Node1 -->
<g id="node1" class="node">
<title>Node1</title>
<g id="a_node1"><a xlink:title="Implements Struct_builder::Config sub&#45;concept.">
<polygon fill="#bfbfbf" stroke="black" points="39,-0.5 39,-35.5 168,-35.5 168,-0.5 39,-0.5"/>
<text text-anchor="start" x="47" y="-25.1" font-family="Helvetica,sans-Serif" font-size="8.00">ipc::transport::struc</text>
<text text-anchor="start" x="47" y="-16.1" font-family="Helvetica,sans-Serif" font-size="8.00">::shm::Builder&lt; Shm_arena</text>
<text text-anchor="middle" x="103.5" y="-7.1" font-family="Helvetica,sans-Serif" font-size="8.00"> &gt;::Config</text>
</a>
</g>
</g>
<!-- Node2 -->
<g id="node2" class="node">
<title>Node2</title>
<g id="a_node2"><a xlink:title=" ">
<polygon fill="white" stroke="#bfbfbf" points="0,-108.5 0,-125.5 51,-125.5 51,-108.5 0,-108.5"/>
<text text-anchor="middle" x="25.5" y="-115.1" font-family="Helvetica,sans-Serif" font-size="8.00">Logger *</text>
</a>
</g>
</g>
<!-- Node2&#45;&gt;Node1 -->
<g id="edge1" class="edge">
<title>Node2&#45;&gt;Node1</title>
<path fill="none" stroke="#9a32cd" stroke-dasharray="5,2" d="M27.48,-98.06C29.73,-84.73 34.49,-66.73 44.5,-54 50.24,-46.7 57.96,-40.6 65.92,-35.64"/>
<polygon fill="#9a32cd" stroke="#9a32cd" points="23.96,-97.94 26.08,-108.32 30.9,-98.88 23.96,-97.94"/>
<text text-anchor="middle" x="72" y="-70.1" font-family="Helvetica,sans-Serif" font-size="8.00"> m_logger_ptr</text>
</g>
<!-- Node3 -->
<g id="node3" class="node">
<title>Node3</title>
<g id="a_node3"><a xlink:title=" ">
<polygon fill="white" stroke="#bfbfbf" points="83.5,-108.5 83.5,-125.5 123.5,-125.5 123.5,-108.5 83.5,-108.5"/>
<text text-anchor="middle" x="103.5" y="-115.1" font-family="Helvetica,sans-Serif" font-size="8.00">size_t</text>
</a>
</g>
</g>
<!-- Node3&#45;&gt;Node1 -->
<g id="edge2" class="edge">
<title>Node3&#45;&gt;Node1</title>
<path fill="none" stroke="#9a32cd" stroke-dasharray="5,2" d="M103.5,-98.26C103.5,-80.48 103.5,-53.31 103.5,-35.85"/>
<polygon fill="#9a32cd" stroke="#9a32cd" points="100,-98.39 103.5,-108.39 107,-98.39 100,-98.39"/>
<text text-anchor="start" x="103.5" y="-83.6" font-family="Helvetica,sans-Serif" font-size="8.00"> m_top_builder_frame</text>
<text text-anchor="middle" x="147.5" y="-74.6" font-family="Helvetica,sans-Serif" font-size="8.00">_postfix_sz</text>
<text text-anchor="start" x="103.5" y="-65.6" font-family="Helvetica,sans-Serif" font-size="8.00">m_top_builder_frame</text>
<text text-anchor="middle" x="147.5" y="-56.6" font-family="Helvetica,sans-Serif" font-size="8.00">_prefix_sz</text>
</g>
<!-- Node4 -->
<g id="node4" class="node">
<title>Node4</title>
<g id="a_node4"><a xlink:title=" ">
<polygon fill="white" stroke="#bfbfbf" points="191,-108.5 191,-125.5 238,-125.5 238,-108.5 191,-108.5"/>
<text text-anchor="middle" x="214.5" y="-115.1" font-family="Helvetica,sans-Serif" font-size="8.00">Arena *</text>
</a>
</g>
</g>
<!-- Node4&#45;&gt;Node1 -->
<g id="edge3" class="edge">
<title>Node4&#45;&gt;Node1</title>
<path fill="none" stroke="#9a32cd" stroke-dasharray="5,2" d="M212.27,-98.38C209.68,-84.69 204.16,-66.06 192.5,-54 185.11,-46.36 175.86,-40.35 166.13,-35.64"/>
<polygon fill="#9a32cd" stroke="#9a32cd" points="208.84,-99.12 213.83,-108.47 215.76,-98.05 208.84,-99.12"/>
<text text-anchor="middle" x="228.5" y="-70.1" font-family="Helvetica,sans-Serif" font-size="8.00"> m_arena</text>
</g>
</g>
</svg>
