<?xml version="1.0" encoding="UTF-8" standalone="no"?>
<!DOCTYPE svg PUBLIC "-//W3C//DTD SVG 1.1//EN"
 "http://www.w3.org/Graphics/SVG/1.1/DTD/svg11.dtd">
<!-- Generated by graphviz version 2.43.0 (0)
 -->
<!-- Title: ipc::shm::classic::Pool_arena::Handle_in_shm&lt; T &gt; Pages: 1 -->
<svg width="181pt" height="179pt"
 viewBox="0.00 0.00 181.00 179.00" xmlns="http://www.w3.org/2000/svg" xmlns:xlink="http://www.w3.org/1999/xlink">
<g id="graph0" class="graph" transform="scale(1 1) rotate(0) translate(4 175)">
<title>ipc::shm::classic::Pool_arena::Handle_in_shm&lt; T &gt;</title>
<polygon fill="white" stroke="transparent" points="-4,4 -4,-175 177,-175 177,4 -4,4"/>
<!-- Node1 -->
<g id="node1" class="node">
<title>Node1</title>
<g id="a_node1"><a xlink:title="The data structure stored in SHM corresponding to an original construct()&#45;returned Handle; exactly on...">
<polygon fill="#bfbfbf" stroke="black" points="0,-0.5 0,-35.5 108,-35.5 108,-0.5 0,-0.5"/>
<text text-anchor="start" x="8" y="-25.1" font-family="Helvetica,sans-Serif" font-size="8.00">ipc::shm::classic::</text>
<text text-anchor="start" x="8" y="-16.1" font-family="Helvetica,sans-Serif" font-size="8.00">Pool_arena::Handle_in</text>
<text text-anchor="middle" x="54" y="-7.1" font-family="Helvetica,sans-Serif" font-size="8.00">_shm&lt; T &gt;</text>
</a>
</g>
</g>
<!-- Node2 -->
<g id="node2" class="node">
<title>Node2</title>
<g id="a_node2"><a xlink:title=" ">
<polygon fill="white" stroke="#bfbfbf" points="14.5,-86 14.5,-103 43.5,-103 43.5,-86 14.5,-86"/>
<text text-anchor="middle" x="29" y="-92.6" font-family="Helvetica,sans-Serif" font-size="8.00">T</text>
</a>
</g>
</g>
<!-- Node2&#45;&gt;Node1 -->
<g id="edge1" class="edge">
<title>Node2&#45;&gt;Node1</title>
<path fill="none" stroke="#9a32cd" stroke-dasharray="5,2" d="M34.88,-75.98C38.96,-63.81 44.37,-47.7 48.39,-35.71"/>
<polygon fill="#9a32cd" stroke="#9a32cd" points="31.44,-75.21 31.58,-85.81 38.08,-77.44 31.44,-75.21"/>
<text text-anchor="middle" x="56.5" y="-56.6" font-family="Helvetica,sans-Serif" font-size="8.00"> m_obj</text>
</g>
<!-- Node3 -->
<g id="node3" class="node">
<title>Node3</title>
<g id="a_node3"><a xlink:title=" ">
<polygon fill="white" stroke="black" points="62,-81.5 62,-107.5 172,-107.5 172,-81.5 62,-81.5"/>
<text text-anchor="start" x="70" y="-97.1" font-family="Helvetica,sans-Serif" font-size="8.00">std::atomic&lt; unsigned</text>
<text text-anchor="middle" x="117" y="-88.1" font-family="Helvetica,sans-Serif" font-size="8.00"> int &gt;</text>
</a>
</g>
</g>
<!-- Node3&#45;&gt;Node1 -->
<g id="edge2" class="edge">
<title>Node3&#45;&gt;Node1</title>
<path fill="none" stroke="#9a32cd" stroke-dasharray="5,2" d="M100.11,-73.53C90.06,-61.64 77.45,-46.73 67.96,-35.51"/>
<polygon fill="#9a32cd" stroke="#9a32cd" points="97.47,-75.82 106.6,-81.2 102.81,-71.3 97.47,-75.82"/>
<text text-anchor="middle" x="132" y="-56.6" font-family="Helvetica,sans-Serif" font-size="8.00"> m_atomic_owner_ct</text>
</g>
<!-- Node4 -->
<g id="node4" class="node">
<title>Node4</title>
<g id="a_node4"><a xlink:title=" ">
<polygon fill="white" stroke="#bfbfbf" points="83,-153.5 83,-170.5 151,-170.5 151,-153.5 83,-153.5"/>
<text text-anchor="middle" x="117" y="-160.1" font-family="Helvetica,sans-Serif" font-size="8.00">unsigned int</text>
</a>
</g>
</g>
<!-- Node4&#45;&gt;Node3 -->
<g id="edge3" class="edge">
<title>Node4&#45;&gt;Node3</title>
<path fill="none" stroke="#9a32cd" stroke-dasharray="5,2" d="M117,-143.18C117,-131.97 117,-117.8 117,-107.82"/>
<polygon fill="#9a32cd" stroke="#9a32cd" points="113.5,-143.49 117,-153.49 120.5,-143.49 113.5,-143.49"/>
<text text-anchor="middle" x="124" y="-128.6" font-family="Helvetica,sans-Serif" font-size="8.00"> ptr</text>
</g>
</g>
</svg>
