<?xml version="1.0" encoding="UTF-8" standalone="no"?>
<!DOCTYPE svg PUBLIC "-//W3C//DTD SVG 1.1//EN"
 "http://www.w3.org/Graphics/SVG/1.1/DTD/svg11.dtd">
<!-- Generated by graphviz version 2.43.0 (0)
 -->
<!-- Title: ipc::session::App Pages: 1 -->
<svg width="286pt" height="153pt"
 viewBox="0.00 0.00 285.50 153.00" xmlns="http://www.w3.org/2000/svg" xmlns:xlink="http://www.w3.org/1999/xlink">
<g id="graph0" class="graph" transform="scale(1 1) rotate(0) translate(4 149)">
<title>ipc::session::App</title>
<polygon fill="white" stroke="transparent" points="-4,4 -4,-149 281.5,-149 281.5,4 -4,4"/>
<!-- Node1 -->
<g id="node1" class="node">
<title>Node1</title>
<g id="a_node1"><a xlink:title="A description of an application in this ipc::session inter&#45;process communication universe.">
<polygon fill="#bfbfbf" stroke="black" points="105.5,-0.5 105.5,-17.5 193.5,-17.5 193.5,-0.5 105.5,-0.5"/>
<text text-anchor="middle" x="149.5" y="-7.1" font-family="Helvetica,sans-Serif" font-size="8.00">ipc::session::App</text>
</a>
</g>
</g>
<!-- Node2 -->
<g id="node2" class="node">
<title>Node2</title>
<g id="a_node2"><a xlink:title=" ">
<polygon fill="white" stroke="black" points="16,-63.5 16,-80.5 75,-80.5 75,-63.5 16,-63.5"/>
<text text-anchor="middle" x="45.5" y="-70.1" font-family="Helvetica,sans-Serif" font-size="8.00">std::string</text>
</a>
</g>
</g>
<!-- Node2&#45;&gt;Node1 -->
<g id="edge1" class="edge">
<title>Node2&#45;&gt;Node1</title>
<path fill="none" stroke="#9a32cd" stroke-dasharray="5,2" d="M52.95,-54.12C56.53,-47.66 61.39,-40.73 67.5,-36 78.72,-27.32 92.91,-21.5 106.31,-17.62"/>
<polygon fill="#9a32cd" stroke="#9a32cd" points="49.62,-52.96 48.37,-63.48 55.91,-56.03 49.62,-52.96"/>
<text text-anchor="middle" x="86" y="-38.6" font-family="Helvetica,sans-Serif" font-size="8.00"> m_name</text>
</g>
<!-- Node3 -->
<g id="node3" class="node">
<title>Node3</title>
<g id="a_node3"><a xlink:title=" ">
<polygon fill="white" stroke="black" points="0,-118.5 0,-144.5 91,-144.5 91,-118.5 0,-118.5"/>
<text text-anchor="start" x="8" y="-134.1" font-family="Helvetica,sans-Serif" font-size="8.00">std::basic_string&lt;</text>
<text text-anchor="middle" x="45.5" y="-125.1" font-family="Helvetica,sans-Serif" font-size="8.00"> Char &gt;</text>
</a>
</g>
</g>
<!-- Node3&#45;&gt;Node2 -->
<g id="edge2" class="edge">
<title>Node3&#45;&gt;Node2</title>
<path fill="none" stroke="midnightblue" d="M45.5,-108.08C45.5,-98.43 45.5,-87.78 45.5,-80.77"/>
<polygon fill="midnightblue" stroke="midnightblue" points="42,-108.31 45.5,-118.31 49,-108.31 42,-108.31"/>
</g>
<!-- Node4 -->
<g id="node4" class="node">
<title>Node4</title>
<g id="a_node4"><a xlink:title=" ">
<polygon fill="white" stroke="#bfbfbf" points="93,-63.5 93,-80.5 128,-80.5 128,-63.5 93,-63.5"/>
<text text-anchor="middle" x="110.5" y="-70.1" font-family="Helvetica,sans-Serif" font-size="8.00">path</text>
</a>
</g>
</g>
<!-- Node4&#45;&gt;Node1 -->
<g id="edge3" class="edge">
<title>Node4&#45;&gt;Node1</title>
<path fill="none" stroke="#9a32cd" stroke-dasharray="5,2" d="M107.91,-53.13C107.86,-47.36 108.7,-41.14 111.5,-36 115.94,-27.86 124.16,-21.76 131.82,-17.52"/>
<polygon fill="#9a32cd" stroke="#9a32cd" points="104.43,-53.59 108.8,-63.25 111.41,-52.98 104.43,-53.59"/>
<text text-anchor="middle" x="139" y="-38.6" font-family="Helvetica,sans-Serif" font-size="8.00"> m_exec_path</text>
</g>
<!-- Node5 -->
<g id="node5" class="node">
<title>Node5</title>
<g id="a_node5"><a xlink:title=" ">
<polygon fill="white" stroke="#bfbfbf" points="170.5,-63.5 170.5,-80.5 206.5,-80.5 206.5,-63.5 170.5,-63.5"/>
<text text-anchor="middle" x="188.5" y="-70.1" font-family="Helvetica,sans-Serif" font-size="8.00">uid_t</text>
</a>
</g>
</g>
<!-- Node5&#45;&gt;Node1 -->
<g id="edge4" class="edge">
<title>Node5&#45;&gt;Node1</title>
<path fill="none" stroke="#9a32cd" stroke-dasharray="5,2" d="M178.26,-54.57C174.57,-48.7 170.37,-42.04 166.5,-36 162.54,-29.83 157.99,-22.87 154.59,-17.71"/>
<polygon fill="#9a32cd" stroke="#9a32cd" points="175.55,-56.84 183.82,-63.47 181.48,-53.13 175.55,-56.84"/>
<text text-anchor="middle" x="193" y="-38.6" font-family="Helvetica,sans-Serif" font-size="8.00"> m_user_id</text>
</g>
<!-- Node6 -->
<g id="node6" class="node">
<title>Node6</title>
<g id="a_node6"><a xlink:title=" ">
<polygon fill="white" stroke="#bfbfbf" points="236.5,-63.5 236.5,-80.5 272.5,-80.5 272.5,-63.5 236.5,-63.5"/>
<text text-anchor="middle" x="254.5" y="-70.1" font-family="Helvetica,sans-Serif" font-size="8.00">gid_t</text>
</a>
</g>
</g>
<!-- Node6&#45;&gt;Node1 -->
<g id="edge5" class="edge">
<title>Node6&#45;&gt;Node1</title>
<path fill="none" stroke="#9a32cd" stroke-dasharray="5,2" d="M241.29,-55.54C234.93,-48.84 226.88,-41.32 218.5,-36 205.86,-27.97 190.36,-21.85 177.25,-17.57"/>
<polygon fill="#9a32cd" stroke="#9a32cd" points="239.04,-58.27 248.32,-63.37 244.24,-53.59 239.04,-58.27"/>
<text text-anchor="middle" x="253" y="-38.6" font-family="Helvetica,sans-Serif" font-size="8.00"> m_group_id</text>
</g>
</g>
</svg>
