<?xml version="1.0" encoding="UTF-8" standalone="no"?>
<!DOCTYPE svg PUBLIC "-//W3C//DTD SVG 1.1//EN"
 "http://www.w3.org/Graphics/SVG/1.1/DTD/svg11.dtd">
<!-- Generated by graphviz version 2.43.0 (0)
 -->
<!-- Title: ipc::session::Client_app Pages: 1 -->
<svg width="286pt" height="208pt"
 viewBox="0.00 0.00 285.50 208.00" xmlns="http://www.w3.org/2000/svg" xmlns:xlink="http://www.w3.org/1999/xlink">
<g id="graph0" class="graph" transform="scale(1 1) rotate(0) translate(4 204)">
<title>ipc::session::Client_app</title>
<polygon fill="white" stroke="transparent" points="-4,4 -4,-204 281.5,-204 281.5,4 -4,4"/>
<!-- Node1 -->
<g id="node1" class="node">
<title>Node1</title>
<g id="a_node1"><a xlink:title="An App that is used as a client in at least one client&#45;server IPC split.">
<polygon fill="#bfbfbf" stroke="black" points="92,-0.5 92,-17.5 207,-17.5 207,-0.5 92,-0.5"/>
<text text-anchor="middle" x="149.5" y="-7.1" font-family="Helvetica,sans-Serif" font-size="8.00">ipc::session::Client_app</text>
</a>
</g>
</g>
<!-- Node2 -->
<g id="node2" class="node">
<title>Node2</title>
<g id="a_node2"><a xlink:href="structipc_1_1session_1_1App.html" target="_top" xlink:title="A description of an application in this ipc::session inter&#45;process communication universe.">
<polygon fill="white" stroke="black" points="105.5,-55.5 105.5,-72.5 193.5,-72.5 193.5,-55.5 105.5,-55.5"/>
<text text-anchor="middle" x="149.5" y="-62.1" font-family="Helvetica,sans-Serif" font-size="8.00">ipc::session::App</text>
</a>
</g>
</g>
<!-- Node2&#45;&gt;Node1 -->
<g id="edge1" class="edge">
<title>Node2&#45;&gt;Node1</title>
<path fill="none" stroke="midnightblue" d="M149.5,-44.89C149.5,-35.53 149.5,-24.61 149.5,-17.51"/>
<polygon fill="midnightblue" stroke="midnightblue" points="146,-45.18 149.5,-55.18 153,-45.18 146,-45.18"/>
</g>
<!-- Node3 -->
<g id="node3" class="node">
<title>Node3</title>
<g id="a_node3"><a xlink:title=" ">
<polygon fill="white" stroke="black" points="16,-118.5 16,-135.5 75,-135.5 75,-118.5 16,-118.5"/>
<text text-anchor="middle" x="45.5" y="-125.1" font-family="Helvetica,sans-Serif" font-size="8.00">std::string</text>
</a>
</g>
</g>
<!-- Node3&#45;&gt;Node2 -->
<g id="edge2" class="edge">
<title>Node3&#45;&gt;Node2</title>
<path fill="none" stroke="#9a32cd" stroke-dasharray="5,2" d="M52.95,-109.12C56.53,-102.66 61.39,-95.73 67.5,-91 78.72,-82.32 92.91,-76.5 106.31,-72.62"/>
<polygon fill="#9a32cd" stroke="#9a32cd" points="49.62,-107.96 48.37,-118.48 55.91,-111.03 49.62,-107.96"/>
<text text-anchor="middle" x="86" y="-93.6" font-family="Helvetica,sans-Serif" font-size="8.00"> m_name</text>
</g>
<!-- Node4 -->
<g id="node4" class="node">
<title>Node4</title>
<g id="a_node4"><a xlink:title=" ">
<polygon fill="white" stroke="black" points="0,-173.5 0,-199.5 91,-199.5 91,-173.5 0,-173.5"/>
<text text-anchor="start" x="8" y="-189.1" font-family="Helvetica,sans-Serif" font-size="8.00">std::basic_string&lt;</text>
<text text-anchor="middle" x="45.5" y="-180.1" font-family="Helvetica,sans-Serif" font-size="8.00"> Char &gt;</text>
</a>
</g>
</g>
<!-- Node4&#45;&gt;Node3 -->
<g id="edge3" class="edge">
<title>Node4&#45;&gt;Node3</title>
<path fill="none" stroke="midnightblue" d="M45.5,-163.08C45.5,-153.43 45.5,-142.78 45.5,-135.77"/>
<polygon fill="midnightblue" stroke="midnightblue" points="42,-163.31 45.5,-173.31 49,-163.31 42,-163.31"/>
</g>
<!-- Node5 -->
<g id="node5" class="node">
<title>Node5</title>
<g id="a_node5"><a xlink:title=" ">
<polygon fill="white" stroke="#bfbfbf" points="93,-118.5 93,-135.5 128,-135.5 128,-118.5 93,-118.5"/>
<text text-anchor="middle" x="110.5" y="-125.1" font-family="Helvetica,sans-Serif" font-size="8.00">path</text>
</a>
</g>
</g>
<!-- Node5&#45;&gt;Node2 -->
<g id="edge4" class="edge">
<title>Node5&#45;&gt;Node2</title>
<path fill="none" stroke="#9a32cd" stroke-dasharray="5,2" d="M107.91,-108.13C107.86,-102.36 108.7,-96.14 111.5,-91 115.94,-82.86 124.16,-76.76 131.82,-72.52"/>
<polygon fill="#9a32cd" stroke="#9a32cd" points="104.43,-108.59 108.8,-118.25 111.41,-107.98 104.43,-108.59"/>
<text text-anchor="middle" x="139" y="-93.6" font-family="Helvetica,sans-Serif" font-size="8.00"> m_exec_path</text>
</g>
<!-- Node6 -->
<g id="node6" class="node">
<title>Node6</title>
<g id="a_node6"><a xlink:title=" ">
<polygon fill="white" stroke="#bfbfbf" points="170.5,-118.5 170.5,-135.5 206.5,-135.5 206.5,-118.5 170.5,-118.5"/>
<text text-anchor="middle" x="188.5" y="-125.1" font-family="Helvetica,sans-Serif" font-size="8.00">uid_t</text>
</a>
</g>
</g>
<!-- Node6&#45;&gt;Node2 -->
<g id="edge5" class="edge">
<title>Node6&#45;&gt;Node2</title>
<path fill="none" stroke="#9a32cd" stroke-dasharray="5,2" d="M178.26,-109.57C174.57,-103.7 170.37,-97.04 166.5,-91 162.54,-84.83 157.99,-77.87 154.59,-72.71"/>
<polygon fill="#9a32cd" stroke="#9a32cd" points="175.55,-111.84 183.82,-118.47 181.48,-108.13 175.55,-111.84"/>
<text text-anchor="middle" x="193" y="-93.6" font-family="Helvetica,sans-Serif" font-size="8.00"> m_user_id</text>
</g>
<!-- Node7 -->
<g id="node7" class="node">
<title>Node7</title>
<g id="a_node7"><a xlink:title=" ">
<polygon fill="white" stroke="#bfbfbf" points="236.5,-118.5 236.5,-135.5 272.5,-135.5 272.5,-118.5 236.5,-118.5"/>
<text text-anchor="middle" x="254.5" y="-125.1" font-family="Helvetica,sans-Serif" font-size="8.00">gid_t</text>
</a>
</g>
</g>
<!-- Node7&#45;&gt;Node2 -->
<g id="edge6" class="edge">
<title>Node7&#45;&gt;Node2</title>
<path fill="none" stroke="#9a32cd" stroke-dasharray="5,2" d="M241.29,-110.54C234.93,-103.84 226.88,-96.32 218.5,-91 205.86,-82.97 190.36,-76.85 177.25,-72.57"/>
<polygon fill="#9a32cd" stroke="#9a32cd" points="239.04,-113.27 248.32,-118.37 244.24,-108.59 239.04,-113.27"/>
<text text-anchor="middle" x="253" y="-93.6" font-family="Helvetica,sans-Serif" font-size="8.00"> m_group_id</text>
</g>
</g>
</svg>
