<?xml version="1.0" encoding="UTF-8" standalone="no"?>
<!DOCTYPE svg PUBLIC "-//W3C//DTD SVG 1.1//EN"
 "http://www.w3.org/Graphics/SVG/1.1/DTD/svg11.dtd">
<!-- Generated by graphviz version 2.43.0 (0)
 -->
<!-- Title: ipc::util::Native_handle::operator= Pages: 1 -->
<svg width="256pt" height="62pt"
 viewBox="0.00 0.00 256.00 62.00" xmlns="http://www.w3.org/2000/svg" xmlns:xlink="http://www.w3.org/1999/xlink">
<g id="graph0" class="graph" transform="scale(1 1) rotate(0) translate(4 58)">
<title>ipc::util::Native_handle::operator=</title>
<polygon fill="white" stroke="transparent" points="-4,4 -4,-58 252,-58 252,4 -4,4"/>
<!-- Node1 -->
<g id="node1" class="node">
<title>Node1</title>
<g id="a_node1"><a xlink:title="Move assignment; acts similarly to move ctor; but no&#45;op if *this == src.">
<polygon fill="#bfbfbf" stroke="black" points="0,-14 0,-40 112,-40 112,-14 0,-14"/>
<text text-anchor="start" x="8" y="-29.6" font-family="Helvetica,sans-Serif" font-size="8.00">ipc::util::Native_handle</text>
<text text-anchor="middle" x="56" y="-20.6" font-family="Helvetica,sans-Serif" font-size="8.00">::operator=</text>
</a>
</g>
</g>
<!-- Node2 -->
<g id="node2" class="node">
<title>Node2</title>
<g id="a_node2"><a xlink:href="namespaceipc_1_1transport.html#af0610dff5efd418a8ff393f0ad9dd5c2" target="_top" xlink:title="Implements Persistent_mq_handle related concept: Swaps two objects.">
<polygon fill="white" stroke="black" points="148,-36.5 148,-53.5 248,-53.5 248,-36.5 148,-36.5"/>
<text text-anchor="middle" x="198" y="-43.1" font-family="Helvetica,sans-Serif" font-size="8.00">ipc::transport::swap</text>
</a>
</g>
</g>
<!-- Node1&#45;&gt;Node2 -->
<g id="edge1" class="edge">
<title>Node1&#45;&gt;Node2</title>
<path fill="none" stroke="midnightblue" d="M112.33,-34.11C120.7,-35.19 129.36,-36.3 137.81,-37.39"/>
<polygon fill="midnightblue" stroke="midnightblue" points="137.6,-40.89 147.97,-38.7 138.5,-33.95 137.6,-40.89"/>
</g>
<!-- Node3 -->
<g id="node3" class="node">
<title>Node3</title>
<g id="a_node3"><a xlink:href="namespaceipc_1_1util.html#a9ea22a64cfbc6de66181c278ff5f6975" target="_top" xlink:title="Swaps two objects.">
<polygon fill="white" stroke="black" points="160.5,-0.5 160.5,-17.5 235.5,-17.5 235.5,-0.5 160.5,-0.5"/>
<text text-anchor="middle" x="198" y="-7.1" font-family="Helvetica,sans-Serif" font-size="8.00">ipc::util::swap</text>
</a>
</g>
</g>
<!-- Node1&#45;&gt;Node3 -->
<g id="edge2" class="edge">
<title>Node1&#45;&gt;Node3</title>
<path fill="none" stroke="midnightblue" d="M112.33,-19.89C124.75,-18.29 137.8,-16.61 149.85,-15.06"/>
<polygon fill="midnightblue" stroke="midnightblue" points="150.66,-18.49 160.13,-13.74 149.77,-11.54 150.66,-18.49"/>
</g>
</g>
</svg>
