<?xml version="1.0" encoding="UTF-8" standalone="no"?>
<!DOCTYPE svg PUBLIC "-//W3C//DTD SVG 1.1//EN"
 "http://www.w3.org/Graphics/SVG/1.1/DTD/svg11.dtd">
<!-- Generated by graphviz version 2.43.0 (0)
 -->
<!-- Title: ipc::transport::struc::sync_io::Channel&lt; Channel_obj, Message_body, Struct_builder_config, Struct_reader_config &gt;::Msg_in_pipe Pages: 1 -->
<svg width="618pt" height="183pt"
 viewBox="0.00 0.00 618.00 182.50" xmlns="http://www.w3.org/2000/svg" xmlns:xlink="http://www.w3.org/1999/xlink">
<g id="graph0" class="graph" transform="scale(1 1) rotate(0) translate(4 178.5)">
<title>ipc::transport::struc::sync_io::Channel&lt; Channel_obj, Message_body, Struct_builder_config, Struct_reader_config &gt;::Msg_in_pipe</title>
<polygon fill="white" stroke="transparent" points="-4,4 -4,-178.5 614,-178.5 614,4 -4,4"/>
<!-- Node1 -->
<g id="node1" class="node">
<title>Node1</title>
<g id="a_node1"><a xlink:title="Data and policy with respect to receipt of the next/currently&#45;incomplete in&#45;message.">
<polygon fill="#bfbfbf" stroke="black" points="473,-64 473,-117 610,-117 610,-64 473,-64"/>
<text text-anchor="start" x="481" y="-106.6" font-family="Helvetica,sans-Serif" font-size="8.00">ipc::transport::struc</text>
<text text-anchor="start" x="481" y="-97.6" font-family="Helvetica,sans-Serif" font-size="8.00">::sync_io::Channel&lt; Channel</text>
<text text-anchor="start" x="481" y="-88.6" font-family="Helvetica,sans-Serif" font-size="8.00">_obj, Message_body, Struct</text>
<text text-anchor="start" x="481" y="-79.6" font-family="Helvetica,sans-Serif" font-size="8.00">_builder_config, Struct_reader</text>
<text text-anchor="middle" x="541.5" y="-70.6" font-family="Helvetica,sans-Serif" font-size="8.00">_config &gt;::Msg_in_pipe</text>
</a>
</g>
</g>
<!-- Node2 -->
<g id="node2" class="node">
<title>Node2</title>
<g id="a_node2"><a xlink:title=" ">
<polygon fill="white" stroke="#bfbfbf" points="209,-157 209,-174 354,-174 354,-157 209,-157"/>
<text text-anchor="middle" x="281.5" y="-163.6" font-family="Helvetica,sans-Serif" font-size="8.00">anonymous:m_lead_msg_mode</text>
</a>
</g>
</g>
<!-- Node2&#45;&gt;Node1 -->
<g id="edge1" class="edge">
<title>Node2&#45;&gt;Node1</title>
<path fill="none" stroke="#9a32cd" stroke-dasharray="5,2" d="M364.38,-156.6C393.49,-152.05 426.17,-145.32 455,-135.5 468.97,-130.74 483.44,-123.94 496.42,-117.05"/>
<polygon fill="#9a32cd" stroke="#9a32cd" points="363.62,-153.18 354.25,-158.12 364.66,-160.1 363.62,-153.18"/>
<text text-anchor="middle" x="413.5" y="-157.1" font-family="Helvetica,sans-Serif" font-size="8.00"> m_lead_msg_mode</text>
</g>
<!-- Node3 -->
<g id="node3" class="node">
<title>Node3</title>
<g id="a_node3"><a xlink:title=" ">
<polygon fill="white" stroke="#bfbfbf" points="261.5,-118 261.5,-135 301.5,-135 301.5,-118 261.5,-118"/>
<text text-anchor="middle" x="281.5" y="-124.6" font-family="Helvetica,sans-Serif" font-size="8.00">size_t</text>
</a>
</g>
</g>
<!-- Node3&#45;&gt;Node1 -->
<g id="edge2" class="edge">
<title>Node3&#45;&gt;Node1</title>
<path fill="none" stroke="#9a32cd" stroke-dasharray="5,2" d="M311.9,-122.42C346.24,-117.65 404.74,-109.52 455,-102.5 460.79,-101.69 466.8,-100.85 472.83,-100.01"/>
<polygon fill="#9a32cd" stroke="#9a32cd" points="311.07,-119 301.65,-123.84 312.03,-125.94 311.07,-119"/>
<text text-anchor="start" x="372" y="-125.1" font-family="Helvetica,sans-Serif" font-size="8.00"> m_n_segs_left_after</text>
<text text-anchor="middle" x="413.5" y="-116.1" font-family="Helvetica,sans-Serif" font-size="8.00">_this_read</text>
</g>
<!-- Node4 -->
<g id="node4" class="node">
<title>Node4</title>
<g id="a_node4"><a xlink:title=" ">
<polygon fill="white" stroke="#bfbfbf" points="261,-82 261,-99 302,-99 302,-82 261,-82"/>
<text text-anchor="middle" x="281.5" y="-88.6" font-family="Helvetica,sans-Serif" font-size="8.00">Blob *</text>
</a>
</g>
</g>
<!-- Node4&#45;&gt;Node1 -->
<g id="edge3" class="edge">
<title>Node4&#45;&gt;Node1</title>
<path fill="none" stroke="#9a32cd" stroke-dasharray="5,2" d="M312.48,-90.5C351.5,-90.5 420.83,-90.5 472.83,-90.5"/>
<polygon fill="#9a32cd" stroke="#9a32cd" points="312.32,-87 302.32,-90.5 312.32,-94 312.32,-87"/>
<text text-anchor="middle" x="413.5" y="-93.1" font-family="Helvetica,sans-Serif" font-size="8.00"> m_target_blob</text>
</g>
<!-- Node5 -->
<g id="node5" class="node">
<title>Node5</title>
<g id="a_node5"><a xlink:href="structipc_1_1util_1_1Native__handle.html" target="_top" xlink:title="A monolayer&#45;thin wrapper around a native handle, a/k/a descriptor a/k/a FD.">
<polygon fill="white" stroke="black" points="225.5,-46 225.5,-63 337.5,-63 337.5,-46 225.5,-46"/>
<text text-anchor="middle" x="281.5" y="-52.6" font-family="Helvetica,sans-Serif" font-size="8.00">ipc::util::Native_handle</text>
</a>
</g>
</g>
<!-- Node5&#45;&gt;Node1 -->
<g id="edge4" class="edge">
<title>Node5&#45;&gt;Node1</title>
<path fill="none" stroke="#9a32cd" stroke-dasharray="5,2" d="M347.9,-62.93C380.16,-67.17 419.64,-72.46 455,-77.5 460.8,-78.33 466.81,-79.2 472.84,-80.1"/>
<polygon fill="#9a32cd" stroke="#9a32cd" points="348.06,-59.42 337.69,-61.6 347.15,-66.37 348.06,-59.42"/>
<text text-anchor="middle" x="413.5" y="-80.1" font-family="Helvetica,sans-Serif" font-size="8.00"> m_target_hndl</text>
</g>
<!-- Node6 -->
<g id="node6" class="node">
<title>Node6</title>
<g id="a_node6"><a xlink:title=" ">
<polygon fill="white" stroke="#bfbfbf" points="0,-64 0,-81 101,-81 101,-64 0,-64"/>
<text text-anchor="middle" x="50.5" y="-70.6" font-family="Helvetica,sans-Serif" font-size="8.00">static const handle_t</text>
</a>
</g>
</g>
<!-- Node6&#45;&gt;Node5 -->
<g id="edge5" class="edge">
<title>Node6&#45;&gt;Node5</title>
<path fill="none" stroke="#9a32cd" stroke-dasharray="5,2" d="M111.35,-67.8C146.6,-65.03 190.88,-61.54 225.29,-58.84"/>
<polygon fill="#9a32cd" stroke="#9a32cd" points="110.88,-64.32 101.19,-68.59 111.43,-71.3 110.88,-64.32"/>
<text text-anchor="middle" x="155" y="-69.1" font-family="Helvetica,sans-Serif" font-size="8.00"> S_NULL_HANDLE</text>
</g>
<!-- Node7 -->
<g id="node7" class="node">
<title>Node7</title>
<g id="a_node7"><a xlink:title=" ">
<polygon fill="white" stroke="#bfbfbf" points="36,-28 36,-45 65,-45 65,-28 36,-28"/>
<text text-anchor="middle" x="50.5" y="-34.6" font-family="Helvetica,sans-Serif" font-size="8.00">int</text>
</a>
</g>
</g>
<!-- Node7&#45;&gt;Node5 -->
<g id="edge6" class="edge">
<title>Node7&#45;&gt;Node5</title>
<path fill="none" stroke="#9a32cd" stroke-dasharray="5,2" d="M75.41,-38.38C110.65,-41.15 177.55,-46.41 225.36,-50.17"/>
<polygon fill="#9a32cd" stroke="#9a32cd" points="75.38,-34.87 65.14,-37.57 74.83,-41.85 75.38,-34.87"/>
<text text-anchor="middle" x="155" y="-49.1" font-family="Helvetica,sans-Serif" font-size="8.00"> m_native_handle</text>
</g>
<!-- Node8 -->
<g id="node8" class="node">
<title>Node8</title>
<g id="a_node8"><a xlink:title=" ">
<polygon fill="white" stroke="#bfbfbf" points="233,-0.5 233,-26.5 330,-26.5 330,-0.5 233,-0.5"/>
<text text-anchor="start" x="241" y="-16.1" font-family="Helvetica,sans-Serif" font-size="8.00">unique_ptr&lt; Msg_in</text>
<text text-anchor="middle" x="281.5" y="-7.1" font-family="Helvetica,sans-Serif" font-size="8.00">_impl &gt;</text>
</a>
</g>
</g>
<!-- Node8&#45;&gt;Node1 -->
<g id="edge7" class="edge">
<title>Node8&#45;&gt;Node1</title>
<path fill="none" stroke="#9a32cd" stroke-dasharray="5,2" d="M340.23,-23.61C374.11,-30.27 417.5,-40.06 455,-52.5 464.87,-55.77 475.14,-59.78 485.01,-63.96"/>
<polygon fill="#9a32cd" stroke="#9a32cd" points="340.52,-20.1 330.04,-21.65 339.19,-26.98 340.52,-20.1"/>
<text text-anchor="middle" x="413.5" y="-55.1" font-family="Helvetica,sans-Serif" font-size="8.00"> m_incomplete_msg</text>
</g>
</g>
</svg>
